<?xml version="1.0" encoding="UTF-8" standalone="no"?>
<!DOCTYPE svg PUBLIC "-//W3C//DTD SVG 1.1//EN"
 "http://www.w3.org/Graphics/SVG/1.1/DTD/svg11.dtd">
<!-- Generated by graphviz version 2.43.0 (0)
 -->
<!-- Title: ADD_MATERIAL Pages: 1 -->
<svg width="888pt" height="388pt"
 viewBox="0.00 0.00 888.00 388.00" xmlns="http://www.w3.org/2000/svg" xmlns:xlink="http://www.w3.org/1999/xlink">
<g id="graph0" class="graph" transform="scale(1 1) rotate(0) translate(4 384)">
<title>ADD_MATERIAL</title>
<polygon fill="white" stroke="transparent" points="-4,4 -4,-384 884,-384 884,4 -4,4"/>
<text text-anchor="middle" x="440" y="-7.8" font-family="Times,serif" font-size="14.00">ADD_MATERIAL</text>
<!-- start_SUBPROGRAM_8fdd640 -->
<g id="node1" class="node">
<title>start_SUBPROGRAM_8fdd640</title>
<ellipse fill="none" stroke="black" cx="440" cy="-373" rx="7" ry="7"/>
</g>
<!-- COMMENT_8fd4500+1 -->
<g id="node2" class="node">
<title>COMMENT_8fd4500+1</title>
<polygon fill="none" stroke="black" points="874,-330 0,-330 0,-217 880,-217 880,-324 874,-330"/>
<polyline fill="none" stroke="black" points="874,-330 874,-324 "/>
<polyline fill="none" stroke="black" points="880,-324 874,-324 "/>
<text text-anchor="middle" x="440" y="-314.8" font-family="Times,serif" font-size="14.00">!&gt; brief Update list of material indices</text>
<text text-anchor="middle" x="440" y="-299.8" font-family="Times,serif" font-size="14.00">!&gt; details The list of materials on the search list are checked against the X list and added if not there. Then the residues</text>
<text text-anchor="middle" x="440" y="-284.8" font-family="Times,serif" font-size="14.00">!&gt; of the materials added to the X list are checked, and the residues of the residues, etc.</text>
<text text-anchor="middle" x="440" y="-269.8" font-family="Times,serif" font-size="14.00">!&gt; param N_MATLS_SEARCH Number of materials in the array to be searched</text>
<text text-anchor="middle" x="440" y="-254.8" font-family="Times,serif" font-size="14.00">!&gt; param MATL_INDEX_SEARCH Array of material indices on the search list</text>
<text text-anchor="middle" x="440" y="-239.8" font-family="Times,serif" font-size="14.00">!&gt; param N_MATLS_X Number of materials on the new list</text>
<text text-anchor="middle" x="440" y="-224.8" font-family="Times,serif" font-size="14.00">!&gt; param MATL_INDEX_X Array of new material indices</text>
</g>
<!-- start_SUBPROGRAM_8fdd640&#45;&gt;COMMENT_8fd4500+1 -->
<g id="edge1" class="edge">
<title>start_SUBPROGRAM_8fdd640&#45;&gt;COMMENT_8fd4500+1</title>
<path fill="none" stroke="black" d="M440,-365.9C440,-360.09 440,-350.67 440,-340.04"/>
<polygon fill="black" stroke="black" points="443.5,-340.01 440,-330.01 436.5,-340.01 443.5,-340.01"/>
</g>
<!-- DO_8fce4c0 -->
<g id="node3" class="node">
<title>DO_8fce4c0</title>
<polygon fill="none" stroke="orange" points="493,-181 387,-181 387,-145 493,-145 493,-181"/>
<text text-anchor="middle" x="440" y="-159.3" font-family="Times,serif" font-size="14.00">MATL_LOOP</text>
</g>
<!-- COMMENT_8fd4500+1&#45;&gt;DO_8fce4c0 -->
<g id="edge2" class="edge">
<title>COMMENT_8fd4500+1&#45;&gt;DO_8fce4c0</title>
<path fill="none" stroke="black" d="M440,-216.98C440,-208.19 440,-199.45 440,-191.67"/>
<polygon fill="black" stroke="black" points="443.5,-191.42 440,-181.42 436.5,-191.42 443.5,-191.42"/>
</g>
<!-- DO_8fdd4c0 -->
<g id="node4" class="node">
<title>DO_8fdd4c0</title>
<polygon fill="none" stroke="orange" points="501,-109 379,-109 379,-73 501,-73 501,-109"/>
<text text-anchor="middle" x="440" y="-87.3" font-family="Times,serif" font-size="14.00">MATL_LOOP_2</text>
</g>
<!-- DO_8fce4c0&#45;&gt;DO_8fdd4c0 -->
<g id="edge3" class="edge">
<title>DO_8fce4c0&#45;&gt;DO_8fdd4c0</title>
<path fill="none" stroke="black" d="M440,-144.7C440,-136.98 440,-127.71 440,-119.11"/>
<polygon fill="black" stroke="black" points="443.5,-119.1 440,-109.1 436.5,-119.1 443.5,-119.1"/>
</g>
<!-- end_SUBPROGRAM_8fdd640 -->
<g id="node5" class="node">
<title>end_SUBPROGRAM_8fdd640</title>
<ellipse fill="black" stroke="black" cx="440" cy="-30" rx="7" ry="7"/>
</g>
<!-- DO_8fdd4c0&#45;&gt;end_SUBPROGRAM_8fdd640 -->
<g id="edge4" class="edge">
<title>DO_8fdd4c0&#45;&gt;end_SUBPROGRAM_8fdd640</title>
<path fill="none" stroke="black" d="M440,-72.93C440,-64.89 440,-55.33 440,-47.37"/>
<polygon fill="black" stroke="black" points="443.5,-47.22 440,-37.22 436.5,-47.22 443.5,-47.22"/>
</g>
</g>
</svg>
