<?xml version="1.0" encoding="UTF-8" standalone="no"?>
<!DOCTYPE svg PUBLIC "-//W3C//DTD SVG 1.1//EN"
 "http://www.w3.org/Graphics/SVG/1.1/DTD/svg11.dtd">
<!-- Generated by graphviz version 2.43.0 (0)
 -->
<!-- Title: ADJUST_HT3D_WALL_CELLS Pages: 1 -->
<svg width="817pt" height="474pt"
 viewBox="0.00 0.00 817.00 473.88" xmlns="http://www.w3.org/2000/svg" xmlns:xlink="http://www.w3.org/1999/xlink">
<g id="graph0" class="graph" transform="scale(1 1) rotate(0) translate(4 469.88)">
<title>ADJUST_HT3D_WALL_CELLS</title>
<polygon fill="white" stroke="transparent" points="-4,4 -4,-469.88 813,-469.88 813,4 -4,4"/>
<text text-anchor="middle" x="404.5" y="-7.8" font-family="Times,serif" font-size="14.00">ADJUST_HT3D_WALL_CELLS</text>
<g id="clust1" class="cluster">
<title>cluster_PRIMARY_WALL_LOOP_1</title>
<polygon fill="none" stroke="orange" points="276.5,-221.44 276.5,-369.88 532.5,-369.88 532.5,-221.44 276.5,-221.44"/>
<text text-anchor="middle" x="375" y="-354.68" font-family="Times,serif" font-size="14.00">PRIMARY_WALL_LOOP_1</text>
</g>
<g id="clust2" class="cluster">
<title>cluster_PRIMARY_THIN_WALL_LOOP_1</title>
<polygon fill="none" stroke="orange" points="276.5,-65 276.5,-213.44 532.5,-213.44 532.5,-65 276.5,-65"/>
<text text-anchor="middle" x="397.5" y="-198.24" font-family="Times,serif" font-size="14.00">PRIMARY_THIN_WALL_LOOP_1</text>
</g>
<!-- start_SUBPROGRAM_8ef8ca0 -->
<g id="node1" class="node">
<title>start_SUBPROGRAM_8ef8ca0</title>
<ellipse fill="none" stroke="black" cx="404.5" cy="-458.88" rx="7" ry="7"/>
</g>
<!-- COMMENT_8ef43c0+1 -->
<g id="node2" class="node">
<title>COMMENT_8ef43c0+1</title>
<polygon fill="none" stroke="black" points="803,-415.88 0,-415.88 0,-377.88 809,-377.88 809,-409.88 803,-415.88"/>
<polyline fill="none" stroke="black" points="803,-415.88 803,-409.88 "/>
<polyline fill="none" stroke="black" points="809,-409.88 803,-409.88 "/>
<text text-anchor="middle" x="404.5" y="-400.68" font-family="Times,serif" font-size="14.00">!&gt; brief Find WALL THIN_WALL cells with VARIABLE_THICKNESS or HT3D and adjust the 1&#45;D internal noding</text>
<text text-anchor="middle" x="404.5" y="-385.68" font-family="Times,serif" font-size="14.00">!&gt; param NM Mesh index</text>
</g>
<!-- start_SUBPROGRAM_8ef8ca0&#45;&gt;COMMENT_8ef43c0+1 -->
<g id="edge1" class="edge">
<title>start_SUBPROGRAM_8ef8ca0&#45;&gt;COMMENT_8ef43c0+1</title>
<path fill="none" stroke="black" d="M404.5,-451.46C404.5,-445.29 404.5,-435.52 404.5,-426"/>
<polygon fill="black" stroke="black" points="408,-425.96 404.5,-415.96 401,-425.96 408,-425.96"/>
</g>
<!-- beginDO_DO_8ef7560 -->
<g id="node3" class="node">
<title>beginDO_DO_8ef7560</title>
<ellipse fill="black" stroke="black" cx="404.5" cy="-338.52" rx="0.36" ry="0.36"/>
</g>
<!-- COMMENT_8ef43c0+1&#45;&gt;beginDO_DO_8ef7560 -->
<g id="edge3" class="edge">
<title>COMMENT_8ef43c0+1&#45;&gt;beginDO_DO_8ef7560</title>
<path fill="none" stroke="black" d="M404.5,-377.74C404.5,-361.78 404.5,-340.87 404.5,-339.58"/>
</g>
<!-- CALL_8ef7420 -->
<g id="node5" class="node">
<title>CALL_8ef7420</title>
<g id="a_node5"><a xlink:href="REALLOCATE_ONE_D_ARRAYS.svg" xlink:title="REALLOCATE_ONE_D_ARRAYS">
<polygon fill="lightgray" stroke="black" points="524.5,-302.16 284.5,-302.16 284.5,-298.16 280.5,-298.16 280.5,-294.16 284.5,-294.16 284.5,-274.16 280.5,-274.16 280.5,-270.16 284.5,-270.16 284.5,-266.16 524.5,-266.16 524.5,-302.16"/>
<polyline fill="none" stroke="black" points="284.5,-298.16 288.5,-298.16 288.5,-294.16 284.5,-294.16 "/>
<polyline fill="none" stroke="black" points="284.5,-274.16 288.5,-274.16 288.5,-270.16 284.5,-270.16 "/>
<text text-anchor="middle" x="404.5" y="-280.46" font-family="Times,serif" font-size="14.00">REALLOCATE_ONE_D_ARRAYS</text>
</a>
</g>
</g>
<!-- beginDO_DO_8ef7560&#45;&gt;CALL_8ef7420 -->
<g id="edge2" class="edge">
<title>beginDO_DO_8ef7560&#45;&gt;CALL_8ef7420</title>
<path fill="none" stroke="black" d="M404.5,-338.01C404.5,-336.53 404.5,-324.48 404.5,-312.26"/>
<polygon fill="black" stroke="black" points="408,-312.18 404.5,-302.18 401,-312.18 408,-312.18"/>
</g>
<!-- endDO_DO_8ef7560 -->
<g id="node4" class="node">
<title>endDO_DO_8ef7560</title>
<ellipse fill="black" stroke="black" cx="404.5" cy="-229.8" rx="0.36" ry="0.36"/>
</g>
<!-- beginDO_DO_8ef8be0 -->
<g id="node6" class="node">
<title>beginDO_DO_8ef8be0</title>
<ellipse fill="black" stroke="black" cx="404.5" cy="-182.08" rx="0.36" ry="0.36"/>
</g>
<!-- endDO_DO_8ef7560&#45;&gt;beginDO_DO_8ef8be0 -->
<g id="edge6" class="edge">
<title>endDO_DO_8ef7560&#45;&gt;beginDO_DO_8ef8be0</title>
<path fill="none" stroke="black" d="M404.5,-228.67C404.5,-226.07 404.5,-185.72 404.5,-183.2"/>
</g>
<!-- CALL_8ef7420&#45;&gt;endDO_DO_8ef7560 -->
<g id="edge4" class="edge">
<title>CALL_8ef7420&#45;&gt;endDO_DO_8ef7560</title>
<path fill="none" stroke="black" d="M404.5,-266.1C404.5,-251.09 404.5,-231.43 404.5,-230.22"/>
</g>
<!-- CALL_8ef89a0 -->
<g id="node8" class="node">
<title>CALL_8ef89a0</title>
<g id="a_node8"><a xlink:href="REALLOCATE_ONE_D_ARRAYS.svg" xlink:title="REALLOCATE_ONE_D_ARRAYS">
<polygon fill="lightgray" stroke="black" points="524.5,-145.72 284.5,-145.72 284.5,-141.72 280.5,-141.72 280.5,-137.72 284.5,-137.72 284.5,-117.72 280.5,-117.72 280.5,-113.72 284.5,-113.72 284.5,-109.72 524.5,-109.72 524.5,-145.72"/>
<polyline fill="none" stroke="black" points="284.5,-141.72 288.5,-141.72 288.5,-137.72 284.5,-137.72 "/>
<polyline fill="none" stroke="black" points="284.5,-117.72 288.5,-117.72 288.5,-113.72 284.5,-113.72 "/>
<text text-anchor="middle" x="404.5" y="-124.02" font-family="Times,serif" font-size="14.00">REALLOCATE_ONE_D_ARRAYS</text>
</a>
</g>
</g>
<!-- beginDO_DO_8ef8be0&#45;&gt;CALL_8ef89a0 -->
<g id="edge5" class="edge">
<title>beginDO_DO_8ef8be0&#45;&gt;CALL_8ef89a0</title>
<path fill="none" stroke="black" d="M404.5,-181.57C404.5,-180.09 404.5,-168.04 404.5,-155.82"/>
<polygon fill="black" stroke="black" points="408,-155.74 404.5,-145.74 401,-155.74 408,-155.74"/>
</g>
<!-- endDO_DO_8ef8be0 -->
<g id="node7" class="node">
<title>endDO_DO_8ef8be0</title>
<ellipse fill="black" stroke="black" cx="404.5" cy="-73.36" rx="0.36" ry="0.36"/>
</g>
<!-- end_SUBPROGRAM_8ef8ca0 -->
<g id="node9" class="node">
<title>end_SUBPROGRAM_8ef8ca0</title>
<ellipse fill="black" stroke="black" cx="404.5" cy="-30" rx="7" ry="7"/>
</g>
<!-- endDO_DO_8ef8be0&#45;&gt;end_SUBPROGRAM_8ef8ca0 -->
<g id="edge8" class="edge">
<title>endDO_DO_8ef8be0&#45;&gt;end_SUBPROGRAM_8ef8ca0</title>
<path fill="none" stroke="black" d="M404.5,-72.24C404.5,-70.89 404.5,-58.27 404.5,-47.34"/>
<polygon fill="black" stroke="black" points="408,-47.1 404.5,-37.1 401,-47.1 408,-47.1"/>
</g>
<!-- CALL_8ef89a0&#45;&gt;endDO_DO_8ef8be0 -->
<g id="edge7" class="edge">
<title>CALL_8ef89a0&#45;&gt;endDO_DO_8ef8be0</title>
<path fill="none" stroke="black" d="M404.5,-109.66C404.5,-94.65 404.5,-74.99 404.5,-73.78"/>
</g>
</g>
</svg>
