<?xml version="1.0" encoding="UTF-8" standalone="no"?>
<!DOCTYPE svg PUBLIC "-//W3C//DTD SVG 1.1//EN"
 "http://www.w3.org/Graphics/SVG/1.1/DTD/svg11.dtd">
<!-- Generated by graphviz version 2.43.0 (0)
 -->
<!-- Title: ADJUST_HT3D_WALL_CELLS Pages: 1 -->
<svg width="817pt" height="327pt"
 viewBox="0.00 0.00 817.00 327.00" xmlns="http://www.w3.org/2000/svg" xmlns:xlink="http://www.w3.org/1999/xlink">
<g id="graph0" class="graph" transform="scale(1 1) rotate(0) translate(4 323)">
<title>ADJUST_HT3D_WALL_CELLS</title>
<polygon fill="white" stroke="transparent" points="-4,4 -4,-323 813,-323 813,4 -4,4"/>
<text text-anchor="middle" x="404.5" y="-7.8" font-family="Times,serif" font-size="14.00">ADJUST_HT3D_WALL_CELLS</text>
<g id="clust1" class="cluster">
<title>cluster_PRIMARY_WALL_LOOP_1</title>
<polygon fill="none" stroke="orange" points="276.5,-148 276.5,-223 532.5,-223 532.5,-148 276.5,-148"/>
<text text-anchor="middle" x="375" y="-207.8" font-family="Times,serif" font-size="14.00">PRIMARY_WALL_LOOP_1</text>
</g>
<g id="clust2" class="cluster">
<title>cluster_PRIMARY_THIN_WALL_LOOP_1</title>
<polygon fill="none" stroke="orange" points="276.5,-65 276.5,-140 532.5,-140 532.5,-65 276.5,-65"/>
<text text-anchor="middle" x="397.5" y="-124.8" font-family="Times,serif" font-size="14.00">PRIMARY_THIN_WALL_LOOP_1</text>
</g>
<!-- start_SUBPROGRAM_8391d40 -->
<g id="node1" class="node">
<title>start_SUBPROGRAM_8391d40</title>
<ellipse fill="none" stroke="black" cx="404.5" cy="-312" rx="7" ry="7"/>
</g>
<!-- COMMENT_838d580+1 -->
<g id="node2" class="node">
<title>COMMENT_838d580+1</title>
<polygon fill="none" stroke="black" points="803,-269 0,-269 0,-231 809,-231 809,-263 803,-269"/>
<polyline fill="none" stroke="black" points="803,-269 803,-263 "/>
<polyline fill="none" stroke="black" points="809,-263 803,-263 "/>
<text text-anchor="middle" x="404.5" y="-253.8" font-family="Times,serif" font-size="14.00">!&gt; brief Find WALL THIN_WALL cells with VARIABLE_THICKNESS or HT3D and adjust the 1&#45;D internal noding</text>
<text text-anchor="middle" x="404.5" y="-238.8" font-family="Times,serif" font-size="14.00">!&gt; param NM Mesh index</text>
</g>
<!-- start_SUBPROGRAM_8391d40&#45;&gt;COMMENT_838d580+1 -->
<g id="edge1" class="edge">
<title>start_SUBPROGRAM_8391d40&#45;&gt;COMMENT_838d580+1</title>
<path fill="none" stroke="black" d="M404.5,-304.58C404.5,-298.41 404.5,-288.64 404.5,-279.12"/>
<polygon fill="black" stroke="black" points="408,-279.08 404.5,-269.08 401,-279.08 408,-279.08"/>
</g>
<!-- CALL_8390500 -->
<g id="node3" class="node">
<title>CALL_8390500</title>
<g id="a_node3"><a xlink:href="REALLOCATE_ONE_D_ARRAYS.svg" xlink:title="REALLOCATE_ONE_D_ARRAYS">
<polygon fill="lightgray" stroke="black" points="524.5,-192 284.5,-192 284.5,-188 280.5,-188 280.5,-184 284.5,-184 284.5,-164 280.5,-164 280.5,-160 284.5,-160 284.5,-156 524.5,-156 524.5,-192"/>
<polyline fill="none" stroke="black" points="284.5,-188 288.5,-188 288.5,-184 284.5,-184 "/>
<polyline fill="none" stroke="black" points="284.5,-164 288.5,-164 288.5,-160 284.5,-160 "/>
<text text-anchor="middle" x="404.5" y="-170.3" font-family="Times,serif" font-size="14.00">REALLOCATE_ONE_D_ARRAYS</text>
</a>
</g>
</g>
<!-- COMMENT_838d580+1&#45;&gt;CALL_8390500 -->
<g id="edge2" class="edge">
<title>COMMENT_838d580+1&#45;&gt;CALL_8390500</title>
<path fill="none" stroke="black" d="M404.5,-230.71C404.5,-222.13 404.5,-211.72 404.5,-202.24"/>
<polygon fill="black" stroke="black" points="408,-202.07 404.5,-192.07 401,-202.07 408,-202.07"/>
</g>
<!-- CALL_8391a00 -->
<g id="node4" class="node">
<title>CALL_8391a00</title>
<g id="a_node4"><a xlink:href="REALLOCATE_ONE_D_ARRAYS.svg" xlink:title="REALLOCATE_ONE_D_ARRAYS">
<polygon fill="lightgray" stroke="black" points="524.5,-109 284.5,-109 284.5,-105 280.5,-105 280.5,-101 284.5,-101 284.5,-81 280.5,-81 280.5,-77 284.5,-77 284.5,-73 524.5,-73 524.5,-109"/>
<polyline fill="none" stroke="black" points="284.5,-105 288.5,-105 288.5,-101 284.5,-101 "/>
<polyline fill="none" stroke="black" points="284.5,-81 288.5,-81 288.5,-77 284.5,-77 "/>
<text text-anchor="middle" x="404.5" y="-87.3" font-family="Times,serif" font-size="14.00">REALLOCATE_ONE_D_ARRAYS</text>
</a>
</g>
</g>
<!-- CALL_8390500&#45;&gt;CALL_8391a00 -->
<g id="edge3" class="edge">
<title>CALL_8390500&#45;&gt;CALL_8391a00</title>
<path fill="none" stroke="black" d="M404.5,-155.82C404.5,-145.19 404.5,-131.31 404.5,-119.2"/>
<polygon fill="black" stroke="black" points="408,-119.15 404.5,-109.15 401,-119.15 408,-119.15"/>
</g>
<!-- end_SUBPROGRAM_8391d40 -->
<g id="node5" class="node">
<title>end_SUBPROGRAM_8391d40</title>
<ellipse fill="black" stroke="black" cx="404.5" cy="-30" rx="7" ry="7"/>
</g>
<!-- CALL_8391a00&#45;&gt;end_SUBPROGRAM_8391d40 -->
<g id="edge4" class="edge">
<title>CALL_8391a00&#45;&gt;end_SUBPROGRAM_8391d40</title>
<path fill="none" stroke="black" d="M404.5,-72.93C404.5,-64.89 404.5,-55.33 404.5,-47.37"/>
<polygon fill="black" stroke="black" points="408,-47.22 404.5,-37.22 401,-47.22 408,-47.22"/>
</g>
</g>
</svg>
