<?xml version="1.0" encoding="UTF-8" standalone="no"?>
<!DOCTYPE svg PUBLIC "-//W3C//DTD SVG 1.1//EN"
 "http://www.w3.org/Graphics/SVG/1.1/DTD/svg11.dtd">
<!-- Generated by graphviz version 2.43.0 (0)
 -->
<!-- Title: BAROCLINIC_CORRECTION Pages: 1 -->
<svg width="690pt" height="904pt"
 viewBox="0.00 0.00 690.00 904.00" xmlns="http://www.w3.org/2000/svg" xmlns:xlink="http://www.w3.org/1999/xlink">
<g id="graph0" class="graph" transform="scale(1 1) rotate(0) translate(4 900)">
<title>BAROCLINIC_CORRECTION</title>
<polygon fill="white" stroke="transparent" points="-4,4 -4,-900 686,-900 686,4 -4,4"/>
<text text-anchor="middle" x="341" y="-7.8" font-family="Times,serif" font-size="14.00">BAROCLINIC_CORRECTION</text>
<!-- start_SUBPROGRAM_9ce92a0 -->
<g id="node1" class="node">
<title>start_SUBPROGRAM_9ce92a0</title>
<ellipse fill="none" stroke="black" cx="341" cy="-889" rx="7" ry="7"/>
</g>
<!-- COMMENT_9c8de40+1 -->
<g id="node2" class="node">
<title>COMMENT_9c8de40+1</title>
<polygon fill="none" stroke="black" points="543.5,-846 132.5,-846 132.5,-793 549.5,-793 549.5,-840 543.5,-846"/>
<polyline fill="none" stroke="black" points="543.5,-846 543.5,-840 "/>
<polyline fill="none" stroke="black" points="549.5,-840 543.5,-840 "/>
<text text-anchor="middle" x="341" y="-830.8" font-family="Times,serif" font-size="14.00">!&gt; brief Add baroclinic term to the momentum equation</text>
<text text-anchor="middle" x="341" y="-815.8" font-family="Times,serif" font-size="14.00">!&gt; param T Current time (s)</text>
<text text-anchor="middle" x="341" y="-800.8" font-family="Times,serif" font-size="14.00">!&gt; param NM Mesh number</text>
</g>
<!-- start_SUBPROGRAM_9ce92a0&#45;&gt;COMMENT_9c8de40+1 -->
<g id="edge1" class="edge">
<title>start_SUBPROGRAM_9ce92a0&#45;&gt;COMMENT_9c8de40+1</title>
<path fill="none" stroke="black" d="M341,-881.77C341,-875.76 341,-866.16 341,-856.32"/>
<polygon fill="black" stroke="black" points="344.5,-856.12 341,-846.12 337.5,-856.12 344.5,-856.12"/>
</g>
<!-- CALL_9c93060 -->
<g id="node3" class="node">
<title>CALL_9c93060</title>
<g id="a_node3"><a xlink:href="POINT_TO_MESH.svg" xlink:title="POINT_TO_MESH">
<polygon fill="lightgray" stroke="black" points="413,-757 269,-757 269,-753 265,-753 265,-749 269,-749 269,-729 265,-729 265,-725 269,-725 269,-721 413,-721 413,-757"/>
<polyline fill="none" stroke="black" points="269,-753 273,-753 273,-749 269,-749 "/>
<polyline fill="none" stroke="black" points="269,-729 273,-729 273,-725 269,-725 "/>
<text text-anchor="middle" x="341" y="-735.3" font-family="Times,serif" font-size="14.00">POINT_TO_MESH</text>
</a>
</g>
</g>
<!-- COMMENT_9c8de40+1&#45;&gt;CALL_9c93060 -->
<g id="edge2" class="edge">
<title>COMMENT_9c8de40+1&#45;&gt;CALL_9c93060</title>
<path fill="none" stroke="black" d="M341,-792.8C341,-784.71 341,-775.76 341,-767.55"/>
<polygon fill="black" stroke="black" points="344.5,-767.33 341,-757.33 337.5,-767.33 344.5,-767.33"/>
</g>
<!-- COMMENT_9c8fb60+1 -->
<g id="node4" class="node">
<title>COMMENT_9c8fb60+1</title>
<polygon fill="none" stroke="black" points="676,-685 0,-685 0,-649 682,-649 682,-679 676,-685"/>
<polyline fill="none" stroke="black" points="676,-685 676,-679 "/>
<polyline fill="none" stroke="black" points="682,-679 676,-679 "/>
<text text-anchor="middle" x="341" y="-663.3" font-family="Times,serif" font-size="14.00">If the baroclinic torque term has been added to the momentum equation RHS, subtract it off.</text>
</g>
<!-- CALL_9c93060&#45;&gt;COMMENT_9c8fb60+1 -->
<g id="edge3" class="edge">
<title>CALL_9c93060&#45;&gt;COMMENT_9c8fb60+1</title>
<path fill="none" stroke="black" d="M341,-720.7C341,-712.98 341,-703.71 341,-695.11"/>
<polygon fill="black" stroke="black" points="344.5,-695.1 341,-685.1 337.5,-695.1 344.5,-695.1"/>
</g>
<!-- COMMENT_9c9a920+1 -->
<g id="node5" class="node">
<title>COMMENT_9c9a920+1</title>
<polygon fill="none" stroke="black" points="505,-613 171,-613 171,-577 511,-577 511,-607 505,-613"/>
<polyline fill="none" stroke="black" points="505,-613 505,-607 "/>
<polyline fill="none" stroke="black" points="511,-607 505,-607 "/>
<text text-anchor="middle" x="341" y="-591.3" font-family="Times,serif" font-size="14.00">Compute pressure and 1/rho in each grid cell</text>
</g>
<!-- COMMENT_9c8fb60+1&#45;&gt;COMMENT_9c9a920+1 -->
<g id="edge4" class="edge">
<title>COMMENT_9c8fb60+1&#45;&gt;COMMENT_9c9a920+1</title>
<path fill="none" stroke="black" d="M341,-648.7C341,-640.98 341,-631.71 341,-623.11"/>
<polygon fill="black" stroke="black" points="344.5,-623.1 341,-613.1 337.5,-623.1 344.5,-623.1"/>
</g>
<!-- COMMENT_9ca5940+2 -->
<g id="node6" class="node">
<title>COMMENT_9ca5940+2</title>
<polygon fill="none" stroke="black" points="589.5,-541 86.5,-541 86.5,-505 595.5,-505 595.5,-535 589.5,-541"/>
<polyline fill="none" stroke="black" points="589.5,-541 589.5,-535 "/>
<polyline fill="none" stroke="black" points="595.5,-535 589.5,-535 "/>
<text text-anchor="middle" x="341" y="-519.3" font-family="Times,serif" font-size="14.00">Compute baroclinic term in the x momentum equation, p*d/dx(1/rho)</text>
</g>
<!-- COMMENT_9c9a920+1&#45;&gt;COMMENT_9ca5940+2 -->
<g id="edge5" class="edge">
<title>COMMENT_9c9a920+1&#45;&gt;COMMENT_9ca5940+2</title>
<path fill="none" stroke="black" d="M341,-576.7C341,-568.98 341,-559.71 341,-551.11"/>
<polygon fill="black" stroke="black" points="344.5,-551.1 341,-541.1 337.5,-551.1 344.5,-551.1"/>
</g>
<!-- OMP_DO_9cbb260 -->
<g id="node7" class="node">
<title>OMP_DO_9cbb260</title>
<polygon fill="#ffd0d0" stroke="orange" points="464,-469 218,-469 218,-433 464,-433 464,-469"/>
<text text-anchor="middle" x="341" y="-447.3" font-family="Times,serif" font-size="14.00">!$OMP DO SCHEDULE(STATIC)</text>
</g>
<!-- COMMENT_9ca5940+2&#45;&gt;OMP_DO_9cbb260 -->
<g id="edge6" class="edge">
<title>COMMENT_9ca5940+2&#45;&gt;OMP_DO_9cbb260</title>
<path fill="none" stroke="black" d="M341,-504.7C341,-496.98 341,-487.71 341,-479.11"/>
<polygon fill="black" stroke="black" points="344.5,-479.1 341,-469.1 337.5,-479.1 344.5,-479.1"/>
</g>
<!-- COMMENT_9cad560+2 -->
<g id="node8" class="node">
<title>COMMENT_9cad560+2</title>
<polygon fill="none" stroke="black" points="589.5,-397 86.5,-397 86.5,-361 595.5,-361 595.5,-391 589.5,-397"/>
<polyline fill="none" stroke="black" points="589.5,-397 589.5,-391 "/>
<polyline fill="none" stroke="black" points="595.5,-391 589.5,-391 "/>
<text text-anchor="middle" x="341" y="-375.3" font-family="Times,serif" font-size="14.00">Compute baroclinic term in the y momentum equation, p*d/dy(1/rho)</text>
</g>
<!-- OMP_DO_9cbb260&#45;&gt;COMMENT_9cad560+2 -->
<g id="edge7" class="edge">
<title>OMP_DO_9cbb260&#45;&gt;COMMENT_9cad560+2</title>
<path fill="none" stroke="black" d="M341,-432.7C341,-424.98 341,-415.71 341,-407.11"/>
<polygon fill="black" stroke="black" points="344.5,-407.1 341,-397.1 337.5,-407.1 344.5,-407.1"/>
</g>
<!-- OMP_DO_9cd1480 -->
<g id="node9" class="node">
<title>OMP_DO_9cd1480</title>
<polygon fill="#ffd0d0" stroke="orange" points="464,-325 218,-325 218,-289 464,-289 464,-325"/>
<text text-anchor="middle" x="341" y="-303.3" font-family="Times,serif" font-size="14.00">!$OMP DO SCHEDULE(STATIC)</text>
</g>
<!-- COMMENT_9cad560+2&#45;&gt;OMP_DO_9cd1480 -->
<g id="edge8" class="edge">
<title>COMMENT_9cad560+2&#45;&gt;OMP_DO_9cd1480</title>
<path fill="none" stroke="black" d="M341,-360.7C341,-352.98 341,-343.71 341,-335.11"/>
<polygon fill="black" stroke="black" points="344.5,-335.1 341,-325.1 337.5,-335.1 344.5,-335.1"/>
</g>
<!-- COMMENT_9cd1d80+1 -->
<g id="node10" class="node">
<title>COMMENT_9cd1d80+1</title>
<polygon fill="none" stroke="black" points="588.5,-253 87.5,-253 87.5,-217 594.5,-217 594.5,-247 588.5,-253"/>
<polyline fill="none" stroke="black" points="588.5,-253 588.5,-247 "/>
<polyline fill="none" stroke="black" points="594.5,-247 588.5,-247 "/>
<text text-anchor="middle" x="341" y="-231.3" font-family="Times,serif" font-size="14.00">Compute baroclinic term in the z momentum equation, p*d/dz(1/rho)</text>
</g>
<!-- OMP_DO_9cd1480&#45;&gt;COMMENT_9cd1d80+1 -->
<g id="edge9" class="edge">
<title>OMP_DO_9cd1480&#45;&gt;COMMENT_9cd1d80+1</title>
<path fill="none" stroke="black" d="M341,-288.7C341,-280.98 341,-271.71 341,-263.11"/>
<polygon fill="black" stroke="black" points="344.5,-263.1 341,-253.1 337.5,-263.1 344.5,-263.1"/>
</g>
<!-- OMP_DO_9ce7520 -->
<g id="node11" class="node">
<title>OMP_DO_9ce7520</title>
<polygon fill="#ffd0d0" stroke="orange" points="464,-181 218,-181 218,-145 464,-145 464,-181"/>
<text text-anchor="middle" x="341" y="-159.3" font-family="Times,serif" font-size="14.00">!$OMP DO SCHEDULE(STATIC)</text>
</g>
<!-- COMMENT_9cd1d80+1&#45;&gt;OMP_DO_9ce7520 -->
<g id="edge10" class="edge">
<title>COMMENT_9cd1d80+1&#45;&gt;OMP_DO_9ce7520</title>
<path fill="none" stroke="black" d="M341,-216.7C341,-208.98 341,-199.71 341,-191.11"/>
<polygon fill="black" stroke="black" points="344.5,-191.1 341,-181.1 337.5,-191.1 344.5,-191.1"/>
</g>
<!-- CALL_9ce8a40 -->
<g id="node12" class="node">
<title>CALL_9ce8a40</title>
<g id="a_node12"><a xlink:href="CC_BAROCLINIC_CORRECTION.svg" xlink:title="CC_BAROCLINIC_CORRECTION">
<polygon fill="lightgray" stroke="black" points="464.5,-109 217.5,-109 217.5,-105 213.5,-105 213.5,-101 217.5,-101 217.5,-81 213.5,-81 213.5,-77 217.5,-77 217.5,-73 464.5,-73 464.5,-109"/>
<polyline fill="none" stroke="black" points="217.5,-105 221.5,-105 221.5,-101 217.5,-101 "/>
<polyline fill="none" stroke="black" points="217.5,-81 221.5,-81 221.5,-77 217.5,-77 "/>
<text text-anchor="middle" x="341" y="-87.3" font-family="Times,serif" font-size="14.00">CC_BAROCLINIC_CORRECTION</text>
</a>
</g>
</g>
<!-- OMP_DO_9ce7520&#45;&gt;CALL_9ce8a40 -->
<g id="edge11" class="edge">
<title>OMP_DO_9ce7520&#45;&gt;CALL_9ce8a40</title>
<path fill="none" stroke="black" d="M341,-144.7C341,-136.98 341,-127.71 341,-119.11"/>
<polygon fill="black" stroke="black" points="344.5,-119.1 341,-109.1 337.5,-119.1 344.5,-119.1"/>
</g>
<!-- end_SUBPROGRAM_9ce92a0 -->
<g id="node13" class="node">
<title>end_SUBPROGRAM_9ce92a0</title>
<ellipse fill="black" stroke="black" cx="341" cy="-30" rx="7" ry="7"/>
</g>
<!-- CALL_9ce8a40&#45;&gt;end_SUBPROGRAM_9ce92a0 -->
<g id="edge12" class="edge">
<title>CALL_9ce8a40&#45;&gt;end_SUBPROGRAM_9ce92a0</title>
<path fill="none" stroke="black" d="M341,-72.93C341,-64.89 341,-55.33 341,-47.37"/>
<polygon fill="black" stroke="black" points="344.5,-47.22 341,-37.22 337.5,-47.22 344.5,-47.22"/>
</g>
</g>
</svg>
