<?xml version="1.0" encoding="UTF-8" standalone="no"?>
<!DOCTYPE svg PUBLIC "-//W3C//DTD SVG 1.1//EN"
 "http://www.w3.org/Graphics/SVG/1.1/DTD/svg11.dtd">
<!-- Generated by graphviz version 2.43.0 (0)
 -->
<!-- Title: BAROCLINIC_CORRECTION Pages: 1 -->
<svg width="690pt" height="1268pt"
 viewBox="0.00 0.00 690.00 1268.00" xmlns="http://www.w3.org/2000/svg" xmlns:xlink="http://www.w3.org/1999/xlink">
<g id="graph0" class="graph" transform="scale(1 1) rotate(0) translate(4 1264)">
<title>BAROCLINIC_CORRECTION</title>
<polygon fill="white" stroke="transparent" points="-4,4 -4,-1264 686,-1264 686,4 -4,4"/>
<text text-anchor="middle" x="341" y="-7.8" font-family="Times,serif" font-size="14.00">BAROCLINIC_CORRECTION</text>
<!-- start_SUBPROGRAM_931a2e0 -->
<g id="node1" class="node">
<title>start_SUBPROGRAM_931a2e0</title>
<ellipse fill="none" stroke="black" cx="341" cy="-1253" rx="7" ry="7"/>
</g>
<!-- COMMENT_91c1e80+1 -->
<g id="node2" class="node">
<title>COMMENT_91c1e80+1</title>
<polygon fill="none" stroke="black" points="543.5,-1210 132.5,-1210 132.5,-1157 549.5,-1157 549.5,-1204 543.5,-1210"/>
<polyline fill="none" stroke="black" points="543.5,-1210 543.5,-1204 "/>
<polyline fill="none" stroke="black" points="549.5,-1204 543.5,-1204 "/>
<text text-anchor="middle" x="341" y="-1194.8" font-family="Times,serif" font-size="14.00">!&gt; brief Add baroclinic term to the momentum equation</text>
<text text-anchor="middle" x="341" y="-1179.8" font-family="Times,serif" font-size="14.00">!&gt; param T Current time (s)</text>
<text text-anchor="middle" x="341" y="-1164.8" font-family="Times,serif" font-size="14.00">!&gt; param NM Mesh number</text>
</g>
<!-- start_SUBPROGRAM_931a2e0&#45;&gt;COMMENT_91c1e80+1 -->
<g id="edge1" class="edge">
<title>start_SUBPROGRAM_931a2e0&#45;&gt;COMMENT_91c1e80+1</title>
<path fill="none" stroke="black" d="M341,-1245.77C341,-1239.76 341,-1230.16 341,-1220.32"/>
<polygon fill="black" stroke="black" points="344.5,-1220.12 341,-1210.12 337.5,-1220.12 344.5,-1220.12"/>
</g>
<!-- CALL_91c5d40 -->
<g id="node3" class="node">
<title>CALL_91c5d40</title>
<g id="a_node3"><a xlink:href="POINT_TO_MESH.svg" xlink:title="POINT_TO_MESH">
<polygon fill="lightgray" stroke="black" points="413,-1121 269,-1121 269,-1117 265,-1117 265,-1113 269,-1113 269,-1093 265,-1093 265,-1089 269,-1089 269,-1085 413,-1085 413,-1121"/>
<polyline fill="none" stroke="black" points="269,-1117 273,-1117 273,-1113 269,-1113 "/>
<polyline fill="none" stroke="black" points="269,-1093 273,-1093 273,-1089 269,-1089 "/>
<text text-anchor="middle" x="341" y="-1099.3" font-family="Times,serif" font-size="14.00">POINT_TO_MESH</text>
</a>
</g>
</g>
<!-- COMMENT_91c1e80+1&#45;&gt;CALL_91c5d40 -->
<g id="edge2" class="edge">
<title>COMMENT_91c1e80+1&#45;&gt;CALL_91c5d40</title>
<path fill="none" stroke="black" d="M341,-1156.8C341,-1148.71 341,-1139.76 341,-1131.55"/>
<polygon fill="black" stroke="black" points="344.5,-1131.33 341,-1121.33 337.5,-1131.33 344.5,-1131.33"/>
</g>
<!-- COMMENT_91c55a0+1 -->
<g id="node4" class="node">
<title>COMMENT_91c55a0+1</title>
<polygon fill="none" stroke="black" points="676,-1049 0,-1049 0,-1013 682,-1013 682,-1043 676,-1049"/>
<polyline fill="none" stroke="black" points="676,-1049 676,-1043 "/>
<polyline fill="none" stroke="black" points="682,-1043 676,-1043 "/>
<text text-anchor="middle" x="341" y="-1027.3" font-family="Times,serif" font-size="14.00">If the baroclinic torque term has been added to the momentum equation RHS, subtract it off.</text>
</g>
<!-- CALL_91c5d40&#45;&gt;COMMENT_91c55a0+1 -->
<g id="edge3" class="edge">
<title>CALL_91c5d40&#45;&gt;COMMENT_91c55a0+1</title>
<path fill="none" stroke="black" d="M341,-1084.7C341,-1076.98 341,-1067.71 341,-1059.11"/>
<polygon fill="black" stroke="black" points="344.5,-1059.1 341,-1049.1 337.5,-1059.1 344.5,-1059.1"/>
</g>
<!-- COMMENT_91cc7c0+1 -->
<g id="node5" class="node">
<title>COMMENT_91cc7c0+1</title>
<polygon fill="none" stroke="black" points="505,-977 171,-977 171,-941 511,-941 511,-971 505,-977"/>
<polyline fill="none" stroke="black" points="505,-977 505,-971 "/>
<polyline fill="none" stroke="black" points="511,-971 505,-971 "/>
<text text-anchor="middle" x="341" y="-955.3" font-family="Times,serif" font-size="14.00">Compute pressure and 1/rho in each grid cell</text>
</g>
<!-- COMMENT_91c55a0+1&#45;&gt;COMMENT_91cc7c0+1 -->
<g id="edge4" class="edge">
<title>COMMENT_91c55a0+1&#45;&gt;COMMENT_91cc7c0+1</title>
<path fill="none" stroke="black" d="M341,-1012.7C341,-1004.98 341,-995.71 341,-987.11"/>
<polygon fill="black" stroke="black" points="344.5,-987.1 341,-977.1 337.5,-987.1 344.5,-987.1"/>
</g>
<!-- COMMENT_91cc7c0+2 -->
<g id="node6" class="node">
<title>COMMENT_91cc7c0+2</title>
<polygon fill="none" stroke="black" points="458,-905 218,-905 218,-867 464,-867 464,-899 458,-905"/>
<polyline fill="none" stroke="black" points="458,-905 458,-899 "/>
<polyline fill="none" stroke="black" points="464,-899 458,-899 "/>
<text text-anchor="middle" x="341" y="-889.8" font-family="Times,serif" font-size="14.00">!$OMP PARALLEL</text>
<text text-anchor="middle" x="341" y="-874.8" font-family="Times,serif" font-size="14.00">!$OMP DO SCHEDULE(STATIC)</text>
</g>
<!-- COMMENT_91cc7c0+1&#45;&gt;COMMENT_91cc7c0+2 -->
<g id="edge5" class="edge">
<title>COMMENT_91cc7c0+1&#45;&gt;COMMENT_91cc7c0+2</title>
<path fill="none" stroke="black" d="M341,-940.81C341,-933.11 341,-923.82 341,-915.15"/>
<polygon fill="black" stroke="black" points="344.5,-915.02 341,-905.02 337.5,-915.02 344.5,-915.02"/>
</g>
<!-- COMMENT_91d74a0+1 -->
<g id="node7" class="node">
<title>COMMENT_91d74a0+1</title>
<polygon fill="none" stroke="black" points="401,-831 275,-831 275,-795 407,-795 407,-825 401,-831"/>
<polyline fill="none" stroke="black" points="401,-831 401,-825 "/>
<polyline fill="none" stroke="black" points="407,-825 401,-825 "/>
<text text-anchor="middle" x="341" y="-809.3" font-family="Times,serif" font-size="14.00">!$OMP END DO</text>
</g>
<!-- COMMENT_91cc7c0+2&#45;&gt;COMMENT_91d74a0+1 -->
<g id="edge6" class="edge">
<title>COMMENT_91cc7c0+2&#45;&gt;COMMENT_91d74a0+1</title>
<path fill="none" stroke="black" d="M341,-866.72C341,-858.97 341,-849.79 341,-841.27"/>
<polygon fill="black" stroke="black" points="344.5,-841 341,-831 337.5,-841 344.5,-841"/>
</g>
<!-- COMMENT_91d74a0+2 -->
<g id="node8" class="node">
<title>COMMENT_91d74a0+2</title>
<polygon fill="none" stroke="black" points="589.5,-759 86.5,-759 86.5,-723 595.5,-723 595.5,-753 589.5,-759"/>
<polyline fill="none" stroke="black" points="589.5,-759 589.5,-753 "/>
<polyline fill="none" stroke="black" points="595.5,-753 589.5,-753 "/>
<text text-anchor="middle" x="341" y="-737.3" font-family="Times,serif" font-size="14.00">Compute baroclinic term in the x momentum equation, p*d/dx(1/rho)</text>
</g>
<!-- COMMENT_91d74a0+1&#45;&gt;COMMENT_91d74a0+2 -->
<g id="edge7" class="edge">
<title>COMMENT_91d74a0+1&#45;&gt;COMMENT_91d74a0+2</title>
<path fill="none" stroke="black" d="M341,-794.7C341,-786.98 341,-777.71 341,-769.11"/>
<polygon fill="black" stroke="black" points="344.5,-769.1 341,-759.1 337.5,-769.1 344.5,-769.1"/>
</g>
<!-- COMMENT_91d74a0+3 -->
<g id="node9" class="node">
<title>COMMENT_91d74a0+3</title>
<polygon fill="none" stroke="black" points="458,-687 218,-687 218,-651 464,-651 464,-681 458,-687"/>
<polyline fill="none" stroke="black" points="458,-687 458,-681 "/>
<polyline fill="none" stroke="black" points="464,-681 458,-681 "/>
<text text-anchor="middle" x="341" y="-665.3" font-family="Times,serif" font-size="14.00">!$OMP DO SCHEDULE(STATIC)</text>
</g>
<!-- COMMENT_91d74a0+2&#45;&gt;COMMENT_91d74a0+3 -->
<g id="edge8" class="edge">
<title>COMMENT_91d74a0+2&#45;&gt;COMMENT_91d74a0+3</title>
<path fill="none" stroke="black" d="M341,-722.7C341,-714.98 341,-705.71 341,-697.11"/>
<polygon fill="black" stroke="black" points="344.5,-697.1 341,-687.1 337.5,-697.1 344.5,-697.1"/>
</g>
<!-- COMMENT_91eb500+1 -->
<g id="node10" class="node">
<title>COMMENT_91eb500+1</title>
<polygon fill="none" stroke="black" points="433.5,-615 242.5,-615 242.5,-579 439.5,-579 439.5,-609 433.5,-615"/>
<polyline fill="none" stroke="black" points="433.5,-615 433.5,-609 "/>
<polyline fill="none" stroke="black" points="439.5,-609 433.5,-609 "/>
<text text-anchor="middle" x="341" y="-593.3" font-family="Times,serif" font-size="14.00">!$OMP END DO NOWAIT</text>
</g>
<!-- COMMENT_91d74a0+3&#45;&gt;COMMENT_91eb500+1 -->
<g id="edge9" class="edge">
<title>COMMENT_91d74a0+3&#45;&gt;COMMENT_91eb500+1</title>
<path fill="none" stroke="black" d="M341,-650.7C341,-642.98 341,-633.71 341,-625.11"/>
<polygon fill="black" stroke="black" points="344.5,-625.1 341,-615.1 337.5,-625.1 344.5,-625.1"/>
</g>
<!-- COMMENT_91eb500+2 -->
<g id="node11" class="node">
<title>COMMENT_91eb500+2</title>
<polygon fill="none" stroke="black" points="589.5,-543 86.5,-543 86.5,-507 595.5,-507 595.5,-537 589.5,-543"/>
<polyline fill="none" stroke="black" points="589.5,-543 589.5,-537 "/>
<polyline fill="none" stroke="black" points="595.5,-537 589.5,-537 "/>
<text text-anchor="middle" x="341" y="-521.3" font-family="Times,serif" font-size="14.00">Compute baroclinic term in the y momentum equation, p*d/dy(1/rho)</text>
</g>
<!-- COMMENT_91eb500+1&#45;&gt;COMMENT_91eb500+2 -->
<g id="edge10" class="edge">
<title>COMMENT_91eb500+1&#45;&gt;COMMENT_91eb500+2</title>
<path fill="none" stroke="black" d="M341,-578.7C341,-570.98 341,-561.71 341,-553.11"/>
<polygon fill="black" stroke="black" points="344.5,-553.1 341,-543.1 337.5,-553.1 344.5,-553.1"/>
</g>
<!-- COMMENT_91ece80+1 -->
<g id="node12" class="node">
<title>COMMENT_91ece80+1</title>
<polygon fill="none" stroke="black" points="458,-471 218,-471 218,-435 464,-435 464,-465 458,-471"/>
<polyline fill="none" stroke="black" points="458,-471 458,-465 "/>
<polyline fill="none" stroke="black" points="464,-465 458,-465 "/>
<text text-anchor="middle" x="341" y="-449.3" font-family="Times,serif" font-size="14.00">!$OMP DO SCHEDULE(STATIC)</text>
</g>
<!-- COMMENT_91eb500+2&#45;&gt;COMMENT_91ece80+1 -->
<g id="edge11" class="edge">
<title>COMMENT_91eb500+2&#45;&gt;COMMENT_91ece80+1</title>
<path fill="none" stroke="black" d="M341,-506.7C341,-498.98 341,-489.71 341,-481.11"/>
<polygon fill="black" stroke="black" points="344.5,-481.1 341,-471.1 337.5,-481.1 344.5,-481.1"/>
</g>
<!-- COMMENT_93028c0+1 -->
<g id="node13" class="node">
<title>COMMENT_93028c0+1</title>
<polygon fill="none" stroke="black" points="433.5,-399 242.5,-399 242.5,-363 439.5,-363 439.5,-393 433.5,-399"/>
<polyline fill="none" stroke="black" points="433.5,-399 433.5,-393 "/>
<polyline fill="none" stroke="black" points="439.5,-393 433.5,-393 "/>
<text text-anchor="middle" x="341" y="-377.3" font-family="Times,serif" font-size="14.00">!$OMP END DO NOWAIT</text>
</g>
<!-- COMMENT_91ece80+1&#45;&gt;COMMENT_93028c0+1 -->
<g id="edge12" class="edge">
<title>COMMENT_91ece80+1&#45;&gt;COMMENT_93028c0+1</title>
<path fill="none" stroke="black" d="M341,-434.7C341,-426.98 341,-417.71 341,-409.11"/>
<polygon fill="black" stroke="black" points="344.5,-409.1 341,-399.1 337.5,-409.1 344.5,-409.1"/>
</g>
<!-- COMMENT_9303180+1 -->
<g id="node14" class="node">
<title>COMMENT_9303180+1</title>
<polygon fill="none" stroke="black" points="588.5,-327 87.5,-327 87.5,-291 594.5,-291 594.5,-321 588.5,-327"/>
<polyline fill="none" stroke="black" points="588.5,-327 588.5,-321 "/>
<polyline fill="none" stroke="black" points="594.5,-321 588.5,-321 "/>
<text text-anchor="middle" x="341" y="-305.3" font-family="Times,serif" font-size="14.00">Compute baroclinic term in the z momentum equation, p*d/dz(1/rho)</text>
</g>
<!-- COMMENT_93028c0+1&#45;&gt;COMMENT_9303180+1 -->
<g id="edge13" class="edge">
<title>COMMENT_93028c0+1&#45;&gt;COMMENT_9303180+1</title>
<path fill="none" stroke="black" d="M341,-362.7C341,-354.98 341,-345.71 341,-337.11"/>
<polygon fill="black" stroke="black" points="344.5,-337.1 341,-327.1 337.5,-337.1 344.5,-337.1"/>
</g>
<!-- COMMENT_9303180+2 -->
<g id="node15" class="node">
<title>COMMENT_9303180+2</title>
<polygon fill="none" stroke="black" points="458,-255 218,-255 218,-219 464,-219 464,-249 458,-255"/>
<polyline fill="none" stroke="black" points="458,-255 458,-249 "/>
<polyline fill="none" stroke="black" points="464,-249 458,-249 "/>
<text text-anchor="middle" x="341" y="-233.3" font-family="Times,serif" font-size="14.00">!$OMP DO SCHEDULE(STATIC)</text>
</g>
<!-- COMMENT_9303180+1&#45;&gt;COMMENT_9303180+2 -->
<g id="edge14" class="edge">
<title>COMMENT_9303180+1&#45;&gt;COMMENT_9303180+2</title>
<path fill="none" stroke="black" d="M341,-290.7C341,-282.98 341,-273.71 341,-265.11"/>
<polygon fill="black" stroke="black" points="344.5,-265.1 341,-255.1 337.5,-265.1 344.5,-265.1"/>
</g>
<!-- COMMENT_93056c0+1 -->
<g id="node16" class="node">
<title>COMMENT_93056c0+1</title>
<polygon fill="none" stroke="black" points="433.5,-183 242.5,-183 242.5,-145 439.5,-145 439.5,-177 433.5,-183"/>
<polyline fill="none" stroke="black" points="433.5,-183 433.5,-177 "/>
<polyline fill="none" stroke="black" points="439.5,-177 433.5,-177 "/>
<text text-anchor="middle" x="341" y="-167.8" font-family="Times,serif" font-size="14.00">!$OMP END DO NOWAIT</text>
<text text-anchor="middle" x="341" y="-152.8" font-family="Times,serif" font-size="14.00">!$OMP END PARALLEL</text>
</g>
<!-- COMMENT_9303180+2&#45;&gt;COMMENT_93056c0+1 -->
<g id="edge15" class="edge">
<title>COMMENT_9303180+2&#45;&gt;COMMENT_93056c0+1</title>
<path fill="none" stroke="black" d="M341,-218.81C341,-211.11 341,-201.82 341,-193.15"/>
<polygon fill="black" stroke="black" points="344.5,-193.02 341,-183.02 337.5,-193.02 344.5,-193.02"/>
</g>
<!-- CALL_91fa760 -->
<g id="node17" class="node">
<title>CALL_91fa760</title>
<g id="a_node17"><a xlink:href="CC_BAROCLINIC_CORRECTION.svg" xlink:title="CC_BAROCLINIC_CORRECTION">
<polygon fill="lightgray" stroke="black" points="464.5,-109 217.5,-109 217.5,-105 213.5,-105 213.5,-101 217.5,-101 217.5,-81 213.5,-81 213.5,-77 217.5,-77 217.5,-73 464.5,-73 464.5,-109"/>
<polyline fill="none" stroke="black" points="217.5,-105 221.5,-105 221.5,-101 217.5,-101 "/>
<polyline fill="none" stroke="black" points="217.5,-81 221.5,-81 221.5,-77 217.5,-77 "/>
<text text-anchor="middle" x="341" y="-87.3" font-family="Times,serif" font-size="14.00">CC_BAROCLINIC_CORRECTION</text>
</a>
</g>
</g>
<!-- COMMENT_93056c0+1&#45;&gt;CALL_91fa760 -->
<g id="edge16" class="edge">
<title>COMMENT_93056c0+1&#45;&gt;CALL_91fa760</title>
<path fill="none" stroke="black" d="M341,-144.72C341,-136.97 341,-127.79 341,-119.27"/>
<polygon fill="black" stroke="black" points="344.5,-119 341,-109 337.5,-119 344.5,-119"/>
</g>
<!-- end_SUBPROGRAM_931a2e0 -->
<g id="node18" class="node">
<title>end_SUBPROGRAM_931a2e0</title>
<ellipse fill="black" stroke="black" cx="341" cy="-30" rx="7" ry="7"/>
</g>
<!-- CALL_91fa760&#45;&gt;end_SUBPROGRAM_931a2e0 -->
<g id="edge17" class="edge">
<title>CALL_91fa760&#45;&gt;end_SUBPROGRAM_931a2e0</title>
<path fill="none" stroke="black" d="M341,-72.93C341,-64.89 341,-55.33 341,-47.37"/>
<polygon fill="black" stroke="black" points="344.5,-47.22 341,-37.22 337.5,-47.22 344.5,-47.22"/>
</g>
</g>
</svg>
