<?xml version="1.0" encoding="UTF-8" standalone="no"?>
<!DOCTYPE svg PUBLIC "-//W3C//DTD SVG 1.1//EN"
 "http://www.w3.org/Graphics/SVG/1.1/DTD/svg11.dtd">
<!-- Generated by graphviz version 2.43.0 (0)
 -->
<!-- Title: CALCULATE_RTE_SOURCE_CORRECTION_FACTOR Pages: 1 -->
<svg width="762pt" height="527pt"
 viewBox="0.00 0.00 762.00 527.00" xmlns="http://www.w3.org/2000/svg" xmlns:xlink="http://www.w3.org/1999/xlink">
<g id="graph0" class="graph" transform="scale(1 1) rotate(0) translate(4 523)">
<title>CALCULATE_RTE_SOURCE_CORRECTION_FACTOR</title>
<polygon fill="white" stroke="transparent" points="-4,4 -4,-523 758,-523 758,4 -4,4"/>
<text text-anchor="middle" x="377" y="-7.8" font-family="Times,serif" font-size="14.00">CALCULATE_RTE_SOURCE_CORRECTION_FACTOR</text>
<!-- start_SUBPROGRAM_7bcbfe0 -->
<g id="node1" class="node">
<title>start_SUBPROGRAM_7bcbfe0</title>
<ellipse fill="none" stroke="black" cx="377" cy="-512" rx="7" ry="7"/>
</g>
<!-- COMMENT_7bbfe80+1 -->
<g id="node2" class="node">
<title>COMMENT_7bbfe80+1</title>
<polygon fill="none" stroke="black" points="748,-469 0,-469 0,-433 754,-433 754,-463 748,-469"/>
<polyline fill="none" stroke="black" points="748,-469 748,-463 "/>
<polyline fill="none" stroke="black" points="754,-463 748,-463 "/>
<text text-anchor="middle" x="377" y="-447.3" font-family="Times,serif" font-size="14.00">!&gt; brief Compute a running average of the source correction factor for the radiative transport scheme.</text>
</g>
<!-- start_SUBPROGRAM_7bcbfe0&#45;&gt;COMMENT_7bbfe80+1 -->
<g id="edge1" class="edge">
<title>start_SUBPROGRAM_7bcbfe0&#45;&gt;COMMENT_7bbfe80+1</title>
<path fill="none" stroke="black" d="M377,-504.69C377,-498.49 377,-488.59 377,-479.05"/>
<polygon fill="black" stroke="black" points="380.5,-479.02 377,-469.02 373.5,-479.02 380.5,-479.02"/>
</g>
<!-- COMMENT_93b3fa0+1 -->
<g id="node3" class="node">
<title>COMMENT_93b3fa0+1</title>
<polygon fill="none" stroke="black" points="625.5,-397 122.5,-397 122.5,-361 631.5,-361 631.5,-391 625.5,-397"/>
<polyline fill="none" stroke="black" points="625.5,-397 625.5,-391 "/>
<polyline fill="none" stroke="black" points="631.5,-391 625.5,-391 "/>
<text text-anchor="middle" x="377" y="-375.3" font-family="Times,serif" font-size="14.00">Sum up the components of the corrective factor from all the meshes.</text>
</g>
<!-- COMMENT_7bbfe80+1&#45;&gt;COMMENT_93b3fa0+1 -->
<g id="edge2" class="edge">
<title>COMMENT_7bbfe80+1&#45;&gt;COMMENT_93b3fa0+1</title>
<path fill="none" stroke="black" d="M377,-432.7C377,-424.98 377,-415.71 377,-407.11"/>
<polygon fill="black" stroke="black" points="380.5,-407.1 377,-397.1 373.5,-407.1 380.5,-407.1"/>
</g>
<!-- CALL_7bc3ae0 -->
<g id="node4" class="node">
<title>CALL_7bc3ae0</title>
<g id="a_node4"><a xlink:href="MPI_ALLREDUCE.svg" xlink:title="MPI_ALLREDUCE">
<polygon fill="#ffe800" stroke="black" points="450,-325 304,-325 304,-321 300,-321 300,-317 304,-317 304,-297 300,-297 300,-293 304,-293 304,-289 450,-289 450,-325"/>
<polyline fill="none" stroke="black" points="304,-321 308,-321 308,-317 304,-317 "/>
<polyline fill="none" stroke="black" points="304,-297 308,-297 308,-293 304,-293 "/>
<text text-anchor="middle" x="377" y="-303.3" font-family="Times,serif" font-size="14.00">MPI_ALLREDUCE</text>
</a>
</g>
</g>
<!-- COMMENT_93b3fa0+1&#45;&gt;CALL_7bc3ae0 -->
<g id="edge3" class="edge">
<title>COMMENT_93b3fa0+1&#45;&gt;CALL_7bc3ae0</title>
<path fill="none" stroke="black" d="M377,-360.7C377,-352.98 377,-343.71 377,-335.11"/>
<polygon fill="black" stroke="black" points="380.5,-335.1 377,-325.1 373.5,-335.1 380.5,-335.1"/>
</g>
<!-- CALL_7bc79c0 -->
<g id="node5" class="node">
<title>CALL_7bc79c0</title>
<g id="a_node5"><a xlink:href="MPI_ALLREDUCE.svg" xlink:title="MPI_ALLREDUCE">
<polygon fill="#ffe800" stroke="black" points="450,-253 304,-253 304,-249 300,-249 300,-245 304,-245 304,-225 300,-225 300,-221 304,-221 304,-217 450,-217 450,-253"/>
<polyline fill="none" stroke="black" points="304,-249 308,-249 308,-245 304,-245 "/>
<polyline fill="none" stroke="black" points="304,-225 308,-225 308,-221 304,-221 "/>
<text text-anchor="middle" x="377" y="-231.3" font-family="Times,serif" font-size="14.00">MPI_ALLREDUCE</text>
</a>
</g>
</g>
<!-- CALL_7bc3ae0&#45;&gt;CALL_7bc79c0 -->
<g id="edge4" class="edge">
<title>CALL_7bc3ae0&#45;&gt;CALL_7bc79c0</title>
<path fill="none" stroke="black" d="M377,-288.7C377,-280.98 377,-271.71 377,-263.11"/>
<polygon fill="black" stroke="black" points="380.5,-263.1 377,-253.1 373.5,-263.1 380.5,-263.1"/>
</g>
<!-- COMMENT_7bcb2a0+1 -->
<g id="node6" class="node">
<title>COMMENT_7bcb2a0+1</title>
<polygon fill="none" stroke="black" points="690,-181 58,-181 58,-145 696,-145 696,-175 690,-181"/>
<polyline fill="none" stroke="black" points="690,-181 690,-175 "/>
<polyline fill="none" stroke="black" points="696,-175 690,-175 "/>
<text text-anchor="middle" x="377" y="-159.3" font-family="Times,serif" font-size="14.00">Compute the corrective factor for the RTE. Note that the max value of 100 is arbitrary.</text>
</g>
<!-- CALL_7bc79c0&#45;&gt;COMMENT_7bcb2a0+1 -->
<g id="edge5" class="edge">
<title>CALL_7bc79c0&#45;&gt;COMMENT_7bcb2a0+1</title>
<path fill="none" stroke="black" d="M377,-216.7C377,-208.98 377,-199.71 377,-191.11"/>
<polygon fill="black" stroke="black" points="380.5,-191.1 377,-181.1 373.5,-191.1 380.5,-191.1"/>
</g>
<!-- COMMENT_7bcb1c0+1 -->
<g id="node7" class="node">
<title>COMMENT_7bcb1c0+1</title>
<polygon fill="none" stroke="black" points="572.5,-109 175.5,-109 175.5,-73 578.5,-73 578.5,-103 572.5,-109"/>
<polyline fill="none" stroke="black" points="572.5,-109 572.5,-103 "/>
<polyline fill="none" stroke="black" points="578.5,-103 572.5,-103 "/>
<text text-anchor="middle" x="377" y="-87.3" font-family="Times,serif" font-size="14.00">Reset the components of the corrective factor to zero.</text>
</g>
<!-- COMMENT_7bcb2a0+1&#45;&gt;COMMENT_7bcb1c0+1 -->
<g id="edge6" class="edge">
<title>COMMENT_7bcb2a0+1&#45;&gt;COMMENT_7bcb1c0+1</title>
<path fill="none" stroke="black" d="M377,-144.7C377,-136.98 377,-127.71 377,-119.11"/>
<polygon fill="black" stroke="black" points="380.5,-119.1 377,-109.1 373.5,-119.1 380.5,-119.1"/>
</g>
<!-- end_SUBPROGRAM_7bcbfe0 -->
<g id="node8" class="node">
<title>end_SUBPROGRAM_7bcbfe0</title>
<ellipse fill="black" stroke="black" cx="377" cy="-30" rx="7" ry="7"/>
</g>
<!-- COMMENT_7bcb1c0+1&#45;&gt;end_SUBPROGRAM_7bcbfe0 -->
<g id="edge7" class="edge">
<title>COMMENT_7bcb1c0+1&#45;&gt;end_SUBPROGRAM_7bcbfe0</title>
<path fill="none" stroke="black" d="M377,-72.93C377,-64.89 377,-55.33 377,-47.37"/>
<polygon fill="black" stroke="black" points="380.5,-47.22 377,-37.22 373.5,-47.22 380.5,-47.22"/>
</g>
</g>
</svg>
