<?xml version="1.0" encoding="UTF-8" standalone="no"?>
<!DOCTYPE svg PUBLIC "-//W3C//DTD SVG 1.1//EN"
 "http://www.w3.org/Graphics/SVG/1.1/DTD/svg11.dtd">
<!-- Generated by graphviz version 2.43.0 (0)
 -->
<!-- Title: CHECK_MPI Pages: 1 -->
<svg width="363pt" height="239pt"
 viewBox="0.00 0.00 363.00 239.00" xmlns="http://www.w3.org/2000/svg" xmlns:xlink="http://www.w3.org/1999/xlink">
<g id="graph0" class="graph" transform="scale(1 1) rotate(0) translate(4 235)">
<title>CHECK_MPI</title>
<polygon fill="white" stroke="transparent" points="-4,4 -4,-235 359,-235 359,4 -4,4"/>
<text text-anchor="middle" x="177.5" y="-7.8" font-family="Times,serif" font-size="14.00">CHECK_MPI</text>
<!-- start_SUBPROGRAM_7d77520 -->
<g id="node1" class="node">
<title>start_SUBPROGRAM_7d77520</title>
<ellipse fill="none" stroke="black" cx="177.5" cy="-224" rx="7" ry="7"/>
</g>
<!-- COMMENT_7d7e080+1 -->
<g id="node2" class="node">
<title>COMMENT_7d7e080+1</title>
<polygon fill="none" stroke="black" points="349,-181 0,-181 0,-145 355,-145 355,-175 349,-181"/>
<polyline fill="none" stroke="black" points="349,-181 349,-175 "/>
<polyline fill="none" stroke="black" points="355,-175 349,-175 "/>
<text text-anchor="middle" x="177.5" y="-159.3" font-family="Times,serif" font-size="14.00">!&gt; brief Check the MPI threading support level</text>
</g>
<!-- start_SUBPROGRAM_7d77520&#45;&gt;COMMENT_7d7e080+1 -->
<g id="edge1" class="edge">
<title>start_SUBPROGRAM_7d77520&#45;&gt;COMMENT_7d7e080+1</title>
<path fill="none" stroke="black" d="M177.5,-216.69C177.5,-210.49 177.5,-200.59 177.5,-191.05"/>
<polygon fill="black" stroke="black" points="181,-191.02 177.5,-181.02 174,-191.02 181,-191.02"/>
</g>
<!-- COMMENT_9bbef20+1 -->
<g id="node3" class="node">
<title>COMMENT_9bbef20+1</title>
<polygon fill="none" stroke="black" points="318.5,-109 30.5,-109 30.5,-73 324.5,-73 324.5,-103 318.5,-109"/>
<polyline fill="none" stroke="black" points="318.5,-109 318.5,-103 "/>
<polyline fill="none" stroke="black" points="324.5,-103 318.5,-103 "/>
<text text-anchor="middle" x="177.5" y="-87.3" font-family="Times,serif" font-size="14.00">!$ CALL OMP_SET_NUM_THREADS(1)</text>
</g>
<!-- COMMENT_7d7e080+1&#45;&gt;COMMENT_9bbef20+1 -->
<g id="edge2" class="edge">
<title>COMMENT_7d7e080+1&#45;&gt;COMMENT_9bbef20+1</title>
<path fill="none" stroke="black" d="M177.5,-144.7C177.5,-136.98 177.5,-127.71 177.5,-119.11"/>
<polygon fill="black" stroke="black" points="181,-119.1 177.5,-109.1 174,-119.1 181,-119.1"/>
</g>
<!-- end_SUBPROGRAM_7d77520 -->
<g id="node4" class="node">
<title>end_SUBPROGRAM_7d77520</title>
<ellipse fill="black" stroke="black" cx="177.5" cy="-30" rx="7" ry="7"/>
</g>
<!-- COMMENT_9bbef20+1&#45;&gt;end_SUBPROGRAM_7d77520 -->
<g id="edge3" class="edge">
<title>COMMENT_9bbef20+1&#45;&gt;end_SUBPROGRAM_7d77520</title>
<path fill="none" stroke="black" d="M177.5,-72.93C177.5,-64.89 177.5,-55.33 177.5,-47.37"/>
<polygon fill="black" stroke="black" points="181,-47.22 177.5,-37.22 174,-47.22 181,-47.22"/>
</g>
</g>
</svg>
