<?xml version="1.0" encoding="UTF-8" standalone="no"?>
<!DOCTYPE svg PUBLIC "-//W3C//DTD SVG 1.1//EN"
 "http://www.w3.org/Graphics/SVG/1.1/DTD/svg11.dtd">
<!-- Generated by graphviz version 2.43.0 (0)
 -->
<!-- Title: CHECK_DIVERGENCE Pages: 1 -->
<svg width="398pt" height="353pt"
 viewBox="0.00 0.00 397.50 353.00" xmlns="http://www.w3.org/2000/svg" xmlns:xlink="http://www.w3.org/1999/xlink">
<g id="graph0" class="graph" transform="scale(1 1) rotate(0) translate(4 349)">
<title>CHECK_DIVERGENCE</title>
<polygon fill="white" stroke="transparent" points="-4,4 -4,-349 393.5,-349 393.5,4 -4,4"/>
<text text-anchor="middle" x="194.75" y="-7.8" font-family="Times,serif" font-size="14.00">CHECK_DIVERGENCE</text>
<g id="clust1" class="cluster">
<title>cluster_K</title>
<polygon fill="none" stroke="orange" points="281.5,-223 281.5,-337 381.5,-337 381.5,-223 281.5,-223"/>
<text text-anchor="middle" x="295" y="-321.8" font-family="Times,serif" font-size="14.00">K</text>
</g>
<g id="clust2" class="cluster">
<title>cluster_J</title>
<polygon fill="none" stroke="orange" points="289.5,-231 289.5,-306 373.5,-306 373.5,-231 289.5,-231"/>
<text text-anchor="middle" x="300.5" y="-290.8" font-family="Times,serif" font-size="14.00">J</text>
</g>
<!-- start_SUBPROGRAM_8129300 -->
<g id="node1" class="node">
<title>start_SUBPROGRAM_8129300</title>
<ellipse fill="none" stroke="black" cx="153.5" cy="-257" rx="7" ry="7"/>
</g>
<!-- COMMENT_8116dc0+1 -->
<g id="node2" class="node">
<title>COMMENT_8116dc0+1</title>
<polygon fill="none" stroke="black" points="301,-203 0,-203 0,-167 307,-167 307,-197 301,-203"/>
<polyline fill="none" stroke="black" points="301,-203 301,-197 "/>
<polyline fill="none" stroke="black" points="307,-197 301,-197 "/>
<text text-anchor="middle" x="153.5" y="-181.3" font-family="Times,serif" font-size="14.00">Computes maximum velocity divergence</text>
</g>
<!-- start_SUBPROGRAM_8129300&#45;&gt;COMMENT_8116dc0+1 -->
<g id="edge1" class="edge">
<title>start_SUBPROGRAM_8129300&#45;&gt;COMMENT_8116dc0+1</title>
<path fill="none" stroke="black" d="M153.5,-249.54C153.5,-241.31 153.5,-226.58 153.5,-213.37"/>
<polygon fill="black" stroke="black" points="157,-213.26 153.5,-203.26 150,-213.26 157,-213.26"/>
</g>
<!-- CALL_8119b80 -->
<g id="node3" class="node">
<title>CALL_8119b80</title>
<g id="a_node3"><a xlink:href="POINT_TO_MESH.svg" xlink:title="POINT_TO_MESH">
<polygon fill="lightgray" stroke="black" points="225.5,-131 81.5,-131 81.5,-127 77.5,-127 77.5,-123 81.5,-123 81.5,-103 77.5,-103 77.5,-99 81.5,-99 81.5,-95 225.5,-95 225.5,-131"/>
<polyline fill="none" stroke="black" points="81.5,-127 85.5,-127 85.5,-123 81.5,-123 "/>
<polyline fill="none" stroke="black" points="81.5,-103 85.5,-103 85.5,-99 81.5,-99 "/>
<text text-anchor="middle" x="153.5" y="-109.3" font-family="Times,serif" font-size="14.00">POINT_TO_MESH</text>
</a>
</g>
</g>
<!-- COMMENT_8116dc0+1&#45;&gt;CALL_8119b80 -->
<g id="edge2" class="edge">
<title>COMMENT_8116dc0+1&#45;&gt;CALL_8119b80</title>
<path fill="none" stroke="black" d="M153.5,-166.7C153.5,-158.98 153.5,-149.71 153.5,-141.11"/>
<polygon fill="black" stroke="black" points="157,-141.1 153.5,-131.1 150,-141.1 157,-141.1"/>
</g>
<!-- DO_8147760 -->
<g id="node5" class="node">
<title>DO_8147760</title>
<ellipse fill="none" stroke="black" cx="153.5" cy="-41" rx="70.69" ry="18"/>
<text text-anchor="middle" x="153.5" y="-37.3" font-family="Times,serif" font-size="14.00">DO_8147760</text>
</g>
<!-- CALL_8119b80&#45;&gt;DO_8147760 -->
<g id="edge3" class="edge">
<title>CALL_8119b80&#45;&gt;DO_8147760</title>
<path fill="none" stroke="black" d="M153.5,-94.7C153.5,-86.98 153.5,-77.71 153.5,-69.11"/>
<polygon fill="black" stroke="black" points="157,-69.1 153.5,-59.1 150,-69.1 157,-69.1"/>
</g>
<!-- DO_8147640 -->
<g id="node4" class="node">
<title>DO_8147640</title>
<polygon fill="none" stroke="orange" points="365,-275 298,-275 298,-239 365,-239 365,-275"/>
<text text-anchor="middle" x="331.5" y="-253.3" font-family="Times,serif" font-size="14.00">LOOP1</text>
</g>
<!-- end_SUBPROGRAM_8129300 -->
<g id="node6" class="node">
<title>end_SUBPROGRAM_8129300</title>
<ellipse fill="black" stroke="black" cx="331.5" cy="-185" rx="7" ry="7"/>
</g>
<!-- DO_8147640&#45;&gt;end_SUBPROGRAM_8129300 -->
<g id="edge4" class="edge">
<title>DO_8147640&#45;&gt;end_SUBPROGRAM_8129300</title>
<path fill="none" stroke="black" d="M331.5,-238.7C331.5,-227.64 331.5,-213.38 331.5,-202.48"/>
<polygon fill="black" stroke="black" points="335,-202.29 331.5,-192.29 328,-202.29 335,-202.29"/>
</g>
</g>
</svg>
