<?xml version="1.0" encoding="UTF-8" standalone="no"?>
<!DOCTYPE svg PUBLIC "-//W3C//DTD SVG 1.1//EN"
 "http://www.w3.org/Graphics/SVG/1.1/DTD/svg11.dtd">
<!-- Generated by graphviz version 2.43.0 (0)
 -->
<!-- Title: CHECK_DIVERGENCE Pages: 1 -->
<svg width="315pt" height="464pt"
 viewBox="0.00 0.00 315.00 463.88" xmlns="http://www.w3.org/2000/svg" xmlns:xlink="http://www.w3.org/1999/xlink">
<g id="graph0" class="graph" transform="scale(1 1) rotate(0) translate(4 459.88)">
<title>CHECK_DIVERGENCE</title>
<polygon fill="white" stroke="transparent" points="-4,4 -4,-459.88 311,-459.88 311,4 -4,4"/>
<text text-anchor="middle" x="153.5" y="-7.8" font-family="Times,serif" font-size="14.00">CHECK_DIVERGENCE</text>
<g id="clust1" class="cluster">
<title>cluster_K</title>
<polygon fill="none" stroke="orange" points="103.5,-65 103.5,-289.88 203.5,-289.88 203.5,-65 103.5,-65"/>
<text text-anchor="middle" x="117" y="-274.68" font-family="Times,serif" font-size="14.00">K</text>
</g>
<g id="clust2" class="cluster">
<title>cluster_J</title>
<polygon fill="none" stroke="orange" points="111.5,-101.72 111.5,-250.16 195.5,-250.16 195.5,-101.72 111.5,-101.72"/>
<text text-anchor="middle" x="122.5" y="-234.96" font-family="Times,serif" font-size="14.00">J</text>
</g>
<!-- start_SUBPROGRAM_85b8f80 -->
<g id="node1" class="node">
<title>start_SUBPROGRAM_85b8f80</title>
<ellipse fill="none" stroke="black" cx="153.5" cy="-448.88" rx="7" ry="7"/>
</g>
<!-- COMMENT_858d020+1 -->
<g id="node2" class="node">
<title>COMMENT_858d020+1</title>
<polygon fill="none" stroke="black" points="301,-405.88 0,-405.88 0,-369.88 307,-369.88 307,-399.88 301,-405.88"/>
<polyline fill="none" stroke="black" points="301,-405.88 301,-399.88 "/>
<polyline fill="none" stroke="black" points="307,-399.88 301,-399.88 "/>
<text text-anchor="middle" x="153.5" y="-384.18" font-family="Times,serif" font-size="14.00">Computes maximum velocity divergence</text>
</g>
<!-- start_SUBPROGRAM_85b8f80&#45;&gt;COMMENT_858d020+1 -->
<g id="edge1" class="edge">
<title>start_SUBPROGRAM_85b8f80&#45;&gt;COMMENT_858d020+1</title>
<path fill="none" stroke="black" d="M153.5,-441.57C153.5,-435.37 153.5,-425.47 153.5,-415.93"/>
<polygon fill="black" stroke="black" points="157,-415.9 153.5,-405.9 150,-415.9 157,-415.9"/>
</g>
<!-- CALL_85b2520 -->
<g id="node3" class="node">
<title>CALL_85b2520</title>
<g id="a_node3"><a xlink:href="POINT_TO_MESH.svg" xlink:title="POINT_TO_MESH">
<polygon fill="lightgray" stroke="black" points="225.5,-333.88 81.5,-333.88 81.5,-329.88 77.5,-329.88 77.5,-325.88 81.5,-325.88 81.5,-305.88 77.5,-305.88 77.5,-301.88 81.5,-301.88 81.5,-297.88 225.5,-297.88 225.5,-333.88"/>
<polyline fill="none" stroke="black" points="81.5,-329.88 85.5,-329.88 85.5,-325.88 81.5,-325.88 "/>
<polyline fill="none" stroke="black" points="81.5,-305.88 85.5,-305.88 85.5,-301.88 81.5,-301.88 "/>
<text text-anchor="middle" x="153.5" y="-312.18" font-family="Times,serif" font-size="14.00">POINT_TO_MESH</text>
</a>
</g>
</g>
<!-- COMMENT_858d020+1&#45;&gt;CALL_85b2520 -->
<g id="edge2" class="edge">
<title>COMMENT_858d020+1&#45;&gt;CALL_85b2520</title>
<path fill="none" stroke="black" d="M153.5,-369.58C153.5,-361.86 153.5,-352.59 153.5,-343.99"/>
<polygon fill="black" stroke="black" points="157,-343.98 153.5,-333.98 150,-343.98 157,-343.98"/>
</g>
<!-- beginDO_DO_85e0260 -->
<g id="node4" class="node">
<title>beginDO_DO_85e0260</title>
<ellipse fill="black" stroke="black" cx="153.5" cy="-258.52" rx="0.36" ry="0.36"/>
</g>
<!-- CALL_85b2520&#45;&gt;beginDO_DO_85e0260 -->
<g id="edge6" class="edge">
<title>CALL_85b2520&#45;&gt;beginDO_DO_85e0260</title>
<path fill="none" stroke="black" d="M153.5,-297.67C153.5,-281.92 153.5,-260.88 153.5,-259.58"/>
</g>
<!-- beginDO_DO_85e0080 -->
<g id="node6" class="node">
<title>beginDO_DO_85e0080</title>
<ellipse fill="black" stroke="black" cx="153.5" cy="-218.8" rx="0.36" ry="0.36"/>
</g>
<!-- beginDO_DO_85e0260&#45;&gt;beginDO_DO_85e0080 -->
<g id="edge4" class="edge">
<title>beginDO_DO_85e0260&#45;&gt;beginDO_DO_85e0080</title>
<path fill="none" stroke="black" d="M153.5,-258.05C153.5,-255.87 153.5,-222.02 153.5,-219.9"/>
</g>
<!-- endDO_DO_85e0260 -->
<g id="node5" class="node">
<title>endDO_DO_85e0260</title>
<ellipse fill="black" stroke="black" cx="153.5" cy="-73.36" rx="0.36" ry="0.36"/>
</g>
<!-- end_SUBPROGRAM_85b8f80 -->
<g id="node9" class="node">
<title>end_SUBPROGRAM_85b8f80</title>
<ellipse fill="black" stroke="black" cx="153.5" cy="-30" rx="7" ry="7"/>
</g>
<!-- endDO_DO_85e0260&#45;&gt;end_SUBPROGRAM_85b8f80 -->
<g id="edge8" class="edge">
<title>endDO_DO_85e0260&#45;&gt;end_SUBPROGRAM_85b8f80</title>
<path fill="none" stroke="black" d="M153.5,-72.24C153.5,-70.89 153.5,-58.27 153.5,-47.34"/>
<polygon fill="black" stroke="black" points="157,-47.1 153.5,-37.1 150,-47.1 157,-47.1"/>
</g>
<!-- DO_85de180 -->
<g id="node8" class="node">
<title>DO_85de180</title>
<polygon fill="none" stroke="orange" points="187,-182.44 120,-182.44 120,-146.44 187,-146.44 187,-182.44"/>
<text text-anchor="middle" x="153.5" y="-160.74" font-family="Times,serif" font-size="14.00">LOOP1</text>
</g>
<!-- beginDO_DO_85e0080&#45;&gt;DO_85de180 -->
<g id="edge3" class="edge">
<title>beginDO_DO_85e0080&#45;&gt;DO_85de180</title>
<path fill="none" stroke="black" d="M153.5,-218.29C153.5,-216.81 153.5,-204.76 153.5,-192.54"/>
<polygon fill="black" stroke="black" points="157,-192.46 153.5,-182.46 150,-192.46 157,-192.46"/>
</g>
<!-- endDO_DO_85e0080 -->
<g id="node7" class="node">
<title>endDO_DO_85e0080</title>
<ellipse fill="black" stroke="black" cx="153.5" cy="-110.08" rx="0.36" ry="0.36"/>
</g>
<!-- endDO_DO_85e0080&#45;&gt;endDO_DO_85e0260 -->
<g id="edge7" class="edge">
<title>endDO_DO_85e0080&#45;&gt;endDO_DO_85e0260</title>
<path fill="none" stroke="black" d="M153.5,-108.98C153.5,-106.97 153.5,-75.76 153.5,-73.82"/>
</g>
<!-- DO_85de180&#45;&gt;endDO_DO_85e0080 -->
<g id="edge5" class="edge">
<title>DO_85de180&#45;&gt;endDO_DO_85e0080</title>
<path fill="none" stroke="black" d="M153.5,-146.38C153.5,-131.37 153.5,-111.71 153.5,-110.5"/>
</g>
</g>
</svg>
