<?xml version="1.0" encoding="UTF-8" standalone="no"?>
<!DOCTYPE svg PUBLIC "-//W3C//DTD SVG 1.1//EN"
 "http://www.w3.org/Graphics/SVG/1.1/DTD/svg11.dtd">
<!-- Generated by graphviz version 2.43.0 (0)
 -->
<!-- Title: CHECK_OVERLAPPING_OBSTRUCTIONS Pages: 1 -->
<svg width="562pt" height="169pt"
 viewBox="0.00 0.00 562.00 169.00" xmlns="http://www.w3.org/2000/svg" xmlns:xlink="http://www.w3.org/1999/xlink">
<g id="graph0" class="graph" transform="scale(1 1) rotate(0) translate(4 165)">
<title>CHECK_OVERLAPPING_OBSTRUCTIONS</title>
<polygon fill="white" stroke="transparent" points="-4,4 -4,-165 558,-165 558,4 -4,4"/>
<text text-anchor="middle" x="277" y="-7.8" font-family="Times,serif" font-size="14.00">CHECK_OVERLAPPING_OBSTRUCTIONS</text>
<!-- start_SUBPROGRAM_7de0f80 -->
<g id="node1" class="node">
<title>start_SUBPROGRAM_7de0f80</title>
<ellipse fill="none" stroke="black" cx="277" cy="-154" rx="7" ry="7"/>
</g>
<!-- COMMENT_7dd5a40+1 -->
<g id="node2" class="node">
<title>COMMENT_7dd5a40+1</title>
<polygon fill="none" stroke="black" points="548,-111 0,-111 0,-73 554,-73 554,-105 548,-111"/>
<polyline fill="none" stroke="black" points="548,-111 548,-105 "/>
<polyline fill="none" stroke="black" points="554,-105 548,-105 "/>
<text text-anchor="middle" x="277" y="-95.8" font-family="Times,serif" font-size="14.00">!&gt; brief Check if two removable obstructions overlap at a common surface.</text>
<text text-anchor="middle" x="277" y="-80.8" font-family="Times,serif" font-size="14.00">!&gt; param IERR Error flag.</text>
</g>
<!-- start_SUBPROGRAM_7de0f80&#45;&gt;COMMENT_7dd5a40+1 -->
<g id="edge1" class="edge">
<title>start_SUBPROGRAM_7de0f80&#45;&gt;COMMENT_7dd5a40+1</title>
<path fill="none" stroke="black" d="M277,-146.58C277,-140.41 277,-130.64 277,-121.12"/>
<polygon fill="black" stroke="black" points="280.5,-121.08 277,-111.08 273.5,-121.08 280.5,-121.08"/>
</g>
<!-- end_SUBPROGRAM_7de0f80 -->
<g id="node3" class="node">
<title>end_SUBPROGRAM_7de0f80</title>
<ellipse fill="black" stroke="black" cx="277" cy="-30" rx="7" ry="7"/>
</g>
<!-- COMMENT_7dd5a40+1&#45;&gt;end_SUBPROGRAM_7de0f80 -->
<g id="edge2" class="edge">
<title>COMMENT_7dd5a40+1&#45;&gt;end_SUBPROGRAM_7de0f80</title>
<path fill="none" stroke="black" d="M277,-73C277,-64.83 277,-55.25 277,-47.3"/>
<polygon fill="black" stroke="black" points="280.5,-47.18 277,-37.18 273.5,-47.18 280.5,-47.18"/>
</g>
</g>
</svg>
