<?xml version="1.0" encoding="UTF-8" standalone="no"?>
<!DOCTYPE svg PUBLIC "-//W3C//DTD SVG 1.1//EN"
 "http://www.w3.org/Graphics/SVG/1.1/DTD/svg11.dtd">
<!-- Generated by graphviz version 2.43.0 (0)
 -->
<!-- Title: CHECK_DIVERGENCE Pages: 1 -->
<svg width="315pt" height="311pt"
 viewBox="0.00 0.00 315.00 311.00" xmlns="http://www.w3.org/2000/svg" xmlns:xlink="http://www.w3.org/1999/xlink">
<g id="graph0" class="graph" transform="scale(1 1) rotate(0) translate(4 307)">
<title>CHECK_DIVERGENCE</title>
<polygon fill="white" stroke="transparent" points="-4,4 -4,-307 311,-307 311,4 -4,4"/>
<text text-anchor="middle" x="153.5" y="-7.8" font-family="Times,serif" font-size="14.00">CHECK_DIVERGENCE</text>
<!-- start_SUBPROGRAM_9508d20 -->
<g id="node1" class="node">
<title>start_SUBPROGRAM_9508d20</title>
<ellipse fill="none" stroke="black" cx="153.5" cy="-296" rx="7" ry="7"/>
</g>
<!-- COMMENT_94caa00+1 -->
<g id="node2" class="node">
<title>COMMENT_94caa00+1</title>
<polygon fill="none" stroke="black" points="301,-253 0,-253 0,-217 307,-217 307,-247 301,-253"/>
<polyline fill="none" stroke="black" points="301,-253 301,-247 "/>
<polyline fill="none" stroke="black" points="307,-247 301,-247 "/>
<text text-anchor="middle" x="153.5" y="-231.3" font-family="Times,serif" font-size="14.00">Computes maximum velocity divergence</text>
</g>
<!-- start_SUBPROGRAM_9508d20&#45;&gt;COMMENT_94caa00+1 -->
<g id="edge1" class="edge">
<title>start_SUBPROGRAM_9508d20&#45;&gt;COMMENT_94caa00+1</title>
<path fill="none" stroke="black" d="M153.5,-288.69C153.5,-282.49 153.5,-272.59 153.5,-263.05"/>
<polygon fill="black" stroke="black" points="157,-263.02 153.5,-253.02 150,-263.02 157,-263.02"/>
</g>
<!-- CALL_94d8d80 -->
<g id="node3" class="node">
<title>CALL_94d8d80</title>
<g id="a_node3"><a xlink:href="POINT_TO_MESH.svg" xlink:title="POINT_TO_MESH">
<polygon fill="lightgray" stroke="black" points="225.5,-181 81.5,-181 81.5,-177 77.5,-177 77.5,-173 81.5,-173 81.5,-153 77.5,-153 77.5,-149 81.5,-149 81.5,-145 225.5,-145 225.5,-181"/>
<polyline fill="none" stroke="black" points="81.5,-177 85.5,-177 85.5,-173 81.5,-173 "/>
<polyline fill="none" stroke="black" points="81.5,-153 85.5,-153 85.5,-149 81.5,-149 "/>
<text text-anchor="middle" x="153.5" y="-159.3" font-family="Times,serif" font-size="14.00">POINT_TO_MESH</text>
</a>
</g>
</g>
<!-- COMMENT_94caa00+1&#45;&gt;CALL_94d8d80 -->
<g id="edge2" class="edge">
<title>COMMENT_94caa00+1&#45;&gt;CALL_94d8d80</title>
<path fill="none" stroke="black" d="M153.5,-216.7C153.5,-208.98 153.5,-199.71 153.5,-191.11"/>
<polygon fill="black" stroke="black" points="157,-191.1 153.5,-181.1 150,-191.1 157,-191.1"/>
</g>
<!-- DO_9507740 -->
<g id="node4" class="node">
<title>DO_9507740</title>
<polygon fill="none" stroke="orange" points="187,-109 120,-109 120,-73 187,-73 187,-109"/>
<text text-anchor="middle" x="153.5" y="-87.3" font-family="Times,serif" font-size="14.00">LOOP1</text>
</g>
<!-- CALL_94d8d80&#45;&gt;DO_9507740 -->
<g id="edge3" class="edge">
<title>CALL_94d8d80&#45;&gt;DO_9507740</title>
<path fill="none" stroke="black" d="M153.5,-144.7C153.5,-136.98 153.5,-127.71 153.5,-119.11"/>
<polygon fill="black" stroke="black" points="157,-119.1 153.5,-109.1 150,-119.1 157,-119.1"/>
</g>
<!-- end_SUBPROGRAM_9508d20 -->
<g id="node5" class="node">
<title>end_SUBPROGRAM_9508d20</title>
<ellipse fill="black" stroke="black" cx="153.5" cy="-30" rx="7" ry="7"/>
</g>
<!-- DO_9507740&#45;&gt;end_SUBPROGRAM_9508d20 -->
<g id="edge4" class="edge">
<title>DO_9507740&#45;&gt;end_SUBPROGRAM_9508d20</title>
<path fill="none" stroke="black" d="M153.5,-72.93C153.5,-64.89 153.5,-55.33 153.5,-47.37"/>
<polygon fill="black" stroke="black" points="157,-47.22 153.5,-37.22 150,-47.22 157,-47.22"/>
</g>
</g>
</svg>
