<?xml version="1.0" encoding="UTF-8" standalone="no"?>
<!DOCTYPE svg PUBLIC "-//W3C//DTD SVG 1.1//EN"
 "http://www.w3.org/Graphics/SVG/1.1/DTD/svg11.dtd">
<!-- Generated by graphviz version 2.43.0 (0)
 -->
<!-- Title: CHECK_FREEZE_VELOCITY_STATUS Pages: 1 -->
<svg width="627pt" height="311pt"
 viewBox="0.00 0.00 627.00 311.00" xmlns="http://www.w3.org/2000/svg" xmlns:xlink="http://www.w3.org/1999/xlink">
<g id="graph0" class="graph" transform="scale(1 1) rotate(0) translate(4 307)">
<title>CHECK_FREEZE_VELOCITY_STATUS</title>
<polygon fill="white" stroke="transparent" points="-4,4 -4,-307 623,-307 623,4 -4,4"/>
<text text-anchor="middle" x="309.5" y="-7.8" font-family="Times,serif" font-size="14.00">CHECK_FREEZE_VELOCITY_STATUS</text>
<!-- start_SUBPROGRAM_8914460 -->
<g id="node1" class="node">
<title>start_SUBPROGRAM_8914460</title>
<ellipse fill="none" stroke="black" cx="309.5" cy="-296" rx="7" ry="7"/>
</g>
<!-- COMMENT_8910000+1 -->
<g id="node2" class="node">
<title>COMMENT_8910000+1</title>
<polygon fill="none" stroke="black" points="613,-253 0,-253 0,-217 619,-217 619,-247 613,-253"/>
<polyline fill="none" stroke="black" points="613,-253 613,-247 "/>
<polyline fill="none" stroke="black" points="619,-247 613,-247 "/>
<text text-anchor="middle" x="309.5" y="-231.3" font-family="Times,serif" font-size="14.00">!&gt; brief Check to see if any FREEZE_VELOCITY=T and any SOLID_PHASE_ONLY=T</text>
</g>
<!-- start_SUBPROGRAM_8914460&#45;&gt;COMMENT_8910000+1 -->
<g id="edge1" class="edge">
<title>start_SUBPROGRAM_8914460&#45;&gt;COMMENT_8910000+1</title>
<path fill="none" stroke="black" d="M309.5,-288.69C309.5,-282.49 309.5,-272.59 309.5,-263.05"/>
<polygon fill="black" stroke="black" points="313,-263.02 309.5,-253.02 306,-263.02 313,-263.02"/>
</g>
<!-- CALL_89120a0 -->
<g id="node3" class="node">
<title>CALL_89120a0</title>
<g id="a_node3"><a xlink:href="MPI_ALLREDUCE.svg" xlink:title="MPI_ALLREDUCE">
<polygon fill="#ffe800" stroke="black" points="382.5,-181 236.5,-181 236.5,-177 232.5,-177 232.5,-173 236.5,-173 236.5,-153 232.5,-153 232.5,-149 236.5,-149 236.5,-145 382.5,-145 382.5,-181"/>
<polyline fill="none" stroke="black" points="236.5,-177 240.5,-177 240.5,-173 236.5,-173 "/>
<polyline fill="none" stroke="black" points="236.5,-153 240.5,-153 240.5,-149 236.5,-149 "/>
<text text-anchor="middle" x="309.5" y="-159.3" font-family="Times,serif" font-size="14.00">MPI_ALLREDUCE</text>
</a>
</g>
</g>
<!-- COMMENT_8910000+1&#45;&gt;CALL_89120a0 -->
<g id="edge2" class="edge">
<title>COMMENT_8910000+1&#45;&gt;CALL_89120a0</title>
<path fill="none" stroke="black" d="M309.5,-216.7C309.5,-208.98 309.5,-199.71 309.5,-191.11"/>
<polygon fill="black" stroke="black" points="313,-191.1 309.5,-181.1 306,-191.1 313,-191.1"/>
</g>
<!-- CALL_8914060 -->
<g id="node4" class="node">
<title>CALL_8914060</title>
<g id="a_node4"><a xlink:href="MPI_ALLREDUCE.svg" xlink:title="MPI_ALLREDUCE">
<polygon fill="#ffe800" stroke="black" points="382.5,-109 236.5,-109 236.5,-105 232.5,-105 232.5,-101 236.5,-101 236.5,-81 232.5,-81 232.5,-77 236.5,-77 236.5,-73 382.5,-73 382.5,-109"/>
<polyline fill="none" stroke="black" points="236.5,-105 240.5,-105 240.5,-101 236.5,-101 "/>
<polyline fill="none" stroke="black" points="236.5,-81 240.5,-81 240.5,-77 236.5,-77 "/>
<text text-anchor="middle" x="309.5" y="-87.3" font-family="Times,serif" font-size="14.00">MPI_ALLREDUCE</text>
</a>
</g>
</g>
<!-- CALL_89120a0&#45;&gt;CALL_8914060 -->
<g id="edge3" class="edge">
<title>CALL_89120a0&#45;&gt;CALL_8914060</title>
<path fill="none" stroke="black" d="M309.5,-144.7C309.5,-136.98 309.5,-127.71 309.5,-119.11"/>
<polygon fill="black" stroke="black" points="313,-119.1 309.5,-109.1 306,-119.1 313,-119.1"/>
</g>
<!-- end_SUBPROGRAM_8914460 -->
<g id="node5" class="node">
<title>end_SUBPROGRAM_8914460</title>
<ellipse fill="black" stroke="black" cx="309.5" cy="-30" rx="7" ry="7"/>
</g>
<!-- CALL_8914060&#45;&gt;end_SUBPROGRAM_8914460 -->
<g id="edge4" class="edge">
<title>CALL_8914060&#45;&gt;end_SUBPROGRAM_8914460</title>
<path fill="none" stroke="black" d="M309.5,-72.93C309.5,-64.89 309.5,-55.33 309.5,-47.37"/>
<polygon fill="black" stroke="black" points="313,-47.22 309.5,-37.22 306,-47.22 313,-47.22"/>
</g>
</g>
</svg>
