<?xml version="1.0" encoding="UTF-8" standalone="no"?>
<!DOCTYPE svg PUBLIC "-//W3C//DTD SVG 1.1//EN"
 "http://www.w3.org/Graphics/SVG/1.1/DTD/svg11.dtd">
<!-- Generated by graphviz version 2.43.0 (0)
 -->
<!-- Title: CHECK_STABILITY Pages: 1 -->
<svg width="838pt" height="1329pt"
 viewBox="0.00 0.00 838.00 1328.92" xmlns="http://www.w3.org/2000/svg" xmlns:xlink="http://www.w3.org/1999/xlink">
<g id="graph0" class="graph" transform="scale(1 1) rotate(0) translate(4 1324.92)">
<title>CHECK_STABILITY</title>
<polygon fill="white" stroke="transparent" points="-4,4 -4,-1324.92 834,-1324.92 834,4 -4,4"/>
<text text-anchor="middle" x="415" y="-7.8" font-family="Times,serif" font-size="14.00">CHECK_STABILITY</text>
<g id="clust1" class="cluster">
<title>cluster_omp_OMP_BEGIN_REGION_936e4c0+2</title>
<polygon fill="none" stroke="red" points="282,-996.2 282,-1107.92 584,-1107.92 584,-996.2 282,-996.2"/>
<text text-anchor="middle" x="433" y="-1092.72" font-family="Times,serif" font-size="14.00">omp_OMP_BEGIN_REGION_936e4c0+2</text>
</g>
<g id="clust2" class="cluster">
<title>cluster_HEAT_TRANSFER_IF</title>
<polygon fill="none" stroke="blue" points="332,-836.76 332,-988.2 499,-988.2 499,-836.76 332,-836.76"/>
<text text-anchor="middle" x="415.5" y="-973" font-family="Times,serif" font-size="14.00">HEAT_TRANSFER_IF</text>
</g>
<g id="clust3" class="cluster">
<title>cluster_cond93982c0</title>
<polygon fill="none" stroke="black" points="354,-873.48 354,-948.48 476,-948.48 476,-873.48 354,-873.48"/>
<text text-anchor="middle" x="410" y="-933.28" font-family="Times,serif" font-size="14.00">cond93982c0</text>
</g>
<g id="clust4" class="cluster">
<title>cluster_PARABOLIC_IF</title>
<polygon fill="none" stroke="blue" points="348,-360.44 348,-692.76 482,-692.76 482,-360.44 348,-360.44"/>
<text text-anchor="middle" x="409.5" y="-677.56" font-family="Times,serif" font-size="14.00">PARABOLIC_IF</text>
</g>
<g id="clust5" class="cluster">
<title>cluster_cond93aadc0</title>
<polygon fill="none" stroke="black" points="356,-389.16 356,-653.04 474,-653.04 474,-389.16 356,-389.16"/>
<text text-anchor="middle" x="411" y="-637.84" font-family="Times,serif" font-size="14.00">cond93aadc0</text>
</g>
<g id="clust6" class="cluster">
<title>cluster_K</title>
<polygon fill="none" stroke="orange" points="364,-397.16 364,-622.04 466,-622.04 466,-397.16 364,-397.16"/>
<text text-anchor="middle" x="377.5" y="-606.84" font-family="Times,serif" font-size="14.00">K</text>
</g>
<g id="clust7" class="cluster">
<title>cluster_J</title>
<polygon fill="none" stroke="orange" points="372,-433.88 372,-582.32 458,-582.32 458,-433.88 372,-433.88"/>
<text text-anchor="middle" x="383" y="-567.12" font-family="Times,serif" font-size="14.00">J</text>
</g>
<g id="clust8" class="cluster">
<title>cluster_RAMP_TIME_IF</title>
<polygon fill="none" stroke="blue" points="155,-65 155,-216.44 709,-216.44 709,-65 155,-65"/>
<text text-anchor="middle" x="219" y="-201.24" font-family="Times,serif" font-size="14.00">RAMP_TIME_IF</text>
</g>
<g id="clust9" class="cluster">
<title>cluster_cond93bc520</title>
<polygon fill="none" stroke="black" points="163,-101.72 163,-176.72 419,-176.72 419,-101.72 163,-101.72"/>
<text text-anchor="middle" x="219" y="-161.52" font-family="Times,serif" font-size="14.00">cond93bc520</text>
</g>
<g id="clust10" class="cluster">
<title>cluster_cond93d2ae0</title>
<polygon fill="none" stroke="black" points="427,-101.72 427,-176.72 701,-176.72 701,-101.72 427,-101.72"/>
<text text-anchor="middle" x="483" y="-161.52" font-family="Times,serif" font-size="14.00">cond93d2ae0</text>
</g>
<!-- start_SUBPROGRAM_93d20c0 -->
<g id="node1" class="node">
<title>start_SUBPROGRAM_93d20c0</title>
<ellipse fill="none" stroke="black" cx="415" cy="-1313.92" rx="7" ry="7"/>
</g>
<!-- COMMENT_93655c0+1 -->
<g id="node2" class="node">
<title>COMMENT_93655c0+1</title>
<polygon fill="none" stroke="black" points="824,-1270.92 0,-1270.92 0,-1187.92 830,-1187.92 830,-1264.92 824,-1270.92"/>
<polyline fill="none" stroke="black" points="824,-1270.92 824,-1264.92 "/>
<polyline fill="none" stroke="black" points="830,-1264.92 824,-1264.92 "/>
<text text-anchor="middle" x="415" y="-1255.72" font-family="Times,serif" font-size="14.00">!&gt; brief Check the Courant and Von Neumann stability criteria, and if necessary, reduce or increase the time step</text>
<text text-anchor="middle" x="415" y="-1240.72" font-family="Times,serif" font-size="14.00">!&gt; param DT Time step (s)</text>
<text text-anchor="middle" x="415" y="-1225.72" font-family="Times,serif" font-size="14.00">!&gt; param DT_NEW New time step (s)</text>
<text text-anchor="middle" x="415" y="-1210.72" font-family="Times,serif" font-size="14.00">!&gt; param T Current time (s)</text>
<text text-anchor="middle" x="415" y="-1195.72" font-family="Times,serif" font-size="14.00">!&gt; param NM Mesh number</text>
</g>
<!-- start_SUBPROGRAM_93d20c0&#45;&gt;COMMENT_93655c0+1 -->
<g id="edge1" class="edge">
<title>start_SUBPROGRAM_93d20c0&#45;&gt;COMMENT_93655c0+1</title>
<path fill="none" stroke="black" d="M415,-1306.72C415,-1300.81 415,-1291.31 415,-1280.99"/>
<polygon fill="black" stroke="black" points="418.5,-1280.93 415,-1270.93 411.5,-1280.93 418.5,-1280.93"/>
</g>
<!-- COMMENT_936e4c0+1 -->
<g id="node3" class="node">
<title>COMMENT_936e4c0+1</title>
<polygon fill="none" stroke="black" points="584.5,-1151.92 239.5,-1151.92 239.5,-1115.92 590.5,-1115.92 590.5,-1145.92 584.5,-1151.92"/>
<polyline fill="none" stroke="black" points="584.5,-1151.92 584.5,-1145.92 "/>
<polyline fill="none" stroke="black" points="590.5,-1145.92 584.5,-1145.92 "/>
<text text-anchor="middle" x="415" y="-1130.22" font-family="Times,serif" font-size="14.00">Determine max CFL number from all grid cells</text>
</g>
<!-- COMMENT_93655c0+1&#45;&gt;COMMENT_936e4c0+1 -->
<g id="edge2" class="edge">
<title>COMMENT_93655c0+1&#45;&gt;COMMENT_936e4c0+1</title>
<path fill="none" stroke="black" d="M415,-1187.68C415,-1179.16 415,-1170.36 415,-1162.45"/>
<polygon fill="black" stroke="black" points="418.5,-1162.33 415,-1152.33 411.5,-1162.33 418.5,-1162.33"/>
</g>
<!-- start_omp_OMP_BEGIN_REGION_936e4c0+2 -->
<g id="node4" class="node">
<title>start_omp_OMP_BEGIN_REGION_936e4c0+2</title>
<ellipse fill="black" stroke="black" cx="415" cy="-1076.56" rx="0.36" ry="0.36"/>
</g>
<!-- COMMENT_936e4c0+1&#45;&gt;start_omp_OMP_BEGIN_REGION_936e4c0+2 -->
<g id="edge3" class="edge">
<title>COMMENT_936e4c0+1&#45;&gt;start_omp_OMP_BEGIN_REGION_936e4c0+2</title>
<path fill="none" stroke="black" d="M415,-1115.71C415,-1099.96 415,-1078.92 415,-1077.62"/>
</g>
<!-- OMP_DO_936e720+1 -->
<g id="node5" class="node">
<title>OMP_DO_936e720+1</title>
<polygon fill="red" stroke="black" points="538,-1040.2 292,-1040.2 292,-1004.2 538,-1004.2 538,-1040.2"/>
<text text-anchor="middle" x="415" y="-1018.5" font-family="Times,serif" font-size="14.00">!$OMP DO SCHEDULE(STATIC)</text>
</g>
<!-- start_omp_OMP_BEGIN_REGION_936e4c0+2&#45;&gt;OMP_DO_936e720+1 -->
<g id="edge4" class="edge">
<title>start_omp_OMP_BEGIN_REGION_936e4c0+2&#45;&gt;OMP_DO_936e720+1</title>
<path fill="none" stroke="black" d="M415,-1076.05C415,-1074.57 415,-1062.52 415,-1050.3"/>
<polygon fill="black" stroke="black" points="418.5,-1050.22 415,-1040.22 411.5,-1050.22 418.5,-1050.22"/>
</g>
<!-- beginIf_IF_9398400 -->
<g id="node6" class="node">
<title>beginIf_IF_9398400</title>
<ellipse fill="black" stroke="black" cx="415" cy="-956.84" rx="0.36" ry="0.36"/>
</g>
<!-- OMP_DO_936e720+1&#45;&gt;beginIf_IF_9398400 -->
<g id="edge7" class="edge">
<title>OMP_DO_936e720+1&#45;&gt;beginIf_IF_9398400</title>
<path fill="none" stroke="black" d="M415,-1003.89C415,-985.71 415,-959.54 415,-957.92"/>
</g>
<!-- DO_93981e0 -->
<g id="node8" class="node">
<title>DO_93981e0</title>
<polygon fill="none" stroke="orange" points="468,-917.48 362,-917.48 362,-881.48 468,-881.48 468,-917.48"/>
<text text-anchor="middle" x="415" y="-895.78" font-family="Times,serif" font-size="14.00">WALL_LOOP</text>
</g>
<!-- beginIf_IF_9398400&#45;&gt;DO_93981e0 -->
<g id="edge5" class="edge">
<title>beginIf_IF_9398400&#45;&gt;DO_93981e0</title>
<path fill="none" stroke="black" d="M415,-956.32C415,-954.69 415,-941 415,-927.58"/>
<polygon fill="black" stroke="black" points="418.5,-927.58 415,-917.58 411.5,-927.58 418.5,-927.58"/>
</g>
<!-- endIf_IF_9398400 -->
<g id="node7" class="node">
<title>endIf_IF_9398400</title>
<ellipse fill="black" stroke="black" cx="415" cy="-845.12" rx="0.36" ry="0.36"/>
</g>
<!-- COMMENT_9396460+1 -->
<g id="node9" class="node">
<title>COMMENT_9396460+1</title>
<polygon fill="none" stroke="black" points="491,-808.76 333,-808.76 333,-772.76 497,-772.76 497,-802.76 491,-808.76"/>
<polyline fill="none" stroke="black" points="491,-808.76 491,-802.76 "/>
<polyline fill="none" stroke="black" points="497,-802.76 491,-802.76 "/>
<text text-anchor="middle" x="415" y="-787.06" font-family="Times,serif" font-size="14.00">CFL = DT*UVWMAX</text>
</g>
<!-- endIf_IF_9398400&#45;&gt;COMMENT_9396460+1 -->
<g id="edge8" class="edge">
<title>endIf_IF_9398400&#45;&gt;COMMENT_9396460+1</title>
<path fill="none" stroke="black" d="M415,-843.97C415,-842.53 415,-830.99 415,-819.12"/>
<polygon fill="black" stroke="black" points="418.5,-818.86 415,-808.86 411.5,-818.86 418.5,-818.86"/>
</g>
<!-- DO_93981e0&#45;&gt;endIf_IF_9398400 -->
<g id="edge6" class="edge">
<title>DO_93981e0&#45;&gt;endIf_IF_9398400</title>
<path fill="none" stroke="black" d="M415,-881.42C415,-866.41 415,-846.75 415,-845.54"/>
</g>
<!-- COMMENT_9398c60+1 -->
<g id="node10" class="node">
<title>COMMENT_9398c60+1</title>
<polygon fill="none" stroke="black" points="620.5,-736.76 203.5,-736.76 203.5,-700.76 626.5,-700.76 626.5,-730.76 620.5,-736.76"/>
<polyline fill="none" stroke="black" points="620.5,-736.76 620.5,-730.76 "/>
<polyline fill="none" stroke="black" points="626.5,-730.76 620.5,-730.76 "/>
<text text-anchor="middle" x="415" y="-715.06" font-family="Times,serif" font-size="14.00">Determine max Von Neumann Number for fine grid calcs</text>
</g>
<!-- COMMENT_9396460+1&#45;&gt;COMMENT_9398c60+1 -->
<g id="edge9" class="edge">
<title>COMMENT_9396460+1&#45;&gt;COMMENT_9398c60+1</title>
<path fill="none" stroke="black" d="M415,-772.46C415,-764.74 415,-755.47 415,-746.87"/>
<polygon fill="black" stroke="black" points="418.5,-746.86 415,-736.86 411.5,-746.86 418.5,-746.86"/>
</g>
<!-- beginIf_IF_93aae40 -->
<g id="node11" class="node">
<title>beginIf_IF_93aae40</title>
<ellipse fill="black" stroke="black" cx="415" cy="-661.4" rx="0.36" ry="0.36"/>
</g>
<!-- COMMENT_9398c60+1&#45;&gt;beginIf_IF_93aae40 -->
<g id="edge16" class="edge">
<title>COMMENT_9398c60+1&#45;&gt;beginIf_IF_93aae40</title>
<path fill="none" stroke="black" d="M415,-700.55C415,-684.8 415,-663.76 415,-662.46"/>
</g>
<!-- beginDO_DO_93a5020 -->
<g id="node13" class="node">
<title>beginDO_DO_93a5020</title>
<ellipse fill="black" stroke="black" cx="415" cy="-590.68" rx="0.36" ry="0.36"/>
</g>
<!-- beginIf_IF_93aae40&#45;&gt;beginDO_DO_93a5020 -->
<g id="edge14" class="edge">
<title>beginIf_IF_93aae40&#45;&gt;beginDO_DO_93a5020</title>
<path fill="none" stroke="black" d="M415,-660.99C415,-659.41 415,-620.84 415,-601.94"/>
<polygon fill="black" stroke="black" points="418.5,-601.73 415,-591.73 411.5,-601.73 418.5,-601.73"/>
</g>
<!-- endIf_IF_93aae40 -->
<g id="node12" class="node">
<title>endIf_IF_93aae40</title>
<ellipse fill="black" stroke="black" cx="415" cy="-368.8" rx="0.36" ry="0.36"/>
</g>
<!-- CALL_93ad800 -->
<g id="node18" class="node">
<title>CALL_93ad800</title>
<g id="a_node18"><a xlink:href="CHECK_CFLVN_LINKED_CELLS.svg" xlink:title="CHECK_CFLVN_LINKED_CELLS">
<polygon fill="lightgray" stroke="black" points="539,-332.44 291,-332.44 291,-328.44 287,-328.44 287,-324.44 291,-324.44 291,-304.44 287,-304.44 287,-300.44 291,-300.44 291,-296.44 539,-296.44 539,-332.44"/>
<polyline fill="none" stroke="black" points="291,-328.44 295,-328.44 295,-324.44 291,-324.44 "/>
<polyline fill="none" stroke="black" points="291,-304.44 295,-304.44 295,-300.44 291,-300.44 "/>
<text text-anchor="middle" x="415" y="-310.74" font-family="Times,serif" font-size="14.00">CHECK_CFLVN_LINKED_CELLS</text>
</a>
</g>
</g>
<!-- endIf_IF_93aae40&#45;&gt;CALL_93ad800 -->
<g id="edge17" class="edge">
<title>endIf_IF_93aae40&#45;&gt;CALL_93ad800</title>
<path fill="none" stroke="black" d="M415,-367.65C415,-366.21 415,-354.67 415,-342.8"/>
<polygon fill="black" stroke="black" points="418.5,-342.54 415,-332.54 411.5,-342.54 418.5,-342.54"/>
</g>
<!-- beginDO_DO_93a4f00 -->
<g id="node15" class="node">
<title>beginDO_DO_93a4f00</title>
<ellipse fill="black" stroke="black" cx="415" cy="-550.96" rx="0.36" ry="0.36"/>
</g>
<!-- beginDO_DO_93a5020&#45;&gt;beginDO_DO_93a4f00 -->
<g id="edge11" class="edge">
<title>beginDO_DO_93a5020&#45;&gt;beginDO_DO_93a4f00</title>
<path fill="none" stroke="black" d="M415,-590.21C415,-588.03 415,-554.18 415,-552.06"/>
</g>
<!-- endDO_DO_93a5020 -->
<g id="node14" class="node">
<title>endDO_DO_93a5020</title>
<ellipse fill="black" stroke="black" cx="415" cy="-405.52" rx="0.36" ry="0.36"/>
</g>
<!-- endDO_DO_93a5020&#45;&gt;endIf_IF_93aae40 -->
<g id="edge15" class="edge">
<title>endDO_DO_93a5020&#45;&gt;endIf_IF_93aae40</title>
<path fill="none" stroke="black" d="M415,-404.42C415,-402.41 415,-371.2 415,-369.26"/>
</g>
<!-- DO_9396b00 -->
<g id="node17" class="node">
<title>DO_9396b00</title>
<polygon fill="none" stroke="orange" points="450,-514.6 380,-514.6 380,-478.6 450,-478.6 450,-514.6"/>
<text text-anchor="middle" x="415" y="-492.9" font-family="Times,serif" font-size="14.00">I_LOOP</text>
</g>
<!-- beginDO_DO_93a4f00&#45;&gt;DO_9396b00 -->
<g id="edge10" class="edge">
<title>beginDO_DO_93a4f00&#45;&gt;DO_9396b00</title>
<path fill="none" stroke="black" d="M415,-550.45C415,-548.97 415,-536.92 415,-524.7"/>
<polygon fill="black" stroke="black" points="418.5,-524.62 415,-514.62 411.5,-524.62 418.5,-524.62"/>
</g>
<!-- endDO_DO_93a4f00 -->
<g id="node16" class="node">
<title>endDO_DO_93a4f00</title>
<ellipse fill="black" stroke="black" cx="415" cy="-442.24" rx="0.36" ry="0.36"/>
</g>
<!-- endDO_DO_93a4f00&#45;&gt;endDO_DO_93a5020 -->
<g id="edge13" class="edge">
<title>endDO_DO_93a4f00&#45;&gt;endDO_DO_93a5020</title>
<path fill="none" stroke="black" d="M415,-441.14C415,-439.13 415,-407.92 415,-405.98"/>
</g>
<!-- DO_9396b00&#45;&gt;endDO_DO_93a4f00 -->
<g id="edge12" class="edge">
<title>DO_9396b00&#45;&gt;endDO_DO_93a4f00</title>
<path fill="none" stroke="black" d="M415,-478.54C415,-463.53 415,-443.87 415,-442.66"/>
</g>
<!-- COMMENT_93abb60+1 -->
<g id="node19" class="node">
<title>COMMENT_93abb60+1</title>
<polygon fill="none" stroke="black" points="564,-260.44 260,-260.44 260,-224.44 570,-224.44 570,-254.44 564,-260.44"/>
<polyline fill="none" stroke="black" points="564,-260.44 564,-254.44 "/>
<polyline fill="none" stroke="black" points="570,-254.44 564,-254.44 "/>
<text text-anchor="middle" x="415" y="-238.74" font-family="Times,serif" font-size="14.00">Attempt DT restriction to avoid clippings</text>
</g>
<!-- CALL_93ad800&#45;&gt;COMMENT_93abb60+1 -->
<g id="edge18" class="edge">
<title>CALL_93ad800&#45;&gt;COMMENT_93abb60+1</title>
<path fill="none" stroke="black" d="M415,-296.14C415,-288.42 415,-279.15 415,-270.55"/>
<polygon fill="black" stroke="black" points="418.5,-270.54 415,-260.54 411.5,-270.54 418.5,-270.54"/>
</g>
<!-- beginIf_IF_93d2b40 -->
<g id="node20" class="node">
<title>beginIf_IF_93d2b40</title>
<ellipse fill="black" stroke="black" cx="415" cy="-185.08" rx="0.36" ry="0.36"/>
</g>
<!-- COMMENT_93abb60+1&#45;&gt;beginIf_IF_93d2b40 -->
<g id="edge23" class="edge">
<title>COMMENT_93abb60+1&#45;&gt;beginIf_IF_93d2b40</title>
<path fill="none" stroke="black" d="M415,-224.23C415,-208.48 415,-187.44 415,-186.14"/>
</g>
<!-- COMMENT_93b6100+1 -->
<g id="node22" class="node">
<title>COMMENT_93b6100+1</title>
<polygon fill="none" stroke="black" points="405,-145.72 171,-145.72 171,-109.72 411,-109.72 411,-139.72 405,-145.72"/>
<polyline fill="none" stroke="black" points="405,-145.72 405,-139.72 "/>
<polyline fill="none" stroke="black" points="411,-139.72 405,-139.72 "/>
<text text-anchor="middle" x="291" y="-124.02" font-family="Times,serif" font-size="14.00">User&#45;specified time increments</text>
</g>
<!-- beginIf_IF_93d2b40&#45;&gt;COMMENT_93b6100+1 -->
<g id="edge19" class="edge">
<title>beginIf_IF_93d2b40&#45;&gt;COMMENT_93b6100+1</title>
<path fill="none" stroke="black" d="M414.91,-184.68C412.76,-183.71 372.38,-165.47 338.29,-150.08"/>
<polygon fill="black" stroke="black" points="339.44,-146.75 328.88,-145.83 336.56,-153.13 339.44,-146.75"/>
</g>
<!-- COMMENT_93ba4e0+1 -->
<g id="node23" class="node">
<title>COMMENT_93ba4e0+1</title>
<polygon fill="none" stroke="black" points="686.5,-145.72 435.5,-145.72 435.5,-109.72 692.5,-109.72 692.5,-139.72 686.5,-145.72"/>
<polyline fill="none" stroke="black" points="686.5,-145.72 686.5,-139.72 "/>
<polyline fill="none" stroke="black" points="692.5,-139.72 686.5,-139.72 "/>
<text text-anchor="middle" x="564" y="-124.02" font-family="Times,serif" font-size="14.00">Adjust time step size if necessary</text>
</g>
<!-- beginIf_IF_93d2b40&#45;&gt;COMMENT_93ba4e0+1 -->
<g id="edge21" class="edge">
<title>beginIf_IF_93d2b40&#45;&gt;COMMENT_93ba4e0+1</title>
<path fill="none" stroke="black" d="M415.11,-184.68C417.73,-183.69 467.68,-164.92 509,-149.39"/>
<polygon fill="black" stroke="black" points="510.35,-152.62 518.48,-145.83 507.89,-146.07 510.35,-152.62"/>
</g>
<!-- endIf_IF_93d2b40 -->
<g id="node21" class="node">
<title>endIf_IF_93d2b40</title>
<ellipse fill="black" stroke="black" cx="427" cy="-73.36" rx="0.36" ry="0.36"/>
</g>
<!-- end_SUBPROGRAM_93d20c0 -->
<g id="node24" class="node">
<title>end_SUBPROGRAM_93d20c0</title>
<ellipse fill="black" stroke="black" cx="427" cy="-30" rx="7" ry="7"/>
</g>
<!-- endIf_IF_93d2b40&#45;&gt;end_SUBPROGRAM_93d20c0 -->
<g id="edge24" class="edge">
<title>endIf_IF_93d2b40&#45;&gt;end_SUBPROGRAM_93d20c0</title>
<path fill="none" stroke="black" d="M427,-72.24C427,-70.89 427,-58.27 427,-47.34"/>
<polygon fill="black" stroke="black" points="430.5,-47.1 427,-37.1 423.5,-47.1 430.5,-47.1"/>
</g>
<!-- COMMENT_93b6100+1&#45;&gt;endIf_IF_93d2b40 -->
<g id="edge20" class="edge">
<title>COMMENT_93b6100+1&#45;&gt;endIf_IF_93d2b40</title>
<path fill="none" stroke="black" d="M334.78,-109.66C373.29,-94.65 423.73,-74.99 426.85,-73.78"/>
</g>
<!-- COMMENT_93ba4e0+1&#45;&gt;endIf_IF_93d2b40 -->
<g id="edge22" class="edge">
<title>COMMENT_93ba4e0+1&#45;&gt;endIf_IF_93d2b40</title>
<path fill="none" stroke="black" d="M519.9,-109.66C481.1,-94.65 430.29,-74.99 427.15,-73.78"/>
</g>
</g>
</svg>
