<?xml version="1.0" encoding="UTF-8" standalone="no"?>
<!DOCTYPE svg PUBLIC "-//W3C//DTD SVG 1.1//EN"
 "http://www.w3.org/Graphics/SVG/1.1/DTD/svg11.dtd">
<!-- Generated by graphviz version 2.43.0 (0)
 -->
<!-- Title: CHECK_STABILITY Pages: 1 -->
<svg width="838pt" height="1148pt"
 viewBox="0.00 0.00 838.00 1148.04" xmlns="http://www.w3.org/2000/svg" xmlns:xlink="http://www.w3.org/1999/xlink">
<g id="graph0" class="graph" transform="scale(1 1) rotate(0) translate(4 1144.04)">
<title>CHECK_STABILITY</title>
<polygon fill="white" stroke="transparent" points="-4,4 -4,-1144.04 834,-1144.04 834,4 -4,4"/>
<text text-anchor="middle" x="415" y="-7.8" font-family="Times,serif" font-size="14.00">CHECK_STABILITY</text>
<g id="clust1" class="cluster">
<title>cluster_omp_OMP_BEGIN_REGION_9c2b200+2</title>
<polygon fill="none" stroke="red" points="282,-815.32 282,-927.04 584,-927.04 584,-815.32 282,-815.32"/>
<text text-anchor="middle" x="433" y="-911.84" font-family="Times,serif" font-size="14.00">omp_OMP_BEGIN_REGION_9c2b200+2</text>
</g>
<g id="clust2" class="cluster">
<title>cluster_HEAT_TRANSFER_IF</title>
<polygon fill="none" stroke="blue" points="332,-655.88 332,-807.32 499,-807.32 499,-655.88 332,-655.88"/>
<text text-anchor="middle" x="415.5" y="-792.12" font-family="Times,serif" font-size="14.00">HEAT_TRANSFER_IF</text>
</g>
<g id="clust3" class="cluster">
<title>cluster_cond9c55b20</title>
<polygon fill="none" stroke="black" points="354,-692.6 354,-767.6 476,-767.6 476,-692.6 354,-692.6"/>
<text text-anchor="middle" x="410" y="-752.4" font-family="Times,serif" font-size="14.00">cond9c55b20</text>
</g>
<g id="clust4" class="cluster">
<title>cluster_PARABOLIC_IF</title>
<polygon fill="none" stroke="blue" points="351,-360.44 351,-511.88 479,-511.88 479,-360.44 351,-360.44"/>
<text text-anchor="middle" x="412.5" y="-496.68" font-family="Times,serif" font-size="14.00">PARABOLIC_IF</text>
</g>
<g id="clust5" class="cluster">
<title>cluster_cond9c68b20</title>
<polygon fill="none" stroke="black" points="359,-397.16 359,-472.16 471,-472.16 471,-397.16 359,-397.16"/>
<text text-anchor="middle" x="415" y="-456.96" font-family="Times,serif" font-size="14.00">cond9c68b20</text>
</g>
<g id="clust6" class="cluster">
<title>cluster_RAMP_TIME_IF</title>
<polygon fill="none" stroke="blue" points="155,-65 155,-216.44 709,-216.44 709,-65 155,-65"/>
<text text-anchor="middle" x="219" y="-201.24" font-family="Times,serif" font-size="14.00">RAMP_TIME_IF</text>
</g>
<g id="clust7" class="cluster">
<title>cluster_cond9c71640</title>
<polygon fill="none" stroke="black" points="163,-101.72 163,-176.72 419,-176.72 419,-101.72 163,-101.72"/>
<text text-anchor="middle" x="219" y="-161.52" font-family="Times,serif" font-size="14.00">cond9c71640</text>
</g>
<g id="clust8" class="cluster">
<title>cluster_cond9c8cc40</title>
<polygon fill="none" stroke="black" points="427,-101.72 427,-176.72 701,-176.72 701,-101.72 427,-101.72"/>
<text text-anchor="middle" x="481.5" y="-161.52" font-family="Times,serif" font-size="14.00">cond9c8cc40</text>
</g>
<!-- start_SUBPROGRAM_9c8dba0 -->
<g id="node1" class="node">
<title>start_SUBPROGRAM_9c8dba0</title>
<ellipse fill="none" stroke="black" cx="415" cy="-1133.04" rx="7" ry="7"/>
</g>
<!-- COMMENT_9c24f40+1 -->
<g id="node2" class="node">
<title>COMMENT_9c24f40+1</title>
<polygon fill="none" stroke="black" points="824,-1090.04 0,-1090.04 0,-1007.04 830,-1007.04 830,-1084.04 824,-1090.04"/>
<polyline fill="none" stroke="black" points="824,-1090.04 824,-1084.04 "/>
<polyline fill="none" stroke="black" points="830,-1084.04 824,-1084.04 "/>
<text text-anchor="middle" x="415" y="-1074.84" font-family="Times,serif" font-size="14.00">!&gt; brief Check the Courant and Von Neumann stability criteria, and if necessary, reduce or increase the time step</text>
<text text-anchor="middle" x="415" y="-1059.84" font-family="Times,serif" font-size="14.00">!&gt; param DT Time step (s)</text>
<text text-anchor="middle" x="415" y="-1044.84" font-family="Times,serif" font-size="14.00">!&gt; param DT_NEW New time step (s)</text>
<text text-anchor="middle" x="415" y="-1029.84" font-family="Times,serif" font-size="14.00">!&gt; param T Current time (s)</text>
<text text-anchor="middle" x="415" y="-1014.84" font-family="Times,serif" font-size="14.00">!&gt; param NM Mesh number</text>
</g>
<!-- start_SUBPROGRAM_9c8dba0&#45;&gt;COMMENT_9c24f40+1 -->
<g id="edge1" class="edge">
<title>start_SUBPROGRAM_9c8dba0&#45;&gt;COMMENT_9c24f40+1</title>
<path fill="none" stroke="black" d="M415,-1125.84C415,-1119.93 415,-1110.43 415,-1100.11"/>
<polygon fill="black" stroke="black" points="418.5,-1100.05 415,-1090.05 411.5,-1100.05 418.5,-1100.05"/>
</g>
<!-- COMMENT_9c2b200+1 -->
<g id="node3" class="node">
<title>COMMENT_9c2b200+1</title>
<polygon fill="none" stroke="black" points="584.5,-971.04 239.5,-971.04 239.5,-935.04 590.5,-935.04 590.5,-965.04 584.5,-971.04"/>
<polyline fill="none" stroke="black" points="584.5,-971.04 584.5,-965.04 "/>
<polyline fill="none" stroke="black" points="590.5,-965.04 584.5,-965.04 "/>
<text text-anchor="middle" x="415" y="-949.34" font-family="Times,serif" font-size="14.00">Determine max CFL number from all grid cells</text>
</g>
<!-- COMMENT_9c24f40+1&#45;&gt;COMMENT_9c2b200+1 -->
<g id="edge2" class="edge">
<title>COMMENT_9c24f40+1&#45;&gt;COMMENT_9c2b200+1</title>
<path fill="none" stroke="black" d="M415,-1006.8C415,-998.28 415,-989.48 415,-981.57"/>
<polygon fill="black" stroke="black" points="418.5,-981.45 415,-971.45 411.5,-981.45 418.5,-981.45"/>
</g>
<!-- start_omp_OMP_BEGIN_REGION_9c2b200+2 -->
<g id="node4" class="node">
<title>start_omp_OMP_BEGIN_REGION_9c2b200+2</title>
<ellipse fill="black" stroke="black" cx="415" cy="-895.68" rx="0.36" ry="0.36"/>
</g>
<!-- COMMENT_9c2b200+1&#45;&gt;start_omp_OMP_BEGIN_REGION_9c2b200+2 -->
<g id="edge3" class="edge">
<title>COMMENT_9c2b200+1&#45;&gt;start_omp_OMP_BEGIN_REGION_9c2b200+2</title>
<path fill="none" stroke="black" d="M415,-934.83C415,-919.08 415,-898.04 415,-896.74"/>
</g>
<!-- OMP_DO_9c4a840 -->
<g id="node5" class="node">
<title>OMP_DO_9c4a840</title>
<polygon fill="#ffd0d0" stroke="orange" points="538,-859.32 292,-859.32 292,-823.32 538,-823.32 538,-859.32"/>
<text text-anchor="middle" x="415" y="-837.62" font-family="Times,serif" font-size="14.00">!$OMP DO SCHEDULE(STATIC)</text>
</g>
<!-- start_omp_OMP_BEGIN_REGION_9c2b200+2&#45;&gt;OMP_DO_9c4a840 -->
<g id="edge4" class="edge">
<title>start_omp_OMP_BEGIN_REGION_9c2b200+2&#45;&gt;OMP_DO_9c4a840</title>
<path fill="none" stroke="black" d="M415,-895.17C415,-893.69 415,-881.64 415,-869.42"/>
<polygon fill="black" stroke="black" points="418.5,-869.34 415,-859.34 411.5,-869.34 418.5,-869.34"/>
</g>
<!-- beginIf_IF_9c55c40 -->
<g id="node6" class="node">
<title>beginIf_IF_9c55c40</title>
<ellipse fill="black" stroke="black" cx="415" cy="-775.96" rx="0.36" ry="0.36"/>
</g>
<!-- OMP_DO_9c4a840&#45;&gt;beginIf_IF_9c55c40 -->
<g id="edge7" class="edge">
<title>OMP_DO_9c4a840&#45;&gt;beginIf_IF_9c55c40</title>
<path fill="none" stroke="black" d="M415,-823.01C415,-804.83 415,-778.66 415,-777.04"/>
</g>
<!-- DO_9c55a60 -->
<g id="node8" class="node">
<title>DO_9c55a60</title>
<polygon fill="none" stroke="orange" points="468,-736.6 362,-736.6 362,-700.6 468,-700.6 468,-736.6"/>
<text text-anchor="middle" x="415" y="-714.9" font-family="Times,serif" font-size="14.00">WALL_LOOP</text>
</g>
<!-- beginIf_IF_9c55c40&#45;&gt;DO_9c55a60 -->
<g id="edge5" class="edge">
<title>beginIf_IF_9c55c40&#45;&gt;DO_9c55a60</title>
<path fill="none" stroke="black" d="M415,-775.44C415,-773.81 415,-760.12 415,-746.7"/>
<polygon fill="black" stroke="black" points="418.5,-746.7 415,-736.7 411.5,-746.7 418.5,-746.7"/>
</g>
<!-- endIf_IF_9c55c40 -->
<g id="node7" class="node">
<title>endIf_IF_9c55c40</title>
<ellipse fill="black" stroke="black" cx="415" cy="-664.24" rx="0.36" ry="0.36"/>
</g>
<!-- COMMENT_9c559e0+1 -->
<g id="node9" class="node">
<title>COMMENT_9c559e0+1</title>
<polygon fill="none" stroke="black" points="491,-627.88 333,-627.88 333,-591.88 497,-591.88 497,-621.88 491,-627.88"/>
<polyline fill="none" stroke="black" points="491,-627.88 491,-621.88 "/>
<polyline fill="none" stroke="black" points="497,-621.88 491,-621.88 "/>
<text text-anchor="middle" x="415" y="-606.18" font-family="Times,serif" font-size="14.00">CFL = DT*UVWMAX</text>
</g>
<!-- endIf_IF_9c55c40&#45;&gt;COMMENT_9c559e0+1 -->
<g id="edge8" class="edge">
<title>endIf_IF_9c55c40&#45;&gt;COMMENT_9c559e0+1</title>
<path fill="none" stroke="black" d="M415,-663.09C415,-661.65 415,-650.11 415,-638.24"/>
<polygon fill="black" stroke="black" points="418.5,-637.98 415,-627.98 411.5,-637.98 418.5,-637.98"/>
</g>
<!-- DO_9c55a60&#45;&gt;endIf_IF_9c55c40 -->
<g id="edge6" class="edge">
<title>DO_9c55a60&#45;&gt;endIf_IF_9c55c40</title>
<path fill="none" stroke="black" d="M415,-700.54C415,-685.53 415,-665.87 415,-664.66"/>
</g>
<!-- COMMENT_9c564a0+1 -->
<g id="node10" class="node">
<title>COMMENT_9c564a0+1</title>
<polygon fill="none" stroke="black" points="620.5,-555.88 203.5,-555.88 203.5,-519.88 626.5,-519.88 626.5,-549.88 620.5,-555.88"/>
<polyline fill="none" stroke="black" points="620.5,-555.88 620.5,-549.88 "/>
<polyline fill="none" stroke="black" points="626.5,-549.88 620.5,-549.88 "/>
<text text-anchor="middle" x="415" y="-534.18" font-family="Times,serif" font-size="14.00">Determine max Von Neumann Number for fine grid calcs</text>
</g>
<!-- COMMENT_9c559e0+1&#45;&gt;COMMENT_9c564a0+1 -->
<g id="edge9" class="edge">
<title>COMMENT_9c559e0+1&#45;&gt;COMMENT_9c564a0+1</title>
<path fill="none" stroke="black" d="M415,-591.58C415,-583.86 415,-574.59 415,-565.99"/>
<polygon fill="black" stroke="black" points="418.5,-565.98 415,-555.98 411.5,-565.98 418.5,-565.98"/>
</g>
<!-- beginIf_IF_9c68c00 -->
<g id="node11" class="node">
<title>beginIf_IF_9c68c00</title>
<ellipse fill="black" stroke="black" cx="415" cy="-480.52" rx="0.36" ry="0.36"/>
</g>
<!-- COMMENT_9c564a0+1&#45;&gt;beginIf_IF_9c68c00 -->
<g id="edge12" class="edge">
<title>COMMENT_9c564a0+1&#45;&gt;beginIf_IF_9c68c00</title>
<path fill="none" stroke="black" d="M415,-519.67C415,-503.92 415,-482.88 415,-481.58"/>
</g>
<!-- DO_9c5a740 -->
<g id="node13" class="node">
<title>DO_9c5a740</title>
<polygon fill="none" stroke="orange" points="450,-441.16 380,-441.16 380,-405.16 450,-405.16 450,-441.16"/>
<text text-anchor="middle" x="415" y="-419.46" font-family="Times,serif" font-size="14.00">I_LOOP</text>
</g>
<!-- beginIf_IF_9c68c00&#45;&gt;DO_9c5a740 -->
<g id="edge10" class="edge">
<title>beginIf_IF_9c68c00&#45;&gt;DO_9c5a740</title>
<path fill="none" stroke="black" d="M415,-480C415,-478.37 415,-464.68 415,-451.26"/>
<polygon fill="black" stroke="black" points="418.5,-451.26 415,-441.26 411.5,-451.26 418.5,-451.26"/>
</g>
<!-- endIf_IF_9c68c00 -->
<g id="node12" class="node">
<title>endIf_IF_9c68c00</title>
<ellipse fill="black" stroke="black" cx="415" cy="-368.8" rx="0.36" ry="0.36"/>
</g>
<!-- CALL_9c6b2e0 -->
<g id="node14" class="node">
<title>CALL_9c6b2e0</title>
<g id="a_node14"><a xlink:href="CHECK_CFLVN_LINKED_CELLS.svg" xlink:title="CHECK_CFLVN_LINKED_CELLS">
<polygon fill="lightgray" stroke="black" points="539,-332.44 291,-332.44 291,-328.44 287,-328.44 287,-324.44 291,-324.44 291,-304.44 287,-304.44 287,-300.44 291,-300.44 291,-296.44 539,-296.44 539,-332.44"/>
<polyline fill="none" stroke="black" points="291,-328.44 295,-328.44 295,-324.44 291,-324.44 "/>
<polyline fill="none" stroke="black" points="291,-304.44 295,-304.44 295,-300.44 291,-300.44 "/>
<text text-anchor="middle" x="415" y="-310.74" font-family="Times,serif" font-size="14.00">CHECK_CFLVN_LINKED_CELLS</text>
</a>
</g>
</g>
<!-- endIf_IF_9c68c00&#45;&gt;CALL_9c6b2e0 -->
<g id="edge13" class="edge">
<title>endIf_IF_9c68c00&#45;&gt;CALL_9c6b2e0</title>
<path fill="none" stroke="black" d="M415,-367.65C415,-366.21 415,-354.67 415,-342.8"/>
<polygon fill="black" stroke="black" points="418.5,-342.54 415,-332.54 411.5,-342.54 418.5,-342.54"/>
</g>
<!-- DO_9c5a740&#45;&gt;endIf_IF_9c68c00 -->
<g id="edge11" class="edge">
<title>DO_9c5a740&#45;&gt;endIf_IF_9c68c00</title>
<path fill="none" stroke="black" d="M415,-405.1C415,-390.09 415,-370.43 415,-369.22"/>
</g>
<!-- COMMENT_9c6b5e0+1 -->
<g id="node15" class="node">
<title>COMMENT_9c6b5e0+1</title>
<polygon fill="none" stroke="black" points="564,-260.44 260,-260.44 260,-224.44 570,-224.44 570,-254.44 564,-260.44"/>
<polyline fill="none" stroke="black" points="564,-260.44 564,-254.44 "/>
<polyline fill="none" stroke="black" points="570,-254.44 564,-254.44 "/>
<text text-anchor="middle" x="415" y="-238.74" font-family="Times,serif" font-size="14.00">Attempt DT restriction to avoid clippings</text>
</g>
<!-- CALL_9c6b2e0&#45;&gt;COMMENT_9c6b5e0+1 -->
<g id="edge14" class="edge">
<title>CALL_9c6b2e0&#45;&gt;COMMENT_9c6b5e0+1</title>
<path fill="none" stroke="black" d="M415,-296.14C415,-288.42 415,-279.15 415,-270.55"/>
<polygon fill="black" stroke="black" points="418.5,-270.54 415,-260.54 411.5,-270.54 418.5,-270.54"/>
</g>
<!-- beginIf_IF_9c8cd00 -->
<g id="node16" class="node">
<title>beginIf_IF_9c8cd00</title>
<ellipse fill="black" stroke="black" cx="415" cy="-185.08" rx="0.36" ry="0.36"/>
</g>
<!-- COMMENT_9c6b5e0+1&#45;&gt;beginIf_IF_9c8cd00 -->
<g id="edge19" class="edge">
<title>COMMENT_9c6b5e0+1&#45;&gt;beginIf_IF_9c8cd00</title>
<path fill="none" stroke="black" d="M415,-224.23C415,-208.48 415,-187.44 415,-186.14"/>
</g>
<!-- COMMENT_9c74220+1 -->
<g id="node18" class="node">
<title>COMMENT_9c74220+1</title>
<polygon fill="none" stroke="black" points="405,-145.72 171,-145.72 171,-109.72 411,-109.72 411,-139.72 405,-145.72"/>
<polyline fill="none" stroke="black" points="405,-145.72 405,-139.72 "/>
<polyline fill="none" stroke="black" points="411,-139.72 405,-139.72 "/>
<text text-anchor="middle" x="291" y="-124.02" font-family="Times,serif" font-size="14.00">User&#45;specified time increments</text>
</g>
<!-- beginIf_IF_9c8cd00&#45;&gt;COMMENT_9c74220+1 -->
<g id="edge15" class="edge">
<title>beginIf_IF_9c8cd00&#45;&gt;COMMENT_9c74220+1</title>
<path fill="none" stroke="black" d="M414.91,-184.68C412.76,-183.71 372.38,-165.47 338.29,-150.08"/>
<polygon fill="black" stroke="black" points="339.44,-146.75 328.88,-145.83 336.56,-153.13 339.44,-146.75"/>
</g>
<!-- COMMENT_9c7b020+1 -->
<g id="node19" class="node">
<title>COMMENT_9c7b020+1</title>
<polygon fill="none" stroke="black" points="686.5,-145.72 435.5,-145.72 435.5,-109.72 692.5,-109.72 692.5,-139.72 686.5,-145.72"/>
<polyline fill="none" stroke="black" points="686.5,-145.72 686.5,-139.72 "/>
<polyline fill="none" stroke="black" points="692.5,-139.72 686.5,-139.72 "/>
<text text-anchor="middle" x="564" y="-124.02" font-family="Times,serif" font-size="14.00">Adjust time step size if necessary</text>
</g>
<!-- beginIf_IF_9c8cd00&#45;&gt;COMMENT_9c7b020+1 -->
<g id="edge17" class="edge">
<title>beginIf_IF_9c8cd00&#45;&gt;COMMENT_9c7b020+1</title>
<path fill="none" stroke="black" d="M415.11,-184.68C417.73,-183.69 467.68,-164.92 509,-149.39"/>
<polygon fill="black" stroke="black" points="510.35,-152.62 518.48,-145.83 507.89,-146.07 510.35,-152.62"/>
</g>
<!-- endIf_IF_9c8cd00 -->
<g id="node17" class="node">
<title>endIf_IF_9c8cd00</title>
<ellipse fill="black" stroke="black" cx="427" cy="-73.36" rx="0.36" ry="0.36"/>
</g>
<!-- end_SUBPROGRAM_9c8dba0 -->
<g id="node20" class="node">
<title>end_SUBPROGRAM_9c8dba0</title>
<ellipse fill="black" stroke="black" cx="427" cy="-30" rx="7" ry="7"/>
</g>
<!-- endIf_IF_9c8cd00&#45;&gt;end_SUBPROGRAM_9c8dba0 -->
<g id="edge20" class="edge">
<title>endIf_IF_9c8cd00&#45;&gt;end_SUBPROGRAM_9c8dba0</title>
<path fill="none" stroke="black" d="M427,-72.24C427,-70.89 427,-58.27 427,-47.34"/>
<polygon fill="black" stroke="black" points="430.5,-47.1 427,-37.1 423.5,-47.1 430.5,-47.1"/>
</g>
<!-- COMMENT_9c74220+1&#45;&gt;endIf_IF_9c8cd00 -->
<g id="edge16" class="edge">
<title>COMMENT_9c74220+1&#45;&gt;endIf_IF_9c8cd00</title>
<path fill="none" stroke="black" d="M334.78,-109.66C373.29,-94.65 423.73,-74.99 426.85,-73.78"/>
</g>
<!-- COMMENT_9c7b020+1&#45;&gt;endIf_IF_9c8cd00 -->
<g id="edge18" class="edge">
<title>COMMENT_9c7b020+1&#45;&gt;endIf_IF_9c8cd00</title>
<path fill="none" stroke="black" d="M519.9,-109.66C481.1,-94.65 430.29,-74.99 427.15,-73.78"/>
</g>
</g>
</svg>
