<?xml version="1.0" encoding="UTF-8" standalone="no"?>
<!DOCTYPE svg PUBLIC "-//W3C//DTD SVG 1.1//EN"
 "http://www.w3.org/Graphics/SVG/1.1/DTD/svg11.dtd">
<!-- Generated by graphviz version 2.43.0 (0)
 -->
<!-- Title: CHECK_STABILITY Pages: 1 -->
<svg width="838pt" height="1393pt"
 viewBox="0.00 0.00 838.00 1392.60" xmlns="http://www.w3.org/2000/svg" xmlns:xlink="http://www.w3.org/1999/xlink">
<g id="graph0" class="graph" transform="scale(1 1) rotate(0) translate(4 1388.6)">
<title>CHECK_STABILITY</title>
<polygon fill="white" stroke="transparent" points="-4,4 -4,-1388.6 834,-1388.6 834,4 -4,4"/>
<text text-anchor="middle" x="415" y="-7.8" font-family="Times,serif" font-size="14.00">CHECK_STABILITY</text>
<g id="clust1" class="cluster">
<title>cluster_omp_OMP_BEGIN_REGION_915c320+2</title>
<polygon fill="none" stroke="red" points="165,-31 165,-1171.6 735,-1171.6 735,-31 165,-31"/>
<text text-anchor="middle" x="316" y="-1156.4" font-family="Times,serif" font-size="14.00">omp_OMP_BEGIN_REGION_915c320+2</text>
</g>
<g id="clust2" class="cluster">
<title>cluster_HEAT_TRANSFER_IF</title>
<polygon fill="none" stroke="blue" points="332,-760.44 332,-911.88 499,-911.88 499,-760.44 332,-760.44"/>
<text text-anchor="middle" x="415.5" y="-896.68" font-family="Times,serif" font-size="14.00">HEAT_TRANSFER_IF</text>
</g>
<g id="clust3" class="cluster">
<title>cluster_cond9188300</title>
<polygon fill="none" stroke="black" points="354,-797.16 354,-872.16 476,-872.16 476,-797.16 354,-797.16"/>
<text text-anchor="middle" x="410.5" y="-856.96" font-family="Times,serif" font-size="14.00">cond9188300</text>
</g>
<g id="clust4" class="cluster">
<title>cluster_PARABOLIC_IF</title>
<polygon fill="none" stroke="blue" points="374,-376.44 374,-616.44 549,-616.44 549,-376.44 374,-376.44"/>
<text text-anchor="middle" x="435.5" y="-601.24" font-family="Times,serif" font-size="14.00">PARABOLIC_IF</text>
</g>
<g id="clust5" class="cluster">
<title>cluster_cond919b180</title>
<polygon fill="none" stroke="black" points="423,-432.44 423,-585.44 541,-585.44 541,-432.44 423,-432.44"/>
<text text-anchor="middle" x="479.5" y="-570.24" font-family="Times,serif" font-size="14.00">cond919b180</text>
</g>
<g id="clust6" class="cluster">
<title>cluster_K</title>
<polygon fill="none" stroke="orange" points="431,-440.44 431,-554.44 533,-554.44 533,-440.44 431,-440.44"/>
<text text-anchor="middle" x="444.5" y="-539.24" font-family="Times,serif" font-size="14.00">K</text>
</g>
<g id="clust7" class="cluster">
<title>cluster_J</title>
<polygon fill="none" stroke="orange" points="439,-448.44 439,-523.44 525,-523.44 525,-448.44 439,-448.44"/>
<text text-anchor="middle" x="450" y="-508.24" font-family="Times,serif" font-size="14.00">J</text>
</g>
<g id="clust8" class="cluster">
<title>cluster_RAMP_TIME_IF</title>
<polygon fill="none" stroke="blue" points="173,-81 173,-232.44 727,-232.44 727,-81 173,-81"/>
<text text-anchor="middle" x="237" y="-217.24" font-family="Times,serif" font-size="14.00">RAMP_TIME_IF</text>
</g>
<g id="clust9" class="cluster">
<title>cluster_cond91ac800</title>
<polygon fill="none" stroke="black" points="181,-117.72 181,-192.72 437,-192.72 437,-117.72 181,-117.72"/>
<text text-anchor="middle" x="236.5" y="-177.52" font-family="Times,serif" font-size="14.00">cond91ac800</text>
</g>
<g id="clust10" class="cluster">
<title>cluster_cond91c0c60</title>
<polygon fill="none" stroke="black" points="445,-117.72 445,-192.72 719,-192.72 719,-117.72 445,-117.72"/>
<text text-anchor="middle" x="500" y="-177.52" font-family="Times,serif" font-size="14.00">cond91c0c60</text>
</g>
<!-- start_SUBPROGRAM_91c1aa0 -->
<g id="node1" class="node">
<title>start_SUBPROGRAM_91c1aa0</title>
<ellipse fill="none" stroke="black" cx="415" cy="-1377.6" rx="7" ry="7"/>
</g>
<!-- COMMENT_9157380+1 -->
<g id="node2" class="node">
<title>COMMENT_9157380+1</title>
<polygon fill="none" stroke="black" points="824,-1334.6 0,-1334.6 0,-1251.6 830,-1251.6 830,-1328.6 824,-1334.6"/>
<polyline fill="none" stroke="black" points="824,-1334.6 824,-1328.6 "/>
<polyline fill="none" stroke="black" points="830,-1328.6 824,-1328.6 "/>
<text text-anchor="middle" x="415" y="-1319.4" font-family="Times,serif" font-size="14.00">!&gt; brief Check the Courant and Von Neumann stability criteria, and if necessary, reduce or increase the time step</text>
<text text-anchor="middle" x="415" y="-1304.4" font-family="Times,serif" font-size="14.00">!&gt; param DT Time step (s)</text>
<text text-anchor="middle" x="415" y="-1289.4" font-family="Times,serif" font-size="14.00">!&gt; param DT_NEW New time step (s)</text>
<text text-anchor="middle" x="415" y="-1274.4" font-family="Times,serif" font-size="14.00">!&gt; param T Current time (s)</text>
<text text-anchor="middle" x="415" y="-1259.4" font-family="Times,serif" font-size="14.00">!&gt; param NM Mesh number</text>
</g>
<!-- start_SUBPROGRAM_91c1aa0&#45;&gt;COMMENT_9157380+1 -->
<g id="edge1" class="edge">
<title>start_SUBPROGRAM_91c1aa0&#45;&gt;COMMENT_9157380+1</title>
<path fill="none" stroke="black" d="M415,-1370.4C415,-1364.49 415,-1354.99 415,-1344.67"/>
<polygon fill="black" stroke="black" points="418.5,-1344.61 415,-1334.61 411.5,-1344.61 418.5,-1344.61"/>
</g>
<!-- COMMENT_915c320+1 -->
<g id="node3" class="node">
<title>COMMENT_915c320+1</title>
<polygon fill="none" stroke="black" points="584.5,-1215.6 239.5,-1215.6 239.5,-1179.6 590.5,-1179.6 590.5,-1209.6 584.5,-1215.6"/>
<polyline fill="none" stroke="black" points="584.5,-1215.6 584.5,-1209.6 "/>
<polyline fill="none" stroke="black" points="590.5,-1209.6 584.5,-1209.6 "/>
<text text-anchor="middle" x="415" y="-1193.9" font-family="Times,serif" font-size="14.00">Determine max CFL number from all grid cells</text>
</g>
<!-- COMMENT_9157380+1&#45;&gt;COMMENT_915c320+1 -->
<g id="edge2" class="edge">
<title>COMMENT_9157380+1&#45;&gt;COMMENT_915c320+1</title>
<path fill="none" stroke="black" d="M415,-1251.36C415,-1242.84 415,-1234.04 415,-1226.13"/>
<polygon fill="black" stroke="black" points="418.5,-1226.01 415,-1216.01 411.5,-1226.01 418.5,-1226.01"/>
</g>
<!-- start_omp_OMP_BEGIN_REGION_915c320+2 -->
<g id="node4" class="node">
<title>start_omp_OMP_BEGIN_REGION_915c320+2</title>
<ellipse fill="black" stroke="black" cx="415" cy="-1140.24" rx="0.36" ry="0.36"/>
</g>
<!-- COMMENT_915c320+1&#45;&gt;start_omp_OMP_BEGIN_REGION_915c320+2 -->
<g id="edge3" class="edge">
<title>COMMENT_915c320+1&#45;&gt;start_omp_OMP_BEGIN_REGION_915c320+2</title>
<path fill="none" stroke="black" d="M415,-1179.39C415,-1163.64 415,-1142.6 415,-1141.3"/>
</g>
<!-- COMMENT_9161240+1 -->
<g id="node5" class="node">
<title>COMMENT_9161240+1</title>
<polygon fill="none" stroke="black" points="532,-1103.88 292,-1103.88 292,-1067.88 538,-1067.88 538,-1097.88 532,-1103.88"/>
<polyline fill="none" stroke="black" points="532,-1103.88 532,-1097.88 "/>
<polyline fill="none" stroke="black" points="538,-1097.88 532,-1097.88 "/>
<text text-anchor="middle" x="415" y="-1082.18" font-family="Times,serif" font-size="14.00">!$OMP DO SCHEDULE(STATIC)</text>
</g>
<!-- start_omp_OMP_BEGIN_REGION_915c320+2&#45;&gt;COMMENT_9161240+1 -->
<g id="edge4" class="edge">
<title>start_omp_OMP_BEGIN_REGION_915c320+2&#45;&gt;COMMENT_9161240+1</title>
<path fill="none" stroke="black" d="M415,-1139.73C415,-1138.25 415,-1126.2 415,-1113.98"/>
<polygon fill="black" stroke="black" points="418.5,-1113.9 415,-1103.9 411.5,-1113.9 418.5,-1113.9"/>
</g>
<!-- COMMENT_916e6a0+1 -->
<g id="node6" class="node">
<title>COMMENT_916e6a0+1</title>
<polygon fill="none" stroke="black" points="479.5,-1031.88 344.5,-1031.88 344.5,-993.88 485.5,-993.88 485.5,-1025.88 479.5,-1031.88"/>
<polyline fill="none" stroke="black" points="479.5,-1031.88 479.5,-1025.88 "/>
<polyline fill="none" stroke="black" points="485.5,-1025.88 479.5,-1025.88 "/>
<text text-anchor="middle" x="415" y="-1016.68" font-family="Times,serif" font-size="14.00">!$OMP END DO</text>
<text text-anchor="middle" x="415" y="-1001.68" font-family="Times,serif" font-size="14.00">!$OMP CRITICAL</text>
</g>
<!-- COMMENT_9161240+1&#45;&gt;COMMENT_916e6a0+1 -->
<g id="edge5" class="edge">
<title>COMMENT_9161240+1&#45;&gt;COMMENT_916e6a0+1</title>
<path fill="none" stroke="black" d="M415,-1067.69C415,-1059.99 415,-1050.7 415,-1042.03"/>
<polygon fill="black" stroke="black" points="418.5,-1041.9 415,-1031.9 411.5,-1041.9 418.5,-1041.9"/>
</g>
<!-- COMMENT_9167de0+1 -->
<g id="node7" class="node">
<title>COMMENT_9167de0+1</title>
<polygon fill="none" stroke="black" points="501.5,-957.88 322.5,-957.88 322.5,-919.88 507.5,-919.88 507.5,-951.88 501.5,-957.88"/>
<polyline fill="none" stroke="black" points="501.5,-957.88 501.5,-951.88 "/>
<polyline fill="none" stroke="black" points="507.5,-951.88 501.5,-951.88 "/>
<text text-anchor="middle" x="415" y="-942.68" font-family="Times,serif" font-size="14.00">!$OMP END CRITICAL</text>
<text text-anchor="middle" x="415" y="-927.68" font-family="Times,serif" font-size="14.00">!$OMP END PARALLEL</text>
</g>
<!-- COMMENT_916e6a0+1&#45;&gt;COMMENT_9167de0+1 -->
<g id="edge6" class="edge">
<title>COMMENT_916e6a0+1&#45;&gt;COMMENT_9167de0+1</title>
<path fill="none" stroke="black" d="M415,-993.71C415,-986.01 415,-976.85 415,-968.3"/>
<polygon fill="black" stroke="black" points="418.5,-968.29 415,-958.29 411.5,-968.29 418.5,-968.29"/>
</g>
<!-- beginIf_IF_9188440 -->
<g id="node8" class="node">
<title>beginIf_IF_9188440</title>
<ellipse fill="black" stroke="black" cx="415" cy="-880.52" rx="0.36" ry="0.36"/>
</g>
<!-- COMMENT_9167de0+1&#45;&gt;beginIf_IF_9188440 -->
<g id="edge9" class="edge">
<title>COMMENT_9167de0+1&#45;&gt;beginIf_IF_9188440</title>
<path fill="none" stroke="black" d="M415,-919.74C415,-903.78 415,-882.87 415,-881.58"/>
</g>
<!-- DO_9179e20 -->
<g id="node10" class="node">
<title>DO_9179e20</title>
<polygon fill="none" stroke="orange" points="468,-841.16 362,-841.16 362,-805.16 468,-805.16 468,-841.16"/>
<text text-anchor="middle" x="415" y="-819.46" font-family="Times,serif" font-size="14.00">WALL_LOOP</text>
</g>
<!-- beginIf_IF_9188440&#45;&gt;DO_9179e20 -->
<g id="edge7" class="edge">
<title>beginIf_IF_9188440&#45;&gt;DO_9179e20</title>
<path fill="none" stroke="black" d="M415,-880C415,-878.37 415,-864.68 415,-851.26"/>
<polygon fill="black" stroke="black" points="418.5,-851.26 415,-841.26 411.5,-851.26 418.5,-851.26"/>
</g>
<!-- endIf_IF_9188440 -->
<g id="node9" class="node">
<title>endIf_IF_9188440</title>
<ellipse fill="black" stroke="black" cx="415" cy="-768.8" rx="0.36" ry="0.36"/>
</g>
<!-- COMMENT_9180f40+1 -->
<g id="node11" class="node">
<title>COMMENT_9180f40+1</title>
<polygon fill="none" stroke="black" points="491,-732.44 333,-732.44 333,-696.44 497,-696.44 497,-726.44 491,-732.44"/>
<polyline fill="none" stroke="black" points="491,-732.44 491,-726.44 "/>
<polyline fill="none" stroke="black" points="497,-726.44 491,-726.44 "/>
<text text-anchor="middle" x="415" y="-710.74" font-family="Times,serif" font-size="14.00">CFL = DT*UVWMAX</text>
</g>
<!-- endIf_IF_9188440&#45;&gt;COMMENT_9180f40+1 -->
<g id="edge10" class="edge">
<title>endIf_IF_9188440&#45;&gt;COMMENT_9180f40+1</title>
<path fill="none" stroke="black" d="M415,-767.65C415,-766.21 415,-754.67 415,-742.8"/>
<polygon fill="black" stroke="black" points="418.5,-742.54 415,-732.54 411.5,-742.54 418.5,-742.54"/>
</g>
<!-- DO_9179e20&#45;&gt;endIf_IF_9188440 -->
<g id="edge8" class="edge">
<title>DO_9179e20&#45;&gt;endIf_IF_9188440</title>
<path fill="none" stroke="black" d="M415,-805.1C415,-790.09 415,-770.43 415,-769.22"/>
</g>
<!-- COMMENT_9188cc0+1 -->
<g id="node12" class="node">
<title>COMMENT_9188cc0+1</title>
<polygon fill="none" stroke="black" points="620.5,-660.44 203.5,-660.44 203.5,-624.44 626.5,-624.44 626.5,-654.44 620.5,-660.44"/>
<polyline fill="none" stroke="black" points="620.5,-660.44 620.5,-654.44 "/>
<polyline fill="none" stroke="black" points="626.5,-654.44 620.5,-654.44 "/>
<text text-anchor="middle" x="415" y="-638.74" font-family="Times,serif" font-size="14.00">Determine max Von Neumann Number for fine grid calcs</text>
</g>
<!-- COMMENT_9180f40+1&#45;&gt;COMMENT_9188cc0+1 -->
<g id="edge11" class="edge">
<title>COMMENT_9180f40+1&#45;&gt;COMMENT_9188cc0+1</title>
<path fill="none" stroke="black" d="M415,-696.14C415,-688.42 415,-679.15 415,-670.55"/>
<polygon fill="black" stroke="black" points="418.5,-670.54 415,-660.54 411.5,-670.54 418.5,-670.54"/>
</g>
<!-- beginIf_IF_919b200 -->
<g id="node13" class="node">
<title>beginIf_IF_919b200</title>
<ellipse fill="black" stroke="black" cx="415" cy="-474.44" rx="0.36" ry="0.36"/>
</g>
<!-- COMMENT_9188cc0+1&#45;&gt;beginIf_IF_919b200 -->
<g id="edge14" class="edge">
<title>COMMENT_9188cc0+1&#45;&gt;beginIf_IF_919b200</title>
<path fill="none" stroke="black" d="M415,-624.3C415,-582.55 415,-478.75 415,-475.52"/>
</g>
<!-- DO_91954a0 -->
<g id="node16" class="node">
<title>DO_91954a0</title>
<ellipse fill="none" stroke="black" cx="452" cy="-402.44" rx="70.39" ry="18"/>
<text text-anchor="middle" x="452" y="-398.74" font-family="Times,serif" font-size="14.00">DO_91954a0</text>
</g>
<!-- beginIf_IF_919b200&#45;&gt;DO_91954a0 -->
<g id="edge12" class="edge">
<title>beginIf_IF_919b200&#45;&gt;DO_91954a0</title>
<path fill="none" stroke="black" d="M415.03,-473.37C415.65,-472 425.72,-449.75 435,-432.44 435.52,-431.46 436.06,-430.47 436.61,-429.47"/>
<polygon fill="black" stroke="black" points="439.82,-430.92 441.71,-420.49 433.73,-427.46 439.82,-430.92"/>
</g>
<!-- endIf_IF_919b200 -->
<g id="node14" class="node">
<title>endIf_IF_919b200</title>
<ellipse fill="black" stroke="black" cx="541" cy="-402.44" rx="0.36" ry="0.36"/>
</g>
<!-- CALL_919d820 -->
<g id="node17" class="node">
<title>CALL_919d820</title>
<g id="a_node17"><a xlink:href="CHECK_CFLVN_LINKED_CELLS.svg" xlink:title="CHECK_CFLVN_LINKED_CELLS">
<polygon fill="lightgray" stroke="black" points="665,-348.44 417,-348.44 417,-344.44 413,-344.44 413,-340.44 417,-340.44 417,-320.44 413,-320.44 413,-316.44 417,-316.44 417,-312.44 665,-312.44 665,-348.44"/>
<polyline fill="none" stroke="black" points="417,-344.44 421,-344.44 421,-340.44 417,-340.44 "/>
<polyline fill="none" stroke="black" points="417,-320.44 421,-320.44 421,-316.44 417,-316.44 "/>
<text text-anchor="middle" x="541" y="-326.74" font-family="Times,serif" font-size="14.00">CHECK_CFLVN_LINKED_CELLS</text>
</a>
</g>
</g>
<!-- endIf_IF_919b200&#45;&gt;CALL_919d820 -->
<g id="edge15" class="edge">
<title>endIf_IF_919b200&#45;&gt;CALL_919d820</title>
<path fill="none" stroke="black" d="M541,-401.39C541,-400.19 541,-377.87 541,-358.76"/>
<polygon fill="black" stroke="black" points="544.5,-358.63 541,-348.63 537.5,-358.63 544.5,-358.63"/>
</g>
<!-- DO_91950e0 -->
<g id="node15" class="node">
<title>DO_91950e0</title>
<polygon fill="none" stroke="orange" points="517,-492.44 447,-492.44 447,-456.44 517,-456.44 517,-492.44"/>
<text text-anchor="middle" x="482" y="-470.74" font-family="Times,serif" font-size="14.00">I_LOOP</text>
</g>
<!-- DO_91950e0&#45;&gt;endIf_IF_919b200 -->
<g id="edge13" class="edge">
<title>DO_91950e0&#45;&gt;endIf_IF_919b200</title>
<path fill="none" stroke="black" d="M499.79,-456.12C509.57,-446.15 521.58,-433.11 531,-420.44 535.9,-413.84 540.4,-404.67 540.95,-403.55"/>
</g>
<!-- COMMENT_919dc60+1 -->
<g id="node18" class="node">
<title>COMMENT_919dc60+1</title>
<polygon fill="none" stroke="black" points="690,-276.44 386,-276.44 386,-240.44 696,-240.44 696,-270.44 690,-276.44"/>
<polyline fill="none" stroke="black" points="690,-276.44 690,-270.44 "/>
<polyline fill="none" stroke="black" points="696,-270.44 690,-270.44 "/>
<text text-anchor="middle" x="541" y="-254.74" font-family="Times,serif" font-size="14.00">Attempt DT restriction to avoid clippings</text>
</g>
<!-- CALL_919d820&#45;&gt;COMMENT_919dc60+1 -->
<g id="edge16" class="edge">
<title>CALL_919d820&#45;&gt;COMMENT_919dc60+1</title>
<path fill="none" stroke="black" d="M541,-312.14C541,-304.42 541,-295.15 541,-286.55"/>
<polygon fill="black" stroke="black" points="544.5,-286.54 541,-276.54 537.5,-286.54 544.5,-286.54"/>
</g>
<!-- beginIf_IF_91c0d00 -->
<g id="node19" class="node">
<title>beginIf_IF_91c0d00</title>
<ellipse fill="black" stroke="black" cx="541" cy="-201.08" rx="0.36" ry="0.36"/>
</g>
<!-- COMMENT_919dc60+1&#45;&gt;beginIf_IF_91c0d00 -->
<g id="edge21" class="edge">
<title>COMMENT_919dc60+1&#45;&gt;beginIf_IF_91c0d00</title>
<path fill="none" stroke="black" d="M541,-240.23C541,-224.48 541,-203.44 541,-202.14"/>
</g>
<!-- COMMENT_91a6640+1 -->
<g id="node21" class="node">
<title>COMMENT_91a6640+1</title>
<polygon fill="none" stroke="black" points="423,-161.72 189,-161.72 189,-125.72 429,-125.72 429,-155.72 423,-161.72"/>
<polyline fill="none" stroke="black" points="423,-161.72 423,-155.72 "/>
<polyline fill="none" stroke="black" points="429,-155.72 423,-155.72 "/>
<text text-anchor="middle" x="309" y="-140.02" font-family="Times,serif" font-size="14.00">User&#45;specified time increments</text>
</g>
<!-- beginIf_IF_91c0d00&#45;&gt;COMMENT_91a6640+1 -->
<g id="edge17" class="edge">
<title>beginIf_IF_91c0d00&#45;&gt;COMMENT_91a6640+1</title>
<path fill="none" stroke="black" d="M540.84,-200.72C537.49,-200.8 483.21,-201.91 441,-192.72 412.39,-186.49 381.58,-175.55 356.93,-165.68"/>
<polygon fill="black" stroke="black" points="358.04,-162.36 347.46,-161.82 355.4,-168.84 358.04,-162.36"/>
</g>
<!-- COMMENT_91ab660+1 -->
<g id="node22" class="node">
<title>COMMENT_91ab660+1</title>
<polygon fill="none" stroke="black" points="704.5,-161.72 453.5,-161.72 453.5,-125.72 710.5,-125.72 710.5,-155.72 704.5,-161.72"/>
<polyline fill="none" stroke="black" points="704.5,-161.72 704.5,-155.72 "/>
<polyline fill="none" stroke="black" points="710.5,-155.72 704.5,-155.72 "/>
<text text-anchor="middle" x="582" y="-140.02" font-family="Times,serif" font-size="14.00">Adjust time step size if necessary</text>
</g>
<!-- beginIf_IF_91c0d00&#45;&gt;COMMENT_91ab660+1 -->
<g id="edge19" class="edge">
<title>beginIf_IF_91c0d00&#45;&gt;COMMENT_91ab660+1</title>
<path fill="none" stroke="black" d="M541.12,-200.56C542.35,-198.87 553.13,-184.15 563.31,-170.24"/>
<polygon fill="black" stroke="black" points="566.4,-171.95 569.48,-161.82 560.75,-167.82 566.4,-171.95"/>
</g>
<!-- endIf_IF_91c0d00 -->
<g id="node20" class="node">
<title>endIf_IF_91c0d00</title>
<ellipse fill="black" stroke="black" cx="445" cy="-89.36" rx="0.36" ry="0.36"/>
</g>
<!-- end_SUBPROGRAM_91c1aa0 -->
<g id="node23" class="node">
<title>end_SUBPROGRAM_91c1aa0</title>
<ellipse fill="black" stroke="black" cx="445" cy="-46" rx="7" ry="7"/>
</g>
<!-- endIf_IF_91c0d00&#45;&gt;end_SUBPROGRAM_91c1aa0 -->
<g id="edge22" class="edge">
<title>endIf_IF_91c0d00&#45;&gt;end_SUBPROGRAM_91c1aa0</title>
<path fill="none" stroke="black" d="M445,-88.24C445,-86.89 445,-74.27 445,-63.34"/>
<polygon fill="black" stroke="black" points="448.5,-63.1 445,-53.1 441.5,-63.1 448.5,-63.1"/>
</g>
<!-- COMMENT_91a6640+1&#45;&gt;endIf_IF_91c0d00 -->
<g id="edge18" class="edge">
<title>COMMENT_91a6640+1&#45;&gt;endIf_IF_91c0d00</title>
<path fill="none" stroke="black" d="M352.78,-125.66C391.29,-110.65 441.73,-90.99 444.85,-89.78"/>
</g>
<!-- COMMENT_91ab660+1&#45;&gt;endIf_IF_91c0d00 -->
<g id="edge20" class="edge">
<title>COMMENT_91ab660+1&#45;&gt;endIf_IF_91c0d00</title>
<path fill="none" stroke="black" d="M537.9,-125.66C499.1,-110.65 448.29,-90.99 445.15,-89.78"/>
</g>
</g>
</svg>
