<?xml version="1.0" encoding="UTF-8" standalone="no"?>
<!DOCTYPE svg PUBLIC "-//W3C//DTD SVG 1.1//EN"
 "http://www.w3.org/Graphics/SVG/1.1/DTD/svg11.dtd">
<!-- Generated by graphviz version 2.43.0 (0)
 -->
<!-- Title: CHECK_STABILITY Pages: 1 -->
<svg width="838pt" height="1545pt"
 viewBox="0.00 0.00 838.00 1544.92" xmlns="http://www.w3.org/2000/svg" xmlns:xlink="http://www.w3.org/1999/xlink">
<g id="graph0" class="graph" transform="scale(1 1) rotate(0) translate(4 1540.92)">
<title>CHECK_STABILITY</title>
<polygon fill="white" stroke="transparent" points="-4,4 -4,-1540.92 834,-1540.92 834,4 -4,4"/>
<text text-anchor="middle" x="415" y="-7.8" font-family="Times,serif" font-size="14.00">CHECK_STABILITY</text>
<g id="clust1" class="cluster">
<title>cluster_omp_OMP_BEGIN_REGION_916d540+2</title>
<polygon fill="none" stroke="red" points="282,-996.2 282,-1323.92 586,-1323.92 586,-996.2 282,-996.2"/>
<text text-anchor="middle" x="434" y="-1308.72" font-family="Times,serif" font-size="14.00">omp_OMP_BEGIN_REGION_916d540+2</text>
</g>
<g id="clust2" class="cluster">
<title>cluster_HEAT_TRANSFER_IF</title>
<polygon fill="none" stroke="blue" points="332,-836.76 332,-988.2 499,-988.2 499,-836.76 332,-836.76"/>
<text text-anchor="middle" x="415.5" y="-973" font-family="Times,serif" font-size="14.00">HEAT_TRANSFER_IF</text>
</g>
<g id="clust3" class="cluster">
<title>cluster_cond9199760</title>
<polygon fill="none" stroke="black" points="354,-873.48 354,-948.48 476,-948.48 476,-873.48 354,-873.48"/>
<text text-anchor="middle" x="410.5" y="-933.28" font-family="Times,serif" font-size="14.00">cond9199760</text>
</g>
<g id="clust4" class="cluster">
<title>cluster_PARABOLIC_IF</title>
<polygon fill="none" stroke="blue" points="348,-360.44 348,-692.76 482,-692.76 482,-360.44 348,-360.44"/>
<text text-anchor="middle" x="409.5" y="-677.56" font-family="Times,serif" font-size="14.00">PARABOLIC_IF</text>
</g>
<g id="clust5" class="cluster">
<title>cluster_cond91ac400</title>
<polygon fill="none" stroke="black" points="356,-389.16 356,-653.04 474,-653.04 474,-389.16 356,-389.16"/>
<text text-anchor="middle" x="411.5" y="-637.84" font-family="Times,serif" font-size="14.00">cond91ac400</text>
</g>
<g id="clust6" class="cluster">
<title>cluster_K</title>
<polygon fill="none" stroke="orange" points="364,-397.16 364,-622.04 466,-622.04 466,-397.16 364,-397.16"/>
<text text-anchor="middle" x="377.5" y="-606.84" font-family="Times,serif" font-size="14.00">K</text>
</g>
<g id="clust7" class="cluster">
<title>cluster_J</title>
<polygon fill="none" stroke="orange" points="372,-433.88 372,-582.32 458,-582.32 458,-433.88 372,-433.88"/>
<text text-anchor="middle" x="383" y="-567.12" font-family="Times,serif" font-size="14.00">J</text>
</g>
<g id="clust8" class="cluster">
<title>cluster_RAMP_TIME_IF</title>
<polygon fill="none" stroke="blue" points="156,-65 156,-216.44 710,-216.44 710,-65 156,-65"/>
<text text-anchor="middle" x="220" y="-201.24" font-family="Times,serif" font-size="14.00">RAMP_TIME_IF</text>
</g>
<g id="clust9" class="cluster">
<title>cluster_cond91bc340</title>
<polygon fill="none" stroke="black" points="164,-101.72 164,-176.72 420,-176.72 420,-101.72 164,-101.72"/>
<text text-anchor="middle" x="220" y="-161.52" font-family="Times,serif" font-size="14.00">cond91bc340</text>
</g>
<g id="clust10" class="cluster">
<title>cluster_cond91d1b00</title>
<polygon fill="none" stroke="black" points="428,-101.72 428,-176.72 702,-176.72 702,-101.72 428,-101.72"/>
<text text-anchor="middle" x="484.5" y="-161.52" font-family="Times,serif" font-size="14.00">cond91d1b00</text>
</g>
<!-- start_SUBPROGRAM_91d1c60 -->
<g id="node1" class="node">
<title>start_SUBPROGRAM_91d1c60</title>
<ellipse fill="none" stroke="black" cx="415" cy="-1529.92" rx="7" ry="7"/>
</g>
<!-- COMMENT_9168380+1 -->
<g id="node2" class="node">
<title>COMMENT_9168380+1</title>
<polygon fill="none" stroke="black" points="824,-1486.92 0,-1486.92 0,-1403.92 830,-1403.92 830,-1480.92 824,-1486.92"/>
<polyline fill="none" stroke="black" points="824,-1486.92 824,-1480.92 "/>
<polyline fill="none" stroke="black" points="830,-1480.92 824,-1480.92 "/>
<text text-anchor="middle" x="415" y="-1471.72" font-family="Times,serif" font-size="14.00">!&gt; brief Check the Courant and Von Neumann stability criteria, and if necessary, reduce or increase the time step</text>
<text text-anchor="middle" x="415" y="-1456.72" font-family="Times,serif" font-size="14.00">!&gt; param DT Time step (s)</text>
<text text-anchor="middle" x="415" y="-1441.72" font-family="Times,serif" font-size="14.00">!&gt; param DT_NEW New time step (s)</text>
<text text-anchor="middle" x="415" y="-1426.72" font-family="Times,serif" font-size="14.00">!&gt; param T Current time (s)</text>
<text text-anchor="middle" x="415" y="-1411.72" font-family="Times,serif" font-size="14.00">!&gt; param NM Mesh number</text>
</g>
<!-- start_SUBPROGRAM_91d1c60&#45;&gt;COMMENT_9168380+1 -->
<g id="edge1" class="edge">
<title>start_SUBPROGRAM_91d1c60&#45;&gt;COMMENT_9168380+1</title>
<path fill="none" stroke="black" d="M415,-1522.72C415,-1516.81 415,-1507.31 415,-1496.99"/>
<polygon fill="black" stroke="black" points="418.5,-1496.93 415,-1486.93 411.5,-1496.93 418.5,-1496.93"/>
</g>
<!-- COMMENT_916d540+1 -->
<g id="node3" class="node">
<title>COMMENT_916d540+1</title>
<polygon fill="none" stroke="black" points="584.5,-1367.92 239.5,-1367.92 239.5,-1331.92 590.5,-1331.92 590.5,-1361.92 584.5,-1367.92"/>
<polyline fill="none" stroke="black" points="584.5,-1367.92 584.5,-1361.92 "/>
<polyline fill="none" stroke="black" points="590.5,-1361.92 584.5,-1361.92 "/>
<text text-anchor="middle" x="415" y="-1346.22" font-family="Times,serif" font-size="14.00">Determine max CFL number from all grid cells</text>
</g>
<!-- COMMENT_9168380+1&#45;&gt;COMMENT_916d540+1 -->
<g id="edge2" class="edge">
<title>COMMENT_9168380+1&#45;&gt;COMMENT_916d540+1</title>
<path fill="none" stroke="black" d="M415,-1403.68C415,-1395.16 415,-1386.36 415,-1378.45"/>
<polygon fill="black" stroke="black" points="418.5,-1378.33 415,-1368.33 411.5,-1378.33 418.5,-1378.33"/>
</g>
<!-- start_omp_OMP_BEGIN_REGION_916d540+2 -->
<g id="node4" class="node">
<title>start_omp_OMP_BEGIN_REGION_916d540+2</title>
<ellipse fill="black" stroke="black" cx="415" cy="-1292.56" rx="0.36" ry="0.36"/>
</g>
<!-- COMMENT_916d540+1&#45;&gt;start_omp_OMP_BEGIN_REGION_916d540+2 -->
<g id="edge3" class="edge">
<title>COMMENT_916d540+1&#45;&gt;start_omp_OMP_BEGIN_REGION_916d540+2</title>
<path fill="none" stroke="black" d="M415,-1331.71C415,-1315.96 415,-1294.92 415,-1293.62"/>
</g>
<!-- COMMENT_91721a0+1 -->
<g id="node5" class="node">
<title>COMMENT_91721a0+1</title>
<polygon fill="none" stroke="black" points="532,-1256.2 292,-1256.2 292,-1220.2 538,-1220.2 538,-1250.2 532,-1256.2"/>
<polyline fill="none" stroke="black" points="532,-1256.2 532,-1250.2 "/>
<polyline fill="none" stroke="black" points="538,-1250.2 532,-1250.2 "/>
<text text-anchor="middle" x="415" y="-1234.5" font-family="Times,serif" font-size="14.00">!$OMP DO SCHEDULE(STATIC)</text>
</g>
<!-- start_omp_OMP_BEGIN_REGION_916d540+2&#45;&gt;COMMENT_91721a0+1 -->
<g id="edge4" class="edge">
<title>start_omp_OMP_BEGIN_REGION_916d540+2&#45;&gt;COMMENT_91721a0+1</title>
<path fill="none" stroke="black" d="M415,-1292.05C415,-1290.57 415,-1278.52 415,-1266.3"/>
<polygon fill="black" stroke="black" points="418.5,-1266.22 415,-1256.22 411.5,-1266.22 418.5,-1266.22"/>
</g>
<!-- COMMENT_9187e20+1 -->
<g id="node6" class="node">
<title>COMMENT_9187e20+1</title>
<polygon fill="none" stroke="black" points="475,-1184.2 349,-1184.2 349,-1148.2 481,-1148.2 481,-1178.2 475,-1184.2"/>
<polyline fill="none" stroke="black" points="475,-1184.2 475,-1178.2 "/>
<polyline fill="none" stroke="black" points="481,-1178.2 475,-1178.2 "/>
<text text-anchor="middle" x="415" y="-1162.5" font-family="Times,serif" font-size="14.00">!$OMP END DO</text>
</g>
<!-- COMMENT_91721a0+1&#45;&gt;COMMENT_9187e20+1 -->
<g id="edge5" class="edge">
<title>COMMENT_91721a0+1&#45;&gt;COMMENT_9187e20+1</title>
<path fill="none" stroke="black" d="M415,-1219.9C415,-1212.18 415,-1202.91 415,-1194.31"/>
<polygon fill="black" stroke="black" points="418.5,-1194.3 415,-1184.3 411.5,-1194.3 418.5,-1194.3"/>
</g>
<!-- COMMENT_9187e20+2 -->
<g id="node7" class="node">
<title>COMMENT_9187e20+2</title>
<polygon fill="none" stroke="black" points="479.5,-1112.2 344.5,-1112.2 344.5,-1076.2 485.5,-1076.2 485.5,-1106.2 479.5,-1112.2"/>
<polyline fill="none" stroke="black" points="479.5,-1112.2 479.5,-1106.2 "/>
<polyline fill="none" stroke="black" points="485.5,-1106.2 479.5,-1106.2 "/>
<text text-anchor="middle" x="415" y="-1090.5" font-family="Times,serif" font-size="14.00">!$OMP CRITICAL</text>
</g>
<!-- COMMENT_9187e20+1&#45;&gt;COMMENT_9187e20+2 -->
<g id="edge6" class="edge">
<title>COMMENT_9187e20+1&#45;&gt;COMMENT_9187e20+2</title>
<path fill="none" stroke="black" d="M415,-1147.9C415,-1140.18 415,-1130.91 415,-1122.31"/>
<polygon fill="black" stroke="black" points="418.5,-1122.3 415,-1112.3 411.5,-1122.3 418.5,-1122.3"/>
</g>
<!-- COMMENT_918fa60+1 -->
<g id="node8" class="node">
<title>COMMENT_918fa60+1</title>
<polygon fill="none" stroke="black" points="498.5,-1040.2 325.5,-1040.2 325.5,-1004.2 504.5,-1004.2 504.5,-1034.2 498.5,-1040.2"/>
<polyline fill="none" stroke="black" points="498.5,-1040.2 498.5,-1034.2 "/>
<polyline fill="none" stroke="black" points="504.5,-1034.2 498.5,-1034.2 "/>
<text text-anchor="middle" x="415" y="-1018.5" font-family="Times,serif" font-size="14.00">!$OMP END CRITICAL</text>
</g>
<!-- COMMENT_9187e20+2&#45;&gt;COMMENT_918fa60+1 -->
<g id="edge7" class="edge">
<title>COMMENT_9187e20+2&#45;&gt;COMMENT_918fa60+1</title>
<path fill="none" stroke="black" d="M415,-1075.9C415,-1068.18 415,-1058.91 415,-1050.31"/>
<polygon fill="black" stroke="black" points="418.5,-1050.3 415,-1040.3 411.5,-1050.3 418.5,-1050.3"/>
</g>
<!-- beginIf_IF_91998c0 -->
<g id="node9" class="node">
<title>beginIf_IF_91998c0</title>
<ellipse fill="black" stroke="black" cx="415" cy="-956.84" rx="0.36" ry="0.36"/>
</g>
<!-- COMMENT_918fa60+1&#45;&gt;beginIf_IF_91998c0 -->
<g id="edge10" class="edge">
<title>COMMENT_918fa60+1&#45;&gt;beginIf_IF_91998c0</title>
<path fill="none" stroke="black" d="M415,-1003.89C415,-985.71 415,-959.54 415,-957.92"/>
</g>
<!-- DO_9199620 -->
<g id="node11" class="node">
<title>DO_9199620</title>
<polygon fill="none" stroke="orange" points="468,-917.48 362,-917.48 362,-881.48 468,-881.48 468,-917.48"/>
<text text-anchor="middle" x="415" y="-895.78" font-family="Times,serif" font-size="14.00">WALL_LOOP</text>
</g>
<!-- beginIf_IF_91998c0&#45;&gt;DO_9199620 -->
<g id="edge8" class="edge">
<title>beginIf_IF_91998c0&#45;&gt;DO_9199620</title>
<path fill="none" stroke="black" d="M415,-956.32C415,-954.69 415,-941 415,-927.58"/>
<polygon fill="black" stroke="black" points="418.5,-927.58 415,-917.58 411.5,-927.58 418.5,-927.58"/>
</g>
<!-- endIf_IF_91998c0 -->
<g id="node10" class="node">
<title>endIf_IF_91998c0</title>
<ellipse fill="black" stroke="black" cx="415" cy="-845.12" rx="0.36" ry="0.36"/>
</g>
<!-- COMMENT_9199360+1 -->
<g id="node12" class="node">
<title>COMMENT_9199360+1</title>
<polygon fill="none" stroke="black" points="491,-808.76 333,-808.76 333,-772.76 497,-772.76 497,-802.76 491,-808.76"/>
<polyline fill="none" stroke="black" points="491,-808.76 491,-802.76 "/>
<polyline fill="none" stroke="black" points="497,-802.76 491,-802.76 "/>
<text text-anchor="middle" x="415" y="-787.06" font-family="Times,serif" font-size="14.00">CFL = DT*UVWMAX</text>
</g>
<!-- endIf_IF_91998c0&#45;&gt;COMMENT_9199360+1 -->
<g id="edge11" class="edge">
<title>endIf_IF_91998c0&#45;&gt;COMMENT_9199360+1</title>
<path fill="none" stroke="black" d="M415,-843.97C415,-842.53 415,-830.99 415,-819.12"/>
<polygon fill="black" stroke="black" points="418.5,-818.86 415,-808.86 411.5,-818.86 418.5,-818.86"/>
</g>
<!-- DO_9199620&#45;&gt;endIf_IF_91998c0 -->
<g id="edge9" class="edge">
<title>DO_9199620&#45;&gt;endIf_IF_91998c0</title>
<path fill="none" stroke="black" d="M415,-881.42C415,-866.41 415,-846.75 415,-845.54"/>
</g>
<!-- COMMENT_919a120+1 -->
<g id="node13" class="node">
<title>COMMENT_919a120+1</title>
<polygon fill="none" stroke="black" points="620.5,-736.76 203.5,-736.76 203.5,-700.76 626.5,-700.76 626.5,-730.76 620.5,-736.76"/>
<polyline fill="none" stroke="black" points="620.5,-736.76 620.5,-730.76 "/>
<polyline fill="none" stroke="black" points="626.5,-730.76 620.5,-730.76 "/>
<text text-anchor="middle" x="415" y="-715.06" font-family="Times,serif" font-size="14.00">Determine max Von Neumann Number for fine grid calcs</text>
</g>
<!-- COMMENT_9199360+1&#45;&gt;COMMENT_919a120+1 -->
<g id="edge12" class="edge">
<title>COMMENT_9199360+1&#45;&gt;COMMENT_919a120+1</title>
<path fill="none" stroke="black" d="M415,-772.46C415,-764.74 415,-755.47 415,-746.87"/>
<polygon fill="black" stroke="black" points="418.5,-746.86 415,-736.86 411.5,-746.86 418.5,-746.86"/>
</g>
<!-- beginIf_IF_91ac480 -->
<g id="node14" class="node">
<title>beginIf_IF_91ac480</title>
<ellipse fill="black" stroke="black" cx="415" cy="-661.4" rx="0.36" ry="0.36"/>
</g>
<!-- COMMENT_919a120+1&#45;&gt;beginIf_IF_91ac480 -->
<g id="edge19" class="edge">
<title>COMMENT_919a120+1&#45;&gt;beginIf_IF_91ac480</title>
<path fill="none" stroke="black" d="M415,-700.55C415,-684.8 415,-663.76 415,-662.46"/>
</g>
<!-- beginDO_DO_91a6540 -->
<g id="node16" class="node">
<title>beginDO_DO_91a6540</title>
<ellipse fill="black" stroke="black" cx="415" cy="-590.68" rx="0.36" ry="0.36"/>
</g>
<!-- beginIf_IF_91ac480&#45;&gt;beginDO_DO_91a6540 -->
<g id="edge17" class="edge">
<title>beginIf_IF_91ac480&#45;&gt;beginDO_DO_91a6540</title>
<path fill="none" stroke="black" d="M415,-660.99C415,-659.41 415,-620.84 415,-601.94"/>
<polygon fill="black" stroke="black" points="418.5,-601.73 415,-591.73 411.5,-601.73 418.5,-601.73"/>
</g>
<!-- endIf_IF_91ac480 -->
<g id="node15" class="node">
<title>endIf_IF_91ac480</title>
<ellipse fill="black" stroke="black" cx="415" cy="-368.8" rx="0.36" ry="0.36"/>
</g>
<!-- CALL_91aeb60 -->
<g id="node21" class="node">
<title>CALL_91aeb60</title>
<g id="a_node21"><a xlink:href="CHECK_CFLVN_LINKED_CELLS.svg" xlink:title="CHECK_CFLVN_LINKED_CELLS">
<polygon fill="lightgray" stroke="black" points="539,-332.44 291,-332.44 291,-328.44 287,-328.44 287,-324.44 291,-324.44 291,-304.44 287,-304.44 287,-300.44 291,-300.44 291,-296.44 539,-296.44 539,-332.44"/>
<polyline fill="none" stroke="black" points="291,-328.44 295,-328.44 295,-324.44 291,-324.44 "/>
<polyline fill="none" stroke="black" points="291,-304.44 295,-304.44 295,-300.44 291,-300.44 "/>
<text text-anchor="middle" x="415" y="-310.74" font-family="Times,serif" font-size="14.00">CHECK_CFLVN_LINKED_CELLS</text>
</a>
</g>
</g>
<!-- endIf_IF_91ac480&#45;&gt;CALL_91aeb60 -->
<g id="edge20" class="edge">
<title>endIf_IF_91ac480&#45;&gt;CALL_91aeb60</title>
<path fill="none" stroke="black" d="M415,-367.65C415,-366.21 415,-354.67 415,-342.8"/>
<polygon fill="black" stroke="black" points="418.5,-342.54 415,-332.54 411.5,-342.54 418.5,-342.54"/>
</g>
<!-- beginDO_DO_91a6380 -->
<g id="node18" class="node">
<title>beginDO_DO_91a6380</title>
<ellipse fill="black" stroke="black" cx="415" cy="-550.96" rx="0.36" ry="0.36"/>
</g>
<!-- beginDO_DO_91a6540&#45;&gt;beginDO_DO_91a6380 -->
<g id="edge14" class="edge">
<title>beginDO_DO_91a6540&#45;&gt;beginDO_DO_91a6380</title>
<path fill="none" stroke="black" d="M415,-590.21C415,-588.03 415,-554.18 415,-552.06"/>
</g>
<!-- endDO_DO_91a6540 -->
<g id="node17" class="node">
<title>endDO_DO_91a6540</title>
<ellipse fill="black" stroke="black" cx="415" cy="-405.52" rx="0.36" ry="0.36"/>
</g>
<!-- endDO_DO_91a6540&#45;&gt;endIf_IF_91ac480 -->
<g id="edge18" class="edge">
<title>endDO_DO_91a6540&#45;&gt;endIf_IF_91ac480</title>
<path fill="none" stroke="black" d="M415,-404.42C415,-402.41 415,-371.2 415,-369.26"/>
</g>
<!-- DO_919e5a0 -->
<g id="node20" class="node">
<title>DO_919e5a0</title>
<polygon fill="none" stroke="orange" points="450,-514.6 380,-514.6 380,-478.6 450,-478.6 450,-514.6"/>
<text text-anchor="middle" x="415" y="-492.9" font-family="Times,serif" font-size="14.00">I_LOOP</text>
</g>
<!-- beginDO_DO_91a6380&#45;&gt;DO_919e5a0 -->
<g id="edge13" class="edge">
<title>beginDO_DO_91a6380&#45;&gt;DO_919e5a0</title>
<path fill="none" stroke="black" d="M415,-550.45C415,-548.97 415,-536.92 415,-524.7"/>
<polygon fill="black" stroke="black" points="418.5,-524.62 415,-514.62 411.5,-524.62 418.5,-524.62"/>
</g>
<!-- endDO_DO_91a6380 -->
<g id="node19" class="node">
<title>endDO_DO_91a6380</title>
<ellipse fill="black" stroke="black" cx="415" cy="-442.24" rx="0.36" ry="0.36"/>
</g>
<!-- endDO_DO_91a6380&#45;&gt;endDO_DO_91a6540 -->
<g id="edge16" class="edge">
<title>endDO_DO_91a6380&#45;&gt;endDO_DO_91a6540</title>
<path fill="none" stroke="black" d="M415,-441.14C415,-439.13 415,-407.92 415,-405.98"/>
</g>
<!-- DO_919e5a0&#45;&gt;endDO_DO_91a6380 -->
<g id="edge15" class="edge">
<title>DO_919e5a0&#45;&gt;endDO_DO_91a6380</title>
<path fill="none" stroke="black" d="M415,-478.54C415,-463.53 415,-443.87 415,-442.66"/>
</g>
<!-- COMMENT_91ac9e0+1 -->
<g id="node22" class="node">
<title>COMMENT_91ac9e0+1</title>
<polygon fill="none" stroke="black" points="564,-260.44 260,-260.44 260,-224.44 570,-224.44 570,-254.44 564,-260.44"/>
<polyline fill="none" stroke="black" points="564,-260.44 564,-254.44 "/>
<polyline fill="none" stroke="black" points="570,-254.44 564,-254.44 "/>
<text text-anchor="middle" x="415" y="-238.74" font-family="Times,serif" font-size="14.00">Attempt DT restriction to avoid clippings</text>
</g>
<!-- CALL_91aeb60&#45;&gt;COMMENT_91ac9e0+1 -->
<g id="edge21" class="edge">
<title>CALL_91aeb60&#45;&gt;COMMENT_91ac9e0+1</title>
<path fill="none" stroke="black" d="M415,-296.14C415,-288.42 415,-279.15 415,-270.55"/>
<polygon fill="black" stroke="black" points="418.5,-270.54 415,-260.54 411.5,-270.54 418.5,-270.54"/>
</g>
<!-- beginIf_IF_91d1b80 -->
<g id="node23" class="node">
<title>beginIf_IF_91d1b80</title>
<ellipse fill="black" stroke="black" cx="415" cy="-185.08" rx="0.36" ry="0.36"/>
</g>
<!-- COMMENT_91ac9e0+1&#45;&gt;beginIf_IF_91d1b80 -->
<g id="edge26" class="edge">
<title>COMMENT_91ac9e0+1&#45;&gt;beginIf_IF_91d1b80</title>
<path fill="none" stroke="black" d="M415,-224.23C415,-208.48 415,-187.44 415,-186.14"/>
</g>
<!-- COMMENT_91b7680+1 -->
<g id="node25" class="node">
<title>COMMENT_91b7680+1</title>
<polygon fill="none" stroke="black" points="406,-145.72 172,-145.72 172,-109.72 412,-109.72 412,-139.72 406,-145.72"/>
<polyline fill="none" stroke="black" points="406,-145.72 406,-139.72 "/>
<polyline fill="none" stroke="black" points="412,-139.72 406,-139.72 "/>
<text text-anchor="middle" x="292" y="-124.02" font-family="Times,serif" font-size="14.00">User&#45;specified time increments</text>
</g>
<!-- beginIf_IF_91d1b80&#45;&gt;COMMENT_91b7680+1 -->
<g id="edge22" class="edge">
<title>beginIf_IF_91d1b80&#45;&gt;COMMENT_91b7680+1</title>
<path fill="none" stroke="black" d="M414.91,-184.68C412.78,-183.71 372.72,-165.47 338.91,-150.08"/>
<polygon fill="black" stroke="black" points="340.13,-146.79 329.58,-145.83 337.23,-153.16 340.13,-146.79"/>
</g>
<!-- COMMENT_91bd680+1 -->
<g id="node26" class="node">
<title>COMMENT_91bd680+1</title>
<polygon fill="none" stroke="black" points="687.5,-145.72 436.5,-145.72 436.5,-109.72 693.5,-109.72 693.5,-139.72 687.5,-145.72"/>
<polyline fill="none" stroke="black" points="687.5,-145.72 687.5,-139.72 "/>
<polyline fill="none" stroke="black" points="693.5,-139.72 687.5,-139.72 "/>
<text text-anchor="middle" x="565" y="-124.02" font-family="Times,serif" font-size="14.00">Adjust time step size if necessary</text>
</g>
<!-- beginIf_IF_91d1b80&#45;&gt;COMMENT_91bd680+1 -->
<g id="edge24" class="edge">
<title>beginIf_IF_91d1b80&#45;&gt;COMMENT_91bd680+1</title>
<path fill="none" stroke="black" d="M415.11,-184.68C417.75,-183.69 468.03,-164.92 509.64,-149.39"/>
<polygon fill="black" stroke="black" points="511.03,-152.61 519.17,-145.83 508.58,-146.05 511.03,-152.61"/>
</g>
<!-- endIf_IF_91d1b80 -->
<g id="node24" class="node">
<title>endIf_IF_91d1b80</title>
<ellipse fill="black" stroke="black" cx="428" cy="-73.36" rx="0.36" ry="0.36"/>
</g>
<!-- end_SUBPROGRAM_91d1c60 -->
<g id="node27" class="node">
<title>end_SUBPROGRAM_91d1c60</title>
<ellipse fill="black" stroke="black" cx="428" cy="-30" rx="7" ry="7"/>
</g>
<!-- endIf_IF_91d1b80&#45;&gt;end_SUBPROGRAM_91d1c60 -->
<g id="edge27" class="edge">
<title>endIf_IF_91d1b80&#45;&gt;end_SUBPROGRAM_91d1c60</title>
<path fill="none" stroke="black" d="M428,-72.24C428,-70.89 428,-58.27 428,-47.34"/>
<polygon fill="black" stroke="black" points="431.5,-47.1 428,-37.1 424.5,-47.1 431.5,-47.1"/>
</g>
<!-- COMMENT_91b7680+1&#45;&gt;endIf_IF_91d1b80 -->
<g id="edge23" class="edge">
<title>COMMENT_91b7680+1&#45;&gt;endIf_IF_91d1b80</title>
<path fill="none" stroke="black" d="M335.78,-109.66C374.29,-94.65 424.73,-74.99 427.85,-73.78"/>
</g>
<!-- COMMENT_91bd680+1&#45;&gt;endIf_IF_91d1b80 -->
<g id="edge25" class="edge">
<title>COMMENT_91bd680+1&#45;&gt;endIf_IF_91d1b80</title>
<path fill="none" stroke="black" d="M520.9,-109.66C482.1,-94.65 431.29,-74.99 428.15,-73.78"/>
</g>
</g>
</svg>
