<?xml version="1.0" encoding="UTF-8" standalone="no"?>
<!DOCTYPE svg PUBLIC "-//W3C//DTD SVG 1.1//EN"
 "http://www.w3.org/Graphics/SVG/1.1/DTD/svg11.dtd">
<!-- Generated by graphviz version 2.43.0 (0)
 -->
<!-- Title: CLIP_PASSIVE_SCALARS Pages: 1 -->
<svg width="367pt" height="167pt"
 viewBox="0.00 0.00 367.00 167.00" xmlns="http://www.w3.org/2000/svg" xmlns:xlink="http://www.w3.org/1999/xlink">
<g id="graph0" class="graph" transform="scale(1 1) rotate(0) translate(4 163)">
<title>CLIP_PASSIVE_SCALARS</title>
<polygon fill="white" stroke="transparent" points="-4,4 -4,-163 363,-163 363,4 -4,4"/>
<text text-anchor="middle" x="179.5" y="-7.8" font-family="Times,serif" font-size="14.00">CLIP_PASSIVE_SCALARS</text>
<!-- start_SUBPROGRAM_8554300 -->
<g id="node1" class="node">
<title>start_SUBPROGRAM_8554300</title>
<ellipse fill="none" stroke="black" cx="179.5" cy="-152" rx="7" ry="7"/>
</g>
<!-- COMMENT_8545c60+1 -->
<g id="node2" class="node">
<title>COMMENT_8545c60+1</title>
<polygon fill="none" stroke="black" points="353,-109 0,-109 0,-73 359,-73 359,-103 353,-109"/>
<polyline fill="none" stroke="black" points="353,-109 353,-103 "/>
<polyline fill="none" stroke="black" points="359,-103 353,-103 "/>
<text text-anchor="middle" x="179.5" y="-87.3" font-family="Times,serif" font-size="14.00">Currently only set up for unmixed fraction, zeta</text>
</g>
<!-- start_SUBPROGRAM_8554300&#45;&gt;COMMENT_8545c60+1 -->
<g id="edge1" class="edge">
<title>start_SUBPROGRAM_8554300&#45;&gt;COMMENT_8545c60+1</title>
<path fill="none" stroke="black" d="M179.5,-144.69C179.5,-138.49 179.5,-128.59 179.5,-119.05"/>
<polygon fill="black" stroke="black" points="183,-119.02 179.5,-109.02 176,-119.02 183,-119.02"/>
</g>
<!-- end_SUBPROGRAM_8554300 -->
<g id="node3" class="node">
<title>end_SUBPROGRAM_8554300</title>
<ellipse fill="black" stroke="black" cx="179.5" cy="-30" rx="7" ry="7"/>
</g>
<!-- COMMENT_8545c60+1&#45;&gt;end_SUBPROGRAM_8554300 -->
<g id="edge2" class="edge">
<title>COMMENT_8545c60+1&#45;&gt;end_SUBPROGRAM_8554300</title>
<path fill="none" stroke="black" d="M179.5,-72.93C179.5,-64.89 179.5,-55.33 179.5,-47.37"/>
<polygon fill="black" stroke="black" points="183,-47.22 179.5,-37.22 176,-47.22 183,-47.22"/>
</g>
</g>
</svg>
