<?xml version="1.0" encoding="UTF-8" standalone="no"?>
<!DOCTYPE svg PUBLIC "-//W3C//DTD SVG 1.1//EN"
 "http://www.w3.org/Graphics/SVG/1.1/DTD/svg11.dtd">
<!-- Generated by graphviz version 2.43.0 (0)
 -->
<!-- Title: COMPUTE_STRAIN_RATE Pages: 1 -->
<svg width="577pt" height="315pt"
 viewBox="0.00 0.00 577.00 315.44" xmlns="http://www.w3.org/2000/svg" xmlns:xlink="http://www.w3.org/1999/xlink">
<g id="graph0" class="graph" transform="scale(1 1) rotate(0) translate(4 311.44)">
<title>COMPUTE_STRAIN_RATE</title>
<polygon fill="white" stroke="transparent" points="-4,4 -4,-311.44 573,-311.44 573,4 -4,4"/>
<text text-anchor="middle" x="284.5" y="-7.8" font-family="Times,serif" font-size="14.00">COMPUTE_STRAIN_RATE</text>
<g id="clust1" class="cluster">
<title>cluster_WALL_LOOP</title>
<polygon fill="none" stroke="orange" points="55.5,-65 55.5,-213.44 513.5,-213.44 513.5,-65 55.5,-65"/>
<text text-anchor="middle" x="108.5" y="-198.24" font-family="Times,serif" font-size="14.00">WALL_LOOP</text>
</g>
<!-- start_SUBPROGRAM_99f0c00 -->
<g id="node1" class="node">
<title>start_SUBPROGRAM_99f0c00</title>
<ellipse fill="none" stroke="black" cx="284.5" cy="-300.44" rx="7" ry="7"/>
</g>
<!-- COMMENT_9f60ac0+1 -->
<g id="node2" class="node">
<title>COMMENT_9f60ac0+1</title>
<polygon fill="none" stroke="black" points="563,-257.44 0,-257.44 0,-221.44 569,-221.44 569,-251.44 563,-257.44"/>
<polyline fill="none" stroke="black" points="563,-257.44 563,-251.44 "/>
<polyline fill="none" stroke="black" points="569,-251.44 563,-251.44 "/>
<text text-anchor="middle" x="284.5" y="-235.74" font-family="Times,serif" font-size="14.00">Here we omit the 3D loop, we only need the wall cell values of STRAIN_RATE</text>
</g>
<!-- start_SUBPROGRAM_99f0c00&#45;&gt;COMMENT_9f60ac0+1 -->
<g id="edge1" class="edge">
<title>start_SUBPROGRAM_99f0c00&#45;&gt;COMMENT_9f60ac0+1</title>
<path fill="none" stroke="black" d="M284.5,-293.13C284.5,-286.93 284.5,-277.03 284.5,-267.49"/>
<polygon fill="black" stroke="black" points="288,-267.46 284.5,-257.46 281,-267.46 288,-267.46"/>
</g>
<!-- beginDO_DO_8334260 -->
<g id="node3" class="node">
<title>beginDO_DO_8334260</title>
<ellipse fill="black" stroke="black" cx="284.5" cy="-182.08" rx="0.36" ry="0.36"/>
</g>
<!-- COMMENT_9f60ac0+1&#45;&gt;beginDO_DO_8334260 -->
<g id="edge3" class="edge">
<title>COMMENT_9f60ac0+1&#45;&gt;beginDO_DO_8334260</title>
<path fill="none" stroke="black" d="M284.5,-221.23C284.5,-205.48 284.5,-184.44 284.5,-183.14"/>
</g>
<!-- COMMENT_9f6e140+1 -->
<g id="node5" class="node">
<title>COMMENT_9f6e140+1</title>
<polygon fill="none" stroke="black" points="499.5,-145.72 63.5,-145.72 63.5,-109.72 505.5,-109.72 505.5,-139.72 499.5,-145.72"/>
<polyline fill="none" stroke="black" points="499.5,-145.72 499.5,-139.72 "/>
<polyline fill="none" stroke="black" points="505.5,-139.72 499.5,-139.72 "/>
<text text-anchor="middle" x="284.5" y="-124.02" font-family="Times,serif" font-size="14.00">Handle the case where OBST lives on an external boundary</text>
</g>
<!-- beginDO_DO_8334260&#45;&gt;COMMENT_9f6e140+1 -->
<g id="edge2" class="edge">
<title>beginDO_DO_8334260&#45;&gt;COMMENT_9f6e140+1</title>
<path fill="none" stroke="black" d="M284.5,-181.57C284.5,-180.09 284.5,-168.04 284.5,-155.82"/>
<polygon fill="black" stroke="black" points="288,-155.74 284.5,-145.74 281,-155.74 288,-155.74"/>
</g>
<!-- endDO_DO_8334260 -->
<g id="node4" class="node">
<title>endDO_DO_8334260</title>
<ellipse fill="black" stroke="black" cx="284.5" cy="-73.36" rx="0.36" ry="0.36"/>
</g>
<!-- end_SUBPROGRAM_99f0c00 -->
<g id="node6" class="node">
<title>end_SUBPROGRAM_99f0c00</title>
<ellipse fill="black" stroke="black" cx="284.5" cy="-30" rx="7" ry="7"/>
</g>
<!-- endDO_DO_8334260&#45;&gt;end_SUBPROGRAM_99f0c00 -->
<g id="edge5" class="edge">
<title>endDO_DO_8334260&#45;&gt;end_SUBPROGRAM_99f0c00</title>
<path fill="none" stroke="black" d="M284.5,-72.24C284.5,-70.89 284.5,-58.27 284.5,-47.34"/>
<polygon fill="black" stroke="black" points="288,-47.1 284.5,-37.1 281,-47.1 288,-47.1"/>
</g>
<!-- COMMENT_9f6e140+1&#45;&gt;endDO_DO_8334260 -->
<g id="edge4" class="edge">
<title>COMMENT_9f6e140+1&#45;&gt;endDO_DO_8334260</title>
<path fill="none" stroke="black" d="M284.5,-109.66C284.5,-94.65 284.5,-74.99 284.5,-73.78"/>
</g>
</g>
</svg>
