<?xml version="1.0" encoding="UTF-8" standalone="no"?>
<!DOCTYPE svg PUBLIC "-//W3C//DTD SVG 1.1//EN"
 "http://www.w3.org/Graphics/SVG/1.1/DTD/svg11.dtd">
<!-- Generated by graphviz version 2.43.0 (0)
 -->
<!-- Title: COMPUTE_STRAIN_RATE Pages: 1 -->
<svg width="577pt" height="242pt"
 viewBox="0.00 0.00 577.00 242.00" xmlns="http://www.w3.org/2000/svg" xmlns:xlink="http://www.w3.org/1999/xlink">
<g id="graph0" class="graph" transform="scale(1 1) rotate(0) translate(4 238)">
<title>COMPUTE_STRAIN_RATE</title>
<polygon fill="white" stroke="transparent" points="-4,4 -4,-238 573,-238 573,4 -4,4"/>
<text text-anchor="middle" x="284.5" y="-7.8" font-family="Times,serif" font-size="14.00">COMPUTE_STRAIN_RATE</text>
<g id="clust1" class="cluster">
<title>cluster_WALL_LOOP</title>
<polygon fill="none" stroke="orange" points="55.5,-65 55.5,-140 513.5,-140 513.5,-65 55.5,-65"/>
<text text-anchor="middle" x="108.5" y="-124.8" font-family="Times,serif" font-size="14.00">WALL_LOOP</text>
</g>
<!-- start_SUBPROGRAM_812aac0 -->
<g id="node1" class="node">
<title>start_SUBPROGRAM_812aac0</title>
<ellipse fill="none" stroke="black" cx="284.5" cy="-227" rx="7" ry="7"/>
</g>
<!-- COMMENT_9d50ac0+1 -->
<g id="node2" class="node">
<title>COMMENT_9d50ac0+1</title>
<polygon fill="none" stroke="black" points="563,-184 0,-184 0,-148 569,-148 569,-178 563,-184"/>
<polyline fill="none" stroke="black" points="563,-184 563,-178 "/>
<polyline fill="none" stroke="black" points="569,-178 563,-178 "/>
<text text-anchor="middle" x="284.5" y="-162.3" font-family="Times,serif" font-size="14.00">Here we omit the 3D loop, we only need the wall cell values of STRAIN_RATE</text>
</g>
<!-- start_SUBPROGRAM_812aac0&#45;&gt;COMMENT_9d50ac0+1 -->
<g id="edge1" class="edge">
<title>start_SUBPROGRAM_812aac0&#45;&gt;COMMENT_9d50ac0+1</title>
<path fill="none" stroke="black" d="M284.5,-219.69C284.5,-213.49 284.5,-203.59 284.5,-194.05"/>
<polygon fill="black" stroke="black" points="288,-194.02 284.5,-184.02 281,-194.02 288,-194.02"/>
</g>
<!-- COMMENT_9d5e140+1 -->
<g id="node3" class="node">
<title>COMMENT_9d5e140+1</title>
<polygon fill="none" stroke="black" points="499.5,-109 63.5,-109 63.5,-73 505.5,-73 505.5,-103 499.5,-109"/>
<polyline fill="none" stroke="black" points="499.5,-109 499.5,-103 "/>
<polyline fill="none" stroke="black" points="505.5,-103 499.5,-103 "/>
<text text-anchor="middle" x="284.5" y="-87.3" font-family="Times,serif" font-size="14.00">Handle the case where OBST lives on an external boundary</text>
</g>
<!-- COMMENT_9d50ac0+1&#45;&gt;COMMENT_9d5e140+1 -->
<g id="edge2" class="edge">
<title>COMMENT_9d50ac0+1&#45;&gt;COMMENT_9d5e140+1</title>
<path fill="none" stroke="black" d="M284.5,-147.7C284.5,-139.25 284.5,-128.87 284.5,-119.37"/>
<polygon fill="black" stroke="black" points="288,-119.18 284.5,-109.18 281,-119.18 288,-119.18"/>
</g>
<!-- end_SUBPROGRAM_812aac0 -->
<g id="node4" class="node">
<title>end_SUBPROGRAM_812aac0</title>
<ellipse fill="black" stroke="black" cx="284.5" cy="-30" rx="7" ry="7"/>
</g>
<!-- COMMENT_9d5e140+1&#45;&gt;end_SUBPROGRAM_812aac0 -->
<g id="edge3" class="edge">
<title>COMMENT_9d5e140+1&#45;&gt;end_SUBPROGRAM_812aac0</title>
<path fill="none" stroke="black" d="M284.5,-72.93C284.5,-64.89 284.5,-55.33 284.5,-47.37"/>
<polygon fill="black" stroke="black" points="288,-47.22 284.5,-37.22 281,-47.22 288,-47.22"/>
</g>
</g>
</svg>
