<?xml version="1.0" encoding="UTF-8" standalone="no"?>
<!DOCTYPE svg PUBLIC "-//W3C//DTD SVG 1.1//EN"
 "http://www.w3.org/Graphics/SVG/1.1/DTD/svg11.dtd">
<!-- Generated by graphviz version 2.43.0 (0)
 -->
<!-- Title: COMPUTE_VISCOSITY Pages: 1 -->
<svg width="839pt" height="2890pt"
 viewBox="0.00 0.00 839.00 2890.44" xmlns="http://www.w3.org/2000/svg" xmlns:xlink="http://www.w3.org/1999/xlink">
<g id="graph0" class="graph" transform="scale(1 1) rotate(0) translate(4 2886.44)">
<title>COMPUTE_VISCOSITY</title>
<polygon fill="white" stroke="transparent" points="-4,4 -4,-2886.44 835,-2886.44 835,4 -4,4"/>
<text text-anchor="middle" x="415.5" y="-7.8" font-family="Times,serif" font-size="14.00">COMPUTE_VISCOSITY</text>
<g id="clust1" class="cluster">
<title>cluster_omp_OMP_BEGIN_REGION_7d8e900+1</title>
<polygon fill="none" stroke="red" points="264.5,-2341.72 264.5,-2597.44 567.5,-2597.44 567.5,-2341.72 264.5,-2341.72"/>
<text text-anchor="middle" x="416" y="-2582.24" font-family="Times,serif" font-size="14.00">omp_OMP_BEGIN_REGION_7d8e900+1</text>
</g>
<g id="clust2" class="cluster">
<title>cluster_omp_OMP_BEGIN_REGION_7daaae0+1</title>
<polygon fill="none" stroke="red" points="209.5,-1654 209.5,-2053.72 621.5,-2053.72 621.5,-1654 209.5,-1654"/>
<text text-anchor="middle" x="360" y="-2038.52" font-family="Times,serif" font-size="14.00">omp_OMP_BEGIN_REGION_7daaae0+1</text>
</g>
<g id="clust3" class="cluster">
<title>cluster_WALL_LOOP</title>
<polygon fill="none" stroke="orange" points="280.5,-209 280.5,-356 550.5,-356 550.5,-209 280.5,-209"/>
<text text-anchor="middle" x="333.5" y="-340.8" font-family="Times,serif" font-size="14.00">WALL_LOOP</text>
</g>
<!-- start_SUBPROGRAM_8129aa0 -->
<g id="node1" class="node">
<title>start_SUBPROGRAM_8129aa0</title>
<ellipse fill="none" stroke="black" cx="415.5" cy="-2875.44" rx="7" ry="7"/>
</g>
<!-- COMMENT_7bf9400+1 -->
<g id="node2" class="node">
<title>COMMENT_7bf9400+1</title>
<polygon fill="none" stroke="black" points="825,-2832.44 0,-2832.44 0,-2749.44 831,-2749.44 831,-2826.44 825,-2832.44"/>
<polyline fill="none" stroke="black" points="825,-2832.44 825,-2826.44 "/>
<polyline fill="none" stroke="black" points="831,-2826.44 825,-2826.44 "/>
<text text-anchor="middle" x="415.5" y="-2817.24" font-family="Times,serif" font-size="14.00">!&gt; brief Compute the viscosity of the gas.</text>
<text text-anchor="middle" x="415.5" y="-2802.24" font-family="Times,serif" font-size="14.00">!&gt; callergraph</text>
<text text-anchor="middle" x="415.5" y="-2787.24" font-family="Times,serif" font-size="14.00">!&gt; callgraph</text>
<text text-anchor="middle" x="415.5" y="-2772.24" font-family="Times,serif" font-size="14.00">!&gt; param NM Mesh number.</text>
<text text-anchor="middle" x="415.5" y="-2757.24" font-family="Times,serif" font-size="14.00">!&gt; param APPLY_TO_ESTIMATED_VARIABLES Flag indicating f$mu(T,mathbf{u})f$ or f$mu(T^*,mathbf{u}^*)f$</text>
</g>
<!-- start_SUBPROGRAM_8129aa0&#45;&gt;COMMENT_7bf9400+1 -->
<g id="edge1" class="edge">
<title>start_SUBPROGRAM_8129aa0&#45;&gt;COMMENT_7bf9400+1</title>
<path fill="none" stroke="black" d="M415.5,-2868.24C415.5,-2862.33 415.5,-2852.83 415.5,-2842.51"/>
<polygon fill="black" stroke="black" points="419,-2842.45 415.5,-2832.45 412,-2842.45 419,-2842.45"/>
</g>
<!-- CALL_7bfbb40 -->
<g id="node3" class="node">
<title>CALL_7bfbb40</title>
<g id="a_node3"><a xlink:href="POINT_TO_MESH.svg" xlink:title="POINT_TO_MESH">
<polygon fill="lightgray" stroke="black" points="487.5,-2713.44 343.5,-2713.44 343.5,-2709.44 339.5,-2709.44 339.5,-2705.44 343.5,-2705.44 343.5,-2685.44 339.5,-2685.44 339.5,-2681.44 343.5,-2681.44 343.5,-2677.44 487.5,-2677.44 487.5,-2713.44"/>
<polyline fill="none" stroke="black" points="343.5,-2709.44 347.5,-2709.44 347.5,-2705.44 343.5,-2705.44 "/>
<polyline fill="none" stroke="black" points="343.5,-2685.44 347.5,-2685.44 347.5,-2681.44 343.5,-2681.44 "/>
<text text-anchor="middle" x="415.5" y="-2691.74" font-family="Times,serif" font-size="14.00">POINT_TO_MESH</text>
</a>
</g>
</g>
<!-- COMMENT_7bf9400+1&#45;&gt;CALL_7bfbb40 -->
<g id="edge2" class="edge">
<title>COMMENT_7bf9400+1&#45;&gt;CALL_7bfbb40</title>
<path fill="none" stroke="black" d="M415.5,-2749.2C415.5,-2740.68 415.5,-2731.88 415.5,-2723.97"/>
<polygon fill="black" stroke="black" points="419,-2723.85 415.5,-2713.85 412,-2723.85 419,-2723.85"/>
</g>
<!-- COMMENT_7d8c200+1 -->
<g id="node4" class="node">
<title>COMMENT_7d8c200+1</title>
<polygon fill="none" stroke="black" points="599.5,-2641.44 225.5,-2641.44 225.5,-2605.44 605.5,-2605.44 605.5,-2635.44 599.5,-2641.44"/>
<polyline fill="none" stroke="black" points="599.5,-2641.44 599.5,-2635.44 "/>
<polyline fill="none" stroke="black" points="605.5,-2635.44 599.5,-2635.44 "/>
<text text-anchor="middle" x="415.5" y="-2619.74" font-family="Times,serif" font-size="14.00">Compute viscosity for DNS using primitive species</text>
</g>
<!-- CALL_7bfbb40&#45;&gt;COMMENT_7d8c200+1 -->
<g id="edge3" class="edge">
<title>CALL_7bfbb40&#45;&gt;COMMENT_7d8c200+1</title>
<path fill="none" stroke="black" d="M415.5,-2677.14C415.5,-2669.42 415.5,-2660.15 415.5,-2651.55"/>
<polygon fill="black" stroke="black" points="419,-2651.54 415.5,-2641.54 412,-2651.54 419,-2651.54"/>
</g>
<!-- start_omp_OMP_BEGIN_REGION_7d8e900+1 -->
<g id="node5" class="node">
<title>start_omp_OMP_BEGIN_REGION_7d8e900+1</title>
<ellipse fill="black" stroke="black" cx="415.5" cy="-2566.08" rx="0.36" ry="0.36"/>
</g>
<!-- COMMENT_7d8c200+1&#45;&gt;start_omp_OMP_BEGIN_REGION_7d8e900+1 -->
<g id="edge4" class="edge">
<title>COMMENT_7d8c200+1&#45;&gt;start_omp_OMP_BEGIN_REGION_7d8e900+1</title>
<path fill="none" stroke="black" d="M415.5,-2605.23C415.5,-2589.48 415.5,-2568.44 415.5,-2567.14"/>
</g>
<!-- COMMENT_7d8de60+1 -->
<g id="node6" class="node">
<title>COMMENT_7d8de60+1</title>
<polygon fill="none" stroke="black" points="532.5,-2529.72 292.5,-2529.72 292.5,-2493.72 538.5,-2493.72 538.5,-2523.72 532.5,-2529.72"/>
<polyline fill="none" stroke="black" points="532.5,-2529.72 532.5,-2523.72 "/>
<polyline fill="none" stroke="black" points="538.5,-2523.72 532.5,-2523.72 "/>
<text text-anchor="middle" x="415.5" y="-2508.02" font-family="Times,serif" font-size="14.00">!$OMP DO SCHEDULE(STATIC)</text>
</g>
<!-- start_omp_OMP_BEGIN_REGION_7d8e900+1&#45;&gt;COMMENT_7d8de60+1 -->
<g id="edge5" class="edge">
<title>start_omp_OMP_BEGIN_REGION_7d8e900+1&#45;&gt;COMMENT_7d8de60+1</title>
<path fill="none" stroke="black" d="M415.5,-2565.57C415.5,-2564.09 415.5,-2552.04 415.5,-2539.82"/>
<polygon fill="black" stroke="black" points="419,-2539.74 415.5,-2529.74 412,-2539.74 419,-2539.74"/>
</g>
<!-- CALL_7d96ce0 -->
<g id="node7" class="node">
<title>CALL_7d96ce0</title>
<g id="a_node7"><a xlink:href="GET_VISCOSITY.svg" xlink:title="GET_VISCOSITY">
<polygon fill="lightgray" stroke="black" points="482.5,-2457.72 348.5,-2457.72 348.5,-2453.72 344.5,-2453.72 344.5,-2449.72 348.5,-2449.72 348.5,-2429.72 344.5,-2429.72 344.5,-2425.72 348.5,-2425.72 348.5,-2421.72 482.5,-2421.72 482.5,-2457.72"/>
<polyline fill="none" stroke="black" points="348.5,-2453.72 352.5,-2453.72 352.5,-2449.72 348.5,-2449.72 "/>
<polyline fill="none" stroke="black" points="348.5,-2429.72 352.5,-2429.72 352.5,-2425.72 348.5,-2425.72 "/>
<text text-anchor="middle" x="415.5" y="-2436.02" font-family="Times,serif" font-size="14.00">GET_VISCOSITY</text>
</a>
</g>
</g>
<!-- COMMENT_7d8de60+1&#45;&gt;CALL_7d96ce0 -->
<g id="edge6" class="edge">
<title>COMMENT_7d8de60+1&#45;&gt;CALL_7d96ce0</title>
<path fill="none" stroke="black" d="M415.5,-2493.42C415.5,-2485.7 415.5,-2476.43 415.5,-2467.83"/>
<polygon fill="black" stroke="black" points="419,-2467.82 415.5,-2457.82 412,-2467.82 419,-2467.82"/>
</g>
<!-- COMMENT_7d978e0+1 -->
<g id="node8" class="node">
<title>COMMENT_7d978e0+1</title>
<polygon fill="none" stroke="black" points="475.5,-2385.72 349.5,-2385.72 349.5,-2349.72 481.5,-2349.72 481.5,-2379.72 475.5,-2385.72"/>
<polyline fill="none" stroke="black" points="475.5,-2385.72 475.5,-2379.72 "/>
<polyline fill="none" stroke="black" points="481.5,-2379.72 475.5,-2379.72 "/>
<text text-anchor="middle" x="415.5" y="-2364.02" font-family="Times,serif" font-size="14.00">!$OMP END DO</text>
</g>
<!-- CALL_7d96ce0&#45;&gt;COMMENT_7d978e0+1 -->
<g id="edge7" class="edge">
<title>CALL_7d96ce0&#45;&gt;COMMENT_7d978e0+1</title>
<path fill="none" stroke="black" d="M415.5,-2421.42C415.5,-2413.7 415.5,-2404.43 415.5,-2395.83"/>
<polygon fill="black" stroke="black" points="419,-2395.82 415.5,-2385.82 412,-2395.82 419,-2395.82"/>
</g>
<!-- CALL_7d9a280 -->
<g id="node9" class="node">
<title>CALL_7d9a280</title>
<g id="a_node9"><a xlink:href="CUTFACE_VELOCITIES.svg" xlink:title="CUTFACE_VELOCITIES">
<polygon fill="lightgray" stroke="black" points="508,-2313.72 323,-2313.72 323,-2309.72 319,-2309.72 319,-2305.72 323,-2305.72 323,-2285.72 319,-2285.72 319,-2281.72 323,-2281.72 323,-2277.72 508,-2277.72 508,-2313.72"/>
<polyline fill="none" stroke="black" points="323,-2309.72 327,-2309.72 327,-2305.72 323,-2305.72 "/>
<polyline fill="none" stroke="black" points="323,-2285.72 327,-2285.72 327,-2281.72 323,-2281.72 "/>
<text text-anchor="middle" x="415.5" y="-2292.02" font-family="Times,serif" font-size="14.00">CUTFACE_VELOCITIES</text>
</a>
</g>
</g>
<!-- COMMENT_7d978e0+1&#45;&gt;CALL_7d9a280 -->
<g id="edge8" class="edge">
<title>COMMENT_7d978e0+1&#45;&gt;CALL_7d9a280</title>
<path fill="none" stroke="black" d="M415.5,-2349.42C415.5,-2341.7 415.5,-2332.43 415.5,-2323.83"/>
<polygon fill="black" stroke="black" points="419,-2323.82 415.5,-2313.82 412,-2323.82 419,-2323.82"/>
</g>
<!-- CALL_7d99a40 -->
<g id="node10" class="node">
<title>CALL_7d99a40</title>
<g id="a_node10"><a xlink:href="COMPUTE_STRAIN_RATE.svg" xlink:title="COMPUTE_STRAIN_RATE">
<polygon fill="lightgray" stroke="black" points="516.5,-2241.72 314.5,-2241.72 314.5,-2237.72 310.5,-2237.72 310.5,-2233.72 314.5,-2233.72 314.5,-2213.72 310.5,-2213.72 310.5,-2209.72 314.5,-2209.72 314.5,-2205.72 516.5,-2205.72 516.5,-2241.72"/>
<polyline fill="none" stroke="black" points="314.5,-2237.72 318.5,-2237.72 318.5,-2233.72 314.5,-2233.72 "/>
<polyline fill="none" stroke="black" points="314.5,-2213.72 318.5,-2213.72 318.5,-2209.72 314.5,-2209.72 "/>
<text text-anchor="middle" x="415.5" y="-2220.02" font-family="Times,serif" font-size="14.00">COMPUTE_STRAIN_RATE</text>
</a>
</g>
</g>
<!-- CALL_7d9a280&#45;&gt;CALL_7d99a40 -->
<g id="edge9" class="edge">
<title>CALL_7d9a280&#45;&gt;CALL_7d99a40</title>
<path fill="none" stroke="black" d="M415.5,-2277.42C415.5,-2269.7 415.5,-2260.43 415.5,-2251.83"/>
<polygon fill="black" stroke="black" points="419,-2251.82 415.5,-2241.82 412,-2251.82 419,-2251.82"/>
</g>
<!-- CALL_7d92520 -->
<g id="node11" class="node">
<title>CALL_7d92520</title>
<g id="a_node11"><a xlink:href="VARDEN_DYNSMAG.svg" xlink:title="VARDEN_DYNSMAG">
<polygon fill="lightgray" stroke="black" points="497.5,-2169.72 333.5,-2169.72 333.5,-2165.72 329.5,-2165.72 329.5,-2161.72 333.5,-2161.72 333.5,-2141.72 329.5,-2141.72 329.5,-2137.72 333.5,-2137.72 333.5,-2133.72 497.5,-2133.72 497.5,-2169.72"/>
<polyline fill="none" stroke="black" points="333.5,-2165.72 337.5,-2165.72 337.5,-2161.72 333.5,-2161.72 "/>
<polyline fill="none" stroke="black" points="333.5,-2141.72 337.5,-2141.72 337.5,-2137.72 333.5,-2137.72 "/>
<text text-anchor="middle" x="415.5" y="-2148.02" font-family="Times,serif" font-size="14.00">VARDEN_DYNSMAG</text>
</a>
</g>
</g>
<!-- CALL_7d99a40&#45;&gt;CALL_7d92520 -->
<g id="edge10" class="edge">
<title>CALL_7d99a40&#45;&gt;CALL_7d92520</title>
<path fill="none" stroke="black" d="M415.5,-2205.42C415.5,-2197.7 415.5,-2188.43 415.5,-2179.83"/>
<polygon fill="black" stroke="black" points="419,-2179.82 415.5,-2169.82 412,-2179.82 419,-2179.82"/>
</g>
<!-- COMMENT_7da4c80+1 -->
<g id="node12" class="node">
<title>COMMENT_7da4c80+1</title>
<polygon fill="none" stroke="black" points="551.5,-2097.72 273.5,-2097.72 273.5,-2061.72 557.5,-2061.72 557.5,-2091.72 551.5,-2097.72"/>
<polyline fill="none" stroke="black" points="551.5,-2097.72 551.5,-2091.72 "/>
<polyline fill="none" stroke="black" points="557.5,-2091.72 551.5,-2091.72 "/>
<text text-anchor="middle" x="415.5" y="-2076.02" font-family="Times,serif" font-size="14.00">Velocities relative to the p&#45;cell center</text>
</g>
<!-- CALL_7d92520&#45;&gt;COMMENT_7da4c80+1 -->
<g id="edge11" class="edge">
<title>CALL_7d92520&#45;&gt;COMMENT_7da4c80+1</title>
<path fill="none" stroke="black" d="M415.5,-2133.42C415.5,-2125.7 415.5,-2116.43 415.5,-2107.83"/>
<polygon fill="black" stroke="black" points="419,-2107.82 415.5,-2097.82 412,-2107.82 419,-2107.82"/>
</g>
<!-- start_omp_OMP_BEGIN_REGION_7daaae0+1 -->
<g id="node13" class="node">
<title>start_omp_OMP_BEGIN_REGION_7daaae0+1</title>
<ellipse fill="black" stroke="black" cx="415.5" cy="-2022.36" rx="0.36" ry="0.36"/>
</g>
<!-- COMMENT_7da4c80+1&#45;&gt;start_omp_OMP_BEGIN_REGION_7daaae0+1 -->
<g id="edge12" class="edge">
<title>COMMENT_7da4c80+1&#45;&gt;start_omp_OMP_BEGIN_REGION_7daaae0+1</title>
<path fill="none" stroke="black" d="M415.5,-2061.51C415.5,-2045.76 415.5,-2024.72 415.5,-2023.42"/>
</g>
<!-- COMMENT_7daaae0+2 -->
<g id="node14" class="node">
<title>COMMENT_7daaae0+2</title>
<polygon fill="none" stroke="black" points="586,-1986 239,-1986 239,-1950 592,-1950 592,-1980 586,-1986"/>
<polyline fill="none" stroke="black" points="586,-1986 586,-1980 "/>
<polyline fill="none" stroke="black" points="592,-1980 586,-1980 "/>
<text text-anchor="middle" x="415.5" y="-1964.3" font-family="Times,serif" font-size="14.00">!$OMP DO SCHEDULE(STATIC) PRIVATE(I,J,K)</text>
</g>
<!-- start_omp_OMP_BEGIN_REGION_7daaae0+1&#45;&gt;COMMENT_7daaae0+2 -->
<g id="edge13" class="edge">
<title>start_omp_OMP_BEGIN_REGION_7daaae0+1&#45;&gt;COMMENT_7daaae0+2</title>
<path fill="none" stroke="black" d="M415.5,-2021.85C415.5,-2020.37 415.5,-2008.32 415.5,-1996.1"/>
<polygon fill="black" stroke="black" points="419,-1996.02 415.5,-1986.02 412,-1996.02 419,-1996.02"/>
</g>
<!-- COMMENT_7dbadc0+1 -->
<g id="node15" class="node">
<title>COMMENT_7dbadc0+1</title>
<polygon fill="none" stroke="black" points="475.5,-1914 349.5,-1914 349.5,-1878 481.5,-1878 481.5,-1908 475.5,-1914"/>
<polyline fill="none" stroke="black" points="475.5,-1914 475.5,-1908 "/>
<polyline fill="none" stroke="black" points="481.5,-1908 475.5,-1908 "/>
<text text-anchor="middle" x="415.5" y="-1892.3" font-family="Times,serif" font-size="14.00">!$OMP END DO</text>
</g>
<!-- COMMENT_7daaae0+2&#45;&gt;COMMENT_7dbadc0+1 -->
<g id="edge14" class="edge">
<title>COMMENT_7daaae0+2&#45;&gt;COMMENT_7dbadc0+1</title>
<path fill="none" stroke="black" d="M415.5,-1949.7C415.5,-1941.98 415.5,-1932.71 415.5,-1924.11"/>
<polygon fill="black" stroke="black" points="419,-1924.1 415.5,-1914.1 412,-1924.1 419,-1924.1"/>
</g>
<!-- COMMENT_7dbadc0+2 -->
<g id="node16" class="node">
<title>COMMENT_7dbadc0+2</title>
<polygon fill="none" stroke="black" points="524.5,-1842 300.5,-1842 300.5,-1806 530.5,-1806 530.5,-1836 524.5,-1842"/>
<polyline fill="none" stroke="black" points="524.5,-1842 524.5,-1836 "/>
<polyline fill="none" stroke="black" points="530.5,-1836 524.5,-1836 "/>
<text text-anchor="middle" x="415.5" y="-1820.3" font-family="Times,serif" font-size="14.00">fill mesh boundary ghost cells</text>
</g>
<!-- COMMENT_7dbadc0+1&#45;&gt;COMMENT_7dbadc0+2 -->
<g id="edge15" class="edge">
<title>COMMENT_7dbadc0+1&#45;&gt;COMMENT_7dbadc0+2</title>
<path fill="none" stroke="black" d="M415.5,-1877.7C415.5,-1869.98 415.5,-1860.71 415.5,-1852.11"/>
<polygon fill="black" stroke="black" points="419,-1852.1 415.5,-1842.1 412,-1852.1 419,-1852.1"/>
</g>
<!-- COMMENT_7dbadc0+3 -->
<g id="node17" class="node">
<title>COMMENT_7dbadc0+3</title>
<polygon fill="none" stroke="black" points="607.5,-1770 217.5,-1770 217.5,-1734 613.5,-1734 613.5,-1764 607.5,-1770"/>
<polyline fill="none" stroke="black" points="607.5,-1770 607.5,-1764 "/>
<polyline fill="none" stroke="black" points="613.5,-1764 607.5,-1764 "/>
<text text-anchor="middle" x="415.5" y="-1748.3" font-family="Times,serif" font-size="14.00">!$OMP DO SCHEDULE(STATIC) PRIVATE(IW,WC,BC)</text>
</g>
<!-- COMMENT_7dbadc0+2&#45;&gt;COMMENT_7dbadc0+3 -->
<g id="edge16" class="edge">
<title>COMMENT_7dbadc0+2&#45;&gt;COMMENT_7dbadc0+3</title>
<path fill="none" stroke="black" d="M415.5,-1805.7C415.5,-1797.98 415.5,-1788.71 415.5,-1780.11"/>
<polygon fill="black" stroke="black" points="419,-1780.1 415.5,-1770.1 412,-1780.1 419,-1780.1"/>
</g>
<!-- COMMENT_7dce720+1 -->
<g id="node18" class="node">
<title>COMMENT_7dce720+1</title>
<polygon fill="none" stroke="black" points="475.5,-1698 349.5,-1698 349.5,-1662 481.5,-1662 481.5,-1692 475.5,-1698"/>
<polyline fill="none" stroke="black" points="475.5,-1698 475.5,-1692 "/>
<polyline fill="none" stroke="black" points="481.5,-1692 475.5,-1692 "/>
<text text-anchor="middle" x="415.5" y="-1676.3" font-family="Times,serif" font-size="14.00">!$OMP END DO</text>
</g>
<!-- COMMENT_7dbadc0+3&#45;&gt;COMMENT_7dce720+1 -->
<g id="edge17" class="edge">
<title>COMMENT_7dbadc0+3&#45;&gt;COMMENT_7dce720+1</title>
<path fill="none" stroke="black" d="M415.5,-1733.7C415.5,-1725.98 415.5,-1716.71 415.5,-1708.11"/>
<polygon fill="black" stroke="black" points="419,-1708.1 415.5,-1698.1 412,-1708.1 419,-1708.1"/>
</g>
<!-- COMMENT_7dce720+3 -->
<g id="node19" class="node">
<title>COMMENT_7dce720+3</title>
<polygon fill="none" stroke="black" points="527.5,-1626 297.5,-1626 297.5,-1590 533.5,-1590 533.5,-1620 527.5,-1626"/>
<polyline fill="none" stroke="black" points="527.5,-1626 527.5,-1620 "/>
<polyline fill="none" stroke="black" points="533.5,-1620 527.5,-1620 "/>
<text text-anchor="middle" x="415.5" y="-1604.3" font-family="Times,serif" font-size="14.00">fill edge and corner ghost cells</text>
</g>
<!-- COMMENT_7dce720+1&#45;&gt;COMMENT_7dce720+3 -->
<g id="edge18" class="edge">
<title>COMMENT_7dce720+1&#45;&gt;COMMENT_7dce720+3</title>
<path fill="none" stroke="black" d="M415.5,-1661.7C415.5,-1653.98 415.5,-1644.71 415.5,-1636.11"/>
<polygon fill="black" stroke="black" points="419,-1636.1 415.5,-1626.1 412,-1636.1 419,-1636.1"/>
</g>
<!-- CALL_7dce720 -->
<g id="node20" class="node">
<title>CALL_7dce720</title>
<g id="a_node20"><a xlink:href="FILL_EDGES.svg" xlink:title="FILL_EDGES">
<polygon fill="lightgray" stroke="black" points="470.5,-1554 360.5,-1554 360.5,-1550 356.5,-1550 356.5,-1546 360.5,-1546 360.5,-1526 356.5,-1526 356.5,-1522 360.5,-1522 360.5,-1518 470.5,-1518 470.5,-1554"/>
<polyline fill="none" stroke="black" points="360.5,-1550 364.5,-1550 364.5,-1546 360.5,-1546 "/>
<polyline fill="none" stroke="black" points="360.5,-1526 364.5,-1526 364.5,-1522 360.5,-1522 "/>
<text text-anchor="middle" x="415.5" y="-1532.3" font-family="Times,serif" font-size="14.00">FILL_EDGES</text>
</a>
</g>
</g>
<!-- COMMENT_7dce720+3&#45;&gt;CALL_7dce720 -->
<g id="edge19" class="edge">
<title>COMMENT_7dce720+3&#45;&gt;CALL_7dce720</title>
<path fill="none" stroke="black" d="M415.5,-1589.7C415.5,-1581.98 415.5,-1572.71 415.5,-1564.11"/>
<polygon fill="black" stroke="black" points="419,-1564.1 415.5,-1554.1 412,-1564.1 419,-1564.1"/>
</g>
<!-- CALL_7dcec20 -->
<g id="node21" class="node">
<title>CALL_7dcec20</title>
<g id="a_node21"><a xlink:href="FILL_EDGES.svg" xlink:title="FILL_EDGES">
<polygon fill="lightgray" stroke="black" points="470.5,-1482 360.5,-1482 360.5,-1478 356.5,-1478 356.5,-1474 360.5,-1474 360.5,-1454 356.5,-1454 356.5,-1450 360.5,-1450 360.5,-1446 470.5,-1446 470.5,-1482"/>
<polyline fill="none" stroke="black" points="360.5,-1478 364.5,-1478 364.5,-1474 360.5,-1474 "/>
<polyline fill="none" stroke="black" points="360.5,-1454 364.5,-1454 364.5,-1450 360.5,-1450 "/>
<text text-anchor="middle" x="415.5" y="-1460.3" font-family="Times,serif" font-size="14.00">FILL_EDGES</text>
</a>
</g>
</g>
<!-- CALL_7dce720&#45;&gt;CALL_7dcec20 -->
<g id="edge20" class="edge">
<title>CALL_7dce720&#45;&gt;CALL_7dcec20</title>
<path fill="none" stroke="black" d="M415.5,-1517.7C415.5,-1509.98 415.5,-1500.71 415.5,-1492.11"/>
<polygon fill="black" stroke="black" points="419,-1492.1 415.5,-1482.1 412,-1492.1 419,-1492.1"/>
</g>
<!-- CALL_7dcf140 -->
<g id="node22" class="node">
<title>CALL_7dcf140</title>
<g id="a_node22"><a xlink:href="FILL_EDGES.svg" xlink:title="FILL_EDGES">
<polygon fill="lightgray" stroke="black" points="470.5,-1410 360.5,-1410 360.5,-1406 356.5,-1406 356.5,-1402 360.5,-1402 360.5,-1382 356.5,-1382 356.5,-1378 360.5,-1378 360.5,-1374 470.5,-1374 470.5,-1410"/>
<polyline fill="none" stroke="black" points="360.5,-1406 364.5,-1406 364.5,-1402 360.5,-1402 "/>
<polyline fill="none" stroke="black" points="360.5,-1382 364.5,-1382 364.5,-1378 360.5,-1378 "/>
<text text-anchor="middle" x="415.5" y="-1388.3" font-family="Times,serif" font-size="14.00">FILL_EDGES</text>
</a>
</g>
</g>
<!-- CALL_7dcec20&#45;&gt;CALL_7dcf140 -->
<g id="edge21" class="edge">
<title>CALL_7dcec20&#45;&gt;CALL_7dcf140</title>
<path fill="none" stroke="black" d="M415.5,-1445.7C415.5,-1437.98 415.5,-1428.71 415.5,-1420.11"/>
<polygon fill="black" stroke="black" points="419,-1420.1 415.5,-1410.1 412,-1420.1 419,-1420.1"/>
</g>
<!-- CALL_7dd1c00 -->
<g id="node23" class="node">
<title>CALL_7dd1c00</title>
<g id="a_node23"><a xlink:href="TEST_FILTER.svg" xlink:title="TEST_FILTER">
<polygon fill="lightgray" stroke="black" points="473,-1338 358,-1338 358,-1334 354,-1334 354,-1330 358,-1330 358,-1310 354,-1310 354,-1306 358,-1306 358,-1302 473,-1302 473,-1338"/>
<polyline fill="none" stroke="black" points="358,-1334 362,-1334 362,-1330 358,-1330 "/>
<polyline fill="none" stroke="black" points="358,-1310 362,-1310 362,-1306 358,-1306 "/>
<text text-anchor="middle" x="415.5" y="-1316.3" font-family="Times,serif" font-size="14.00">TEST_FILTER</text>
</a>
</g>
</g>
<!-- CALL_7dcf140&#45;&gt;CALL_7dd1c00 -->
<g id="edge22" class="edge">
<title>CALL_7dcf140&#45;&gt;CALL_7dd1c00</title>
<path fill="none" stroke="black" d="M415.5,-1373.7C415.5,-1365.98 415.5,-1356.71 415.5,-1348.11"/>
<polygon fill="black" stroke="black" points="419,-1348.1 415.5,-1338.1 412,-1348.1 419,-1348.1"/>
</g>
<!-- CALL_7dd2600 -->
<g id="node24" class="node">
<title>CALL_7dd2600</title>
<g id="a_node24"><a xlink:href="TEST_FILTER.svg" xlink:title="TEST_FILTER">
<polygon fill="lightgray" stroke="black" points="473,-1266 358,-1266 358,-1262 354,-1262 354,-1258 358,-1258 358,-1238 354,-1238 354,-1234 358,-1234 358,-1230 473,-1230 473,-1266"/>
<polyline fill="none" stroke="black" points="358,-1262 362,-1262 362,-1258 358,-1258 "/>
<polyline fill="none" stroke="black" points="358,-1238 362,-1238 362,-1234 358,-1234 "/>
<text text-anchor="middle" x="415.5" y="-1244.3" font-family="Times,serif" font-size="14.00">TEST_FILTER</text>
</a>
</g>
</g>
<!-- CALL_7dd1c00&#45;&gt;CALL_7dd2600 -->
<g id="edge23" class="edge">
<title>CALL_7dd1c00&#45;&gt;CALL_7dd2600</title>
<path fill="none" stroke="black" d="M415.5,-1301.7C415.5,-1293.98 415.5,-1284.71 415.5,-1276.11"/>
<polygon fill="black" stroke="black" points="419,-1276.1 415.5,-1266.1 412,-1276.1 419,-1276.1"/>
</g>
<!-- CALL_7dd3000 -->
<g id="node25" class="node">
<title>CALL_7dd3000</title>
<g id="a_node25"><a xlink:href="TEST_FILTER.svg" xlink:title="TEST_FILTER">
<polygon fill="lightgray" stroke="black" points="473,-1194 358,-1194 358,-1190 354,-1190 354,-1186 358,-1186 358,-1166 354,-1166 354,-1162 358,-1162 358,-1158 473,-1158 473,-1194"/>
<polyline fill="none" stroke="black" points="358,-1190 362,-1190 362,-1186 358,-1186 "/>
<polyline fill="none" stroke="black" points="358,-1166 362,-1166 362,-1162 358,-1162 "/>
<text text-anchor="middle" x="415.5" y="-1172.3" font-family="Times,serif" font-size="14.00">TEST_FILTER</text>
</a>
</g>
</g>
<!-- CALL_7dd2600&#45;&gt;CALL_7dd3000 -->
<g id="edge24" class="edge">
<title>CALL_7dd2600&#45;&gt;CALL_7dd3000</title>
<path fill="none" stroke="black" d="M415.5,-1229.7C415.5,-1221.98 415.5,-1212.71 415.5,-1204.11"/>
<polygon fill="black" stroke="black" points="419,-1204.1 415.5,-1194.1 412,-1204.1 419,-1204.1"/>
</g>
<!-- COMMENT_7dd3720+1 -->
<g id="node26" class="node">
<title>COMMENT_7dd3720+1</title>
<polygon fill="none" stroke="black" points="701.5,-1122 123.5,-1122 123.5,-1086 707.5,-1086 707.5,-1116 701.5,-1122"/>
<polyline fill="none" stroke="black" points="701.5,-1122 701.5,-1116 "/>
<polyline fill="none" stroke="black" points="707.5,-1116 701.5,-1116 "/>
<text text-anchor="middle" x="415.5" y="-1100.3" font-family="Times,serif" font-size="14.00">!$OMP PARALLEL DO PRIVATE(DELTA, KSGS, NU_EDDY) SCHEDULE(STATIC)</text>
</g>
<!-- CALL_7dd3000&#45;&gt;COMMENT_7dd3720+1 -->
<g id="edge25" class="edge">
<title>CALL_7dd3000&#45;&gt;COMMENT_7dd3720+1</title>
<path fill="none" stroke="black" d="M415.5,-1157.7C415.5,-1149.98 415.5,-1140.71 415.5,-1132.11"/>
<polygon fill="black" stroke="black" points="419,-1132.1 415.5,-1122.1 412,-1132.1 419,-1132.1"/>
</g>
<!-- COMMENT_7de8ca0+1 -->
<g id="node27" class="node">
<title>COMMENT_7de8ca0+1</title>
<polygon fill="none" stroke="black" points="515.5,-1050 309.5,-1050 309.5,-1014 521.5,-1014 521.5,-1044 515.5,-1050"/>
<polyline fill="none" stroke="black" points="515.5,-1050 515.5,-1044 "/>
<polyline fill="none" stroke="black" points="521.5,-1044 515.5,-1044 "/>
<text text-anchor="middle" x="415.5" y="-1028.3" font-family="Times,serif" font-size="14.00">!$OMP END PARALLEL DO</text>
</g>
<!-- COMMENT_7dd3720+1&#45;&gt;COMMENT_7de8ca0+1 -->
<g id="edge26" class="edge">
<title>COMMENT_7dd3720+1&#45;&gt;COMMENT_7de8ca0+1</title>
<path fill="none" stroke="black" d="M415.5,-1085.7C415.5,-1077.98 415.5,-1068.71 415.5,-1060.11"/>
<polygon fill="black" stroke="black" points="419,-1060.1 415.5,-1050.1 412,-1060.1 419,-1060.1"/>
</g>
<!-- COMMENT_7de8d60+1 -->
<g id="node28" class="node">
<title>COMMENT_7de8d60+1</title>
<polygon fill="none" stroke="black" points="820,-978 5,-978 5,-940 826,-940 826,-972 820,-978"/>
<polyline fill="none" stroke="black" points="820,-978 820,-972 "/>
<polyline fill="none" stroke="black" points="826,-972 820,-972 "/>
<text text-anchor="middle" x="415.5" y="-962.8" font-family="Times,serif" font-size="14.00">A. W. Vreman. An eddy&#45;viscosity subgrid&#45;scale model for turbulent shear flow: Algebraic theory and applications.</text>
<text text-anchor="middle" x="415.5" y="-947.8" font-family="Times,serif" font-size="14.00">Phys. Fluids, 16(10):3670&#45;3681, 2004.</text>
</g>
<!-- COMMENT_7de8ca0+1&#45;&gt;COMMENT_7de8d60+1 -->
<g id="edge27" class="edge">
<title>COMMENT_7de8ca0+1&#45;&gt;COMMENT_7de8d60+1</title>
<path fill="none" stroke="black" d="M415.5,-1013.81C415.5,-1006.11 415.5,-996.82 415.5,-988.15"/>
<polygon fill="black" stroke="black" points="419,-988.02 415.5,-978.02 412,-988.02 419,-988.02"/>
</g>
<!-- COMMENT_972bd20+1 -->
<g id="node29" class="node">
<title>COMMENT_972bd20+1</title>
<polygon fill="none" stroke="black" points="474,-904 351,-904 351,-868 480,-868 480,-898 474,-904"/>
<polyline fill="none" stroke="black" points="474,-904 474,-898 "/>
<polyline fill="none" stroke="black" points="480,-898 474,-898 "/>
<text text-anchor="middle" x="415.5" y="-882.3" font-family="Times,serif" font-size="14.00">Vreman, Eq. (6)</text>
</g>
<!-- COMMENT_7de8d60+1&#45;&gt;COMMENT_972bd20+1 -->
<g id="edge28" class="edge">
<title>COMMENT_7de8d60+1&#45;&gt;COMMENT_972bd20+1</title>
<path fill="none" stroke="black" d="M415.5,-939.72C415.5,-931.97 415.5,-922.79 415.5,-914.27"/>
<polygon fill="black" stroke="black" points="419,-914 415.5,-904 412,-914 419,-914"/>
</g>
<!-- COMMENT_9734700+1 -->
<g id="node30" class="node">
<title>COMMENT_9734700+1</title>
<polygon fill="none" stroke="black" points="474,-832 351,-832 351,-796 480,-796 480,-826 474,-832"/>
<polyline fill="none" stroke="black" points="474,-832 474,-826 "/>
<polyline fill="none" stroke="black" points="480,-826 474,-826 "/>
<text text-anchor="middle" x="415.5" y="-810.3" font-family="Times,serif" font-size="14.00">Vreman, Eq. (7)</text>
</g>
<!-- COMMENT_972bd20+1&#45;&gt;COMMENT_9734700+1 -->
<g id="edge29" class="edge">
<title>COMMENT_972bd20+1&#45;&gt;COMMENT_9734700+1</title>
<path fill="none" stroke="black" d="M415.5,-867.7C415.5,-859.98 415.5,-850.71 415.5,-842.11"/>
<polygon fill="black" stroke="black" points="419,-842.1 415.5,-832.1 412,-842.1 419,-842.1"/>
</g>
<!-- COMMENT_9779fe0+1 -->
<g id="node31" class="node">
<title>COMMENT_9779fe0+1</title>
<polygon fill="none" stroke="black" points="536.5,-760 288.5,-760 288.5,-724 542.5,-724 542.5,-754 536.5,-760"/>
<polyline fill="none" stroke="black" points="536.5,-760 536.5,-754 "/>
<polyline fill="none" stroke="black" points="542.5,-754 536.5,-754 "/>
<text text-anchor="middle" x="415.5" y="-738.3" font-family="Times,serif" font-size="14.00">compute velocity gradient tensor</text>
</g>
<!-- COMMENT_9734700+1&#45;&gt;COMMENT_9779fe0+1 -->
<g id="edge30" class="edge">
<title>COMMENT_9734700+1&#45;&gt;COMMENT_9779fe0+1</title>
<path fill="none" stroke="black" d="M415.5,-795.7C415.5,-787.98 415.5,-778.71 415.5,-770.11"/>
<polygon fill="black" stroke="black" points="419,-770.1 415.5,-760.1 412,-770.1 419,-770.1"/>
</g>
<!-- CALL_97c5360 -->
<g id="node32" class="node">
<title>CALL_97c5360</title>
<g id="a_node32"><a xlink:href="WALE_VISCOSITY.svg" xlink:title="WALE_VISCOSITY">
<polygon fill="lightgray" stroke="black" points="488.5,-688 342.5,-688 342.5,-684 338.5,-684 338.5,-680 342.5,-680 342.5,-660 338.5,-660 338.5,-656 342.5,-656 342.5,-652 488.5,-652 488.5,-688"/>
<polyline fill="none" stroke="black" points="342.5,-684 346.5,-684 346.5,-680 342.5,-680 "/>
<polyline fill="none" stroke="black" points="342.5,-660 346.5,-660 346.5,-656 342.5,-656 "/>
<text text-anchor="middle" x="415.5" y="-666.3" font-family="Times,serif" font-size="14.00">WALE_VISCOSITY</text>
</a>
</g>
</g>
<!-- COMMENT_9779fe0+1&#45;&gt;CALL_97c5360 -->
<g id="edge31" class="edge">
<title>COMMENT_9779fe0+1&#45;&gt;CALL_97c5360</title>
<path fill="none" stroke="black" d="M415.5,-723.7C415.5,-715.98 415.5,-706.71 415.5,-698.11"/>
<polygon fill="black" stroke="black" points="419,-698.1 415.5,-688.1 412,-698.1 419,-698.1"/>
</g>
<!-- COMMENT_97cafe0+1 -->
<g id="node33" class="node">
<title>COMMENT_97cafe0+1</title>
<polygon fill="none" stroke="black" points="587.5,-616 237.5,-616 237.5,-580 593.5,-580 593.5,-610 587.5,-616"/>
<polyline fill="none" stroke="black" points="587.5,-616 587.5,-610 "/>
<polyline fill="none" stroke="black" points="593.5,-610 587.5,-610 "/>
<text text-anchor="middle" x="415.5" y="-594.3" font-family="Times,serif" font-size="14.00">Compute resolved kinetic energy per unit mass</text>
</g>
<!-- CALL_97c5360&#45;&gt;COMMENT_97cafe0+1 -->
<g id="edge32" class="edge">
<title>CALL_97c5360&#45;&gt;COMMENT_97cafe0+1</title>
<path fill="none" stroke="black" d="M415.5,-651.7C415.5,-643.98 415.5,-634.71 415.5,-626.11"/>
<polygon fill="black" stroke="black" points="419,-626.1 415.5,-616.1 412,-626.1 419,-626.1"/>
</g>
<!-- CALL_97db9c0 -->
<g id="node34" class="node">
<title>CALL_97db9c0</title>
<g id="a_node34"><a xlink:href="CC_COMPUTE_KRES.svg" xlink:title="CC_COMPUTE_KRES">
<polygon fill="lightgray" stroke="black" points="500,-544 331,-544 331,-540 327,-540 327,-536 331,-536 331,-516 327,-516 327,-512 331,-512 331,-508 500,-508 500,-544"/>
<polyline fill="none" stroke="black" points="331,-540 335,-540 335,-536 331,-536 "/>
<polyline fill="none" stroke="black" points="331,-516 335,-516 335,-512 331,-512 "/>
<text text-anchor="middle" x="415.5" y="-522.3" font-family="Times,serif" font-size="14.00">CC_COMPUTE_KRES</text>
</a>
</g>
</g>
<!-- COMMENT_97cafe0+1&#45;&gt;CALL_97db9c0 -->
<g id="edge33" class="edge">
<title>COMMENT_97cafe0+1&#45;&gt;CALL_97db9c0</title>
<path fill="none" stroke="black" d="M415.5,-579.7C415.5,-571.98 415.5,-562.71 415.5,-554.11"/>
<polygon fill="black" stroke="black" points="419,-554.1 415.5,-544.1 412,-554.1 419,-554.1"/>
</g>
<!-- COMMENT_97dbe00+1 -->
<g id="node35" class="node">
<title>COMMENT_97dbe00+1</title>
<polygon fill="none" stroke="black" points="614.5,-472 210.5,-472 210.5,-436 620.5,-436 620.5,-466 614.5,-472"/>
<polyline fill="none" stroke="black" points="614.5,-472 614.5,-466 "/>
<polyline fill="none" stroke="black" points="620.5,-466 614.5,-466 "/>
<text text-anchor="middle" x="415.5" y="-450.3" font-family="Times,serif" font-size="14.00">Mirror viscosity into solids and exterior boundary cells</text>
</g>
<!-- CALL_97db9c0&#45;&gt;COMMENT_97dbe00+1 -->
<g id="edge34" class="edge">
<title>CALL_97db9c0&#45;&gt;COMMENT_97dbe00+1</title>
<path fill="none" stroke="black" d="M415.5,-507.7C415.5,-499.98 415.5,-490.71 415.5,-482.11"/>
<polygon fill="black" stroke="black" points="419,-482.1 415.5,-472.1 412,-482.1 419,-482.1"/>
</g>
<!-- COMMENT_97dbe00+2 -->
<g id="node36" class="node">
<title>COMMENT_97dbe00+2</title>
<polygon fill="none" stroke="black" points="608,-400 217,-400 217,-364 614,-364 614,-394 608,-400"/>
<polyline fill="none" stroke="black" points="608,-400 608,-394 "/>
<polyline fill="none" stroke="black" points="614,-394 608,-394 "/>
<text text-anchor="middle" x="415.5" y="-378.3" font-family="Times,serif" font-size="14.00">CELL_COUNTER =&gt; IWORK1 ; CELL_COUNTER = 0</text>
</g>
<!-- COMMENT_97dbe00+1&#45;&gt;COMMENT_97dbe00+2 -->
<g id="edge35" class="edge">
<title>COMMENT_97dbe00+1&#45;&gt;COMMENT_97dbe00+2</title>
<path fill="none" stroke="black" d="M415.5,-435.7C415.5,-427.98 415.5,-418.71 415.5,-410.11"/>
<polygon fill="black" stroke="black" points="419,-410.1 415.5,-400.1 412,-410.1 419,-410.1"/>
</g>
<!-- COMMENT_97f5160+1 -->
<g id="node37" class="node">
<title>COMMENT_97f5160+1</title>
<polygon fill="none" stroke="black" points="536.5,-325 288.5,-325 288.5,-289 542.5,-289 542.5,-319 536.5,-325"/>
<polyline fill="none" stroke="black" points="536.5,-325 536.5,-319 "/>
<polyline fill="none" stroke="black" points="542.5,-319 536.5,-319 "/>
<text text-anchor="middle" x="415.5" y="-303.3" font-family="Times,serif" font-size="14.00">compute velocity gradient tensor</text>
</g>
<!-- COMMENT_97dbe00+2&#45;&gt;COMMENT_97f5160+1 -->
<g id="edge37" class="edge">
<title>COMMENT_97dbe00+2&#45;&gt;COMMENT_97f5160+1</title>
<path fill="none" stroke="black" d="M415.5,-363.7C415.5,-355.25 415.5,-344.87 415.5,-335.37"/>
<polygon fill="black" stroke="black" points="419,-335.18 415.5,-325.18 412,-335.18 419,-335.18"/>
</g>
<!-- CALL_9b3d9c0 -->
<g id="node38" class="node">
<title>CALL_9b3d9c0</title>
<g id="a_node38"><a xlink:href="WALE_VISCOSITY.svg" xlink:title="WALE_VISCOSITY">
<polygon fill="lightgray" stroke="black" points="488.5,-253 342.5,-253 342.5,-249 338.5,-249 338.5,-245 342.5,-245 342.5,-225 338.5,-225 338.5,-221 342.5,-221 342.5,-217 488.5,-217 488.5,-253"/>
<polyline fill="none" stroke="black" points="342.5,-249 346.5,-249 346.5,-245 342.5,-245 "/>
<polyline fill="none" stroke="black" points="342.5,-225 346.5,-225 346.5,-221 342.5,-221 "/>
<text text-anchor="middle" x="415.5" y="-231.3" font-family="Times,serif" font-size="14.00">WALE_VISCOSITY</text>
</a>
</g>
</g>
<!-- COMMENT_97f5160+1&#45;&gt;CALL_9b3d9c0 -->
<g id="edge36" class="edge">
<title>COMMENT_97f5160+1&#45;&gt;CALL_9b3d9c0</title>
<path fill="none" stroke="black" d="M415.5,-288.7C415.5,-280.98 415.5,-271.71 415.5,-263.11"/>
<polygon fill="black" stroke="black" points="419,-263.1 415.5,-253.1 412,-263.1 419,-263.1"/>
</g>
<!-- CALL_9b58f20 -->
<g id="node39" class="node">
<title>CALL_9b58f20</title>
<g id="a_node39"><a xlink:href="CC_COMPUTE_VISCOSITY.svg" xlink:title="CC_COMPUTE_VISCOSITY">
<polygon fill="lightgray" stroke="black" points="519,-181 312,-181 312,-177 308,-177 308,-173 312,-173 312,-153 308,-153 308,-149 312,-149 312,-145 519,-145 519,-181"/>
<polyline fill="none" stroke="black" points="312,-177 316,-177 316,-173 312,-173 "/>
<polyline fill="none" stroke="black" points="312,-153 316,-153 316,-149 312,-149 "/>
<text text-anchor="middle" x="415.5" y="-159.3" font-family="Times,serif" font-size="14.00">CC_COMPUTE_VISCOSITY</text>
</a>
</g>
</g>
<!-- CALL_9b3d9c0&#45;&gt;CALL_9b58f20 -->
<g id="edge38" class="edge">
<title>CALL_9b3d9c0&#45;&gt;CALL_9b58f20</title>
<path fill="none" stroke="black" d="M415.5,-216.7C415.5,-208.98 415.5,-199.71 415.5,-191.11"/>
<polygon fill="black" stroke="black" points="419,-191.1 415.5,-181.1 412,-191.1 419,-191.1"/>
</g>
<!-- CALL_9b5aba0 -->
<g id="node40" class="node">
<title>CALL_9b5aba0</title>
<g id="a_node40"><a xlink:href="CUTFACE_VELOCITIES.svg" xlink:title="CUTFACE_VELOCITIES">
<polygon fill="lightgray" stroke="black" points="508,-109 323,-109 323,-105 319,-105 319,-101 323,-101 323,-81 319,-81 319,-77 323,-77 323,-73 508,-73 508,-109"/>
<polyline fill="none" stroke="black" points="323,-105 327,-105 327,-101 323,-101 "/>
<polyline fill="none" stroke="black" points="323,-81 327,-81 327,-77 323,-77 "/>
<text text-anchor="middle" x="415.5" y="-87.3" font-family="Times,serif" font-size="14.00">CUTFACE_VELOCITIES</text>
</a>
</g>
</g>
<!-- CALL_9b58f20&#45;&gt;CALL_9b5aba0 -->
<g id="edge39" class="edge">
<title>CALL_9b58f20&#45;&gt;CALL_9b5aba0</title>
<path fill="none" stroke="black" d="M415.5,-144.7C415.5,-136.98 415.5,-127.71 415.5,-119.11"/>
<polygon fill="black" stroke="black" points="419,-119.1 415.5,-109.1 412,-119.1 419,-119.1"/>
</g>
<!-- end_SUBPROGRAM_8129aa0 -->
<g id="node41" class="node">
<title>end_SUBPROGRAM_8129aa0</title>
<ellipse fill="black" stroke="black" cx="415.5" cy="-30" rx="7" ry="7"/>
</g>
<!-- CALL_9b5aba0&#45;&gt;end_SUBPROGRAM_8129aa0 -->
<g id="edge40" class="edge">
<title>CALL_9b5aba0&#45;&gt;end_SUBPROGRAM_8129aa0</title>
<path fill="none" stroke="black" d="M415.5,-72.93C415.5,-64.89 415.5,-55.33 415.5,-47.37"/>
<polygon fill="black" stroke="black" points="419,-47.22 415.5,-37.22 412,-47.22 419,-47.22"/>
</g>
</g>
</svg>
