<?xml version="1.0" encoding="UTF-8" standalone="no"?>
<!DOCTYPE svg PUBLIC "-//W3C//DTD SVG 1.1//EN"
 "http://www.w3.org/Graphics/SVG/1.1/DTD/svg11.dtd">
<!-- Generated by graphviz version 2.43.0 (0)
 -->
<!-- Title: COMPUTE_VISCOSITY Pages: 1 -->
<svg width="839pt" height="2964pt"
 viewBox="0.00 0.00 839.00 2963.88" xmlns="http://www.w3.org/2000/svg" xmlns:xlink="http://www.w3.org/1999/xlink">
<g id="graph0" class="graph" transform="scale(1 1) rotate(0) translate(4 2959.88)">
<title>COMPUTE_VISCOSITY</title>
<polygon fill="white" stroke="transparent" points="-4,4 -4,-2959.88 835,-2959.88 835,4 -4,4"/>
<text text-anchor="middle" x="415.5" y="-7.8" font-family="Times,serif" font-size="14.00">COMPUTE_VISCOSITY</text>
<g id="clust1" class="cluster">
<title>cluster_omp_OMP_BEGIN_REGION_7d9e900+1</title>
<polygon fill="none" stroke="red" points="264.5,-2415.16 264.5,-2670.88 567.5,-2670.88 567.5,-2415.16 264.5,-2415.16"/>
<text text-anchor="middle" x="416" y="-2655.68" font-family="Times,serif" font-size="14.00">omp_OMP_BEGIN_REGION_7d9e900+1</text>
</g>
<g id="clust2" class="cluster">
<title>cluster_omp_OMP_BEGIN_REGION_7dbaae0+1</title>
<polygon fill="none" stroke="red" points="209.5,-1727.44 209.5,-2127.16 621.5,-2127.16 621.5,-1727.44 209.5,-1727.44"/>
<text text-anchor="middle" x="360.5" y="-2111.96" font-family="Times,serif" font-size="14.00">omp_OMP_BEGIN_REGION_7dbaae0+1</text>
</g>
<g id="clust3" class="cluster">
<title>cluster_WALL_LOOP</title>
<polygon fill="none" stroke="orange" points="280.5,-209 280.5,-429.44 550.5,-429.44 550.5,-209 280.5,-209"/>
<text text-anchor="middle" x="333.5" y="-414.24" font-family="Times,serif" font-size="14.00">WALL_LOOP</text>
</g>
<!-- start_SUBPROGRAM_8135720 -->
<g id="node1" class="node">
<title>start_SUBPROGRAM_8135720</title>
<ellipse fill="none" stroke="black" cx="415.5" cy="-2948.88" rx="7" ry="7"/>
</g>
<!-- COMMENT_7d89400+1 -->
<g id="node2" class="node">
<title>COMMENT_7d89400+1</title>
<polygon fill="none" stroke="black" points="825,-2905.88 0,-2905.88 0,-2822.88 831,-2822.88 831,-2899.88 825,-2905.88"/>
<polyline fill="none" stroke="black" points="825,-2905.88 825,-2899.88 "/>
<polyline fill="none" stroke="black" points="831,-2899.88 825,-2899.88 "/>
<text text-anchor="middle" x="415.5" y="-2890.68" font-family="Times,serif" font-size="14.00">!&gt; brief Compute the viscosity of the gas.</text>
<text text-anchor="middle" x="415.5" y="-2875.68" font-family="Times,serif" font-size="14.00">!&gt; callergraph</text>
<text text-anchor="middle" x="415.5" y="-2860.68" font-family="Times,serif" font-size="14.00">!&gt; callgraph</text>
<text text-anchor="middle" x="415.5" y="-2845.68" font-family="Times,serif" font-size="14.00">!&gt; param NM Mesh number.</text>
<text text-anchor="middle" x="415.5" y="-2830.68" font-family="Times,serif" font-size="14.00">!&gt; param APPLY_TO_ESTIMATED_VARIABLES Flag indicating f$mu(T,mathbf{u})f$ or f$mu(T^*,mathbf{u}^*)f$</text>
</g>
<!-- start_SUBPROGRAM_8135720&#45;&gt;COMMENT_7d89400+1 -->
<g id="edge1" class="edge">
<title>start_SUBPROGRAM_8135720&#45;&gt;COMMENT_7d89400+1</title>
<path fill="none" stroke="black" d="M415.5,-2941.68C415.5,-2935.77 415.5,-2926.27 415.5,-2915.95"/>
<polygon fill="black" stroke="black" points="419,-2915.89 415.5,-2905.89 412,-2915.89 419,-2915.89"/>
</g>
<!-- CALL_7d8bb40 -->
<g id="node3" class="node">
<title>CALL_7d8bb40</title>
<g id="a_node3"><a xlink:href="POINT_TO_MESH.svg" xlink:title="POINT_TO_MESH">
<polygon fill="lightgray" stroke="black" points="487.5,-2786.88 343.5,-2786.88 343.5,-2782.88 339.5,-2782.88 339.5,-2778.88 343.5,-2778.88 343.5,-2758.88 339.5,-2758.88 339.5,-2754.88 343.5,-2754.88 343.5,-2750.88 487.5,-2750.88 487.5,-2786.88"/>
<polyline fill="none" stroke="black" points="343.5,-2782.88 347.5,-2782.88 347.5,-2778.88 343.5,-2778.88 "/>
<polyline fill="none" stroke="black" points="343.5,-2758.88 347.5,-2758.88 347.5,-2754.88 343.5,-2754.88 "/>
<text text-anchor="middle" x="415.5" y="-2765.18" font-family="Times,serif" font-size="14.00">POINT_TO_MESH</text>
</a>
</g>
</g>
<!-- COMMENT_7d89400+1&#45;&gt;CALL_7d8bb40 -->
<g id="edge2" class="edge">
<title>COMMENT_7d89400+1&#45;&gt;CALL_7d8bb40</title>
<path fill="none" stroke="black" d="M415.5,-2822.64C415.5,-2814.12 415.5,-2805.32 415.5,-2797.41"/>
<polygon fill="black" stroke="black" points="419,-2797.29 415.5,-2787.29 412,-2797.29 419,-2797.29"/>
</g>
<!-- COMMENT_7d9c200+1 -->
<g id="node4" class="node">
<title>COMMENT_7d9c200+1</title>
<polygon fill="none" stroke="black" points="599.5,-2714.88 225.5,-2714.88 225.5,-2678.88 605.5,-2678.88 605.5,-2708.88 599.5,-2714.88"/>
<polyline fill="none" stroke="black" points="599.5,-2714.88 599.5,-2708.88 "/>
<polyline fill="none" stroke="black" points="605.5,-2708.88 599.5,-2708.88 "/>
<text text-anchor="middle" x="415.5" y="-2693.18" font-family="Times,serif" font-size="14.00">Compute viscosity for DNS using primitive species</text>
</g>
<!-- CALL_7d8bb40&#45;&gt;COMMENT_7d9c200+1 -->
<g id="edge3" class="edge">
<title>CALL_7d8bb40&#45;&gt;COMMENT_7d9c200+1</title>
<path fill="none" stroke="black" d="M415.5,-2750.58C415.5,-2742.86 415.5,-2733.59 415.5,-2724.99"/>
<polygon fill="black" stroke="black" points="419,-2724.98 415.5,-2714.98 412,-2724.98 419,-2724.98"/>
</g>
<!-- start_omp_OMP_BEGIN_REGION_7d9e900+1 -->
<g id="node5" class="node">
<title>start_omp_OMP_BEGIN_REGION_7d9e900+1</title>
<ellipse fill="black" stroke="black" cx="415.5" cy="-2639.52" rx="0.36" ry="0.36"/>
</g>
<!-- COMMENT_7d9c200+1&#45;&gt;start_omp_OMP_BEGIN_REGION_7d9e900+1 -->
<g id="edge4" class="edge">
<title>COMMENT_7d9c200+1&#45;&gt;start_omp_OMP_BEGIN_REGION_7d9e900+1</title>
<path fill="none" stroke="black" d="M415.5,-2678.67C415.5,-2662.92 415.5,-2641.88 415.5,-2640.58"/>
</g>
<!-- COMMENT_7d9de60+1 -->
<g id="node6" class="node">
<title>COMMENT_7d9de60+1</title>
<polygon fill="none" stroke="black" points="532.5,-2603.16 292.5,-2603.16 292.5,-2567.16 538.5,-2567.16 538.5,-2597.16 532.5,-2603.16"/>
<polyline fill="none" stroke="black" points="532.5,-2603.16 532.5,-2597.16 "/>
<polyline fill="none" stroke="black" points="538.5,-2597.16 532.5,-2597.16 "/>
<text text-anchor="middle" x="415.5" y="-2581.46" font-family="Times,serif" font-size="14.00">!$OMP DO SCHEDULE(STATIC)</text>
</g>
<!-- start_omp_OMP_BEGIN_REGION_7d9e900+1&#45;&gt;COMMENT_7d9de60+1 -->
<g id="edge5" class="edge">
<title>start_omp_OMP_BEGIN_REGION_7d9e900+1&#45;&gt;COMMENT_7d9de60+1</title>
<path fill="none" stroke="black" d="M415.5,-2639.01C415.5,-2637.53 415.5,-2625.48 415.5,-2613.26"/>
<polygon fill="black" stroke="black" points="419,-2613.18 415.5,-2603.18 412,-2613.18 419,-2613.18"/>
</g>
<!-- CALL_7da6ce0 -->
<g id="node7" class="node">
<title>CALL_7da6ce0</title>
<g id="a_node7"><a xlink:href="GET_VISCOSITY.svg" xlink:title="GET_VISCOSITY">
<polygon fill="lightgray" stroke="black" points="482.5,-2531.16 348.5,-2531.16 348.5,-2527.16 344.5,-2527.16 344.5,-2523.16 348.5,-2523.16 348.5,-2503.16 344.5,-2503.16 344.5,-2499.16 348.5,-2499.16 348.5,-2495.16 482.5,-2495.16 482.5,-2531.16"/>
<polyline fill="none" stroke="black" points="348.5,-2527.16 352.5,-2527.16 352.5,-2523.16 348.5,-2523.16 "/>
<polyline fill="none" stroke="black" points="348.5,-2503.16 352.5,-2503.16 352.5,-2499.16 348.5,-2499.16 "/>
<text text-anchor="middle" x="415.5" y="-2509.46" font-family="Times,serif" font-size="14.00">GET_VISCOSITY</text>
</a>
</g>
</g>
<!-- COMMENT_7d9de60+1&#45;&gt;CALL_7da6ce0 -->
<g id="edge6" class="edge">
<title>COMMENT_7d9de60+1&#45;&gt;CALL_7da6ce0</title>
<path fill="none" stroke="black" d="M415.5,-2566.86C415.5,-2559.14 415.5,-2549.87 415.5,-2541.27"/>
<polygon fill="black" stroke="black" points="419,-2541.26 415.5,-2531.26 412,-2541.26 419,-2541.26"/>
</g>
<!-- COMMENT_7da78e0+1 -->
<g id="node8" class="node">
<title>COMMENT_7da78e0+1</title>
<polygon fill="none" stroke="black" points="475.5,-2459.16 349.5,-2459.16 349.5,-2423.16 481.5,-2423.16 481.5,-2453.16 475.5,-2459.16"/>
<polyline fill="none" stroke="black" points="475.5,-2459.16 475.5,-2453.16 "/>
<polyline fill="none" stroke="black" points="481.5,-2453.16 475.5,-2453.16 "/>
<text text-anchor="middle" x="415.5" y="-2437.46" font-family="Times,serif" font-size="14.00">!$OMP END DO</text>
</g>
<!-- CALL_7da6ce0&#45;&gt;COMMENT_7da78e0+1 -->
<g id="edge7" class="edge">
<title>CALL_7da6ce0&#45;&gt;COMMENT_7da78e0+1</title>
<path fill="none" stroke="black" d="M415.5,-2494.86C415.5,-2487.14 415.5,-2477.87 415.5,-2469.27"/>
<polygon fill="black" stroke="black" points="419,-2469.26 415.5,-2459.26 412,-2469.26 419,-2469.26"/>
</g>
<!-- CALL_7daa280 -->
<g id="node9" class="node">
<title>CALL_7daa280</title>
<g id="a_node9"><a xlink:href="CUTFACE_VELOCITIES.svg" xlink:title="CUTFACE_VELOCITIES">
<polygon fill="lightgray" stroke="black" points="508,-2387.16 323,-2387.16 323,-2383.16 319,-2383.16 319,-2379.16 323,-2379.16 323,-2359.16 319,-2359.16 319,-2355.16 323,-2355.16 323,-2351.16 508,-2351.16 508,-2387.16"/>
<polyline fill="none" stroke="black" points="323,-2383.16 327,-2383.16 327,-2379.16 323,-2379.16 "/>
<polyline fill="none" stroke="black" points="323,-2359.16 327,-2359.16 327,-2355.16 323,-2355.16 "/>
<text text-anchor="middle" x="415.5" y="-2365.46" font-family="Times,serif" font-size="14.00">CUTFACE_VELOCITIES</text>
</a>
</g>
</g>
<!-- COMMENT_7da78e0+1&#45;&gt;CALL_7daa280 -->
<g id="edge8" class="edge">
<title>COMMENT_7da78e0+1&#45;&gt;CALL_7daa280</title>
<path fill="none" stroke="black" d="M415.5,-2422.86C415.5,-2415.14 415.5,-2405.87 415.5,-2397.27"/>
<polygon fill="black" stroke="black" points="419,-2397.26 415.5,-2387.26 412,-2397.26 419,-2397.26"/>
</g>
<!-- CALL_7da9a40 -->
<g id="node10" class="node">
<title>CALL_7da9a40</title>
<g id="a_node10"><a xlink:href="COMPUTE_STRAIN_RATE.svg" xlink:title="COMPUTE_STRAIN_RATE">
<polygon fill="lightgray" stroke="black" points="516.5,-2315.16 314.5,-2315.16 314.5,-2311.16 310.5,-2311.16 310.5,-2307.16 314.5,-2307.16 314.5,-2287.16 310.5,-2287.16 310.5,-2283.16 314.5,-2283.16 314.5,-2279.16 516.5,-2279.16 516.5,-2315.16"/>
<polyline fill="none" stroke="black" points="314.5,-2311.16 318.5,-2311.16 318.5,-2307.16 314.5,-2307.16 "/>
<polyline fill="none" stroke="black" points="314.5,-2287.16 318.5,-2287.16 318.5,-2283.16 314.5,-2283.16 "/>
<text text-anchor="middle" x="415.5" y="-2293.46" font-family="Times,serif" font-size="14.00">COMPUTE_STRAIN_RATE</text>
</a>
</g>
</g>
<!-- CALL_7daa280&#45;&gt;CALL_7da9a40 -->
<g id="edge9" class="edge">
<title>CALL_7daa280&#45;&gt;CALL_7da9a40</title>
<path fill="none" stroke="black" d="M415.5,-2350.86C415.5,-2343.14 415.5,-2333.87 415.5,-2325.27"/>
<polygon fill="black" stroke="black" points="419,-2325.26 415.5,-2315.26 412,-2325.26 419,-2325.26"/>
</g>
<!-- CALL_7da2520 -->
<g id="node11" class="node">
<title>CALL_7da2520</title>
<g id="a_node11"><a xlink:href="VARDEN_DYNSMAG.svg" xlink:title="VARDEN_DYNSMAG">
<polygon fill="lightgray" stroke="black" points="497.5,-2243.16 333.5,-2243.16 333.5,-2239.16 329.5,-2239.16 329.5,-2235.16 333.5,-2235.16 333.5,-2215.16 329.5,-2215.16 329.5,-2211.16 333.5,-2211.16 333.5,-2207.16 497.5,-2207.16 497.5,-2243.16"/>
<polyline fill="none" stroke="black" points="333.5,-2239.16 337.5,-2239.16 337.5,-2235.16 333.5,-2235.16 "/>
<polyline fill="none" stroke="black" points="333.5,-2215.16 337.5,-2215.16 337.5,-2211.16 333.5,-2211.16 "/>
<text text-anchor="middle" x="415.5" y="-2221.46" font-family="Times,serif" font-size="14.00">VARDEN_DYNSMAG</text>
</a>
</g>
</g>
<!-- CALL_7da9a40&#45;&gt;CALL_7da2520 -->
<g id="edge10" class="edge">
<title>CALL_7da9a40&#45;&gt;CALL_7da2520</title>
<path fill="none" stroke="black" d="M415.5,-2278.86C415.5,-2271.14 415.5,-2261.87 415.5,-2253.27"/>
<polygon fill="black" stroke="black" points="419,-2253.26 415.5,-2243.26 412,-2253.26 419,-2253.26"/>
</g>
<!-- COMMENT_7db4c80+1 -->
<g id="node12" class="node">
<title>COMMENT_7db4c80+1</title>
<polygon fill="none" stroke="black" points="551.5,-2171.16 273.5,-2171.16 273.5,-2135.16 557.5,-2135.16 557.5,-2165.16 551.5,-2171.16"/>
<polyline fill="none" stroke="black" points="551.5,-2171.16 551.5,-2165.16 "/>
<polyline fill="none" stroke="black" points="557.5,-2165.16 551.5,-2165.16 "/>
<text text-anchor="middle" x="415.5" y="-2149.46" font-family="Times,serif" font-size="14.00">Velocities relative to the p&#45;cell center</text>
</g>
<!-- CALL_7da2520&#45;&gt;COMMENT_7db4c80+1 -->
<g id="edge11" class="edge">
<title>CALL_7da2520&#45;&gt;COMMENT_7db4c80+1</title>
<path fill="none" stroke="black" d="M415.5,-2206.86C415.5,-2199.14 415.5,-2189.87 415.5,-2181.27"/>
<polygon fill="black" stroke="black" points="419,-2181.26 415.5,-2171.26 412,-2181.26 419,-2181.26"/>
</g>
<!-- start_omp_OMP_BEGIN_REGION_7dbaae0+1 -->
<g id="node13" class="node">
<title>start_omp_OMP_BEGIN_REGION_7dbaae0+1</title>
<ellipse fill="black" stroke="black" cx="415.5" cy="-2095.8" rx="0.36" ry="0.36"/>
</g>
<!-- COMMENT_7db4c80+1&#45;&gt;start_omp_OMP_BEGIN_REGION_7dbaae0+1 -->
<g id="edge12" class="edge">
<title>COMMENT_7db4c80+1&#45;&gt;start_omp_OMP_BEGIN_REGION_7dbaae0+1</title>
<path fill="none" stroke="black" d="M415.5,-2134.95C415.5,-2119.2 415.5,-2098.16 415.5,-2096.86"/>
</g>
<!-- COMMENT_7dbaae0+2 -->
<g id="node14" class="node">
<title>COMMENT_7dbaae0+2</title>
<polygon fill="none" stroke="black" points="586,-2059.44 239,-2059.44 239,-2023.44 592,-2023.44 592,-2053.44 586,-2059.44"/>
<polyline fill="none" stroke="black" points="586,-2059.44 586,-2053.44 "/>
<polyline fill="none" stroke="black" points="592,-2053.44 586,-2053.44 "/>
<text text-anchor="middle" x="415.5" y="-2037.74" font-family="Times,serif" font-size="14.00">!$OMP DO SCHEDULE(STATIC) PRIVATE(I,J,K)</text>
</g>
<!-- start_omp_OMP_BEGIN_REGION_7dbaae0+1&#45;&gt;COMMENT_7dbaae0+2 -->
<g id="edge13" class="edge">
<title>start_omp_OMP_BEGIN_REGION_7dbaae0+1&#45;&gt;COMMENT_7dbaae0+2</title>
<path fill="none" stroke="black" d="M415.5,-2095.29C415.5,-2093.81 415.5,-2081.76 415.5,-2069.54"/>
<polygon fill="black" stroke="black" points="419,-2069.46 415.5,-2059.46 412,-2069.46 419,-2069.46"/>
</g>
<!-- COMMENT_7dcadc0+1 -->
<g id="node15" class="node">
<title>COMMENT_7dcadc0+1</title>
<polygon fill="none" stroke="black" points="475.5,-1987.44 349.5,-1987.44 349.5,-1951.44 481.5,-1951.44 481.5,-1981.44 475.5,-1987.44"/>
<polyline fill="none" stroke="black" points="475.5,-1987.44 475.5,-1981.44 "/>
<polyline fill="none" stroke="black" points="481.5,-1981.44 475.5,-1981.44 "/>
<text text-anchor="middle" x="415.5" y="-1965.74" font-family="Times,serif" font-size="14.00">!$OMP END DO</text>
</g>
<!-- COMMENT_7dbaae0+2&#45;&gt;COMMENT_7dcadc0+1 -->
<g id="edge14" class="edge">
<title>COMMENT_7dbaae0+2&#45;&gt;COMMENT_7dcadc0+1</title>
<path fill="none" stroke="black" d="M415.5,-2023.14C415.5,-2015.42 415.5,-2006.15 415.5,-1997.55"/>
<polygon fill="black" stroke="black" points="419,-1997.54 415.5,-1987.54 412,-1997.54 419,-1997.54"/>
</g>
<!-- COMMENT_7dcadc0+2 -->
<g id="node16" class="node">
<title>COMMENT_7dcadc0+2</title>
<polygon fill="none" stroke="black" points="524.5,-1915.44 300.5,-1915.44 300.5,-1879.44 530.5,-1879.44 530.5,-1909.44 524.5,-1915.44"/>
<polyline fill="none" stroke="black" points="524.5,-1915.44 524.5,-1909.44 "/>
<polyline fill="none" stroke="black" points="530.5,-1909.44 524.5,-1909.44 "/>
<text text-anchor="middle" x="415.5" y="-1893.74" font-family="Times,serif" font-size="14.00">fill mesh boundary ghost cells</text>
</g>
<!-- COMMENT_7dcadc0+1&#45;&gt;COMMENT_7dcadc0+2 -->
<g id="edge15" class="edge">
<title>COMMENT_7dcadc0+1&#45;&gt;COMMENT_7dcadc0+2</title>
<path fill="none" stroke="black" d="M415.5,-1951.14C415.5,-1943.42 415.5,-1934.15 415.5,-1925.55"/>
<polygon fill="black" stroke="black" points="419,-1925.54 415.5,-1915.54 412,-1925.54 419,-1925.54"/>
</g>
<!-- COMMENT_7dcadc0+3 -->
<g id="node17" class="node">
<title>COMMENT_7dcadc0+3</title>
<polygon fill="none" stroke="black" points="607.5,-1843.44 217.5,-1843.44 217.5,-1807.44 613.5,-1807.44 613.5,-1837.44 607.5,-1843.44"/>
<polyline fill="none" stroke="black" points="607.5,-1843.44 607.5,-1837.44 "/>
<polyline fill="none" stroke="black" points="613.5,-1837.44 607.5,-1837.44 "/>
<text text-anchor="middle" x="415.5" y="-1821.74" font-family="Times,serif" font-size="14.00">!$OMP DO SCHEDULE(STATIC) PRIVATE(IW,WC,BC)</text>
</g>
<!-- COMMENT_7dcadc0+2&#45;&gt;COMMENT_7dcadc0+3 -->
<g id="edge16" class="edge">
<title>COMMENT_7dcadc0+2&#45;&gt;COMMENT_7dcadc0+3</title>
<path fill="none" stroke="black" d="M415.5,-1879.14C415.5,-1871.42 415.5,-1862.15 415.5,-1853.55"/>
<polygon fill="black" stroke="black" points="419,-1853.54 415.5,-1843.54 412,-1853.54 419,-1853.54"/>
</g>
<!-- COMMENT_7dde720+1 -->
<g id="node18" class="node">
<title>COMMENT_7dde720+1</title>
<polygon fill="none" stroke="black" points="475.5,-1771.44 349.5,-1771.44 349.5,-1735.44 481.5,-1735.44 481.5,-1765.44 475.5,-1771.44"/>
<polyline fill="none" stroke="black" points="475.5,-1771.44 475.5,-1765.44 "/>
<polyline fill="none" stroke="black" points="481.5,-1765.44 475.5,-1765.44 "/>
<text text-anchor="middle" x="415.5" y="-1749.74" font-family="Times,serif" font-size="14.00">!$OMP END DO</text>
</g>
<!-- COMMENT_7dcadc0+3&#45;&gt;COMMENT_7dde720+1 -->
<g id="edge17" class="edge">
<title>COMMENT_7dcadc0+3&#45;&gt;COMMENT_7dde720+1</title>
<path fill="none" stroke="black" d="M415.5,-1807.14C415.5,-1799.42 415.5,-1790.15 415.5,-1781.55"/>
<polygon fill="black" stroke="black" points="419,-1781.54 415.5,-1771.54 412,-1781.54 419,-1781.54"/>
</g>
<!-- COMMENT_7dde720+3 -->
<g id="node19" class="node">
<title>COMMENT_7dde720+3</title>
<polygon fill="none" stroke="black" points="527.5,-1699.44 297.5,-1699.44 297.5,-1663.44 533.5,-1663.44 533.5,-1693.44 527.5,-1699.44"/>
<polyline fill="none" stroke="black" points="527.5,-1699.44 527.5,-1693.44 "/>
<polyline fill="none" stroke="black" points="533.5,-1693.44 527.5,-1693.44 "/>
<text text-anchor="middle" x="415.5" y="-1677.74" font-family="Times,serif" font-size="14.00">fill edge and corner ghost cells</text>
</g>
<!-- COMMENT_7dde720+1&#45;&gt;COMMENT_7dde720+3 -->
<g id="edge18" class="edge">
<title>COMMENT_7dde720+1&#45;&gt;COMMENT_7dde720+3</title>
<path fill="none" stroke="black" d="M415.5,-1735.14C415.5,-1727.42 415.5,-1718.15 415.5,-1709.55"/>
<polygon fill="black" stroke="black" points="419,-1709.54 415.5,-1699.54 412,-1709.54 419,-1709.54"/>
</g>
<!-- CALL_7dde720 -->
<g id="node20" class="node">
<title>CALL_7dde720</title>
<g id="a_node20"><a xlink:href="FILL_EDGES.svg" xlink:title="FILL_EDGES">
<polygon fill="lightgray" stroke="black" points="470.5,-1627.44 360.5,-1627.44 360.5,-1623.44 356.5,-1623.44 356.5,-1619.44 360.5,-1619.44 360.5,-1599.44 356.5,-1599.44 356.5,-1595.44 360.5,-1595.44 360.5,-1591.44 470.5,-1591.44 470.5,-1627.44"/>
<polyline fill="none" stroke="black" points="360.5,-1623.44 364.5,-1623.44 364.5,-1619.44 360.5,-1619.44 "/>
<polyline fill="none" stroke="black" points="360.5,-1599.44 364.5,-1599.44 364.5,-1595.44 360.5,-1595.44 "/>
<text text-anchor="middle" x="415.5" y="-1605.74" font-family="Times,serif" font-size="14.00">FILL_EDGES</text>
</a>
</g>
</g>
<!-- COMMENT_7dde720+3&#45;&gt;CALL_7dde720 -->
<g id="edge19" class="edge">
<title>COMMENT_7dde720+3&#45;&gt;CALL_7dde720</title>
<path fill="none" stroke="black" d="M415.5,-1663.14C415.5,-1655.42 415.5,-1646.15 415.5,-1637.55"/>
<polygon fill="black" stroke="black" points="419,-1637.54 415.5,-1627.54 412,-1637.54 419,-1637.54"/>
</g>
<!-- CALL_7ddec20 -->
<g id="node21" class="node">
<title>CALL_7ddec20</title>
<g id="a_node21"><a xlink:href="FILL_EDGES.svg" xlink:title="FILL_EDGES">
<polygon fill="lightgray" stroke="black" points="470.5,-1555.44 360.5,-1555.44 360.5,-1551.44 356.5,-1551.44 356.5,-1547.44 360.5,-1547.44 360.5,-1527.44 356.5,-1527.44 356.5,-1523.44 360.5,-1523.44 360.5,-1519.44 470.5,-1519.44 470.5,-1555.44"/>
<polyline fill="none" stroke="black" points="360.5,-1551.44 364.5,-1551.44 364.5,-1547.44 360.5,-1547.44 "/>
<polyline fill="none" stroke="black" points="360.5,-1527.44 364.5,-1527.44 364.5,-1523.44 360.5,-1523.44 "/>
<text text-anchor="middle" x="415.5" y="-1533.74" font-family="Times,serif" font-size="14.00">FILL_EDGES</text>
</a>
</g>
</g>
<!-- CALL_7dde720&#45;&gt;CALL_7ddec20 -->
<g id="edge20" class="edge">
<title>CALL_7dde720&#45;&gt;CALL_7ddec20</title>
<path fill="none" stroke="black" d="M415.5,-1591.14C415.5,-1583.42 415.5,-1574.15 415.5,-1565.55"/>
<polygon fill="black" stroke="black" points="419,-1565.54 415.5,-1555.54 412,-1565.54 419,-1565.54"/>
</g>
<!-- CALL_7ddf140 -->
<g id="node22" class="node">
<title>CALL_7ddf140</title>
<g id="a_node22"><a xlink:href="FILL_EDGES.svg" xlink:title="FILL_EDGES">
<polygon fill="lightgray" stroke="black" points="470.5,-1483.44 360.5,-1483.44 360.5,-1479.44 356.5,-1479.44 356.5,-1475.44 360.5,-1475.44 360.5,-1455.44 356.5,-1455.44 356.5,-1451.44 360.5,-1451.44 360.5,-1447.44 470.5,-1447.44 470.5,-1483.44"/>
<polyline fill="none" stroke="black" points="360.5,-1479.44 364.5,-1479.44 364.5,-1475.44 360.5,-1475.44 "/>
<polyline fill="none" stroke="black" points="360.5,-1455.44 364.5,-1455.44 364.5,-1451.44 360.5,-1451.44 "/>
<text text-anchor="middle" x="415.5" y="-1461.74" font-family="Times,serif" font-size="14.00">FILL_EDGES</text>
</a>
</g>
</g>
<!-- CALL_7ddec20&#45;&gt;CALL_7ddf140 -->
<g id="edge21" class="edge">
<title>CALL_7ddec20&#45;&gt;CALL_7ddf140</title>
<path fill="none" stroke="black" d="M415.5,-1519.14C415.5,-1511.42 415.5,-1502.15 415.5,-1493.55"/>
<polygon fill="black" stroke="black" points="419,-1493.54 415.5,-1483.54 412,-1493.54 419,-1493.54"/>
</g>
<!-- CALL_7de1c00 -->
<g id="node23" class="node">
<title>CALL_7de1c00</title>
<g id="a_node23"><a xlink:href="TEST_FILTER.svg" xlink:title="TEST_FILTER">
<polygon fill="lightgray" stroke="black" points="473,-1411.44 358,-1411.44 358,-1407.44 354,-1407.44 354,-1403.44 358,-1403.44 358,-1383.44 354,-1383.44 354,-1379.44 358,-1379.44 358,-1375.44 473,-1375.44 473,-1411.44"/>
<polyline fill="none" stroke="black" points="358,-1407.44 362,-1407.44 362,-1403.44 358,-1403.44 "/>
<polyline fill="none" stroke="black" points="358,-1383.44 362,-1383.44 362,-1379.44 358,-1379.44 "/>
<text text-anchor="middle" x="415.5" y="-1389.74" font-family="Times,serif" font-size="14.00">TEST_FILTER</text>
</a>
</g>
</g>
<!-- CALL_7ddf140&#45;&gt;CALL_7de1c00 -->
<g id="edge22" class="edge">
<title>CALL_7ddf140&#45;&gt;CALL_7de1c00</title>
<path fill="none" stroke="black" d="M415.5,-1447.14C415.5,-1439.42 415.5,-1430.15 415.5,-1421.55"/>
<polygon fill="black" stroke="black" points="419,-1421.54 415.5,-1411.54 412,-1421.54 419,-1421.54"/>
</g>
<!-- CALL_7de2600 -->
<g id="node24" class="node">
<title>CALL_7de2600</title>
<g id="a_node24"><a xlink:href="TEST_FILTER.svg" xlink:title="TEST_FILTER">
<polygon fill="lightgray" stroke="black" points="473,-1339.44 358,-1339.44 358,-1335.44 354,-1335.44 354,-1331.44 358,-1331.44 358,-1311.44 354,-1311.44 354,-1307.44 358,-1307.44 358,-1303.44 473,-1303.44 473,-1339.44"/>
<polyline fill="none" stroke="black" points="358,-1335.44 362,-1335.44 362,-1331.44 358,-1331.44 "/>
<polyline fill="none" stroke="black" points="358,-1311.44 362,-1311.44 362,-1307.44 358,-1307.44 "/>
<text text-anchor="middle" x="415.5" y="-1317.74" font-family="Times,serif" font-size="14.00">TEST_FILTER</text>
</a>
</g>
</g>
<!-- CALL_7de1c00&#45;&gt;CALL_7de2600 -->
<g id="edge23" class="edge">
<title>CALL_7de1c00&#45;&gt;CALL_7de2600</title>
<path fill="none" stroke="black" d="M415.5,-1375.14C415.5,-1367.42 415.5,-1358.15 415.5,-1349.55"/>
<polygon fill="black" stroke="black" points="419,-1349.54 415.5,-1339.54 412,-1349.54 419,-1349.54"/>
</g>
<!-- CALL_7de3000 -->
<g id="node25" class="node">
<title>CALL_7de3000</title>
<g id="a_node25"><a xlink:href="TEST_FILTER.svg" xlink:title="TEST_FILTER">
<polygon fill="lightgray" stroke="black" points="473,-1267.44 358,-1267.44 358,-1263.44 354,-1263.44 354,-1259.44 358,-1259.44 358,-1239.44 354,-1239.44 354,-1235.44 358,-1235.44 358,-1231.44 473,-1231.44 473,-1267.44"/>
<polyline fill="none" stroke="black" points="358,-1263.44 362,-1263.44 362,-1259.44 358,-1259.44 "/>
<polyline fill="none" stroke="black" points="358,-1239.44 362,-1239.44 362,-1235.44 358,-1235.44 "/>
<text text-anchor="middle" x="415.5" y="-1245.74" font-family="Times,serif" font-size="14.00">TEST_FILTER</text>
</a>
</g>
</g>
<!-- CALL_7de2600&#45;&gt;CALL_7de3000 -->
<g id="edge24" class="edge">
<title>CALL_7de2600&#45;&gt;CALL_7de3000</title>
<path fill="none" stroke="black" d="M415.5,-1303.14C415.5,-1295.42 415.5,-1286.15 415.5,-1277.55"/>
<polygon fill="black" stroke="black" points="419,-1277.54 415.5,-1267.54 412,-1277.54 419,-1277.54"/>
</g>
<!-- COMMENT_7de3720+1 -->
<g id="node26" class="node">
<title>COMMENT_7de3720+1</title>
<polygon fill="none" stroke="black" points="701.5,-1195.44 123.5,-1195.44 123.5,-1159.44 707.5,-1159.44 707.5,-1189.44 701.5,-1195.44"/>
<polyline fill="none" stroke="black" points="701.5,-1195.44 701.5,-1189.44 "/>
<polyline fill="none" stroke="black" points="707.5,-1189.44 701.5,-1189.44 "/>
<text text-anchor="middle" x="415.5" y="-1173.74" font-family="Times,serif" font-size="14.00">!$OMP PARALLEL DO PRIVATE(DELTA, KSGS, NU_EDDY) SCHEDULE(STATIC)</text>
</g>
<!-- CALL_7de3000&#45;&gt;COMMENT_7de3720+1 -->
<g id="edge25" class="edge">
<title>CALL_7de3000&#45;&gt;COMMENT_7de3720+1</title>
<path fill="none" stroke="black" d="M415.5,-1231.14C415.5,-1223.42 415.5,-1214.15 415.5,-1205.55"/>
<polygon fill="black" stroke="black" points="419,-1205.54 415.5,-1195.54 412,-1205.54 419,-1205.54"/>
</g>
<!-- COMMENT_7df8ca0+1 -->
<g id="node27" class="node">
<title>COMMENT_7df8ca0+1</title>
<polygon fill="none" stroke="black" points="515.5,-1123.44 309.5,-1123.44 309.5,-1087.44 521.5,-1087.44 521.5,-1117.44 515.5,-1123.44"/>
<polyline fill="none" stroke="black" points="515.5,-1123.44 515.5,-1117.44 "/>
<polyline fill="none" stroke="black" points="521.5,-1117.44 515.5,-1117.44 "/>
<text text-anchor="middle" x="415.5" y="-1101.74" font-family="Times,serif" font-size="14.00">!$OMP END PARALLEL DO</text>
</g>
<!-- COMMENT_7de3720+1&#45;&gt;COMMENT_7df8ca0+1 -->
<g id="edge26" class="edge">
<title>COMMENT_7de3720+1&#45;&gt;COMMENT_7df8ca0+1</title>
<path fill="none" stroke="black" d="M415.5,-1159.14C415.5,-1151.42 415.5,-1142.15 415.5,-1133.55"/>
<polygon fill="black" stroke="black" points="419,-1133.54 415.5,-1123.54 412,-1133.54 419,-1133.54"/>
</g>
<!-- COMMENT_7df8d60+1 -->
<g id="node28" class="node">
<title>COMMENT_7df8d60+1</title>
<polygon fill="none" stroke="black" points="820,-1051.44 5,-1051.44 5,-1013.44 826,-1013.44 826,-1045.44 820,-1051.44"/>
<polyline fill="none" stroke="black" points="820,-1051.44 820,-1045.44 "/>
<polyline fill="none" stroke="black" points="826,-1045.44 820,-1045.44 "/>
<text text-anchor="middle" x="415.5" y="-1036.24" font-family="Times,serif" font-size="14.00">A. W. Vreman. An eddy&#45;viscosity subgrid&#45;scale model for turbulent shear flow: Algebraic theory and applications.</text>
<text text-anchor="middle" x="415.5" y="-1021.24" font-family="Times,serif" font-size="14.00">Phys. Fluids, 16(10):3670&#45;3681, 2004.</text>
</g>
<!-- COMMENT_7df8ca0+1&#45;&gt;COMMENT_7df8d60+1 -->
<g id="edge27" class="edge">
<title>COMMENT_7df8ca0+1&#45;&gt;COMMENT_7df8d60+1</title>
<path fill="none" stroke="black" d="M415.5,-1087.25C415.5,-1079.55 415.5,-1070.26 415.5,-1061.59"/>
<polygon fill="black" stroke="black" points="419,-1061.46 415.5,-1051.46 412,-1061.46 419,-1061.46"/>
</g>
<!-- COMMENT_9b3bd20+1 -->
<g id="node29" class="node">
<title>COMMENT_9b3bd20+1</title>
<polygon fill="none" stroke="black" points="474,-977.44 351,-977.44 351,-941.44 480,-941.44 480,-971.44 474,-977.44"/>
<polyline fill="none" stroke="black" points="474,-977.44 474,-971.44 "/>
<polyline fill="none" stroke="black" points="480,-971.44 474,-971.44 "/>
<text text-anchor="middle" x="415.5" y="-955.74" font-family="Times,serif" font-size="14.00">Vreman, Eq. (6)</text>
</g>
<!-- COMMENT_7df8d60+1&#45;&gt;COMMENT_9b3bd20+1 -->
<g id="edge28" class="edge">
<title>COMMENT_7df8d60+1&#45;&gt;COMMENT_9b3bd20+1</title>
<path fill="none" stroke="black" d="M415.5,-1013.16C415.5,-1005.41 415.5,-996.23 415.5,-987.71"/>
<polygon fill="black" stroke="black" points="419,-987.44 415.5,-977.44 412,-987.44 419,-987.44"/>
</g>
<!-- COMMENT_9b44700+1 -->
<g id="node30" class="node">
<title>COMMENT_9b44700+1</title>
<polygon fill="none" stroke="black" points="474,-905.44 351,-905.44 351,-869.44 480,-869.44 480,-899.44 474,-905.44"/>
<polyline fill="none" stroke="black" points="474,-905.44 474,-899.44 "/>
<polyline fill="none" stroke="black" points="480,-899.44 474,-899.44 "/>
<text text-anchor="middle" x="415.5" y="-883.74" font-family="Times,serif" font-size="14.00">Vreman, Eq. (7)</text>
</g>
<!-- COMMENT_9b3bd20+1&#45;&gt;COMMENT_9b44700+1 -->
<g id="edge29" class="edge">
<title>COMMENT_9b3bd20+1&#45;&gt;COMMENT_9b44700+1</title>
<path fill="none" stroke="black" d="M415.5,-941.14C415.5,-933.42 415.5,-924.15 415.5,-915.55"/>
<polygon fill="black" stroke="black" points="419,-915.54 415.5,-905.54 412,-915.54 419,-915.54"/>
</g>
<!-- COMMENT_9b89fe0+1 -->
<g id="node31" class="node">
<title>COMMENT_9b89fe0+1</title>
<polygon fill="none" stroke="black" points="536.5,-833.44 288.5,-833.44 288.5,-797.44 542.5,-797.44 542.5,-827.44 536.5,-833.44"/>
<polyline fill="none" stroke="black" points="536.5,-833.44 536.5,-827.44 "/>
<polyline fill="none" stroke="black" points="542.5,-827.44 536.5,-827.44 "/>
<text text-anchor="middle" x="415.5" y="-811.74" font-family="Times,serif" font-size="14.00">compute velocity gradient tensor</text>
</g>
<!-- COMMENT_9b44700+1&#45;&gt;COMMENT_9b89fe0+1 -->
<g id="edge30" class="edge">
<title>COMMENT_9b44700+1&#45;&gt;COMMENT_9b89fe0+1</title>
<path fill="none" stroke="black" d="M415.5,-869.14C415.5,-861.42 415.5,-852.15 415.5,-843.55"/>
<polygon fill="black" stroke="black" points="419,-843.54 415.5,-833.54 412,-843.54 419,-843.54"/>
</g>
<!-- CALL_9bd5360 -->
<g id="node32" class="node">
<title>CALL_9bd5360</title>
<g id="a_node32"><a xlink:href="WALE_VISCOSITY.svg" xlink:title="WALE_VISCOSITY">
<polygon fill="lightgray" stroke="black" points="488.5,-761.44 342.5,-761.44 342.5,-757.44 338.5,-757.44 338.5,-753.44 342.5,-753.44 342.5,-733.44 338.5,-733.44 338.5,-729.44 342.5,-729.44 342.5,-725.44 488.5,-725.44 488.5,-761.44"/>
<polyline fill="none" stroke="black" points="342.5,-757.44 346.5,-757.44 346.5,-753.44 342.5,-753.44 "/>
<polyline fill="none" stroke="black" points="342.5,-733.44 346.5,-733.44 346.5,-729.44 342.5,-729.44 "/>
<text text-anchor="middle" x="415.5" y="-739.74" font-family="Times,serif" font-size="14.00">WALE_VISCOSITY</text>
</a>
</g>
</g>
<!-- COMMENT_9b89fe0+1&#45;&gt;CALL_9bd5360 -->
<g id="edge31" class="edge">
<title>COMMENT_9b89fe0+1&#45;&gt;CALL_9bd5360</title>
<path fill="none" stroke="black" d="M415.5,-797.14C415.5,-789.42 415.5,-780.15 415.5,-771.55"/>
<polygon fill="black" stroke="black" points="419,-771.54 415.5,-761.54 412,-771.54 419,-771.54"/>
</g>
<!-- COMMENT_9bdafe0+1 -->
<g id="node33" class="node">
<title>COMMENT_9bdafe0+1</title>
<polygon fill="none" stroke="black" points="587.5,-689.44 237.5,-689.44 237.5,-653.44 593.5,-653.44 593.5,-683.44 587.5,-689.44"/>
<polyline fill="none" stroke="black" points="587.5,-689.44 587.5,-683.44 "/>
<polyline fill="none" stroke="black" points="593.5,-683.44 587.5,-683.44 "/>
<text text-anchor="middle" x="415.5" y="-667.74" font-family="Times,serif" font-size="14.00">Compute resolved kinetic energy per unit mass</text>
</g>
<!-- CALL_9bd5360&#45;&gt;COMMENT_9bdafe0+1 -->
<g id="edge32" class="edge">
<title>CALL_9bd5360&#45;&gt;COMMENT_9bdafe0+1</title>
<path fill="none" stroke="black" d="M415.5,-725.14C415.5,-717.42 415.5,-708.15 415.5,-699.55"/>
<polygon fill="black" stroke="black" points="419,-699.54 415.5,-689.54 412,-699.54 419,-699.54"/>
</g>
<!-- CALL_9beb9c0 -->
<g id="node34" class="node">
<title>CALL_9beb9c0</title>
<g id="a_node34"><a xlink:href="CC_COMPUTE_KRES.svg" xlink:title="CC_COMPUTE_KRES">
<polygon fill="lightgray" stroke="black" points="500,-617.44 331,-617.44 331,-613.44 327,-613.44 327,-609.44 331,-609.44 331,-589.44 327,-589.44 327,-585.44 331,-585.44 331,-581.44 500,-581.44 500,-617.44"/>
<polyline fill="none" stroke="black" points="331,-613.44 335,-613.44 335,-609.44 331,-609.44 "/>
<polyline fill="none" stroke="black" points="331,-589.44 335,-589.44 335,-585.44 331,-585.44 "/>
<text text-anchor="middle" x="415.5" y="-595.74" font-family="Times,serif" font-size="14.00">CC_COMPUTE_KRES</text>
</a>
</g>
</g>
<!-- COMMENT_9bdafe0+1&#45;&gt;CALL_9beb9c0 -->
<g id="edge33" class="edge">
<title>COMMENT_9bdafe0+1&#45;&gt;CALL_9beb9c0</title>
<path fill="none" stroke="black" d="M415.5,-653.14C415.5,-645.42 415.5,-636.15 415.5,-627.55"/>
<polygon fill="black" stroke="black" points="419,-627.54 415.5,-617.54 412,-627.54 419,-627.54"/>
</g>
<!-- COMMENT_9bebe00+1 -->
<g id="node35" class="node">
<title>COMMENT_9bebe00+1</title>
<polygon fill="none" stroke="black" points="614.5,-545.44 210.5,-545.44 210.5,-509.44 620.5,-509.44 620.5,-539.44 614.5,-545.44"/>
<polyline fill="none" stroke="black" points="614.5,-545.44 614.5,-539.44 "/>
<polyline fill="none" stroke="black" points="620.5,-539.44 614.5,-539.44 "/>
<text text-anchor="middle" x="415.5" y="-523.74" font-family="Times,serif" font-size="14.00">Mirror viscosity into solids and exterior boundary cells</text>
</g>
<!-- CALL_9beb9c0&#45;&gt;COMMENT_9bebe00+1 -->
<g id="edge34" class="edge">
<title>CALL_9beb9c0&#45;&gt;COMMENT_9bebe00+1</title>
<path fill="none" stroke="black" d="M415.5,-581.14C415.5,-573.42 415.5,-564.15 415.5,-555.55"/>
<polygon fill="black" stroke="black" points="419,-555.54 415.5,-545.54 412,-555.54 419,-555.54"/>
</g>
<!-- COMMENT_9bebe00+2 -->
<g id="node36" class="node">
<title>COMMENT_9bebe00+2</title>
<polygon fill="none" stroke="black" points="608,-473.44 217,-473.44 217,-437.44 614,-437.44 614,-467.44 608,-473.44"/>
<polyline fill="none" stroke="black" points="608,-473.44 608,-467.44 "/>
<polyline fill="none" stroke="black" points="614,-467.44 608,-467.44 "/>
<text text-anchor="middle" x="415.5" y="-451.74" font-family="Times,serif" font-size="14.00">CELL_COUNTER =&gt; IWORK1 ; CELL_COUNTER = 0</text>
</g>
<!-- COMMENT_9bebe00+1&#45;&gt;COMMENT_9bebe00+2 -->
<g id="edge35" class="edge">
<title>COMMENT_9bebe00+1&#45;&gt;COMMENT_9bebe00+2</title>
<path fill="none" stroke="black" d="M415.5,-509.14C415.5,-501.42 415.5,-492.15 415.5,-483.55"/>
<polygon fill="black" stroke="black" points="419,-483.54 415.5,-473.54 412,-483.54 419,-483.54"/>
</g>
<!-- beginDO_DO_9f67440 -->
<g id="node37" class="node">
<title>beginDO_DO_9f67440</title>
<ellipse fill="black" stroke="black" cx="415.5" cy="-398.08" rx="0.36" ry="0.36"/>
</g>
<!-- COMMENT_9bebe00+2&#45;&gt;beginDO_DO_9f67440 -->
<g id="edge38" class="edge">
<title>COMMENT_9bebe00+2&#45;&gt;beginDO_DO_9f67440</title>
<path fill="none" stroke="black" d="M415.5,-437.23C415.5,-421.48 415.5,-400.44 415.5,-399.14"/>
</g>
<!-- COMMENT_9f05160+1 -->
<g id="node39" class="node">
<title>COMMENT_9f05160+1</title>
<polygon fill="none" stroke="black" points="536.5,-361.72 288.5,-361.72 288.5,-325.72 542.5,-325.72 542.5,-355.72 536.5,-361.72"/>
<polyline fill="none" stroke="black" points="536.5,-361.72 536.5,-355.72 "/>
<polyline fill="none" stroke="black" points="542.5,-355.72 536.5,-355.72 "/>
<text text-anchor="middle" x="415.5" y="-340.02" font-family="Times,serif" font-size="14.00">compute velocity gradient tensor</text>
</g>
<!-- beginDO_DO_9f67440&#45;&gt;COMMENT_9f05160+1 -->
<g id="edge36" class="edge">
<title>beginDO_DO_9f67440&#45;&gt;COMMENT_9f05160+1</title>
<path fill="none" stroke="black" d="M415.5,-397.57C415.5,-396.09 415.5,-384.04 415.5,-371.82"/>
<polygon fill="black" stroke="black" points="419,-371.74 415.5,-361.74 412,-371.74 419,-371.74"/>
</g>
<!-- endDO_DO_9f67440 -->
<g id="node38" class="node">
<title>endDO_DO_9f67440</title>
<ellipse fill="black" stroke="black" cx="415.5" cy="-217.36" rx="0.36" ry="0.36"/>
</g>
<!-- CALL_9f68f20 -->
<g id="node41" class="node">
<title>CALL_9f68f20</title>
<g id="a_node41"><a xlink:href="CC_COMPUTE_VISCOSITY.svg" xlink:title="CC_COMPUTE_VISCOSITY">
<polygon fill="lightgray" stroke="black" points="519,-181 312,-181 312,-177 308,-177 308,-173 312,-173 312,-153 308,-153 308,-149 312,-149 312,-145 519,-145 519,-181"/>
<polyline fill="none" stroke="black" points="312,-177 316,-177 316,-173 312,-173 "/>
<polyline fill="none" stroke="black" points="312,-153 316,-153 316,-149 312,-149 "/>
<text text-anchor="middle" x="415.5" y="-159.3" font-family="Times,serif" font-size="14.00">CC_COMPUTE_VISCOSITY</text>
</a>
</g>
</g>
<!-- endDO_DO_9f67440&#45;&gt;CALL_9f68f20 -->
<g id="edge40" class="edge">
<title>endDO_DO_9f67440&#45;&gt;CALL_9f68f20</title>
<path fill="none" stroke="black" d="M415.5,-216.21C415.5,-214.77 415.5,-203.23 415.5,-191.36"/>
<polygon fill="black" stroke="black" points="419,-191.1 415.5,-181.1 412,-191.1 419,-191.1"/>
</g>
<!-- CALL_9f4d9c0 -->
<g id="node40" class="node">
<title>CALL_9f4d9c0</title>
<g id="a_node40"><a xlink:href="WALE_VISCOSITY.svg" xlink:title="WALE_VISCOSITY">
<polygon fill="lightgray" stroke="black" points="488.5,-289.72 342.5,-289.72 342.5,-285.72 338.5,-285.72 338.5,-281.72 342.5,-281.72 342.5,-261.72 338.5,-261.72 338.5,-257.72 342.5,-257.72 342.5,-253.72 488.5,-253.72 488.5,-289.72"/>
<polyline fill="none" stroke="black" points="342.5,-285.72 346.5,-285.72 346.5,-281.72 342.5,-281.72 "/>
<polyline fill="none" stroke="black" points="342.5,-261.72 346.5,-261.72 346.5,-257.72 342.5,-257.72 "/>
<text text-anchor="middle" x="415.5" y="-268.02" font-family="Times,serif" font-size="14.00">WALE_VISCOSITY</text>
</a>
</g>
</g>
<!-- COMMENT_9f05160+1&#45;&gt;CALL_9f4d9c0 -->
<g id="edge37" class="edge">
<title>COMMENT_9f05160+1&#45;&gt;CALL_9f4d9c0</title>
<path fill="none" stroke="black" d="M415.5,-325.42C415.5,-317.7 415.5,-308.43 415.5,-299.83"/>
<polygon fill="black" stroke="black" points="419,-299.82 415.5,-289.82 412,-299.82 419,-299.82"/>
</g>
<!-- CALL_9f4d9c0&#45;&gt;endDO_DO_9f67440 -->
<g id="edge39" class="edge">
<title>CALL_9f4d9c0&#45;&gt;endDO_DO_9f67440</title>
<path fill="none" stroke="black" d="M415.5,-253.66C415.5,-238.65 415.5,-218.99 415.5,-217.78"/>
</g>
<!-- CALL_9f6aba0 -->
<g id="node42" class="node">
<title>CALL_9f6aba0</title>
<g id="a_node42"><a xlink:href="CUTFACE_VELOCITIES.svg" xlink:title="CUTFACE_VELOCITIES">
<polygon fill="lightgray" stroke="black" points="508,-109 323,-109 323,-105 319,-105 319,-101 323,-101 323,-81 319,-81 319,-77 323,-77 323,-73 508,-73 508,-109"/>
<polyline fill="none" stroke="black" points="323,-105 327,-105 327,-101 323,-101 "/>
<polyline fill="none" stroke="black" points="323,-81 327,-81 327,-77 323,-77 "/>
<text text-anchor="middle" x="415.5" y="-87.3" font-family="Times,serif" font-size="14.00">CUTFACE_VELOCITIES</text>
</a>
</g>
</g>
<!-- CALL_9f68f20&#45;&gt;CALL_9f6aba0 -->
<g id="edge41" class="edge">
<title>CALL_9f68f20&#45;&gt;CALL_9f6aba0</title>
<path fill="none" stroke="black" d="M415.5,-144.7C415.5,-136.98 415.5,-127.71 415.5,-119.11"/>
<polygon fill="black" stroke="black" points="419,-119.1 415.5,-109.1 412,-119.1 419,-119.1"/>
</g>
<!-- end_SUBPROGRAM_8135720 -->
<g id="node43" class="node">
<title>end_SUBPROGRAM_8135720</title>
<ellipse fill="black" stroke="black" cx="415.5" cy="-30" rx="7" ry="7"/>
</g>
<!-- CALL_9f6aba0&#45;&gt;end_SUBPROGRAM_8135720 -->
<g id="edge42" class="edge">
<title>CALL_9f6aba0&#45;&gt;end_SUBPROGRAM_8135720</title>
<path fill="none" stroke="black" d="M415.5,-72.93C415.5,-64.89 415.5,-55.33 415.5,-47.37"/>
<polygon fill="black" stroke="black" points="419,-47.22 415.5,-37.22 412,-47.22 419,-47.22"/>
</g>
</g>
</svg>
