<?xml version="1.0" encoding="UTF-8" standalone="no"?>
<!DOCTYPE svg PUBLIC "-//W3C//DTD SVG 1.1//EN"
 "http://www.w3.org/Graphics/SVG/1.1/DTD/svg11.dtd">
<!-- Generated by graphviz version 2.43.0 (0)
 -->
<!-- Title: CORIOLIS_FORCE Pages: 1 -->
<svg width="619pt" height="959pt"
 viewBox="0.00 0.00 619.00 959.00" xmlns="http://www.w3.org/2000/svg" xmlns:xlink="http://www.w3.org/1999/xlink">
<g id="graph0" class="graph" transform="scale(1 1) rotate(0) translate(4 955)">
<title>CORIOLIS_FORCE</title>
<polygon fill="white" stroke="transparent" points="-4,4 -4,-955 615,-955 615,4 -4,4"/>
<text text-anchor="middle" x="305.5" y="-7.8" font-family="Times,serif" font-size="14.00">CORIOLIS_FORCE</text>
<!-- start_SUBPROGRAM_857f3c0 -->
<g id="node1" class="node">
<title>start_SUBPROGRAM_857f3c0</title>
<ellipse fill="none" stroke="black" cx="305.5" cy="-944" rx="7" ry="7"/>
</g>
<!-- COMMENT_852bae0+1 -->
<g id="node2" class="node">
<title>COMMENT_852bae0+1</title>
<polygon fill="none" stroke="black" points="605,-901 0,-901 0,-865 611,-865 611,-895 605,-901"/>
<polyline fill="none" stroke="black" points="605,-901 605,-895 "/>
<polyline fill="none" stroke="black" points="611,-895 605,-895 "/>
<text text-anchor="middle" x="305.5" y="-879.3" font-family="Times,serif" font-size="14.00">Velocities relative to the p&#45;cell center (same work done in Deardorff eddy viscosity)</text>
</g>
<!-- start_SUBPROGRAM_857f3c0&#45;&gt;COMMENT_852bae0+1 -->
<g id="edge1" class="edge">
<title>start_SUBPROGRAM_857f3c0&#45;&gt;COMMENT_852bae0+1</title>
<path fill="none" stroke="black" d="M305.5,-936.69C305.5,-930.49 305.5,-920.59 305.5,-911.05"/>
<polygon fill="black" stroke="black" points="309,-911.02 305.5,-901.02 302,-911.02 309,-911.02"/>
</g>
<!-- COMMENT_853eca0+1 -->
<g id="node3" class="node">
<title>COMMENT_853eca0+1</title>
<polygon fill="none" stroke="black" points="462.5,-829 142.5,-829 142.5,-793 468.5,-793 468.5,-823 462.5,-829"/>
<polyline fill="none" stroke="black" points="462.5,-829 462.5,-823 "/>
<polyline fill="none" stroke="black" points="468.5,-823 462.5,-823 "/>
<text text-anchor="middle" x="305.5" y="-807.3" font-family="Times,serif" font-size="14.00">!$OMP PARALLEL DO SCHEDULE(STATIC)</text>
</g>
<!-- COMMENT_852bae0+1&#45;&gt;COMMENT_853eca0+1 -->
<g id="edge2" class="edge">
<title>COMMENT_852bae0+1&#45;&gt;COMMENT_853eca0+1</title>
<path fill="none" stroke="black" d="M305.5,-864.7C305.5,-856.98 305.5,-847.71 305.5,-839.11"/>
<polygon fill="black" stroke="black" points="309,-839.1 305.5,-829.1 302,-839.1 309,-839.1"/>
</g>
<!-- COMMENT_854e740+1 -->
<g id="node4" class="node">
<title>COMMENT_854e740+1</title>
<polygon fill="none" stroke="black" points="405.5,-757 199.5,-757 199.5,-721 411.5,-721 411.5,-751 405.5,-757"/>
<polyline fill="none" stroke="black" points="405.5,-757 405.5,-751 "/>
<polyline fill="none" stroke="black" points="411.5,-751 405.5,-751 "/>
<text text-anchor="middle" x="305.5" y="-735.3" font-family="Times,serif" font-size="14.00">!$OMP END PARALLEL DO</text>
</g>
<!-- COMMENT_853eca0+1&#45;&gt;COMMENT_854e740+1 -->
<g id="edge3" class="edge">
<title>COMMENT_853eca0+1&#45;&gt;COMMENT_854e740+1</title>
<path fill="none" stroke="black" d="M305.5,-792.7C305.5,-784.98 305.5,-775.71 305.5,-767.11"/>
<polygon fill="black" stroke="black" points="309,-767.1 305.5,-757.1 302,-767.1 309,-767.1"/>
</g>
<!-- COMMENT_8555f80+1 -->
<g id="node5" class="node">
<title>COMMENT_8555f80+1</title>
<polygon fill="none" stroke="black" points="354.5,-685 250.5,-685 250.5,-649 360.5,-649 360.5,-679 354.5,-685"/>
<polyline fill="none" stroke="black" points="354.5,-685 354.5,-679 "/>
<polyline fill="none" stroke="black" points="360.5,-679 354.5,-679 "/>
<text text-anchor="middle" x="305.5" y="-663.3" font-family="Times,serif" font-size="14.00">x momentum</text>
</g>
<!-- COMMENT_854e740+1&#45;&gt;COMMENT_8555f80+1 -->
<g id="edge4" class="edge">
<title>COMMENT_854e740+1&#45;&gt;COMMENT_8555f80+1</title>
<path fill="none" stroke="black" d="M305.5,-720.7C305.5,-712.98 305.5,-703.71 305.5,-695.11"/>
<polygon fill="black" stroke="black" points="309,-695.1 305.5,-685.1 302,-695.1 309,-695.1"/>
</g>
<!-- COMMENT_8555f80+2 -->
<g id="node6" class="node">
<title>COMMENT_8555f80+2</title>
<polygon fill="none" stroke="black" points="546.5,-613 58.5,-613 58.5,-577 552.5,-577 552.5,-607 546.5,-613"/>
<polyline fill="none" stroke="black" points="546.5,-613 546.5,-607 "/>
<polyline fill="none" stroke="black" points="552.5,-607 546.5,-607 "/>
<text text-anchor="middle" x="305.5" y="-591.3" font-family="Times,serif" font-size="14.00">!$OMP PARALLEL DO PRIVATE(VBAR,WBAR) SCHEDULE(STATIC)</text>
</g>
<!-- COMMENT_8555f80+1&#45;&gt;COMMENT_8555f80+2 -->
<g id="edge5" class="edge">
<title>COMMENT_8555f80+1&#45;&gt;COMMENT_8555f80+2</title>
<path fill="none" stroke="black" d="M305.5,-648.7C305.5,-640.98 305.5,-631.71 305.5,-623.11"/>
<polygon fill="black" stroke="black" points="309,-623.1 305.5,-613.1 302,-623.1 309,-623.1"/>
</g>
<!-- COMMENT_8563d20+1 -->
<g id="node7" class="node">
<title>COMMENT_8563d20+1</title>
<polygon fill="none" stroke="black" points="405.5,-541 199.5,-541 199.5,-505 411.5,-505 411.5,-535 405.5,-541"/>
<polyline fill="none" stroke="black" points="405.5,-541 405.5,-535 "/>
<polyline fill="none" stroke="black" points="411.5,-535 405.5,-535 "/>
<text text-anchor="middle" x="305.5" y="-519.3" font-family="Times,serif" font-size="14.00">!$OMP END PARALLEL DO</text>
</g>
<!-- COMMENT_8555f80+2&#45;&gt;COMMENT_8563d20+1 -->
<g id="edge6" class="edge">
<title>COMMENT_8555f80+2&#45;&gt;COMMENT_8563d20+1</title>
<path fill="none" stroke="black" d="M305.5,-576.7C305.5,-568.98 305.5,-559.71 305.5,-551.11"/>
<polygon fill="black" stroke="black" points="309,-551.1 305.5,-541.1 302,-551.1 309,-551.1"/>
</g>
<!-- COMMENT_8563d20+2 -->
<g id="node8" class="node">
<title>COMMENT_8563d20+2</title>
<polygon fill="none" stroke="black" points="354.5,-469 250.5,-469 250.5,-433 360.5,-433 360.5,-463 354.5,-469"/>
<polyline fill="none" stroke="black" points="354.5,-469 354.5,-463 "/>
<polyline fill="none" stroke="black" points="360.5,-463 354.5,-463 "/>
<text text-anchor="middle" x="305.5" y="-447.3" font-family="Times,serif" font-size="14.00">y momentum</text>
</g>
<!-- COMMENT_8563d20+1&#45;&gt;COMMENT_8563d20+2 -->
<g id="edge7" class="edge">
<title>COMMENT_8563d20+1&#45;&gt;COMMENT_8563d20+2</title>
<path fill="none" stroke="black" d="M305.5,-504.7C305.5,-496.98 305.5,-487.71 305.5,-479.11"/>
<polygon fill="black" stroke="black" points="309,-479.1 305.5,-469.1 302,-479.1 309,-479.1"/>
</g>
<!-- COMMENT_8563d20+3 -->
<g id="node9" class="node">
<title>COMMENT_8563d20+3</title>
<polygon fill="none" stroke="black" points="548,-397 57,-397 57,-361 554,-361 554,-391 548,-397"/>
<polyline fill="none" stroke="black" points="548,-397 548,-391 "/>
<polyline fill="none" stroke="black" points="554,-391 548,-391 "/>
<text text-anchor="middle" x="305.5" y="-375.3" font-family="Times,serif" font-size="14.00">!$OMP PARALLEL DO PRIVATE(UBAR,WBAR) SCHEDULE(STATIC)</text>
</g>
<!-- COMMENT_8563d20+2&#45;&gt;COMMENT_8563d20+3 -->
<g id="edge8" class="edge">
<title>COMMENT_8563d20+2&#45;&gt;COMMENT_8563d20+3</title>
<path fill="none" stroke="black" d="M305.5,-432.7C305.5,-424.98 305.5,-415.71 305.5,-407.11"/>
<polygon fill="black" stroke="black" points="309,-407.1 305.5,-397.1 302,-407.1 309,-407.1"/>
</g>
<!-- COMMENT_8571b40+1 -->
<g id="node10" class="node">
<title>COMMENT_8571b40+1</title>
<polygon fill="none" stroke="black" points="405.5,-325 199.5,-325 199.5,-289 411.5,-289 411.5,-319 405.5,-325"/>
<polyline fill="none" stroke="black" points="405.5,-325 405.5,-319 "/>
<polyline fill="none" stroke="black" points="411.5,-319 405.5,-319 "/>
<text text-anchor="middle" x="305.5" y="-303.3" font-family="Times,serif" font-size="14.00">!$OMP END PARALLEL DO</text>
</g>
<!-- COMMENT_8563d20+3&#45;&gt;COMMENT_8571b40+1 -->
<g id="edge9" class="edge">
<title>COMMENT_8563d20+3&#45;&gt;COMMENT_8571b40+1</title>
<path fill="none" stroke="black" d="M305.5,-360.7C305.5,-352.98 305.5,-343.71 305.5,-335.11"/>
<polygon fill="black" stroke="black" points="309,-335.1 305.5,-325.1 302,-335.1 309,-335.1"/>
</g>
<!-- COMMENT_8571b40+2 -->
<g id="node11" class="node">
<title>COMMENT_8571b40+2</title>
<polygon fill="none" stroke="black" points="354.5,-253 250.5,-253 250.5,-217 360.5,-217 360.5,-247 354.5,-253"/>
<polyline fill="none" stroke="black" points="354.5,-253 354.5,-247 "/>
<polyline fill="none" stroke="black" points="360.5,-247 354.5,-247 "/>
<text text-anchor="middle" x="305.5" y="-231.3" font-family="Times,serif" font-size="14.00">z momentum</text>
</g>
<!-- COMMENT_8571b40+1&#45;&gt;COMMENT_8571b40+2 -->
<g id="edge10" class="edge">
<title>COMMENT_8571b40+1&#45;&gt;COMMENT_8571b40+2</title>
<path fill="none" stroke="black" d="M305.5,-288.7C305.5,-280.98 305.5,-271.71 305.5,-263.11"/>
<polygon fill="black" stroke="black" points="309,-263.1 305.5,-253.1 302,-263.1 309,-263.1"/>
</g>
<!-- COMMENT_8571b40+3 -->
<g id="node12" class="node">
<title>COMMENT_8571b40+3</title>
<polygon fill="none" stroke="black" points="545.5,-181 59.5,-181 59.5,-145 551.5,-145 551.5,-175 545.5,-181"/>
<polyline fill="none" stroke="black" points="545.5,-181 545.5,-175 "/>
<polyline fill="none" stroke="black" points="551.5,-175 545.5,-175 "/>
<text text-anchor="middle" x="305.5" y="-159.3" font-family="Times,serif" font-size="14.00">!$OMP PARALLEL DO PRIVATE(UBAR,VBAR) SCHEDULE(STATIC)</text>
</g>
<!-- COMMENT_8571b40+2&#45;&gt;COMMENT_8571b40+3 -->
<g id="edge11" class="edge">
<title>COMMENT_8571b40+2&#45;&gt;COMMENT_8571b40+3</title>
<path fill="none" stroke="black" d="M305.5,-216.7C305.5,-208.98 305.5,-199.71 305.5,-191.11"/>
<polygon fill="black" stroke="black" points="309,-191.1 305.5,-181.1 302,-191.1 309,-191.1"/>
</g>
<!-- COMMENT_8571100+1 -->
<g id="node13" class="node">
<title>COMMENT_8571100+1</title>
<polygon fill="none" stroke="black" points="405.5,-109 199.5,-109 199.5,-73 411.5,-73 411.5,-103 405.5,-109"/>
<polyline fill="none" stroke="black" points="405.5,-109 405.5,-103 "/>
<polyline fill="none" stroke="black" points="411.5,-103 405.5,-103 "/>
<text text-anchor="middle" x="305.5" y="-87.3" font-family="Times,serif" font-size="14.00">!$OMP END PARALLEL DO</text>
</g>
<!-- COMMENT_8571b40+3&#45;&gt;COMMENT_8571100+1 -->
<g id="edge12" class="edge">
<title>COMMENT_8571b40+3&#45;&gt;COMMENT_8571100+1</title>
<path fill="none" stroke="black" d="M305.5,-144.7C305.5,-136.98 305.5,-127.71 305.5,-119.11"/>
<polygon fill="black" stroke="black" points="309,-119.1 305.5,-109.1 302,-119.1 309,-119.1"/>
</g>
<!-- end_SUBPROGRAM_857f3c0 -->
<g id="node14" class="node">
<title>end_SUBPROGRAM_857f3c0</title>
<ellipse fill="black" stroke="black" cx="305.5" cy="-30" rx="7" ry="7"/>
</g>
<!-- COMMENT_8571100+1&#45;&gt;end_SUBPROGRAM_857f3c0 -->
<g id="edge13" class="edge">
<title>COMMENT_8571100+1&#45;&gt;end_SUBPROGRAM_857f3c0</title>
<path fill="none" stroke="black" d="M305.5,-72.93C305.5,-64.89 305.5,-55.33 305.5,-47.37"/>
<polygon fill="black" stroke="black" points="309,-47.22 305.5,-37.22 302,-47.22 309,-47.22"/>
</g>
</g>
</svg>
