<?xml version="1.0" encoding="UTF-8" standalone="no"?>
<!DOCTYPE svg PUBLIC "-//W3C//DTD SVG 1.1//EN"
 "http://www.w3.org/Graphics/SVG/1.1/DTD/svg11.dtd">
<!-- Generated by graphviz version 2.43.0 (0)
 -->
<!-- Title: CREATE_OR_REMOVE_OBST Pages: 1 -->
<svg width="640pt" height="721pt"
 viewBox="0.00 0.00 640.00 721.00" xmlns="http://www.w3.org/2000/svg" xmlns:xlink="http://www.w3.org/1999/xlink">
<g id="graph0" class="graph" transform="scale(1 1) rotate(0) translate(4 717)">
<title>CREATE_OR_REMOVE_OBST</title>
<polygon fill="white" stroke="transparent" points="-4,4 -4,-717 636,-717 636,4 -4,4"/>
<text text-anchor="middle" x="316" y="-7.8" font-family="Times,serif" font-size="14.00">CREATE_OR_REMOVE_OBST</text>
<!-- start_SUBPROGRAM_8da6e60 -->
<g id="node1" class="node">
<title>start_SUBPROGRAM_8da6e60</title>
<ellipse fill="none" stroke="black" cx="316" cy="-706" rx="7" ry="7"/>
</g>
<!-- COMMENT_8d91ec0+1 -->
<g id="node2" class="node">
<title>COMMENT_8d91ec0+1</title>
<polygon fill="none" stroke="black" points="626,-663 0,-663 0,-505 632,-505 632,-657 626,-663"/>
<polyline fill="none" stroke="black" points="626,-663 626,-657 "/>
<polyline fill="none" stroke="black" points="632,-657 626,-657 "/>
<text text-anchor="middle" x="316" y="-647.8" font-family="Times,serif" font-size="14.00">!&gt; Create or remove the obstruction whose NODES (not cells) are given by I1, I2, etc.</text>
<text text-anchor="middle" x="316" y="-632.8" font-family="Times,serif" font-size="14.00">!&gt; param NM Mesh number</text>
<text text-anchor="middle" x="316" y="-617.8" font-family="Times,serif" font-size="14.00">!&gt; param I1 Lower x&#45;index of obstruction</text>
<text text-anchor="middle" x="316" y="-602.8" font-family="Times,serif" font-size="14.00">!&gt; param I2 Upper x&#45;index of obstruction</text>
<text text-anchor="middle" x="316" y="-587.8" font-family="Times,serif" font-size="14.00">!&gt; param J1 Lower y&#45;index of obstruction</text>
<text text-anchor="middle" x="316" y="-572.8" font-family="Times,serif" font-size="14.00">!&gt; param J2 Upper y&#45;index of obstruction</text>
<text text-anchor="middle" x="316" y="-557.8" font-family="Times,serif" font-size="14.00">!&gt; param K1 Lower z&#45;index of obstruction</text>
<text text-anchor="middle" x="316" y="-542.8" font-family="Times,serif" font-size="14.00">!&gt; param K2 Upper z&#45;index of obstruction</text>
<text text-anchor="middle" x="316" y="-527.8" font-family="Times,serif" font-size="14.00">!&gt; param CR_INDEX 1 if obstruction is to be created; 0 if removed</text>
<text text-anchor="middle" x="316" y="-512.8" font-family="Times,serif" font-size="14.00">!&gt; param OBST_INDEX Index of the obstruction</text>
</g>
<!-- start_SUBPROGRAM_8da6e60&#45;&gt;COMMENT_8d91ec0+1 -->
<g id="edge1" class="edge">
<title>start_SUBPROGRAM_8da6e60&#45;&gt;COMMENT_8d91ec0+1</title>
<path fill="none" stroke="black" d="M316,-698.88C316,-693.22 316,-684.06 316,-673.33"/>
<polygon fill="black" stroke="black" points="319.5,-673.09 316,-663.09 312.5,-673.09 319.5,-673.09"/>
</g>
<!-- CALL_8d94120 -->
<g id="node3" class="node">
<title>CALL_8d94120</title>
<g id="a_node3"><a xlink:href="POINT_TO_MESH.svg" xlink:title="POINT_TO_MESH">
<polygon fill="lightgray" stroke="black" points="388,-469 244,-469 244,-465 240,-465 240,-461 244,-461 244,-441 240,-441 240,-437 244,-437 244,-433 388,-433 388,-469"/>
<polyline fill="none" stroke="black" points="244,-465 248,-465 248,-461 244,-461 "/>
<polyline fill="none" stroke="black" points="244,-441 248,-441 248,-437 244,-437 "/>
<text text-anchor="middle" x="316" y="-447.3" font-family="Times,serif" font-size="14.00">POINT_TO_MESH</text>
</a>
</g>
</g>
<!-- COMMENT_8d91ec0+1&#45;&gt;CALL_8d94120 -->
<g id="edge2" class="edge">
<title>COMMENT_8d91ec0+1&#45;&gt;CALL_8d94120</title>
<path fill="none" stroke="black" d="M316,-504.91C316,-495.82 316,-487.07 316,-479.39"/>
<polygon fill="black" stroke="black" points="319.5,-479.32 316,-469.32 312.5,-479.32 319.5,-479.32"/>
</g>
<!-- COMMENT_8d94060+1 -->
<g id="node4" class="node">
<title>COMMENT_8d94060+1</title>
<polygon fill="none" stroke="black" points="511,-397 115,-397 115,-361 517,-361 517,-391 511,-397"/>
<polyline fill="none" stroke="black" points="511,-397 511,-391 "/>
<polyline fill="none" stroke="black" points="517,-391 511,-391 "/>
<text text-anchor="middle" x="316" y="-375.3" font-family="Times,serif" font-size="14.00">Indicate whether to create or remove the obstruction.</text>
</g>
<!-- CALL_8d94120&#45;&gt;COMMENT_8d94060+1 -->
<g id="edge3" class="edge">
<title>CALL_8d94120&#45;&gt;COMMENT_8d94060+1</title>
<path fill="none" stroke="black" d="M316,-432.7C316,-424.98 316,-415.71 316,-407.11"/>
<polygon fill="black" stroke="black" points="319.5,-407.1 316,-397.1 312.5,-407.1 319.5,-407.1"/>
</g>
<!-- COMMENT_8d952e0+1 -->
<g id="node5" class="node">
<title>COMMENT_8d952e0+1</title>
<polygon fill="none" stroke="black" points="387,-325 239,-325 239,-289 393,-289 393,-319 387,-325"/>
<polyline fill="none" stroke="black" points="387,-325 387,-319 "/>
<polyline fill="none" stroke="black" points="393,-319 387,-319 "/>
<text text-anchor="middle" x="316" y="-303.3" font-family="Times,serif" font-size="14.00">CREATE = .FALSE.</text>
</g>
<!-- COMMENT_8d94060+1&#45;&gt;COMMENT_8d952e0+1 -->
<g id="edge4" class="edge">
<title>COMMENT_8d94060+1&#45;&gt;COMMENT_8d952e0+1</title>
<path fill="none" stroke="black" d="M316,-360.7C316,-352.98 316,-343.71 316,-335.11"/>
<polygon fill="black" stroke="black" points="319.5,-335.1 316,-325.1 312.5,-335.1 319.5,-335.1"/>
</g>
<!-- COMMENT_8d9bbc0+1 -->
<g id="node6" class="node">
<title>COMMENT_8d9bbc0+1</title>
<polygon fill="none" stroke="black" points="509,-253 117,-253 117,-217 515,-217 515,-247 509,-253"/>
<polyline fill="none" stroke="black" points="509,-253 509,-247 "/>
<polyline fill="none" stroke="black" points="515,-247 509,-247 "/>
<text text-anchor="middle" x="316" y="-231.3" font-family="Times,serif" font-size="14.00">Blank or unblank cells that make up the OBSTruction</text>
</g>
<!-- COMMENT_8d952e0+1&#45;&gt;COMMENT_8d9bbc0+1 -->
<g id="edge5" class="edge">
<title>COMMENT_8d952e0+1&#45;&gt;COMMENT_8d9bbc0+1</title>
<path fill="none" stroke="black" d="M316,-288.7C316,-280.98 316,-271.71 316,-263.11"/>
<polygon fill="black" stroke="black" points="319.5,-263.1 316,-253.1 312.5,-263.1 319.5,-263.1"/>
</g>
<!-- CALL_8d9bb40 -->
<g id="node7" class="node">
<title>CALL_8d9bb40</title>
<g id="a_node7"><a xlink:href="BLOCK_CELL.svg" xlink:title="BLOCK_CELL">
<polygon fill="lightgray" stroke="black" points="373,-181 259,-181 259,-177 255,-177 255,-173 259,-173 259,-153 255,-153 255,-149 259,-149 259,-145 373,-145 373,-181"/>
<polyline fill="none" stroke="black" points="259,-177 263,-177 263,-173 259,-173 "/>
<polyline fill="none" stroke="black" points="259,-153 263,-153 263,-149 259,-149 "/>
<text text-anchor="middle" x="316" y="-159.3" font-family="Times,serif" font-size="14.00">BLOCK_CELL</text>
</a>
</g>
</g>
<!-- COMMENT_8d9bbc0+1&#45;&gt;CALL_8d9bb40 -->
<g id="edge6" class="edge">
<title>COMMENT_8d9bbc0+1&#45;&gt;CALL_8d9bb40</title>
<path fill="none" stroke="black" d="M316,-216.7C316,-208.98 316,-199.71 316,-191.11"/>
<polygon fill="black" stroke="black" points="319.5,-191.1 316,-181.1 312.5,-191.1 319.5,-191.1"/>
</g>
<!-- COMMENT_8d9cae0+1 -->
<g id="node8" class="node">
<title>COMMENT_8d9cae0+1</title>
<polygon fill="none" stroke="black" points="623,-109 3,-109 3,-73 629,-73 629,-103 623,-109"/>
<polyline fill="none" stroke="black" points="623,-109 623,-103 "/>
<polyline fill="none" stroke="black" points="629,-103 623,-103 "/>
<text text-anchor="middle" x="316" y="-87.3" font-family="Times,serif" font-size="14.00">If the OBSTruction is to be removed, set density and mass fractions to ambient value</text>
</g>
<!-- CALL_8d9bb40&#45;&gt;COMMENT_8d9cae0+1 -->
<g id="edge7" class="edge">
<title>CALL_8d9bb40&#45;&gt;COMMENT_8d9cae0+1</title>
<path fill="none" stroke="black" d="M316,-144.7C316,-136.98 316,-127.71 316,-119.11"/>
<polygon fill="black" stroke="black" points="319.5,-119.1 316,-109.1 312.5,-119.1 319.5,-119.1"/>
</g>
<!-- end_SUBPROGRAM_8da6e60 -->
<g id="node9" class="node">
<title>end_SUBPROGRAM_8da6e60</title>
<ellipse fill="black" stroke="black" cx="316" cy="-30" rx="7" ry="7"/>
</g>
<!-- COMMENT_8d9cae0+1&#45;&gt;end_SUBPROGRAM_8da6e60 -->
<g id="edge8" class="edge">
<title>COMMENT_8d9cae0+1&#45;&gt;end_SUBPROGRAM_8da6e60</title>
<path fill="none" stroke="black" d="M316,-72.93C316,-64.89 316,-55.33 316,-47.37"/>
<polygon fill="black" stroke="black" points="319.5,-47.22 316,-37.22 312.5,-47.22 319.5,-47.22"/>
</g>
</g>
</svg>
