<?xml version="1.0" encoding="UTF-8" standalone="no"?>
<!DOCTYPE svg PUBLIC "-//W3C//DTD SVG 1.1//EN"
 "http://www.w3.org/Graphics/SVG/1.1/DTD/svg11.dtd">
<!-- Generated by graphviz version 2.43.0 (0)
 -->
<!-- Title: DEFINE_EDGE Pages: 1 -->
<svg width="472pt" height="691pt"
 viewBox="0.00 0.00 472.00 691.00" xmlns="http://www.w3.org/2000/svg" xmlns:xlink="http://www.w3.org/1999/xlink">
<g id="graph0" class="graph" transform="scale(1 1) rotate(0) translate(4 687)">
<title>DEFINE_EDGE</title>
<polygon fill="white" stroke="transparent" points="-4,4 -4,-687 468,-687 468,4 -4,4"/>
<text text-anchor="middle" x="232" y="-7.8" font-family="Times,serif" font-size="14.00">DEFINE_EDGE</text>
<!-- start_SUBPROGRAM_9f45b20 -->
<g id="node1" class="node">
<title>start_SUBPROGRAM_9f45b20</title>
<ellipse fill="none" stroke="black" cx="232" cy="-676" rx="7" ry="7"/>
</g>
<!-- COMMENT_7d95bc0+1 -->
<g id="node2" class="node">
<title>COMMENT_7d95bc0+1</title>
<polygon fill="none" stroke="black" points="446.5,-633 11.5,-633 11.5,-505 452.5,-505 452.5,-627 446.5,-633"/>
<polyline fill="none" stroke="black" points="446.5,-633 446.5,-627 "/>
<polyline fill="none" stroke="black" points="452.5,-627 446.5,-627 "/>
<text text-anchor="middle" x="232" y="-617.8" font-family="Times,serif" font-size="14.00">!&gt; brief Assign parameters for a given cell edge</text>
<text text-anchor="middle" x="232" y="-602.8" font-family="Times,serif" font-size="14.00">!&gt; param II Index of edge in the x direction</text>
<text text-anchor="middle" x="232" y="-587.8" font-family="Times,serif" font-size="14.00">!&gt; param JJ Index of edge in the y direction</text>
<text text-anchor="middle" x="232" y="-572.8" font-family="Times,serif" font-size="14.00">!&gt; param KK Index of edge in the z direction</text>
<text text-anchor="middle" x="232" y="-557.8" font-family="Times,serif" font-size="14.00">!&gt; param IOR Orientation index of adjacent wall cell</text>
<text text-anchor="middle" x="232" y="-542.8" font-family="Times,serif" font-size="14.00">!&gt; param IEC Orientation of edge; 1=x direction; 2=y; 3=z</text>
<text text-anchor="middle" x="232" y="-527.8" font-family="Times,serif" font-size="14.00">!&gt; param NM Mesh number</text>
<text text-anchor="middle" x="232" y="-512.8" font-family="Times,serif" font-size="14.00">!&gt; param OBST_INDEX Obstruction index of edge</text>
</g>
<!-- start_SUBPROGRAM_9f45b20&#45;&gt;COMMENT_7d95bc0+1 -->
<g id="edge1" class="edge">
<title>start_SUBPROGRAM_9f45b20&#45;&gt;COMMENT_7d95bc0+1</title>
<path fill="none" stroke="black" d="M232,-668.75C232,-662.97 232,-653.69 232,-643.07"/>
<polygon fill="black" stroke="black" points="235.5,-643.01 232,-633.01 228.5,-643.01 235.5,-643.01"/>
</g>
<!-- COMMENT_7bc3180+1 -->
<g id="node3" class="node">
<title>COMMENT_7bc3180+1</title>
<polygon fill="none" stroke="black" points="388.5,-469 69.5,-469 69.5,-433 394.5,-433 394.5,-463 388.5,-469"/>
<polyline fill="none" stroke="black" points="388.5,-469 388.5,-463 "/>
<polyline fill="none" stroke="black" points="394.5,-463 388.5,-463 "/>
<text text-anchor="middle" x="232" y="-447.3" font-family="Times,serif" font-size="14.00">Find the wall cells on each side of the edge</text>
</g>
<!-- COMMENT_7d95bc0+1&#45;&gt;COMMENT_7bc3180+1 -->
<g id="edge2" class="edge">
<title>COMMENT_7d95bc0+1&#45;&gt;COMMENT_7bc3180+1</title>
<path fill="none" stroke="black" d="M232,-504.91C232,-495.95 232,-487.16 232,-479.39"/>
<polygon fill="black" stroke="black" points="235.5,-479.18 232,-469.18 228.5,-479.18 235.5,-479.18"/>
</g>
<!-- COMMENT_7dba700+1 -->
<g id="node4" class="node">
<title>COMMENT_7dba700+1</title>
<polygon fill="none" stroke="black" points="458,-397 0,-397 0,-361 464,-361 464,-391 458,-397"/>
<polyline fill="none" stroke="black" points="458,-397 458,-391 "/>
<polyline fill="none" stroke="black" points="464,-391 458,-391 "/>
<text text-anchor="middle" x="232" y="-375.3" font-family="Times,serif" font-size="14.00">Decide what to do based on whether or not adjacent tiles exist</text>
</g>
<!-- COMMENT_7bc3180+1&#45;&gt;COMMENT_7dba700+1 -->
<g id="edge3" class="edge">
<title>COMMENT_7bc3180+1&#45;&gt;COMMENT_7dba700+1</title>
<path fill="none" stroke="black" d="M232,-432.7C232,-424.98 232,-415.71 232,-407.11"/>
<polygon fill="black" stroke="black" points="235.5,-407.1 232,-397.1 228.5,-407.1 235.5,-407.1"/>
</g>
<!-- COMMENT_7dcc8e0+1 -->
<g id="node5" class="node">
<title>COMMENT_7dcc8e0+1</title>
<polygon fill="none" stroke="black" points="420.5,-325 37.5,-325 37.5,-289 426.5,-289 426.5,-319 420.5,-325"/>
<polyline fill="none" stroke="black" points="420.5,-325 420.5,-319 "/>
<polyline fill="none" stroke="black" points="426.5,-319 420.5,-319 "/>
<text text-anchor="middle" x="232" y="-303.3" font-family="Times,serif" font-size="14.00">Assign the Index of the Edge (IE) and add to the list</text>
</g>
<!-- COMMENT_7dba700+1&#45;&gt;COMMENT_7dcc8e0+1 -->
<g id="edge4" class="edge">
<title>COMMENT_7dba700+1&#45;&gt;COMMENT_7dcc8e0+1</title>
<path fill="none" stroke="black" d="M232,-360.7C232,-352.98 232,-343.71 232,-335.11"/>
<polygon fill="black" stroke="black" points="235.5,-335.1 232,-325.1 228.5,-335.1 235.5,-335.1"/>
</g>
<!-- COMMENT_7dd3dc0+1 -->
<g id="node6" class="node">
<title>COMMENT_7dd3dc0+1</title>
<polygon fill="none" stroke="black" points="411,-253 47,-253 47,-217 417,-217 417,-247 411,-253"/>
<polyline fill="none" stroke="black" points="411,-253 411,-247 "/>
<polyline fill="none" stroke="black" points="417,-247 411,-247 "/>
<text text-anchor="middle" x="232" y="-231.3" font-family="Times,serif" font-size="14.00">Determine the wall index of the adjacent wall tile</text>
</g>
<!-- COMMENT_7dcc8e0+1&#45;&gt;COMMENT_7dd3dc0+1 -->
<g id="edge5" class="edge">
<title>COMMENT_7dcc8e0+1&#45;&gt;COMMENT_7dd3dc0+1</title>
<path fill="none" stroke="black" d="M232,-288.7C232,-280.98 232,-271.71 232,-263.11"/>
<polygon fill="black" stroke="black" points="235.5,-263.1 232,-253.1 228.5,-263.1 235.5,-263.1"/>
</g>
<!-- COMMENT_7ddda20+1 -->
<g id="node7" class="node">
<title>COMMENT_7ddda20+1</title>
<polygon fill="none" stroke="black" points="436.5,-181 21.5,-181 21.5,-145 442.5,-145 442.5,-175 436.5,-181"/>
<polyline fill="none" stroke="black" points="436.5,-181 436.5,-175 "/>
<polyline fill="none" stroke="black" points="442.5,-175 436.5,-175 "/>
<text text-anchor="middle" x="232" y="-159.3" font-family="Times,serif" font-size="14.00">Identify EDGEs that lie at the external edge of the mesh</text>
</g>
<!-- COMMENT_7dd3dc0+1&#45;&gt;COMMENT_7ddda20+1 -->
<g id="edge6" class="edge">
<title>COMMENT_7dd3dc0+1&#45;&gt;COMMENT_7ddda20+1</title>
<path fill="none" stroke="black" d="M232,-216.7C232,-208.98 232,-199.71 232,-191.11"/>
<polygon fill="black" stroke="black" points="235.5,-191.1 232,-181.1 228.5,-191.1 235.5,-191.1"/>
</g>
<!-- COMMENT_7ddc020+1 -->
<g id="node8" class="node">
<title>COMMENT_7ddc020+1</title>
<polygon fill="none" stroke="black" points="302.5,-109 155.5,-109 155.5,-73 308.5,-73 308.5,-103 302.5,-109"/>
<polyline fill="none" stroke="black" points="302.5,-109 302.5,-103 "/>
<polyline fill="none" stroke="black" points="308.5,-103 302.5,-103 "/>
<text text-anchor="middle" x="232" y="-87.3" font-family="Times,serif" font-size="14.00">Fill up EDGE array</text>
</g>
<!-- COMMENT_7ddda20+1&#45;&gt;COMMENT_7ddc020+1 -->
<g id="edge7" class="edge">
<title>COMMENT_7ddda20+1&#45;&gt;COMMENT_7ddc020+1</title>
<path fill="none" stroke="black" d="M232,-144.7C232,-136.98 232,-127.71 232,-119.11"/>
<polygon fill="black" stroke="black" points="235.5,-119.1 232,-109.1 228.5,-119.1 235.5,-119.1"/>
</g>
<!-- end_SUBPROGRAM_9f45b20 -->
<g id="node9" class="node">
<title>end_SUBPROGRAM_9f45b20</title>
<ellipse fill="black" stroke="black" cx="232" cy="-30" rx="7" ry="7"/>
</g>
<!-- COMMENT_7ddc020+1&#45;&gt;end_SUBPROGRAM_9f45b20 -->
<g id="edge8" class="edge">
<title>COMMENT_7ddc020+1&#45;&gt;end_SUBPROGRAM_9f45b20</title>
<path fill="none" stroke="black" d="M232,-72.93C232,-64.89 232,-55.33 232,-47.37"/>
<polygon fill="black" stroke="black" points="235.5,-47.22 232,-37.22 228.5,-47.22 235.5,-47.22"/>
</g>
</g>
</svg>
