<?xml version="1.0" encoding="UTF-8" standalone="no"?>
<!DOCTYPE svg PUBLIC "-//W3C//DTD SVG 1.1//EN"
 "http://www.w3.org/Graphics/SVG/1.1/DTD/svg11.dtd">
<!-- Generated by graphviz version 2.43.0 (0)
 -->
<!-- Title: DIRECT_FORCE Pages: 1 -->
<svg width="457pt" height="599pt"
 viewBox="0.00 0.00 457.00 599.00" xmlns="http://www.w3.org/2000/svg" xmlns:xlink="http://www.w3.org/1999/xlink">
<g id="graph0" class="graph" transform="scale(1 1) rotate(0) translate(4 595)">
<title>DIRECT_FORCE</title>
<polygon fill="white" stroke="transparent" points="-4,4 -4,-595 453,-595 453,4 -4,4"/>
<text text-anchor="middle" x="224.5" y="-7.8" font-family="Times,serif" font-size="14.00">DIRECT_FORCE</text>
<!-- start_SUBPROGRAM_85299e0 -->
<g id="node1" class="node">
<title>start_SUBPROGRAM_85299e0</title>
<ellipse fill="none" stroke="black" cx="224.5" cy="-584" rx="7" ry="7"/>
</g>
<!-- COMMENT_83be900+1 -->
<g id="node2" class="node">
<title>COMMENT_83be900+1</title>
<polygon fill="none" stroke="black" points="406.5,-541 36.5,-541 36.5,-505 412.5,-505 412.5,-535 406.5,-541"/>
<polyline fill="none" stroke="black" points="406.5,-541 406.5,-535 "/>
<polyline fill="none" stroke="black" points="412.5,-535 406.5,-535 "/>
<text text-anchor="middle" x="224.5" y="-519.3" font-family="Times,serif" font-size="14.00">CTRL_DIRECT_FORCE overrides FORCE_VECTOR</text>
</g>
<!-- start_SUBPROGRAM_85299e0&#45;&gt;COMMENT_83be900+1 -->
<g id="edge1" class="edge">
<title>start_SUBPROGRAM_85299e0&#45;&gt;COMMENT_83be900+1</title>
<path fill="none" stroke="black" d="M224.5,-576.69C224.5,-570.49 224.5,-560.59 224.5,-551.05"/>
<polygon fill="black" stroke="black" points="228,-551.02 224.5,-541.02 221,-551.02 228,-551.02"/>
</g>
<!-- COMMENT_83f2540+1 -->
<g id="node3" class="node">
<title>COMMENT_83f2540+1</title>
<polygon fill="none" stroke="black" points="443,-469 0,-469 0,-433 449,-433 449,-463 443,-469"/>
<polyline fill="none" stroke="black" points="443,-469 443,-463 "/>
<polyline fill="none" stroke="black" points="449,-463 443,-463 "/>
<text text-anchor="middle" x="224.5" y="-447.3" font-family="Times,serif" font-size="14.00">!$OMP PARALLEL DO PRIVATE(RRHO) SCHEDULE(STATIC)</text>
</g>
<!-- COMMENT_83be900+1&#45;&gt;COMMENT_83f2540+1 -->
<g id="edge2" class="edge">
<title>COMMENT_83be900+1&#45;&gt;COMMENT_83f2540+1</title>
<path fill="none" stroke="black" d="M224.5,-504.7C224.5,-496.98 224.5,-487.71 224.5,-479.11"/>
<polygon fill="black" stroke="black" points="228,-479.1 224.5,-469.1 221,-479.1 228,-479.1"/>
</g>
<!-- COMMENT_83fac20+1 -->
<g id="node4" class="node">
<title>COMMENT_83fac20+1</title>
<polygon fill="none" stroke="black" points="324.5,-397 118.5,-397 118.5,-361 330.5,-361 330.5,-391 324.5,-397"/>
<polyline fill="none" stroke="black" points="324.5,-397 324.5,-391 "/>
<polyline fill="none" stroke="black" points="330.5,-391 324.5,-391 "/>
<text text-anchor="middle" x="224.5" y="-375.3" font-family="Times,serif" font-size="14.00">!$OMP END PARALLEL DO</text>
</g>
<!-- COMMENT_83f2540+1&#45;&gt;COMMENT_83fac20+1 -->
<g id="edge3" class="edge">
<title>COMMENT_83f2540+1&#45;&gt;COMMENT_83fac20+1</title>
<path fill="none" stroke="black" d="M224.5,-432.7C224.5,-424.98 224.5,-415.71 224.5,-407.11"/>
<polygon fill="black" stroke="black" points="228,-407.1 224.5,-397.1 221,-407.1 228,-407.1"/>
</g>
<!-- COMMENT_8520b60+1 -->
<g id="node5" class="node">
<title>COMMENT_8520b60+1</title>
<polygon fill="none" stroke="black" points="443,-325 0,-325 0,-289 449,-289 449,-319 443,-325"/>
<polyline fill="none" stroke="black" points="443,-325 443,-319 "/>
<polyline fill="none" stroke="black" points="449,-319 443,-319 "/>
<text text-anchor="middle" x="224.5" y="-303.3" font-family="Times,serif" font-size="14.00">!$OMP PARALLEL DO PRIVATE(RRHO) SCHEDULE(STATIC)</text>
</g>
<!-- COMMENT_83fac20+1&#45;&gt;COMMENT_8520b60+1 -->
<g id="edge4" class="edge">
<title>COMMENT_83fac20+1&#45;&gt;COMMENT_8520b60+1</title>
<path fill="none" stroke="black" d="M224.5,-360.7C224.5,-352.98 224.5,-343.71 224.5,-335.11"/>
<polygon fill="black" stroke="black" points="228,-335.1 224.5,-325.1 221,-335.1 228,-335.1"/>
</g>
<!-- COMMENT_85296a0+1 -->
<g id="node6" class="node">
<title>COMMENT_85296a0+1</title>
<polygon fill="none" stroke="black" points="324.5,-253 118.5,-253 118.5,-217 330.5,-217 330.5,-247 324.5,-253"/>
<polyline fill="none" stroke="black" points="324.5,-253 324.5,-247 "/>
<polyline fill="none" stroke="black" points="330.5,-247 324.5,-247 "/>
<text text-anchor="middle" x="224.5" y="-231.3" font-family="Times,serif" font-size="14.00">!$OMP END PARALLEL DO</text>
</g>
<!-- COMMENT_8520b60+1&#45;&gt;COMMENT_85296a0+1 -->
<g id="edge5" class="edge">
<title>COMMENT_8520b60+1&#45;&gt;COMMENT_85296a0+1</title>
<path fill="none" stroke="black" d="M224.5,-288.7C224.5,-280.98 224.5,-271.71 224.5,-263.11"/>
<polygon fill="black" stroke="black" points="228,-263.1 224.5,-253.1 221,-263.1 228,-263.1"/>
</g>
<!-- COMMENT_852f780+1 -->
<g id="node7" class="node">
<title>COMMENT_852f780+1</title>
<polygon fill="none" stroke="black" points="443,-181 0,-181 0,-145 449,-145 449,-175 443,-181"/>
<polyline fill="none" stroke="black" points="443,-181 443,-175 "/>
<polyline fill="none" stroke="black" points="449,-175 443,-175 "/>
<text text-anchor="middle" x="224.5" y="-159.3" font-family="Times,serif" font-size="14.00">!$OMP PARALLEL DO PRIVATE(RRHO) SCHEDULE(STATIC)</text>
</g>
<!-- COMMENT_85296a0+1&#45;&gt;COMMENT_852f780+1 -->
<g id="edge6" class="edge">
<title>COMMENT_85296a0+1&#45;&gt;COMMENT_852f780+1</title>
<path fill="none" stroke="black" d="M224.5,-216.7C224.5,-208.98 224.5,-199.71 224.5,-191.11"/>
<polygon fill="black" stroke="black" points="228,-191.1 224.5,-181.1 221,-191.1 228,-191.1"/>
</g>
<!-- COMMENT_8538160+1 -->
<g id="node8" class="node">
<title>COMMENT_8538160+1</title>
<polygon fill="none" stroke="black" points="324.5,-109 118.5,-109 118.5,-73 330.5,-73 330.5,-103 324.5,-109"/>
<polyline fill="none" stroke="black" points="324.5,-109 324.5,-103 "/>
<polyline fill="none" stroke="black" points="330.5,-103 324.5,-103 "/>
<text text-anchor="middle" x="224.5" y="-87.3" font-family="Times,serif" font-size="14.00">!$OMP END PARALLEL DO</text>
</g>
<!-- COMMENT_852f780+1&#45;&gt;COMMENT_8538160+1 -->
<g id="edge7" class="edge">
<title>COMMENT_852f780+1&#45;&gt;COMMENT_8538160+1</title>
<path fill="none" stroke="black" d="M224.5,-144.7C224.5,-136.98 224.5,-127.71 224.5,-119.11"/>
<polygon fill="black" stroke="black" points="228,-119.1 224.5,-109.1 221,-119.1 228,-119.1"/>
</g>
<!-- end_SUBPROGRAM_85299e0 -->
<g id="node9" class="node">
<title>end_SUBPROGRAM_85299e0</title>
<ellipse fill="black" stroke="black" cx="224.5" cy="-30" rx="7" ry="7"/>
</g>
<!-- COMMENT_8538160+1&#45;&gt;end_SUBPROGRAM_85299e0 -->
<g id="edge8" class="edge">
<title>COMMENT_8538160+1&#45;&gt;end_SUBPROGRAM_85299e0</title>
<path fill="none" stroke="black" d="M224.5,-72.93C224.5,-64.89 224.5,-55.33 224.5,-47.37"/>
<polygon fill="black" stroke="black" points="228,-47.22 224.5,-37.22 221,-47.22 228,-47.22"/>
</g>
</g>
</svg>
