<?xml version="1.0" encoding="UTF-8" standalone="no"?>
<!DOCTYPE svg PUBLIC "-//W3C//DTD SVG 1.1//EN"
 "http://www.w3.org/Graphics/SVG/1.1/DTD/svg11.dtd">
<!-- Generated by graphviz version 2.43.0 (0)
 -->
<!-- Title: DIRECT_FORCE Pages: 1 -->
<svg width="457pt" height="383pt"
 viewBox="0.00 0.00 457.00 383.00" xmlns="http://www.w3.org/2000/svg" xmlns:xlink="http://www.w3.org/1999/xlink">
<g id="graph0" class="graph" transform="scale(1 1) rotate(0) translate(4 379)">
<title>DIRECT_FORCE</title>
<polygon fill="white" stroke="transparent" points="-4,4 -4,-379 453,-379 453,4 -4,4"/>
<text text-anchor="middle" x="224.5" y="-7.8" font-family="Times,serif" font-size="14.00">DIRECT_FORCE</text>
<!-- start_SUBPROGRAM_85f5b60 -->
<g id="node1" class="node">
<title>start_SUBPROGRAM_85f5b60</title>
<ellipse fill="none" stroke="black" cx="224.5" cy="-368" rx="7" ry="7"/>
</g>
<!-- COMMENT_859c680+1 -->
<g id="node2" class="node">
<title>COMMENT_859c680+1</title>
<polygon fill="none" stroke="black" points="406.5,-325 36.5,-325 36.5,-289 412.5,-289 412.5,-319 406.5,-325"/>
<polyline fill="none" stroke="black" points="406.5,-325 406.5,-319 "/>
<polyline fill="none" stroke="black" points="412.5,-319 406.5,-319 "/>
<text text-anchor="middle" x="224.5" y="-303.3" font-family="Times,serif" font-size="14.00">CTRL_DIRECT_FORCE overrides FORCE_VECTOR</text>
</g>
<!-- start_SUBPROGRAM_85f5b60&#45;&gt;COMMENT_859c680+1 -->
<g id="edge1" class="edge">
<title>start_SUBPROGRAM_85f5b60&#45;&gt;COMMENT_859c680+1</title>
<path fill="none" stroke="black" d="M224.5,-360.69C224.5,-354.49 224.5,-344.59 224.5,-335.05"/>
<polygon fill="black" stroke="black" points="228,-335.02 224.5,-325.02 221,-335.02 228,-335.02"/>
</g>
<!-- OMP_DO_85b88e0 -->
<g id="node3" class="node">
<title>OMP_DO_85b88e0</title>
<polygon fill="#ffd0d0" stroke="orange" points="449,-253 0,-253 0,-217 449,-217 449,-253"/>
<text text-anchor="middle" x="224.5" y="-231.3" font-family="Times,serif" font-size="14.00">!$OMP PARALLEL DO PRIVATE(RRHO) SCHEDULE(STATIC)</text>
</g>
<!-- COMMENT_859c680+1&#45;&gt;OMP_DO_85b88e0 -->
<g id="edge2" class="edge">
<title>COMMENT_859c680+1&#45;&gt;OMP_DO_85b88e0</title>
<path fill="none" stroke="black" d="M224.5,-288.7C224.5,-280.98 224.5,-271.71 224.5,-263.11"/>
<polygon fill="black" stroke="black" points="228,-263.1 224.5,-253.1 221,-263.1 228,-263.1"/>
</g>
<!-- OMP_DO_85e7200 -->
<g id="node4" class="node">
<title>OMP_DO_85e7200</title>
<polygon fill="#ffd0d0" stroke="orange" points="449,-181 0,-181 0,-145 449,-145 449,-181"/>
<text text-anchor="middle" x="224.5" y="-159.3" font-family="Times,serif" font-size="14.00">!$OMP PARALLEL DO PRIVATE(RRHO) SCHEDULE(STATIC)</text>
</g>
<!-- OMP_DO_85b88e0&#45;&gt;OMP_DO_85e7200 -->
<g id="edge3" class="edge">
<title>OMP_DO_85b88e0&#45;&gt;OMP_DO_85e7200</title>
<path fill="none" stroke="black" d="M224.5,-216.7C224.5,-208.98 224.5,-199.71 224.5,-191.11"/>
<polygon fill="black" stroke="black" points="228,-191.1 224.5,-181.1 221,-191.1 228,-191.1"/>
</g>
<!-- OMP_DO_85f56e0 -->
<g id="node5" class="node">
<title>OMP_DO_85f56e0</title>
<polygon fill="#ffd0d0" stroke="orange" points="449,-109 0,-109 0,-73 449,-73 449,-109"/>
<text text-anchor="middle" x="224.5" y="-87.3" font-family="Times,serif" font-size="14.00">!$OMP PARALLEL DO PRIVATE(RRHO) SCHEDULE(STATIC)</text>
</g>
<!-- OMP_DO_85e7200&#45;&gt;OMP_DO_85f56e0 -->
<g id="edge4" class="edge">
<title>OMP_DO_85e7200&#45;&gt;OMP_DO_85f56e0</title>
<path fill="none" stroke="black" d="M224.5,-144.7C224.5,-136.98 224.5,-127.71 224.5,-119.11"/>
<polygon fill="black" stroke="black" points="228,-119.1 224.5,-109.1 221,-119.1 228,-119.1"/>
</g>
<!-- end_SUBPROGRAM_85f5b60 -->
<g id="node6" class="node">
<title>end_SUBPROGRAM_85f5b60</title>
<ellipse fill="black" stroke="black" cx="224.5" cy="-30" rx="7" ry="7"/>
</g>
<!-- OMP_DO_85f56e0&#45;&gt;end_SUBPROGRAM_85f5b60 -->
<g id="edge5" class="edge">
<title>OMP_DO_85f56e0&#45;&gt;end_SUBPROGRAM_85f5b60</title>
<path fill="none" stroke="black" d="M224.5,-72.93C224.5,-64.89 224.5,-55.33 224.5,-47.37"/>
<polygon fill="black" stroke="black" points="228,-47.22 224.5,-37.22 221,-47.22 228,-47.22"/>
</g>
</g>
</svg>
