<?xml version="1.0" encoding="UTF-8" standalone="no"?>
<!DOCTYPE svg PUBLIC "-//W3C//DTD SVG 1.1//EN"
 "http://www.w3.org/Graphics/SVG/1.1/DTD/svg11.dtd">
<!-- Generated by graphviz version 2.43.0 (0)
 -->
<!-- Title: DIVERGENCE_PART_2 Pages: 1 -->
<svg width="749pt" height="1343pt"
 viewBox="0.00 0.00 749.00 1343.44" xmlns="http://www.w3.org/2000/svg" xmlns:xlink="http://www.w3.org/1999/xlink">
<g id="graph0" class="graph" transform="scale(1 1) rotate(0) translate(4 1339.44)">
<title>DIVERGENCE_PART_2</title>
<polygon fill="white" stroke="transparent" points="-4,4 -4,-1339.44 745,-1339.44 745,4 -4,4"/>
<text text-anchor="middle" x="370.5" y="-7.8" font-family="Times,serif" font-size="14.00">DIVERGENCE_PART_2</text>
<g id="clust1" class="cluster">
<title>cluster_IF_PRESSURE_ZONES</title>
<polygon fill="none" stroke="blue" points="198.5,-641 198.5,-1008.44 542.5,-1008.44 542.5,-641 198.5,-641"/>
<text text-anchor="middle" x="289" y="-993.24" font-family="Times,serif" font-size="14.00">IF_PRESSURE_ZONES</text>
</g>
<g id="clust2" class="cluster">
<title>cluster_cond853f6c0</title>
<polygon fill="none" stroke="black" points="206.5,-677.72 206.5,-968.72 534.5,-968.72 534.5,-677.72 206.5,-677.72"/>
<text text-anchor="middle" x="260.5" y="-953.52" font-family="Times,serif" font-size="14.00">cond853f6c0</text>
</g>
<!-- start_SUBPROGRAM_85aebc0 -->
<g id="node1" class="node">
<title>start_SUBPROGRAM_85aebc0</title>
<ellipse fill="none" stroke="black" cx="370.5" cy="-1328.44" rx="7" ry="7"/>
</g>
<!-- COMMENT_83e6d40+1 -->
<g id="node2" class="node">
<title>COMMENT_83e6d40+1</title>
<polygon fill="none" stroke="black" points="732.5,-1285.44 2.5,-1285.44 2.5,-1232.44 738.5,-1232.44 738.5,-1279.44 732.5,-1285.44"/>
<polyline fill="none" stroke="black" points="732.5,-1285.44 732.5,-1279.44 "/>
<polyline fill="none" stroke="black" points="738.5,-1279.44 732.5,-1279.44 "/>
<text text-anchor="middle" x="370.5" y="-1270.24" font-family="Times,serif" font-size="14.00">!&gt; brief Finish computing the divergence of the flow, D, and then compute its time derivative, DDDT</text>
<text text-anchor="middle" x="370.5" y="-1255.24" font-family="Times,serif" font-size="14.00">!&gt; param DT Time step (s)</text>
<text text-anchor="middle" x="370.5" y="-1240.24" font-family="Times,serif" font-size="14.00">!&gt; param NM Mesh number</text>
</g>
<!-- start_SUBPROGRAM_85aebc0&#45;&gt;COMMENT_83e6d40+1 -->
<g id="edge1" class="edge">
<title>start_SUBPROGRAM_85aebc0&#45;&gt;COMMENT_83e6d40+1</title>
<path fill="none" stroke="black" d="M370.5,-1321.21C370.5,-1315.2 370.5,-1305.6 370.5,-1295.76"/>
<polygon fill="black" stroke="black" points="374,-1295.56 370.5,-1285.56 367,-1295.56 374,-1295.56"/>
</g>
<!-- CALL_83f0e40 -->
<g id="node3" class="node">
<title>CALL_83f0e40</title>
<g id="a_node3"><a xlink:href="POINT_TO_MESH.svg" xlink:title="POINT_TO_MESH">
<polygon fill="lightgray" stroke="black" points="442.5,-1196.44 298.5,-1196.44 298.5,-1192.44 294.5,-1192.44 294.5,-1188.44 298.5,-1188.44 298.5,-1168.44 294.5,-1168.44 294.5,-1164.44 298.5,-1164.44 298.5,-1160.44 442.5,-1160.44 442.5,-1196.44"/>
<polyline fill="none" stroke="black" points="298.5,-1192.44 302.5,-1192.44 302.5,-1188.44 298.5,-1188.44 "/>
<polyline fill="none" stroke="black" points="298.5,-1168.44 302.5,-1168.44 302.5,-1164.44 298.5,-1164.44 "/>
<text text-anchor="middle" x="370.5" y="-1174.74" font-family="Times,serif" font-size="14.00">POINT_TO_MESH</text>
</a>
</g>
</g>
<!-- COMMENT_83e6d40+1&#45;&gt;CALL_83f0e40 -->
<g id="edge2" class="edge">
<title>COMMENT_83e6d40+1&#45;&gt;CALL_83f0e40</title>
<path fill="none" stroke="black" d="M370.5,-1232.24C370.5,-1224.15 370.5,-1215.2 370.5,-1206.99"/>
<polygon fill="black" stroke="black" points="374,-1206.77 370.5,-1196.77 367,-1206.77 374,-1206.77"/>
</g>
<!-- COMMENT_83f4a80+1 -->
<g id="node4" class="node">
<title>COMMENT_83f4a80+1</title>
<polygon fill="none" stroke="black" points="735,-1124.44 0,-1124.44 0,-1088.44 741,-1088.44 741,-1118.44 735,-1124.44"/>
<polyline fill="none" stroke="black" points="735,-1124.44 735,-1118.44 "/>
<polyline fill="none" stroke="black" points="741,-1118.44 735,-1118.44 "/>
<text text-anchor="middle" x="370.5" y="-1102.74" font-family="Times,serif" font-size="14.00">Adjust volume flows (USUM) of pressure ZONEs that are connected to equalize background pressure</text>
</g>
<!-- CALL_83f0e40&#45;&gt;COMMENT_83f4a80+1 -->
<g id="edge3" class="edge">
<title>CALL_83f0e40&#45;&gt;COMMENT_83f4a80+1</title>
<path fill="none" stroke="black" d="M370.5,-1160.14C370.5,-1152.42 370.5,-1143.15 370.5,-1134.55"/>
<polygon fill="black" stroke="black" points="374,-1134.54 370.5,-1124.54 367,-1134.54 374,-1134.54"/>
</g>
<!-- COMMENT_8516b80+1 -->
<g id="node5" class="node">
<title>COMMENT_8516b80+1</title>
<polygon fill="none" stroke="black" points="515.5,-1052.44 219.5,-1052.44 219.5,-1016.44 521.5,-1016.44 521.5,-1046.44 515.5,-1052.44"/>
<polyline fill="none" stroke="black" points="515.5,-1052.44 515.5,-1046.44 "/>
<polyline fill="none" stroke="black" points="521.5,-1046.44 515.5,-1046.44 "/>
<text text-anchor="middle" x="370.5" y="-1030.74" font-family="Times,serif" font-size="14.00">Compute dP/dt for each pressure ZONE</text>
</g>
<!-- COMMENT_83f4a80+1&#45;&gt;COMMENT_8516b80+1 -->
<g id="edge4" class="edge">
<title>COMMENT_83f4a80+1&#45;&gt;COMMENT_8516b80+1</title>
<path fill="none" stroke="black" d="M370.5,-1088.14C370.5,-1080.42 370.5,-1071.15 370.5,-1062.55"/>
<polygon fill="black" stroke="black" points="374,-1062.54 370.5,-1052.54 367,-1062.54 374,-1062.54"/>
</g>
<!-- beginIf_IF_853f740 -->
<g id="node6" class="node">
<title>beginIf_IF_853f740</title>
<ellipse fill="black" stroke="black" cx="370.5" cy="-977.08" rx="0.36" ry="0.36"/>
</g>
<!-- COMMENT_8516b80+1&#45;&gt;beginIf_IF_853f740 -->
<g id="edge10" class="edge">
<title>COMMENT_8516b80+1&#45;&gt;beginIf_IF_853f740</title>
<path fill="none" stroke="black" d="M370.5,-1016.23C370.5,-1000.48 370.5,-979.44 370.5,-978.14"/>
</g>
<!-- COMMENT_851abc0+1 -->
<g id="node8" class="node">
<title>COMMENT_851abc0+1</title>
<polygon fill="none" stroke="black" points="520,-937.72 215,-937.72 215,-901.72 526,-901.72 526,-931.72 520,-937.72"/>
<polyline fill="none" stroke="black" points="520,-937.72 520,-931.72 "/>
<polyline fill="none" stroke="black" points="526,-931.72 520,-931.72 "/>
<text text-anchor="middle" x="370.5" y="-916.02" font-family="Times,serif" font-size="14.00">Compute change in background pressure</text>
</g>
<!-- beginIf_IF_853f740&#45;&gt;COMMENT_851abc0+1 -->
<g id="edge8" class="edge">
<title>beginIf_IF_853f740&#45;&gt;COMMENT_851abc0+1</title>
<path fill="none" stroke="black" d="M370.5,-976.56C370.5,-974.93 370.5,-961.24 370.5,-947.82"/>
<polygon fill="black" stroke="black" points="374,-947.82 370.5,-937.82 367,-947.82 374,-947.82"/>
</g>
<!-- endIf_IF_853f740 -->
<g id="node7" class="node">
<title>endIf_IF_853f740</title>
<ellipse fill="black" stroke="black" cx="370.5" cy="-649.36" rx="0.36" ry="0.36"/>
</g>
<!-- COMMENT_853f5c0+1 -->
<g id="node12" class="node">
<title>COMMENT_853f5c0+1</title>
<polygon fill="none" stroke="black" points="491.5,-613 243.5,-613 243.5,-577 497.5,-577 497.5,-607 491.5,-613"/>
<polyline fill="none" stroke="black" points="491.5,-613 491.5,-607 "/>
<polyline fill="none" stroke="black" points="497.5,-607 491.5,-607 "/>
<text text-anchor="middle" x="370.5" y="-591.3" font-family="Times,serif" font-size="14.00">Zero out divergence in solid cells</text>
</g>
<!-- endIf_IF_853f740&#45;&gt;COMMENT_853f5c0+1 -->
<g id="edge11" class="edge">
<title>endIf_IF_853f740&#45;&gt;COMMENT_853f5c0+1</title>
<path fill="none" stroke="black" d="M370.5,-648.21C370.5,-646.77 370.5,-635.23 370.5,-623.36"/>
<polygon fill="black" stroke="black" points="374,-623.1 370.5,-613.1 367,-623.1 374,-623.1"/>
</g>
<!-- COMMENT_8522660+1 -->
<g id="node9" class="node">
<title>COMMENT_8522660+1</title>
<polygon fill="none" stroke="black" points="509.5,-865.72 225.5,-865.72 225.5,-829.72 515.5,-829.72 515.5,-859.72 509.5,-865.72"/>
<polyline fill="none" stroke="black" points="509.5,-865.72 509.5,-859.72 "/>
<polyline fill="none" stroke="black" points="515.5,-859.72 509.5,-859.72 "/>
<text text-anchor="middle" x="370.5" y="-844.02" font-family="Times,serif" font-size="14.00">Add pressure derivative to divergence</text>
</g>
<!-- COMMENT_851abc0+1&#45;&gt;COMMENT_8522660+1 -->
<g id="edge5" class="edge">
<title>COMMENT_851abc0+1&#45;&gt;COMMENT_8522660+1</title>
<path fill="none" stroke="black" d="M370.5,-901.42C370.5,-893.7 370.5,-884.43 370.5,-875.83"/>
<polygon fill="black" stroke="black" points="374,-875.82 370.5,-865.82 367,-875.82 374,-875.82"/>
</g>
<!-- CALL_8529f00 -->
<g id="node10" class="node">
<title>CALL_8529f00</title>
<g id="a_node10"><a xlink:href="ADD_CUTCELL_D_PBAR_DT.svg" xlink:title="ADD_CUTCELL_D_PBAR_DT">
<polygon fill="lightgray" stroke="black" points="479.5,-793.72 261.5,-793.72 261.5,-789.72 257.5,-789.72 257.5,-785.72 261.5,-785.72 261.5,-765.72 257.5,-765.72 257.5,-761.72 261.5,-761.72 261.5,-757.72 479.5,-757.72 479.5,-793.72"/>
<polyline fill="none" stroke="black" points="261.5,-789.72 265.5,-789.72 265.5,-785.72 261.5,-785.72 "/>
<polyline fill="none" stroke="black" points="261.5,-765.72 265.5,-765.72 265.5,-761.72 261.5,-761.72 "/>
<text text-anchor="middle" x="370.5" y="-772.02" font-family="Times,serif" font-size="14.00">ADD_CUTCELL_D_PBAR_DT</text>
</a>
</g>
</g>
<!-- COMMENT_8522660+1&#45;&gt;CALL_8529f00 -->
<g id="edge6" class="edge">
<title>COMMENT_8522660+1&#45;&gt;CALL_8529f00</title>
<path fill="none" stroke="black" d="M370.5,-829.42C370.5,-821.7 370.5,-812.43 370.5,-803.83"/>
<polygon fill="black" stroke="black" points="374,-803.82 370.5,-793.82 367,-803.82 374,-803.82"/>
</g>
<!-- CALL_8538e00 -->
<g id="node11" class="node">
<title>CALL_8538e00</title>
<g id="a_node11"><a xlink:href="ADD_LINKEDCELL_D_PBAR_DT.svg" xlink:title="ADD_LINKEDCELL_D_PBAR_DT">
<polygon fill="lightgray" stroke="black" points="493,-721.72 248,-721.72 248,-717.72 244,-717.72 244,-713.72 248,-713.72 248,-693.72 244,-693.72 244,-689.72 248,-689.72 248,-685.72 493,-685.72 493,-721.72"/>
<polyline fill="none" stroke="black" points="248,-717.72 252,-717.72 252,-713.72 248,-713.72 "/>
<polyline fill="none" stroke="black" points="248,-693.72 252,-693.72 252,-689.72 248,-689.72 "/>
<text text-anchor="middle" x="370.5" y="-700.02" font-family="Times,serif" font-size="14.00">ADD_LINKEDCELL_D_PBAR_DT</text>
</a>
</g>
</g>
<!-- CALL_8529f00&#45;&gt;CALL_8538e00 -->
<g id="edge7" class="edge">
<title>CALL_8529f00&#45;&gt;CALL_8538e00</title>
<path fill="none" stroke="black" d="M370.5,-757.42C370.5,-749.7 370.5,-740.43 370.5,-731.83"/>
<polygon fill="black" stroke="black" points="374,-731.82 370.5,-721.82 367,-731.82 374,-731.82"/>
</g>
<!-- CALL_8538e00&#45;&gt;endIf_IF_853f740 -->
<g id="edge9" class="edge">
<title>CALL_8538e00&#45;&gt;endIf_IF_853f740</title>
<path fill="none" stroke="black" d="M370.5,-685.66C370.5,-670.65 370.5,-650.99 370.5,-649.78"/>
</g>
<!-- DO_8545de0 -->
<g id="node13" class="node">
<title>DO_8545de0</title>
<polygon fill="none" stroke="orange" points="426,-541 315,-541 315,-505 426,-505 426,-541"/>
<text text-anchor="middle" x="370.5" y="-519.3" font-family="Times,serif" font-size="14.00">SOLID_LOOP</text>
</g>
<!-- COMMENT_853f5c0+1&#45;&gt;DO_8545de0 -->
<g id="edge12" class="edge">
<title>COMMENT_853f5c0+1&#45;&gt;DO_8545de0</title>
<path fill="none" stroke="black" d="M370.5,-576.7C370.5,-568.98 370.5,-559.71 370.5,-551.11"/>
<polygon fill="black" stroke="black" points="374,-551.1 370.5,-541.1 367,-551.1 374,-551.1"/>
</g>
<!-- COMMENT_8537ac0+1 -->
<g id="node14" class="node">
<title>COMMENT_8537ac0+1</title>
<polygon fill="none" stroke="black" points="474,-469 261,-469 261,-433 480,-433 480,-463 474,-469"/>
<polyline fill="none" stroke="black" points="474,-469 474,-463 "/>
<polyline fill="none" stroke="black" points="480,-463 474,-463 "/>
<text text-anchor="middle" x="370.5" y="-447.3" font-family="Times,serif" font-size="14.00">Zero out CC_IBM solid cells:</text>
</g>
<!-- DO_8545de0&#45;&gt;COMMENT_8537ac0+1 -->
<g id="edge13" class="edge">
<title>DO_8545de0&#45;&gt;COMMENT_8537ac0+1</title>
<path fill="none" stroke="black" d="M370.5,-504.7C370.5,-496.98 370.5,-487.71 370.5,-479.11"/>
<polygon fill="black" stroke="black" points="374,-479.1 370.5,-469.1 367,-479.1 374,-479.1"/>
</g>
<!-- CALL_854d520 -->
<g id="node15" class="node">
<title>CALL_854d520</title>
<g id="a_node15"><a xlink:href="GET_LINKED_VELOCITIES.svg" xlink:title="GET_LINKED_VELOCITIES">
<polygon fill="lightgray" stroke="black" points="475.5,-397 265.5,-397 265.5,-393 261.5,-393 261.5,-389 265.5,-389 265.5,-369 261.5,-369 261.5,-365 265.5,-365 265.5,-361 475.5,-361 475.5,-397"/>
<polyline fill="none" stroke="black" points="265.5,-393 269.5,-393 269.5,-389 265.5,-389 "/>
<polyline fill="none" stroke="black" points="265.5,-369 269.5,-369 269.5,-365 265.5,-365 "/>
<text text-anchor="middle" x="370.5" y="-375.3" font-family="Times,serif" font-size="14.00">GET_LINKED_VELOCITIES</text>
</a>
</g>
</g>
<!-- COMMENT_8537ac0+1&#45;&gt;CALL_854d520 -->
<g id="edge14" class="edge">
<title>COMMENT_8537ac0+1&#45;&gt;CALL_854d520</title>
<path fill="none" stroke="black" d="M370.5,-432.7C370.5,-424.98 370.5,-415.71 370.5,-407.11"/>
<polygon fill="black" stroke="black" points="374,-407.1 370.5,-397.1 367,-407.1 374,-407.1"/>
</g>
<!-- COMMENT_8542cc0+1 -->
<g id="node16" class="node">
<title>COMMENT_8542cc0+1</title>
<polygon fill="none" stroke="black" points="688.5,-325 46.5,-325 46.5,-289 694.5,-289 694.5,-319 688.5,-325"/>
<polyline fill="none" stroke="black" points="688.5,-325 688.5,-319 "/>
<polyline fill="none" stroke="black" points="694.5,-319 688.5,-319 "/>
<text text-anchor="middle" x="370.5" y="-303.3" font-family="Times,serif" font-size="14.00">Specify divergence in boundary cells to account for volume being generated at the walls</text>
</g>
<!-- CALL_854d520&#45;&gt;COMMENT_8542cc0+1 -->
<g id="edge15" class="edge">
<title>CALL_854d520&#45;&gt;COMMENT_8542cc0+1</title>
<path fill="none" stroke="black" d="M370.5,-360.7C370.5,-352.98 370.5,-343.71 370.5,-335.11"/>
<polygon fill="black" stroke="black" points="374,-335.1 370.5,-325.1 367,-335.1 374,-335.1"/>
</g>
<!-- DO_8577140 -->
<g id="node17" class="node">
<title>DO_8577140</title>
<polygon fill="none" stroke="orange" points="413.5,-253 327.5,-253 327.5,-217 413.5,-217 413.5,-253"/>
<text text-anchor="middle" x="370.5" y="-231.3" font-family="Times,serif" font-size="14.00">BC_LOOP</text>
</g>
<!-- COMMENT_8542cc0+1&#45;&gt;DO_8577140 -->
<g id="edge16" class="edge">
<title>COMMENT_8542cc0+1&#45;&gt;DO_8577140</title>
<path fill="none" stroke="black" d="M370.5,-288.7C370.5,-280.98 370.5,-271.71 370.5,-263.11"/>
<polygon fill="black" stroke="black" points="374,-263.1 370.5,-253.1 367,-263.1 374,-263.1"/>
</g>
<!-- COMMENT_8576d60+1 -->
<g id="node18" class="node">
<title>COMMENT_8576d60+1</title>
<polygon fill="none" stroke="black" points="550.5,-181 184.5,-181 184.5,-145 556.5,-145 556.5,-175 550.5,-181"/>
<polyline fill="none" stroke="black" points="550.5,-181 550.5,-175 "/>
<polyline fill="none" stroke="black" points="556.5,-175 550.5,-175 "/>
<text text-anchor="middle" x="370.5" y="-159.3" font-family="Times,serif" font-size="14.00">Compute time derivative of the divergence, dD/dt</text>
</g>
<!-- DO_8577140&#45;&gt;COMMENT_8576d60+1 -->
<g id="edge17" class="edge">
<title>DO_8577140&#45;&gt;COMMENT_8576d60+1</title>
<path fill="none" stroke="black" d="M370.5,-216.7C370.5,-208.98 370.5,-199.71 370.5,-191.11"/>
<polygon fill="black" stroke="black" points="374,-191.1 370.5,-181.1 367,-191.1 374,-191.1"/>
</g>
<!-- CALL_85af060 -->
<g id="node19" class="node">
<title>CALL_85af060</title>
<g id="a_node19"><a xlink:href="GET_CUTCELL_DDDT.svg" xlink:title="GET_CUTCELL_DDDT">
<polygon fill="lightgray" stroke="black" points="457.5,-109 283.5,-109 283.5,-105 279.5,-105 279.5,-101 283.5,-101 283.5,-81 279.5,-81 279.5,-77 283.5,-77 283.5,-73 457.5,-73 457.5,-109"/>
<polyline fill="none" stroke="black" points="283.5,-105 287.5,-105 287.5,-101 283.5,-101 "/>
<polyline fill="none" stroke="black" points="283.5,-81 287.5,-81 287.5,-77 283.5,-77 "/>
<text text-anchor="middle" x="370.5" y="-87.3" font-family="Times,serif" font-size="14.00">GET_CUTCELL_DDDT</text>
</a>
</g>
</g>
<!-- COMMENT_8576d60+1&#45;&gt;CALL_85af060 -->
<g id="edge18" class="edge">
<title>COMMENT_8576d60+1&#45;&gt;CALL_85af060</title>
<path fill="none" stroke="black" d="M370.5,-144.7C370.5,-136.98 370.5,-127.71 370.5,-119.11"/>
<polygon fill="black" stroke="black" points="374,-119.1 370.5,-109.1 367,-119.1 374,-119.1"/>
</g>
<!-- end_SUBPROGRAM_85aebc0 -->
<g id="node20" class="node">
<title>end_SUBPROGRAM_85aebc0</title>
<ellipse fill="black" stroke="black" cx="370.5" cy="-30" rx="7" ry="7"/>
</g>
<!-- CALL_85af060&#45;&gt;end_SUBPROGRAM_85aebc0 -->
<g id="edge19" class="edge">
<title>CALL_85af060&#45;&gt;end_SUBPROGRAM_85aebc0</title>
<path fill="none" stroke="black" d="M370.5,-72.93C370.5,-64.89 370.5,-55.33 370.5,-47.37"/>
<polygon fill="black" stroke="black" points="374,-47.22 370.5,-37.22 367,-47.22 374,-47.22"/>
</g>
</g>
</svg>
