<?xml version="1.0" encoding="UTF-8" standalone="no"?>
<!DOCTYPE svg PUBLIC "-//W3C//DTD SVG 1.1//EN"
 "http://www.w3.org/Graphics/SVG/1.1/DTD/svg11.dtd">
<!-- Generated by graphviz version 2.43.0 (0)
 -->
<!-- Title: DUMP_GLOBAL_OUTPUTS Pages: 1 -->
<svg width="730pt" height="1823pt"
 viewBox="0.00 0.00 730.00 1823.00" xmlns="http://www.w3.org/2000/svg" xmlns:xlink="http://www.w3.org/1999/xlink">
<g id="graph0" class="graph" transform="scale(1 1) rotate(0) translate(4 1819)">
<title>DUMP_GLOBAL_OUTPUTS</title>
<polygon fill="white" stroke="transparent" points="-4,4 -4,-1819 726,-1819 726,4 -4,4"/>
<text text-anchor="middle" x="361" y="-7.8" font-family="Times,serif" font-size="14.00">DUMP_GLOBAL_OUTPUTS</text>
<!-- start_SUBPROGRAM_87af420 -->
<g id="node1" class="node">
<title>start_SUBPROGRAM_87af420</title>
<ellipse fill="none" stroke="black" cx="361" cy="-1808" rx="7" ry="7"/>
</g>
<!-- COMMENT_8778a80+1 -->
<g id="node2" class="node">
<title>COMMENT_8778a80+1</title>
<polygon fill="none" stroke="black" points="716,-1765 0,-1765 0,-1729 722,-1729 722,-1759 716,-1765"/>
<polyline fill="none" stroke="black" points="716,-1765 716,-1759 "/>
<polyline fill="none" stroke="black" points="722,-1759 716,-1759 "/>
<text text-anchor="middle" x="361" y="-1743.3" font-family="Times,serif" font-size="14.00">!&gt; brief Dump HRR data to CHID_hrr.csv, MASS data to CHID_mass.csv, DEVICE data to _devc.csv</text>
</g>
<!-- start_SUBPROGRAM_87af420&#45;&gt;COMMENT_8778a80+1 -->
<g id="edge1" class="edge">
<title>start_SUBPROGRAM_87af420&#45;&gt;COMMENT_8778a80+1</title>
<path fill="none" stroke="black" d="M361,-1800.69C361,-1794.49 361,-1784.59 361,-1775.05"/>
<polygon fill="black" stroke="black" points="364.5,-1775.02 361,-1765.02 357.5,-1775.02 364.5,-1775.02"/>
</g>
<!-- COMMENT_875f180+1 -->
<g id="node3" class="node">
<title>COMMENT_875f180+1</title>
<polygon fill="none" stroke="black" points="498.5,-1693 217.5,-1693 217.5,-1657 504.5,-1657 504.5,-1687 498.5,-1693"/>
<polyline fill="none" stroke="black" points="498.5,-1693 498.5,-1687 "/>
<polyline fill="none" stroke="black" points="504.5,-1687 498.5,-1687 "/>
<text text-anchor="middle" x="361" y="-1671.3" font-family="Times,serif" font-size="14.00">Dump out HRR info into CHID_hrr.csv</text>
</g>
<!-- COMMENT_8778a80+1&#45;&gt;COMMENT_875f180+1 -->
<g id="edge2" class="edge">
<title>COMMENT_8778a80+1&#45;&gt;COMMENT_875f180+1</title>
<path fill="none" stroke="black" d="M361,-1728.7C361,-1720.98 361,-1711.71 361,-1703.11"/>
<polygon fill="black" stroke="black" points="364.5,-1703.1 361,-1693.1 357.5,-1703.1 364.5,-1703.1"/>
</g>
<!-- CALL_8778ee0 -->
<g id="node4" class="node">
<title>CALL_8778ee0</title>
<g id="a_node4"><a xlink:href="DUMP_HRR.svg" xlink:title="DUMP_HRR">
<polygon fill="lightgray" stroke="black" points="413,-1621 309,-1621 309,-1617 305,-1617 305,-1613 309,-1613 309,-1593 305,-1593 305,-1589 309,-1589 309,-1585 413,-1585 413,-1621"/>
<polyline fill="none" stroke="black" points="309,-1617 313,-1617 313,-1613 309,-1613 "/>
<polyline fill="none" stroke="black" points="309,-1593 313,-1593 313,-1589 309,-1589 "/>
<text text-anchor="middle" x="361" y="-1599.3" font-family="Times,serif" font-size="14.00">DUMP_HRR</text>
</a>
</g>
</g>
<!-- COMMENT_875f180+1&#45;&gt;CALL_8778ee0 -->
<g id="edge3" class="edge">
<title>COMMENT_875f180+1&#45;&gt;CALL_8778ee0</title>
<path fill="none" stroke="black" d="M361,-1656.7C361,-1648.98 361,-1639.71 361,-1631.11"/>
<polygon fill="black" stroke="black" points="364.5,-1631.1 361,-1621.1 357.5,-1631.1 364.5,-1631.1"/>
</g>
<!-- COMMENT_877c900+1 -->
<g id="node5" class="node">
<title>COMMENT_877c900+1</title>
<polygon fill="none" stroke="black" points="498.5,-1549 217.5,-1549 217.5,-1513 504.5,-1513 504.5,-1543 498.5,-1549"/>
<polyline fill="none" stroke="black" points="498.5,-1549 498.5,-1543 "/>
<polyline fill="none" stroke="black" points="504.5,-1543 498.5,-1543 "/>
<text text-anchor="middle" x="361" y="-1527.3" font-family="Times,serif" font-size="14.00">Dump out HRR info into CHID_hrr.csv</text>
</g>
<!-- CALL_8778ee0&#45;&gt;COMMENT_877c900+1 -->
<g id="edge4" class="edge">
<title>CALL_8778ee0&#45;&gt;COMMENT_877c900+1</title>
<path fill="none" stroke="black" d="M361,-1584.7C361,-1576.98 361,-1567.71 361,-1559.11"/>
<polygon fill="black" stroke="black" points="364.5,-1559.1 361,-1549.1 357.5,-1559.1 364.5,-1559.1"/>
</g>
<!-- CALL_877f9e0 -->
<g id="node6" class="node">
<title>CALL_877f9e0</title>
<g id="a_node6"><a xlink:href="DUMP_HVAC.svg" xlink:title="DUMP_HVAC">
<polygon fill="lightgray" stroke="black" points="417,-1477 305,-1477 305,-1473 301,-1473 301,-1469 305,-1469 305,-1449 301,-1449 301,-1445 305,-1445 305,-1441 417,-1441 417,-1477"/>
<polyline fill="none" stroke="black" points="305,-1473 309,-1473 309,-1469 305,-1469 "/>
<polyline fill="none" stroke="black" points="305,-1449 309,-1449 309,-1445 305,-1445 "/>
<text text-anchor="middle" x="361" y="-1455.3" font-family="Times,serif" font-size="14.00">DUMP_HVAC</text>
</a>
</g>
</g>
<!-- COMMENT_877c900+1&#45;&gt;CALL_877f9e0 -->
<g id="edge5" class="edge">
<title>COMMENT_877c900+1&#45;&gt;CALL_877f9e0</title>
<path fill="none" stroke="black" d="M361,-1512.7C361,-1504.98 361,-1495.71 361,-1487.11"/>
<polygon fill="black" stroke="black" points="364.5,-1487.1 361,-1477.1 357.5,-1487.1 364.5,-1487.1"/>
</g>
<!-- COMMENT_877cfa0+1 -->
<g id="node7" class="node">
<title>COMMENT_877cfa0+1</title>
<polygon fill="none" stroke="black" points="568.5,-1405 147.5,-1405 147.5,-1369 574.5,-1369 574.5,-1399 568.5,-1405"/>
<polyline fill="none" stroke="black" points="568.5,-1405 568.5,-1399 "/>
<polyline fill="none" stroke="black" points="574.5,-1399 568.5,-1399 "/>
<text text-anchor="middle" x="361" y="-1383.3" font-family="Times,serif" font-size="14.00">Dump unstructured geometry and boundary element info</text>
</g>
<!-- CALL_877f9e0&#45;&gt;COMMENT_877cfa0+1 -->
<g id="edge6" class="edge">
<title>CALL_877f9e0&#45;&gt;COMMENT_877cfa0+1</title>
<path fill="none" stroke="black" d="M361,-1440.7C361,-1432.98 361,-1423.71 361,-1415.11"/>
<polygon fill="black" stroke="black" points="364.5,-1415.1 361,-1405.1 357.5,-1415.1 364.5,-1415.1"/>
</g>
<!-- CALL_87824a0 -->
<g id="node8" class="node">
<title>CALL_87824a0</title>
<g id="a_node8"><a xlink:href="DUMP_GEOM.svg" xlink:title="DUMP_GEOM">
<polygon fill="lightgray" stroke="black" points="420,-1333 302,-1333 302,-1329 298,-1329 298,-1325 302,-1325 302,-1305 298,-1305 298,-1301 302,-1301 302,-1297 420,-1297 420,-1333"/>
<polyline fill="none" stroke="black" points="302,-1329 306,-1329 306,-1325 302,-1325 "/>
<polyline fill="none" stroke="black" points="302,-1305 306,-1305 306,-1301 302,-1301 "/>
<text text-anchor="middle" x="361" y="-1311.3" font-family="Times,serif" font-size="14.00">DUMP_GEOM</text>
</a>
</g>
</g>
<!-- COMMENT_877cfa0+1&#45;&gt;CALL_87824a0 -->
<g id="edge7" class="edge">
<title>COMMENT_877cfa0+1&#45;&gt;CALL_87824a0</title>
<path fill="none" stroke="black" d="M361,-1368.7C361,-1360.98 361,-1351.71 361,-1343.11"/>
<polygon fill="black" stroke="black" points="364.5,-1343.1 361,-1333.1 357.5,-1343.1 364.5,-1343.1"/>
</g>
<!-- CALL_87866a0 -->
<g id="node9" class="node">
<title>CALL_87866a0</title>
<g id="a_node9"><a xlink:href="DUMP_GEOM.svg" xlink:title="DUMP_GEOM">
<polygon fill="lightgray" stroke="black" points="420,-1261 302,-1261 302,-1257 298,-1257 298,-1253 302,-1253 302,-1233 298,-1233 298,-1229 302,-1229 302,-1225 420,-1225 420,-1261"/>
<polyline fill="none" stroke="black" points="302,-1257 306,-1257 306,-1253 302,-1253 "/>
<polyline fill="none" stroke="black" points="302,-1233 306,-1233 306,-1229 302,-1229 "/>
<text text-anchor="middle" x="361" y="-1239.3" font-family="Times,serif" font-size="14.00">DUMP_GEOM</text>
</a>
</g>
</g>
<!-- CALL_87824a0&#45;&gt;CALL_87866a0 -->
<g id="edge8" class="edge">
<title>CALL_87824a0&#45;&gt;CALL_87866a0</title>
<path fill="none" stroke="black" d="M361,-1296.7C361,-1288.98 361,-1279.71 361,-1271.11"/>
<polygon fill="black" stroke="black" points="364.5,-1271.1 361,-1261.1 357.5,-1271.1 364.5,-1271.1"/>
</g>
<!-- COMMENT_87896a0+1 -->
<g id="node10" class="node">
<title>COMMENT_87896a0+1</title>
<polygon fill="none" stroke="black" points="508.5,-1189 207.5,-1189 207.5,-1153 514.5,-1153 514.5,-1183 508.5,-1189"/>
<polyline fill="none" stroke="black" points="508.5,-1189 508.5,-1183 "/>
<polyline fill="none" stroke="black" points="514.5,-1183 508.5,-1183 "/>
<text text-anchor="middle" x="361" y="-1167.3" font-family="Times,serif" font-size="14.00">Dump out mass info into CHID_mass.csv</text>
</g>
<!-- CALL_87866a0&#45;&gt;COMMENT_87896a0+1 -->
<g id="edge9" class="edge">
<title>CALL_87866a0&#45;&gt;COMMENT_87896a0+1</title>
<path fill="none" stroke="black" d="M361,-1224.7C361,-1216.98 361,-1207.71 361,-1199.11"/>
<polygon fill="black" stroke="black" points="364.5,-1199.1 361,-1189.1 357.5,-1199.1 364.5,-1199.1"/>
</g>
<!-- CALL_8787ea0 -->
<g id="node11" class="node">
<title>CALL_8787ea0</title>
<g id="a_node11"><a xlink:href="DUMP_MASS.svg" xlink:title="DUMP_MASS">
<polygon fill="lightgray" stroke="black" points="417.5,-1117 304.5,-1117 304.5,-1113 300.5,-1113 300.5,-1109 304.5,-1109 304.5,-1089 300.5,-1089 300.5,-1085 304.5,-1085 304.5,-1081 417.5,-1081 417.5,-1117"/>
<polyline fill="none" stroke="black" points="304.5,-1113 308.5,-1113 308.5,-1109 304.5,-1109 "/>
<polyline fill="none" stroke="black" points="304.5,-1089 308.5,-1089 308.5,-1085 304.5,-1085 "/>
<text text-anchor="middle" x="361" y="-1095.3" font-family="Times,serif" font-size="14.00">DUMP_MASS</text>
</a>
</g>
</g>
<!-- COMMENT_87896a0+1&#45;&gt;CALL_8787ea0 -->
<g id="edge10" class="edge">
<title>COMMENT_87896a0+1&#45;&gt;CALL_8787ea0</title>
<path fill="none" stroke="black" d="M361,-1152.7C361,-1144.98 361,-1135.71 361,-1127.11"/>
<polygon fill="black" stroke="black" points="364.5,-1127.1 361,-1117.1 357.5,-1127.1 364.5,-1127.1"/>
</g>
<!-- COMMENT_8788180+1 -->
<g id="node12" class="node">
<title>COMMENT_8788180+1</title>
<polygon fill="none" stroke="black" points="497,-1045 219,-1045 219,-1009 503,-1009 503,-1039 497,-1045"/>
<polyline fill="none" stroke="black" points="497,-1045 497,-1039 "/>
<polyline fill="none" stroke="black" points="503,-1039 497,-1039 "/>
<text text-anchor="middle" x="361" y="-1023.3" font-family="Times,serif" font-size="14.00">Dump device info into CHID_devc.csv</text>
</g>
<!-- CALL_8787ea0&#45;&gt;COMMENT_8788180+1 -->
<g id="edge11" class="edge">
<title>CALL_8787ea0&#45;&gt;COMMENT_8788180+1</title>
<path fill="none" stroke="black" d="M361,-1080.7C361,-1072.98 361,-1063.71 361,-1055.11"/>
<polygon fill="black" stroke="black" points="364.5,-1055.1 361,-1045.1 357.5,-1055.1 364.5,-1055.1"/>
</g>
<!-- COMMENT_8789c00+1 -->
<g id="node13" class="node">
<title>COMMENT_8789c00+1</title>
<polygon fill="none" stroke="black" points="452.5,-973 263.5,-973 263.5,-937 458.5,-937 458.5,-967 452.5,-973"/>
<polyline fill="none" stroke="black" points="452.5,-973 452.5,-967 "/>
<polyline fill="none" stroke="black" points="458.5,-967 452.5,-967 "/>
<text text-anchor="middle" x="361" y="-951.3" font-family="Times,serif" font-size="14.00">Exchange histogram info</text>
</g>
<!-- COMMENT_8788180+1&#45;&gt;COMMENT_8789c00+1 -->
<g id="edge12" class="edge">
<title>COMMENT_8788180+1&#45;&gt;COMMENT_8789c00+1</title>
<path fill="none" stroke="black" d="M361,-1008.7C361,-1000.98 361,-991.71 361,-983.11"/>
<polygon fill="black" stroke="black" points="364.5,-983.1 361,-973.1 357.5,-983.1 364.5,-983.1"/>
</g>
<!-- CALL_87934a0 -->
<g id="node14" class="node">
<title>CALL_87934a0</title>
<g id="a_node14"><a xlink:href="MPI_SEND.svg" xlink:title="MPI_SEND">
<polygon fill="#ffe800" stroke="black" points="409,-901 313,-901 313,-897 309,-897 309,-893 313,-893 313,-873 309,-873 309,-869 313,-869 313,-865 409,-865 409,-901"/>
<polyline fill="none" stroke="black" points="313,-897 317,-897 317,-893 313,-893 "/>
<polyline fill="none" stroke="black" points="313,-873 317,-873 317,-869 313,-869 "/>
<text text-anchor="middle" x="361" y="-879.3" font-family="Times,serif" font-size="14.00">MPI_SEND</text>
</a>
</g>
</g>
<!-- COMMENT_8789c00+1&#45;&gt;CALL_87934a0 -->
<g id="edge13" class="edge">
<title>COMMENT_8789c00+1&#45;&gt;CALL_87934a0</title>
<path fill="none" stroke="black" d="M361,-936.7C361,-928.98 361,-919.71 361,-911.11"/>
<polygon fill="black" stroke="black" points="364.5,-911.1 361,-901.1 357.5,-911.1 364.5,-911.1"/>
</g>
<!-- CALL_8797c60 -->
<g id="node15" class="node">
<title>CALL_8797c60</title>
<g id="a_node15"><a xlink:href="MPI_RECV.svg" xlink:title="MPI_RECV">
<polygon fill="#ffe800" stroke="black" points="408,-829 314,-829 314,-825 310,-825 310,-821 314,-821 314,-801 310,-801 310,-797 314,-797 314,-793 408,-793 408,-829"/>
<polyline fill="none" stroke="black" points="314,-825 318,-825 318,-821 314,-821 "/>
<polyline fill="none" stroke="black" points="314,-801 318,-801 318,-797 314,-797 "/>
<text text-anchor="middle" x="361" y="-807.3" font-family="Times,serif" font-size="14.00">MPI_RECV</text>
</a>
</g>
</g>
<!-- CALL_87934a0&#45;&gt;CALL_8797c60 -->
<g id="edge14" class="edge">
<title>CALL_87934a0&#45;&gt;CALL_8797c60</title>
<path fill="none" stroke="black" d="M361,-864.7C361,-856.98 361,-847.71 361,-839.11"/>
<polygon fill="black" stroke="black" points="364.5,-839.1 361,-829.1 357.5,-839.1 364.5,-839.1"/>
</g>
<!-- COMMENT_87999a0+1 -->
<g id="node16" class="node">
<title>COMMENT_87999a0+1</title>
<polygon fill="none" stroke="black" points="472,-757 244,-757 244,-721 478,-721 478,-751 472,-757"/>
<polyline fill="none" stroke="black" points="472,-757 472,-751 "/>
<polyline fill="none" stroke="black" points="478,-751 472,-751 "/>
<text text-anchor="middle" x="361" y="-735.3" font-family="Times,serif" font-size="14.00">Dump the device output to file</text>
</g>
<!-- CALL_8797c60&#45;&gt;COMMENT_87999a0+1 -->
<g id="edge15" class="edge">
<title>CALL_8797c60&#45;&gt;COMMENT_87999a0+1</title>
<path fill="none" stroke="black" d="M361,-792.7C361,-784.98 361,-775.71 361,-767.11"/>
<polygon fill="black" stroke="black" points="364.5,-767.1 361,-757.1 357.5,-767.1 364.5,-767.1"/>
</g>
<!-- CALL_8796960 -->
<g id="node17" class="node">
<title>CALL_8796960</title>
<g id="a_node17"><a xlink:href="DUMP_DEVICES.svg" xlink:title="DUMP_DEVICES">
<polygon fill="lightgray" stroke="black" points="430,-685 292,-685 292,-681 288,-681 288,-677 292,-677 292,-657 288,-657 288,-653 292,-653 292,-649 430,-649 430,-685"/>
<polyline fill="none" stroke="black" points="292,-681 296,-681 296,-677 292,-677 "/>
<polyline fill="none" stroke="black" points="292,-657 296,-657 296,-653 292,-653 "/>
<text text-anchor="middle" x="361" y="-663.3" font-family="Times,serif" font-size="14.00">DUMP_DEVICES</text>
</a>
</g>
</g>
<!-- COMMENT_87999a0+1&#45;&gt;CALL_8796960 -->
<g id="edge16" class="edge">
<title>COMMENT_87999a0+1&#45;&gt;CALL_8796960</title>
<path fill="none" stroke="black" d="M361,-720.7C361,-712.98 361,-703.71 361,-695.11"/>
<polygon fill="black" stroke="black" points="364.5,-695.1 361,-685.1 357.5,-695.1 364.5,-695.1"/>
</g>
<!-- DO_879c360 -->
<g id="node18" class="node">
<title>DO_879c360</title>
<polygon fill="none" stroke="orange" points="422,-613 300,-613 300,-577 422,-577 422,-613"/>
<text text-anchor="middle" x="361" y="-591.3" font-family="Times,serif" font-size="14.00">DEVICE_LOOP</text>
</g>
<!-- CALL_8796960&#45;&gt;DO_879c360 -->
<g id="edge17" class="edge">
<title>CALL_8796960&#45;&gt;DO_879c360</title>
<path fill="none" stroke="black" d="M361,-648.7C361,-640.98 361,-631.71 361,-623.11"/>
<polygon fill="black" stroke="black" points="364.5,-623.1 361,-613.1 357.5,-623.1 364.5,-623.1"/>
</g>
<!-- COMMENT_879a740+1 -->
<g id="node19" class="node">
<title>COMMENT_879a740+1</title>
<polygon fill="none" stroke="black" points="664,-541 52,-541 52,-505 670,-505 670,-535 664,-541"/>
<polyline fill="none" stroke="black" points="664,-541 664,-535 "/>
<polyline fill="none" stroke="black" points="670,-535 664,-535 "/>
<text text-anchor="middle" x="361" y="-519.3" font-family="Times,serif" font-size="14.00">Dump CONTROL info. No gathering required as CONTROL is updated on all meshes</text>
</g>
<!-- DO_879c360&#45;&gt;COMMENT_879a740+1 -->
<g id="edge18" class="edge">
<title>DO_879c360&#45;&gt;COMMENT_879a740+1</title>
<path fill="none" stroke="black" d="M361,-576.7C361,-568.98 361,-559.71 361,-551.11"/>
<polygon fill="black" stroke="black" points="364.5,-551.1 361,-541.1 357.5,-551.1 364.5,-551.1"/>
</g>
<!-- CALL_87957e0 -->
<g id="node20" class="node">
<title>CALL_87957e0</title>
<g id="a_node20"><a xlink:href="DUMP_CONTROLS.svg" xlink:title="DUMP_CONTROLS">
<polygon fill="lightgray" stroke="black" points="438,-469 284,-469 284,-465 280,-465 280,-461 284,-461 284,-441 280,-441 280,-437 284,-437 284,-433 438,-433 438,-469"/>
<polyline fill="none" stroke="black" points="284,-465 288,-465 288,-461 284,-461 "/>
<polyline fill="none" stroke="black" points="284,-441 288,-441 288,-437 284,-437 "/>
<text text-anchor="middle" x="361" y="-447.3" font-family="Times,serif" font-size="14.00">DUMP_CONTROLS</text>
</a>
</g>
</g>
<!-- COMMENT_879a740+1&#45;&gt;CALL_87957e0 -->
<g id="edge19" class="edge">
<title>COMMENT_879a740+1&#45;&gt;CALL_87957e0</title>
<path fill="none" stroke="black" d="M361,-504.7C361,-496.98 361,-487.71 361,-479.11"/>
<polygon fill="black" stroke="black" points="364.5,-479.1 361,-469.1 357.5,-479.1 364.5,-479.1"/>
</g>
<!-- COMMENT_87a2080+1 -->
<g id="node21" class="node">
<title>COMMENT_87a2080+1</title>
<polygon fill="none" stroke="black" points="421,-397 295,-397 295,-361 427,-361 427,-391 421,-397"/>
<polyline fill="none" stroke="black" points="421,-397 421,-391 "/>
<polyline fill="none" stroke="black" points="427,-391 421,-391 "/>
<text text-anchor="middle" x="361" y="-375.3" font-family="Times,serif" font-size="14.00">Dump CPU time</text>
</g>
<!-- CALL_87957e0&#45;&gt;COMMENT_87a2080+1 -->
<g id="edge20" class="edge">
<title>CALL_87957e0&#45;&gt;COMMENT_87a2080+1</title>
<path fill="none" stroke="black" d="M361,-432.7C361,-424.98 361,-415.71 361,-407.11"/>
<polygon fill="black" stroke="black" points="364.5,-407.1 361,-397.1 357.5,-407.1 364.5,-407.1"/>
</g>
<!-- CALL_87a3780 -->
<g id="node22" class="node">
<title>CALL_87a3780</title>
<g id="a_node22"><a xlink:href="DUMP_TIMERS.svg" xlink:title="DUMP_TIMERS">
<polygon fill="lightgray" stroke="black" points="426,-325 296,-325 296,-321 292,-321 292,-317 296,-317 296,-297 292,-297 292,-293 296,-293 296,-289 426,-289 426,-325"/>
<polyline fill="none" stroke="black" points="296,-321 300,-321 300,-317 296,-317 "/>
<polyline fill="none" stroke="black" points="296,-297 300,-297 300,-293 296,-293 "/>
<text text-anchor="middle" x="361" y="-303.3" font-family="Times,serif" font-size="14.00">DUMP_TIMERS</text>
</a>
</g>
</g>
<!-- COMMENT_87a2080+1&#45;&gt;CALL_87a3780 -->
<g id="edge21" class="edge">
<title>COMMENT_87a2080+1&#45;&gt;CALL_87a3780</title>
<path fill="none" stroke="black" d="M361,-360.7C361,-352.98 361,-343.71 361,-335.11"/>
<polygon fill="black" stroke="black" points="364.5,-335.1 361,-325.1 357.5,-335.1 364.5,-335.1"/>
</g>
<!-- COMMENT_87a7fa0+1 -->
<g id="node23" class="node">
<title>COMMENT_87a7fa0+1</title>
<polygon fill="none" stroke="black" points="425,-253 291,-253 291,-217 431,-217 431,-247 425,-253"/>
<polyline fill="none" stroke="black" points="425,-253 425,-247 "/>
<polyline fill="none" stroke="black" points="431,-247 425,-247 "/>
<text text-anchor="middle" x="361" y="-231.3" font-family="Times,serif" font-size="14.00">Update event log</text>
</g>
<!-- CALL_87a3780&#45;&gt;COMMENT_87a7fa0+1 -->
<g id="edge22" class="edge">
<title>CALL_87a3780&#45;&gt;COMMENT_87a7fa0+1</title>
<path fill="none" stroke="black" d="M361,-288.7C361,-280.98 361,-271.71 361,-263.11"/>
<polygon fill="black" stroke="black" points="364.5,-263.1 361,-253.1 357.5,-263.1 364.5,-263.1"/>
</g>
<!-- CALL_87ad920 -->
<g id="node24" class="node">
<title>CALL_87ad920</title>
<g id="a_node24"><a xlink:href="WRITE_DEVC_CTRL_LOG.svg" xlink:title="WRITE_DEVC_CTRL_LOG">
<polygon fill="lightgray" stroke="black" points="460.5,-181 261.5,-181 261.5,-177 257.5,-177 257.5,-173 261.5,-173 261.5,-153 257.5,-153 257.5,-149 261.5,-149 261.5,-145 460.5,-145 460.5,-181"/>
<polyline fill="none" stroke="black" points="261.5,-177 265.5,-177 265.5,-173 261.5,-173 "/>
<polyline fill="none" stroke="black" points="261.5,-153 265.5,-153 265.5,-149 261.5,-149 "/>
<text text-anchor="middle" x="361" y="-159.3" font-family="Times,serif" font-size="14.00">WRITE_DEVC_CTRL_LOG</text>
</a>
</g>
</g>
<!-- COMMENT_87a7fa0+1&#45;&gt;CALL_87ad920 -->
<g id="edge23" class="edge">
<title>COMMENT_87a7fa0+1&#45;&gt;CALL_87ad920</title>
<path fill="none" stroke="black" d="M361,-216.7C361,-208.98 361,-199.71 361,-191.11"/>
<polygon fill="black" stroke="black" points="364.5,-191.1 361,-181.1 357.5,-191.1 364.5,-191.1"/>
</g>
<!-- CALL_87b00a0 -->
<g id="node25" class="node">
<title>CALL_87b00a0</title>
<g id="a_node25"><a xlink:href="WRITE_DEVC_CTRL_LOG.svg" xlink:title="WRITE_DEVC_CTRL_LOG">
<polygon fill="lightgray" stroke="black" points="460.5,-109 261.5,-109 261.5,-105 257.5,-105 257.5,-101 261.5,-101 261.5,-81 257.5,-81 257.5,-77 261.5,-77 261.5,-73 460.5,-73 460.5,-109"/>
<polyline fill="none" stroke="black" points="261.5,-105 265.5,-105 265.5,-101 261.5,-101 "/>
<polyline fill="none" stroke="black" points="261.5,-81 265.5,-81 265.5,-77 261.5,-77 "/>
<text text-anchor="middle" x="361" y="-87.3" font-family="Times,serif" font-size="14.00">WRITE_DEVC_CTRL_LOG</text>
</a>
</g>
</g>
<!-- CALL_87ad920&#45;&gt;CALL_87b00a0 -->
<g id="edge24" class="edge">
<title>CALL_87ad920&#45;&gt;CALL_87b00a0</title>
<path fill="none" stroke="black" d="M361,-144.7C361,-136.98 361,-127.71 361,-119.11"/>
<polygon fill="black" stroke="black" points="364.5,-119.1 361,-109.1 357.5,-119.1 364.5,-119.1"/>
</g>
<!-- end_SUBPROGRAM_87af420 -->
<g id="node26" class="node">
<title>end_SUBPROGRAM_87af420</title>
<ellipse fill="black" stroke="black" cx="361" cy="-30" rx="7" ry="7"/>
</g>
<!-- CALL_87b00a0&#45;&gt;end_SUBPROGRAM_87af420 -->
<g id="edge25" class="edge">
<title>CALL_87b00a0&#45;&gt;end_SUBPROGRAM_87af420</title>
<path fill="none" stroke="black" d="M361,-72.93C361,-64.89 361,-55.33 361,-47.37"/>
<polygon fill="black" stroke="black" points="364.5,-47.22 361,-37.22 357.5,-47.22 364.5,-47.22"/>
</g>
</g>
</svg>
