<?xml version="1.0" encoding="UTF-8" standalone="no"?>
<!DOCTYPE svg PUBLIC "-//W3C//DTD SVG 1.1//EN"
 "http://www.w3.org/Graphics/SVG/1.1/DTD/svg11.dtd">
<!-- Generated by graphviz version 2.43.0 (0)
 -->
<!-- Title: END_FDS Pages: 1 -->
<svg width="402pt" height="1391pt"
 viewBox="0.00 0.00 402.00 1391.00" xmlns="http://www.w3.org/2000/svg" xmlns:xlink="http://www.w3.org/1999/xlink">
<g id="graph0" class="graph" transform="scale(1 1) rotate(0) translate(4 1387)">
<title>END_FDS</title>
<polygon fill="white" stroke="transparent" points="-4,4 -4,-1387 398,-1387 398,4 -4,4"/>
<text text-anchor="middle" x="197" y="-7.8" font-family="Times,serif" font-size="14.00">END_FDS</text>
<!-- start_SUBPROGRAM_83c7ce0 -->
<g id="node1" class="node">
<title>start_SUBPROGRAM_83c7ce0</title>
<ellipse fill="none" stroke="black" cx="197" cy="-1376" rx="7" ry="7"/>
</g>
<!-- COMMENT_839f900+1 -->
<g id="node2" class="node">
<title>COMMENT_839f900+1</title>
<polygon fill="none" stroke="black" points="388,-1333 0,-1333 0,-1297 394,-1297 394,-1327 388,-1333"/>
<polyline fill="none" stroke="black" points="388,-1333 388,-1327 "/>
<polyline fill="none" stroke="black" points="394,-1327 388,-1327 "/>
<text text-anchor="middle" x="197" y="-1311.3" font-family="Times,serif" font-size="14.00">!&gt; brief End FDS gracefully, even if there is an error</text>
</g>
<!-- start_SUBPROGRAM_83c7ce0&#45;&gt;COMMENT_839f900+1 -->
<g id="edge1" class="edge">
<title>start_SUBPROGRAM_83c7ce0&#45;&gt;COMMENT_839f900+1</title>
<path fill="none" stroke="black" d="M197,-1368.69C197,-1362.49 197,-1352.59 197,-1343.05"/>
<polygon fill="black" stroke="black" points="200.5,-1343.02 197,-1333.02 193.5,-1343.02 200.5,-1343.02"/>
</g>
<!-- CALL_8398ec0 -->
<g id="node3" class="node">
<title>CALL_8398ec0</title>
<g id="a_node3"><a xlink:href="DUMP_TIMERS.svg" xlink:title="DUMP_TIMERS">
<polygon fill="lightgray" stroke="black" points="262,-1261 132,-1261 132,-1257 128,-1257 128,-1253 132,-1253 132,-1233 128,-1233 128,-1229 132,-1229 132,-1225 262,-1225 262,-1261"/>
<polyline fill="none" stroke="black" points="132,-1257 136,-1257 136,-1253 132,-1253 "/>
<polyline fill="none" stroke="black" points="132,-1233 136,-1233 136,-1229 132,-1229 "/>
<text text-anchor="middle" x="197" y="-1239.3" font-family="Times,serif" font-size="14.00">DUMP_TIMERS</text>
</a>
</g>
</g>
<!-- COMMENT_839f900+1&#45;&gt;CALL_8398ec0 -->
<g id="edge2" class="edge">
<title>COMMENT_839f900+1&#45;&gt;CALL_8398ec0</title>
<path fill="none" stroke="black" d="M197,-1296.7C197,-1288.98 197,-1279.71 197,-1271.11"/>
<polygon fill="black" stroke="black" points="200.5,-1271.1 197,-1261.1 193.5,-1271.1 200.5,-1271.1"/>
</g>
<!-- COMMENT_83a2360+1 -->
<g id="node4" class="node">
<title>COMMENT_83a2360+1</title>
<polygon fill="none" stroke="black" points="368.5,-1189 19.5,-1189 19.5,-1153 374.5,-1153 374.5,-1183 368.5,-1189"/>
<polyline fill="none" stroke="black" points="368.5,-1189 368.5,-1183 "/>
<polyline fill="none" stroke="black" points="374.5,-1183 368.5,-1183 "/>
<text text-anchor="middle" x="197" y="-1167.3" font-family="Times,serif" font-size="14.00">Print out device activation times to the .out file</text>
</g>
<!-- CALL_8398ec0&#45;&gt;COMMENT_83a2360+1 -->
<g id="edge3" class="edge">
<title>CALL_8398ec0&#45;&gt;COMMENT_83a2360+1</title>
<path fill="none" stroke="black" d="M197,-1224.7C197,-1216.98 197,-1207.71 197,-1199.11"/>
<polygon fill="black" stroke="black" points="200.5,-1199.1 197,-1189.1 193.5,-1199.1 200.5,-1199.1"/>
</g>
<!-- CALL_8393f80 -->
<g id="node5" class="node">
<title>CALL_8393f80</title>
<g id="a_node5"><a xlink:href="TIMINGS.svg" xlink:title="TIMINGS">
<polygon fill="lightgray" stroke="black" points="238.5,-1117 155.5,-1117 155.5,-1113 151.5,-1113 151.5,-1109 155.5,-1109 155.5,-1089 151.5,-1089 151.5,-1085 155.5,-1085 155.5,-1081 238.5,-1081 238.5,-1117"/>
<polyline fill="none" stroke="black" points="155.5,-1113 159.5,-1113 159.5,-1109 155.5,-1109 "/>
<polyline fill="none" stroke="black" points="155.5,-1089 159.5,-1089 159.5,-1085 155.5,-1085 "/>
<text text-anchor="middle" x="197" y="-1095.3" font-family="Times,serif" font-size="14.00">TIMINGS</text>
</a>
</g>
</g>
<!-- COMMENT_83a2360+1&#45;&gt;CALL_8393f80 -->
<g id="edge4" class="edge">
<title>COMMENT_83a2360+1&#45;&gt;CALL_8393f80</title>
<path fill="none" stroke="black" d="M197,-1152.7C197,-1144.98 197,-1135.71 197,-1127.11"/>
<polygon fill="black" stroke="black" points="200.5,-1127.1 197,-1117.1 193.5,-1127.1 200.5,-1127.1"/>
</g>
<!-- COMMENT_8395340+1 -->
<g id="node6" class="node">
<title>COMMENT_8395340+1</title>
<polygon fill="none" stroke="black" points="346.5,-1045 41.5,-1045 41.5,-1009 352.5,-1009 352.5,-1039 346.5,-1045"/>
<polyline fill="none" stroke="black" points="346.5,-1045 346.5,-1039 "/>
<polyline fill="none" stroke="black" points="352.5,-1039 346.5,-1039 "/>
<text text-anchor="middle" x="197" y="-1023.3" font-family="Times,serif" font-size="14.00">Print out stop status to .err and .out files</text>
</g>
<!-- CALL_8393f80&#45;&gt;COMMENT_8395340+1 -->
<g id="edge5" class="edge">
<title>CALL_8393f80&#45;&gt;COMMENT_8395340+1</title>
<path fill="none" stroke="black" d="M197,-1080.7C197,-1072.98 197,-1063.71 197,-1055.11"/>
<polygon fill="black" stroke="black" points="200.5,-1055.1 197,-1045.1 193.5,-1055.1 200.5,-1055.1"/>
</g>
<!-- COMMENT_83b7e00+1 -->
<g id="node7" class="node">
<title>COMMENT_83b7e00+1</title>
<polygon fill="none" stroke="black" points="303,-973 85,-973 85,-937 309,-937 309,-967 303,-973"/>
<polyline fill="none" stroke="black" points="303,-973 303,-967 "/>
<polyline fill="none" stroke="black" points="309,-967 303,-967 "/>
<text text-anchor="middle" x="197" y="-951.3" font-family="Times,serif" font-size="14.00">Free MPI send/recv requests</text>
</g>
<!-- COMMENT_8395340+1&#45;&gt;COMMENT_83b7e00+1 -->
<g id="edge6" class="edge">
<title>COMMENT_8395340+1&#45;&gt;COMMENT_83b7e00+1</title>
<path fill="none" stroke="black" d="M197,-1008.7C197,-1000.98 197,-991.71 197,-983.11"/>
<polygon fill="black" stroke="black" points="200.5,-983.1 197,-973.1 193.5,-983.1 200.5,-983.1"/>
</g>
<!-- CALL_83b8ee0 -->
<g id="node8" class="node">
<title>CALL_83b8ee0</title>
<g id="a_node8"><a xlink:href="MPI_REQUEST_FREE.svg" xlink:title="MPI_REQUEST_FREE">
<polygon fill="#ffe800" stroke="black" points="284,-901 110,-901 110,-897 106,-897 106,-893 110,-893 110,-873 106,-873 106,-869 110,-869 110,-865 284,-865 284,-901"/>
<polyline fill="none" stroke="black" points="110,-897 114,-897 114,-893 110,-893 "/>
<polyline fill="none" stroke="black" points="110,-873 114,-873 114,-869 110,-869 "/>
<text text-anchor="middle" x="197" y="-879.3" font-family="Times,serif" font-size="14.00">MPI_REQUEST_FREE</text>
</a>
</g>
</g>
<!-- COMMENT_83b7e00+1&#45;&gt;CALL_83b8ee0 -->
<g id="edge7" class="edge">
<title>COMMENT_83b7e00+1&#45;&gt;CALL_83b8ee0</title>
<path fill="none" stroke="black" d="M197,-936.7C197,-928.98 197,-919.71 197,-911.11"/>
<polygon fill="black" stroke="black" points="200.5,-911.1 197,-901.1 193.5,-911.1 200.5,-911.1"/>
</g>
<!-- CALL_83baa60 -->
<g id="node9" class="node">
<title>CALL_83baa60</title>
<g id="a_node9"><a xlink:href="MPI_REQUEST_FREE.svg" xlink:title="MPI_REQUEST_FREE">
<polygon fill="#ffe800" stroke="black" points="284,-829 110,-829 110,-825 106,-825 106,-821 110,-821 110,-801 106,-801 106,-797 110,-797 110,-793 284,-793 284,-829"/>
<polyline fill="none" stroke="black" points="110,-825 114,-825 114,-821 110,-821 "/>
<polyline fill="none" stroke="black" points="110,-801 114,-801 114,-797 110,-797 "/>
<text text-anchor="middle" x="197" y="-807.3" font-family="Times,serif" font-size="14.00">MPI_REQUEST_FREE</text>
</a>
</g>
</g>
<!-- CALL_83b8ee0&#45;&gt;CALL_83baa60 -->
<g id="edge8" class="edge">
<title>CALL_83b8ee0&#45;&gt;CALL_83baa60</title>
<path fill="none" stroke="black" d="M197,-864.7C197,-856.98 197,-847.71 197,-839.11"/>
<polygon fill="black" stroke="black" points="200.5,-839.1 197,-829.1 193.5,-839.1 200.5,-839.1"/>
</g>
<!-- CALL_83bc6a0 -->
<g id="node10" class="node">
<title>CALL_83bc6a0</title>
<g id="a_node10"><a xlink:href="MPI_REQUEST_FREE.svg" xlink:title="MPI_REQUEST_FREE">
<polygon fill="#ffe800" stroke="black" points="284,-757 110,-757 110,-753 106,-753 106,-749 110,-749 110,-729 106,-729 106,-725 110,-725 110,-721 284,-721 284,-757"/>
<polyline fill="none" stroke="black" points="110,-753 114,-753 114,-749 110,-749 "/>
<polyline fill="none" stroke="black" points="110,-729 114,-729 114,-725 110,-725 "/>
<text text-anchor="middle" x="197" y="-735.3" font-family="Times,serif" font-size="14.00">MPI_REQUEST_FREE</text>
</a>
</g>
</g>
<!-- CALL_83baa60&#45;&gt;CALL_83bc6a0 -->
<g id="edge9" class="edge">
<title>CALL_83baa60&#45;&gt;CALL_83bc6a0</title>
<path fill="none" stroke="black" d="M197,-792.7C197,-784.98 197,-775.71 197,-767.11"/>
<polygon fill="black" stroke="black" points="200.5,-767.1 197,-757.1 193.5,-767.1 200.5,-767.1"/>
</g>
<!-- CALL_83be280 -->
<g id="node11" class="node">
<title>CALL_83be280</title>
<g id="a_node11"><a xlink:href="MPI_REQUEST_FREE.svg" xlink:title="MPI_REQUEST_FREE">
<polygon fill="#ffe800" stroke="black" points="284,-685 110,-685 110,-681 106,-681 106,-677 110,-677 110,-657 106,-657 106,-653 110,-653 110,-649 284,-649 284,-685"/>
<polyline fill="none" stroke="black" points="110,-681 114,-681 114,-677 110,-677 "/>
<polyline fill="none" stroke="black" points="110,-657 114,-657 114,-653 110,-653 "/>
<text text-anchor="middle" x="197" y="-663.3" font-family="Times,serif" font-size="14.00">MPI_REQUEST_FREE</text>
</a>
</g>
</g>
<!-- CALL_83bc6a0&#45;&gt;CALL_83be280 -->
<g id="edge10" class="edge">
<title>CALL_83bc6a0&#45;&gt;CALL_83be280</title>
<path fill="none" stroke="black" d="M197,-720.7C197,-712.98 197,-703.71 197,-695.11"/>
<polygon fill="black" stroke="black" points="200.5,-695.1 197,-685.1 193.5,-695.1 200.5,-695.1"/>
</g>
<!-- CALL_83bfc80 -->
<g id="node12" class="node">
<title>CALL_83bfc80</title>
<g id="a_node12"><a xlink:href="MPI_REQUEST_FREE.svg" xlink:title="MPI_REQUEST_FREE">
<polygon fill="#ffe800" stroke="black" points="284,-613 110,-613 110,-609 106,-609 106,-605 110,-605 110,-585 106,-585 106,-581 110,-581 110,-577 284,-577 284,-613"/>
<polyline fill="none" stroke="black" points="110,-609 114,-609 114,-605 110,-605 "/>
<polyline fill="none" stroke="black" points="110,-585 114,-585 114,-581 110,-581 "/>
<text text-anchor="middle" x="197" y="-591.3" font-family="Times,serif" font-size="14.00">MPI_REQUEST_FREE</text>
</a>
</g>
</g>
<!-- CALL_83be280&#45;&gt;CALL_83bfc80 -->
<g id="edge11" class="edge">
<title>CALL_83be280&#45;&gt;CALL_83bfc80</title>
<path fill="none" stroke="black" d="M197,-648.7C197,-640.98 197,-631.71 197,-623.11"/>
<polygon fill="black" stroke="black" points="200.5,-623.1 197,-613.1 193.5,-623.1 200.5,-623.1"/>
</g>
<!-- CALL_83c17a0 -->
<g id="node13" class="node">
<title>CALL_83c17a0</title>
<g id="a_node13"><a xlink:href="MPI_REQUEST_FREE.svg" xlink:title="MPI_REQUEST_FREE">
<polygon fill="#ffe800" stroke="black" points="284,-541 110,-541 110,-537 106,-537 106,-533 110,-533 110,-513 106,-513 106,-509 110,-509 110,-505 284,-505 284,-541"/>
<polyline fill="none" stroke="black" points="110,-537 114,-537 114,-533 110,-533 "/>
<polyline fill="none" stroke="black" points="110,-513 114,-513 114,-509 110,-509 "/>
<text text-anchor="middle" x="197" y="-519.3" font-family="Times,serif" font-size="14.00">MPI_REQUEST_FREE</text>
</a>
</g>
</g>
<!-- CALL_83bfc80&#45;&gt;CALL_83c17a0 -->
<g id="edge12" class="edge">
<title>CALL_83bfc80&#45;&gt;CALL_83c17a0</title>
<path fill="none" stroke="black" d="M197,-576.7C197,-568.98 197,-559.71 197,-551.11"/>
<polygon fill="black" stroke="black" points="200.5,-551.1 197,-541.1 193.5,-551.1 200.5,-551.1"/>
</g>
<!-- CALL_83c3320 -->
<g id="node14" class="node">
<title>CALL_83c3320</title>
<g id="a_node14"><a xlink:href="MPI_REQUEST_FREE.svg" xlink:title="MPI_REQUEST_FREE">
<polygon fill="#ffe800" stroke="black" points="284,-469 110,-469 110,-465 106,-465 106,-461 110,-461 110,-441 106,-441 106,-437 110,-437 110,-433 284,-433 284,-469"/>
<polyline fill="none" stroke="black" points="110,-465 114,-465 114,-461 110,-461 "/>
<polyline fill="none" stroke="black" points="110,-441 114,-441 114,-437 110,-437 "/>
<text text-anchor="middle" x="197" y="-447.3" font-family="Times,serif" font-size="14.00">MPI_REQUEST_FREE</text>
</a>
</g>
</g>
<!-- CALL_83c17a0&#45;&gt;CALL_83c3320 -->
<g id="edge13" class="edge">
<title>CALL_83c17a0&#45;&gt;CALL_83c3320</title>
<path fill="none" stroke="black" d="M197,-504.7C197,-496.98 197,-487.71 197,-479.11"/>
<polygon fill="black" stroke="black" points="200.5,-479.1 197,-469.1 193.5,-479.1 200.5,-479.1"/>
</g>
<!-- CALL_83c51e0 -->
<g id="node15" class="node">
<title>CALL_83c51e0</title>
<g id="a_node15"><a xlink:href="MPI_REQUEST_FREE.svg" xlink:title="MPI_REQUEST_FREE">
<polygon fill="#ffe800" stroke="black" points="284,-397 110,-397 110,-393 106,-393 106,-389 110,-389 110,-369 106,-369 106,-365 110,-365 110,-361 284,-361 284,-397"/>
<polyline fill="none" stroke="black" points="110,-393 114,-393 114,-389 110,-389 "/>
<polyline fill="none" stroke="black" points="110,-369 114,-369 114,-365 110,-365 "/>
<text text-anchor="middle" x="197" y="-375.3" font-family="Times,serif" font-size="14.00">MPI_REQUEST_FREE</text>
</a>
</g>
</g>
<!-- CALL_83c3320&#45;&gt;CALL_83c51e0 -->
<g id="edge14" class="edge">
<title>CALL_83c3320&#45;&gt;CALL_83c51e0</title>
<path fill="none" stroke="black" d="M197,-432.7C197,-424.98 197,-415.71 197,-407.11"/>
<polygon fill="black" stroke="black" points="200.5,-407.1 197,-397.1 193.5,-407.1 200.5,-407.1"/>
</g>
<!-- CALL_83c7160 -->
<g id="node16" class="node">
<title>CALL_83c7160</title>
<g id="a_node16"><a xlink:href="MPI_REQUEST_FREE.svg" xlink:title="MPI_REQUEST_FREE">
<polygon fill="#ffe800" stroke="black" points="284,-325 110,-325 110,-321 106,-321 106,-317 110,-317 110,-297 106,-297 106,-293 110,-293 110,-289 284,-289 284,-325"/>
<polyline fill="none" stroke="black" points="110,-321 114,-321 114,-317 110,-317 "/>
<polyline fill="none" stroke="black" points="110,-297 114,-297 114,-293 110,-293 "/>
<text text-anchor="middle" x="197" y="-303.3" font-family="Times,serif" font-size="14.00">MPI_REQUEST_FREE</text>
</a>
</g>
</g>
<!-- CALL_83c51e0&#45;&gt;CALL_83c7160 -->
<g id="edge15" class="edge">
<title>CALL_83c51e0&#45;&gt;CALL_83c7160</title>
<path fill="none" stroke="black" d="M197,-360.7C197,-352.98 197,-343.71 197,-335.11"/>
<polygon fill="black" stroke="black" points="200.5,-335.1 197,-325.1 193.5,-335.1 200.5,-335.1"/>
</g>
<!-- COMMENT_83c7b80+1 -->
<g id="node17" class="node">
<title>COMMENT_83c7b80+1</title>
<polygon fill="none" stroke="black" points="252,-253 136,-253 136,-217 258,-217 258,-247 252,-253"/>
<polyline fill="none" stroke="black" points="252,-253 252,-247 "/>
<polyline fill="none" stroke="black" points="258,-247 252,-247 "/>
<text text-anchor="middle" x="197" y="-231.3" font-family="Times,serif" font-size="14.00">Shutdown MPI</text>
</g>
<!-- CALL_83c7160&#45;&gt;COMMENT_83c7b80+1 -->
<g id="edge16" class="edge">
<title>CALL_83c7160&#45;&gt;COMMENT_83c7b80+1</title>
<path fill="none" stroke="black" d="M197,-288.7C197,-280.98 197,-271.71 197,-263.11"/>
<polygon fill="black" stroke="black" points="200.5,-263.1 197,-253.1 193.5,-263.1 200.5,-263.1"/>
</g>
<!-- CALL_83c7b80 -->
<g id="node18" class="node">
<title>CALL_83c7b80</title>
<g id="a_node18"><a xlink:href="MPI_FINALIZE.svg" xlink:title="MPI_FINALIZE">
<polygon fill="#ffe800" stroke="black" points="259,-181 135,-181 135,-177 131,-177 131,-173 135,-173 135,-153 131,-153 131,-149 135,-149 135,-145 259,-145 259,-181"/>
<polyline fill="none" stroke="black" points="135,-177 139,-177 139,-173 135,-173 "/>
<polyline fill="none" stroke="black" points="135,-153 139,-153 139,-149 135,-149 "/>
<text text-anchor="middle" x="197" y="-159.3" font-family="Times,serif" font-size="14.00">MPI_FINALIZE</text>
</a>
</g>
</g>
<!-- COMMENT_83c7b80+1&#45;&gt;CALL_83c7b80 -->
<g id="edge17" class="edge">
<title>COMMENT_83c7b80+1&#45;&gt;CALL_83c7b80</title>
<path fill="none" stroke="black" d="M197,-216.7C197,-208.98 197,-199.71 197,-191.11"/>
<polygon fill="black" stroke="black" points="200.5,-191.1 197,-181.1 193.5,-191.1 200.5,-191.1"/>
</g>
<!-- COMMENT_83c7bc0+1 -->
<g id="node19" class="node">
<title>COMMENT_83c7bc0+1</title>
<polygon fill="none" stroke="black" points="253,-109 135,-109 135,-73 259,-73 259,-103 253,-109"/>
<polyline fill="none" stroke="black" points="253,-109 253,-103 "/>
<polyline fill="none" stroke="black" points="259,-103 253,-103 "/>
<text text-anchor="middle" x="197" y="-87.3" font-family="Times,serif" font-size="14.00">Shutdown FDS</text>
</g>
<!-- CALL_83c7b80&#45;&gt;COMMENT_83c7bc0+1 -->
<g id="edge18" class="edge">
<title>CALL_83c7b80&#45;&gt;COMMENT_83c7bc0+1</title>
<path fill="none" stroke="black" d="M197,-144.7C197,-136.98 197,-127.71 197,-119.11"/>
<polygon fill="black" stroke="black" points="200.5,-119.1 197,-109.1 193.5,-119.1 200.5,-119.1"/>
</g>
<!-- end_SUBPROGRAM_83c7ce0 -->
<g id="node20" class="node">
<title>end_SUBPROGRAM_83c7ce0</title>
<ellipse fill="black" stroke="black" cx="197" cy="-30" rx="7" ry="7"/>
</g>
<!-- COMMENT_83c7bc0+1&#45;&gt;end_SUBPROGRAM_83c7ce0 -->
<g id="edge19" class="edge">
<title>COMMENT_83c7bc0+1&#45;&gt;end_SUBPROGRAM_83c7ce0</title>
<path fill="none" stroke="black" d="M197,-72.93C197,-64.89 197,-55.33 197,-47.37"/>
<polygon fill="black" stroke="black" points="200.5,-47.22 197,-37.22 193.5,-47.22 200.5,-47.22"/>
</g>
</g>
</svg>
