<?xml version="1.0" encoding="UTF-8" standalone="no"?>
<!DOCTYPE svg PUBLIC "-//W3C//DTD SVG 1.1//EN"
 "http://www.w3.org/Graphics/SVG/1.1/DTD/svg11.dtd">
<!-- Generated by graphviz version 2.43.0 (0)
 -->
<!-- Title: ENTHALPY_ADVECTION Pages: 1 -->
<svg width="784pt" height="1831pt"
 viewBox="0.00 0.00 784.00 1831.16" xmlns="http://www.w3.org/2000/svg" xmlns:xlink="http://www.w3.org/1999/xlink">
<g id="graph0" class="graph" transform="scale(1 1) rotate(0) translate(4 1827.16)">
<title>ENTHALPY_ADVECTION</title>
<polygon fill="white" stroke="transparent" points="-4,4 -4,-1827.16 780,-1827.16 780,4 -4,4"/>
<text text-anchor="middle" x="388" y="-7.8" font-family="Times,serif" font-size="14.00">ENTHALPY_ADVECTION</text>
<g id="clust1" class="cluster">
<title>cluster_omp_OMP_BEGIN_REGION_97abd00+2</title>
<polygon fill="none" stroke="red" points="237,-1473.44 237,-1729.16 540,-1729.16 540,-1473.44 237,-1473.44"/>
<text text-anchor="middle" x="388.5" y="-1713.96" font-family="Times,serif" font-size="14.00">omp_OMP_BEGIN_REGION_97abd00+2</text>
</g>
<g id="clust2" class="cluster">
<title>cluster_WALL_LOOP</title>
<polygon fill="none" stroke="orange" points="8,-281 8,-1185.44 768,-1185.44 768,-281 8,-281"/>
<text text-anchor="middle" x="61" y="-1170.24" font-family="Times,serif" font-size="14.00">WALL_LOOP</text>
</g>
<!-- start_SUBPROGRAM_9b75420 -->
<g id="node1" class="node">
<title>start_SUBPROGRAM_9b75420</title>
<ellipse fill="none" stroke="black" cx="388" cy="-1816.16" rx="7" ry="7"/>
</g>
<!-- COMMENT_97abd00+1 -->
<g id="node2" class="node">
<title>COMMENT_97abd00+1</title>
<polygon fill="none" stroke="black" points="488,-1773.16 282,-1773.16 282,-1737.16 494,-1737.16 494,-1767.16 488,-1773.16"/>
<polyline fill="none" stroke="black" points="488,-1773.16 488,-1767.16 "/>
<polyline fill="none" stroke="black" points="494,-1767.16 488,-1767.16 "/>
<text text-anchor="middle" x="388" y="-1751.46" font-family="Times,serif" font-size="14.00">Compute and store rho*h_s</text>
</g>
<!-- start_SUBPROGRAM_9b75420&#45;&gt;COMMENT_97abd00+1 -->
<g id="edge1" class="edge">
<title>start_SUBPROGRAM_9b75420&#45;&gt;COMMENT_97abd00+1</title>
<path fill="none" stroke="black" d="M388,-1808.85C388,-1802.65 388,-1792.75 388,-1783.21"/>
<polygon fill="black" stroke="black" points="391.5,-1783.18 388,-1773.18 384.5,-1783.18 391.5,-1783.18"/>
</g>
<!-- start_omp_OMP_BEGIN_REGION_97abd00+2 -->
<g id="node3" class="node">
<title>start_omp_OMP_BEGIN_REGION_97abd00+2</title>
<ellipse fill="black" stroke="black" cx="388" cy="-1697.8" rx="0.36" ry="0.36"/>
</g>
<!-- COMMENT_97abd00+1&#45;&gt;start_omp_OMP_BEGIN_REGION_97abd00+2 -->
<g id="edge2" class="edge">
<title>COMMENT_97abd00+1&#45;&gt;start_omp_OMP_BEGIN_REGION_97abd00+2</title>
<path fill="none" stroke="black" d="M388,-1736.95C388,-1721.2 388,-1700.16 388,-1698.86"/>
</g>
<!-- COMMENT_97acea0+1 -->
<g id="node4" class="node">
<title>COMMENT_97acea0+1</title>
<polygon fill="none" stroke="black" points="499,-1661.44 271,-1661.44 271,-1625.44 505,-1625.44 505,-1655.44 499,-1661.44"/>
<polyline fill="none" stroke="black" points="499,-1661.44 499,-1655.44 "/>
<polyline fill="none" stroke="black" points="505,-1655.44 499,-1655.44 "/>
<text text-anchor="middle" x="388" y="-1639.74" font-family="Times,serif" font-size="14.00">!$OMP DO SCHEDULE(static)</text>
</g>
<!-- start_omp_OMP_BEGIN_REGION_97abd00+2&#45;&gt;COMMENT_97acea0+1 -->
<g id="edge3" class="edge">
<title>start_omp_OMP_BEGIN_REGION_97abd00+2&#45;&gt;COMMENT_97acea0+1</title>
<path fill="none" stroke="black" d="M388,-1697.29C388,-1695.81 388,-1683.76 388,-1671.54"/>
<polygon fill="black" stroke="black" points="391.5,-1671.46 388,-1661.46 384.5,-1671.46 391.5,-1671.46"/>
</g>
<!-- CALL_97b7240 -->
<g id="node5" class="node">
<title>CALL_97b7240</title>
<g id="a_node5"><a xlink:href="GET_SENSIBLE_ENTHALPY.svg" xlink:title="GET_SENSIBLE_ENTHALPY">
<polygon fill="lightgray" stroke="black" points="497.5,-1589.44 278.5,-1589.44 278.5,-1585.44 274.5,-1585.44 274.5,-1581.44 278.5,-1581.44 278.5,-1561.44 274.5,-1561.44 274.5,-1557.44 278.5,-1557.44 278.5,-1553.44 497.5,-1553.44 497.5,-1589.44"/>
<polyline fill="none" stroke="black" points="278.5,-1585.44 282.5,-1585.44 282.5,-1581.44 278.5,-1581.44 "/>
<polyline fill="none" stroke="black" points="278.5,-1561.44 282.5,-1561.44 282.5,-1557.44 278.5,-1557.44 "/>
<text text-anchor="middle" x="388" y="-1567.74" font-family="Times,serif" font-size="14.00">GET_SENSIBLE_ENTHALPY</text>
</a>
</g>
</g>
<!-- COMMENT_97acea0+1&#45;&gt;CALL_97b7240 -->
<g id="edge4" class="edge">
<title>COMMENT_97acea0+1&#45;&gt;CALL_97b7240</title>
<path fill="none" stroke="black" d="M388,-1625.14C388,-1617.42 388,-1608.15 388,-1599.55"/>
<polygon fill="black" stroke="black" points="391.5,-1599.54 388,-1589.54 384.5,-1599.54 391.5,-1599.54"/>
</g>
<!-- COMMENT_97b4e60+1 -->
<g id="node6" class="node">
<title>COMMENT_97b4e60+1</title>
<polygon fill="none" stroke="black" points="448,-1517.44 322,-1517.44 322,-1481.44 454,-1481.44 454,-1511.44 448,-1517.44"/>
<polyline fill="none" stroke="black" points="448,-1517.44 448,-1511.44 "/>
<polyline fill="none" stroke="black" points="454,-1511.44 448,-1511.44 "/>
<text text-anchor="middle" x="388" y="-1495.74" font-family="Times,serif" font-size="14.00">!$OMP END DO</text>
</g>
<!-- CALL_97b7240&#45;&gt;COMMENT_97b4e60+1 -->
<g id="edge5" class="edge">
<title>CALL_97b7240&#45;&gt;COMMENT_97b4e60+1</title>
<path fill="none" stroke="black" d="M388,-1553.14C388,-1545.42 388,-1536.15 388,-1527.55"/>
<polygon fill="black" stroke="black" points="391.5,-1527.54 388,-1517.54 384.5,-1527.54 391.5,-1527.54"/>
</g>
<!-- COMMENT_97bd260+2 -->
<g id="node7" class="node">
<title>COMMENT_97bd260+2</title>
<polygon fill="none" stroke="black" points="488,-1445.44 282,-1445.44 282,-1409.44 494,-1409.44 494,-1439.44 488,-1445.44"/>
<polyline fill="none" stroke="black" points="488,-1445.44 488,-1439.44 "/>
<polyline fill="none" stroke="black" points="494,-1439.44 488,-1439.44 "/>
<text text-anchor="middle" x="388" y="-1423.74" font-family="Times,serif" font-size="14.00">Compute scalar face values</text>
</g>
<!-- COMMENT_97b4e60+1&#45;&gt;COMMENT_97bd260+2 -->
<g id="edge6" class="edge">
<title>COMMENT_97b4e60+1&#45;&gt;COMMENT_97bd260+2</title>
<path fill="none" stroke="black" d="M388,-1481.14C388,-1473.42 388,-1464.15 388,-1455.55"/>
<polygon fill="black" stroke="black" points="391.5,-1455.54 388,-1445.54 384.5,-1455.54 391.5,-1455.54"/>
</g>
<!-- CALL_97bd260 -->
<g id="node8" class="node">
<title>CALL_97bd260</title>
<g id="a_node8"><a xlink:href="GET_SCALAR_FACE_VALUE.svg" xlink:title="GET_SCALAR_FACE_VALUE">
<polygon fill="lightgray" stroke="black" points="495.5,-1373.44 280.5,-1373.44 280.5,-1369.44 276.5,-1369.44 276.5,-1365.44 280.5,-1365.44 280.5,-1345.44 276.5,-1345.44 276.5,-1341.44 280.5,-1341.44 280.5,-1337.44 495.5,-1337.44 495.5,-1373.44"/>
<polyline fill="none" stroke="black" points="280.5,-1369.44 284.5,-1369.44 284.5,-1365.44 280.5,-1365.44 "/>
<polyline fill="none" stroke="black" points="280.5,-1345.44 284.5,-1345.44 284.5,-1341.44 280.5,-1341.44 "/>
<text text-anchor="middle" x="388" y="-1351.74" font-family="Times,serif" font-size="14.00">GET_SCALAR_FACE_VALUE</text>
</a>
</g>
</g>
<!-- COMMENT_97bd260+2&#45;&gt;CALL_97bd260 -->
<g id="edge7" class="edge">
<title>COMMENT_97bd260+2&#45;&gt;CALL_97bd260</title>
<path fill="none" stroke="black" d="M388,-1409.14C388,-1401.42 388,-1392.15 388,-1383.55"/>
<polygon fill="black" stroke="black" points="391.5,-1383.54 388,-1373.54 384.5,-1383.54 391.5,-1383.54"/>
</g>
<!-- CALL_97c0200 -->
<g id="node9" class="node">
<title>CALL_97c0200</title>
<g id="a_node9"><a xlink:href="GET_SCALAR_FACE_VALUE.svg" xlink:title="GET_SCALAR_FACE_VALUE">
<polygon fill="lightgray" stroke="black" points="495.5,-1301.44 280.5,-1301.44 280.5,-1297.44 276.5,-1297.44 276.5,-1293.44 280.5,-1293.44 280.5,-1273.44 276.5,-1273.44 276.5,-1269.44 280.5,-1269.44 280.5,-1265.44 495.5,-1265.44 495.5,-1301.44"/>
<polyline fill="none" stroke="black" points="280.5,-1297.44 284.5,-1297.44 284.5,-1293.44 280.5,-1293.44 "/>
<polyline fill="none" stroke="black" points="280.5,-1273.44 284.5,-1273.44 284.5,-1269.44 280.5,-1269.44 "/>
<text text-anchor="middle" x="388" y="-1279.74" font-family="Times,serif" font-size="14.00">GET_SCALAR_FACE_VALUE</text>
</a>
</g>
</g>
<!-- CALL_97bd260&#45;&gt;CALL_97c0200 -->
<g id="edge8" class="edge">
<title>CALL_97bd260&#45;&gt;CALL_97c0200</title>
<path fill="none" stroke="black" d="M388,-1337.14C388,-1329.42 388,-1320.15 388,-1311.55"/>
<polygon fill="black" stroke="black" points="391.5,-1311.54 388,-1301.54 384.5,-1311.54 391.5,-1311.54"/>
</g>
<!-- CALL_97c3380 -->
<g id="node10" class="node">
<title>CALL_97c3380</title>
<g id="a_node10"><a xlink:href="GET_SCALAR_FACE_VALUE.svg" xlink:title="GET_SCALAR_FACE_VALUE">
<polygon fill="lightgray" stroke="black" points="495.5,-1229.44 280.5,-1229.44 280.5,-1225.44 276.5,-1225.44 276.5,-1221.44 280.5,-1221.44 280.5,-1201.44 276.5,-1201.44 276.5,-1197.44 280.5,-1197.44 280.5,-1193.44 495.5,-1193.44 495.5,-1229.44"/>
<polyline fill="none" stroke="black" points="280.5,-1225.44 284.5,-1225.44 284.5,-1221.44 280.5,-1221.44 "/>
<polyline fill="none" stroke="black" points="280.5,-1201.44 284.5,-1201.44 284.5,-1197.44 280.5,-1197.44 "/>
<text text-anchor="middle" x="388" y="-1207.74" font-family="Times,serif" font-size="14.00">GET_SCALAR_FACE_VALUE</text>
</a>
</g>
</g>
<!-- CALL_97c0200&#45;&gt;CALL_97c3380 -->
<g id="edge9" class="edge">
<title>CALL_97c0200&#45;&gt;CALL_97c3380</title>
<path fill="none" stroke="black" d="M388,-1265.14C388,-1257.42 388,-1248.15 388,-1239.55"/>
<polygon fill="black" stroke="black" points="391.5,-1239.54 388,-1229.54 384.5,-1239.54 391.5,-1239.54"/>
</g>
<!-- beginDO_DO_9b7c860 -->
<g id="node11" class="node">
<title>beginDO_DO_9b7c860</title>
<ellipse fill="black" stroke="black" cx="388" cy="-1154.08" rx="0.36" ry="0.36"/>
</g>
<!-- CALL_97c3380&#45;&gt;beginDO_DO_9b7c860 -->
<g id="edge21" class="edge">
<title>CALL_97c3380&#45;&gt;beginDO_DO_9b7c860</title>
<path fill="none" stroke="black" d="M388,-1193.23C388,-1177.48 388,-1156.44 388,-1155.14"/>
</g>
<!-- COMMENT_97c1380+1 -->
<g id="node13" class="node">
<title>COMMENT_97c1380+1</title>
<polygon fill="none" stroke="black" points="647.5,-1117.72 122.5,-1117.72 122.5,-1079.72 653.5,-1079.72 653.5,-1111.72 647.5,-1117.72"/>
<polyline fill="none" stroke="black" points="647.5,-1117.72 647.5,-1111.72 "/>
<polyline fill="none" stroke="black" points="653.5,-1111.72 647.5,-1111.72 "/>
<text text-anchor="middle" x="388" y="-1102.52" font-family="Times,serif" font-size="14.00">Calculate the sensible enthalpy at the boundary. If the boundary is solid</text>
<text text-anchor="middle" x="388" y="-1087.52" font-family="Times,serif" font-size="14.00">and the gas is flowing out, use the gas temperature for the calculation.</text>
</g>
<!-- beginDO_DO_9b7c860&#45;&gt;COMMENT_97c1380+1 -->
<g id="edge10" class="edge">
<title>beginDO_DO_9b7c860&#45;&gt;COMMENT_97c1380+1</title>
<path fill="none" stroke="black" d="M388,-1153.57C388,-1152.09 388,-1140.25 388,-1128.05"/>
<polygon fill="black" stroke="black" points="391.5,-1127.94 388,-1117.94 384.5,-1127.94 391.5,-1127.94"/>
</g>
<!-- endDO_DO_9b7c860 -->
<g id="node12" class="node">
<title>endDO_DO_9b7c860</title>
<ellipse fill="black" stroke="black" cx="388" cy="-289.36" rx="0.36" ry="0.36"/>
</g>
<!-- COMMENT_9b7cf80+1 -->
<g id="node24" class="node">
<title>COMMENT_9b7cf80+1</title>
<polygon fill="none" stroke="black" points="490.5,-253 279.5,-253 279.5,-217 496.5,-217 496.5,-247 490.5,-253"/>
<polyline fill="none" stroke="black" points="490.5,-253 490.5,-247 "/>
<polyline fill="none" stroke="black" points="496.5,-247 490.5,-247 "/>
<text text-anchor="middle" x="388" y="-231.3" font-family="Times,serif" font-size="14.00">FDS Tech Guide (B.12&#45;B.14)</text>
</g>
<!-- endDO_DO_9b7c860&#45;&gt;COMMENT_9b7cf80+1 -->
<g id="edge23" class="edge">
<title>endDO_DO_9b7c860&#45;&gt;COMMENT_9b7cf80+1</title>
<path fill="none" stroke="black" d="M388,-288.21C388,-286.77 388,-275.23 388,-263.36"/>
<polygon fill="black" stroke="black" points="391.5,-263.1 388,-253.1 384.5,-263.1 391.5,-263.1"/>
</g>
<!-- CALL_97cd8a0 -->
<g id="node14" class="node">
<title>CALL_97cd8a0</title>
<g id="a_node14"><a xlink:href="GET_SENSIBLE_ENTHALPY.svg" xlink:title="GET_SENSIBLE_ENTHALPY">
<polygon fill="lightgray" stroke="black" points="497.5,-1043.72 278.5,-1043.72 278.5,-1039.72 274.5,-1039.72 274.5,-1035.72 278.5,-1035.72 278.5,-1015.72 274.5,-1015.72 274.5,-1011.72 278.5,-1011.72 278.5,-1007.72 497.5,-1007.72 497.5,-1043.72"/>
<polyline fill="none" stroke="black" points="278.5,-1039.72 282.5,-1039.72 282.5,-1035.72 278.5,-1035.72 "/>
<polyline fill="none" stroke="black" points="278.5,-1015.72 282.5,-1015.72 282.5,-1011.72 278.5,-1011.72 "/>
<text text-anchor="middle" x="388" y="-1022.02" font-family="Times,serif" font-size="14.00">GET_SENSIBLE_ENTHALPY</text>
</a>
</g>
</g>
<!-- COMMENT_97c1380+1&#45;&gt;CALL_97cd8a0 -->
<g id="edge11" class="edge">
<title>COMMENT_97c1380+1&#45;&gt;CALL_97cd8a0</title>
<path fill="none" stroke="black" d="M388,-1079.44C388,-1071.69 388,-1062.51 388,-1053.99"/>
<polygon fill="black" stroke="black" points="391.5,-1053.72 388,-1043.72 384.5,-1053.72 391.5,-1053.72"/>
</g>
<!-- COMMENT_97c4180+1 -->
<g id="node15" class="node">
<title>COMMENT_97c4180+1</title>
<polygon fill="none" stroke="black" points="754,-971.72 16,-971.72 16,-935.72 760,-935.72 760,-965.72 754,-971.72"/>
<polyline fill="none" stroke="black" points="754,-971.72 754,-965.72 "/>
<polyline fill="none" stroke="black" points="760,-965.72 754,-965.72 "/>
<text text-anchor="middle" x="388" y="-950.02" font-family="Times,serif" font-size="14.00">overwrite first off&#45;wall advective flux if flow is away from the wall and if the face is not also a wall cell</text>
</g>
<!-- CALL_97cd8a0&#45;&gt;COMMENT_97c4180+1 -->
<g id="edge12" class="edge">
<title>CALL_97cd8a0&#45;&gt;COMMENT_97c4180+1</title>
<path fill="none" stroke="black" d="M388,-1007.42C388,-999.7 388,-990.43 388,-981.83"/>
<polygon fill="black" stroke="black" points="391.5,-981.82 388,-971.82 384.5,-981.82 391.5,-981.82"/>
</g>
<!-- COMMENT_97d2960+1 -->
<g id="node16" class="node">
<title>COMMENT_97d2960+1</title>
<polygon fill="none" stroke="black" points="530,-899.72 240,-899.72 240,-846.72 536,-846.72 536,-893.72 530,-899.72"/>
<polyline fill="none" stroke="black" points="530,-899.72 530,-893.72 "/>
<polyline fill="none" stroke="black" points="536,-893.72 530,-893.72 "/>
<text text-anchor="middle" x="388" y="-884.52" font-family="Times,serif" font-size="14.00"> &#160;&#160;&#160;&#160;ghost &#160;&#160;&#160;&#160;&#160;&#160;&#160;&#160;&#160;FX/UU(II+1)</text>
<text text-anchor="middle" x="388" y="-869.52" font-family="Times,serif" font-size="14.00">/// &#160;&#160;II &#160;&#160;/// &#160;II+1 &#160;| &#160;II+2 &#160;| ...</text>
<text text-anchor="middle" x="388" y="-854.52" font-family="Times,serif" font-size="14.00"> &#160;&#160;&#160;&#160;&#160;&#160;&#160;&#160;&#160;&#160;&#160;&#160;&#160;&#160;&#160;&#160;&#160;&#160;&#160;&#160;&#160;^ WALL_INDEX(II+1,+1)</text>
</g>
<!-- COMMENT_97c4180+1&#45;&gt;COMMENT_97d2960+1 -->
<g id="edge13" class="edge">
<title>COMMENT_97c4180+1&#45;&gt;COMMENT_97d2960+1</title>
<path fill="none" stroke="black" d="M388,-935.69C388,-928.17 388,-919.03 388,-910.12"/>
<polygon fill="black" stroke="black" points="391.5,-909.88 388,-899.88 384.5,-909.88 391.5,-909.88"/>
</g>
<!-- CALL_97de3e0 -->
<g id="node17" class="node">
<title>CALL_97de3e0</title>
<g id="a_node17"><a xlink:href="GET_SCALAR_FACE_VALUE.svg" xlink:title="GET_SCALAR_FACE_VALUE">
<polygon fill="lightgray" stroke="black" points="495.5,-810.72 280.5,-810.72 280.5,-806.72 276.5,-806.72 276.5,-802.72 280.5,-802.72 280.5,-782.72 276.5,-782.72 276.5,-778.72 280.5,-778.72 280.5,-774.72 495.5,-774.72 495.5,-810.72"/>
<polyline fill="none" stroke="black" points="280.5,-806.72 284.5,-806.72 284.5,-802.72 280.5,-802.72 "/>
<polyline fill="none" stroke="black" points="280.5,-782.72 284.5,-782.72 284.5,-778.72 280.5,-778.72 "/>
<text text-anchor="middle" x="388" y="-789.02" font-family="Times,serif" font-size="14.00">GET_SCALAR_FACE_VALUE</text>
</a>
</g>
</g>
<!-- COMMENT_97d2960+1&#45;&gt;CALL_97de3e0 -->
<g id="edge14" class="edge">
<title>COMMENT_97d2960+1&#45;&gt;CALL_97de3e0</title>
<path fill="none" stroke="black" d="M388,-846.52C388,-838.43 388,-829.48 388,-821.27"/>
<polygon fill="black" stroke="black" points="391.5,-821.05 388,-811.05 384.5,-821.05 391.5,-821.05"/>
</g>
<!-- COMMENT_97e4c20+1 -->
<g id="node18" class="node">
<title>COMMENT_97e4c20+1</title>
<polygon fill="none" stroke="black" points="502.5,-738.72 267.5,-738.72 267.5,-685.72 508.5,-685.72 508.5,-732.72 502.5,-738.72"/>
<polyline fill="none" stroke="black" points="502.5,-738.72 502.5,-732.72 "/>
<polyline fill="none" stroke="black" points="508.5,-732.72 502.5,-732.72 "/>
<text text-anchor="middle" x="388" y="-723.52" font-family="Times,serif" font-size="14.00"> &#160;&#160;&#160;&#160;&#160;&#160;&#160;&#160;&#160;&#160;FX/UU(II&#45;2) &#160;&#160;&#160;&#160;ghost</text>
<text text-anchor="middle" x="388" y="-708.52" font-family="Times,serif" font-size="14.00">... | &#160;II&#45;2 &#160;| &#160;II&#45;1 &#160;/// &#160;&#160;II &#160;&#160;///</text>
<text text-anchor="middle" x="388" y="-693.52" font-family="Times,serif" font-size="14.00"> &#160;&#160;&#160;&#160;&#160;&#160;&#160;&#160;&#160;&#160;&#160;&#160;^ WALL_INDEX(II&#45;1,&#45;1)</text>
</g>
<!-- CALL_97de3e0&#45;&gt;COMMENT_97e4c20+1 -->
<g id="edge15" class="edge">
<title>CALL_97de3e0&#45;&gt;COMMENT_97e4c20+1</title>
<path fill="none" stroke="black" d="M388,-774.69C388,-767.17 388,-758.03 388,-749.12"/>
<polygon fill="black" stroke="black" points="391.5,-748.88 388,-738.88 384.5,-748.88 391.5,-748.88"/>
</g>
<!-- CALL_97f0760 -->
<g id="node19" class="node">
<title>CALL_97f0760</title>
<g id="a_node19"><a xlink:href="GET_SCALAR_FACE_VALUE.svg" xlink:title="GET_SCALAR_FACE_VALUE">
<polygon fill="lightgray" stroke="black" points="495.5,-649.72 280.5,-649.72 280.5,-645.72 276.5,-645.72 276.5,-641.72 280.5,-641.72 280.5,-621.72 276.5,-621.72 276.5,-617.72 280.5,-617.72 280.5,-613.72 495.5,-613.72 495.5,-649.72"/>
<polyline fill="none" stroke="black" points="280.5,-645.72 284.5,-645.72 284.5,-641.72 280.5,-641.72 "/>
<polyline fill="none" stroke="black" points="280.5,-621.72 284.5,-621.72 284.5,-617.72 280.5,-617.72 "/>
<text text-anchor="middle" x="388" y="-628.02" font-family="Times,serif" font-size="14.00">GET_SCALAR_FACE_VALUE</text>
</a>
</g>
</g>
<!-- COMMENT_97e4c20+1&#45;&gt;CALL_97f0760 -->
<g id="edge16" class="edge">
<title>COMMENT_97e4c20+1&#45;&gt;CALL_97f0760</title>
<path fill="none" stroke="black" d="M388,-685.52C388,-677.43 388,-668.48 388,-660.27"/>
<polygon fill="black" stroke="black" points="391.5,-660.05 388,-650.05 384.5,-660.05 391.5,-660.05"/>
</g>
<!-- CALL_9b02540 -->
<g id="node20" class="node">
<title>CALL_9b02540</title>
<g id="a_node20"><a xlink:href="GET_SCALAR_FACE_VALUE.svg" xlink:title="GET_SCALAR_FACE_VALUE">
<polygon fill="lightgray" stroke="black" points="495.5,-577.72 280.5,-577.72 280.5,-573.72 276.5,-573.72 276.5,-569.72 280.5,-569.72 280.5,-549.72 276.5,-549.72 276.5,-545.72 280.5,-545.72 280.5,-541.72 495.5,-541.72 495.5,-577.72"/>
<polyline fill="none" stroke="black" points="280.5,-573.72 284.5,-573.72 284.5,-569.72 280.5,-569.72 "/>
<polyline fill="none" stroke="black" points="280.5,-549.72 284.5,-549.72 284.5,-545.72 280.5,-545.72 "/>
<text text-anchor="middle" x="388" y="-556.02" font-family="Times,serif" font-size="14.00">GET_SCALAR_FACE_VALUE</text>
</a>
</g>
</g>
<!-- CALL_97f0760&#45;&gt;CALL_9b02540 -->
<g id="edge17" class="edge">
<title>CALL_97f0760&#45;&gt;CALL_9b02540</title>
<path fill="none" stroke="black" d="M388,-613.42C388,-605.7 388,-596.43 388,-587.83"/>
<polygon fill="black" stroke="black" points="391.5,-587.82 388,-577.82 384.5,-587.82 391.5,-587.82"/>
</g>
<!-- CALL_9b14620 -->
<g id="node21" class="node">
<title>CALL_9b14620</title>
<g id="a_node21"><a xlink:href="GET_SCALAR_FACE_VALUE.svg" xlink:title="GET_SCALAR_FACE_VALUE">
<polygon fill="lightgray" stroke="black" points="495.5,-505.72 280.5,-505.72 280.5,-501.72 276.5,-501.72 276.5,-497.72 280.5,-497.72 280.5,-477.72 276.5,-477.72 276.5,-473.72 280.5,-473.72 280.5,-469.72 495.5,-469.72 495.5,-505.72"/>
<polyline fill="none" stroke="black" points="280.5,-501.72 284.5,-501.72 284.5,-497.72 280.5,-497.72 "/>
<polyline fill="none" stroke="black" points="280.5,-477.72 284.5,-477.72 284.5,-473.72 280.5,-473.72 "/>
<text text-anchor="middle" x="388" y="-484.02" font-family="Times,serif" font-size="14.00">GET_SCALAR_FACE_VALUE</text>
</a>
</g>
</g>
<!-- CALL_9b02540&#45;&gt;CALL_9b14620 -->
<g id="edge18" class="edge">
<title>CALL_9b02540&#45;&gt;CALL_9b14620</title>
<path fill="none" stroke="black" d="M388,-541.42C388,-533.7 388,-524.43 388,-515.83"/>
<polygon fill="black" stroke="black" points="391.5,-515.82 388,-505.82 384.5,-515.82 391.5,-515.82"/>
</g>
<!-- CALL_9b26840 -->
<g id="node22" class="node">
<title>CALL_9b26840</title>
<g id="a_node22"><a xlink:href="GET_SCALAR_FACE_VALUE.svg" xlink:title="GET_SCALAR_FACE_VALUE">
<polygon fill="lightgray" stroke="black" points="495.5,-433.72 280.5,-433.72 280.5,-429.72 276.5,-429.72 276.5,-425.72 280.5,-425.72 280.5,-405.72 276.5,-405.72 276.5,-401.72 280.5,-401.72 280.5,-397.72 495.5,-397.72 495.5,-433.72"/>
<polyline fill="none" stroke="black" points="280.5,-429.72 284.5,-429.72 284.5,-425.72 280.5,-425.72 "/>
<polyline fill="none" stroke="black" points="280.5,-405.72 284.5,-405.72 284.5,-401.72 280.5,-401.72 "/>
<text text-anchor="middle" x="388" y="-412.02" font-family="Times,serif" font-size="14.00">GET_SCALAR_FACE_VALUE</text>
</a>
</g>
</g>
<!-- CALL_9b14620&#45;&gt;CALL_9b26840 -->
<g id="edge19" class="edge">
<title>CALL_9b14620&#45;&gt;CALL_9b26840</title>
<path fill="none" stroke="black" d="M388,-469.42C388,-461.7 388,-452.43 388,-443.83"/>
<polygon fill="black" stroke="black" points="391.5,-443.82 388,-433.82 384.5,-443.82 391.5,-443.82"/>
</g>
<!-- CALL_9b3ae80 -->
<g id="node23" class="node">
<title>CALL_9b3ae80</title>
<g id="a_node23"><a xlink:href="GET_SCALAR_FACE_VALUE.svg" xlink:title="GET_SCALAR_FACE_VALUE">
<polygon fill="lightgray" stroke="black" points="495.5,-361.72 280.5,-361.72 280.5,-357.72 276.5,-357.72 276.5,-353.72 280.5,-353.72 280.5,-333.72 276.5,-333.72 276.5,-329.72 280.5,-329.72 280.5,-325.72 495.5,-325.72 495.5,-361.72"/>
<polyline fill="none" stroke="black" points="280.5,-357.72 284.5,-357.72 284.5,-353.72 280.5,-353.72 "/>
<polyline fill="none" stroke="black" points="280.5,-333.72 284.5,-333.72 284.5,-329.72 280.5,-329.72 "/>
<text text-anchor="middle" x="388" y="-340.02" font-family="Times,serif" font-size="14.00">GET_SCALAR_FACE_VALUE</text>
</a>
</g>
</g>
<!-- CALL_9b26840&#45;&gt;CALL_9b3ae80 -->
<g id="edge20" class="edge">
<title>CALL_9b26840&#45;&gt;CALL_9b3ae80</title>
<path fill="none" stroke="black" d="M388,-397.42C388,-389.7 388,-380.43 388,-371.83"/>
<polygon fill="black" stroke="black" points="391.5,-371.82 388,-361.82 384.5,-371.82 391.5,-371.82"/>
</g>
<!-- CALL_9b3ae80&#45;&gt;endDO_DO_9b7c860 -->
<g id="edge22" class="edge">
<title>CALL_9b3ae80&#45;&gt;endDO_DO_9b7c860</title>
<path fill="none" stroke="black" d="M388,-325.66C388,-310.65 388,-290.99 388,-289.78"/>
</g>
<!-- COMMENT_9b7cf80+2 -->
<g id="node25" class="node">
<title>COMMENT_9b7cf80+2</title>
<polygon fill="none" stroke="black" points="651,-181 119,-181 119,-145 657,-145 657,-175 651,-181"/>
<polyline fill="none" stroke="black" points="651,-181 651,-175 "/>
<polyline fill="none" stroke="black" points="657,-175 651,-175 "/>
<text text-anchor="middle" x="388" y="-159.3" font-family="Times,serif" font-size="14.00">!$OMP PARALLEL DO PRIVATE(IC,DU_P,DU_M,DV_P,DV_M,DW_P,DW_M)</text>
</g>
<!-- COMMENT_9b7cf80+1&#45;&gt;COMMENT_9b7cf80+2 -->
<g id="edge24" class="edge">
<title>COMMENT_9b7cf80+1&#45;&gt;COMMENT_9b7cf80+2</title>
<path fill="none" stroke="black" d="M388,-216.7C388,-208.98 388,-199.71 388,-191.11"/>
<polygon fill="black" stroke="black" points="391.5,-191.1 388,-181.1 384.5,-191.1 391.5,-191.1"/>
</g>
<!-- COMMENT_9d2b620+1 -->
<g id="node26" class="node">
<title>COMMENT_9d2b620+1</title>
<polygon fill="none" stroke="black" points="488,-109 282,-109 282,-73 494,-73 494,-103 488,-109"/>
<polyline fill="none" stroke="black" points="488,-109 488,-103 "/>
<polyline fill="none" stroke="black" points="494,-103 488,-103 "/>
<text text-anchor="middle" x="388" y="-87.3" font-family="Times,serif" font-size="14.00">!$OMP END PARALLEL DO</text>
</g>
<!-- COMMENT_9b7cf80+2&#45;&gt;COMMENT_9d2b620+1 -->
<g id="edge25" class="edge">
<title>COMMENT_9b7cf80+2&#45;&gt;COMMENT_9d2b620+1</title>
<path fill="none" stroke="black" d="M388,-144.7C388,-136.98 388,-127.71 388,-119.11"/>
<polygon fill="black" stroke="black" points="391.5,-119.1 388,-109.1 384.5,-119.1 391.5,-119.1"/>
</g>
<!-- end_SUBPROGRAM_9b75420 -->
<g id="node27" class="node">
<title>end_SUBPROGRAM_9b75420</title>
<ellipse fill="black" stroke="black" cx="388" cy="-30" rx="7" ry="7"/>
</g>
<!-- COMMENT_9d2b620+1&#45;&gt;end_SUBPROGRAM_9b75420 -->
<g id="edge26" class="edge">
<title>COMMENT_9d2b620+1&#45;&gt;end_SUBPROGRAM_9b75420</title>
<path fill="none" stroke="black" d="M388,-72.93C388,-64.89 388,-55.33 388,-47.37"/>
<polygon fill="black" stroke="black" points="391.5,-47.22 388,-37.22 384.5,-47.22 391.5,-47.22"/>
</g>
</g>
</svg>
