<?xml version="1.0" encoding="UTF-8" standalone="no"?>
<!DOCTYPE svg PUBLIC "-//W3C//DTD SVG 1.1//EN"
 "http://www.w3.org/Graphics/SVG/1.1/DTD/svg11.dtd">
<!-- Generated by graphviz version 2.43.0 (0)
 -->
<!-- Title: ENTHALPY_ADVECTION Pages: 1 -->
<svg width="784pt" height="1758pt"
 viewBox="0.00 0.00 784.00 1757.72" xmlns="http://www.w3.org/2000/svg" xmlns:xlink="http://www.w3.org/1999/xlink">
<g id="graph0" class="graph" transform="scale(1 1) rotate(0) translate(4 1753.72)">
<title>ENTHALPY_ADVECTION</title>
<polygon fill="white" stroke="transparent" points="-4,4 -4,-1753.72 780,-1753.72 780,4 -4,4"/>
<text text-anchor="middle" x="388" y="-7.8" font-family="Times,serif" font-size="14.00">ENTHALPY_ADVECTION</text>
<g id="clust1" class="cluster">
<title>cluster_omp_OMP_BEGIN_REGION_9d96a60+2</title>
<polygon fill="none" stroke="red" points="237,-1400 237,-1655.72 540,-1655.72 540,-1400 237,-1400"/>
<text text-anchor="middle" x="388.5" y="-1640.52" font-family="Times,serif" font-size="14.00">omp_OMP_BEGIN_REGION_9d96a60+2</text>
</g>
<g id="clust2" class="cluster">
<title>cluster_WALL_LOOP</title>
<polygon fill="none" stroke="orange" points="8,-281 8,-1112 768,-1112 768,-281 8,-281"/>
<text text-anchor="middle" x="61" y="-1096.8" font-family="Times,serif" font-size="14.00">WALL_LOOP</text>
</g>
<!-- start_SUBPROGRAM_7d96f20 -->
<g id="node1" class="node">
<title>start_SUBPROGRAM_7d96f20</title>
<ellipse fill="none" stroke="black" cx="388" cy="-1742.72" rx="7" ry="7"/>
</g>
<!-- COMMENT_9d96a60+1 -->
<g id="node2" class="node">
<title>COMMENT_9d96a60+1</title>
<polygon fill="none" stroke="black" points="488,-1699.72 282,-1699.72 282,-1663.72 494,-1663.72 494,-1693.72 488,-1699.72"/>
<polyline fill="none" stroke="black" points="488,-1699.72 488,-1693.72 "/>
<polyline fill="none" stroke="black" points="494,-1693.72 488,-1693.72 "/>
<text text-anchor="middle" x="388" y="-1678.02" font-family="Times,serif" font-size="14.00">Compute and store rho*h_s</text>
</g>
<!-- start_SUBPROGRAM_7d96f20&#45;&gt;COMMENT_9d96a60+1 -->
<g id="edge1" class="edge">
<title>start_SUBPROGRAM_7d96f20&#45;&gt;COMMENT_9d96a60+1</title>
<path fill="none" stroke="black" d="M388,-1735.41C388,-1729.21 388,-1719.31 388,-1709.77"/>
<polygon fill="black" stroke="black" points="391.5,-1709.74 388,-1699.74 384.5,-1709.74 391.5,-1709.74"/>
</g>
<!-- start_omp_OMP_BEGIN_REGION_9d96a60+2 -->
<g id="node3" class="node">
<title>start_omp_OMP_BEGIN_REGION_9d96a60+2</title>
<ellipse fill="black" stroke="black" cx="388" cy="-1624.36" rx="0.36" ry="0.36"/>
</g>
<!-- COMMENT_9d96a60+1&#45;&gt;start_omp_OMP_BEGIN_REGION_9d96a60+2 -->
<g id="edge2" class="edge">
<title>COMMENT_9d96a60+1&#45;&gt;start_omp_OMP_BEGIN_REGION_9d96a60+2</title>
<path fill="none" stroke="black" d="M388,-1663.51C388,-1647.76 388,-1626.72 388,-1625.42"/>
</g>
<!-- COMMENT_9d97c40+1 -->
<g id="node4" class="node">
<title>COMMENT_9d97c40+1</title>
<polygon fill="none" stroke="black" points="499,-1588 271,-1588 271,-1552 505,-1552 505,-1582 499,-1588"/>
<polyline fill="none" stroke="black" points="499,-1588 499,-1582 "/>
<polyline fill="none" stroke="black" points="505,-1582 499,-1582 "/>
<text text-anchor="middle" x="388" y="-1566.3" font-family="Times,serif" font-size="14.00">!$OMP DO SCHEDULE(static)</text>
</g>
<!-- start_omp_OMP_BEGIN_REGION_9d96a60+2&#45;&gt;COMMENT_9d97c40+1 -->
<g id="edge3" class="edge">
<title>start_omp_OMP_BEGIN_REGION_9d96a60+2&#45;&gt;COMMENT_9d97c40+1</title>
<path fill="none" stroke="black" d="M388,-1623.85C388,-1622.37 388,-1610.32 388,-1598.1"/>
<polygon fill="black" stroke="black" points="391.5,-1598.02 388,-1588.02 384.5,-1598.02 391.5,-1598.02"/>
</g>
<!-- CALL_9da2cc0 -->
<g id="node5" class="node">
<title>CALL_9da2cc0</title>
<g id="a_node5"><a xlink:href="GET_SENSIBLE_ENTHALPY.svg" xlink:title="GET_SENSIBLE_ENTHALPY">
<polygon fill="lightgray" stroke="black" points="497.5,-1516 278.5,-1516 278.5,-1512 274.5,-1512 274.5,-1508 278.5,-1508 278.5,-1488 274.5,-1488 274.5,-1484 278.5,-1484 278.5,-1480 497.5,-1480 497.5,-1516"/>
<polyline fill="none" stroke="black" points="278.5,-1512 282.5,-1512 282.5,-1508 278.5,-1508 "/>
<polyline fill="none" stroke="black" points="278.5,-1488 282.5,-1488 282.5,-1484 278.5,-1484 "/>
<text text-anchor="middle" x="388" y="-1494.3" font-family="Times,serif" font-size="14.00">GET_SENSIBLE_ENTHALPY</text>
</a>
</g>
</g>
<!-- COMMENT_9d97c40+1&#45;&gt;CALL_9da2cc0 -->
<g id="edge4" class="edge">
<title>COMMENT_9d97c40+1&#45;&gt;CALL_9da2cc0</title>
<path fill="none" stroke="black" d="M388,-1551.7C388,-1543.98 388,-1534.71 388,-1526.11"/>
<polygon fill="black" stroke="black" points="391.5,-1526.1 388,-1516.1 384.5,-1526.1 391.5,-1526.1"/>
</g>
<!-- COMMENT_9d9b9e0+1 -->
<g id="node6" class="node">
<title>COMMENT_9d9b9e0+1</title>
<polygon fill="none" stroke="black" points="448,-1444 322,-1444 322,-1408 454,-1408 454,-1438 448,-1444"/>
<polyline fill="none" stroke="black" points="448,-1444 448,-1438 "/>
<polyline fill="none" stroke="black" points="454,-1438 448,-1438 "/>
<text text-anchor="middle" x="388" y="-1422.3" font-family="Times,serif" font-size="14.00">!$OMP END DO</text>
</g>
<!-- CALL_9da2cc0&#45;&gt;COMMENT_9d9b9e0+1 -->
<g id="edge5" class="edge">
<title>CALL_9da2cc0&#45;&gt;COMMENT_9d9b9e0+1</title>
<path fill="none" stroke="black" d="M388,-1479.7C388,-1471.98 388,-1462.71 388,-1454.11"/>
<polygon fill="black" stroke="black" points="391.5,-1454.1 388,-1444.1 384.5,-1454.1 391.5,-1454.1"/>
</g>
<!-- COMMENT_9da8d60+2 -->
<g id="node7" class="node">
<title>COMMENT_9da8d60+2</title>
<polygon fill="none" stroke="black" points="488,-1372 282,-1372 282,-1336 494,-1336 494,-1366 488,-1372"/>
<polyline fill="none" stroke="black" points="488,-1372 488,-1366 "/>
<polyline fill="none" stroke="black" points="494,-1366 488,-1366 "/>
<text text-anchor="middle" x="388" y="-1350.3" font-family="Times,serif" font-size="14.00">Compute scalar face values</text>
</g>
<!-- COMMENT_9d9b9e0+1&#45;&gt;COMMENT_9da8d60+2 -->
<g id="edge6" class="edge">
<title>COMMENT_9d9b9e0+1&#45;&gt;COMMENT_9da8d60+2</title>
<path fill="none" stroke="black" d="M388,-1407.7C388,-1399.98 388,-1390.71 388,-1382.11"/>
<polygon fill="black" stroke="black" points="391.5,-1382.1 388,-1372.1 384.5,-1382.1 391.5,-1382.1"/>
</g>
<!-- CALL_9da8d60 -->
<g id="node8" class="node">
<title>CALL_9da8d60</title>
<g id="a_node8"><a xlink:href="GET_SCALAR_FACE_VALUE.svg" xlink:title="GET_SCALAR_FACE_VALUE">
<polygon fill="lightgray" stroke="black" points="495.5,-1300 280.5,-1300 280.5,-1296 276.5,-1296 276.5,-1292 280.5,-1292 280.5,-1272 276.5,-1272 276.5,-1268 280.5,-1268 280.5,-1264 495.5,-1264 495.5,-1300"/>
<polyline fill="none" stroke="black" points="280.5,-1296 284.5,-1296 284.5,-1292 280.5,-1292 "/>
<polyline fill="none" stroke="black" points="280.5,-1272 284.5,-1272 284.5,-1268 280.5,-1268 "/>
<text text-anchor="middle" x="388" y="-1278.3" font-family="Times,serif" font-size="14.00">GET_SCALAR_FACE_VALUE</text>
</a>
</g>
</g>
<!-- COMMENT_9da8d60+2&#45;&gt;CALL_9da8d60 -->
<g id="edge7" class="edge">
<title>COMMENT_9da8d60+2&#45;&gt;CALL_9da8d60</title>
<path fill="none" stroke="black" d="M388,-1335.7C388,-1327.98 388,-1318.71 388,-1310.11"/>
<polygon fill="black" stroke="black" points="391.5,-1310.1 388,-1300.1 384.5,-1310.1 391.5,-1310.1"/>
</g>
<!-- CALL_9dabca0 -->
<g id="node9" class="node">
<title>CALL_9dabca0</title>
<g id="a_node9"><a xlink:href="GET_SCALAR_FACE_VALUE.svg" xlink:title="GET_SCALAR_FACE_VALUE">
<polygon fill="lightgray" stroke="black" points="495.5,-1228 280.5,-1228 280.5,-1224 276.5,-1224 276.5,-1220 280.5,-1220 280.5,-1200 276.5,-1200 276.5,-1196 280.5,-1196 280.5,-1192 495.5,-1192 495.5,-1228"/>
<polyline fill="none" stroke="black" points="280.5,-1224 284.5,-1224 284.5,-1220 280.5,-1220 "/>
<polyline fill="none" stroke="black" points="280.5,-1200 284.5,-1200 284.5,-1196 280.5,-1196 "/>
<text text-anchor="middle" x="388" y="-1206.3" font-family="Times,serif" font-size="14.00">GET_SCALAR_FACE_VALUE</text>
</a>
</g>
</g>
<!-- CALL_9da8d60&#45;&gt;CALL_9dabca0 -->
<g id="edge8" class="edge">
<title>CALL_9da8d60&#45;&gt;CALL_9dabca0</title>
<path fill="none" stroke="black" d="M388,-1263.7C388,-1255.98 388,-1246.71 388,-1238.11"/>
<polygon fill="black" stroke="black" points="391.5,-1238.1 388,-1228.1 384.5,-1238.1 391.5,-1238.1"/>
</g>
<!-- CALL_9daed00 -->
<g id="node10" class="node">
<title>CALL_9daed00</title>
<g id="a_node10"><a xlink:href="GET_SCALAR_FACE_VALUE.svg" xlink:title="GET_SCALAR_FACE_VALUE">
<polygon fill="lightgray" stroke="black" points="495.5,-1156 280.5,-1156 280.5,-1152 276.5,-1152 276.5,-1148 280.5,-1148 280.5,-1128 276.5,-1128 276.5,-1124 280.5,-1124 280.5,-1120 495.5,-1120 495.5,-1156"/>
<polyline fill="none" stroke="black" points="280.5,-1152 284.5,-1152 284.5,-1148 280.5,-1148 "/>
<polyline fill="none" stroke="black" points="280.5,-1128 284.5,-1128 284.5,-1124 280.5,-1124 "/>
<text text-anchor="middle" x="388" y="-1134.3" font-family="Times,serif" font-size="14.00">GET_SCALAR_FACE_VALUE</text>
</a>
</g>
</g>
<!-- CALL_9dabca0&#45;&gt;CALL_9daed00 -->
<g id="edge9" class="edge">
<title>CALL_9dabca0&#45;&gt;CALL_9daed00</title>
<path fill="none" stroke="black" d="M388,-1191.7C388,-1183.98 388,-1174.71 388,-1166.11"/>
<polygon fill="black" stroke="black" points="391.5,-1166.1 388,-1156.1 384.5,-1166.1 391.5,-1166.1"/>
</g>
<!-- COMMENT_9db0240+1 -->
<g id="node11" class="node">
<title>COMMENT_9db0240+1</title>
<polygon fill="none" stroke="black" points="647.5,-1081 122.5,-1081 122.5,-1043 653.5,-1043 653.5,-1075 647.5,-1081"/>
<polyline fill="none" stroke="black" points="647.5,-1081 647.5,-1075 "/>
<polyline fill="none" stroke="black" points="653.5,-1075 647.5,-1075 "/>
<text text-anchor="middle" x="388" y="-1065.8" font-family="Times,serif" font-size="14.00">Calculate the sensible enthalpy at the boundary. If the boundary is solid</text>
<text text-anchor="middle" x="388" y="-1050.8" font-family="Times,serif" font-size="14.00">and the gas is flowing out, use the gas temperature for the calculation.</text>
</g>
<!-- CALL_9daed00&#45;&gt;COMMENT_9db0240+1 -->
<g id="edge20" class="edge">
<title>CALL_9daed00&#45;&gt;COMMENT_9db0240+1</title>
<path fill="none" stroke="black" d="M388,-1119.84C388,-1111.31 388,-1100.78 388,-1091.12"/>
<polygon fill="black" stroke="black" points="391.5,-1091.1 388,-1081.1 384.5,-1091.1 391.5,-1091.1"/>
</g>
<!-- CALL_9db95c0 -->
<g id="node12" class="node">
<title>CALL_9db95c0</title>
<g id="a_node12"><a xlink:href="GET_SENSIBLE_ENTHALPY.svg" xlink:title="GET_SENSIBLE_ENTHALPY">
<polygon fill="lightgray" stroke="black" points="497.5,-1007 278.5,-1007 278.5,-1003 274.5,-1003 274.5,-999 278.5,-999 278.5,-979 274.5,-979 274.5,-975 278.5,-975 278.5,-971 497.5,-971 497.5,-1007"/>
<polyline fill="none" stroke="black" points="278.5,-1003 282.5,-1003 282.5,-999 278.5,-999 "/>
<polyline fill="none" stroke="black" points="278.5,-979 282.5,-979 282.5,-975 278.5,-975 "/>
<text text-anchor="middle" x="388" y="-985.3" font-family="Times,serif" font-size="14.00">GET_SENSIBLE_ENTHALPY</text>
</a>
</g>
</g>
<!-- COMMENT_9db0240+1&#45;&gt;CALL_9db95c0 -->
<g id="edge10" class="edge">
<title>COMMENT_9db0240+1&#45;&gt;CALL_9db95c0</title>
<path fill="none" stroke="black" d="M388,-1042.72C388,-1034.97 388,-1025.79 388,-1017.27"/>
<polygon fill="black" stroke="black" points="391.5,-1017 388,-1007 384.5,-1017 391.5,-1017"/>
</g>
<!-- COMMENT_9dafa60+1 -->
<g id="node13" class="node">
<title>COMMENT_9dafa60+1</title>
<polygon fill="none" stroke="black" points="754,-935 16,-935 16,-899 760,-899 760,-929 754,-935"/>
<polyline fill="none" stroke="black" points="754,-935 754,-929 "/>
<polyline fill="none" stroke="black" points="760,-929 754,-929 "/>
<text text-anchor="middle" x="388" y="-913.3" font-family="Times,serif" font-size="14.00">overwrite first off&#45;wall advective flux if flow is away from the wall and if the face is not also a wall cell</text>
</g>
<!-- CALL_9db95c0&#45;&gt;COMMENT_9dafa60+1 -->
<g id="edge11" class="edge">
<title>CALL_9db95c0&#45;&gt;COMMENT_9dafa60+1</title>
<path fill="none" stroke="black" d="M388,-970.7C388,-962.98 388,-953.71 388,-945.11"/>
<polygon fill="black" stroke="black" points="391.5,-945.1 388,-935.1 384.5,-945.1 391.5,-945.1"/>
</g>
<!-- COMMENT_9dbe720+1 -->
<g id="node14" class="node">
<title>COMMENT_9dbe720+1</title>
<polygon fill="none" stroke="black" points="530,-863 240,-863 240,-810 536,-810 536,-857 530,-863"/>
<polyline fill="none" stroke="black" points="530,-863 530,-857 "/>
<polyline fill="none" stroke="black" points="536,-857 530,-857 "/>
<text text-anchor="middle" x="388" y="-847.8" font-family="Times,serif" font-size="14.00"> &#160;&#160;&#160;&#160;ghost &#160;&#160;&#160;&#160;&#160;&#160;&#160;&#160;&#160;FX/UU(II+1)</text>
<text text-anchor="middle" x="388" y="-832.8" font-family="Times,serif" font-size="14.00">/// &#160;&#160;II &#160;&#160;/// &#160;II+1 &#160;| &#160;II+2 &#160;| ...</text>
<text text-anchor="middle" x="388" y="-817.8" font-family="Times,serif" font-size="14.00"> &#160;&#160;&#160;&#160;&#160;&#160;&#160;&#160;&#160;&#160;&#160;&#160;&#160;&#160;&#160;&#160;&#160;&#160;&#160;&#160;&#160;^ WALL_INDEX(II+1,+1)</text>
</g>
<!-- COMMENT_9dafa60+1&#45;&gt;COMMENT_9dbe720+1 -->
<g id="edge12" class="edge">
<title>COMMENT_9dafa60+1&#45;&gt;COMMENT_9dbe720+1</title>
<path fill="none" stroke="black" d="M388,-898.97C388,-891.45 388,-882.31 388,-873.4"/>
<polygon fill="black" stroke="black" points="391.5,-873.16 388,-863.16 384.5,-873.16 391.5,-873.16"/>
</g>
<!-- CALL_9fc9840 -->
<g id="node15" class="node">
<title>CALL_9fc9840</title>
<g id="a_node15"><a xlink:href="GET_SCALAR_FACE_VALUE.svg" xlink:title="GET_SCALAR_FACE_VALUE">
<polygon fill="lightgray" stroke="black" points="495.5,-774 280.5,-774 280.5,-770 276.5,-770 276.5,-766 280.5,-766 280.5,-746 276.5,-746 276.5,-742 280.5,-742 280.5,-738 495.5,-738 495.5,-774"/>
<polyline fill="none" stroke="black" points="280.5,-770 284.5,-770 284.5,-766 280.5,-766 "/>
<polyline fill="none" stroke="black" points="280.5,-746 284.5,-746 284.5,-742 280.5,-742 "/>
<text text-anchor="middle" x="388" y="-752.3" font-family="Times,serif" font-size="14.00">GET_SCALAR_FACE_VALUE</text>
</a>
</g>
</g>
<!-- COMMENT_9dbe720+1&#45;&gt;CALL_9fc9840 -->
<g id="edge13" class="edge">
<title>COMMENT_9dbe720+1&#45;&gt;CALL_9fc9840</title>
<path fill="none" stroke="black" d="M388,-809.8C388,-801.71 388,-792.76 388,-784.55"/>
<polygon fill="black" stroke="black" points="391.5,-784.33 388,-774.33 384.5,-784.33 391.5,-784.33"/>
</g>
<!-- COMMENT_9fc4660+1 -->
<g id="node16" class="node">
<title>COMMENT_9fc4660+1</title>
<polygon fill="none" stroke="black" points="502.5,-702 267.5,-702 267.5,-649 508.5,-649 508.5,-696 502.5,-702"/>
<polyline fill="none" stroke="black" points="502.5,-702 502.5,-696 "/>
<polyline fill="none" stroke="black" points="508.5,-696 502.5,-696 "/>
<text text-anchor="middle" x="388" y="-686.8" font-family="Times,serif" font-size="14.00"> &#160;&#160;&#160;&#160;&#160;&#160;&#160;&#160;&#160;&#160;FX/UU(II&#45;2) &#160;&#160;&#160;&#160;ghost</text>
<text text-anchor="middle" x="388" y="-671.8" font-family="Times,serif" font-size="14.00">... | &#160;II&#45;2 &#160;| &#160;II&#45;1 &#160;/// &#160;&#160;II &#160;&#160;///</text>
<text text-anchor="middle" x="388" y="-656.8" font-family="Times,serif" font-size="14.00"> &#160;&#160;&#160;&#160;&#160;&#160;&#160;&#160;&#160;&#160;&#160;&#160;^ WALL_INDEX(II&#45;1,&#45;1)</text>
</g>
<!-- CALL_9fc9840&#45;&gt;COMMENT_9fc4660+1 -->
<g id="edge14" class="edge">
<title>CALL_9fc9840&#45;&gt;COMMENT_9fc4660+1</title>
<path fill="none" stroke="black" d="M388,-737.97C388,-730.45 388,-721.31 388,-712.4"/>
<polygon fill="black" stroke="black" points="391.5,-712.16 388,-702.16 384.5,-712.16 391.5,-712.16"/>
</g>
<!-- CALL_9fdbdc0 -->
<g id="node17" class="node">
<title>CALL_9fdbdc0</title>
<g id="a_node17"><a xlink:href="GET_SCALAR_FACE_VALUE.svg" xlink:title="GET_SCALAR_FACE_VALUE">
<polygon fill="lightgray" stroke="black" points="495.5,-613 280.5,-613 280.5,-609 276.5,-609 276.5,-605 280.5,-605 280.5,-585 276.5,-585 276.5,-581 280.5,-581 280.5,-577 495.5,-577 495.5,-613"/>
<polyline fill="none" stroke="black" points="280.5,-609 284.5,-609 284.5,-605 280.5,-605 "/>
<polyline fill="none" stroke="black" points="280.5,-585 284.5,-585 284.5,-581 280.5,-581 "/>
<text text-anchor="middle" x="388" y="-591.3" font-family="Times,serif" font-size="14.00">GET_SCALAR_FACE_VALUE</text>
</a>
</g>
</g>
<!-- COMMENT_9fc4660+1&#45;&gt;CALL_9fdbdc0 -->
<g id="edge15" class="edge">
<title>COMMENT_9fc4660+1&#45;&gt;CALL_9fdbdc0</title>
<path fill="none" stroke="black" d="M388,-648.8C388,-640.71 388,-631.76 388,-623.55"/>
<polygon fill="black" stroke="black" points="391.5,-623.33 388,-613.33 384.5,-623.33 391.5,-623.33"/>
</g>
<!-- CALL_9fee300 -->
<g id="node18" class="node">
<title>CALL_9fee300</title>
<g id="a_node18"><a xlink:href="GET_SCALAR_FACE_VALUE.svg" xlink:title="GET_SCALAR_FACE_VALUE">
<polygon fill="lightgray" stroke="black" points="495.5,-541 280.5,-541 280.5,-537 276.5,-537 276.5,-533 280.5,-533 280.5,-513 276.5,-513 276.5,-509 280.5,-509 280.5,-505 495.5,-505 495.5,-541"/>
<polyline fill="none" stroke="black" points="280.5,-537 284.5,-537 284.5,-533 280.5,-533 "/>
<polyline fill="none" stroke="black" points="280.5,-513 284.5,-513 284.5,-509 280.5,-509 "/>
<text text-anchor="middle" x="388" y="-519.3" font-family="Times,serif" font-size="14.00">GET_SCALAR_FACE_VALUE</text>
</a>
</g>
</g>
<!-- CALL_9fdbdc0&#45;&gt;CALL_9fee300 -->
<g id="edge16" class="edge">
<title>CALL_9fdbdc0&#45;&gt;CALL_9fee300</title>
<path fill="none" stroke="black" d="M388,-576.7C388,-568.98 388,-559.71 388,-551.11"/>
<polygon fill="black" stroke="black" points="391.5,-551.1 388,-541.1 384.5,-551.1 391.5,-551.1"/>
</g>
<!-- CALL_7b80820 -->
<g id="node19" class="node">
<title>CALL_7b80820</title>
<g id="a_node19"><a xlink:href="GET_SCALAR_FACE_VALUE.svg" xlink:title="GET_SCALAR_FACE_VALUE">
<polygon fill="lightgray" stroke="black" points="495.5,-469 280.5,-469 280.5,-465 276.5,-465 276.5,-461 280.5,-461 280.5,-441 276.5,-441 276.5,-437 280.5,-437 280.5,-433 495.5,-433 495.5,-469"/>
<polyline fill="none" stroke="black" points="280.5,-465 284.5,-465 284.5,-461 280.5,-461 "/>
<polyline fill="none" stroke="black" points="280.5,-441 284.5,-441 284.5,-437 280.5,-437 "/>
<text text-anchor="middle" x="388" y="-447.3" font-family="Times,serif" font-size="14.00">GET_SCALAR_FACE_VALUE</text>
</a>
</g>
</g>
<!-- CALL_9fee300&#45;&gt;CALL_7b80820 -->
<g id="edge17" class="edge">
<title>CALL_9fee300&#45;&gt;CALL_7b80820</title>
<path fill="none" stroke="black" d="M388,-504.7C388,-496.98 388,-487.71 388,-479.11"/>
<polygon fill="black" stroke="black" points="391.5,-479.1 388,-469.1 384.5,-479.1 391.5,-479.1"/>
</g>
<!-- CALL_7b92520 -->
<g id="node20" class="node">
<title>CALL_7b92520</title>
<g id="a_node20"><a xlink:href="GET_SCALAR_FACE_VALUE.svg" xlink:title="GET_SCALAR_FACE_VALUE">
<polygon fill="lightgray" stroke="black" points="495.5,-397 280.5,-397 280.5,-393 276.5,-393 276.5,-389 280.5,-389 280.5,-369 276.5,-369 276.5,-365 280.5,-365 280.5,-361 495.5,-361 495.5,-397"/>
<polyline fill="none" stroke="black" points="280.5,-393 284.5,-393 284.5,-389 280.5,-389 "/>
<polyline fill="none" stroke="black" points="280.5,-369 284.5,-369 284.5,-365 280.5,-365 "/>
<text text-anchor="middle" x="388" y="-375.3" font-family="Times,serif" font-size="14.00">GET_SCALAR_FACE_VALUE</text>
</a>
</g>
</g>
<!-- CALL_7b80820&#45;&gt;CALL_7b92520 -->
<g id="edge18" class="edge">
<title>CALL_7b80820&#45;&gt;CALL_7b92520</title>
<path fill="none" stroke="black" d="M388,-432.7C388,-424.98 388,-415.71 388,-407.11"/>
<polygon fill="black" stroke="black" points="391.5,-407.1 388,-397.1 384.5,-407.1 391.5,-407.1"/>
</g>
<!-- CALL_7bc47e0 -->
<g id="node21" class="node">
<title>CALL_7bc47e0</title>
<g id="a_node21"><a xlink:href="GET_SCALAR_FACE_VALUE.svg" xlink:title="GET_SCALAR_FACE_VALUE">
<polygon fill="lightgray" stroke="black" points="495.5,-325 280.5,-325 280.5,-321 276.5,-321 276.5,-317 280.5,-317 280.5,-297 276.5,-297 276.5,-293 280.5,-293 280.5,-289 495.5,-289 495.5,-325"/>
<polyline fill="none" stroke="black" points="280.5,-321 284.5,-321 284.5,-317 280.5,-317 "/>
<polyline fill="none" stroke="black" points="280.5,-297 284.5,-297 284.5,-293 280.5,-293 "/>
<text text-anchor="middle" x="388" y="-303.3" font-family="Times,serif" font-size="14.00">GET_SCALAR_FACE_VALUE</text>
</a>
</g>
</g>
<!-- CALL_7b92520&#45;&gt;CALL_7bc47e0 -->
<g id="edge19" class="edge">
<title>CALL_7b92520&#45;&gt;CALL_7bc47e0</title>
<path fill="none" stroke="black" d="M388,-360.7C388,-352.98 388,-343.71 388,-335.11"/>
<polygon fill="black" stroke="black" points="391.5,-335.1 388,-325.1 384.5,-335.1 391.5,-335.1"/>
</g>
<!-- COMMENT_7be8520+1 -->
<g id="node22" class="node">
<title>COMMENT_7be8520+1</title>
<polygon fill="none" stroke="black" points="490.5,-253 279.5,-253 279.5,-217 496.5,-217 496.5,-247 490.5,-253"/>
<polyline fill="none" stroke="black" points="490.5,-253 490.5,-247 "/>
<polyline fill="none" stroke="black" points="496.5,-247 490.5,-247 "/>
<text text-anchor="middle" x="388" y="-231.3" font-family="Times,serif" font-size="14.00">FDS Tech Guide (B.12&#45;B.14)</text>
</g>
<!-- CALL_7bc47e0&#45;&gt;COMMENT_7be8520+1 -->
<g id="edge21" class="edge">
<title>CALL_7bc47e0&#45;&gt;COMMENT_7be8520+1</title>
<path fill="none" stroke="black" d="M388,-288.7C388,-280.98 388,-271.71 388,-263.11"/>
<polygon fill="black" stroke="black" points="391.5,-263.1 388,-253.1 384.5,-263.1 391.5,-263.1"/>
</g>
<!-- COMMENT_7be8520+2 -->
<g id="node23" class="node">
<title>COMMENT_7be8520+2</title>
<polygon fill="none" stroke="black" points="651,-181 119,-181 119,-145 657,-145 657,-175 651,-181"/>
<polyline fill="none" stroke="black" points="651,-181 651,-175 "/>
<polyline fill="none" stroke="black" points="657,-175 651,-175 "/>
<text text-anchor="middle" x="388" y="-159.3" font-family="Times,serif" font-size="14.00">!$OMP PARALLEL DO PRIVATE(IC,DU_P,DU_M,DV_P,DV_M,DW_P,DW_M)</text>
</g>
<!-- COMMENT_7be8520+1&#45;&gt;COMMENT_7be8520+2 -->
<g id="edge22" class="edge">
<title>COMMENT_7be8520+1&#45;&gt;COMMENT_7be8520+2</title>
<path fill="none" stroke="black" d="M388,-216.7C388,-208.98 388,-199.71 388,-191.11"/>
<polygon fill="black" stroke="black" points="391.5,-191.1 388,-181.1 384.5,-191.1 391.5,-191.1"/>
</g>
<!-- COMMENT_7d96da0+1 -->
<g id="node24" class="node">
<title>COMMENT_7d96da0+1</title>
<polygon fill="none" stroke="black" points="488,-109 282,-109 282,-73 494,-73 494,-103 488,-109"/>
<polyline fill="none" stroke="black" points="488,-109 488,-103 "/>
<polyline fill="none" stroke="black" points="494,-103 488,-103 "/>
<text text-anchor="middle" x="388" y="-87.3" font-family="Times,serif" font-size="14.00">!$OMP END PARALLEL DO</text>
</g>
<!-- COMMENT_7be8520+2&#45;&gt;COMMENT_7d96da0+1 -->
<g id="edge23" class="edge">
<title>COMMENT_7be8520+2&#45;&gt;COMMENT_7d96da0+1</title>
<path fill="none" stroke="black" d="M388,-144.7C388,-136.98 388,-127.71 388,-119.11"/>
<polygon fill="black" stroke="black" points="391.5,-119.1 388,-109.1 384.5,-119.1 391.5,-119.1"/>
</g>
<!-- end_SUBPROGRAM_7d96f20 -->
<g id="node25" class="node">
<title>end_SUBPROGRAM_7d96f20</title>
<ellipse fill="black" stroke="black" cx="388" cy="-30" rx="7" ry="7"/>
</g>
<!-- COMMENT_7d96da0+1&#45;&gt;end_SUBPROGRAM_7d96f20 -->
<g id="edge24" class="edge">
<title>COMMENT_7d96da0+1&#45;&gt;end_SUBPROGRAM_7d96f20</title>
<path fill="none" stroke="black" d="M388,-72.93C388,-64.89 388,-55.33 388,-47.37"/>
<polygon fill="black" stroke="black" points="391.5,-47.22 388,-37.22 384.5,-47.22 391.5,-47.22"/>
</g>
</g>
</svg>
