<?xml version="1.0" encoding="UTF-8" standalone="no"?>
<!DOCTYPE svg PUBLIC "-//W3C//DTD SVG 1.1//EN"
 "http://www.w3.org/Graphics/SVG/1.1/DTD/svg11.dtd">
<!-- Generated by graphviz version 2.43.0 (0)
 -->
<!-- Title: ENTHALPY_ADVECTION Pages: 1 -->
<svg width="784pt" height="1692pt"
 viewBox="0.00 0.00 784.00 1691.60" xmlns="http://www.w3.org/2000/svg" xmlns:xlink="http://www.w3.org/1999/xlink">
<g id="graph0" class="graph" transform="scale(1 1) rotate(0) translate(4 1687.6)">
<title>ENTHALPY_ADVECTION</title>
<polygon fill="white" stroke="transparent" points="-4,4 -4,-1687.6 780,-1687.6 780,4 -4,4"/>
<text text-anchor="middle" x="388" y="-7.8" font-family="Times,serif" font-size="14.00">ENTHALPY_ADVECTION</text>
<g id="clust1" class="cluster">
<title>cluster_omp_OMP_BEGIN_REGION_8fcf7a0+2</title>
<polygon fill="none" stroke="red" points="241,-1393.44 241,-1589.6 535,-1589.6 535,-1393.44 241,-1393.44"/>
<text text-anchor="middle" x="388" y="-1574.4" font-family="Times,serif" font-size="14.00">omp_OMP_BEGIN_REGION_8fcf7a0+2</text>
</g>
<g id="clust2" class="cluster">
<title>cluster_!$OMP DO SCHEDULE(static)\n</title>
<polygon fill="#ffd0d0" stroke="orange" points="270,-1401.44 270,-1549.88 506,-1549.88 506,-1401.44 270,-1401.44"/>
<text text-anchor="middle" x="387" y="-1534.68" font-family="Times,serif" font-size="14.00">!$OMP DO SCHEDULE(static)</text>
</g>
<g id="clust3" class="cluster">
<title>cluster_WALL_LOOP</title>
<polygon fill="none" stroke="orange" points="8,-209 8,-1113.44 768,-1113.44 768,-209 8,-209"/>
<text text-anchor="middle" x="61" y="-1098.24" font-family="Times,serif" font-size="14.00">WALL_LOOP</text>
</g>
<!-- start_SUBPROGRAM_90404c0 -->
<g id="node1" class="node">
<title>start_SUBPROGRAM_90404c0</title>
<ellipse fill="none" stroke="black" cx="388" cy="-1676.6" rx="7" ry="7"/>
</g>
<!-- COMMENT_8fcf7a0+1 -->
<g id="node2" class="node">
<title>COMMENT_8fcf7a0+1</title>
<polygon fill="none" stroke="black" points="488,-1633.6 282,-1633.6 282,-1597.6 494,-1597.6 494,-1627.6 488,-1633.6"/>
<polyline fill="none" stroke="black" points="488,-1633.6 488,-1627.6 "/>
<polyline fill="none" stroke="black" points="494,-1627.6 488,-1627.6 "/>
<text text-anchor="middle" x="388" y="-1611.9" font-family="Times,serif" font-size="14.00">Compute and store rho*h_s</text>
</g>
<!-- start_SUBPROGRAM_90404c0&#45;&gt;COMMENT_8fcf7a0+1 -->
<g id="edge1" class="edge">
<title>start_SUBPROGRAM_90404c0&#45;&gt;COMMENT_8fcf7a0+1</title>
<path fill="none" stroke="black" d="M388,-1669.29C388,-1663.09 388,-1653.19 388,-1643.65"/>
<polygon fill="black" stroke="black" points="391.5,-1643.62 388,-1633.62 384.5,-1643.62 391.5,-1643.62"/>
</g>
<!-- start_omp_OMP_BEGIN_REGION_8fcf7a0+2 -->
<g id="node3" class="node">
<title>start_omp_OMP_BEGIN_REGION_8fcf7a0+2</title>
<ellipse fill="black" stroke="black" cx="388" cy="-1558.24" rx="0.36" ry="0.36"/>
</g>
<!-- COMMENT_8fcf7a0+1&#45;&gt;start_omp_OMP_BEGIN_REGION_8fcf7a0+2 -->
<g id="edge2" class="edge">
<title>COMMENT_8fcf7a0+1&#45;&gt;start_omp_OMP_BEGIN_REGION_8fcf7a0+2</title>
<path fill="none" stroke="black" d="M388,-1597.39C388,-1581.64 388,-1560.6 388,-1559.3"/>
</g>
<!-- beginDO_OMP_DO_8fddb20 -->
<g id="node4" class="node">
<title>beginDO_OMP_DO_8fddb20</title>
<ellipse fill="black" stroke="black" cx="388" cy="-1518.52" rx="0.36" ry="0.36"/>
</g>
<!-- start_omp_OMP_BEGIN_REGION_8fcf7a0+2&#45;&gt;beginDO_OMP_DO_8fddb20 -->
<g id="edge4" class="edge">
<title>start_omp_OMP_BEGIN_REGION_8fcf7a0+2&#45;&gt;beginDO_OMP_DO_8fddb20</title>
<path fill="none" stroke="black" d="M388,-1557.77C388,-1555.59 388,-1521.74 388,-1519.62"/>
</g>
<!-- CALL_8fdab60 -->
<g id="node6" class="node">
<title>CALL_8fdab60</title>
<g id="a_node6"><a xlink:href="GET_SENSIBLE_ENTHALPY.svg" xlink:title="GET_SENSIBLE_ENTHALPY">
<polygon fill="lightgray" stroke="black" points="497.5,-1482.16 278.5,-1482.16 278.5,-1478.16 274.5,-1478.16 274.5,-1474.16 278.5,-1474.16 278.5,-1454.16 274.5,-1454.16 274.5,-1450.16 278.5,-1450.16 278.5,-1446.16 497.5,-1446.16 497.5,-1482.16"/>
<polyline fill="none" stroke="black" points="278.5,-1478.16 282.5,-1478.16 282.5,-1474.16 278.5,-1474.16 "/>
<polyline fill="none" stroke="black" points="278.5,-1454.16 282.5,-1454.16 282.5,-1450.16 278.5,-1450.16 "/>
<text text-anchor="middle" x="388" y="-1460.46" font-family="Times,serif" font-size="14.00">GET_SENSIBLE_ENTHALPY</text>
</a>
</g>
</g>
<!-- beginDO_OMP_DO_8fddb20&#45;&gt;CALL_8fdab60 -->
<g id="edge3" class="edge">
<title>beginDO_OMP_DO_8fddb20&#45;&gt;CALL_8fdab60</title>
<path fill="none" stroke="black" d="M388,-1518.01C388,-1516.53 388,-1504.48 388,-1492.26"/>
<polygon fill="black" stroke="black" points="391.5,-1492.18 388,-1482.18 384.5,-1492.18 391.5,-1492.18"/>
</g>
<!-- endDO_OMP_DO_8fddb20 -->
<g id="node5" class="node">
<title>endDO_OMP_DO_8fddb20</title>
<ellipse fill="black" stroke="black" cx="388" cy="-1409.8" rx="0.36" ry="0.36"/>
</g>
<!-- COMMENT_8fe0b40+2 -->
<g id="node7" class="node">
<title>COMMENT_8fe0b40+2</title>
<polygon fill="none" stroke="black" points="488,-1373.44 282,-1373.44 282,-1337.44 494,-1337.44 494,-1367.44 488,-1373.44"/>
<polyline fill="none" stroke="black" points="488,-1373.44 488,-1367.44 "/>
<polyline fill="none" stroke="black" points="494,-1367.44 488,-1367.44 "/>
<text text-anchor="middle" x="388" y="-1351.74" font-family="Times,serif" font-size="14.00">Compute scalar face values</text>
</g>
<!-- endDO_OMP_DO_8fddb20&#45;&gt;COMMENT_8fe0b40+2 -->
<g id="edge6" class="edge">
<title>endDO_OMP_DO_8fddb20&#45;&gt;COMMENT_8fe0b40+2</title>
<path fill="none" stroke="black" d="M388,-1408.65C388,-1407.21 388,-1395.67 388,-1383.8"/>
<polygon fill="black" stroke="black" points="391.5,-1383.54 388,-1373.54 384.5,-1383.54 391.5,-1383.54"/>
</g>
<!-- CALL_8fdab60&#45;&gt;endDO_OMP_DO_8fddb20 -->
<g id="edge5" class="edge">
<title>CALL_8fdab60&#45;&gt;endDO_OMP_DO_8fddb20</title>
<path fill="none" stroke="black" d="M388,-1446.1C388,-1431.09 388,-1411.43 388,-1410.22"/>
</g>
<!-- CALL_8fe0b40 -->
<g id="node8" class="node">
<title>CALL_8fe0b40</title>
<g id="a_node8"><a xlink:href="GET_SCALAR_FACE_VALUE.svg" xlink:title="GET_SCALAR_FACE_VALUE">
<polygon fill="lightgray" stroke="black" points="495.5,-1301.44 280.5,-1301.44 280.5,-1297.44 276.5,-1297.44 276.5,-1293.44 280.5,-1293.44 280.5,-1273.44 276.5,-1273.44 276.5,-1269.44 280.5,-1269.44 280.5,-1265.44 495.5,-1265.44 495.5,-1301.44"/>
<polyline fill="none" stroke="black" points="280.5,-1297.44 284.5,-1297.44 284.5,-1293.44 280.5,-1293.44 "/>
<polyline fill="none" stroke="black" points="280.5,-1273.44 284.5,-1273.44 284.5,-1269.44 280.5,-1269.44 "/>
<text text-anchor="middle" x="388" y="-1279.74" font-family="Times,serif" font-size="14.00">GET_SCALAR_FACE_VALUE</text>
</a>
</g>
</g>
<!-- COMMENT_8fe0b40+2&#45;&gt;CALL_8fe0b40 -->
<g id="edge7" class="edge">
<title>COMMENT_8fe0b40+2&#45;&gt;CALL_8fe0b40</title>
<path fill="none" stroke="black" d="M388,-1337.14C388,-1329.42 388,-1320.15 388,-1311.55"/>
<polygon fill="black" stroke="black" points="391.5,-1311.54 388,-1301.54 384.5,-1311.54 391.5,-1311.54"/>
</g>
<!-- CALL_8fe3a00 -->
<g id="node9" class="node">
<title>CALL_8fe3a00</title>
<g id="a_node9"><a xlink:href="GET_SCALAR_FACE_VALUE.svg" xlink:title="GET_SCALAR_FACE_VALUE">
<polygon fill="lightgray" stroke="black" points="495.5,-1229.44 280.5,-1229.44 280.5,-1225.44 276.5,-1225.44 276.5,-1221.44 280.5,-1221.44 280.5,-1201.44 276.5,-1201.44 276.5,-1197.44 280.5,-1197.44 280.5,-1193.44 495.5,-1193.44 495.5,-1229.44"/>
<polyline fill="none" stroke="black" points="280.5,-1225.44 284.5,-1225.44 284.5,-1221.44 280.5,-1221.44 "/>
<polyline fill="none" stroke="black" points="280.5,-1201.44 284.5,-1201.44 284.5,-1197.44 280.5,-1197.44 "/>
<text text-anchor="middle" x="388" y="-1207.74" font-family="Times,serif" font-size="14.00">GET_SCALAR_FACE_VALUE</text>
</a>
</g>
</g>
<!-- CALL_8fe0b40&#45;&gt;CALL_8fe3a00 -->
<g id="edge8" class="edge">
<title>CALL_8fe0b40&#45;&gt;CALL_8fe3a00</title>
<path fill="none" stroke="black" d="M388,-1265.14C388,-1257.42 388,-1248.15 388,-1239.55"/>
<polygon fill="black" stroke="black" points="391.5,-1239.54 388,-1229.54 384.5,-1239.54 391.5,-1239.54"/>
</g>
<!-- CALL_8fe6a20 -->
<g id="node10" class="node">
<title>CALL_8fe6a20</title>
<g id="a_node10"><a xlink:href="GET_SCALAR_FACE_VALUE.svg" xlink:title="GET_SCALAR_FACE_VALUE">
<polygon fill="lightgray" stroke="black" points="495.5,-1157.44 280.5,-1157.44 280.5,-1153.44 276.5,-1153.44 276.5,-1149.44 280.5,-1149.44 280.5,-1129.44 276.5,-1129.44 276.5,-1125.44 280.5,-1125.44 280.5,-1121.44 495.5,-1121.44 495.5,-1157.44"/>
<polyline fill="none" stroke="black" points="280.5,-1153.44 284.5,-1153.44 284.5,-1149.44 280.5,-1149.44 "/>
<polyline fill="none" stroke="black" points="280.5,-1129.44 284.5,-1129.44 284.5,-1125.44 280.5,-1125.44 "/>
<text text-anchor="middle" x="388" y="-1135.74" font-family="Times,serif" font-size="14.00">GET_SCALAR_FACE_VALUE</text>
</a>
</g>
</g>
<!-- CALL_8fe3a00&#45;&gt;CALL_8fe6a20 -->
<g id="edge9" class="edge">
<title>CALL_8fe3a00&#45;&gt;CALL_8fe6a20</title>
<path fill="none" stroke="black" d="M388,-1193.14C388,-1185.42 388,-1176.15 388,-1167.55"/>
<polygon fill="black" stroke="black" points="391.5,-1167.54 388,-1157.54 384.5,-1167.54 391.5,-1167.54"/>
</g>
<!-- beginDO_DO_9250720 -->
<g id="node11" class="node">
<title>beginDO_DO_9250720</title>
<ellipse fill="black" stroke="black" cx="388" cy="-1082.08" rx="0.36" ry="0.36"/>
</g>
<!-- CALL_8fe6a20&#45;&gt;beginDO_DO_9250720 -->
<g id="edge21" class="edge">
<title>CALL_8fe6a20&#45;&gt;beginDO_DO_9250720</title>
<path fill="none" stroke="black" d="M388,-1121.23C388,-1105.48 388,-1084.44 388,-1083.14"/>
</g>
<!-- COMMENT_8fe83e0+1 -->
<g id="node13" class="node">
<title>COMMENT_8fe83e0+1</title>
<polygon fill="none" stroke="black" points="647.5,-1045.72 122.5,-1045.72 122.5,-1007.72 653.5,-1007.72 653.5,-1039.72 647.5,-1045.72"/>
<polyline fill="none" stroke="black" points="647.5,-1045.72 647.5,-1039.72 "/>
<polyline fill="none" stroke="black" points="653.5,-1039.72 647.5,-1039.72 "/>
<text text-anchor="middle" x="388" y="-1030.52" font-family="Times,serif" font-size="14.00">Calculate the sensible enthalpy at the boundary. If the boundary is solid</text>
<text text-anchor="middle" x="388" y="-1015.52" font-family="Times,serif" font-size="14.00">and the gas is flowing out, use the gas temperature for the calculation.</text>
</g>
<!-- beginDO_DO_9250720&#45;&gt;COMMENT_8fe83e0+1 -->
<g id="edge10" class="edge">
<title>beginDO_DO_9250720&#45;&gt;COMMENT_8fe83e0+1</title>
<path fill="none" stroke="black" d="M388,-1081.57C388,-1080.09 388,-1068.25 388,-1056.05"/>
<polygon fill="black" stroke="black" points="391.5,-1055.94 388,-1045.94 384.5,-1055.94 391.5,-1055.94"/>
</g>
<!-- endDO_DO_9250720 -->
<g id="node12" class="node">
<title>endDO_DO_9250720</title>
<ellipse fill="black" stroke="black" cx="388" cy="-217.36" rx="0.36" ry="0.36"/>
</g>
<!-- COMMENT_924ece0+1 -->
<g id="node24" class="node">
<title>COMMENT_924ece0+1</title>
<polygon fill="none" stroke="black" points="490.5,-181 279.5,-181 279.5,-145 496.5,-145 496.5,-175 490.5,-181"/>
<polyline fill="none" stroke="black" points="490.5,-181 490.5,-175 "/>
<polyline fill="none" stroke="black" points="496.5,-175 490.5,-175 "/>
<text text-anchor="middle" x="388" y="-159.3" font-family="Times,serif" font-size="14.00">FDS Tech Guide (B.12&#45;B.14)</text>
</g>
<!-- endDO_DO_9250720&#45;&gt;COMMENT_924ece0+1 -->
<g id="edge23" class="edge">
<title>endDO_DO_9250720&#45;&gt;COMMENT_924ece0+1</title>
<path fill="none" stroke="black" d="M388,-216.21C388,-214.77 388,-203.23 388,-191.36"/>
<polygon fill="black" stroke="black" points="391.5,-191.1 388,-181.1 384.5,-191.1 391.5,-191.1"/>
</g>
<!-- CALL_8ff13c0 -->
<g id="node14" class="node">
<title>CALL_8ff13c0</title>
<g id="a_node14"><a xlink:href="GET_SENSIBLE_ENTHALPY.svg" xlink:title="GET_SENSIBLE_ENTHALPY">
<polygon fill="lightgray" stroke="black" points="497.5,-971.72 278.5,-971.72 278.5,-967.72 274.5,-967.72 274.5,-963.72 278.5,-963.72 278.5,-943.72 274.5,-943.72 274.5,-939.72 278.5,-939.72 278.5,-935.72 497.5,-935.72 497.5,-971.72"/>
<polyline fill="none" stroke="black" points="278.5,-967.72 282.5,-967.72 282.5,-963.72 278.5,-963.72 "/>
<polyline fill="none" stroke="black" points="278.5,-943.72 282.5,-943.72 282.5,-939.72 278.5,-939.72 "/>
<text text-anchor="middle" x="388" y="-950.02" font-family="Times,serif" font-size="14.00">GET_SENSIBLE_ENTHALPY</text>
</a>
</g>
</g>
<!-- COMMENT_8fe83e0+1&#45;&gt;CALL_8ff13c0 -->
<g id="edge11" class="edge">
<title>COMMENT_8fe83e0+1&#45;&gt;CALL_8ff13c0</title>
<path fill="none" stroke="black" d="M388,-1007.44C388,-999.69 388,-990.51 388,-981.99"/>
<polygon fill="black" stroke="black" points="391.5,-981.72 388,-971.72 384.5,-981.72 391.5,-981.72"/>
</g>
<!-- COMMENT_8fd5e80+1 -->
<g id="node15" class="node">
<title>COMMENT_8fd5e80+1</title>
<polygon fill="none" stroke="black" points="754,-899.72 16,-899.72 16,-863.72 760,-863.72 760,-893.72 754,-899.72"/>
<polyline fill="none" stroke="black" points="754,-899.72 754,-893.72 "/>
<polyline fill="none" stroke="black" points="760,-893.72 754,-893.72 "/>
<text text-anchor="middle" x="388" y="-878.02" font-family="Times,serif" font-size="14.00">overwrite first off&#45;wall advective flux if flow is away from the wall and if the face is not also a wall cell</text>
</g>
<!-- CALL_8ff13c0&#45;&gt;COMMENT_8fd5e80+1 -->
<g id="edge12" class="edge">
<title>CALL_8ff13c0&#45;&gt;COMMENT_8fd5e80+1</title>
<path fill="none" stroke="black" d="M388,-935.42C388,-927.7 388,-918.43 388,-909.83"/>
<polygon fill="black" stroke="black" points="391.5,-909.82 388,-899.82 384.5,-909.82 391.5,-909.82"/>
</g>
<!-- COMMENT_8ff7b00+1 -->
<g id="node16" class="node">
<title>COMMENT_8ff7b00+1</title>
<polygon fill="none" stroke="black" points="530,-827.72 240,-827.72 240,-774.72 536,-774.72 536,-821.72 530,-827.72"/>
<polyline fill="none" stroke="black" points="530,-827.72 530,-821.72 "/>
<polyline fill="none" stroke="black" points="536,-821.72 530,-821.72 "/>
<text text-anchor="middle" x="388" y="-812.52" font-family="Times,serif" font-size="14.00"> &#160;&#160;&#160;&#160;ghost &#160;&#160;&#160;&#160;&#160;&#160;&#160;&#160;&#160;FX/UU(II+1)</text>
<text text-anchor="middle" x="388" y="-797.52" font-family="Times,serif" font-size="14.00">/// &#160;&#160;II &#160;&#160;/// &#160;II+1 &#160;| &#160;II+2 &#160;| ...</text>
<text text-anchor="middle" x="388" y="-782.52" font-family="Times,serif" font-size="14.00"> &#160;&#160;&#160;&#160;&#160;&#160;&#160;&#160;&#160;&#160;&#160;&#160;&#160;&#160;&#160;&#160;&#160;&#160;&#160;&#160;&#160;^ WALL_INDEX(II+1,+1)</text>
</g>
<!-- COMMENT_8fd5e80+1&#45;&gt;COMMENT_8ff7b00+1 -->
<g id="edge13" class="edge">
<title>COMMENT_8fd5e80+1&#45;&gt;COMMENT_8ff7b00+1</title>
<path fill="none" stroke="black" d="M388,-863.69C388,-856.17 388,-847.03 388,-838.12"/>
<polygon fill="black" stroke="black" points="391.5,-837.88 388,-827.88 384.5,-837.88 391.5,-837.88"/>
</g>
<!-- CALL_9002400 -->
<g id="node17" class="node">
<title>CALL_9002400</title>
<g id="a_node17"><a xlink:href="GET_SCALAR_FACE_VALUE.svg" xlink:title="GET_SCALAR_FACE_VALUE">
<polygon fill="lightgray" stroke="black" points="495.5,-738.72 280.5,-738.72 280.5,-734.72 276.5,-734.72 276.5,-730.72 280.5,-730.72 280.5,-710.72 276.5,-710.72 276.5,-706.72 280.5,-706.72 280.5,-702.72 495.5,-702.72 495.5,-738.72"/>
<polyline fill="none" stroke="black" points="280.5,-734.72 284.5,-734.72 284.5,-730.72 280.5,-730.72 "/>
<polyline fill="none" stroke="black" points="280.5,-710.72 284.5,-710.72 284.5,-706.72 280.5,-706.72 "/>
<text text-anchor="middle" x="388" y="-717.02" font-family="Times,serif" font-size="14.00">GET_SCALAR_FACE_VALUE</text>
</a>
</g>
</g>
<!-- COMMENT_8ff7b00+1&#45;&gt;CALL_9002400 -->
<g id="edge14" class="edge">
<title>COMMENT_8ff7b00+1&#45;&gt;CALL_9002400</title>
<path fill="none" stroke="black" d="M388,-774.52C388,-766.43 388,-757.48 388,-749.27"/>
<polygon fill="black" stroke="black" points="391.5,-749.05 388,-739.05 384.5,-749.05 391.5,-749.05"/>
</g>
<!-- COMMENT_8ff9720+1 -->
<g id="node18" class="node">
<title>COMMENT_8ff9720+1</title>
<polygon fill="none" stroke="black" points="502.5,-666.72 267.5,-666.72 267.5,-613.72 508.5,-613.72 508.5,-660.72 502.5,-666.72"/>
<polyline fill="none" stroke="black" points="502.5,-666.72 502.5,-660.72 "/>
<polyline fill="none" stroke="black" points="508.5,-660.72 502.5,-660.72 "/>
<text text-anchor="middle" x="388" y="-651.52" font-family="Times,serif" font-size="14.00"> &#160;&#160;&#160;&#160;&#160;&#160;&#160;&#160;&#160;&#160;FX/UU(II&#45;2) &#160;&#160;&#160;&#160;ghost</text>
<text text-anchor="middle" x="388" y="-636.52" font-family="Times,serif" font-size="14.00">... | &#160;II&#45;2 &#160;| &#160;II&#45;1 &#160;/// &#160;&#160;II &#160;&#160;///</text>
<text text-anchor="middle" x="388" y="-621.52" font-family="Times,serif" font-size="14.00"> &#160;&#160;&#160;&#160;&#160;&#160;&#160;&#160;&#160;&#160;&#160;&#160;^ WALL_INDEX(II&#45;1,&#45;1)</text>
</g>
<!-- CALL_9002400&#45;&gt;COMMENT_8ff9720+1 -->
<g id="edge15" class="edge">
<title>CALL_9002400&#45;&gt;COMMENT_8ff9720+1</title>
<path fill="none" stroke="black" d="M388,-702.69C388,-695.17 388,-686.03 388,-677.12"/>
<polygon fill="black" stroke="black" points="391.5,-676.88 388,-666.88 384.5,-676.88 391.5,-676.88"/>
</g>
<!-- CALL_9014ca0 -->
<g id="node19" class="node">
<title>CALL_9014ca0</title>
<g id="a_node19"><a xlink:href="GET_SCALAR_FACE_VALUE.svg" xlink:title="GET_SCALAR_FACE_VALUE">
<polygon fill="lightgray" stroke="black" points="495.5,-577.72 280.5,-577.72 280.5,-573.72 276.5,-573.72 276.5,-569.72 280.5,-569.72 280.5,-549.72 276.5,-549.72 276.5,-545.72 280.5,-545.72 280.5,-541.72 495.5,-541.72 495.5,-577.72"/>
<polyline fill="none" stroke="black" points="280.5,-573.72 284.5,-573.72 284.5,-569.72 280.5,-569.72 "/>
<polyline fill="none" stroke="black" points="280.5,-549.72 284.5,-549.72 284.5,-545.72 280.5,-545.72 "/>
<text text-anchor="middle" x="388" y="-556.02" font-family="Times,serif" font-size="14.00">GET_SCALAR_FACE_VALUE</text>
</a>
</g>
</g>
<!-- COMMENT_8ff9720+1&#45;&gt;CALL_9014ca0 -->
<g id="edge16" class="edge">
<title>COMMENT_8ff9720+1&#45;&gt;CALL_9014ca0</title>
<path fill="none" stroke="black" d="M388,-613.52C388,-605.43 388,-596.48 388,-588.27"/>
<polygon fill="black" stroke="black" points="391.5,-588.05 388,-578.05 384.5,-588.05 391.5,-588.05"/>
</g>
<!-- CALL_9217400 -->
<g id="node20" class="node">
<title>CALL_9217400</title>
<g id="a_node20"><a xlink:href="GET_SCALAR_FACE_VALUE.svg" xlink:title="GET_SCALAR_FACE_VALUE">
<polygon fill="lightgray" stroke="black" points="495.5,-505.72 280.5,-505.72 280.5,-501.72 276.5,-501.72 276.5,-497.72 280.5,-497.72 280.5,-477.72 276.5,-477.72 276.5,-473.72 280.5,-473.72 280.5,-469.72 495.5,-469.72 495.5,-505.72"/>
<polyline fill="none" stroke="black" points="280.5,-501.72 284.5,-501.72 284.5,-497.72 280.5,-497.72 "/>
<polyline fill="none" stroke="black" points="280.5,-477.72 284.5,-477.72 284.5,-473.72 280.5,-473.72 "/>
<text text-anchor="middle" x="388" y="-484.02" font-family="Times,serif" font-size="14.00">GET_SCALAR_FACE_VALUE</text>
</a>
</g>
</g>
<!-- CALL_9014ca0&#45;&gt;CALL_9217400 -->
<g id="edge17" class="edge">
<title>CALL_9014ca0&#45;&gt;CALL_9217400</title>
<path fill="none" stroke="black" d="M388,-541.42C388,-533.7 388,-524.43 388,-515.83"/>
<polygon fill="black" stroke="black" points="391.5,-515.82 388,-505.82 384.5,-515.82 391.5,-515.82"/>
</g>
<!-- CALL_9409e40 -->
<g id="node21" class="node">
<title>CALL_9409e40</title>
<g id="a_node21"><a xlink:href="GET_SCALAR_FACE_VALUE.svg" xlink:title="GET_SCALAR_FACE_VALUE">
<polygon fill="lightgray" stroke="black" points="495.5,-433.72 280.5,-433.72 280.5,-429.72 276.5,-429.72 276.5,-425.72 280.5,-425.72 280.5,-405.72 276.5,-405.72 276.5,-401.72 280.5,-401.72 280.5,-397.72 495.5,-397.72 495.5,-433.72"/>
<polyline fill="none" stroke="black" points="280.5,-429.72 284.5,-429.72 284.5,-425.72 280.5,-425.72 "/>
<polyline fill="none" stroke="black" points="280.5,-405.72 284.5,-405.72 284.5,-401.72 280.5,-401.72 "/>
<text text-anchor="middle" x="388" y="-412.02" font-family="Times,serif" font-size="14.00">GET_SCALAR_FACE_VALUE</text>
</a>
</g>
</g>
<!-- CALL_9217400&#45;&gt;CALL_9409e40 -->
<g id="edge18" class="edge">
<title>CALL_9217400&#45;&gt;CALL_9409e40</title>
<path fill="none" stroke="black" d="M388,-469.42C388,-461.7 388,-452.43 388,-443.83"/>
<polygon fill="black" stroke="black" points="391.5,-443.82 388,-433.82 384.5,-443.82 391.5,-443.82"/>
</g>
<!-- CALL_920b740 -->
<g id="node22" class="node">
<title>CALL_920b740</title>
<g id="a_node22"><a xlink:href="GET_SCALAR_FACE_VALUE.svg" xlink:title="GET_SCALAR_FACE_VALUE">
<polygon fill="lightgray" stroke="black" points="495.5,-361.72 280.5,-361.72 280.5,-357.72 276.5,-357.72 276.5,-353.72 280.5,-353.72 280.5,-333.72 276.5,-333.72 276.5,-329.72 280.5,-329.72 280.5,-325.72 495.5,-325.72 495.5,-361.72"/>
<polyline fill="none" stroke="black" points="280.5,-357.72 284.5,-357.72 284.5,-353.72 280.5,-353.72 "/>
<polyline fill="none" stroke="black" points="280.5,-333.72 284.5,-333.72 284.5,-329.72 280.5,-329.72 "/>
<text text-anchor="middle" x="388" y="-340.02" font-family="Times,serif" font-size="14.00">GET_SCALAR_FACE_VALUE</text>
</a>
</g>
</g>
<!-- CALL_9409e40&#45;&gt;CALL_920b740 -->
<g id="edge19" class="edge">
<title>CALL_9409e40&#45;&gt;CALL_920b740</title>
<path fill="none" stroke="black" d="M388,-397.42C388,-389.7 388,-380.43 388,-371.83"/>
<polygon fill="black" stroke="black" points="391.5,-371.82 388,-361.82 384.5,-371.82 391.5,-371.82"/>
</g>
<!-- CALL_902d360 -->
<g id="node23" class="node">
<title>CALL_902d360</title>
<g id="a_node23"><a xlink:href="GET_SCALAR_FACE_VALUE.svg" xlink:title="GET_SCALAR_FACE_VALUE">
<polygon fill="lightgray" stroke="black" points="495.5,-289.72 280.5,-289.72 280.5,-285.72 276.5,-285.72 276.5,-281.72 280.5,-281.72 280.5,-261.72 276.5,-261.72 276.5,-257.72 280.5,-257.72 280.5,-253.72 495.5,-253.72 495.5,-289.72"/>
<polyline fill="none" stroke="black" points="280.5,-285.72 284.5,-285.72 284.5,-281.72 280.5,-281.72 "/>
<polyline fill="none" stroke="black" points="280.5,-261.72 284.5,-261.72 284.5,-257.72 280.5,-257.72 "/>
<text text-anchor="middle" x="388" y="-268.02" font-family="Times,serif" font-size="14.00">GET_SCALAR_FACE_VALUE</text>
</a>
</g>
</g>
<!-- CALL_920b740&#45;&gt;CALL_902d360 -->
<g id="edge20" class="edge">
<title>CALL_920b740&#45;&gt;CALL_902d360</title>
<path fill="none" stroke="black" d="M388,-325.42C388,-317.7 388,-308.43 388,-299.83"/>
<polygon fill="black" stroke="black" points="391.5,-299.82 388,-289.82 384.5,-299.82 391.5,-299.82"/>
</g>
<!-- CALL_902d360&#45;&gt;endDO_DO_9250720 -->
<g id="edge22" class="edge">
<title>CALL_902d360&#45;&gt;endDO_DO_9250720</title>
<path fill="none" stroke="black" d="M388,-253.66C388,-238.65 388,-218.99 388,-217.78"/>
</g>
<!-- OMP_DO_927a8e0 -->
<g id="node25" class="node">
<title>OMP_DO_927a8e0</title>
<polygon fill="#ffd0d0" stroke="orange" points="657,-109 119,-109 119,-73 657,-73 657,-109"/>
<text text-anchor="middle" x="388" y="-87.3" font-family="Times,serif" font-size="14.00">!$OMP PARALLEL DO PRIVATE(IC,DU_P,DU_M,DV_P,DV_M,DW_P,DW_M)</text>
</g>
<!-- COMMENT_924ece0+1&#45;&gt;OMP_DO_927a8e0 -->
<g id="edge24" class="edge">
<title>COMMENT_924ece0+1&#45;&gt;OMP_DO_927a8e0</title>
<path fill="none" stroke="black" d="M388,-144.7C388,-136.98 388,-127.71 388,-119.11"/>
<polygon fill="black" stroke="black" points="391.5,-119.1 388,-109.1 384.5,-119.1 391.5,-119.1"/>
</g>
<!-- end_SUBPROGRAM_90404c0 -->
<g id="node26" class="node">
<title>end_SUBPROGRAM_90404c0</title>
<ellipse fill="black" stroke="black" cx="388" cy="-30" rx="7" ry="7"/>
</g>
<!-- OMP_DO_927a8e0&#45;&gt;end_SUBPROGRAM_90404c0 -->
<g id="edge25" class="edge">
<title>OMP_DO_927a8e0&#45;&gt;end_SUBPROGRAM_90404c0</title>
<path fill="none" stroke="black" d="M388,-72.93C388,-64.89 388,-55.33 388,-47.37"/>
<polygon fill="black" stroke="black" points="391.5,-47.22 388,-37.22 384.5,-47.22 391.5,-47.22"/>
</g>
</g>
</svg>
