<?xml version="1.0" encoding="UTF-8" standalone="no"?>
<!DOCTYPE svg PUBLIC "-//W3C//DTD SVG 1.1//EN"
 "http://www.w3.org/Graphics/SVG/1.1/DTD/svg11.dtd">
<!-- Generated by graphviz version 2.43.0 (0)
 -->
<!-- Title: EXCHANGE_DIVERGENCE_INFO Pages: 1 -->
<svg width="898pt" height="601pt"
 viewBox="0.00 0.00 898.00 601.00" xmlns="http://www.w3.org/2000/svg" xmlns:xlink="http://www.w3.org/1999/xlink">
<g id="graph0" class="graph" transform="scale(1 1) rotate(0) translate(4 597)">
<title>EXCHANGE_DIVERGENCE_INFO</title>
<polygon fill="white" stroke="transparent" points="-4,4 -4,-597 894,-597 894,4 -4,4"/>
<text text-anchor="middle" x="445" y="-7.8" font-family="Times,serif" font-size="14.00">EXCHANGE_DIVERGENCE_INFO</text>
<!-- start_SUBPROGRAM_8d843a0 -->
<g id="node1" class="node">
<title>start_SUBPROGRAM_8d843a0</title>
<ellipse fill="none" stroke="black" cx="445" cy="-586" rx="7" ry="7"/>
</g>
<!-- COMMENT_7dd8e80+1 -->
<g id="node2" class="node">
<title>COMMENT_7dd8e80+1</title>
<polygon fill="none" stroke="black" points="884,-543 0,-543 0,-505 890,-505 890,-537 884,-543"/>
<polyline fill="none" stroke="black" points="884,-543 884,-537 "/>
<polyline fill="none" stroke="black" points="890,-537 884,-537 "/>
<text text-anchor="middle" x="445" y="-527.8" font-family="Times,serif" font-size="14.00">!&gt; brief Exchange information mesh to mesh needed for divergence integrals</text>
<text text-anchor="middle" x="445" y="-512.8" font-family="Times,serif" font-size="14.00">!&gt; details Sum DSUM, PSUM and USUM over all meshes controlled by the active process, then reduce over all processes</text>
</g>
<!-- start_SUBPROGRAM_8d843a0&#45;&gt;COMMENT_7dd8e80+1 -->
<g id="edge1" class="edge">
<title>start_SUBPROGRAM_8d843a0&#45;&gt;COMMENT_7dd8e80+1</title>
<path fill="none" stroke="black" d="M445,-578.58C445,-572.41 445,-562.64 445,-553.12"/>
<polygon fill="black" stroke="black" points="448.5,-553.08 445,-543.08 441.5,-553.08 448.5,-553.08"/>
</g>
<!-- COMMENT_7ddaf40+1 -->
<g id="node3" class="node">
<title>COMMENT_7ddaf40+1</title>
<polygon fill="none" stroke="black" points="582,-469 302,-469 302,-433 588,-433 588,-463 582,-469"/>
<polyline fill="none" stroke="black" points="582,-469 582,-463 "/>
<polyline fill="none" stroke="black" points="588,-463 582,-463 "/>
<text text-anchor="middle" x="445" y="-447.3" font-family="Times,serif" font-size="14.00">CONNECTED_ZONES_ALL = .FALSE.</text>
</g>
<!-- COMMENT_7dd8e80+1&#45;&gt;COMMENT_7ddaf40+1 -->
<g id="edge2" class="edge">
<title>COMMENT_7dd8e80+1&#45;&gt;COMMENT_7ddaf40+1</title>
<path fill="none" stroke="black" d="M445,-504.72C445,-496.97 445,-487.79 445,-479.27"/>
<polygon fill="black" stroke="black" points="448.5,-479 445,-469 441.5,-479 448.5,-479"/>
</g>
<!-- CALL_7de93e0 -->
<g id="node4" class="node">
<title>CALL_7de93e0</title>
<g id="a_node4"><a xlink:href="MPI_ALLREDUCE.svg" xlink:title="MPI_ALLREDUCE">
<polygon fill="#ffe800" stroke="black" points="518,-397 372,-397 372,-393 368,-393 368,-389 372,-389 372,-369 368,-369 368,-365 372,-365 372,-361 518,-361 518,-397"/>
<polyline fill="none" stroke="black" points="372,-393 376,-393 376,-389 372,-389 "/>
<polyline fill="none" stroke="black" points="372,-369 376,-369 376,-365 372,-365 "/>
<text text-anchor="middle" x="445" y="-375.3" font-family="Times,serif" font-size="14.00">MPI_ALLREDUCE</text>
</a>
</g>
</g>
<!-- COMMENT_7ddaf40+1&#45;&gt;CALL_7de93e0 -->
<g id="edge3" class="edge">
<title>COMMENT_7ddaf40+1&#45;&gt;CALL_7de93e0</title>
<path fill="none" stroke="black" d="M445,-432.7C445,-424.98 445,-415.71 445,-407.11"/>
<polygon fill="black" stroke="black" points="448.5,-407.1 445,-397.1 441.5,-407.1 448.5,-407.1"/>
</g>
<!-- CALL_7debba0 -->
<g id="node5" class="node">
<title>CALL_7debba0</title>
<g id="a_node5"><a xlink:href="MPI_ALLREDUCE.svg" xlink:title="MPI_ALLREDUCE">
<polygon fill="#ffe800" stroke="black" points="518,-325 372,-325 372,-321 368,-321 368,-317 372,-317 372,-297 368,-297 368,-293 372,-293 372,-289 518,-289 518,-325"/>
<polyline fill="none" stroke="black" points="372,-321 376,-321 376,-317 372,-317 "/>
<polyline fill="none" stroke="black" points="372,-297 376,-297 376,-293 372,-293 "/>
<text text-anchor="middle" x="445" y="-303.3" font-family="Times,serif" font-size="14.00">MPI_ALLREDUCE</text>
</a>
</g>
</g>
<!-- CALL_7de93e0&#45;&gt;CALL_7debba0 -->
<g id="edge4" class="edge">
<title>CALL_7de93e0&#45;&gt;CALL_7debba0</title>
<path fill="none" stroke="black" d="M445,-360.7C445,-352.98 445,-343.71 445,-335.11"/>
<polygon fill="black" stroke="black" points="448.5,-335.1 445,-325.1 441.5,-335.1 448.5,-335.1"/>
</g>
<!-- CALL_7dee3c0 -->
<g id="node6" class="node">
<title>CALL_7dee3c0</title>
<g id="a_node6"><a xlink:href="MPI_ALLREDUCE.svg" xlink:title="MPI_ALLREDUCE">
<polygon fill="#ffe800" stroke="black" points="518,-253 372,-253 372,-249 368,-249 368,-245 372,-245 372,-225 368,-225 368,-221 372,-221 372,-217 518,-217 518,-253"/>
<polyline fill="none" stroke="black" points="372,-249 376,-249 376,-245 372,-245 "/>
<polyline fill="none" stroke="black" points="372,-225 376,-225 376,-221 372,-221 "/>
<text text-anchor="middle" x="445" y="-231.3" font-family="Times,serif" font-size="14.00">MPI_ALLREDUCE</text>
</a>
</g>
</g>
<!-- CALL_7debba0&#45;&gt;CALL_7dee3c0 -->
<g id="edge5" class="edge">
<title>CALL_7debba0&#45;&gt;CALL_7dee3c0</title>
<path fill="none" stroke="black" d="M445,-288.7C445,-280.98 445,-271.71 445,-263.11"/>
<polygon fill="black" stroke="black" points="448.5,-263.1 445,-253.1 441.5,-263.1 448.5,-263.1"/>
</g>
<!-- CALL_7df18e0 -->
<g id="node7" class="node">
<title>CALL_7df18e0</title>
<g id="a_node7"><a xlink:href="MPI_ALLREDUCE.svg" xlink:title="MPI_ALLREDUCE">
<polygon fill="#ffe800" stroke="black" points="518,-181 372,-181 372,-177 368,-177 368,-173 372,-173 372,-153 368,-153 368,-149 372,-149 372,-145 518,-145 518,-181"/>
<polyline fill="none" stroke="black" points="372,-177 376,-177 376,-173 372,-173 "/>
<polyline fill="none" stroke="black" points="372,-153 376,-153 376,-149 372,-149 "/>
<text text-anchor="middle" x="445" y="-159.3" font-family="Times,serif" font-size="14.00">MPI_ALLREDUCE</text>
</a>
</g>
</g>
<!-- CALL_7dee3c0&#45;&gt;CALL_7df18e0 -->
<g id="edge6" class="edge">
<title>CALL_7dee3c0&#45;&gt;CALL_7df18e0</title>
<path fill="none" stroke="black" d="M445,-216.7C445,-208.98 445,-199.71 445,-191.11"/>
<polygon fill="black" stroke="black" points="448.5,-191.1 445,-181.1 441.5,-191.1 448.5,-191.1"/>
</g>
<!-- COMMENT_7df84e0+1 -->
<g id="node8" class="node">
<title>COMMENT_7df84e0+1</title>
<polygon fill="none" stroke="black" points="653,-109 231,-109 231,-73 659,-73 659,-103 653,-109"/>
<polyline fill="none" stroke="black" points="653,-109 653,-103 "/>
<polyline fill="none" stroke="black" points="659,-103 653,-103 "/>
<text text-anchor="middle" x="445" y="-87.3" font-family="Times,serif" font-size="14.00">Connect zones to others which are not directly connected</text>
</g>
<!-- CALL_7df18e0&#45;&gt;COMMENT_7df84e0+1 -->
<g id="edge7" class="edge">
<title>CALL_7df18e0&#45;&gt;COMMENT_7df84e0+1</title>
<path fill="none" stroke="black" d="M445,-144.7C445,-136.98 445,-127.71 445,-119.11"/>
<polygon fill="black" stroke="black" points="448.5,-119.1 445,-109.1 441.5,-119.1 448.5,-119.1"/>
</g>
<!-- end_SUBPROGRAM_8d843a0 -->
<g id="node9" class="node">
<title>end_SUBPROGRAM_8d843a0</title>
<ellipse fill="black" stroke="black" cx="445" cy="-30" rx="7" ry="7"/>
</g>
<!-- COMMENT_7df84e0+1&#45;&gt;end_SUBPROGRAM_8d843a0 -->
<g id="edge8" class="edge">
<title>COMMENT_7df84e0+1&#45;&gt;end_SUBPROGRAM_8d843a0</title>
<path fill="none" stroke="black" d="M445,-72.93C445,-64.89 445,-55.33 445,-47.37"/>
<polygon fill="black" stroke="black" points="448.5,-47.22 445,-37.22 441.5,-47.22 448.5,-47.22"/>
</g>
</g>
</svg>
