<?xml version="1.0" encoding="UTF-8" standalone="no"?>
<!DOCTYPE svg PUBLIC "-//W3C//DTD SVG 1.1//EN"
 "http://www.w3.org/Graphics/SVG/1.1/DTD/svg11.dtd">
<!-- Generated by graphviz version 2.43.0 (0)
 -->
<!-- Title: EXCHANGE_HVAC_BC Pages: 1 -->
<svg width="576pt" height="455pt"
 viewBox="0.00 0.00 576.00 455.00" xmlns="http://www.w3.org/2000/svg" xmlns:xlink="http://www.w3.org/1999/xlink">
<g id="graph0" class="graph" transform="scale(1 1) rotate(0) translate(4 451)">
<title>EXCHANGE_HVAC_BC</title>
<polygon fill="white" stroke="transparent" points="-4,4 -4,-451 572,-451 572,4 -4,4"/>
<text text-anchor="middle" x="284" y="-7.8" font-family="Times,serif" font-size="14.00">EXCHANGE_HVAC_BC</text>
<!-- start_SUBPROGRAM_9842220 -->
<g id="node1" class="node">
<title>start_SUBPROGRAM_9842220</title>
<ellipse fill="none" stroke="black" cx="284" cy="-440" rx="7" ry="7"/>
</g>
<!-- COMMENT_98134c0+1 -->
<g id="node2" class="node">
<title>COMMENT_98134c0+1</title>
<polygon fill="none" stroke="black" points="562,-397 0,-397 0,-361 568,-361 568,-391 562,-397"/>
<polyline fill="none" stroke="black" points="562,-397 562,-391 "/>
<polyline fill="none" stroke="black" points="568,-391 562,-391 "/>
<text text-anchor="middle" x="284" y="-375.3" font-family="Times,serif" font-size="14.00">!&gt; brief Exchange information needed for performing the HVAC computation</text>
</g>
<!-- start_SUBPROGRAM_9842220&#45;&gt;COMMENT_98134c0+1 -->
<g id="edge1" class="edge">
<title>start_SUBPROGRAM_9842220&#45;&gt;COMMENT_98134c0+1</title>
<path fill="none" stroke="black" d="M284,-432.69C284,-426.49 284,-416.59 284,-407.05"/>
<polygon fill="black" stroke="black" points="287.5,-407.02 284,-397.02 280.5,-407.02 287.5,-407.02"/>
</g>
<!-- COMMENT_980b8a0+1 -->
<g id="node3" class="node">
<title>COMMENT_980b8a0+1</title>
<polygon fill="none" stroke="black" points="448,-325 114,-325 114,-289 454,-289 454,-319 448,-325"/>
<polyline fill="none" stroke="black" points="448,-325 448,-319 "/>
<polyline fill="none" stroke="black" points="454,-319 448,-319 "/>
<text text-anchor="middle" x="284" y="-303.3" font-family="Times,serif" font-size="14.00">Pack HVAC values into REAL_BUFFER_HVAC</text>
</g>
<!-- COMMENT_98134c0+1&#45;&gt;COMMENT_980b8a0+1 -->
<g id="edge2" class="edge">
<title>COMMENT_98134c0+1&#45;&gt;COMMENT_980b8a0+1</title>
<path fill="none" stroke="black" d="M284,-360.7C284,-352.98 284,-343.71 284,-335.11"/>
<polygon fill="black" stroke="black" points="287.5,-335.1 284,-325.1 280.5,-335.1 287.5,-335.1"/>
</g>
<!-- CALL_982e660 -->
<g id="node4" class="node">
<title>CALL_982e660</title>
<g id="a_node4"><a xlink:href="MPI_GATHERV.svg" xlink:title="MPI_GATHERV">
<polygon fill="#ffe800" stroke="black" points="346,-253 222,-253 222,-249 218,-249 218,-245 222,-245 222,-225 218,-225 218,-221 222,-221 222,-217 346,-217 346,-253"/>
<polyline fill="none" stroke="black" points="222,-249 226,-249 226,-245 222,-245 "/>
<polyline fill="none" stroke="black" points="222,-225 226,-225 226,-221 222,-221 "/>
<text text-anchor="middle" x="284" y="-231.3" font-family="Times,serif" font-size="14.00">MPI_GATHERV</text>
</a>
</g>
</g>
<!-- COMMENT_980b8a0+1&#45;&gt;CALL_982e660 -->
<g id="edge3" class="edge">
<title>COMMENT_980b8a0+1&#45;&gt;CALL_982e660</title>
<path fill="none" stroke="black" d="M284,-288.7C284,-280.98 284,-271.71 284,-263.11"/>
<polygon fill="black" stroke="black" points="287.5,-263.1 284,-253.1 280.5,-263.1 287.5,-263.1"/>
</g>
<!-- CALL_9832260 -->
<g id="node5" class="node">
<title>CALL_9832260</title>
<g id="a_node5"><a xlink:href="MPI_GATHERV.svg" xlink:title="MPI_GATHERV">
<polygon fill="#ffe800" stroke="black" points="346,-181 222,-181 222,-177 218,-177 218,-173 222,-173 222,-153 218,-153 218,-149 222,-149 222,-145 346,-145 346,-181"/>
<polyline fill="none" stroke="black" points="222,-177 226,-177 226,-173 222,-173 "/>
<polyline fill="none" stroke="black" points="222,-153 226,-153 226,-149 222,-149 "/>
<text text-anchor="middle" x="284" y="-159.3" font-family="Times,serif" font-size="14.00">MPI_GATHERV</text>
</a>
</g>
</g>
<!-- CALL_982e660&#45;&gt;CALL_9832260 -->
<g id="edge4" class="edge">
<title>CALL_982e660&#45;&gt;CALL_9832260</title>
<path fill="none" stroke="black" d="M284,-216.7C284,-208.98 284,-199.71 284,-191.11"/>
<polygon fill="black" stroke="black" points="287.5,-191.1 284,-181.1 280.5,-191.1 287.5,-191.1"/>
</g>
<!-- COMMENT_982b400+1 -->
<g id="node6" class="node">
<title>COMMENT_982b400+1</title>
<polygon fill="none" stroke="black" points="425.5,-109 136.5,-109 136.5,-73 431.5,-73 431.5,-103 425.5,-109"/>
<polyline fill="none" stroke="black" points="425.5,-109 425.5,-103 "/>
<polyline fill="none" stroke="black" points="431.5,-103 425.5,-103 "/>
<text text-anchor="middle" x="284" y="-87.3" font-family="Times,serif" font-size="14.00">Unpack HVAC values on MPI process 0</text>
</g>
<!-- CALL_9832260&#45;&gt;COMMENT_982b400+1 -->
<g id="edge5" class="edge">
<title>CALL_9832260&#45;&gt;COMMENT_982b400+1</title>
<path fill="none" stroke="black" d="M284,-144.7C284,-136.98 284,-127.71 284,-119.11"/>
<polygon fill="black" stroke="black" points="287.5,-119.1 284,-109.1 280.5,-119.1 287.5,-119.1"/>
</g>
<!-- end_SUBPROGRAM_9842220 -->
<g id="node7" class="node">
<title>end_SUBPROGRAM_9842220</title>
<ellipse fill="black" stroke="black" cx="284" cy="-30" rx="7" ry="7"/>
</g>
<!-- COMMENT_982b400+1&#45;&gt;end_SUBPROGRAM_9842220 -->
<g id="edge6" class="edge">
<title>COMMENT_982b400+1&#45;&gt;end_SUBPROGRAM_9842220</title>
<path fill="none" stroke="black" d="M284,-72.93C284,-64.89 284,-55.33 284,-47.37"/>
<polygon fill="black" stroke="black" points="287.5,-47.22 284,-37.22 280.5,-47.22 287.5,-47.22"/>
</g>
</g>
</svg>
