<?xml version="1.0" encoding="UTF-8" standalone="no"?>
<!DOCTYPE svg PUBLIC "-//W3C//DTD SVG 1.1//EN"
 "http://www.w3.org/Graphics/SVG/1.1/DTD/svg11.dtd">
<!-- Generated by graphviz version 2.43.0 (0)
 -->
<!-- Title: EXCHANGE_GLOBAL_OUTPUTS Pages: 1 -->
<svg width="1018pt" height="2068pt"
 viewBox="0.00 0.00 1018.00 2067.88" xmlns="http://www.w3.org/2000/svg" xmlns:xlink="http://www.w3.org/1999/xlink">
<g id="graph0" class="graph" transform="scale(1 1) rotate(0) translate(4 2063.88)">
<title>EXCHANGE_GLOBAL_OUTPUTS</title>
<polygon fill="white" stroke="transparent" points="-4,4 -4,-2063.88 1014,-2063.88 1014,4 -4,4"/>
<text text-anchor="middle" x="505" y="-7.8" font-family="Times,serif" font-size="14.00">EXCHANGE_GLOBAL_OUTPUTS</text>
<g id="clust1" class="cluster">
<title>cluster_EXCHANGE_DEVICE</title>
<polygon fill="none" stroke="blue" points="8,-607.44 8,-1605.88 1002,-1605.88 1002,-607.44 8,-607.44"/>
<text text-anchor="middle" x="91.5" y="-1590.68" font-family="Times,serif" font-size="14.00">EXCHANGE_DEVICE</text>
</g>
<g id="clust2" class="cluster">
<title>cluster_cond98c4e80</title>
<polygon fill="none" stroke="black" points="16,-628.16 16,-1566.16 994,-1566.16 994,-628.16 16,-628.16"/>
<text text-anchor="middle" x="71.5" y="-1550.96" font-family="Times,serif" font-size="14.00">cond98c4e80</text>
</g>
<g id="clust3" class="cluster">
<title>cluster_OPERATION_LOOP</title>
<polygon fill="none" stroke="orange" points="424,-636.16 424,-1154.16 586,-1154.16 586,-636.16 424,-636.16"/>
<text text-anchor="middle" x="500.5" y="-1138.96" font-family="Times,serif" font-size="14.00">OPERATION_LOOP</text>
</g>
<g id="clust4" class="cluster">
<title>cluster_DEVICE_LOOP_2</title>
<polygon fill="none" stroke="orange" points="436,-644.16 436,-935.16 574,-935.16 574,-644.16 436,-644.16"/>
<text text-anchor="middle" x="505" y="-919.96" font-family="Times,serif" font-size="14.00">DEVICE_LOOP_2</text>
</g>
<g id="clust5" class="cluster">
<title>cluster_DEVICE_LOOP</title>
<polygon fill="none" stroke="orange" points="179,-65 179,-391.44 815,-391.44 815,-65 179,-65"/>
<text text-anchor="middle" x="240" y="-376.24" font-family="Times,serif" font-size="14.00">DEVICE_LOOP</text>
</g>
<g id="clust6" class="cluster">
<title>cluster_LATCHIF</title>
<polygon fill="none" stroke="blue" points="309,-209 309,-360.44 707,-360.44 707,-209 309,-209"/>
<text text-anchor="middle" x="349.5" y="-345.24" font-family="Times,serif" font-size="14.00">LATCHIF</text>
</g>
<g id="clust7" class="cluster">
<title>cluster_cond98c9d20</title>
<polygon fill="none" stroke="black" points="317,-245.72 317,-320.72 499,-320.72 499,-245.72 317,-245.72"/>
<text text-anchor="middle" x="373" y="-305.52" font-family="Times,serif" font-size="14.00">cond98c9d20</text>
</g>
<g id="clust8" class="cluster">
<title>cluster_cond98d1d20</title>
<polygon fill="none" stroke="black" points="507,-245.72 507,-320.72 699,-320.72 699,-245.72 507,-245.72"/>
<text text-anchor="middle" x="563.5" y="-305.52" font-family="Times,serif" font-size="14.00">cond98d1d20</text>
</g>
<!-- start_SUBPROGRAM_98dbb60 -->
<g id="node1" class="node">
<title>start_SUBPROGRAM_98dbb60</title>
<ellipse fill="none" stroke="black" cx="505" cy="-2052.88" rx="7" ry="7"/>
</g>
<!-- COMMENT_96a6f40+1 -->
<g id="node2" class="node">
<title>COMMENT_96a6f40+1</title>
<polygon fill="none" stroke="black" points="700.5,-2009.88 303.5,-2009.88 303.5,-1973.88 706.5,-1973.88 706.5,-2003.88 700.5,-2009.88"/>
<polyline fill="none" stroke="black" points="700.5,-2009.88 700.5,-2003.88 "/>
<polyline fill="none" stroke="black" points="706.5,-2003.88 700.5,-2003.88 "/>
<text text-anchor="middle" x="505" y="-1988.18" font-family="Times,serif" font-size="14.00">!&gt; brief Gather HRR, mass, and device data to node 0</text>
</g>
<!-- start_SUBPROGRAM_98dbb60&#45;&gt;COMMENT_96a6f40+1 -->
<g id="edge1" class="edge">
<title>start_SUBPROGRAM_98dbb60&#45;&gt;COMMENT_96a6f40+1</title>
<path fill="none" stroke="black" d="M505,-2045.57C505,-2039.37 505,-2029.47 505,-2019.93"/>
<polygon fill="black" stroke="black" points="508.5,-2019.9 505,-2009.9 501.5,-2019.9 508.5,-2019.9"/>
</g>
<!-- COMMENT_9698200+1 -->
<g id="node3" class="node">
<title>COMMENT_9698200+1</title>
<polygon fill="none" stroke="black" points="755.5,-1937.88 248.5,-1937.88 248.5,-1901.88 761.5,-1901.88 761.5,-1931.88 755.5,-1937.88"/>
<polyline fill="none" stroke="black" points="755.5,-1937.88 755.5,-1931.88 "/>
<polyline fill="none" stroke="black" points="761.5,-1931.88 755.5,-1931.88 "/>
<text text-anchor="middle" x="505" y="-1916.18" font-family="Times,serif" font-size="14.00">Gather HRR (Q_DOT) and mass loss rate (M_DOT) integrals to node 0</text>
</g>
<!-- COMMENT_96a6f40+1&#45;&gt;COMMENT_9698200+1 -->
<g id="edge2" class="edge">
<title>COMMENT_96a6f40+1&#45;&gt;COMMENT_9698200+1</title>
<path fill="none" stroke="black" d="M505,-1973.58C505,-1965.86 505,-1956.59 505,-1947.99"/>
<polygon fill="black" stroke="black" points="508.5,-1947.98 505,-1937.98 501.5,-1947.98 508.5,-1947.98"/>
</g>
<!-- CALL_9687740 -->
<g id="node4" class="node">
<title>CALL_9687740</title>
<g id="a_node4"><a xlink:href="GATHER_Q_AND_M.svg" xlink:title="GATHER_Q_AND_M">
<polygon fill="lightgray" stroke="black" points="584,-1865.88 426,-1865.88 426,-1861.88 422,-1861.88 422,-1857.88 426,-1857.88 426,-1837.88 422,-1837.88 422,-1833.88 426,-1833.88 426,-1829.88 584,-1829.88 584,-1865.88"/>
<polyline fill="none" stroke="black" points="426,-1861.88 430,-1861.88 430,-1857.88 426,-1857.88 "/>
<polyline fill="none" stroke="black" points="426,-1837.88 430,-1837.88 430,-1833.88 426,-1833.88 "/>
<text text-anchor="middle" x="505" y="-1844.18" font-family="Times,serif" font-size="14.00">GATHER_Q_AND_M</text>
</a>
</g>
</g>
<!-- COMMENT_9698200+1&#45;&gt;CALL_9687740 -->
<g id="edge3" class="edge">
<title>COMMENT_9698200+1&#45;&gt;CALL_9687740</title>
<path fill="none" stroke="black" d="M505,-1901.58C505,-1893.86 505,-1884.59 505,-1875.99"/>
<polygon fill="black" stroke="black" points="508.5,-1875.98 505,-1865.98 501.5,-1875.98 508.5,-1875.98"/>
</g>
<!-- COMMENT_96a65e0+1 -->
<g id="node5" class="node">
<title>COMMENT_96a65e0+1</title>
<polygon fill="none" stroke="black" points="651,-1793.88 353,-1793.88 353,-1757.88 657,-1757.88 657,-1787.88 651,-1793.88"/>
<polyline fill="none" stroke="black" points="651,-1793.88 651,-1787.88 "/>
<polyline fill="none" stroke="black" points="657,-1787.88 651,-1787.88 "/>
<text text-anchor="middle" x="505" y="-1772.18" font-family="Times,serif" font-size="14.00">Gather species mass integrals to node 0</text>
</g>
<!-- CALL_9687740&#45;&gt;COMMENT_96a65e0+1 -->
<g id="edge4" class="edge">
<title>CALL_9687740&#45;&gt;COMMENT_96a65e0+1</title>
<path fill="none" stroke="black" d="M505,-1829.58C505,-1821.86 505,-1812.59 505,-1803.99"/>
<polygon fill="black" stroke="black" points="508.5,-1803.98 505,-1793.98 501.5,-1803.98 508.5,-1803.98"/>
</g>
<!-- CALL_96b2680 -->
<g id="node6" class="node">
<title>CALL_96b2680</title>
<g id="a_node6"><a xlink:href="MPI_GATHERV.svg" xlink:title="MPI_GATHERV">
<polygon fill="#ffe800" stroke="black" points="567,-1721.88 443,-1721.88 443,-1717.88 439,-1717.88 439,-1713.88 443,-1713.88 443,-1693.88 439,-1693.88 439,-1689.88 443,-1689.88 443,-1685.88 567,-1685.88 567,-1721.88"/>
<polyline fill="none" stroke="black" points="443,-1717.88 447,-1717.88 447,-1713.88 443,-1713.88 "/>
<polyline fill="none" stroke="black" points="443,-1693.88 447,-1693.88 447,-1689.88 443,-1689.88 "/>
<text text-anchor="middle" x="505" y="-1700.18" font-family="Times,serif" font-size="14.00">MPI_GATHERV</text>
</a>
</g>
</g>
<!-- COMMENT_96a65e0+1&#45;&gt;CALL_96b2680 -->
<g id="edge5" class="edge">
<title>COMMENT_96a65e0+1&#45;&gt;CALL_96b2680</title>
<path fill="none" stroke="black" d="M505,-1757.58C505,-1749.86 505,-1740.59 505,-1731.99"/>
<polygon fill="black" stroke="black" points="508.5,-1731.98 505,-1721.98 501.5,-1731.98 508.5,-1731.98"/>
</g>
<!-- COMMENT_96ab8c0+1 -->
<g id="node7" class="node">
<title>COMMENT_96ab8c0+1</title>
<polygon fill="none" stroke="black" points="905,-1649.88 99,-1649.88 99,-1613.88 911,-1613.88 911,-1643.88 905,-1649.88"/>
<polyline fill="none" stroke="black" points="905,-1649.88 905,-1643.88 "/>
<polyline fill="none" stroke="black" points="911,-1643.88 905,-1643.88 "/>
<text text-anchor="middle" x="505" y="-1628.18" font-family="Times,serif" font-size="14.00">Exchange DEVICE parameters among meshes and dump out DEVICE info after first &quot;gathering&quot; data to node 0</text>
</g>
<!-- CALL_96b2680&#45;&gt;COMMENT_96ab8c0+1 -->
<g id="edge6" class="edge">
<title>CALL_96b2680&#45;&gt;COMMENT_96ab8c0+1</title>
<path fill="none" stroke="black" d="M505,-1685.58C505,-1677.86 505,-1668.59 505,-1659.99"/>
<polygon fill="black" stroke="black" points="508.5,-1659.98 505,-1649.98 501.5,-1659.98 508.5,-1659.98"/>
</g>
<!-- beginIf_IF_96c2740 -->
<g id="node8" class="node">
<title>beginIf_IF_96c2740</title>
<ellipse fill="black" stroke="black" cx="505" cy="-1574.52" rx="0.36" ry="0.36"/>
</g>
<!-- COMMENT_96ab8c0+1&#45;&gt;beginIf_IF_96c2740 -->
<g id="edge20" class="edge">
<title>COMMENT_96ab8c0+1&#45;&gt;beginIf_IF_96c2740</title>
<path fill="none" stroke="black" d="M505,-1613.67C505,-1597.92 505,-1576.88 505,-1575.58"/>
</g>
<!-- COMMENT_96b2ea0+1 -->
<g id="node10" class="node">
<title>COMMENT_96b2ea0+1</title>
<polygon fill="none" stroke="black" points="747.5,-1535.16 256.5,-1535.16 256.5,-1499.16 753.5,-1499.16 753.5,-1529.16 747.5,-1535.16"/>
<polyline fill="none" stroke="black" points="747.5,-1535.16 747.5,-1529.16 "/>
<polyline fill="none" stroke="black" points="753.5,-1529.16 747.5,-1529.16 "/>
<text text-anchor="middle" x="505" y="-1513.46" font-family="Times,serif" font-size="14.00">Exchange the CURRENT_STATE and PRIOR_STATE of each DEViCe</text>
</g>
<!-- beginIf_IF_96c2740&#45;&gt;COMMENT_96b2ea0+1 -->
<g id="edge18" class="edge">
<title>beginIf_IF_96c2740&#45;&gt;COMMENT_96b2ea0+1</title>
<path fill="none" stroke="black" d="M505,-1574C505,-1572.37 505,-1558.68 505,-1545.26"/>
<polygon fill="black" stroke="black" points="508.5,-1545.26 505,-1535.26 501.5,-1545.26 508.5,-1545.26"/>
</g>
<!-- endIf_IF_96c2740 -->
<g id="node9" class="node">
<title>endIf_IF_96c2740</title>
<ellipse fill="black" stroke="black" cx="505" cy="-615.8" rx="0.36" ry="0.36"/>
</g>
<!-- COMMENT_98c5840+1 -->
<g id="node22" class="node">
<title>COMMENT_98c5840+1</title>
<polygon fill="none" stroke="black" points="704,-579.44 300,-579.44 300,-543.44 710,-543.44 710,-573.44 704,-579.44"/>
<polyline fill="none" stroke="black" points="704,-579.44 704,-573.44 "/>
<polyline fill="none" stroke="black" points="710,-573.44 704,-573.44 "/>
<text text-anchor="middle" x="505" y="-557.74" font-family="Times,serif" font-size="14.00">Perform the temporal operations on the device outputs</text>
</g>
<!-- endIf_IF_96c2740&#45;&gt;COMMENT_98c5840+1 -->
<g id="edge21" class="edge">
<title>endIf_IF_96c2740&#45;&gt;COMMENT_98c5840+1</title>
<path fill="none" stroke="black" d="M505,-614.65C505,-613.21 505,-601.67 505,-589.8"/>
<polygon fill="black" stroke="black" points="508.5,-589.54 505,-579.54 501.5,-589.54 508.5,-589.54"/>
</g>
<!-- CALL_96ba840 -->
<g id="node11" class="node">
<title>CALL_96ba840</title>
<g id="a_node11"><a xlink:href="MPI_ALLREDUCE.svg" xlink:title="MPI_ALLREDUCE">
<polygon fill="#ffe800" stroke="black" points="578,-1463.16 432,-1463.16 432,-1459.16 428,-1459.16 428,-1455.16 432,-1455.16 432,-1435.16 428,-1435.16 428,-1431.16 432,-1431.16 432,-1427.16 578,-1427.16 578,-1463.16"/>
<polyline fill="none" stroke="black" points="432,-1459.16 436,-1459.16 436,-1455.16 432,-1455.16 "/>
<polyline fill="none" stroke="black" points="432,-1435.16 436,-1435.16 436,-1431.16 432,-1431.16 "/>
<text text-anchor="middle" x="505" y="-1441.46" font-family="Times,serif" font-size="14.00">MPI_ALLREDUCE</text>
</a>
</g>
</g>
<!-- COMMENT_96b2ea0+1&#45;&gt;CALL_96ba840 -->
<g id="edge7" class="edge">
<title>COMMENT_96b2ea0+1&#45;&gt;CALL_96ba840</title>
<path fill="none" stroke="black" d="M505,-1498.86C505,-1491.14 505,-1481.87 505,-1473.27"/>
<polygon fill="black" stroke="black" points="508.5,-1473.26 505,-1463.26 501.5,-1473.26 508.5,-1473.26"/>
</g>
<!-- COMMENT_96bbce0+1 -->
<g id="node12" class="node">
<title>COMMENT_96bbce0+1</title>
<polygon fill="none" stroke="black" points="591.5,-1391.16 412.5,-1391.16 412.5,-1355.16 597.5,-1355.16 597.5,-1385.16 591.5,-1391.16"/>
<polyline fill="none" stroke="black" points="591.5,-1391.16 591.5,-1385.16 "/>
<polyline fill="none" stroke="black" points="597.5,-1385.16 591.5,-1385.16 "/>
<text text-anchor="middle" x="505" y="-1369.46" font-family="Times,serif" font-size="14.00">Dry pipe sprinkler logic</text>
</g>
<!-- CALL_96ba840&#45;&gt;COMMENT_96bbce0+1 -->
<g id="edge8" class="edge">
<title>CALL_96ba840&#45;&gt;COMMENT_96bbce0+1</title>
<path fill="none" stroke="black" d="M505,-1426.86C505,-1419.14 505,-1409.87 505,-1401.27"/>
<polygon fill="black" stroke="black" points="508.5,-1401.26 505,-1391.26 501.5,-1401.26 508.5,-1401.26"/>
</g>
<!-- COMMENT_9687e40+1 -->
<g id="node13" class="node">
<title>COMMENT_9687e40+1</title>
<polygon fill="none" stroke="black" points="946,-1319.16 58,-1319.16 58,-1266.16 952,-1266.16 952,-1313.16 946,-1319.16"/>
<polyline fill="none" stroke="black" points="946,-1319.16 946,-1313.16 "/>
<polyline fill="none" stroke="black" points="952,-1313.16 946,-1313.16 "/>
<text text-anchor="middle" x="505" y="-1303.96" font-family="Times,serif" font-size="14.00">Each DEViCe has 0 or more SUBDEVICEs. These SUBDEVICEs contain the values of the DEViCe on the meshes controlled</text>
<text text-anchor="middle" x="505" y="-1288.96" font-family="Times,serif" font-size="14.00">by the copy of the DEViCe controlled by this MPI process. Each MPI process has a copy of every DEViCe, but only</text>
<text text-anchor="middle" x="505" y="-1273.96" font-family="Times,serif" font-size="14.00">the MPI process that controls the meshes has a copy of the DEViCe for which SUBDEVICEs have been allocated.</text>
</g>
<!-- COMMENT_96bbce0+1&#45;&gt;COMMENT_9687e40+1 -->
<g id="edge9" class="edge">
<title>COMMENT_96bbce0+1&#45;&gt;COMMENT_9687e40+1</title>
<path fill="none" stroke="black" d="M505,-1355.13C505,-1347.61 505,-1338.47 505,-1329.56"/>
<polygon fill="black" stroke="black" points="508.5,-1329.32 505,-1319.32 501.5,-1329.32 508.5,-1329.32"/>
</g>
<!-- COMMENT_9687e40+2 -->
<g id="node14" class="node">
<title>COMMENT_9687e40+2</title>
<polygon fill="none" stroke="black" points="980,-1230.16 24,-1230.16 24,-1162.16 986,-1162.16 986,-1224.16 980,-1230.16"/>
<polyline fill="none" stroke="black" points="980,-1230.16 980,-1224.16 "/>
<polyline fill="none" stroke="black" points="986,-1224.16 980,-1224.16 "/>
<text text-anchor="middle" x="505" y="-1214.96" font-family="Times,serif" font-size="14.00">In the following loop, for OP_INDEX=1, we add together VALUE_1 and possibly VALUE_2 for all SUBDEVICEs (i.e. meshes)</text>
<text text-anchor="middle" x="505" y="-1199.96" font-family="Times,serif" font-size="14.00">allocated by the copy of the DEViCe associated with the current MPI process, MY_RANK. Then we do an MPI_ALLREDUCE that</text>
<text text-anchor="middle" x="505" y="-1184.96" font-family="Times,serif" font-size="14.00">adds the VALUE_1 and VALUE_2 from other SUBDEVICEs allocated by the copies of the DEViCE stored by the other MPI processes.</text>
<text text-anchor="middle" x="505" y="-1169.96" font-family="Times,serif" font-size="14.00">For OP_INDEX=2 and 3, we take the MIN or MAX of all the VALUEs, along with the MINLOC or MAXLOC.</text>
</g>
<!-- COMMENT_9687e40+1&#45;&gt;COMMENT_9687e40+2 -->
<g id="edge10" class="edge">
<title>COMMENT_9687e40+1&#45;&gt;COMMENT_9687e40+2</title>
<path fill="none" stroke="black" d="M505,-1265.84C505,-1257.98 505,-1249.12 505,-1240.45"/>
<polygon fill="black" stroke="black" points="508.5,-1240.41 505,-1230.41 501.5,-1240.41 508.5,-1240.41"/>
</g>
<!-- DO_96de160 -->
<g id="node15" class="node">
<title>DO_96de160</title>
<polygon fill="none" stroke="orange" points="574,-1123.16 436,-1123.16 436,-1087.16 574,-1087.16 574,-1123.16"/>
<text text-anchor="middle" x="505" y="-1101.46" font-family="Times,serif" font-size="14.00">DEVICE_LOOP_1</text>
</g>
<!-- COMMENT_9687e40+2&#45;&gt;DO_96de160 -->
<g id="edge17" class="edge">
<title>COMMENT_9687e40+2&#45;&gt;DO_96de160</title>
<path fill="none" stroke="black" d="M505,-1162.02C505,-1152.74 505,-1142.76 505,-1133.84"/>
<polygon fill="black" stroke="black" points="508.5,-1133.6 505,-1123.6 501.5,-1133.6 508.5,-1133.6"/>
</g>
<!-- CALL_96e24c0 -->
<g id="node16" class="node">
<title>CALL_96e24c0</title>
<g id="a_node16"><a xlink:href="MPI_ALLREDUCE.svg" xlink:title="MPI_ALLREDUCE">
<polygon fill="#ffe800" stroke="black" points="578,-1051.16 432,-1051.16 432,-1047.16 428,-1047.16 428,-1043.16 432,-1043.16 432,-1023.16 428,-1023.16 428,-1019.16 432,-1019.16 432,-1015.16 578,-1015.16 578,-1051.16"/>
<polyline fill="none" stroke="black" points="432,-1047.16 436,-1047.16 436,-1043.16 432,-1043.16 "/>
<polyline fill="none" stroke="black" points="432,-1023.16 436,-1023.16 436,-1019.16 432,-1019.16 "/>
<text text-anchor="middle" x="505" y="-1029.46" font-family="Times,serif" font-size="14.00">MPI_ALLREDUCE</text>
</a>
</g>
</g>
<!-- DO_96de160&#45;&gt;CALL_96e24c0 -->
<g id="edge11" class="edge">
<title>DO_96de160&#45;&gt;CALL_96e24c0</title>
<path fill="none" stroke="black" d="M505,-1086.86C505,-1079.14 505,-1069.87 505,-1061.27"/>
<polygon fill="black" stroke="black" points="508.5,-1061.26 505,-1051.26 501.5,-1061.26 508.5,-1061.26"/>
</g>
<!-- CALL_96e67a0 -->
<g id="node17" class="node">
<title>CALL_96e67a0</title>
<g id="a_node17"><a xlink:href="MPI_ALLREDUCE.svg" xlink:title="MPI_ALLREDUCE">
<polygon fill="#ffe800" stroke="black" points="578,-979.16 432,-979.16 432,-975.16 428,-975.16 428,-971.16 432,-971.16 432,-951.16 428,-951.16 428,-947.16 432,-947.16 432,-943.16 578,-943.16 578,-979.16"/>
<polyline fill="none" stroke="black" points="432,-975.16 436,-975.16 436,-971.16 432,-971.16 "/>
<polyline fill="none" stroke="black" points="432,-951.16 436,-951.16 436,-947.16 432,-947.16 "/>
<text text-anchor="middle" x="505" y="-957.46" font-family="Times,serif" font-size="14.00">MPI_ALLREDUCE</text>
</a>
</g>
</g>
<!-- CALL_96e24c0&#45;&gt;CALL_96e67a0 -->
<g id="edge12" class="edge">
<title>CALL_96e24c0&#45;&gt;CALL_96e67a0</title>
<path fill="none" stroke="black" d="M505,-1014.86C505,-1007.14 505,-997.87 505,-989.27"/>
<polygon fill="black" stroke="black" points="508.5,-989.26 505,-979.26 501.5,-989.26 508.5,-989.26"/>
</g>
<!-- CALL_96fe720 -->
<g id="node18" class="node">
<title>CALL_96fe720</title>
<g id="a_node18"><a xlink:href="MPI_SEND.svg" xlink:title="MPI_SEND">
<polygon fill="#ffe800" stroke="black" points="553,-904.16 457,-904.16 457,-900.16 453,-900.16 453,-896.16 457,-896.16 457,-876.16 453,-876.16 453,-872.16 457,-872.16 457,-868.16 553,-868.16 553,-904.16"/>
<polyline fill="none" stroke="black" points="457,-900.16 461,-900.16 461,-896.16 457,-896.16 "/>
<polyline fill="none" stroke="black" points="457,-876.16 461,-876.16 461,-872.16 457,-872.16 "/>
<text text-anchor="middle" x="505" y="-882.46" font-family="Times,serif" font-size="14.00">MPI_SEND</text>
</a>
</g>
</g>
<!-- CALL_96e67a0&#45;&gt;CALL_96fe720 -->
<g id="edge16" class="edge">
<title>CALL_96e67a0&#45;&gt;CALL_96fe720</title>
<path fill="none" stroke="black" d="M505,-942.86C505,-934.41 505,-924.03 505,-914.53"/>
<polygon fill="black" stroke="black" points="508.5,-914.34 505,-904.34 501.5,-914.34 508.5,-914.34"/>
</g>
<!-- CALL_98c23a0 -->
<g id="node19" class="node">
<title>CALL_98c23a0</title>
<g id="a_node19"><a xlink:href="MPI_RECV.svg" xlink:title="MPI_RECV">
<polygon fill="#ffe800" stroke="black" points="552,-832.16 458,-832.16 458,-828.16 454,-828.16 454,-824.16 458,-824.16 458,-804.16 454,-804.16 454,-800.16 458,-800.16 458,-796.16 552,-796.16 552,-832.16"/>
<polyline fill="none" stroke="black" points="458,-828.16 462,-828.16 462,-824.16 458,-824.16 "/>
<polyline fill="none" stroke="black" points="458,-804.16 462,-804.16 462,-800.16 458,-800.16 "/>
<text text-anchor="middle" x="505" y="-810.46" font-family="Times,serif" font-size="14.00">MPI_RECV</text>
</a>
</g>
</g>
<!-- CALL_96fe720&#45;&gt;CALL_98c23a0 -->
<g id="edge13" class="edge">
<title>CALL_96fe720&#45;&gt;CALL_98c23a0</title>
<path fill="none" stroke="black" d="M505,-867.86C505,-860.14 505,-850.87 505,-842.27"/>
<polygon fill="black" stroke="black" points="508.5,-842.26 505,-832.26 501.5,-842.26 508.5,-842.26"/>
</g>
<!-- CALL_98c2d80 -->
<g id="node20" class="node">
<title>CALL_98c2d80</title>
<g id="a_node20"><a xlink:href="MPI_BARRIER.svg" xlink:title="MPI_BARRIER">
<polygon fill="#ffe800" stroke="black" points="565,-760.16 445,-760.16 445,-756.16 441,-756.16 441,-752.16 445,-752.16 445,-732.16 441,-732.16 441,-728.16 445,-728.16 445,-724.16 565,-724.16 565,-760.16"/>
<polyline fill="none" stroke="black" points="445,-756.16 449,-756.16 449,-752.16 445,-752.16 "/>
<polyline fill="none" stroke="black" points="445,-732.16 449,-732.16 449,-728.16 445,-728.16 "/>
<text text-anchor="middle" x="505" y="-738.46" font-family="Times,serif" font-size="14.00">MPI_BARRIER</text>
</a>
</g>
</g>
<!-- CALL_98c23a0&#45;&gt;CALL_98c2d80 -->
<g id="edge14" class="edge">
<title>CALL_98c23a0&#45;&gt;CALL_98c2d80</title>
<path fill="none" stroke="black" d="M505,-795.86C505,-788.14 505,-778.87 505,-770.27"/>
<polygon fill="black" stroke="black" points="508.5,-770.26 505,-760.26 501.5,-770.26 508.5,-770.26"/>
</g>
<!-- CALL_98c47e0 -->
<g id="node21" class="node">
<title>CALL_98c47e0</title>
<g id="a_node21"><a xlink:href="MPI_BCAST.svg" xlink:title="MPI_BCAST">
<polygon fill="#ffe800" stroke="black" points="556,-688.16 454,-688.16 454,-684.16 450,-684.16 450,-680.16 454,-680.16 454,-660.16 450,-660.16 450,-656.16 454,-656.16 454,-652.16 556,-652.16 556,-688.16"/>
<polyline fill="none" stroke="black" points="454,-684.16 458,-684.16 458,-680.16 454,-680.16 "/>
<polyline fill="none" stroke="black" points="454,-660.16 458,-660.16 458,-656.16 454,-656.16 "/>
<text text-anchor="middle" x="505" y="-666.46" font-family="Times,serif" font-size="14.00">MPI_BCAST</text>
</a>
</g>
</g>
<!-- CALL_98c2d80&#45;&gt;CALL_98c47e0 -->
<g id="edge15" class="edge">
<title>CALL_98c2d80&#45;&gt;CALL_98c47e0</title>
<path fill="none" stroke="black" d="M505,-723.86C505,-716.14 505,-706.87 505,-698.27"/>
<polygon fill="black" stroke="black" points="508.5,-698.26 505,-688.26 501.5,-698.26 508.5,-698.26"/>
</g>
<!-- CALL_98c47e0&#45;&gt;endIf_IF_96c2740 -->
<g id="edge19" class="edge">
<title>CALL_98c47e0&#45;&gt;endIf_IF_96c2740</title>
<path fill="none" stroke="black" d="M505,-652.1C505,-637.09 505,-617.43 505,-616.22"/>
</g>
<!-- CALL_98c5840 -->
<g id="node23" class="node">
<title>CALL_98c5840</title>
<g id="a_node23"><a xlink:href="UPDATE_DEVICES_2.svg" xlink:title="UPDATE_DEVICES_2">
<polygon fill="lightgray" stroke="black" points="589,-507.44 421,-507.44 421,-503.44 417,-503.44 417,-499.44 421,-499.44 421,-479.44 417,-479.44 417,-475.44 421,-475.44 421,-471.44 589,-471.44 589,-507.44"/>
<polyline fill="none" stroke="black" points="421,-503.44 425,-503.44 425,-499.44 421,-499.44 "/>
<polyline fill="none" stroke="black" points="421,-479.44 425,-479.44 425,-475.44 421,-475.44 "/>
<text text-anchor="middle" x="505" y="-485.74" font-family="Times,serif" font-size="14.00">UPDATE_DEVICES_2</text>
</a>
</g>
</g>
<!-- COMMENT_98c5840+1&#45;&gt;CALL_98c5840 -->
<g id="edge22" class="edge">
<title>COMMENT_98c5840+1&#45;&gt;CALL_98c5840</title>
<path fill="none" stroke="black" d="M505,-543.14C505,-535.42 505,-526.15 505,-517.55"/>
<polygon fill="black" stroke="black" points="508.5,-517.54 505,-507.54 501.5,-517.54 508.5,-517.54"/>
</g>
<!-- COMMENT_98c57a0+1 -->
<g id="node24" class="node">
<title>COMMENT_98c57a0+1</title>
<polygon fill="none" stroke="black" points="697,-435.44 307,-435.44 307,-399.44 703,-399.44 703,-429.44 697,-435.44"/>
<polyline fill="none" stroke="black" points="697,-435.44 697,-429.44 "/>
<polyline fill="none" stroke="black" points="703,-429.44 697,-429.44 "/>
<text text-anchor="middle" x="505" y="-413.74" font-family="Times,serif" font-size="14.00">Check for change in control function output of device</text>
</g>
<!-- CALL_98c5840&#45;&gt;COMMENT_98c57a0+1 -->
<g id="edge23" class="edge">
<title>CALL_98c5840&#45;&gt;COMMENT_98c57a0+1</title>
<path fill="none" stroke="black" d="M505,-471.14C505,-463.42 505,-454.15 505,-445.55"/>
<polygon fill="black" stroke="black" points="508.5,-445.54 505,-435.54 501.5,-445.54 508.5,-445.54"/>
</g>
<!-- beginIf_IF_98d1ec0 -->
<g id="node25" class="node">
<title>beginIf_IF_98d1ec0</title>
<ellipse fill="black" stroke="black" cx="505" cy="-329.08" rx="0.36" ry="0.36"/>
</g>
<!-- COMMENT_98c57a0+1&#45;&gt;beginIf_IF_98d1ec0 -->
<g id="edge30" class="edge">
<title>COMMENT_98c57a0+1&#45;&gt;beginIf_IF_98d1ec0</title>
<path fill="none" stroke="black" d="M505,-399.38C505,-381.85 505,-355.14 505,-340.52"/>
<polygon fill="black" stroke="black" points="508.5,-340.21 505,-330.21 501.5,-340.21 508.5,-340.21"/>
</g>
<!-- IF_98c9280 -->
<g id="node27" class="node">
<title>IF_98c9280</title>
<polygon fill="none" stroke="blue" points="491.5,-289.72 324.5,-289.72 324.5,-253.72 491.5,-253.72 491.5,-289.72"/>
<text text-anchor="middle" x="408" y="-268.02" font-family="Times,serif" font-size="14.00">DEVICE_DIRECTION</text>
</g>
<!-- beginIf_IF_98d1ec0&#45;&gt;IF_98c9280 -->
<g id="edge24" class="edge">
<title>beginIf_IF_98d1ec0&#45;&gt;IF_98c9280</title>
<path fill="none" stroke="black" d="M504.93,-328.68C503.28,-327.72 472.73,-310.09 446.37,-294.87"/>
<polygon fill="black" stroke="black" points="448.04,-291.8 437.63,-289.83 444.54,-297.86 448.04,-291.8"/>
</g>
<!-- IF_98d1c00 -->
<g id="node28" class="node">
<title>IF_98d1c00</title>
<polygon fill="none" stroke="blue" points="691,-289.72 515,-289.72 515,-253.72 691,-253.72 691,-289.72"/>
<text text-anchor="middle" x="603" y="-268.02" font-family="Times,serif" font-size="14.00">DEVICE_DIRECTION2</text>
</g>
<!-- beginIf_IF_98d1ec0&#45;&gt;IF_98d1c00 -->
<g id="edge26" class="edge">
<title>beginIf_IF_98d1ec0&#45;&gt;IF_98d1c00</title>
<path fill="none" stroke="black" d="M505.07,-328.68C506.74,-327.72 537.6,-310.09 564.24,-294.87"/>
<polygon fill="black" stroke="black" points="566.11,-297.83 573.06,-289.83 562.64,-291.75 566.11,-297.83"/>
</g>
<!-- endIf_IF_98d1ec0 -->
<g id="node26" class="node">
<title>endIf_IF_98d1ec0</title>
<ellipse fill="black" stroke="black" cx="497" cy="-217.36" rx="0.36" ry="0.36"/>
</g>
<!-- COMMENT_98d2320+1 -->
<g id="node29" class="node">
<title>COMMENT_98d2320+1</title>
<polygon fill="none" stroke="black" points="801,-181 187,-181 187,-145 807,-145 807,-175 801,-181"/>
<polyline fill="none" stroke="black" points="801,-181 801,-175 "/>
<polyline fill="none" stroke="black" points="807,-175 801,-175 "/>
<text text-anchor="middle" x="497" y="-159.3" font-family="Times,serif" font-size="14.00">If a DEViCe changes state, save the Smokeview file strings and time of state change</text>
</g>
<!-- endIf_IF_98d1ec0&#45;&gt;COMMENT_98d2320+1 -->
<g id="edge28" class="edge">
<title>endIf_IF_98d1ec0&#45;&gt;COMMENT_98d2320+1</title>
<path fill="none" stroke="black" d="M497,-216.21C497,-214.77 497,-203.23 497,-191.36"/>
<polygon fill="black" stroke="black" points="500.5,-191.1 497,-181.1 493.5,-191.1 500.5,-191.1"/>
</g>
<!-- IF_98c9280&#45;&gt;endIf_IF_98d1ec0 -->
<g id="edge25" class="edge">
<title>IF_98c9280&#45;&gt;endIf_IF_98d1ec0</title>
<path fill="none" stroke="black" d="M436.65,-253.66C461.85,-238.65 494.86,-218.99 496.9,-217.78"/>
</g>
<!-- IF_98d1c00&#45;&gt;endIf_IF_98d1ec0 -->
<g id="edge27" class="edge">
<title>IF_98d1c00&#45;&gt;endIf_IF_98d1ec0</title>
<path fill="none" stroke="black" d="M568.88,-253.66C538.86,-238.65 499.55,-218.99 497.12,-217.78"/>
</g>
<!-- CALL_98ce1c0 -->
<g id="node30" class="node">
<title>CALL_98ce1c0</title>
<g id="a_node30"><a xlink:href="RE_ALLOCATE_STRINGS.svg" xlink:title="RE_ALLOCATE_STRINGS">
<polygon fill="lightgray" stroke="black" points="595.5,-109 398.5,-109 398.5,-105 394.5,-105 394.5,-101 398.5,-101 398.5,-81 394.5,-81 394.5,-77 398.5,-77 398.5,-73 595.5,-73 595.5,-109"/>
<polyline fill="none" stroke="black" points="398.5,-105 402.5,-105 402.5,-101 398.5,-101 "/>
<polyline fill="none" stroke="black" points="398.5,-81 402.5,-81 402.5,-77 398.5,-77 "/>
<text text-anchor="middle" x="497" y="-87.3" font-family="Times,serif" font-size="14.00">RE_ALLOCATE_STRINGS</text>
</a>
</g>
</g>
<!-- COMMENT_98d2320+1&#45;&gt;CALL_98ce1c0 -->
<g id="edge29" class="edge">
<title>COMMENT_98d2320+1&#45;&gt;CALL_98ce1c0</title>
<path fill="none" stroke="black" d="M497,-144.7C497,-136.98 497,-127.71 497,-119.11"/>
<polygon fill="black" stroke="black" points="500.5,-119.1 497,-109.1 493.5,-119.1 500.5,-119.1"/>
</g>
<!-- end_SUBPROGRAM_98dbb60 -->
<g id="node31" class="node">
<title>end_SUBPROGRAM_98dbb60</title>
<ellipse fill="black" stroke="black" cx="497" cy="-30" rx="7" ry="7"/>
</g>
<!-- CALL_98ce1c0&#45;&gt;end_SUBPROGRAM_98dbb60 -->
<g id="edge31" class="edge">
<title>CALL_98ce1c0&#45;&gt;end_SUBPROGRAM_98dbb60</title>
<path fill="none" stroke="black" d="M497,-72.93C497,-64.89 497,-55.33 497,-47.37"/>
<polygon fill="black" stroke="black" points="500.5,-47.22 497,-37.22 493.5,-47.22 500.5,-47.22"/>
</g>
</g>
</svg>
