<?xml version="1.0" encoding="UTF-8" standalone="no"?>
<!DOCTYPE svg PUBLIC "-//W3C//DTD SVG 1.1//EN"
 "http://www.w3.org/Graphics/SVG/1.1/DTD/svg11.dtd">
<!-- Generated by graphviz version 2.43.0 (0)
 -->
<!-- Title: EXCHANGE_HVAC_SOLUTION Pages: 1 -->
<svg width="576pt" height="239pt"
 viewBox="0.00 0.00 576.00 239.00" xmlns="http://www.w3.org/2000/svg" xmlns:xlink="http://www.w3.org/1999/xlink">
<g id="graph0" class="graph" transform="scale(1 1) rotate(0) translate(4 235)">
<title>EXCHANGE_HVAC_SOLUTION</title>
<polygon fill="white" stroke="transparent" points="-4,4 -4,-235 572,-235 572,4 -4,4"/>
<text text-anchor="middle" x="284" y="-7.8" font-family="Times,serif" font-size="14.00">EXCHANGE_HVAC_SOLUTION</text>
<!-- start_SUBPROGRAM_9acc720 -->
<g id="node1" class="node">
<title>start_SUBPROGRAM_9acc720</title>
<ellipse fill="none" stroke="black" cx="284" cy="-224" rx="7" ry="7"/>
</g>
<!-- COMMENT_9ab7380+1 -->
<g id="node2" class="node">
<title>COMMENT_9ab7380+1</title>
<polygon fill="none" stroke="black" points="562,-181 0,-181 0,-145 568,-145 568,-175 562,-181"/>
<polyline fill="none" stroke="black" points="562,-181 562,-175 "/>
<polyline fill="none" stroke="black" points="568,-175 562,-175 "/>
<text text-anchor="middle" x="284" y="-159.3" font-family="Times,serif" font-size="14.00">!&gt; brief Exchange information needed for performing the HVAC computation</text>
</g>
<!-- start_SUBPROGRAM_9acc720&#45;&gt;COMMENT_9ab7380+1 -->
<g id="edge1" class="edge">
<title>start_SUBPROGRAM_9acc720&#45;&gt;COMMENT_9ab7380+1</title>
<path fill="none" stroke="black" d="M284,-216.69C284,-210.49 284,-200.59 284,-191.05"/>
<polygon fill="black" stroke="black" points="287.5,-191.02 284,-181.02 280.5,-191.02 287.5,-191.02"/>
</g>
<!-- CALL_9ac34a0 -->
<g id="node3" class="node">
<title>CALL_9ac34a0</title>
<g id="a_node3"><a xlink:href="MPI_BCAST.svg" xlink:title="MPI_BCAST">
<polygon fill="#ffe800" stroke="black" points="335,-109 233,-109 233,-105 229,-105 229,-101 233,-101 233,-81 229,-81 229,-77 233,-77 233,-73 335,-73 335,-109"/>
<polyline fill="none" stroke="black" points="233,-105 237,-105 237,-101 233,-101 "/>
<polyline fill="none" stroke="black" points="233,-81 237,-81 237,-77 233,-77 "/>
<text text-anchor="middle" x="284" y="-87.3" font-family="Times,serif" font-size="14.00">MPI_BCAST</text>
</a>
</g>
</g>
<!-- COMMENT_9ab7380+1&#45;&gt;CALL_9ac34a0 -->
<g id="edge2" class="edge">
<title>COMMENT_9ab7380+1&#45;&gt;CALL_9ac34a0</title>
<path fill="none" stroke="black" d="M284,-144.7C284,-136.98 284,-127.71 284,-119.11"/>
<polygon fill="black" stroke="black" points="287.5,-119.1 284,-109.1 280.5,-119.1 287.5,-119.1"/>
</g>
<!-- end_SUBPROGRAM_9acc720 -->
<g id="node4" class="node">
<title>end_SUBPROGRAM_9acc720</title>
<ellipse fill="black" stroke="black" cx="284" cy="-30" rx="7" ry="7"/>
</g>
<!-- CALL_9ac34a0&#45;&gt;end_SUBPROGRAM_9acc720 -->
<g id="edge3" class="edge">
<title>CALL_9ac34a0&#45;&gt;end_SUBPROGRAM_9acc720</title>
<path fill="none" stroke="black" d="M284,-72.93C284,-64.89 284,-55.33 284,-47.37"/>
<polygon fill="black" stroke="black" points="287.5,-47.22 284,-37.22 280.5,-47.22 287.5,-47.22"/>
</g>
</g>
</svg>
