<?xml version="1.0" encoding="UTF-8" standalone="no"?>
<!DOCTYPE svg PUBLIC "-//W3C//DTD SVG 1.1//EN"
 "http://www.w3.org/Graphics/SVG/1.1/DTD/svg11.dtd">
<!-- Generated by graphviz version 2.43.0 (0)
 -->
<!-- Title: EXCHANGE_GLOBAL_OUTPUTS Pages: 1 -->
<svg width="1018pt" height="2260pt"
 viewBox="0.00 0.00 1018.00 2260.20" xmlns="http://www.w3.org/2000/svg" xmlns:xlink="http://www.w3.org/1999/xlink">
<g id="graph0" class="graph" transform="scale(1 1) rotate(0) translate(4 2256.2)">
<title>EXCHANGE_GLOBAL_OUTPUTS</title>
<polygon fill="white" stroke="transparent" points="-4,4 -4,-2256.2 1014,-2256.2 1014,4 -4,4"/>
<text text-anchor="middle" x="505" y="-7.8" font-family="Times,serif" font-size="14.00">EXCHANGE_GLOBAL_OUTPUTS</text>
<g id="clust1" class="cluster">
<title>cluster_EXCHANGE_DEVICE</title>
<polygon fill="none" stroke="blue" points="8,-652.88 8,-1798.2 1002,-1798.2 1002,-652.88 8,-652.88"/>
<text text-anchor="middle" x="91.5" y="-1783" font-family="Times,serif" font-size="14.00">EXCHANGE_DEVICE</text>
</g>
<g id="clust2" class="cluster">
<title>cluster_cond8742740</title>
<polygon fill="none" stroke="black" points="16,-681.6 16,-1758.48 994,-1758.48 994,-681.6 16,-681.6"/>
<text text-anchor="middle" x="72.5" y="-1743.28" font-family="Times,serif" font-size="14.00">cond8742740</text>
</g>
<g id="clust3" class="cluster">
<title>cluster_OPERATION_LOOP</title>
<polygon fill="none" stroke="orange" points="424,-689.6 424,-1346.48 586,-1346.48 586,-689.6 424,-689.6"/>
<text text-anchor="middle" x="500.5" y="-1331.28" font-family="Times,serif" font-size="14.00">OPERATION_LOOP</text>
</g>
<g id="clust4" class="cluster">
<title>cluster_DEVICE_LOOP_2</title>
<polygon fill="none" stroke="orange" points="436,-726.32 436,-1090.76 574,-1090.76 574,-726.32 436,-726.32"/>
<text text-anchor="middle" x="505" y="-1075.56" font-family="Times,serif" font-size="14.00">DEVICE_LOOP_2</text>
</g>
<g id="clust5" class="cluster">
<title>cluster_DEVICE_LOOP</title>
<polygon fill="none" stroke="orange" points="179,-65 179,-436.88 815,-436.88 815,-65 179,-65"/>
<text text-anchor="middle" x="240" y="-421.68" font-family="Times,serif" font-size="14.00">DEVICE_LOOP</text>
</g>
<g id="clust6" class="cluster">
<title>cluster_LATCHIF</title>
<polygon fill="none" stroke="blue" points="309,-245.72 309,-397.16 707,-397.16 707,-245.72 309,-245.72"/>
<text text-anchor="middle" x="349.5" y="-381.96" font-family="Times,serif" font-size="14.00">LATCHIF</text>
</g>
<g id="clust7" class="cluster">
<title>cluster_cond8745680</title>
<polygon fill="none" stroke="black" points="317,-282.44 317,-357.44 499,-357.44 499,-282.44 317,-282.44"/>
<text text-anchor="middle" x="373.5" y="-342.24" font-family="Times,serif" font-size="14.00">cond8745680</text>
</g>
<g id="clust8" class="cluster">
<title>cluster_cond874f140</title>
<polygon fill="none" stroke="black" points="507,-282.44 507,-357.44 699,-357.44 699,-282.44 507,-282.44"/>
<text text-anchor="middle" x="562" y="-342.24" font-family="Times,serif" font-size="14.00">cond874f140</text>
</g>
<!-- start_SUBPROGRAM_8747960 -->
<g id="node1" class="node">
<title>start_SUBPROGRAM_8747960</title>
<ellipse fill="none" stroke="black" cx="505" cy="-2245.2" rx="7" ry="7"/>
</g>
<!-- COMMENT_85aa600+1 -->
<g id="node2" class="node">
<title>COMMENT_85aa600+1</title>
<polygon fill="none" stroke="black" points="700.5,-2202.2 303.5,-2202.2 303.5,-2166.2 706.5,-2166.2 706.5,-2196.2 700.5,-2202.2"/>
<polyline fill="none" stroke="black" points="700.5,-2202.2 700.5,-2196.2 "/>
<polyline fill="none" stroke="black" points="706.5,-2196.2 700.5,-2196.2 "/>
<text text-anchor="middle" x="505" y="-2180.5" font-family="Times,serif" font-size="14.00">!&gt; brief Gather HRR, mass, and device data to node 0</text>
</g>
<!-- start_SUBPROGRAM_8747960&#45;&gt;COMMENT_85aa600+1 -->
<g id="edge1" class="edge">
<title>start_SUBPROGRAM_8747960&#45;&gt;COMMENT_85aa600+1</title>
<path fill="none" stroke="black" d="M505,-2237.89C505,-2231.69 505,-2221.79 505,-2212.25"/>
<polygon fill="black" stroke="black" points="508.5,-2212.22 505,-2202.22 501.5,-2212.22 508.5,-2212.22"/>
</g>
<!-- COMMENT_85e8880+1 -->
<g id="node3" class="node">
<title>COMMENT_85e8880+1</title>
<polygon fill="none" stroke="black" points="755.5,-2130.2 248.5,-2130.2 248.5,-2094.2 761.5,-2094.2 761.5,-2124.2 755.5,-2130.2"/>
<polyline fill="none" stroke="black" points="755.5,-2130.2 755.5,-2124.2 "/>
<polyline fill="none" stroke="black" points="761.5,-2124.2 755.5,-2124.2 "/>
<text text-anchor="middle" x="505" y="-2108.5" font-family="Times,serif" font-size="14.00">Gather HRR (Q_DOT) and mass loss rate (M_DOT) integrals to node 0</text>
</g>
<!-- COMMENT_85aa600+1&#45;&gt;COMMENT_85e8880+1 -->
<g id="edge2" class="edge">
<title>COMMENT_85aa600+1&#45;&gt;COMMENT_85e8880+1</title>
<path fill="none" stroke="black" d="M505,-2165.9C505,-2158.18 505,-2148.91 505,-2140.31"/>
<polygon fill="black" stroke="black" points="508.5,-2140.3 505,-2130.3 501.5,-2140.3 508.5,-2140.3"/>
</g>
<!-- CALL_85e90e0 -->
<g id="node4" class="node">
<title>CALL_85e90e0</title>
<g id="a_node4"><a xlink:href="GATHER_Q_AND_M.svg" xlink:title="GATHER_Q_AND_M">
<polygon fill="lightgray" stroke="black" points="584,-2058.2 426,-2058.2 426,-2054.2 422,-2054.2 422,-2050.2 426,-2050.2 426,-2030.2 422,-2030.2 422,-2026.2 426,-2026.2 426,-2022.2 584,-2022.2 584,-2058.2"/>
<polyline fill="none" stroke="black" points="426,-2054.2 430,-2054.2 430,-2050.2 426,-2050.2 "/>
<polyline fill="none" stroke="black" points="426,-2030.2 430,-2030.2 430,-2026.2 426,-2026.2 "/>
<text text-anchor="middle" x="505" y="-2036.5" font-family="Times,serif" font-size="14.00">GATHER_Q_AND_M</text>
</a>
</g>
</g>
<!-- COMMENT_85e8880+1&#45;&gt;CALL_85e90e0 -->
<g id="edge3" class="edge">
<title>COMMENT_85e8880+1&#45;&gt;CALL_85e90e0</title>
<path fill="none" stroke="black" d="M505,-2093.9C505,-2086.18 505,-2076.91 505,-2068.31"/>
<polygon fill="black" stroke="black" points="508.5,-2068.3 505,-2058.3 501.5,-2068.3 508.5,-2068.3"/>
</g>
<!-- COMMENT_8591d80+1 -->
<g id="node5" class="node">
<title>COMMENT_8591d80+1</title>
<polygon fill="none" stroke="black" points="651,-1986.2 353,-1986.2 353,-1950.2 657,-1950.2 657,-1980.2 651,-1986.2"/>
<polyline fill="none" stroke="black" points="651,-1986.2 651,-1980.2 "/>
<polyline fill="none" stroke="black" points="657,-1980.2 651,-1980.2 "/>
<text text-anchor="middle" x="505" y="-1964.5" font-family="Times,serif" font-size="14.00">Gather species mass integrals to node 0</text>
</g>
<!-- CALL_85e90e0&#45;&gt;COMMENT_8591d80+1 -->
<g id="edge4" class="edge">
<title>CALL_85e90e0&#45;&gt;COMMENT_8591d80+1</title>
<path fill="none" stroke="black" d="M505,-2021.9C505,-2014.18 505,-2004.91 505,-1996.31"/>
<polygon fill="black" stroke="black" points="508.5,-1996.3 505,-1986.3 501.5,-1996.3 508.5,-1996.3"/>
</g>
<!-- CALL_85f0f40 -->
<g id="node6" class="node">
<title>CALL_85f0f40</title>
<g id="a_node6"><a xlink:href="MPI_GATHERV.svg" xlink:title="MPI_GATHERV">
<polygon fill="#ffe800" stroke="black" points="567,-1914.2 443,-1914.2 443,-1910.2 439,-1910.2 439,-1906.2 443,-1906.2 443,-1886.2 439,-1886.2 439,-1882.2 443,-1882.2 443,-1878.2 567,-1878.2 567,-1914.2"/>
<polyline fill="none" stroke="black" points="443,-1910.2 447,-1910.2 447,-1906.2 443,-1906.2 "/>
<polyline fill="none" stroke="black" points="443,-1886.2 447,-1886.2 447,-1882.2 443,-1882.2 "/>
<text text-anchor="middle" x="505" y="-1892.5" font-family="Times,serif" font-size="14.00">MPI_GATHERV</text>
</a>
</g>
</g>
<!-- COMMENT_8591d80+1&#45;&gt;CALL_85f0f40 -->
<g id="edge5" class="edge">
<title>COMMENT_8591d80+1&#45;&gt;CALL_85f0f40</title>
<path fill="none" stroke="black" d="M505,-1949.9C505,-1942.18 505,-1932.91 505,-1924.31"/>
<polygon fill="black" stroke="black" points="508.5,-1924.3 505,-1914.3 501.5,-1924.3 508.5,-1924.3"/>
</g>
<!-- COMMENT_85f0f20+1 -->
<g id="node7" class="node">
<title>COMMENT_85f0f20+1</title>
<polygon fill="none" stroke="black" points="905,-1842.2 99,-1842.2 99,-1806.2 911,-1806.2 911,-1836.2 905,-1842.2"/>
<polyline fill="none" stroke="black" points="905,-1842.2 905,-1836.2 "/>
<polyline fill="none" stroke="black" points="911,-1836.2 905,-1836.2 "/>
<text text-anchor="middle" x="505" y="-1820.5" font-family="Times,serif" font-size="14.00">Exchange DEVICE parameters among meshes and dump out DEVICE info after first &quot;gathering&quot; data to node 0</text>
</g>
<!-- CALL_85f0f40&#45;&gt;COMMENT_85f0f20+1 -->
<g id="edge6" class="edge">
<title>CALL_85f0f40&#45;&gt;COMMENT_85f0f20+1</title>
<path fill="none" stroke="black" d="M505,-1877.9C505,-1870.18 505,-1860.91 505,-1852.31"/>
<polygon fill="black" stroke="black" points="508.5,-1852.3 505,-1842.3 501.5,-1852.3 508.5,-1852.3"/>
</g>
<!-- beginIf_IF_8742800 -->
<g id="node8" class="node">
<title>beginIf_IF_8742800</title>
<ellipse fill="black" stroke="black" cx="505" cy="-1766.84" rx="0.36" ry="0.36"/>
</g>
<!-- COMMENT_85f0f20+1&#45;&gt;beginIf_IF_8742800 -->
<g id="edge24" class="edge">
<title>COMMENT_85f0f20+1&#45;&gt;beginIf_IF_8742800</title>
<path fill="none" stroke="black" d="M505,-1805.99C505,-1790.24 505,-1769.2 505,-1767.9"/>
</g>
<!-- COMMENT_85f18e0+1 -->
<g id="node10" class="node">
<title>COMMENT_85f18e0+1</title>
<polygon fill="none" stroke="black" points="747.5,-1727.48 256.5,-1727.48 256.5,-1691.48 753.5,-1691.48 753.5,-1721.48 747.5,-1727.48"/>
<polyline fill="none" stroke="black" points="747.5,-1727.48 747.5,-1721.48 "/>
<polyline fill="none" stroke="black" points="753.5,-1721.48 747.5,-1721.48 "/>
<text text-anchor="middle" x="505" y="-1705.78" font-family="Times,serif" font-size="14.00">Exchange the CURRENT_STATE and PRIOR_STATE of each DEViCe</text>
</g>
<!-- beginIf_IF_8742800&#45;&gt;COMMENT_85f18e0+1 -->
<g id="edge22" class="edge">
<title>beginIf_IF_8742800&#45;&gt;COMMENT_85f18e0+1</title>
<path fill="none" stroke="black" d="M505,-1766.32C505,-1764.69 505,-1751 505,-1737.58"/>
<polygon fill="black" stroke="black" points="508.5,-1737.58 505,-1727.58 501.5,-1737.58 508.5,-1737.58"/>
</g>
<!-- endIf_IF_8742800 -->
<g id="node9" class="node">
<title>endIf_IF_8742800</title>
<ellipse fill="black" stroke="black" cx="505" cy="-661.24" rx="0.36" ry="0.36"/>
</g>
<!-- COMMENT_8743180+1 -->
<g id="node26" class="node">
<title>COMMENT_8743180+1</title>
<polygon fill="none" stroke="black" points="704,-624.88 300,-624.88 300,-588.88 710,-588.88 710,-618.88 704,-624.88"/>
<polyline fill="none" stroke="black" points="704,-624.88 704,-618.88 "/>
<polyline fill="none" stroke="black" points="710,-618.88 704,-618.88 "/>
<text text-anchor="middle" x="505" y="-603.18" font-family="Times,serif" font-size="14.00">Perform the temporal operations on the device outputs</text>
</g>
<!-- endIf_IF_8742800&#45;&gt;COMMENT_8743180+1 -->
<g id="edge25" class="edge">
<title>endIf_IF_8742800&#45;&gt;COMMENT_8743180+1</title>
<path fill="none" stroke="black" d="M505,-660.09C505,-658.65 505,-647.11 505,-635.24"/>
<polygon fill="black" stroke="black" points="508.5,-634.98 505,-624.98 501.5,-634.98 508.5,-634.98"/>
</g>
<!-- CALL_85f9040 -->
<g id="node11" class="node">
<title>CALL_85f9040</title>
<g id="a_node11"><a xlink:href="MPI_ALLREDUCE.svg" xlink:title="MPI_ALLREDUCE">
<polygon fill="#ffe800" stroke="black" points="578,-1655.48 432,-1655.48 432,-1651.48 428,-1651.48 428,-1647.48 432,-1647.48 432,-1627.48 428,-1627.48 428,-1623.48 432,-1623.48 432,-1619.48 578,-1619.48 578,-1655.48"/>
<polyline fill="none" stroke="black" points="432,-1651.48 436,-1651.48 436,-1647.48 432,-1647.48 "/>
<polyline fill="none" stroke="black" points="432,-1627.48 436,-1627.48 436,-1623.48 432,-1623.48 "/>
<text text-anchor="middle" x="505" y="-1633.78" font-family="Times,serif" font-size="14.00">MPI_ALLREDUCE</text>
</a>
</g>
</g>
<!-- COMMENT_85f18e0+1&#45;&gt;CALL_85f9040 -->
<g id="edge7" class="edge">
<title>COMMENT_85f18e0+1&#45;&gt;CALL_85f9040</title>
<path fill="none" stroke="black" d="M505,-1691.18C505,-1683.46 505,-1674.19 505,-1665.59"/>
<polygon fill="black" stroke="black" points="508.5,-1665.58 505,-1655.58 501.5,-1665.58 508.5,-1665.58"/>
</g>
<!-- COMMENT_85fbaa0+1 -->
<g id="node12" class="node">
<title>COMMENT_85fbaa0+1</title>
<polygon fill="none" stroke="black" points="591.5,-1583.48 412.5,-1583.48 412.5,-1547.48 597.5,-1547.48 597.5,-1577.48 591.5,-1583.48"/>
<polyline fill="none" stroke="black" points="591.5,-1583.48 591.5,-1577.48 "/>
<polyline fill="none" stroke="black" points="597.5,-1577.48 591.5,-1577.48 "/>
<text text-anchor="middle" x="505" y="-1561.78" font-family="Times,serif" font-size="14.00">Dry pipe sprinkler logic</text>
</g>
<!-- CALL_85f9040&#45;&gt;COMMENT_85fbaa0+1 -->
<g id="edge8" class="edge">
<title>CALL_85f9040&#45;&gt;COMMENT_85fbaa0+1</title>
<path fill="none" stroke="black" d="M505,-1619.18C505,-1611.46 505,-1602.19 505,-1593.59"/>
<polygon fill="black" stroke="black" points="508.5,-1593.58 505,-1583.58 501.5,-1593.58 508.5,-1593.58"/>
</g>
<!-- COMMENT_8700e60+1 -->
<g id="node13" class="node">
<title>COMMENT_8700e60+1</title>
<polygon fill="none" stroke="black" points="946,-1511.48 58,-1511.48 58,-1458.48 952,-1458.48 952,-1505.48 946,-1511.48"/>
<polyline fill="none" stroke="black" points="946,-1511.48 946,-1505.48 "/>
<polyline fill="none" stroke="black" points="952,-1505.48 946,-1505.48 "/>
<text text-anchor="middle" x="505" y="-1496.28" font-family="Times,serif" font-size="14.00">Each DEViCe has 0 or more SUBDEVICEs. These SUBDEVICEs contain the values of the DEViCe on the meshes controlled</text>
<text text-anchor="middle" x="505" y="-1481.28" font-family="Times,serif" font-size="14.00">by the copy of the DEViCe controlled by this MPI process. Each MPI process has a copy of every DEViCe, but only</text>
<text text-anchor="middle" x="505" y="-1466.28" font-family="Times,serif" font-size="14.00">the MPI process that controls the meshes has a copy of the DEViCe for which SUBDEVICEs have been allocated.</text>
</g>
<!-- COMMENT_85fbaa0+1&#45;&gt;COMMENT_8700e60+1 -->
<g id="edge9" class="edge">
<title>COMMENT_85fbaa0+1&#45;&gt;COMMENT_8700e60+1</title>
<path fill="none" stroke="black" d="M505,-1547.45C505,-1539.93 505,-1530.79 505,-1521.88"/>
<polygon fill="black" stroke="black" points="508.5,-1521.64 505,-1511.64 501.5,-1521.64 508.5,-1521.64"/>
</g>
<!-- COMMENT_8700e60+2 -->
<g id="node14" class="node">
<title>COMMENT_8700e60+2</title>
<polygon fill="none" stroke="black" points="980,-1422.48 24,-1422.48 24,-1354.48 986,-1354.48 986,-1416.48 980,-1422.48"/>
<polyline fill="none" stroke="black" points="980,-1422.48 980,-1416.48 "/>
<polyline fill="none" stroke="black" points="986,-1416.48 980,-1416.48 "/>
<text text-anchor="middle" x="505" y="-1407.28" font-family="Times,serif" font-size="14.00">In the following loop, for OP_INDEX=1, we add together VALUE_1 and possibly VALUE_2 for all SUBDEVICEs (i.e. meshes)</text>
<text text-anchor="middle" x="505" y="-1392.28" font-family="Times,serif" font-size="14.00">allocated by the copy of the DEViCe associated with the current MPI process, MY_RANK. Then we do an MPI_ALLREDUCE that</text>
<text text-anchor="middle" x="505" y="-1377.28" font-family="Times,serif" font-size="14.00">adds the VALUE_1 and VALUE_2 from other SUBDEVICEs allocated by the copies of the DEViCE stored by the other MPI processes.</text>
<text text-anchor="middle" x="505" y="-1362.28" font-family="Times,serif" font-size="14.00">For OP_INDEX=2 and 3, we take the MIN or MAX of all the VALUEs, along with the MINLOC or MAXLOC.</text>
</g>
<!-- COMMENT_8700e60+1&#45;&gt;COMMENT_8700e60+2 -->
<g id="edge10" class="edge">
<title>COMMENT_8700e60+1&#45;&gt;COMMENT_8700e60+2</title>
<path fill="none" stroke="black" d="M505,-1458.16C505,-1450.3 505,-1441.44 505,-1432.77"/>
<polygon fill="black" stroke="black" points="508.5,-1432.73 505,-1422.73 501.5,-1432.73 508.5,-1432.73"/>
</g>
<!-- beginDO_DO_8742660 -->
<g id="node15" class="node">
<title>beginDO_DO_8742660</title>
<ellipse fill="black" stroke="black" cx="505" cy="-1315.12" rx="0.36" ry="0.36"/>
</g>
<!-- COMMENT_8700e60+2&#45;&gt;beginDO_DO_8742660 -->
<g id="edge20" class="edge">
<title>COMMENT_8700e60+2&#45;&gt;beginDO_DO_8742660</title>
<path fill="none" stroke="black" d="M505,-1354.31C505,-1336.25 505,-1317.34 505,-1316.18"/>
</g>
<!-- DO_871c120 -->
<g id="node17" class="node">
<title>DO_871c120</title>
<polygon fill="none" stroke="orange" points="574,-1278.76 436,-1278.76 436,-1242.76 574,-1242.76 574,-1278.76"/>
<text text-anchor="middle" x="505" y="-1257.06" font-family="Times,serif" font-size="14.00">DEVICE_LOOP_1</text>
</g>
<!-- beginDO_DO_8742660&#45;&gt;DO_871c120 -->
<g id="edge11" class="edge">
<title>beginDO_DO_8742660&#45;&gt;DO_871c120</title>
<path fill="none" stroke="black" d="M505,-1314.61C505,-1313.13 505,-1301.08 505,-1288.86"/>
<polygon fill="black" stroke="black" points="508.5,-1288.78 505,-1278.78 501.5,-1288.78 508.5,-1288.78"/>
</g>
<!-- endDO_DO_8742660 -->
<g id="node16" class="node">
<title>endDO_DO_8742660</title>
<ellipse fill="black" stroke="black" cx="505" cy="-697.96" rx="0.36" ry="0.36"/>
</g>
<!-- endDO_DO_8742660&#45;&gt;endIf_IF_8742800 -->
<g id="edge23" class="edge">
<title>endDO_DO_8742660&#45;&gt;endIf_IF_8742800</title>
<path fill="none" stroke="black" d="M505,-696.86C505,-694.85 505,-663.64 505,-661.7"/>
</g>
<!-- CALL_8720220 -->
<g id="node18" class="node">
<title>CALL_8720220</title>
<g id="a_node18"><a xlink:href="MPI_ALLREDUCE.svg" xlink:title="MPI_ALLREDUCE">
<polygon fill="#ffe800" stroke="black" points="578,-1206.76 432,-1206.76 432,-1202.76 428,-1202.76 428,-1198.76 432,-1198.76 432,-1178.76 428,-1178.76 428,-1174.76 432,-1174.76 432,-1170.76 578,-1170.76 578,-1206.76"/>
<polyline fill="none" stroke="black" points="432,-1202.76 436,-1202.76 436,-1198.76 432,-1198.76 "/>
<polyline fill="none" stroke="black" points="432,-1178.76 436,-1178.76 436,-1174.76 432,-1174.76 "/>
<text text-anchor="middle" x="505" y="-1185.06" font-family="Times,serif" font-size="14.00">MPI_ALLREDUCE</text>
</a>
</g>
</g>
<!-- DO_871c120&#45;&gt;CALL_8720220 -->
<g id="edge12" class="edge">
<title>DO_871c120&#45;&gt;CALL_8720220</title>
<path fill="none" stroke="black" d="M505,-1242.46C505,-1234.74 505,-1225.47 505,-1216.87"/>
<polygon fill="black" stroke="black" points="508.5,-1216.86 505,-1206.86 501.5,-1216.86 508.5,-1216.86"/>
</g>
<!-- CALL_87243a0 -->
<g id="node19" class="node">
<title>CALL_87243a0</title>
<g id="a_node19"><a xlink:href="MPI_ALLREDUCE.svg" xlink:title="MPI_ALLREDUCE">
<polygon fill="#ffe800" stroke="black" points="578,-1134.76 432,-1134.76 432,-1130.76 428,-1130.76 428,-1126.76 432,-1126.76 432,-1106.76 428,-1106.76 428,-1102.76 432,-1102.76 432,-1098.76 578,-1098.76 578,-1134.76"/>
<polyline fill="none" stroke="black" points="432,-1130.76 436,-1130.76 436,-1126.76 432,-1126.76 "/>
<polyline fill="none" stroke="black" points="432,-1106.76 436,-1106.76 436,-1102.76 432,-1102.76 "/>
<text text-anchor="middle" x="505" y="-1113.06" font-family="Times,serif" font-size="14.00">MPI_ALLREDUCE</text>
</a>
</g>
</g>
<!-- CALL_8720220&#45;&gt;CALL_87243a0 -->
<g id="edge13" class="edge">
<title>CALL_8720220&#45;&gt;CALL_87243a0</title>
<path fill="none" stroke="black" d="M505,-1170.46C505,-1162.74 505,-1153.47 505,-1144.87"/>
<polygon fill="black" stroke="black" points="508.5,-1144.86 505,-1134.86 501.5,-1144.86 508.5,-1144.86"/>
</g>
<!-- beginDO_DO_8742420 -->
<g id="node20" class="node">
<title>beginDO_DO_8742420</title>
<ellipse fill="black" stroke="black" cx="505" cy="-1059.4" rx="0.36" ry="0.36"/>
</g>
<!-- CALL_87243a0&#45;&gt;beginDO_DO_8742420 -->
<g id="edge18" class="edge">
<title>CALL_87243a0&#45;&gt;beginDO_DO_8742420</title>
<path fill="none" stroke="black" d="M505,-1098.55C505,-1082.8 505,-1061.76 505,-1060.46"/>
</g>
<!-- CALL_873bca0 -->
<g id="node22" class="node">
<title>CALL_873bca0</title>
<g id="a_node22"><a xlink:href="MPI_SEND.svg" xlink:title="MPI_SEND">
<polygon fill="#ffe800" stroke="black" points="553,-1023.04 457,-1023.04 457,-1019.04 453,-1019.04 453,-1015.04 457,-1015.04 457,-995.04 453,-995.04 453,-991.04 457,-991.04 457,-987.04 553,-987.04 553,-1023.04"/>
<polyline fill="none" stroke="black" points="457,-1019.04 461,-1019.04 461,-1015.04 457,-1015.04 "/>
<polyline fill="none" stroke="black" points="457,-995.04 461,-995.04 461,-991.04 457,-991.04 "/>
<text text-anchor="middle" x="505" y="-1001.34" font-family="Times,serif" font-size="14.00">MPI_SEND</text>
</a>
</g>
</g>
<!-- beginDO_DO_8742420&#45;&gt;CALL_873bca0 -->
<g id="edge14" class="edge">
<title>beginDO_DO_8742420&#45;&gt;CALL_873bca0</title>
<path fill="none" stroke="black" d="M505,-1058.89C505,-1057.41 505,-1045.36 505,-1033.14"/>
<polygon fill="black" stroke="black" points="508.5,-1033.06 505,-1023.06 501.5,-1033.06 508.5,-1033.06"/>
</g>
<!-- endDO_DO_8742420 -->
<g id="node21" class="node">
<title>endDO_DO_8742420</title>
<ellipse fill="black" stroke="black" cx="505" cy="-734.68" rx="0.36" ry="0.36"/>
</g>
<!-- endDO_DO_8742420&#45;&gt;endDO_DO_8742660 -->
<g id="edge21" class="edge">
<title>endDO_DO_8742420&#45;&gt;endDO_DO_8742660</title>
<path fill="none" stroke="black" d="M505,-733.58C505,-731.57 505,-700.36 505,-698.42"/>
</g>
<!-- CALL_873fc00 -->
<g id="node23" class="node">
<title>CALL_873fc00</title>
<g id="a_node23"><a xlink:href="MPI_RECV.svg" xlink:title="MPI_RECV">
<polygon fill="#ffe800" stroke="black" points="552,-951.04 458,-951.04 458,-947.04 454,-947.04 454,-943.04 458,-943.04 458,-923.04 454,-923.04 454,-919.04 458,-919.04 458,-915.04 552,-915.04 552,-951.04"/>
<polyline fill="none" stroke="black" points="458,-947.04 462,-947.04 462,-943.04 458,-943.04 "/>
<polyline fill="none" stroke="black" points="458,-923.04 462,-923.04 462,-919.04 458,-919.04 "/>
<text text-anchor="middle" x="505" y="-929.34" font-family="Times,serif" font-size="14.00">MPI_RECV</text>
</a>
</g>
</g>
<!-- CALL_873bca0&#45;&gt;CALL_873fc00 -->
<g id="edge15" class="edge">
<title>CALL_873bca0&#45;&gt;CALL_873fc00</title>
<path fill="none" stroke="black" d="M505,-986.74C505,-979.02 505,-969.75 505,-961.15"/>
<polygon fill="black" stroke="black" points="508.5,-961.14 505,-951.14 501.5,-961.14 508.5,-961.14"/>
</g>
<!-- CALL_8740640 -->
<g id="node24" class="node">
<title>CALL_8740640</title>
<g id="a_node24"><a xlink:href="MPI_BARRIER.svg" xlink:title="MPI_BARRIER">
<polygon fill="#ffe800" stroke="black" points="565,-879.04 445,-879.04 445,-875.04 441,-875.04 441,-871.04 445,-871.04 445,-851.04 441,-851.04 441,-847.04 445,-847.04 445,-843.04 565,-843.04 565,-879.04"/>
<polyline fill="none" stroke="black" points="445,-875.04 449,-875.04 449,-871.04 445,-871.04 "/>
<polyline fill="none" stroke="black" points="445,-851.04 449,-851.04 449,-847.04 445,-847.04 "/>
<text text-anchor="middle" x="505" y="-857.34" font-family="Times,serif" font-size="14.00">MPI_BARRIER</text>
</a>
</g>
</g>
<!-- CALL_873fc00&#45;&gt;CALL_8740640 -->
<g id="edge16" class="edge">
<title>CALL_873fc00&#45;&gt;CALL_8740640</title>
<path fill="none" stroke="black" d="M505,-914.74C505,-907.02 505,-897.75 505,-889.15"/>
<polygon fill="black" stroke="black" points="508.5,-889.14 505,-879.14 501.5,-889.14 508.5,-889.14"/>
</g>
<!-- CALL_87420a0 -->
<g id="node25" class="node">
<title>CALL_87420a0</title>
<g id="a_node25"><a xlink:href="MPI_BCAST.svg" xlink:title="MPI_BCAST">
<polygon fill="#ffe800" stroke="black" points="556,-807.04 454,-807.04 454,-803.04 450,-803.04 450,-799.04 454,-799.04 454,-779.04 450,-779.04 450,-775.04 454,-775.04 454,-771.04 556,-771.04 556,-807.04"/>
<polyline fill="none" stroke="black" points="454,-803.04 458,-803.04 458,-799.04 454,-799.04 "/>
<polyline fill="none" stroke="black" points="454,-779.04 458,-779.04 458,-775.04 454,-775.04 "/>
<text text-anchor="middle" x="505" y="-785.34" font-family="Times,serif" font-size="14.00">MPI_BCAST</text>
</a>
</g>
</g>
<!-- CALL_8740640&#45;&gt;CALL_87420a0 -->
<g id="edge17" class="edge">
<title>CALL_8740640&#45;&gt;CALL_87420a0</title>
<path fill="none" stroke="black" d="M505,-842.74C505,-835.02 505,-825.75 505,-817.15"/>
<polygon fill="black" stroke="black" points="508.5,-817.14 505,-807.14 501.5,-817.14 508.5,-817.14"/>
</g>
<!-- CALL_87420a0&#45;&gt;endDO_DO_8742420 -->
<g id="edge19" class="edge">
<title>CALL_87420a0&#45;&gt;endDO_DO_8742420</title>
<path fill="none" stroke="black" d="M505,-770.98C505,-755.97 505,-736.31 505,-735.1"/>
</g>
<!-- CALL_8743180 -->
<g id="node27" class="node">
<title>CALL_8743180</title>
<g id="a_node27"><a xlink:href="UPDATE_DEVICES_2.svg" xlink:title="UPDATE_DEVICES_2">
<polygon fill="lightgray" stroke="black" points="589,-552.88 421,-552.88 421,-548.88 417,-548.88 417,-544.88 421,-544.88 421,-524.88 417,-524.88 417,-520.88 421,-520.88 421,-516.88 589,-516.88 589,-552.88"/>
<polyline fill="none" stroke="black" points="421,-548.88 425,-548.88 425,-544.88 421,-544.88 "/>
<polyline fill="none" stroke="black" points="421,-524.88 425,-524.88 425,-520.88 421,-520.88 "/>
<text text-anchor="middle" x="505" y="-531.18" font-family="Times,serif" font-size="14.00">UPDATE_DEVICES_2</text>
</a>
</g>
</g>
<!-- COMMENT_8743180+1&#45;&gt;CALL_8743180 -->
<g id="edge26" class="edge">
<title>COMMENT_8743180+1&#45;&gt;CALL_8743180</title>
<path fill="none" stroke="black" d="M505,-588.58C505,-580.86 505,-571.59 505,-562.99"/>
<polygon fill="black" stroke="black" points="508.5,-562.98 505,-552.98 501.5,-562.98 508.5,-562.98"/>
</g>
<!-- COMMENT_87430e0+1 -->
<g id="node28" class="node">
<title>COMMENT_87430e0+1</title>
<polygon fill="none" stroke="black" points="697,-480.88 307,-480.88 307,-444.88 703,-444.88 703,-474.88 697,-480.88"/>
<polyline fill="none" stroke="black" points="697,-480.88 697,-474.88 "/>
<polyline fill="none" stroke="black" points="703,-474.88 697,-474.88 "/>
<text text-anchor="middle" x="505" y="-459.18" font-family="Times,serif" font-size="14.00">Check for change in control function output of device</text>
</g>
<!-- CALL_8743180&#45;&gt;COMMENT_87430e0+1 -->
<g id="edge27" class="edge">
<title>CALL_8743180&#45;&gt;COMMENT_87430e0+1</title>
<path fill="none" stroke="black" d="M505,-516.58C505,-508.86 505,-499.59 505,-490.99"/>
<polygon fill="black" stroke="black" points="508.5,-490.98 505,-480.98 501.5,-490.98 508.5,-490.98"/>
</g>
<!-- beginDO_DO_874fa40 -->
<g id="node29" class="node">
<title>beginDO_DO_874fa40</title>
<ellipse fill="black" stroke="black" cx="505" cy="-405.52" rx="0.36" ry="0.36"/>
</g>
<!-- COMMENT_87430e0+1&#45;&gt;beginDO_DO_874fa40 -->
<g id="edge35" class="edge">
<title>COMMENT_87430e0+1&#45;&gt;beginDO_DO_874fa40</title>
<path fill="none" stroke="black" d="M505,-444.67C505,-428.92 505,-407.88 505,-406.58"/>
</g>
<!-- beginIf_IF_874f300 -->
<g id="node31" class="node">
<title>beginIf_IF_874f300</title>
<ellipse fill="black" stroke="black" cx="505" cy="-365.8" rx="0.36" ry="0.36"/>
</g>
<!-- beginDO_DO_874fa40&#45;&gt;beginIf_IF_874f300 -->
<g id="edge32" class="edge">
<title>beginDO_DO_874fa40&#45;&gt;beginIf_IF_874f300</title>
<path fill="none" stroke="black" d="M505,-405.05C505,-402.87 505,-369.02 505,-366.9"/>
</g>
<!-- endDO_DO_874fa40 -->
<g id="node30" class="node">
<title>endDO_DO_874fa40</title>
<ellipse fill="black" stroke="black" cx="497" cy="-73.36" rx="0.36" ry="0.36"/>
</g>
<!-- end_SUBPROGRAM_8747960 -->
<g id="node37" class="node">
<title>end_SUBPROGRAM_8747960</title>
<ellipse fill="black" stroke="black" cx="497" cy="-30" rx="7" ry="7"/>
</g>
<!-- endDO_DO_874fa40&#45;&gt;end_SUBPROGRAM_8747960 -->
<g id="edge37" class="edge">
<title>endDO_DO_874fa40&#45;&gt;end_SUBPROGRAM_8747960</title>
<path fill="none" stroke="black" d="M497,-72.24C497,-70.89 497,-58.27 497,-47.34"/>
<polygon fill="black" stroke="black" points="500.5,-47.1 497,-37.1 493.5,-47.1 500.5,-47.1"/>
</g>
<!-- IF_8747280 -->
<g id="node33" class="node">
<title>IF_8747280</title>
<polygon fill="none" stroke="blue" points="491.5,-326.44 324.5,-326.44 324.5,-290.44 491.5,-290.44 491.5,-326.44"/>
<text text-anchor="middle" x="408" y="-304.74" font-family="Times,serif" font-size="14.00">DEVICE_DIRECTION</text>
</g>
<!-- beginIf_IF_874f300&#45;&gt;IF_8747280 -->
<g id="edge28" class="edge">
<title>beginIf_IF_874f300&#45;&gt;IF_8747280</title>
<path fill="none" stroke="black" d="M504.93,-365.4C503.28,-364.44 472.73,-346.81 446.37,-331.59"/>
<polygon fill="black" stroke="black" points="448.04,-328.52 437.63,-326.55 444.54,-334.58 448.04,-328.52"/>
</g>
<!-- IF_874f040 -->
<g id="node34" class="node">
<title>IF_874f040</title>
<polygon fill="none" stroke="blue" points="691,-326.44 515,-326.44 515,-290.44 691,-290.44 691,-326.44"/>
<text text-anchor="middle" x="603" y="-304.74" font-family="Times,serif" font-size="14.00">DEVICE_DIRECTION2</text>
</g>
<!-- beginIf_IF_874f300&#45;&gt;IF_874f040 -->
<g id="edge30" class="edge">
<title>beginIf_IF_874f300&#45;&gt;IF_874f040</title>
<path fill="none" stroke="black" d="M505.07,-365.4C506.74,-364.44 537.6,-346.81 564.24,-331.59"/>
<polygon fill="black" stroke="black" points="566.11,-334.55 573.06,-326.55 562.64,-328.47 566.11,-334.55"/>
</g>
<!-- endIf_IF_874f300 -->
<g id="node32" class="node">
<title>endIf_IF_874f300</title>
<ellipse fill="black" stroke="black" cx="497" cy="-254.08" rx="0.36" ry="0.36"/>
</g>
<!-- COMMENT_8744f40+1 -->
<g id="node35" class="node">
<title>COMMENT_8744f40+1</title>
<polygon fill="none" stroke="black" points="801,-217.72 187,-217.72 187,-181.72 807,-181.72 807,-211.72 801,-217.72"/>
<polyline fill="none" stroke="black" points="801,-217.72 801,-211.72 "/>
<polyline fill="none" stroke="black" points="807,-211.72 801,-211.72 "/>
<text text-anchor="middle" x="497" y="-196.02" font-family="Times,serif" font-size="14.00">If a DEViCe changes state, save the Smokeview file strings and time of state change</text>
</g>
<!-- endIf_IF_874f300&#45;&gt;COMMENT_8744f40+1 -->
<g id="edge33" class="edge">
<title>endIf_IF_874f300&#45;&gt;COMMENT_8744f40+1</title>
<path fill="none" stroke="black" d="M497,-252.93C497,-251.49 497,-239.95 497,-228.08"/>
<polygon fill="black" stroke="black" points="500.5,-227.82 497,-217.82 493.5,-227.82 500.5,-227.82"/>
</g>
<!-- IF_8747280&#45;&gt;endIf_IF_874f300 -->
<g id="edge29" class="edge">
<title>IF_8747280&#45;&gt;endIf_IF_874f300</title>
<path fill="none" stroke="black" d="M436.65,-290.38C461.85,-275.37 494.86,-255.71 496.9,-254.5"/>
</g>
<!-- IF_874f040&#45;&gt;endIf_IF_874f300 -->
<g id="edge31" class="edge">
<title>IF_874f040&#45;&gt;endIf_IF_874f300</title>
<path fill="none" stroke="black" d="M568.88,-290.38C538.86,-275.37 499.55,-255.71 497.12,-254.5"/>
</g>
<!-- CALL_8754680 -->
<g id="node36" class="node">
<title>CALL_8754680</title>
<g id="a_node36"><a xlink:href="RE_ALLOCATE_STRINGS.svg" xlink:title="RE_ALLOCATE_STRINGS">
<polygon fill="lightgray" stroke="black" points="595.5,-145.72 398.5,-145.72 398.5,-141.72 394.5,-141.72 394.5,-137.72 398.5,-137.72 398.5,-117.72 394.5,-117.72 394.5,-113.72 398.5,-113.72 398.5,-109.72 595.5,-109.72 595.5,-145.72"/>
<polyline fill="none" stroke="black" points="398.5,-141.72 402.5,-141.72 402.5,-137.72 398.5,-137.72 "/>
<polyline fill="none" stroke="black" points="398.5,-117.72 402.5,-117.72 402.5,-113.72 398.5,-113.72 "/>
<text text-anchor="middle" x="497" y="-124.02" font-family="Times,serif" font-size="14.00">RE_ALLOCATE_STRINGS</text>
</a>
</g>
</g>
<!-- COMMENT_8744f40+1&#45;&gt;CALL_8754680 -->
<g id="edge34" class="edge">
<title>COMMENT_8744f40+1&#45;&gt;CALL_8754680</title>
<path fill="none" stroke="black" d="M497,-181.42C497,-173.7 497,-164.43 497,-155.83"/>
<polygon fill="black" stroke="black" points="500.5,-155.82 497,-145.82 493.5,-155.82 500.5,-155.82"/>
</g>
<!-- CALL_8754680&#45;&gt;endDO_DO_874fa40 -->
<g id="edge36" class="edge">
<title>CALL_8754680&#45;&gt;endDO_DO_874fa40</title>
<path fill="none" stroke="black" d="M497,-109.66C497,-94.65 497,-74.99 497,-73.78"/>
</g>
</g>
</svg>
