<?xml version="1.0" encoding="UTF-8" standalone="no"?>
<!DOCTYPE svg PUBLIC "-//W3C//DTD SVG 1.1//EN"
 "http://www.w3.org/Graphics/SVG/1.1/DTD/svg11.dtd">
<!-- Generated by graphviz version 2.43.0 (0)
 -->
<!-- Title: EXCHANGE_EXTERNAL Pages: 1 -->
<svg width="490pt" height="311pt"
 viewBox="0.00 0.00 490.00 311.00" xmlns="http://www.w3.org/2000/svg" xmlns:xlink="http://www.w3.org/1999/xlink">
<g id="graph0" class="graph" transform="scale(1 1) rotate(0) translate(4 307)">
<title>EXCHANGE_EXTERNAL</title>
<polygon fill="white" stroke="transparent" points="-4,4 -4,-307 486,-307 486,4 -4,4"/>
<text text-anchor="middle" x="241" y="-7.8" font-family="Times,serif" font-size="14.00">EXCHANGE_EXTERNAL</text>
<!-- start_SUBPROGRAM_9860e20 -->
<g id="node1" class="node">
<title>start_SUBPROGRAM_9860e20</title>
<ellipse fill="none" stroke="black" cx="241" cy="-296" rx="7" ry="7"/>
</g>
<!-- COMMENT_9845140+1 -->
<g id="node2" class="node">
<title>COMMENT_9845140+1</title>
<polygon fill="none" stroke="black" points="476,-253 0,-253 0,-217 482,-217 482,-247 476,-253"/>
<polyline fill="none" stroke="black" points="476,-253 476,-247 "/>
<polyline fill="none" stroke="black" points="482,-247 476,-247 "/>
<text text-anchor="middle" x="241" y="-231.3" font-family="Times,serif" font-size="14.00">!&gt; brief Exchange information for externally controlled variables</text>
</g>
<!-- start_SUBPROGRAM_9860e20&#45;&gt;COMMENT_9845140+1 -->
<g id="edge1" class="edge">
<title>start_SUBPROGRAM_9860e20&#45;&gt;COMMENT_9845140+1</title>
<path fill="none" stroke="black" d="M241,-288.69C241,-282.49 241,-272.59 241,-263.05"/>
<polygon fill="black" stroke="black" points="244.5,-263.02 241,-253.02 237.5,-263.02 244.5,-263.02"/>
</g>
<!-- CALL_985dd20 -->
<g id="node3" class="node">
<title>CALL_985dd20</title>
<g id="a_node3"><a xlink:href="MPI_BCAST.svg" xlink:title="MPI_BCAST">
<polygon fill="#ffe800" stroke="black" points="292,-181 190,-181 190,-177 186,-177 186,-173 190,-173 190,-153 186,-153 186,-149 190,-149 190,-145 292,-145 292,-181"/>
<polyline fill="none" stroke="black" points="190,-177 194,-177 194,-173 190,-173 "/>
<polyline fill="none" stroke="black" points="190,-153 194,-153 194,-149 190,-149 "/>
<text text-anchor="middle" x="241" y="-159.3" font-family="Times,serif" font-size="14.00">MPI_BCAST</text>
</a>
</g>
</g>
<!-- COMMENT_9845140+1&#45;&gt;CALL_985dd20 -->
<g id="edge2" class="edge">
<title>COMMENT_9845140+1&#45;&gt;CALL_985dd20</title>
<path fill="none" stroke="black" d="M241,-216.7C241,-208.98 241,-199.71 241,-191.11"/>
<polygon fill="black" stroke="black" points="244.5,-191.1 241,-181.1 237.5,-191.1 244.5,-191.1"/>
</g>
<!-- CALL_9860020 -->
<g id="node4" class="node">
<title>CALL_9860020</title>
<g id="a_node4"><a xlink:href="MPI_BCAST.svg" xlink:title="MPI_BCAST">
<polygon fill="#ffe800" stroke="black" points="292,-109 190,-109 190,-105 186,-105 186,-101 190,-101 190,-81 186,-81 186,-77 190,-77 190,-73 292,-73 292,-109"/>
<polyline fill="none" stroke="black" points="190,-105 194,-105 194,-101 190,-101 "/>
<polyline fill="none" stroke="black" points="190,-81 194,-81 194,-77 190,-77 "/>
<text text-anchor="middle" x="241" y="-87.3" font-family="Times,serif" font-size="14.00">MPI_BCAST</text>
</a>
</g>
</g>
<!-- CALL_985dd20&#45;&gt;CALL_9860020 -->
<g id="edge3" class="edge">
<title>CALL_985dd20&#45;&gt;CALL_9860020</title>
<path fill="none" stroke="black" d="M241,-144.7C241,-136.98 241,-127.71 241,-119.11"/>
<polygon fill="black" stroke="black" points="244.5,-119.1 241,-109.1 237.5,-119.1 244.5,-119.1"/>
</g>
<!-- end_SUBPROGRAM_9860e20 -->
<g id="node5" class="node">
<title>end_SUBPROGRAM_9860e20</title>
<ellipse fill="black" stroke="black" cx="241" cy="-30" rx="7" ry="7"/>
</g>
<!-- CALL_9860020&#45;&gt;end_SUBPROGRAM_9860e20 -->
<g id="edge4" class="edge">
<title>CALL_9860020&#45;&gt;end_SUBPROGRAM_9860e20</title>
<path fill="none" stroke="black" d="M241,-72.93C241,-64.89 241,-55.33 241,-47.37"/>
<polygon fill="black" stroke="black" points="244.5,-47.22 241,-37.22 237.5,-47.22 244.5,-47.22"/>
</g>
</g>
</svg>
