<?xml version="1.0" encoding="UTF-8" standalone="no"?>
<!DOCTYPE svg PUBLIC "-//W3C//DTD SVG 1.1//EN"
 "http://www.w3.org/Graphics/SVG/1.1/DTD/svg11.dtd">
<!-- Generated by graphviz version 2.43.0 (0)
 -->
<!-- Title: FIND_WALL_BACK_INDEX Pages: 1 -->
<svg width="1009pt" height="1718pt"
 viewBox="0.00 0.00 1009.00 1718.00" xmlns="http://www.w3.org/2000/svg" xmlns:xlink="http://www.w3.org/1999/xlink">
<g id="graph0" class="graph" transform="scale(1 1) rotate(0) translate(4 1714)">
<title>FIND_WALL_BACK_INDEX</title>
<polygon fill="white" stroke="transparent" points="-4,4 -4,-1714 1005,-1714 1005,4 -4,4"/>
<text text-anchor="middle" x="500.5" y="-7.8" font-family="Times,serif" font-size="14.00">FIND_WALL_BACK_INDEX</text>
<g id="clust1" class="cluster">
<title>cluster_FIND_BACK_WALL_CELL</title>
<polygon fill="none" stroke="orange" points="69.5,-643 69.5,-1584 931.5,-1584 931.5,-643 69.5,-643"/>
<text text-anchor="middle" x="168" y="-1568.8" font-family="Times,serif" font-size="14.00">FIND_BACK_WALL_CELL</text>
</g>
<!-- start_SUBPROGRAM_8f68740 -->
<g id="node1" class="node">
<title>start_SUBPROGRAM_8f68740</title>
<ellipse fill="none" stroke="black" cx="500.5" cy="-1703" rx="7" ry="7"/>
</g>
<!-- COMMENT_8d77600+1 -->
<g id="node2" class="node">
<title>COMMENT_8d77600+1</title>
<polygon fill="none" stroke="black" points="929,-1660 66,-1660 66,-1592 935,-1592 935,-1654 929,-1660"/>
<polyline fill="none" stroke="black" points="929,-1660 929,-1654 "/>
<polyline fill="none" stroke="black" points="935,-1654 929,-1654 "/>
<text text-anchor="middle" x="500.5" y="-1644.8" font-family="Times,serif" font-size="14.00">!&gt; brief Find the back wall cell for a given wall cell.</text>
<text text-anchor="middle" x="500.5" y="-1629.8" font-family="Times,serif" font-size="14.00">!&gt; param NM Mesh number</text>
<text text-anchor="middle" x="500.5" y="-1614.8" font-family="Times,serif" font-size="14.00">!&gt; param IW Wall cell index</text>
<text text-anchor="middle" x="500.5" y="-1599.8" font-family="Times,serif" font-size="14.00">!&gt; details If the exposed back wall cell is in another mesh, store the cell info into arrays that are to be MPI exchanged.</text>
</g>
<!-- start_SUBPROGRAM_8f68740&#45;&gt;COMMENT_8d77600+1 -->
<g id="edge1" class="edge">
<title>start_SUBPROGRAM_8f68740&#45;&gt;COMMENT_8d77600+1</title>
<path fill="none" stroke="black" d="M500.5,-1695.86C500.5,-1689.93 500.5,-1680.38 500.5,-1670.26"/>
<polygon fill="black" stroke="black" points="504,-1670.05 500.5,-1660.05 497,-1670.05 504,-1670.05"/>
</g>
<!-- CALL_8da54a0 -->
<g id="node3" class="node">
<title>CALL_8da54a0</title>
<g id="a_node3"><a xlink:href="SEARCH_OTHER_MESHES.svg" xlink:title="SEARCH_OTHER_MESHES">
<polygon fill="lightgray" stroke="black" points="607,-1553 394,-1553 394,-1549 390,-1549 390,-1545 394,-1545 394,-1525 390,-1525 390,-1521 394,-1521 394,-1517 607,-1517 607,-1553"/>
<polyline fill="none" stroke="black" points="394,-1549 398,-1549 398,-1545 394,-1545 "/>
<polyline fill="none" stroke="black" points="394,-1525 398,-1525 398,-1521 394,-1521 "/>
<text text-anchor="middle" x="500.5" y="-1531.3" font-family="Times,serif" font-size="14.00">SEARCH_OTHER_MESHES</text>
</a>
</g>
</g>
<!-- COMMENT_8d77600+1&#45;&gt;CALL_8da54a0 -->
<g id="edge14" class="edge">
<title>COMMENT_8d77600+1&#45;&gt;CALL_8da54a0</title>
<path fill="none" stroke="black" d="M500.5,-1591.86C500.5,-1582.58 500.5,-1572.6 500.5,-1563.68"/>
<polygon fill="black" stroke="black" points="504,-1563.44 500.5,-1553.44 497,-1563.44 504,-1563.44"/>
</g>
<!-- COMMENT_8daaa40+1 -->
<g id="node4" class="node">
<title>COMMENT_8daaa40+1</title>
<polygon fill="none" stroke="black" points="734,-1481 261,-1481 261,-1445 740,-1445 740,-1475 734,-1481"/>
<polyline fill="none" stroke="black" points="734,-1481 734,-1475 "/>
<polyline fill="none" stroke="black" points="740,-1475 734,-1475 "/>
<text text-anchor="middle" x="500.5" y="-1459.3" font-family="Times,serif" font-size="14.00">Do not apply HT3D to VARIABLE_THICKNESS exterior boundary</text>
</g>
<!-- CALL_8da54a0&#45;&gt;COMMENT_8daaa40+1 -->
<g id="edge2" class="edge">
<title>CALL_8da54a0&#45;&gt;COMMENT_8daaa40+1</title>
<path fill="none" stroke="black" d="M500.5,-1516.7C500.5,-1508.98 500.5,-1499.71 500.5,-1491.11"/>
<polygon fill="black" stroke="black" points="504,-1491.1 500.5,-1481.1 497,-1491.1 504,-1491.1"/>
</g>
<!-- CALL_8dab460 -->
<g id="node5" class="node">
<title>CALL_8dab460</title>
<g id="a_node5"><a xlink:href="SHUTDOWN.svg" xlink:title="SHUTDOWN">
<polygon fill="lightgray" stroke="black" points="554.5,-1409 446.5,-1409 446.5,-1405 442.5,-1405 442.5,-1401 446.5,-1401 446.5,-1381 442.5,-1381 442.5,-1377 446.5,-1377 446.5,-1373 554.5,-1373 554.5,-1409"/>
<polyline fill="none" stroke="black" points="446.5,-1405 450.5,-1405 450.5,-1401 446.5,-1401 "/>
<polyline fill="none" stroke="black" points="446.5,-1381 450.5,-1381 450.5,-1377 446.5,-1377 "/>
<text text-anchor="middle" x="500.5" y="-1387.3" font-family="Times,serif" font-size="14.00">SHUTDOWN</text>
</a>
</g>
</g>
<!-- COMMENT_8daaa40+1&#45;&gt;CALL_8dab460 -->
<g id="edge3" class="edge">
<title>COMMENT_8daaa40+1&#45;&gt;CALL_8dab460</title>
<path fill="none" stroke="black" d="M500.5,-1444.7C500.5,-1436.98 500.5,-1427.71 500.5,-1419.11"/>
<polygon fill="black" stroke="black" points="504,-1419.1 500.5,-1409.1 497,-1419.1 504,-1419.1"/>
</g>
<!-- COMMENT_8d9f6e0+1 -->
<g id="node6" class="node">
<title>COMMENT_8d9f6e0+1</title>
<polygon fill="none" stroke="black" points="816.5,-1337 178.5,-1337 178.5,-1301 822.5,-1301 822.5,-1331 816.5,-1337"/>
<polyline fill="none" stroke="black" points="816.5,-1337 816.5,-1331 "/>
<polyline fill="none" stroke="black" points="822.5,-1331 816.5,-1331 "/>
<text text-anchor="middle" x="500.5" y="-1315.3" font-family="Times,serif" font-size="14.00">For VARIABLE_THICKNESS and HT3D cases, get material information from obstruction</text>
</g>
<!-- CALL_8dab460&#45;&gt;COMMENT_8d9f6e0+1 -->
<g id="edge4" class="edge">
<title>CALL_8dab460&#45;&gt;COMMENT_8d9f6e0+1</title>
<path fill="none" stroke="black" d="M500.5,-1372.7C500.5,-1364.98 500.5,-1355.71 500.5,-1347.11"/>
<polygon fill="black" stroke="black" points="504,-1347.1 500.5,-1337.1 497,-1347.1 504,-1347.1"/>
</g>
<!-- COMMENT_8daa8a0+1 -->
<g id="node7" class="node">
<title>COMMENT_8daa8a0+1</title>
<polygon fill="none" stroke="black" points="896,-1265 99,-1265 99,-1227 902,-1227 902,-1259 896,-1265"/>
<polyline fill="none" stroke="black" points="896,-1265 896,-1259 "/>
<polyline fill="none" stroke="black" points="902,-1259 896,-1259 "/>
<text text-anchor="middle" x="500.5" y="-1249.8" font-family="Times,serif" font-size="14.00">Determine the index of the obstruction (OBST_INDEX) that occupies the cell with index IC.</text>
<text text-anchor="middle" x="500.5" y="-1234.8" font-family="Times,serif" font-size="14.00">If the obstruction is thin, search all obstructions in the mesh for one that corresponds to the upwind cell face.</text>
</g>
<!-- COMMENT_8d9f6e0+1&#45;&gt;COMMENT_8daa8a0+1 -->
<g id="edge5" class="edge">
<title>COMMENT_8d9f6e0+1&#45;&gt;COMMENT_8daa8a0+1</title>
<path fill="none" stroke="black" d="M500.5,-1300.81C500.5,-1293.11 500.5,-1283.82 500.5,-1275.15"/>
<polygon fill="black" stroke="black" points="504,-1275.02 500.5,-1265.02 497,-1275.02 504,-1275.02"/>
</g>
<!-- CALL_8dca340 -->
<g id="node8" class="node">
<title>CALL_8dca340</title>
<g id="a_node8"><a xlink:href="SHUTDOWN.svg" xlink:title="SHUTDOWN">
<polygon fill="lightgray" stroke="black" points="554.5,-1191 446.5,-1191 446.5,-1187 442.5,-1187 442.5,-1183 446.5,-1183 446.5,-1163 442.5,-1163 442.5,-1159 446.5,-1159 446.5,-1155 554.5,-1155 554.5,-1191"/>
<polyline fill="none" stroke="black" points="446.5,-1187 450.5,-1187 450.5,-1183 446.5,-1183 "/>
<polyline fill="none" stroke="black" points="446.5,-1163 450.5,-1163 450.5,-1159 446.5,-1159 "/>
<text text-anchor="middle" x="500.5" y="-1169.3" font-family="Times,serif" font-size="14.00">SHUTDOWN</text>
</a>
</g>
</g>
<!-- COMMENT_8daa8a0+1&#45;&gt;CALL_8dca340 -->
<g id="edge6" class="edge">
<title>COMMENT_8daa8a0+1&#45;&gt;CALL_8dca340</title>
<path fill="none" stroke="black" d="M500.5,-1226.72C500.5,-1218.97 500.5,-1209.79 500.5,-1201.27"/>
<polygon fill="black" stroke="black" points="504,-1201 500.5,-1191 497,-1201 504,-1201"/>
</g>
<!-- COMMENT_8dbc120+1 -->
<g id="node9" class="node">
<title>COMMENT_8dbc120+1</title>
<polygon fill="none" stroke="black" points="840.5,-1119 154.5,-1119 154.5,-1083 846.5,-1083 846.5,-1113 840.5,-1119"/>
<polyline fill="none" stroke="black" points="840.5,-1119 840.5,-1113 "/>
<polyline fill="none" stroke="black" points="846.5,-1113 840.5,-1113 "/>
<text text-anchor="middle" x="500.5" y="-1097.3" font-family="Times,serif" font-size="14.00">If this is a thin obstruction, use its actual user&#45;specified coordinates to determine THICKNESS</text>
</g>
<!-- CALL_8dca340&#45;&gt;COMMENT_8dbc120+1 -->
<g id="edge7" class="edge">
<title>CALL_8dca340&#45;&gt;COMMENT_8dbc120+1</title>
<path fill="none" stroke="black" d="M500.5,-1154.7C500.5,-1146.98 500.5,-1137.71 500.5,-1129.11"/>
<polygon fill="black" stroke="black" points="504,-1129.1 500.5,-1119.1 497,-1129.1 504,-1129.1"/>
</g>
<!-- CALL_8dd84e0 -->
<g id="node10" class="node">
<title>CALL_8dd84e0</title>
<g id="a_node10"><a xlink:href="SHUTDOWN.svg" xlink:title="SHUTDOWN">
<polygon fill="lightgray" stroke="black" points="554.5,-1047 446.5,-1047 446.5,-1043 442.5,-1043 442.5,-1039 446.5,-1039 446.5,-1019 442.5,-1019 442.5,-1015 446.5,-1015 446.5,-1011 554.5,-1011 554.5,-1047"/>
<polyline fill="none" stroke="black" points="446.5,-1043 450.5,-1043 450.5,-1039 446.5,-1039 "/>
<polyline fill="none" stroke="black" points="446.5,-1019 450.5,-1019 450.5,-1015 446.5,-1015 "/>
<text text-anchor="middle" x="500.5" y="-1025.3" font-family="Times,serif" font-size="14.00">SHUTDOWN</text>
</a>
</g>
</g>
<!-- COMMENT_8dbc120+1&#45;&gt;CALL_8dd84e0 -->
<g id="edge8" class="edge">
<title>COMMENT_8dbc120+1&#45;&gt;CALL_8dd84e0</title>
<path fill="none" stroke="black" d="M500.5,-1082.7C500.5,-1074.98 500.5,-1065.71 500.5,-1057.11"/>
<polygon fill="black" stroke="black" points="504,-1057.1 500.5,-1047.1 497,-1057.1 504,-1057.1"/>
</g>
<!-- CALL_8de0c80 -->
<g id="node11" class="node">
<title>CALL_8de0c80</title>
<g id="a_node11"><a xlink:href="ADD_MATERIAL.svg" xlink:title="ADD_MATERIAL">
<polygon fill="lightgray" stroke="black" points="567,-975 434,-975 434,-971 430,-971 430,-967 434,-967 434,-947 430,-947 430,-943 434,-943 434,-939 567,-939 567,-975"/>
<polyline fill="none" stroke="black" points="434,-971 438,-971 438,-967 434,-967 "/>
<polyline fill="none" stroke="black" points="434,-947 438,-947 438,-943 434,-943 "/>
<text text-anchor="middle" x="500.5" y="-953.3" font-family="Times,serif" font-size="14.00">ADD_MATERIAL</text>
</a>
</g>
</g>
<!-- CALL_8dd84e0&#45;&gt;CALL_8de0c80 -->
<g id="edge9" class="edge">
<title>CALL_8dd84e0&#45;&gt;CALL_8de0c80</title>
<path fill="none" stroke="black" d="M500.5,-1010.7C500.5,-1002.98 500.5,-993.71 500.5,-985.11"/>
<polygon fill="black" stroke="black" points="504,-985.1 500.5,-975.1 497,-985.1 504,-985.1"/>
</g>
<!-- COMMENT_8dd2760+1 -->
<g id="node12" class="node">
<title>COMMENT_8dd2760+1</title>
<polygon fill="none" stroke="black" points="628,-903 367,-903 367,-867 634,-867 634,-897 628,-903"/>
<polyline fill="none" stroke="black" points="628,-903 628,-897 "/>
<polyline fill="none" stroke="black" points="634,-897 628,-897 "/>
<text text-anchor="middle" x="500.5" y="-881.3" font-family="Times,serif" font-size="14.00">Determine if the back face is found</text>
</g>
<!-- CALL_8de0c80&#45;&gt;COMMENT_8dd2760+1 -->
<g id="edge10" class="edge">
<title>CALL_8de0c80&#45;&gt;COMMENT_8dd2760+1</title>
<path fill="none" stroke="black" d="M500.5,-938.7C500.5,-930.98 500.5,-921.71 500.5,-913.11"/>
<polygon fill="black" stroke="black" points="504,-913.1 500.5,-903.1 497,-913.1 504,-913.1"/>
</g>
<!-- CALL_8f03a00 -->
<g id="node13" class="node">
<title>CALL_8f03a00</title>
<g id="a_node13"><a xlink:href="REALLOCATE_INTEGER_ARRAY.svg" xlink:title="REALLOCATE_INTEGER_ARRAY">
<polygon fill="lightgray" stroke="black" points="624.5,-831 376.5,-831 376.5,-827 372.5,-827 372.5,-823 376.5,-823 376.5,-803 372.5,-803 372.5,-799 376.5,-799 376.5,-795 624.5,-795 624.5,-831"/>
<polyline fill="none" stroke="black" points="376.5,-827 380.5,-827 380.5,-823 376.5,-823 "/>
<polyline fill="none" stroke="black" points="376.5,-803 380.5,-803 380.5,-799 376.5,-799 "/>
<text text-anchor="middle" x="500.5" y="-809.3" font-family="Times,serif" font-size="14.00">REALLOCATE_INTEGER_ARRAY</text>
</a>
</g>
</g>
<!-- COMMENT_8dd2760+1&#45;&gt;CALL_8f03a00 -->
<g id="edge11" class="edge">
<title>COMMENT_8dd2760+1&#45;&gt;CALL_8f03a00</title>
<path fill="none" stroke="black" d="M500.5,-866.7C500.5,-858.98 500.5,-849.71 500.5,-841.11"/>
<polygon fill="black" stroke="black" points="504,-841.1 500.5,-831.1 497,-841.1 504,-841.1"/>
</g>
<!-- CALL_8f05140 -->
<g id="node14" class="node">
<title>CALL_8f05140</title>
<g id="a_node14"><a xlink:href="REALLOCATE_INTEGER_ARRAY.svg" xlink:title="REALLOCATE_INTEGER_ARRAY">
<polygon fill="lightgray" stroke="black" points="624.5,-759 376.5,-759 376.5,-755 372.5,-755 372.5,-751 376.5,-751 376.5,-731 372.5,-731 372.5,-727 376.5,-727 376.5,-723 624.5,-723 624.5,-759"/>
<polyline fill="none" stroke="black" points="376.5,-755 380.5,-755 380.5,-751 376.5,-751 "/>
<polyline fill="none" stroke="black" points="376.5,-731 380.5,-731 380.5,-727 376.5,-727 "/>
<text text-anchor="middle" x="500.5" y="-737.3" font-family="Times,serif" font-size="14.00">REALLOCATE_INTEGER_ARRAY</text>
</a>
</g>
</g>
<!-- CALL_8f03a00&#45;&gt;CALL_8f05140 -->
<g id="edge12" class="edge">
<title>CALL_8f03a00&#45;&gt;CALL_8f05140</title>
<path fill="none" stroke="black" d="M500.5,-794.7C500.5,-786.98 500.5,-777.71 500.5,-769.11"/>
<polygon fill="black" stroke="black" points="504,-769.1 500.5,-759.1 497,-769.1 504,-769.1"/>
</g>
<!-- COMMENT_8f07f40+1 -->
<g id="node15" class="node">
<title>COMMENT_8f07f40+1</title>
<polygon fill="none" stroke="black" points="917.5,-687 77.5,-687 77.5,-651 923.5,-651 923.5,-681 917.5,-687"/>
<polyline fill="none" stroke="black" points="917.5,-687 917.5,-681 "/>
<polyline fill="none" stroke="black" points="923.5,-681 917.5,-681 "/>
<text text-anchor="middle" x="500.5" y="-665.3" font-family="Times,serif" font-size="14.00">If 1&#45;D solid and the user&#45;specified thickness is less than the current thickness, abandon the search for back&#45;wall cell</text>
</g>
<!-- CALL_8f05140&#45;&gt;COMMENT_8f07f40+1 -->
<g id="edge13" class="edge">
<title>CALL_8f05140&#45;&gt;COMMENT_8f07f40+1</title>
<path fill="none" stroke="black" d="M500.5,-722.7C500.5,-714.98 500.5,-705.71 500.5,-697.11"/>
<polygon fill="black" stroke="black" points="504,-697.1 500.5,-687.1 497,-697.1 504,-697.1"/>
</g>
<!-- COMMENT_8f0e360+1 -->
<g id="node16" class="node">
<title>COMMENT_8f0e360+1</title>
<polygon fill="none" stroke="black" points="995,-615 0,-615 0,-577 1001,-577 1001,-609 995,-615"/>
<polyline fill="none" stroke="black" points="995,-615 995,-609 "/>
<polyline fill="none" stroke="black" points="1001,-609 995,-609 "/>
<text text-anchor="middle" x="500.5" y="-599.8" font-family="Times,serif" font-size="14.00">If the user has specified LINING materials (HT3D or VARIABLE_THICKNESS with SURF MATLs and THICKNESS), add this information to</text>
<text text-anchor="middle" x="500.5" y="-584.8" font-family="Times,serif" font-size="14.00">existing lists of layers and materials.</text>
</g>
<!-- COMMENT_8f07f40+1&#45;&gt;COMMENT_8f0e360+1 -->
<g id="edge15" class="edge">
<title>COMMENT_8f07f40+1&#45;&gt;COMMENT_8f0e360+1</title>
<path fill="none" stroke="black" d="M500.5,-650.81C500.5,-643.11 500.5,-633.82 500.5,-625.15"/>
<polygon fill="black" stroke="black" points="504,-625.02 500.5,-615.02 497,-625.02 504,-625.02"/>
</g>
<!-- CALL_8f14880 -->
<g id="node17" class="node">
<title>CALL_8f14880</title>
<g id="a_node17"><a xlink:href="ADD_MATERIAL.svg" xlink:title="ADD_MATERIAL">
<polygon fill="lightgray" stroke="black" points="567,-541 434,-541 434,-537 430,-537 430,-533 434,-533 434,-513 430,-513 430,-509 434,-509 434,-505 567,-505 567,-541"/>
<polyline fill="none" stroke="black" points="434,-537 438,-537 438,-533 434,-533 "/>
<polyline fill="none" stroke="black" points="434,-513 438,-513 438,-509 434,-509 "/>
<text text-anchor="middle" x="500.5" y="-519.3" font-family="Times,serif" font-size="14.00">ADD_MATERIAL</text>
</a>
</g>
</g>
<!-- COMMENT_8f0e360+1&#45;&gt;CALL_8f14880 -->
<g id="edge16" class="edge">
<title>COMMENT_8f0e360+1&#45;&gt;CALL_8f14880</title>
<path fill="none" stroke="black" d="M500.5,-576.72C500.5,-568.97 500.5,-559.79 500.5,-551.27"/>
<polygon fill="black" stroke="black" points="504,-551 500.5,-541 497,-551 504,-551"/>
</g>
<!-- CALL_8f19120 -->
<g id="node18" class="node">
<title>CALL_8f19120</title>
<g id="a_node18"><a xlink:href="ADD_MATERIAL.svg" xlink:title="ADD_MATERIAL">
<polygon fill="lightgray" stroke="black" points="567,-469 434,-469 434,-465 430,-465 430,-461 434,-461 434,-441 430,-441 430,-437 434,-437 434,-433 567,-433 567,-469"/>
<polyline fill="none" stroke="black" points="434,-465 438,-465 438,-461 434,-461 "/>
<polyline fill="none" stroke="black" points="434,-441 438,-441 438,-437 434,-437 "/>
<text text-anchor="middle" x="500.5" y="-447.3" font-family="Times,serif" font-size="14.00">ADD_MATERIAL</text>
</a>
</g>
</g>
<!-- CALL_8f14880&#45;&gt;CALL_8f19120 -->
<g id="edge17" class="edge">
<title>CALL_8f14880&#45;&gt;CALL_8f19120</title>
<path fill="none" stroke="black" d="M500.5,-504.7C500.5,-496.98 500.5,-487.71 500.5,-479.11"/>
<polygon fill="black" stroke="black" points="504,-479.1 500.5,-469.1 497,-479.1 504,-479.1"/>
</g>
<!-- COMMENT_8f0e760+1 -->
<g id="node19" class="node">
<title>COMMENT_8f0e760+1</title>
<polygon fill="none" stroke="black" points="716.5,-397 278.5,-397 278.5,-361 722.5,-361 722.5,-391 716.5,-397"/>
<polyline fill="none" stroke="black" points="716.5,-397 716.5,-391 "/>
<polyline fill="none" stroke="black" points="722.5,-391 716.5,-391 "/>
<text text-anchor="middle" x="500.5" y="-375.3" font-family="Times,serif" font-size="14.00">Offset the coordinates of the wall face to account for linings</text>
</g>
<!-- CALL_8f19120&#45;&gt;COMMENT_8f0e760+1 -->
<g id="edge18" class="edge">
<title>CALL_8f19120&#45;&gt;COMMENT_8f0e760+1</title>
<path fill="none" stroke="black" d="M500.5,-432.7C500.5,-424.98 500.5,-415.71 500.5,-407.11"/>
<polygon fill="black" stroke="black" points="504,-407.1 500.5,-397.1 497,-407.1 504,-407.1"/>
</g>
<!-- COMMENT_8f21760+1 -->
<g id="node20" class="node">
<title>COMMENT_8f21760+1</title>
<polygon fill="none" stroke="black" points="743,-325 252,-325 252,-289 749,-289 749,-319 743,-325"/>
<polyline fill="none" stroke="black" points="743,-325 743,-319 "/>
<polyline fill="none" stroke="black" points="749,-319 743,-319 "/>
<text text-anchor="middle" x="500.5" y="-303.3" font-family="Times,serif" font-size="14.00">Copy the front face SURF layer information into the holding arrays</text>
</g>
<!-- COMMENT_8f0e760+1&#45;&gt;COMMENT_8f21760+1 -->
<g id="edge19" class="edge">
<title>COMMENT_8f0e760+1&#45;&gt;COMMENT_8f21760+1</title>
<path fill="none" stroke="black" d="M500.5,-360.7C500.5,-352.98 500.5,-343.71 500.5,-335.11"/>
<polygon fill="black" stroke="black" points="504,-335.1 500.5,-325.1 497,-335.1 504,-335.1"/>
</g>
<!-- COMMENT_8f2c000+1 -->
<g id="node21" class="node">
<title>COMMENT_8f2c000+1</title>
<polygon fill="none" stroke="black" points="735.5,-253 259.5,-253 259.5,-217 741.5,-217 741.5,-247 735.5,-253"/>
<polyline fill="none" stroke="black" points="735.5,-253 735.5,-247 "/>
<polyline fill="none" stroke="black" points="741.5,-247 735.5,-247 "/>
<text text-anchor="middle" x="500.5" y="-231.3" font-family="Times,serif" font-size="14.00">Add layers that are associated with the underlying OBSTructions</text>
</g>
<!-- COMMENT_8f21760+1&#45;&gt;COMMENT_8f2c000+1 -->
<g id="edge20" class="edge">
<title>COMMENT_8f21760+1&#45;&gt;COMMENT_8f2c000+1</title>
<path fill="none" stroke="black" d="M500.5,-288.7C500.5,-280.98 500.5,-271.71 500.5,-263.11"/>
<polygon fill="black" stroke="black" points="504,-263.1 500.5,-253.1 497,-263.1 504,-263.1"/>
</g>
<!-- COMMENT_8f41960+1 -->
<g id="node22" class="node">
<title>COMMENT_8f41960+1</title>
<polygon fill="none" stroke="black" points="643.5,-181 351.5,-181 351.5,-145 649.5,-145 649.5,-175 643.5,-181"/>
<polyline fill="none" stroke="black" points="643.5,-181 643.5,-175 "/>
<polyline fill="none" stroke="black" points="649.5,-175 643.5,-175 "/>
<text text-anchor="middle" x="500.5" y="-159.3" font-family="Times,serif" font-size="14.00">Add layers from the back surface lining</text>
</g>
<!-- COMMENT_8f2c000+1&#45;&gt;COMMENT_8f41960+1 -->
<g id="edge21" class="edge">
<title>COMMENT_8f2c000+1&#45;&gt;COMMENT_8f41960+1</title>
<path fill="none" stroke="black" d="M500.5,-216.7C500.5,-208.98 500.5,-199.71 500.5,-191.11"/>
<polygon fill="black" stroke="black" points="504,-191.1 500.5,-181.1 497,-191.1 504,-191.1"/>
</g>
<!-- COMMENT_8f4e000+1 -->
<g id="node23" class="node">
<title>COMMENT_8f4e000+1</title>
<polygon fill="none" stroke="black" points="871,-109 124,-109 124,-73 877,-73 877,-103 871,-109"/>
<polyline fill="none" stroke="black" points="871,-109 871,-103 "/>
<polyline fill="none" stroke="black" points="877,-103 871,-103 "/>
<text text-anchor="middle" x="500.5" y="-87.3" font-family="Times,serif" font-size="14.00">Reallocate ONE_D arrays holding layer and material info for HT3D and VARIABLE_THICKNESS objects</text>
</g>
<!-- COMMENT_8f41960+1&#45;&gt;COMMENT_8f4e000+1 -->
<g id="edge22" class="edge">
<title>COMMENT_8f41960+1&#45;&gt;COMMENT_8f4e000+1</title>
<path fill="none" stroke="black" d="M500.5,-144.7C500.5,-136.98 500.5,-127.71 500.5,-119.11"/>
<polygon fill="black" stroke="black" points="504,-119.1 500.5,-109.1 497,-119.1 504,-119.1"/>
</g>
<!-- end_SUBPROGRAM_8f68740 -->
<g id="node24" class="node">
<title>end_SUBPROGRAM_8f68740</title>
<ellipse fill="black" stroke="black" cx="500.5" cy="-30" rx="7" ry="7"/>
</g>
<!-- COMMENT_8f4e000+1&#45;&gt;end_SUBPROGRAM_8f68740 -->
<g id="edge23" class="edge">
<title>COMMENT_8f4e000+1&#45;&gt;end_SUBPROGRAM_8f68740</title>
<path fill="none" stroke="black" d="M500.5,-72.93C500.5,-64.89 500.5,-55.33 500.5,-47.37"/>
<polygon fill="black" stroke="black" points="504,-47.22 500.5,-37.22 497,-47.22 504,-47.22"/>
</g>
</g>
</svg>
