<?xml version="1.0" encoding="UTF-8" standalone="no"?>
<!DOCTYPE svg PUBLIC "-//W3C//DTD SVG 1.1//EN"
 "http://www.w3.org/Graphics/SVG/1.1/DTD/svg11.dtd">
<!-- Generated by graphviz version 2.43.0 (0)
 -->
<!-- Title: FIND_THIN_WALL_BACK_INDEX Pages: 1 -->
<svg width="896pt" height="1085pt"
 viewBox="0.00 0.00 896.00 1085.00" xmlns="http://www.w3.org/2000/svg" xmlns:xlink="http://www.w3.org/1999/xlink">
<g id="graph0" class="graph" transform="scale(1 1) rotate(0) translate(4 1081)">
<title>FIND_THIN_WALL_BACK_INDEX</title>
<polygon fill="white" stroke="transparent" points="-4,4 -4,-1081 892,-1081 892,4 -4,4"/>
<text text-anchor="middle" x="444" y="-7.8" font-family="Times,serif" font-size="14.00">FIND_THIN_WALL_BACK_INDEX</text>
<g id="clust1" class="cluster">
<title>cluster_FIND_BACK_THIN_WALL_CELL</title>
<polygon fill="none" stroke="orange" points="20,-137 20,-500 868,-500 868,-137 20,-137"/>
<text text-anchor="middle" x="141" y="-484.8" font-family="Times,serif" font-size="14.00">FIND_BACK_THIN_WALL_CELL</text>
</g>
<!-- start_SUBPROGRAM_8fd0280 -->
<g id="node1" class="node">
<title>start_SUBPROGRAM_8fd0280</title>
<ellipse fill="none" stroke="black" cx="444" cy="-1070" rx="7" ry="7"/>
</g>
<!-- COMMENT_8f0e9c0+1 -->
<g id="node2" class="node">
<title>COMMENT_8f0e9c0+1</title>
<polygon fill="none" stroke="black" points="882,-1027 0,-1027 0,-944 888,-944 888,-1021 882,-1027"/>
<polyline fill="none" stroke="black" points="882,-1027 882,-1021 "/>
<polyline fill="none" stroke="black" points="888,-1021 882,-1021 "/>
<text text-anchor="middle" x="444" y="-1011.8" font-family="Times,serif" font-size="14.00">!&gt; brief Find back index of thin wall</text>
<text text-anchor="middle" x="444" y="-996.8" font-family="Times,serif" font-size="14.00">!&gt; param NM Mesh number</text>
<text text-anchor="middle" x="444" y="-981.8" font-family="Times,serif" font-size="14.00">!&gt; param ITW Thin wall index</text>
<text text-anchor="middle" x="444" y="-966.8" font-family="Times,serif" font-size="14.00">!&gt; details ITW is the index of a thin wall cell, which can be thought of as segment of the edge of a single thin obstruction.</text>
<text text-anchor="middle" x="444" y="-951.8" font-family="Times,serif" font-size="14.00">!&gt; This routine marches from edge to opposite edge looking for the &quot;back&quot; thin wall index.</text>
</g>
<!-- start_SUBPROGRAM_8fd0280&#45;&gt;COMMENT_8f0e9c0+1 -->
<g id="edge1" class="edge">
<title>start_SUBPROGRAM_8fd0280&#45;&gt;COMMENT_8f0e9c0+1</title>
<path fill="none" stroke="black" d="M444,-1062.8C444,-1056.89 444,-1047.39 444,-1037.07"/>
<polygon fill="black" stroke="black" points="447.5,-1037.01 444,-1027.01 440.5,-1037.01 447.5,-1037.01"/>
</g>
<!-- COMMENT_8dd5ea0+1 -->
<g id="node3" class="node">
<title>COMMENT_8dd5ea0+1</title>
<polygon fill="none" stroke="black" points="874.5,-908 7.5,-908 7.5,-872 880.5,-872 880.5,-902 874.5,-908"/>
<polyline fill="none" stroke="black" points="874.5,-908 874.5,-902 "/>
<polyline fill="none" stroke="black" points="880.5,-902 874.5,-902 "/>
<text text-anchor="middle" x="444" y="-886.3" font-family="Times,serif" font-size="14.00">If OBSTstruction to which the thin wall cell is attached has no material index, use the indices associated with the SURF</text>
</g>
<!-- COMMENT_8f0e9c0+1&#45;&gt;COMMENT_8dd5ea0+1 -->
<g id="edge2" class="edge">
<title>COMMENT_8f0e9c0+1&#45;&gt;COMMENT_8dd5ea0+1</title>
<path fill="none" stroke="black" d="M444,-943.76C444,-935.24 444,-926.44 444,-918.53"/>
<polygon fill="black" stroke="black" points="447.5,-918.41 444,-908.41 440.5,-918.41 447.5,-918.41"/>
</g>
<!-- COMMENT_8f7b720+1 -->
<g id="node4" class="node">
<title>COMMENT_8f7b720+1</title>
<polygon fill="none" stroke="black" points="824.5,-836 57.5,-836 57.5,-798 830.5,-798 830.5,-830 824.5,-836"/>
<polyline fill="none" stroke="black" points="824.5,-836 824.5,-830 "/>
<polyline fill="none" stroke="black" points="830.5,-830 824.5,-830 "/>
<text text-anchor="middle" x="444" y="-820.8" font-family="Times,serif" font-size="14.00">Form an array of N_MATLS material indices, MATL_INDEX, for this thin wall cell. This</text>
<text text-anchor="middle" x="444" y="-805.8" font-family="Times,serif" font-size="14.00">list accounts for all materials associated with the OBSTs and SURFs along the distance through the solid.</text>
</g>
<!-- COMMENT_8dd5ea0+1&#45;&gt;COMMENT_8f7b720+1 -->
<g id="edge3" class="edge">
<title>COMMENT_8dd5ea0+1&#45;&gt;COMMENT_8f7b720+1</title>
<path fill="none" stroke="black" d="M444,-871.81C444,-864.11 444,-854.82 444,-846.15"/>
<polygon fill="black" stroke="black" points="447.5,-846.02 444,-836.02 440.5,-846.02 447.5,-846.02"/>
</g>
<!-- CALL_8f7b720 -->
<g id="node5" class="node">
<title>CALL_8f7b720</title>
<g id="a_node5"><a xlink:href="ADD_MATERIAL.svg" xlink:title="ADD_MATERIAL">
<polygon fill="lightgray" stroke="black" points="510.5,-762 377.5,-762 377.5,-758 373.5,-758 373.5,-754 377.5,-754 377.5,-734 373.5,-734 373.5,-730 377.5,-730 377.5,-726 510.5,-726 510.5,-762"/>
<polyline fill="none" stroke="black" points="377.5,-758 381.5,-758 381.5,-754 377.5,-754 "/>
<polyline fill="none" stroke="black" points="377.5,-734 381.5,-734 381.5,-730 377.5,-730 "/>
<text text-anchor="middle" x="444" y="-740.3" font-family="Times,serif" font-size="14.00">ADD_MATERIAL</text>
</a>
</g>
</g>
<!-- COMMENT_8f7b720+1&#45;&gt;CALL_8f7b720 -->
<g id="edge4" class="edge">
<title>COMMENT_8f7b720+1&#45;&gt;CALL_8f7b720</title>
<path fill="none" stroke="black" d="M444,-797.72C444,-789.97 444,-780.79 444,-772.27"/>
<polygon fill="black" stroke="black" points="447.5,-772 444,-762 440.5,-772 447.5,-772"/>
</g>
<!-- COMMENT_8f7c0c0+1 -->
<g id="node6" class="node">
<title>COMMENT_8f7c0c0+1</title>
<polygon fill="none" stroke="black" points="812,-690 70,-690 70,-652 818,-652 818,-684 812,-690"/>
<polyline fill="none" stroke="black" points="812,-690 812,-684 "/>
<polyline fill="none" stroke="black" points="818,-684 812,-684 "/>
<text text-anchor="middle" x="444" y="-674.8" font-family="Times,serif" font-size="14.00">A thin wall cell only has one layer and one obstruction. This loop transfers the material mass fractions</text>
<text text-anchor="middle" x="444" y="-659.8" font-family="Times,serif" font-size="14.00">from the OBST to the save array.</text>
</g>
<!-- CALL_8f7b720&#45;&gt;COMMENT_8f7c0c0+1 -->
<g id="edge5" class="edge">
<title>CALL_8f7b720&#45;&gt;COMMENT_8f7c0c0+1</title>
<path fill="none" stroke="black" d="M444,-725.81C444,-718.11 444,-708.82 444,-700.15"/>
<polygon fill="black" stroke="black" points="447.5,-700.02 444,-690.02 440.5,-700.02 447.5,-700.02"/>
</g>
<!-- COMMENT_8f7d360+1 -->
<g id="node7" class="node">
<title>COMMENT_8f7d360+1</title>
<polygon fill="none" stroke="black" points="692.5,-616 189.5,-616 189.5,-580 698.5,-580 698.5,-610 692.5,-616"/>
<polyline fill="none" stroke="black" points="692.5,-616 692.5,-610 "/>
<polyline fill="none" stroke="black" points="698.5,-610 692.5,-610 "/>
<text text-anchor="middle" x="444" y="-594.3" font-family="Times,serif" font-size="14.00">Find one or two WALL cells that are adjacent to this THIN_WALL cell</text>
</g>
<!-- COMMENT_8f7c0c0+1&#45;&gt;COMMENT_8f7d360+1 -->
<g id="edge6" class="edge">
<title>COMMENT_8f7c0c0+1&#45;&gt;COMMENT_8f7d360+1</title>
<path fill="none" stroke="black" d="M444,-651.72C444,-643.97 444,-634.79 444,-626.27"/>
<polygon fill="black" stroke="black" points="447.5,-626 444,-616 440.5,-626 447.5,-626"/>
</g>
<!-- COMMENT_8fa0b60+1 -->
<g id="node8" class="node">
<title>COMMENT_8fa0b60+1</title>
<polygon fill="none" stroke="black" points="788.5,-544 93.5,-544 93.5,-508 794.5,-508 794.5,-538 788.5,-544"/>
<polyline fill="none" stroke="black" points="788.5,-544 788.5,-538 "/>
<polyline fill="none" stroke="black" points="794.5,-538 788.5,-538 "/>
<text text-anchor="middle" x="444" y="-522.3" font-family="Times,serif" font-size="14.00">Look for the back THIN_WALL cell; that is, the thin wall cell on the other side of the obstruction</text>
</g>
<!-- COMMENT_8f7d360+1&#45;&gt;COMMENT_8fa0b60+1 -->
<g id="edge7" class="edge">
<title>COMMENT_8f7d360+1&#45;&gt;COMMENT_8fa0b60+1</title>
<path fill="none" stroke="black" d="M444,-579.7C444,-571.98 444,-562.71 444,-554.11"/>
<polygon fill="black" stroke="black" points="447.5,-554.1 444,-544.1 440.5,-554.1 447.5,-554.1"/>
</g>
<!-- CALL_8fb13e0 -->
<g id="node9" class="node">
<title>CALL_8fb13e0</title>
<g id="a_node9"><a xlink:href="SEARCH_OTHER_MESHES.svg" xlink:title="SEARCH_OTHER_MESHES">
<polygon fill="lightgray" stroke="black" points="550.5,-469 337.5,-469 337.5,-465 333.5,-465 333.5,-461 337.5,-461 337.5,-441 333.5,-441 333.5,-437 337.5,-437 337.5,-433 550.5,-433 550.5,-469"/>
<polyline fill="none" stroke="black" points="337.5,-465 341.5,-465 341.5,-461 337.5,-461 "/>
<polyline fill="none" stroke="black" points="337.5,-441 341.5,-441 341.5,-437 337.5,-437 "/>
<text text-anchor="middle" x="444" y="-447.3" font-family="Times,serif" font-size="14.00">SEARCH_OTHER_MESHES</text>
</a>
</g>
</g>
<!-- COMMENT_8fa0b60+1&#45;&gt;CALL_8fb13e0 -->
<g id="edge12" class="edge">
<title>COMMENT_8fa0b60+1&#45;&gt;CALL_8fb13e0</title>
<path fill="none" stroke="black" d="M444,-507.7C444,-499.25 444,-488.87 444,-479.37"/>
<polygon fill="black" stroke="black" points="447.5,-479.18 444,-469.18 440.5,-479.18 447.5,-479.18"/>
</g>
<!-- COMMENT_8fb2720+1 -->
<g id="node10" class="node">
<title>COMMENT_8fb2720+1</title>
<polygon fill="none" stroke="black" points="781.5,-397 100.5,-397 100.5,-361 787.5,-361 787.5,-391 781.5,-397"/>
<polyline fill="none" stroke="black" points="781.5,-397 781.5,-391 "/>
<polyline fill="none" stroke="black" points="787.5,-391 781.5,-391 "/>
<text text-anchor="middle" x="444" y="-375.3" font-family="Times,serif" font-size="14.00">Look for the other side of the thin obstruction, using its ORDINAL value as a unique identifier</text>
</g>
<!-- CALL_8fb13e0&#45;&gt;COMMENT_8fb2720+1 -->
<g id="edge8" class="edge">
<title>CALL_8fb13e0&#45;&gt;COMMENT_8fb2720+1</title>
<path fill="none" stroke="black" d="M444,-432.7C444,-424.98 444,-415.71 444,-407.11"/>
<polygon fill="black" stroke="black" points="447.5,-407.1 444,-397.1 440.5,-407.1 447.5,-407.1"/>
</g>
<!-- CALL_8fbe480 -->
<g id="node11" class="node">
<title>CALL_8fbe480</title>
<g id="a_node11"><a xlink:href="REALLOCATE_INTEGER_ARRAY.svg" xlink:title="REALLOCATE_INTEGER_ARRAY">
<polygon fill="lightgray" stroke="black" points="568,-325 320,-325 320,-321 316,-321 316,-317 320,-317 320,-297 316,-297 316,-293 320,-293 320,-289 568,-289 568,-325"/>
<polyline fill="none" stroke="black" points="320,-321 324,-321 324,-317 320,-317 "/>
<polyline fill="none" stroke="black" points="320,-297 324,-297 324,-293 320,-293 "/>
<text text-anchor="middle" x="444" y="-303.3" font-family="Times,serif" font-size="14.00">REALLOCATE_INTEGER_ARRAY</text>
</a>
</g>
</g>
<!-- COMMENT_8fb2720+1&#45;&gt;CALL_8fbe480 -->
<g id="edge9" class="edge">
<title>COMMENT_8fb2720+1&#45;&gt;CALL_8fbe480</title>
<path fill="none" stroke="black" d="M444,-360.7C444,-352.98 444,-343.71 444,-335.11"/>
<polygon fill="black" stroke="black" points="447.5,-335.1 444,-325.1 440.5,-335.1 447.5,-335.1"/>
</g>
<!-- CALL_8fbf960 -->
<g id="node12" class="node">
<title>CALL_8fbf960</title>
<g id="a_node12"><a xlink:href="REALLOCATE_INTEGER_ARRAY.svg" xlink:title="REALLOCATE_INTEGER_ARRAY">
<polygon fill="lightgray" stroke="black" points="568,-253 320,-253 320,-249 316,-249 316,-245 320,-245 320,-225 316,-225 316,-221 320,-221 320,-217 568,-217 568,-253"/>
<polyline fill="none" stroke="black" points="320,-249 324,-249 324,-245 320,-245 "/>
<polyline fill="none" stroke="black" points="320,-225 324,-225 324,-221 320,-221 "/>
<text text-anchor="middle" x="444" y="-231.3" font-family="Times,serif" font-size="14.00">REALLOCATE_INTEGER_ARRAY</text>
</a>
</g>
</g>
<!-- CALL_8fbe480&#45;&gt;CALL_8fbf960 -->
<g id="edge10" class="edge">
<title>CALL_8fbe480&#45;&gt;CALL_8fbf960</title>
<path fill="none" stroke="black" d="M444,-288.7C444,-280.98 444,-271.71 444,-263.11"/>
<polygon fill="black" stroke="black" points="447.5,-263.1 444,-253.1 440.5,-263.1 447.5,-263.1"/>
</g>
<!-- COMMENT_8fc87e0+1 -->
<g id="node13" class="node">
<title>COMMENT_8fc87e0+1</title>
<polygon fill="none" stroke="black" points="853.5,-181 28.5,-181 28.5,-145 859.5,-145 859.5,-175 853.5,-181"/>
<polyline fill="none" stroke="black" points="853.5,-181 853.5,-175 "/>
<polyline fill="none" stroke="black" points="859.5,-175 853.5,-175 "/>
<text text-anchor="middle" x="444" y="-159.3" font-family="Times,serif" font-size="14.00">If the back thin wall index is not found, update the cell indices and continue marching deeper into the obstruction</text>
</g>
<!-- CALL_8fbf960&#45;&gt;COMMENT_8fc87e0+1 -->
<g id="edge11" class="edge">
<title>CALL_8fbf960&#45;&gt;COMMENT_8fc87e0+1</title>
<path fill="none" stroke="black" d="M444,-216.7C444,-208.98 444,-199.71 444,-191.11"/>
<polygon fill="black" stroke="black" points="447.5,-191.1 444,-181.1 440.5,-191.1 447.5,-191.1"/>
</g>
<!-- COMMENT_8fcc8c0+1 -->
<g id="node14" class="node">
<title>COMMENT_8fcc8c0+1</title>
<polygon fill="none" stroke="black" points="849,-109 33,-109 33,-73 855,-73 855,-103 849,-109"/>
<polyline fill="none" stroke="black" points="849,-109 849,-103 "/>
<polyline fill="none" stroke="black" points="855,-103 849,-103 "/>
<text text-anchor="middle" x="444" y="-87.3" font-family="Times,serif" font-size="14.00">Take the array of MATL_INDEX and MATL_MASS_FRACTION and save them in the ONE_D derived type variable.</text>
</g>
<!-- COMMENT_8fc87e0+1&#45;&gt;COMMENT_8fcc8c0+1 -->
<g id="edge13" class="edge">
<title>COMMENT_8fc87e0+1&#45;&gt;COMMENT_8fcc8c0+1</title>
<path fill="none" stroke="black" d="M444,-144.7C444,-136.98 444,-127.71 444,-119.11"/>
<polygon fill="black" stroke="black" points="447.5,-119.1 444,-109.1 440.5,-119.1 447.5,-119.1"/>
</g>
<!-- end_SUBPROGRAM_8fd0280 -->
<g id="node15" class="node">
<title>end_SUBPROGRAM_8fd0280</title>
<ellipse fill="black" stroke="black" cx="444" cy="-30" rx="7" ry="7"/>
</g>
<!-- COMMENT_8fcc8c0+1&#45;&gt;end_SUBPROGRAM_8fd0280 -->
<g id="edge14" class="edge">
<title>COMMENT_8fcc8c0+1&#45;&gt;end_SUBPROGRAM_8fd0280</title>
<path fill="none" stroke="black" d="M444,-72.93C444,-64.89 444,-55.33 444,-47.37"/>
<polygon fill="black" stroke="black" points="447.5,-47.22 444,-37.22 440.5,-47.22 447.5,-47.22"/>
</g>
</g>
</svg>
