<?xml version="1.0" encoding="UTF-8" standalone="no"?>
<!DOCTYPE svg PUBLIC "-//W3C//DTD SVG 1.1//EN"
 "http://www.w3.org/Graphics/SVG/1.1/DTD/svg11.dtd">
<!-- Generated by graphviz version 2.43.0 (0)
 -->
<!-- Title: FIND_WALL_BACK_INDICES Pages: 1 -->
<svg width="1082pt" height="934pt"
 viewBox="0.00 0.00 1082.00 934.00" xmlns="http://www.w3.org/2000/svg" xmlns:xlink="http://www.w3.org/1999/xlink">
<g id="graph0" class="graph" transform="scale(1 1) rotate(0) translate(4 930)">
<title>FIND_WALL_BACK_INDICES</title>
<polygon fill="white" stroke="transparent" points="-4,4 -4,-930 1078,-930 1078,4 -4,4"/>
<text text-anchor="middle" x="537" y="-7.8" font-family="Times,serif" font-size="14.00">FIND_WALL_BACK_INDICES</text>
<!-- start_SUBPROGRAM_87bfee0 -->
<g id="node1" class="node">
<title>start_SUBPROGRAM_87bfee0</title>
<ellipse fill="none" stroke="black" cx="537" cy="-919" rx="7" ry="7"/>
</g>
<!-- COMMENT_87956c0+1 -->
<g id="node2" class="node">
<title>COMMENT_87956c0+1</title>
<polygon fill="none" stroke="black" points="850,-876 218,-876 218,-793 856,-793 856,-870 850,-876"/>
<polyline fill="none" stroke="black" points="850,-876 850,-870 "/>
<polyline fill="none" stroke="black" points="856,-870 850,-870 "/>
<text text-anchor="middle" x="537" y="-860.8" font-family="Times,serif" font-size="14.00">!&gt; brief Locate wall back indices</text>
<text text-anchor="middle" x="537" y="-845.8" font-family="Times,serif" font-size="14.00">!&gt; param NM Mesh number</text>
<text text-anchor="middle" x="537" y="-830.8" font-family="Times,serif" font-size="14.00">!&gt; details Loop through all internal and external wall cells and look for thermally&#45;thick</text>
<text text-anchor="middle" x="537" y="-815.8" font-family="Times,serif" font-size="14.00">!&gt; solids with EXPOSED back wall cells. If the exposed back wall cell is in</text>
<text text-anchor="middle" x="537" y="-800.8" font-family="Times,serif" font-size="14.00">!&gt; another mesh, store the cell info into arrays that are to be MPI exchanged.</text>
</g>
<!-- start_SUBPROGRAM_87bfee0&#45;&gt;COMMENT_87956c0+1 -->
<g id="edge1" class="edge">
<title>start_SUBPROGRAM_87bfee0&#45;&gt;COMMENT_87956c0+1</title>
<path fill="none" stroke="black" d="M537,-911.8C537,-905.89 537,-896.39 537,-886.07"/>
<polygon fill="black" stroke="black" points="540.5,-886.01 537,-876.01 533.5,-886.01 540.5,-886.01"/>
</g>
<!-- COMMENT_8799020+1 -->
<g id="node3" class="node">
<title>COMMENT_8799020+1</title>
<polygon fill="none" stroke="black" points="823.5,-757 244.5,-757 244.5,-721 829.5,-721 829.5,-751 823.5,-757"/>
<polyline fill="none" stroke="black" points="823.5,-757 823.5,-751 "/>
<polyline fill="none" stroke="black" points="829.5,-751 823.5,-751 "/>
<text text-anchor="middle" x="537" y="-735.3" font-family="Times,serif" font-size="14.00">Find and save the back mesh and indices for all WALL cells in the current mesh</text>
</g>
<!-- COMMENT_87956c0+1&#45;&gt;COMMENT_8799020+1 -->
<g id="edge2" class="edge">
<title>COMMENT_87956c0+1&#45;&gt;COMMENT_8799020+1</title>
<path fill="none" stroke="black" d="M537,-792.76C537,-784.24 537,-775.44 537,-767.53"/>
<polygon fill="black" stroke="black" points="540.5,-767.41 537,-757.41 533.5,-767.41 540.5,-767.41"/>
</g>
<!-- CALL_8799960 -->
<g id="node4" class="node">
<title>CALL_8799960</title>
<g id="a_node4"><a xlink:href="FIND_WALL_BACK_INDEX.svg" xlink:title="FIND_WALL_BACK_INDEX">
<polygon fill="lightgray" stroke="black" points="640,-685 434,-685 434,-681 430,-681 430,-677 434,-677 434,-657 430,-657 430,-653 434,-653 434,-649 640,-649 640,-685"/>
<polyline fill="none" stroke="black" points="434,-681 438,-681 438,-677 434,-677 "/>
<polyline fill="none" stroke="black" points="434,-657 438,-657 438,-653 434,-653 "/>
<text text-anchor="middle" x="537" y="-663.3" font-family="Times,serif" font-size="14.00">FIND_WALL_BACK_INDEX</text>
</a>
</g>
</g>
<!-- COMMENT_8799020+1&#45;&gt;CALL_8799960 -->
<g id="edge3" class="edge">
<title>COMMENT_8799020+1&#45;&gt;CALL_8799960</title>
<path fill="none" stroke="black" d="M537,-720.7C537,-712.98 537,-703.71 537,-695.11"/>
<polygon fill="black" stroke="black" points="540.5,-695.1 537,-685.1 533.5,-695.1 540.5,-695.1"/>
</g>
<!-- COMMENT_879a460+1 -->
<g id="node5" class="node">
<title>COMMENT_879a460+1</title>
<polygon fill="none" stroke="black" points="1051,-613 17,-613 17,-577 1057,-577 1057,-607 1051,-613"/>
<polyline fill="none" stroke="black" points="1051,-613 1051,-607 "/>
<polyline fill="none" stroke="black" points="1057,-607 1051,-607 "/>
<text text-anchor="middle" x="537" y="-591.3" font-family="Times,serif" font-size="14.00">Search all neighboring meshes for 3&#45;D WALL cells. Add index and surface information from these to M%OMESH(NOM)%WALL_RECV_BUFFER</text>
</g>
<!-- CALL_8799960&#45;&gt;COMMENT_879a460+1 -->
<g id="edge4" class="edge">
<title>CALL_8799960&#45;&gt;COMMENT_879a460+1</title>
<path fill="none" stroke="black" d="M537,-648.7C537,-640.98 537,-631.71 537,-623.11"/>
<polygon fill="black" stroke="black" points="540.5,-623.1 537,-613.1 533.5,-623.1 540.5,-623.1"/>
</g>
<!-- CALL_87a8820 -->
<g id="node6" class="node">
<title>CALL_87a8820</title>
<g id="a_node6"><a xlink:href="REALLOCATE_INTEGER_ARRAY.svg" xlink:title="REALLOCATE_INTEGER_ARRAY">
<polygon fill="lightgray" stroke="black" points="661,-541 413,-541 413,-537 409,-537 409,-533 413,-533 413,-513 409,-513 409,-509 413,-509 413,-505 661,-505 661,-541"/>
<polyline fill="none" stroke="black" points="413,-537 417,-537 417,-533 413,-533 "/>
<polyline fill="none" stroke="black" points="413,-513 417,-513 417,-509 413,-509 "/>
<text text-anchor="middle" x="537" y="-519.3" font-family="Times,serif" font-size="14.00">REALLOCATE_INTEGER_ARRAY</text>
</a>
</g>
</g>
<!-- COMMENT_879a460+1&#45;&gt;CALL_87a8820 -->
<g id="edge5" class="edge">
<title>COMMENT_879a460+1&#45;&gt;CALL_87a8820</title>
<path fill="none" stroke="black" d="M537,-576.7C537,-568.98 537,-559.71 537,-551.11"/>
<polygon fill="black" stroke="black" points="540.5,-551.1 537,-541.1 533.5,-551.1 540.5,-551.1"/>
</g>
<!-- CALL_87a9f60 -->
<g id="node7" class="node">
<title>CALL_87a9f60</title>
<g id="a_node7"><a xlink:href="REALLOCATE_INTEGER_ARRAY.svg" xlink:title="REALLOCATE_INTEGER_ARRAY">
<polygon fill="lightgray" stroke="black" points="661,-469 413,-469 413,-465 409,-465 409,-461 413,-461 413,-441 409,-441 409,-437 413,-437 413,-433 661,-433 661,-469"/>
<polyline fill="none" stroke="black" points="413,-465 417,-465 417,-461 413,-461 "/>
<polyline fill="none" stroke="black" points="413,-441 417,-441 417,-437 413,-437 "/>
<text text-anchor="middle" x="537" y="-447.3" font-family="Times,serif" font-size="14.00">REALLOCATE_INTEGER_ARRAY</text>
</a>
</g>
</g>
<!-- CALL_87a8820&#45;&gt;CALL_87a9f60 -->
<g id="edge6" class="edge">
<title>CALL_87a8820&#45;&gt;CALL_87a9f60</title>
<path fill="none" stroke="black" d="M537,-504.7C537,-496.98 537,-487.71 537,-479.11"/>
<polygon fill="black" stroke="black" points="540.5,-479.1 537,-469.1 533.5,-479.1 540.5,-479.1"/>
</g>
<!-- COMMENT_87ae300+1 -->
<g id="node8" class="node">
<title>COMMENT_87ae300+1</title>
<polygon fill="none" stroke="black" points="638.5,-397 429.5,-397 429.5,-361 644.5,-361 644.5,-391 638.5,-397"/>
<polyline fill="none" stroke="black" points="638.5,-397 638.5,-391 "/>
<polyline fill="none" stroke="black" points="644.5,-391 638.5,-391 "/>
<text text-anchor="middle" x="537" y="-375.3" font-family="Times,serif" font-size="14.00">Find back index of thin wall</text>
</g>
<!-- CALL_87a9f60&#45;&gt;COMMENT_87ae300+1 -->
<g id="edge7" class="edge">
<title>CALL_87a9f60&#45;&gt;COMMENT_87ae300+1</title>
<path fill="none" stroke="black" d="M537,-432.7C537,-424.98 537,-415.71 537,-407.11"/>
<polygon fill="black" stroke="black" points="540.5,-407.1 537,-397.1 533.5,-407.1 540.5,-407.1"/>
</g>
<!-- CALL_87aed60 -->
<g id="node9" class="node">
<title>CALL_87aed60</title>
<g id="a_node9"><a xlink:href="FIND_THIN_WALL_BACK_INDEX.svg" xlink:title="FIND_THIN_WALL_BACK_INDEX">
<polygon fill="lightgray" stroke="black" points="662.5,-325 411.5,-325 411.5,-321 407.5,-321 407.5,-317 411.5,-317 411.5,-297 407.5,-297 407.5,-293 411.5,-293 411.5,-289 662.5,-289 662.5,-325"/>
<polyline fill="none" stroke="black" points="411.5,-321 415.5,-321 415.5,-317 411.5,-317 "/>
<polyline fill="none" stroke="black" points="411.5,-297 415.5,-297 415.5,-293 411.5,-293 "/>
<text text-anchor="middle" x="537" y="-303.3" font-family="Times,serif" font-size="14.00">FIND_THIN_WALL_BACK_INDEX</text>
</a>
</g>
</g>
<!-- COMMENT_87ae300+1&#45;&gt;CALL_87aed60 -->
<g id="edge8" class="edge">
<title>COMMENT_87ae300+1&#45;&gt;CALL_87aed60</title>
<path fill="none" stroke="black" d="M537,-360.7C537,-352.98 537,-343.71 537,-335.11"/>
<polygon fill="black" stroke="black" points="540.5,-335.1 537,-325.1 533.5,-335.1 540.5,-335.1"/>
</g>
<!-- COMMENT_87af8a0+1 -->
<g id="node10" class="node">
<title>COMMENT_87af8a0+1</title>
<polygon fill="none" stroke="black" points="1068,-253 0,-253 0,-217 1074,-217 1074,-247 1068,-253"/>
<polyline fill="none" stroke="black" points="1068,-253 1068,-247 "/>
<polyline fill="none" stroke="black" points="1074,-247 1068,-247 "/>
<text text-anchor="middle" x="537" y="-231.3" font-family="Times,serif" font-size="14.00">Search all neighboring meshes for 3&#45;D THIN_WALL cells. Add index and surface info from these to M%OMESH(NOM)%THIN_WALL_RECV_BUFFER</text>
</g>
<!-- CALL_87aed60&#45;&gt;COMMENT_87af8a0+1 -->
<g id="edge9" class="edge">
<title>CALL_87aed60&#45;&gt;COMMENT_87af8a0+1</title>
<path fill="none" stroke="black" d="M537,-288.7C537,-280.98 537,-271.71 537,-263.11"/>
<polygon fill="black" stroke="black" points="540.5,-263.1 537,-253.1 533.5,-263.1 540.5,-263.1"/>
</g>
<!-- CALL_87b9c00 -->
<g id="node11" class="node">
<title>CALL_87b9c00</title>
<g id="a_node11"><a xlink:href="REALLOCATE_INTEGER_ARRAY.svg" xlink:title="REALLOCATE_INTEGER_ARRAY">
<polygon fill="lightgray" stroke="black" points="661,-181 413,-181 413,-177 409,-177 409,-173 413,-173 413,-153 409,-153 409,-149 413,-149 413,-145 661,-145 661,-181"/>
<polyline fill="none" stroke="black" points="413,-177 417,-177 417,-173 413,-173 "/>
<polyline fill="none" stroke="black" points="413,-153 417,-153 417,-149 413,-149 "/>
<text text-anchor="middle" x="537" y="-159.3" font-family="Times,serif" font-size="14.00">REALLOCATE_INTEGER_ARRAY</text>
</a>
</g>
</g>
<!-- COMMENT_87af8a0+1&#45;&gt;CALL_87b9c00 -->
<g id="edge10" class="edge">
<title>COMMENT_87af8a0+1&#45;&gt;CALL_87b9c00</title>
<path fill="none" stroke="black" d="M537,-216.7C537,-208.98 537,-199.71 537,-191.11"/>
<polygon fill="black" stroke="black" points="540.5,-191.1 537,-181.1 533.5,-191.1 540.5,-191.1"/>
</g>
<!-- CALL_87bb260 -->
<g id="node12" class="node">
<title>CALL_87bb260</title>
<g id="a_node12"><a xlink:href="REALLOCATE_INTEGER_ARRAY.svg" xlink:title="REALLOCATE_INTEGER_ARRAY">
<polygon fill="lightgray" stroke="black" points="661,-109 413,-109 413,-105 409,-105 409,-101 413,-101 413,-81 409,-81 409,-77 413,-77 413,-73 661,-73 661,-109"/>
<polyline fill="none" stroke="black" points="413,-105 417,-105 417,-101 413,-101 "/>
<polyline fill="none" stroke="black" points="413,-81 417,-81 417,-77 413,-77 "/>
<text text-anchor="middle" x="537" y="-87.3" font-family="Times,serif" font-size="14.00">REALLOCATE_INTEGER_ARRAY</text>
</a>
</g>
</g>
<!-- CALL_87b9c00&#45;&gt;CALL_87bb260 -->
<g id="edge11" class="edge">
<title>CALL_87b9c00&#45;&gt;CALL_87bb260</title>
<path fill="none" stroke="black" d="M537,-144.7C537,-136.98 537,-127.71 537,-119.11"/>
<polygon fill="black" stroke="black" points="540.5,-119.1 537,-109.1 533.5,-119.1 540.5,-119.1"/>
</g>
<!-- end_SUBPROGRAM_87bfee0 -->
<g id="node13" class="node">
<title>end_SUBPROGRAM_87bfee0</title>
<ellipse fill="black" stroke="black" cx="537" cy="-30" rx="7" ry="7"/>
</g>
<!-- CALL_87bb260&#45;&gt;end_SUBPROGRAM_87bfee0 -->
<g id="edge12" class="edge">
<title>CALL_87bb260&#45;&gt;end_SUBPROGRAM_87bfee0</title>
<path fill="none" stroke="black" d="M537,-72.93C537,-64.89 537,-55.33 537,-47.37"/>
<polygon fill="black" stroke="black" points="540.5,-47.22 537,-37.22 533.5,-47.22 540.5,-47.22"/>
</g>
</g>
</svg>
