<?xml version="1.0" encoding="UTF-8" standalone="no"?>
<!DOCTYPE svg PUBLIC "-//W3C//DTD SVG 1.1//EN"
 "http://www.w3.org/Graphics/SVG/1.1/DTD/svg11.dtd">
<!-- Generated by graphviz version 2.43.0 (0)
 -->
<!-- Title: GATHER_Q_AND_M Pages: 1 -->
<svg width="568pt" height="311pt"
 viewBox="0.00 0.00 568.00 311.00" xmlns="http://www.w3.org/2000/svg" xmlns:xlink="http://www.w3.org/1999/xlink">
<g id="graph0" class="graph" transform="scale(1 1) rotate(0) translate(4 307)">
<title>GATHER_Q_AND_M</title>
<polygon fill="white" stroke="transparent" points="-4,4 -4,-307 564,-307 564,4 -4,4"/>
<text text-anchor="middle" x="280" y="-7.8" font-family="Times,serif" font-size="14.00">GATHER_Q_AND_M</text>
<!-- start_SUBPROGRAM_87897c0 -->
<g id="node1" class="node">
<title>start_SUBPROGRAM_87897c0</title>
<ellipse fill="none" stroke="black" cx="280" cy="-296" rx="7" ry="7"/>
</g>
<!-- COMMENT_876d300+1 -->
<g id="node2" class="node">
<title>COMMENT_876d300+1</title>
<polygon fill="none" stroke="black" points="554,-253 0,-253 0,-217 560,-217 560,-247 554,-253"/>
<polyline fill="none" stroke="black" points="554,-253 554,-247 "/>
<polyline fill="none" stroke="black" points="560,-247 554,-247 "/>
<text text-anchor="middle" x="280" y="-231.3" font-family="Times,serif" font-size="14.00">!&gt; brief Gather heat release and mass generation rates to root MPI process</text>
</g>
<!-- start_SUBPROGRAM_87897c0&#45;&gt;COMMENT_876d300+1 -->
<g id="edge1" class="edge">
<title>start_SUBPROGRAM_87897c0&#45;&gt;COMMENT_876d300+1</title>
<path fill="none" stroke="black" d="M280,-288.69C280,-282.49 280,-272.59 280,-263.05"/>
<polygon fill="black" stroke="black" points="283.5,-263.02 280,-253.02 276.5,-263.02 283.5,-263.02"/>
</g>
<!-- CALL_877c0a0 -->
<g id="node3" class="node">
<title>CALL_877c0a0</title>
<g id="a_node3"><a xlink:href="MPI_GATHERV.svg" xlink:title="MPI_GATHERV">
<polygon fill="#ffe800" stroke="black" points="342,-181 218,-181 218,-177 214,-177 214,-173 218,-173 218,-153 214,-153 214,-149 218,-149 218,-145 342,-145 342,-181"/>
<polyline fill="none" stroke="black" points="218,-177 222,-177 222,-173 218,-173 "/>
<polyline fill="none" stroke="black" points="218,-153 222,-153 222,-149 218,-149 "/>
<text text-anchor="middle" x="280" y="-159.3" font-family="Times,serif" font-size="14.00">MPI_GATHERV</text>
</a>
</g>
</g>
<!-- COMMENT_876d300+1&#45;&gt;CALL_877c0a0 -->
<g id="edge2" class="edge">
<title>COMMENT_876d300+1&#45;&gt;CALL_877c0a0</title>
<path fill="none" stroke="black" d="M280,-216.7C280,-208.98 280,-199.71 280,-191.11"/>
<polygon fill="black" stroke="black" points="283.5,-191.1 280,-181.1 276.5,-191.1 283.5,-191.1"/>
</g>
<!-- CALL_877fd20 -->
<g id="node4" class="node">
<title>CALL_877fd20</title>
<g id="a_node4"><a xlink:href="MPI_GATHERV.svg" xlink:title="MPI_GATHERV">
<polygon fill="#ffe800" stroke="black" points="342,-109 218,-109 218,-105 214,-105 214,-101 218,-101 218,-81 214,-81 214,-77 218,-77 218,-73 342,-73 342,-109"/>
<polyline fill="none" stroke="black" points="218,-105 222,-105 222,-101 218,-101 "/>
<polyline fill="none" stroke="black" points="218,-81 222,-81 222,-77 218,-77 "/>
<text text-anchor="middle" x="280" y="-87.3" font-family="Times,serif" font-size="14.00">MPI_GATHERV</text>
</a>
</g>
</g>
<!-- CALL_877c0a0&#45;&gt;CALL_877fd20 -->
<g id="edge3" class="edge">
<title>CALL_877c0a0&#45;&gt;CALL_877fd20</title>
<path fill="none" stroke="black" d="M280,-144.7C280,-136.98 280,-127.71 280,-119.11"/>
<polygon fill="black" stroke="black" points="283.5,-119.1 280,-109.1 276.5,-119.1 283.5,-119.1"/>
</g>
<!-- end_SUBPROGRAM_87897c0 -->
<g id="node5" class="node">
<title>end_SUBPROGRAM_87897c0</title>
<ellipse fill="black" stroke="black" cx="280" cy="-30" rx="7" ry="7"/>
</g>
<!-- CALL_877fd20&#45;&gt;end_SUBPROGRAM_87897c0 -->
<g id="edge4" class="edge">
<title>CALL_877fd20&#45;&gt;end_SUBPROGRAM_87897c0</title>
<path fill="none" stroke="black" d="M280,-72.93C280,-64.89 280,-55.33 280,-47.37"/>
<polygon fill="black" stroke="black" points="283.5,-47.22 280,-37.22 276.5,-47.22 283.5,-47.22"/>
</g>
</g>
</svg>
