<?xml version="1.0" encoding="UTF-8" standalone="no"?>
<!DOCTYPE svg PUBLIC "-//W3C//DTD SVG 1.1//EN"
 "http://www.w3.org/Graphics/SVG/1.1/DTD/svg11.dtd">
<!-- Generated by graphviz version 2.43.0 (0)
 -->
<!-- Title: GET_INFO Pages: 1 -->
<svg width="659pt" height="289pt"
 viewBox="0.00 0.00 659.00 289.00" xmlns="http://www.w3.org/2000/svg" xmlns:xlink="http://www.w3.org/1999/xlink">
<g id="graph0" class="graph" transform="scale(1 1) rotate(0) translate(4 285)">
<title>GET_INFO</title>
<polygon fill="white" stroke="transparent" points="-4,4 -4,-285 655,-285 655,4 -4,4"/>
<text text-anchor="middle" x="325.5" y="-7.8" font-family="Times,serif" font-size="14.00">GET_INFO</text>
<!-- start_SUBPROGRAM_9adc820 -->
<g id="node1" class="node">
<title>start_SUBPROGRAM_9adc820</title>
<ellipse fill="none" stroke="black" cx="325.5" cy="-274" rx="7" ry="7"/>
</g>
<!-- COMMENT_9ad8500+1 -->
<g id="node2" class="node">
<title>COMMENT_9ad8500+1</title>
<polygon fill="none" stroke="black" points="645,-231 0,-231 0,-73 651,-73 651,-225 645,-231"/>
<polyline fill="none" stroke="black" points="645,-231 645,-225 "/>
<polyline fill="none" stroke="black" points="651,-225 645,-225 "/>
<text text-anchor="middle" x="325.5" y="-215.8" font-family="Times,serif" font-size="14.00">!&gt; brief Gather revision dates, etc, from subroutines</text>
<text text-anchor="middle" x="325.5" y="-200.8" font-family="Times,serif" font-size="14.00">!&gt; param REVISION String containing the revision number</text>
<text text-anchor="middle" x="325.5" y="-185.8" font-family="Times,serif" font-size="14.00">!&gt; param REVISION_DATE String containing the date of the last code revision</text>
<text text-anchor="middle" x="325.5" y="-170.8" font-family="Times,serif" font-size="14.00">!&gt; param COMPILE_DATE String containing the date of the last code compilation</text>
<text text-anchor="middle" x="325.5" y="-155.8" font-family="Times,serif" font-size="14.00">!&gt; details Unlike svn, the revisioning system git does not perform keyword substitution.</text>
<text text-anchor="middle" x="325.5" y="-140.8" font-family="Times,serif" font-size="14.00">!&gt; To perform this function, &#160;a script named expand_file is called before FDS is</text>
<text text-anchor="middle" x="325.5" y="-125.8" font-family="Times,serif" font-size="14.00">!&gt; built that expands the following keywords ($Revision, $RevisionDate and</text>
<text text-anchor="middle" x="325.5" y="-110.8" font-family="Times,serif" font-size="14.00">!&gt; $CompileDate) with their proper values. Another script named contract_file is</text>
<text text-anchor="middle" x="325.5" y="-95.8" font-family="Times,serif" font-size="14.00">!&gt; called after FDS is built to return these keywords back to their original</text>
<text text-anchor="middle" x="325.5" y="-80.8" font-family="Times,serif" font-size="14.00">!&gt; values (so the revisioning system will not think this file has changed).</text>
</g>
<!-- start_SUBPROGRAM_9adc820&#45;&gt;COMMENT_9ad8500+1 -->
<g id="edge1" class="edge">
<title>start_SUBPROGRAM_9adc820&#45;&gt;COMMENT_9ad8500+1</title>
<path fill="none" stroke="black" d="M325.5,-266.88C325.5,-261.22 325.5,-252.06 325.5,-241.33"/>
<polygon fill="black" stroke="black" points="329,-241.09 325.5,-231.09 322,-241.09 329,-241.09"/>
</g>
<!-- end_SUBPROGRAM_9adc820 -->
<g id="node3" class="node">
<title>end_SUBPROGRAM_9adc820</title>
<ellipse fill="black" stroke="black" cx="325.5" cy="-30" rx="7" ry="7"/>
</g>
<!-- COMMENT_9ad8500+1&#45;&gt;end_SUBPROGRAM_9adc820 -->
<g id="edge2" class="edge">
<title>COMMENT_9ad8500+1&#45;&gt;end_SUBPROGRAM_9adc820</title>
<path fill="none" stroke="black" d="M325.5,-72.97C325.5,-63.33 325.5,-54.38 325.5,-47.24"/>
<polygon fill="black" stroke="black" points="329,-47.14 325.5,-37.14 322,-47.14 329,-47.14"/>
</g>
</g>
</svg>
