<?xml version="1.0" encoding="UTF-8" standalone="no"?>
<!DOCTYPE svg PUBLIC "-//W3C//DTD SVG 1.1//EN"
 "http://www.w3.org/Graphics/SVG/1.1/DTD/svg11.dtd">
<!-- Generated by graphviz version 2.43.0 (0)
 -->
<!-- Title: GET_BOUNDARY_TYPE Pages: 1 -->
<svg width="949pt" height="519pt"
 viewBox="0.00 0.00 949.00 519.00" xmlns="http://www.w3.org/2000/svg" xmlns:xlink="http://www.w3.org/1999/xlink">
<g id="graph0" class="graph" transform="scale(1 1) rotate(0) translate(4 515)">
<title>GET_BOUNDARY_TYPE</title>
<polygon fill="white" stroke="transparent" points="-4,4 -4,-515 945,-515 945,4 -4,4"/>
<text text-anchor="middle" x="470.5" y="-7.8" font-family="Times,serif" font-size="14.00">GET_BOUNDARY_TYPE</text>
<!-- start_SUBPROGRAM_8f5e100 -->
<g id="node1" class="node">
<title>start_SUBPROGRAM_8f5e100</title>
<ellipse fill="none" stroke="black" cx="470.5" cy="-504" rx="7" ry="7"/>
</g>
<!-- COMMENT_8f1cb00+1 -->
<g id="node2" class="node">
<title>COMMENT_8f1cb00+1</title>
<polygon fill="none" stroke="black" points="750.5,-461 184.5,-461 184.5,-425 756.5,-425 756.5,-455 750.5,-461"/>
<polyline fill="none" stroke="black" points="750.5,-461 750.5,-455 "/>
<polyline fill="none" stroke="black" points="756.5,-455 750.5,-455 "/>
<text text-anchor="middle" x="470.5" y="-439.3" font-family="Times,serif" font-size="14.00">!&gt; brief Determine the type and other properties of a newly exposed wall cell</text>
</g>
<!-- start_SUBPROGRAM_8f5e100&#45;&gt;COMMENT_8f1cb00+1 -->
<g id="edge1" class="edge">
<title>start_SUBPROGRAM_8f5e100&#45;&gt;COMMENT_8f1cb00+1</title>
<path fill="none" stroke="black" d="M470.5,-496.69C470.5,-490.49 470.5,-480.59 470.5,-471.05"/>
<polygon fill="black" stroke="black" points="474,-471.02 470.5,-461.02 467,-471.02 474,-471.02"/>
</g>
<!-- COMMENT_8f2fae0+1 -->
<g id="node3" class="node">
<title>COMMENT_8f2fae0+1</title>
<polygon fill="none" stroke="black" points="719,-389 216,-389 216,-353 725,-353 725,-383 719,-389"/>
<polyline fill="none" stroke="black" points="719,-389 719,-383 "/>
<polyline fill="none" stroke="black" points="725,-383 719,-383 "/>
<text text-anchor="middle" x="470.5" y="-367.3" font-family="Times,serif" font-size="14.00">Initialize solid properties included in the WALL derived type variable</text>
</g>
<!-- COMMENT_8f1cb00+1&#45;&gt;COMMENT_8f2fae0+1 -->
<g id="edge2" class="edge">
<title>COMMENT_8f1cb00+1&#45;&gt;COMMENT_8f2fae0+1</title>
<path fill="none" stroke="black" d="M470.5,-424.7C470.5,-416.98 470.5,-407.71 470.5,-399.11"/>
<polygon fill="black" stroke="black" points="474,-399.1 470.5,-389.1 467,-399.1 474,-399.1"/>
</g>
<!-- CALL_8f3ab60 -->
<g id="node4" class="node">
<title>CALL_8f3ab60</title>
<g id="a_node4"><a xlink:href="INIT_WALL_CELL.svg" xlink:title="INIT_WALL_CELL">
<polygon fill="lightgray" stroke="black" points="541.5,-317 399.5,-317 399.5,-313 395.5,-313 395.5,-309 399.5,-309 399.5,-289 395.5,-289 395.5,-285 399.5,-285 399.5,-281 541.5,-281 541.5,-317"/>
<polyline fill="none" stroke="black" points="399.5,-313 403.5,-313 403.5,-309 399.5,-309 "/>
<polyline fill="none" stroke="black" points="399.5,-289 403.5,-289 403.5,-285 399.5,-285 "/>
<text text-anchor="middle" x="470.5" y="-295.3" font-family="Times,serif" font-size="14.00">INIT_WALL_CELL</text>
</a>
</g>
</g>
<!-- COMMENT_8f2fae0+1&#45;&gt;CALL_8f3ab60 -->
<g id="edge3" class="edge">
<title>COMMENT_8f2fae0+1&#45;&gt;CALL_8f3ab60</title>
<path fill="none" stroke="black" d="M470.5,-352.7C470.5,-344.98 470.5,-335.71 470.5,-327.11"/>
<polygon fill="black" stroke="black" points="474,-327.1 470.5,-317.1 467,-327.1 474,-327.1"/>
</g>
<!-- COMMENT_8f3b6a0+1 -->
<g id="node5" class="node">
<title>COMMENT_8f3b6a0+1</title>
<polygon fill="none" stroke="black" points="695,-245 240,-245 240,-147 701,-147 701,-239 695,-245"/>
<polyline fill="none" stroke="black" points="695,-245 695,-239 "/>
<polyline fill="none" stroke="black" points="701,-239 695,-239 "/>
<text text-anchor="middle" x="470.5" y="-229.8" font-family="Times,serif" font-size="14.00">This code is under construction</text>
<text text-anchor="middle" x="470.5" y="-214.8" font-family="Times,serif" font-size="14.00"> SF =&gt; SURFACE(WC%SURF_INDEX)</text>
<text text-anchor="middle" x="470.5" y="-199.8" font-family="Times,serif" font-size="14.00"> IF (SF%VARIABLE_THICKNESS .OR. SF%HT_DIM&gt;1) THEN</text>
<text text-anchor="middle" x="470.5" y="-184.8" font-family="Times,serif" font-size="14.00"> &#160;&#160;&#160;CALL FIND_WALL_BACK_INDEX(NM,IW)</text>
<text text-anchor="middle" x="470.5" y="-169.8" font-family="Times,serif" font-size="14.00"> &#160;&#160;&#160;CALL REALLOCATE_ONE_D_ARRAYS(NM,WALL_CELL=IW)</text>
<text text-anchor="middle" x="470.5" y="-154.8" font-family="Times,serif" font-size="14.00"> ENDIF</text>
</g>
<!-- CALL_8f3ab60&#45;&gt;COMMENT_8f3b6a0+1 -->
<g id="edge4" class="edge">
<title>CALL_8f3ab60&#45;&gt;COMMENT_8f3b6a0+1</title>
<path fill="none" stroke="black" d="M470.5,-280.87C470.5,-273.59 470.5,-264.65 470.5,-255.34"/>
<polygon fill="black" stroke="black" points="474,-255.15 470.5,-245.15 467,-255.15 474,-255.15"/>
</g>
<!-- COMMENT_8f3a720+1 -->
<g id="node6" class="node">
<title>COMMENT_8f3a720+1</title>
<polygon fill="none" stroke="black" points="935,-111 0,-111 0,-73 941,-73 941,-105 935,-111"/>
<polyline fill="none" stroke="black" points="935,-111 935,-105 "/>
<polyline fill="none" stroke="black" points="941,-105 935,-105 "/>
<text text-anchor="middle" x="470.5" y="-95.8" font-family="Times,serif" font-size="14.00">Special cases 1: BURNed_AWAY obstruction exposes a surface that also burns, in which case the surface is to ignite immediately.</text>
<text text-anchor="middle" x="470.5" y="-80.8" font-family="Times,serif" font-size="14.00">Special cases 2: HT3D solid shifts the position of the burned away surface to the exposed surface position.</text>
</g>
<!-- COMMENT_8f3b6a0+1&#45;&gt;COMMENT_8f3a720+1 -->
<g id="edge5" class="edge">
<title>COMMENT_8f3b6a0+1&#45;&gt;COMMENT_8f3a720+1</title>
<path fill="none" stroke="black" d="M470.5,-146.99C470.5,-138.18 470.5,-129.25 470.5,-121.26"/>
<polygon fill="black" stroke="black" points="474,-121.04 470.5,-111.04 467,-121.04 474,-121.04"/>
</g>
<!-- end_SUBPROGRAM_8f5e100 -->
<g id="node7" class="node">
<title>end_SUBPROGRAM_8f5e100</title>
<ellipse fill="black" stroke="black" cx="470.5" cy="-30" rx="7" ry="7"/>
</g>
<!-- COMMENT_8f3a720+1&#45;&gt;end_SUBPROGRAM_8f5e100 -->
<g id="edge6" class="edge">
<title>COMMENT_8f3a720+1&#45;&gt;end_SUBPROGRAM_8f5e100</title>
<path fill="none" stroke="black" d="M470.5,-73C470.5,-64.83 470.5,-55.25 470.5,-47.3"/>
<polygon fill="black" stroke="black" points="474,-47.18 470.5,-37.18 467,-47.18 474,-47.18"/>
</g>
</g>
</svg>
