<?xml version="1.0" encoding="UTF-8" standalone="no"?>
<!DOCTYPE svg PUBLIC "-//W3C//DTD SVG 1.1//EN"
 "http://www.w3.org/Graphics/SVG/1.1/DTD/svg11.dtd">
<!-- Generated by graphviz version 2.43.0 (0)
 -->
<!-- Title: GET_WALL_INDEX Pages: 1 -->
<svg width="559pt" height="244pt"
 viewBox="0.00 0.00 559.00 244.00" xmlns="http://www.w3.org/2000/svg" xmlns:xlink="http://www.w3.org/1999/xlink">
<g id="graph0" class="graph" transform="scale(1 1) rotate(0) translate(4 240)">
<title>GET_WALL_INDEX</title>
<polygon fill="white" stroke="transparent" points="-4,4 -4,-240 555,-240 555,4 -4,4"/>
<text text-anchor="middle" x="275.5" y="-7.8" font-family="Times,serif" font-size="14.00">GET_WALL_INDEX</text>
<!-- start_SUBPROGRAM_83ab280 -->
<g id="node1" class="node">
<title>start_SUBPROGRAM_83ab280</title>
<ellipse fill="none" stroke="black" cx="275.5" cy="-229" rx="7" ry="7"/>
</g>
<!-- COMMENT_83935c0+1 -->
<g id="node2" class="node">
<title>COMMENT_83935c0+1</title>
<polygon fill="none" stroke="black" points="545,-186 0,-186 0,-73 551,-73 551,-180 545,-186"/>
<polyline fill="none" stroke="black" points="545,-186 545,-180 "/>
<polyline fill="none" stroke="black" points="551,-180 545,-180 "/>
<text text-anchor="middle" x="275.5" y="-170.8" font-family="Times,serif" font-size="14.00">!&gt; brief Find the wall index corresponding to the &#45;IOR face of cell (II,JJ,KK)</text>
<text text-anchor="middle" x="275.5" y="-155.8" font-family="Times,serif" font-size="14.00">!&gt; param NM Mesh number</text>
<text text-anchor="middle" x="275.5" y="-140.8" font-family="Times,serif" font-size="14.00">!&gt; param II x&#45;index on the inside of the WALL face</text>
<text text-anchor="middle" x="275.5" y="-125.8" font-family="Times,serif" font-size="14.00">!&gt; param JJ y&#45;index on the inside of the WALL face</text>
<text text-anchor="middle" x="275.5" y="-110.8" font-family="Times,serif" font-size="14.00">!&gt; param KK z&#45;index on the inside of the WALL face</text>
<text text-anchor="middle" x="275.5" y="-95.8" font-family="Times,serif" font-size="14.00">!&gt; param IOR Orientation index of the WALL face</text>
<text text-anchor="middle" x="275.5" y="-80.8" font-family="Times,serif" font-size="14.00">!&gt; param IW Index of the WALL face</text>
</g>
<!-- start_SUBPROGRAM_83ab280&#45;&gt;COMMENT_83935c0+1 -->
<g id="edge1" class="edge">
<title>start_SUBPROGRAM_83ab280&#45;&gt;COMMENT_83935c0+1</title>
<path fill="none" stroke="black" d="M275.5,-221.9C275.5,-216.09 275.5,-206.67 275.5,-196.04"/>
<polygon fill="black" stroke="black" points="279,-196.01 275.5,-186.01 272,-196.01 279,-196.01"/>
</g>
<!-- end_SUBPROGRAM_83ab280 -->
<g id="node3" class="node">
<title>end_SUBPROGRAM_83ab280</title>
<ellipse fill="black" stroke="black" cx="275.5" cy="-30" rx="7" ry="7"/>
</g>
<!-- COMMENT_83935c0+1&#45;&gt;end_SUBPROGRAM_83ab280 -->
<g id="edge2" class="edge">
<title>COMMENT_83935c0+1&#45;&gt;end_SUBPROGRAM_83ab280</title>
<path fill="none" stroke="black" d="M275.5,-72.91C275.5,-63.49 275.5,-54.41 275.5,-47.12"/>
<polygon fill="black" stroke="black" points="279,-47.09 275.5,-37.09 272,-47.09 279,-47.09"/>
</g>
</g>
</svg>
