<?xml version="1.0" encoding="UTF-8" standalone="no"?>
<!DOCTYPE svg PUBLIC "-//W3C//DTD SVG 1.1//EN"
 "http://www.w3.org/Graphics/SVG/1.1/DTD/svg11.dtd">
<!-- Generated by graphviz version 2.43.0 (0)
 -->
<!-- Title: GLOBAL_MATRIX_REASSIGN Pages: 1 -->
<svg width="901pt" height="919pt"
 viewBox="0.00 0.00 901.00 919.00" xmlns="http://www.w3.org/2000/svg" xmlns:xlink="http://www.w3.org/1999/xlink">
<g id="graph0" class="graph" transform="scale(1 1) rotate(0) translate(4 915)">
<title>GLOBAL_MATRIX_REASSIGN</title>
<polygon fill="white" stroke="transparent" points="-4,4 -4,-915 897,-915 897,4 -4,4"/>
<text text-anchor="middle" x="446.5" y="-7.8" font-family="Times,serif" font-size="14.00">GLOBAL_MATRIX_REASSIGN</text>
<!-- start_SUBPROGRAM_9f9b480 -->
<g id="node1" class="node">
<title>start_SUBPROGRAM_9f9b480</title>
<ellipse fill="none" stroke="black" cx="446.5" cy="-904" rx="7" ry="7"/>
</g>
<!-- COMMENT_9f95440+1 -->
<g id="node2" class="node">
<title>COMMENT_9f95440+1</title>
<polygon fill="none" stroke="black" points="887,-861 0,-861 0,-793 893,-793 893,-855 887,-861"/>
<polyline fill="none" stroke="black" points="887,-861 887,-855 "/>
<polyline fill="none" stroke="black" points="893,-855 887,-855 "/>
<text text-anchor="middle" x="446.5" y="-845.8" font-family="Times,serif" font-size="14.00">!&gt; brief Reassign global matrices</text>
<text text-anchor="middle" x="446.5" y="-830.8" font-family="Times,serif" font-size="14.00">!&gt; details Global or local connected zone matrices potentially need to be reassigned after</text>
<text text-anchor="middle" x="446.5" y="-815.8" font-family="Times,serif" font-size="14.00">!&gt; CREATE_OR_REMOVE_OBSTRUCTIONS or CONNECTED_ZONES has been updated. &#160;Zone connections are established</text>
<text text-anchor="middle" x="446.5" y="-800.8" font-family="Times,serif" font-size="14.00">!&gt; in DIVERGENCE_PART_1, so global reassignment must follow.</text>
</g>
<!-- start_SUBPROGRAM_9f9b480&#45;&gt;COMMENT_9f95440+1 -->
<g id="edge1" class="edge">
<title>start_SUBPROGRAM_9f9b480&#45;&gt;COMMENT_9f95440+1</title>
<path fill="none" stroke="black" d="M446.5,-896.86C446.5,-890.93 446.5,-881.38 446.5,-871.26"/>
<polygon fill="black" stroke="black" points="450,-871.05 446.5,-861.05 443,-871.05 450,-871.05"/>
</g>
<!-- CALL_9f97420 -->
<g id="node3" class="node">
<title>CALL_9f97420</title>
<g id="a_node3"><a xlink:href="FINISH_ULMAT_SOLVER.svg" xlink:title="FINISH_ULMAT_SOLVER">
<polygon fill="lightgray" stroke="black" points="545,-757 348,-757 348,-753 344,-753 344,-749 348,-749 348,-729 344,-729 344,-725 348,-725 348,-721 545,-721 545,-757"/>
<polyline fill="none" stroke="black" points="348,-753 352,-753 352,-749 348,-749 "/>
<polyline fill="none" stroke="black" points="348,-729 352,-729 352,-725 348,-725 "/>
<text text-anchor="middle" x="446.5" y="-735.3" font-family="Times,serif" font-size="14.00">FINISH_ULMAT_SOLVER</text>
</a>
</g>
</g>
<!-- COMMENT_9f95440+1&#45;&gt;CALL_9f97420 -->
<g id="edge2" class="edge">
<title>COMMENT_9f95440+1&#45;&gt;CALL_9f97420</title>
<path fill="none" stroke="black" d="M446.5,-793C446.5,-784.56 446.5,-775.59 446.5,-767.47"/>
<polygon fill="black" stroke="black" points="450,-767.4 446.5,-757.4 443,-767.4 450,-767.4"/>
</g>
<!-- CALL_9f97980 -->
<g id="node4" class="node">
<title>CALL_9f97980</title>
<g id="a_node4"><a xlink:href="ULMAT_SOLVER_SETUP.svg" xlink:title="ULMAT_SOLVER_SETUP">
<polygon fill="lightgray" stroke="black" points="543.5,-685 349.5,-685 349.5,-681 345.5,-681 345.5,-677 349.5,-677 349.5,-657 345.5,-657 345.5,-653 349.5,-653 349.5,-649 543.5,-649 543.5,-685"/>
<polyline fill="none" stroke="black" points="349.5,-681 353.5,-681 353.5,-677 349.5,-677 "/>
<polyline fill="none" stroke="black" points="349.5,-657 353.5,-657 353.5,-653 349.5,-653 "/>
<text text-anchor="middle" x="446.5" y="-663.3" font-family="Times,serif" font-size="14.00">ULMAT_SOLVER_SETUP</text>
</a>
</g>
</g>
<!-- CALL_9f97420&#45;&gt;CALL_9f97980 -->
<g id="edge3" class="edge">
<title>CALL_9f97420&#45;&gt;CALL_9f97980</title>
<path fill="none" stroke="black" d="M446.5,-720.7C446.5,-712.98 446.5,-703.71 446.5,-695.11"/>
<polygon fill="black" stroke="black" points="450,-695.1 446.5,-685.1 443,-695.1 450,-695.1"/>
</g>
<!-- CALL_9f97500 -->
<g id="node5" class="node">
<title>CALL_9f97500</title>
<g id="a_node5"><a xlink:href="FINISH_GLMAT_SOLVER.svg" xlink:title="FINISH_GLMAT_SOLVER">
<polygon fill="lightgray" stroke="black" points="544.5,-613 348.5,-613 348.5,-609 344.5,-609 344.5,-605 348.5,-605 348.5,-585 344.5,-585 344.5,-581 348.5,-581 348.5,-577 544.5,-577 544.5,-613"/>
<polyline fill="none" stroke="black" points="348.5,-609 352.5,-609 352.5,-605 348.5,-605 "/>
<polyline fill="none" stroke="black" points="348.5,-585 352.5,-585 352.5,-581 348.5,-581 "/>
<text text-anchor="middle" x="446.5" y="-591.3" font-family="Times,serif" font-size="14.00">FINISH_GLMAT_SOLVER</text>
</a>
</g>
</g>
<!-- CALL_9f97980&#45;&gt;CALL_9f97500 -->
<g id="edge4" class="edge">
<title>CALL_9f97980&#45;&gt;CALL_9f97500</title>
<path fill="none" stroke="black" d="M446.5,-648.7C446.5,-640.98 446.5,-631.71 446.5,-623.11"/>
<polygon fill="black" stroke="black" points="450,-623.1 446.5,-613.1 443,-623.1 450,-623.1"/>
</g>
<!-- CALL_9f97100 -->
<g id="node6" class="node">
<title>CALL_9f97100</title>
<g id="a_node6"><a xlink:href="GLMAT_SOLVER_SETUP.svg" xlink:title="GLMAT_SOLVER_SETUP">
<polygon fill="lightgray" stroke="black" points="543,-541 350,-541 350,-537 346,-537 346,-533 350,-533 350,-513 346,-513 346,-509 350,-509 350,-505 543,-505 543,-541"/>
<polyline fill="none" stroke="black" points="350,-537 354,-537 354,-533 350,-533 "/>
<polyline fill="none" stroke="black" points="350,-513 354,-513 354,-509 350,-509 "/>
<text text-anchor="middle" x="446.5" y="-519.3" font-family="Times,serif" font-size="14.00">GLMAT_SOLVER_SETUP</text>
</a>
</g>
</g>
<!-- CALL_9f97500&#45;&gt;CALL_9f97100 -->
<g id="edge5" class="edge">
<title>CALL_9f97500&#45;&gt;CALL_9f97100</title>
<path fill="none" stroke="black" d="M446.5,-576.7C446.5,-568.98 446.5,-559.71 446.5,-551.11"/>
<polygon fill="black" stroke="black" points="450,-551.1 446.5,-541.1 443,-551.1 450,-551.1"/>
</g>
<!-- CALL_9f98a60 -->
<g id="node7" class="node">
<title>CALL_9f98a60</title>
<g id="a_node7"><a xlink:href="STOP_CHECK.svg" xlink:title="STOP_CHECK">
<polygon fill="lightgray" stroke="black" points="505,-469 388,-469 388,-465 384,-465 384,-461 388,-461 388,-441 384,-441 384,-437 388,-437 388,-433 505,-433 505,-469"/>
<polyline fill="none" stroke="black" points="388,-465 392,-465 392,-461 388,-461 "/>
<polyline fill="none" stroke="black" points="388,-441 392,-441 392,-437 388,-437 "/>
<text text-anchor="middle" x="446.5" y="-447.3" font-family="Times,serif" font-size="14.00">STOP_CHECK</text>
</a>
</g>
</g>
<!-- CALL_9f97100&#45;&gt;CALL_9f98a60 -->
<g id="edge6" class="edge">
<title>CALL_9f97100&#45;&gt;CALL_9f98a60</title>
<path fill="none" stroke="black" d="M446.5,-504.7C446.5,-496.98 446.5,-487.71 446.5,-479.11"/>
<polygon fill="black" stroke="black" points="450,-479.1 446.5,-469.1 443,-479.1 450,-479.1"/>
</g>
<!-- CALL_9f991e0 -->
<g id="node8" class="node">
<title>CALL_9f991e0</title>
<g id="a_node8"><a xlink:href="MESH_EXCHANGE.svg" xlink:title="MESH_EXCHANGE">
<polygon fill="lightgray" stroke="black" points="524.5,-397 368.5,-397 368.5,-393 364.5,-393 364.5,-389 368.5,-389 368.5,-369 364.5,-369 364.5,-365 368.5,-365 368.5,-361 524.5,-361 524.5,-397"/>
<polyline fill="none" stroke="black" points="368.5,-393 372.5,-393 372.5,-389 368.5,-389 "/>
<polyline fill="none" stroke="black" points="368.5,-369 372.5,-369 372.5,-365 368.5,-365 "/>
<text text-anchor="middle" x="446.5" y="-375.3" font-family="Times,serif" font-size="14.00">MESH_EXCHANGE</text>
</a>
</g>
</g>
<!-- CALL_9f98a60&#45;&gt;CALL_9f991e0 -->
<g id="edge7" class="edge">
<title>CALL_9f98a60&#45;&gt;CALL_9f991e0</title>
<path fill="none" stroke="black" d="M446.5,-432.7C446.5,-424.98 446.5,-415.71 446.5,-407.11"/>
<polygon fill="black" stroke="black" points="450,-407.1 446.5,-397.1 443,-407.1 450,-407.1"/>
</g>
<!-- CALL_9f99620 -->
<g id="node9" class="node">
<title>CALL_9f99620</title>
<g id="a_node9"><a xlink:href="GLMAT_SOLVER_SETUP.svg" xlink:title="GLMAT_SOLVER_SETUP">
<polygon fill="lightgray" stroke="black" points="543,-325 350,-325 350,-321 346,-321 346,-317 350,-317 350,-297 346,-297 346,-293 350,-293 350,-289 543,-289 543,-325"/>
<polyline fill="none" stroke="black" points="350,-321 354,-321 354,-317 350,-317 "/>
<polyline fill="none" stroke="black" points="350,-297 354,-297 354,-293 350,-293 "/>
<text text-anchor="middle" x="446.5" y="-303.3" font-family="Times,serif" font-size="14.00">GLMAT_SOLVER_SETUP</text>
</a>
</g>
</g>
<!-- CALL_9f991e0&#45;&gt;CALL_9f99620 -->
<g id="edge8" class="edge">
<title>CALL_9f991e0&#45;&gt;CALL_9f99620</title>
<path fill="none" stroke="black" d="M446.5,-360.7C446.5,-352.98 446.5,-343.71 446.5,-335.11"/>
<polygon fill="black" stroke="black" points="450,-335.1 446.5,-325.1 443,-335.1 450,-335.1"/>
</g>
<!-- CALL_9f99ac0 -->
<g id="node10" class="node">
<title>CALL_9f99ac0</title>
<g id="a_node10"><a xlink:href="MESH_EXCHANGE.svg" xlink:title="MESH_EXCHANGE">
<polygon fill="lightgray" stroke="black" points="524.5,-253 368.5,-253 368.5,-249 364.5,-249 364.5,-245 368.5,-245 368.5,-225 364.5,-225 364.5,-221 368.5,-221 368.5,-217 524.5,-217 524.5,-253"/>
<polyline fill="none" stroke="black" points="368.5,-249 372.5,-249 372.5,-245 368.5,-245 "/>
<polyline fill="none" stroke="black" points="368.5,-225 372.5,-225 372.5,-221 368.5,-221 "/>
<text text-anchor="middle" x="446.5" y="-231.3" font-family="Times,serif" font-size="14.00">MESH_EXCHANGE</text>
</a>
</g>
</g>
<!-- CALL_9f99620&#45;&gt;CALL_9f99ac0 -->
<g id="edge9" class="edge">
<title>CALL_9f99620&#45;&gt;CALL_9f99ac0</title>
<path fill="none" stroke="black" d="M446.5,-288.7C446.5,-280.98 446.5,-271.71 446.5,-263.11"/>
<polygon fill="black" stroke="black" points="450,-263.1 446.5,-253.1 443,-263.1 450,-263.1"/>
</g>
<!-- CALL_9f99f00 -->
<g id="node11" class="node">
<title>CALL_9f99f00</title>
<g id="a_node11"><a xlink:href="GLMAT_SOLVER_SETUP.svg" xlink:title="GLMAT_SOLVER_SETUP">
<polygon fill="lightgray" stroke="black" points="543,-181 350,-181 350,-177 346,-177 346,-173 350,-173 350,-153 346,-153 346,-149 350,-149 350,-145 543,-145 543,-181"/>
<polyline fill="none" stroke="black" points="350,-177 354,-177 354,-173 350,-173 "/>
<polyline fill="none" stroke="black" points="350,-153 354,-153 354,-149 350,-149 "/>
<text text-anchor="middle" x="446.5" y="-159.3" font-family="Times,serif" font-size="14.00">GLMAT_SOLVER_SETUP</text>
</a>
</g>
</g>
<!-- CALL_9f99ac0&#45;&gt;CALL_9f99f00 -->
<g id="edge10" class="edge">
<title>CALL_9f99ac0&#45;&gt;CALL_9f99f00</title>
<path fill="none" stroke="black" d="M446.5,-216.7C446.5,-208.98 446.5,-199.71 446.5,-191.11"/>
<polygon fill="black" stroke="black" points="450,-191.1 446.5,-181.1 443,-191.1 450,-191.1"/>
</g>
<!-- CALL_9f9a360 -->
<g id="node12" class="node">
<title>CALL_9f9a360</title>
<g id="a_node12"><a xlink:href="STOP_CHECK.svg" xlink:title="STOP_CHECK">
<polygon fill="lightgray" stroke="black" points="505,-109 388,-109 388,-105 384,-105 384,-101 388,-101 388,-81 384,-81 384,-77 388,-77 388,-73 505,-73 505,-109"/>
<polyline fill="none" stroke="black" points="388,-105 392,-105 392,-101 388,-101 "/>
<polyline fill="none" stroke="black" points="388,-81 392,-81 392,-77 388,-77 "/>
<text text-anchor="middle" x="446.5" y="-87.3" font-family="Times,serif" font-size="14.00">STOP_CHECK</text>
</a>
</g>
</g>
<!-- CALL_9f99f00&#45;&gt;CALL_9f9a360 -->
<g id="edge11" class="edge">
<title>CALL_9f99f00&#45;&gt;CALL_9f9a360</title>
<path fill="none" stroke="black" d="M446.5,-144.7C446.5,-136.98 446.5,-127.71 446.5,-119.11"/>
<polygon fill="black" stroke="black" points="450,-119.1 446.5,-109.1 443,-119.1 450,-119.1"/>
</g>
<!-- end_SUBPROGRAM_9f9b480 -->
<g id="node13" class="node">
<title>end_SUBPROGRAM_9f9b480</title>
<ellipse fill="black" stroke="black" cx="446.5" cy="-30" rx="7" ry="7"/>
</g>
<!-- CALL_9f9a360&#45;&gt;end_SUBPROGRAM_9f9b480 -->
<g id="edge12" class="edge">
<title>CALL_9f9a360&#45;&gt;end_SUBPROGRAM_9f9b480</title>
<path fill="none" stroke="black" d="M446.5,-72.93C446.5,-64.89 446.5,-55.33 446.5,-47.37"/>
<polygon fill="black" stroke="black" points="450,-47.22 446.5,-37.22 443,-47.22 450,-47.22"/>
</g>
</g>
</svg>
