<?xml version="1.0" encoding="UTF-8" standalone="no"?>
<!DOCTYPE svg PUBLIC "-//W3C//DTD SVG 1.1//EN"
 "http://www.w3.org/Graphics/SVG/1.1/DTD/svg11.dtd">
<!-- Generated by graphviz version 2.43.0 (0)
 -->
<!-- Title: INITIALIZE_INTERPOLATION Pages: 1 -->
<svg width="651pt" height="384pt"
 viewBox="0.00 0.00 651.00 384.00" xmlns="http://www.w3.org/2000/svg" xmlns:xlink="http://www.w3.org/1999/xlink">
<g id="graph0" class="graph" transform="scale(1 1) rotate(0) translate(4 380)">
<title>INITIALIZE_INTERPOLATION</title>
<polygon fill="white" stroke="transparent" points="-4,4 -4,-380 647,-380 647,4 -4,4"/>
<text text-anchor="middle" x="321.5" y="-7.8" font-family="Times,serif" font-size="14.00">INITIALIZE_INTERPOLATION</text>
<g id="clust1" class="cluster">
<title>cluster_K</title>
<polygon fill="none" stroke="orange" points="415,-215 415,-368 635,-368 635,-215 415,-215"/>
<text text-anchor="middle" x="428.5" y="-352.8" font-family="Times,serif" font-size="14.00">K</text>
</g>
<g id="clust2" class="cluster">
<title>cluster_J</title>
<polygon fill="none" stroke="orange" points="423,-223 423,-337 627,-337 627,-223 423,-223"/>
<text text-anchor="middle" x="434" y="-321.8" font-family="Times,serif" font-size="14.00">J</text>
</g>
<g id="clust3" class="cluster">
<title>cluster_I</title>
<polygon fill="none" stroke="orange" points="431,-231 431,-306 619,-306 619,-231 431,-231"/>
<text text-anchor="middle" x="442" y="-290.8" font-family="Times,serif" font-size="14.00">I</text>
</g>
<!-- start_SUBPROGRAM_838d0e0 -->
<g id="node1" class="node">
<title>start_SUBPROGRAM_838d0e0</title>
<ellipse fill="none" stroke="black" cx="250" cy="-257" rx="7" ry="7"/>
</g>
<!-- COMMENT_837fbc0+1 -->
<g id="node2" class="node">
<title>COMMENT_837fbc0+1</title>
<polygon fill="none" stroke="black" points="494,-203 0,-203 0,-167 500,-167 500,-197 494,-203"/>
<polyline fill="none" stroke="black" points="494,-203 494,-197 "/>
<polyline fill="none" stroke="black" points="500,-197 494,-197 "/>
<text text-anchor="middle" x="250" y="-181.3" font-family="Times,serif" font-size="14.00">!&gt; brief Create arrays by which info is to exchanged across meshes</text>
</g>
<!-- start_SUBPROGRAM_838d0e0&#45;&gt;COMMENT_837fbc0+1 -->
<g id="edge1" class="edge">
<title>start_SUBPROGRAM_838d0e0&#45;&gt;COMMENT_837fbc0+1</title>
<path fill="none" stroke="black" d="M250,-249.54C250,-241.31 250,-226.58 250,-213.37"/>
<polygon fill="black" stroke="black" points="253.5,-213.26 250,-203.26 246.5,-213.26 253.5,-213.26"/>
</g>
<!-- CALL_837cba0 -->
<g id="node3" class="node">
<title>CALL_837cba0</title>
<g id="a_node3"><a xlink:href="ChkMemErr.svg" xlink:title="ChkMemErr">
<polygon fill="lightgray" stroke="black" points="302,-131 198,-131 198,-127 194,-127 194,-123 198,-123 198,-103 194,-103 194,-99 198,-99 198,-95 302,-95 302,-131"/>
<polyline fill="none" stroke="black" points="198,-127 202,-127 202,-123 198,-123 "/>
<polyline fill="none" stroke="black" points="198,-103 202,-103 202,-99 198,-99 "/>
<text text-anchor="middle" x="250" y="-109.3" font-family="Times,serif" font-size="14.00">ChkMemErr</text>
</a>
</g>
</g>
<!-- COMMENT_837fbc0+1&#45;&gt;CALL_837cba0 -->
<g id="edge2" class="edge">
<title>COMMENT_837fbc0+1&#45;&gt;CALL_837cba0</title>
<path fill="none" stroke="black" d="M250,-166.7C250,-158.98 250,-149.71 250,-141.11"/>
<polygon fill="black" stroke="black" points="253.5,-141.1 250,-131.1 246.5,-141.1 253.5,-141.1"/>
</g>
<!-- DO_838ce60 -->
<g id="node5" class="node">
<title>DO_838ce60</title>
<ellipse fill="none" stroke="black" cx="250" cy="-41" rx="69.59" ry="18"/>
<text text-anchor="middle" x="250" y="-37.3" font-family="Times,serif" font-size="14.00">DO_838ce60</text>
</g>
<!-- CALL_837cba0&#45;&gt;DO_838ce60 -->
<g id="edge3" class="edge">
<title>CALL_837cba0&#45;&gt;DO_838ce60</title>
<path fill="none" stroke="black" d="M250,-94.7C250,-86.98 250,-77.71 250,-69.11"/>
<polygon fill="black" stroke="black" points="253.5,-69.1 250,-59.1 246.5,-69.1 253.5,-69.1"/>
</g>
<!-- DO_838ca40 -->
<g id="node4" class="node">
<title>DO_838ca40</title>
<polygon fill="none" stroke="orange" points="610.5,-275 439.5,-275 439.5,-239 610.5,-239 610.5,-275"/>
<text text-anchor="middle" x="525" y="-253.3" font-family="Times,serif" font-size="14.00">OTHER_MESH_LOOP</text>
</g>
<!-- end_SUBPROGRAM_838d0e0 -->
<g id="node6" class="node">
<title>end_SUBPROGRAM_838d0e0</title>
<ellipse fill="black" stroke="black" cx="525" cy="-185" rx="7" ry="7"/>
</g>
<!-- DO_838ca40&#45;&gt;end_SUBPROGRAM_838d0e0 -->
<g id="edge4" class="edge">
<title>DO_838ca40&#45;&gt;end_SUBPROGRAM_838d0e0</title>
<path fill="none" stroke="black" d="M525,-238.7C525,-227.64 525,-213.38 525,-202.48"/>
<polygon fill="black" stroke="black" points="528.5,-202.29 525,-192.29 521.5,-202.29 528.5,-202.29"/>
</g>
</g>
</svg>
