<?xml version="1.0" encoding="UTF-8" standalone="no"?>
<!DOCTYPE svg PUBLIC "-//W3C//DTD SVG 1.1//EN"
 "http://www.w3.org/Graphics/SVG/1.1/DTD/svg11.dtd">
<!-- Generated by graphviz version 2.43.0 (0)
 -->
<!-- Title: INITIALIZE_INTERPOLATION Pages: 1 -->
<svg width="508pt" height="540pt"
 viewBox="0.00 0.00 508.00 540.32" xmlns="http://www.w3.org/2000/svg" xmlns:xlink="http://www.w3.org/1999/xlink">
<g id="graph0" class="graph" transform="scale(1 1) rotate(0) translate(4 536.32)">
<title>INITIALIZE_INTERPOLATION</title>
<polygon fill="white" stroke="transparent" points="-4,4 -4,-536.32 504,-536.32 504,4 -4,4"/>
<text text-anchor="middle" x="250" y="-7.8" font-family="Times,serif" font-size="14.00">INITIALIZE_INTERPOLATION</text>
<g id="clust1" class="cluster">
<title>cluster_K</title>
<polygon fill="none" stroke="orange" points="140,-65 140,-366.32 360,-366.32 360,-65 140,-65"/>
<text text-anchor="middle" x="153.5" y="-351.12" font-family="Times,serif" font-size="14.00">K</text>
</g>
<g id="clust2" class="cluster">
<title>cluster_J</title>
<polygon fill="none" stroke="orange" points="148,-101.72 148,-326.6 352,-326.6 352,-101.72 148,-101.72"/>
<text text-anchor="middle" x="159" y="-311.4" font-family="Times,serif" font-size="14.00">J</text>
</g>
<g id="clust3" class="cluster">
<title>cluster_I</title>
<polygon fill="none" stroke="orange" points="156,-138.44 156,-286.88 344,-286.88 344,-138.44 156,-138.44"/>
<text text-anchor="middle" x="167" y="-271.68" font-family="Times,serif" font-size="14.00">I</text>
</g>
<!-- start_SUBPROGRAM_8ee7680 -->
<g id="node1" class="node">
<title>start_SUBPROGRAM_8ee7680</title>
<ellipse fill="none" stroke="black" cx="250" cy="-525.32" rx="7" ry="7"/>
</g>
<!-- COMMENT_8ee6700+1 -->
<g id="node2" class="node">
<title>COMMENT_8ee6700+1</title>
<polygon fill="none" stroke="black" points="494,-482.32 0,-482.32 0,-446.32 500,-446.32 500,-476.32 494,-482.32"/>
<polyline fill="none" stroke="black" points="494,-482.32 494,-476.32 "/>
<polyline fill="none" stroke="black" points="500,-476.32 494,-476.32 "/>
<text text-anchor="middle" x="250" y="-460.62" font-family="Times,serif" font-size="14.00">!&gt; brief Create arrays by which info is to exchanged across meshes</text>
</g>
<!-- start_SUBPROGRAM_8ee7680&#45;&gt;COMMENT_8ee6700+1 -->
<g id="edge1" class="edge">
<title>start_SUBPROGRAM_8ee7680&#45;&gt;COMMENT_8ee6700+1</title>
<path fill="none" stroke="black" d="M250,-518.01C250,-511.81 250,-501.91 250,-492.37"/>
<polygon fill="black" stroke="black" points="253.5,-492.34 250,-482.34 246.5,-492.34 253.5,-492.34"/>
</g>
<!-- CALL_8ee6540 -->
<g id="node3" class="node">
<title>CALL_8ee6540</title>
<g id="a_node3"><a xlink:href="ChkMemErr.svg" xlink:title="ChkMemErr">
<polygon fill="lightgray" stroke="black" points="302,-410.32 198,-410.32 198,-406.32 194,-406.32 194,-402.32 198,-402.32 198,-382.32 194,-382.32 194,-378.32 198,-378.32 198,-374.32 302,-374.32 302,-410.32"/>
<polyline fill="none" stroke="black" points="198,-406.32 202,-406.32 202,-402.32 198,-402.32 "/>
<polyline fill="none" stroke="black" points="198,-382.32 202,-382.32 202,-378.32 198,-378.32 "/>
<text text-anchor="middle" x="250" y="-388.62" font-family="Times,serif" font-size="14.00">ChkMemErr</text>
</a>
</g>
</g>
<!-- COMMENT_8ee6700+1&#45;&gt;CALL_8ee6540 -->
<g id="edge2" class="edge">
<title>COMMENT_8ee6700+1&#45;&gt;CALL_8ee6540</title>
<path fill="none" stroke="black" d="M250,-446.02C250,-438.3 250,-429.03 250,-420.43"/>
<polygon fill="black" stroke="black" points="253.5,-420.42 250,-410.42 246.5,-420.42 253.5,-420.42"/>
</g>
<!-- beginDO_DO_8ef3f40 -->
<g id="node4" class="node">
<title>beginDO_DO_8ef3f40</title>
<ellipse fill="black" stroke="black" cx="250" cy="-334.96" rx="0.36" ry="0.36"/>
</g>
<!-- CALL_8ee6540&#45;&gt;beginDO_DO_8ef3f40 -->
<g id="edge8" class="edge">
<title>CALL_8ee6540&#45;&gt;beginDO_DO_8ef3f40</title>
<path fill="none" stroke="black" d="M250,-374.11C250,-358.36 250,-337.32 250,-336.02"/>
</g>
<!-- beginDO_DO_8ef3d80 -->
<g id="node6" class="node">
<title>beginDO_DO_8ef3d80</title>
<ellipse fill="black" stroke="black" cx="250" cy="-295.24" rx="0.36" ry="0.36"/>
</g>
<!-- beginDO_DO_8ef3f40&#45;&gt;beginDO_DO_8ef3d80 -->
<g id="edge6" class="edge">
<title>beginDO_DO_8ef3f40&#45;&gt;beginDO_DO_8ef3d80</title>
<path fill="none" stroke="black" d="M250,-334.49C250,-332.31 250,-298.46 250,-296.34"/>
</g>
<!-- endDO_DO_8ef3f40 -->
<g id="node5" class="node">
<title>endDO_DO_8ef3f40</title>
<ellipse fill="black" stroke="black" cx="250" cy="-73.36" rx="0.36" ry="0.36"/>
</g>
<!-- end_SUBPROGRAM_8ee7680 -->
<g id="node11" class="node">
<title>end_SUBPROGRAM_8ee7680</title>
<ellipse fill="black" stroke="black" cx="250" cy="-30" rx="7" ry="7"/>
</g>
<!-- endDO_DO_8ef3f40&#45;&gt;end_SUBPROGRAM_8ee7680 -->
<g id="edge10" class="edge">
<title>endDO_DO_8ef3f40&#45;&gt;end_SUBPROGRAM_8ee7680</title>
<path fill="none" stroke="black" d="M250,-72.24C250,-70.89 250,-58.27 250,-47.34"/>
<polygon fill="black" stroke="black" points="253.5,-47.1 250,-37.1 246.5,-47.1 253.5,-47.1"/>
</g>
<!-- beginDO_DO_8ef3b20 -->
<g id="node8" class="node">
<title>beginDO_DO_8ef3b20</title>
<ellipse fill="black" stroke="black" cx="250" cy="-255.52" rx="0.36" ry="0.36"/>
</g>
<!-- beginDO_DO_8ef3d80&#45;&gt;beginDO_DO_8ef3b20 -->
<g id="edge4" class="edge">
<title>beginDO_DO_8ef3d80&#45;&gt;beginDO_DO_8ef3b20</title>
<path fill="none" stroke="black" d="M250,-294.77C250,-292.59 250,-258.74 250,-256.62"/>
</g>
<!-- endDO_DO_8ef3d80 -->
<g id="node7" class="node">
<title>endDO_DO_8ef3d80</title>
<ellipse fill="black" stroke="black" cx="250" cy="-110.08" rx="0.36" ry="0.36"/>
</g>
<!-- endDO_DO_8ef3d80&#45;&gt;endDO_DO_8ef3f40 -->
<g id="edge9" class="edge">
<title>endDO_DO_8ef3d80&#45;&gt;endDO_DO_8ef3f40</title>
<path fill="none" stroke="black" d="M250,-108.98C250,-106.97 250,-75.76 250,-73.82"/>
</g>
<!-- DO_8ef3900 -->
<g id="node10" class="node">
<title>DO_8ef3900</title>
<polygon fill="none" stroke="orange" points="335.5,-219.16 164.5,-219.16 164.5,-183.16 335.5,-183.16 335.5,-219.16"/>
<text text-anchor="middle" x="250" y="-197.46" font-family="Times,serif" font-size="14.00">OTHER_MESH_LOOP</text>
</g>
<!-- beginDO_DO_8ef3b20&#45;&gt;DO_8ef3900 -->
<g id="edge3" class="edge">
<title>beginDO_DO_8ef3b20&#45;&gt;DO_8ef3900</title>
<path fill="none" stroke="black" d="M250,-255.01C250,-253.53 250,-241.48 250,-229.26"/>
<polygon fill="black" stroke="black" points="253.5,-229.18 250,-219.18 246.5,-229.18 253.5,-229.18"/>
</g>
<!-- endDO_DO_8ef3b20 -->
<g id="node9" class="node">
<title>endDO_DO_8ef3b20</title>
<ellipse fill="black" stroke="black" cx="250" cy="-146.8" rx="0.36" ry="0.36"/>
</g>
<!-- endDO_DO_8ef3b20&#45;&gt;endDO_DO_8ef3d80 -->
<g id="edge7" class="edge">
<title>endDO_DO_8ef3b20&#45;&gt;endDO_DO_8ef3d80</title>
<path fill="none" stroke="black" d="M250,-145.7C250,-143.69 250,-112.48 250,-110.54"/>
</g>
<!-- DO_8ef3900&#45;&gt;endDO_DO_8ef3b20 -->
<g id="edge5" class="edge">
<title>DO_8ef3900&#45;&gt;endDO_DO_8ef3b20</title>
<path fill="none" stroke="black" d="M250,-183.1C250,-168.09 250,-148.43 250,-147.22"/>
</g>
</g>
</svg>
