<?xml version="1.0" encoding="UTF-8" standalone="no"?>
<!DOCTYPE svg PUBLIC "-//W3C//DTD SVG 1.1//EN"
 "http://www.w3.org/Graphics/SVG/1.1/DTD/svg11.dtd">
<!-- Generated by graphviz version 2.43.0 (0)
 -->
<!-- Title: INITIALIZE_HT3D_WALL_CELLS Pages: 1 -->
<svg width="902pt" height="2735pt"
 viewBox="0.00 0.00 902.00 2735.16" xmlns="http://www.w3.org/2000/svg" xmlns:xlink="http://www.w3.org/1999/xlink">
<g id="graph0" class="graph" transform="scale(1 1) rotate(0) translate(4 2731.16)">
<title>INITIALIZE_HT3D_WALL_CELLS</title>
<polygon fill="white" stroke="transparent" points="-4,4 -4,-2731.16 898,-2731.16 898,4 -4,4"/>
<text text-anchor="middle" x="447" y="-7.8" font-family="Times,serif" font-size="14.00">INITIALIZE_HT3D_WALL_CELLS</text>
<g id="clust1" class="cluster">
<title>cluster_PRIMARY_WALL_LOOP</title>
<polygon fill="none" stroke="orange" points="37,-1202.08 37,-2557.16 857,-2557.16 857,-1202.08 37,-1202.08"/>
<text text-anchor="middle" x="127.5" y="-2541.96" font-family="Times,serif" font-size="14.00">PRIMARY_WALL_LOOP</text>
</g>
<g id="clust2" class="cluster">
<title>cluster_PRIMARY_NODE_LOOP</title>
<polygon fill="none" stroke="orange" points="45,-1238.8 45,-2371.44 849,-2371.44 849,-1238.8 45,-1238.8"/>
<text text-anchor="middle" x="137.5" y="-2356.24" font-family="Times,serif" font-size="14.00">PRIMARY_NODE_LOOP</text>
</g>
<g id="clust3" class="cluster">
<title>cluster_ALTERNATE_WALL_LOOP</title>
<polygon fill="none" stroke="orange" points="280,-1967.28 280,-2115.72 614,-2115.72 614,-1967.28 280,-1967.28"/>
<text text-anchor="middle" x="380.5" y="-2100.52" font-family="Times,serif" font-size="14.00">ALTERNATE_WALL_LOOP</text>
</g>
<g id="clust4" class="cluster">
<title>cluster_ALTERNATE_THIN_WALL_LOOP</title>
<polygon fill="none" stroke="orange" points="280,-1810.84 280,-1959.28 614,-1959.28 614,-1810.84 280,-1810.84"/>
<text text-anchor="middle" x="403" y="-1944.08" font-family="Times,serif" font-size="14.00">ALTERNATE_THIN_WALL_LOOP</text>
</g>
<g id="clust5" class="cluster">
<title>cluster_OTHER_MESH_LOOP</title>
<polygon fill="none" stroke="orange" points="272,-1421.52 272,-1802.84 622,-1802.84 622,-1421.52 272,-1421.52"/>
<text text-anchor="middle" x="357.5" y="-1787.64" font-family="Times,serif" font-size="14.00">OTHER_MESH_LOOP</text>
</g>
<g id="clust6" class="cluster">
<title>cluster_ALTERNATE_WALL_LOOP_2</title>
<polygon fill="none" stroke="orange" points="280,-1614.68 280,-1763.12 614,-1763.12 614,-1614.68 280,-1614.68"/>
<text text-anchor="middle" x="388.5" y="-1747.92" font-family="Times,serif" font-size="14.00">ALTERNATE_WALL_LOOP_2</text>
</g>
<g id="clust7" class="cluster">
<title>cluster_ALTERNATE_WALL_LOOP_2D</title>
<polygon fill="none" stroke="orange" points="280,-1458.24 280,-1606.68 614,-1606.68 614,-1458.24 280,-1458.24"/>
<text text-anchor="middle" x="394" y="-1591.48" font-family="Times,serif" font-size="14.00">ALTERNATE_WALL_LOOP_2D</text>
</g>
<g id="clust8" class="cluster">
<title>cluster_PRIMARY_THIN_WALL_LOOP</title>
<polygon fill="none" stroke="orange" points="100,-65 100,-1130.08 794,-1130.08 794,-65 100,-65"/>
<text text-anchor="middle" x="213" y="-1114.88" font-family="Times,serif" font-size="14.00">PRIMARY_THIN_WALL_LOOP</text>
</g>
<g id="clust9" class="cluster">
<title>cluster_PRIMARY_THIN_NODE_LOOP</title>
<polygon fill="none" stroke="orange" points="108,-101.72 108,-1018.36 786,-1018.36 786,-101.72 108,-101.72"/>
<text text-anchor="middle" x="223" y="-1003.16" font-family="Times,serif" font-size="14.00">PRIMARY_THIN_NODE_LOOP</text>
</g>
<g id="clust10" class="cluster">
<title>cluster_ALTERNATE_WALL_LOOP_B</title>
<polygon fill="none" stroke="orange" points="280,-830.2 280,-978.64 614,-978.64 614,-830.2 280,-830.2"/>
<text text-anchor="middle" x="389" y="-963.44" font-family="Times,serif" font-size="14.00">ALTERNATE_WALL_LOOP_B</text>
</g>
<g id="clust11" class="cluster">
<title>cluster_ALTERNATE_THIN_WALL_LOOP_B</title>
<polygon fill="none" stroke="orange" points="280,-673.76 280,-822.2 614,-822.2 614,-673.76 280,-673.76"/>
<text text-anchor="middle" x="411.5" y="-807" font-family="Times,serif" font-size="14.00">ALTERNATE_THIN_WALL_LOOP_B</text>
</g>
<g id="clust12" class="cluster">
<title>cluster_OTHER_MESH_LOOP_B</title>
<polygon fill="none" stroke="orange" points="272,-284.44 272,-665.76 622,-665.76 622,-284.44 272,-284.44"/>
<text text-anchor="middle" x="366" y="-650.56" font-family="Times,serif" font-size="14.00">OTHER_MESH_LOOP_B</text>
</g>
<g id="clust13" class="cluster">
<title>cluster_ALTERNATE_WALL_LOOP_2B</title>
<polygon fill="none" stroke="orange" points="280,-477.6 280,-626.04 614,-626.04 614,-477.6 280,-477.6"/>
<text text-anchor="middle" x="393.5" y="-610.84" font-family="Times,serif" font-size="14.00">ALTERNATE_WALL_LOOP_2B</text>
</g>
<g id="clust14" class="cluster">
<title>cluster_ALTERNATE_WALL_LOOP_2C</title>
<polygon fill="none" stroke="orange" points="280,-321.16 280,-469.6 614,-469.6 614,-321.16 280,-321.16"/>
<text text-anchor="middle" x="393.5" y="-454.4" font-family="Times,serif" font-size="14.00">ALTERNATE_WALL_LOOP_2C</text>
</g>
<!-- start_SUBPROGRAM_7df54c0 -->
<g id="node1" class="node">
<title>start_SUBPROGRAM_7df54c0</title>
<ellipse fill="none" stroke="black" cx="447" cy="-2720.16" rx="7" ry="7"/>
</g>
<!-- COMMENT_8ce8d40+1 -->
<g id="node2" class="node">
<title>COMMENT_8ce8d40+1</title>
<polygon fill="none" stroke="black" points="846,-2677.16 42,-2677.16 42,-2639.16 852,-2639.16 852,-2671.16 846,-2677.16"/>
<polyline fill="none" stroke="black" points="846,-2677.16 846,-2671.16 "/>
<polyline fill="none" stroke="black" points="852,-2671.16 846,-2671.16 "/>
<text text-anchor="middle" x="447" y="-2661.96" font-family="Times,serif" font-size="14.00">!&gt; brief Set up weighting arrays to transfer 3D solid phase temperatures from one direction sweep to another.</text>
<text text-anchor="middle" x="447" y="-2646.96" font-family="Times,serif" font-size="14.00">!&gt; param NM Mesh index</text>
</g>
<!-- start_SUBPROGRAM_7df54c0&#45;&gt;COMMENT_8ce8d40+1 -->
<g id="edge1" class="edge">
<title>start_SUBPROGRAM_7df54c0&#45;&gt;COMMENT_8ce8d40+1</title>
<path fill="none" stroke="black" d="M447,-2712.74C447,-2706.57 447,-2696.8 447,-2687.28"/>
<polygon fill="black" stroke="black" points="450.5,-2687.24 447,-2677.24 443.5,-2687.24 450.5,-2687.24"/>
</g>
<!-- COMMENT_8cf0f20+1 -->
<g id="node3" class="node">
<title>COMMENT_8cf0f20+1</title>
<polygon fill="none" stroke="black" points="840.5,-2603.16 47.5,-2603.16 47.5,-2565.16 846.5,-2565.16 846.5,-2597.16 840.5,-2603.16"/>
<polyline fill="none" stroke="black" points="840.5,-2603.16 840.5,-2597.16 "/>
<polyline fill="none" stroke="black" points="846.5,-2597.16 840.5,-2597.16 "/>
<text text-anchor="middle" x="447" y="-2587.96" font-family="Times,serif" font-size="14.00">Loop over all 3&#45;D wall cells, and for each interior node, find wall or thin wall cells in the other two &quot;alternate&quot;</text>
<text text-anchor="middle" x="447" y="-2572.96" font-family="Times,serif" font-size="14.00">coordinate directions</text>
</g>
<!-- COMMENT_8ce8d40+1&#45;&gt;COMMENT_8cf0f20+1 -->
<g id="edge2" class="edge">
<title>COMMENT_8ce8d40+1&#45;&gt;COMMENT_8cf0f20+1</title>
<path fill="none" stroke="black" d="M447,-2638.99C447,-2631.29 447,-2622.13 447,-2613.58"/>
<polygon fill="black" stroke="black" points="450.5,-2613.57 447,-2603.57 443.5,-2613.57 450.5,-2613.57"/>
</g>
<!-- beginDO_DO_8a8b740 -->
<g id="node4" class="node">
<title>beginDO_DO_8a8b740</title>
<ellipse fill="black" stroke="black" cx="447" cy="-2525.8" rx="0.36" ry="0.36"/>
</g>
<!-- COMMENT_8cf0f20+1&#45;&gt;beginDO_DO_8a8b740 -->
<g id="edge26" class="edge">
<title>COMMENT_8cf0f20+1&#45;&gt;beginDO_DO_8a8b740</title>
<path fill="none" stroke="black" d="M447,-2565.02C447,-2549.06 447,-2528.15 447,-2526.86"/>
</g>
<!-- COMMENT_8cf5fe0+1 -->
<g id="node6" class="node">
<title>COMMENT_8cf5fe0+1</title>
<polygon fill="none" stroke="black" points="773.5,-2489.44 114.5,-2489.44 114.5,-2453.44 779.5,-2453.44 779.5,-2483.44 773.5,-2489.44"/>
<polyline fill="none" stroke="black" points="773.5,-2489.44 773.5,-2483.44 "/>
<polyline fill="none" stroke="black" points="779.5,-2483.44 773.5,-2483.44 "/>
<text text-anchor="middle" x="447" y="-2467.74" font-family="Times,serif" font-size="14.00">Allocate variables that hold information about the wall cells in the two alternate directions</text>
</g>
<!-- beginDO_DO_8a8b740&#45;&gt;COMMENT_8cf5fe0+1 -->
<g id="edge3" class="edge">
<title>beginDO_DO_8a8b740&#45;&gt;COMMENT_8cf5fe0+1</title>
<path fill="none" stroke="black" d="M447,-2525.29C447,-2523.81 447,-2511.76 447,-2499.54"/>
<polygon fill="black" stroke="black" points="450.5,-2499.46 447,-2489.46 443.5,-2499.46 450.5,-2499.46"/>
</g>
<!-- endDO_DO_8a8b740 -->
<g id="node5" class="node">
<title>endDO_DO_8a8b740</title>
<ellipse fill="black" stroke="black" cx="447" cy="-1210.44" rx="0.36" ry="0.36"/>
</g>
<!-- COMMENT_8aa48a0+1 -->
<g id="node29" class="node">
<title>COMMENT_8aa48a0+1</title>
<polygon fill="none" stroke="black" points="888,-1174.08 0,-1174.08 0,-1138.08 894,-1138.08 894,-1168.08 888,-1174.08"/>
<polyline fill="none" stroke="black" points="888,-1174.08 888,-1168.08 "/>
<polyline fill="none" stroke="black" points="894,-1168.08 888,-1168.08 "/>
<text text-anchor="middle" x="447" y="-1152.38" font-family="Times,serif" font-size="14.00">Loop over all thin wall cells, all of which are 3&#45;D. When found, find the wall or thin walls in the other coordinate directions.</text>
</g>
<!-- endDO_DO_8a8b740&#45;&gt;COMMENT_8aa48a0+1 -->
<g id="edge28" class="edge">
<title>endDO_DO_8a8b740&#45;&gt;COMMENT_8aa48a0+1</title>
<path fill="none" stroke="black" d="M447,-1209.29C447,-1207.85 447,-1196.31 447,-1184.44"/>
<polygon fill="black" stroke="black" points="450.5,-1184.18 447,-1174.18 443.5,-1184.18 450.5,-1184.18"/>
</g>
<!-- COMMENT_8a8b620+1 -->
<g id="node7" class="node">
<title>COMMENT_8a8b620+1</title>
<polygon fill="none" stroke="black" points="711.5,-2417.44 176.5,-2417.44 176.5,-2379.44 717.5,-2379.44 717.5,-2411.44 711.5,-2417.44"/>
<polyline fill="none" stroke="black" points="711.5,-2417.44 711.5,-2411.44 "/>
<polyline fill="none" stroke="black" points="717.5,-2411.44 711.5,-2411.44 "/>
<text text-anchor="middle" x="447" y="-2402.24" font-family="Times,serif" font-size="14.00">Loop over nodes of primary wall cell. For each internal &quot;node&quot;, search for</text>
<text text-anchor="middle" x="447" y="-2387.24" font-family="Times,serif" font-size="14.00">the two alternate wall cells whose 1&#45;D paths intersect the node.</text>
</g>
<!-- COMMENT_8cf5fe0+1&#45;&gt;COMMENT_8a8b620+1 -->
<g id="edge4" class="edge">
<title>COMMENT_8cf5fe0+1&#45;&gt;COMMENT_8a8b620+1</title>
<path fill="none" stroke="black" d="M447,-2453.25C447,-2445.55 447,-2436.26 447,-2427.59"/>
<polygon fill="black" stroke="black" points="450.5,-2427.46 447,-2417.46 443.5,-2427.46 450.5,-2427.46"/>
</g>
<!-- beginDO_DO_8ac3600 -->
<g id="node8" class="node">
<title>beginDO_DO_8ac3600</title>
<ellipse fill="black" stroke="black" cx="447" cy="-2340.08" rx="0.36" ry="0.36"/>
</g>
<!-- COMMENT_8a8b620+1&#45;&gt;beginDO_DO_8ac3600 -->
<g id="edge24" class="edge">
<title>COMMENT_8a8b620+1&#45;&gt;beginDO_DO_8ac3600</title>
<path fill="none" stroke="black" d="M447,-2379.3C447,-2363.34 447,-2342.43 447,-2341.14"/>
</g>
<!-- COMMENT_8a98b60+1 -->
<g id="node10" class="node">
<title>COMMENT_8a98b60+1</title>
<polygon fill="none" stroke="black" points="835,-2303.72 53,-2303.72 53,-2267.72 841,-2267.72 841,-2297.72 835,-2303.72"/>
<polyline fill="none" stroke="black" points="835,-2303.72 835,-2297.72 "/>
<polyline fill="none" stroke="black" points="841,-2297.72 835,-2297.72 "/>
<text text-anchor="middle" x="447" y="-2282.02" font-family="Times,serif" font-size="14.00">Save the mesh number and indices of the mesh cell (II,JJ,KK) in which the center of the solid node is located</text>
</g>
<!-- beginDO_DO_8ac3600&#45;&gt;COMMENT_8a98b60+1 -->
<g id="edge5" class="edge">
<title>beginDO_DO_8ac3600&#45;&gt;COMMENT_8a98b60+1</title>
<path fill="none" stroke="black" d="M447,-2339.57C447,-2338.09 447,-2326.04 447,-2313.82"/>
<polygon fill="black" stroke="black" points="450.5,-2313.74 447,-2303.74 443.5,-2313.74 450.5,-2313.74"/>
</g>
<!-- endDO_DO_8ac3600 -->
<g id="node9" class="node">
<title>endDO_DO_8ac3600</title>
<ellipse fill="black" stroke="black" cx="447" cy="-1247.16" rx="0.36" ry="0.36"/>
</g>
<!-- endDO_DO_8ac3600&#45;&gt;endDO_DO_8a8b740 -->
<g id="edge27" class="edge">
<title>endDO_DO_8ac3600&#45;&gt;endDO_DO_8a8b740</title>
<path fill="none" stroke="black" d="M447,-1246.06C447,-1244.05 447,-1212.84 447,-1210.9"/>
</g>
<!-- CALL_8aa0680 -->
<g id="node11" class="node">
<title>CALL_8aa0680</title>
<g id="a_node11"><a xlink:href="SEARCH_OTHER_MESHES.svg" xlink:title="SEARCH_OTHER_MESHES">
<polygon fill="lightgray" stroke="black" points="553.5,-2231.72 340.5,-2231.72 340.5,-2227.72 336.5,-2227.72 336.5,-2223.72 340.5,-2223.72 340.5,-2203.72 336.5,-2203.72 336.5,-2199.72 340.5,-2199.72 340.5,-2195.72 553.5,-2195.72 553.5,-2231.72"/>
<polyline fill="none" stroke="black" points="340.5,-2227.72 344.5,-2227.72 344.5,-2223.72 340.5,-2223.72 "/>
<polyline fill="none" stroke="black" points="340.5,-2203.72 344.5,-2203.72 344.5,-2199.72 340.5,-2199.72 "/>
<text text-anchor="middle" x="447" y="-2210.02" font-family="Times,serif" font-size="14.00">SEARCH_OTHER_MESHES</text>
</a>
</g>
</g>
<!-- COMMENT_8a98b60+1&#45;&gt;CALL_8aa0680 -->
<g id="edge6" class="edge">
<title>COMMENT_8a98b60+1&#45;&gt;CALL_8aa0680</title>
<path fill="none" stroke="black" d="M447,-2267.42C447,-2259.7 447,-2250.43 447,-2241.83"/>
<polygon fill="black" stroke="black" points="450.5,-2241.82 447,-2231.82 443.5,-2241.82 450.5,-2241.82"/>
</g>
<!-- COMMENT_8aa4be0+1 -->
<g id="node12" class="node">
<title>COMMENT_8aa4be0+1</title>
<polygon fill="none" stroke="black" points="755.5,-2159.72 132.5,-2159.72 132.5,-2123.72 761.5,-2123.72 761.5,-2153.72 755.5,-2159.72"/>
<polyline fill="none" stroke="black" points="755.5,-2159.72 755.5,-2153.72 "/>
<polyline fill="none" stroke="black" points="761.5,-2153.72 755.5,-2153.72 "/>
<text text-anchor="middle" x="447" y="-2138.02" font-family="Times,serif" font-size="14.00">Loop over wall cells searching for the &quot;alternate&quot; wall cells whose 1&#45;D path intersects</text>
</g>
<!-- CALL_8aa0680&#45;&gt;COMMENT_8aa4be0+1 -->
<g id="edge7" class="edge">
<title>CALL_8aa0680&#45;&gt;COMMENT_8aa4be0+1</title>
<path fill="none" stroke="black" d="M447,-2195.42C447,-2187.7 447,-2178.43 447,-2169.83"/>
<polygon fill="black" stroke="black" points="450.5,-2169.82 447,-2159.82 443.5,-2169.82 450.5,-2169.82"/>
</g>
<!-- beginDO_DO_8aa6b20 -->
<g id="node13" class="node">
<title>beginDO_DO_8aa6b20</title>
<ellipse fill="black" stroke="black" cx="447" cy="-2084.36" rx="0.36" ry="0.36"/>
</g>
<!-- COMMENT_8aa4be0+1&#45;&gt;beginDO_DO_8aa6b20 -->
<g id="edge9" class="edge">
<title>COMMENT_8aa4be0+1&#45;&gt;beginDO_DO_8aa6b20</title>
<path fill="none" stroke="black" d="M447,-2123.51C447,-2107.76 447,-2086.72 447,-2085.42"/>
</g>
<!-- CALL_8aa68e0 -->
<g id="node15" class="node">
<title>CALL_8aa68e0</title>
<g id="a_node15"><a xlink:href="SEARCH_FOR_ALTERNATE_WALL_CELLS.svg" xlink:title="SEARCH_FOR_ALTERNATE_WALL_CELLS">
<polygon fill="lightgray" stroke="black" points="605.5,-2048 288.5,-2048 288.5,-2044 284.5,-2044 284.5,-2040 288.5,-2040 288.5,-2020 284.5,-2020 284.5,-2016 288.5,-2016 288.5,-2012 605.5,-2012 605.5,-2048"/>
<polyline fill="none" stroke="black" points="288.5,-2044 292.5,-2044 292.5,-2040 288.5,-2040 "/>
<polyline fill="none" stroke="black" points="288.5,-2020 292.5,-2020 292.5,-2016 288.5,-2016 "/>
<text text-anchor="middle" x="447" y="-2026.3" font-family="Times,serif" font-size="14.00">SEARCH_FOR_ALTERNATE_WALL_CELLS</text>
</a>
</g>
</g>
<!-- beginDO_DO_8aa6b20&#45;&gt;CALL_8aa68e0 -->
<g id="edge8" class="edge">
<title>beginDO_DO_8aa6b20&#45;&gt;CALL_8aa68e0</title>
<path fill="none" stroke="black" d="M447,-2083.85C447,-2082.37 447,-2070.32 447,-2058.1"/>
<polygon fill="black" stroke="black" points="450.5,-2058.02 447,-2048.02 443.5,-2058.02 450.5,-2058.02"/>
</g>
<!-- endDO_DO_8aa6b20 -->
<g id="node14" class="node">
<title>endDO_DO_8aa6b20</title>
<ellipse fill="black" stroke="black" cx="447" cy="-1975.64" rx="0.36" ry="0.36"/>
</g>
<!-- beginDO_DO_8aa8040 -->
<g id="node16" class="node">
<title>beginDO_DO_8aa8040</title>
<ellipse fill="black" stroke="black" cx="447" cy="-1927.92" rx="0.36" ry="0.36"/>
</g>
<!-- endDO_DO_8aa6b20&#45;&gt;beginDO_DO_8aa8040 -->
<g id="edge12" class="edge">
<title>endDO_DO_8aa6b20&#45;&gt;beginDO_DO_8aa8040</title>
<path fill="none" stroke="black" d="M447,-1974.51C447,-1971.91 447,-1931.56 447,-1929.04"/>
</g>
<!-- CALL_8aa68e0&#45;&gt;endDO_DO_8aa6b20 -->
<g id="edge10" class="edge">
<title>CALL_8aa68e0&#45;&gt;endDO_DO_8aa6b20</title>
<path fill="none" stroke="black" d="M447,-2011.94C447,-1996.93 447,-1977.27 447,-1976.06"/>
</g>
<!-- CALL_8aa7da0 -->
<g id="node18" class="node">
<title>CALL_8aa7da0</title>
<g id="a_node18"><a xlink:href="SEARCH_FOR_ALTERNATE_WALL_CELLS.svg" xlink:title="SEARCH_FOR_ALTERNATE_WALL_CELLS">
<polygon fill="lightgray" stroke="black" points="605.5,-1891.56 288.5,-1891.56 288.5,-1887.56 284.5,-1887.56 284.5,-1883.56 288.5,-1883.56 288.5,-1863.56 284.5,-1863.56 284.5,-1859.56 288.5,-1859.56 288.5,-1855.56 605.5,-1855.56 605.5,-1891.56"/>
<polyline fill="none" stroke="black" points="288.5,-1887.56 292.5,-1887.56 292.5,-1883.56 288.5,-1883.56 "/>
<polyline fill="none" stroke="black" points="288.5,-1863.56 292.5,-1863.56 292.5,-1859.56 288.5,-1859.56 "/>
<text text-anchor="middle" x="447" y="-1869.86" font-family="Times,serif" font-size="14.00">SEARCH_FOR_ALTERNATE_WALL_CELLS</text>
</a>
</g>
</g>
<!-- beginDO_DO_8aa8040&#45;&gt;CALL_8aa7da0 -->
<g id="edge11" class="edge">
<title>beginDO_DO_8aa8040&#45;&gt;CALL_8aa7da0</title>
<path fill="none" stroke="black" d="M447,-1927.41C447,-1925.93 447,-1913.88 447,-1901.66"/>
<polygon fill="black" stroke="black" points="450.5,-1901.58 447,-1891.58 443.5,-1901.58 450.5,-1901.58"/>
</g>
<!-- endDO_DO_8aa8040 -->
<g id="node17" class="node">
<title>endDO_DO_8aa8040</title>
<ellipse fill="black" stroke="black" cx="447" cy="-1819.2" rx="0.36" ry="0.36"/>
</g>
<!-- beginDO_DO_8aae020 -->
<g id="node19" class="node">
<title>beginDO_DO_8aae020</title>
<ellipse fill="black" stroke="black" cx="447" cy="-1771.48" rx="0.36" ry="0.36"/>
</g>
<!-- endDO_DO_8aa8040&#45;&gt;beginDO_DO_8aae020 -->
<g id="edge20" class="edge">
<title>endDO_DO_8aa8040&#45;&gt;beginDO_DO_8aae020</title>
<path fill="none" stroke="black" d="M447,-1818.07C447,-1815.47 447,-1775.12 447,-1772.6"/>
</g>
<!-- CALL_8aa7da0&#45;&gt;endDO_DO_8aa8040 -->
<g id="edge13" class="edge">
<title>CALL_8aa7da0&#45;&gt;endDO_DO_8aa8040</title>
<path fill="none" stroke="black" d="M447,-1855.5C447,-1840.49 447,-1820.83 447,-1819.62"/>
</g>
<!-- beginDO_DO_8aab3c0 -->
<g id="node21" class="node">
<title>beginDO_DO_8aab3c0</title>
<ellipse fill="black" stroke="black" cx="447" cy="-1731.76" rx="0.36" ry="0.36"/>
</g>
<!-- beginDO_DO_8aae020&#45;&gt;beginDO_DO_8aab3c0 -->
<g id="edge15" class="edge">
<title>beginDO_DO_8aae020&#45;&gt;beginDO_DO_8aab3c0</title>
<path fill="none" stroke="black" d="M447,-1771.01C447,-1768.83 447,-1734.98 447,-1732.86"/>
</g>
<!-- endDO_DO_8aae020 -->
<g id="node20" class="node">
<title>endDO_DO_8aae020</title>
<ellipse fill="black" stroke="black" cx="447" cy="-1429.88" rx="0.36" ry="0.36"/>
</g>
<!-- COMMENT_8aae720+1 -->
<g id="node27" class="node">
<title>COMMENT_8aae720+1</title>
<polygon fill="none" stroke="black" points="771.5,-1393.52 116.5,-1393.52 116.5,-1355.52 777.5,-1355.52 777.5,-1387.52 771.5,-1393.52"/>
<polyline fill="none" stroke="black" points="771.5,-1393.52 771.5,-1387.52 "/>
<polyline fill="none" stroke="black" points="777.5,-1387.52 771.5,-1387.52 "/>
<text text-anchor="middle" x="447" y="-1378.32" font-family="Times,serif" font-size="14.00">Check to see if the HT3D solid object spans the entire width of the computational domain.</text>
<text text-anchor="middle" x="447" y="-1363.32" font-family="Times,serif" font-size="14.00">There must be at least one exposed surface cell in each coordinate direction.</text>
</g>
<!-- endDO_DO_8aae020&#45;&gt;COMMENT_8aae720+1 -->
<g id="edge22" class="edge">
<title>endDO_DO_8aae020&#45;&gt;COMMENT_8aae720+1</title>
<path fill="none" stroke="black" d="M447,-1428.73C447,-1427.28 447,-1415.8 447,-1403.88"/>
<polygon fill="black" stroke="black" points="450.5,-1403.52 447,-1393.52 443.5,-1403.52 450.5,-1403.52"/>
</g>
<!-- CALL_8aab140 -->
<g id="node23" class="node">
<title>CALL_8aab140</title>
<g id="a_node23"><a xlink:href="SEARCH_FOR_ALTERNATE_WALL_CELLS.svg" xlink:title="SEARCH_FOR_ALTERNATE_WALL_CELLS">
<polygon fill="lightgray" stroke="black" points="605.5,-1695.4 288.5,-1695.4 288.5,-1691.4 284.5,-1691.4 284.5,-1687.4 288.5,-1687.4 288.5,-1667.4 284.5,-1667.4 284.5,-1663.4 288.5,-1663.4 288.5,-1659.4 605.5,-1659.4 605.5,-1695.4"/>
<polyline fill="none" stroke="black" points="288.5,-1691.4 292.5,-1691.4 292.5,-1687.4 288.5,-1687.4 "/>
<polyline fill="none" stroke="black" points="288.5,-1667.4 292.5,-1667.4 292.5,-1663.4 288.5,-1663.4 "/>
<text text-anchor="middle" x="447" y="-1673.7" font-family="Times,serif" font-size="14.00">SEARCH_FOR_ALTERNATE_WALL_CELLS</text>
</a>
</g>
</g>
<!-- beginDO_DO_8aab3c0&#45;&gt;CALL_8aab140 -->
<g id="edge14" class="edge">
<title>beginDO_DO_8aab3c0&#45;&gt;CALL_8aab140</title>
<path fill="none" stroke="black" d="M447,-1731.25C447,-1729.77 447,-1717.72 447,-1705.5"/>
<polygon fill="black" stroke="black" points="450.5,-1705.42 447,-1695.42 443.5,-1705.42 450.5,-1705.42"/>
</g>
<!-- endDO_DO_8aab3c0 -->
<g id="node22" class="node">
<title>endDO_DO_8aab3c0</title>
<ellipse fill="black" stroke="black" cx="447" cy="-1623.04" rx="0.36" ry="0.36"/>
</g>
<!-- beginDO_DO_8aadd40 -->
<g id="node24" class="node">
<title>beginDO_DO_8aadd40</title>
<ellipse fill="black" stroke="black" cx="447" cy="-1575.32" rx="0.36" ry="0.36"/>
</g>
<!-- endDO_DO_8aab3c0&#45;&gt;beginDO_DO_8aadd40 -->
<g id="edge18" class="edge">
<title>endDO_DO_8aab3c0&#45;&gt;beginDO_DO_8aadd40</title>
<path fill="none" stroke="black" d="M447,-1621.91C447,-1619.31 447,-1578.96 447,-1576.44"/>
</g>
<!-- CALL_8aab140&#45;&gt;endDO_DO_8aab3c0 -->
<g id="edge16" class="edge">
<title>CALL_8aab140&#45;&gt;endDO_DO_8aab3c0</title>
<path fill="none" stroke="black" d="M447,-1659.34C447,-1644.33 447,-1624.67 447,-1623.46"/>
</g>
<!-- CALL_8aadb20 -->
<g id="node26" class="node">
<title>CALL_8aadb20</title>
<g id="a_node26"><a xlink:href="SEARCH_FOR_ALTERNATE_WALL_CELLS.svg" xlink:title="SEARCH_FOR_ALTERNATE_WALL_CELLS">
<polygon fill="lightgray" stroke="black" points="605.5,-1538.96 288.5,-1538.96 288.5,-1534.96 284.5,-1534.96 284.5,-1530.96 288.5,-1530.96 288.5,-1510.96 284.5,-1510.96 284.5,-1506.96 288.5,-1506.96 288.5,-1502.96 605.5,-1502.96 605.5,-1538.96"/>
<polyline fill="none" stroke="black" points="288.5,-1534.96 292.5,-1534.96 292.5,-1530.96 288.5,-1530.96 "/>
<polyline fill="none" stroke="black" points="288.5,-1510.96 292.5,-1510.96 292.5,-1506.96 288.5,-1506.96 "/>
<text text-anchor="middle" x="447" y="-1517.26" font-family="Times,serif" font-size="14.00">SEARCH_FOR_ALTERNATE_WALL_CELLS</text>
</a>
</g>
</g>
<!-- beginDO_DO_8aadd40&#45;&gt;CALL_8aadb20 -->
<g id="edge17" class="edge">
<title>beginDO_DO_8aadd40&#45;&gt;CALL_8aadb20</title>
<path fill="none" stroke="black" d="M447,-1574.81C447,-1573.33 447,-1561.28 447,-1549.06"/>
<polygon fill="black" stroke="black" points="450.5,-1548.98 447,-1538.98 443.5,-1548.98 450.5,-1548.98"/>
</g>
<!-- endDO_DO_8aadd40 -->
<g id="node25" class="node">
<title>endDO_DO_8aadd40</title>
<ellipse fill="black" stroke="black" cx="447" cy="-1466.6" rx="0.36" ry="0.36"/>
</g>
<!-- endDO_DO_8aadd40&#45;&gt;endDO_DO_8aae020 -->
<g id="edge21" class="edge">
<title>endDO_DO_8aadd40&#45;&gt;endDO_DO_8aae020</title>
<path fill="none" stroke="black" d="M447,-1465.5C447,-1463.49 447,-1432.28 447,-1430.34"/>
</g>
<!-- CALL_8aadb20&#45;&gt;endDO_DO_8aadd40 -->
<g id="edge19" class="edge">
<title>CALL_8aadb20&#45;&gt;endDO_DO_8aadd40</title>
<path fill="none" stroke="black" d="M447,-1502.9C447,-1487.89 447,-1468.23 447,-1467.02"/>
</g>
<!-- COMMENT_8aba080+1 -->
<g id="node28" class="node">
<title>COMMENT_8aba080+1</title>
<polygon fill="none" stroke="black" points="760,-1319.52 128,-1319.52 128,-1283.52 766,-1283.52 766,-1313.52 760,-1319.52"/>
<polyline fill="none" stroke="black" points="760,-1319.52 760,-1313.52 "/>
<polyline fill="none" stroke="black" points="766,-1313.52 760,-1313.52 "/>
<text text-anchor="middle" x="447" y="-1297.82" font-family="Times,serif" font-size="14.00">Renormalize weighting factors of the alternate, intersecting 1&#45;D heat conduction paths</text>
</g>
<!-- COMMENT_8aae720+1&#45;&gt;COMMENT_8aba080+1 -->
<g id="edge23" class="edge">
<title>COMMENT_8aae720+1&#45;&gt;COMMENT_8aba080+1</title>
<path fill="none" stroke="black" d="M447,-1355.24C447,-1347.49 447,-1338.31 447,-1329.79"/>
<polygon fill="black" stroke="black" points="450.5,-1329.52 447,-1319.52 443.5,-1329.52 450.5,-1329.52"/>
</g>
<!-- COMMENT_8aba080+1&#45;&gt;endDO_DO_8ac3600 -->
<g id="edge25" class="edge">
<title>COMMENT_8aba080+1&#45;&gt;endDO_DO_8ac3600</title>
<path fill="none" stroke="black" d="M447,-1283.46C447,-1268.45 447,-1248.79 447,-1247.58"/>
</g>
<!-- beginDO_DO_8aadee0 -->
<g id="node30" class="node">
<title>beginDO_DO_8aadee0</title>
<ellipse fill="black" stroke="black" cx="447" cy="-1098.72" rx="0.36" ry="0.36"/>
</g>
<!-- COMMENT_8aa48a0+1&#45;&gt;beginDO_DO_8aadee0 -->
<g id="edge48" class="edge">
<title>COMMENT_8aa48a0+1&#45;&gt;beginDO_DO_8aadee0</title>
<path fill="none" stroke="black" d="M447,-1137.87C447,-1122.12 447,-1101.08 447,-1099.78"/>
</g>
<!-- COMMENT_8ade740+1 -->
<g id="node32" class="node">
<title>COMMENT_8ade740+1</title>
<polygon fill="none" stroke="black" points="653.5,-1062.36 234.5,-1062.36 234.5,-1026.36 659.5,-1026.36 659.5,-1056.36 653.5,-1062.36"/>
<polyline fill="none" stroke="black" points="653.5,-1062.36 653.5,-1056.36 "/>
<polyline fill="none" stroke="black" points="659.5,-1056.36 653.5,-1056.36 "/>
<text text-anchor="middle" x="447" y="-1040.66" font-family="Times,serif" font-size="14.00">Loop over the internal nodes of the primary thin wall cell</text>
</g>
<!-- beginDO_DO_8aadee0&#45;&gt;COMMENT_8ade740+1 -->
<g id="edge29" class="edge">
<title>beginDO_DO_8aadee0&#45;&gt;COMMENT_8ade740+1</title>
<path fill="none" stroke="black" d="M447,-1098.21C447,-1096.73 447,-1084.68 447,-1072.46"/>
<polygon fill="black" stroke="black" points="450.5,-1072.38 447,-1062.38 443.5,-1072.38 450.5,-1072.38"/>
</g>
<!-- endDO_DO_8aadee0 -->
<g id="node31" class="node">
<title>endDO_DO_8aadee0</title>
<ellipse fill="black" stroke="black" cx="447" cy="-73.36" rx="0.36" ry="0.36"/>
</g>
<!-- end_SUBPROGRAM_7df54c0 -->
<g id="node51" class="node">
<title>end_SUBPROGRAM_7df54c0</title>
<ellipse fill="black" stroke="black" cx="447" cy="-30" rx="7" ry="7"/>
</g>
<!-- endDO_DO_8aadee0&#45;&gt;end_SUBPROGRAM_7df54c0 -->
<g id="edge50" class="edge">
<title>endDO_DO_8aadee0&#45;&gt;end_SUBPROGRAM_7df54c0</title>
<path fill="none" stroke="black" d="M447,-72.24C447,-70.89 447,-58.27 447,-47.34"/>
<polygon fill="black" stroke="black" points="450.5,-47.1 447,-37.1 443.5,-47.1 450.5,-47.1"/>
</g>
<!-- beginDO_DO_7d95780 -->
<g id="node33" class="node">
<title>beginDO_DO_7d95780</title>
<ellipse fill="black" stroke="black" cx="447" cy="-987" rx="0.36" ry="0.36"/>
</g>
<!-- COMMENT_8ade740+1&#45;&gt;beginDO_DO_7d95780 -->
<g id="edge46" class="edge">
<title>COMMENT_8ade740+1&#45;&gt;beginDO_DO_7d95780</title>
<path fill="none" stroke="black" d="M447,-1026.15C447,-1010.4 447,-989.36 447,-988.06"/>
</g>
<!-- beginDO_DO_8af2140 -->
<g id="node35" class="node">
<title>beginDO_DO_8af2140</title>
<ellipse fill="black" stroke="black" cx="447" cy="-947.28" rx="0.36" ry="0.36"/>
</g>
<!-- beginDO_DO_7d95780&#45;&gt;beginDO_DO_8af2140 -->
<g id="edge31" class="edge">
<title>beginDO_DO_7d95780&#45;&gt;beginDO_DO_8af2140</title>
<path fill="none" stroke="black" d="M447,-986.53C447,-984.35 447,-950.5 447,-948.38"/>
</g>
<!-- endDO_DO_7d95780 -->
<g id="node34" class="node">
<title>endDO_DO_7d95780</title>
<ellipse fill="black" stroke="black" cx="447" cy="-110.08" rx="0.36" ry="0.36"/>
</g>
<!-- endDO_DO_7d95780&#45;&gt;endDO_DO_8aadee0 -->
<g id="edge49" class="edge">
<title>endDO_DO_7d95780&#45;&gt;endDO_DO_8aadee0</title>
<path fill="none" stroke="black" d="M447,-108.98C447,-106.97 447,-75.76 447,-73.82"/>
</g>
<!-- CALL_8af21c0 -->
<g id="node37" class="node">
<title>CALL_8af21c0</title>
<g id="a_node37"><a xlink:href="SEARCH_FOR_ALTERNATE_WALL_CELLS.svg" xlink:title="SEARCH_FOR_ALTERNATE_WALL_CELLS">
<polygon fill="lightgray" stroke="black" points="605.5,-910.92 288.5,-910.92 288.5,-906.92 284.5,-906.92 284.5,-902.92 288.5,-902.92 288.5,-882.92 284.5,-882.92 284.5,-878.92 288.5,-878.92 288.5,-874.92 605.5,-874.92 605.5,-910.92"/>
<polyline fill="none" stroke="black" points="288.5,-906.92 292.5,-906.92 292.5,-902.92 288.5,-902.92 "/>
<polyline fill="none" stroke="black" points="288.5,-882.92 292.5,-882.92 292.5,-878.92 288.5,-878.92 "/>
<text text-anchor="middle" x="447" y="-889.22" font-family="Times,serif" font-size="14.00">SEARCH_FOR_ALTERNATE_WALL_CELLS</text>
</a>
</g>
</g>
<!-- beginDO_DO_8af2140&#45;&gt;CALL_8af21c0 -->
<g id="edge30" class="edge">
<title>beginDO_DO_8af2140&#45;&gt;CALL_8af21c0</title>
<path fill="none" stroke="black" d="M447,-946.77C447,-945.29 447,-933.24 447,-921.02"/>
<polygon fill="black" stroke="black" points="450.5,-920.94 447,-910.94 443.5,-920.94 450.5,-920.94"/>
</g>
<!-- endDO_DO_8af2140 -->
<g id="node36" class="node">
<title>endDO_DO_8af2140</title>
<ellipse fill="black" stroke="black" cx="447" cy="-838.56" rx="0.36" ry="0.36"/>
</g>
<!-- beginDO_DO_8af3a60 -->
<g id="node38" class="node">
<title>beginDO_DO_8af3a60</title>
<ellipse fill="black" stroke="black" cx="447" cy="-790.84" rx="0.36" ry="0.36"/>
</g>
<!-- endDO_DO_8af2140&#45;&gt;beginDO_DO_8af3a60 -->
<g id="edge34" class="edge">
<title>endDO_DO_8af2140&#45;&gt;beginDO_DO_8af3a60</title>
<path fill="none" stroke="black" d="M447,-837.43C447,-834.83 447,-794.48 447,-791.96"/>
</g>
<!-- CALL_8af21c0&#45;&gt;endDO_DO_8af2140 -->
<g id="edge32" class="edge">
<title>CALL_8af21c0&#45;&gt;endDO_DO_8af2140</title>
<path fill="none" stroke="black" d="M447,-874.86C447,-859.85 447,-840.19 447,-838.98"/>
</g>
<!-- CALL_8af3780 -->
<g id="node40" class="node">
<title>CALL_8af3780</title>
<g id="a_node40"><a xlink:href="SEARCH_FOR_ALTERNATE_WALL_CELLS.svg" xlink:title="SEARCH_FOR_ALTERNATE_WALL_CELLS">
<polygon fill="lightgray" stroke="black" points="605.5,-754.48 288.5,-754.48 288.5,-750.48 284.5,-750.48 284.5,-746.48 288.5,-746.48 288.5,-726.48 284.5,-726.48 284.5,-722.48 288.5,-722.48 288.5,-718.48 605.5,-718.48 605.5,-754.48"/>
<polyline fill="none" stroke="black" points="288.5,-750.48 292.5,-750.48 292.5,-746.48 288.5,-746.48 "/>
<polyline fill="none" stroke="black" points="288.5,-726.48 292.5,-726.48 292.5,-722.48 288.5,-722.48 "/>
<text text-anchor="middle" x="447" y="-732.78" font-family="Times,serif" font-size="14.00">SEARCH_FOR_ALTERNATE_WALL_CELLS</text>
</a>
</g>
</g>
<!-- beginDO_DO_8af3a60&#45;&gt;CALL_8af3780 -->
<g id="edge33" class="edge">
<title>beginDO_DO_8af3a60&#45;&gt;CALL_8af3780</title>
<path fill="none" stroke="black" d="M447,-790.33C447,-788.85 447,-776.8 447,-764.58"/>
<polygon fill="black" stroke="black" points="450.5,-764.5 447,-754.5 443.5,-764.5 450.5,-764.5"/>
</g>
<!-- endDO_DO_8af3a60 -->
<g id="node39" class="node">
<title>endDO_DO_8af3a60</title>
<ellipse fill="black" stroke="black" cx="447" cy="-682.12" rx="0.36" ry="0.36"/>
</g>
<!-- beginDO_DO_8aefe20 -->
<g id="node41" class="node">
<title>beginDO_DO_8aefe20</title>
<ellipse fill="black" stroke="black" cx="447" cy="-634.4" rx="0.36" ry="0.36"/>
</g>
<!-- endDO_DO_8af3a60&#45;&gt;beginDO_DO_8aefe20 -->
<g id="edge42" class="edge">
<title>endDO_DO_8af3a60&#45;&gt;beginDO_DO_8aefe20</title>
<path fill="none" stroke="black" d="M447,-680.99C447,-678.39 447,-638.04 447,-635.52"/>
</g>
<!-- CALL_8af3780&#45;&gt;endDO_DO_8af3a60 -->
<g id="edge35" class="edge">
<title>CALL_8af3780&#45;&gt;endDO_DO_8af3a60</title>
<path fill="none" stroke="black" d="M447,-718.42C447,-703.41 447,-683.75 447,-682.54"/>
</g>
<!-- beginDO_DO_8af70a0 -->
<g id="node43" class="node">
<title>beginDO_DO_8af70a0</title>
<ellipse fill="black" stroke="black" cx="447" cy="-594.68" rx="0.36" ry="0.36"/>
</g>
<!-- beginDO_DO_8aefe20&#45;&gt;beginDO_DO_8af70a0 -->
<g id="edge37" class="edge">
<title>beginDO_DO_8aefe20&#45;&gt;beginDO_DO_8af70a0</title>
<path fill="none" stroke="black" d="M447,-633.93C447,-631.75 447,-597.9 447,-595.78"/>
</g>
<!-- endDO_DO_8aefe20 -->
<g id="node42" class="node">
<title>endDO_DO_8aefe20</title>
<ellipse fill="black" stroke="black" cx="447" cy="-292.8" rx="0.36" ry="0.36"/>
</g>
<!-- COMMENT_8afa280+1 -->
<g id="node49" class="node">
<title>COMMENT_8afa280+1</title>
<polygon fill="none" stroke="black" points="771.5,-256.44 116.5,-256.44 116.5,-218.44 777.5,-218.44 777.5,-250.44 771.5,-256.44"/>
<polyline fill="none" stroke="black" points="771.5,-256.44 771.5,-250.44 "/>
<polyline fill="none" stroke="black" points="777.5,-250.44 771.5,-250.44 "/>
<text text-anchor="middle" x="447" y="-241.24" font-family="Times,serif" font-size="14.00">Check to see if the HT3D solid object spans the entire width of the computational domain.</text>
<text text-anchor="middle" x="447" y="-226.24" font-family="Times,serif" font-size="14.00">There must be at least one exposed surface cell in each coordinate direction.</text>
</g>
<!-- endDO_DO_8aefe20&#45;&gt;COMMENT_8afa280+1 -->
<g id="edge44" class="edge">
<title>endDO_DO_8aefe20&#45;&gt;COMMENT_8afa280+1</title>
<path fill="none" stroke="black" d="M447,-291.65C447,-290.2 447,-278.72 447,-266.8"/>
<polygon fill="black" stroke="black" points="450.5,-266.44 447,-256.44 443.5,-266.44 450.5,-266.44"/>
</g>
<!-- CALL_8af6ea0 -->
<g id="node45" class="node">
<title>CALL_8af6ea0</title>
<g id="a_node45"><a xlink:href="SEARCH_FOR_ALTERNATE_WALL_CELLS.svg" xlink:title="SEARCH_FOR_ALTERNATE_WALL_CELLS">
<polygon fill="lightgray" stroke="black" points="605.5,-558.32 288.5,-558.32 288.5,-554.32 284.5,-554.32 284.5,-550.32 288.5,-550.32 288.5,-530.32 284.5,-530.32 284.5,-526.32 288.5,-526.32 288.5,-522.32 605.5,-522.32 605.5,-558.32"/>
<polyline fill="none" stroke="black" points="288.5,-554.32 292.5,-554.32 292.5,-550.32 288.5,-550.32 "/>
<polyline fill="none" stroke="black" points="288.5,-530.32 292.5,-530.32 292.5,-526.32 288.5,-526.32 "/>
<text text-anchor="middle" x="447" y="-536.62" font-family="Times,serif" font-size="14.00">SEARCH_FOR_ALTERNATE_WALL_CELLS</text>
</a>
</g>
</g>
<!-- beginDO_DO_8af70a0&#45;&gt;CALL_8af6ea0 -->
<g id="edge36" class="edge">
<title>beginDO_DO_8af70a0&#45;&gt;CALL_8af6ea0</title>
<path fill="none" stroke="black" d="M447,-594.17C447,-592.69 447,-580.64 447,-568.42"/>
<polygon fill="black" stroke="black" points="450.5,-568.34 447,-558.34 443.5,-568.34 450.5,-568.34"/>
</g>
<!-- endDO_DO_8af70a0 -->
<g id="node44" class="node">
<title>endDO_DO_8af70a0</title>
<ellipse fill="black" stroke="black" cx="447" cy="-485.96" rx="0.36" ry="0.36"/>
</g>
<!-- beginDO_DO_8af2280 -->
<g id="node46" class="node">
<title>beginDO_DO_8af2280</title>
<ellipse fill="black" stroke="black" cx="447" cy="-438.24" rx="0.36" ry="0.36"/>
</g>
<!-- endDO_DO_8af70a0&#45;&gt;beginDO_DO_8af2280 -->
<g id="edge40" class="edge">
<title>endDO_DO_8af70a0&#45;&gt;beginDO_DO_8af2280</title>
<path fill="none" stroke="black" d="M447,-484.83C447,-482.23 447,-441.88 447,-439.36"/>
</g>
<!-- CALL_8af6ea0&#45;&gt;endDO_DO_8af70a0 -->
<g id="edge38" class="edge">
<title>CALL_8af6ea0&#45;&gt;endDO_DO_8af70a0</title>
<path fill="none" stroke="black" d="M447,-522.26C447,-507.25 447,-487.59 447,-486.38"/>
</g>
<!-- CALL_8af97a0 -->
<g id="node48" class="node">
<title>CALL_8af97a0</title>
<g id="a_node48"><a xlink:href="SEARCH_FOR_ALTERNATE_WALL_CELLS.svg" xlink:title="SEARCH_FOR_ALTERNATE_WALL_CELLS">
<polygon fill="lightgray" stroke="black" points="605.5,-401.88 288.5,-401.88 288.5,-397.88 284.5,-397.88 284.5,-393.88 288.5,-393.88 288.5,-373.88 284.5,-373.88 284.5,-369.88 288.5,-369.88 288.5,-365.88 605.5,-365.88 605.5,-401.88"/>
<polyline fill="none" stroke="black" points="288.5,-397.88 292.5,-397.88 292.5,-393.88 288.5,-393.88 "/>
<polyline fill="none" stroke="black" points="288.5,-373.88 292.5,-373.88 292.5,-369.88 288.5,-369.88 "/>
<text text-anchor="middle" x="447" y="-380.18" font-family="Times,serif" font-size="14.00">SEARCH_FOR_ALTERNATE_WALL_CELLS</text>
</a>
</g>
</g>
<!-- beginDO_DO_8af2280&#45;&gt;CALL_8af97a0 -->
<g id="edge39" class="edge">
<title>beginDO_DO_8af2280&#45;&gt;CALL_8af97a0</title>
<path fill="none" stroke="black" d="M447,-437.73C447,-436.25 447,-424.2 447,-411.98"/>
<polygon fill="black" stroke="black" points="450.5,-411.9 447,-401.9 443.5,-411.9 450.5,-411.9"/>
</g>
<!-- endDO_DO_8af2280 -->
<g id="node47" class="node">
<title>endDO_DO_8af2280</title>
<ellipse fill="black" stroke="black" cx="447" cy="-329.52" rx="0.36" ry="0.36"/>
</g>
<!-- endDO_DO_8af2280&#45;&gt;endDO_DO_8aefe20 -->
<g id="edge43" class="edge">
<title>endDO_DO_8af2280&#45;&gt;endDO_DO_8aefe20</title>
<path fill="none" stroke="black" d="M447,-328.42C447,-326.41 447,-295.2 447,-293.26"/>
</g>
<!-- CALL_8af97a0&#45;&gt;endDO_DO_8af2280 -->
<g id="edge41" class="edge">
<title>CALL_8af97a0&#45;&gt;endDO_DO_8af2280</title>
<path fill="none" stroke="black" d="M447,-365.82C447,-350.81 447,-331.15 447,-329.94"/>
</g>
<!-- COMMENT_7d83700+1 -->
<g id="node50" class="node">
<title>COMMENT_7d83700+1</title>
<polygon fill="none" stroke="black" points="694.5,-182.44 193.5,-182.44 193.5,-146.44 700.5,-146.44 700.5,-176.44 694.5,-182.44"/>
<polyline fill="none" stroke="black" points="694.5,-182.44 694.5,-176.44 "/>
<polyline fill="none" stroke="black" points="700.5,-176.44 694.5,-176.44 "/>
<text text-anchor="middle" x="447" y="-160.74" font-family="Times,serif" font-size="14.00">Renormalize the weighting factors for the temperature interpolation</text>
</g>
<!-- COMMENT_8afa280+1&#45;&gt;COMMENT_7d83700+1 -->
<g id="edge45" class="edge">
<title>COMMENT_8afa280+1&#45;&gt;COMMENT_7d83700+1</title>
<path fill="none" stroke="black" d="M447,-218.16C447,-210.41 447,-201.23 447,-192.71"/>
<polygon fill="black" stroke="black" points="450.5,-192.44 447,-182.44 443.5,-192.44 450.5,-192.44"/>
</g>
<!-- COMMENT_7d83700+1&#45;&gt;endDO_DO_7d95780 -->
<g id="edge47" class="edge">
<title>COMMENT_7d83700+1&#45;&gt;endDO_DO_7d95780</title>
<path fill="none" stroke="black" d="M447,-146.38C447,-131.37 447,-111.71 447,-110.5"/>
</g>
</g>
</svg>
