<?xml version="1.0" encoding="UTF-8" standalone="no"?>
<!DOCTYPE svg PUBLIC "-//W3C//DTD SVG 1.1//EN"
 "http://www.w3.org/Graphics/SVG/1.1/DTD/svg11.dtd">
<!-- Generated by graphviz version 2.43.0 (0)
 -->
<!-- Title: INITIALIZE_DEVICES Pages: 1 -->
<svg width="506pt" height="388pt"
 viewBox="0.00 0.00 506.00 388.00" xmlns="http://www.w3.org/2000/svg" xmlns:xlink="http://www.w3.org/1999/xlink">
<g id="graph0" class="graph" transform="scale(1 1) rotate(0) translate(4 384)">
<title>INITIALIZE_DEVICES</title>
<polygon fill="white" stroke="transparent" points="-4,4 -4,-384 502,-384 502,4 -4,4"/>
<text text-anchor="middle" x="249" y="-7.8" font-family="Times,serif" font-size="14.00">INITIALIZE_DEVICES</text>
<g id="clust1" class="cluster">
<title>cluster_DEVICE_LOOP</title>
<polygon fill="none" stroke="orange" points="43,-65 43,-284 455,-284 455,-65 43,-65"/>
<text text-anchor="middle" x="104" y="-268.8" font-family="Times,serif" font-size="14.00">DEVICE_LOOP</text>
</g>
<!-- start_SUBPROGRAM_8919c20 -->
<g id="node1" class="node">
<title>start_SUBPROGRAM_8919c20</title>
<ellipse fill="none" stroke="black" cx="249" cy="-373" rx="7" ry="7"/>
</g>
<!-- COMMENT_87f1880+1 -->
<g id="node2" class="node">
<title>COMMENT_87f1880+1</title>
<polygon fill="none" stroke="black" points="492,-330 0,-330 0,-292 498,-292 498,-324 492,-330"/>
<polyline fill="none" stroke="black" points="492,-330 492,-324 "/>
<polyline fill="none" stroke="black" points="498,-324 492,-324 "/>
<text text-anchor="middle" x="249" y="-314.8" font-family="Times,serif" font-size="14.00">!&gt; brief Find the WALL_INDEX for a device that is near a solid wall</text>
<text text-anchor="middle" x="249" y="-299.8" font-family="Times,serif" font-size="14.00">!&gt; param NM Mesh number</text>
</g>
<!-- start_SUBPROGRAM_8919c20&#45;&gt;COMMENT_87f1880+1 -->
<g id="edge1" class="edge">
<title>start_SUBPROGRAM_8919c20&#45;&gt;COMMENT_87f1880+1</title>
<path fill="none" stroke="black" d="M249,-365.58C249,-359.41 249,-349.64 249,-340.12"/>
<polygon fill="black" stroke="black" points="252.5,-340.08 249,-330.08 245.5,-340.08 252.5,-340.08"/>
</g>
<!-- CALL_8906320 -->
<g id="node3" class="node">
<title>CALL_8906320</title>
<g id="a_node3"><a xlink:href="GET_WALL_INDEX.svg" xlink:title="GET_WALL_INDEX">
<polygon fill="lightgray" stroke="black" points="324.5,-253 173.5,-253 173.5,-249 169.5,-249 169.5,-245 173.5,-245 173.5,-225 169.5,-225 169.5,-221 173.5,-221 173.5,-217 324.5,-217 324.5,-253"/>
<polyline fill="none" stroke="black" points="173.5,-249 177.5,-249 177.5,-245 173.5,-245 "/>
<polyline fill="none" stroke="black" points="173.5,-225 177.5,-225 177.5,-221 173.5,-221 "/>
<text text-anchor="middle" x="249" y="-231.3" font-family="Times,serif" font-size="14.00">GET_WALL_INDEX</text>
</a>
</g>
</g>
<!-- COMMENT_87f1880+1&#45;&gt;CALL_8906320 -->
<g id="edge4" class="edge">
<title>COMMENT_87f1880+1&#45;&gt;CALL_8906320</title>
<path fill="none" stroke="black" d="M249,-291.71C249,-283.13 249,-272.72 249,-263.24"/>
<polygon fill="black" stroke="black" points="252.5,-263.07 249,-253.07 245.5,-263.07 252.5,-263.07"/>
</g>
<!-- CALL_8908e00 -->
<g id="node4" class="node">
<title>CALL_8908e00</title>
<g id="a_node4"><a xlink:href="GET_CFACE_INDEX.svg" xlink:title="GET_CFACE_INDEX">
<polygon fill="lightgray" stroke="black" points="328.5,-181 169.5,-181 169.5,-177 165.5,-177 165.5,-173 169.5,-173 169.5,-153 165.5,-153 165.5,-149 169.5,-149 169.5,-145 328.5,-145 328.5,-181"/>
<polyline fill="none" stroke="black" points="169.5,-177 173.5,-177 173.5,-173 169.5,-173 "/>
<polyline fill="none" stroke="black" points="169.5,-153 173.5,-153 173.5,-149 169.5,-149 "/>
<text text-anchor="middle" x="249" y="-159.3" font-family="Times,serif" font-size="14.00">GET_CFACE_INDEX</text>
</a>
</g>
</g>
<!-- CALL_8906320&#45;&gt;CALL_8908e00 -->
<g id="edge2" class="edge">
<title>CALL_8906320&#45;&gt;CALL_8908e00</title>
<path fill="none" stroke="black" d="M249,-216.7C249,-208.98 249,-199.71 249,-191.11"/>
<polygon fill="black" stroke="black" points="252.5,-191.1 249,-181.1 245.5,-191.1 252.5,-191.1"/>
</g>
<!-- COMMENT_8910200+1 -->
<g id="node5" class="node">
<title>COMMENT_8910200+1</title>
<polygon fill="none" stroke="black" points="440.5,-109 51.5,-109 51.5,-73 446.5,-73 446.5,-103 440.5,-109"/>
<polyline fill="none" stroke="black" points="440.5,-109 440.5,-103 "/>
<polyline fill="none" stroke="black" points="446.5,-103 440.5,-103 "/>
<text text-anchor="middle" x="249" y="-87.3" font-family="Times,serif" font-size="14.00">Make sure that thermally&#45;thick output is appropriate</text>
</g>
<!-- CALL_8908e00&#45;&gt;COMMENT_8910200+1 -->
<g id="edge3" class="edge">
<title>CALL_8908e00&#45;&gt;COMMENT_8910200+1</title>
<path fill="none" stroke="black" d="M249,-144.7C249,-136.98 249,-127.71 249,-119.11"/>
<polygon fill="black" stroke="black" points="252.5,-119.1 249,-109.1 245.5,-119.1 252.5,-119.1"/>
</g>
<!-- end_SUBPROGRAM_8919c20 -->
<g id="node6" class="node">
<title>end_SUBPROGRAM_8919c20</title>
<ellipse fill="black" stroke="black" cx="249" cy="-30" rx="7" ry="7"/>
</g>
<!-- COMMENT_8910200+1&#45;&gt;end_SUBPROGRAM_8919c20 -->
<g id="edge5" class="edge">
<title>COMMENT_8910200+1&#45;&gt;end_SUBPROGRAM_8919c20</title>
<path fill="none" stroke="black" d="M249,-72.93C249,-64.89 249,-55.33 249,-47.37"/>
<polygon fill="black" stroke="black" points="252.5,-47.22 249,-37.22 245.5,-47.22 252.5,-47.22"/>
</g>
</g>
</svg>
