<?xml version="1.0" encoding="UTF-8" standalone="no"?>
<!DOCTYPE svg PUBLIC "-//W3C//DTD SVG 1.1//EN"
 "http://www.w3.org/Graphics/SVG/1.1/DTD/svg11.dtd">
<!-- Generated by graphviz version 2.43.0 (0)
 -->
<!-- Title: INITIALIZE_MESH_EXCHANGE_1 Pages: 1 -->
<svg width="1070pt" height="1406pt"
 viewBox="0.00 0.00 1070.00 1406.00" xmlns="http://www.w3.org/2000/svg" xmlns:xlink="http://www.w3.org/1999/xlink">
<g id="graph0" class="graph" transform="scale(1 1) rotate(0) translate(4 1402)">
<title>INITIALIZE_MESH_EXCHANGE_1</title>
<polygon fill="white" stroke="transparent" points="-4,4 -4,-1402 1066,-1402 1066,4 -4,4"/>
<text text-anchor="middle" x="531" y="-7.8" font-family="Times,serif" font-size="14.00">INITIALIZE_MESH_EXCHANGE_1</text>
<g id="clust1" class="cluster">
<title>cluster_OTHER_MESH_LOOP</title>
<polygon fill="none" stroke="orange" points="8,-497 8,-1304 1054,-1304 1054,-497 8,-497"/>
<text text-anchor="middle" x="93.5" y="-1288.8" font-family="Times,serif" font-size="14.00">OTHER_MESH_LOOP</text>
</g>
<!-- start_SUBPROGRAM_8d02940 -->
<g id="node1" class="node">
<title>start_SUBPROGRAM_8d02940</title>
<ellipse fill="none" stroke="black" cx="531" cy="-1391" rx="7" ry="7"/>
</g>
<!-- COMMENT_8d84600+1 -->
<g id="node2" class="node">
<title>COMMENT_8d84600+1</title>
<polygon fill="none" stroke="black" points="786,-1348 270,-1348 270,-1312 792,-1312 792,-1342 786,-1348"/>
<polyline fill="none" stroke="black" points="786,-1348 786,-1342 "/>
<polyline fill="none" stroke="black" points="792,-1342 786,-1342 "/>
<text text-anchor="middle" x="531" y="-1326.3" font-family="Times,serif" font-size="14.00">!&gt; brief Create arrays by which info is to be exchanged across meshes</text>
</g>
<!-- start_SUBPROGRAM_8d02940&#45;&gt;COMMENT_8d84600+1 -->
<g id="edge1" class="edge">
<title>start_SUBPROGRAM_8d02940&#45;&gt;COMMENT_8d84600+1</title>
<path fill="none" stroke="black" d="M531,-1383.69C531,-1377.49 531,-1367.59 531,-1358.05"/>
<polygon fill="black" stroke="black" points="534.5,-1358.02 531,-1348.02 527.5,-1358.02 534.5,-1358.02"/>
</g>
<!-- COMMENT_8d8bce0+1 -->
<g id="node3" class="node">
<title>COMMENT_8d8bce0+1</title>
<polygon fill="none" stroke="black" points="1014.5,-1273 41.5,-1273 41.5,-1160 1020.5,-1160 1020.5,-1267 1014.5,-1273"/>
<polyline fill="none" stroke="black" points="1014.5,-1273 1014.5,-1267 "/>
<polyline fill="none" stroke="black" points="1020.5,-1267 1014.5,-1267 "/>
<text text-anchor="middle" x="531" y="-1257.8" font-family="Times,serif" font-size="14.00">DEFINITION NIC_R: (Number of Interpolated Cells &#45;&#45; Receiving) Number of cells in mesh NOM that abut mesh NM.</text>
<text text-anchor="middle" x="531" y="-1242.8" font-family="Times,serif" font-size="14.00">DEFINITION IIO_R: Array of length NIC_R of I indices of the abutting (outside) cells</text>
<text text-anchor="middle" x="531" y="-1227.8" font-family="Times,serif" font-size="14.00">DEFINITION JJO_R: Array of length NIC_R of J indices of the abutting (outside) cells</text>
<text text-anchor="middle" x="531" y="-1212.8" font-family="Times,serif" font-size="14.00">DEFINITION KKO_R: Array of length NIC_R of K indices of the abutting (outside) cells</text>
<text text-anchor="middle" x="531" y="-1197.8" font-family="Times,serif" font-size="14.00">DEFINITION IOR_R: Array of length NIC_R of orientation of the external boundary cell</text>
<text text-anchor="middle" x="531" y="-1182.8" font-family="Times,serif" font-size="14.00">DEFINITION NIC_MIN: For external wall cell IW of mesh NM, the indices of abutting cells start with NIC_MIN and end with NIC_MAX</text>
<text text-anchor="middle" x="531" y="-1167.8" font-family="Times,serif" font-size="14.00">DEFINITION NIC_MAX: For external wall cell IW of mesh NM, the indices of abutting cells start with NIC_MIN and end with NIC_MAX</text>
</g>
<!-- COMMENT_8d84600+1&#45;&gt;COMMENT_8d8bce0+1 -->
<g id="edge10" class="edge">
<title>COMMENT_8d84600+1&#45;&gt;COMMENT_8d8bce0+1</title>
<path fill="none" stroke="black" d="M531,-1311.58C531,-1303.69 531,-1293.81 531,-1283.45"/>
<polygon fill="black" stroke="black" points="534.5,-1283.41 531,-1273.41 527.5,-1283.41 534.5,-1283.41"/>
</g>
<!-- DO_8d9fb80 -->
<g id="node4" class="node">
<title>DO_8d9fb80</title>
<polygon fill="none" stroke="orange" points="595,-1124 467,-1124 467,-1088 595,-1088 595,-1124"/>
<text text-anchor="middle" x="531" y="-1102.3" font-family="Times,serif" font-size="14.00">SEARCH_LOOP</text>
</g>
<!-- COMMENT_8d8bce0+1&#45;&gt;DO_8d9fb80 -->
<g id="edge2" class="edge">
<title>COMMENT_8d8bce0+1&#45;&gt;DO_8d9fb80</title>
<path fill="none" stroke="black" d="M531,-1159.98C531,-1151.19 531,-1142.45 531,-1134.67"/>
<polygon fill="black" stroke="black" points="534.5,-1134.42 531,-1124.42 527.5,-1134.42 534.5,-1134.42"/>
</g>
<!-- COMMENT_8dac840+1 -->
<g id="node5" class="node">
<title>COMMENT_8dac840+1</title>
<polygon fill="none" stroke="black" points="744.5,-1052 311.5,-1052 311.5,-1016 750.5,-1016 750.5,-1046 744.5,-1052"/>
<polyline fill="none" stroke="black" points="744.5,-1052 744.5,-1046 "/>
<polyline fill="none" stroke="black" points="750.5,-1046 744.5,-1046 "/>
<text text-anchor="middle" x="531" y="-1030.3" font-family="Times,serif" font-size="14.00">Allocate arrays to hold indices of arrays for MPI exchanges</text>
</g>
<!-- DO_8d9fb80&#45;&gt;COMMENT_8dac840+1 -->
<g id="edge3" class="edge">
<title>DO_8d9fb80&#45;&gt;COMMENT_8dac840+1</title>
<path fill="none" stroke="black" d="M531,-1087.7C531,-1079.98 531,-1070.71 531,-1062.11"/>
<polygon fill="black" stroke="black" points="534.5,-1062.1 531,-1052.1 527.5,-1062.1 534.5,-1062.1"/>
</g>
<!-- DO_8db8860 -->
<g id="node6" class="node">
<title>DO_8db8860</title>
<polygon fill="none" stroke="orange" points="587.5,-980 474.5,-980 474.5,-944 587.5,-944 587.5,-980"/>
<text text-anchor="middle" x="531" y="-958.3" font-family="Times,serif" font-size="14.00">INDEX_LOOP</text>
</g>
<!-- COMMENT_8dac840+1&#45;&gt;DO_8db8860 -->
<g id="edge4" class="edge">
<title>COMMENT_8dac840+1&#45;&gt;DO_8db8860</title>
<path fill="none" stroke="black" d="M531,-1015.7C531,-1007.98 531,-998.71 531,-990.11"/>
<polygon fill="black" stroke="black" points="534.5,-990.1 531,-980.1 527.5,-990.1 534.5,-990.1"/>
</g>
<!-- COMMENT_8db8600+1 -->
<g id="node7" class="node">
<title>COMMENT_8db8600+1</title>
<polygon fill="none" stroke="black" points="818.5,-908 237.5,-908 237.5,-872 824.5,-872 824.5,-902 818.5,-908"/>
<polyline fill="none" stroke="black" points="818.5,-908 818.5,-902 "/>
<polyline fill="none" stroke="black" points="824.5,-902 818.5,-902 "/>
<text text-anchor="middle" x="531" y="-886.3" font-family="Times,serif" font-size="14.00">For a single mesh with PERIODIC boundaries, allocate the entire OMESH array</text>
</g>
<!-- DO_8db8860&#45;&gt;COMMENT_8db8600+1 -->
<g id="edge5" class="edge">
<title>DO_8db8860&#45;&gt;COMMENT_8db8600+1</title>
<path fill="none" stroke="black" d="M531,-943.7C531,-935.98 531,-926.71 531,-918.11"/>
<polygon fill="black" stroke="black" points="534.5,-918.1 531,-908.1 527.5,-918.1 534.5,-918.1"/>
</g>
<!-- COMMENT_8daddc0+1 -->
<g id="node8" class="node">
<title>COMMENT_8daddc0+1</title>
<polygon fill="none" stroke="black" points="1039.5,-836 16.5,-836 16.5,-798 1045.5,-798 1045.5,-830 1039.5,-836"/>
<polyline fill="none" stroke="black" points="1039.5,-836 1039.5,-830 "/>
<polyline fill="none" stroke="black" points="1045.5,-830 1039.5,-830 "/>
<text text-anchor="middle" x="531" y="-820.8" font-family="Times,serif" font-size="14.00">Embedded meshes. This is the case where mesh NOM is completely inside mesh NM. Mesh NM cannot &quot;see&quot; mesh NOM because mesh NOM</text>
<text text-anchor="middle" x="531" y="-805.8" font-family="Times,serif" font-size="14.00">is not connected at the external boundary of mesh NM. The variable CONNECTED_MESH is needed to save this information.</text>
</g>
<!-- COMMENT_8db8600+1&#45;&gt;COMMENT_8daddc0+1 -->
<g id="edge6" class="edge">
<title>COMMENT_8db8600+1&#45;&gt;COMMENT_8daddc0+1</title>
<path fill="none" stroke="black" d="M531,-871.81C531,-864.11 531,-854.82 531,-846.15"/>
<polygon fill="black" stroke="black" points="534.5,-846.02 531,-836.02 527.5,-846.02 534.5,-846.02"/>
</g>
<!-- COMMENT_8dbc480+1 -->
<g id="node9" class="node">
<title>COMMENT_8dbc480+1</title>
<polygon fill="none" stroke="black" points="737,-762 319,-762 319,-726 743,-726 743,-756 737,-762"/>
<polyline fill="none" stroke="black" points="737,-762 737,-756 "/>
<polyline fill="none" stroke="black" points="743,-756 737,-756 "/>
<text text-anchor="middle" x="531" y="-740.3" font-family="Times,serif" font-size="14.00">Exit the other mesh loop if no neighboring meshes found</text>
</g>
<!-- COMMENT_8daddc0+1&#45;&gt;COMMENT_8dbc480+1 -->
<g id="edge7" class="edge">
<title>COMMENT_8daddc0+1&#45;&gt;COMMENT_8dbc480+1</title>
<path fill="none" stroke="black" d="M531,-797.72C531,-789.97 531,-780.79 531,-772.27"/>
<polygon fill="black" stroke="black" points="534.5,-772 531,-762 527.5,-772 534.5,-772"/>
</g>
<!-- COMMENT_8dc1cc0+1 -->
<g id="node10" class="node">
<title>COMMENT_8dc1cc0+1</title>
<polygon fill="none" stroke="black" points="992.5,-690 63.5,-690 63.5,-577 998.5,-577 998.5,-684 992.5,-690"/>
<polyline fill="none" stroke="black" points="992.5,-690 992.5,-684 "/>
<polyline fill="none" stroke="black" points="998.5,-684 992.5,-684 "/>
<text text-anchor="middle" x="531" y="-674.8" font-family="Times,serif" font-size="14.00">Save the dimensions of the volume of cells from mesh NOM whose data is received by mesh NM</text>
<text text-anchor="middle" x="531" y="-659.8" font-family="Times,serif" font-size="14.00">DEFINITION I_MIN_R: Starting I index of cell block of mesh NOM whose info is to be received by mesh NM in MPI exchanges.</text>
<text text-anchor="middle" x="531" y="-644.8" font-family="Times,serif" font-size="14.00">DEFINITION I_MAX_R: Ending &#160;&#160;I index of cell block of mesh NOM whose info is to be received by mesh NM in MPI exchanges.</text>
<text text-anchor="middle" x="531" y="-629.8" font-family="Times,serif" font-size="14.00">DEFINITION J_MIN_R: Starting J index of cell block of mesh NOM whose info is to be received by mesh NM in MPI exchanges.</text>
<text text-anchor="middle" x="531" y="-614.8" font-family="Times,serif" font-size="14.00">DEFINITION J_MAX_R: Ending &#160;&#160;J index of cell block of mesh NOM whose info is to be received by mesh NM in MPI exchanges.</text>
<text text-anchor="middle" x="531" y="-599.8" font-family="Times,serif" font-size="14.00">DEFINITION K_MIN_R: Starting K index of cell block of mesh NOM whose info is to be received by mesh NM in MPI exchanges.</text>
<text text-anchor="middle" x="531" y="-584.8" font-family="Times,serif" font-size="14.00">DEFINITION K_MAX_R: Ending &#160;&#160;K index of cell block of mesh NOM whose info is to be received by mesh NM in MPI exchanges.</text>
</g>
<!-- COMMENT_8dbc480+1&#45;&gt;COMMENT_8dc1cc0+1 -->
<g id="edge8" class="edge">
<title>COMMENT_8dbc480+1&#45;&gt;COMMENT_8dc1cc0+1</title>
<path fill="none" stroke="black" d="M531,-725.57C531,-718.44 531,-709.71 531,-700.5"/>
<polygon fill="black" stroke="black" points="534.5,-700.38 531,-690.38 527.5,-700.38 534.5,-700.38"/>
</g>
<!-- COMMENT_8dc1620+1 -->
<g id="node11" class="node">
<title>COMMENT_8dc1620+1</title>
<polygon fill="none" stroke="black" points="802.5,-541 253.5,-541 253.5,-505 808.5,-505 808.5,-535 802.5,-541"/>
<polyline fill="none" stroke="black" points="802.5,-541 802.5,-535 "/>
<polyline fill="none" stroke="black" points="808.5,-535 802.5,-535 "/>
<text text-anchor="middle" x="531" y="-519.3" font-family="Times,serif" font-size="14.00">Allocate the arrays that hold information about the other meshes (OMESH)</text>
</g>
<!-- COMMENT_8dc1cc0+1&#45;&gt;COMMENT_8dc1620+1 -->
<g id="edge9" class="edge">
<title>COMMENT_8dc1cc0+1&#45;&gt;COMMENT_8dc1620+1</title>
<path fill="none" stroke="black" d="M531,-576.98C531,-568.19 531,-559.45 531,-551.67"/>
<polygon fill="black" stroke="black" points="534.5,-551.42 531,-541.42 527.5,-551.42 534.5,-551.42"/>
</g>
<!-- COMMENT_8df4300+1 -->
<g id="node12" class="node">
<title>COMMENT_8df4300+1</title>
<polygon fill="none" stroke="black" points="769.5,-469 286.5,-469 286.5,-433 775.5,-433 775.5,-463 769.5,-469"/>
<polyline fill="none" stroke="black" points="769.5,-469 769.5,-463 "/>
<polyline fill="none" stroke="black" points="775.5,-463 769.5,-463 "/>
<text text-anchor="middle" x="531" y="-447.3" font-family="Times,serif" font-size="14.00">Allocate PARTICLE_STORAGE to hold particle data for a RESTART</text>
</g>
<!-- COMMENT_8dc1620+1&#45;&gt;COMMENT_8df4300+1 -->
<g id="edge11" class="edge">
<title>COMMENT_8dc1620+1&#45;&gt;COMMENT_8df4300+1</title>
<path fill="none" stroke="black" d="M531,-504.7C531,-496.98 531,-487.71 531,-479.11"/>
<polygon fill="black" stroke="black" points="534.5,-479.1 531,-469.1 527.5,-479.1 534.5,-479.1"/>
</g>
<!-- CALL_8df8f20 -->
<g id="node13" class="node">
<title>CALL_8df8f20</title>
<g id="a_node13"><a xlink:href="ALLOCATE_STORAGE.svg" xlink:title="ALLOCATE_STORAGE">
<polygon fill="lightgray" stroke="black" points="617.5,-397 444.5,-397 444.5,-393 440.5,-393 440.5,-389 444.5,-389 444.5,-369 440.5,-369 440.5,-365 444.5,-365 444.5,-361 617.5,-361 617.5,-397"/>
<polyline fill="none" stroke="black" points="444.5,-393 448.5,-393 448.5,-389 444.5,-389 "/>
<polyline fill="none" stroke="black" points="444.5,-369 448.5,-369 448.5,-365 444.5,-365 "/>
<text text-anchor="middle" x="531" y="-375.3" font-family="Times,serif" font-size="14.00">ALLOCATE_STORAGE</text>
</a>
</g>
</g>
<!-- COMMENT_8df4300+1&#45;&gt;CALL_8df8f20 -->
<g id="edge12" class="edge">
<title>COMMENT_8df4300+1&#45;&gt;CALL_8df8f20</title>
<path fill="none" stroke="black" d="M531,-432.7C531,-424.98 531,-415.71 531,-407.11"/>
<polygon fill="black" stroke="black" points="534.5,-407.1 531,-397.1 527.5,-407.1 534.5,-407.1"/>
</g>
<!-- CALL_8dfca40 -->
<g id="node14" class="node">
<title>CALL_8dfca40</title>
<g id="a_node14"><a xlink:href="PACK_PARTICLE.svg" xlink:title="PACK_PARTICLE">
<polygon fill="lightgray" stroke="black" points="598.5,-325 463.5,-325 463.5,-321 459.5,-321 459.5,-317 463.5,-317 463.5,-297 459.5,-297 459.5,-293 463.5,-293 463.5,-289 598.5,-289 598.5,-325"/>
<polyline fill="none" stroke="black" points="463.5,-321 467.5,-321 467.5,-317 463.5,-317 "/>
<polyline fill="none" stroke="black" points="463.5,-297 467.5,-297 467.5,-293 463.5,-293 "/>
<text text-anchor="middle" x="531" y="-303.3" font-family="Times,serif" font-size="14.00">PACK_PARTICLE</text>
</a>
</g>
</g>
<!-- CALL_8df8f20&#45;&gt;CALL_8dfca40 -->
<g id="edge13" class="edge">
<title>CALL_8df8f20&#45;&gt;CALL_8dfca40</title>
<path fill="none" stroke="black" d="M531,-360.7C531,-352.98 531,-343.71 531,-335.11"/>
<polygon fill="black" stroke="black" points="534.5,-335.1 531,-325.1 527.5,-335.1 534.5,-335.1"/>
</g>
<!-- CALL_8dfe8c0 -->
<g id="node15" class="node">
<title>CALL_8dfe8c0</title>
<g id="a_node15"><a xlink:href="NULLIFY_PARTICLE.svg" xlink:title="NULLIFY_PARTICLE">
<polygon fill="lightgray" stroke="black" points="612,-253 450,-253 450,-249 446,-249 446,-245 450,-245 450,-225 446,-225 446,-221 450,-221 450,-217 612,-217 612,-253"/>
<polyline fill="none" stroke="black" points="450,-249 454,-249 454,-245 450,-245 "/>
<polyline fill="none" stroke="black" points="450,-225 454,-225 454,-221 450,-221 "/>
<text text-anchor="middle" x="531" y="-231.3" font-family="Times,serif" font-size="14.00">NULLIFY_PARTICLE</text>
</a>
</g>
</g>
<!-- CALL_8dfca40&#45;&gt;CALL_8dfe8c0 -->
<g id="edge14" class="edge">
<title>CALL_8dfca40&#45;&gt;CALL_8dfe8c0</title>
<path fill="none" stroke="black" d="M531,-288.7C531,-280.98 531,-271.71 531,-263.11"/>
<polygon fill="black" stroke="black" points="534.5,-263.1 531,-253.1 527.5,-263.1 534.5,-263.1"/>
</g>
<!-- COMMENT_8de2800+1 -->
<g id="node16" class="node">
<title>COMMENT_8de2800+1</title>
<polygon fill="none" stroke="black" points="1004.5,-181 51.5,-181 51.5,-145 1010.5,-145 1010.5,-175 1004.5,-181"/>
<polyline fill="none" stroke="black" points="1004.5,-181 1004.5,-175 "/>
<polyline fill="none" stroke="black" points="1010.5,-175 1004.5,-175 "/>
<text text-anchor="middle" x="531" y="-159.3" font-family="Times,serif" font-size="14.00">Allocate SEND_BUFFER to hold particles that leave mesh NM and a RECV_BUFFER for particles entering a NEIGHBORING_MESH</text>
</g>
<!-- CALL_8dfe8c0&#45;&gt;COMMENT_8de2800+1 -->
<g id="edge15" class="edge">
<title>CALL_8dfe8c0&#45;&gt;COMMENT_8de2800+1</title>
<path fill="none" stroke="black" d="M531,-216.7C531,-208.98 531,-199.71 531,-191.11"/>
<polygon fill="black" stroke="black" points="534.5,-191.1 531,-181.1 527.5,-191.1 534.5,-191.1"/>
</g>
<!-- DO_7bd30a0 -->
<g id="node17" class="node">
<title>DO_7bd30a0</title>
<polygon fill="none" stroke="orange" points="646,-109 416,-109 416,-73 646,-73 646,-109"/>
<text text-anchor="middle" x="531" y="-87.3" font-family="Times,serif" font-size="14.00">NEIGHBORING_MESH_LOOP</text>
</g>
<!-- COMMENT_8de2800+1&#45;&gt;DO_7bd30a0 -->
<g id="edge16" class="edge">
<title>COMMENT_8de2800+1&#45;&gt;DO_7bd30a0</title>
<path fill="none" stroke="black" d="M531,-144.7C531,-136.98 531,-127.71 531,-119.11"/>
<polygon fill="black" stroke="black" points="534.5,-119.1 531,-109.1 527.5,-119.1 534.5,-119.1"/>
</g>
<!-- end_SUBPROGRAM_8d02940 -->
<g id="node18" class="node">
<title>end_SUBPROGRAM_8d02940</title>
<ellipse fill="black" stroke="black" cx="531" cy="-30" rx="7" ry="7"/>
</g>
<!-- DO_7bd30a0&#45;&gt;end_SUBPROGRAM_8d02940 -->
<g id="edge17" class="edge">
<title>DO_7bd30a0&#45;&gt;end_SUBPROGRAM_8d02940</title>
<path fill="none" stroke="black" d="M531,-72.93C531,-64.89 531,-55.33 531,-47.37"/>
<polygon fill="black" stroke="black" points="534.5,-47.22 531,-37.22 527.5,-47.22 534.5,-47.22"/>
</g>
</g>
</svg>
