<?xml version="1.0" encoding="UTF-8" standalone="no"?>
<!DOCTYPE svg PUBLIC "-//W3C//DTD SVG 1.1//EN"
 "http://www.w3.org/Graphics/SVG/1.1/DTD/svg11.dtd">
<!-- Generated by graphviz version 2.43.0 (0)
 -->
<!-- Title: INITIALIZE_PRESSURE_ZONES Pages: 1 -->
<svg width="892pt" height="2581pt"
 viewBox="0.00 0.00 892.00 2581.08" xmlns="http://www.w3.org/2000/svg" xmlns:xlink="http://www.w3.org/1999/xlink">
<g id="graph0" class="graph" transform="scale(1 1) rotate(0) translate(4 2577.08)">
<title>INITIALIZE_PRESSURE_ZONES</title>
<polygon fill="white" stroke="transparent" points="-4,4 -4,-2577.08 888,-2577.08 888,4 -4,4"/>
<text text-anchor="middle" x="442" y="-7.8" font-family="Times,serif" font-size="14.00">INITIALIZE_PRESSURE_ZONES</text>
<g id="clust1" class="cluster">
<title>cluster_MESH_LOOP_1</title>
<polygon fill="none" stroke="orange" points="320,-2038.2 320,-2335.08 564,-2335.08 564,-2038.2 320,-2038.2"/>
<text text-anchor="middle" x="383.5" y="-2319.88" font-family="Times,serif" font-size="14.00">MESH_LOOP_1</text>
</g>
<g id="clust2" class="cluster">
<title>cluster_ZONE_LOOP</title>
<polygon fill="none" stroke="orange" points="328,-2074.92 328,-2295.36 556,-2295.36 556,-2074.92 328,-2074.92"/>
<text text-anchor="middle" x="382" y="-2280.16" font-family="Times,serif" font-size="14.00">ZONE_LOOP</text>
</g>
<g id="clust3" class="cluster">
<title>cluster_MESH_LOOP_2</title>
<polygon fill="none" stroke="orange" points="303,-1082.44 303,-1748.2 581,-1748.2 581,-1082.44 303,-1082.44"/>
<text text-anchor="middle" x="366.5" y="-1733" font-family="Times,serif" font-size="14.00">MESH_LOOP_2</text>
</g>
<g id="clust4" class="cluster">
<title>cluster_SEARCH_LOOP</title>
<polygon fill="none" stroke="orange" points="311,-1119.16 311,-1708.48 573,-1708.48 573,-1119.16 311,-1119.16"/>
<text text-anchor="middle" x="375" y="-1693.28" font-family="Times,serif" font-size="14.00">SEARCH_LOOP</text>
</g>
<g id="clust5" class="cluster">
<title>cluster_K_LOOP</title>
<polygon fill="none" stroke="orange" points="391,-1443.88 391,-1668.76 493,-1668.76 493,-1443.88 391,-1443.88"/>
<text text-anchor="middle" x="428.5" y="-1653.56" font-family="Times,serif" font-size="14.00">K_LOOP</text>
</g>
<g id="clust6" class="cluster">
<title>cluster_J_LOOP</title>
<polygon fill="none" stroke="orange" points="399,-1480.6 399,-1629.04 485,-1629.04 485,-1480.6 399,-1480.6"/>
<text text-anchor="middle" x="434" y="-1613.84" font-family="Times,serif" font-size="14.00">J_LOOP</text>
</g>
<g id="clust7" class="cluster">
<title>cluster_FILL_ZONES</title>
<polygon fill="none" stroke="blue" points="167,-65 167,-432.44 717,-432.44 717,-65 167,-65"/>
<text text-anchor="middle" x="222" y="-417.24" font-family="Times,serif" font-size="14.00">FILL_ZONES</text>
</g>
<g id="clust8" class="cluster">
<title>cluster_cond8ebb380</title>
<polygon fill="none" stroke="black" points="175,-101.72 175,-392.72 709,-392.72 709,-101.72 175,-101.72"/>
<text text-anchor="middle" x="231.5" y="-377.52" font-family="Times,serif" font-size="14.00">cond8ebb380</text>
</g>
<!-- start_SUBPROGRAM_8eb80c0 -->
<g id="node1" class="node">
<title>start_SUBPROGRAM_8eb80c0</title>
<ellipse fill="none" stroke="black" cx="442" cy="-2566.08" rx="7" ry="7"/>
</g>
<!-- COMMENT_8951ac0+1 -->
<g id="node2" class="node">
<title>COMMENT_8951ac0+1</title>
<polygon fill="none" stroke="black" points="682,-2523.08 196,-2523.08 196,-2487.08 688,-2487.08 688,-2517.08 682,-2523.08"/>
<polyline fill="none" stroke="black" points="682,-2523.08 682,-2517.08 "/>
<polyline fill="none" stroke="black" points="688,-2517.08 682,-2517.08 "/>
<text text-anchor="middle" x="442" y="-2501.38" font-family="Times,serif" font-size="14.00">!&gt; brief Initialize the array PRESSURE_ZONE(I,J,K) for all meshes</text>
</g>
<!-- start_SUBPROGRAM_8eb80c0&#45;&gt;COMMENT_8951ac0+1 -->
<g id="edge1" class="edge">
<title>start_SUBPROGRAM_8eb80c0&#45;&gt;COMMENT_8951ac0+1</title>
<path fill="none" stroke="black" d="M442,-2558.77C442,-2552.57 442,-2542.67 442,-2533.13"/>
<polygon fill="black" stroke="black" points="445.5,-2533.1 442,-2523.1 438.5,-2533.1 445.5,-2533.1"/>
</g>
<!-- COMMENT_8955260+1 -->
<g id="node3" class="node">
<title>COMMENT_8955260+1</title>
<polygon fill="none" stroke="black" points="716,-2451.08 162,-2451.08 162,-2415.08 722,-2415.08 722,-2445.08 716,-2451.08"/>
<polyline fill="none" stroke="black" points="716,-2451.08 716,-2445.08 "/>
<polyline fill="none" stroke="black" points="722,-2445.08 716,-2445.08 "/>
<text text-anchor="middle" x="442" y="-2429.38" font-family="Times,serif" font-size="14.00">Ensure that all cells have been assigned a pressure zone, even within solids</text>
</g>
<!-- COMMENT_8951ac0+1&#45;&gt;COMMENT_8955260+1 -->
<g id="edge2" class="edge">
<title>COMMENT_8951ac0+1&#45;&gt;COMMENT_8955260+1</title>
<path fill="none" stroke="black" d="M442,-2486.78C442,-2479.06 442,-2469.79 442,-2461.19"/>
<polygon fill="black" stroke="black" points="445.5,-2461.18 442,-2451.18 438.5,-2461.18 445.5,-2461.18"/>
</g>
<!-- COMMENT_8956980+1 -->
<g id="node4" class="node">
<title>COMMENT_8956980+1</title>
<polygon fill="none" stroke="black" points="815,-2379.08 63,-2379.08 63,-2343.08 821,-2343.08 821,-2373.08 815,-2379.08"/>
<polyline fill="none" stroke="black" points="815,-2379.08 815,-2373.08 "/>
<polyline fill="none" stroke="black" points="821,-2373.08 815,-2373.08 "/>
<text text-anchor="middle" x="442" y="-2357.38" font-family="Times,serif" font-size="14.00">For each explicitly specified ZONE, populate the array PRESSURE_ZONE(I,J,K) with the ZONE index, N</text>
</g>
<!-- COMMENT_8955260+1&#45;&gt;COMMENT_8956980+1 -->
<g id="edge3" class="edge">
<title>COMMENT_8955260+1&#45;&gt;COMMENT_8956980+1</title>
<path fill="none" stroke="black" d="M442,-2414.78C442,-2407.06 442,-2397.79 442,-2389.19"/>
<polygon fill="black" stroke="black" points="445.5,-2389.18 442,-2379.18 438.5,-2389.18 445.5,-2389.18"/>
</g>
<!-- beginDO_DO_8962140 -->
<g id="node5" class="node">
<title>beginDO_DO_8962140</title>
<ellipse fill="black" stroke="black" cx="442" cy="-2303.72" rx="0.36" ry="0.36"/>
</g>
<!-- COMMENT_8956980+1&#45;&gt;beginDO_DO_8962140 -->
<g id="edge8" class="edge">
<title>COMMENT_8956980+1&#45;&gt;beginDO_DO_8962140</title>
<path fill="none" stroke="black" d="M442,-2342.87C442,-2327.12 442,-2306.08 442,-2304.78"/>
</g>
<!-- beginDO_DO_895f500 -->
<g id="node7" class="node">
<title>beginDO_DO_895f500</title>
<ellipse fill="black" stroke="black" cx="442" cy="-2264" rx="0.36" ry="0.36"/>
</g>
<!-- beginDO_DO_8962140&#45;&gt;beginDO_DO_895f500 -->
<g id="edge6" class="edge">
<title>beginDO_DO_8962140&#45;&gt;beginDO_DO_895f500</title>
<path fill="none" stroke="black" d="M442,-2303.25C442,-2301.07 442,-2267.22 442,-2265.1"/>
</g>
<!-- endDO_DO_8962140 -->
<g id="node6" class="node">
<title>endDO_DO_8962140</title>
<ellipse fill="black" stroke="black" cx="442" cy="-2046.56" rx="0.36" ry="0.36"/>
</g>
<!-- CALL_8964100 -->
<g id="node11" class="node">
<title>CALL_8964100</title>
<g id="a_node11"><a xlink:href="MPI_ALLREDUCE.svg" xlink:title="MPI_ALLREDUCE">
<polygon fill="#ffe800" stroke="black" points="515,-2010.2 369,-2010.2 369,-2006.2 365,-2006.2 365,-2002.2 369,-2002.2 369,-1982.2 365,-1982.2 365,-1978.2 369,-1978.2 369,-1974.2 515,-1974.2 515,-2010.2"/>
<polyline fill="none" stroke="black" points="369,-2006.2 373,-2006.2 373,-2002.2 369,-2002.2 "/>
<polyline fill="none" stroke="black" points="369,-1982.2 373,-1982.2 373,-1978.2 369,-1978.2 "/>
<text text-anchor="middle" x="442" y="-1988.5" font-family="Times,serif" font-size="14.00">MPI_ALLREDUCE</text>
</a>
</g>
</g>
<!-- endDO_DO_8962140&#45;&gt;CALL_8964100 -->
<g id="edge10" class="edge">
<title>endDO_DO_8962140&#45;&gt;CALL_8964100</title>
<path fill="none" stroke="black" d="M442,-2045.41C442,-2043.97 442,-2032.43 442,-2020.56"/>
<polygon fill="black" stroke="black" points="445.5,-2020.3 442,-2010.3 438.5,-2020.3 445.5,-2020.3"/>
</g>
<!-- CALL_895b080 -->
<g id="node9" class="node">
<title>CALL_895b080</title>
<g id="a_node9"><a xlink:href="SEARCH_OTHER_MESHES.svg" xlink:title="SEARCH_OTHER_MESHES">
<polygon fill="lightgray" stroke="black" points="548.5,-2227.64 335.5,-2227.64 335.5,-2223.64 331.5,-2223.64 331.5,-2219.64 335.5,-2219.64 335.5,-2199.64 331.5,-2199.64 331.5,-2195.64 335.5,-2195.64 335.5,-2191.64 548.5,-2191.64 548.5,-2227.64"/>
<polyline fill="none" stroke="black" points="335.5,-2223.64 339.5,-2223.64 339.5,-2219.64 335.5,-2219.64 "/>
<polyline fill="none" stroke="black" points="335.5,-2199.64 339.5,-2199.64 339.5,-2195.64 335.5,-2195.64 "/>
<text text-anchor="middle" x="442" y="-2205.94" font-family="Times,serif" font-size="14.00">SEARCH_OTHER_MESHES</text>
</a>
</g>
</g>
<!-- beginDO_DO_895f500&#45;&gt;CALL_895b080 -->
<g id="edge4" class="edge">
<title>beginDO_DO_895f500&#45;&gt;CALL_895b080</title>
<path fill="none" stroke="black" d="M442,-2263.49C442,-2262.01 442,-2249.96 442,-2237.74"/>
<polygon fill="black" stroke="black" points="445.5,-2237.66 442,-2227.66 438.5,-2237.66 445.5,-2237.66"/>
</g>
<!-- endDO_DO_895f500 -->
<g id="node8" class="node">
<title>endDO_DO_895f500</title>
<ellipse fill="black" stroke="black" cx="442" cy="-2083.28" rx="0.36" ry="0.36"/>
</g>
<!-- endDO_DO_895f500&#45;&gt;endDO_DO_8962140 -->
<g id="edge9" class="edge">
<title>endDO_DO_895f500&#45;&gt;endDO_DO_8962140</title>
<path fill="none" stroke="black" d="M442,-2082.18C442,-2080.17 442,-2048.96 442,-2047.02"/>
</g>
<!-- CALL_895cfe0 -->
<g id="node10" class="node">
<title>CALL_895cfe0</title>
<g id="a_node10"><a xlink:href="ASSIGN_PRESSURE_ZONE.svg" xlink:title="ASSIGN_PRESSURE_ZONE">
<polygon fill="lightgray" stroke="black" points="548.5,-2155.64 335.5,-2155.64 335.5,-2151.64 331.5,-2151.64 331.5,-2147.64 335.5,-2147.64 335.5,-2127.64 331.5,-2127.64 331.5,-2123.64 335.5,-2123.64 335.5,-2119.64 548.5,-2119.64 548.5,-2155.64"/>
<polyline fill="none" stroke="black" points="335.5,-2151.64 339.5,-2151.64 339.5,-2147.64 335.5,-2147.64 "/>
<polyline fill="none" stroke="black" points="335.5,-2127.64 339.5,-2127.64 339.5,-2123.64 335.5,-2123.64 "/>
<text text-anchor="middle" x="442" y="-2133.94" font-family="Times,serif" font-size="14.00">ASSIGN_PRESSURE_ZONE</text>
</a>
</g>
</g>
<!-- CALL_895b080&#45;&gt;CALL_895cfe0 -->
<g id="edge5" class="edge">
<title>CALL_895b080&#45;&gt;CALL_895cfe0</title>
<path fill="none" stroke="black" d="M442,-2191.34C442,-2183.62 442,-2174.35 442,-2165.75"/>
<polygon fill="black" stroke="black" points="445.5,-2165.74 442,-2155.74 438.5,-2165.74 445.5,-2165.74"/>
</g>
<!-- CALL_895cfe0&#45;&gt;endDO_DO_895f500 -->
<g id="edge7" class="edge">
<title>CALL_895cfe0&#45;&gt;endDO_DO_895f500</title>
<path fill="none" stroke="black" d="M442,-2119.58C442,-2104.57 442,-2084.91 442,-2083.7"/>
</g>
<!-- COMMENT_895ba00+1 -->
<g id="node12" class="node">
<title>COMMENT_895ba00+1</title>
<polygon fill="none" stroke="black" points="804.5,-1938.2 73.5,-1938.2 73.5,-1902.2 810.5,-1902.2 810.5,-1932.2 804.5,-1938.2"/>
<polyline fill="none" stroke="black" points="804.5,-1938.2 804.5,-1932.2 "/>
<polyline fill="none" stroke="black" points="810.5,-1932.2 804.5,-1932.2 "/>
<text text-anchor="middle" x="442" y="-1916.5" font-family="Times,serif" font-size="14.00">Propagate PRESSURE_ZONE values that exist at OPEN boundaries and INTERPOLATED boundaries</text>
</g>
<!-- CALL_8964100&#45;&gt;COMMENT_895ba00+1 -->
<g id="edge11" class="edge">
<title>CALL_8964100&#45;&gt;COMMENT_895ba00+1</title>
<path fill="none" stroke="black" d="M442,-1973.9C442,-1966.18 442,-1956.91 442,-1948.31"/>
<polygon fill="black" stroke="black" points="445.5,-1948.3 442,-1938.3 438.5,-1948.3 445.5,-1948.3"/>
</g>
<!-- CALL_895ba00 -->
<g id="node13" class="node">
<title>CALL_895ba00</title>
<g id="a_node13"><a xlink:href="ZONE_BOUNDARY_EXCHANGE.svg" xlink:title="ZONE_BOUNDARY_EXCHANGE">
<polygon fill="lightgray" stroke="black" points="564.5,-1866.2 319.5,-1866.2 319.5,-1862.2 315.5,-1862.2 315.5,-1858.2 319.5,-1858.2 319.5,-1838.2 315.5,-1838.2 315.5,-1834.2 319.5,-1834.2 319.5,-1830.2 564.5,-1830.2 564.5,-1866.2"/>
<polyline fill="none" stroke="black" points="319.5,-1862.2 323.5,-1862.2 323.5,-1858.2 319.5,-1858.2 "/>
<polyline fill="none" stroke="black" points="319.5,-1838.2 323.5,-1838.2 323.5,-1834.2 319.5,-1834.2 "/>
<text text-anchor="middle" x="442" y="-1844.5" font-family="Times,serif" font-size="14.00">ZONE_BOUNDARY_EXCHANGE</text>
</a>
</g>
</g>
<!-- COMMENT_895ba00+1&#45;&gt;CALL_895ba00 -->
<g id="edge12" class="edge">
<title>COMMENT_895ba00+1&#45;&gt;CALL_895ba00</title>
<path fill="none" stroke="black" d="M442,-1901.9C442,-1894.18 442,-1884.91 442,-1876.31"/>
<polygon fill="black" stroke="black" points="445.5,-1876.3 442,-1866.3 438.5,-1876.3 445.5,-1876.3"/>
</g>
<!-- COMMENT_8953d40+1 -->
<g id="node14" class="node">
<title>COMMENT_8953d40+1</title>
<polygon fill="none" stroke="black" points="878,-1794.2 0,-1794.2 0,-1756.2 884,-1756.2 884,-1788.2 878,-1794.2"/>
<polyline fill="none" stroke="black" points="878,-1794.2 878,-1788.2 "/>
<polyline fill="none" stroke="black" points="884,-1788.2 878,-1788.2 "/>
<text text-anchor="middle" x="442" y="-1779" font-family="Times,serif" font-size="14.00">Starting with the first mesh, look for grid cells that have not yet been assigned a PRESSURE_ZONE value.</text>
<text text-anchor="middle" x="442" y="-1764" font-family="Times,serif" font-size="14.00">If found (FOUND_UNASSIGNED_CELL=T), exit the mesh loop, tell all processes that a new P_ZONE needs to be created.</text>
</g>
<!-- CALL_895ba00&#45;&gt;COMMENT_8953d40+1 -->
<g id="edge13" class="edge">
<title>CALL_895ba00&#45;&gt;COMMENT_8953d40+1</title>
<path fill="none" stroke="black" d="M442,-1830.01C442,-1822.31 442,-1813.02 442,-1804.35"/>
<polygon fill="black" stroke="black" points="445.5,-1804.22 442,-1794.22 438.5,-1804.22 445.5,-1804.22"/>
</g>
<!-- beginDO_DO_8975240 -->
<g id="node15" class="node">
<title>beginDO_DO_8975240</title>
<ellipse fill="black" stroke="black" cx="442" cy="-1716.84" rx="0.36" ry="0.36"/>
</g>
<!-- COMMENT_8953d40+1&#45;&gt;beginDO_DO_8975240 -->
<g id="edge25" class="edge">
<title>COMMENT_8953d40+1&#45;&gt;beginDO_DO_8975240</title>
<path fill="none" stroke="black" d="M442,-1756.06C442,-1740.1 442,-1719.19 442,-1717.9"/>
</g>
<!-- beginDO_DO_8974f60 -->
<g id="node17" class="node">
<title>beginDO_DO_8974f60</title>
<ellipse fill="black" stroke="black" cx="442" cy="-1677.12" rx="0.36" ry="0.36"/>
</g>
<!-- beginDO_DO_8975240&#45;&gt;beginDO_DO_8974f60 -->
<g id="edge23" class="edge">
<title>beginDO_DO_8975240&#45;&gt;beginDO_DO_8974f60</title>
<path fill="none" stroke="black" d="M442,-1716.37C442,-1714.19 442,-1680.34 442,-1678.22"/>
</g>
<!-- endDO_DO_8975240 -->
<g id="node16" class="node">
<title>endDO_DO_8975240</title>
<ellipse fill="black" stroke="black" cx="442" cy="-1090.8" rx="0.36" ry="0.36"/>
</g>
<!-- COMMENT_8975a60+1 -->
<g id="node28" class="node">
<title>COMMENT_8975a60+1</title>
<polygon fill="none" stroke="black" points="738.5,-1054.44 139.5,-1054.44 139.5,-1016.44 744.5,-1016.44 744.5,-1048.44 738.5,-1054.44"/>
<polyline fill="none" stroke="black" points="738.5,-1054.44 738.5,-1048.44 "/>
<polyline fill="none" stroke="black" points="744.5,-1048.44 738.5,-1048.44 "/>
<text text-anchor="middle" x="442" y="-1039.24" font-family="Times,serif" font-size="14.00">Ensure that all cells have been assigned a pressure zone, even within solids.</text>
<text text-anchor="middle" x="442" y="-1024.24" font-family="Times,serif" font-size="14.00">Also, compute the volume, number of cells, and cell indices of each pressure zone.</text>
</g>
<!-- endDO_DO_8975240&#45;&gt;COMMENT_8975a60+1 -->
<g id="edge27" class="edge">
<title>endDO_DO_8975240&#45;&gt;COMMENT_8975a60+1</title>
<path fill="none" stroke="black" d="M442,-1089.65C442,-1088.2 442,-1076.72 442,-1064.8"/>
<polygon fill="black" stroke="black" points="445.5,-1064.44 442,-1054.44 438.5,-1064.44 445.5,-1064.44"/>
</g>
<!-- beginDO_DO_896e380 -->
<g id="node19" class="node">
<title>beginDO_DO_896e380</title>
<ellipse fill="black" stroke="black" cx="442" cy="-1637.4" rx="0.36" ry="0.36"/>
</g>
<!-- beginDO_DO_8974f60&#45;&gt;beginDO_DO_896e380 -->
<g id="edge17" class="edge">
<title>beginDO_DO_8974f60&#45;&gt;beginDO_DO_896e380</title>
<path fill="none" stroke="black" d="M442,-1676.65C442,-1674.47 442,-1640.62 442,-1638.5"/>
</g>
<!-- endDO_DO_8974f60 -->
<g id="node18" class="node">
<title>endDO_DO_8974f60</title>
<ellipse fill="black" stroke="black" cx="442" cy="-1127.52" rx="0.36" ry="0.36"/>
</g>
<!-- endDO_DO_8974f60&#45;&gt;endDO_DO_8975240 -->
<g id="edge26" class="edge">
<title>endDO_DO_8974f60&#45;&gt;endDO_DO_8975240</title>
<path fill="none" stroke="black" d="M442,-1126.42C442,-1124.41 442,-1093.2 442,-1091.26"/>
</g>
<!-- beginDO_DO_896e100 -->
<g id="node21" class="node">
<title>beginDO_DO_896e100</title>
<ellipse fill="black" stroke="black" cx="442" cy="-1597.68" rx="0.36" ry="0.36"/>
</g>
<!-- beginDO_DO_896e380&#45;&gt;beginDO_DO_896e100 -->
<g id="edge15" class="edge">
<title>beginDO_DO_896e380&#45;&gt;beginDO_DO_896e100</title>
<path fill="none" stroke="black" d="M442,-1636.93C442,-1634.75 442,-1600.9 442,-1598.78"/>
</g>
<!-- endDO_DO_896e380 -->
<g id="node20" class="node">
<title>endDO_DO_896e380</title>
<ellipse fill="black" stroke="black" cx="442" cy="-1452.24" rx="0.36" ry="0.36"/>
</g>
<!-- CALL_8970940 -->
<g id="node24" class="node">
<title>CALL_8970940</title>
<g id="a_node24"><a xlink:href="MPI_ALLREDUCE.svg" xlink:title="MPI_ALLREDUCE">
<polygon fill="#ffe800" stroke="black" points="515,-1415.88 369,-1415.88 369,-1411.88 365,-1411.88 365,-1407.88 369,-1407.88 369,-1387.88 365,-1387.88 365,-1383.88 369,-1383.88 369,-1379.88 515,-1379.88 515,-1415.88"/>
<polyline fill="none" stroke="black" points="369,-1411.88 373,-1411.88 373,-1407.88 369,-1407.88 "/>
<polyline fill="none" stroke="black" points="369,-1387.88 373,-1387.88 373,-1383.88 369,-1383.88 "/>
<text text-anchor="middle" x="442" y="-1394.18" font-family="Times,serif" font-size="14.00">MPI_ALLREDUCE</text>
</a>
</g>
</g>
<!-- endDO_DO_896e380&#45;&gt;CALL_8970940 -->
<g id="edge19" class="edge">
<title>endDO_DO_896e380&#45;&gt;CALL_8970940</title>
<path fill="none" stroke="black" d="M442,-1451.09C442,-1449.65 442,-1438.11 442,-1426.24"/>
<polygon fill="black" stroke="black" points="445.5,-1425.98 442,-1415.98 438.5,-1425.98 445.5,-1425.98"/>
</g>
<!-- DO_896c320 -->
<g id="node23" class="node">
<title>DO_896c320</title>
<polygon fill="none" stroke="orange" points="477,-1561.32 407,-1561.32 407,-1525.32 477,-1525.32 477,-1561.32"/>
<text text-anchor="middle" x="442" y="-1539.62" font-family="Times,serif" font-size="14.00">I_LOOP</text>
</g>
<!-- beginDO_DO_896e100&#45;&gt;DO_896c320 -->
<g id="edge14" class="edge">
<title>beginDO_DO_896e100&#45;&gt;DO_896c320</title>
<path fill="none" stroke="black" d="M442,-1597.17C442,-1595.69 442,-1583.64 442,-1571.42"/>
<polygon fill="black" stroke="black" points="445.5,-1571.34 442,-1561.34 438.5,-1571.34 445.5,-1571.34"/>
</g>
<!-- endDO_DO_896e100 -->
<g id="node22" class="node">
<title>endDO_DO_896e100</title>
<ellipse fill="black" stroke="black" cx="442" cy="-1488.96" rx="0.36" ry="0.36"/>
</g>
<!-- endDO_DO_896e100&#45;&gt;endDO_DO_896e380 -->
<g id="edge18" class="edge">
<title>endDO_DO_896e100&#45;&gt;endDO_DO_896e380</title>
<path fill="none" stroke="black" d="M442,-1487.86C442,-1485.85 442,-1454.64 442,-1452.7"/>
</g>
<!-- DO_896c320&#45;&gt;endDO_DO_896e100 -->
<g id="edge16" class="edge">
<title>DO_896c320&#45;&gt;endDO_DO_896e100</title>
<path fill="none" stroke="black" d="M442,-1525.26C442,-1510.25 442,-1490.59 442,-1489.38"/>
</g>
<!-- CALL_89717e0 -->
<g id="node25" class="node">
<title>CALL_89717e0</title>
<g id="a_node25"><a xlink:href="REALLOCATE_P_ZONE.svg" xlink:title="REALLOCATE_P_ZONE">
<polygon fill="lightgray" stroke="black" points="533,-1343.88 351,-1343.88 351,-1339.88 347,-1339.88 347,-1335.88 351,-1335.88 351,-1315.88 347,-1315.88 347,-1311.88 351,-1311.88 351,-1307.88 533,-1307.88 533,-1343.88"/>
<polyline fill="none" stroke="black" points="351,-1339.88 355,-1339.88 355,-1335.88 351,-1335.88 "/>
<polyline fill="none" stroke="black" points="351,-1315.88 355,-1315.88 355,-1311.88 351,-1311.88 "/>
<text text-anchor="middle" x="442" y="-1322.18" font-family="Times,serif" font-size="14.00">REALLOCATE_P_ZONE</text>
</a>
</g>
</g>
<!-- CALL_8970940&#45;&gt;CALL_89717e0 -->
<g id="edge20" class="edge">
<title>CALL_8970940&#45;&gt;CALL_89717e0</title>
<path fill="none" stroke="black" d="M442,-1379.58C442,-1371.86 442,-1362.59 442,-1353.99"/>
<polygon fill="black" stroke="black" points="445.5,-1353.98 442,-1343.98 438.5,-1353.98 445.5,-1353.98"/>
</g>
<!-- CALL_8974a60 -->
<g id="node26" class="node">
<title>CALL_8974a60</title>
<g id="a_node26"><a xlink:href="ASSIGN_PRESSURE_ZONE.svg" xlink:title="ASSIGN_PRESSURE_ZONE">
<polygon fill="lightgray" stroke="black" points="548.5,-1271.88 335.5,-1271.88 335.5,-1267.88 331.5,-1267.88 331.5,-1263.88 335.5,-1263.88 335.5,-1243.88 331.5,-1243.88 331.5,-1239.88 335.5,-1239.88 335.5,-1235.88 548.5,-1235.88 548.5,-1271.88"/>
<polyline fill="none" stroke="black" points="335.5,-1267.88 339.5,-1267.88 339.5,-1263.88 335.5,-1263.88 "/>
<polyline fill="none" stroke="black" points="335.5,-1243.88 339.5,-1243.88 339.5,-1239.88 335.5,-1239.88 "/>
<text text-anchor="middle" x="442" y="-1250.18" font-family="Times,serif" font-size="14.00">ASSIGN_PRESSURE_ZONE</text>
</a>
</g>
</g>
<!-- CALL_89717e0&#45;&gt;CALL_8974a60 -->
<g id="edge21" class="edge">
<title>CALL_89717e0&#45;&gt;CALL_8974a60</title>
<path fill="none" stroke="black" d="M442,-1307.58C442,-1299.86 442,-1290.59 442,-1281.99"/>
<polygon fill="black" stroke="black" points="445.5,-1281.98 442,-1271.98 438.5,-1281.98 445.5,-1281.98"/>
</g>
<!-- CALL_8973ce0 -->
<g id="node27" class="node">
<title>CALL_8973ce0</title>
<g id="a_node27"><a xlink:href="ZONE_BOUNDARY_EXCHANGE.svg" xlink:title="ZONE_BOUNDARY_EXCHANGE">
<polygon fill="lightgray" stroke="black" points="564.5,-1199.88 319.5,-1199.88 319.5,-1195.88 315.5,-1195.88 315.5,-1191.88 319.5,-1191.88 319.5,-1171.88 315.5,-1171.88 315.5,-1167.88 319.5,-1167.88 319.5,-1163.88 564.5,-1163.88 564.5,-1199.88"/>
<polyline fill="none" stroke="black" points="319.5,-1195.88 323.5,-1195.88 323.5,-1191.88 319.5,-1191.88 "/>
<polyline fill="none" stroke="black" points="319.5,-1171.88 323.5,-1171.88 323.5,-1167.88 319.5,-1167.88 "/>
<text text-anchor="middle" x="442" y="-1178.18" font-family="Times,serif" font-size="14.00">ZONE_BOUNDARY_EXCHANGE</text>
</a>
</g>
</g>
<!-- CALL_8974a60&#45;&gt;CALL_8973ce0 -->
<g id="edge22" class="edge">
<title>CALL_8974a60&#45;&gt;CALL_8973ce0</title>
<path fill="none" stroke="black" d="M442,-1235.58C442,-1227.86 442,-1218.59 442,-1209.99"/>
<polygon fill="black" stroke="black" points="445.5,-1209.98 442,-1199.98 438.5,-1209.98 445.5,-1209.98"/>
</g>
<!-- CALL_8973ce0&#45;&gt;endDO_DO_8974f60 -->
<g id="edge24" class="edge">
<title>CALL_8973ce0&#45;&gt;endDO_DO_8974f60</title>
<path fill="none" stroke="black" d="M442,-1163.82C442,-1148.81 442,-1129.15 442,-1127.94"/>
</g>
<!-- COMMENT_8e804e0+1 -->
<g id="node29" class="node">
<title>COMMENT_8e804e0+1</title>
<polygon fill="none" stroke="black" points="846.5,-980.44 31.5,-980.44 31.5,-944.44 852.5,-944.44 852.5,-974.44 846.5,-980.44"/>
<polyline fill="none" stroke="black" points="846.5,-980.44 846.5,-974.44 "/>
<polyline fill="none" stroke="black" points="852.5,-974.44 846.5,-974.44 "/>
<text text-anchor="middle" x="442" y="-958.74" font-family="Times,serif" font-size="14.00">Compute the volume and number of cells of each pressure zone, as well as a single cell within the pressure zone</text>
</g>
<!-- COMMENT_8975a60+1&#45;&gt;COMMENT_8e804e0+1 -->
<g id="edge28" class="edge">
<title>COMMENT_8975a60+1&#45;&gt;COMMENT_8e804e0+1</title>
<path fill="none" stroke="black" d="M442,-1016.16C442,-1008.41 442,-999.23 442,-990.71"/>
<polygon fill="black" stroke="black" points="445.5,-990.44 442,-980.44 438.5,-990.44 445.5,-990.44"/>
</g>
<!-- COMMENT_8e82ba0+1 -->
<g id="node30" class="node">
<title>COMMENT_8e82ba0+1</title>
<polygon fill="none" stroke="black" points="646.5,-908.44 231.5,-908.44 231.5,-872.44 652.5,-872.44 652.5,-902.44 646.5,-908.44"/>
<polyline fill="none" stroke="black" points="646.5,-908.44 646.5,-902.44 "/>
<polyline fill="none" stroke="black" points="652.5,-902.44 646.5,-902.44 "/>
<text text-anchor="middle" x="442" y="-886.74" font-family="Times,serif" font-size="14.00">Determine maximum mesh index for each pressure zone</text>
</g>
<!-- COMMENT_8e804e0+1&#45;&gt;COMMENT_8e82ba0+1 -->
<g id="edge29" class="edge">
<title>COMMENT_8e804e0+1&#45;&gt;COMMENT_8e82ba0+1</title>
<path fill="none" stroke="black" d="M442,-944.14C442,-936.42 442,-927.15 442,-918.55"/>
<polygon fill="black" stroke="black" points="445.5,-918.54 442,-908.54 438.5,-918.54 445.5,-918.54"/>
</g>
<!-- CALL_8e865a0 -->
<g id="node31" class="node">
<title>CALL_8e865a0</title>
<g id="a_node31"><a xlink:href="MPI_ALLREDUCE.svg" xlink:title="MPI_ALLREDUCE">
<polygon fill="#ffe800" stroke="black" points="515,-836.44 369,-836.44 369,-832.44 365,-832.44 365,-828.44 369,-828.44 369,-808.44 365,-808.44 365,-804.44 369,-804.44 369,-800.44 515,-800.44 515,-836.44"/>
<polyline fill="none" stroke="black" points="369,-832.44 373,-832.44 373,-828.44 369,-828.44 "/>
<polyline fill="none" stroke="black" points="369,-808.44 373,-808.44 373,-804.44 369,-804.44 "/>
<text text-anchor="middle" x="442" y="-814.74" font-family="Times,serif" font-size="14.00">MPI_ALLREDUCE</text>
</a>
</g>
</g>
<!-- COMMENT_8e82ba0+1&#45;&gt;CALL_8e865a0 -->
<g id="edge30" class="edge">
<title>COMMENT_8e82ba0+1&#45;&gt;CALL_8e865a0</title>
<path fill="none" stroke="black" d="M442,-872.14C442,-864.42 442,-855.15 442,-846.55"/>
<polygon fill="black" stroke="black" points="445.5,-846.54 442,-836.54 438.5,-846.54 445.5,-846.54"/>
</g>
<!-- COMMENT_8e86f40+1 -->
<g id="node32" class="node">
<title>COMMENT_8e86f40+1</title>
<polygon fill="none" stroke="black" points="531.5,-764.44 346.5,-764.44 346.5,-728.44 537.5,-728.44 537.5,-758.44 531.5,-764.44"/>
<polyline fill="none" stroke="black" points="531.5,-764.44 531.5,-758.44 "/>
<polyline fill="none" stroke="black" points="537.5,-758.44 531.5,-758.44 "/>
<text text-anchor="middle" x="442" y="-742.74" font-family="Times,serif" font-size="14.00">Put data in linear arrays</text>
</g>
<!-- CALL_8e865a0&#45;&gt;COMMENT_8e86f40+1 -->
<g id="edge31" class="edge">
<title>CALL_8e865a0&#45;&gt;COMMENT_8e86f40+1</title>
<path fill="none" stroke="black" d="M442,-800.14C442,-792.42 442,-783.15 442,-774.55"/>
<polygon fill="black" stroke="black" points="445.5,-774.54 442,-764.54 438.5,-774.54 445.5,-774.54"/>
</g>
<!-- CALL_8e91f60 -->
<g id="node33" class="node">
<title>CALL_8e91f60</title>
<g id="a_node33"><a xlink:href="MPI_ALLREDUCE.svg" xlink:title="MPI_ALLREDUCE">
<polygon fill="#ffe800" stroke="black" points="515,-692.44 369,-692.44 369,-688.44 365,-688.44 365,-684.44 369,-684.44 369,-664.44 365,-664.44 365,-660.44 369,-660.44 369,-656.44 515,-656.44 515,-692.44"/>
<polyline fill="none" stroke="black" points="369,-688.44 373,-688.44 373,-684.44 369,-684.44 "/>
<polyline fill="none" stroke="black" points="369,-664.44 373,-664.44 373,-660.44 369,-660.44 "/>
<text text-anchor="middle" x="442" y="-670.74" font-family="Times,serif" font-size="14.00">MPI_ALLREDUCE</text>
</a>
</g>
</g>
<!-- COMMENT_8e86f40+1&#45;&gt;CALL_8e91f60 -->
<g id="edge32" class="edge">
<title>COMMENT_8e86f40+1&#45;&gt;CALL_8e91f60</title>
<path fill="none" stroke="black" d="M442,-728.14C442,-720.42 442,-711.15 442,-702.55"/>
<polygon fill="black" stroke="black" points="445.5,-702.54 442,-692.54 438.5,-702.54 445.5,-702.54"/>
</g>
<!-- CALL_8e94760 -->
<g id="node34" class="node">
<title>CALL_8e94760</title>
<g id="a_node34"><a xlink:href="MPI_ALLREDUCE.svg" xlink:title="MPI_ALLREDUCE">
<polygon fill="#ffe800" stroke="black" points="515,-620.44 369,-620.44 369,-616.44 365,-616.44 365,-612.44 369,-612.44 369,-592.44 365,-592.44 365,-588.44 369,-588.44 369,-584.44 515,-584.44 515,-620.44"/>
<polyline fill="none" stroke="black" points="369,-616.44 373,-616.44 373,-612.44 369,-612.44 "/>
<polyline fill="none" stroke="black" points="369,-592.44 373,-592.44 373,-588.44 369,-588.44 "/>
<text text-anchor="middle" x="442" y="-598.74" font-family="Times,serif" font-size="14.00">MPI_ALLREDUCE</text>
</a>
</g>
</g>
<!-- CALL_8e91f60&#45;&gt;CALL_8e94760 -->
<g id="edge33" class="edge">
<title>CALL_8e91f60&#45;&gt;CALL_8e94760</title>
<path fill="none" stroke="black" d="M442,-656.14C442,-648.42 442,-639.15 442,-630.55"/>
<polygon fill="black" stroke="black" points="445.5,-630.54 442,-620.54 438.5,-630.54 445.5,-630.54"/>
</g>
<!-- CALL_8e97080 -->
<g id="node35" class="node">
<title>CALL_8e97080</title>
<g id="a_node35"><a xlink:href="MPI_ALLREDUCE.svg" xlink:title="MPI_ALLREDUCE">
<polygon fill="#ffe800" stroke="black" points="515,-548.44 369,-548.44 369,-544.44 365,-544.44 365,-540.44 369,-540.44 369,-520.44 365,-520.44 365,-516.44 369,-516.44 369,-512.44 515,-512.44 515,-548.44"/>
<polyline fill="none" stroke="black" points="369,-544.44 373,-544.44 373,-540.44 369,-540.44 "/>
<polyline fill="none" stroke="black" points="369,-520.44 373,-520.44 373,-516.44 369,-516.44 "/>
<text text-anchor="middle" x="442" y="-526.74" font-family="Times,serif" font-size="14.00">MPI_ALLREDUCE</text>
</a>
</g>
</g>
<!-- CALL_8e94760&#45;&gt;CALL_8e97080 -->
<g id="edge34" class="edge">
<title>CALL_8e94760&#45;&gt;CALL_8e97080</title>
<path fill="none" stroke="black" d="M442,-584.14C442,-576.42 442,-567.15 442,-558.55"/>
<polygon fill="black" stroke="black" points="445.5,-558.54 442,-548.54 438.5,-558.54 445.5,-558.54"/>
</g>
<!-- COMMENT_8e85400+1 -->
<g id="node36" class="node">
<title>COMMENT_8e85400+1</title>
<polygon fill="none" stroke="black" points="722,-476.44 156,-476.44 156,-440.44 728,-440.44 728,-470.44 722,-476.44"/>
<polyline fill="none" stroke="black" points="722,-476.44 722,-470.44 "/>
<polyline fill="none" stroke="black" points="728,-470.44 722,-470.44 "/>
<text text-anchor="middle" x="442" y="-454.74" font-family="Times,serif" font-size="14.00">Fill ZONEs that are smaller than a user&#45;specified MINIMUM_ZONE_VOLUME</text>
</g>
<!-- CALL_8e97080&#45;&gt;COMMENT_8e85400+1 -->
<g id="edge35" class="edge">
<title>CALL_8e97080&#45;&gt;COMMENT_8e85400+1</title>
<path fill="none" stroke="black" d="M442,-512.14C442,-504.42 442,-495.15 442,-486.55"/>
<polygon fill="black" stroke="black" points="445.5,-486.54 442,-476.54 438.5,-486.54 445.5,-486.54"/>
</g>
<!-- beginIf_IF_8ec0b40 -->
<g id="node37" class="node">
<title>beginIf_IF_8ec0b40</title>
<ellipse fill="black" stroke="black" cx="442" cy="-401.08" rx="0.36" ry="0.36"/>
</g>
<!-- COMMENT_8e85400+1&#45;&gt;beginIf_IF_8ec0b40 -->
<g id="edge41" class="edge">
<title>COMMENT_8e85400+1&#45;&gt;beginIf_IF_8ec0b40</title>
<path fill="none" stroke="black" d="M442,-440.23C442,-424.48 442,-403.44 442,-402.14"/>
</g>
<!-- CALL_8ea9ea0 -->
<g id="node39" class="node">
<title>CALL_8ea9ea0</title>
<g id="a_node39"><a xlink:href="REALLOCATE_CELL.svg" xlink:title="REALLOCATE_CELL">
<polygon fill="lightgray" stroke="black" points="522.5,-361.72 361.5,-361.72 361.5,-357.72 357.5,-357.72 357.5,-353.72 361.5,-353.72 361.5,-333.72 357.5,-333.72 357.5,-329.72 361.5,-329.72 361.5,-325.72 522.5,-325.72 522.5,-361.72"/>
<polyline fill="none" stroke="black" points="361.5,-357.72 365.5,-357.72 365.5,-353.72 361.5,-353.72 "/>
<polyline fill="none" stroke="black" points="361.5,-333.72 365.5,-333.72 365.5,-329.72 361.5,-329.72 "/>
<text text-anchor="middle" x="442" y="-340.02" font-family="Times,serif" font-size="14.00">REALLOCATE_CELL</text>
</a>
</g>
</g>
<!-- beginIf_IF_8ec0b40&#45;&gt;CALL_8ea9ea0 -->
<g id="edge39" class="edge">
<title>beginIf_IF_8ec0b40&#45;&gt;CALL_8ea9ea0</title>
<path fill="none" stroke="black" d="M442,-400.56C442,-398.93 442,-385.24 442,-371.82"/>
<polygon fill="black" stroke="black" points="445.5,-371.82 442,-361.82 438.5,-371.82 445.5,-371.82"/>
</g>
<!-- endIf_IF_8ec0b40 -->
<g id="node38" class="node">
<title>endIf_IF_8ec0b40</title>
<ellipse fill="black" stroke="black" cx="442" cy="-73.36" rx="0.36" ry="0.36"/>
</g>
<!-- end_SUBPROGRAM_8eb80c0 -->
<g id="node43" class="node">
<title>end_SUBPROGRAM_8eb80c0</title>
<ellipse fill="black" stroke="black" cx="442" cy="-30" rx="7" ry="7"/>
</g>
<!-- endIf_IF_8ec0b40&#45;&gt;end_SUBPROGRAM_8eb80c0 -->
<g id="edge42" class="edge">
<title>endIf_IF_8ec0b40&#45;&gt;end_SUBPROGRAM_8eb80c0</title>
<path fill="none" stroke="black" d="M442,-72.24C442,-70.89 442,-58.27 442,-47.34"/>
<polygon fill="black" stroke="black" points="445.5,-47.1 442,-37.1 438.5,-47.1 445.5,-47.1"/>
</g>
<!-- CALL_8ea85c0 -->
<g id="node40" class="node">
<title>CALL_8ea85c0</title>
<g id="a_node40"><a xlink:href="EXCHANGE_GEOMETRY_INFO.svg" xlink:title="EXCHANGE_GEOMETRY_INFO">
<polygon fill="lightgray" stroke="black" points="562,-289.72 322,-289.72 322,-285.72 318,-285.72 318,-281.72 322,-281.72 322,-261.72 318,-261.72 318,-257.72 322,-257.72 322,-253.72 562,-253.72 562,-289.72"/>
<polyline fill="none" stroke="black" points="322,-285.72 326,-285.72 326,-281.72 322,-281.72 "/>
<polyline fill="none" stroke="black" points="322,-261.72 326,-261.72 326,-257.72 322,-257.72 "/>
<text text-anchor="middle" x="442" y="-268.02" font-family="Times,serif" font-size="14.00">EXCHANGE_GEOMETRY_INFO</text>
</a>
</g>
</g>
<!-- CALL_8ea9ea0&#45;&gt;CALL_8ea85c0 -->
<g id="edge36" class="edge">
<title>CALL_8ea9ea0&#45;&gt;CALL_8ea85c0</title>
<path fill="none" stroke="black" d="M442,-325.42C442,-317.7 442,-308.43 442,-299.83"/>
<polygon fill="black" stroke="black" points="445.5,-299.82 442,-289.82 438.5,-299.82 445.5,-299.82"/>
</g>
<!-- COMMENT_8e83ba0+1 -->
<g id="node41" class="node">
<title>COMMENT_8e83ba0+1</title>
<polygon fill="none" stroke="black" points="565.5,-217.72 312.5,-217.72 312.5,-181.72 571.5,-181.72 571.5,-211.72 565.5,-217.72"/>
<polyline fill="none" stroke="black" points="565.5,-217.72 565.5,-211.72 "/>
<polyline fill="none" stroke="black" points="571.5,-211.72 565.5,-211.72 "/>
<text text-anchor="middle" x="442" y="-196.02" font-family="Times,serif" font-size="14.00">Shorten the list of pressure zones</text>
</g>
<!-- CALL_8ea85c0&#45;&gt;COMMENT_8e83ba0+1 -->
<g id="edge37" class="edge">
<title>CALL_8ea85c0&#45;&gt;COMMENT_8e83ba0+1</title>
<path fill="none" stroke="black" d="M442,-253.42C442,-245.7 442,-236.43 442,-227.83"/>
<polygon fill="black" stroke="black" points="445.5,-227.82 442,-217.82 438.5,-227.82 445.5,-227.82"/>
</g>
<!-- COMMENT_8ebe220+1 -->
<g id="node42" class="node">
<title>COMMENT_8ebe220+1</title>
<polygon fill="none" stroke="black" points="694.5,-145.72 183.5,-145.72 183.5,-109.72 700.5,-109.72 700.5,-139.72 694.5,-145.72"/>
<polyline fill="none" stroke="black" points="694.5,-145.72 694.5,-139.72 "/>
<polyline fill="none" stroke="black" points="700.5,-139.72 694.5,-139.72 "/>
<text text-anchor="middle" x="442" y="-124.02" font-family="Times,serif" font-size="14.00">Renumber of the ZONEs to account for those that have been removed</text>
</g>
<!-- COMMENT_8e83ba0+1&#45;&gt;COMMENT_8ebe220+1 -->
<g id="edge38" class="edge">
<title>COMMENT_8e83ba0+1&#45;&gt;COMMENT_8ebe220+1</title>
<path fill="none" stroke="black" d="M442,-181.42C442,-173.7 442,-164.43 442,-155.83"/>
<polygon fill="black" stroke="black" points="445.5,-155.82 442,-145.82 438.5,-155.82 445.5,-155.82"/>
</g>
<!-- COMMENT_8ebe220+1&#45;&gt;endIf_IF_8ec0b40 -->
<g id="edge40" class="edge">
<title>COMMENT_8ebe220+1&#45;&gt;endIf_IF_8ec0b40</title>
<path fill="none" stroke="black" d="M442,-109.66C442,-94.65 442,-74.99 442,-73.78"/>
</g>
</g>
</svg>
