<?xml version="1.0" encoding="UTF-8" standalone="no"?>
<!DOCTYPE svg PUBLIC "-//W3C//DTD SVG 1.1//EN"
 "http://www.w3.org/Graphics/SVG/1.1/DTD/svg11.dtd">
<!-- Generated by graphviz version 2.43.0 (0)
 -->
<!-- Title: INITIALIZE_BACK_WALL_EXCHANGE Pages: 1 -->
<svg width="2260pt" height="1875pt"
 viewBox="0.00 0.00 2260.00 1875.00" xmlns="http://www.w3.org/2000/svg" xmlns:xlink="http://www.w3.org/1999/xlink">
<g id="graph0" class="graph" transform="scale(1 1) rotate(0) translate(4 1871)">
<title>INITIALIZE_BACK_WALL_EXCHANGE</title>
<polygon fill="white" stroke="transparent" points="-4,4 -4,-1871 2256,-1871 2256,4 -4,4"/>
<text text-anchor="middle" x="1126" y="-7.8" font-family="Times,serif" font-size="14.00">INITIALIZE_BACK_WALL_EXCHANGE</text>
<g id="clust1" class="cluster">
<title>cluster_MESH_LOOP_1A</title>
<polygon fill="none" stroke="orange" points="348,-666 348,-741 502,-741 502,-666 348,-666"/>
<text text-anchor="middle" x="416.5" y="-725.8" font-family="Times,serif" font-size="14.00">MESH_LOOP_1A</text>
</g>
<g id="clust2" class="cluster">
<title>cluster_MESH_LOOP_3A</title>
<polygon fill="none" stroke="orange" points="348,-519 348,-594 502,-594 502,-519 348,-519"/>
<text text-anchor="middle" x="416.5" y="-578.8" font-family="Times,serif" font-size="14.00">MESH_LOOP_3A</text>
</g>
<g id="clust3" class="cluster">
<title>cluster_MESH_LOOP_2A</title>
<polygon fill="none" stroke="orange" points="1029,-1745 1029,-1859 1235,-1859 1235,-1745 1029,-1745"/>
<text text-anchor="middle" x="1097.5" y="-1843.8" font-family="Times,serif" font-size="14.00">MESH_LOOP_2A</text>
</g>
<g id="clust4" class="cluster">
<title>cluster_MESH_LOOP_2B</title>
<polygon fill="none" stroke="orange" points="1037,-1753 1037,-1828 1227,-1828 1227,-1753 1037,-1753"/>
<text text-anchor="middle" x="1105.5" y="-1812.8" font-family="Times,serif" font-size="14.00">MESH_LOOP_2B</text>
</g>
<g id="clust5" class="cluster">
<title>cluster_MESH_LOOP_4A</title>
<polygon fill="none" stroke="orange" points="1771,-1745 1771,-1859 1977,-1859 1977,-1745 1771,-1745"/>
<text text-anchor="middle" x="1839.5" y="-1843.8" font-family="Times,serif" font-size="14.00">MESH_LOOP_4A</text>
</g>
<g id="clust6" class="cluster">
<title>cluster_MESH_LOOP_4B</title>
<polygon fill="none" stroke="orange" points="1779,-1753 1779,-1828 1969,-1828 1969,-1753 1779,-1753"/>
<text text-anchor="middle" x="1847.5" y="-1812.8" font-family="Times,serif" font-size="14.00">MESH_LOOP_4B</text>
</g>
<!-- start_SUBPROGRAM_8d5f880 -->
<g id="node1" class="node">
<title>start_SUBPROGRAM_8d5f880</title>
<ellipse fill="none" stroke="black" cx="425" cy="-1779" rx="7" ry="7"/>
</g>
<!-- COMMENT_8d04180+1 -->
<g id="node2" class="node">
<title>COMMENT_8d04180+1</title>
<polygon fill="none" stroke="black" points="820,-1725 24,-1725 24,-1689 826,-1689 826,-1719 820,-1725"/>
<polyline fill="none" stroke="black" points="820,-1725 820,-1719 "/>
<polyline fill="none" stroke="black" points="826,-1719 820,-1719 "/>
<text text-anchor="middle" x="425" y="-1703.3" font-family="Times,serif" font-size="14.00">!&gt; brief Bordering meshes tell their neighbors how many exposed back wall cells they expect information for.</text>
</g>
<!-- start_SUBPROGRAM_8d5f880&#45;&gt;COMMENT_8d04180+1 -->
<g id="edge1" class="edge">
<title>start_SUBPROGRAM_8d5f880&#45;&gt;COMMENT_8d04180+1</title>
<path fill="none" stroke="black" d="M425,-1771.54C425,-1763.31 425,-1748.58 425,-1735.37"/>
<polygon fill="black" stroke="black" points="428.5,-1735.26 425,-1725.26 421.5,-1735.26 428.5,-1735.26"/>
</g>
<!-- COMMENT_7ddcaa0+1 -->
<g id="node3" class="node">
<title>COMMENT_7ddcaa0+1</title>
<polygon fill="none" stroke="black" points="643.5,-1653 200.5,-1653 200.5,-1617 649.5,-1617 649.5,-1647 643.5,-1653"/>
<polyline fill="none" stroke="black" points="643.5,-1653 643.5,-1647 "/>
<polyline fill="none" stroke="black" points="649.5,-1647 643.5,-1647 "/>
<text text-anchor="middle" x="425" y="-1631.3" font-family="Times,serif" font-size="14.00">Locate the back indices for WALL cells and THIN_WALL cells</text>
</g>
<!-- COMMENT_8d04180+1&#45;&gt;COMMENT_7ddcaa0+1 -->
<g id="edge2" class="edge">
<title>COMMENT_8d04180+1&#45;&gt;COMMENT_7ddcaa0+1</title>
<path fill="none" stroke="black" d="M425,-1688.7C425,-1680.98 425,-1671.71 425,-1663.11"/>
<polygon fill="black" stroke="black" points="428.5,-1663.1 425,-1653.1 421.5,-1663.1 428.5,-1663.1"/>
</g>
<!-- CALL_8d0f120 -->
<g id="node4" class="node">
<title>CALL_8d0f120</title>
<g id="a_node4"><a xlink:href="FIND_WALL_BACK_INDICES.svg" xlink:title="FIND_WALL_BACK_INDICES">
<polygon fill="lightgray" stroke="black" points="536,-1581 314,-1581 314,-1577 310,-1577 310,-1573 314,-1573 314,-1553 310,-1553 310,-1549 314,-1549 314,-1545 536,-1545 536,-1581"/>
<polyline fill="none" stroke="black" points="314,-1577 318,-1577 318,-1573 314,-1573 "/>
<polyline fill="none" stroke="black" points="314,-1553 318,-1553 318,-1549 314,-1549 "/>
<text text-anchor="middle" x="425" y="-1559.3" font-family="Times,serif" font-size="14.00">FIND_WALL_BACK_INDICES</text>
</a>
</g>
</g>
<!-- COMMENT_7ddcaa0+1&#45;&gt;CALL_8d0f120 -->
<g id="edge3" class="edge">
<title>COMMENT_7ddcaa0+1&#45;&gt;CALL_8d0f120</title>
<path fill="none" stroke="black" d="M425,-1616.7C425,-1608.98 425,-1599.71 425,-1591.11"/>
<polygon fill="black" stroke="black" points="428.5,-1591.1 425,-1581.1 421.5,-1591.1 428.5,-1591.1"/>
</g>
<!-- COMMENT_8d10dc0+1 -->
<g id="node5" class="node">
<title>COMMENT_8d10dc0+1</title>
<polygon fill="none" stroke="black" points="636.5,-1509 207.5,-1509 207.5,-1473 642.5,-1473 642.5,-1503 636.5,-1509"/>
<polyline fill="none" stroke="black" points="636.5,-1509 636.5,-1503 "/>
<polyline fill="none" stroke="black" points="642.5,-1503 636.5,-1503 "/>
<text text-anchor="middle" x="425" y="-1487.3" font-family="Times,serif" font-size="14.00">Adjust the thickness and internal noding of HT3D surfaces</text>
</g>
<!-- CALL_8d0f120&#45;&gt;COMMENT_8d10dc0+1 -->
<g id="edge4" class="edge">
<title>CALL_8d0f120&#45;&gt;COMMENT_8d10dc0+1</title>
<path fill="none" stroke="black" d="M425,-1544.7C425,-1536.98 425,-1527.71 425,-1519.11"/>
<polygon fill="black" stroke="black" points="428.5,-1519.1 425,-1509.1 421.5,-1519.1 428.5,-1519.1"/>
</g>
<!-- CALL_8d11280 -->
<g id="node6" class="node">
<title>CALL_8d11280</title>
<g id="a_node6"><a xlink:href="ADJUST_HT3D_WALL_CELLS.svg" xlink:title="ADJUST_HT3D_WALL_CELLS">
<polygon fill="lightgray" stroke="black" points="537.5,-1437 312.5,-1437 312.5,-1433 308.5,-1433 308.5,-1429 312.5,-1429 312.5,-1409 308.5,-1409 308.5,-1405 312.5,-1405 312.5,-1401 537.5,-1401 537.5,-1437"/>
<polyline fill="none" stroke="black" points="312.5,-1433 316.5,-1433 316.5,-1429 312.5,-1429 "/>
<polyline fill="none" stroke="black" points="312.5,-1409 316.5,-1409 316.5,-1405 312.5,-1405 "/>
<text text-anchor="middle" x="425" y="-1415.3" font-family="Times,serif" font-size="14.00">ADJUST_HT3D_WALL_CELLS</text>
</a>
</g>
</g>
<!-- COMMENT_8d10dc0+1&#45;&gt;CALL_8d11280 -->
<g id="edge5" class="edge">
<title>COMMENT_8d10dc0+1&#45;&gt;CALL_8d11280</title>
<path fill="none" stroke="black" d="M425,-1472.7C425,-1464.98 425,-1455.71 425,-1447.11"/>
<polygon fill="black" stroke="black" points="428.5,-1447.1 425,-1437.1 421.5,-1447.1 428.5,-1447.1"/>
</g>
<!-- COMMENT_8d119a0+1 -->
<g id="node7" class="node">
<title>COMMENT_8d119a0+1</title>
<polygon fill="none" stroke="black" points="835.5,-1365 8.5,-1365 8.5,-1329 841.5,-1329 841.5,-1359 835.5,-1365"/>
<polyline fill="none" stroke="black" points="835.5,-1365 835.5,-1359 "/>
<polyline fill="none" stroke="black" points="841.5,-1359 835.5,-1359 "/>
<text text-anchor="middle" x="425" y="-1343.3" font-family="Times,serif" font-size="14.00">Current mesh sends to neighboring meshes the number of WALL and THIN_WALL cells that it expects to be SENT</text>
</g>
<!-- CALL_8d11280&#45;&gt;COMMENT_8d119a0+1 -->
<g id="edge6" class="edge">
<title>CALL_8d11280&#45;&gt;COMMENT_8d119a0+1</title>
<path fill="none" stroke="black" d="M425,-1400.7C425,-1392.98 425,-1383.71 425,-1375.11"/>
<polygon fill="black" stroke="black" points="428.5,-1375.1 425,-1365.1 421.5,-1375.1 428.5,-1375.1"/>
</g>
<!-- CALL_8d119a0 -->
<g id="node8" class="node">
<title>CALL_8d119a0</title>
<g id="a_node8"><a xlink:href="POST_RECEIVES.svg" xlink:title="POST_RECEIVES">
<polygon fill="lightgray" stroke="black" points="495,-1293 355,-1293 355,-1289 351,-1289 351,-1285 355,-1285 355,-1265 351,-1265 351,-1261 355,-1261 355,-1257 495,-1257 495,-1293"/>
<polyline fill="none" stroke="black" points="355,-1289 359,-1289 359,-1285 355,-1285 "/>
<polyline fill="none" stroke="black" points="355,-1265 359,-1265 359,-1261 355,-1261 "/>
<text text-anchor="middle" x="425" y="-1271.3" font-family="Times,serif" font-size="14.00">POST_RECEIVES</text>
</a>
</g>
</g>
<!-- COMMENT_8d119a0+1&#45;&gt;CALL_8d119a0 -->
<g id="edge7" class="edge">
<title>COMMENT_8d119a0+1&#45;&gt;CALL_8d119a0</title>
<path fill="none" stroke="black" d="M425,-1328.7C425,-1320.98 425,-1311.71 425,-1303.11"/>
<polygon fill="black" stroke="black" points="428.5,-1303.1 425,-1293.1 421.5,-1303.1 428.5,-1303.1"/>
</g>
<!-- CALL_8d11ee0 -->
<g id="node9" class="node">
<title>CALL_8d11ee0</title>
<g id="a_node9"><a xlink:href="MESH_EXCHANGE.svg" xlink:title="MESH_EXCHANGE">
<polygon fill="lightgray" stroke="black" points="503,-1221 347,-1221 347,-1217 343,-1217 343,-1213 347,-1213 347,-1193 343,-1193 343,-1189 347,-1189 347,-1185 503,-1185 503,-1221"/>
<polyline fill="none" stroke="black" points="347,-1217 351,-1217 351,-1213 347,-1213 "/>
<polyline fill="none" stroke="black" points="347,-1193 351,-1193 351,-1189 347,-1189 "/>
<text text-anchor="middle" x="425" y="-1199.3" font-family="Times,serif" font-size="14.00">MESH_EXCHANGE</text>
</a>
</g>
</g>
<!-- CALL_8d119a0&#45;&gt;CALL_8d11ee0 -->
<g id="edge8" class="edge">
<title>CALL_8d119a0&#45;&gt;CALL_8d11ee0</title>
<path fill="none" stroke="black" d="M425,-1256.7C425,-1248.98 425,-1239.71 425,-1231.11"/>
<polygon fill="black" stroke="black" points="428.5,-1231.1 425,-1221.1 421.5,-1231.1 428.5,-1231.1"/>
</g>
<!-- COMMENT_8d128a0+1 -->
<g id="node10" class="node">
<title>COMMENT_8d128a0+1</title>
<polygon fill="none" stroke="black" points="759.5,-1149 84.5,-1149 84.5,-1111 765.5,-1111 765.5,-1143 759.5,-1149"/>
<polyline fill="none" stroke="black" points="759.5,-1149 759.5,-1143 "/>
<polyline fill="none" stroke="black" points="765.5,-1143 759.5,-1143 "/>
<text text-anchor="middle" x="425" y="-1133.8" font-family="Times,serif" font-size="14.00">Allocate WALL_SEND_BUFFER and THIN_WALL_SEND_BUFFER for each neighboring mesh.</text>
<text text-anchor="middle" x="425" y="-1118.8" font-family="Times,serif" font-size="14.00">These derived types hold the information that is to be sent.</text>
</g>
<!-- CALL_8d11ee0&#45;&gt;COMMENT_8d128a0+1 -->
<g id="edge9" class="edge">
<title>CALL_8d11ee0&#45;&gt;COMMENT_8d128a0+1</title>
<path fill="none" stroke="black" d="M425,-1184.81C425,-1177.11 425,-1167.82 425,-1159.15"/>
<polygon fill="black" stroke="black" points="428.5,-1159.02 425,-1149.02 421.5,-1159.02 428.5,-1159.02"/>
</g>
<!-- COMMENT_8d17ac0+1 -->
<g id="node11" class="node">
<title>COMMENT_8d17ac0+1</title>
<polygon fill="none" stroke="black" points="844,-1075 0,-1075 0,-1037 850,-1037 850,-1069 844,-1075"/>
<polyline fill="none" stroke="black" points="844,-1075 844,-1069 "/>
<polyline fill="none" stroke="black" points="850,-1069 844,-1069 "/>
<text text-anchor="middle" x="425" y="-1059.8" font-family="Times,serif" font-size="14.00">Each mesh sends its neighbors an array of WALL and THIN_WALL indices (ITEM_INDEX) that it expects to be SENT,</text>
<text text-anchor="middle" x="425" y="-1044.8" font-family="Times,serif" font-size="14.00">along with the SURF_INDEX for each WALL or THIN_WALL.</text>
</g>
<!-- COMMENT_8d128a0+1&#45;&gt;COMMENT_8d17ac0+1 -->
<g id="edge10" class="edge">
<title>COMMENT_8d128a0+1&#45;&gt;COMMENT_8d17ac0+1</title>
<path fill="none" stroke="black" d="M425,-1110.83C425,-1103.13 425,-1093.97 425,-1085.42"/>
<polygon fill="black" stroke="black" points="428.5,-1085.41 425,-1075.41 421.5,-1085.41 428.5,-1085.41"/>
</g>
<!-- CALL_8d17ac0 -->
<g id="node12" class="node">
<title>CALL_8d17ac0</title>
<g id="a_node12"><a xlink:href="POST_RECEIVES.svg" xlink:title="POST_RECEIVES">
<polygon fill="lightgray" stroke="black" points="495,-1001 355,-1001 355,-997 351,-997 351,-993 355,-993 355,-973 351,-973 351,-969 355,-969 355,-965 495,-965 495,-1001"/>
<polyline fill="none" stroke="black" points="355,-997 359,-997 359,-993 355,-993 "/>
<polyline fill="none" stroke="black" points="355,-973 359,-973 359,-969 355,-969 "/>
<text text-anchor="middle" x="425" y="-979.3" font-family="Times,serif" font-size="14.00">POST_RECEIVES</text>
</a>
</g>
</g>
<!-- COMMENT_8d17ac0+1&#45;&gt;CALL_8d17ac0 -->
<g id="edge11" class="edge">
<title>COMMENT_8d17ac0+1&#45;&gt;CALL_8d17ac0</title>
<path fill="none" stroke="black" d="M425,-1036.72C425,-1028.97 425,-1019.79 425,-1011.27"/>
<polygon fill="black" stroke="black" points="428.5,-1011 425,-1001 421.5,-1011 428.5,-1011"/>
</g>
<!-- CALL_8d17900 -->
<g id="node13" class="node">
<title>CALL_8d17900</title>
<g id="a_node13"><a xlink:href="MESH_EXCHANGE.svg" xlink:title="MESH_EXCHANGE">
<polygon fill="lightgray" stroke="black" points="503,-929 347,-929 347,-925 343,-925 343,-921 347,-921 347,-901 343,-901 343,-897 347,-897 347,-893 503,-893 503,-929"/>
<polyline fill="none" stroke="black" points="347,-925 351,-925 351,-921 347,-921 "/>
<polyline fill="none" stroke="black" points="347,-901 351,-901 351,-897 347,-897 "/>
<text text-anchor="middle" x="425" y="-907.3" font-family="Times,serif" font-size="14.00">MESH_EXCHANGE</text>
</a>
</g>
</g>
<!-- CALL_8d17ac0&#45;&gt;CALL_8d17900 -->
<g id="edge12" class="edge">
<title>CALL_8d17ac0&#45;&gt;CALL_8d17900</title>
<path fill="none" stroke="black" d="M425,-964.7C425,-956.98 425,-947.71 425,-939.11"/>
<polygon fill="black" stroke="black" points="428.5,-939.1 425,-929.1 421.5,-939.1 428.5,-939.1"/>
</g>
<!-- COMMENT_8d19900+1 -->
<g id="node14" class="node">
<title>COMMENT_8d19900+1</title>
<polygon fill="none" stroke="black" points="736,-857 108,-857 108,-821 742,-821 742,-851 736,-857"/>
<polyline fill="none" stroke="black" points="736,-857 736,-851 "/>
<polyline fill="none" stroke="black" points="742,-851 736,-851 "/>
<text text-anchor="middle" x="425" y="-835.3" font-family="Times,serif" font-size="14.00">Set up storage arrays for packing WALL and THIN_WALL variables during a RESTART.</text>
</g>
<!-- CALL_8d17900&#45;&gt;COMMENT_8d19900+1 -->
<g id="edge13" class="edge">
<title>CALL_8d17900&#45;&gt;COMMENT_8d19900+1</title>
<path fill="none" stroke="black" d="M425,-892.7C425,-884.98 425,-875.71 425,-867.11"/>
<polygon fill="black" stroke="black" points="428.5,-867.1 425,-857.1 421.5,-867.1 428.5,-867.1"/>
</g>
<!-- COMMENT_8d26380+1 -->
<g id="node15" class="node">
<title>COMMENT_8d26380+1</title>
<polygon fill="none" stroke="black" points="739.5,-785 104.5,-785 104.5,-749 745.5,-749 745.5,-779 739.5,-785"/>
<polyline fill="none" stroke="black" points="739.5,-785 739.5,-779 "/>
<polyline fill="none" stroke="black" points="745.5,-779 739.5,-779 "/>
<text text-anchor="middle" x="425" y="-763.3" font-family="Times,serif" font-size="14.00">Allocate arrays to hold real, integer and logical variables for the WALL_SEND_BUFFER</text>
</g>
<!-- COMMENT_8d19900+1&#45;&gt;COMMENT_8d26380+1 -->
<g id="edge14" class="edge">
<title>COMMENT_8d19900+1&#45;&gt;COMMENT_8d26380+1</title>
<path fill="none" stroke="black" d="M425,-820.7C425,-812.98 425,-803.71 425,-795.11"/>
<polygon fill="black" stroke="black" points="428.5,-795.1 425,-785.1 421.5,-795.1 428.5,-795.1"/>
</g>
<!-- DO_8d303c0 -->
<g id="node16" class="node">
<title>DO_8d303c0</title>
<polygon fill="none" stroke="orange" points="493.5,-710 356.5,-710 356.5,-674 493.5,-674 493.5,-710"/>
<text text-anchor="middle" x="425" y="-688.3" font-family="Times,serif" font-size="14.00">MESH_LOOP_1B</text>
</g>
<!-- COMMENT_8d26380+1&#45;&gt;DO_8d303c0 -->
<g id="edge15" class="edge">
<title>COMMENT_8d26380+1&#45;&gt;DO_8d303c0</title>
<path fill="none" stroke="black" d="M425,-748.7C425,-740.25 425,-729.87 425,-720.37"/>
<polygon fill="black" stroke="black" points="428.5,-720.18 425,-710.18 421.5,-720.18 428.5,-720.18"/>
</g>
<!-- COMMENT_8d2ecc0+1 -->
<g id="node17" class="node">
<title>COMMENT_8d2ecc0+1</title>
<polygon fill="none" stroke="black" points="762,-638 82,-638 82,-602 768,-602 768,-632 762,-638"/>
<polyline fill="none" stroke="black" points="762,-638 762,-632 "/>
<polyline fill="none" stroke="black" points="768,-632 762,-632 "/>
<text text-anchor="middle" x="425" y="-616.3" font-family="Times,serif" font-size="14.00">Allocate arrays to hold real, integer and logical variables for the THIN_WALL_SEND_BUFFER</text>
</g>
<!-- DO_8d303c0&#45;&gt;COMMENT_8d2ecc0+1 -->
<g id="edge16" class="edge">
<title>DO_8d303c0&#45;&gt;COMMENT_8d2ecc0+1</title>
<path fill="none" stroke="black" d="M425,-673.7C425,-665.98 425,-656.71 425,-648.11"/>
<polygon fill="black" stroke="black" points="428.5,-648.1 425,-638.1 421.5,-648.1 428.5,-648.1"/>
</g>
<!-- DO_8d3c480 -->
<g id="node18" class="node">
<title>DO_8d3c480</title>
<polygon fill="none" stroke="orange" points="493.5,-563 356.5,-563 356.5,-527 493.5,-527 493.5,-563"/>
<text text-anchor="middle" x="425" y="-541.3" font-family="Times,serif" font-size="14.00">MESH_LOOP_3B</text>
</g>
<!-- COMMENT_8d2ecc0+1&#45;&gt;DO_8d3c480 -->
<g id="edge17" class="edge">
<title>COMMENT_8d2ecc0+1&#45;&gt;DO_8d3c480</title>
<path fill="none" stroke="black" d="M425,-601.7C425,-593.25 425,-582.87 425,-573.37"/>
<polygon fill="black" stroke="black" points="428.5,-573.18 425,-563.18 421.5,-573.18 428.5,-573.18"/>
</g>
<!-- COMMENT_8d3c6e0+1 -->
<g id="node19" class="node">
<title>COMMENT_8d3c6e0+1</title>
<polygon fill="none" stroke="black" points="729,-491 115,-491 115,-455 735,-455 735,-485 729,-491"/>
<polyline fill="none" stroke="black" points="729,-491 729,-485 "/>
<polyline fill="none" stroke="black" points="735,-485 729,-485 "/>
<text text-anchor="middle" x="425" y="-469.3" font-family="Times,serif" font-size="14.00">Each mesh sends its neighbors the size of the real, integer, and logical buffer arrays</text>
</g>
<!-- DO_8d3c480&#45;&gt;COMMENT_8d3c6e0+1 -->
<g id="edge18" class="edge">
<title>DO_8d3c480&#45;&gt;COMMENT_8d3c6e0+1</title>
<path fill="none" stroke="black" d="M425,-526.7C425,-518.98 425,-509.71 425,-501.11"/>
<polygon fill="black" stroke="black" points="428.5,-501.1 425,-491.1 421.5,-501.1 428.5,-501.1"/>
</g>
<!-- CALL_8d3c6e0 -->
<g id="node20" class="node">
<title>CALL_8d3c6e0</title>
<g id="a_node20"><a xlink:href="POST_RECEIVES.svg" xlink:title="POST_RECEIVES">
<polygon fill="lightgray" stroke="black" points="495,-419 355,-419 355,-415 351,-415 351,-411 355,-411 355,-391 351,-391 351,-387 355,-387 355,-383 495,-383 495,-419"/>
<polyline fill="none" stroke="black" points="355,-415 359,-415 359,-411 355,-411 "/>
<polyline fill="none" stroke="black" points="355,-391 359,-391 359,-387 355,-387 "/>
<text text-anchor="middle" x="425" y="-397.3" font-family="Times,serif" font-size="14.00">POST_RECEIVES</text>
</a>
</g>
</g>
<!-- COMMENT_8d3c6e0+1&#45;&gt;CALL_8d3c6e0 -->
<g id="edge19" class="edge">
<title>COMMENT_8d3c6e0+1&#45;&gt;CALL_8d3c6e0</title>
<path fill="none" stroke="black" d="M425,-454.7C425,-446.98 425,-437.71 425,-429.11"/>
<polygon fill="black" stroke="black" points="428.5,-429.1 425,-419.1 421.5,-429.1 428.5,-429.1"/>
</g>
<!-- CALL_8d30660 -->
<g id="node21" class="node">
<title>CALL_8d30660</title>
<g id="a_node21"><a xlink:href="MESH_EXCHANGE.svg" xlink:title="MESH_EXCHANGE">
<polygon fill="lightgray" stroke="black" points="503,-347 347,-347 347,-343 343,-343 343,-339 347,-339 347,-319 343,-319 343,-315 347,-315 347,-311 503,-311 503,-347"/>
<polyline fill="none" stroke="black" points="347,-343 351,-343 351,-339 347,-339 "/>
<polyline fill="none" stroke="black" points="347,-319 351,-319 351,-315 347,-315 "/>
<text text-anchor="middle" x="425" y="-325.3" font-family="Times,serif" font-size="14.00">MESH_EXCHANGE</text>
</a>
</g>
</g>
<!-- CALL_8d3c6e0&#45;&gt;CALL_8d30660 -->
<g id="edge20" class="edge">
<title>CALL_8d3c6e0&#45;&gt;CALL_8d30660</title>
<path fill="none" stroke="black" d="M425,-382.7C425,-374.98 425,-365.71 425,-357.11"/>
<polygon fill="black" stroke="black" points="428.5,-357.1 425,-347.1 421.5,-357.1 428.5,-357.1"/>
</g>
<!-- COMMENT_8d3cac0+1 -->
<g id="node22" class="node">
<title>COMMENT_8d3cac0+1</title>
<polygon fill="none" stroke="black" points="707,-275 137,-275 137,-239 713,-239 713,-269 707,-275"/>
<polyline fill="none" stroke="black" points="707,-275 707,-269 "/>
<polyline fill="none" stroke="black" points="713,-269 707,-269 "/>
<text text-anchor="middle" x="425" y="-253.3" font-family="Times,serif" font-size="14.00">Broadcast the required dimension of the WALL arrays for neighboring meshes</text>
</g>
<!-- CALL_8d30660&#45;&gt;COMMENT_8d3cac0+1 -->
<g id="edge21" class="edge">
<title>CALL_8d30660&#45;&gt;COMMENT_8d3cac0+1</title>
<path fill="none" stroke="black" d="M425,-310.7C425,-302.98 425,-293.71 425,-285.11"/>
<polygon fill="black" stroke="black" points="428.5,-285.1 425,-275.1 421.5,-285.1 428.5,-285.1"/>
</g>
<!-- CALL_8d434a0 -->
<g id="node23" class="node">
<title>CALL_8d434a0</title>
<g id="a_node23"><a xlink:href="MPI_BCAST.svg" xlink:title="MPI_BCAST">
<polygon fill="#ffe800" stroke="black" points="476,-203 374,-203 374,-199 370,-199 370,-195 374,-195 374,-175 370,-175 370,-171 374,-171 374,-167 476,-167 476,-203"/>
<polyline fill="none" stroke="black" points="374,-199 378,-199 378,-195 374,-195 "/>
<polyline fill="none" stroke="black" points="374,-175 378,-175 378,-171 374,-171 "/>
<text text-anchor="middle" x="425" y="-181.3" font-family="Times,serif" font-size="14.00">MPI_BCAST</text>
</a>
</g>
</g>
<!-- COMMENT_8d3cac0+1&#45;&gt;CALL_8d434a0 -->
<g id="edge22" class="edge">
<title>COMMENT_8d3cac0+1&#45;&gt;CALL_8d434a0</title>
<path fill="none" stroke="black" d="M425,-238.7C425,-230.98 425,-221.71 425,-213.11"/>
<polygon fill="black" stroke="black" points="428.5,-213.1 425,-203.1 421.5,-213.1 428.5,-213.1"/>
</g>
<!-- COMMENT_8d414e0+1 -->
<g id="node24" class="node">
<title>COMMENT_8d414e0+1</title>
<polygon fill="none" stroke="black" points="742.5,-131 101.5,-131 101.5,-95 748.5,-95 748.5,-125 742.5,-131"/>
<polyline fill="none" stroke="black" points="742.5,-131 742.5,-125 "/>
<polyline fill="none" stroke="black" points="748.5,-125 742.5,-125 "/>
<text text-anchor="middle" x="425" y="-109.3" font-family="Times,serif" font-size="14.00">Each mesh (NM) sets up WALL cells that it expects to receive from its neighbors (NOM)</text>
</g>
<!-- CALL_8d434a0&#45;&gt;COMMENT_8d414e0+1 -->
<g id="edge23" class="edge">
<title>CALL_8d434a0&#45;&gt;COMMENT_8d414e0+1</title>
<path fill="none" stroke="black" d="M425,-166.7C425,-158.98 425,-149.71 425,-141.11"/>
<polygon fill="black" stroke="black" points="428.5,-141.1 425,-131.1 421.5,-141.1 428.5,-141.1"/>
</g>
<!-- DO_8d4cc80 -->
<g id="node26" class="node">
<title>DO_8d4cc80</title>
<ellipse fill="none" stroke="black" cx="425" cy="-41" rx="68.79" ry="18"/>
<text text-anchor="middle" x="425" y="-37.3" font-family="Times,serif" font-size="14.00">DO_8d4cc80</text>
</g>
<!-- COMMENT_8d414e0+1&#45;&gt;DO_8d4cc80 -->
<g id="edge24" class="edge">
<title>COMMENT_8d414e0+1&#45;&gt;DO_8d4cc80</title>
<path fill="none" stroke="black" d="M425,-94.7C425,-86.98 425,-77.71 425,-69.11"/>
<polygon fill="black" stroke="black" points="428.5,-69.1 425,-59.1 421.5,-69.1 428.5,-69.1"/>
</g>
<!-- CALL_8d3f3a0 -->
<g id="node25" class="node">
<title>CALL_8d3f3a0</title>
<g id="a_node25"><a xlink:href="ALLOCATE_STORAGE.svg" xlink:title="ALLOCATE_STORAGE">
<polygon fill="lightgray" stroke="black" points="1218.5,-1797 1045.5,-1797 1045.5,-1793 1041.5,-1793 1041.5,-1789 1045.5,-1789 1045.5,-1769 1041.5,-1769 1041.5,-1765 1045.5,-1765 1045.5,-1761 1218.5,-1761 1218.5,-1797"/>
<polyline fill="none" stroke="black" points="1045.5,-1793 1049.5,-1793 1049.5,-1789 1045.5,-1789 "/>
<polyline fill="none" stroke="black" points="1045.5,-1769 1049.5,-1769 1049.5,-1765 1045.5,-1765 "/>
<text text-anchor="middle" x="1132" y="-1775.3" font-family="Times,serif" font-size="14.00">ALLOCATE_STORAGE</text>
</a>
</g>
</g>
<!-- COMMENT_8d4ab00+1 -->
<g id="node27" class="node">
<title>COMMENT_8d4ab00+1</title>
<polygon fill="none" stroke="black" points="1414,-1725 844,-1725 844,-1689 1420,-1689 1420,-1719 1414,-1725"/>
<polyline fill="none" stroke="black" points="1414,-1725 1414,-1719 "/>
<polyline fill="none" stroke="black" points="1420,-1719 1414,-1719 "/>
<text text-anchor="middle" x="1132" y="-1703.3" font-family="Times,serif" font-size="14.00">Broadcast the required dimension of the WALL arrays for neighboring meshes</text>
</g>
<!-- CALL_8d3f3a0&#45;&gt;COMMENT_8d4ab00+1 -->
<g id="edge25" class="edge">
<title>CALL_8d3f3a0&#45;&gt;COMMENT_8d4ab00+1</title>
<path fill="none" stroke="black" d="M1132,-1760.7C1132,-1752.98 1132,-1743.71 1132,-1735.11"/>
<polygon fill="black" stroke="black" points="1135.5,-1735.1 1132,-1725.1 1128.5,-1735.1 1135.5,-1735.1"/>
</g>
<!-- CALL_8d52b00 -->
<g id="node28" class="node">
<title>CALL_8d52b00</title>
<g id="a_node28"><a xlink:href="MPI_BCAST.svg" xlink:title="MPI_BCAST">
<polygon fill="#ffe800" stroke="black" points="1183,-1653 1081,-1653 1081,-1649 1077,-1649 1077,-1645 1081,-1645 1081,-1625 1077,-1625 1077,-1621 1081,-1621 1081,-1617 1183,-1617 1183,-1653"/>
<polyline fill="none" stroke="black" points="1081,-1649 1085,-1649 1085,-1645 1081,-1645 "/>
<polyline fill="none" stroke="black" points="1081,-1625 1085,-1625 1085,-1621 1081,-1621 "/>
<text text-anchor="middle" x="1132" y="-1631.3" font-family="Times,serif" font-size="14.00">MPI_BCAST</text>
</a>
</g>
</g>
<!-- COMMENT_8d4ab00+1&#45;&gt;CALL_8d52b00 -->
<g id="edge26" class="edge">
<title>COMMENT_8d4ab00+1&#45;&gt;CALL_8d52b00</title>
<path fill="none" stroke="black" d="M1132,-1688.7C1132,-1680.98 1132,-1671.71 1132,-1663.11"/>
<polygon fill="black" stroke="black" points="1135.5,-1663.1 1132,-1653.1 1128.5,-1663.1 1135.5,-1663.1"/>
</g>
<!-- COMMENT_8d183a0+1 -->
<g id="node29" class="node">
<title>COMMENT_8d183a0+1</title>
<polygon fill="none" stroke="black" points="1472,-1581 786,-1581 786,-1545 1478,-1545 1478,-1575 1472,-1581"/>
<polyline fill="none" stroke="black" points="1472,-1581 1472,-1575 "/>
<polyline fill="none" stroke="black" points="1478,-1575 1472,-1575 "/>
<text text-anchor="middle" x="1132" y="-1559.3" font-family="Times,serif" font-size="14.00">Each mesh (NM) sets up THIN_WALL cells that it expects to receive from its neighbors (NOM)</text>
</g>
<!-- CALL_8d52b00&#45;&gt;COMMENT_8d183a0+1 -->
<g id="edge27" class="edge">
<title>CALL_8d52b00&#45;&gt;COMMENT_8d183a0+1</title>
<path fill="none" stroke="black" d="M1132,-1616.7C1132,-1608.98 1132,-1599.71 1132,-1591.11"/>
<polygon fill="black" stroke="black" points="1135.5,-1591.1 1132,-1581.1 1128.5,-1591.1 1135.5,-1591.1"/>
</g>
<!-- DO_8d5c9e0 -->
<g id="node31" class="node">
<title>DO_8d5c9e0</title>
<ellipse fill="none" stroke="black" cx="1132" cy="-1491" rx="69.59" ry="18"/>
<text text-anchor="middle" x="1132" y="-1487.3" font-family="Times,serif" font-size="14.00">DO_8d5c9e0</text>
</g>
<!-- COMMENT_8d183a0+1&#45;&gt;DO_8d5c9e0 -->
<g id="edge28" class="edge">
<title>COMMENT_8d183a0+1&#45;&gt;DO_8d5c9e0</title>
<path fill="none" stroke="black" d="M1132,-1544.7C1132,-1536.98 1132,-1527.71 1132,-1519.11"/>
<polygon fill="black" stroke="black" points="1135.5,-1519.1 1132,-1509.1 1128.5,-1519.1 1135.5,-1519.1"/>
</g>
<!-- CALL_8d5b200 -->
<g id="node30" class="node">
<title>CALL_8d5b200</title>
<g id="a_node30"><a xlink:href="ALLOCATE_STORAGE.svg" xlink:title="ALLOCATE_STORAGE">
<polygon fill="lightgray" stroke="black" points="1960.5,-1797 1787.5,-1797 1787.5,-1793 1783.5,-1793 1783.5,-1789 1787.5,-1789 1787.5,-1769 1783.5,-1769 1783.5,-1765 1787.5,-1765 1787.5,-1761 1960.5,-1761 1960.5,-1797"/>
<polyline fill="none" stroke="black" points="1787.5,-1793 1791.5,-1793 1791.5,-1789 1787.5,-1789 "/>
<polyline fill="none" stroke="black" points="1787.5,-1769 1791.5,-1769 1791.5,-1765 1787.5,-1765 "/>
<text text-anchor="middle" x="1874" y="-1775.3" font-family="Times,serif" font-size="14.00">ALLOCATE_STORAGE</text>
</a>
</g>
</g>
<!-- COMMENT_8d5d440+1 -->
<g id="node32" class="node">
<title>COMMENT_8d5d440+1</title>
<polygon fill="none" stroke="black" points="2089.5,-1725 1652.5,-1725 1652.5,-1689 2095.5,-1689 2095.5,-1719 2089.5,-1725"/>
<polyline fill="none" stroke="black" points="2089.5,-1725 2089.5,-1719 "/>
<polyline fill="none" stroke="black" points="2095.5,-1719 2089.5,-1719 "/>
<text text-anchor="middle" x="1874" y="-1703.3" font-family="Times,serif" font-size="14.00">Check to see if any process has an error. If so, stop the run.</text>
</g>
<!-- CALL_8d5b200&#45;&gt;COMMENT_8d5d440+1 -->
<g id="edge29" class="edge">
<title>CALL_8d5b200&#45;&gt;COMMENT_8d5d440+1</title>
<path fill="none" stroke="black" d="M1874,-1760.7C1874,-1752.98 1874,-1743.71 1874,-1735.11"/>
<polygon fill="black" stroke="black" points="1877.5,-1735.1 1874,-1725.1 1870.5,-1735.1 1877.5,-1735.1"/>
</g>
<!-- CALL_8d5d440 -->
<g id="node33" class="node">
<title>CALL_8d5d440</title>
<g id="a_node33"><a xlink:href="STOP_CHECK.svg" xlink:title="STOP_CHECK">
<polygon fill="lightgray" stroke="black" points="1932.5,-1653 1815.5,-1653 1815.5,-1649 1811.5,-1649 1811.5,-1645 1815.5,-1645 1815.5,-1625 1811.5,-1625 1811.5,-1621 1815.5,-1621 1815.5,-1617 1932.5,-1617 1932.5,-1653"/>
<polyline fill="none" stroke="black" points="1815.5,-1649 1819.5,-1649 1819.5,-1645 1815.5,-1645 "/>
<polyline fill="none" stroke="black" points="1815.5,-1625 1819.5,-1625 1819.5,-1621 1815.5,-1621 "/>
<text text-anchor="middle" x="1874" y="-1631.3" font-family="Times,serif" font-size="14.00">STOP_CHECK</text>
</a>
</g>
</g>
<!-- COMMENT_8d5d440+1&#45;&gt;CALL_8d5d440 -->
<g id="edge30" class="edge">
<title>COMMENT_8d5d440+1&#45;&gt;CALL_8d5d440</title>
<path fill="none" stroke="black" d="M1874,-1688.7C1874,-1680.98 1874,-1671.71 1874,-1663.11"/>
<polygon fill="black" stroke="black" points="1877.5,-1663.1 1874,-1653.1 1870.5,-1663.1 1877.5,-1663.1"/>
</g>
<!-- COMMENT_8d5dac0+1 -->
<g id="node34" class="node">
<title>COMMENT_8d5dac0+1</title>
<polygon fill="none" stroke="black" points="2246,-1581 1496,-1581 1496,-1545 2252,-1545 2252,-1575 2246,-1581"/>
<polyline fill="none" stroke="black" points="2246,-1581 2246,-1575 "/>
<polyline fill="none" stroke="black" points="2252,-1575 2246,-1575 "/>
<text text-anchor="middle" x="1874" y="-1559.3" font-family="Times,serif" font-size="14.00">Set up persistent SEND and RECV calls for MPI communication of WALL and THIN_WALL buffer arrays</text>
</g>
<!-- CALL_8d5d440&#45;&gt;COMMENT_8d5dac0+1 -->
<g id="edge31" class="edge">
<title>CALL_8d5d440&#45;&gt;COMMENT_8d5dac0+1</title>
<path fill="none" stroke="black" d="M1874,-1616.7C1874,-1608.98 1874,-1599.71 1874,-1591.11"/>
<polygon fill="black" stroke="black" points="1877.5,-1591.1 1874,-1581.1 1870.5,-1591.1 1877.5,-1591.1"/>
</g>
<!-- CALL_8d5dac0 -->
<g id="node35" class="node">
<title>CALL_8d5dac0</title>
<g id="a_node35"><a xlink:href="POST_RECEIVES.svg" xlink:title="POST_RECEIVES">
<polygon fill="lightgray" stroke="black" points="1944,-1509 1804,-1509 1804,-1505 1800,-1505 1800,-1501 1804,-1501 1804,-1481 1800,-1481 1800,-1477 1804,-1477 1804,-1473 1944,-1473 1944,-1509"/>
<polyline fill="none" stroke="black" points="1804,-1505 1808,-1505 1808,-1501 1804,-1501 "/>
<polyline fill="none" stroke="black" points="1804,-1481 1808,-1481 1808,-1477 1804,-1477 "/>
<text text-anchor="middle" x="1874" y="-1487.3" font-family="Times,serif" font-size="14.00">POST_RECEIVES</text>
</a>
</g>
</g>
<!-- COMMENT_8d5dac0+1&#45;&gt;CALL_8d5dac0 -->
<g id="edge32" class="edge">
<title>COMMENT_8d5dac0+1&#45;&gt;CALL_8d5dac0</title>
<path fill="none" stroke="black" d="M1874,-1544.7C1874,-1536.98 1874,-1527.71 1874,-1519.11"/>
<polygon fill="black" stroke="black" points="1877.5,-1519.1 1874,-1509.1 1870.5,-1519.1 1877.5,-1519.1"/>
</g>
<!-- CALL_8d5dfc0 -->
<g id="node36" class="node">
<title>CALL_8d5dfc0</title>
<g id="a_node36"><a xlink:href="MESH_EXCHANGE.svg" xlink:title="MESH_EXCHANGE">
<polygon fill="lightgray" stroke="black" points="1952,-1437 1796,-1437 1796,-1433 1792,-1433 1792,-1429 1796,-1429 1796,-1409 1792,-1409 1792,-1405 1796,-1405 1796,-1401 1952,-1401 1952,-1437"/>
<polyline fill="none" stroke="black" points="1796,-1433 1800,-1433 1800,-1429 1796,-1429 "/>
<polyline fill="none" stroke="black" points="1796,-1409 1800,-1409 1800,-1405 1796,-1405 "/>
<text text-anchor="middle" x="1874" y="-1415.3" font-family="Times,serif" font-size="14.00">MESH_EXCHANGE</text>
</a>
</g>
</g>
<!-- CALL_8d5dac0&#45;&gt;CALL_8d5dfc0 -->
<g id="edge33" class="edge">
<title>CALL_8d5dac0&#45;&gt;CALL_8d5dfc0</title>
<path fill="none" stroke="black" d="M1874,-1472.7C1874,-1464.98 1874,-1455.71 1874,-1447.11"/>
<polygon fill="black" stroke="black" points="1877.5,-1447.1 1874,-1437.1 1870.5,-1447.1 1877.5,-1447.1"/>
</g>
<!-- COMMENT_8d5e480+1 -->
<g id="node37" class="node">
<title>COMMENT_8d5e480+1</title>
<polygon fill="none" stroke="black" points="2013,-1365 1729,-1365 1729,-1329 2019,-1329 2019,-1359 2013,-1365"/>
<polyline fill="none" stroke="black" points="2013,-1365 2013,-1359 "/>
<polyline fill="none" stroke="black" points="2019,-1359 2013,-1359 "/>
<text text-anchor="middle" x="1874" y="-1343.3" font-family="Times,serif" font-size="14.00">Exchange WALL and THIN_WALL cells</text>
</g>
<!-- CALL_8d5dfc0&#45;&gt;COMMENT_8d5e480+1 -->
<g id="edge34" class="edge">
<title>CALL_8d5dfc0&#45;&gt;COMMENT_8d5e480+1</title>
<path fill="none" stroke="black" d="M1874,-1400.7C1874,-1392.98 1874,-1383.71 1874,-1375.11"/>
<polygon fill="black" stroke="black" points="1877.5,-1375.1 1874,-1365.1 1870.5,-1375.1 1877.5,-1375.1"/>
</g>
<!-- COMMENT_8d5e480+2 -->
<g id="node38" class="node">
<title>COMMENT_8d5e480+2</title>
<polygon fill="none" stroke="black" points="2047.5,-1293 1694.5,-1293 1694.5,-1257 2053.5,-1257 2053.5,-1287 2047.5,-1293"/>
<polyline fill="none" stroke="black" points="2047.5,-1293 2047.5,-1287 "/>
<polyline fill="none" stroke="black" points="2053.5,-1287 2047.5,-1287 "/>
<text text-anchor="middle" x="1874" y="-1271.3" font-family="Times,serif" font-size="14.00">CHECK_BOUNDARY_ONE_D_ARRAYS = .TRUE.</text>
</g>
<!-- COMMENT_8d5e480+1&#45;&gt;COMMENT_8d5e480+2 -->
<g id="edge35" class="edge">
<title>COMMENT_8d5e480+1&#45;&gt;COMMENT_8d5e480+2</title>
<path fill="none" stroke="black" d="M1874,-1328.7C1874,-1320.98 1874,-1311.71 1874,-1303.11"/>
<polygon fill="black" stroke="black" points="1877.5,-1303.1 1874,-1293.1 1870.5,-1303.1 1877.5,-1303.1"/>
</g>
<!-- CALL_8d5e480 -->
<g id="node39" class="node">
<title>CALL_8d5e480</title>
<g id="a_node39"><a xlink:href="MESH_EXCHANGE.svg" xlink:title="MESH_EXCHANGE">
<polygon fill="lightgray" stroke="black" points="1952,-1221 1796,-1221 1796,-1217 1792,-1217 1792,-1213 1796,-1213 1796,-1193 1792,-1193 1792,-1189 1796,-1189 1796,-1185 1952,-1185 1952,-1221"/>
<polyline fill="none" stroke="black" points="1796,-1217 1800,-1217 1800,-1213 1796,-1213 "/>
<polyline fill="none" stroke="black" points="1796,-1193 1800,-1193 1800,-1189 1796,-1189 "/>
<text text-anchor="middle" x="1874" y="-1199.3" font-family="Times,serif" font-size="14.00">MESH_EXCHANGE</text>
</a>
</g>
</g>
<!-- COMMENT_8d5e480+2&#45;&gt;CALL_8d5e480 -->
<g id="edge36" class="edge">
<title>COMMENT_8d5e480+2&#45;&gt;CALL_8d5e480</title>
<path fill="none" stroke="black" d="M1874,-1256.7C1874,-1248.98 1874,-1239.71 1874,-1231.11"/>
<polygon fill="black" stroke="black" points="1877.5,-1231.1 1874,-1221.1 1870.5,-1231.1 1877.5,-1231.1"/>
</g>
<!-- COMMENT_8d5efa0+1 -->
<g id="node40" class="node">
<title>COMMENT_8d5efa0+1</title>
<polygon fill="none" stroke="black" points="2050.5,-1148 1691.5,-1148 1691.5,-1112 2056.5,-1112 2056.5,-1142 2050.5,-1148"/>
<polyline fill="none" stroke="black" points="2050.5,-1148 2050.5,-1142 "/>
<polyline fill="none" stroke="black" points="2056.5,-1142 2050.5,-1142 "/>
<text text-anchor="middle" x="1874" y="-1126.3" font-family="Times,serif" font-size="14.00">CHECK_BOUNDARY_ONE_D_ARRAYS = .FALSE.</text>
</g>
<!-- CALL_8d5e480&#45;&gt;COMMENT_8d5efa0+1 -->
<g id="edge37" class="edge">
<title>CALL_8d5e480&#45;&gt;COMMENT_8d5efa0+1</title>
<path fill="none" stroke="black" d="M1874,-1184.81C1874,-1176.79 1874,-1167.05 1874,-1158.07"/>
<polygon fill="black" stroke="black" points="1877.5,-1158.03 1874,-1148.03 1870.5,-1158.03 1877.5,-1158.03"/>
</g>
<!-- COMMENT_8d5efa0+2 -->
<g id="node41" class="node">
<title>COMMENT_8d5efa0+2</title>
<polygon fill="none" stroke="black" points="2014.5,-1074 1727.5,-1074 1727.5,-1038 2020.5,-1038 2020.5,-1068 2014.5,-1074"/>
<polyline fill="none" stroke="black" points="2014.5,-1074 2014.5,-1068 "/>
<polyline fill="none" stroke="black" points="2020.5,-1068 2014.5,-1068 "/>
<text text-anchor="middle" x="1874" y="-1052.3" font-family="Times,serif" font-size="14.00">Initialize 3&#45;D solid interpolation arrays</text>
</g>
<!-- COMMENT_8d5efa0+1&#45;&gt;COMMENT_8d5efa0+2 -->
<g id="edge38" class="edge">
<title>COMMENT_8d5efa0+1&#45;&gt;COMMENT_8d5efa0+2</title>
<path fill="none" stroke="black" d="M1874,-1111.94C1874,-1103.81 1874,-1093.88 1874,-1084.7"/>
<polygon fill="black" stroke="black" points="1877.5,-1084.44 1874,-1074.44 1870.5,-1084.44 1877.5,-1084.44"/>
</g>
<!-- CALL_8d5f440 -->
<g id="node42" class="node">
<title>CALL_8d5f440</title>
<g id="a_node42"><a xlink:href="INITIALIZE_HT3D_WALL_CELLS.svg" xlink:title="INITIALIZE_HT3D_WALL_CELLS">
<polygon fill="lightgray" stroke="black" points="1998.5,-1001 1749.5,-1001 1749.5,-997 1745.5,-997 1745.5,-993 1749.5,-993 1749.5,-973 1745.5,-973 1745.5,-969 1749.5,-969 1749.5,-965 1998.5,-965 1998.5,-1001"/>
<polyline fill="none" stroke="black" points="1749.5,-997 1753.5,-997 1753.5,-993 1749.5,-993 "/>
<polyline fill="none" stroke="black" points="1749.5,-973 1753.5,-973 1753.5,-969 1749.5,-969 "/>
<text text-anchor="middle" x="1874" y="-979.3" font-family="Times,serif" font-size="14.00">INITIALIZE_HT3D_WALL_CELLS</text>
</a>
</g>
</g>
<!-- COMMENT_8d5efa0+2&#45;&gt;CALL_8d5f440 -->
<g id="edge39" class="edge">
<title>COMMENT_8d5efa0+2&#45;&gt;CALL_8d5f440</title>
<path fill="none" stroke="black" d="M1874,-1037.81C1874,-1029.79 1874,-1020.05 1874,-1011.07"/>
<polygon fill="black" stroke="black" points="1877.5,-1011.03 1874,-1001.03 1870.5,-1011.03 1877.5,-1011.03"/>
</g>
<!-- end_SUBPROGRAM_8d5f880 -->
<g id="node43" class="node">
<title>end_SUBPROGRAM_8d5f880</title>
<ellipse fill="black" stroke="black" cx="1874" cy="-911" rx="7" ry="7"/>
</g>
<!-- CALL_8d5f440&#45;&gt;end_SUBPROGRAM_8d5f880 -->
<g id="edge40" class="edge">
<title>CALL_8d5f440&#45;&gt;end_SUBPROGRAM_8d5f880</title>
<path fill="none" stroke="black" d="M1874,-964.7C1874,-953.64 1874,-939.38 1874,-928.48"/>
<polygon fill="black" stroke="black" points="1877.5,-928.29 1874,-918.29 1870.5,-928.29 1877.5,-928.29"/>
</g>
</g>
</svg>
