<?xml version="1.0" encoding="UTF-8" standalone="no"?>
<!DOCTYPE svg PUBLIC "-//W3C//DTD SVG 1.1//EN"
 "http://www.w3.org/Graphics/SVG/1.1/DTD/svg11.dtd">
<!-- Generated by graphviz version 2.43.0 (0)
 -->
<!-- Title: INITIALIZE_POISSON_SOLVER Pages: 1 -->
<svg width="846pt" height="3917pt"
 viewBox="0.00 0.00 846.00 3917.00" xmlns="http://www.w3.org/2000/svg" xmlns:xlink="http://www.w3.org/1999/xlink">
<g id="graph0" class="graph" transform="scale(1 1) rotate(0) translate(4 3913)">
<title>INITIALIZE_POISSON_SOLVER</title>
<polygon fill="white" stroke="transparent" points="-4,4 -4,-3913 842,-3913 842,4 -4,4"/>
<text text-anchor="middle" x="419" y="-7.8" font-family="Times,serif" font-size="14.00">INITIALIZE_POISSON_SOLVER</text>
<!-- start_SUBPROGRAM_83278a0 -->
<g id="node1" class="node">
<title>start_SUBPROGRAM_83278a0</title>
<ellipse fill="none" stroke="black" cx="419" cy="-3902" rx="7" ry="7"/>
</g>
<!-- COMMENT_8151b40+1 -->
<g id="node2" class="node">
<title>COMMENT_8151b40+1</title>
<polygon fill="none" stroke="black" points="600,-3859 232,-3859 232,-3821 606,-3821 606,-3853 600,-3859"/>
<polyline fill="none" stroke="black" points="600,-3859 600,-3853 "/>
<polyline fill="none" stroke="black" points="606,-3853 600,-3853 "/>
<text text-anchor="middle" x="419" y="-3843.8" font-family="Times,serif" font-size="14.00">!&gt; brief Intialize Crayfishpak (FFT) Poisson solver</text>
<text text-anchor="middle" x="419" y="-3828.8" font-family="Times,serif" font-size="14.00">!&gt; param NM Mesh number</text>
</g>
<!-- start_SUBPROGRAM_83278a0&#45;&gt;COMMENT_8151b40+1 -->
<g id="edge1" class="edge">
<title>start_SUBPROGRAM_83278a0&#45;&gt;COMMENT_8151b40+1</title>
<path fill="none" stroke="black" d="M419,-3894.58C419,-3888.41 419,-3878.64 419,-3869.12"/>
<polygon fill="black" stroke="black" points="422.5,-3869.08 419,-3859.08 415.5,-3869.08 422.5,-3869.08"/>
</g>
<!-- COMMENT_815d8c0+1 -->
<g id="node3" class="node">
<title>COMMENT_815d8c0+1</title>
<polygon fill="none" stroke="black" points="498,-3785 334,-3785 334,-3749 504,-3749 504,-3779 498,-3785"/>
<polyline fill="none" stroke="black" points="498,-3785 498,-3779 "/>
<polyline fill="none" stroke="black" points="504,-3779 498,-3779 "/>
<text text-anchor="middle" x="419" y="-3763.3" font-family="Times,serif" font-size="14.00">Allocate major arrays</text>
</g>
<!-- COMMENT_8151b40+1&#45;&gt;COMMENT_815d8c0+1 -->
<g id="edge2" class="edge">
<title>COMMENT_8151b40+1&#45;&gt;COMMENT_815d8c0+1</title>
<path fill="none" stroke="black" d="M419,-3820.72C419,-3812.97 419,-3803.79 419,-3795.27"/>
<polygon fill="black" stroke="black" points="422.5,-3795 419,-3785 415.5,-3795 422.5,-3795"/>
</g>
<!-- COMMENT_817f2a0+1 -->
<g id="node4" class="node">
<title>COMMENT_817f2a0+1</title>
<polygon fill="none" stroke="black" points="559,-3713 273,-3713 273,-3677 565,-3677 565,-3707 559,-3713"/>
<polyline fill="none" stroke="black" points="559,-3713 559,-3707 "/>
<polyline fill="none" stroke="black" points="565,-3707 559,-3707 "/>
<text text-anchor="middle" x="419" y="-3691.3" font-family="Times,serif" font-size="14.00">pressure periodic boundary conditions</text>
</g>
<!-- COMMENT_815d8c0+1&#45;&gt;COMMENT_817f2a0+1 -->
<g id="edge3" class="edge">
<title>COMMENT_815d8c0+1&#45;&gt;COMMENT_817f2a0+1</title>
<path fill="none" stroke="black" d="M419,-3748.7C419,-3740.98 419,-3731.71 419,-3723.11"/>
<polygon fill="black" stroke="black" points="422.5,-3723.1 419,-3713.1 415.5,-3723.1 422.5,-3723.1"/>
</g>
<!-- CALL_8183b60 -->
<g id="node5" class="node">
<title>CALL_8183b60</title>
<g id="a_node5"><a xlink:href="ChkMemErr.svg" xlink:title="ChkMemErr">
<polygon fill="lightgray" stroke="black" points="471,-3641 367,-3641 367,-3637 363,-3637 363,-3633 367,-3633 367,-3613 363,-3613 363,-3609 367,-3609 367,-3605 471,-3605 471,-3641"/>
<polyline fill="none" stroke="black" points="367,-3637 371,-3637 371,-3633 367,-3633 "/>
<polyline fill="none" stroke="black" points="367,-3613 371,-3613 371,-3609 367,-3609 "/>
<text text-anchor="middle" x="419" y="-3619.3" font-family="Times,serif" font-size="14.00">ChkMemErr</text>
</a>
</g>
</g>
<!-- COMMENT_817f2a0+1&#45;&gt;CALL_8183b60 -->
<g id="edge4" class="edge">
<title>COMMENT_817f2a0+1&#45;&gt;CALL_8183b60</title>
<path fill="none" stroke="black" d="M419,-3676.7C419,-3668.98 419,-3659.71 419,-3651.11"/>
<polygon fill="black" stroke="black" points="422.5,-3651.1 419,-3641.1 415.5,-3651.1 422.5,-3651.1"/>
</g>
<!-- CALL_8184d60 -->
<g id="node6" class="node">
<title>CALL_8184d60</title>
<g id="a_node6"><a xlink:href="ChkMemErr.svg" xlink:title="ChkMemErr">
<polygon fill="lightgray" stroke="black" points="471,-3569 367,-3569 367,-3565 363,-3565 363,-3561 367,-3561 367,-3541 363,-3541 363,-3537 367,-3537 367,-3533 471,-3533 471,-3569"/>
<polyline fill="none" stroke="black" points="367,-3565 371,-3565 371,-3561 367,-3561 "/>
<polyline fill="none" stroke="black" points="367,-3541 371,-3541 371,-3537 367,-3537 "/>
<text text-anchor="middle" x="419" y="-3547.3" font-family="Times,serif" font-size="14.00">ChkMemErr</text>
</a>
</g>
</g>
<!-- CALL_8183b60&#45;&gt;CALL_8184d60 -->
<g id="edge5" class="edge">
<title>CALL_8183b60&#45;&gt;CALL_8184d60</title>
<path fill="none" stroke="black" d="M419,-3604.7C419,-3596.98 419,-3587.71 419,-3579.11"/>
<polygon fill="black" stroke="black" points="422.5,-3579.1 419,-3569.1 415.5,-3579.1 422.5,-3579.1"/>
</g>
<!-- CALL_818b000 -->
<g id="node7" class="node">
<title>CALL_818b000</title>
<g id="a_node7"><a xlink:href="ChkMemErr.svg" xlink:title="ChkMemErr">
<polygon fill="lightgray" stroke="black" points="471,-3497 367,-3497 367,-3493 363,-3493 363,-3489 367,-3489 367,-3469 363,-3469 363,-3465 367,-3465 367,-3461 471,-3461 471,-3497"/>
<polyline fill="none" stroke="black" points="367,-3493 371,-3493 371,-3489 367,-3489 "/>
<polyline fill="none" stroke="black" points="367,-3469 371,-3469 371,-3465 367,-3465 "/>
<text text-anchor="middle" x="419" y="-3475.3" font-family="Times,serif" font-size="14.00">ChkMemErr</text>
</a>
</g>
</g>
<!-- CALL_8184d60&#45;&gt;CALL_818b000 -->
<g id="edge6" class="edge">
<title>CALL_8184d60&#45;&gt;CALL_818b000</title>
<path fill="none" stroke="black" d="M419,-3532.7C419,-3524.98 419,-3515.71 419,-3507.11"/>
<polygon fill="black" stroke="black" points="422.5,-3507.1 419,-3497.1 415.5,-3507.1 422.5,-3507.1"/>
</g>
<!-- CALL_8189d20 -->
<g id="node8" class="node">
<title>CALL_8189d20</title>
<g id="a_node8"><a xlink:href="ChkMemErr.svg" xlink:title="ChkMemErr">
<polygon fill="lightgray" stroke="black" points="471,-3425 367,-3425 367,-3421 363,-3421 363,-3417 367,-3417 367,-3397 363,-3397 363,-3393 367,-3393 367,-3389 471,-3389 471,-3425"/>
<polyline fill="none" stroke="black" points="367,-3421 371,-3421 371,-3417 367,-3417 "/>
<polyline fill="none" stroke="black" points="367,-3397 371,-3397 371,-3393 367,-3393 "/>
<text text-anchor="middle" x="419" y="-3403.3" font-family="Times,serif" font-size="14.00">ChkMemErr</text>
</a>
</g>
</g>
<!-- CALL_818b000&#45;&gt;CALL_8189d20 -->
<g id="edge7" class="edge">
<title>CALL_818b000&#45;&gt;CALL_8189d20</title>
<path fill="none" stroke="black" d="M419,-3460.7C419,-3452.98 419,-3443.71 419,-3435.11"/>
<polygon fill="black" stroke="black" points="422.5,-3435.1 419,-3425.1 415.5,-3435.1 422.5,-3435.1"/>
</g>
<!-- CALL_818e600 -->
<g id="node9" class="node">
<title>CALL_818e600</title>
<g id="a_node9"><a xlink:href="ChkMemErr.svg" xlink:title="ChkMemErr">
<polygon fill="lightgray" stroke="black" points="471,-3353 367,-3353 367,-3349 363,-3349 363,-3345 367,-3345 367,-3325 363,-3325 363,-3321 367,-3321 367,-3317 471,-3317 471,-3353"/>
<polyline fill="none" stroke="black" points="367,-3349 371,-3349 371,-3345 367,-3345 "/>
<polyline fill="none" stroke="black" points="367,-3325 371,-3325 371,-3321 367,-3321 "/>
<text text-anchor="middle" x="419" y="-3331.3" font-family="Times,serif" font-size="14.00">ChkMemErr</text>
</a>
</g>
</g>
<!-- CALL_8189d20&#45;&gt;CALL_818e600 -->
<g id="edge8" class="edge">
<title>CALL_8189d20&#45;&gt;CALL_818e600</title>
<path fill="none" stroke="black" d="M419,-3388.7C419,-3380.98 419,-3371.71 419,-3363.11"/>
<polygon fill="black" stroke="black" points="422.5,-3363.1 419,-3353.1 415.5,-3363.1 422.5,-3363.1"/>
</g>
<!-- CALL_818fa00 -->
<g id="node10" class="node">
<title>CALL_818fa00</title>
<g id="a_node10"><a xlink:href="ChkMemErr.svg" xlink:title="ChkMemErr">
<polygon fill="lightgray" stroke="black" points="471,-3281 367,-3281 367,-3277 363,-3277 363,-3273 367,-3273 367,-3253 363,-3253 363,-3249 367,-3249 367,-3245 471,-3245 471,-3281"/>
<polyline fill="none" stroke="black" points="367,-3277 371,-3277 371,-3273 367,-3273 "/>
<polyline fill="none" stroke="black" points="367,-3253 371,-3253 371,-3249 367,-3249 "/>
<text text-anchor="middle" x="419" y="-3259.3" font-family="Times,serif" font-size="14.00">ChkMemErr</text>
</a>
</g>
</g>
<!-- CALL_818e600&#45;&gt;CALL_818fa00 -->
<g id="edge9" class="edge">
<title>CALL_818e600&#45;&gt;CALL_818fa00</title>
<path fill="none" stroke="black" d="M419,-3316.7C419,-3308.98 419,-3299.71 419,-3291.11"/>
<polygon fill="black" stroke="black" points="422.5,-3291.1 419,-3281.1 415.5,-3291.1 422.5,-3291.1"/>
</g>
<!-- CALL_818eea0 -->
<g id="node11" class="node">
<title>CALL_818eea0</title>
<g id="a_node11"><a xlink:href="ChkMemErr.svg" xlink:title="ChkMemErr">
<polygon fill="lightgray" stroke="black" points="471,-3209 367,-3209 367,-3205 363,-3205 363,-3201 367,-3201 367,-3181 363,-3181 363,-3177 367,-3177 367,-3173 471,-3173 471,-3209"/>
<polyline fill="none" stroke="black" points="367,-3205 371,-3205 371,-3201 367,-3201 "/>
<polyline fill="none" stroke="black" points="367,-3181 371,-3181 371,-3177 367,-3177 "/>
<text text-anchor="middle" x="419" y="-3187.3" font-family="Times,serif" font-size="14.00">ChkMemErr</text>
</a>
</g>
</g>
<!-- CALL_818fa00&#45;&gt;CALL_818eea0 -->
<g id="edge10" class="edge">
<title>CALL_818fa00&#45;&gt;CALL_818eea0</title>
<path fill="none" stroke="black" d="M419,-3244.7C419,-3236.98 419,-3227.71 419,-3219.11"/>
<polygon fill="black" stroke="black" points="422.5,-3219.1 419,-3209.1 415.5,-3219.1 422.5,-3219.1"/>
</g>
<!-- CALL_8192b20 -->
<g id="node12" class="node">
<title>CALL_8192b20</title>
<g id="a_node12"><a xlink:href="ChkMemErr.svg" xlink:title="ChkMemErr">
<polygon fill="lightgray" stroke="black" points="471,-3137 367,-3137 367,-3133 363,-3133 363,-3129 367,-3129 367,-3109 363,-3109 363,-3105 367,-3105 367,-3101 471,-3101 471,-3137"/>
<polyline fill="none" stroke="black" points="367,-3133 371,-3133 371,-3129 367,-3129 "/>
<polyline fill="none" stroke="black" points="367,-3109 371,-3109 371,-3105 367,-3105 "/>
<text text-anchor="middle" x="419" y="-3115.3" font-family="Times,serif" font-size="14.00">ChkMemErr</text>
</a>
</g>
</g>
<!-- CALL_818eea0&#45;&gt;CALL_8192b20 -->
<g id="edge11" class="edge">
<title>CALL_818eea0&#45;&gt;CALL_8192b20</title>
<path fill="none" stroke="black" d="M419,-3172.7C419,-3164.98 419,-3155.71 419,-3147.11"/>
<polygon fill="black" stroke="black" points="422.5,-3147.1 419,-3137.1 415.5,-3147.1 422.5,-3147.1"/>
</g>
<!-- CALL_8193520 -->
<g id="node13" class="node">
<title>CALL_8193520</title>
<g id="a_node13"><a xlink:href="ChkMemErr.svg" xlink:title="ChkMemErr">
<polygon fill="lightgray" stroke="black" points="471,-3065 367,-3065 367,-3061 363,-3061 363,-3057 367,-3057 367,-3037 363,-3037 363,-3033 367,-3033 367,-3029 471,-3029 471,-3065"/>
<polyline fill="none" stroke="black" points="367,-3061 371,-3061 371,-3057 367,-3057 "/>
<polyline fill="none" stroke="black" points="367,-3037 371,-3037 371,-3033 367,-3033 "/>
<text text-anchor="middle" x="419" y="-3043.3" font-family="Times,serif" font-size="14.00">ChkMemErr</text>
</a>
</g>
</g>
<!-- CALL_8192b20&#45;&gt;CALL_8193520 -->
<g id="edge12" class="edge">
<title>CALL_8192b20&#45;&gt;CALL_8193520</title>
<path fill="none" stroke="black" d="M419,-3100.7C419,-3092.98 419,-3083.71 419,-3075.11"/>
<polygon fill="black" stroke="black" points="422.5,-3075.1 419,-3065.1 415.5,-3075.1 422.5,-3075.1"/>
</g>
<!-- CALL_81960a0 -->
<g id="node14" class="node">
<title>CALL_81960a0</title>
<g id="a_node14"><a xlink:href="ChkMemErr.svg" xlink:title="ChkMemErr">
<polygon fill="lightgray" stroke="black" points="471,-2993 367,-2993 367,-2989 363,-2989 363,-2985 367,-2985 367,-2965 363,-2965 363,-2961 367,-2961 367,-2957 471,-2957 471,-2993"/>
<polyline fill="none" stroke="black" points="367,-2989 371,-2989 371,-2985 367,-2985 "/>
<polyline fill="none" stroke="black" points="367,-2965 371,-2965 371,-2961 367,-2961 "/>
<text text-anchor="middle" x="419" y="-2971.3" font-family="Times,serif" font-size="14.00">ChkMemErr</text>
</a>
</g>
</g>
<!-- CALL_8193520&#45;&gt;CALL_81960a0 -->
<g id="edge13" class="edge">
<title>CALL_8193520&#45;&gt;CALL_81960a0</title>
<path fill="none" stroke="black" d="M419,-3028.7C419,-3020.98 419,-3011.71 419,-3003.11"/>
<polygon fill="black" stroke="black" points="422.5,-3003.1 419,-2993.1 415.5,-3003.1 422.5,-3003.1"/>
</g>
<!-- DO_8195da0 -->
<g id="node15" class="node">
<title>DO_8195da0</title>
<polygon fill="none" stroke="orange" points="457.5,-2921 380.5,-2921 380.5,-2885 457.5,-2885 457.5,-2921"/>
<text text-anchor="middle" x="419" y="-2899.3" font-family="Times,serif" font-size="14.00">N_LOOP</text>
</g>
<!-- CALL_81960a0&#45;&gt;DO_8195da0 -->
<g id="edge14" class="edge">
<title>CALL_81960a0&#45;&gt;DO_8195da0</title>
<path fill="none" stroke="black" d="M419,-2956.7C419,-2948.98 419,-2939.71 419,-2931.11"/>
<polygon fill="black" stroke="black" points="422.5,-2931.1 419,-2921.1 415.5,-2931.1 422.5,-2931.1"/>
</g>
<!-- CALL_81a0820 -->
<g id="node16" class="node">
<title>CALL_81a0820</title>
<g id="a_node16"><a xlink:href="ChkMemErr.svg" xlink:title="ChkMemErr">
<polygon fill="lightgray" stroke="black" points="471,-2849 367,-2849 367,-2845 363,-2845 363,-2841 367,-2841 367,-2821 363,-2821 363,-2817 367,-2817 367,-2813 471,-2813 471,-2849"/>
<polyline fill="none" stroke="black" points="367,-2845 371,-2845 371,-2841 367,-2841 "/>
<polyline fill="none" stroke="black" points="367,-2821 371,-2821 371,-2817 367,-2817 "/>
<text text-anchor="middle" x="419" y="-2827.3" font-family="Times,serif" font-size="14.00">ChkMemErr</text>
</a>
</g>
</g>
<!-- DO_8195da0&#45;&gt;CALL_81a0820 -->
<g id="edge15" class="edge">
<title>DO_8195da0&#45;&gt;CALL_81a0820</title>
<path fill="none" stroke="black" d="M419,-2884.7C419,-2876.98 419,-2867.71 419,-2859.11"/>
<polygon fill="black" stroke="black" points="422.5,-2859.1 419,-2849.1 415.5,-2859.1 422.5,-2859.1"/>
</g>
<!-- CALL_81a2660 -->
<g id="node17" class="node">
<title>CALL_81a2660</title>
<g id="a_node17"><a xlink:href="ChkMemErr.svg" xlink:title="ChkMemErr">
<polygon fill="lightgray" stroke="black" points="471,-2777 367,-2777 367,-2773 363,-2773 363,-2769 367,-2769 367,-2749 363,-2749 363,-2745 367,-2745 367,-2741 471,-2741 471,-2777"/>
<polyline fill="none" stroke="black" points="367,-2773 371,-2773 371,-2769 367,-2769 "/>
<polyline fill="none" stroke="black" points="367,-2749 371,-2749 371,-2745 367,-2745 "/>
<text text-anchor="middle" x="419" y="-2755.3" font-family="Times,serif" font-size="14.00">ChkMemErr</text>
</a>
</g>
</g>
<!-- CALL_81a0820&#45;&gt;CALL_81a2660 -->
<g id="edge16" class="edge">
<title>CALL_81a0820&#45;&gt;CALL_81a2660</title>
<path fill="none" stroke="black" d="M419,-2812.7C419,-2804.98 419,-2795.71 419,-2787.11"/>
<polygon fill="black" stroke="black" points="422.5,-2787.1 419,-2777.1 415.5,-2787.1 422.5,-2787.1"/>
</g>
<!-- CALL_81a4f40 -->
<g id="node18" class="node">
<title>CALL_81a4f40</title>
<g id="a_node18"><a xlink:href="ChkMemErr.svg" xlink:title="ChkMemErr">
<polygon fill="lightgray" stroke="black" points="471,-2705 367,-2705 367,-2701 363,-2701 363,-2697 367,-2697 367,-2677 363,-2677 363,-2673 367,-2673 367,-2669 471,-2669 471,-2705"/>
<polyline fill="none" stroke="black" points="367,-2701 371,-2701 371,-2697 367,-2697 "/>
<polyline fill="none" stroke="black" points="367,-2677 371,-2677 371,-2673 367,-2673 "/>
<text text-anchor="middle" x="419" y="-2683.3" font-family="Times,serif" font-size="14.00">ChkMemErr</text>
</a>
</g>
</g>
<!-- CALL_81a2660&#45;&gt;CALL_81a4f40 -->
<g id="edge17" class="edge">
<title>CALL_81a2660&#45;&gt;CALL_81a4f40</title>
<path fill="none" stroke="black" d="M419,-2740.7C419,-2732.98 419,-2723.71 419,-2715.11"/>
<polygon fill="black" stroke="black" points="422.5,-2715.1 419,-2705.1 415.5,-2715.1 422.5,-2715.1"/>
</g>
<!-- CALL_81a7b40 -->
<g id="node19" class="node">
<title>CALL_81a7b40</title>
<g id="a_node19"><a xlink:href="ChkMemErr.svg" xlink:title="ChkMemErr">
<polygon fill="lightgray" stroke="black" points="471,-2633 367,-2633 367,-2629 363,-2629 363,-2625 367,-2625 367,-2605 363,-2605 363,-2601 367,-2601 367,-2597 471,-2597 471,-2633"/>
<polyline fill="none" stroke="black" points="367,-2629 371,-2629 371,-2625 367,-2625 "/>
<polyline fill="none" stroke="black" points="367,-2605 371,-2605 371,-2601 367,-2601 "/>
<text text-anchor="middle" x="419" y="-2611.3" font-family="Times,serif" font-size="14.00">ChkMemErr</text>
</a>
</g>
</g>
<!-- CALL_81a4f40&#45;&gt;CALL_81a7b40 -->
<g id="edge18" class="edge">
<title>CALL_81a4f40&#45;&gt;CALL_81a7b40</title>
<path fill="none" stroke="black" d="M419,-2668.7C419,-2660.98 419,-2651.71 419,-2643.11"/>
<polygon fill="black" stroke="black" points="422.5,-2643.1 419,-2633.1 415.5,-2643.1 422.5,-2643.1"/>
</g>
<!-- CALL_81a8460 -->
<g id="node20" class="node">
<title>CALL_81a8460</title>
<g id="a_node20"><a xlink:href="ChkMemErr.svg" xlink:title="ChkMemErr">
<polygon fill="lightgray" stroke="black" points="471,-2561 367,-2561 367,-2557 363,-2557 363,-2553 367,-2553 367,-2533 363,-2533 363,-2529 367,-2529 367,-2525 471,-2525 471,-2561"/>
<polyline fill="none" stroke="black" points="367,-2557 371,-2557 371,-2553 367,-2553 "/>
<polyline fill="none" stroke="black" points="367,-2533 371,-2533 371,-2529 367,-2529 "/>
<text text-anchor="middle" x="419" y="-2539.3" font-family="Times,serif" font-size="14.00">ChkMemErr</text>
</a>
</g>
</g>
<!-- CALL_81a7b40&#45;&gt;CALL_81a8460 -->
<g id="edge19" class="edge">
<title>CALL_81a7b40&#45;&gt;CALL_81a8460</title>
<path fill="none" stroke="black" d="M419,-2596.7C419,-2588.98 419,-2579.71 419,-2571.11"/>
<polygon fill="black" stroke="black" points="422.5,-2571.1 419,-2561.1 415.5,-2571.1 422.5,-2571.1"/>
</g>
<!-- CALL_81aa820 -->
<g id="node21" class="node">
<title>CALL_81aa820</title>
<g id="a_node21"><a xlink:href="ChkMemErr.svg" xlink:title="ChkMemErr">
<polygon fill="lightgray" stroke="black" points="471,-2489 367,-2489 367,-2485 363,-2485 363,-2481 367,-2481 367,-2461 363,-2461 363,-2457 367,-2457 367,-2453 471,-2453 471,-2489"/>
<polyline fill="none" stroke="black" points="367,-2485 371,-2485 371,-2481 367,-2481 "/>
<polyline fill="none" stroke="black" points="367,-2461 371,-2461 371,-2457 367,-2457 "/>
<text text-anchor="middle" x="419" y="-2467.3" font-family="Times,serif" font-size="14.00">ChkMemErr</text>
</a>
</g>
</g>
<!-- CALL_81a8460&#45;&gt;CALL_81aa820 -->
<g id="edge20" class="edge">
<title>CALL_81a8460&#45;&gt;CALL_81aa820</title>
<path fill="none" stroke="black" d="M419,-2524.7C419,-2516.98 419,-2507.71 419,-2499.11"/>
<polygon fill="black" stroke="black" points="422.5,-2499.1 419,-2489.1 415.5,-2499.1 422.5,-2499.1"/>
</g>
<!-- CALL_81ab7e0 -->
<g id="node22" class="node">
<title>CALL_81ab7e0</title>
<g id="a_node22"><a xlink:href="ChkMemErr.svg" xlink:title="ChkMemErr">
<polygon fill="lightgray" stroke="black" points="471,-2417 367,-2417 367,-2413 363,-2413 363,-2409 367,-2409 367,-2389 363,-2389 363,-2385 367,-2385 367,-2381 471,-2381 471,-2417"/>
<polyline fill="none" stroke="black" points="367,-2413 371,-2413 371,-2409 367,-2409 "/>
<polyline fill="none" stroke="black" points="367,-2389 371,-2389 371,-2385 367,-2385 "/>
<text text-anchor="middle" x="419" y="-2395.3" font-family="Times,serif" font-size="14.00">ChkMemErr</text>
</a>
</g>
</g>
<!-- CALL_81aa820&#45;&gt;CALL_81ab7e0 -->
<g id="edge21" class="edge">
<title>CALL_81aa820&#45;&gt;CALL_81ab7e0</title>
<path fill="none" stroke="black" d="M419,-2452.7C419,-2444.98 419,-2435.71 419,-2427.11"/>
<polygon fill="black" stroke="black" points="422.5,-2427.1 419,-2417.1 415.5,-2427.1 422.5,-2427.1"/>
</g>
<!-- CALL_81aba60 -->
<g id="node23" class="node">
<title>CALL_81aba60</title>
<g id="a_node23"><a xlink:href="ChkMemErr.svg" xlink:title="ChkMemErr">
<polygon fill="lightgray" stroke="black" points="471,-2345 367,-2345 367,-2341 363,-2341 363,-2337 367,-2337 367,-2317 363,-2317 363,-2313 367,-2313 367,-2309 471,-2309 471,-2345"/>
<polyline fill="none" stroke="black" points="367,-2341 371,-2341 371,-2337 367,-2337 "/>
<polyline fill="none" stroke="black" points="367,-2317 371,-2317 371,-2313 367,-2313 "/>
<text text-anchor="middle" x="419" y="-2323.3" font-family="Times,serif" font-size="14.00">ChkMemErr</text>
</a>
</g>
</g>
<!-- CALL_81ab7e0&#45;&gt;CALL_81aba60 -->
<g id="edge22" class="edge">
<title>CALL_81ab7e0&#45;&gt;CALL_81aba60</title>
<path fill="none" stroke="black" d="M419,-2380.7C419,-2372.98 419,-2363.71 419,-2355.11"/>
<polygon fill="black" stroke="black" points="422.5,-2355.1 419,-2345.1 415.5,-2355.1 422.5,-2355.1"/>
</g>
<!-- CALL_81aeb60 -->
<g id="node24" class="node">
<title>CALL_81aeb60</title>
<g id="a_node24"><a xlink:href="ChkMemErr.svg" xlink:title="ChkMemErr">
<polygon fill="lightgray" stroke="black" points="471,-2273 367,-2273 367,-2269 363,-2269 363,-2265 367,-2265 367,-2245 363,-2245 363,-2241 367,-2241 367,-2237 471,-2237 471,-2273"/>
<polyline fill="none" stroke="black" points="367,-2269 371,-2269 371,-2265 367,-2265 "/>
<polyline fill="none" stroke="black" points="367,-2245 371,-2245 371,-2241 367,-2241 "/>
<text text-anchor="middle" x="419" y="-2251.3" font-family="Times,serif" font-size="14.00">ChkMemErr</text>
</a>
</g>
</g>
<!-- CALL_81aba60&#45;&gt;CALL_81aeb60 -->
<g id="edge23" class="edge">
<title>CALL_81aba60&#45;&gt;CALL_81aeb60</title>
<path fill="none" stroke="black" d="M419,-2308.7C419,-2300.98 419,-2291.71 419,-2283.11"/>
<polygon fill="black" stroke="black" points="422.5,-2283.1 419,-2273.1 415.5,-2283.1 422.5,-2283.1"/>
</g>
<!-- COMMENT_81b4b20+1 -->
<g id="node25" class="node">
<title>COMMENT_81b4b20+1</title>
<polygon fill="none" stroke="black" points="510,-2201 322,-2201 322,-2165 516,-2165 516,-2195 510,-2201"/>
<polyline fill="none" stroke="black" points="510,-2201 510,-2195 "/>
<polyline fill="none" stroke="black" points="516,-2195 510,-2195 "/>
<text text-anchor="middle" x="419" y="-2179.3" font-family="Times,serif" font-size="14.00">Initialize pressure solver</text>
</g>
<!-- CALL_81aeb60&#45;&gt;COMMENT_81b4b20+1 -->
<g id="edge24" class="edge">
<title>CALL_81aeb60&#45;&gt;COMMENT_81b4b20+1</title>
<path fill="none" stroke="black" d="M419,-2236.7C419,-2228.98 419,-2219.71 419,-2211.11"/>
<polygon fill="black" stroke="black" points="422.5,-2211.1 419,-2201.1 415.5,-2211.1 422.5,-2211.1"/>
</g>
<!-- COMMENT_81b5800+1 -->
<g id="node26" class="node">
<title>COMMENT_81b5800+1</title>
<polygon fill="none" stroke="black" points="520.5,-2129 311.5,-2129 311.5,-2093 526.5,-2093 526.5,-2123 520.5,-2129"/>
<polyline fill="none" stroke="black" points="520.5,-2129 520.5,-2123 "/>
<polyline fill="none" stroke="black" points="526.5,-2123 520.5,-2123 "/>
<text text-anchor="middle" x="419" y="-2107.3" font-family="Times,serif" font-size="14.00">BC index for Fishpak solver</text>
</g>
<!-- COMMENT_81b4b20+1&#45;&gt;COMMENT_81b5800+1 -->
<g id="edge25" class="edge">
<title>COMMENT_81b4b20+1&#45;&gt;COMMENT_81b5800+1</title>
<path fill="none" stroke="black" d="M419,-2164.7C419,-2156.98 419,-2147.71 419,-2139.11"/>
<polygon fill="black" stroke="black" points="422.5,-2139.1 419,-2129.1 415.5,-2139.1 422.5,-2139.1"/>
</g>
<!-- COMMENT_81b5800+2 -->
<g id="node27" class="node">
<title>COMMENT_81b5800+2</title>
<polygon fill="none" stroke="black" points="521.5,-2057 310.5,-2057 310.5,-2021 527.5,-2021 527.5,-2051 521.5,-2057"/>
<polyline fill="none" stroke="black" points="521.5,-2057 521.5,-2051 "/>
<polyline fill="none" stroke="black" points="527.5,-2051 521.5,-2051 "/>
<text text-anchor="middle" x="419" y="-2035.3" font-family="Times,serif" font-size="14.00">From Roland Sweet&#39;s notes:</text>
</g>
<!-- COMMENT_81b5800+1&#45;&gt;COMMENT_81b5800+2 -->
<g id="edge26" class="edge">
<title>COMMENT_81b5800+1&#45;&gt;COMMENT_81b5800+2</title>
<path fill="none" stroke="black" d="M419,-2092.7C419,-2084.98 419,-2075.71 419,-2067.11"/>
<polygon fill="black" stroke="black" points="422.5,-2067.1 419,-2057.1 415.5,-2067.1 422.5,-2067.1"/>
</g>
<!-- COMMENT_81b5800+3 -->
<g id="node28" class="node">
<title>COMMENT_81b5800+3</title>
<polygon fill="none" stroke="black" points="750.5,-1985 81.5,-1985 81.5,-1947 756.5,-1947 756.5,-1979 750.5,-1985"/>
<polyline fill="none" stroke="black" points="750.5,-1985 750.5,-1979 "/>
<polyline fill="none" stroke="black" points="756.5,-1979 750.5,-1979 "/>
<text text-anchor="middle" x="419" y="-1969.8" font-family="Times,serif" font-size="14.00">Here we use LBC as an example, this is the BC index for the X direction. MBC and NMC are</text>
<text text-anchor="middle" x="419" y="-1954.8" font-family="Times,serif" font-size="14.00">analogous for the Y and Z directions.</text>
</g>
<!-- COMMENT_81b5800+2&#45;&gt;COMMENT_81b5800+3 -->
<g id="edge27" class="edge">
<title>COMMENT_81b5800+2&#45;&gt;COMMENT_81b5800+3</title>
<path fill="none" stroke="black" d="M419,-2020.81C419,-2013.11 419,-2003.82 419,-1995.15"/>
<polygon fill="black" stroke="black" points="422.5,-1995.02 419,-1985.02 415.5,-1995.02 422.5,-1995.02"/>
</g>
<!-- COMMENT_81b5800+4 -->
<g id="node29" class="node">
<title>COMMENT_81b5800+4</title>
<polygon fill="none" stroke="black" points="542,-1911 290,-1911 290,-1875 548,-1875 548,-1905 542,-1911"/>
<polyline fill="none" stroke="black" points="542,-1911 542,-1905 "/>
<polyline fill="none" stroke="black" points="548,-1905 542,-1905 "/>
<text text-anchor="middle" x="419" y="-1889.3" font-family="Times,serif" font-size="14.00">LBC = 0, solution is periodic in X.</text>
</g>
<!-- COMMENT_81b5800+3&#45;&gt;COMMENT_81b5800+4 -->
<g id="edge28" class="edge">
<title>COMMENT_81b5800+3&#45;&gt;COMMENT_81b5800+4</title>
<path fill="none" stroke="black" d="M419,-1946.72C419,-1938.97 419,-1929.79 419,-1921.27"/>
<polygon fill="black" stroke="black" points="422.5,-1921 419,-1911 415.5,-1921 422.5,-1921"/>
</g>
<!-- COMMENT_81b5800+5 -->
<g id="node30" class="node">
<title>COMMENT_81b5800+5</title>
<polygon fill="none" stroke="black" points="654.5,-1839 177.5,-1839 177.5,-1803 660.5,-1803 660.5,-1833 654.5,-1839"/>
<polyline fill="none" stroke="black" points="654.5,-1839 654.5,-1833 "/>
<polyline fill="none" stroke="black" points="660.5,-1833 654.5,-1833 "/>
<text text-anchor="middle" x="419" y="-1817.3" font-family="Times,serif" font-size="14.00">LBC = 1, solution is specified at XS (Dirichlet) and XF (Dirichlet).</text>
</g>
<!-- COMMENT_81b5800+4&#45;&gt;COMMENT_81b5800+5 -->
<g id="edge29" class="edge">
<title>COMMENT_81b5800+4&#45;&gt;COMMENT_81b5800+5</title>
<path fill="none" stroke="black" d="M419,-1874.7C419,-1866.98 419,-1857.71 419,-1849.11"/>
<polygon fill="black" stroke="black" points="422.5,-1849.1 419,-1839.1 415.5,-1849.1 422.5,-1849.1"/>
</g>
<!-- COMMENT_81b5800+6 -->
<g id="node31" class="node">
<title>COMMENT_81b5800+6</title>
<polygon fill="none" stroke="black" points="787.5,-1767 44.5,-1767 44.5,-1731 793.5,-1731 793.5,-1761 787.5,-1767"/>
<polyline fill="none" stroke="black" points="787.5,-1767 787.5,-1761 "/>
<polyline fill="none" stroke="black" points="793.5,-1761 787.5,-1761 "/>
<text text-anchor="middle" x="419" y="-1745.3" font-family="Times,serif" font-size="14.00">LBC = 2, solution is specified at XS (Dirichlet) and derivative of solution is specified at XF (Neumann).</text>
</g>
<!-- COMMENT_81b5800+5&#45;&gt;COMMENT_81b5800+6 -->
<g id="edge30" class="edge">
<title>COMMENT_81b5800+5&#45;&gt;COMMENT_81b5800+6</title>
<path fill="none" stroke="black" d="M419,-1802.7C419,-1794.98 419,-1785.71 419,-1777.11"/>
<polygon fill="black" stroke="black" points="422.5,-1777.1 419,-1767.1 415.5,-1777.1 422.5,-1777.1"/>
</g>
<!-- COMMENT_81b5800+7 -->
<g id="node32" class="node">
<title>COMMENT_81b5800+7</title>
<polygon fill="none" stroke="black" points="708.5,-1695 123.5,-1695 123.5,-1659 714.5,-1659 714.5,-1689 708.5,-1695"/>
<polyline fill="none" stroke="black" points="708.5,-1695 708.5,-1689 "/>
<polyline fill="none" stroke="black" points="714.5,-1689 708.5,-1689 "/>
<text text-anchor="middle" x="419" y="-1673.3" font-family="Times,serif" font-size="14.00">LBC = 3, derivative of solution is specified at XS (Neumann) and XF (Neumann).</text>
</g>
<!-- COMMENT_81b5800+6&#45;&gt;COMMENT_81b5800+7 -->
<g id="edge31" class="edge">
<title>COMMENT_81b5800+6&#45;&gt;COMMENT_81b5800+7</title>
<path fill="none" stroke="black" d="M419,-1730.7C419,-1722.98 419,-1713.71 419,-1705.11"/>
<polygon fill="black" stroke="black" points="422.5,-1705.1 419,-1695.1 415.5,-1705.1 422.5,-1705.1"/>
</g>
<!-- COMMENT_81b5800+8 -->
<g id="node33" class="node">
<title>COMMENT_81b5800+8</title>
<polygon fill="none" stroke="black" points="787.5,-1623 44.5,-1623 44.5,-1587 793.5,-1587 793.5,-1617 787.5,-1623"/>
<polyline fill="none" stroke="black" points="787.5,-1623 787.5,-1617 "/>
<polyline fill="none" stroke="black" points="793.5,-1617 787.5,-1617 "/>
<text text-anchor="middle" x="419" y="-1601.3" font-family="Times,serif" font-size="14.00">LBC = 4, derivative of solution is specified at XS (Neumann) and solution is specified at XF (Dirichlet).</text>
</g>
<!-- COMMENT_81b5800+7&#45;&gt;COMMENT_81b5800+8 -->
<g id="edge32" class="edge">
<title>COMMENT_81b5800+7&#45;&gt;COMMENT_81b5800+8</title>
<path fill="none" stroke="black" d="M419,-1658.7C419,-1650.98 419,-1641.71 419,-1633.11"/>
<polygon fill="black" stroke="black" points="422.5,-1633.1 419,-1623.1 415.5,-1633.1 422.5,-1633.1"/>
</g>
<!-- COMMENT_81b5800+9 -->
<g id="node34" class="node">
<title>COMMENT_81b5800+9</title>
<polygon fill="none" stroke="black" points="738.5,-1551 93.5,-1551 93.5,-1515 744.5,-1515 744.5,-1545 738.5,-1551"/>
<polyline fill="none" stroke="black" points="738.5,-1551 738.5,-1545 "/>
<polyline fill="none" stroke="black" points="744.5,-1545 738.5,-1545 "/>
<text text-anchor="middle" x="419" y="-1529.3" font-family="Times,serif" font-size="14.00">LBC = 5, the solution is unspecified at r = RS = 0 and the solution is specified at r = RF.</text>
</g>
<!-- COMMENT_81b5800+8&#45;&gt;COMMENT_81b5800+9 -->
<g id="edge33" class="edge">
<title>COMMENT_81b5800+8&#45;&gt;COMMENT_81b5800+9</title>
<path fill="none" stroke="black" d="M419,-1586.7C419,-1578.98 419,-1569.71 419,-1561.11"/>
<polygon fill="black" stroke="black" points="422.5,-1561.1 419,-1551.1 415.5,-1561.1 422.5,-1561.1"/>
</g>
<!-- COMMENT_81b5800+10 -->
<g id="node35" class="node">
<title>COMMENT_81b5800+10</title>
<polygon fill="none" stroke="black" points="832,-1479 0,-1479 0,-1441 838,-1441 838,-1473 832,-1479"/>
<polyline fill="none" stroke="black" points="832,-1479 832,-1473 "/>
<polyline fill="none" stroke="black" points="838,-1473 832,-1473 "/>
<text text-anchor="middle" x="419" y="-1463.8" font-family="Times,serif" font-size="14.00">LBC = 6, if the solution is unspecified at r = RS = 0 and the derivative of the solution with respect to r is specified</text>
<text text-anchor="middle" x="419" y="-1448.8" font-family="Times,serif" font-size="14.00"> &#160;&#160;&#160;&#160;&#160;&#160;&#160;&#160;at r = RF.</text>
</g>
<!-- COMMENT_81b5800+9&#45;&gt;COMMENT_81b5800+10 -->
<g id="edge34" class="edge">
<title>COMMENT_81b5800+9&#45;&gt;COMMENT_81b5800+10</title>
<path fill="none" stroke="black" d="M419,-1514.81C419,-1507.11 419,-1497.82 419,-1489.15"/>
<polygon fill="black" stroke="black" points="422.5,-1489.02 419,-1479.02 415.5,-1489.02 422.5,-1489.02"/>
</g>
<!-- COMMENT_81b6a00+1 -->
<g id="node36" class="node">
<title>COMMENT_81b6a00+1</title>
<polygon fill="none" stroke="black" points="685.5,-1405 146.5,-1405 146.5,-1369 691.5,-1369 691.5,-1399 685.5,-1405"/>
<polyline fill="none" stroke="black" points="685.5,-1405 685.5,-1399 "/>
<polyline fill="none" stroke="black" points="691.5,-1399 685.5,-1399 "/>
<text text-anchor="middle" x="419" y="-1383.3" font-family="Times,serif" font-size="14.00">Look for OPEN vents &#45;&#45; this will change the entire face to DIRICHLET BCs</text>
</g>
<!-- COMMENT_81b5800+10&#45;&gt;COMMENT_81b6a00+1 -->
<g id="edge35" class="edge">
<title>COMMENT_81b5800+10&#45;&gt;COMMENT_81b6a00+1</title>
<path fill="none" stroke="black" d="M419,-1440.72C419,-1432.97 419,-1423.79 419,-1415.27"/>
<polygon fill="black" stroke="black" points="422.5,-1415 419,-1405 415.5,-1415 422.5,-1415"/>
</g>
<!-- DO_81c3440 -->
<g id="node37" class="node">
<title>DO_81c3440</title>
<polygon fill="none" stroke="orange" points="472,-1333 366,-1333 366,-1297 472,-1297 472,-1333"/>
<text text-anchor="middle" x="419" y="-1311.3" font-family="Times,serif" font-size="14.00">VENT_LOOP</text>
</g>
<!-- COMMENT_81b6a00+1&#45;&gt;DO_81c3440 -->
<g id="edge36" class="edge">
<title>COMMENT_81b6a00+1&#45;&gt;DO_81c3440</title>
<path fill="none" stroke="black" d="M419,-1368.7C419,-1360.98 419,-1351.71 419,-1343.11"/>
<polygon fill="black" stroke="black" points="422.5,-1343.1 419,-1333.1 415.5,-1343.1 422.5,-1343.1"/>
</g>
<!-- COMMENT_81c5fc0+1 -->
<g id="node38" class="node">
<title>COMMENT_81c5fc0+1</title>
<polygon fill="none" stroke="black" points="566,-1261 266,-1261 266,-1225 572,-1225 572,-1255 566,-1261"/>
<polyline fill="none" stroke="black" points="566,-1261 566,-1255 "/>
<polyline fill="none" stroke="black" points="572,-1255 566,-1255 "/>
<text text-anchor="middle" x="419" y="-1239.3" font-family="Times,serif" font-size="14.00">All interpolated boundaries are Dirichlet</text>
</g>
<!-- DO_81c3440&#45;&gt;COMMENT_81c5fc0+1 -->
<g id="edge37" class="edge">
<title>DO_81c3440&#45;&gt;COMMENT_81c5fc0+1</title>
<path fill="none" stroke="black" d="M419,-1296.7C419,-1288.98 419,-1279.71 419,-1271.11"/>
<polygon fill="black" stroke="black" points="422.5,-1271.1 419,-1261.1 415.5,-1271.1 422.5,-1271.1"/>
</g>
<!-- COMMENT_81d2ca0+1 -->
<g id="node39" class="node">
<title>COMMENT_81d2ca0+1</title>
<polygon fill="none" stroke="black" points="618.5,-1189 213.5,-1189 213.5,-1153 624.5,-1153 624.5,-1183 618.5,-1189"/>
<polyline fill="none" stroke="black" points="618.5,-1189 618.5,-1183 "/>
<polyline fill="none" stroke="black" points="624.5,-1183 618.5,-1183 "/>
<text text-anchor="middle" x="419" y="-1167.3" font-family="Times,serif" font-size="14.00">Periodic pressure boundary conditions for CrayFishpak</text>
</g>
<!-- COMMENT_81c5fc0+1&#45;&gt;COMMENT_81d2ca0+1 -->
<g id="edge38" class="edge">
<title>COMMENT_81c5fc0+1&#45;&gt;COMMENT_81d2ca0+1</title>
<path fill="none" stroke="black" d="M419,-1224.7C419,-1216.98 419,-1207.71 419,-1199.11"/>
<polygon fill="black" stroke="black" points="422.5,-1199.1 419,-1189.1 415.5,-1199.1 422.5,-1199.1"/>
</g>
<!-- COMMENT_81d50a0+1 -->
<g id="node40" class="node">
<title>COMMENT_81d50a0+1</title>
<polygon fill="none" stroke="black" points="606,-1117 226,-1117 226,-1081 612,-1081 612,-1111 606,-1117"/>
<polyline fill="none" stroke="black" points="606,-1117 606,-1111 "/>
<polyline fill="none" stroke="black" points="612,-1111 606,-1111 "/>
<text text-anchor="middle" x="419" y="-1095.3" font-family="Times,serif" font-size="14.00">Poisson solver with stretching in the 1st coordinate</text>
</g>
<!-- COMMENT_81d2ca0+1&#45;&gt;COMMENT_81d50a0+1 -->
<g id="edge39" class="edge">
<title>COMMENT_81d2ca0+1&#45;&gt;COMMENT_81d50a0+1</title>
<path fill="none" stroke="black" d="M419,-1152.7C419,-1144.98 419,-1135.71 419,-1127.11"/>
<polygon fill="black" stroke="black" points="422.5,-1127.1 419,-1117.1 415.5,-1127.1 422.5,-1127.1"/>
</g>
<!-- CALL_81dc3a0 -->
<g id="node41" class="node">
<title>CALL_81dc3a0</title>
<g id="a_node41"><a xlink:href="H3CZIS.svg" xlink:title="H3CZIS">
<polygon fill="lightgray" stroke="black" points="455.5,-1045 382.5,-1045 382.5,-1041 378.5,-1041 378.5,-1037 382.5,-1037 382.5,-1017 378.5,-1017 378.5,-1013 382.5,-1013 382.5,-1009 455.5,-1009 455.5,-1045"/>
<polyline fill="none" stroke="black" points="382.5,-1041 386.5,-1041 386.5,-1037 382.5,-1037 "/>
<polyline fill="none" stroke="black" points="382.5,-1017 386.5,-1017 386.5,-1013 382.5,-1013 "/>
<text text-anchor="middle" x="419" y="-1023.3" font-family="Times,serif" font-size="14.00">H3CZIS</text>
</a>
</g>
</g>
<!-- COMMENT_81d50a0+1&#45;&gt;CALL_81dc3a0 -->
<g id="edge40" class="edge">
<title>COMMENT_81d50a0+1&#45;&gt;CALL_81dc3a0</title>
<path fill="none" stroke="black" d="M419,-1080.7C419,-1072.98 419,-1063.71 419,-1055.11"/>
<polygon fill="black" stroke="black" points="422.5,-1055.1 419,-1045.1 415.5,-1055.1 422.5,-1055.1"/>
</g>
<!-- CALL_81e0420 -->
<g id="node42" class="node">
<title>CALL_81e0420</title>
<g id="a_node42"><a xlink:href="H2CZIS.svg" xlink:title="H2CZIS">
<polygon fill="lightgray" stroke="black" points="455.5,-973 382.5,-973 382.5,-969 378.5,-969 378.5,-965 382.5,-965 382.5,-945 378.5,-945 378.5,-941 382.5,-941 382.5,-937 455.5,-937 455.5,-973"/>
<polyline fill="none" stroke="black" points="382.5,-969 386.5,-969 386.5,-965 382.5,-965 "/>
<polyline fill="none" stroke="black" points="382.5,-945 386.5,-945 386.5,-941 382.5,-941 "/>
<text text-anchor="middle" x="419" y="-951.3" font-family="Times,serif" font-size="14.00">H2CZIS</text>
</a>
</g>
</g>
<!-- CALL_81dc3a0&#45;&gt;CALL_81e0420 -->
<g id="edge41" class="edge">
<title>CALL_81dc3a0&#45;&gt;CALL_81e0420</title>
<path fill="none" stroke="black" d="M419,-1008.7C419,-1000.98 419,-991.71 419,-983.11"/>
<polygon fill="black" stroke="black" points="422.5,-983.1 419,-973.1 415.5,-983.1 422.5,-983.1"/>
</g>
<!-- CALL_81ea2c0 -->
<g id="node43" class="node">
<title>CALL_81ea2c0</title>
<g id="a_node43"><a xlink:href="H2CYIS.svg" xlink:title="H2CYIS">
<polygon fill="lightgray" stroke="black" points="455,-901 383,-901 383,-897 379,-897 379,-893 383,-893 383,-873 379,-873 379,-869 383,-869 383,-865 455,-865 455,-901"/>
<polyline fill="none" stroke="black" points="383,-897 387,-897 387,-893 383,-893 "/>
<polyline fill="none" stroke="black" points="383,-873 387,-873 387,-869 383,-869 "/>
<text text-anchor="middle" x="419" y="-879.3" font-family="Times,serif" font-size="14.00">H2CYIS</text>
</a>
</g>
</g>
<!-- CALL_81e0420&#45;&gt;CALL_81ea2c0 -->
<g id="edge42" class="edge">
<title>CALL_81e0420&#45;&gt;CALL_81ea2c0</title>
<path fill="none" stroke="black" d="M419,-936.7C419,-928.98 419,-919.71 419,-911.11"/>
<polygon fill="black" stroke="black" points="422.5,-911.1 419,-901.1 415.5,-911.1 422.5,-911.1"/>
</g>
<!-- CALL_81ef5e0 -->
<g id="node44" class="node">
<title>CALL_81ef5e0</title>
<g id="a_node44"><a xlink:href="H3CZIS.svg" xlink:title="H3CZIS">
<polygon fill="lightgray" stroke="black" points="455.5,-829 382.5,-829 382.5,-825 378.5,-825 378.5,-821 382.5,-821 382.5,-801 378.5,-801 378.5,-797 382.5,-797 382.5,-793 455.5,-793 455.5,-829"/>
<polyline fill="none" stroke="black" points="382.5,-825 386.5,-825 386.5,-821 382.5,-821 "/>
<polyline fill="none" stroke="black" points="382.5,-801 386.5,-801 386.5,-797 382.5,-797 "/>
<text text-anchor="middle" x="419" y="-807.3" font-family="Times,serif" font-size="14.00">H3CZIS</text>
</a>
</g>
</g>
<!-- CALL_81ea2c0&#45;&gt;CALL_81ef5e0 -->
<g id="edge43" class="edge">
<title>CALL_81ea2c0&#45;&gt;CALL_81ef5e0</title>
<path fill="none" stroke="black" d="M419,-864.7C419,-856.98 419,-847.71 419,-839.11"/>
<polygon fill="black" stroke="black" points="422.5,-839.1 419,-829.1 415.5,-839.1 422.5,-839.1"/>
</g>
<!-- CALL_81f34e0 -->
<g id="node45" class="node">
<title>CALL_81f34e0</title>
<g id="a_node45"><a xlink:href="H2CZIS.svg" xlink:title="H2CZIS">
<polygon fill="lightgray" stroke="black" points="455.5,-757 382.5,-757 382.5,-753 378.5,-753 378.5,-749 382.5,-749 382.5,-729 378.5,-729 378.5,-725 382.5,-725 382.5,-721 455.5,-721 455.5,-757"/>
<polyline fill="none" stroke="black" points="382.5,-753 386.5,-753 386.5,-749 382.5,-749 "/>
<polyline fill="none" stroke="black" points="382.5,-729 386.5,-729 386.5,-725 382.5,-725 "/>
<text text-anchor="middle" x="419" y="-735.3" font-family="Times,serif" font-size="14.00">H2CZIS</text>
</a>
</g>
</g>
<!-- CALL_81ef5e0&#45;&gt;CALL_81f34e0 -->
<g id="edge44" class="edge">
<title>CALL_81ef5e0&#45;&gt;CALL_81f34e0</title>
<path fill="none" stroke="black" d="M419,-792.7C419,-784.98 419,-775.71 419,-767.11"/>
<polygon fill="black" stroke="black" points="422.5,-767.1 419,-757.1 415.5,-767.1 422.5,-767.1"/>
</g>
<!-- CALL_81f8900 -->
<g id="node46" class="node">
<title>CALL_81f8900</title>
<g id="a_node46"><a xlink:href="H3CZIS.svg" xlink:title="H3CZIS">
<polygon fill="lightgray" stroke="black" points="455.5,-685 382.5,-685 382.5,-681 378.5,-681 378.5,-677 382.5,-677 382.5,-657 378.5,-657 378.5,-653 382.5,-653 382.5,-649 455.5,-649 455.5,-685"/>
<polyline fill="none" stroke="black" points="382.5,-681 386.5,-681 386.5,-677 382.5,-677 "/>
<polyline fill="none" stroke="black" points="382.5,-657 386.5,-657 386.5,-653 382.5,-653 "/>
<text text-anchor="middle" x="419" y="-663.3" font-family="Times,serif" font-size="14.00">H3CZIS</text>
</a>
</g>
</g>
<!-- CALL_81f34e0&#45;&gt;CALL_81f8900 -->
<g id="edge45" class="edge">
<title>CALL_81f34e0&#45;&gt;CALL_81f8900</title>
<path fill="none" stroke="black" d="M419,-720.7C419,-712.98 419,-703.71 419,-695.11"/>
<polygon fill="black" stroke="black" points="422.5,-695.1 419,-685.1 415.5,-695.1 422.5,-695.1"/>
</g>
<!-- CALL_81fece0 -->
<g id="node47" class="node">
<title>CALL_81fece0</title>
<g id="a_node47"><a xlink:href="H3CSIS.svg" xlink:title="H3CSIS">
<polygon fill="lightgray" stroke="black" points="455.5,-613 382.5,-613 382.5,-609 378.5,-609 378.5,-605 382.5,-605 382.5,-585 378.5,-585 378.5,-581 382.5,-581 382.5,-577 455.5,-577 455.5,-613"/>
<polyline fill="none" stroke="black" points="382.5,-609 386.5,-609 386.5,-605 382.5,-605 "/>
<polyline fill="none" stroke="black" points="382.5,-585 386.5,-585 386.5,-581 382.5,-581 "/>
<text text-anchor="middle" x="419" y="-591.3" font-family="Times,serif" font-size="14.00">H3CSIS</text>
</a>
</g>
</g>
<!-- CALL_81f8900&#45;&gt;CALL_81fece0 -->
<g id="edge46" class="edge">
<title>CALL_81f8900&#45;&gt;CALL_81fece0</title>
<path fill="none" stroke="black" d="M419,-648.7C419,-640.98 419,-631.71 419,-623.11"/>
<polygon fill="black" stroke="black" points="422.5,-623.1 419,-613.1 415.5,-623.1 422.5,-623.1"/>
</g>
<!-- CALL_8302b00 -->
<g id="node48" class="node">
<title>CALL_8302b00</title>
<g id="a_node48"><a xlink:href="H2CZIS.svg" xlink:title="H2CZIS">
<polygon fill="lightgray" stroke="black" points="455.5,-541 382.5,-541 382.5,-537 378.5,-537 378.5,-533 382.5,-533 382.5,-513 378.5,-513 378.5,-509 382.5,-509 382.5,-505 455.5,-505 455.5,-541"/>
<polyline fill="none" stroke="black" points="382.5,-537 386.5,-537 386.5,-533 382.5,-533 "/>
<polyline fill="none" stroke="black" points="382.5,-513 386.5,-513 386.5,-509 382.5,-509 "/>
<text text-anchor="middle" x="419" y="-519.3" font-family="Times,serif" font-size="14.00">H2CZIS</text>
</a>
</g>
</g>
<!-- CALL_81fece0&#45;&gt;CALL_8302b00 -->
<g id="edge47" class="edge">
<title>CALL_81fece0&#45;&gt;CALL_8302b00</title>
<path fill="none" stroke="black" d="M419,-576.7C419,-568.98 419,-559.71 419,-551.11"/>
<polygon fill="black" stroke="black" points="422.5,-551.1 419,-541.1 415.5,-551.1 422.5,-551.1"/>
</g>
<!-- CALL_8308960 -->
<g id="node49" class="node">
<title>CALL_8308960</title>
<g id="a_node49"><a xlink:href="H3CSIS.svg" xlink:title="H3CSIS">
<polygon fill="lightgray" stroke="black" points="455.5,-469 382.5,-469 382.5,-465 378.5,-465 378.5,-461 382.5,-461 382.5,-441 378.5,-441 378.5,-437 382.5,-437 382.5,-433 455.5,-433 455.5,-469"/>
<polyline fill="none" stroke="black" points="382.5,-465 386.5,-465 386.5,-461 382.5,-461 "/>
<polyline fill="none" stroke="black" points="382.5,-441 386.5,-441 386.5,-437 382.5,-437 "/>
<text text-anchor="middle" x="419" y="-447.3" font-family="Times,serif" font-size="14.00">H3CSIS</text>
</a>
</g>
</g>
<!-- CALL_8302b00&#45;&gt;CALL_8308960 -->
<g id="edge48" class="edge">
<title>CALL_8302b00&#45;&gt;CALL_8308960</title>
<path fill="none" stroke="black" d="M419,-504.7C419,-496.98 419,-487.71 419,-479.11"/>
<polygon fill="black" stroke="black" points="422.5,-479.1 419,-469.1 415.5,-479.1 422.5,-479.1"/>
</g>
<!-- CALL_830edc0 -->
<g id="node50" class="node">
<title>CALL_830edc0</title>
<g id="a_node50"><a xlink:href="H3CSIS.svg" xlink:title="H3CSIS">
<polygon fill="lightgray" stroke="black" points="455.5,-397 382.5,-397 382.5,-393 378.5,-393 378.5,-389 382.5,-389 382.5,-369 378.5,-369 378.5,-365 382.5,-365 382.5,-361 455.5,-361 455.5,-397"/>
<polyline fill="none" stroke="black" points="382.5,-393 386.5,-393 386.5,-389 382.5,-389 "/>
<polyline fill="none" stroke="black" points="382.5,-369 386.5,-369 386.5,-365 382.5,-365 "/>
<text text-anchor="middle" x="419" y="-375.3" font-family="Times,serif" font-size="14.00">H3CSIS</text>
</a>
</g>
</g>
<!-- CALL_8308960&#45;&gt;CALL_830edc0 -->
<g id="edge49" class="edge">
<title>CALL_8308960&#45;&gt;CALL_830edc0</title>
<path fill="none" stroke="black" d="M419,-432.7C419,-424.98 419,-415.71 419,-407.11"/>
<polygon fill="black" stroke="black" points="422.5,-407.1 419,-397.1 415.5,-407.1 422.5,-407.1"/>
</g>
<!-- CALL_8312de0 -->
<g id="node51" class="node">
<title>CALL_8312de0</title>
<g id="a_node51"><a xlink:href="H2CZIS.svg" xlink:title="H2CZIS">
<polygon fill="lightgray" stroke="black" points="455.5,-325 382.5,-325 382.5,-321 378.5,-321 378.5,-317 382.5,-317 382.5,-297 378.5,-297 378.5,-293 382.5,-293 382.5,-289 455.5,-289 455.5,-325"/>
<polyline fill="none" stroke="black" points="382.5,-321 386.5,-321 386.5,-317 382.5,-317 "/>
<polyline fill="none" stroke="black" points="382.5,-297 386.5,-297 386.5,-293 382.5,-293 "/>
<text text-anchor="middle" x="419" y="-303.3" font-family="Times,serif" font-size="14.00">H2CZIS</text>
</a>
</g>
</g>
<!-- CALL_830edc0&#45;&gt;CALL_8312de0 -->
<g id="edge50" class="edge">
<title>CALL_830edc0&#45;&gt;CALL_8312de0</title>
<path fill="none" stroke="black" d="M419,-360.7C419,-352.98 419,-343.71 419,-335.11"/>
<polygon fill="black" stroke="black" points="422.5,-335.1 419,-325.1 415.5,-335.1 422.5,-335.1"/>
</g>
<!-- COMMENT_830fc80+1 -->
<g id="node52" class="node">
<title>COMMENT_830fc80+1</title>
<polygon fill="none" stroke="black" points="629,-253 203,-253 203,-217 635,-217 635,-247 629,-253"/>
<polyline fill="none" stroke="black" points="629,-253 629,-247 "/>
<polyline fill="none" stroke="black" points="635,-247 629,-247 "/>
<text text-anchor="middle" x="419" y="-231.3" font-family="Times,serif" font-size="14.00">Specify the pressure boundary condition for each wall cell</text>
</g>
<!-- CALL_8312de0&#45;&gt;COMMENT_830fc80+1 -->
<g id="edge51" class="edge">
<title>CALL_8312de0&#45;&gt;COMMENT_830fc80+1</title>
<path fill="none" stroke="black" d="M419,-288.7C419,-280.98 419,-271.71 419,-263.11"/>
<polygon fill="black" stroke="black" points="422.5,-263.1 419,-253.1 415.5,-263.1 422.5,-263.1"/>
</g>
<!-- DO_8319c00 -->
<g id="node53" class="node">
<title>DO_8319c00</title>
<polygon fill="none" stroke="orange" points="495,-181 343,-181 343,-145 495,-145 495,-181"/>
<text text-anchor="middle" x="419" y="-159.3" font-family="Times,serif" font-size="14.00">WALL_CELL_LOOP</text>
</g>
<!-- COMMENT_830fc80+1&#45;&gt;DO_8319c00 -->
<g id="edge52" class="edge">
<title>COMMENT_830fc80+1&#45;&gt;DO_8319c00</title>
<path fill="none" stroke="black" d="M419,-216.7C419,-208.98 419,-199.71 419,-191.11"/>
<polygon fill="black" stroke="black" points="422.5,-191.1 419,-181.1 415.5,-191.1 422.5,-191.1"/>
</g>
<!-- COMMENT_831f960+1 -->
<g id="node54" class="node">
<title>COMMENT_831f960+1</title>
<polygon fill="none" stroke="black" points="598,-109 234,-109 234,-73 604,-73 604,-103 598,-109"/>
<polyline fill="none" stroke="black" points="598,-109 598,-103 "/>
<polyline fill="none" stroke="black" points="604,-103 598,-103 "/>
<text text-anchor="middle" x="419" y="-87.3" font-family="Times,serif" font-size="14.00">Check for errors with Poisson solver initialization</text>
</g>
<!-- DO_8319c00&#45;&gt;COMMENT_831f960+1 -->
<g id="edge53" class="edge">
<title>DO_8319c00&#45;&gt;COMMENT_831f960+1</title>
<path fill="none" stroke="black" d="M419,-144.7C419,-136.98 419,-127.71 419,-119.11"/>
<polygon fill="black" stroke="black" points="422.5,-119.1 419,-109.1 415.5,-119.1 422.5,-119.1"/>
</g>
<!-- end_SUBPROGRAM_83278a0 -->
<g id="node55" class="node">
<title>end_SUBPROGRAM_83278a0</title>
<ellipse fill="black" stroke="black" cx="419" cy="-30" rx="7" ry="7"/>
</g>
<!-- COMMENT_831f960+1&#45;&gt;end_SUBPROGRAM_83278a0 -->
<g id="edge54" class="edge">
<title>COMMENT_831f960+1&#45;&gt;end_SUBPROGRAM_83278a0</title>
<path fill="none" stroke="black" d="M419,-72.93C419,-64.89 419,-55.33 419,-47.37"/>
<polygon fill="black" stroke="black" points="422.5,-47.22 419,-37.22 415.5,-47.22 422.5,-47.22"/>
</g>
</g>
</svg>
