<?xml version="1.0" encoding="UTF-8" standalone="no"?>
<!DOCTYPE svg PUBLIC "-//W3C//DTD SVG 1.1//EN"
 "http://www.w3.org/Graphics/SVG/1.1/DTD/svg11.dtd">
<!-- Generated by graphviz version 2.43.0 (0)
 -->
<!-- Title: INITIALIZE_EDGES Pages: 1 -->
<svg width="475pt" height="2043pt"
 viewBox="0.00 0.00 475.00 2043.44" xmlns="http://www.w3.org/2000/svg" xmlns:xlink="http://www.w3.org/1999/xlink">
<g id="graph0" class="graph" transform="scale(1 1) rotate(0) translate(4 2039.44)">
<title>INITIALIZE_EDGES</title>
<polygon fill="white" stroke="transparent" points="-4,4 -4,-2039.44 471,-2039.44 471,4 -4,4"/>
<text text-anchor="middle" x="233.5" y="-7.8" font-family="Times,serif" font-size="14.00">INITIALIZE_EDGES</text>
<g id="clust1" class="cluster">
<title>cluster_OBST_LOOP_3</title>
<polygon fill="none" stroke="orange" points="162.5,-65 162.5,-1005.44 304.5,-1005.44 304.5,-65 162.5,-65"/>
<text text-anchor="middle" x="223" y="-990.24" font-family="Times,serif" font-size="14.00">OBST_LOOP_3</text>
</g>
<!-- start_SUBPROGRAM_7d95400 -->
<g id="node1" class="node">
<title>start_SUBPROGRAM_7d95400</title>
<ellipse fill="none" stroke="black" cx="233.5" cy="-2028.44" rx="7" ry="7"/>
</g>
<!-- COMMENT_7bd4340+1 -->
<g id="node2" class="node">
<title>COMMENT_7bd4340+1</title>
<polygon fill="none" stroke="black" points="451.5,-1985.44 9.5,-1985.44 9.5,-1949.44 457.5,-1949.44 457.5,-1979.44 451.5,-1985.44"/>
<polyline fill="none" stroke="black" points="451.5,-1985.44 451.5,-1979.44 "/>
<polyline fill="none" stroke="black" points="457.5,-1979.44 451.5,-1979.44 "/>
<text text-anchor="middle" x="233.5" y="-1963.74" font-family="Times,serif" font-size="14.00">!&gt; brief Set up edge arrays for velocity boundary conditions</text>
</g>
<!-- start_SUBPROGRAM_7d95400&#45;&gt;COMMENT_7bd4340+1 -->
<g id="edge1" class="edge">
<title>start_SUBPROGRAM_7d95400&#45;&gt;COMMENT_7bd4340+1</title>
<path fill="none" stroke="black" d="M233.5,-2021.13C233.5,-2014.93 233.5,-2005.03 233.5,-1995.49"/>
<polygon fill="black" stroke="black" points="237,-1995.46 233.5,-1985.46 230,-1995.46 237,-1995.46"/>
</g>
<!-- COMMENT_7bd6300+1 -->
<g id="node3" class="node">
<title>COMMENT_7bd6300+1</title>
<polygon fill="none" stroke="black" points="461,-1913.44 0,-1913.44 0,-1877.44 467,-1877.44 467,-1907.44 461,-1913.44"/>
<polyline fill="none" stroke="black" points="461,-1913.44 461,-1907.44 "/>
<polyline fill="none" stroke="black" points="467,-1907.44 461,-1907.44 "/>
<text text-anchor="middle" x="233.5" y="-1891.74" font-family="Times,serif" font-size="14.00">Arguments for DEFINE_EDGE(I,J,K,IOR,IEC,NM,OBST_INDEX)</text>
</g>
<!-- COMMENT_7bd4340+1&#45;&gt;COMMENT_7bd6300+1 -->
<g id="edge2" class="edge">
<title>COMMENT_7bd4340+1&#45;&gt;COMMENT_7bd6300+1</title>
<path fill="none" stroke="black" d="M233.5,-1949.14C233.5,-1941.42 233.5,-1932.15 233.5,-1923.55"/>
<polygon fill="black" stroke="black" points="237,-1923.54 233.5,-1913.54 230,-1923.54 237,-1923.54"/>
</g>
<!-- CALL_7bd8b80 -->
<g id="node4" class="node">
<title>CALL_7bd8b80</title>
<g id="a_node4"><a xlink:href="DEFINE_EDGE.svg" xlink:title="DEFINE_EDGE">
<polygon fill="lightgray" stroke="black" points="296.5,-1841.44 170.5,-1841.44 170.5,-1837.44 166.5,-1837.44 166.5,-1833.44 170.5,-1833.44 170.5,-1813.44 166.5,-1813.44 166.5,-1809.44 170.5,-1809.44 170.5,-1805.44 296.5,-1805.44 296.5,-1841.44"/>
<polyline fill="none" stroke="black" points="170.5,-1837.44 174.5,-1837.44 174.5,-1833.44 170.5,-1833.44 "/>
<polyline fill="none" stroke="black" points="170.5,-1813.44 174.5,-1813.44 174.5,-1809.44 170.5,-1809.44 "/>
<text text-anchor="middle" x="233.5" y="-1819.74" font-family="Times,serif" font-size="14.00">DEFINE_EDGE</text>
</a>
</g>
</g>
<!-- COMMENT_7bd6300+1&#45;&gt;CALL_7bd8b80 -->
<g id="edge3" class="edge">
<title>COMMENT_7bd6300+1&#45;&gt;CALL_7bd8b80</title>
<path fill="none" stroke="black" d="M233.5,-1877.14C233.5,-1869.42 233.5,-1860.15 233.5,-1851.55"/>
<polygon fill="black" stroke="black" points="237,-1851.54 233.5,-1841.54 230,-1851.54 237,-1851.54"/>
</g>
<!-- CALL_7bdade0 -->
<g id="node5" class="node">
<title>CALL_7bdade0</title>
<g id="a_node5"><a xlink:href="DEFINE_EDGE.svg" xlink:title="DEFINE_EDGE">
<polygon fill="lightgray" stroke="black" points="296.5,-1769.44 170.5,-1769.44 170.5,-1765.44 166.5,-1765.44 166.5,-1761.44 170.5,-1761.44 170.5,-1741.44 166.5,-1741.44 166.5,-1737.44 170.5,-1737.44 170.5,-1733.44 296.5,-1733.44 296.5,-1769.44"/>
<polyline fill="none" stroke="black" points="170.5,-1765.44 174.5,-1765.44 174.5,-1761.44 170.5,-1761.44 "/>
<polyline fill="none" stroke="black" points="170.5,-1741.44 174.5,-1741.44 174.5,-1737.44 170.5,-1737.44 "/>
<text text-anchor="middle" x="233.5" y="-1747.74" font-family="Times,serif" font-size="14.00">DEFINE_EDGE</text>
</a>
</g>
</g>
<!-- CALL_7bd8b80&#45;&gt;CALL_7bdade0 -->
<g id="edge4" class="edge">
<title>CALL_7bd8b80&#45;&gt;CALL_7bdade0</title>
<path fill="none" stroke="black" d="M233.5,-1805.14C233.5,-1797.42 233.5,-1788.15 233.5,-1779.55"/>
<polygon fill="black" stroke="black" points="237,-1779.54 233.5,-1769.54 230,-1779.54 237,-1779.54"/>
</g>
<!-- CALL_7bdd040 -->
<g id="node6" class="node">
<title>CALL_7bdd040</title>
<g id="a_node6"><a xlink:href="DEFINE_EDGE.svg" xlink:title="DEFINE_EDGE">
<polygon fill="lightgray" stroke="black" points="296.5,-1697.44 170.5,-1697.44 170.5,-1693.44 166.5,-1693.44 166.5,-1689.44 170.5,-1689.44 170.5,-1669.44 166.5,-1669.44 166.5,-1665.44 170.5,-1665.44 170.5,-1661.44 296.5,-1661.44 296.5,-1697.44"/>
<polyline fill="none" stroke="black" points="170.5,-1693.44 174.5,-1693.44 174.5,-1689.44 170.5,-1689.44 "/>
<polyline fill="none" stroke="black" points="170.5,-1669.44 174.5,-1669.44 174.5,-1665.44 170.5,-1665.44 "/>
<text text-anchor="middle" x="233.5" y="-1675.74" font-family="Times,serif" font-size="14.00">DEFINE_EDGE</text>
</a>
</g>
</g>
<!-- CALL_7bdade0&#45;&gt;CALL_7bdd040 -->
<g id="edge5" class="edge">
<title>CALL_7bdade0&#45;&gt;CALL_7bdd040</title>
<path fill="none" stroke="black" d="M233.5,-1733.14C233.5,-1725.42 233.5,-1716.15 233.5,-1707.55"/>
<polygon fill="black" stroke="black" points="237,-1707.54 233.5,-1697.54 230,-1707.54 237,-1707.54"/>
</g>
<!-- CALL_7bdf440 -->
<g id="node7" class="node">
<title>CALL_7bdf440</title>
<g id="a_node7"><a xlink:href="DEFINE_EDGE.svg" xlink:title="DEFINE_EDGE">
<polygon fill="lightgray" stroke="black" points="296.5,-1625.44 170.5,-1625.44 170.5,-1621.44 166.5,-1621.44 166.5,-1617.44 170.5,-1617.44 170.5,-1597.44 166.5,-1597.44 166.5,-1593.44 170.5,-1593.44 170.5,-1589.44 296.5,-1589.44 296.5,-1625.44"/>
<polyline fill="none" stroke="black" points="170.5,-1621.44 174.5,-1621.44 174.5,-1617.44 170.5,-1617.44 "/>
<polyline fill="none" stroke="black" points="170.5,-1597.44 174.5,-1597.44 174.5,-1593.44 170.5,-1593.44 "/>
<text text-anchor="middle" x="233.5" y="-1603.74" font-family="Times,serif" font-size="14.00">DEFINE_EDGE</text>
</a>
</g>
</g>
<!-- CALL_7bdd040&#45;&gt;CALL_7bdf440 -->
<g id="edge6" class="edge">
<title>CALL_7bdd040&#45;&gt;CALL_7bdf440</title>
<path fill="none" stroke="black" d="M233.5,-1661.14C233.5,-1653.42 233.5,-1644.15 233.5,-1635.55"/>
<polygon fill="black" stroke="black" points="237,-1635.54 233.5,-1625.54 230,-1635.54 237,-1635.54"/>
</g>
<!-- CALL_7be2c00 -->
<g id="node8" class="node">
<title>CALL_7be2c00</title>
<g id="a_node8"><a xlink:href="DEFINE_EDGE.svg" xlink:title="DEFINE_EDGE">
<polygon fill="lightgray" stroke="black" points="296.5,-1553.44 170.5,-1553.44 170.5,-1549.44 166.5,-1549.44 166.5,-1545.44 170.5,-1545.44 170.5,-1525.44 166.5,-1525.44 166.5,-1521.44 170.5,-1521.44 170.5,-1517.44 296.5,-1517.44 296.5,-1553.44"/>
<polyline fill="none" stroke="black" points="170.5,-1549.44 174.5,-1549.44 174.5,-1545.44 170.5,-1545.44 "/>
<polyline fill="none" stroke="black" points="170.5,-1525.44 174.5,-1525.44 174.5,-1521.44 170.5,-1521.44 "/>
<text text-anchor="middle" x="233.5" y="-1531.74" font-family="Times,serif" font-size="14.00">DEFINE_EDGE</text>
</a>
</g>
</g>
<!-- CALL_7bdf440&#45;&gt;CALL_7be2c00 -->
<g id="edge7" class="edge">
<title>CALL_7bdf440&#45;&gt;CALL_7be2c00</title>
<path fill="none" stroke="black" d="M233.5,-1589.14C233.5,-1581.42 233.5,-1572.15 233.5,-1563.55"/>
<polygon fill="black" stroke="black" points="237,-1563.54 233.5,-1553.54 230,-1563.54 237,-1563.54"/>
</g>
<!-- CALL_7be4f80 -->
<g id="node9" class="node">
<title>CALL_7be4f80</title>
<g id="a_node9"><a xlink:href="DEFINE_EDGE.svg" xlink:title="DEFINE_EDGE">
<polygon fill="lightgray" stroke="black" points="296.5,-1481.44 170.5,-1481.44 170.5,-1477.44 166.5,-1477.44 166.5,-1473.44 170.5,-1473.44 170.5,-1453.44 166.5,-1453.44 166.5,-1449.44 170.5,-1449.44 170.5,-1445.44 296.5,-1445.44 296.5,-1481.44"/>
<polyline fill="none" stroke="black" points="170.5,-1477.44 174.5,-1477.44 174.5,-1473.44 170.5,-1473.44 "/>
<polyline fill="none" stroke="black" points="170.5,-1453.44 174.5,-1453.44 174.5,-1449.44 170.5,-1449.44 "/>
<text text-anchor="middle" x="233.5" y="-1459.74" font-family="Times,serif" font-size="14.00">DEFINE_EDGE</text>
</a>
</g>
</g>
<!-- CALL_7be2c00&#45;&gt;CALL_7be4f80 -->
<g id="edge8" class="edge">
<title>CALL_7be2c00&#45;&gt;CALL_7be4f80</title>
<path fill="none" stroke="black" d="M233.5,-1517.14C233.5,-1509.42 233.5,-1500.15 233.5,-1491.55"/>
<polygon fill="black" stroke="black" points="237,-1491.54 233.5,-1481.54 230,-1491.54 237,-1491.54"/>
</g>
<!-- CALL_7be7240 -->
<g id="node10" class="node">
<title>CALL_7be7240</title>
<g id="a_node10"><a xlink:href="DEFINE_EDGE.svg" xlink:title="DEFINE_EDGE">
<polygon fill="lightgray" stroke="black" points="296.5,-1409.44 170.5,-1409.44 170.5,-1405.44 166.5,-1405.44 166.5,-1401.44 170.5,-1401.44 170.5,-1381.44 166.5,-1381.44 166.5,-1377.44 170.5,-1377.44 170.5,-1373.44 296.5,-1373.44 296.5,-1409.44"/>
<polyline fill="none" stroke="black" points="170.5,-1405.44 174.5,-1405.44 174.5,-1401.44 170.5,-1401.44 "/>
<polyline fill="none" stroke="black" points="170.5,-1381.44 174.5,-1381.44 174.5,-1377.44 170.5,-1377.44 "/>
<text text-anchor="middle" x="233.5" y="-1387.74" font-family="Times,serif" font-size="14.00">DEFINE_EDGE</text>
</a>
</g>
</g>
<!-- CALL_7be4f80&#45;&gt;CALL_7be7240 -->
<g id="edge9" class="edge">
<title>CALL_7be4f80&#45;&gt;CALL_7be7240</title>
<path fill="none" stroke="black" d="M233.5,-1445.14C233.5,-1437.42 233.5,-1428.15 233.5,-1419.55"/>
<polygon fill="black" stroke="black" points="237,-1419.54 233.5,-1409.54 230,-1419.54 237,-1419.54"/>
</g>
<!-- CALL_7be9540 -->
<g id="node11" class="node">
<title>CALL_7be9540</title>
<g id="a_node11"><a xlink:href="DEFINE_EDGE.svg" xlink:title="DEFINE_EDGE">
<polygon fill="lightgray" stroke="black" points="296.5,-1337.44 170.5,-1337.44 170.5,-1333.44 166.5,-1333.44 166.5,-1329.44 170.5,-1329.44 170.5,-1309.44 166.5,-1309.44 166.5,-1305.44 170.5,-1305.44 170.5,-1301.44 296.5,-1301.44 296.5,-1337.44"/>
<polyline fill="none" stroke="black" points="170.5,-1333.44 174.5,-1333.44 174.5,-1329.44 170.5,-1329.44 "/>
<polyline fill="none" stroke="black" points="170.5,-1309.44 174.5,-1309.44 174.5,-1305.44 170.5,-1305.44 "/>
<text text-anchor="middle" x="233.5" y="-1315.74" font-family="Times,serif" font-size="14.00">DEFINE_EDGE</text>
</a>
</g>
</g>
<!-- CALL_7be7240&#45;&gt;CALL_7be9540 -->
<g id="edge10" class="edge">
<title>CALL_7be7240&#45;&gt;CALL_7be9540</title>
<path fill="none" stroke="black" d="M233.5,-1373.14C233.5,-1365.42 233.5,-1356.15 233.5,-1347.55"/>
<polygon fill="black" stroke="black" points="237,-1347.54 233.5,-1337.54 230,-1347.54 237,-1347.54"/>
</g>
<!-- CALL_7beca40 -->
<g id="node12" class="node">
<title>CALL_7beca40</title>
<g id="a_node12"><a xlink:href="DEFINE_EDGE.svg" xlink:title="DEFINE_EDGE">
<polygon fill="lightgray" stroke="black" points="296.5,-1265.44 170.5,-1265.44 170.5,-1261.44 166.5,-1261.44 166.5,-1257.44 170.5,-1257.44 170.5,-1237.44 166.5,-1237.44 166.5,-1233.44 170.5,-1233.44 170.5,-1229.44 296.5,-1229.44 296.5,-1265.44"/>
<polyline fill="none" stroke="black" points="170.5,-1261.44 174.5,-1261.44 174.5,-1257.44 170.5,-1257.44 "/>
<polyline fill="none" stroke="black" points="170.5,-1237.44 174.5,-1237.44 174.5,-1233.44 170.5,-1233.44 "/>
<text text-anchor="middle" x="233.5" y="-1243.74" font-family="Times,serif" font-size="14.00">DEFINE_EDGE</text>
</a>
</g>
</g>
<!-- CALL_7be9540&#45;&gt;CALL_7beca40 -->
<g id="edge11" class="edge">
<title>CALL_7be9540&#45;&gt;CALL_7beca40</title>
<path fill="none" stroke="black" d="M233.5,-1301.14C233.5,-1293.42 233.5,-1284.15 233.5,-1275.55"/>
<polygon fill="black" stroke="black" points="237,-1275.54 233.5,-1265.54 230,-1275.54 237,-1275.54"/>
</g>
<!-- CALL_7beeec0 -->
<g id="node13" class="node">
<title>CALL_7beeec0</title>
<g id="a_node13"><a xlink:href="DEFINE_EDGE.svg" xlink:title="DEFINE_EDGE">
<polygon fill="lightgray" stroke="black" points="296.5,-1193.44 170.5,-1193.44 170.5,-1189.44 166.5,-1189.44 166.5,-1185.44 170.5,-1185.44 170.5,-1165.44 166.5,-1165.44 166.5,-1161.44 170.5,-1161.44 170.5,-1157.44 296.5,-1157.44 296.5,-1193.44"/>
<polyline fill="none" stroke="black" points="170.5,-1189.44 174.5,-1189.44 174.5,-1185.44 170.5,-1185.44 "/>
<polyline fill="none" stroke="black" points="170.5,-1165.44 174.5,-1165.44 174.5,-1161.44 170.5,-1161.44 "/>
<text text-anchor="middle" x="233.5" y="-1171.74" font-family="Times,serif" font-size="14.00">DEFINE_EDGE</text>
</a>
</g>
</g>
<!-- CALL_7beca40&#45;&gt;CALL_7beeec0 -->
<g id="edge12" class="edge">
<title>CALL_7beca40&#45;&gt;CALL_7beeec0</title>
<path fill="none" stroke="black" d="M233.5,-1229.14C233.5,-1221.42 233.5,-1212.15 233.5,-1203.55"/>
<polygon fill="black" stroke="black" points="237,-1203.54 233.5,-1193.54 230,-1203.54 237,-1203.54"/>
</g>
<!-- CALL_7bf1180 -->
<g id="node14" class="node">
<title>CALL_7bf1180</title>
<g id="a_node14"><a xlink:href="DEFINE_EDGE.svg" xlink:title="DEFINE_EDGE">
<polygon fill="lightgray" stroke="black" points="296.5,-1121.44 170.5,-1121.44 170.5,-1117.44 166.5,-1117.44 166.5,-1113.44 170.5,-1113.44 170.5,-1093.44 166.5,-1093.44 166.5,-1089.44 170.5,-1089.44 170.5,-1085.44 296.5,-1085.44 296.5,-1121.44"/>
<polyline fill="none" stroke="black" points="170.5,-1117.44 174.5,-1117.44 174.5,-1113.44 170.5,-1113.44 "/>
<polyline fill="none" stroke="black" points="170.5,-1093.44 174.5,-1093.44 174.5,-1089.44 170.5,-1089.44 "/>
<text text-anchor="middle" x="233.5" y="-1099.74" font-family="Times,serif" font-size="14.00">DEFINE_EDGE</text>
</a>
</g>
</g>
<!-- CALL_7beeec0&#45;&gt;CALL_7bf1180 -->
<g id="edge13" class="edge">
<title>CALL_7beeec0&#45;&gt;CALL_7bf1180</title>
<path fill="none" stroke="black" d="M233.5,-1157.14C233.5,-1149.42 233.5,-1140.15 233.5,-1131.55"/>
<polygon fill="black" stroke="black" points="237,-1131.54 233.5,-1121.54 230,-1131.54 237,-1131.54"/>
</g>
<!-- CALL_7bf3420 -->
<g id="node15" class="node">
<title>CALL_7bf3420</title>
<g id="a_node15"><a xlink:href="DEFINE_EDGE.svg" xlink:title="DEFINE_EDGE">
<polygon fill="lightgray" stroke="black" points="296.5,-1049.44 170.5,-1049.44 170.5,-1045.44 166.5,-1045.44 166.5,-1041.44 170.5,-1041.44 170.5,-1021.44 166.5,-1021.44 166.5,-1017.44 170.5,-1017.44 170.5,-1013.44 296.5,-1013.44 296.5,-1049.44"/>
<polyline fill="none" stroke="black" points="170.5,-1045.44 174.5,-1045.44 174.5,-1041.44 170.5,-1041.44 "/>
<polyline fill="none" stroke="black" points="170.5,-1021.44 174.5,-1021.44 174.5,-1017.44 170.5,-1017.44 "/>
<text text-anchor="middle" x="233.5" y="-1027.74" font-family="Times,serif" font-size="14.00">DEFINE_EDGE</text>
</a>
</g>
</g>
<!-- CALL_7bf1180&#45;&gt;CALL_7bf3420 -->
<g id="edge14" class="edge">
<title>CALL_7bf1180&#45;&gt;CALL_7bf3420</title>
<path fill="none" stroke="black" d="M233.5,-1085.14C233.5,-1077.42 233.5,-1068.15 233.5,-1059.55"/>
<polygon fill="black" stroke="black" points="237,-1059.54 233.5,-1049.54 230,-1059.54 237,-1059.54"/>
</g>
<!-- beginDO_DO_7d95280 -->
<g id="node16" class="node">
<title>beginDO_DO_7d95280</title>
<ellipse fill="black" stroke="black" cx="233.5" cy="-974.08" rx="0.36" ry="0.36"/>
</g>
<!-- CALL_7bf3420&#45;&gt;beginDO_DO_7d95280 -->
<g id="edge27" class="edge">
<title>CALL_7bf3420&#45;&gt;beginDO_DO_7d95280</title>
<path fill="none" stroke="black" d="M233.5,-1013.23C233.5,-997.48 233.5,-976.44 233.5,-975.14"/>
</g>
<!-- CALL_7bf8be0 -->
<g id="node18" class="node">
<title>CALL_7bf8be0</title>
<g id="a_node18"><a xlink:href="DEFINE_EDGE.svg" xlink:title="DEFINE_EDGE">
<polygon fill="lightgray" stroke="black" points="296.5,-937.72 170.5,-937.72 170.5,-933.72 166.5,-933.72 166.5,-929.72 170.5,-929.72 170.5,-909.72 166.5,-909.72 166.5,-905.72 170.5,-905.72 170.5,-901.72 296.5,-901.72 296.5,-937.72"/>
<polyline fill="none" stroke="black" points="170.5,-933.72 174.5,-933.72 174.5,-929.72 170.5,-929.72 "/>
<polyline fill="none" stroke="black" points="170.5,-909.72 174.5,-909.72 174.5,-905.72 170.5,-905.72 "/>
<text text-anchor="middle" x="233.5" y="-916.02" font-family="Times,serif" font-size="14.00">DEFINE_EDGE</text>
</a>
</g>
</g>
<!-- beginDO_DO_7d95280&#45;&gt;CALL_7bf8be0 -->
<g id="edge15" class="edge">
<title>beginDO_DO_7d95280&#45;&gt;CALL_7bf8be0</title>
<path fill="none" stroke="black" d="M233.5,-973.57C233.5,-972.09 233.5,-960.04 233.5,-947.82"/>
<polygon fill="black" stroke="black" points="237,-947.74 233.5,-937.74 230,-947.74 237,-947.74"/>
</g>
<!-- endDO_DO_7d95280 -->
<g id="node17" class="node">
<title>endDO_DO_7d95280</title>
<ellipse fill="black" stroke="black" cx="233.5" cy="-73.36" rx="0.36" ry="0.36"/>
</g>
<!-- end_SUBPROGRAM_7d95400 -->
<g id="node30" class="node">
<title>end_SUBPROGRAM_7d95400</title>
<ellipse fill="black" stroke="black" cx="233.5" cy="-30" rx="7" ry="7"/>
</g>
<!-- endDO_DO_7d95280&#45;&gt;end_SUBPROGRAM_7d95400 -->
<g id="edge29" class="edge">
<title>endDO_DO_7d95280&#45;&gt;end_SUBPROGRAM_7d95400</title>
<path fill="none" stroke="black" d="M233.5,-72.24C233.5,-70.89 233.5,-58.27 233.5,-47.34"/>
<polygon fill="black" stroke="black" points="237,-47.1 233.5,-37.1 230,-47.1 237,-47.1"/>
</g>
<!-- CALL_7bfb000 -->
<g id="node19" class="node">
<title>CALL_7bfb000</title>
<g id="a_node19"><a xlink:href="DEFINE_EDGE.svg" xlink:title="DEFINE_EDGE">
<polygon fill="lightgray" stroke="black" points="296.5,-865.72 170.5,-865.72 170.5,-861.72 166.5,-861.72 166.5,-857.72 170.5,-857.72 170.5,-837.72 166.5,-837.72 166.5,-833.72 170.5,-833.72 170.5,-829.72 296.5,-829.72 296.5,-865.72"/>
<polyline fill="none" stroke="black" points="170.5,-861.72 174.5,-861.72 174.5,-857.72 170.5,-857.72 "/>
<polyline fill="none" stroke="black" points="170.5,-837.72 174.5,-837.72 174.5,-833.72 170.5,-833.72 "/>
<text text-anchor="middle" x="233.5" y="-844.02" font-family="Times,serif" font-size="14.00">DEFINE_EDGE</text>
</a>
</g>
</g>
<!-- CALL_7bf8be0&#45;&gt;CALL_7bfb000 -->
<g id="edge16" class="edge">
<title>CALL_7bf8be0&#45;&gt;CALL_7bfb000</title>
<path fill="none" stroke="black" d="M233.5,-901.42C233.5,-893.7 233.5,-884.43 233.5,-875.83"/>
<polygon fill="black" stroke="black" points="237,-875.82 233.5,-865.82 230,-875.82 237,-875.82"/>
</g>
<!-- CALL_7bfd680 -->
<g id="node20" class="node">
<title>CALL_7bfd680</title>
<g id="a_node20"><a xlink:href="DEFINE_EDGE.svg" xlink:title="DEFINE_EDGE">
<polygon fill="lightgray" stroke="black" points="296.5,-793.72 170.5,-793.72 170.5,-789.72 166.5,-789.72 166.5,-785.72 170.5,-785.72 170.5,-765.72 166.5,-765.72 166.5,-761.72 170.5,-761.72 170.5,-757.72 296.5,-757.72 296.5,-793.72"/>
<polyline fill="none" stroke="black" points="170.5,-789.72 174.5,-789.72 174.5,-785.72 170.5,-785.72 "/>
<polyline fill="none" stroke="black" points="170.5,-765.72 174.5,-765.72 174.5,-761.72 170.5,-761.72 "/>
<text text-anchor="middle" x="233.5" y="-772.02" font-family="Times,serif" font-size="14.00">DEFINE_EDGE</text>
</a>
</g>
</g>
<!-- CALL_7bfb000&#45;&gt;CALL_7bfd680 -->
<g id="edge17" class="edge">
<title>CALL_7bfb000&#45;&gt;CALL_7bfd680</title>
<path fill="none" stroke="black" d="M233.5,-829.42C233.5,-821.7 233.5,-812.43 233.5,-803.83"/>
<polygon fill="black" stroke="black" points="237,-803.82 233.5,-793.82 230,-803.82 237,-803.82"/>
</g>
<!-- CALL_7bffb40 -->
<g id="node21" class="node">
<title>CALL_7bffb40</title>
<g id="a_node21"><a xlink:href="DEFINE_EDGE.svg" xlink:title="DEFINE_EDGE">
<polygon fill="lightgray" stroke="black" points="296.5,-721.72 170.5,-721.72 170.5,-717.72 166.5,-717.72 166.5,-713.72 170.5,-713.72 170.5,-693.72 166.5,-693.72 166.5,-689.72 170.5,-689.72 170.5,-685.72 296.5,-685.72 296.5,-721.72"/>
<polyline fill="none" stroke="black" points="170.5,-717.72 174.5,-717.72 174.5,-713.72 170.5,-713.72 "/>
<polyline fill="none" stroke="black" points="170.5,-693.72 174.5,-693.72 174.5,-689.72 170.5,-689.72 "/>
<text text-anchor="middle" x="233.5" y="-700.02" font-family="Times,serif" font-size="14.00">DEFINE_EDGE</text>
</a>
</g>
</g>
<!-- CALL_7bfd680&#45;&gt;CALL_7bffb40 -->
<g id="edge18" class="edge">
<title>CALL_7bfd680&#45;&gt;CALL_7bffb40</title>
<path fill="none" stroke="black" d="M233.5,-757.42C233.5,-749.7 233.5,-740.43 233.5,-731.83"/>
<polygon fill="black" stroke="black" points="237,-731.82 233.5,-721.82 230,-731.82 237,-731.82"/>
</g>
<!-- CALL_7d835a0 -->
<g id="node22" class="node">
<title>CALL_7d835a0</title>
<g id="a_node22"><a xlink:href="DEFINE_EDGE.svg" xlink:title="DEFINE_EDGE">
<polygon fill="lightgray" stroke="black" points="296.5,-649.72 170.5,-649.72 170.5,-645.72 166.5,-645.72 166.5,-641.72 170.5,-641.72 170.5,-621.72 166.5,-621.72 166.5,-617.72 170.5,-617.72 170.5,-613.72 296.5,-613.72 296.5,-649.72"/>
<polyline fill="none" stroke="black" points="170.5,-645.72 174.5,-645.72 174.5,-641.72 170.5,-641.72 "/>
<polyline fill="none" stroke="black" points="170.5,-621.72 174.5,-621.72 174.5,-617.72 170.5,-617.72 "/>
<text text-anchor="middle" x="233.5" y="-628.02" font-family="Times,serif" font-size="14.00">DEFINE_EDGE</text>
</a>
</g>
</g>
<!-- CALL_7bffb40&#45;&gt;CALL_7d835a0 -->
<g id="edge19" class="edge">
<title>CALL_7bffb40&#45;&gt;CALL_7d835a0</title>
<path fill="none" stroke="black" d="M233.5,-685.42C233.5,-677.7 233.5,-668.43 233.5,-659.83"/>
<polygon fill="black" stroke="black" points="237,-659.82 233.5,-649.82 230,-659.82 237,-659.82"/>
</g>
<!-- CALL_7d85a80 -->
<g id="node23" class="node">
<title>CALL_7d85a80</title>
<g id="a_node23"><a xlink:href="DEFINE_EDGE.svg" xlink:title="DEFINE_EDGE">
<polygon fill="lightgray" stroke="black" points="296.5,-577.72 170.5,-577.72 170.5,-573.72 166.5,-573.72 166.5,-569.72 170.5,-569.72 170.5,-549.72 166.5,-549.72 166.5,-545.72 170.5,-545.72 170.5,-541.72 296.5,-541.72 296.5,-577.72"/>
<polyline fill="none" stroke="black" points="170.5,-573.72 174.5,-573.72 174.5,-569.72 170.5,-569.72 "/>
<polyline fill="none" stroke="black" points="170.5,-549.72 174.5,-549.72 174.5,-545.72 170.5,-545.72 "/>
<text text-anchor="middle" x="233.5" y="-556.02" font-family="Times,serif" font-size="14.00">DEFINE_EDGE</text>
</a>
</g>
</g>
<!-- CALL_7d835a0&#45;&gt;CALL_7d85a80 -->
<g id="edge20" class="edge">
<title>CALL_7d835a0&#45;&gt;CALL_7d85a80</title>
<path fill="none" stroke="black" d="M233.5,-613.42C233.5,-605.7 233.5,-596.43 233.5,-587.83"/>
<polygon fill="black" stroke="black" points="237,-587.82 233.5,-577.82 230,-587.82 237,-587.82"/>
</g>
<!-- CALL_7d87fc0 -->
<g id="node24" class="node">
<title>CALL_7d87fc0</title>
<g id="a_node24"><a xlink:href="DEFINE_EDGE.svg" xlink:title="DEFINE_EDGE">
<polygon fill="lightgray" stroke="black" points="296.5,-505.72 170.5,-505.72 170.5,-501.72 166.5,-501.72 166.5,-497.72 170.5,-497.72 170.5,-477.72 166.5,-477.72 166.5,-473.72 170.5,-473.72 170.5,-469.72 296.5,-469.72 296.5,-505.72"/>
<polyline fill="none" stroke="black" points="170.5,-501.72 174.5,-501.72 174.5,-497.72 170.5,-497.72 "/>
<polyline fill="none" stroke="black" points="170.5,-477.72 174.5,-477.72 174.5,-473.72 170.5,-473.72 "/>
<text text-anchor="middle" x="233.5" y="-484.02" font-family="Times,serif" font-size="14.00">DEFINE_EDGE</text>
</a>
</g>
</g>
<!-- CALL_7d85a80&#45;&gt;CALL_7d87fc0 -->
<g id="edge21" class="edge">
<title>CALL_7d85a80&#45;&gt;CALL_7d87fc0</title>
<path fill="none" stroke="black" d="M233.5,-541.42C233.5,-533.7 233.5,-524.43 233.5,-515.83"/>
<polygon fill="black" stroke="black" points="237,-515.82 233.5,-505.82 230,-515.82 237,-515.82"/>
</g>
<!-- CALL_7d8a460 -->
<g id="node25" class="node">
<title>CALL_7d8a460</title>
<g id="a_node25"><a xlink:href="DEFINE_EDGE.svg" xlink:title="DEFINE_EDGE">
<polygon fill="lightgray" stroke="black" points="296.5,-433.72 170.5,-433.72 170.5,-429.72 166.5,-429.72 166.5,-425.72 170.5,-425.72 170.5,-405.72 166.5,-405.72 166.5,-401.72 170.5,-401.72 170.5,-397.72 296.5,-397.72 296.5,-433.72"/>
<polyline fill="none" stroke="black" points="170.5,-429.72 174.5,-429.72 174.5,-425.72 170.5,-425.72 "/>
<polyline fill="none" stroke="black" points="170.5,-405.72 174.5,-405.72 174.5,-401.72 170.5,-401.72 "/>
<text text-anchor="middle" x="233.5" y="-412.02" font-family="Times,serif" font-size="14.00">DEFINE_EDGE</text>
</a>
</g>
</g>
<!-- CALL_7d87fc0&#45;&gt;CALL_7d8a460 -->
<g id="edge22" class="edge">
<title>CALL_7d87fc0&#45;&gt;CALL_7d8a460</title>
<path fill="none" stroke="black" d="M233.5,-469.42C233.5,-461.7 233.5,-452.43 233.5,-443.83"/>
<polygon fill="black" stroke="black" points="237,-443.82 233.5,-433.82 230,-443.82 237,-443.82"/>
</g>
<!-- CALL_7d8df80 -->
<g id="node26" class="node">
<title>CALL_7d8df80</title>
<g id="a_node26"><a xlink:href="DEFINE_EDGE.svg" xlink:title="DEFINE_EDGE">
<polygon fill="lightgray" stroke="black" points="296.5,-361.72 170.5,-361.72 170.5,-357.72 166.5,-357.72 166.5,-353.72 170.5,-353.72 170.5,-333.72 166.5,-333.72 166.5,-329.72 170.5,-329.72 170.5,-325.72 296.5,-325.72 296.5,-361.72"/>
<polyline fill="none" stroke="black" points="170.5,-357.72 174.5,-357.72 174.5,-353.72 170.5,-353.72 "/>
<polyline fill="none" stroke="black" points="170.5,-333.72 174.5,-333.72 174.5,-329.72 170.5,-329.72 "/>
<text text-anchor="middle" x="233.5" y="-340.02" font-family="Times,serif" font-size="14.00">DEFINE_EDGE</text>
</a>
</g>
</g>
<!-- CALL_7d8a460&#45;&gt;CALL_7d8df80 -->
<g id="edge23" class="edge">
<title>CALL_7d8a460&#45;&gt;CALL_7d8df80</title>
<path fill="none" stroke="black" d="M233.5,-397.42C233.5,-389.7 233.5,-380.43 233.5,-371.83"/>
<polygon fill="black" stroke="black" points="237,-371.82 233.5,-361.82 230,-371.82 237,-371.82"/>
</g>
<!-- CALL_7d90440 -->
<g id="node27" class="node">
<title>CALL_7d90440</title>
<g id="a_node27"><a xlink:href="DEFINE_EDGE.svg" xlink:title="DEFINE_EDGE">
<polygon fill="lightgray" stroke="black" points="296.5,-289.72 170.5,-289.72 170.5,-285.72 166.5,-285.72 166.5,-281.72 170.5,-281.72 170.5,-261.72 166.5,-261.72 166.5,-257.72 170.5,-257.72 170.5,-253.72 296.5,-253.72 296.5,-289.72"/>
<polyline fill="none" stroke="black" points="170.5,-285.72 174.5,-285.72 174.5,-281.72 170.5,-281.72 "/>
<polyline fill="none" stroke="black" points="170.5,-261.72 174.5,-261.72 174.5,-257.72 170.5,-257.72 "/>
<text text-anchor="middle" x="233.5" y="-268.02" font-family="Times,serif" font-size="14.00">DEFINE_EDGE</text>
</a>
</g>
</g>
<!-- CALL_7d8df80&#45;&gt;CALL_7d90440 -->
<g id="edge24" class="edge">
<title>CALL_7d8df80&#45;&gt;CALL_7d90440</title>
<path fill="none" stroke="black" d="M233.5,-325.42C233.5,-317.7 233.5,-308.43 233.5,-299.83"/>
<polygon fill="black" stroke="black" points="237,-299.82 233.5,-289.82 230,-299.82 237,-299.82"/>
</g>
<!-- CALL_7d927c0 -->
<g id="node28" class="node">
<title>CALL_7d927c0</title>
<g id="a_node28"><a xlink:href="DEFINE_EDGE.svg" xlink:title="DEFINE_EDGE">
<polygon fill="lightgray" stroke="black" points="296.5,-217.72 170.5,-217.72 170.5,-213.72 166.5,-213.72 166.5,-209.72 170.5,-209.72 170.5,-189.72 166.5,-189.72 166.5,-185.72 170.5,-185.72 170.5,-181.72 296.5,-181.72 296.5,-217.72"/>
<polyline fill="none" stroke="black" points="170.5,-213.72 174.5,-213.72 174.5,-209.72 170.5,-209.72 "/>
<polyline fill="none" stroke="black" points="170.5,-189.72 174.5,-189.72 174.5,-185.72 170.5,-185.72 "/>
<text text-anchor="middle" x="233.5" y="-196.02" font-family="Times,serif" font-size="14.00">DEFINE_EDGE</text>
</a>
</g>
</g>
<!-- CALL_7d90440&#45;&gt;CALL_7d927c0 -->
<g id="edge25" class="edge">
<title>CALL_7d90440&#45;&gt;CALL_7d927c0</title>
<path fill="none" stroke="black" d="M233.5,-253.42C233.5,-245.7 233.5,-236.43 233.5,-227.83"/>
<polygon fill="black" stroke="black" points="237,-227.82 233.5,-217.82 230,-227.82 237,-227.82"/>
</g>
<!-- CALL_7d94c80 -->
<g id="node29" class="node">
<title>CALL_7d94c80</title>
<g id="a_node29"><a xlink:href="DEFINE_EDGE.svg" xlink:title="DEFINE_EDGE">
<polygon fill="lightgray" stroke="black" points="296.5,-145.72 170.5,-145.72 170.5,-141.72 166.5,-141.72 166.5,-137.72 170.5,-137.72 170.5,-117.72 166.5,-117.72 166.5,-113.72 170.5,-113.72 170.5,-109.72 296.5,-109.72 296.5,-145.72"/>
<polyline fill="none" stroke="black" points="170.5,-141.72 174.5,-141.72 174.5,-137.72 170.5,-137.72 "/>
<polyline fill="none" stroke="black" points="170.5,-117.72 174.5,-117.72 174.5,-113.72 170.5,-113.72 "/>
<text text-anchor="middle" x="233.5" y="-124.02" font-family="Times,serif" font-size="14.00">DEFINE_EDGE</text>
</a>
</g>
</g>
<!-- CALL_7d927c0&#45;&gt;CALL_7d94c80 -->
<g id="edge26" class="edge">
<title>CALL_7d927c0&#45;&gt;CALL_7d94c80</title>
<path fill="none" stroke="black" d="M233.5,-181.42C233.5,-173.7 233.5,-164.43 233.5,-155.83"/>
<polygon fill="black" stroke="black" points="237,-155.82 233.5,-145.82 230,-155.82 237,-155.82"/>
</g>
<!-- CALL_7d94c80&#45;&gt;endDO_DO_7d95280 -->
<g id="edge28" class="edge">
<title>CALL_7d94c80&#45;&gt;endDO_DO_7d95280</title>
<path fill="none" stroke="black" d="M233.5,-109.66C233.5,-94.65 233.5,-74.99 233.5,-73.78"/>
</g>
</g>
</svg>
