<?xml version="1.0" encoding="UTF-8" standalone="no"?>
<!DOCTYPE svg PUBLIC "-//W3C//DTD SVG 1.1//EN"
 "http://www.w3.org/Graphics/SVG/1.1/DTD/svg11.dtd">
<!-- Generated by graphviz version 2.43.0 (0)
 -->
<!-- Title: INITIALIZE_RADIATION_EXCHANGE Pages: 1 -->
<svg width="1025pt" height="229pt"
 viewBox="0.00 0.00 1025.00 229.00" xmlns="http://www.w3.org/2000/svg" xmlns:xlink="http://www.w3.org/1999/xlink">
<g id="graph0" class="graph" transform="scale(1 1) rotate(0) translate(4 225)">
<title>INITIALIZE_RADIATION_EXCHANGE</title>
<polygon fill="white" stroke="transparent" points="-4,4 -4,-225 1021,-225 1021,4 -4,4"/>
<text text-anchor="middle" x="508.5" y="-7.8" font-family="Times,serif" font-size="14.00">INITIALIZE_RADIATION_EXCHANGE</text>
<!-- start_SUBPROGRAM_8d0e060 -->
<g id="node1" class="node">
<title>start_SUBPROGRAM_8d0e060</title>
<ellipse fill="none" stroke="black" cx="508.5" cy="-214" rx="7" ry="7"/>
</g>
<!-- COMMENT_8d04600+1 -->
<g id="node2" class="node">
<title>COMMENT_8d04600+1</title>
<polygon fill="none" stroke="black" points="1011,-171 0,-171 0,-73 1017,-73 1017,-165 1011,-171"/>
<polyline fill="none" stroke="black" points="1011,-171 1011,-165 "/>
<polyline fill="none" stroke="black" points="1017,-165 1011,-165 "/>
<text text-anchor="middle" x="508.5" y="-155.8" font-family="Times,serif" font-size="14.00">!&gt; brief Allocate arrays used for MPI exchange of radiation data</text>
<text text-anchor="middle" x="508.5" y="-140.8" font-family="Times,serif" font-size="14.00">!&gt; param NM Mesh number</text>
<text text-anchor="middle" x="508.5" y="-125.8" font-family="Times,serif" font-size="14.00">!&gt; details Allocate arrays to send (IL_S) and receive (IL_R) the radiation intensity (IL) at interpolated boundaries.</text>
<text text-anchor="middle" x="508.5" y="-110.8" font-family="Times,serif" font-size="14.00">!&gt; MESHES(NM)%OMESH(NOM)%IL_S are the intensities in mesh NM that are just outside the boundary of mesh NOM. IL_S is populated</text>
<text text-anchor="middle" x="508.5" y="-95.8" font-family="Times,serif" font-size="14.00">!&gt; in radi.f90 and then sent to MESHES(NOM)%OMESH(NM)%IL_R in MESH_EXCHANGE. IL_R holds the intensities until they are</text>
<text text-anchor="middle" x="508.5" y="-80.8" font-family="Times,serif" font-size="14.00">!&gt; transferred to the ghost cells of MESHES(NOM)%IL in radi.f90. The IL_S and IL_R arrays are indexed by NIC_S and NIC_R.</text>
</g>
<!-- start_SUBPROGRAM_8d0e060&#45;&gt;COMMENT_8d04600+1 -->
<g id="edge1" class="edge">
<title>start_SUBPROGRAM_8d0e060&#45;&gt;COMMENT_8d04600+1</title>
<path fill="none" stroke="black" d="M508.5,-206.81C508.5,-201.04 508.5,-191.77 508.5,-181.47"/>
<polygon fill="black" stroke="black" points="512,-181.36 508.5,-171.36 505,-181.36 512,-181.36"/>
</g>
<!-- end_SUBPROGRAM_8d0e060 -->
<g id="node3" class="node">
<title>end_SUBPROGRAM_8d0e060</title>
<ellipse fill="black" stroke="black" cx="508.5" cy="-30" rx="7" ry="7"/>
</g>
<!-- COMMENT_8d04600+1&#45;&gt;end_SUBPROGRAM_8d0e060 -->
<g id="edge2" class="edge">
<title>COMMENT_8d04600+1&#45;&gt;end_SUBPROGRAM_8d0e060</title>
<path fill="none" stroke="black" d="M508.5,-72.84C508.5,-63.62 508.5,-54.59 508.5,-47.28"/>
<polygon fill="black" stroke="black" points="512,-47.18 508.5,-37.18 505,-47.18 512,-47.18"/>
</g>
</g>
</svg>
