<?xml version="1.0" encoding="UTF-8" standalone="no"?>
<!DOCTYPE svg PUBLIC "-//W3C//DTD SVG 1.1//EN"
 "http://www.w3.org/Graphics/SVG/1.1/DTD/svg11.dtd">
<!-- Generated by graphviz version 2.43.0 (0)
 -->
<!-- Title: INITIALIZE_PROFILES Pages: 1 -->
<svg width="894pt" height="390pt"
 viewBox="0.00 0.00 894.00 390.00" xmlns="http://www.w3.org/2000/svg" xmlns:xlink="http://www.w3.org/1999/xlink">
<g id="graph0" class="graph" transform="scale(1 1) rotate(0) translate(4 386)">
<title>INITIALIZE_PROFILES</title>
<polygon fill="white" stroke="transparent" points="-4,4 -4,-386 890,-386 890,4 -4,4"/>
<text text-anchor="middle" x="443" y="-7.8" font-family="Times,serif" font-size="14.00">INITIALIZE_PROFILES</text>
<g id="clust1" class="cluster">
<title>cluster_PROF_LOOP</title>
<polygon fill="none" stroke="orange" points="8,-65 8,-286 878,-286 878,-65 8,-65"/>
<text text-anchor="middle" x="61" y="-270.8" font-family="Times,serif" font-size="14.00">PROF_LOOP</text>
</g>
<!-- start_SUBPROGRAM_894b180 -->
<g id="node1" class="node">
<title>start_SUBPROGRAM_894b180</title>
<ellipse fill="none" stroke="black" cx="443" cy="-375" rx="7" ry="7"/>
</g>
<!-- COMMENT_891b380+1 -->
<g id="node2" class="node">
<title>COMMENT_891b380+1</title>
<polygon fill="none" stroke="black" points="568,-332 312,-332 312,-294 574,-294 574,-326 568,-332"/>
<polyline fill="none" stroke="black" points="568,-332 568,-326 "/>
<polyline fill="none" stroke="black" points="574,-326 568,-326 "/>
<text text-anchor="middle" x="443" y="-316.8" font-family="Times,serif" font-size="14.00">!&gt; brief Initialize output PROFiles</text>
<text text-anchor="middle" x="443" y="-301.8" font-family="Times,serif" font-size="14.00">!&gt; param NM Mesh number</text>
</g>
<!-- start_SUBPROGRAM_894b180&#45;&gt;COMMENT_891b380+1 -->
<g id="edge1" class="edge">
<title>start_SUBPROGRAM_894b180&#45;&gt;COMMENT_891b380+1</title>
<path fill="none" stroke="black" d="M443,-367.58C443,-361.41 443,-351.64 443,-342.12"/>
<polygon fill="black" stroke="black" points="446.5,-342.08 443,-332.08 439.5,-342.08 446.5,-342.08"/>
</g>
<!-- CALL_892cbc0 -->
<g id="node3" class="node">
<title>CALL_892cbc0</title>
<g id="a_node3"><a xlink:href="GET_WALL_INDEX.svg" xlink:title="GET_WALL_INDEX">
<polygon fill="lightgray" stroke="black" points="518.5,-255 367.5,-255 367.5,-251 363.5,-251 363.5,-247 367.5,-247 367.5,-227 363.5,-227 363.5,-223 367.5,-223 367.5,-219 518.5,-219 518.5,-255"/>
<polyline fill="none" stroke="black" points="367.5,-251 371.5,-251 371.5,-247 367.5,-247 "/>
<polyline fill="none" stroke="black" points="367.5,-227 371.5,-227 371.5,-223 367.5,-223 "/>
<text text-anchor="middle" x="443" y="-233.3" font-family="Times,serif" font-size="14.00">GET_WALL_INDEX</text>
</a>
</g>
</g>
<!-- COMMENT_891b380+1&#45;&gt;CALL_892cbc0 -->
<g id="edge4" class="edge">
<title>COMMENT_891b380+1&#45;&gt;CALL_892cbc0</title>
<path fill="none" stroke="black" d="M443,-293.71C443,-285.13 443,-274.72 443,-265.24"/>
<polygon fill="black" stroke="black" points="446.5,-265.07 443,-255.07 439.5,-265.07 446.5,-265.07"/>
</g>
<!-- COMMENT_8934940+1 -->
<g id="node4" class="node">
<title>COMMENT_8934940+1</title>
<polygon fill="none" stroke="black" points="538,-183 342,-183 342,-147 544,-147 544,-177 538,-183"/>
<polyline fill="none" stroke="black" points="538,-183 538,-177 "/>
<polyline fill="none" stroke="black" points="544,-177 538,-177 "/>
<text text-anchor="middle" x="443" y="-161.3" font-family="Times,serif" font-size="14.00">Check for potential errors</text>
</g>
<!-- CALL_892cbc0&#45;&gt;COMMENT_8934940+1 -->
<g id="edge2" class="edge">
<title>CALL_892cbc0&#45;&gt;COMMENT_8934940+1</title>
<path fill="none" stroke="black" d="M443,-218.7C443,-210.98 443,-201.71 443,-193.11"/>
<polygon fill="black" stroke="black" points="446.5,-193.1 443,-183.1 439.5,-193.1 446.5,-193.1"/>
</g>
<!-- COMMENT_8933880+1 -->
<g id="node5" class="node">
<title>COMMENT_8933880+1</title>
<polygon fill="none" stroke="black" points="864,-111 16,-111 16,-73 870,-73 870,-105 864,-111"/>
<polyline fill="none" stroke="black" points="864,-111 864,-105 "/>
<polyline fill="none" stroke="black" points="870,-105 864,-105 "/>
<text text-anchor="middle" x="443" y="-95.8" font-family="Times,serif" font-size="14.00">If the PROFile is applied to a particle, let the root MPI process open and close the file. Other MPI processes can then</text>
<text text-anchor="middle" x="443" y="-80.8" font-family="Times,serif" font-size="14.00">open and write to the file if the particle moves from mesh to mesh.</text>
</g>
<!-- COMMENT_8934940+1&#45;&gt;COMMENT_8933880+1 -->
<g id="edge3" class="edge">
<title>COMMENT_8934940+1&#45;&gt;COMMENT_8933880+1</title>
<path fill="none" stroke="black" d="M443,-146.81C443,-139.11 443,-129.82 443,-121.15"/>
<polygon fill="black" stroke="black" points="446.5,-121.02 443,-111.02 439.5,-121.02 446.5,-121.02"/>
</g>
<!-- end_SUBPROGRAM_894b180 -->
<g id="node6" class="node">
<title>end_SUBPROGRAM_894b180</title>
<ellipse fill="black" stroke="black" cx="443" cy="-30" rx="7" ry="7"/>
</g>
<!-- COMMENT_8933880+1&#45;&gt;end_SUBPROGRAM_894b180 -->
<g id="edge5" class="edge">
<title>COMMENT_8933880+1&#45;&gt;end_SUBPROGRAM_894b180</title>
<path fill="none" stroke="black" d="M443,-73C443,-64.83 443,-55.25 443,-47.3"/>
<polygon fill="black" stroke="black" points="446.5,-47.18 443,-37.18 439.5,-47.18 446.5,-47.18"/>
</g>
</g>
</svg>
