<?xml version="1.0" encoding="UTF-8" standalone="no"?>
<!DOCTYPE svg PUBLIC "-//W3C//DTD SVG 1.1//EN"
 "http://www.w3.org/Graphics/SVG/1.1/DTD/svg11.dtd">
<!-- Generated by graphviz version 2.43.0 (0)
 -->
<!-- Title: INITIALIZE_MESH_VARIABLES_2 Pages: 1 -->
<svg width="619pt" height="2193pt"
 viewBox="0.00 0.00 619.00 2193.44" xmlns="http://www.w3.org/2000/svg" xmlns:xlink="http://www.w3.org/1999/xlink">
<g id="graph0" class="graph" transform="scale(1 1) rotate(0) translate(4 2189.44)">
<title>INITIALIZE_MESH_VARIABLES_2</title>
<polygon fill="white" stroke="transparent" points="-4,4 -4,-2189.44 615,-2189.44 615,4 -4,4"/>
<text text-anchor="middle" x="305.5" y="-7.8" font-family="Times,serif" font-size="14.00">INITIALIZE_MESH_VARIABLES_2</text>
<g id="clust1" class="cluster">
<title>cluster_ZONE_LOOP</title>
<polygon fill="none" stroke="orange" points="210.5,-1149 210.5,-1297.44 400.5,-1297.44 400.5,-1149 210.5,-1149"/>
<text text-anchor="middle" x="264.5" y="-1282.24" font-family="Times,serif" font-size="14.00">ZONE_LOOP</text>
</g>
<!-- start_SUBPROGRAM_a13ddc0 -->
<g id="node1" class="node">
<title>start_SUBPROGRAM_a13ddc0</title>
<ellipse fill="none" stroke="black" cx="305.5" cy="-2178.44" rx="7" ry="7"/>
</g>
<!-- COMMENT_7de12c0+1 -->
<g id="node2" class="node">
<title>COMMENT_7de12c0+1</title>
<polygon fill="none" stroke="black" points="555.5,-2135.44 49.5,-2135.44 49.5,-2097.44 561.5,-2097.44 561.5,-2129.44 555.5,-2135.44"/>
<polyline fill="none" stroke="black" points="555.5,-2135.44 555.5,-2129.44 "/>
<polyline fill="none" stroke="black" points="561.5,-2129.44 555.5,-2129.44 "/>
<text text-anchor="middle" x="305.5" y="-2120.24" font-family="Times,serif" font-size="14.00">!&gt; brief Continuation of variable allocation and other setup functions</text>
<text text-anchor="middle" x="305.5" y="-2105.24" font-family="Times,serif" font-size="14.00">!&gt; param NM Mesh number</text>
</g>
<!-- start_SUBPROGRAM_a13ddc0&#45;&gt;COMMENT_7de12c0+1 -->
<g id="edge1" class="edge">
<title>start_SUBPROGRAM_a13ddc0&#45;&gt;COMMENT_7de12c0+1</title>
<path fill="none" stroke="black" d="M305.5,-2171.02C305.5,-2164.85 305.5,-2155.08 305.5,-2145.56"/>
<polygon fill="black" stroke="black" points="309,-2145.52 305.5,-2135.52 302,-2145.52 309,-2145.52"/>
</g>
<!-- COMMENT_7dec040+1 -->
<g id="node3" class="node">
<title>COMMENT_7dec040+1</title>
<polygon fill="none" stroke="black" points="380,-2061.44 225,-2061.44 225,-2025.44 386,-2025.44 386,-2055.44 380,-2061.44"/>
<polyline fill="none" stroke="black" points="380,-2061.44 380,-2055.44 "/>
<polyline fill="none" stroke="black" points="386,-2055.44 380,-2055.44 "/>
<text text-anchor="middle" x="305.5" y="-2039.74" font-family="Times,serif" font-size="14.00">Surface work arrays</text>
</g>
<!-- COMMENT_7de12c0+1&#45;&gt;COMMENT_7dec040+1 -->
<g id="edge2" class="edge">
<title>COMMENT_7de12c0+1&#45;&gt;COMMENT_7dec040+1</title>
<path fill="none" stroke="black" d="M305.5,-2097.16C305.5,-2089.41 305.5,-2080.23 305.5,-2071.71"/>
<polygon fill="black" stroke="black" points="309,-2071.44 305.5,-2061.44 302,-2071.44 309,-2071.44"/>
</g>
<!-- CALL_7df11c0 -->
<g id="node4" class="node">
<title>CALL_7df11c0</title>
<g id="a_node4"><a xlink:href="ChkMemErr.svg" xlink:title="ChkMemErr">
<polygon fill="lightgray" stroke="black" points="357.5,-1989.44 253.5,-1989.44 253.5,-1985.44 249.5,-1985.44 249.5,-1981.44 253.5,-1981.44 253.5,-1961.44 249.5,-1961.44 249.5,-1957.44 253.5,-1957.44 253.5,-1953.44 357.5,-1953.44 357.5,-1989.44"/>
<polyline fill="none" stroke="black" points="253.5,-1985.44 257.5,-1985.44 257.5,-1981.44 253.5,-1981.44 "/>
<polyline fill="none" stroke="black" points="253.5,-1961.44 257.5,-1961.44 257.5,-1957.44 253.5,-1957.44 "/>
<text text-anchor="middle" x="305.5" y="-1967.74" font-family="Times,serif" font-size="14.00">ChkMemErr</text>
</a>
</g>
</g>
<!-- COMMENT_7dec040+1&#45;&gt;CALL_7df11c0 -->
<g id="edge3" class="edge">
<title>COMMENT_7dec040+1&#45;&gt;CALL_7df11c0</title>
<path fill="none" stroke="black" d="M305.5,-2025.14C305.5,-2017.42 305.5,-2008.15 305.5,-1999.55"/>
<polygon fill="black" stroke="black" points="309,-1999.54 305.5,-1989.54 302,-1999.54 309,-1999.54"/>
</g>
<!-- CALL_7df2360 -->
<g id="node5" class="node">
<title>CALL_7df2360</title>
<g id="a_node5"><a xlink:href="ChkMemErr.svg" xlink:title="ChkMemErr">
<polygon fill="lightgray" stroke="black" points="357.5,-1917.44 253.5,-1917.44 253.5,-1913.44 249.5,-1913.44 249.5,-1909.44 253.5,-1909.44 253.5,-1889.44 249.5,-1889.44 249.5,-1885.44 253.5,-1885.44 253.5,-1881.44 357.5,-1881.44 357.5,-1917.44"/>
<polyline fill="none" stroke="black" points="253.5,-1913.44 257.5,-1913.44 257.5,-1909.44 253.5,-1909.44 "/>
<polyline fill="none" stroke="black" points="253.5,-1889.44 257.5,-1889.44 257.5,-1885.44 253.5,-1885.44 "/>
<text text-anchor="middle" x="305.5" y="-1895.74" font-family="Times,serif" font-size="14.00">ChkMemErr</text>
</a>
</g>
</g>
<!-- CALL_7df11c0&#45;&gt;CALL_7df2360 -->
<g id="edge4" class="edge">
<title>CALL_7df11c0&#45;&gt;CALL_7df2360</title>
<path fill="none" stroke="black" d="M305.5,-1953.14C305.5,-1945.42 305.5,-1936.15 305.5,-1927.55"/>
<polygon fill="black" stroke="black" points="309,-1927.54 305.5,-1917.54 302,-1927.54 309,-1927.54"/>
</g>
<!-- COMMENT_7df3600+1 -->
<g id="node6" class="node">
<title>COMMENT_7df3600+1</title>
<polygon fill="none" stroke="black" points="419,-1845.44 186,-1845.44 186,-1809.44 425,-1809.44 425,-1839.44 419,-1845.44"/>
<polyline fill="none" stroke="black" points="419,-1845.44 419,-1839.44 "/>
<polyline fill="none" stroke="black" points="425,-1839.44 419,-1839.44 "/>
<text text-anchor="middle" x="305.5" y="-1823.74" font-family="Times,serif" font-size="14.00">Background pressure variables</text>
</g>
<!-- CALL_7df2360&#45;&gt;COMMENT_7df3600+1 -->
<g id="edge5" class="edge">
<title>CALL_7df2360&#45;&gt;COMMENT_7df3600+1</title>
<path fill="none" stroke="black" d="M305.5,-1881.14C305.5,-1873.42 305.5,-1864.15 305.5,-1855.55"/>
<polygon fill="black" stroke="black" points="309,-1855.54 305.5,-1845.54 302,-1855.54 309,-1855.54"/>
</g>
<!-- CALL_7df48c0 -->
<g id="node7" class="node">
<title>CALL_7df48c0</title>
<g id="a_node7"><a xlink:href="ChkMemErr.svg" xlink:title="ChkMemErr">
<polygon fill="lightgray" stroke="black" points="357.5,-1773.44 253.5,-1773.44 253.5,-1769.44 249.5,-1769.44 249.5,-1765.44 253.5,-1765.44 253.5,-1745.44 249.5,-1745.44 249.5,-1741.44 253.5,-1741.44 253.5,-1737.44 357.5,-1737.44 357.5,-1773.44"/>
<polyline fill="none" stroke="black" points="253.5,-1769.44 257.5,-1769.44 257.5,-1765.44 253.5,-1765.44 "/>
<polyline fill="none" stroke="black" points="253.5,-1745.44 257.5,-1745.44 257.5,-1741.44 253.5,-1741.44 "/>
<text text-anchor="middle" x="305.5" y="-1751.74" font-family="Times,serif" font-size="14.00">ChkMemErr</text>
</a>
</g>
</g>
<!-- COMMENT_7df3600+1&#45;&gt;CALL_7df48c0 -->
<g id="edge6" class="edge">
<title>COMMENT_7df3600+1&#45;&gt;CALL_7df48c0</title>
<path fill="none" stroke="black" d="M305.5,-1809.14C305.5,-1801.42 305.5,-1792.15 305.5,-1783.55"/>
<polygon fill="black" stroke="black" points="309,-1783.54 305.5,-1773.54 302,-1783.54 309,-1783.54"/>
</g>
<!-- CALL_7df6940 -->
<g id="node8" class="node">
<title>CALL_7df6940</title>
<g id="a_node8"><a xlink:href="ChkMemErr.svg" xlink:title="ChkMemErr">
<polygon fill="lightgray" stroke="black" points="357.5,-1701.44 253.5,-1701.44 253.5,-1697.44 249.5,-1697.44 249.5,-1693.44 253.5,-1693.44 253.5,-1673.44 249.5,-1673.44 249.5,-1669.44 253.5,-1669.44 253.5,-1665.44 357.5,-1665.44 357.5,-1701.44"/>
<polyline fill="none" stroke="black" points="253.5,-1697.44 257.5,-1697.44 257.5,-1693.44 253.5,-1693.44 "/>
<polyline fill="none" stroke="black" points="253.5,-1673.44 257.5,-1673.44 257.5,-1669.44 253.5,-1669.44 "/>
<text text-anchor="middle" x="305.5" y="-1679.74" font-family="Times,serif" font-size="14.00">ChkMemErr</text>
</a>
</g>
</g>
<!-- CALL_7df48c0&#45;&gt;CALL_7df6940 -->
<g id="edge7" class="edge">
<title>CALL_7df48c0&#45;&gt;CALL_7df6940</title>
<path fill="none" stroke="black" d="M305.5,-1737.14C305.5,-1729.42 305.5,-1720.15 305.5,-1711.55"/>
<polygon fill="black" stroke="black" points="309,-1711.54 305.5,-1701.54 302,-1711.54 309,-1711.54"/>
</g>
<!-- CALL_7df8000 -->
<g id="node9" class="node">
<title>CALL_7df8000</title>
<g id="a_node9"><a xlink:href="ChkMemErr.svg" xlink:title="ChkMemErr">
<polygon fill="lightgray" stroke="black" points="357.5,-1629.44 253.5,-1629.44 253.5,-1625.44 249.5,-1625.44 249.5,-1621.44 253.5,-1621.44 253.5,-1601.44 249.5,-1601.44 249.5,-1597.44 253.5,-1597.44 253.5,-1593.44 357.5,-1593.44 357.5,-1629.44"/>
<polyline fill="none" stroke="black" points="253.5,-1625.44 257.5,-1625.44 257.5,-1621.44 253.5,-1621.44 "/>
<polyline fill="none" stroke="black" points="253.5,-1601.44 257.5,-1601.44 257.5,-1597.44 253.5,-1597.44 "/>
<text text-anchor="middle" x="305.5" y="-1607.74" font-family="Times,serif" font-size="14.00">ChkMemErr</text>
</a>
</g>
</g>
<!-- CALL_7df6940&#45;&gt;CALL_7df8000 -->
<g id="edge8" class="edge">
<title>CALL_7df6940&#45;&gt;CALL_7df8000</title>
<path fill="none" stroke="black" d="M305.5,-1665.14C305.5,-1657.42 305.5,-1648.15 305.5,-1639.55"/>
<polygon fill="black" stroke="black" points="309,-1639.54 305.5,-1629.54 302,-1639.54 309,-1639.54"/>
</g>
<!-- CALL_7df8480 -->
<g id="node10" class="node">
<title>CALL_7df8480</title>
<g id="a_node10"><a xlink:href="ChkMemErr.svg" xlink:title="ChkMemErr">
<polygon fill="lightgray" stroke="black" points="357.5,-1557.44 253.5,-1557.44 253.5,-1553.44 249.5,-1553.44 249.5,-1549.44 253.5,-1549.44 253.5,-1529.44 249.5,-1529.44 249.5,-1525.44 253.5,-1525.44 253.5,-1521.44 357.5,-1521.44 357.5,-1557.44"/>
<polyline fill="none" stroke="black" points="253.5,-1553.44 257.5,-1553.44 257.5,-1549.44 253.5,-1549.44 "/>
<polyline fill="none" stroke="black" points="253.5,-1529.44 257.5,-1529.44 257.5,-1525.44 253.5,-1525.44 "/>
<text text-anchor="middle" x="305.5" y="-1535.74" font-family="Times,serif" font-size="14.00">ChkMemErr</text>
</a>
</g>
</g>
<!-- CALL_7df8000&#45;&gt;CALL_7df8480 -->
<g id="edge9" class="edge">
<title>CALL_7df8000&#45;&gt;CALL_7df8480</title>
<path fill="none" stroke="black" d="M305.5,-1593.14C305.5,-1585.42 305.5,-1576.15 305.5,-1567.55"/>
<polygon fill="black" stroke="black" points="309,-1567.54 305.5,-1557.54 302,-1567.54 309,-1567.54"/>
</g>
<!-- CALL_7dfb260 -->
<g id="node11" class="node">
<title>CALL_7dfb260</title>
<g id="a_node11"><a xlink:href="ChkMemErr.svg" xlink:title="ChkMemErr">
<polygon fill="lightgray" stroke="black" points="357.5,-1485.44 253.5,-1485.44 253.5,-1481.44 249.5,-1481.44 249.5,-1477.44 253.5,-1477.44 253.5,-1457.44 249.5,-1457.44 249.5,-1453.44 253.5,-1453.44 253.5,-1449.44 357.5,-1449.44 357.5,-1485.44"/>
<polyline fill="none" stroke="black" points="253.5,-1481.44 257.5,-1481.44 257.5,-1477.44 253.5,-1477.44 "/>
<polyline fill="none" stroke="black" points="253.5,-1457.44 257.5,-1457.44 257.5,-1453.44 253.5,-1453.44 "/>
<text text-anchor="middle" x="305.5" y="-1463.74" font-family="Times,serif" font-size="14.00">ChkMemErr</text>
</a>
</g>
</g>
<!-- CALL_7df8480&#45;&gt;CALL_7dfb260 -->
<g id="edge10" class="edge">
<title>CALL_7df8480&#45;&gt;CALL_7dfb260</title>
<path fill="none" stroke="black" d="M305.5,-1521.14C305.5,-1513.42 305.5,-1504.15 305.5,-1495.55"/>
<polygon fill="black" stroke="black" points="309,-1495.54 305.5,-1485.54 302,-1495.54 309,-1495.54"/>
</g>
<!-- CALL_7dfe960 -->
<g id="node12" class="node">
<title>CALL_7dfe960</title>
<g id="a_node12"><a xlink:href="ChkMemErr.svg" xlink:title="ChkMemErr">
<polygon fill="lightgray" stroke="black" points="357.5,-1413.44 253.5,-1413.44 253.5,-1409.44 249.5,-1409.44 249.5,-1405.44 253.5,-1405.44 253.5,-1385.44 249.5,-1385.44 249.5,-1381.44 253.5,-1381.44 253.5,-1377.44 357.5,-1377.44 357.5,-1413.44"/>
<polyline fill="none" stroke="black" points="253.5,-1409.44 257.5,-1409.44 257.5,-1405.44 253.5,-1405.44 "/>
<polyline fill="none" stroke="black" points="253.5,-1385.44 257.5,-1385.44 257.5,-1381.44 253.5,-1381.44 "/>
<text text-anchor="middle" x="305.5" y="-1391.74" font-family="Times,serif" font-size="14.00">ChkMemErr</text>
</a>
</g>
</g>
<!-- CALL_7dfb260&#45;&gt;CALL_7dfe960 -->
<g id="edge11" class="edge">
<title>CALL_7dfb260&#45;&gt;CALL_7dfe960</title>
<path fill="none" stroke="black" d="M305.5,-1449.14C305.5,-1441.42 305.5,-1432.15 305.5,-1423.55"/>
<polygon fill="black" stroke="black" points="309,-1423.54 305.5,-1413.54 302,-1423.54 309,-1423.54"/>
</g>
<!-- COMMENT_9b01880+1 -->
<g id="node13" class="node">
<title>COMMENT_9b01880+1</title>
<polygon fill="none" stroke="black" points="417,-1341.44 188,-1341.44 188,-1305.44 423,-1305.44 423,-1335.44 417,-1341.44"/>
<polyline fill="none" stroke="black" points="417,-1341.44 417,-1335.44 "/>
<polyline fill="none" stroke="black" points="423,-1335.44 417,-1335.44 "/>
<text text-anchor="middle" x="305.5" y="-1319.74" font-family="Times,serif" font-size="14.00">Initialize PSUM for zone cases</text>
</g>
<!-- CALL_7dfe960&#45;&gt;COMMENT_9b01880+1 -->
<g id="edge12" class="edge">
<title>CALL_7dfe960&#45;&gt;COMMENT_9b01880+1</title>
<path fill="none" stroke="black" d="M305.5,-1377.14C305.5,-1369.42 305.5,-1360.15 305.5,-1351.55"/>
<polygon fill="black" stroke="black" points="309,-1351.54 305.5,-1341.54 302,-1351.54 309,-1351.54"/>
</g>
<!-- beginDO_DO_9b0fc60 -->
<g id="node14" class="node">
<title>beginDO_DO_9b0fc60</title>
<ellipse fill="black" stroke="black" cx="305.5" cy="-1266.08" rx="0.36" ry="0.36"/>
</g>
<!-- COMMENT_9b01880+1&#45;&gt;beginDO_DO_9b0fc60 -->
<g id="edge14" class="edge">
<title>COMMENT_9b01880+1&#45;&gt;beginDO_DO_9b0fc60</title>
<path fill="none" stroke="black" d="M305.5,-1305.23C305.5,-1289.48 305.5,-1268.44 305.5,-1267.14"/>
</g>
<!-- CALL_9b0a720 -->
<g id="node16" class="node">
<title>CALL_9b0a720</title>
<g id="a_node16"><a xlink:href="GET_SPECIFIC_HEAT.svg" xlink:title="GET_SPECIFIC_HEAT">
<polygon fill="lightgray" stroke="black" points="392,-1229.72 219,-1229.72 219,-1225.72 215,-1225.72 215,-1221.72 219,-1221.72 219,-1201.72 215,-1201.72 215,-1197.72 219,-1197.72 219,-1193.72 392,-1193.72 392,-1229.72"/>
<polyline fill="none" stroke="black" points="219,-1225.72 223,-1225.72 223,-1221.72 219,-1221.72 "/>
<polyline fill="none" stroke="black" points="219,-1201.72 223,-1201.72 223,-1197.72 219,-1197.72 "/>
<text text-anchor="middle" x="305.5" y="-1208.02" font-family="Times,serif" font-size="14.00">GET_SPECIFIC_HEAT</text>
</a>
</g>
</g>
<!-- beginDO_DO_9b0fc60&#45;&gt;CALL_9b0a720 -->
<g id="edge13" class="edge">
<title>beginDO_DO_9b0fc60&#45;&gt;CALL_9b0a720</title>
<path fill="none" stroke="black" d="M305.5,-1265.57C305.5,-1264.09 305.5,-1252.04 305.5,-1239.82"/>
<polygon fill="black" stroke="black" points="309,-1239.74 305.5,-1229.74 302,-1239.74 309,-1239.74"/>
</g>
<!-- endDO_DO_9b0fc60 -->
<g id="node15" class="node">
<title>endDO_DO_9b0fc60</title>
<ellipse fill="black" stroke="black" cx="305.5" cy="-1157.36" rx="0.36" ry="0.36"/>
</g>
<!-- COMMENT_9b0fb80+1 -->
<g id="node17" class="node">
<title>COMMENT_9b0fb80+1</title>
<polygon fill="none" stroke="black" points="605,-1121 0,-1121 0,-1083 611,-1083 611,-1115 605,-1121"/>
<polyline fill="none" stroke="black" points="605,-1121 605,-1115 "/>
<polyline fill="none" stroke="black" points="611,-1115 605,-1115 "/>
<text text-anchor="middle" x="305.5" y="-1105.8" font-family="Times,serif" font-size="14.00">Loop through WALL and CFACE cells and assign PRESSURE_ZONE. Also, check for</text>
<text text-anchor="middle" x="305.5" y="-1090.8" font-family="Times,serif" font-size="14.00">inappropriate boundaries, such as thin obstructions that burn or blow.</text>
</g>
<!-- endDO_DO_9b0fc60&#45;&gt;COMMENT_9b0fb80+1 -->
<g id="edge16" class="edge">
<title>endDO_DO_9b0fc60&#45;&gt;COMMENT_9b0fb80+1</title>
<path fill="none" stroke="black" d="M305.5,-1156.21C305.5,-1154.76 305.5,-1143.28 305.5,-1131.36"/>
<polygon fill="black" stroke="black" points="309,-1131 305.5,-1121 302,-1131 309,-1131"/>
</g>
<!-- CALL_9b0a720&#45;&gt;endDO_DO_9b0fc60 -->
<g id="edge15" class="edge">
<title>CALL_9b0a720&#45;&gt;endDO_DO_9b0fc60</title>
<path fill="none" stroke="black" d="M305.5,-1193.66C305.5,-1178.65 305.5,-1158.99 305.5,-1157.78"/>
</g>
<!-- DO_9b1ed20 -->
<g id="node18" class="node">
<title>DO_9b1ed20</title>
<polygon fill="none" stroke="orange" points="366.5,-1047 244.5,-1047 244.5,-1011 366.5,-1011 366.5,-1047"/>
<text text-anchor="middle" x="305.5" y="-1025.3" font-family="Times,serif" font-size="14.00">WALL_LOOP_0</text>
</g>
<!-- COMMENT_9b0fb80+1&#45;&gt;DO_9b1ed20 -->
<g id="edge17" class="edge">
<title>COMMENT_9b0fb80+1&#45;&gt;DO_9b1ed20</title>
<path fill="none" stroke="black" d="M305.5,-1082.72C305.5,-1074.97 305.5,-1065.79 305.5,-1057.27"/>
<polygon fill="black" stroke="black" points="309,-1057 305.5,-1047 302,-1057 309,-1057"/>
</g>
<!-- DO_9b2d780 -->
<g id="node19" class="node">
<title>DO_9b2d780</title>
<polygon fill="none" stroke="orange" points="375.5,-975 235.5,-975 235.5,-939 375.5,-939 375.5,-975"/>
<text text-anchor="middle" x="305.5" y="-953.3" font-family="Times,serif" font-size="14.00">ZCFACE_LOOP_0</text>
</g>
<!-- DO_9b1ed20&#45;&gt;DO_9b2d780 -->
<g id="edge18" class="edge">
<title>DO_9b1ed20&#45;&gt;DO_9b2d780</title>
<path fill="none" stroke="black" d="M305.5,-1010.7C305.5,-1002.98 305.5,-993.71 305.5,-985.11"/>
<polygon fill="black" stroke="black" points="309,-985.1 305.5,-975.1 302,-985.1 309,-985.1"/>
</g>
<!-- COMMENT_9b2e0c0+1 -->
<g id="node20" class="node">
<title>COMMENT_9b2e0c0+1</title>
<polygon fill="none" stroke="black" points="585.5,-903 19.5,-903 19.5,-865 591.5,-865 591.5,-897 585.5,-903"/>
<polyline fill="none" stroke="black" points="585.5,-903 585.5,-897 "/>
<polyline fill="none" stroke="black" points="591.5,-897 585.5,-897 "/>
<text text-anchor="middle" x="305.5" y="-887.8" font-family="Times,serif" font-size="14.00">If there is complex terrain using GEOM and Above Ground Level (AGL) slices,</text>
<text text-anchor="middle" x="305.5" y="-872.8" font-family="Times,serif" font-size="14.00">determine K index of gas phase quantities.</text>
</g>
<!-- DO_9b2d780&#45;&gt;COMMENT_9b2e0c0+1 -->
<g id="edge19" class="edge">
<title>DO_9b2d780&#45;&gt;COMMENT_9b2e0c0+1</title>
<path fill="none" stroke="black" d="M305.5,-938.81C305.5,-931.11 305.5,-921.82 305.5,-913.15"/>
<polygon fill="black" stroke="black" points="309,-913.02 305.5,-903.02 302,-913.02 309,-913.02"/>
</g>
<!-- COMMENT_9b37180+1 -->
<g id="node21" class="node">
<title>COMMENT_9b37180+1</title>
<polygon fill="none" stroke="black" points="591,-829 14,-829 14,-793 597,-793 597,-823 591,-829"/>
<polyline fill="none" stroke="black" points="591,-829 591,-823 "/>
<polyline fill="none" stroke="black" points="597,-823 591,-823 "/>
<text text-anchor="middle" x="305.5" y="-807.3" font-family="Times,serif" font-size="14.00">Set clocks and counters related to frequency of solid phase conduction updates</text>
</g>
<!-- COMMENT_9b2e0c0+1&#45;&gt;COMMENT_9b37180+1 -->
<g id="edge20" class="edge">
<title>COMMENT_9b2e0c0+1&#45;&gt;COMMENT_9b37180+1</title>
<path fill="none" stroke="black" d="M305.5,-864.72C305.5,-856.97 305.5,-847.79 305.5,-839.27"/>
<polygon fill="black" stroke="black" points="309,-839 305.5,-829 302,-839 309,-839"/>
</g>
<!-- COMMENT_9b40060+1 -->
<g id="node22" class="node">
<title>COMMENT_9b40060+1</title>
<polygon fill="none" stroke="black" points="518.5,-757 86.5,-757 86.5,-721 524.5,-721 524.5,-751 518.5,-757"/>
<polyline fill="none" stroke="black" points="518.5,-757 518.5,-751 "/>
<polyline fill="none" stroke="black" points="524.5,-751 518.5,-751 "/>
<text text-anchor="middle" x="305.5" y="-735.3" font-family="Times,serif" font-size="14.00">Allocate arrays for storing velocity boundary condition info</text>
</g>
<!-- COMMENT_9b37180+1&#45;&gt;COMMENT_9b40060+1 -->
<g id="edge21" class="edge">
<title>COMMENT_9b37180+1&#45;&gt;COMMENT_9b40060+1</title>
<path fill="none" stroke="black" d="M305.5,-792.7C305.5,-784.98 305.5,-775.71 305.5,-767.11"/>
<polygon fill="black" stroke="black" points="309,-767.1 305.5,-757.1 302,-767.1 309,-767.1"/>
</g>
<!-- CALL_9b469a0 -->
<g id="node23" class="node">
<title>CALL_9b469a0</title>
<g id="a_node23"><a xlink:href="REALLOCATE_EDGE.svg" xlink:title="REALLOCATE_EDGE">
<polygon fill="lightgray" stroke="black" points="388.5,-685 222.5,-685 222.5,-681 218.5,-681 218.5,-677 222.5,-677 222.5,-657 218.5,-657 218.5,-653 222.5,-653 222.5,-649 388.5,-649 388.5,-685"/>
<polyline fill="none" stroke="black" points="222.5,-681 226.5,-681 226.5,-677 222.5,-677 "/>
<polyline fill="none" stroke="black" points="222.5,-657 226.5,-657 226.5,-653 222.5,-653 "/>
<text text-anchor="middle" x="305.5" y="-663.3" font-family="Times,serif" font-size="14.00">REALLOCATE_EDGE</text>
</a>
</g>
</g>
<!-- COMMENT_9b40060+1&#45;&gt;CALL_9b469a0 -->
<g id="edge22" class="edge">
<title>COMMENT_9b40060+1&#45;&gt;CALL_9b469a0</title>
<path fill="none" stroke="black" d="M305.5,-720.7C305.5,-712.98 305.5,-703.71 305.5,-695.11"/>
<polygon fill="black" stroke="black" points="309,-695.1 305.5,-685.1 302,-695.1 309,-695.1"/>
</g>
<!-- COMMENT_9b46920+1 -->
<g id="node24" class="node">
<title>COMMENT_9b46920+1</title>
<polygon fill="none" stroke="black" points="516.5,-613 88.5,-613 88.5,-577 522.5,-577 522.5,-607 516.5,-613"/>
<polyline fill="none" stroke="black" points="516.5,-613 516.5,-607 "/>
<polyline fill="none" stroke="black" points="522.5,-607 516.5,-607 "/>
<text text-anchor="middle" x="305.5" y="-591.3" font-family="Times,serif" font-size="14.00">Allocate array to hold character strings for Smokeview file</text>
</g>
<!-- CALL_9b469a0&#45;&gt;COMMENT_9b46920+1 -->
<g id="edge23" class="edge">
<title>CALL_9b469a0&#45;&gt;COMMENT_9b46920+1</title>
<path fill="none" stroke="black" d="M305.5,-648.7C305.5,-640.98 305.5,-631.71 305.5,-623.11"/>
<polygon fill="black" stroke="black" points="309,-623.1 305.5,-613.1 302,-623.1 309,-623.1"/>
</g>
<!-- CALL_9b42b40 -->
<g id="node25" class="node">
<title>CALL_9b42b40</title>
<g id="a_node25"><a xlink:href="ChkMemErr.svg" xlink:title="ChkMemErr">
<polygon fill="lightgray" stroke="black" points="357.5,-541 253.5,-541 253.5,-537 249.5,-537 249.5,-533 253.5,-533 253.5,-513 249.5,-513 249.5,-509 253.5,-509 253.5,-505 357.5,-505 357.5,-541"/>
<polyline fill="none" stroke="black" points="253.5,-537 257.5,-537 257.5,-533 253.5,-533 "/>
<polyline fill="none" stroke="black" points="253.5,-513 257.5,-513 257.5,-509 253.5,-509 "/>
<text text-anchor="middle" x="305.5" y="-519.3" font-family="Times,serif" font-size="14.00">ChkMemErr</text>
</a>
</g>
</g>
<!-- COMMENT_9b46920+1&#45;&gt;CALL_9b42b40 -->
<g id="edge24" class="edge">
<title>COMMENT_9b46920+1&#45;&gt;CALL_9b42b40</title>
<path fill="none" stroke="black" d="M305.5,-576.7C305.5,-568.98 305.5,-559.71 305.5,-551.11"/>
<polygon fill="black" stroke="black" points="309,-551.1 305.5,-541.1 302,-551.1 309,-551.1"/>
</g>
<!-- COMMENT_9b3ea00+1 -->
<g id="node26" class="node">
<title>COMMENT_9b3ea00+1</title>
<polygon fill="none" stroke="black" points="500,-469 105,-469 105,-433 506,-433 506,-463 500,-469"/>
<polyline fill="none" stroke="black" points="500,-469 500,-463 "/>
<polyline fill="none" stroke="black" points="506,-463 500,-463 "/>
<text text-anchor="middle" x="305.5" y="-447.3" font-family="Times,serif" font-size="14.00">Set up arrays to hold velocity boundary condition info</text>
</g>
<!-- CALL_9b42b40&#45;&gt;COMMENT_9b3ea00+1 -->
<g id="edge25" class="edge">
<title>CALL_9b42b40&#45;&gt;COMMENT_9b3ea00+1</title>
<path fill="none" stroke="black" d="M305.5,-504.7C305.5,-496.98 305.5,-487.71 305.5,-479.11"/>
<polygon fill="black" stroke="black" points="309,-479.1 305.5,-469.1 302,-479.1 309,-479.1"/>
</g>
<!-- CALL_9b3ea00 -->
<g id="node27" class="node">
<title>CALL_9b3ea00</title>
<g id="a_node27"><a xlink:href="INITIALIZE_EDGES.svg" xlink:title="INITIALIZE_EDGES">
<polygon fill="lightgray" stroke="black" points="384.5,-397 226.5,-397 226.5,-393 222.5,-393 222.5,-389 226.5,-389 226.5,-369 222.5,-369 222.5,-365 226.5,-365 226.5,-361 384.5,-361 384.5,-397"/>
<polyline fill="none" stroke="black" points="226.5,-393 230.5,-393 230.5,-389 226.5,-389 "/>
<polyline fill="none" stroke="black" points="226.5,-369 230.5,-369 230.5,-365 226.5,-365 "/>
<text text-anchor="middle" x="305.5" y="-375.3" font-family="Times,serif" font-size="14.00">INITIALIZE_EDGES</text>
</a>
</g>
</g>
<!-- COMMENT_9b3ea00+1&#45;&gt;CALL_9b3ea00 -->
<g id="edge26" class="edge">
<title>COMMENT_9b3ea00+1&#45;&gt;CALL_9b3ea00</title>
<path fill="none" stroke="black" d="M305.5,-432.7C305.5,-424.98 305.5,-415.71 305.5,-407.11"/>
<polygon fill="black" stroke="black" points="309,-407.1 305.5,-397.1 302,-407.1 309,-407.1"/>
</g>
<!-- COMMENT_9b47ee0+1 -->
<g id="node28" class="node">
<title>COMMENT_9b47ee0+1</title>
<polygon fill="none" stroke="black" points="397,-325 208,-325 208,-289 403,-289 403,-319 397,-325"/>
<polyline fill="none" stroke="black" points="397,-325 397,-319 "/>
<polyline fill="none" stroke="black" points="403,-319 397,-319 "/>
<text text-anchor="middle" x="305.5" y="-303.3" font-family="Times,serif" font-size="14.00">Initialize Pressure solver</text>
</g>
<!-- CALL_9b3ea00&#45;&gt;COMMENT_9b47ee0+1 -->
<g id="edge27" class="edge">
<title>CALL_9b3ea00&#45;&gt;COMMENT_9b47ee0+1</title>
<path fill="none" stroke="black" d="M305.5,-360.7C305.5,-352.98 305.5,-343.71 305.5,-335.11"/>
<polygon fill="black" stroke="black" points="309,-335.1 305.5,-325.1 302,-335.1 309,-335.1"/>
</g>
<!-- CALL_9b4a0c0 -->
<g id="node29" class="node">
<title>CALL_9b4a0c0</title>
<g id="a_node29"><a xlink:href="INITIALIZE_POISSON_SOLVER.svg" xlink:title="INITIALIZE_POISSON_SOLVER">
<polygon fill="lightgray" stroke="black" points="425,-253 186,-253 186,-249 182,-249 182,-245 186,-245 186,-225 182,-225 182,-221 186,-221 186,-217 425,-217 425,-253"/>
<polyline fill="none" stroke="black" points="186,-249 190,-249 190,-245 186,-245 "/>
<polyline fill="none" stroke="black" points="186,-225 190,-225 190,-221 186,-221 "/>
<text text-anchor="middle" x="305.5" y="-231.3" font-family="Times,serif" font-size="14.00">INITIALIZE_POISSON_SOLVER</text>
</a>
</g>
</g>
<!-- COMMENT_9b47ee0+1&#45;&gt;CALL_9b4a0c0 -->
<g id="edge28" class="edge">
<title>COMMENT_9b47ee0+1&#45;&gt;CALL_9b4a0c0</title>
<path fill="none" stroke="black" d="M305.5,-288.7C305.5,-280.98 305.5,-271.71 305.5,-263.11"/>
<polygon fill="black" stroke="black" points="309,-263.1 305.5,-253.1 302,-263.1 309,-263.1"/>
</g>
<!-- COMMENT_9b3dfa0+1 -->
<g id="node30" class="node">
<title>COMMENT_9b3dfa0+1</title>
<polygon fill="none" stroke="black" points="398,-181 207,-181 207,-145 404,-145 404,-175 398,-181"/>
<polyline fill="none" stroke="black" points="398,-181 398,-175 "/>
<polyline fill="none" stroke="black" points="404,-175 398,-175 "/>
<text text-anchor="middle" x="305.5" y="-159.3" font-family="Times,serif" font-size="14.00">Initialize Mesh Exchange</text>
</g>
<!-- CALL_9b4a0c0&#45;&gt;COMMENT_9b3dfa0+1 -->
<g id="edge29" class="edge">
<title>CALL_9b4a0c0&#45;&gt;COMMENT_9b3dfa0+1</title>
<path fill="none" stroke="black" d="M305.5,-216.7C305.5,-208.98 305.5,-199.71 305.5,-191.11"/>
<polygon fill="black" stroke="black" points="309,-191.1 305.5,-181.1 302,-191.1 309,-191.1"/>
</g>
<!-- CALL_9b3dfa0 -->
<g id="node31" class="node">
<title>CALL_9b3dfa0</title>
<g id="a_node31"><a xlink:href="INITIALIZE_INTERPOLATION.svg" xlink:title="INITIALIZE_INTERPOLATION">
<polygon fill="lightgray" stroke="black" points="419.5,-109 191.5,-109 191.5,-105 187.5,-105 187.5,-101 191.5,-101 191.5,-81 187.5,-81 187.5,-77 191.5,-77 191.5,-73 419.5,-73 419.5,-109"/>
<polyline fill="none" stroke="black" points="191.5,-105 195.5,-105 195.5,-101 191.5,-101 "/>
<polyline fill="none" stroke="black" points="191.5,-81 195.5,-81 195.5,-77 191.5,-77 "/>
<text text-anchor="middle" x="305.5" y="-87.3" font-family="Times,serif" font-size="14.00">INITIALIZE_INTERPOLATION</text>
</a>
</g>
</g>
<!-- COMMENT_9b3dfa0+1&#45;&gt;CALL_9b3dfa0 -->
<g id="edge30" class="edge">
<title>COMMENT_9b3dfa0+1&#45;&gt;CALL_9b3dfa0</title>
<path fill="none" stroke="black" d="M305.5,-144.7C305.5,-136.98 305.5,-127.71 305.5,-119.11"/>
<polygon fill="black" stroke="black" points="309,-119.1 305.5,-109.1 302,-119.1 309,-119.1"/>
</g>
<!-- end_SUBPROGRAM_a13ddc0 -->
<g id="node32" class="node">
<title>end_SUBPROGRAM_a13ddc0</title>
<ellipse fill="black" stroke="black" cx="305.5" cy="-30" rx="7" ry="7"/>
</g>
<!-- CALL_9b3dfa0&#45;&gt;end_SUBPROGRAM_a13ddc0 -->
<g id="edge31" class="edge">
<title>CALL_9b3dfa0&#45;&gt;end_SUBPROGRAM_a13ddc0</title>
<path fill="none" stroke="black" d="M305.5,-72.93C305.5,-64.89 305.5,-55.33 305.5,-47.37"/>
<polygon fill="black" stroke="black" points="309,-47.22 305.5,-37.22 302,-47.22 309,-47.22"/>
</g>
</g>
</svg>
