<?xml version="1.0" encoding="UTF-8" standalone="no"?>
<!DOCTYPE svg PUBLIC "-//W3C//DTD SVG 1.1//EN"
 "http://www.w3.org/Graphics/SVG/1.1/DTD/svg11.dtd">
<!-- Generated by graphviz version 2.43.0 (0)
 -->
<!-- Title: INIT_WALL_CELL Pages: 1 -->
<svg width="802pt" height="3768pt"
 viewBox="0.00 0.00 802.00 3767.76" xmlns="http://www.w3.org/2000/svg" xmlns:xlink="http://www.w3.org/1999/xlink">
<g id="graph0" class="graph" transform="scale(1 1) rotate(0) translate(4 3763.76)">
<title>INIT_WALL_CELL</title>
<polygon fill="white" stroke="transparent" points="-4,4 -4,-3763.76 798,-3763.76 798,4 -4,4"/>
<text text-anchor="middle" x="397" y="-7.8" font-family="Times,serif" font-size="14.00">INIT_WALL_CELL</text>
<g id="clust1" class="cluster">
<title>cluster_VENT_SEARCH_LOOP</title>
<polygon fill="none" stroke="orange" points="207,-3236.32 207,-3456.76 587,-3456.76 587,-3236.32 207,-3236.32"/>
<text text-anchor="middle" x="295" y="-3441.56" font-family="Times,serif" font-size="14.00">VENT_SEARCH_LOOP</text>
</g>
<g id="clust2" class="cluster">
<title>cluster_ZCHECK_MESHES</title>
<polygon fill="none" stroke="blue" points="80,-2016.44 80,-2948.32 714,-2948.32 714,-2016.44 80,-2016.44"/>
<text text-anchor="middle" x="157" y="-2933.12" font-family="Times,serif" font-size="14.00">ZCHECK_MESHES</text>
</g>
<g id="clust3" class="cluster">
<title>cluster_cond8570c20</title>
<polygon fill="none" stroke="black" points="88,-2045.16 88,-2908.6 706,-2908.6 706,-2045.16 88,-2045.16"/>
<text text-anchor="middle" x="144" y="-2893.4" font-family="Times,serif" font-size="14.00">cond8570c20</text>
</g>
<g id="clust4" class="cluster">
<title>cluster_FOUND_OTHER_MESH</title>
<polygon fill="none" stroke="blue" points="108,-2053.16 108,-2761.6 686,-2761.6 686,-2053.16 108,-2053.16"/>
<text text-anchor="middle" x="201" y="-2746.4" font-family="Times,serif" font-size="14.00">FOUND_OTHER_MESH</text>
</g>
<g id="clust5" class="cluster">
<title>cluster_cond8570560</title>
<polygon fill="none" stroke="black" points="116,-2089.88 116,-2721.88 678,-2721.88 678,-2089.88 116,-2089.88"/>
<text text-anchor="middle" x="172.5" y="-2706.68" font-family="Times,serif" font-size="14.00">cond8570560</text>
</g>
<g id="clust6" class="cluster">
<title>cluster_PROCESS_VENT</title>
<polygon fill="none" stroke="blue" points="218,-425 218,-1368.44 576,-1368.44 576,-425 218,-425"/>
<text text-anchor="middle" x="286" y="-1353.24" font-family="Times,serif" font-size="14.00">PROCESS_VENT</text>
</g>
<g id="clust7" class="cluster">
<title>cluster_cond8739340</title>
<polygon fill="none" stroke="black" points="226,-461.72 226,-1328.72 568,-1328.72 568,-461.72 226,-461.72"/>
<text text-anchor="middle" x="282.5" y="-1313.52" font-family="Times,serif" font-size="14.00">cond8739340</text>
</g>
<!-- start_SUBPROGRAM_8753a20 -->
<g id="node1" class="node">
<title>start_SUBPROGRAM_8753a20</title>
<ellipse fill="none" stroke="black" cx="397" cy="-3752.76" rx="7" ry="7"/>
</g>
<!-- COMMENT_83c1cc0+1 -->
<g id="node2" class="node">
<title>COMMENT_83c1cc0+1</title>
<polygon fill="none" stroke="black" points="691.5,-3709.76 96.5,-3709.76 96.5,-3536.76 697.5,-3536.76 697.5,-3703.76 691.5,-3709.76"/>
<polyline fill="none" stroke="black" points="691.5,-3709.76 691.5,-3703.76 "/>
<polyline fill="none" stroke="black" points="697.5,-3703.76 691.5,-3703.76 "/>
<text text-anchor="middle" x="397" y="-3694.56" font-family="Times,serif" font-size="14.00">!&gt; brief Initialize wall cell variables at external and obstruction boundaries</text>
<text text-anchor="middle" x="397" y="-3679.56" font-family="Times,serif" font-size="14.00">!&gt; param NM Mesh number</text>
<text text-anchor="middle" x="397" y="-3664.56" font-family="Times,serif" font-size="14.00">!&gt; param I x&#45;index of inside wall cell</text>
<text text-anchor="middle" x="397" y="-3649.56" font-family="Times,serif" font-size="14.00">!&gt; param J y&#45;index of inside wall cell</text>
<text text-anchor="middle" x="397" y="-3634.56" font-family="Times,serif" font-size="14.00">!&gt; param K z&#45;index of inside wall cell</text>
<text text-anchor="middle" x="397" y="-3619.56" font-family="Times,serif" font-size="14.00">!&gt; param OBST_INDEX Index of the obstruction to which the wall cell is attached</text>
<text text-anchor="middle" x="397" y="-3604.56" font-family="Times,serif" font-size="14.00">!&gt; param IW Index of the wall cell</text>
<text text-anchor="middle" x="397" y="-3589.56" font-family="Times,serif" font-size="14.00">!&gt; param IOR Orientation index of the wall cell</text>
<text text-anchor="middle" x="397" y="-3574.56" font-family="Times,serif" font-size="14.00">!&gt; param SURF_INDEX Surface index of the wall cell</text>
<text text-anchor="middle" x="397" y="-3559.56" font-family="Times,serif" font-size="14.00">!&gt; param IERR Error code</text>
<text text-anchor="middle" x="397" y="-3544.56" font-family="Times,serif" font-size="14.00">!&gt; param TT Current time (s)</text>
</g>
<!-- start_SUBPROGRAM_8753a20&#45;&gt;COMMENT_83c1cc0+1 -->
<g id="edge1" class="edge">
<title>start_SUBPROGRAM_8753a20&#45;&gt;COMMENT_83c1cc0+1</title>
<path fill="none" stroke="black" d="M397,-3745.61C397,-3739.97 397,-3730.89 397,-3720.16"/>
<polygon fill="black" stroke="black" points="400.5,-3719.89 397,-3709.89 393.5,-3719.89 400.5,-3719.89"/>
</g>
<!-- COMMENT_a55c9e0+1 -->
<g id="node3" class="node">
<title>COMMENT_a55c9e0+1</title>
<polygon fill="none" stroke="black" points="541.5,-3500.76 246.5,-3500.76 246.5,-3464.76 547.5,-3464.76 547.5,-3494.76 541.5,-3500.76"/>
<polyline fill="none" stroke="black" points="541.5,-3500.76 541.5,-3494.76 "/>
<polyline fill="none" stroke="black" points="547.5,-3494.76 541.5,-3494.76 "/>
<text text-anchor="middle" x="397" y="-3479.06" font-family="Times,serif" font-size="14.00">Determine if a VENT covers the surface</text>
</g>
<!-- COMMENT_83c1cc0+1&#45;&gt;COMMENT_a55c9e0+1 -->
<g id="edge2" class="edge">
<title>COMMENT_83c1cc0+1&#45;&gt;COMMENT_a55c9e0+1</title>
<path fill="none" stroke="black" d="M397,-3536.52C397,-3527.34 397,-3518.57 397,-3510.91"/>
<polygon fill="black" stroke="black" points="400.5,-3510.89 397,-3500.89 393.5,-3510.89 400.5,-3510.89"/>
</g>
<!-- beginDO_DO_83ee180 -->
<g id="node4" class="node">
<title>beginDO_DO_83ee180</title>
<ellipse fill="black" stroke="black" cx="397" cy="-3425.4" rx="0.36" ry="0.36"/>
</g>
<!-- COMMENT_a55c9e0+1&#45;&gt;beginDO_DO_83ee180 -->
<g id="edge5" class="edge">
<title>COMMENT_a55c9e0+1&#45;&gt;beginDO_DO_83ee180</title>
<path fill="none" stroke="black" d="M397,-3464.55C397,-3448.8 397,-3427.76 397,-3426.46"/>
</g>
<!-- COMMENT_83e7c60+1 -->
<g id="node6" class="node">
<title>COMMENT_83e7c60+1</title>
<polygon fill="none" stroke="black" points="536.5,-3389.04 251.5,-3389.04 251.5,-3353.04 542.5,-3353.04 542.5,-3383.04 536.5,-3389.04"/>
<polyline fill="none" stroke="black" points="536.5,-3389.04 536.5,-3383.04 "/>
<polyline fill="none" stroke="black" points="542.5,-3383.04 536.5,-3383.04 "/>
<text text-anchor="middle" x="397" y="-3367.34" font-family="Times,serif" font-size="14.00">Check if there are over&#45;lapping VENTs</text>
</g>
<!-- beginDO_DO_83ee180&#45;&gt;COMMENT_83e7c60+1 -->
<g id="edge3" class="edge">
<title>beginDO_DO_83ee180&#45;&gt;COMMENT_83e7c60+1</title>
<path fill="none" stroke="black" d="M397,-3424.89C397,-3423.41 397,-3411.36 397,-3399.14"/>
<polygon fill="black" stroke="black" points="400.5,-3399.06 397,-3389.06 393.5,-3399.06 400.5,-3399.06"/>
</g>
<!-- endDO_DO_83ee180 -->
<g id="node5" class="node">
<title>endDO_DO_83ee180</title>
<ellipse fill="black" stroke="black" cx="397" cy="-3244.68" rx="0.36" ry="0.36"/>
</g>
<!-- COMMENT_83e8720+1 -->
<g id="node8" class="node">
<title>COMMENT_83e8720+1</title>
<polygon fill="none" stroke="black" points="638,-3208.32 150,-3208.32 150,-3172.32 644,-3172.32 644,-3202.32 638,-3208.32"/>
<polyline fill="none" stroke="black" points="638,-3208.32 638,-3202.32 "/>
<polyline fill="none" stroke="black" points="644,-3202.32 638,-3202.32 "/>
<text text-anchor="middle" x="397" y="-3186.62" font-family="Times,serif" font-size="14.00">Compute boundary cell physical coords (XW,YW,ZW) and area (AW)</text>
</g>
<!-- endDO_DO_83ee180&#45;&gt;COMMENT_83e8720+1 -->
<g id="edge7" class="edge">
<title>endDO_DO_83ee180&#45;&gt;COMMENT_83e8720+1</title>
<path fill="none" stroke="black" d="M397,-3243.53C397,-3242.09 397,-3230.55 397,-3218.68"/>
<polygon fill="black" stroke="black" points="400.5,-3218.42 397,-3208.42 393.5,-3218.42 400.5,-3218.42"/>
</g>
<!-- COMMENT_83ed3c0+1 -->
<g id="node7" class="node">
<title>COMMENT_83ed3c0+1</title>
<polygon fill="none" stroke="black" points="573.5,-3317.04 214.5,-3317.04 214.5,-3281.04 579.5,-3281.04 579.5,-3311.04 573.5,-3317.04"/>
<polyline fill="none" stroke="black" points="573.5,-3317.04 573.5,-3311.04 "/>
<polyline fill="none" stroke="black" points="579.5,-3311.04 573.5,-3311.04 "/>
<text text-anchor="middle" x="397" y="-3295.34" font-family="Times,serif" font-size="14.00">Reassign the SURF index to be that of the VENT</text>
</g>
<!-- COMMENT_83e7c60+1&#45;&gt;COMMENT_83ed3c0+1 -->
<g id="edge4" class="edge">
<title>COMMENT_83e7c60+1&#45;&gt;COMMENT_83ed3c0+1</title>
<path fill="none" stroke="black" d="M397,-3352.74C397,-3345.02 397,-3335.75 397,-3327.15"/>
<polygon fill="black" stroke="black" points="400.5,-3327.14 397,-3317.14 393.5,-3327.14 400.5,-3327.14"/>
</g>
<!-- COMMENT_83ed3c0+1&#45;&gt;endDO_DO_83ee180 -->
<g id="edge6" class="edge">
<title>COMMENT_83ed3c0+1&#45;&gt;endDO_DO_83ee180</title>
<path fill="none" stroke="black" d="M397,-3280.98C397,-3265.97 397,-3246.31 397,-3245.1"/>
</g>
<!-- COMMENT_850a480+1 -->
<g id="node9" class="node">
<title>COMMENT_850a480+1</title>
<polygon fill="none" stroke="black" points="469,-3136.32 319,-3136.32 319,-3100.32 475,-3100.32 475,-3130.32 469,-3136.32"/>
<polyline fill="none" stroke="black" points="469,-3136.32 469,-3130.32 "/>
<polyline fill="none" stroke="black" points="475,-3130.32 469,-3130.32 "/>
<text text-anchor="middle" x="397" y="-3114.62" font-family="Times,serif" font-size="14.00">Save the wall index</text>
</g>
<!-- COMMENT_83e8720+1&#45;&gt;COMMENT_850a480+1 -->
<g id="edge8" class="edge">
<title>COMMENT_83e8720+1&#45;&gt;COMMENT_850a480+1</title>
<path fill="none" stroke="black" d="M397,-3172.02C397,-3164.3 397,-3155.03 397,-3146.43"/>
<polygon fill="black" stroke="black" points="400.5,-3146.42 397,-3136.42 393.5,-3146.42 400.5,-3146.42"/>
</g>
<!-- COMMENT_850c9c0+1 -->
<g id="node10" class="node">
<title>COMMENT_850c9c0+1</title>
<polygon fill="none" stroke="black" points="788,-3064.32 0,-3064.32 0,-3028.32 794,-3028.32 794,-3058.32 788,-3064.32"/>
<polyline fill="none" stroke="black" points="788,-3064.32 788,-3058.32 "/>
<polyline fill="none" stroke="black" points="794,-3058.32 788,-3058.32 "/>
<text text-anchor="middle" x="397" y="-3042.62" font-family="Times,serif" font-size="14.00">Use BOUNDARY_TYPE to indicate whether the boundary cell is blocked or on an obstruction that is HIDDEN</text>
</g>
<!-- COMMENT_850a480+1&#45;&gt;COMMENT_850c9c0+1 -->
<g id="edge9" class="edge">
<title>COMMENT_850a480+1&#45;&gt;COMMENT_850c9c0+1</title>
<path fill="none" stroke="black" d="M397,-3100.02C397,-3092.3 397,-3083.03 397,-3074.43"/>
<polygon fill="black" stroke="black" points="400.5,-3074.42 397,-3064.42 393.5,-3074.42 400.5,-3074.42"/>
</g>
<!-- COMMENT_850d8c0+1 -->
<g id="node11" class="node">
<title>COMMENT_850d8c0+1</title>
<polygon fill="none" stroke="black" points="617.5,-2992.32 170.5,-2992.32 170.5,-2956.32 623.5,-2956.32 623.5,-2986.32 617.5,-2992.32"/>
<polyline fill="none" stroke="black" points="617.5,-2992.32 617.5,-2986.32 "/>
<polyline fill="none" stroke="black" points="623.5,-2986.32 617.5,-2986.32 "/>
<text text-anchor="middle" x="397" y="-2970.62" font-family="Times,serif" font-size="14.00">Check for neighboring meshes in a multiple mesh calculation</text>
</g>
<!-- COMMENT_850c9c0+1&#45;&gt;COMMENT_850d8c0+1 -->
<g id="edge10" class="edge">
<title>COMMENT_850c9c0+1&#45;&gt;COMMENT_850d8c0+1</title>
<path fill="none" stroke="black" d="M397,-3028.02C397,-3020.3 397,-3011.03 397,-3002.43"/>
<polygon fill="black" stroke="black" points="400.5,-3002.42 397,-2992.42 393.5,-3002.42 400.5,-3002.42"/>
</g>
<!-- beginIf_IF_856de80 -->
<g id="node12" class="node">
<title>beginIf_IF_856de80</title>
<ellipse fill="black" stroke="black" cx="397" cy="-2916.96" rx="0.36" ry="0.36"/>
</g>
<!-- COMMENT_850d8c0+1&#45;&gt;beginIf_IF_856de80 -->
<g id="edge22" class="edge">
<title>COMMENT_850d8c0+1&#45;&gt;beginIf_IF_856de80</title>
<path fill="none" stroke="black" d="M397,-2956.11C397,-2940.36 397,-2919.32 397,-2918.02"/>
</g>
<!-- CALL_8529480 -->
<g id="node14" class="node">
<title>CALL_8529480</title>
<g id="a_node14"><a xlink:href="SEARCH_OTHER_MESHES.svg" xlink:title="SEARCH_OTHER_MESHES">
<polygon fill="lightgray" stroke="black" points="503.5,-2877.6 290.5,-2877.6 290.5,-2873.6 286.5,-2873.6 286.5,-2869.6 290.5,-2869.6 290.5,-2849.6 286.5,-2849.6 286.5,-2845.6 290.5,-2845.6 290.5,-2841.6 503.5,-2841.6 503.5,-2877.6"/>
<polyline fill="none" stroke="black" points="290.5,-2873.6 294.5,-2873.6 294.5,-2869.6 290.5,-2869.6 "/>
<polyline fill="none" stroke="black" points="290.5,-2849.6 294.5,-2849.6 294.5,-2845.6 290.5,-2845.6 "/>
<text text-anchor="middle" x="397" y="-2855.9" font-family="Times,serif" font-size="14.00">SEARCH_OTHER_MESHES</text>
</a>
</g>
</g>
<!-- beginIf_IF_856de80&#45;&gt;CALL_8529480 -->
<g id="edge20" class="edge">
<title>beginIf_IF_856de80&#45;&gt;CALL_8529480</title>
<path fill="none" stroke="black" d="M397,-2916.44C397,-2914.81 397,-2901.12 397,-2887.7"/>
<polygon fill="black" stroke="black" points="400.5,-2887.7 397,-2877.7 393.5,-2887.7 400.5,-2887.7"/>
</g>
<!-- endIf_IF_856de80 -->
<g id="node13" class="node">
<title>endIf_IF_856de80</title>
<ellipse fill="black" stroke="black" cx="397" cy="-2024.8" rx="0.36" ry="0.36"/>
</g>
<!-- COMMENT_8573880+1 -->
<g id="node24" class="node">
<title>COMMENT_8573880+1</title>
<polygon fill="none" stroke="black" points="680,-1988.44 108,-1988.44 108,-1952.44 686,-1952.44 686,-1982.44 680,-1988.44"/>
<polyline fill="none" stroke="black" points="680,-1988.44 680,-1982.44 "/>
<polyline fill="none" stroke="black" points="686,-1982.44 680,-1982.44 "/>
<text text-anchor="middle" x="397" y="-1966.74" font-family="Times,serif" font-size="14.00">Ensure that there is an open slot in M%WALL and its associated derived types</text>
</g>
<!-- endIf_IF_856de80&#45;&gt;COMMENT_8573880+1 -->
<g id="edge23" class="edge">
<title>endIf_IF_856de80&#45;&gt;COMMENT_8573880+1</title>
<path fill="none" stroke="black" d="M397,-2023.65C397,-2022.21 397,-2010.67 397,-1998.8"/>
<polygon fill="black" stroke="black" points="400.5,-1998.54 397,-1988.54 393.5,-1998.54 400.5,-1998.54"/>
</g>
<!-- COMMENT_8532000+1 -->
<g id="node15" class="node">
<title>COMMENT_8532000+1</title>
<polygon fill="none" stroke="black" points="692,-2805.6 96,-2805.6 96,-2769.6 698,-2769.6 698,-2799.6 692,-2805.6"/>
<polyline fill="none" stroke="black" points="692,-2805.6 692,-2799.6 "/>
<polyline fill="none" stroke="black" points="698,-2799.6 692,-2799.6 "/>
<text text-anchor="middle" x="397" y="-2783.9" font-family="Times,serif" font-size="14.00">Check to see if the current interpolated cell face spans more than one other mesh</text>
</g>
<!-- CALL_8529480&#45;&gt;COMMENT_8532000+1 -->
<g id="edge11" class="edge">
<title>CALL_8529480&#45;&gt;COMMENT_8532000+1</title>
<path fill="none" stroke="black" d="M397,-2841.3C397,-2833.58 397,-2824.31 397,-2815.71"/>
<polygon fill="black" stroke="black" points="400.5,-2815.7 397,-2805.7 393.5,-2815.7 400.5,-2815.7"/>
</g>
<!-- beginIf_IF_856d340 -->
<g id="node16" class="node">
<title>beginIf_IF_856d340</title>
<ellipse fill="black" stroke="black" cx="397" cy="-2730.24" rx="0.36" ry="0.36"/>
</g>
<!-- COMMENT_8532000+1&#45;&gt;beginIf_IF_856d340 -->
<g id="edge19" class="edge">
<title>COMMENT_8532000+1&#45;&gt;beginIf_IF_856d340</title>
<path fill="none" stroke="black" d="M397,-2769.39C397,-2753.64 397,-2732.6 397,-2731.3"/>
</g>
<!-- COMMENT_855f100+1 -->
<g id="node18" class="node">
<title>COMMENT_855f100+1</title>
<polygon fill="none" stroke="black" points="532,-2690.88 256,-2690.88 256,-2654.88 538,-2654.88 538,-2684.88 532,-2690.88"/>
<polyline fill="none" stroke="black" points="532,-2690.88 532,-2684.88 "/>
<polyline fill="none" stroke="black" points="538,-2684.88 532,-2684.88 "/>
<text text-anchor="middle" x="397" y="-2669.18" font-family="Times,serif" font-size="14.00">NOM = &quot;Number of the Other Mesh&quot;</text>
</g>
<!-- beginIf_IF_856d340&#45;&gt;COMMENT_855f100+1 -->
<g id="edge17" class="edge">
<title>beginIf_IF_856d340&#45;&gt;COMMENT_855f100+1</title>
<path fill="none" stroke="black" d="M397,-2729.72C397,-2728.09 397,-2714.4 397,-2700.98"/>
<polygon fill="black" stroke="black" points="400.5,-2700.98 397,-2690.98 393.5,-2700.98 400.5,-2700.98"/>
</g>
<!-- endIf_IF_856d340 -->
<g id="node17" class="node">
<title>endIf_IF_856d340</title>
<ellipse fill="black" stroke="black" cx="397" cy="-2061.52" rx="0.36" ry="0.36"/>
</g>
<!-- endIf_IF_856d340&#45;&gt;endIf_IF_856de80 -->
<g id="edge21" class="edge">
<title>endIf_IF_856d340&#45;&gt;endIf_IF_856de80</title>
<path fill="none" stroke="black" d="M397,-2060.42C397,-2058.41 397,-2027.2 397,-2025.26"/>
</g>
<!-- COMMENT_855f100+2 -->
<g id="node19" class="node">
<title>COMMENT_855f100+2</title>
<polygon fill="none" stroke="black" points="476.5,-2618.88 311.5,-2618.88 311.5,-2385.88 482.5,-2385.88 482.5,-2612.88 476.5,-2618.88"/>
<polyline fill="none" stroke="black" points="476.5,-2618.88 476.5,-2612.88 "/>
<polyline fill="none" stroke="black" points="482.5,-2612.88 476.5,-2612.88 "/>
<text text-anchor="middle" x="397" y="-2603.68" font-family="Times,serif" font-size="14.00"> &#160;&#160;&#160;Mesh 1 &#160;&#160;&#160;&#160;&#160;&#160;Mesh 2</text>
<text text-anchor="middle" x="397" y="-2588.68" font-family="Times,serif" font-size="14.00"> &#160;&#160;&#160;&#160;3x6 &#160;&#160;&#160;&#160;&#160;&#160;&#160;&#160;&#160;1x2</text>
<text text-anchor="middle" x="397" y="-2573.68" font-family="Times,serif" font-size="14.00"> &#45;&#45;&#45;&#45;&#45;&#45;&#45;&#45;&#45;&#45;&#45;&#45;&#45;&#45;&#45;&#45;&#45;&#45;&#45;&#45;&#45;&#45;&#45;&#45;&#45;</text>
<text text-anchor="middle" x="397" y="-2558.68" font-family="Times,serif" font-size="14.00"> | &#160;&#160;| &#160;&#160;| &#160;&#160;| &#160;&#160;&#160;&#160;&#160;&#160;&#160;&#160;&#160;&#160;|</text>
<text text-anchor="middle" x="397" y="-2543.68" font-family="Times,serif" font-size="14.00"> |&#45;&#45;&#45;|&#45;&#45;&#45;|&#45;&#45;&#45;| &#160;&#160;&#160;&#160;&#160;&#160;&#160;&#160;&#160;&#160;|</text>
<text text-anchor="middle" x="397" y="-2528.68" font-family="Times,serif" font-size="14.00"> | &#160;&#160;| &#160;&#160;| &#160;&#160;#&#45;&gt; &#160;&#160;&#160;&#160;&#160;&#160;&#160;&#160;|</text>
<text text-anchor="middle" x="397" y="-2513.68" font-family="Times,serif" font-size="14.00"> |&#45;&#45;&#45;|&#45;&#45;&#45;|&#45;&#45;&#45;| &#160;&#160;&#160;&#160;&#160;&#160;&#160;&#160;&#160;&#160;|</text>
<text text-anchor="middle" x="397" y="-2498.68" font-family="Times,serif" font-size="14.00"> | &#160;&#160;| &#160;&#160;| &lt;&#45;* &#160;&#160;&#160;&#160;&#160;&#160;&#160;&#160;&#160;&#160;|</text>
<text text-anchor="middle" x="397" y="-2483.68" font-family="Times,serif" font-size="14.00"> |&#45;&#45;&#45;|&#45;&#45;&#45;|&#45;&#45;&#45;|&#45;&#45;&#45;&#45;&#45;&#45;&#45;&#45;&#45;&#45;&#45;|</text>
<text text-anchor="middle" x="397" y="-2468.68" font-family="Times,serif" font-size="14.00"> | &#160;&#160;| &#160;&#160;| &#160;&#160;| &#160;&#160;&#160;&#160;&#160;&#160;&#160;&#160;&#160;&#160;|</text>
<text text-anchor="middle" x="397" y="-2453.68" font-family="Times,serif" font-size="14.00"> |&#45;&#45;&#45;|&#45;&#45;&#45;|&#45;&#45;&#45;| &#160;&#160;&#160;&#160;&#160;&#160;&#160;&#160;&#160;&#160;|</text>
<text text-anchor="middle" x="397" y="-2438.68" font-family="Times,serif" font-size="14.00"> | &#160;&#160;| &#160;&#160;| &#160;&#160;| &#160;&#160;&#160;&#160;&#160;&#160;&#160;&#160;&#160;&#160;|</text>
<text text-anchor="middle" x="397" y="-2423.68" font-family="Times,serif" font-size="14.00"> |&#45;&#45;&#45;|&#45;&#45;&#45;|&#45;&#45;&#45;| &#160;&#160;&#160;&#160;&#160;&#160;&#160;&#160;&#160;&#160;|</text>
<text text-anchor="middle" x="397" y="-2408.68" font-family="Times,serif" font-size="14.00"> | &#160;&#160;| &#160;&#160;| &#160;&#160;| &#160;&#160;&#160;&#160;&#160;&#160;&#160;&#160;&#160;&#160;|</text>
<text text-anchor="middle" x="397" y="-2393.68" font-family="Times,serif" font-size="14.00"> &#45;&#45;&#45;&#45;&#45;&#45;&#45;&#45;&#45;&#45;&#45;&#45;&#45;&#45;&#45;&#45;&#45;&#45;&#45;&#45;&#45;&#45;&#45;&#45;&#45;</text>
</g>
<!-- COMMENT_855f100+1&#45;&gt;COMMENT_855f100+2 -->
<g id="edge12" class="edge">
<title>COMMENT_855f100+1&#45;&gt;COMMENT_855f100+2</title>
<path fill="none" stroke="black" d="M397,-2654.8C397,-2647.77 397,-2638.97 397,-2629.17"/>
<polygon fill="black" stroke="black" points="400.5,-2629.07 397,-2619.07 393.5,-2629.07 400.5,-2629.07"/>
</g>
<!-- COMMENT_855f100+3 -->
<g id="node20" class="node">
<title>COMMENT_855f100+3</title>
<polygon fill="none" stroke="black" points="627,-2349.88 161,-2349.88 161,-2313.88 633,-2313.88 633,-2343.88 627,-2349.88"/>
<polyline fill="none" stroke="black" points="627,-2349.88 627,-2343.88 "/>
<polyline fill="none" stroke="black" points="633,-2343.88 627,-2343.88 "/>
<text text-anchor="middle" x="397" y="-2328.18" font-family="Times,serif" font-size="14.00"> &#160;&#160;&#160;&#160;&#160;&#160;&#160;&#160;&#160;&#160;&#160;&#160;&#160;&#160;&#160;&#160;&#160;&#160;&#160;&#160;&#160;&#160;&#160;NM=1,NOM=2,IW=* &#160;&#160;&#160;&#160;&#160;&#160;&#160;NM=2,NOM=1,IW=#</text>
</g>
<!-- COMMENT_855f100+2&#45;&gt;COMMENT_855f100+3 -->
<g id="edge13" class="edge">
<title>COMMENT_855f100+2&#45;&gt;COMMENT_855f100+3</title>
<path fill="none" stroke="black" d="M397,-2385.73C397,-2376.47 397,-2367.8 397,-2360.27"/>
<polygon fill="black" stroke="black" points="400.5,-2360.11 397,-2350.11 393.5,-2360.11 400.5,-2360.11"/>
</g>
<!-- COMMENT_8568d20+1 -->
<g id="node21" class="node">
<title>COMMENT_8568d20+1</title>
<polygon fill="none" stroke="black" points="663.5,-2277.88 124.5,-2277.88 124.5,-2241.88 669.5,-2241.88 669.5,-2271.88 663.5,-2277.88"/>
<polyline fill="none" stroke="black" points="663.5,-2277.88 663.5,-2271.88 "/>
<polyline fill="none" stroke="black" points="669.5,-2271.88 663.5,-2271.88 "/>
<text text-anchor="middle" x="397" y="-2256.18" font-family="Times,serif" font-size="14.00">Determine if masses from consumable obstructions need to be exchanged</text>
</g>
<!-- COMMENT_855f100+3&#45;&gt;COMMENT_8568d20+1 -->
<g id="edge14" class="edge">
<title>COMMENT_855f100+3&#45;&gt;COMMENT_8568d20+1</title>
<path fill="none" stroke="black" d="M397,-2313.58C397,-2305.86 397,-2296.59 397,-2287.99"/>
<polygon fill="black" stroke="black" points="400.5,-2287.98 397,-2277.98 393.5,-2287.98 400.5,-2287.98"/>
</g>
<!-- COMMENT_856a740+1 -->
<g id="node22" class="node">
<title>COMMENT_856a740+1</title>
<polygon fill="none" stroke="black" points="613,-2205.88 175,-2205.88 175,-2169.88 619,-2169.88 619,-2199.88 613,-2205.88"/>
<polyline fill="none" stroke="black" points="613,-2205.88 613,-2199.88 "/>
<polyline fill="none" stroke="black" points="619,-2199.88 613,-2199.88 "/>
<text text-anchor="middle" x="397" y="-2184.18" font-family="Times,serif" font-size="14.00">Do not allow a MIRROR boundary to sit on a mesh interface</text>
</g>
<!-- COMMENT_8568d20+1&#45;&gt;COMMENT_856a740+1 -->
<g id="edge15" class="edge">
<title>COMMENT_8568d20+1&#45;&gt;COMMENT_856a740+1</title>
<path fill="none" stroke="black" d="M397,-2241.58C397,-2233.86 397,-2224.59 397,-2215.99"/>
<polygon fill="black" stroke="black" points="400.5,-2215.98 397,-2205.98 393.5,-2215.98 400.5,-2215.98"/>
</g>
<!-- COMMENT_856c440+1 -->
<g id="node23" class="node">
<title>COMMENT_856c440+1</title>
<polygon fill="none" stroke="black" points="585.5,-2133.88 202.5,-2133.88 202.5,-2097.88 591.5,-2097.88 591.5,-2127.88 585.5,-2133.88"/>
<polyline fill="none" stroke="black" points="585.5,-2133.88 585.5,-2127.88 "/>
<polyline fill="none" stroke="black" points="591.5,-2127.88 585.5,-2127.88 "/>
<text text-anchor="middle" x="397" y="-2112.18" font-family="Times,serif" font-size="14.00">Open up the ghost cell at the interpolated boundary</text>
</g>
<!-- COMMENT_856a740+1&#45;&gt;COMMENT_856c440+1 -->
<g id="edge16" class="edge">
<title>COMMENT_856a740+1&#45;&gt;COMMENT_856c440+1</title>
<path fill="none" stroke="black" d="M397,-2169.58C397,-2161.86 397,-2152.59 397,-2143.99"/>
<polygon fill="black" stroke="black" points="400.5,-2143.98 397,-2133.98 393.5,-2143.98 400.5,-2143.98"/>
</g>
<!-- COMMENT_856c440+1&#45;&gt;endIf_IF_856d340 -->
<g id="edge18" class="edge">
<title>COMMENT_856c440+1&#45;&gt;endIf_IF_856d340</title>
<path fill="none" stroke="black" d="M397,-2097.82C397,-2082.81 397,-2063.15 397,-2061.94"/>
</g>
<!-- CALL_8573880 -->
<g id="node25" class="node">
<title>CALL_8573880</title>
<g id="a_node25"><a xlink:href="ALLOCATE_STORAGE.svg" xlink:title="ALLOCATE_STORAGE">
<polygon fill="lightgray" stroke="black" points="483.5,-1916.44 310.5,-1916.44 310.5,-1912.44 306.5,-1912.44 306.5,-1908.44 310.5,-1908.44 310.5,-1888.44 306.5,-1888.44 306.5,-1884.44 310.5,-1884.44 310.5,-1880.44 483.5,-1880.44 483.5,-1916.44"/>
<polyline fill="none" stroke="black" points="310.5,-1912.44 314.5,-1912.44 314.5,-1908.44 310.5,-1908.44 "/>
<polyline fill="none" stroke="black" points="310.5,-1888.44 314.5,-1888.44 314.5,-1884.44 310.5,-1884.44 "/>
<text text-anchor="middle" x="397" y="-1894.74" font-family="Times,serif" font-size="14.00">ALLOCATE_STORAGE</text>
</a>
</g>
</g>
<!-- COMMENT_8573880+1&#45;&gt;CALL_8573880 -->
<g id="edge24" class="edge">
<title>COMMENT_8573880+1&#45;&gt;CALL_8573880</title>
<path fill="none" stroke="black" d="M397,-1952.14C397,-1944.42 397,-1935.15 397,-1926.55"/>
<polygon fill="black" stroke="black" points="400.5,-1926.54 397,-1916.54 393.5,-1926.54 400.5,-1926.54"/>
</g>
<!-- COMMENT_85737e0+1 -->
<g id="node26" class="node">
<title>COMMENT_85737e0+1</title>
<polygon fill="none" stroke="black" points="516.5,-1844.44 271.5,-1844.44 271.5,-1808.44 522.5,-1808.44 522.5,-1838.44 516.5,-1844.44"/>
<polyline fill="none" stroke="black" points="516.5,-1844.44 516.5,-1838.44 "/>
<polyline fill="none" stroke="black" points="522.5,-1838.44 516.5,-1838.44 "/>
<text text-anchor="middle" x="397" y="-1822.74" font-family="Times,serif" font-size="14.00">Initialize wall cell (WC) variables</text>
</g>
<!-- CALL_8573880&#45;&gt;COMMENT_85737e0+1 -->
<g id="edge25" class="edge">
<title>CALL_8573880&#45;&gt;COMMENT_85737e0+1</title>
<path fill="none" stroke="black" d="M397,-1880.14C397,-1872.42 397,-1863.15 397,-1854.55"/>
<polygon fill="black" stroke="black" points="400.5,-1854.54 397,-1844.54 393.5,-1854.54 400.5,-1854.54"/>
</g>
<!-- COMMENT_858e360+1 -->
<g id="node27" class="node">
<title>COMMENT_858e360+1</title>
<polygon fill="none" stroke="black" points="779,-1772.44 9,-1772.44 9,-1736.44 785,-1736.44 785,-1766.44 779,-1772.44"/>
<polyline fill="none" stroke="black" points="779,-1772.44 779,-1766.44 "/>
<polyline fill="none" stroke="black" points="785,-1766.44 779,-1766.44 "/>
<text text-anchor="middle" x="397" y="-1750.74" font-family="Times,serif" font-size="14.00">If the WALL cell is attached to a THIN obstruction, use the obstruction coords for the wall cell coordinates</text>
</g>
<!-- COMMENT_85737e0+1&#45;&gt;COMMENT_858e360+1 -->
<g id="edge26" class="edge">
<title>COMMENT_85737e0+1&#45;&gt;COMMENT_858e360+1</title>
<path fill="none" stroke="black" d="M397,-1808.14C397,-1800.42 397,-1791.15 397,-1782.55"/>
<polygon fill="black" stroke="black" points="400.5,-1782.54 397,-1772.54 393.5,-1782.54 400.5,-1782.54"/>
</g>
<!-- COMMENT_85acb80+1 -->
<g id="node28" class="node">
<title>COMMENT_85acb80+1</title>
<polygon fill="none" stroke="black" points="607,-1700.44 181,-1700.44 181,-1664.44 613,-1664.44 613,-1694.44 607,-1700.44"/>
<polyline fill="none" stroke="black" points="607,-1700.44 607,-1694.44 "/>
<polyline fill="none" stroke="black" points="613,-1694.44 607,-1694.44 "/>
<text text-anchor="middle" x="397" y="-1678.74" font-family="Times,serif" font-size="14.00">If the simulation is only a TGA analysis, get the wall index</text>
</g>
<!-- COMMENT_858e360+1&#45;&gt;COMMENT_85acb80+1 -->
<g id="edge27" class="edge">
<title>COMMENT_858e360+1&#45;&gt;COMMENT_85acb80+1</title>
<path fill="none" stroke="black" d="M397,-1736.14C397,-1728.42 397,-1719.15 397,-1710.55"/>
<polygon fill="black" stroke="black" points="400.5,-1710.54 397,-1700.54 393.5,-1710.54 400.5,-1710.54"/>
</g>
<!-- COMMENT_85aff20+1 -->
<g id="node29" class="node">
<title>COMMENT_85aff20+1</title>
<polygon fill="none" stroke="black" points="606,-1628.44 182,-1628.44 182,-1592.44 612,-1592.44 612,-1622.44 606,-1628.44"/>
<polyline fill="none" stroke="black" points="606,-1628.44 606,-1622.44 "/>
<polyline fill="none" stroke="black" points="612,-1622.44 606,-1622.44 "/>
<text text-anchor="middle" x="397" y="-1606.74" font-family="Times,serif" font-size="14.00">Assign internal values of temp, density, and mass fraction</text>
</g>
<!-- COMMENT_85acb80+1&#45;&gt;COMMENT_85aff20+1 -->
<g id="edge28" class="edge">
<title>COMMENT_85acb80+1&#45;&gt;COMMENT_85aff20+1</title>
<path fill="none" stroke="black" d="M397,-1664.14C397,-1656.42 397,-1647.15 397,-1638.55"/>
<polygon fill="black" stroke="black" points="400.5,-1638.54 397,-1628.54 393.5,-1638.54 400.5,-1638.54"/>
</g>
<!-- COMMENT_85ba500+1 -->
<g id="node30" class="node">
<title>COMMENT_85ba500+1</title>
<polygon fill="none" stroke="black" points="629,-1556.44 159,-1556.44 159,-1520.44 635,-1520.44 635,-1550.44 629,-1556.44"/>
<polyline fill="none" stroke="black" points="629,-1556.44 629,-1550.44 "/>
<polyline fill="none" stroke="black" points="635,-1550.44 629,-1550.44 "/>
<text text-anchor="middle" x="397" y="-1534.74" font-family="Times,serif" font-size="14.00">Compute the mass of the grid cell corresponding to the wall cell</text>
</g>
<!-- COMMENT_85aff20+1&#45;&gt;COMMENT_85ba500+1 -->
<g id="edge29" class="edge">
<title>COMMENT_85aff20+1&#45;&gt;COMMENT_85ba500+1</title>
<path fill="none" stroke="black" d="M397,-1592.14C397,-1584.42 397,-1575.15 397,-1566.55"/>
<polygon fill="black" stroke="black" points="400.5,-1566.54 397,-1556.54 393.5,-1566.54 400.5,-1566.54"/>
</g>
<!-- COMMENT_85c0e00+1 -->
<g id="node31" class="node">
<title>COMMENT_85c0e00+1</title>
<polygon fill="none" stroke="black" points="604.5,-1484.44 183.5,-1484.44 183.5,-1448.44 610.5,-1448.44 610.5,-1478.44 604.5,-1484.44"/>
<polyline fill="none" stroke="black" points="604.5,-1484.44 604.5,-1478.44 "/>
<polyline fill="none" stroke="black" points="610.5,-1478.44 604.5,-1478.44 "/>
<text text-anchor="middle" x="397" y="-1462.74" font-family="Times,serif" font-size="14.00">Prescribe normal velocity for surface cell (U_NORMAL_0)</text>
</g>
<!-- COMMENT_85ba500+1&#45;&gt;COMMENT_85c0e00+1 -->
<g id="edge30" class="edge">
<title>COMMENT_85ba500+1&#45;&gt;COMMENT_85c0e00+1</title>
<path fill="none" stroke="black" d="M397,-1520.14C397,-1512.42 397,-1503.15 397,-1494.55"/>
<polygon fill="black" stroke="black" points="400.5,-1494.54 397,-1484.54 393.5,-1494.54 400.5,-1494.54"/>
</g>
<!-- COMMENT_85ca8e0+1 -->
<g id="node32" class="node">
<title>COMMENT_85ca8e0+1</title>
<polygon fill="none" stroke="black" points="488,-1412.44 300,-1412.44 300,-1376.44 494,-1376.44 494,-1406.44 488,-1412.44"/>
<polyline fill="none" stroke="black" points="488,-1412.44 488,-1406.44 "/>
<polyline fill="none" stroke="black" points="494,-1406.44 488,-1406.44 "/>
<text text-anchor="middle" x="397" y="-1390.74" font-family="Times,serif" font-size="14.00">Do VENT&#45;specific set&#45;ups</text>
</g>
<!-- COMMENT_85c0e00+1&#45;&gt;COMMENT_85ca8e0+1 -->
<g id="edge31" class="edge">
<title>COMMENT_85c0e00+1&#45;&gt;COMMENT_85ca8e0+1</title>
<path fill="none" stroke="black" d="M397,-1448.14C397,-1440.42 397,-1431.15 397,-1422.55"/>
<polygon fill="black" stroke="black" points="400.5,-1422.54 397,-1412.54 393.5,-1422.54 400.5,-1422.54"/>
</g>
<!-- beginIf_IF_8739400 -->
<g id="node33" class="node">
<title>beginIf_IF_8739400</title>
<ellipse fill="black" stroke="black" cx="397" cy="-1337.08" rx="0.36" ry="0.36"/>
</g>
<!-- COMMENT_85ca8e0+1&#45;&gt;beginIf_IF_8739400 -->
<g id="edge45" class="edge">
<title>COMMENT_85ca8e0+1&#45;&gt;beginIf_IF_8739400</title>
<path fill="none" stroke="black" d="M397,-1376.23C397,-1360.48 397,-1339.44 397,-1338.14"/>
</g>
<!-- COMMENT_83bfd60+1 -->
<g id="node35" class="node">
<title>COMMENT_83bfd60+1</title>
<polygon fill="none" stroke="black" points="526.5,-1297.72 261.5,-1297.72 261.5,-1261.72 532.5,-1261.72 532.5,-1291.72 526.5,-1297.72"/>
<polyline fill="none" stroke="black" points="526.5,-1297.72 526.5,-1291.72 "/>
<polyline fill="none" stroke="black" points="532.5,-1291.72 526.5,-1291.72 "/>
<text text-anchor="middle" x="397" y="-1276.02" font-family="Times,serif" font-size="14.00">Set the velocity at each surface cell</text>
</g>
<!-- beginIf_IF_8739400&#45;&gt;COMMENT_83bfd60+1 -->
<g id="edge43" class="edge">
<title>beginIf_IF_8739400&#45;&gt;COMMENT_83bfd60+1</title>
<path fill="none" stroke="black" d="M397,-1336.56C397,-1334.93 397,-1321.24 397,-1307.82"/>
<polygon fill="black" stroke="black" points="400.5,-1307.82 397,-1297.82 393.5,-1307.82 400.5,-1307.82"/>
</g>
<!-- endIf_IF_8739400 -->
<g id="node34" class="node">
<title>endIf_IF_8739400</title>
<ellipse fill="black" stroke="black" cx="397" cy="-433.36" rx="0.36" ry="0.36"/>
</g>
<!-- COMMENT_873a3a0+1 -->
<g id="node47" class="node">
<title>COMMENT_873a3a0+1</title>
<polygon fill="none" stroke="black" points="582.5,-397 205.5,-397 205.5,-361 588.5,-361 588.5,-391 582.5,-397"/>
<polyline fill="none" stroke="black" points="582.5,-397 582.5,-391 "/>
<polyline fill="none" stroke="black" points="588.5,-391 582.5,-391 "/>
<text text-anchor="middle" x="397" y="-375.3" font-family="Times,serif" font-size="14.00">Check if fire spreads radially over this surface type</text>
</g>
<!-- endIf_IF_8739400&#45;&gt;COMMENT_873a3a0+1 -->
<g id="edge46" class="edge">
<title>endIf_IF_8739400&#45;&gt;COMMENT_873a3a0+1</title>
<path fill="none" stroke="black" d="M397,-432.21C397,-430.77 397,-419.23 397,-407.36"/>
<polygon fill="black" stroke="black" points="400.5,-407.1 397,-397.1 393.5,-407.1 400.5,-407.1"/>
</g>
<!-- CALL_85db320 -->
<g id="node36" class="node">
<title>CALL_85db320</title>
<g id="a_node36"><a xlink:href="GET_SPECIFIC_GAS_CONSTANT.svg" xlink:title="GET_SPECIFIC_GAS_CONSTANT">
<polygon fill="lightgray" stroke="black" points="523,-1225.72 271,-1225.72 271,-1221.72 267,-1221.72 267,-1217.72 271,-1217.72 271,-1197.72 267,-1197.72 267,-1193.72 271,-1193.72 271,-1189.72 523,-1189.72 523,-1225.72"/>
<polyline fill="none" stroke="black" points="271,-1221.72 275,-1221.72 275,-1217.72 271,-1217.72 "/>
<polyline fill="none" stroke="black" points="271,-1197.72 275,-1197.72 275,-1193.72 271,-1193.72 "/>
<text text-anchor="middle" x="397" y="-1204.02" font-family="Times,serif" font-size="14.00">GET_SPECIFIC_GAS_CONSTANT</text>
</a>
</g>
</g>
<!-- COMMENT_83bfd60+1&#45;&gt;CALL_85db320 -->
<g id="edge32" class="edge">
<title>COMMENT_83bfd60+1&#45;&gt;CALL_85db320</title>
<path fill="none" stroke="black" d="M397,-1261.42C397,-1253.7 397,-1244.43 397,-1235.83"/>
<polygon fill="black" stroke="black" points="400.5,-1235.82 397,-1225.82 393.5,-1235.82 400.5,-1235.82"/>
</g>
<!-- CALL_85deb00 -->
<g id="node37" class="node">
<title>CALL_85deb00</title>
<g id="a_node37"><a xlink:href="SHUTDOWN.svg" xlink:title="SHUTDOWN">
<polygon fill="lightgray" stroke="black" points="451,-1153.72 343,-1153.72 343,-1149.72 339,-1149.72 339,-1145.72 343,-1145.72 343,-1125.72 339,-1125.72 339,-1121.72 343,-1121.72 343,-1117.72 451,-1117.72 451,-1153.72"/>
<polyline fill="none" stroke="black" points="343,-1149.72 347,-1149.72 347,-1145.72 343,-1145.72 "/>
<polyline fill="none" stroke="black" points="343,-1125.72 347,-1125.72 347,-1121.72 343,-1121.72 "/>
<text text-anchor="middle" x="397" y="-1132.02" font-family="Times,serif" font-size="14.00">SHUTDOWN</text>
</a>
</g>
</g>
<!-- CALL_85db320&#45;&gt;CALL_85deb00 -->
<g id="edge33" class="edge">
<title>CALL_85db320&#45;&gt;CALL_85deb00</title>
<path fill="none" stroke="black" d="M397,-1189.42C397,-1181.7 397,-1172.43 397,-1163.83"/>
<polygon fill="black" stroke="black" points="400.5,-1163.82 397,-1153.82 393.5,-1163.82 400.5,-1163.82"/>
</g>
<!-- COMMENT_85d7060+1 -->
<g id="node38" class="node">
<title>COMMENT_85d7060+1</title>
<polygon fill="none" stroke="black" points="484,-1081.72 304,-1081.72 304,-1045.72 490,-1045.72 490,-1075.72 484,-1081.72"/>
<polyline fill="none" stroke="black" points="484,-1081.72 484,-1075.72 "/>
<polyline fill="none" stroke="black" points="490,-1075.72 484,-1075.72 "/>
<text text-anchor="middle" x="397" y="-1060.02" font-family="Times,serif" font-size="14.00">Special velocity profiles</text>
</g>
<!-- CALL_85deb00&#45;&gt;COMMENT_85d7060+1 -->
<g id="edge34" class="edge">
<title>CALL_85deb00&#45;&gt;COMMENT_85d7060+1</title>
<path fill="none" stroke="black" d="M397,-1117.42C397,-1109.7 397,-1100.43 397,-1091.83"/>
<polygon fill="black" stroke="black" points="400.5,-1091.82 397,-1081.82 393.5,-1091.82 400.5,-1091.82"/>
</g>
<!-- IF_85ff180 -->
<g id="node39" class="node">
<title>IF_85ff180</title>
<polygon fill="none" stroke="blue" points="458.5,-1009.72 335.5,-1009.72 335.5,-973.72 458.5,-973.72 458.5,-1009.72"/>
<text text-anchor="middle" x="397" y="-988.02" font-family="Times,serif" font-size="14.00">PARABOLIC_IF</text>
</g>
<!-- COMMENT_85d7060+1&#45;&gt;IF_85ff180 -->
<g id="edge35" class="edge">
<title>COMMENT_85d7060+1&#45;&gt;IF_85ff180</title>
<path fill="none" stroke="black" d="M397,-1045.42C397,-1037.7 397,-1028.43 397,-1019.83"/>
<polygon fill="black" stroke="black" points="400.5,-1019.82 397,-1009.82 393.5,-1019.82 400.5,-1019.82"/>
</g>
<!-- COMMENT_85da900+1 -->
<g id="node40" class="node">
<title>COMMENT_85da900+1</title>
<polygon fill="none" stroke="black" points="539,-937.72 249,-937.72 249,-901.72 545,-901.72 545,-931.72 539,-937.72"/>
<polyline fill="none" stroke="black" points="539,-937.72 539,-931.72 "/>
<polyline fill="none" stroke="black" points="545,-931.72 539,-931.72 "/>
<text text-anchor="middle" x="397" y="-916.02" font-family="Times,serif" font-size="14.00">Currently only set up for circular vents</text>
</g>
<!-- IF_85ff180&#45;&gt;COMMENT_85da900+1 -->
<g id="edge36" class="edge">
<title>IF_85ff180&#45;&gt;COMMENT_85da900+1</title>
<path fill="none" stroke="black" d="M397,-973.42C397,-965.7 397,-956.43 397,-947.83"/>
<polygon fill="black" stroke="black" points="400.5,-947.82 397,-937.82 393.5,-947.82 400.5,-947.82"/>
</g>
<!-- CALL_871bfa0 -->
<g id="node41" class="node">
<title>CALL_871bfa0</title>
<g id="a_node41"><a xlink:href="SHUTDOWN.svg" xlink:title="SHUTDOWN">
<polygon fill="lightgray" stroke="black" points="451,-865.72 343,-865.72 343,-861.72 339,-861.72 339,-857.72 343,-857.72 343,-837.72 339,-837.72 339,-833.72 343,-833.72 343,-829.72 451,-829.72 451,-865.72"/>
<polyline fill="none" stroke="black" points="343,-861.72 347,-861.72 347,-857.72 343,-857.72 "/>
<polyline fill="none" stroke="black" points="343,-837.72 347,-837.72 347,-833.72 343,-833.72 "/>
<text text-anchor="middle" x="397" y="-844.02" font-family="Times,serif" font-size="14.00">SHUTDOWN</text>
</a>
</g>
</g>
<!-- COMMENT_85da900+1&#45;&gt;CALL_871bfa0 -->
<g id="edge37" class="edge">
<title>COMMENT_85da900+1&#45;&gt;CALL_871bfa0</title>
<path fill="none" stroke="black" d="M397,-901.42C397,-893.7 397,-884.43 397,-875.83"/>
<polygon fill="black" stroke="black" points="400.5,-875.82 397,-865.82 393.5,-875.82 400.5,-875.82"/>
</g>
<!-- CALL_8721a00 -->
<g id="node42" class="node">
<title>CALL_8721a00</title>
<g id="a_node42"><a xlink:href="SHUTDOWN.svg" xlink:title="SHUTDOWN">
<polygon fill="lightgray" stroke="black" points="451,-793.72 343,-793.72 343,-789.72 339,-789.72 339,-785.72 343,-785.72 343,-765.72 339,-765.72 339,-761.72 343,-761.72 343,-757.72 451,-757.72 451,-793.72"/>
<polyline fill="none" stroke="black" points="343,-789.72 347,-789.72 347,-785.72 343,-785.72 "/>
<polyline fill="none" stroke="black" points="343,-765.72 347,-765.72 347,-761.72 343,-761.72 "/>
<text text-anchor="middle" x="397" y="-772.02" font-family="Times,serif" font-size="14.00">SHUTDOWN</text>
</a>
</g>
</g>
<!-- CALL_871bfa0&#45;&gt;CALL_8721a00 -->
<g id="edge38" class="edge">
<title>CALL_871bfa0&#45;&gt;CALL_8721a00</title>
<path fill="none" stroke="black" d="M397,-829.42C397,-821.7 397,-812.43 397,-803.83"/>
<polygon fill="black" stroke="black" points="400.5,-803.82 397,-793.82 393.5,-803.82 400.5,-803.82"/>
</g>
<!-- CALL_8727e00 -->
<g id="node43" class="node">
<title>CALL_8727e00</title>
<g id="a_node43"><a xlink:href="SHUTDOWN.svg" xlink:title="SHUTDOWN">
<polygon fill="lightgray" stroke="black" points="451,-721.72 343,-721.72 343,-717.72 339,-717.72 339,-713.72 343,-713.72 343,-693.72 339,-693.72 339,-689.72 343,-689.72 343,-685.72 451,-685.72 451,-721.72"/>
<polyline fill="none" stroke="black" points="343,-717.72 347,-717.72 347,-713.72 343,-713.72 "/>
<polyline fill="none" stroke="black" points="343,-693.72 347,-693.72 347,-689.72 343,-689.72 "/>
<text text-anchor="middle" x="397" y="-700.02" font-family="Times,serif" font-size="14.00">SHUTDOWN</text>
</a>
</g>
</g>
<!-- CALL_8721a00&#45;&gt;CALL_8727e00 -->
<g id="edge39" class="edge">
<title>CALL_8721a00&#45;&gt;CALL_8727e00</title>
<path fill="none" stroke="black" d="M397,-757.42C397,-749.7 397,-740.43 397,-731.83"/>
<polygon fill="black" stroke="black" points="400.5,-731.82 397,-721.82 393.5,-731.82 400.5,-731.82"/>
</g>
<!-- CALL_872e5c0 -->
<g id="node44" class="node">
<title>CALL_872e5c0</title>
<g id="a_node44"><a xlink:href="SHUTDOWN.svg" xlink:title="SHUTDOWN">
<polygon fill="lightgray" stroke="black" points="451,-649.72 343,-649.72 343,-645.72 339,-645.72 339,-641.72 343,-641.72 343,-621.72 339,-621.72 339,-617.72 343,-617.72 343,-613.72 451,-613.72 451,-649.72"/>
<polyline fill="none" stroke="black" points="343,-645.72 347,-645.72 347,-641.72 343,-641.72 "/>
<polyline fill="none" stroke="black" points="343,-621.72 347,-621.72 347,-617.72 343,-617.72 "/>
<text text-anchor="middle" x="397" y="-628.02" font-family="Times,serif" font-size="14.00">SHUTDOWN</text>
</a>
</g>
</g>
<!-- CALL_8727e00&#45;&gt;CALL_872e5c0 -->
<g id="edge40" class="edge">
<title>CALL_8727e00&#45;&gt;CALL_872e5c0</title>
<path fill="none" stroke="black" d="M397,-685.42C397,-677.7 397,-668.43 397,-659.83"/>
<polygon fill="black" stroke="black" points="400.5,-659.82 397,-649.82 393.5,-659.82 400.5,-659.82"/>
</g>
<!-- COMMENT_872e040+1 -->
<g id="node45" class="node">
<title>COMMENT_872e040+1</title>
<polygon fill="none" stroke="black" points="554,-577.72 234,-577.72 234,-541.72 560,-541.72 560,-571.72 554,-577.72"/>
<polyline fill="none" stroke="black" points="554,-577.72 554,-571.72 "/>
<polyline fill="none" stroke="black" points="560,-571.72 554,-571.72 "/>
<text text-anchor="middle" x="397" y="-556.02" font-family="Times,serif" font-size="14.00">Check if fire spreads radially over this vent</text>
</g>
<!-- CALL_872e5c0&#45;&gt;COMMENT_872e040+1 -->
<g id="edge41" class="edge">
<title>CALL_872e5c0&#45;&gt;COMMENT_872e040+1</title>
<path fill="none" stroke="black" d="M397,-613.42C397,-605.7 397,-596.43 397,-587.83"/>
<polygon fill="black" stroke="black" points="400.5,-587.82 397,-577.82 393.5,-587.82 400.5,-587.82"/>
</g>
<!-- COMMENT_871bca0+1 -->
<g id="node46" class="node">
<title>COMMENT_871bca0+1</title>
<polygon fill="none" stroke="black" points="481,-505.72 307,-505.72 307,-469.72 487,-469.72 487,-499.72 481,-505.72"/>
<polyline fill="none" stroke="black" points="481,-505.72 481,-499.72 "/>
<polyline fill="none" stroke="black" points="487,-499.72 481,-499.72 "/>
<text text-anchor="middle" x="397" y="-484.02" font-family="Times,serif" font-size="14.00">Miscellaneous settings</text>
</g>
<!-- COMMENT_872e040+1&#45;&gt;COMMENT_871bca0+1 -->
<g id="edge42" class="edge">
<title>COMMENT_872e040+1&#45;&gt;COMMENT_871bca0+1</title>
<path fill="none" stroke="black" d="M397,-541.42C397,-533.7 397,-524.43 397,-515.83"/>
<polygon fill="black" stroke="black" points="400.5,-515.82 397,-505.82 393.5,-515.82 400.5,-515.82"/>
</g>
<!-- COMMENT_871bca0+1&#45;&gt;endIf_IF_8739400 -->
<g id="edge44" class="edge">
<title>COMMENT_871bca0+1&#45;&gt;endIf_IF_8739400</title>
<path fill="none" stroke="black" d="M397,-469.66C397,-454.65 397,-434.99 397,-433.78"/>
</g>
<!-- COMMENT_873ab40+1 -->
<g id="node48" class="node">
<title>COMMENT_873ab40+1</title>
<polygon fill="none" stroke="black" points="537.5,-325 250.5,-325 250.5,-289 543.5,-289 543.5,-319 537.5,-325"/>
<polyline fill="none" stroke="black" points="537.5,-325 537.5,-319 "/>
<polyline fill="none" stroke="black" points="543.5,-319 537.5,-319 "/>
<text text-anchor="middle" x="397" y="-303.3" font-family="Times,serif" font-size="14.00">Set ignition time of each boundary cell</text>
</g>
<!-- COMMENT_873a3a0+1&#45;&gt;COMMENT_873ab40+1 -->
<g id="edge47" class="edge">
<title>COMMENT_873a3a0+1&#45;&gt;COMMENT_873ab40+1</title>
<path fill="none" stroke="black" d="M397,-360.7C397,-352.98 397,-343.71 397,-335.11"/>
<polygon fill="black" stroke="black" points="400.5,-335.1 397,-325.1 393.5,-335.1 400.5,-335.1"/>
</g>
<!-- COMMENT_873fe40+1 -->
<g id="node49" class="node">
<title>COMMENT_873fe40+1</title>
<polygon fill="none" stroke="black" points="584,-253 204,-253 204,-217 590,-217 590,-247 584,-253"/>
<polyline fill="none" stroke="black" points="584,-253 584,-247 "/>
<polyline fill="none" stroke="black" points="590,-247 584,-247 "/>
<text text-anchor="middle" x="397" y="-231.3" font-family="Times,serif" font-size="14.00">Set correct initial value of temperature for RAMP_T</text>
</g>
<!-- COMMENT_873ab40+1&#45;&gt;COMMENT_873fe40+1 -->
<g id="edge48" class="edge">
<title>COMMENT_873ab40+1&#45;&gt;COMMENT_873fe40+1</title>
<path fill="none" stroke="black" d="M397,-288.7C397,-280.98 397,-271.71 397,-263.11"/>
<polygon fill="black" stroke="black" points="400.5,-263.1 397,-253.1 393.5,-263.1 400.5,-263.1"/>
</g>
<!-- COMMENT_8752800+1 -->
<g id="node50" class="node">
<title>COMMENT_8752800+1</title>
<polygon fill="none" stroke="black" points="615.5,-181 172.5,-181 172.5,-145 621.5,-145 621.5,-175 615.5,-181"/>
<polyline fill="none" stroke="black" points="615.5,-181 615.5,-175 "/>
<polyline fill="none" stroke="black" points="621.5,-175 615.5,-175 "/>
<text text-anchor="middle" x="397" y="-159.3" font-family="Times,serif" font-size="14.00">Reinitialize wall cell outgoing radiation for change in TMP_F</text>
</g>
<!-- COMMENT_873fe40+1&#45;&gt;COMMENT_8752800+1 -->
<g id="edge49" class="edge">
<title>COMMENT_873fe40+1&#45;&gt;COMMENT_8752800+1</title>
<path fill="none" stroke="black" d="M397,-216.7C397,-208.98 397,-199.71 397,-191.11"/>
<polygon fill="black" stroke="black" points="400.5,-191.1 397,-181.1 393.5,-191.1 400.5,-191.1"/>
</g>
<!-- COMMENT_87517a0+1 -->
<g id="node51" class="node">
<title>COMMENT_87517a0+1</title>
<polygon fill="none" stroke="black" points="721,-109 67,-109 67,-73 727,-73 727,-103 721,-109"/>
<polyline fill="none" stroke="black" points="721,-109 721,-103 "/>
<polyline fill="none" stroke="black" points="727,-103 721,-103 "/>
<text text-anchor="middle" x="397" y="-87.3" font-family="Times,serif" font-size="14.00">Record original boundary condition index for exterior wall cells that might get covered up</text>
</g>
<!-- COMMENT_8752800+1&#45;&gt;COMMENT_87517a0+1 -->
<g id="edge50" class="edge">
<title>COMMENT_8752800+1&#45;&gt;COMMENT_87517a0+1</title>
<path fill="none" stroke="black" d="M397,-144.7C397,-136.98 397,-127.71 397,-119.11"/>
<polygon fill="black" stroke="black" points="400.5,-119.1 397,-109.1 393.5,-119.1 400.5,-119.1"/>
</g>
<!-- end_SUBPROGRAM_8753a20 -->
<g id="node52" class="node">
<title>end_SUBPROGRAM_8753a20</title>
<ellipse fill="black" stroke="black" cx="397" cy="-30" rx="7" ry="7"/>
</g>
<!-- COMMENT_87517a0+1&#45;&gt;end_SUBPROGRAM_8753a20 -->
<g id="edge51" class="edge">
<title>COMMENT_87517a0+1&#45;&gt;end_SUBPROGRAM_8753a20</title>
<path fill="none" stroke="black" d="M397,-72.93C397,-64.89 397,-55.33 397,-47.37"/>
<polygon fill="black" stroke="black" points="400.5,-47.22 397,-37.22 393.5,-47.22 400.5,-47.22"/>
</g>
</g>
</svg>
