<?xml version="1.0" encoding="UTF-8" standalone="no"?>
<!DOCTYPE svg PUBLIC "-//W3C//DTD SVG 1.1//EN"
 "http://www.w3.org/Graphics/SVG/1.1/DTD/svg11.dtd">
<!-- Generated by graphviz version 2.43.0 (0)
 -->
<!-- Title: INIT_THIN_WALL_CELL Pages: 1 -->
<svg width="778pt" height="577pt"
 viewBox="0.00 0.00 778.00 577.00" xmlns="http://www.w3.org/2000/svg" xmlns:xlink="http://www.w3.org/1999/xlink">
<g id="graph0" class="graph" transform="scale(1 1) rotate(0) translate(4 573)">
<title>INIT_THIN_WALL_CELL</title>
<polygon fill="white" stroke="transparent" points="-4,4 -4,-573 774,-573 774,4 -4,4"/>
<text text-anchor="middle" x="385" y="-7.8" font-family="Times,serif" font-size="14.00">INIT_THIN_WALL_CELL</text>
<!-- start_SUBPROGRAM_8d0dfc0 -->
<g id="node1" class="node">
<title>start_SUBPROGRAM_8d0dfc0</title>
<ellipse fill="none" stroke="black" cx="385" cy="-562" rx="7" ry="7"/>
</g>
<!-- COMMENT_8d0bf40+1 -->
<g id="node2" class="node">
<title>COMMENT_8d0bf40+1</title>
<polygon fill="none" stroke="black" points="764,-519 0,-519 0,-361 770,-361 770,-513 764,-519"/>
<polyline fill="none" stroke="black" points="764,-519 764,-513 "/>
<polyline fill="none" stroke="black" points="770,-513 764,-513 "/>
<text text-anchor="middle" x="385" y="-503.8" font-family="Times,serif" font-size="14.00">!&gt; brief Initialize thin wall cell variables at edges of thin obstructions when 3&#45;D heat transfer is specified</text>
<text text-anchor="middle" x="385" y="-488.8" font-family="Times,serif" font-size="14.00">!&gt; param NM Mesh number</text>
<text text-anchor="middle" x="385" y="-473.8" font-family="Times,serif" font-size="14.00">!&gt; param I x&#45;index of inside thin wall cell</text>
<text text-anchor="middle" x="385" y="-458.8" font-family="Times,serif" font-size="14.00">!&gt; param J y&#45;index of inside thin wall cell</text>
<text text-anchor="middle" x="385" y="-443.8" font-family="Times,serif" font-size="14.00">!&gt; param K z&#45;index of inside thin wall cell</text>
<text text-anchor="middle" x="385" y="-428.8" font-family="Times,serif" font-size="14.00">!&gt; param OBST_INDEX Index of the obstruction to which the thin wall cell is attached</text>
<text text-anchor="middle" x="385" y="-413.8" font-family="Times,serif" font-size="14.00">!&gt; param ITW Index of the thin wall cell</text>
<text text-anchor="middle" x="385" y="-398.8" font-family="Times,serif" font-size="14.00">!&gt; param IOR Orientation index of the thin wall cell</text>
<text text-anchor="middle" x="385" y="-383.8" font-family="Times,serif" font-size="14.00">!&gt; param SURF_INDEX Surface index of the thin wall cell</text>
<text text-anchor="middle" x="385" y="-368.8" font-family="Times,serif" font-size="14.00">!&gt; param IEC Edge index</text>
</g>
<!-- start_SUBPROGRAM_8d0dfc0&#45;&gt;COMMENT_8d0bf40+1 -->
<g id="edge1" class="edge">
<title>start_SUBPROGRAM_8d0dfc0&#45;&gt;COMMENT_8d0bf40+1</title>
<path fill="none" stroke="black" d="M385,-554.88C385,-549.22 385,-540.06 385,-529.33"/>
<polygon fill="black" stroke="black" points="388.5,-529.09 385,-519.09 381.5,-529.09 388.5,-529.09"/>
</g>
<!-- COMMENT_8d14e60+1 -->
<g id="node3" class="node">
<title>COMMENT_8d14e60+1</title>
<polygon fill="none" stroke="black" points="668,-325 96,-325 96,-289 674,-289 674,-319 668,-325"/>
<polyline fill="none" stroke="black" points="668,-325 668,-319 "/>
<polyline fill="none" stroke="black" points="674,-319 668,-319 "/>
<text text-anchor="middle" x="385" y="-303.3" font-family="Times,serif" font-size="14.00">Ensure that there is an open slot in M%WALL and its associated derived types</text>
</g>
<!-- COMMENT_8d0bf40+1&#45;&gt;COMMENT_8d14e60+1 -->
<g id="edge2" class="edge">
<title>COMMENT_8d0bf40+1&#45;&gt;COMMENT_8d14e60+1</title>
<path fill="none" stroke="black" d="M385,-360.91C385,-351.82 385,-343.07 385,-335.39"/>
<polygon fill="black" stroke="black" points="388.5,-335.32 385,-325.32 381.5,-335.32 388.5,-335.32"/>
</g>
<!-- CALL_8d14e60 -->
<g id="node4" class="node">
<title>CALL_8d14e60</title>
<g id="a_node4"><a xlink:href="ALLOCATE_STORAGE.svg" xlink:title="ALLOCATE_STORAGE">
<polygon fill="lightgray" stroke="black" points="471.5,-253 298.5,-253 298.5,-249 294.5,-249 294.5,-245 298.5,-245 298.5,-225 294.5,-225 294.5,-221 298.5,-221 298.5,-217 471.5,-217 471.5,-253"/>
<polyline fill="none" stroke="black" points="298.5,-249 302.5,-249 302.5,-245 298.5,-245 "/>
<polyline fill="none" stroke="black" points="298.5,-225 302.5,-225 302.5,-221 298.5,-221 "/>
<text text-anchor="middle" x="385" y="-231.3" font-family="Times,serif" font-size="14.00">ALLOCATE_STORAGE</text>
</a>
</g>
</g>
<!-- COMMENT_8d14e60+1&#45;&gt;CALL_8d14e60 -->
<g id="edge3" class="edge">
<title>COMMENT_8d14e60+1&#45;&gt;CALL_8d14e60</title>
<path fill="none" stroke="black" d="M385,-288.7C385,-280.98 385,-271.71 385,-263.11"/>
<polygon fill="black" stroke="black" points="388.5,-263.1 385,-253.1 381.5,-263.1 388.5,-263.1"/>
</g>
<!-- COMMENT_8d14de0+1 -->
<g id="node5" class="node">
<title>COMMENT_8d14de0+1</title>
<polygon fill="none" stroke="black" points="520.5,-181 243.5,-181 243.5,-145 526.5,-145 526.5,-175 520.5,-181"/>
<polyline fill="none" stroke="black" points="520.5,-181 520.5,-175 "/>
<polyline fill="none" stroke="black" points="526.5,-175 520.5,-175 "/>
<text text-anchor="middle" x="385" y="-159.3" font-family="Times,serif" font-size="14.00">Initialize thin wall cell (TW) variables</text>
</g>
<!-- CALL_8d14e60&#45;&gt;COMMENT_8d14de0+1 -->
<g id="edge4" class="edge">
<title>CALL_8d14e60&#45;&gt;COMMENT_8d14de0+1</title>
<path fill="none" stroke="black" d="M385,-216.7C385,-208.98 385,-199.71 385,-191.11"/>
<polygon fill="black" stroke="black" points="388.5,-191.1 385,-181.1 381.5,-191.1 388.5,-191.1"/>
</g>
<!-- COMMENT_8d4c440+1 -->
<g id="node6" class="node">
<title>COMMENT_8d4c440+1</title>
<polygon fill="none" stroke="black" points="603.5,-109 160.5,-109 160.5,-73 609.5,-73 609.5,-103 603.5,-109"/>
<polyline fill="none" stroke="black" points="603.5,-109 603.5,-103 "/>
<polyline fill="none" stroke="black" points="609.5,-103 603.5,-103 "/>
<text text-anchor="middle" x="385" y="-87.3" font-family="Times,serif" font-size="14.00">Reinitialize wall cell outgoing radiation for change in TMP_F</text>
</g>
<!-- COMMENT_8d14de0+1&#45;&gt;COMMENT_8d4c440+1 -->
<g id="edge5" class="edge">
<title>COMMENT_8d14de0+1&#45;&gt;COMMENT_8d4c440+1</title>
<path fill="none" stroke="black" d="M385,-144.7C385,-136.98 385,-127.71 385,-119.11"/>
<polygon fill="black" stroke="black" points="388.5,-119.1 385,-109.1 381.5,-119.1 388.5,-119.1"/>
</g>
<!-- end_SUBPROGRAM_8d0dfc0 -->
<g id="node7" class="node">
<title>end_SUBPROGRAM_8d0dfc0</title>
<ellipse fill="black" stroke="black" cx="385" cy="-30" rx="7" ry="7"/>
</g>
<!-- COMMENT_8d4c440+1&#45;&gt;end_SUBPROGRAM_8d0dfc0 -->
<g id="edge6" class="edge">
<title>COMMENT_8d4c440+1&#45;&gt;end_SUBPROGRAM_8d0dfc0</title>
<path fill="none" stroke="black" d="M385,-72.93C385,-64.89 385,-55.33 385,-47.37"/>
<polygon fill="black" stroke="black" points="388.5,-47.22 385,-37.22 381.5,-47.22 388.5,-47.22"/>
</g>
</g>
</svg>
