<?xml version="1.0" encoding="UTF-8" standalone="no"?>
<!DOCTYPE svg PUBLIC "-//W3C//DTD SVG 1.1//EN"
 "http://www.w3.org/Graphics/SVG/1.1/DTD/svg11.dtd">
<!-- Generated by graphviz version 2.43.0 (0)
 -->
<!-- Title: INITIALIZE_PRESSURE_ZONES Pages: 1 -->
<svg width="2326pt" height="1554pt"
 viewBox="0.00 0.00 2325.50 1554.44" xmlns="http://www.w3.org/2000/svg" xmlns:xlink="http://www.w3.org/1999/xlink">
<g id="graph0" class="graph" transform="scale(1 1) rotate(0) translate(4 1550.44)">
<title>INITIALIZE_PRESSURE_ZONES</title>
<polygon fill="white" stroke="transparent" points="-4,4 -4,-1550.44 2321.5,-1550.44 2321.5,4 -4,4"/>
<text text-anchor="middle" x="1158.75" y="-7.8" font-family="Times,serif" font-size="14.00">INITIALIZE_PRESSURE_ZONES</text>
<g id="clust1" class="cluster">
<title>cluster_MESH_LOOP_1</title>
<polygon fill="none" stroke="orange" points="1023,-1290.44 1023,-1476.44 1267,-1476.44 1267,-1290.44 1023,-1290.44"/>
<text text-anchor="middle" x="1086.5" y="-1461.24" font-family="Times,serif" font-size="14.00">MESH_LOOP_1</text>
</g>
<g id="clust2" class="cluster">
<title>cluster_ZONE_LOOP</title>
<polygon fill="none" stroke="orange" points="1031,-1298.44 1031,-1445.44 1259,-1445.44 1259,-1298.44 1031,-1298.44"/>
<text text-anchor="middle" x="1085" y="-1430.24" font-family="Times,serif" font-size="14.00">ZONE_LOOP</text>
</g>
<g id="clust3" class="cluster">
<title>cluster_MESH_LOOP_2</title>
<polygon fill="none" stroke="orange" points="1768,-1074.44 1768,-1538.44 2046,-1538.44 2046,-1074.44 1768,-1074.44"/>
<text text-anchor="middle" x="1831.5" y="-1523.24" font-family="Times,serif" font-size="14.00">MESH_LOOP_2</text>
</g>
<g id="clust4" class="cluster">
<title>cluster_SEARCH_LOOP</title>
<polygon fill="none" stroke="orange" points="1776,-1082.44 1776,-1507.44 2038,-1507.44 2038,-1082.44 1776,-1082.44"/>
<text text-anchor="middle" x="1840" y="-1492.24" font-family="Times,serif" font-size="14.00">SEARCH_LOOP</text>
</g>
<g id="clust5" class="cluster">
<title>cluster_K_LOOP</title>
<polygon fill="none" stroke="orange" points="1856,-1362.44 1856,-1476.44 1958,-1476.44 1958,-1362.44 1856,-1362.44"/>
<text text-anchor="middle" x="1893.5" y="-1461.24" font-family="Times,serif" font-size="14.00">K_LOOP</text>
</g>
<g id="clust6" class="cluster">
<title>cluster_J_LOOP</title>
<polygon fill="none" stroke="orange" points="1864,-1370.44 1864,-1445.44 1950,-1445.44 1950,-1370.44 1864,-1370.44"/>
<text text-anchor="middle" x="1899" y="-1430.24" font-family="Times,serif" font-size="14.00">J_LOOP</text>
</g>
<g id="clust7" class="cluster">
<title>cluster_FILL_ZONES</title>
<polygon fill="none" stroke="blue" points="1632,-65 1632,-432.44 2182,-432.44 2182,-65 1632,-65"/>
<text text-anchor="middle" x="1687" y="-417.24" font-family="Times,serif" font-size="14.00">FILL_ZONES</text>
</g>
<g id="clust8" class="cluster">
<title>cluster_cond8f4cf80</title>
<polygon fill="none" stroke="black" points="1640,-101.72 1640,-392.72 2174,-392.72 2174,-101.72 1640,-101.72"/>
<text text-anchor="middle" x="1692" y="-377.52" font-family="Times,serif" font-size="14.00">cond8f4cf80</text>
</g>
<!-- start_SUBPROGRAM_8f4dd00 -->
<g id="node1" class="node">
<title>start_SUBPROGRAM_8f4dd00</title>
<ellipse fill="none" stroke="black" cx="379" cy="-1396.44" rx="7" ry="7"/>
</g>
<!-- COMMENT_8d5f940+1 -->
<g id="node2" class="node">
<title>COMMENT_8d5f940+1</title>
<polygon fill="none" stroke="black" points="619,-1342.44 133,-1342.44 133,-1306.44 625,-1306.44 625,-1336.44 619,-1342.44"/>
<polyline fill="none" stroke="black" points="619,-1342.44 619,-1336.44 "/>
<polyline fill="none" stroke="black" points="625,-1336.44 619,-1336.44 "/>
<text text-anchor="middle" x="379" y="-1320.74" font-family="Times,serif" font-size="14.00">!&gt; brief Initialize the array PRESSURE_ZONE(I,J,K) for all meshes</text>
</g>
<!-- start_SUBPROGRAM_8f4dd00&#45;&gt;COMMENT_8d5f940+1 -->
<g id="edge1" class="edge">
<title>start_SUBPROGRAM_8f4dd00&#45;&gt;COMMENT_8d5f940+1</title>
<path fill="none" stroke="black" d="M379,-1388.98C379,-1380.75 379,-1366.02 379,-1352.81"/>
<polygon fill="black" stroke="black" points="382.5,-1352.7 379,-1342.7 375.5,-1352.7 382.5,-1352.7"/>
</g>
<!-- COMMENT_8d615e0+1 -->
<g id="node3" class="node">
<title>COMMENT_8d615e0+1</title>
<polygon fill="none" stroke="black" points="653,-1270.44 99,-1270.44 99,-1234.44 659,-1234.44 659,-1264.44 653,-1270.44"/>
<polyline fill="none" stroke="black" points="653,-1270.44 653,-1264.44 "/>
<polyline fill="none" stroke="black" points="659,-1264.44 653,-1264.44 "/>
<text text-anchor="middle" x="379" y="-1248.74" font-family="Times,serif" font-size="14.00">Ensure that all cells have been assigned a pressure zone, even within solids</text>
</g>
<!-- COMMENT_8d5f940+1&#45;&gt;COMMENT_8d615e0+1 -->
<g id="edge2" class="edge">
<title>COMMENT_8d5f940+1&#45;&gt;COMMENT_8d615e0+1</title>
<path fill="none" stroke="black" d="M379,-1306.14C379,-1298.42 379,-1289.15 379,-1280.55"/>
<polygon fill="black" stroke="black" points="382.5,-1280.54 379,-1270.54 375.5,-1280.54 382.5,-1280.54"/>
</g>
<!-- COMMENT_8d63140+1 -->
<g id="node4" class="node">
<title>COMMENT_8d63140+1</title>
<polygon fill="none" stroke="black" points="752,-1198.44 0,-1198.44 0,-1162.44 758,-1162.44 758,-1192.44 752,-1198.44"/>
<polyline fill="none" stroke="black" points="752,-1198.44 752,-1192.44 "/>
<polyline fill="none" stroke="black" points="758,-1192.44 752,-1192.44 "/>
<text text-anchor="middle" x="379" y="-1176.74" font-family="Times,serif" font-size="14.00">For each explicitly specified ZONE, populate the array PRESSURE_ZONE(I,J,K) with the ZONE index, N</text>
</g>
<!-- COMMENT_8d615e0+1&#45;&gt;COMMENT_8d63140+1 -->
<g id="edge3" class="edge">
<title>COMMENT_8d615e0+1&#45;&gt;COMMENT_8d63140+1</title>
<path fill="none" stroke="black" d="M379,-1234.14C379,-1226.42 379,-1217.15 379,-1208.55"/>
<polygon fill="black" stroke="black" points="382.5,-1208.54 379,-1198.54 375.5,-1208.54 382.5,-1208.54"/>
</g>
<!-- DO_8d6fa20 -->
<g id="node7" class="node">
<title>DO_8d6fa20</title>
<ellipse fill="none" stroke="black" cx="379" cy="-1108.44" rx="67.69" ry="18"/>
<text text-anchor="middle" x="379" y="-1104.74" font-family="Times,serif" font-size="14.00">DO_8d6fa20</text>
</g>
<!-- COMMENT_8d63140+1&#45;&gt;DO_8d6fa20 -->
<g id="edge5" class="edge">
<title>COMMENT_8d63140+1&#45;&gt;DO_8d6fa20</title>
<path fill="none" stroke="black" d="M379,-1162.14C379,-1154.42 379,-1145.15 379,-1136.55"/>
<polygon fill="black" stroke="black" points="382.5,-1136.54 379,-1126.54 375.5,-1136.54 382.5,-1136.54"/>
</g>
<!-- CALL_8d68f60 -->
<g id="node5" class="node">
<title>CALL_8d68f60</title>
<g id="a_node5"><a xlink:href="SEARCH_OTHER_MESHES.svg" xlink:title="SEARCH_OTHER_MESHES">
<polygon fill="lightgray" stroke="black" points="1251.5,-1414.44 1038.5,-1414.44 1038.5,-1410.44 1034.5,-1410.44 1034.5,-1406.44 1038.5,-1406.44 1038.5,-1386.44 1034.5,-1386.44 1034.5,-1382.44 1038.5,-1382.44 1038.5,-1378.44 1251.5,-1378.44 1251.5,-1414.44"/>
<polyline fill="none" stroke="black" points="1038.5,-1410.44 1042.5,-1410.44 1042.5,-1406.44 1038.5,-1406.44 "/>
<polyline fill="none" stroke="black" points="1038.5,-1386.44 1042.5,-1386.44 1042.5,-1382.44 1038.5,-1382.44 "/>
<text text-anchor="middle" x="1145" y="-1392.74" font-family="Times,serif" font-size="14.00">SEARCH_OTHER_MESHES</text>
</a>
</g>
</g>
<!-- CALL_8d6ad00 -->
<g id="node6" class="node">
<title>CALL_8d6ad00</title>
<g id="a_node6"><a xlink:href="ASSIGN_PRESSURE_ZONE.svg" xlink:title="ASSIGN_PRESSURE_ZONE">
<polygon fill="lightgray" stroke="black" points="1251.5,-1342.44 1038.5,-1342.44 1038.5,-1338.44 1034.5,-1338.44 1034.5,-1334.44 1038.5,-1334.44 1038.5,-1314.44 1034.5,-1314.44 1034.5,-1310.44 1038.5,-1310.44 1038.5,-1306.44 1251.5,-1306.44 1251.5,-1342.44"/>
<polyline fill="none" stroke="black" points="1038.5,-1338.44 1042.5,-1338.44 1042.5,-1334.44 1038.5,-1334.44 "/>
<polyline fill="none" stroke="black" points="1038.5,-1314.44 1042.5,-1314.44 1042.5,-1310.44 1038.5,-1310.44 "/>
<text text-anchor="middle" x="1145" y="-1320.74" font-family="Times,serif" font-size="14.00">ASSIGN_PRESSURE_ZONE</text>
</a>
</g>
</g>
<!-- CALL_8d68f60&#45;&gt;CALL_8d6ad00 -->
<g id="edge4" class="edge">
<title>CALL_8d68f60&#45;&gt;CALL_8d6ad00</title>
<path fill="none" stroke="black" d="M1145,-1378.14C1145,-1370.42 1145,-1361.15 1145,-1352.55"/>
<polygon fill="black" stroke="black" points="1148.5,-1352.54 1145,-1342.54 1141.5,-1352.54 1148.5,-1352.54"/>
</g>
<!-- CALL_8d71b80 -->
<g id="node8" class="node">
<title>CALL_8d71b80</title>
<g id="a_node8"><a xlink:href="MPI_ALLREDUCE.svg" xlink:title="MPI_ALLREDUCE">
<polygon fill="#ffe800" stroke="black" points="1218,-1270.44 1072,-1270.44 1072,-1266.44 1068,-1266.44 1068,-1262.44 1072,-1262.44 1072,-1242.44 1068,-1242.44 1068,-1238.44 1072,-1238.44 1072,-1234.44 1218,-1234.44 1218,-1270.44"/>
<polyline fill="none" stroke="black" points="1072,-1266.44 1076,-1266.44 1076,-1262.44 1072,-1262.44 "/>
<polyline fill="none" stroke="black" points="1072,-1242.44 1076,-1242.44 1076,-1238.44 1072,-1238.44 "/>
<text text-anchor="middle" x="1145" y="-1248.74" font-family="Times,serif" font-size="14.00">MPI_ALLREDUCE</text>
</a>
</g>
</g>
<!-- CALL_8d6ad00&#45;&gt;CALL_8d71b80 -->
<g id="edge6" class="edge">
<title>CALL_8d6ad00&#45;&gt;CALL_8d71b80</title>
<path fill="none" stroke="black" d="M1145,-1306.14C1145,-1298.42 1145,-1289.15 1145,-1280.55"/>
<polygon fill="black" stroke="black" points="1148.5,-1280.54 1145,-1270.54 1141.5,-1280.54 1148.5,-1280.54"/>
</g>
<!-- COMMENT_8d698a0+1 -->
<g id="node9" class="node">
<title>COMMENT_8d698a0+1</title>
<polygon fill="none" stroke="black" points="1507.5,-1198.44 776.5,-1198.44 776.5,-1162.44 1513.5,-1162.44 1513.5,-1192.44 1507.5,-1198.44"/>
<polyline fill="none" stroke="black" points="1507.5,-1198.44 1507.5,-1192.44 "/>
<polyline fill="none" stroke="black" points="1513.5,-1192.44 1507.5,-1192.44 "/>
<text text-anchor="middle" x="1145" y="-1176.74" font-family="Times,serif" font-size="14.00">Propagate PRESSURE_ZONE values that exist at OPEN boundaries and INTERPOLATED boundaries</text>
</g>
<!-- CALL_8d71b80&#45;&gt;COMMENT_8d698a0+1 -->
<g id="edge7" class="edge">
<title>CALL_8d71b80&#45;&gt;COMMENT_8d698a0+1</title>
<path fill="none" stroke="black" d="M1145,-1234.14C1145,-1226.42 1145,-1217.15 1145,-1208.55"/>
<polygon fill="black" stroke="black" points="1148.5,-1208.54 1145,-1198.54 1141.5,-1208.54 1148.5,-1208.54"/>
</g>
<!-- CALL_8d698a0 -->
<g id="node10" class="node">
<title>CALL_8d698a0</title>
<g id="a_node10"><a xlink:href="ZONE_BOUNDARY_EXCHANGE.svg" xlink:title="ZONE_BOUNDARY_EXCHANGE">
<polygon fill="lightgray" stroke="black" points="1267.5,-1126.44 1022.5,-1126.44 1022.5,-1122.44 1018.5,-1122.44 1018.5,-1118.44 1022.5,-1118.44 1022.5,-1098.44 1018.5,-1098.44 1018.5,-1094.44 1022.5,-1094.44 1022.5,-1090.44 1267.5,-1090.44 1267.5,-1126.44"/>
<polyline fill="none" stroke="black" points="1022.5,-1122.44 1026.5,-1122.44 1026.5,-1118.44 1022.5,-1118.44 "/>
<polyline fill="none" stroke="black" points="1022.5,-1098.44 1026.5,-1098.44 1026.5,-1094.44 1022.5,-1094.44 "/>
<text text-anchor="middle" x="1145" y="-1104.74" font-family="Times,serif" font-size="14.00">ZONE_BOUNDARY_EXCHANGE</text>
</a>
</g>
</g>
<!-- COMMENT_8d698a0+1&#45;&gt;CALL_8d698a0 -->
<g id="edge8" class="edge">
<title>COMMENT_8d698a0+1&#45;&gt;CALL_8d698a0</title>
<path fill="none" stroke="black" d="M1145,-1162.14C1145,-1154.42 1145,-1145.15 1145,-1136.55"/>
<polygon fill="black" stroke="black" points="1148.5,-1136.54 1145,-1126.54 1141.5,-1136.54 1148.5,-1136.54"/>
</g>
<!-- COMMENT_8d61c60+1 -->
<g id="node11" class="node">
<title>COMMENT_8d61c60+1</title>
<polygon fill="none" stroke="black" points="1581,-1054.44 703,-1054.44 703,-1016.44 1587,-1016.44 1587,-1048.44 1581,-1054.44"/>
<polyline fill="none" stroke="black" points="1581,-1054.44 1581,-1048.44 "/>
<polyline fill="none" stroke="black" points="1587,-1048.44 1581,-1048.44 "/>
<text text-anchor="middle" x="1145" y="-1039.24" font-family="Times,serif" font-size="14.00">Starting with the first mesh, look for grid cells that have not yet been assigned a PRESSURE_ZONE value.</text>
<text text-anchor="middle" x="1145" y="-1024.24" font-family="Times,serif" font-size="14.00">If found (FOUND_UNASSIGNED_CELL=T), exit the mesh loop, tell all processes that a new P_ZONE needs to be created.</text>
</g>
<!-- CALL_8d698a0&#45;&gt;COMMENT_8d61c60+1 -->
<g id="edge9" class="edge">
<title>CALL_8d698a0&#45;&gt;COMMENT_8d61c60+1</title>
<path fill="none" stroke="black" d="M1145,-1090.25C1145,-1082.55 1145,-1073.26 1145,-1064.59"/>
<polygon fill="black" stroke="black" points="1148.5,-1064.46 1145,-1054.46 1141.5,-1064.46 1148.5,-1064.46"/>
</g>
<!-- DO_8f02a80 -->
<g id="node17" class="node">
<title>DO_8f02a80</title>
<ellipse fill="none" stroke="black" cx="1145" cy="-962.44" rx="67.69" ry="18"/>
<text text-anchor="middle" x="1145" y="-958.74" font-family="Times,serif" font-size="14.00">DO_8f02a80</text>
</g>
<!-- COMMENT_8d61c60+1&#45;&gt;DO_8f02a80 -->
<g id="edge14" class="edge">
<title>COMMENT_8d61c60+1&#45;&gt;DO_8f02a80</title>
<path fill="none" stroke="black" d="M1145,-1016.16C1145,-1008.41 1145,-999.23 1145,-990.71"/>
<polygon fill="black" stroke="black" points="1148.5,-990.44 1145,-980.44 1141.5,-990.44 1148.5,-990.44"/>
</g>
<!-- DO_8d7a500 -->
<g id="node12" class="node">
<title>DO_8d7a500</title>
<polygon fill="none" stroke="orange" points="1942,-1414.44 1872,-1414.44 1872,-1378.44 1942,-1378.44 1942,-1414.44"/>
<text text-anchor="middle" x="1907" y="-1392.74" font-family="Times,serif" font-size="14.00">I_LOOP</text>
</g>
<!-- CALL_8d7e460 -->
<g id="node13" class="node">
<title>CALL_8d7e460</title>
<g id="a_node13"><a xlink:href="MPI_ALLREDUCE.svg" xlink:title="MPI_ALLREDUCE">
<polygon fill="#ffe800" stroke="black" points="1980,-1342.44 1834,-1342.44 1834,-1338.44 1830,-1338.44 1830,-1334.44 1834,-1334.44 1834,-1314.44 1830,-1314.44 1830,-1310.44 1834,-1310.44 1834,-1306.44 1980,-1306.44 1980,-1342.44"/>
<polyline fill="none" stroke="black" points="1834,-1338.44 1838,-1338.44 1838,-1334.44 1834,-1334.44 "/>
<polyline fill="none" stroke="black" points="1834,-1314.44 1838,-1314.44 1838,-1310.44 1834,-1310.44 "/>
<text text-anchor="middle" x="1907" y="-1320.74" font-family="Times,serif" font-size="14.00">MPI_ALLREDUCE</text>
</a>
</g>
</g>
<!-- DO_8d7a500&#45;&gt;CALL_8d7e460 -->
<g id="edge10" class="edge">
<title>DO_8d7a500&#45;&gt;CALL_8d7e460</title>
<path fill="none" stroke="black" d="M1907,-1378.14C1907,-1370.42 1907,-1361.15 1907,-1352.55"/>
<polygon fill="black" stroke="black" points="1910.5,-1352.54 1907,-1342.54 1903.5,-1352.54 1910.5,-1352.54"/>
</g>
<!-- CALL_8d7e7a0 -->
<g id="node14" class="node">
<title>CALL_8d7e7a0</title>
<g id="a_node14"><a xlink:href="REALLOCATE_P_ZONE.svg" xlink:title="REALLOCATE_P_ZONE">
<polygon fill="lightgray" stroke="black" points="1998,-1270.44 1816,-1270.44 1816,-1266.44 1812,-1266.44 1812,-1262.44 1816,-1262.44 1816,-1242.44 1812,-1242.44 1812,-1238.44 1816,-1238.44 1816,-1234.44 1998,-1234.44 1998,-1270.44"/>
<polyline fill="none" stroke="black" points="1816,-1266.44 1820,-1266.44 1820,-1262.44 1816,-1262.44 "/>
<polyline fill="none" stroke="black" points="1816,-1242.44 1820,-1242.44 1820,-1238.44 1816,-1238.44 "/>
<text text-anchor="middle" x="1907" y="-1248.74" font-family="Times,serif" font-size="14.00">REALLOCATE_P_ZONE</text>
</a>
</g>
</g>
<!-- CALL_8d7e460&#45;&gt;CALL_8d7e7a0 -->
<g id="edge11" class="edge">
<title>CALL_8d7e460&#45;&gt;CALL_8d7e7a0</title>
<path fill="none" stroke="black" d="M1907,-1306.14C1907,-1298.42 1907,-1289.15 1907,-1280.55"/>
<polygon fill="black" stroke="black" points="1910.5,-1280.54 1907,-1270.54 1903.5,-1280.54 1910.5,-1280.54"/>
</g>
<!-- CALL_8f02640 -->
<g id="node15" class="node">
<title>CALL_8f02640</title>
<g id="a_node15"><a xlink:href="ASSIGN_PRESSURE_ZONE.svg" xlink:title="ASSIGN_PRESSURE_ZONE">
<polygon fill="lightgray" stroke="black" points="2013.5,-1198.44 1800.5,-1198.44 1800.5,-1194.44 1796.5,-1194.44 1796.5,-1190.44 1800.5,-1190.44 1800.5,-1170.44 1796.5,-1170.44 1796.5,-1166.44 1800.5,-1166.44 1800.5,-1162.44 2013.5,-1162.44 2013.5,-1198.44"/>
<polyline fill="none" stroke="black" points="1800.5,-1194.44 1804.5,-1194.44 1804.5,-1190.44 1800.5,-1190.44 "/>
<polyline fill="none" stroke="black" points="1800.5,-1170.44 1804.5,-1170.44 1804.5,-1166.44 1800.5,-1166.44 "/>
<text text-anchor="middle" x="1907" y="-1176.74" font-family="Times,serif" font-size="14.00">ASSIGN_PRESSURE_ZONE</text>
</a>
</g>
</g>
<!-- CALL_8d7e7a0&#45;&gt;CALL_8f02640 -->
<g id="edge12" class="edge">
<title>CALL_8d7e7a0&#45;&gt;CALL_8f02640</title>
<path fill="none" stroke="black" d="M1907,-1234.14C1907,-1226.42 1907,-1217.15 1907,-1208.55"/>
<polygon fill="black" stroke="black" points="1910.5,-1208.54 1907,-1198.54 1903.5,-1208.54 1910.5,-1208.54"/>
</g>
<!-- CALL_8d07e00 -->
<g id="node16" class="node">
<title>CALL_8d07e00</title>
<g id="a_node16"><a xlink:href="ZONE_BOUNDARY_EXCHANGE.svg" xlink:title="ZONE_BOUNDARY_EXCHANGE">
<polygon fill="lightgray" stroke="black" points="2029.5,-1126.44 1784.5,-1126.44 1784.5,-1122.44 1780.5,-1122.44 1780.5,-1118.44 1784.5,-1118.44 1784.5,-1098.44 1780.5,-1098.44 1780.5,-1094.44 1784.5,-1094.44 1784.5,-1090.44 2029.5,-1090.44 2029.5,-1126.44"/>
<polyline fill="none" stroke="black" points="1784.5,-1122.44 1788.5,-1122.44 1788.5,-1118.44 1784.5,-1118.44 "/>
<polyline fill="none" stroke="black" points="1784.5,-1098.44 1788.5,-1098.44 1788.5,-1094.44 1784.5,-1094.44 "/>
<text text-anchor="middle" x="1907" y="-1104.74" font-family="Times,serif" font-size="14.00">ZONE_BOUNDARY_EXCHANGE</text>
</a>
</g>
</g>
<!-- CALL_8f02640&#45;&gt;CALL_8d07e00 -->
<g id="edge13" class="edge">
<title>CALL_8f02640&#45;&gt;CALL_8d07e00</title>
<path fill="none" stroke="black" d="M1907,-1162.14C1907,-1154.42 1907,-1145.15 1907,-1136.55"/>
<polygon fill="black" stroke="black" points="1910.5,-1136.54 1907,-1126.54 1903.5,-1136.54 1910.5,-1136.54"/>
</g>
<!-- COMMENT_8f03500+1 -->
<g id="node18" class="node">
<title>COMMENT_8f03500+1</title>
<polygon fill="none" stroke="black" points="2203.5,-1054.44 1604.5,-1054.44 1604.5,-1016.44 2209.5,-1016.44 2209.5,-1048.44 2203.5,-1054.44"/>
<polyline fill="none" stroke="black" points="2203.5,-1054.44 2203.5,-1048.44 "/>
<polyline fill="none" stroke="black" points="2209.5,-1048.44 2203.5,-1048.44 "/>
<text text-anchor="middle" x="1907" y="-1039.24" font-family="Times,serif" font-size="14.00">Ensure that all cells have been assigned a pressure zone, even within solids.</text>
<text text-anchor="middle" x="1907" y="-1024.24" font-family="Times,serif" font-size="14.00">Also, compute the volume, number of cells, and cell indices of each pressure zone.</text>
</g>
<!-- CALL_8d07e00&#45;&gt;COMMENT_8f03500+1 -->
<g id="edge15" class="edge">
<title>CALL_8d07e00&#45;&gt;COMMENT_8f03500+1</title>
<path fill="none" stroke="black" d="M1907,-1090.25C1907,-1082.55 1907,-1073.26 1907,-1064.59"/>
<polygon fill="black" stroke="black" points="1910.5,-1064.46 1907,-1054.46 1903.5,-1064.46 1910.5,-1064.46"/>
</g>
<!-- COMMENT_8f0e860+1 -->
<g id="node19" class="node">
<title>COMMENT_8f0e860+1</title>
<polygon fill="none" stroke="black" points="2311.5,-980.44 1496.5,-980.44 1496.5,-944.44 2317.5,-944.44 2317.5,-974.44 2311.5,-980.44"/>
<polyline fill="none" stroke="black" points="2311.5,-980.44 2311.5,-974.44 "/>
<polyline fill="none" stroke="black" points="2317.5,-974.44 2311.5,-974.44 "/>
<text text-anchor="middle" x="1907" y="-958.74" font-family="Times,serif" font-size="14.00">Compute the volume and number of cells of each pressure zone, as well as a single cell within the pressure zone</text>
</g>
<!-- COMMENT_8f03500+1&#45;&gt;COMMENT_8f0e860+1 -->
<g id="edge16" class="edge">
<title>COMMENT_8f03500+1&#45;&gt;COMMENT_8f0e860+1</title>
<path fill="none" stroke="black" d="M1907,-1016.16C1907,-1008.41 1907,-999.23 1907,-990.71"/>
<polygon fill="black" stroke="black" points="1910.5,-990.44 1907,-980.44 1903.5,-990.44 1910.5,-990.44"/>
</g>
<!-- COMMENT_8f11040+1 -->
<g id="node20" class="node">
<title>COMMENT_8f11040+1</title>
<polygon fill="none" stroke="black" points="2111.5,-908.44 1696.5,-908.44 1696.5,-872.44 2117.5,-872.44 2117.5,-902.44 2111.5,-908.44"/>
<polyline fill="none" stroke="black" points="2111.5,-908.44 2111.5,-902.44 "/>
<polyline fill="none" stroke="black" points="2117.5,-902.44 2111.5,-902.44 "/>
<text text-anchor="middle" x="1907" y="-886.74" font-family="Times,serif" font-size="14.00">Determine maximum mesh index for each pressure zone</text>
</g>
<!-- COMMENT_8f0e860+1&#45;&gt;COMMENT_8f11040+1 -->
<g id="edge17" class="edge">
<title>COMMENT_8f0e860+1&#45;&gt;COMMENT_8f11040+1</title>
<path fill="none" stroke="black" d="M1907,-944.14C1907,-936.42 1907,-927.15 1907,-918.55"/>
<polygon fill="black" stroke="black" points="1910.5,-918.54 1907,-908.54 1903.5,-918.54 1910.5,-918.54"/>
</g>
<!-- CALL_8f14ce0 -->
<g id="node21" class="node">
<title>CALL_8f14ce0</title>
<g id="a_node21"><a xlink:href="MPI_ALLREDUCE.svg" xlink:title="MPI_ALLREDUCE">
<polygon fill="#ffe800" stroke="black" points="1980,-836.44 1834,-836.44 1834,-832.44 1830,-832.44 1830,-828.44 1834,-828.44 1834,-808.44 1830,-808.44 1830,-804.44 1834,-804.44 1834,-800.44 1980,-800.44 1980,-836.44"/>
<polyline fill="none" stroke="black" points="1834,-832.44 1838,-832.44 1838,-828.44 1834,-828.44 "/>
<polyline fill="none" stroke="black" points="1834,-808.44 1838,-808.44 1838,-804.44 1834,-804.44 "/>
<text text-anchor="middle" x="1907" y="-814.74" font-family="Times,serif" font-size="14.00">MPI_ALLREDUCE</text>
</a>
</g>
</g>
<!-- COMMENT_8f11040+1&#45;&gt;CALL_8f14ce0 -->
<g id="edge18" class="edge">
<title>COMMENT_8f11040+1&#45;&gt;CALL_8f14ce0</title>
<path fill="none" stroke="black" d="M1907,-872.14C1907,-864.42 1907,-855.15 1907,-846.55"/>
<polygon fill="black" stroke="black" points="1910.5,-846.54 1907,-836.54 1903.5,-846.54 1910.5,-846.54"/>
</g>
<!-- COMMENT_8f155c0+1 -->
<g id="node22" class="node">
<title>COMMENT_8f155c0+1</title>
<polygon fill="none" stroke="black" points="1996.5,-764.44 1811.5,-764.44 1811.5,-728.44 2002.5,-728.44 2002.5,-758.44 1996.5,-764.44"/>
<polyline fill="none" stroke="black" points="1996.5,-764.44 1996.5,-758.44 "/>
<polyline fill="none" stroke="black" points="2002.5,-758.44 1996.5,-758.44 "/>
<text text-anchor="middle" x="1907" y="-742.74" font-family="Times,serif" font-size="14.00">Put data in linear arrays</text>
</g>
<!-- CALL_8f14ce0&#45;&gt;COMMENT_8f155c0+1 -->
<g id="edge19" class="edge">
<title>CALL_8f14ce0&#45;&gt;COMMENT_8f155c0+1</title>
<path fill="none" stroke="black" d="M1907,-800.14C1907,-792.42 1907,-783.15 1907,-774.55"/>
<polygon fill="black" stroke="black" points="1910.5,-774.54 1907,-764.54 1903.5,-774.54 1910.5,-774.54"/>
</g>
<!-- CALL_8f20140 -->
<g id="node23" class="node">
<title>CALL_8f20140</title>
<g id="a_node23"><a xlink:href="MPI_ALLREDUCE.svg" xlink:title="MPI_ALLREDUCE">
<polygon fill="#ffe800" stroke="black" points="1980,-692.44 1834,-692.44 1834,-688.44 1830,-688.44 1830,-684.44 1834,-684.44 1834,-664.44 1830,-664.44 1830,-660.44 1834,-660.44 1834,-656.44 1980,-656.44 1980,-692.44"/>
<polyline fill="none" stroke="black" points="1834,-688.44 1838,-688.44 1838,-684.44 1834,-684.44 "/>
<polyline fill="none" stroke="black" points="1834,-664.44 1838,-664.44 1838,-660.44 1834,-660.44 "/>
<text text-anchor="middle" x="1907" y="-670.74" font-family="Times,serif" font-size="14.00">MPI_ALLREDUCE</text>
</a>
</g>
</g>
<!-- COMMENT_8f155c0+1&#45;&gt;CALL_8f20140 -->
<g id="edge20" class="edge">
<title>COMMENT_8f155c0+1&#45;&gt;CALL_8f20140</title>
<path fill="none" stroke="black" d="M1907,-728.14C1907,-720.42 1907,-711.15 1907,-702.55"/>
<polygon fill="black" stroke="black" points="1910.5,-702.54 1907,-692.54 1903.5,-702.54 1910.5,-702.54"/>
</g>
<!-- CALL_8f22740 -->
<g id="node24" class="node">
<title>CALL_8f22740</title>
<g id="a_node24"><a xlink:href="MPI_ALLREDUCE.svg" xlink:title="MPI_ALLREDUCE">
<polygon fill="#ffe800" stroke="black" points="1980,-620.44 1834,-620.44 1834,-616.44 1830,-616.44 1830,-612.44 1834,-612.44 1834,-592.44 1830,-592.44 1830,-588.44 1834,-588.44 1834,-584.44 1980,-584.44 1980,-620.44"/>
<polyline fill="none" stroke="black" points="1834,-616.44 1838,-616.44 1838,-612.44 1834,-612.44 "/>
<polyline fill="none" stroke="black" points="1834,-592.44 1838,-592.44 1838,-588.44 1834,-588.44 "/>
<text text-anchor="middle" x="1907" y="-598.74" font-family="Times,serif" font-size="14.00">MPI_ALLREDUCE</text>
</a>
</g>
</g>
<!-- CALL_8f20140&#45;&gt;CALL_8f22740 -->
<g id="edge21" class="edge">
<title>CALL_8f20140&#45;&gt;CALL_8f22740</title>
<path fill="none" stroke="black" d="M1907,-656.14C1907,-648.42 1907,-639.15 1907,-630.55"/>
<polygon fill="black" stroke="black" points="1910.5,-630.54 1907,-620.54 1903.5,-630.54 1910.5,-630.54"/>
</g>
<!-- CALL_8f24fe0 -->
<g id="node25" class="node">
<title>CALL_8f24fe0</title>
<g id="a_node25"><a xlink:href="MPI_ALLREDUCE.svg" xlink:title="MPI_ALLREDUCE">
<polygon fill="#ffe800" stroke="black" points="1980,-548.44 1834,-548.44 1834,-544.44 1830,-544.44 1830,-540.44 1834,-540.44 1834,-520.44 1830,-520.44 1830,-516.44 1834,-516.44 1834,-512.44 1980,-512.44 1980,-548.44"/>
<polyline fill="none" stroke="black" points="1834,-544.44 1838,-544.44 1838,-540.44 1834,-540.44 "/>
<polyline fill="none" stroke="black" points="1834,-520.44 1838,-520.44 1838,-516.44 1834,-516.44 "/>
<text text-anchor="middle" x="1907" y="-526.74" font-family="Times,serif" font-size="14.00">MPI_ALLREDUCE</text>
</a>
</g>
</g>
<!-- CALL_8f22740&#45;&gt;CALL_8f24fe0 -->
<g id="edge22" class="edge">
<title>CALL_8f22740&#45;&gt;CALL_8f24fe0</title>
<path fill="none" stroke="black" d="M1907,-584.14C1907,-576.42 1907,-567.15 1907,-558.55"/>
<polygon fill="black" stroke="black" points="1910.5,-558.54 1907,-548.54 1903.5,-558.54 1910.5,-558.54"/>
</g>
<!-- COMMENT_8f10b60+1 -->
<g id="node26" class="node">
<title>COMMENT_8f10b60+1</title>
<polygon fill="none" stroke="black" points="2187,-476.44 1621,-476.44 1621,-440.44 2193,-440.44 2193,-470.44 2187,-476.44"/>
<polyline fill="none" stroke="black" points="2187,-476.44 2187,-470.44 "/>
<polyline fill="none" stroke="black" points="2193,-470.44 2187,-470.44 "/>
<text text-anchor="middle" x="1907" y="-454.74" font-family="Times,serif" font-size="14.00">Fill ZONEs that are smaller than a user&#45;specified MINIMUM_ZONE_VOLUME</text>
</g>
<!-- CALL_8f24fe0&#45;&gt;COMMENT_8f10b60+1 -->
<g id="edge23" class="edge">
<title>CALL_8f24fe0&#45;&gt;COMMENT_8f10b60+1</title>
<path fill="none" stroke="black" d="M1907,-512.14C1907,-504.42 1907,-495.15 1907,-486.55"/>
<polygon fill="black" stroke="black" points="1910.5,-486.54 1907,-476.54 1903.5,-486.54 1910.5,-486.54"/>
</g>
<!-- beginIf_IF_8f4f0c0 -->
<g id="node27" class="node">
<title>beginIf_IF_8f4f0c0</title>
<ellipse fill="black" stroke="black" cx="1907" cy="-401.08" rx="0.36" ry="0.36"/>
</g>
<!-- COMMENT_8f10b60+1&#45;&gt;beginIf_IF_8f4f0c0 -->
<g id="edge29" class="edge">
<title>COMMENT_8f10b60+1&#45;&gt;beginIf_IF_8f4f0c0</title>
<path fill="none" stroke="black" d="M1907,-440.23C1907,-424.48 1907,-403.44 1907,-402.14"/>
</g>
<!-- CALL_8f37b20 -->
<g id="node29" class="node">
<title>CALL_8f37b20</title>
<g id="a_node29"><a xlink:href="REALLOCATE_CELL.svg" xlink:title="REALLOCATE_CELL">
<polygon fill="lightgray" stroke="black" points="1987.5,-361.72 1826.5,-361.72 1826.5,-357.72 1822.5,-357.72 1822.5,-353.72 1826.5,-353.72 1826.5,-333.72 1822.5,-333.72 1822.5,-329.72 1826.5,-329.72 1826.5,-325.72 1987.5,-325.72 1987.5,-361.72"/>
<polyline fill="none" stroke="black" points="1826.5,-357.72 1830.5,-357.72 1830.5,-353.72 1826.5,-353.72 "/>
<polyline fill="none" stroke="black" points="1826.5,-333.72 1830.5,-333.72 1830.5,-329.72 1826.5,-329.72 "/>
<text text-anchor="middle" x="1907" y="-340.02" font-family="Times,serif" font-size="14.00">REALLOCATE_CELL</text>
</a>
</g>
</g>
<!-- beginIf_IF_8f4f0c0&#45;&gt;CALL_8f37b20 -->
<g id="edge27" class="edge">
<title>beginIf_IF_8f4f0c0&#45;&gt;CALL_8f37b20</title>
<path fill="none" stroke="black" d="M1907,-400.56C1907,-398.93 1907,-385.24 1907,-371.82"/>
<polygon fill="black" stroke="black" points="1910.5,-371.82 1907,-361.82 1903.5,-371.82 1910.5,-371.82"/>
</g>
<!-- endIf_IF_8f4f0c0 -->
<g id="node28" class="node">
<title>endIf_IF_8f4f0c0</title>
<ellipse fill="black" stroke="black" cx="1907" cy="-73.36" rx="0.36" ry="0.36"/>
</g>
<!-- end_SUBPROGRAM_8f4dd00 -->
<g id="node33" class="node">
<title>end_SUBPROGRAM_8f4dd00</title>
<ellipse fill="black" stroke="black" cx="1907" cy="-30" rx="7" ry="7"/>
</g>
<!-- endIf_IF_8f4f0c0&#45;&gt;end_SUBPROGRAM_8f4dd00 -->
<g id="edge30" class="edge">
<title>endIf_IF_8f4f0c0&#45;&gt;end_SUBPROGRAM_8f4dd00</title>
<path fill="none" stroke="black" d="M1907,-72.24C1907,-70.89 1907,-58.27 1907,-47.34"/>
<polygon fill="black" stroke="black" points="1910.5,-47.1 1907,-37.1 1903.5,-47.1 1910.5,-47.1"/>
</g>
<!-- CALL_8f41160 -->
<g id="node30" class="node">
<title>CALL_8f41160</title>
<g id="a_node30"><a xlink:href="EXCHANGE_GEOMETRY_INFO.svg" xlink:title="EXCHANGE_GEOMETRY_INFO">
<polygon fill="lightgray" stroke="black" points="2027,-289.72 1787,-289.72 1787,-285.72 1783,-285.72 1783,-281.72 1787,-281.72 1787,-261.72 1783,-261.72 1783,-257.72 1787,-257.72 1787,-253.72 2027,-253.72 2027,-289.72"/>
<polyline fill="none" stroke="black" points="1787,-285.72 1791,-285.72 1791,-281.72 1787,-281.72 "/>
<polyline fill="none" stroke="black" points="1787,-261.72 1791,-261.72 1791,-257.72 1787,-257.72 "/>
<text text-anchor="middle" x="1907" y="-268.02" font-family="Times,serif" font-size="14.00">EXCHANGE_GEOMETRY_INFO</text>
</a>
</g>
</g>
<!-- CALL_8f37b20&#45;&gt;CALL_8f41160 -->
<g id="edge24" class="edge">
<title>CALL_8f37b20&#45;&gt;CALL_8f41160</title>
<path fill="none" stroke="black" d="M1907,-325.42C1907,-317.7 1907,-308.43 1907,-299.83"/>
<polygon fill="black" stroke="black" points="1910.5,-299.82 1907,-289.82 1903.5,-299.82 1910.5,-299.82"/>
</g>
<!-- COMMENT_8f110a0+1 -->
<g id="node31" class="node">
<title>COMMENT_8f110a0+1</title>
<polygon fill="none" stroke="black" points="2030.5,-217.72 1777.5,-217.72 1777.5,-181.72 2036.5,-181.72 2036.5,-211.72 2030.5,-217.72"/>
<polyline fill="none" stroke="black" points="2030.5,-217.72 2030.5,-211.72 "/>
<polyline fill="none" stroke="black" points="2036.5,-211.72 2030.5,-211.72 "/>
<text text-anchor="middle" x="1907" y="-196.02" font-family="Times,serif" font-size="14.00">Shorten the list of pressure zones</text>
</g>
<!-- CALL_8f41160&#45;&gt;COMMENT_8f110a0+1 -->
<g id="edge25" class="edge">
<title>CALL_8f41160&#45;&gt;COMMENT_8f110a0+1</title>
<path fill="none" stroke="black" d="M1907,-253.42C1907,-245.7 1907,-236.43 1907,-227.83"/>
<polygon fill="black" stroke="black" points="1910.5,-227.82 1907,-217.82 1903.5,-227.82 1910.5,-227.82"/>
</g>
<!-- COMMENT_8f4b940+1 -->
<g id="node32" class="node">
<title>COMMENT_8f4b940+1</title>
<polygon fill="none" stroke="black" points="2159.5,-145.72 1648.5,-145.72 1648.5,-109.72 2165.5,-109.72 2165.5,-139.72 2159.5,-145.72"/>
<polyline fill="none" stroke="black" points="2159.5,-145.72 2159.5,-139.72 "/>
<polyline fill="none" stroke="black" points="2165.5,-139.72 2159.5,-139.72 "/>
<text text-anchor="middle" x="1907" y="-124.02" font-family="Times,serif" font-size="14.00">Renumber of the ZONEs to account for those that have been removed</text>
</g>
<!-- COMMENT_8f110a0+1&#45;&gt;COMMENT_8f4b940+1 -->
<g id="edge26" class="edge">
<title>COMMENT_8f110a0+1&#45;&gt;COMMENT_8f4b940+1</title>
<path fill="none" stroke="black" d="M1907,-181.42C1907,-173.7 1907,-164.43 1907,-155.83"/>
<polygon fill="black" stroke="black" points="1910.5,-155.82 1907,-145.82 1903.5,-155.82 1910.5,-155.82"/>
</g>
<!-- COMMENT_8f4b940+1&#45;&gt;endIf_IF_8f4f0c0 -->
<g id="edge28" class="edge">
<title>COMMENT_8f4b940+1&#45;&gt;endIf_IF_8f4f0c0</title>
<path fill="none" stroke="black" d="M1907,-109.66C1907,-94.65 1907,-74.99 1907,-73.78"/>
</g>
</g>
</svg>
