<?xml version="1.0" encoding="UTF-8" standalone="no"?>
<!DOCTYPE svg PUBLIC "-//W3C//DTD SVG 1.1//EN"
 "http://www.w3.org/Graphics/SVG/1.1/DTD/svg11.dtd">
<!-- Generated by graphviz version 2.43.0 (0)
 -->
<!-- Title: INITIALIZE_MESH_VARIABLES_2 Pages: 1 -->
<svg width="619pt" height="2120pt"
 viewBox="0.00 0.00 619.00 2120.00" xmlns="http://www.w3.org/2000/svg" xmlns:xlink="http://www.w3.org/1999/xlink">
<g id="graph0" class="graph" transform="scale(1 1) rotate(0) translate(4 2116)">
<title>INITIALIZE_MESH_VARIABLES_2</title>
<polygon fill="white" stroke="transparent" points="-4,4 -4,-2116 615,-2116 615,4 -4,4"/>
<text text-anchor="middle" x="305.5" y="-7.8" font-family="Times,serif" font-size="14.00">INITIALIZE_MESH_VARIABLES_2</text>
<g id="clust1" class="cluster">
<title>cluster_ZONE_LOOP</title>
<polygon fill="none" stroke="orange" points="210.5,-1149 210.5,-1224 400.5,-1224 400.5,-1149 210.5,-1149"/>
<text text-anchor="middle" x="264.5" y="-1208.8" font-family="Times,serif" font-size="14.00">ZONE_LOOP</text>
</g>
<!-- start_SUBPROGRAM_838d380 -->
<g id="node1" class="node">
<title>start_SUBPROGRAM_838d380</title>
<ellipse fill="none" stroke="black" cx="305.5" cy="-2105" rx="7" ry="7"/>
</g>
<!-- COMMENT_8123f00+1 -->
<g id="node2" class="node">
<title>COMMENT_8123f00+1</title>
<polygon fill="none" stroke="black" points="555.5,-2062 49.5,-2062 49.5,-2024 561.5,-2024 561.5,-2056 555.5,-2062"/>
<polyline fill="none" stroke="black" points="555.5,-2062 555.5,-2056 "/>
<polyline fill="none" stroke="black" points="561.5,-2056 555.5,-2056 "/>
<text text-anchor="middle" x="305.5" y="-2046.8" font-family="Times,serif" font-size="14.00">!&gt; brief Continuation of variable allocation and other setup functions</text>
<text text-anchor="middle" x="305.5" y="-2031.8" font-family="Times,serif" font-size="14.00">!&gt; param NM Mesh number</text>
</g>
<!-- start_SUBPROGRAM_838d380&#45;&gt;COMMENT_8123f00+1 -->
<g id="edge1" class="edge">
<title>start_SUBPROGRAM_838d380&#45;&gt;COMMENT_8123f00+1</title>
<path fill="none" stroke="black" d="M305.5,-2097.58C305.5,-2091.41 305.5,-2081.64 305.5,-2072.12"/>
<polygon fill="black" stroke="black" points="309,-2072.08 305.5,-2062.08 302,-2072.08 309,-2072.08"/>
</g>
<!-- COMMENT_812d420+1 -->
<g id="node3" class="node">
<title>COMMENT_812d420+1</title>
<polygon fill="none" stroke="black" points="380,-1988 225,-1988 225,-1952 386,-1952 386,-1982 380,-1988"/>
<polyline fill="none" stroke="black" points="380,-1988 380,-1982 "/>
<polyline fill="none" stroke="black" points="386,-1982 380,-1982 "/>
<text text-anchor="middle" x="305.5" y="-1966.3" font-family="Times,serif" font-size="14.00">Surface work arrays</text>
</g>
<!-- COMMENT_8123f00+1&#45;&gt;COMMENT_812d420+1 -->
<g id="edge2" class="edge">
<title>COMMENT_8123f00+1&#45;&gt;COMMENT_812d420+1</title>
<path fill="none" stroke="black" d="M305.5,-2023.72C305.5,-2015.97 305.5,-2006.79 305.5,-1998.27"/>
<polygon fill="black" stroke="black" points="309,-1998 305.5,-1988 302,-1998 309,-1998"/>
</g>
<!-- CALL_812d7e0 -->
<g id="node4" class="node">
<title>CALL_812d7e0</title>
<g id="a_node4"><a xlink:href="ChkMemErr.svg" xlink:title="ChkMemErr">
<polygon fill="lightgray" stroke="black" points="357.5,-1916 253.5,-1916 253.5,-1912 249.5,-1912 249.5,-1908 253.5,-1908 253.5,-1888 249.5,-1888 249.5,-1884 253.5,-1884 253.5,-1880 357.5,-1880 357.5,-1916"/>
<polyline fill="none" stroke="black" points="253.5,-1912 257.5,-1912 257.5,-1908 253.5,-1908 "/>
<polyline fill="none" stroke="black" points="253.5,-1888 257.5,-1888 257.5,-1884 253.5,-1884 "/>
<text text-anchor="middle" x="305.5" y="-1894.3" font-family="Times,serif" font-size="14.00">ChkMemErr</text>
</a>
</g>
</g>
<!-- COMMENT_812d420+1&#45;&gt;CALL_812d7e0 -->
<g id="edge3" class="edge">
<title>COMMENT_812d420+1&#45;&gt;CALL_812d7e0</title>
<path fill="none" stroke="black" d="M305.5,-1951.7C305.5,-1943.98 305.5,-1934.71 305.5,-1926.11"/>
<polygon fill="black" stroke="black" points="309,-1926.1 305.5,-1916.1 302,-1926.1 309,-1926.1"/>
</g>
<!-- CALL_8133360 -->
<g id="node5" class="node">
<title>CALL_8133360</title>
<g id="a_node5"><a xlink:href="ChkMemErr.svg" xlink:title="ChkMemErr">
<polygon fill="lightgray" stroke="black" points="357.5,-1844 253.5,-1844 253.5,-1840 249.5,-1840 249.5,-1836 253.5,-1836 253.5,-1816 249.5,-1816 249.5,-1812 253.5,-1812 253.5,-1808 357.5,-1808 357.5,-1844"/>
<polyline fill="none" stroke="black" points="253.5,-1840 257.5,-1840 257.5,-1836 253.5,-1836 "/>
<polyline fill="none" stroke="black" points="253.5,-1816 257.5,-1816 257.5,-1812 253.5,-1812 "/>
<text text-anchor="middle" x="305.5" y="-1822.3" font-family="Times,serif" font-size="14.00">ChkMemErr</text>
</a>
</g>
</g>
<!-- CALL_812d7e0&#45;&gt;CALL_8133360 -->
<g id="edge4" class="edge">
<title>CALL_812d7e0&#45;&gt;CALL_8133360</title>
<path fill="none" stroke="black" d="M305.5,-1879.7C305.5,-1871.98 305.5,-1862.71 305.5,-1854.11"/>
<polygon fill="black" stroke="black" points="309,-1854.1 305.5,-1844.1 302,-1854.1 309,-1854.1"/>
</g>
<!-- COMMENT_8128620+1 -->
<g id="node6" class="node">
<title>COMMENT_8128620+1</title>
<polygon fill="none" stroke="black" points="419,-1772 186,-1772 186,-1736 425,-1736 425,-1766 419,-1772"/>
<polyline fill="none" stroke="black" points="419,-1772 419,-1766 "/>
<polyline fill="none" stroke="black" points="425,-1766 419,-1766 "/>
<text text-anchor="middle" x="305.5" y="-1750.3" font-family="Times,serif" font-size="14.00">Background pressure variables</text>
</g>
<!-- CALL_8133360&#45;&gt;COMMENT_8128620+1 -->
<g id="edge5" class="edge">
<title>CALL_8133360&#45;&gt;COMMENT_8128620+1</title>
<path fill="none" stroke="black" d="M305.5,-1807.7C305.5,-1799.98 305.5,-1790.71 305.5,-1782.11"/>
<polygon fill="black" stroke="black" points="309,-1782.1 305.5,-1772.1 302,-1782.1 309,-1782.1"/>
</g>
<!-- CALL_8134360 -->
<g id="node7" class="node">
<title>CALL_8134360</title>
<g id="a_node7"><a xlink:href="ChkMemErr.svg" xlink:title="ChkMemErr">
<polygon fill="lightgray" stroke="black" points="357.5,-1700 253.5,-1700 253.5,-1696 249.5,-1696 249.5,-1692 253.5,-1692 253.5,-1672 249.5,-1672 249.5,-1668 253.5,-1668 253.5,-1664 357.5,-1664 357.5,-1700"/>
<polyline fill="none" stroke="black" points="253.5,-1696 257.5,-1696 257.5,-1692 253.5,-1692 "/>
<polyline fill="none" stroke="black" points="253.5,-1672 257.5,-1672 257.5,-1668 253.5,-1668 "/>
<text text-anchor="middle" x="305.5" y="-1678.3" font-family="Times,serif" font-size="14.00">ChkMemErr</text>
</a>
</g>
</g>
<!-- COMMENT_8128620+1&#45;&gt;CALL_8134360 -->
<g id="edge6" class="edge">
<title>COMMENT_8128620+1&#45;&gt;CALL_8134360</title>
<path fill="none" stroke="black" d="M305.5,-1735.7C305.5,-1727.98 305.5,-1718.71 305.5,-1710.11"/>
<polygon fill="black" stroke="black" points="309,-1710.1 305.5,-1700.1 302,-1710.1 309,-1710.1"/>
</g>
<!-- CALL_8139000 -->
<g id="node8" class="node">
<title>CALL_8139000</title>
<g id="a_node8"><a xlink:href="ChkMemErr.svg" xlink:title="ChkMemErr">
<polygon fill="lightgray" stroke="black" points="357.5,-1628 253.5,-1628 253.5,-1624 249.5,-1624 249.5,-1620 253.5,-1620 253.5,-1600 249.5,-1600 249.5,-1596 253.5,-1596 253.5,-1592 357.5,-1592 357.5,-1628"/>
<polyline fill="none" stroke="black" points="253.5,-1624 257.5,-1624 257.5,-1620 253.5,-1620 "/>
<polyline fill="none" stroke="black" points="253.5,-1600 257.5,-1600 257.5,-1596 253.5,-1596 "/>
<text text-anchor="middle" x="305.5" y="-1606.3" font-family="Times,serif" font-size="14.00">ChkMemErr</text>
</a>
</g>
</g>
<!-- CALL_8134360&#45;&gt;CALL_8139000 -->
<g id="edge7" class="edge">
<title>CALL_8134360&#45;&gt;CALL_8139000</title>
<path fill="none" stroke="black" d="M305.5,-1663.7C305.5,-1655.98 305.5,-1646.71 305.5,-1638.11"/>
<polygon fill="black" stroke="black" points="309,-1638.1 305.5,-1628.1 302,-1638.1 309,-1638.1"/>
</g>
<!-- CALL_813ac80 -->
<g id="node9" class="node">
<title>CALL_813ac80</title>
<g id="a_node9"><a xlink:href="ChkMemErr.svg" xlink:title="ChkMemErr">
<polygon fill="lightgray" stroke="black" points="357.5,-1556 253.5,-1556 253.5,-1552 249.5,-1552 249.5,-1548 253.5,-1548 253.5,-1528 249.5,-1528 249.5,-1524 253.5,-1524 253.5,-1520 357.5,-1520 357.5,-1556"/>
<polyline fill="none" stroke="black" points="253.5,-1552 257.5,-1552 257.5,-1548 253.5,-1548 "/>
<polyline fill="none" stroke="black" points="253.5,-1528 257.5,-1528 257.5,-1524 253.5,-1524 "/>
<text text-anchor="middle" x="305.5" y="-1534.3" font-family="Times,serif" font-size="14.00">ChkMemErr</text>
</a>
</g>
</g>
<!-- CALL_8139000&#45;&gt;CALL_813ac80 -->
<g id="edge8" class="edge">
<title>CALL_8139000&#45;&gt;CALL_813ac80</title>
<path fill="none" stroke="black" d="M305.5,-1591.7C305.5,-1583.98 305.5,-1574.71 305.5,-1566.11"/>
<polygon fill="black" stroke="black" points="309,-1566.1 305.5,-1556.1 302,-1566.1 309,-1566.1"/>
</g>
<!-- CALL_813af60 -->
<g id="node10" class="node">
<title>CALL_813af60</title>
<g id="a_node10"><a xlink:href="ChkMemErr.svg" xlink:title="ChkMemErr">
<polygon fill="lightgray" stroke="black" points="357.5,-1484 253.5,-1484 253.5,-1480 249.5,-1480 249.5,-1476 253.5,-1476 253.5,-1456 249.5,-1456 249.5,-1452 253.5,-1452 253.5,-1448 357.5,-1448 357.5,-1484"/>
<polyline fill="none" stroke="black" points="253.5,-1480 257.5,-1480 257.5,-1476 253.5,-1476 "/>
<polyline fill="none" stroke="black" points="253.5,-1456 257.5,-1456 257.5,-1452 253.5,-1452 "/>
<text text-anchor="middle" x="305.5" y="-1462.3" font-family="Times,serif" font-size="14.00">ChkMemErr</text>
</a>
</g>
</g>
<!-- CALL_813ac80&#45;&gt;CALL_813af60 -->
<g id="edge9" class="edge">
<title>CALL_813ac80&#45;&gt;CALL_813af60</title>
<path fill="none" stroke="black" d="M305.5,-1519.7C305.5,-1511.98 305.5,-1502.71 305.5,-1494.11"/>
<polygon fill="black" stroke="black" points="309,-1494.1 305.5,-1484.1 302,-1494.1 309,-1494.1"/>
</g>
<!-- CALL_813dee0 -->
<g id="node11" class="node">
<title>CALL_813dee0</title>
<g id="a_node11"><a xlink:href="ChkMemErr.svg" xlink:title="ChkMemErr">
<polygon fill="lightgray" stroke="black" points="357.5,-1412 253.5,-1412 253.5,-1408 249.5,-1408 249.5,-1404 253.5,-1404 253.5,-1384 249.5,-1384 249.5,-1380 253.5,-1380 253.5,-1376 357.5,-1376 357.5,-1412"/>
<polyline fill="none" stroke="black" points="253.5,-1408 257.5,-1408 257.5,-1404 253.5,-1404 "/>
<polyline fill="none" stroke="black" points="253.5,-1384 257.5,-1384 257.5,-1380 253.5,-1380 "/>
<text text-anchor="middle" x="305.5" y="-1390.3" font-family="Times,serif" font-size="14.00">ChkMemErr</text>
</a>
</g>
</g>
<!-- CALL_813af60&#45;&gt;CALL_813dee0 -->
<g id="edge10" class="edge">
<title>CALL_813af60&#45;&gt;CALL_813dee0</title>
<path fill="none" stroke="black" d="M305.5,-1447.7C305.5,-1439.98 305.5,-1430.71 305.5,-1422.11"/>
<polygon fill="black" stroke="black" points="309,-1422.1 305.5,-1412.1 302,-1422.1 309,-1422.1"/>
</g>
<!-- CALL_813f600 -->
<g id="node12" class="node">
<title>CALL_813f600</title>
<g id="a_node12"><a xlink:href="ChkMemErr.svg" xlink:title="ChkMemErr">
<polygon fill="lightgray" stroke="black" points="357.5,-1340 253.5,-1340 253.5,-1336 249.5,-1336 249.5,-1332 253.5,-1332 253.5,-1312 249.5,-1312 249.5,-1308 253.5,-1308 253.5,-1304 357.5,-1304 357.5,-1340"/>
<polyline fill="none" stroke="black" points="253.5,-1336 257.5,-1336 257.5,-1332 253.5,-1332 "/>
<polyline fill="none" stroke="black" points="253.5,-1312 257.5,-1312 257.5,-1308 253.5,-1308 "/>
<text text-anchor="middle" x="305.5" y="-1318.3" font-family="Times,serif" font-size="14.00">ChkMemErr</text>
</a>
</g>
</g>
<!-- CALL_813dee0&#45;&gt;CALL_813f600 -->
<g id="edge11" class="edge">
<title>CALL_813dee0&#45;&gt;CALL_813f600</title>
<path fill="none" stroke="black" d="M305.5,-1375.7C305.5,-1367.98 305.5,-1358.71 305.5,-1350.11"/>
<polygon fill="black" stroke="black" points="309,-1350.1 305.5,-1340.1 302,-1350.1 309,-1350.1"/>
</g>
<!-- COMMENT_8142f60+1 -->
<g id="node13" class="node">
<title>COMMENT_8142f60+1</title>
<polygon fill="none" stroke="black" points="417,-1268 188,-1268 188,-1232 423,-1232 423,-1262 417,-1268"/>
<polyline fill="none" stroke="black" points="417,-1268 417,-1262 "/>
<polyline fill="none" stroke="black" points="423,-1262 417,-1262 "/>
<text text-anchor="middle" x="305.5" y="-1246.3" font-family="Times,serif" font-size="14.00">Initialize PSUM for zone cases</text>
</g>
<!-- CALL_813f600&#45;&gt;COMMENT_8142f60+1 -->
<g id="edge12" class="edge">
<title>CALL_813f600&#45;&gt;COMMENT_8142f60+1</title>
<path fill="none" stroke="black" d="M305.5,-1303.7C305.5,-1295.98 305.5,-1286.71 305.5,-1278.11"/>
<polygon fill="black" stroke="black" points="309,-1278.1 305.5,-1268.1 302,-1278.1 309,-1278.1"/>
</g>
<!-- CALL_814ce00 -->
<g id="node14" class="node">
<title>CALL_814ce00</title>
<g id="a_node14"><a xlink:href="GET_SPECIFIC_HEAT.svg" xlink:title="GET_SPECIFIC_HEAT">
<polygon fill="lightgray" stroke="black" points="392,-1193 219,-1193 219,-1189 215,-1189 215,-1185 219,-1185 219,-1165 215,-1165 215,-1161 219,-1161 219,-1157 392,-1157 392,-1193"/>
<polyline fill="none" stroke="black" points="219,-1189 223,-1189 223,-1185 219,-1185 "/>
<polyline fill="none" stroke="black" points="219,-1165 223,-1165 223,-1161 219,-1161 "/>
<text text-anchor="middle" x="305.5" y="-1171.3" font-family="Times,serif" font-size="14.00">GET_SPECIFIC_HEAT</text>
</a>
</g>
</g>
<!-- COMMENT_8142f60+1&#45;&gt;CALL_814ce00 -->
<g id="edge13" class="edge">
<title>COMMENT_8142f60+1&#45;&gt;CALL_814ce00</title>
<path fill="none" stroke="black" d="M305.5,-1231.7C305.5,-1223.25 305.5,-1212.87 305.5,-1203.37"/>
<polygon fill="black" stroke="black" points="309,-1203.18 305.5,-1193.18 302,-1203.18 309,-1203.18"/>
</g>
<!-- COMMENT_8151d00+1 -->
<g id="node15" class="node">
<title>COMMENT_8151d00+1</title>
<polygon fill="none" stroke="black" points="605,-1121 0,-1121 0,-1083 611,-1083 611,-1115 605,-1121"/>
<polyline fill="none" stroke="black" points="605,-1121 605,-1115 "/>
<polyline fill="none" stroke="black" points="611,-1115 605,-1115 "/>
<text text-anchor="middle" x="305.5" y="-1105.8" font-family="Times,serif" font-size="14.00">Loop through WALL and CFACE cells and assign PRESSURE_ZONE. Also, check for</text>
<text text-anchor="middle" x="305.5" y="-1090.8" font-family="Times,serif" font-size="14.00">inappropriate boundaries, such as thin obstructions that burn or blow.</text>
</g>
<!-- CALL_814ce00&#45;&gt;COMMENT_8151d00+1 -->
<g id="edge14" class="edge">
<title>CALL_814ce00&#45;&gt;COMMENT_8151d00+1</title>
<path fill="none" stroke="black" d="M305.5,-1156.81C305.5,-1149.11 305.5,-1139.82 305.5,-1131.15"/>
<polygon fill="black" stroke="black" points="309,-1131.02 305.5,-1121.02 302,-1131.02 309,-1131.02"/>
</g>
<!-- DO_816c140 -->
<g id="node16" class="node">
<title>DO_816c140</title>
<polygon fill="none" stroke="orange" points="366.5,-1047 244.5,-1047 244.5,-1011 366.5,-1011 366.5,-1047"/>
<text text-anchor="middle" x="305.5" y="-1025.3" font-family="Times,serif" font-size="14.00">WALL_LOOP_0</text>
</g>
<!-- COMMENT_8151d00+1&#45;&gt;DO_816c140 -->
<g id="edge15" class="edge">
<title>COMMENT_8151d00+1&#45;&gt;DO_816c140</title>
<path fill="none" stroke="black" d="M305.5,-1082.72C305.5,-1074.97 305.5,-1065.79 305.5,-1057.27"/>
<polygon fill="black" stroke="black" points="309,-1057 305.5,-1047 302,-1057 309,-1057"/>
</g>
<!-- DO_8170480 -->
<g id="node17" class="node">
<title>DO_8170480</title>
<polygon fill="none" stroke="orange" points="375.5,-975 235.5,-975 235.5,-939 375.5,-939 375.5,-975"/>
<text text-anchor="middle" x="305.5" y="-953.3" font-family="Times,serif" font-size="14.00">ZCFACE_LOOP_0</text>
</g>
<!-- DO_816c140&#45;&gt;DO_8170480 -->
<g id="edge16" class="edge">
<title>DO_816c140&#45;&gt;DO_8170480</title>
<path fill="none" stroke="black" d="M305.5,-1010.7C305.5,-1002.98 305.5,-993.71 305.5,-985.11"/>
<polygon fill="black" stroke="black" points="309,-985.1 305.5,-975.1 302,-985.1 309,-985.1"/>
</g>
<!-- COMMENT_8170ec0+1 -->
<g id="node18" class="node">
<title>COMMENT_8170ec0+1</title>
<polygon fill="none" stroke="black" points="585.5,-903 19.5,-903 19.5,-865 591.5,-865 591.5,-897 585.5,-903"/>
<polyline fill="none" stroke="black" points="585.5,-903 585.5,-897 "/>
<polyline fill="none" stroke="black" points="591.5,-897 585.5,-897 "/>
<text text-anchor="middle" x="305.5" y="-887.8" font-family="Times,serif" font-size="14.00">If there is complex terrain using GEOM and Above Ground Level (AGL) slices,</text>
<text text-anchor="middle" x="305.5" y="-872.8" font-family="Times,serif" font-size="14.00">determine K index of gas phase quantities.</text>
</g>
<!-- DO_8170480&#45;&gt;COMMENT_8170ec0+1 -->
<g id="edge17" class="edge">
<title>DO_8170480&#45;&gt;COMMENT_8170ec0+1</title>
<path fill="none" stroke="black" d="M305.5,-938.81C305.5,-931.11 305.5,-921.82 305.5,-913.15"/>
<polygon fill="black" stroke="black" points="309,-913.02 305.5,-903.02 302,-913.02 309,-913.02"/>
</g>
<!-- COMMENT_8182040+1 -->
<g id="node19" class="node">
<title>COMMENT_8182040+1</title>
<polygon fill="none" stroke="black" points="591,-829 14,-829 14,-793 597,-793 597,-823 591,-829"/>
<polyline fill="none" stroke="black" points="591,-829 591,-823 "/>
<polyline fill="none" stroke="black" points="597,-823 591,-823 "/>
<text text-anchor="middle" x="305.5" y="-807.3" font-family="Times,serif" font-size="14.00">Set clocks and counters related to frequency of solid phase conduction updates</text>
</g>
<!-- COMMENT_8170ec0+1&#45;&gt;COMMENT_8182040+1 -->
<g id="edge18" class="edge">
<title>COMMENT_8170ec0+1&#45;&gt;COMMENT_8182040+1</title>
<path fill="none" stroke="black" d="M305.5,-864.72C305.5,-856.97 305.5,-847.79 305.5,-839.27"/>
<polygon fill="black" stroke="black" points="309,-839 305.5,-829 302,-839 309,-839"/>
</g>
<!-- COMMENT_8184c60+1 -->
<g id="node20" class="node">
<title>COMMENT_8184c60+1</title>
<polygon fill="none" stroke="black" points="518.5,-757 86.5,-757 86.5,-721 524.5,-721 524.5,-751 518.5,-757"/>
<polyline fill="none" stroke="black" points="518.5,-757 518.5,-751 "/>
<polyline fill="none" stroke="black" points="524.5,-751 518.5,-751 "/>
<text text-anchor="middle" x="305.5" y="-735.3" font-family="Times,serif" font-size="14.00">Allocate arrays for storing velocity boundary condition info</text>
</g>
<!-- COMMENT_8182040+1&#45;&gt;COMMENT_8184c60+1 -->
<g id="edge19" class="edge">
<title>COMMENT_8182040+1&#45;&gt;COMMENT_8184c60+1</title>
<path fill="none" stroke="black" d="M305.5,-792.7C305.5,-784.98 305.5,-775.71 305.5,-767.11"/>
<polygon fill="black" stroke="black" points="309,-767.1 305.5,-757.1 302,-767.1 309,-767.1"/>
</g>
<!-- CALL_818b300 -->
<g id="node21" class="node">
<title>CALL_818b300</title>
<g id="a_node21"><a xlink:href="REALLOCATE_EDGE.svg" xlink:title="REALLOCATE_EDGE">
<polygon fill="lightgray" stroke="black" points="388.5,-685 222.5,-685 222.5,-681 218.5,-681 218.5,-677 222.5,-677 222.5,-657 218.5,-657 218.5,-653 222.5,-653 222.5,-649 388.5,-649 388.5,-685"/>
<polyline fill="none" stroke="black" points="222.5,-681 226.5,-681 226.5,-677 222.5,-677 "/>
<polyline fill="none" stroke="black" points="222.5,-657 226.5,-657 226.5,-653 222.5,-653 "/>
<text text-anchor="middle" x="305.5" y="-663.3" font-family="Times,serif" font-size="14.00">REALLOCATE_EDGE</text>
</a>
</g>
</g>
<!-- COMMENT_8184c60+1&#45;&gt;CALL_818b300 -->
<g id="edge20" class="edge">
<title>COMMENT_8184c60+1&#45;&gt;CALL_818b300</title>
<path fill="none" stroke="black" d="M305.5,-720.7C305.5,-712.98 305.5,-703.71 305.5,-695.11"/>
<polygon fill="black" stroke="black" points="309,-695.1 305.5,-685.1 302,-695.1 309,-695.1"/>
</g>
<!-- COMMENT_818b260+1 -->
<g id="node22" class="node">
<title>COMMENT_818b260+1</title>
<polygon fill="none" stroke="black" points="516.5,-613 88.5,-613 88.5,-577 522.5,-577 522.5,-607 516.5,-613"/>
<polyline fill="none" stroke="black" points="516.5,-613 516.5,-607 "/>
<polyline fill="none" stroke="black" points="522.5,-607 516.5,-607 "/>
<text text-anchor="middle" x="305.5" y="-591.3" font-family="Times,serif" font-size="14.00">Allocate array to hold character strings for Smokeview file</text>
</g>
<!-- CALL_818b300&#45;&gt;COMMENT_818b260+1 -->
<g id="edge21" class="edge">
<title>CALL_818b300&#45;&gt;COMMENT_818b260+1</title>
<path fill="none" stroke="black" d="M305.5,-648.7C305.5,-640.98 305.5,-631.71 305.5,-623.11"/>
<polygon fill="black" stroke="black" points="309,-623.1 305.5,-613.1 302,-623.1 309,-623.1"/>
</g>
<!-- CALL_818bf60 -->
<g id="node23" class="node">
<title>CALL_818bf60</title>
<g id="a_node23"><a xlink:href="ChkMemErr.svg" xlink:title="ChkMemErr">
<polygon fill="lightgray" stroke="black" points="357.5,-541 253.5,-541 253.5,-537 249.5,-537 249.5,-533 253.5,-533 253.5,-513 249.5,-513 249.5,-509 253.5,-509 253.5,-505 357.5,-505 357.5,-541"/>
<polyline fill="none" stroke="black" points="253.5,-537 257.5,-537 257.5,-533 253.5,-533 "/>
<polyline fill="none" stroke="black" points="253.5,-513 257.5,-513 257.5,-509 253.5,-509 "/>
<text text-anchor="middle" x="305.5" y="-519.3" font-family="Times,serif" font-size="14.00">ChkMemErr</text>
</a>
</g>
</g>
<!-- COMMENT_818b260+1&#45;&gt;CALL_818bf60 -->
<g id="edge22" class="edge">
<title>COMMENT_818b260+1&#45;&gt;CALL_818bf60</title>
<path fill="none" stroke="black" d="M305.5,-576.7C305.5,-568.98 305.5,-559.71 305.5,-551.11"/>
<polygon fill="black" stroke="black" points="309,-551.1 305.5,-541.1 302,-551.1 309,-551.1"/>
</g>
<!-- COMMENT_818bf40+1 -->
<g id="node24" class="node">
<title>COMMENT_818bf40+1</title>
<polygon fill="none" stroke="black" points="500,-469 105,-469 105,-433 506,-433 506,-463 500,-469"/>
<polyline fill="none" stroke="black" points="500,-469 500,-463 "/>
<polyline fill="none" stroke="black" points="506,-463 500,-463 "/>
<text text-anchor="middle" x="305.5" y="-447.3" font-family="Times,serif" font-size="14.00">Set up arrays to hold velocity boundary condition info</text>
</g>
<!-- CALL_818bf60&#45;&gt;COMMENT_818bf40+1 -->
<g id="edge23" class="edge">
<title>CALL_818bf60&#45;&gt;COMMENT_818bf40+1</title>
<path fill="none" stroke="black" d="M305.5,-504.7C305.5,-496.98 305.5,-487.71 305.5,-479.11"/>
<polygon fill="black" stroke="black" points="309,-479.1 305.5,-469.1 302,-479.1 309,-479.1"/>
</g>
<!-- CALL_818bf40 -->
<g id="node25" class="node">
<title>CALL_818bf40</title>
<g id="a_node25"><a xlink:href="INITIALIZE_EDGES.svg" xlink:title="INITIALIZE_EDGES">
<polygon fill="lightgray" stroke="black" points="384.5,-397 226.5,-397 226.5,-393 222.5,-393 222.5,-389 226.5,-389 226.5,-369 222.5,-369 222.5,-365 226.5,-365 226.5,-361 384.5,-361 384.5,-397"/>
<polyline fill="none" stroke="black" points="226.5,-393 230.5,-393 230.5,-389 226.5,-389 "/>
<polyline fill="none" stroke="black" points="226.5,-369 230.5,-369 230.5,-365 226.5,-365 "/>
<text text-anchor="middle" x="305.5" y="-375.3" font-family="Times,serif" font-size="14.00">INITIALIZE_EDGES</text>
</a>
</g>
</g>
<!-- COMMENT_818bf40+1&#45;&gt;CALL_818bf40 -->
<g id="edge24" class="edge">
<title>COMMENT_818bf40+1&#45;&gt;CALL_818bf40</title>
<path fill="none" stroke="black" d="M305.5,-432.7C305.5,-424.98 305.5,-415.71 305.5,-407.11"/>
<polygon fill="black" stroke="black" points="309,-407.1 305.5,-397.1 302,-407.1 309,-407.1"/>
</g>
<!-- COMMENT_818c3c0+1 -->
<g id="node26" class="node">
<title>COMMENT_818c3c0+1</title>
<polygon fill="none" stroke="black" points="397,-325 208,-325 208,-289 403,-289 403,-319 397,-325"/>
<polyline fill="none" stroke="black" points="397,-325 397,-319 "/>
<polyline fill="none" stroke="black" points="403,-319 397,-319 "/>
<text text-anchor="middle" x="305.5" y="-303.3" font-family="Times,serif" font-size="14.00">Initialize Pressure solver</text>
</g>
<!-- CALL_818bf40&#45;&gt;COMMENT_818c3c0+1 -->
<g id="edge25" class="edge">
<title>CALL_818bf40&#45;&gt;COMMENT_818c3c0+1</title>
<path fill="none" stroke="black" d="M305.5,-360.7C305.5,-352.98 305.5,-343.71 305.5,-335.11"/>
<polygon fill="black" stroke="black" points="309,-335.1 305.5,-325.1 302,-335.1 309,-335.1"/>
</g>
<!-- CALL_818c720 -->
<g id="node27" class="node">
<title>CALL_818c720</title>
<g id="a_node27"><a xlink:href="INITIALIZE_POISSON_SOLVER.svg" xlink:title="INITIALIZE_POISSON_SOLVER">
<polygon fill="lightgray" stroke="black" points="425,-253 186,-253 186,-249 182,-249 182,-245 186,-245 186,-225 182,-225 182,-221 186,-221 186,-217 425,-217 425,-253"/>
<polyline fill="none" stroke="black" points="186,-249 190,-249 190,-245 186,-245 "/>
<polyline fill="none" stroke="black" points="186,-225 190,-225 190,-221 186,-221 "/>
<text text-anchor="middle" x="305.5" y="-231.3" font-family="Times,serif" font-size="14.00">INITIALIZE_POISSON_SOLVER</text>
</a>
</g>
</g>
<!-- COMMENT_818c3c0+1&#45;&gt;CALL_818c720 -->
<g id="edge26" class="edge">
<title>COMMENT_818c3c0+1&#45;&gt;CALL_818c720</title>
<path fill="none" stroke="black" d="M305.5,-288.7C305.5,-280.98 305.5,-271.71 305.5,-263.11"/>
<polygon fill="black" stroke="black" points="309,-263.1 305.5,-253.1 302,-263.1 309,-263.1"/>
</g>
<!-- COMMENT_818e4e0+1 -->
<g id="node28" class="node">
<title>COMMENT_818e4e0+1</title>
<polygon fill="none" stroke="black" points="398,-181 207,-181 207,-145 404,-145 404,-175 398,-181"/>
<polyline fill="none" stroke="black" points="398,-181 398,-175 "/>
<polyline fill="none" stroke="black" points="404,-175 398,-175 "/>
<text text-anchor="middle" x="305.5" y="-159.3" font-family="Times,serif" font-size="14.00">Initialize Mesh Exchange</text>
</g>
<!-- CALL_818c720&#45;&gt;COMMENT_818e4e0+1 -->
<g id="edge27" class="edge">
<title>CALL_818c720&#45;&gt;COMMENT_818e4e0+1</title>
<path fill="none" stroke="black" d="M305.5,-216.7C305.5,-208.98 305.5,-199.71 305.5,-191.11"/>
<polygon fill="black" stroke="black" points="309,-191.1 305.5,-181.1 302,-191.1 309,-191.1"/>
</g>
<!-- CALL_818e4e0 -->
<g id="node29" class="node">
<title>CALL_818e4e0</title>
<g id="a_node29"><a xlink:href="INITIALIZE_INTERPOLATION.svg" xlink:title="INITIALIZE_INTERPOLATION">
<polygon fill="lightgray" stroke="black" points="419.5,-109 191.5,-109 191.5,-105 187.5,-105 187.5,-101 191.5,-101 191.5,-81 187.5,-81 187.5,-77 191.5,-77 191.5,-73 419.5,-73 419.5,-109"/>
<polyline fill="none" stroke="black" points="191.5,-105 195.5,-105 195.5,-101 191.5,-101 "/>
<polyline fill="none" stroke="black" points="191.5,-81 195.5,-81 195.5,-77 191.5,-77 "/>
<text text-anchor="middle" x="305.5" y="-87.3" font-family="Times,serif" font-size="14.00">INITIALIZE_INTERPOLATION</text>
</a>
</g>
</g>
<!-- COMMENT_818e4e0+1&#45;&gt;CALL_818e4e0 -->
<g id="edge28" class="edge">
<title>COMMENT_818e4e0+1&#45;&gt;CALL_818e4e0</title>
<path fill="none" stroke="black" d="M305.5,-144.7C305.5,-136.98 305.5,-127.71 305.5,-119.11"/>
<polygon fill="black" stroke="black" points="309,-119.1 305.5,-109.1 302,-119.1 309,-119.1"/>
</g>
<!-- end_SUBPROGRAM_838d380 -->
<g id="node30" class="node">
<title>end_SUBPROGRAM_838d380</title>
<ellipse fill="black" stroke="black" cx="305.5" cy="-30" rx="7" ry="7"/>
</g>
<!-- CALL_818e4e0&#45;&gt;end_SUBPROGRAM_838d380 -->
<g id="edge29" class="edge">
<title>CALL_818e4e0&#45;&gt;end_SUBPROGRAM_838d380</title>
<path fill="none" stroke="black" d="M305.5,-72.93C305.5,-64.89 305.5,-55.33 305.5,-47.37"/>
<polygon fill="black" stroke="black" points="309,-47.22 305.5,-37.22 302,-47.22 309,-47.22"/>
</g>
</g>
</svg>
