<?xml version="1.0" encoding="UTF-8" standalone="no"?>
<!DOCTYPE svg PUBLIC "-//W3C//DTD SVG 1.1//EN"
 "http://www.w3.org/Graphics/SVG/1.1/DTD/svg11.dtd">
<!-- Generated by graphviz version 2.43.0 (0)
 -->
<!-- Title: INITIALIZE_INTERPOLATION Pages: 1 -->
<svg width="508pt" height="311pt"
 viewBox="0.00 0.00 508.00 311.00" xmlns="http://www.w3.org/2000/svg" xmlns:xlink="http://www.w3.org/1999/xlink">
<g id="graph0" class="graph" transform="scale(1 1) rotate(0) translate(4 307)">
<title>INITIALIZE_INTERPOLATION</title>
<polygon fill="white" stroke="transparent" points="-4,4 -4,-307 504,-307 504,4 -4,4"/>
<text text-anchor="middle" x="250" y="-7.8" font-family="Times,serif" font-size="14.00">INITIALIZE_INTERPOLATION</text>
<!-- start_SUBPROGRAM_9b46f00 -->
<g id="node1" class="node">
<title>start_SUBPROGRAM_9b46f00</title>
<ellipse fill="none" stroke="black" cx="250" cy="-296" rx="7" ry="7"/>
</g>
<!-- COMMENT_9b39880+1 -->
<g id="node2" class="node">
<title>COMMENT_9b39880+1</title>
<polygon fill="none" stroke="black" points="494,-253 0,-253 0,-217 500,-217 500,-247 494,-253"/>
<polyline fill="none" stroke="black" points="494,-253 494,-247 "/>
<polyline fill="none" stroke="black" points="500,-247 494,-247 "/>
<text text-anchor="middle" x="250" y="-231.3" font-family="Times,serif" font-size="14.00">!&gt; brief Create arrays by which info is to exchanged across meshes</text>
</g>
<!-- start_SUBPROGRAM_9b46f00&#45;&gt;COMMENT_9b39880+1 -->
<g id="edge1" class="edge">
<title>start_SUBPROGRAM_9b46f00&#45;&gt;COMMENT_9b39880+1</title>
<path fill="none" stroke="black" d="M250,-288.69C250,-282.49 250,-272.59 250,-263.05"/>
<polygon fill="black" stroke="black" points="253.5,-263.02 250,-253.02 246.5,-263.02 253.5,-263.02"/>
</g>
<!-- CALL_9b2f840 -->
<g id="node3" class="node">
<title>CALL_9b2f840</title>
<g id="a_node3"><a xlink:href="ChkMemErr.svg" xlink:title="ChkMemErr">
<polygon fill="lightgray" stroke="black" points="302,-181 198,-181 198,-177 194,-177 194,-173 198,-173 198,-153 194,-153 194,-149 198,-149 198,-145 302,-145 302,-181"/>
<polyline fill="none" stroke="black" points="198,-177 202,-177 202,-173 198,-173 "/>
<polyline fill="none" stroke="black" points="198,-153 202,-153 202,-149 198,-149 "/>
<text text-anchor="middle" x="250" y="-159.3" font-family="Times,serif" font-size="14.00">ChkMemErr</text>
</a>
</g>
</g>
<!-- COMMENT_9b39880+1&#45;&gt;CALL_9b2f840 -->
<g id="edge2" class="edge">
<title>COMMENT_9b39880+1&#45;&gt;CALL_9b2f840</title>
<path fill="none" stroke="black" d="M250,-216.7C250,-208.98 250,-199.71 250,-191.11"/>
<polygon fill="black" stroke="black" points="253.5,-191.1 250,-181.1 246.5,-191.1 253.5,-191.1"/>
</g>
<!-- DO_9b46800 -->
<g id="node4" class="node">
<title>DO_9b46800</title>
<polygon fill="none" stroke="orange" points="335.5,-109 164.5,-109 164.5,-73 335.5,-73 335.5,-109"/>
<text text-anchor="middle" x="250" y="-87.3" font-family="Times,serif" font-size="14.00">OTHER_MESH_LOOP</text>
</g>
<!-- CALL_9b2f840&#45;&gt;DO_9b46800 -->
<g id="edge3" class="edge">
<title>CALL_9b2f840&#45;&gt;DO_9b46800</title>
<path fill="none" stroke="black" d="M250,-144.7C250,-136.98 250,-127.71 250,-119.11"/>
<polygon fill="black" stroke="black" points="253.5,-119.1 250,-109.1 246.5,-119.1 253.5,-119.1"/>
</g>
<!-- end_SUBPROGRAM_9b46f00 -->
<g id="node5" class="node">
<title>end_SUBPROGRAM_9b46f00</title>
<ellipse fill="black" stroke="black" cx="250" cy="-30" rx="7" ry="7"/>
</g>
<!-- DO_9b46800&#45;&gt;end_SUBPROGRAM_9b46f00 -->
<g id="edge4" class="edge">
<title>DO_9b46800&#45;&gt;end_SUBPROGRAM_9b46f00</title>
<path fill="none" stroke="black" d="M250,-72.93C250,-64.89 250,-55.33 250,-47.37"/>
<polygon fill="black" stroke="black" points="253.5,-47.22 250,-37.22 246.5,-47.22 253.5,-47.22"/>
</g>
</g>
</svg>
