<?xml version="1.0" encoding="UTF-8" standalone="no"?>
<!DOCTYPE svg PUBLIC "-//W3C//DTD SVG 1.1//EN"
 "http://www.w3.org/Graphics/SVG/1.1/DTD/svg11.dtd">
<!-- Generated by graphviz version 2.43.0 (0)
 -->
<!-- Title: INITIALIZE_EDGES Pages: 1 -->
<svg width="475pt" height="1970pt"
 viewBox="0.00 0.00 475.00 1970.00" xmlns="http://www.w3.org/2000/svg" xmlns:xlink="http://www.w3.org/1999/xlink">
<g id="graph0" class="graph" transform="scale(1 1) rotate(0) translate(4 1966)">
<title>INITIALIZE_EDGES</title>
<polygon fill="white" stroke="transparent" points="-4,4 -4,-1966 471,-1966 471,4 -4,4"/>
<text text-anchor="middle" x="233.5" y="-7.8" font-family="Times,serif" font-size="14.00">INITIALIZE_EDGES</text>
<g id="clust1" class="cluster">
<title>cluster_OBST_LOOP_3</title>
<polygon fill="none" stroke="orange" points="162.5,-65 162.5,-932 304.5,-932 304.5,-65 162.5,-65"/>
<text text-anchor="middle" x="223" y="-916.8" font-family="Times,serif" font-size="14.00">OBST_LOOP_3</text>
</g>
<!-- start_SUBPROGRAM_81bd900 -->
<g id="node1" class="node">
<title>start_SUBPROGRAM_81bd900</title>
<ellipse fill="none" stroke="black" cx="233.5" cy="-1955" rx="7" ry="7"/>
</g>
<!-- COMMENT_818eb00+1 -->
<g id="node2" class="node">
<title>COMMENT_818eb00+1</title>
<polygon fill="none" stroke="black" points="451.5,-1912 9.5,-1912 9.5,-1876 457.5,-1876 457.5,-1906 451.5,-1912"/>
<polyline fill="none" stroke="black" points="451.5,-1912 451.5,-1906 "/>
<polyline fill="none" stroke="black" points="457.5,-1906 451.5,-1906 "/>
<text text-anchor="middle" x="233.5" y="-1890.3" font-family="Times,serif" font-size="14.00">!&gt; brief Set up edge arrays for velocity boundary conditions</text>
</g>
<!-- start_SUBPROGRAM_81bd900&#45;&gt;COMMENT_818eb00+1 -->
<g id="edge1" class="edge">
<title>start_SUBPROGRAM_81bd900&#45;&gt;COMMENT_818eb00+1</title>
<path fill="none" stroke="black" d="M233.5,-1947.69C233.5,-1941.49 233.5,-1931.59 233.5,-1922.05"/>
<polygon fill="black" stroke="black" points="237,-1922.02 233.5,-1912.02 230,-1922.02 237,-1922.02"/>
</g>
<!-- COMMENT_818eba0+1 -->
<g id="node3" class="node">
<title>COMMENT_818eba0+1</title>
<polygon fill="none" stroke="black" points="461,-1840 0,-1840 0,-1804 467,-1804 467,-1834 461,-1840"/>
<polyline fill="none" stroke="black" points="461,-1840 461,-1834 "/>
<polyline fill="none" stroke="black" points="467,-1834 461,-1834 "/>
<text text-anchor="middle" x="233.5" y="-1818.3" font-family="Times,serif" font-size="14.00">Arguments for DEFINE_EDGE(I,J,K,IOR,IEC,NM,OBST_INDEX)</text>
</g>
<!-- COMMENT_818eb00+1&#45;&gt;COMMENT_818eba0+1 -->
<g id="edge2" class="edge">
<title>COMMENT_818eb00+1&#45;&gt;COMMENT_818eba0+1</title>
<path fill="none" stroke="black" d="M233.5,-1875.7C233.5,-1867.98 233.5,-1858.71 233.5,-1850.11"/>
<polygon fill="black" stroke="black" points="237,-1850.1 233.5,-1840.1 230,-1850.1 237,-1850.1"/>
</g>
<!-- CALL_8192280 -->
<g id="node4" class="node">
<title>CALL_8192280</title>
<g id="a_node4"><a xlink:href="DEFINE_EDGE.svg" xlink:title="DEFINE_EDGE">
<polygon fill="lightgray" stroke="black" points="296.5,-1768 170.5,-1768 170.5,-1764 166.5,-1764 166.5,-1760 170.5,-1760 170.5,-1740 166.5,-1740 166.5,-1736 170.5,-1736 170.5,-1732 296.5,-1732 296.5,-1768"/>
<polyline fill="none" stroke="black" points="170.5,-1764 174.5,-1764 174.5,-1760 170.5,-1760 "/>
<polyline fill="none" stroke="black" points="170.5,-1740 174.5,-1740 174.5,-1736 170.5,-1736 "/>
<text text-anchor="middle" x="233.5" y="-1746.3" font-family="Times,serif" font-size="14.00">DEFINE_EDGE</text>
</a>
</g>
</g>
<!-- COMMENT_818eba0+1&#45;&gt;CALL_8192280 -->
<g id="edge3" class="edge">
<title>COMMENT_818eba0+1&#45;&gt;CALL_8192280</title>
<path fill="none" stroke="black" d="M233.5,-1803.7C233.5,-1795.98 233.5,-1786.71 233.5,-1778.11"/>
<polygon fill="black" stroke="black" points="237,-1778.1 233.5,-1768.1 230,-1778.1 237,-1778.1"/>
</g>
<!-- CALL_8194640 -->
<g id="node5" class="node">
<title>CALL_8194640</title>
<g id="a_node5"><a xlink:href="DEFINE_EDGE.svg" xlink:title="DEFINE_EDGE">
<polygon fill="lightgray" stroke="black" points="296.5,-1696 170.5,-1696 170.5,-1692 166.5,-1692 166.5,-1688 170.5,-1688 170.5,-1668 166.5,-1668 166.5,-1664 170.5,-1664 170.5,-1660 296.5,-1660 296.5,-1696"/>
<polyline fill="none" stroke="black" points="170.5,-1692 174.5,-1692 174.5,-1688 170.5,-1688 "/>
<polyline fill="none" stroke="black" points="170.5,-1668 174.5,-1668 174.5,-1664 170.5,-1664 "/>
<text text-anchor="middle" x="233.5" y="-1674.3" font-family="Times,serif" font-size="14.00">DEFINE_EDGE</text>
</a>
</g>
</g>
<!-- CALL_8192280&#45;&gt;CALL_8194640 -->
<g id="edge4" class="edge">
<title>CALL_8192280&#45;&gt;CALL_8194640</title>
<path fill="none" stroke="black" d="M233.5,-1731.7C233.5,-1723.98 233.5,-1714.71 233.5,-1706.11"/>
<polygon fill="black" stroke="black" points="237,-1706.1 233.5,-1696.1 230,-1706.1 237,-1706.1"/>
</g>
<!-- CALL_8196660 -->
<g id="node6" class="node">
<title>CALL_8196660</title>
<g id="a_node6"><a xlink:href="DEFINE_EDGE.svg" xlink:title="DEFINE_EDGE">
<polygon fill="lightgray" stroke="black" points="296.5,-1624 170.5,-1624 170.5,-1620 166.5,-1620 166.5,-1616 170.5,-1616 170.5,-1596 166.5,-1596 166.5,-1592 170.5,-1592 170.5,-1588 296.5,-1588 296.5,-1624"/>
<polyline fill="none" stroke="black" points="170.5,-1620 174.5,-1620 174.5,-1616 170.5,-1616 "/>
<polyline fill="none" stroke="black" points="170.5,-1596 174.5,-1596 174.5,-1592 170.5,-1592 "/>
<text text-anchor="middle" x="233.5" y="-1602.3" font-family="Times,serif" font-size="14.00">DEFINE_EDGE</text>
</a>
</g>
</g>
<!-- CALL_8194640&#45;&gt;CALL_8196660 -->
<g id="edge5" class="edge">
<title>CALL_8194640&#45;&gt;CALL_8196660</title>
<path fill="none" stroke="black" d="M233.5,-1659.7C233.5,-1651.98 233.5,-1642.71 233.5,-1634.11"/>
<polygon fill="black" stroke="black" points="237,-1634.1 233.5,-1624.1 230,-1634.1 237,-1634.1"/>
</g>
<!-- CALL_81989c0 -->
<g id="node7" class="node">
<title>CALL_81989c0</title>
<g id="a_node7"><a xlink:href="DEFINE_EDGE.svg" xlink:title="DEFINE_EDGE">
<polygon fill="lightgray" stroke="black" points="296.5,-1552 170.5,-1552 170.5,-1548 166.5,-1548 166.5,-1544 170.5,-1544 170.5,-1524 166.5,-1524 166.5,-1520 170.5,-1520 170.5,-1516 296.5,-1516 296.5,-1552"/>
<polyline fill="none" stroke="black" points="170.5,-1548 174.5,-1548 174.5,-1544 170.5,-1544 "/>
<polyline fill="none" stroke="black" points="170.5,-1524 174.5,-1524 174.5,-1520 170.5,-1520 "/>
<text text-anchor="middle" x="233.5" y="-1530.3" font-family="Times,serif" font-size="14.00">DEFINE_EDGE</text>
</a>
</g>
</g>
<!-- CALL_8196660&#45;&gt;CALL_81989c0 -->
<g id="edge6" class="edge">
<title>CALL_8196660&#45;&gt;CALL_81989c0</title>
<path fill="none" stroke="black" d="M233.5,-1587.7C233.5,-1579.98 233.5,-1570.71 233.5,-1562.11"/>
<polygon fill="black" stroke="black" points="237,-1562.1 233.5,-1552.1 230,-1562.1 237,-1562.1"/>
</g>
<!-- CALL_819c0c0 -->
<g id="node8" class="node">
<title>CALL_819c0c0</title>
<g id="a_node8"><a xlink:href="DEFINE_EDGE.svg" xlink:title="DEFINE_EDGE">
<polygon fill="lightgray" stroke="black" points="296.5,-1480 170.5,-1480 170.5,-1476 166.5,-1476 166.5,-1472 170.5,-1472 170.5,-1452 166.5,-1452 166.5,-1448 170.5,-1448 170.5,-1444 296.5,-1444 296.5,-1480"/>
<polyline fill="none" stroke="black" points="170.5,-1476 174.5,-1476 174.5,-1472 170.5,-1472 "/>
<polyline fill="none" stroke="black" points="170.5,-1452 174.5,-1452 174.5,-1448 170.5,-1448 "/>
<text text-anchor="middle" x="233.5" y="-1458.3" font-family="Times,serif" font-size="14.00">DEFINE_EDGE</text>
</a>
</g>
</g>
<!-- CALL_81989c0&#45;&gt;CALL_819c0c0 -->
<g id="edge7" class="edge">
<title>CALL_81989c0&#45;&gt;CALL_819c0c0</title>
<path fill="none" stroke="black" d="M233.5,-1515.7C233.5,-1507.98 233.5,-1498.71 233.5,-1490.11"/>
<polygon fill="black" stroke="black" points="237,-1490.1 233.5,-1480.1 230,-1490.1 237,-1490.1"/>
</g>
<!-- CALL_819e3a0 -->
<g id="node9" class="node">
<title>CALL_819e3a0</title>
<g id="a_node9"><a xlink:href="DEFINE_EDGE.svg" xlink:title="DEFINE_EDGE">
<polygon fill="lightgray" stroke="black" points="296.5,-1408 170.5,-1408 170.5,-1404 166.5,-1404 166.5,-1400 170.5,-1400 170.5,-1380 166.5,-1380 166.5,-1376 170.5,-1376 170.5,-1372 296.5,-1372 296.5,-1408"/>
<polyline fill="none" stroke="black" points="170.5,-1404 174.5,-1404 174.5,-1400 170.5,-1400 "/>
<polyline fill="none" stroke="black" points="170.5,-1380 174.5,-1380 174.5,-1376 170.5,-1376 "/>
<text text-anchor="middle" x="233.5" y="-1386.3" font-family="Times,serif" font-size="14.00">DEFINE_EDGE</text>
</a>
</g>
</g>
<!-- CALL_819c0c0&#45;&gt;CALL_819e3a0 -->
<g id="edge8" class="edge">
<title>CALL_819c0c0&#45;&gt;CALL_819e3a0</title>
<path fill="none" stroke="black" d="M233.5,-1443.7C233.5,-1435.98 233.5,-1426.71 233.5,-1418.11"/>
<polygon fill="black" stroke="black" points="237,-1418.1 233.5,-1408.1 230,-1418.1 237,-1418.1"/>
</g>
<!-- CALL_81a0520 -->
<g id="node10" class="node">
<title>CALL_81a0520</title>
<g id="a_node10"><a xlink:href="DEFINE_EDGE.svg" xlink:title="DEFINE_EDGE">
<polygon fill="lightgray" stroke="black" points="296.5,-1336 170.5,-1336 170.5,-1332 166.5,-1332 166.5,-1328 170.5,-1328 170.5,-1308 166.5,-1308 166.5,-1304 170.5,-1304 170.5,-1300 296.5,-1300 296.5,-1336"/>
<polyline fill="none" stroke="black" points="170.5,-1332 174.5,-1332 174.5,-1328 170.5,-1328 "/>
<polyline fill="none" stroke="black" points="170.5,-1308 174.5,-1308 174.5,-1304 170.5,-1304 "/>
<text text-anchor="middle" x="233.5" y="-1314.3" font-family="Times,serif" font-size="14.00">DEFINE_EDGE</text>
</a>
</g>
</g>
<!-- CALL_819e3a0&#45;&gt;CALL_81a0520 -->
<g id="edge9" class="edge">
<title>CALL_819e3a0&#45;&gt;CALL_81a0520</title>
<path fill="none" stroke="black" d="M233.5,-1371.7C233.5,-1363.98 233.5,-1354.71 233.5,-1346.11"/>
<polygon fill="black" stroke="black" points="237,-1346.1 233.5,-1336.1 230,-1346.1 237,-1346.1"/>
</g>
<!-- CALL_81a29a0 -->
<g id="node11" class="node">
<title>CALL_81a29a0</title>
<g id="a_node11"><a xlink:href="DEFINE_EDGE.svg" xlink:title="DEFINE_EDGE">
<polygon fill="lightgray" stroke="black" points="296.5,-1264 170.5,-1264 170.5,-1260 166.5,-1260 166.5,-1256 170.5,-1256 170.5,-1236 166.5,-1236 166.5,-1232 170.5,-1232 170.5,-1228 296.5,-1228 296.5,-1264"/>
<polyline fill="none" stroke="black" points="170.5,-1260 174.5,-1260 174.5,-1256 170.5,-1256 "/>
<polyline fill="none" stroke="black" points="170.5,-1236 174.5,-1236 174.5,-1232 170.5,-1232 "/>
<text text-anchor="middle" x="233.5" y="-1242.3" font-family="Times,serif" font-size="14.00">DEFINE_EDGE</text>
</a>
</g>
</g>
<!-- CALL_81a0520&#45;&gt;CALL_81a29a0 -->
<g id="edge10" class="edge">
<title>CALL_81a0520&#45;&gt;CALL_81a29a0</title>
<path fill="none" stroke="black" d="M233.5,-1299.7C233.5,-1291.98 233.5,-1282.71 233.5,-1274.11"/>
<polygon fill="black" stroke="black" points="237,-1274.1 233.5,-1264.1 230,-1274.1 237,-1274.1"/>
</g>
<!-- CALL_81a6220 -->
<g id="node12" class="node">
<title>CALL_81a6220</title>
<g id="a_node12"><a xlink:href="DEFINE_EDGE.svg" xlink:title="DEFINE_EDGE">
<polygon fill="lightgray" stroke="black" points="296.5,-1192 170.5,-1192 170.5,-1188 166.5,-1188 166.5,-1184 170.5,-1184 170.5,-1164 166.5,-1164 166.5,-1160 170.5,-1160 170.5,-1156 296.5,-1156 296.5,-1192"/>
<polyline fill="none" stroke="black" points="170.5,-1188 174.5,-1188 174.5,-1184 170.5,-1184 "/>
<polyline fill="none" stroke="black" points="170.5,-1164 174.5,-1164 174.5,-1160 170.5,-1160 "/>
<text text-anchor="middle" x="233.5" y="-1170.3" font-family="Times,serif" font-size="14.00">DEFINE_EDGE</text>
</a>
</g>
</g>
<!-- CALL_81a29a0&#45;&gt;CALL_81a6220 -->
<g id="edge11" class="edge">
<title>CALL_81a29a0&#45;&gt;CALL_81a6220</title>
<path fill="none" stroke="black" d="M233.5,-1227.7C233.5,-1219.98 233.5,-1210.71 233.5,-1202.11"/>
<polygon fill="black" stroke="black" points="237,-1202.1 233.5,-1192.1 230,-1202.1 237,-1202.1"/>
</g>
<!-- CALL_81a85e0 -->
<g id="node13" class="node">
<title>CALL_81a85e0</title>
<g id="a_node13"><a xlink:href="DEFINE_EDGE.svg" xlink:title="DEFINE_EDGE">
<polygon fill="lightgray" stroke="black" points="296.5,-1120 170.5,-1120 170.5,-1116 166.5,-1116 166.5,-1112 170.5,-1112 170.5,-1092 166.5,-1092 166.5,-1088 170.5,-1088 170.5,-1084 296.5,-1084 296.5,-1120"/>
<polyline fill="none" stroke="black" points="170.5,-1116 174.5,-1116 174.5,-1112 170.5,-1112 "/>
<polyline fill="none" stroke="black" points="170.5,-1092 174.5,-1092 174.5,-1088 170.5,-1088 "/>
<text text-anchor="middle" x="233.5" y="-1098.3" font-family="Times,serif" font-size="14.00">DEFINE_EDGE</text>
</a>
</g>
</g>
<!-- CALL_81a6220&#45;&gt;CALL_81a85e0 -->
<g id="edge12" class="edge">
<title>CALL_81a6220&#45;&gt;CALL_81a85e0</title>
<path fill="none" stroke="black" d="M233.5,-1155.7C233.5,-1147.98 233.5,-1138.71 233.5,-1130.11"/>
<polygon fill="black" stroke="black" points="237,-1130.1 233.5,-1120.1 230,-1130.1 237,-1130.1"/>
</g>
<!-- CALL_81aa7c0 -->
<g id="node14" class="node">
<title>CALL_81aa7c0</title>
<g id="a_node14"><a xlink:href="DEFINE_EDGE.svg" xlink:title="DEFINE_EDGE">
<polygon fill="lightgray" stroke="black" points="296.5,-1048 170.5,-1048 170.5,-1044 166.5,-1044 166.5,-1040 170.5,-1040 170.5,-1020 166.5,-1020 166.5,-1016 170.5,-1016 170.5,-1012 296.5,-1012 296.5,-1048"/>
<polyline fill="none" stroke="black" points="170.5,-1044 174.5,-1044 174.5,-1040 170.5,-1040 "/>
<polyline fill="none" stroke="black" points="170.5,-1020 174.5,-1020 174.5,-1016 170.5,-1016 "/>
<text text-anchor="middle" x="233.5" y="-1026.3" font-family="Times,serif" font-size="14.00">DEFINE_EDGE</text>
</a>
</g>
</g>
<!-- CALL_81a85e0&#45;&gt;CALL_81aa7c0 -->
<g id="edge13" class="edge">
<title>CALL_81a85e0&#45;&gt;CALL_81aa7c0</title>
<path fill="none" stroke="black" d="M233.5,-1083.7C233.5,-1075.98 233.5,-1066.71 233.5,-1058.11"/>
<polygon fill="black" stroke="black" points="237,-1058.1 233.5,-1048.1 230,-1058.1 237,-1058.1"/>
</g>
<!-- CALL_81acb40 -->
<g id="node15" class="node">
<title>CALL_81acb40</title>
<g id="a_node15"><a xlink:href="DEFINE_EDGE.svg" xlink:title="DEFINE_EDGE">
<polygon fill="lightgray" stroke="black" points="296.5,-976 170.5,-976 170.5,-972 166.5,-972 166.5,-968 170.5,-968 170.5,-948 166.5,-948 166.5,-944 170.5,-944 170.5,-940 296.5,-940 296.5,-976"/>
<polyline fill="none" stroke="black" points="170.5,-972 174.5,-972 174.5,-968 170.5,-968 "/>
<polyline fill="none" stroke="black" points="170.5,-948 174.5,-948 174.5,-944 170.5,-944 "/>
<text text-anchor="middle" x="233.5" y="-954.3" font-family="Times,serif" font-size="14.00">DEFINE_EDGE</text>
</a>
</g>
</g>
<!-- CALL_81aa7c0&#45;&gt;CALL_81acb40 -->
<g id="edge14" class="edge">
<title>CALL_81aa7c0&#45;&gt;CALL_81acb40</title>
<path fill="none" stroke="black" d="M233.5,-1011.7C233.5,-1003.98 233.5,-994.71 233.5,-986.11"/>
<polygon fill="black" stroke="black" points="237,-986.1 233.5,-976.1 230,-986.1 237,-986.1"/>
</g>
<!-- CALL_81b22c0 -->
<g id="node16" class="node">
<title>CALL_81b22c0</title>
<g id="a_node16"><a xlink:href="DEFINE_EDGE.svg" xlink:title="DEFINE_EDGE">
<polygon fill="lightgray" stroke="black" points="296.5,-901 170.5,-901 170.5,-897 166.5,-897 166.5,-893 170.5,-893 170.5,-873 166.5,-873 166.5,-869 170.5,-869 170.5,-865 296.5,-865 296.5,-901"/>
<polyline fill="none" stroke="black" points="170.5,-897 174.5,-897 174.5,-893 170.5,-893 "/>
<polyline fill="none" stroke="black" points="170.5,-873 174.5,-873 174.5,-869 170.5,-869 "/>
<text text-anchor="middle" x="233.5" y="-879.3" font-family="Times,serif" font-size="14.00">DEFINE_EDGE</text>
</a>
</g>
</g>
<!-- CALL_81acb40&#45;&gt;CALL_81b22c0 -->
<g id="edge26" class="edge">
<title>CALL_81acb40&#45;&gt;CALL_81b22c0</title>
<path fill="none" stroke="black" d="M233.5,-939.7C233.5,-931.25 233.5,-920.87 233.5,-911.37"/>
<polygon fill="black" stroke="black" points="237,-911.18 233.5,-901.18 230,-911.18 237,-911.18"/>
</g>
<!-- CALL_81b4840 -->
<g id="node17" class="node">
<title>CALL_81b4840</title>
<g id="a_node17"><a xlink:href="DEFINE_EDGE.svg" xlink:title="DEFINE_EDGE">
<polygon fill="lightgray" stroke="black" points="296.5,-829 170.5,-829 170.5,-825 166.5,-825 166.5,-821 170.5,-821 170.5,-801 166.5,-801 166.5,-797 170.5,-797 170.5,-793 296.5,-793 296.5,-829"/>
<polyline fill="none" stroke="black" points="170.5,-825 174.5,-825 174.5,-821 170.5,-821 "/>
<polyline fill="none" stroke="black" points="170.5,-801 174.5,-801 174.5,-797 170.5,-797 "/>
<text text-anchor="middle" x="233.5" y="-807.3" font-family="Times,serif" font-size="14.00">DEFINE_EDGE</text>
</a>
</g>
</g>
<!-- CALL_81b22c0&#45;&gt;CALL_81b4840 -->
<g id="edge15" class="edge">
<title>CALL_81b22c0&#45;&gt;CALL_81b4840</title>
<path fill="none" stroke="black" d="M233.5,-864.7C233.5,-856.98 233.5,-847.71 233.5,-839.11"/>
<polygon fill="black" stroke="black" points="237,-839.1 233.5,-829.1 230,-839.1 237,-839.1"/>
</g>
<!-- CALL_81b6ea0 -->
<g id="node18" class="node">
<title>CALL_81b6ea0</title>
<g id="a_node18"><a xlink:href="DEFINE_EDGE.svg" xlink:title="DEFINE_EDGE">
<polygon fill="lightgray" stroke="black" points="296.5,-757 170.5,-757 170.5,-753 166.5,-753 166.5,-749 170.5,-749 170.5,-729 166.5,-729 166.5,-725 170.5,-725 170.5,-721 296.5,-721 296.5,-757"/>
<polyline fill="none" stroke="black" points="170.5,-753 174.5,-753 174.5,-749 170.5,-749 "/>
<polyline fill="none" stroke="black" points="170.5,-729 174.5,-729 174.5,-725 170.5,-725 "/>
<text text-anchor="middle" x="233.5" y="-735.3" font-family="Times,serif" font-size="14.00">DEFINE_EDGE</text>
</a>
</g>
</g>
<!-- CALL_81b4840&#45;&gt;CALL_81b6ea0 -->
<g id="edge16" class="edge">
<title>CALL_81b4840&#45;&gt;CALL_81b6ea0</title>
<path fill="none" stroke="black" d="M233.5,-792.7C233.5,-784.98 233.5,-775.71 233.5,-767.11"/>
<polygon fill="black" stroke="black" points="237,-767.1 233.5,-757.1 230,-767.1 237,-767.1"/>
</g>
<!-- CALL_81b9440 -->
<g id="node19" class="node">
<title>CALL_81b9440</title>
<g id="a_node19"><a xlink:href="DEFINE_EDGE.svg" xlink:title="DEFINE_EDGE">
<polygon fill="lightgray" stroke="black" points="296.5,-685 170.5,-685 170.5,-681 166.5,-681 166.5,-677 170.5,-677 170.5,-657 166.5,-657 166.5,-653 170.5,-653 170.5,-649 296.5,-649 296.5,-685"/>
<polyline fill="none" stroke="black" points="170.5,-681 174.5,-681 174.5,-677 170.5,-677 "/>
<polyline fill="none" stroke="black" points="170.5,-657 174.5,-657 174.5,-653 170.5,-653 "/>
<text text-anchor="middle" x="233.5" y="-663.3" font-family="Times,serif" font-size="14.00">DEFINE_EDGE</text>
</a>
</g>
</g>
<!-- CALL_81b6ea0&#45;&gt;CALL_81b9440 -->
<g id="edge17" class="edge">
<title>CALL_81b6ea0&#45;&gt;CALL_81b9440</title>
<path fill="none" stroke="black" d="M233.5,-720.7C233.5,-712.98 233.5,-703.71 233.5,-695.11"/>
<polygon fill="black" stroke="black" points="237,-695.1 233.5,-685.1 230,-695.1 237,-695.1"/>
</g>
<!-- CALL_81bd1e0 -->
<g id="node20" class="node">
<title>CALL_81bd1e0</title>
<g id="a_node20"><a xlink:href="DEFINE_EDGE.svg" xlink:title="DEFINE_EDGE">
<polygon fill="lightgray" stroke="black" points="296.5,-613 170.5,-613 170.5,-609 166.5,-609 166.5,-605 170.5,-605 170.5,-585 166.5,-585 166.5,-581 170.5,-581 170.5,-577 296.5,-577 296.5,-613"/>
<polyline fill="none" stroke="black" points="170.5,-609 174.5,-609 174.5,-605 170.5,-605 "/>
<polyline fill="none" stroke="black" points="170.5,-585 174.5,-585 174.5,-581 170.5,-581 "/>
<text text-anchor="middle" x="233.5" y="-591.3" font-family="Times,serif" font-size="14.00">DEFINE_EDGE</text>
</a>
</g>
</g>
<!-- CALL_81b9440&#45;&gt;CALL_81bd1e0 -->
<g id="edge18" class="edge">
<title>CALL_81b9440&#45;&gt;CALL_81bd1e0</title>
<path fill="none" stroke="black" d="M233.5,-648.7C233.5,-640.98 233.5,-631.71 233.5,-623.11"/>
<polygon fill="black" stroke="black" points="237,-623.1 233.5,-613.1 230,-623.1 237,-623.1"/>
</g>
<!-- CALL_81bf740 -->
<g id="node21" class="node">
<title>CALL_81bf740</title>
<g id="a_node21"><a xlink:href="DEFINE_EDGE.svg" xlink:title="DEFINE_EDGE">
<polygon fill="lightgray" stroke="black" points="296.5,-541 170.5,-541 170.5,-537 166.5,-537 166.5,-533 170.5,-533 170.5,-513 166.5,-513 166.5,-509 170.5,-509 170.5,-505 296.5,-505 296.5,-541"/>
<polyline fill="none" stroke="black" points="170.5,-537 174.5,-537 174.5,-533 170.5,-533 "/>
<polyline fill="none" stroke="black" points="170.5,-513 174.5,-513 174.5,-509 170.5,-509 "/>
<text text-anchor="middle" x="233.5" y="-519.3" font-family="Times,serif" font-size="14.00">DEFINE_EDGE</text>
</a>
</g>
</g>
<!-- CALL_81bd1e0&#45;&gt;CALL_81bf740 -->
<g id="edge19" class="edge">
<title>CALL_81bd1e0&#45;&gt;CALL_81bf740</title>
<path fill="none" stroke="black" d="M233.5,-576.7C233.5,-568.98 233.5,-559.71 233.5,-551.11"/>
<polygon fill="black" stroke="black" points="237,-551.1 233.5,-541.1 230,-551.1 237,-551.1"/>
</g>
<!-- CALL_81c1c20 -->
<g id="node22" class="node">
<title>CALL_81c1c20</title>
<g id="a_node22"><a xlink:href="DEFINE_EDGE.svg" xlink:title="DEFINE_EDGE">
<polygon fill="lightgray" stroke="black" points="296.5,-469 170.5,-469 170.5,-465 166.5,-465 166.5,-461 170.5,-461 170.5,-441 166.5,-441 166.5,-437 170.5,-437 170.5,-433 296.5,-433 296.5,-469"/>
<polyline fill="none" stroke="black" points="170.5,-465 174.5,-465 174.5,-461 170.5,-461 "/>
<polyline fill="none" stroke="black" points="170.5,-441 174.5,-441 174.5,-437 170.5,-437 "/>
<text text-anchor="middle" x="233.5" y="-447.3" font-family="Times,serif" font-size="14.00">DEFINE_EDGE</text>
</a>
</g>
</g>
<!-- CALL_81bf740&#45;&gt;CALL_81c1c20 -->
<g id="edge20" class="edge">
<title>CALL_81bf740&#45;&gt;CALL_81c1c20</title>
<path fill="none" stroke="black" d="M233.5,-504.7C233.5,-496.98 233.5,-487.71 233.5,-479.11"/>
<polygon fill="black" stroke="black" points="237,-479.1 233.5,-469.1 230,-479.1 237,-479.1"/>
</g>
<!-- CALL_81c40c0 -->
<g id="node23" class="node">
<title>CALL_81c40c0</title>
<g id="a_node23"><a xlink:href="DEFINE_EDGE.svg" xlink:title="DEFINE_EDGE">
<polygon fill="lightgray" stroke="black" points="296.5,-397 170.5,-397 170.5,-393 166.5,-393 166.5,-389 170.5,-389 170.5,-369 166.5,-369 166.5,-365 170.5,-365 170.5,-361 296.5,-361 296.5,-397"/>
<polyline fill="none" stroke="black" points="170.5,-393 174.5,-393 174.5,-389 170.5,-389 "/>
<polyline fill="none" stroke="black" points="170.5,-369 174.5,-369 174.5,-365 170.5,-365 "/>
<text text-anchor="middle" x="233.5" y="-375.3" font-family="Times,serif" font-size="14.00">DEFINE_EDGE</text>
</a>
</g>
</g>
<!-- CALL_81c1c20&#45;&gt;CALL_81c40c0 -->
<g id="edge21" class="edge">
<title>CALL_81c1c20&#45;&gt;CALL_81c40c0</title>
<path fill="none" stroke="black" d="M233.5,-432.7C233.5,-424.98 233.5,-415.71 233.5,-407.11"/>
<polygon fill="black" stroke="black" points="237,-407.1 233.5,-397.1 230,-407.1 237,-407.1"/>
</g>
<!-- CALL_81c7ca0 -->
<g id="node24" class="node">
<title>CALL_81c7ca0</title>
<g id="a_node24"><a xlink:href="DEFINE_EDGE.svg" xlink:title="DEFINE_EDGE">
<polygon fill="lightgray" stroke="black" points="296.5,-325 170.5,-325 170.5,-321 166.5,-321 166.5,-317 170.5,-317 170.5,-297 166.5,-297 166.5,-293 170.5,-293 170.5,-289 296.5,-289 296.5,-325"/>
<polyline fill="none" stroke="black" points="170.5,-321 174.5,-321 174.5,-317 170.5,-317 "/>
<polyline fill="none" stroke="black" points="170.5,-297 174.5,-297 174.5,-293 170.5,-293 "/>
<text text-anchor="middle" x="233.5" y="-303.3" font-family="Times,serif" font-size="14.00">DEFINE_EDGE</text>
</a>
</g>
</g>
<!-- CALL_81c40c0&#45;&gt;CALL_81c7ca0 -->
<g id="edge22" class="edge">
<title>CALL_81c40c0&#45;&gt;CALL_81c7ca0</title>
<path fill="none" stroke="black" d="M233.5,-360.7C233.5,-352.98 233.5,-343.71 233.5,-335.11"/>
<polygon fill="black" stroke="black" points="237,-335.1 233.5,-325.1 230,-335.1 237,-335.1"/>
</g>
<!-- CALL_81ca240 -->
<g id="node25" class="node">
<title>CALL_81ca240</title>
<g id="a_node25"><a xlink:href="DEFINE_EDGE.svg" xlink:title="DEFINE_EDGE">
<polygon fill="lightgray" stroke="black" points="296.5,-253 170.5,-253 170.5,-249 166.5,-249 166.5,-245 170.5,-245 170.5,-225 166.5,-225 166.5,-221 170.5,-221 170.5,-217 296.5,-217 296.5,-253"/>
<polyline fill="none" stroke="black" points="170.5,-249 174.5,-249 174.5,-245 170.5,-245 "/>
<polyline fill="none" stroke="black" points="170.5,-225 174.5,-225 174.5,-221 170.5,-221 "/>
<text text-anchor="middle" x="233.5" y="-231.3" font-family="Times,serif" font-size="14.00">DEFINE_EDGE</text>
</a>
</g>
</g>
<!-- CALL_81c7ca0&#45;&gt;CALL_81ca240 -->
<g id="edge23" class="edge">
<title>CALL_81c7ca0&#45;&gt;CALL_81ca240</title>
<path fill="none" stroke="black" d="M233.5,-288.7C233.5,-280.98 233.5,-271.71 233.5,-263.11"/>
<polygon fill="black" stroke="black" points="237,-263.1 233.5,-253.1 230,-263.1 237,-263.1"/>
</g>
<!-- CALL_81cc7c0 -->
<g id="node26" class="node">
<title>CALL_81cc7c0</title>
<g id="a_node26"><a xlink:href="DEFINE_EDGE.svg" xlink:title="DEFINE_EDGE">
<polygon fill="lightgray" stroke="black" points="296.5,-181 170.5,-181 170.5,-177 166.5,-177 166.5,-173 170.5,-173 170.5,-153 166.5,-153 166.5,-149 170.5,-149 170.5,-145 296.5,-145 296.5,-181"/>
<polyline fill="none" stroke="black" points="170.5,-177 174.5,-177 174.5,-173 170.5,-173 "/>
<polyline fill="none" stroke="black" points="170.5,-153 174.5,-153 174.5,-149 170.5,-149 "/>
<text text-anchor="middle" x="233.5" y="-159.3" font-family="Times,serif" font-size="14.00">DEFINE_EDGE</text>
</a>
</g>
</g>
<!-- CALL_81ca240&#45;&gt;CALL_81cc7c0 -->
<g id="edge24" class="edge">
<title>CALL_81ca240&#45;&gt;CALL_81cc7c0</title>
<path fill="none" stroke="black" d="M233.5,-216.7C233.5,-208.98 233.5,-199.71 233.5,-191.11"/>
<polygon fill="black" stroke="black" points="237,-191.1 233.5,-181.1 230,-191.1 237,-191.1"/>
</g>
<!-- CALL_81cede0 -->
<g id="node27" class="node">
<title>CALL_81cede0</title>
<g id="a_node27"><a xlink:href="DEFINE_EDGE.svg" xlink:title="DEFINE_EDGE">
<polygon fill="lightgray" stroke="black" points="296.5,-109 170.5,-109 170.5,-105 166.5,-105 166.5,-101 170.5,-101 170.5,-81 166.5,-81 166.5,-77 170.5,-77 170.5,-73 296.5,-73 296.5,-109"/>
<polyline fill="none" stroke="black" points="170.5,-105 174.5,-105 174.5,-101 170.5,-101 "/>
<polyline fill="none" stroke="black" points="170.5,-81 174.5,-81 174.5,-77 170.5,-77 "/>
<text text-anchor="middle" x="233.5" y="-87.3" font-family="Times,serif" font-size="14.00">DEFINE_EDGE</text>
</a>
</g>
</g>
<!-- CALL_81cc7c0&#45;&gt;CALL_81cede0 -->
<g id="edge25" class="edge">
<title>CALL_81cc7c0&#45;&gt;CALL_81cede0</title>
<path fill="none" stroke="black" d="M233.5,-144.7C233.5,-136.98 233.5,-127.71 233.5,-119.11"/>
<polygon fill="black" stroke="black" points="237,-119.1 233.5,-109.1 230,-119.1 237,-119.1"/>
</g>
<!-- end_SUBPROGRAM_81bd900 -->
<g id="node28" class="node">
<title>end_SUBPROGRAM_81bd900</title>
<ellipse fill="black" stroke="black" cx="233.5" cy="-30" rx="7" ry="7"/>
</g>
<!-- CALL_81cede0&#45;&gt;end_SUBPROGRAM_81bd900 -->
<g id="edge27" class="edge">
<title>CALL_81cede0&#45;&gt;end_SUBPROGRAM_81bd900</title>
<path fill="none" stroke="black" d="M233.5,-72.93C233.5,-64.89 233.5,-55.33 233.5,-47.37"/>
<polygon fill="black" stroke="black" points="237,-47.22 233.5,-37.22 230,-47.22 237,-47.22"/>
</g>
</g>
</svg>
