<?xml version="1.0" encoding="UTF-8" standalone="no"?>
<!DOCTYPE svg PUBLIC "-//W3C//DTD SVG 1.1//EN"
 "http://www.w3.org/Graphics/SVG/1.1/DTD/svg11.dtd">
<!-- Generated by graphviz version 2.43.0 (0)
 -->
<!-- Title: INITIALIZE_HT3D_WALL_CELLS Pages: 1 -->
<svg width="2886pt" height="1257pt"
 viewBox="0.00 0.00 2886.00 1257.00" xmlns="http://www.w3.org/2000/svg" xmlns:xlink="http://www.w3.org/1999/xlink">
<g id="graph0" class="graph" transform="scale(1 1) rotate(0) translate(4 1253)">
<title>INITIALIZE_HT3D_WALL_CELLS</title>
<polygon fill="white" stroke="transparent" points="-4,4 -4,-1253 2882,-1253 2882,4 -4,4"/>
<text text-anchor="middle" x="1439" y="-7.8" font-family="Times,serif" font-size="14.00">INITIALIZE_HT3D_WALL_CELLS</text>
<g id="clust1" class="cluster">
<title>cluster_PRIMARY_WALL_LOOP</title>
<polygon fill="none" stroke="orange" points="8,-294 8,-1079 1349,-1079 1349,-294 8,-294"/>
<text text-anchor="middle" x="98.5" y="-1063.8" font-family="Times,serif" font-size="14.00">PRIMARY_WALL_LOOP</text>
</g>
<g id="clust2" class="cluster">
<title>cluster_PRIMARY_NODE_LOOP</title>
<polygon fill="none" stroke="orange" points="16,-302 16,-930 1341,-930 1341,-302 16,-302"/>
<text text-anchor="middle" x="108.5" y="-914.8" font-family="Times,serif" font-size="14.00">PRIMARY_NODE_LOOP</text>
</g>
<g id="clust3" class="cluster">
<title>cluster_ALTERNATE_WALL_LOOP</title>
<polygon fill="none" stroke="orange" points="172,-561 172,-636 506,-636 506,-561 172,-561"/>
<text text-anchor="middle" x="272.5" y="-620.8" font-family="Times,serif" font-size="14.00">ALTERNATE_WALL_LOOP</text>
</g>
<g id="clust4" class="cluster">
<title>cluster_ALTERNATE_THIN_WALL_LOOP</title>
<polygon fill="none" stroke="orange" points="172,-478 172,-553 506,-553 506,-478 172,-478"/>
<text text-anchor="middle" x="295" y="-537.8" font-family="Times,serif" font-size="14.00">ALTERNATE_THIN_WALL_LOOP</text>
</g>
<g id="clust5" class="cluster">
<title>cluster_OTHER_MESH_LOOP</title>
<polygon fill="none" stroke="orange" points="827,-702 827,-899 1177,-899 1177,-702 827,-702"/>
<text text-anchor="middle" x="912.5" y="-883.8" font-family="Times,serif" font-size="14.00">OTHER_MESH_LOOP</text>
</g>
<g id="clust6" class="cluster">
<title>cluster_ALTERNATE_WALL_LOOP_2</title>
<polygon fill="none" stroke="orange" points="835,-793 835,-868 1169,-868 1169,-793 835,-793"/>
<text text-anchor="middle" x="943.5" y="-852.8" font-family="Times,serif" font-size="14.00">ALTERNATE_WALL_LOOP_2</text>
</g>
<g id="clust7" class="cluster">
<title>cluster_ALTERNATE_WALL_LOOP_2D</title>
<polygon fill="none" stroke="orange" points="835,-710 835,-785 1169,-785 1169,-710 835,-710"/>
<text text-anchor="middle" x="949" y="-769.8" font-family="Times,serif" font-size="14.00">ALTERNATE_WALL_LOOP_2D</text>
</g>
<g id="clust8" class="cluster">
<title>cluster_PRIMARY_THIN_WALL_LOOP</title>
<polygon fill="none" stroke="orange" points="1583,-57 1583,-470 2870,-470 2870,-57 1583,-57"/>
<text text-anchor="middle" x="1696" y="-454.8" font-family="Times,serif" font-size="14.00">PRIMARY_THIN_WALL_LOOP</text>
</g>
<g id="clust9" class="cluster">
<title>cluster_PRIMARY_THIN_NODE_LOOP</title>
<polygon fill="none" stroke="orange" points="2025,-65 2025,-439 2862,-439 2862,-65 2025,-65"/>
<text text-anchor="middle" x="2140" y="-423.8" font-family="Times,serif" font-size="14.00">PRIMARY_THIN_NODE_LOOP</text>
</g>
<g id="clust10" class="cluster">
<title>cluster_ALTERNATE_WALL_LOOP_B</title>
<polygon fill="none" stroke="orange" points="2520,-302 2520,-377 2854,-377 2854,-302 2520,-302"/>
<text text-anchor="middle" x="2629" y="-361.8" font-family="Times,serif" font-size="14.00">ALTERNATE_WALL_LOOP_B</text>
</g>
<g id="clust11" class="cluster">
<title>cluster_ALTERNATE_THIN_WALL_LOOP_B</title>
<polygon fill="none" stroke="orange" points="2520,-211 2520,-286 2854,-286 2854,-211 2520,-211"/>
<text text-anchor="middle" x="2651.5" y="-270.8" font-family="Times,serif" font-size="14.00">ALTERNATE_THIN_WALL_LOOP_B</text>
</g>
<g id="clust12" class="cluster">
<title>cluster_OTHER_MESH_LOOP_B</title>
<polygon fill="none" stroke="orange" points="2162,-203 2162,-408 2512,-408 2512,-203 2162,-203"/>
<text text-anchor="middle" x="2256" y="-392.8" font-family="Times,serif" font-size="14.00">OTHER_MESH_LOOP_B</text>
</g>
<g id="clust13" class="cluster">
<title>cluster_ALTERNATE_WALL_LOOP_2B</title>
<polygon fill="none" stroke="orange" points="2170,-302 2170,-377 2504,-377 2504,-302 2170,-302"/>
<text text-anchor="middle" x="2283.5" y="-361.8" font-family="Times,serif" font-size="14.00">ALTERNATE_WALL_LOOP_2B</text>
</g>
<g id="clust14" class="cluster">
<title>cluster_ALTERNATE_WALL_LOOP_2C</title>
<polygon fill="none" stroke="orange" points="2170,-211 2170,-286 2504,-286 2504,-211 2170,-211"/>
<text text-anchor="middle" x="2283.5" y="-270.8" font-family="Times,serif" font-size="14.00">ALTERNATE_WALL_LOOP_2C</text>
</g>
<!-- start_SUBPROGRAM_8712760 -->
<g id="node1" class="node">
<title>start_SUBPROGRAM_8712760</title>
<ellipse fill="none" stroke="black" cx="418" cy="-1242" rx="7" ry="7"/>
</g>
<!-- COMMENT_8503fc0+1 -->
<g id="node2" class="node">
<title>COMMENT_8503fc0+1</title>
<polygon fill="none" stroke="black" points="817,-1199 13,-1199 13,-1161 823,-1161 823,-1193 817,-1199"/>
<polyline fill="none" stroke="black" points="817,-1199 817,-1193 "/>
<polyline fill="none" stroke="black" points="823,-1193 817,-1193 "/>
<text text-anchor="middle" x="418" y="-1183.8" font-family="Times,serif" font-size="14.00">!&gt; brief Set up weighting arrays to transfer 3D solid phase temperatures from one direction sweep to another.</text>
<text text-anchor="middle" x="418" y="-1168.8" font-family="Times,serif" font-size="14.00">!&gt; param NM Mesh index</text>
</g>
<!-- start_SUBPROGRAM_8712760&#45;&gt;COMMENT_8503fc0+1 -->
<g id="edge1" class="edge">
<title>start_SUBPROGRAM_8712760&#45;&gt;COMMENT_8503fc0+1</title>
<path fill="none" stroke="black" d="M418,-1234.58C418,-1228.41 418,-1218.64 418,-1209.12"/>
<polygon fill="black" stroke="black" points="421.5,-1209.08 418,-1199.08 414.5,-1209.08 421.5,-1209.08"/>
</g>
<!-- COMMENT_850c240+1 -->
<g id="node3" class="node">
<title>COMMENT_850c240+1</title>
<polygon fill="none" stroke="black" points="811.5,-1125 18.5,-1125 18.5,-1087 817.5,-1087 817.5,-1119 811.5,-1125"/>
<polyline fill="none" stroke="black" points="811.5,-1125 811.5,-1119 "/>
<polyline fill="none" stroke="black" points="817.5,-1119 811.5,-1119 "/>
<text text-anchor="middle" x="418" y="-1109.8" font-family="Times,serif" font-size="14.00">Loop over all 3&#45;D wall cells, and for each interior node, find wall or thin wall cells in the other two &quot;alternate&quot;</text>
<text text-anchor="middle" x="418" y="-1094.8" font-family="Times,serif" font-size="14.00">coordinate directions</text>
</g>
<!-- COMMENT_8503fc0+1&#45;&gt;COMMENT_850c240+1 -->
<g id="edge2" class="edge">
<title>COMMENT_8503fc0+1&#45;&gt;COMMENT_850c240+1</title>
<path fill="none" stroke="black" d="M418,-1160.83C418,-1153.13 418,-1143.97 418,-1135.42"/>
<polygon fill="black" stroke="black" points="421.5,-1135.41 418,-1125.41 414.5,-1135.41 421.5,-1135.41"/>
</g>
<!-- COMMENT_8518b60+1 -->
<g id="node4" class="node">
<title>COMMENT_8518b60+1</title>
<polygon fill="none" stroke="black" points="744.5,-1048 85.5,-1048 85.5,-1012 750.5,-1012 750.5,-1042 744.5,-1048"/>
<polyline fill="none" stroke="black" points="744.5,-1048 744.5,-1042 "/>
<polyline fill="none" stroke="black" points="750.5,-1042 744.5,-1042 "/>
<text text-anchor="middle" x="418" y="-1026.3" font-family="Times,serif" font-size="14.00">Allocate variables that hold information about the wall cells in the two alternate directions</text>
</g>
<!-- COMMENT_850c240+1&#45;&gt;COMMENT_8518b60+1 -->
<g id="edge13" class="edge">
<title>COMMENT_850c240+1&#45;&gt;COMMENT_8518b60+1</title>
<path fill="none" stroke="black" d="M418,-1086.71C418,-1078.13 418,-1067.72 418,-1058.24"/>
<polygon fill="black" stroke="black" points="421.5,-1058.07 418,-1048.07 414.5,-1058.07 421.5,-1058.07"/>
</g>
<!-- COMMENT_85268e0+1 -->
<g id="node5" class="node">
<title>COMMENT_85268e0+1</title>
<polygon fill="none" stroke="black" points="682.5,-976 147.5,-976 147.5,-938 688.5,-938 688.5,-970 682.5,-976"/>
<polyline fill="none" stroke="black" points="682.5,-976 682.5,-970 "/>
<polyline fill="none" stroke="black" points="688.5,-970 682.5,-970 "/>
<text text-anchor="middle" x="418" y="-960.8" font-family="Times,serif" font-size="14.00">Loop over nodes of primary wall cell. For each internal &quot;node&quot;, search for</text>
<text text-anchor="middle" x="418" y="-945.8" font-family="Times,serif" font-size="14.00">the two alternate wall cells whose 1&#45;D paths intersect the node.</text>
</g>
<!-- COMMENT_8518b60+1&#45;&gt;COMMENT_85268e0+1 -->
<g id="edge3" class="edge">
<title>COMMENT_8518b60+1&#45;&gt;COMMENT_85268e0+1</title>
<path fill="none" stroke="black" d="M418,-1011.81C418,-1004.11 418,-994.82 418,-986.15"/>
<polygon fill="black" stroke="black" points="421.5,-986.02 418,-976.02 414.5,-986.02 421.5,-986.02"/>
</g>
<!-- COMMENT_85346a0+1 -->
<g id="node6" class="node">
<title>COMMENT_85346a0+1</title>
<polygon fill="none" stroke="black" points="806,-837 24,-837 24,-801 812,-801 812,-831 806,-837"/>
<polyline fill="none" stroke="black" points="806,-837 806,-831 "/>
<polyline fill="none" stroke="black" points="812,-831 806,-831 "/>
<text text-anchor="middle" x="418" y="-815.3" font-family="Times,serif" font-size="14.00">Save the mesh number and indices of the mesh cell (II,JJ,KK) in which the center of the solid node is located</text>
</g>
<!-- COMMENT_85268e0+1&#45;&gt;COMMENT_85346a0+1 -->
<g id="edge12" class="edge">
<title>COMMENT_85268e0+1&#45;&gt;COMMENT_85346a0+1</title>
<path fill="none" stroke="black" d="M418,-937.94C418,-914.82 418,-874.55 418,-847.58"/>
<polygon fill="black" stroke="black" points="421.5,-847.27 418,-837.27 414.5,-847.27 421.5,-847.27"/>
</g>
<!-- CALL_853bac0 -->
<g id="node7" class="node">
<title>CALL_853bac0</title>
<g id="a_node7"><a xlink:href="SEARCH_OTHER_MESHES.svg" xlink:title="SEARCH_OTHER_MESHES">
<polygon fill="lightgray" stroke="black" points="484.5,-754 271.5,-754 271.5,-750 267.5,-750 267.5,-746 271.5,-746 271.5,-726 267.5,-726 267.5,-722 271.5,-722 271.5,-718 484.5,-718 484.5,-754"/>
<polyline fill="none" stroke="black" points="271.5,-750 275.5,-750 275.5,-746 271.5,-746 "/>
<polyline fill="none" stroke="black" points="271.5,-726 275.5,-726 275.5,-722 271.5,-722 "/>
<text text-anchor="middle" x="378" y="-732.3" font-family="Times,serif" font-size="14.00">SEARCH_OTHER_MESHES</text>
</a>
</g>
</g>
<!-- COMMENT_85346a0+1&#45;&gt;CALL_853bac0 -->
<g id="edge4" class="edge">
<title>COMMENT_85346a0+1&#45;&gt;CALL_853bac0</title>
<path fill="none" stroke="black" d="M409.52,-800.82C404.16,-789.98 397.13,-775.74 391.07,-763.47"/>
<polygon fill="black" stroke="black" points="394.04,-761.57 386.47,-754.15 387.76,-764.67 394.04,-761.57"/>
</g>
<!-- COMMENT_853b760+1 -->
<g id="node8" class="node">
<title>COMMENT_853b760+1</title>
<polygon fill="none" stroke="black" points="647.5,-681 24.5,-681 24.5,-645 653.5,-645 653.5,-675 647.5,-681"/>
<polyline fill="none" stroke="black" points="647.5,-681 647.5,-675 "/>
<polyline fill="none" stroke="black" points="653.5,-675 647.5,-675 "/>
<text text-anchor="middle" x="339" y="-659.3" font-family="Times,serif" font-size="14.00">Loop over wall cells searching for the &quot;alternate&quot; wall cells whose 1&#45;D path intersects</text>
</g>
<!-- CALL_853bac0&#45;&gt;COMMENT_853b760+1 -->
<g id="edge5" class="edge">
<title>CALL_853bac0&#45;&gt;COMMENT_853b760+1</title>
<path fill="none" stroke="black" d="M368.56,-717.81C363.96,-709.44 358.33,-699.2 353.23,-689.9"/>
<polygon fill="black" stroke="black" points="356.24,-688.11 348.35,-681.03 350.1,-691.48 356.24,-688.11"/>
</g>
<!-- CALL_8541fe0 -->
<g id="node9" class="node">
<title>CALL_8541fe0</title>
<g id="a_node9"><a xlink:href="SEARCH_FOR_ALTERNATE_WALL_CELLS.svg" xlink:title="SEARCH_FOR_ALTERNATE_WALL_CELLS">
<polygon fill="lightgray" stroke="black" points="497.5,-605 180.5,-605 180.5,-601 176.5,-601 176.5,-597 180.5,-597 180.5,-577 176.5,-577 176.5,-573 180.5,-573 180.5,-569 497.5,-569 497.5,-605"/>
<polyline fill="none" stroke="black" points="180.5,-601 184.5,-601 184.5,-597 180.5,-597 "/>
<polyline fill="none" stroke="black" points="180.5,-577 184.5,-577 184.5,-573 180.5,-573 "/>
<text text-anchor="middle" x="339" y="-583.3" font-family="Times,serif" font-size="14.00">SEARCH_FOR_ALTERNATE_WALL_CELLS</text>
</a>
</g>
</g>
<!-- COMMENT_853b760+1&#45;&gt;CALL_8541fe0 -->
<g id="edge6" class="edge">
<title>COMMENT_853b760+1&#45;&gt;CALL_8541fe0</title>
<path fill="none" stroke="black" d="M339,-644.84C339,-636.06 339,-625.16 339,-615.27"/>
<polygon fill="black" stroke="black" points="342.5,-615.07 339,-605.07 335.5,-615.07 342.5,-615.07"/>
</g>
<!-- CALL_8543480 -->
<g id="node10" class="node">
<title>CALL_8543480</title>
<g id="a_node10"><a xlink:href="SEARCH_FOR_ALTERNATE_WALL_CELLS.svg" xlink:title="SEARCH_FOR_ALTERNATE_WALL_CELLS">
<polygon fill="lightgray" stroke="black" points="497.5,-522 180.5,-522 180.5,-518 176.5,-518 176.5,-514 180.5,-514 180.5,-494 176.5,-494 176.5,-490 180.5,-490 180.5,-486 497.5,-486 497.5,-522"/>
<polyline fill="none" stroke="black" points="180.5,-518 184.5,-518 184.5,-514 180.5,-514 "/>
<polyline fill="none" stroke="black" points="180.5,-494 184.5,-494 184.5,-490 180.5,-490 "/>
<text text-anchor="middle" x="339" y="-500.3" font-family="Times,serif" font-size="14.00">SEARCH_FOR_ALTERNATE_WALL_CELLS</text>
</a>
</g>
</g>
<!-- CALL_8541fe0&#45;&gt;CALL_8543480 -->
<g id="edge7" class="edge">
<title>CALL_8541fe0&#45;&gt;CALL_8543480</title>
<path fill="none" stroke="black" d="M339,-568.82C339,-558.19 339,-544.31 339,-532.2"/>
<polygon fill="black" stroke="black" points="342.5,-532.15 339,-522.15 335.5,-532.15 342.5,-532.15"/>
</g>
<!-- DO_8546c00 -->
<g id="node13" class="node">
<title>DO_8546c00</title>
<ellipse fill="none" stroke="black" cx="339" cy="-328" rx="69.59" ry="18"/>
<text text-anchor="middle" x="339" y="-324.3" font-family="Times,serif" font-size="14.00">DO_8546c00</text>
</g>
<!-- CALL_8543480&#45;&gt;DO_8546c00 -->
<g id="edge9" class="edge">
<title>CALL_8543480&#45;&gt;DO_8546c00</title>
<path fill="none" stroke="black" d="M339,-486C339,-455.85 339,-392.79 339,-356.43"/>
<polygon fill="black" stroke="black" points="342.5,-356.07 339,-346.07 335.5,-356.07 342.5,-356.07"/>
</g>
<!-- CALL_8546980 -->
<g id="node11" class="node">
<title>CALL_8546980</title>
<g id="a_node11"><a xlink:href="SEARCH_FOR_ALTERNATE_WALL_CELLS.svg" xlink:title="SEARCH_FOR_ALTERNATE_WALL_CELLS">
<polygon fill="lightgray" stroke="black" points="1160.5,-837 843.5,-837 843.5,-833 839.5,-833 839.5,-829 843.5,-829 843.5,-809 839.5,-809 839.5,-805 843.5,-805 843.5,-801 1160.5,-801 1160.5,-837"/>
<polyline fill="none" stroke="black" points="843.5,-833 847.5,-833 847.5,-829 843.5,-829 "/>
<polyline fill="none" stroke="black" points="843.5,-809 847.5,-809 847.5,-805 843.5,-805 "/>
<text text-anchor="middle" x="1002" y="-815.3" font-family="Times,serif" font-size="14.00">SEARCH_FOR_ALTERNATE_WALL_CELLS</text>
</a>
</g>
</g>
<!-- CALL_8549360 -->
<g id="node12" class="node">
<title>CALL_8549360</title>
<g id="a_node12"><a xlink:href="SEARCH_FOR_ALTERNATE_WALL_CELLS.svg" xlink:title="SEARCH_FOR_ALTERNATE_WALL_CELLS">
<polygon fill="lightgray" stroke="black" points="1160.5,-754 843.5,-754 843.5,-750 839.5,-750 839.5,-746 843.5,-746 843.5,-726 839.5,-726 839.5,-722 843.5,-722 843.5,-718 1160.5,-718 1160.5,-754"/>
<polyline fill="none" stroke="black" points="843.5,-750 847.5,-750 847.5,-746 843.5,-746 "/>
<polyline fill="none" stroke="black" points="843.5,-726 847.5,-726 847.5,-722 843.5,-722 "/>
<text text-anchor="middle" x="1002" y="-732.3" font-family="Times,serif" font-size="14.00">SEARCH_FOR_ALTERNATE_WALL_CELLS</text>
</a>
</g>
</g>
<!-- CALL_8546980&#45;&gt;CALL_8549360 -->
<g id="edge8" class="edge">
<title>CALL_8546980&#45;&gt;CALL_8549360</title>
<path fill="none" stroke="black" d="M1002,-800.82C1002,-790.19 1002,-776.31 1002,-764.2"/>
<polygon fill="black" stroke="black" points="1005.5,-764.15 1002,-754.15 998.5,-764.15 1005.5,-764.15"/>
</g>
<!-- COMMENT_8549f80+1 -->
<g id="node14" class="node">
<title>COMMENT_8549f80+1</title>
<polygon fill="none" stroke="black" points="1326.5,-682 671.5,-682 671.5,-644 1332.5,-644 1332.5,-676 1326.5,-682"/>
<polyline fill="none" stroke="black" points="1326.5,-682 1326.5,-676 "/>
<polyline fill="none" stroke="black" points="1332.5,-676 1326.5,-676 "/>
<text text-anchor="middle" x="1002" y="-666.8" font-family="Times,serif" font-size="14.00">Check to see if the HT3D solid object spans the entire width of the computational domain.</text>
<text text-anchor="middle" x="1002" y="-651.8" font-family="Times,serif" font-size="14.00">There must be at least one exposed surface cell in each coordinate direction.</text>
</g>
<!-- CALL_8549360&#45;&gt;COMMENT_8549f80+1 -->
<g id="edge10" class="edge">
<title>CALL_8549360&#45;&gt;COMMENT_8549f80+1</title>
<path fill="none" stroke="black" d="M1002,-717.81C1002,-710.11 1002,-700.82 1002,-692.15"/>
<polygon fill="black" stroke="black" points="1005.5,-692.02 1002,-682.02 998.5,-692.02 1005.5,-692.02"/>
</g>
<!-- COMMENT_854d960+1 -->
<g id="node15" class="node">
<title>COMMENT_854d960+1</title>
<polygon fill="none" stroke="black" points="1321,-605 689,-605 689,-569 1327,-569 1327,-599 1321,-605"/>
<polyline fill="none" stroke="black" points="1321,-605 1321,-599 "/>
<polyline fill="none" stroke="black" points="1327,-599 1321,-599 "/>
<text text-anchor="middle" x="1008" y="-583.3" font-family="Times,serif" font-size="14.00">Renormalize weighting factors of the alternate, intersecting 1&#45;D heat conduction paths</text>
</g>
<!-- COMMENT_8549f80+1&#45;&gt;COMMENT_854d960+1 -->
<g id="edge11" class="edge">
<title>COMMENT_8549f80+1&#45;&gt;COMMENT_854d960+1</title>
<path fill="none" stroke="black" d="M1003.48,-643.71C1004.18,-635.13 1005.02,-624.72 1005.79,-615.24"/>
<polygon fill="black" stroke="black" points="1009.3,-615.32 1006.62,-605.07 1002.32,-614.75 1009.3,-615.32"/>
</g>
<!-- COMMENT_8568e00+1 -->
<g id="node16" class="node">
<title>COMMENT_8568e00+1</title>
<polygon fill="none" stroke="black" points="2245,-522 1357,-522 1357,-486 2251,-486 2251,-516 2245,-522"/>
<polyline fill="none" stroke="black" points="2245,-522 2245,-516 "/>
<polyline fill="none" stroke="black" points="2251,-516 2245,-516 "/>
<text text-anchor="middle" x="1804" y="-500.3" font-family="Times,serif" font-size="14.00">Loop over all thin wall cells, all of which are 3&#45;D. When found, find the wall or thin walls in the other coordinate directions.</text>
</g>
<!-- COMMENT_854d960+1&#45;&gt;COMMENT_8568e00+1 -->
<g id="edge14" class="edge">
<title>COMMENT_854d960+1&#45;&gt;COMMENT_8568e00+1</title>
<path fill="none" stroke="black" d="M1175.35,-568.97C1307.7,-555.5 1492.01,-536.75 1626.84,-523.03"/>
<polygon fill="black" stroke="black" points="1627.28,-526.5 1636.87,-522.01 1626.57,-519.54 1627.28,-526.5"/>
</g>
<!-- COMMENT_857c580+1 -->
<g id="node17" class="node">
<title>COMMENT_857c580+1</title>
<polygon fill="none" stroke="black" points="2010.5,-346 1591.5,-346 1591.5,-310 2016.5,-310 2016.5,-340 2010.5,-346"/>
<polyline fill="none" stroke="black" points="2010.5,-346 2010.5,-340 "/>
<polyline fill="none" stroke="black" points="2016.5,-340 2010.5,-340 "/>
<text text-anchor="middle" x="1804" y="-324.3" font-family="Times,serif" font-size="14.00">Loop over the internal nodes of the primary thin wall cell</text>
</g>
<!-- COMMENT_8568e00+1&#45;&gt;COMMENT_857c580+1 -->
<g id="edge21" class="edge">
<title>COMMENT_8568e00+1&#45;&gt;COMMENT_857c580+1</title>
<path fill="none" stroke="black" d="M1804,-486C1804,-455.85 1804,-392.79 1804,-356.43"/>
<polygon fill="black" stroke="black" points="1807.5,-356.07 1804,-346.07 1800.5,-356.07 1807.5,-356.07"/>
</g>
<!-- DO_858dec0 -->
<g id="node25" class="node">
<title>DO_858dec0</title>
<ellipse fill="none" stroke="black" cx="1804" cy="-237" rx="69.59" ry="18"/>
<text text-anchor="middle" x="1804" y="-233.3" font-family="Times,serif" font-size="14.00">DO_858dec0</text>
</g>
<!-- COMMENT_857c580+1&#45;&gt;DO_858dec0 -->
<g id="edge20" class="edge">
<title>COMMENT_857c580+1&#45;&gt;DO_858dec0</title>
<path fill="none" stroke="black" d="M1804,-309.84C1804,-297.28 1804,-279.98 1804,-265.5"/>
<polygon fill="black" stroke="black" points="1807.5,-265.11 1804,-255.11 1800.5,-265.11 1807.5,-265.11"/>
</g>
<!-- CALL_858dce0 -->
<g id="node18" class="node">
<title>CALL_858dce0</title>
<g id="a_node18"><a xlink:href="SEARCH_FOR_ALTERNATE_WALL_CELLS.svg" xlink:title="SEARCH_FOR_ALTERNATE_WALL_CELLS">
<polygon fill="lightgray" stroke="black" points="2845.5,-346 2528.5,-346 2528.5,-342 2524.5,-342 2524.5,-338 2528.5,-338 2528.5,-318 2524.5,-318 2524.5,-314 2528.5,-314 2528.5,-310 2845.5,-310 2845.5,-346"/>
<polyline fill="none" stroke="black" points="2528.5,-342 2532.5,-342 2532.5,-338 2528.5,-338 "/>
<polyline fill="none" stroke="black" points="2528.5,-318 2532.5,-318 2532.5,-314 2528.5,-314 "/>
<text text-anchor="middle" x="2687" y="-324.3" font-family="Times,serif" font-size="14.00">SEARCH_FOR_ALTERNATE_WALL_CELLS</text>
</a>
</g>
</g>
<!-- CALL_858f180 -->
<g id="node19" class="node">
<title>CALL_858f180</title>
<g id="a_node19"><a xlink:href="SEARCH_FOR_ALTERNATE_WALL_CELLS.svg" xlink:title="SEARCH_FOR_ALTERNATE_WALL_CELLS">
<polygon fill="lightgray" stroke="black" points="2845.5,-255 2528.5,-255 2528.5,-251 2524.5,-251 2524.5,-247 2528.5,-247 2528.5,-227 2524.5,-227 2524.5,-223 2528.5,-223 2528.5,-219 2845.5,-219 2845.5,-255"/>
<polyline fill="none" stroke="black" points="2528.5,-251 2532.5,-251 2532.5,-247 2528.5,-247 "/>
<polyline fill="none" stroke="black" points="2528.5,-227 2532.5,-227 2532.5,-223 2528.5,-223 "/>
<text text-anchor="middle" x="2687" y="-233.3" font-family="Times,serif" font-size="14.00">SEARCH_FOR_ALTERNATE_WALL_CELLS</text>
</a>
</g>
</g>
<!-- CALL_858dce0&#45;&gt;CALL_858f180 -->
<g id="edge15" class="edge">
<title>CALL_858dce0&#45;&gt;CALL_858f180</title>
<path fill="none" stroke="black" d="M2687,-309.84C2687,-297.28 2687,-279.98 2687,-265.5"/>
<polygon fill="black" stroke="black" points="2690.5,-265.11 2687,-255.11 2683.5,-265.11 2690.5,-265.11"/>
</g>
<!-- DO_8592820 -->
<g id="node22" class="node">
<title>DO_8592820</title>
<ellipse fill="none" stroke="black" cx="2783" cy="-164" rx="70.69" ry="18"/>
<text text-anchor="middle" x="2783" y="-160.3" font-family="Times,serif" font-size="14.00">DO_8592820</text>
</g>
<!-- CALL_858f180&#45;&gt;DO_8592820 -->
<g id="edge17" class="edge">
<title>CALL_858f180&#45;&gt;DO_8592820</title>
<path fill="none" stroke="black" d="M2710.24,-218.81C2723.01,-209.36 2739.01,-197.53 2752.75,-187.37"/>
<polygon fill="black" stroke="black" points="2755.01,-190.06 2760.96,-181.3 2750.84,-184.43 2755.01,-190.06"/>
</g>
<!-- CALL_85925e0 -->
<g id="node20" class="node">
<title>CALL_85925e0</title>
<g id="a_node20"><a xlink:href="SEARCH_FOR_ALTERNATE_WALL_CELLS.svg" xlink:title="SEARCH_FOR_ALTERNATE_WALL_CELLS">
<polygon fill="lightgray" stroke="black" points="2495.5,-346 2178.5,-346 2178.5,-342 2174.5,-342 2174.5,-338 2178.5,-338 2178.5,-318 2174.5,-318 2174.5,-314 2178.5,-314 2178.5,-310 2495.5,-310 2495.5,-346"/>
<polyline fill="none" stroke="black" points="2178.5,-342 2182.5,-342 2182.5,-338 2178.5,-338 "/>
<polyline fill="none" stroke="black" points="2178.5,-318 2182.5,-318 2182.5,-314 2178.5,-314 "/>
<text text-anchor="middle" x="2337" y="-324.3" font-family="Times,serif" font-size="14.00">SEARCH_FOR_ALTERNATE_WALL_CELLS</text>
</a>
</g>
</g>
<!-- CALL_8594fa0 -->
<g id="node21" class="node">
<title>CALL_8594fa0</title>
<g id="a_node21"><a xlink:href="SEARCH_FOR_ALTERNATE_WALL_CELLS.svg" xlink:title="SEARCH_FOR_ALTERNATE_WALL_CELLS">
<polygon fill="lightgray" stroke="black" points="2495.5,-255 2178.5,-255 2178.5,-251 2174.5,-251 2174.5,-247 2178.5,-247 2178.5,-227 2174.5,-227 2174.5,-223 2178.5,-223 2178.5,-219 2495.5,-219 2495.5,-255"/>
<polyline fill="none" stroke="black" points="2178.5,-251 2182.5,-251 2182.5,-247 2178.5,-247 "/>
<polyline fill="none" stroke="black" points="2178.5,-227 2182.5,-227 2182.5,-223 2178.5,-223 "/>
<text text-anchor="middle" x="2337" y="-233.3" font-family="Times,serif" font-size="14.00">SEARCH_FOR_ALTERNATE_WALL_CELLS</text>
</a>
</g>
</g>
<!-- CALL_85925e0&#45;&gt;CALL_8594fa0 -->
<g id="edge16" class="edge">
<title>CALL_85925e0&#45;&gt;CALL_8594fa0</title>
<path fill="none" stroke="black" d="M2337,-309.84C2337,-297.28 2337,-279.98 2337,-265.5"/>
<polygon fill="black" stroke="black" points="2340.5,-265.11 2337,-255.11 2333.5,-265.11 2340.5,-265.11"/>
</g>
<!-- COMMENT_8595ba0+1 -->
<g id="node23" class="node">
<title>COMMENT_8595ba0+1</title>
<polygon fill="none" stroke="black" points="2688.5,-183 2033.5,-183 2033.5,-145 2694.5,-145 2694.5,-177 2688.5,-183"/>
<polyline fill="none" stroke="black" points="2688.5,-183 2688.5,-177 "/>
<polyline fill="none" stroke="black" points="2694.5,-177 2688.5,-177 "/>
<text text-anchor="middle" x="2364" y="-167.8" font-family="Times,serif" font-size="14.00">Check to see if the HT3D solid object spans the entire width of the computational domain.</text>
<text text-anchor="middle" x="2364" y="-152.8" font-family="Times,serif" font-size="14.00">There must be at least one exposed surface cell in each coordinate direction.</text>
</g>
<!-- CALL_8594fa0&#45;&gt;COMMENT_8595ba0+1 -->
<g id="edge18" class="edge">
<title>CALL_8594fa0&#45;&gt;COMMENT_8595ba0+1</title>
<path fill="none" stroke="black" d="M2343.54,-218.81C2346.53,-210.94 2350.15,-201.41 2353.51,-192.58"/>
<polygon fill="black" stroke="black" points="2356.86,-193.61 2357.15,-183.02 2350.32,-191.12 2356.86,-193.61"/>
</g>
<!-- COMMENT_8586e20+1 -->
<g id="node24" class="node">
<title>COMMENT_8586e20+1</title>
<polygon fill="none" stroke="black" points="2611.5,-109 2110.5,-109 2110.5,-73 2617.5,-73 2617.5,-103 2611.5,-109"/>
<polyline fill="none" stroke="black" points="2611.5,-109 2611.5,-103 "/>
<polyline fill="none" stroke="black" points="2617.5,-103 2611.5,-103 "/>
<text text-anchor="middle" x="2364" y="-87.3" font-family="Times,serif" font-size="14.00">Renormalize the weighting factors for the temperature interpolation</text>
</g>
<!-- COMMENT_8595ba0+1&#45;&gt;COMMENT_8586e20+1 -->
<g id="edge19" class="edge">
<title>COMMENT_8595ba0+1&#45;&gt;COMMENT_8586e20+1</title>
<path fill="none" stroke="black" d="M2364,-144.72C2364,-136.97 2364,-127.79 2364,-119.27"/>
<polygon fill="black" stroke="black" points="2367.5,-119 2364,-109 2360.5,-119 2367.5,-119"/>
</g>
<!-- end_SUBPROGRAM_8712760 -->
<g id="node26" class="node">
<title>end_SUBPROGRAM_8712760</title>
<ellipse fill="black" stroke="black" cx="2364" cy="-30" rx="7" ry="7"/>
</g>
<!-- COMMENT_8586e20+1&#45;&gt;end_SUBPROGRAM_8712760 -->
<g id="edge22" class="edge">
<title>COMMENT_8586e20+1&#45;&gt;end_SUBPROGRAM_8712760</title>
<path fill="none" stroke="black" d="M2364,-72.93C2364,-64.89 2364,-55.33 2364,-47.37"/>
<polygon fill="black" stroke="black" points="2367.5,-47.22 2364,-37.22 2360.5,-47.22 2367.5,-47.22"/>
</g>
</g>
</svg>
