<?xml version="1.0" encoding="UTF-8" standalone="no"?>
<!DOCTYPE svg PUBLIC "-//W3C//DTD SVG 1.1//EN"
 "http://www.w3.org/Graphics/SVG/1.1/DTD/svg11.dtd">
<!-- Generated by graphviz version 2.43.0 (0)
 -->
<!-- Title: INITIAL_NOISE Pages: 1 -->
<svg width="746pt" height="961pt"
 viewBox="0.00 0.00 746.00 961.00" xmlns="http://www.w3.org/2000/svg" xmlns:xlink="http://www.w3.org/1999/xlink">
<g id="graph0" class="graph" transform="scale(1 1) rotate(0) translate(4 957)">
<title>INITIAL_NOISE</title>
<polygon fill="white" stroke="transparent" points="-4,4 -4,-957 742,-957 742,4 -4,4"/>
<text text-anchor="middle" x="369" y="-7.8" font-family="Times,serif" font-size="14.00">INITIAL_NOISE</text>
<!-- start_SUBPROGRAM_8fa9260 -->
<g id="node1" class="node">
<title>start_SUBPROGRAM_8fa9260</title>
<ellipse fill="none" stroke="black" cx="369" cy="-946" rx="7" ry="7"/>
</g>
<!-- COMMENT_8f68700+1 -->
<g id="node2" class="node">
<title>COMMENT_8f68700+1</title>
<polygon fill="none" stroke="black" points="590.5,-903 141.5,-903 141.5,-865 596.5,-865 596.5,-897 590.5,-903"/>
<polyline fill="none" stroke="black" points="590.5,-903 590.5,-897 "/>
<polyline fill="none" stroke="black" points="596.5,-897 590.5,-897 "/>
<text text-anchor="middle" x="369" y="-887.8" font-family="Times,serif" font-size="14.00">!&gt; brief Generate random noise at the start of the simulation</text>
<text text-anchor="middle" x="369" y="-872.8" font-family="Times,serif" font-size="14.00">!&gt; param NM Mesh number</text>
</g>
<!-- start_SUBPROGRAM_8fa9260&#45;&gt;COMMENT_8f68700+1 -->
<g id="edge1" class="edge">
<title>start_SUBPROGRAM_8fa9260&#45;&gt;COMMENT_8f68700+1</title>
<path fill="none" stroke="black" d="M369,-938.58C369,-932.41 369,-922.64 369,-913.12"/>
<polygon fill="black" stroke="black" points="372.5,-913.08 369,-903.08 365.5,-913.08 372.5,-913.08"/>
</g>
<!-- COMMENT_8f6a060+1 -->
<g id="node3" class="node">
<title>COMMENT_8f6a060+1</title>
<polygon fill="none" stroke="black" points="732,-829 0,-829 0,-793 738,-793 738,-823 732,-829"/>
<polyline fill="none" stroke="black" points="732,-829 732,-823 "/>
<polyline fill="none" stroke="black" points="738,-823 732,-823 "/>
<text text-anchor="middle" x="369" y="-807.3" font-family="Times,serif" font-size="14.00">Waste a few calls to RANDOM_NUMBER to avoid generating the exact same sequence on each mesh</text>
</g>
<!-- COMMENT_8f68700+1&#45;&gt;COMMENT_8f6a060+1 -->
<g id="edge2" class="edge">
<title>COMMENT_8f68700+1&#45;&gt;COMMENT_8f6a060+1</title>
<path fill="none" stroke="black" d="M369,-864.72C369,-856.97 369,-847.79 369,-839.27"/>
<polygon fill="black" stroke="black" points="372.5,-839 369,-829 365.5,-839 372.5,-839"/>
</g>
<!-- CALL_8f6a060 -->
<g id="node4" class="node">
<title>CALL_8f6a060</title>
<g id="a_node4"><a xlink:href="RANDOM_SEED.svg" xlink:title="RANDOM_SEED">
<polygon fill="lightgray" stroke="black" points="436,-757 302,-757 302,-753 298,-753 298,-749 302,-749 302,-729 298,-729 298,-725 302,-725 302,-721 436,-721 436,-757"/>
<polyline fill="none" stroke="black" points="302,-753 306,-753 306,-749 302,-749 "/>
<polyline fill="none" stroke="black" points="302,-729 306,-729 306,-725 302,-725 "/>
<text text-anchor="middle" x="369" y="-735.3" font-family="Times,serif" font-size="14.00">RANDOM_SEED</text>
</a>
</g>
</g>
<!-- COMMENT_8f6a060+1&#45;&gt;CALL_8f6a060 -->
<g id="edge3" class="edge">
<title>COMMENT_8f6a060+1&#45;&gt;CALL_8f6a060</title>
<path fill="none" stroke="black" d="M369,-792.7C369,-784.98 369,-775.71 369,-767.11"/>
<polygon fill="black" stroke="black" points="372.5,-767.1 369,-757.1 365.5,-767.1 372.5,-767.1"/>
</g>
<!-- CALL_8f68c80 -->
<g id="node5" class="node">
<title>CALL_8f68c80</title>
<g id="a_node5"><a xlink:href="CHKMEMERR.svg" xlink:title="CHKMEMERR">
<polygon fill="lightgray" stroke="black" points="429,-685 309,-685 309,-681 305,-681 305,-677 309,-677 309,-657 305,-657 305,-653 309,-653 309,-649 429,-649 429,-685"/>
<polyline fill="none" stroke="black" points="309,-681 313,-681 313,-677 309,-677 "/>
<polyline fill="none" stroke="black" points="309,-657 313,-657 313,-653 309,-653 "/>
<text text-anchor="middle" x="369" y="-663.3" font-family="Times,serif" font-size="14.00">CHKMEMERR</text>
</a>
</g>
</g>
<!-- CALL_8f6a060&#45;&gt;CALL_8f68c80 -->
<g id="edge4" class="edge">
<title>CALL_8f6a060&#45;&gt;CALL_8f68c80</title>
<path fill="none" stroke="black" d="M369,-720.7C369,-712.98 369,-703.71 369,-695.11"/>
<polygon fill="black" stroke="black" points="372.5,-695.1 369,-685.1 365.5,-695.1 372.5,-695.1"/>
</g>
<!-- CALL_8f6dc80 -->
<g id="node6" class="node">
<title>CALL_8f6dc80</title>
<g id="a_node6"><a xlink:href="RANDOM_SEED.svg" xlink:title="RANDOM_SEED">
<polygon fill="lightgray" stroke="black" points="436,-613 302,-613 302,-609 298,-609 298,-605 302,-605 302,-585 298,-585 298,-581 302,-581 302,-577 436,-577 436,-613"/>
<polyline fill="none" stroke="black" points="302,-609 306,-609 306,-605 302,-605 "/>
<polyline fill="none" stroke="black" points="302,-585 306,-585 306,-581 302,-581 "/>
<text text-anchor="middle" x="369" y="-591.3" font-family="Times,serif" font-size="14.00">RANDOM_SEED</text>
</a>
</g>
</g>
<!-- CALL_8f68c80&#45;&gt;CALL_8f6dc80 -->
<g id="edge5" class="edge">
<title>CALL_8f68c80&#45;&gt;CALL_8f6dc80</title>
<path fill="none" stroke="black" d="M369,-648.7C369,-640.98 369,-631.71 369,-623.11"/>
<polygon fill="black" stroke="black" points="372.5,-623.1 369,-613.1 365.5,-623.1 372.5,-623.1"/>
</g>
<!-- CALL_8f6e8e0 -->
<g id="node7" class="node">
<title>CALL_8f6e8e0</title>
<g id="a_node7"><a xlink:href="RANDOM_NUMBER.svg" xlink:title="RANDOM_NUMBER">
<polygon fill="lightgray" stroke="black" points="450,-541 288,-541 288,-537 284,-537 284,-533 288,-533 288,-513 284,-513 284,-509 288,-509 288,-505 450,-505 450,-541"/>
<polyline fill="none" stroke="black" points="288,-537 292,-537 292,-533 288,-533 "/>
<polyline fill="none" stroke="black" points="288,-513 292,-513 292,-509 288,-509 "/>
<text text-anchor="middle" x="369" y="-519.3" font-family="Times,serif" font-size="14.00">RANDOM_NUMBER</text>
</a>
</g>
</g>
<!-- CALL_8f6dc80&#45;&gt;CALL_8f6e8e0 -->
<g id="edge6" class="edge">
<title>CALL_8f6dc80&#45;&gt;CALL_8f6e8e0</title>
<path fill="none" stroke="black" d="M369,-576.7C369,-568.98 369,-559.71 369,-551.11"/>
<polygon fill="black" stroke="black" points="372.5,-551.1 369,-541.1 365.5,-551.1 372.5,-551.1"/>
</g>
<!-- COMMENT_8f6f4e0+1 -->
<g id="node8" class="node">
<title>COMMENT_8f6f4e0+1</title>
<polygon fill="none" stroke="black" points="474,-469 258,-469 258,-433 480,-433 480,-463 474,-469"/>
<polyline fill="none" stroke="black" points="474,-469 474,-463 "/>
<polyline fill="none" stroke="black" points="480,-463 474,-463 "/>
<text text-anchor="middle" x="369" y="-447.3" font-family="Times,serif" font-size="14.00">Point to local mesh variables</text>
</g>
<!-- CALL_8f6e8e0&#45;&gt;COMMENT_8f6f4e0+1 -->
<g id="edge7" class="edge">
<title>CALL_8f6e8e0&#45;&gt;COMMENT_8f6f4e0+1</title>
<path fill="none" stroke="black" d="M369,-504.7C369,-496.98 369,-487.71 369,-479.11"/>
<polygon fill="black" stroke="black" points="372.5,-479.1 369,-469.1 365.5,-479.1 372.5,-479.1"/>
</g>
<!-- CALL_8f6f4e0 -->
<g id="node9" class="node">
<title>CALL_8f6f4e0</title>
<g id="a_node9"><a xlink:href="POINT_TO_MESH.svg" xlink:title="POINT_TO_MESH">
<polygon fill="lightgray" stroke="black" points="441,-397 297,-397 297,-393 293,-393 293,-389 297,-389 297,-369 293,-369 293,-365 297,-365 297,-361 441,-361 441,-397"/>
<polyline fill="none" stroke="black" points="297,-393 301,-393 301,-389 297,-389 "/>
<polyline fill="none" stroke="black" points="297,-369 301,-369 301,-365 297,-365 "/>
<text text-anchor="middle" x="369" y="-375.3" font-family="Times,serif" font-size="14.00">POINT_TO_MESH</text>
</a>
</g>
</g>
<!-- COMMENT_8f6f4e0+1&#45;&gt;CALL_8f6f4e0 -->
<g id="edge8" class="edge">
<title>COMMENT_8f6f4e0+1&#45;&gt;CALL_8f6f4e0</title>
<path fill="none" stroke="black" d="M369,-432.7C369,-424.98 369,-415.71 369,-407.11"/>
<polygon fill="black" stroke="black" points="372.5,-407.1 369,-397.1 365.5,-407.1 372.5,-407.1"/>
</g>
<!-- COMMENT_8f6fe40+1 -->
<g id="node10" class="node">
<title>COMMENT_8f6fe40+1</title>
<polygon fill="none" stroke="black" points="606.5,-325 125.5,-325 125.5,-289 612.5,-289 612.5,-319 606.5,-325"/>
<polyline fill="none" stroke="black" points="606.5,-325 606.5,-319 "/>
<polyline fill="none" stroke="black" points="612.5,-319 606.5,-319 "/>
<text text-anchor="middle" x="369" y="-303.3" font-family="Times,serif" font-size="14.00">Add random vorticity to cells that are not bounding solid surfaces</text>
</g>
<!-- CALL_8f6f4e0&#45;&gt;COMMENT_8f6fe40+1 -->
<g id="edge9" class="edge">
<title>CALL_8f6f4e0&#45;&gt;COMMENT_8f6fe40+1</title>
<path fill="none" stroke="black" d="M369,-360.7C369,-352.98 369,-343.71 369,-335.11"/>
<polygon fill="black" stroke="black" points="372.5,-335.1 369,-325.1 365.5,-335.1 372.5,-335.1"/>
</g>
<!-- CALL_8f712c0 -->
<g id="node11" class="node">
<title>CALL_8f712c0</title>
<g id="a_node11"><a xlink:href="RANDOM_NUMBER.svg" xlink:title="RANDOM_NUMBER">
<polygon fill="lightgray" stroke="black" points="450,-253 288,-253 288,-249 284,-249 284,-245 288,-245 288,-225 284,-225 284,-221 288,-221 288,-217 450,-217 450,-253"/>
<polyline fill="none" stroke="black" points="288,-249 292,-249 292,-245 288,-245 "/>
<polyline fill="none" stroke="black" points="288,-225 292,-225 292,-221 288,-221 "/>
<text text-anchor="middle" x="369" y="-231.3" font-family="Times,serif" font-size="14.00">RANDOM_NUMBER</text>
</a>
</g>
</g>
<!-- COMMENT_8f6fe40+1&#45;&gt;CALL_8f712c0 -->
<g id="edge10" class="edge">
<title>COMMENT_8f6fe40+1&#45;&gt;CALL_8f712c0</title>
<path fill="none" stroke="black" d="M369,-288.7C369,-280.98 369,-271.71 369,-263.11"/>
<polygon fill="black" stroke="black" points="372.5,-263.1 369,-253.1 365.5,-263.1 372.5,-263.1"/>
</g>
<!-- CALL_8f836a0 -->
<g id="node12" class="node">
<title>CALL_8f836a0</title>
<g id="a_node12"><a xlink:href="RANDOM_NUMBER.svg" xlink:title="RANDOM_NUMBER">
<polygon fill="lightgray" stroke="black" points="450,-181 288,-181 288,-177 284,-177 284,-173 288,-173 288,-153 284,-153 284,-149 288,-149 288,-145 450,-145 450,-181"/>
<polyline fill="none" stroke="black" points="288,-177 292,-177 292,-173 288,-173 "/>
<polyline fill="none" stroke="black" points="288,-153 292,-153 292,-149 288,-149 "/>
<text text-anchor="middle" x="369" y="-159.3" font-family="Times,serif" font-size="14.00">RANDOM_NUMBER</text>
</a>
</g>
</g>
<!-- CALL_8f712c0&#45;&gt;CALL_8f836a0 -->
<g id="edge11" class="edge">
<title>CALL_8f712c0&#45;&gt;CALL_8f836a0</title>
<path fill="none" stroke="black" d="M369,-216.7C369,-208.98 369,-199.71 369,-191.11"/>
<polygon fill="black" stroke="black" points="372.5,-191.1 369,-181.1 365.5,-191.1 372.5,-191.1"/>
</g>
<!-- CALL_8f98a00 -->
<g id="node13" class="node">
<title>CALL_8f98a00</title>
<g id="a_node13"><a xlink:href="RANDOM_NUMBER.svg" xlink:title="RANDOM_NUMBER">
<polygon fill="lightgray" stroke="black" points="450,-109 288,-109 288,-105 284,-105 284,-101 288,-101 288,-81 284,-81 284,-77 288,-77 288,-73 450,-73 450,-109"/>
<polyline fill="none" stroke="black" points="288,-105 292,-105 292,-101 288,-101 "/>
<polyline fill="none" stroke="black" points="288,-81 292,-81 292,-77 288,-77 "/>
<text text-anchor="middle" x="369" y="-87.3" font-family="Times,serif" font-size="14.00">RANDOM_NUMBER</text>
</a>
</g>
</g>
<!-- CALL_8f836a0&#45;&gt;CALL_8f98a00 -->
<g id="edge12" class="edge">
<title>CALL_8f836a0&#45;&gt;CALL_8f98a00</title>
<path fill="none" stroke="black" d="M369,-144.7C369,-136.98 369,-127.71 369,-119.11"/>
<polygon fill="black" stroke="black" points="372.5,-119.1 369,-109.1 365.5,-119.1 372.5,-119.1"/>
</g>
<!-- end_SUBPROGRAM_8fa9260 -->
<g id="node14" class="node">
<title>end_SUBPROGRAM_8fa9260</title>
<ellipse fill="black" stroke="black" cx="369" cy="-30" rx="7" ry="7"/>
</g>
<!-- CALL_8f98a00&#45;&gt;end_SUBPROGRAM_8fa9260 -->
<g id="edge13" class="edge">
<title>CALL_8f98a00&#45;&gt;end_SUBPROGRAM_8fa9260</title>
<path fill="none" stroke="black" d="M369,-72.93C369,-64.89 369,-55.33 369,-47.37"/>
<polygon fill="black" stroke="black" points="372.5,-47.22 369,-37.22 365.5,-47.22 372.5,-47.22"/>
</g>
</g>
</svg>
