<?xml version="1.0" encoding="UTF-8" standalone="no"?>
<!DOCTYPE svg PUBLIC "-//W3C//DTD SVG 1.1//EN"
 "http://www.w3.org/Graphics/SVG/1.1/DTD/svg11.dtd">
<!-- Generated by graphviz version 2.43.0 (0)
 -->
<!-- Title: INITIALIZE_BACK_WALL_EXCHANGE Pages: 1 -->
<svg width="858pt" height="3366pt"
 viewBox="0.00 0.00 858.00 3365.64" xmlns="http://www.w3.org/2000/svg" xmlns:xlink="http://www.w3.org/1999/xlink">
<g id="graph0" class="graph" transform="scale(1 1) rotate(0) translate(4 3361.64)">
<title>INITIALIZE_BACK_WALL_EXCHANGE</title>
<polygon fill="white" stroke="transparent" points="-4,4 -4,-3361.64 854,-3361.64 854,4 -4,4"/>
<text text-anchor="middle" x="425" y="-7.8" font-family="Times,serif" font-size="14.00">INITIALIZE_BACK_WALL_EXCHANGE</text>
<g id="clust1" class="cluster">
<title>cluster_MESH_LOOP_1A</title>
<polygon fill="none" stroke="orange" points="348,-2175.2 348,-2323.64 502,-2323.64 502,-2175.2 348,-2175.2"/>
<text text-anchor="middle" x="416.5" y="-2308.44" font-family="Times,serif" font-size="14.00">MESH_LOOP_1A</text>
</g>
<g id="clust2" class="cluster">
<title>cluster_MESH_LOOP_3A</title>
<polygon fill="none" stroke="orange" points="348,-1954.76 348,-2103.2 502,-2103.2 502,-1954.76 348,-1954.76"/>
<text text-anchor="middle" x="416.5" y="-2088" font-family="Times,serif" font-size="14.00">MESH_LOOP_3A</text>
</g>
<g id="clust3" class="cluster">
<title>cluster_MESH_LOOP_2A</title>
<polygon fill="none" stroke="orange" points="322,-1297.88 322,-1522.76 528,-1522.76 528,-1297.88 322,-1297.88"/>
<text text-anchor="middle" x="390.5" y="-1507.56" font-family="Times,serif" font-size="14.00">MESH_LOOP_2A</text>
</g>
<g id="clust4" class="cluster">
<title>cluster_MESH_LOOP_2B</title>
<polygon fill="none" stroke="orange" points="330,-1334.6 330,-1483.04 520,-1483.04 520,-1334.6 330,-1334.6"/>
<text text-anchor="middle" x="398.5" y="-1467.84" font-family="Times,serif" font-size="14.00">MESH_LOOP_2B</text>
</g>
<g id="clust5" class="cluster">
<title>cluster_MESH_LOOP_4A</title>
<polygon fill="none" stroke="orange" points="322,-857 322,-1081.88 528,-1081.88 528,-857 322,-857"/>
<text text-anchor="middle" x="390.5" y="-1066.68" font-family="Times,serif" font-size="14.00">MESH_LOOP_4A</text>
</g>
<g id="clust6" class="cluster">
<title>cluster_MESH_LOOP_4B</title>
<polygon fill="none" stroke="orange" points="330,-893.72 330,-1042.16 520,-1042.16 520,-893.72 330,-893.72"/>
<text text-anchor="middle" x="398.5" y="-1026.96" font-family="Times,serif" font-size="14.00">MESH_LOOP_4B</text>
</g>
<!-- start_SUBPROGRAM_8950740 -->
<g id="node1" class="node">
<title>start_SUBPROGRAM_8950740</title>
<ellipse fill="none" stroke="black" cx="425" cy="-3350.64" rx="7" ry="7"/>
</g>
<!-- COMMENT_87748c0+1 -->
<g id="node2" class="node">
<title>COMMENT_87748c0+1</title>
<polygon fill="none" stroke="black" points="820,-3307.64 24,-3307.64 24,-3271.64 826,-3271.64 826,-3301.64 820,-3307.64"/>
<polyline fill="none" stroke="black" points="820,-3307.64 820,-3301.64 "/>
<polyline fill="none" stroke="black" points="826,-3301.64 820,-3301.64 "/>
<text text-anchor="middle" x="425" y="-3285.94" font-family="Times,serif" font-size="14.00">!&gt; brief Bordering meshes tell their neighbors how many exposed back wall cells they expect information for.</text>
</g>
<!-- start_SUBPROGRAM_8950740&#45;&gt;COMMENT_87748c0+1 -->
<g id="edge1" class="edge">
<title>start_SUBPROGRAM_8950740&#45;&gt;COMMENT_87748c0+1</title>
<path fill="none" stroke="black" d="M425,-3343.33C425,-3337.13 425,-3327.23 425,-3317.69"/>
<polygon fill="black" stroke="black" points="428.5,-3317.66 425,-3307.66 421.5,-3317.66 428.5,-3317.66"/>
</g>
<!-- COMMENT_877f100+1 -->
<g id="node3" class="node">
<title>COMMENT_877f100+1</title>
<polygon fill="none" stroke="black" points="643.5,-3235.64 200.5,-3235.64 200.5,-3199.64 649.5,-3199.64 649.5,-3229.64 643.5,-3235.64"/>
<polyline fill="none" stroke="black" points="643.5,-3235.64 643.5,-3229.64 "/>
<polyline fill="none" stroke="black" points="649.5,-3229.64 643.5,-3229.64 "/>
<text text-anchor="middle" x="425" y="-3213.94" font-family="Times,serif" font-size="14.00">Locate the back indices for WALL cells and THIN_WALL cells</text>
</g>
<!-- COMMENT_87748c0+1&#45;&gt;COMMENT_877f100+1 -->
<g id="edge2" class="edge">
<title>COMMENT_87748c0+1&#45;&gt;COMMENT_877f100+1</title>
<path fill="none" stroke="black" d="M425,-3271.34C425,-3263.62 425,-3254.35 425,-3245.75"/>
<polygon fill="black" stroke="black" points="428.5,-3245.74 425,-3235.74 421.5,-3245.74 428.5,-3245.74"/>
</g>
<!-- CALL_877f580 -->
<g id="node4" class="node">
<title>CALL_877f580</title>
<g id="a_node4"><a xlink:href="FIND_WALL_BACK_INDICES.svg" xlink:title="FIND_WALL_BACK_INDICES">
<polygon fill="lightgray" stroke="black" points="536,-3163.64 314,-3163.64 314,-3159.64 310,-3159.64 310,-3155.64 314,-3155.64 314,-3135.64 310,-3135.64 310,-3131.64 314,-3131.64 314,-3127.64 536,-3127.64 536,-3163.64"/>
<polyline fill="none" stroke="black" points="314,-3159.64 318,-3159.64 318,-3155.64 314,-3155.64 "/>
<polyline fill="none" stroke="black" points="314,-3135.64 318,-3135.64 318,-3131.64 314,-3131.64 "/>
<text text-anchor="middle" x="425" y="-3141.94" font-family="Times,serif" font-size="14.00">FIND_WALL_BACK_INDICES</text>
</a>
</g>
</g>
<!-- COMMENT_877f100+1&#45;&gt;CALL_877f580 -->
<g id="edge3" class="edge">
<title>COMMENT_877f100+1&#45;&gt;CALL_877f580</title>
<path fill="none" stroke="black" d="M425,-3199.34C425,-3191.62 425,-3182.35 425,-3173.75"/>
<polygon fill="black" stroke="black" points="428.5,-3173.74 425,-3163.74 421.5,-3173.74 428.5,-3173.74"/>
</g>
<!-- COMMENT_8900ea0+1 -->
<g id="node5" class="node">
<title>COMMENT_8900ea0+1</title>
<polygon fill="none" stroke="black" points="636.5,-3091.64 207.5,-3091.64 207.5,-3055.64 642.5,-3055.64 642.5,-3085.64 636.5,-3091.64"/>
<polyline fill="none" stroke="black" points="636.5,-3091.64 636.5,-3085.64 "/>
<polyline fill="none" stroke="black" points="642.5,-3085.64 636.5,-3085.64 "/>
<text text-anchor="middle" x="425" y="-3069.94" font-family="Times,serif" font-size="14.00">Adjust the thickness and internal noding of HT3D surfaces</text>
</g>
<!-- CALL_877f580&#45;&gt;COMMENT_8900ea0+1 -->
<g id="edge4" class="edge">
<title>CALL_877f580&#45;&gt;COMMENT_8900ea0+1</title>
<path fill="none" stroke="black" d="M425,-3127.34C425,-3119.62 425,-3110.35 425,-3101.75"/>
<polygon fill="black" stroke="black" points="428.5,-3101.74 425,-3091.74 421.5,-3101.74 428.5,-3101.74"/>
</g>
<!-- CALL_8901380 -->
<g id="node6" class="node">
<title>CALL_8901380</title>
<g id="a_node6"><a xlink:href="ADJUST_HT3D_WALL_CELLS.svg" xlink:title="ADJUST_HT3D_WALL_CELLS">
<polygon fill="lightgray" stroke="black" points="537.5,-3019.64 312.5,-3019.64 312.5,-3015.64 308.5,-3015.64 308.5,-3011.64 312.5,-3011.64 312.5,-2991.64 308.5,-2991.64 308.5,-2987.64 312.5,-2987.64 312.5,-2983.64 537.5,-2983.64 537.5,-3019.64"/>
<polyline fill="none" stroke="black" points="312.5,-3015.64 316.5,-3015.64 316.5,-3011.64 312.5,-3011.64 "/>
<polyline fill="none" stroke="black" points="312.5,-2991.64 316.5,-2991.64 316.5,-2987.64 312.5,-2987.64 "/>
<text text-anchor="middle" x="425" y="-2997.94" font-family="Times,serif" font-size="14.00">ADJUST_HT3D_WALL_CELLS</text>
</a>
</g>
</g>
<!-- COMMENT_8900ea0+1&#45;&gt;CALL_8901380 -->
<g id="edge5" class="edge">
<title>COMMENT_8900ea0+1&#45;&gt;CALL_8901380</title>
<path fill="none" stroke="black" d="M425,-3055.34C425,-3047.62 425,-3038.35 425,-3029.75"/>
<polygon fill="black" stroke="black" points="428.5,-3029.74 425,-3019.74 421.5,-3029.74 428.5,-3029.74"/>
</g>
<!-- COMMENT_8901be0+1 -->
<g id="node7" class="node">
<title>COMMENT_8901be0+1</title>
<polygon fill="none" stroke="black" points="835.5,-2947.64 8.5,-2947.64 8.5,-2911.64 841.5,-2911.64 841.5,-2941.64 835.5,-2947.64"/>
<polyline fill="none" stroke="black" points="835.5,-2947.64 835.5,-2941.64 "/>
<polyline fill="none" stroke="black" points="841.5,-2941.64 835.5,-2941.64 "/>
<text text-anchor="middle" x="425" y="-2925.94" font-family="Times,serif" font-size="14.00">Current mesh sends to neighboring meshes the number of WALL and THIN_WALL cells that it expects to be SENT</text>
</g>
<!-- CALL_8901380&#45;&gt;COMMENT_8901be0+1 -->
<g id="edge6" class="edge">
<title>CALL_8901380&#45;&gt;COMMENT_8901be0+1</title>
<path fill="none" stroke="black" d="M425,-2983.34C425,-2975.62 425,-2966.35 425,-2957.75"/>
<polygon fill="black" stroke="black" points="428.5,-2957.74 425,-2947.74 421.5,-2957.74 428.5,-2957.74"/>
</g>
<!-- CALL_8901be0 -->
<g id="node8" class="node">
<title>CALL_8901be0</title>
<g id="a_node8"><a xlink:href="POST_RECEIVES.svg" xlink:title="POST_RECEIVES">
<polygon fill="lightgray" stroke="black" points="495,-2875.64 355,-2875.64 355,-2871.64 351,-2871.64 351,-2867.64 355,-2867.64 355,-2847.64 351,-2847.64 351,-2843.64 355,-2843.64 355,-2839.64 495,-2839.64 495,-2875.64"/>
<polyline fill="none" stroke="black" points="355,-2871.64 359,-2871.64 359,-2867.64 355,-2867.64 "/>
<polyline fill="none" stroke="black" points="355,-2847.64 359,-2847.64 359,-2843.64 355,-2843.64 "/>
<text text-anchor="middle" x="425" y="-2853.94" font-family="Times,serif" font-size="14.00">POST_RECEIVES</text>
</a>
</g>
</g>
<!-- COMMENT_8901be0+1&#45;&gt;CALL_8901be0 -->
<g id="edge7" class="edge">
<title>COMMENT_8901be0+1&#45;&gt;CALL_8901be0</title>
<path fill="none" stroke="black" d="M425,-2911.34C425,-2903.62 425,-2894.35 425,-2885.75"/>
<polygon fill="black" stroke="black" points="428.5,-2885.74 425,-2875.74 421.5,-2885.74 428.5,-2885.74"/>
</g>
<!-- CALL_8904140 -->
<g id="node9" class="node">
<title>CALL_8904140</title>
<g id="a_node9"><a xlink:href="MESH_EXCHANGE.svg" xlink:title="MESH_EXCHANGE">
<polygon fill="lightgray" stroke="black" points="503,-2803.64 347,-2803.64 347,-2799.64 343,-2799.64 343,-2795.64 347,-2795.64 347,-2775.64 343,-2775.64 343,-2771.64 347,-2771.64 347,-2767.64 503,-2767.64 503,-2803.64"/>
<polyline fill="none" stroke="black" points="347,-2799.64 351,-2799.64 351,-2795.64 347,-2795.64 "/>
<polyline fill="none" stroke="black" points="347,-2775.64 351,-2775.64 351,-2771.64 347,-2771.64 "/>
<text text-anchor="middle" x="425" y="-2781.94" font-family="Times,serif" font-size="14.00">MESH_EXCHANGE</text>
</a>
</g>
</g>
<!-- CALL_8901be0&#45;&gt;CALL_8904140 -->
<g id="edge8" class="edge">
<title>CALL_8901be0&#45;&gt;CALL_8904140</title>
<path fill="none" stroke="black" d="M425,-2839.34C425,-2831.62 425,-2822.35 425,-2813.75"/>
<polygon fill="black" stroke="black" points="428.5,-2813.74 425,-2803.74 421.5,-2813.74 428.5,-2813.74"/>
</g>
<!-- COMMENT_8904b00+1 -->
<g id="node10" class="node">
<title>COMMENT_8904b00+1</title>
<polygon fill="none" stroke="black" points="759.5,-2731.64 84.5,-2731.64 84.5,-2693.64 765.5,-2693.64 765.5,-2725.64 759.5,-2731.64"/>
<polyline fill="none" stroke="black" points="759.5,-2731.64 759.5,-2725.64 "/>
<polyline fill="none" stroke="black" points="765.5,-2725.64 759.5,-2725.64 "/>
<text text-anchor="middle" x="425" y="-2716.44" font-family="Times,serif" font-size="14.00">Allocate WALL_SEND_BUFFER and THIN_WALL_SEND_BUFFER for each neighboring mesh.</text>
<text text-anchor="middle" x="425" y="-2701.44" font-family="Times,serif" font-size="14.00">These derived types hold the information that is to be sent.</text>
</g>
<!-- CALL_8904140&#45;&gt;COMMENT_8904b00+1 -->
<g id="edge9" class="edge">
<title>CALL_8904140&#45;&gt;COMMENT_8904b00+1</title>
<path fill="none" stroke="black" d="M425,-2767.45C425,-2759.75 425,-2750.46 425,-2741.79"/>
<polygon fill="black" stroke="black" points="428.5,-2741.66 425,-2731.66 421.5,-2741.66 428.5,-2741.66"/>
</g>
<!-- COMMENT_890b480+1 -->
<g id="node11" class="node">
<title>COMMENT_890b480+1</title>
<polygon fill="none" stroke="black" points="844,-2657.64 0,-2657.64 0,-2619.64 850,-2619.64 850,-2651.64 844,-2657.64"/>
<polyline fill="none" stroke="black" points="844,-2657.64 844,-2651.64 "/>
<polyline fill="none" stroke="black" points="850,-2651.64 844,-2651.64 "/>
<text text-anchor="middle" x="425" y="-2642.44" font-family="Times,serif" font-size="14.00">Each mesh sends its neighbors an array of WALL and THIN_WALL indices (ITEM_INDEX) that it expects to be SENT,</text>
<text text-anchor="middle" x="425" y="-2627.44" font-family="Times,serif" font-size="14.00">along with the SURF_INDEX for each WALL or THIN_WALL.</text>
</g>
<!-- COMMENT_8904b00+1&#45;&gt;COMMENT_890b480+1 -->
<g id="edge10" class="edge">
<title>COMMENT_8904b00+1&#45;&gt;COMMENT_890b480+1</title>
<path fill="none" stroke="black" d="M425,-2693.47C425,-2685.77 425,-2676.61 425,-2668.06"/>
<polygon fill="black" stroke="black" points="428.5,-2668.05 425,-2658.05 421.5,-2668.05 428.5,-2668.05"/>
</g>
<!-- CALL_890b480 -->
<g id="node12" class="node">
<title>CALL_890b480</title>
<g id="a_node12"><a xlink:href="POST_RECEIVES.svg" xlink:title="POST_RECEIVES">
<polygon fill="lightgray" stroke="black" points="495,-2583.64 355,-2583.64 355,-2579.64 351,-2579.64 351,-2575.64 355,-2575.64 355,-2555.64 351,-2555.64 351,-2551.64 355,-2551.64 355,-2547.64 495,-2547.64 495,-2583.64"/>
<polyline fill="none" stroke="black" points="355,-2579.64 359,-2579.64 359,-2575.64 355,-2575.64 "/>
<polyline fill="none" stroke="black" points="355,-2555.64 359,-2555.64 359,-2551.64 355,-2551.64 "/>
<text text-anchor="middle" x="425" y="-2561.94" font-family="Times,serif" font-size="14.00">POST_RECEIVES</text>
</a>
</g>
</g>
<!-- COMMENT_890b480+1&#45;&gt;CALL_890b480 -->
<g id="edge11" class="edge">
<title>COMMENT_890b480+1&#45;&gt;CALL_890b480</title>
<path fill="none" stroke="black" d="M425,-2619.36C425,-2611.61 425,-2602.43 425,-2593.91"/>
<polygon fill="black" stroke="black" points="428.5,-2593.64 425,-2583.64 421.5,-2593.64 428.5,-2593.64"/>
</g>
<!-- CALL_89071a0 -->
<g id="node13" class="node">
<title>CALL_89071a0</title>
<g id="a_node13"><a xlink:href="MESH_EXCHANGE.svg" xlink:title="MESH_EXCHANGE">
<polygon fill="lightgray" stroke="black" points="503,-2511.64 347,-2511.64 347,-2507.64 343,-2507.64 343,-2503.64 347,-2503.64 347,-2483.64 343,-2483.64 343,-2479.64 347,-2479.64 347,-2475.64 503,-2475.64 503,-2511.64"/>
<polyline fill="none" stroke="black" points="347,-2507.64 351,-2507.64 351,-2503.64 347,-2503.64 "/>
<polyline fill="none" stroke="black" points="347,-2483.64 351,-2483.64 351,-2479.64 347,-2479.64 "/>
<text text-anchor="middle" x="425" y="-2489.94" font-family="Times,serif" font-size="14.00">MESH_EXCHANGE</text>
</a>
</g>
</g>
<!-- CALL_890b480&#45;&gt;CALL_89071a0 -->
<g id="edge12" class="edge">
<title>CALL_890b480&#45;&gt;CALL_89071a0</title>
<path fill="none" stroke="black" d="M425,-2547.34C425,-2539.62 425,-2530.35 425,-2521.75"/>
<polygon fill="black" stroke="black" points="428.5,-2521.74 425,-2511.74 421.5,-2521.74 428.5,-2521.74"/>
</g>
<!-- COMMENT_890be80+1 -->
<g id="node14" class="node">
<title>COMMENT_890be80+1</title>
<polygon fill="none" stroke="black" points="736,-2439.64 108,-2439.64 108,-2403.64 742,-2403.64 742,-2433.64 736,-2439.64"/>
<polyline fill="none" stroke="black" points="736,-2439.64 736,-2433.64 "/>
<polyline fill="none" stroke="black" points="742,-2433.64 736,-2433.64 "/>
<text text-anchor="middle" x="425" y="-2417.94" font-family="Times,serif" font-size="14.00">Set up storage arrays for packing WALL and THIN_WALL variables during a RESTART.</text>
</g>
<!-- CALL_89071a0&#45;&gt;COMMENT_890be80+1 -->
<g id="edge13" class="edge">
<title>CALL_89071a0&#45;&gt;COMMENT_890be80+1</title>
<path fill="none" stroke="black" d="M425,-2475.34C425,-2467.62 425,-2458.35 425,-2449.75"/>
<polygon fill="black" stroke="black" points="428.5,-2449.74 425,-2439.74 421.5,-2449.74 428.5,-2449.74"/>
</g>
<!-- COMMENT_8918860+1 -->
<g id="node15" class="node">
<title>COMMENT_8918860+1</title>
<polygon fill="none" stroke="black" points="739.5,-2367.64 104.5,-2367.64 104.5,-2331.64 745.5,-2331.64 745.5,-2361.64 739.5,-2367.64"/>
<polyline fill="none" stroke="black" points="739.5,-2367.64 739.5,-2361.64 "/>
<polyline fill="none" stroke="black" points="745.5,-2361.64 739.5,-2361.64 "/>
<text text-anchor="middle" x="425" y="-2345.94" font-family="Times,serif" font-size="14.00">Allocate arrays to hold real, integer and logical variables for the WALL_SEND_BUFFER</text>
</g>
<!-- COMMENT_890be80+1&#45;&gt;COMMENT_8918860+1 -->
<g id="edge14" class="edge">
<title>COMMENT_890be80+1&#45;&gt;COMMENT_8918860+1</title>
<path fill="none" stroke="black" d="M425,-2403.34C425,-2395.62 425,-2386.35 425,-2377.75"/>
<polygon fill="black" stroke="black" points="428.5,-2377.74 425,-2367.74 421.5,-2377.74 428.5,-2377.74"/>
</g>
<!-- beginDO_DO_8923b20 -->
<g id="node16" class="node">
<title>beginDO_DO_8923b20</title>
<ellipse fill="black" stroke="black" cx="425" cy="-2292.28" rx="0.36" ry="0.36"/>
</g>
<!-- COMMENT_8918860+1&#45;&gt;beginDO_DO_8923b20 -->
<g id="edge16" class="edge">
<title>COMMENT_8918860+1&#45;&gt;beginDO_DO_8923b20</title>
<path fill="none" stroke="black" d="M425,-2331.43C425,-2315.68 425,-2294.64 425,-2293.34"/>
</g>
<!-- DO_8921b60 -->
<g id="node18" class="node">
<title>DO_8921b60</title>
<polygon fill="none" stroke="orange" points="493.5,-2255.92 356.5,-2255.92 356.5,-2219.92 493.5,-2219.92 493.5,-2255.92"/>
<text text-anchor="middle" x="425" y="-2234.22" font-family="Times,serif" font-size="14.00">MESH_LOOP_1B</text>
</g>
<!-- beginDO_DO_8923b20&#45;&gt;DO_8921b60 -->
<g id="edge15" class="edge">
<title>beginDO_DO_8923b20&#45;&gt;DO_8921b60</title>
<path fill="none" stroke="black" d="M425,-2291.77C425,-2290.29 425,-2278.24 425,-2266.02"/>
<polygon fill="black" stroke="black" points="428.5,-2265.94 425,-2255.94 421.5,-2265.94 428.5,-2265.94"/>
</g>
<!-- endDO_DO_8923b20 -->
<g id="node17" class="node">
<title>endDO_DO_8923b20</title>
<ellipse fill="black" stroke="black" cx="425" cy="-2183.56" rx="0.36" ry="0.36"/>
</g>
<!-- COMMENT_890c640+1 -->
<g id="node19" class="node">
<title>COMMENT_890c640+1</title>
<polygon fill="none" stroke="black" points="762,-2147.2 82,-2147.2 82,-2111.2 768,-2111.2 768,-2141.2 762,-2147.2"/>
<polyline fill="none" stroke="black" points="762,-2147.2 762,-2141.2 "/>
<polyline fill="none" stroke="black" points="768,-2141.2 762,-2141.2 "/>
<text text-anchor="middle" x="425" y="-2125.5" font-family="Times,serif" font-size="14.00">Allocate arrays to hold real, integer and logical variables for the THIN_WALL_SEND_BUFFER</text>
</g>
<!-- endDO_DO_8923b20&#45;&gt;COMMENT_890c640+1 -->
<g id="edge18" class="edge">
<title>endDO_DO_8923b20&#45;&gt;COMMENT_890c640+1</title>
<path fill="none" stroke="black" d="M425,-2182.41C425,-2180.97 425,-2169.43 425,-2157.56"/>
<polygon fill="black" stroke="black" points="428.5,-2157.3 425,-2147.3 421.5,-2157.3 428.5,-2157.3"/>
</g>
<!-- DO_8921b60&#45;&gt;endDO_DO_8923b20 -->
<g id="edge17" class="edge">
<title>DO_8921b60&#45;&gt;endDO_DO_8923b20</title>
<path fill="none" stroke="black" d="M425,-2219.86C425,-2204.85 425,-2185.19 425,-2183.98"/>
</g>
<!-- beginDO_DO_892d0c0 -->
<g id="node20" class="node">
<title>beginDO_DO_892d0c0</title>
<ellipse fill="black" stroke="black" cx="425" cy="-2071.84" rx="0.36" ry="0.36"/>
</g>
<!-- COMMENT_890c640+1&#45;&gt;beginDO_DO_892d0c0 -->
<g id="edge20" class="edge">
<title>COMMENT_890c640+1&#45;&gt;beginDO_DO_892d0c0</title>
<path fill="none" stroke="black" d="M425,-2110.99C425,-2095.24 425,-2074.2 425,-2072.9"/>
</g>
<!-- DO_892e840 -->
<g id="node22" class="node">
<title>DO_892e840</title>
<polygon fill="none" stroke="orange" points="493.5,-2035.48 356.5,-2035.48 356.5,-1999.48 493.5,-1999.48 493.5,-2035.48"/>
<text text-anchor="middle" x="425" y="-2013.78" font-family="Times,serif" font-size="14.00">MESH_LOOP_3B</text>
</g>
<!-- beginDO_DO_892d0c0&#45;&gt;DO_892e840 -->
<g id="edge19" class="edge">
<title>beginDO_DO_892d0c0&#45;&gt;DO_892e840</title>
<path fill="none" stroke="black" d="M425,-2071.33C425,-2069.85 425,-2057.8 425,-2045.58"/>
<polygon fill="black" stroke="black" points="428.5,-2045.5 425,-2035.5 421.5,-2045.5 428.5,-2045.5"/>
</g>
<!-- endDO_DO_892d0c0 -->
<g id="node21" class="node">
<title>endDO_DO_892d0c0</title>
<ellipse fill="black" stroke="black" cx="425" cy="-1963.12" rx="0.36" ry="0.36"/>
</g>
<!-- COMMENT_892d120+1 -->
<g id="node23" class="node">
<title>COMMENT_892d120+1</title>
<polygon fill="none" stroke="black" points="729,-1926.76 115,-1926.76 115,-1890.76 735,-1890.76 735,-1920.76 729,-1926.76"/>
<polyline fill="none" stroke="black" points="729,-1926.76 729,-1920.76 "/>
<polyline fill="none" stroke="black" points="735,-1920.76 729,-1920.76 "/>
<text text-anchor="middle" x="425" y="-1905.06" font-family="Times,serif" font-size="14.00">Each mesh sends its neighbors the size of the real, integer, and logical buffer arrays</text>
</g>
<!-- endDO_DO_892d0c0&#45;&gt;COMMENT_892d120+1 -->
<g id="edge22" class="edge">
<title>endDO_DO_892d0c0&#45;&gt;COMMENT_892d120+1</title>
<path fill="none" stroke="black" d="M425,-1961.97C425,-1960.53 425,-1948.99 425,-1937.12"/>
<polygon fill="black" stroke="black" points="428.5,-1936.86 425,-1926.86 421.5,-1936.86 428.5,-1936.86"/>
</g>
<!-- DO_892e840&#45;&gt;endDO_DO_892d0c0 -->
<g id="edge21" class="edge">
<title>DO_892e840&#45;&gt;endDO_DO_892d0c0</title>
<path fill="none" stroke="black" d="M425,-1999.42C425,-1984.41 425,-1964.75 425,-1963.54"/>
</g>
<!-- CALL_892d120 -->
<g id="node24" class="node">
<title>CALL_892d120</title>
<g id="a_node24"><a xlink:href="POST_RECEIVES.svg" xlink:title="POST_RECEIVES">
<polygon fill="lightgray" stroke="black" points="495,-1854.76 355,-1854.76 355,-1850.76 351,-1850.76 351,-1846.76 355,-1846.76 355,-1826.76 351,-1826.76 351,-1822.76 355,-1822.76 355,-1818.76 495,-1818.76 495,-1854.76"/>
<polyline fill="none" stroke="black" points="355,-1850.76 359,-1850.76 359,-1846.76 355,-1846.76 "/>
<polyline fill="none" stroke="black" points="355,-1826.76 359,-1826.76 359,-1822.76 355,-1822.76 "/>
<text text-anchor="middle" x="425" y="-1833.06" font-family="Times,serif" font-size="14.00">POST_RECEIVES</text>
</a>
</g>
</g>
<!-- COMMENT_892d120+1&#45;&gt;CALL_892d120 -->
<g id="edge23" class="edge">
<title>COMMENT_892d120+1&#45;&gt;CALL_892d120</title>
<path fill="none" stroke="black" d="M425,-1890.46C425,-1882.74 425,-1873.47 425,-1864.87"/>
<polygon fill="black" stroke="black" points="428.5,-1864.86 425,-1854.86 421.5,-1864.86 428.5,-1864.86"/>
</g>
<!-- CALL_892a6c0 -->
<g id="node25" class="node">
<title>CALL_892a6c0</title>
<g id="a_node25"><a xlink:href="MESH_EXCHANGE.svg" xlink:title="MESH_EXCHANGE">
<polygon fill="lightgray" stroke="black" points="503,-1782.76 347,-1782.76 347,-1778.76 343,-1778.76 343,-1774.76 347,-1774.76 347,-1754.76 343,-1754.76 343,-1750.76 347,-1750.76 347,-1746.76 503,-1746.76 503,-1782.76"/>
<polyline fill="none" stroke="black" points="347,-1778.76 351,-1778.76 351,-1774.76 347,-1774.76 "/>
<polyline fill="none" stroke="black" points="347,-1754.76 351,-1754.76 351,-1750.76 347,-1750.76 "/>
<text text-anchor="middle" x="425" y="-1761.06" font-family="Times,serif" font-size="14.00">MESH_EXCHANGE</text>
</a>
</g>
</g>
<!-- CALL_892d120&#45;&gt;CALL_892a6c0 -->
<g id="edge24" class="edge">
<title>CALL_892d120&#45;&gt;CALL_892a6c0</title>
<path fill="none" stroke="black" d="M425,-1818.46C425,-1810.74 425,-1801.47 425,-1792.87"/>
<polygon fill="black" stroke="black" points="428.5,-1792.86 425,-1782.86 421.5,-1792.86 428.5,-1792.86"/>
</g>
<!-- COMMENT_892d280+1 -->
<g id="node26" class="node">
<title>COMMENT_892d280+1</title>
<polygon fill="none" stroke="black" points="707,-1710.76 137,-1710.76 137,-1674.76 713,-1674.76 713,-1704.76 707,-1710.76"/>
<polyline fill="none" stroke="black" points="707,-1710.76 707,-1704.76 "/>
<polyline fill="none" stroke="black" points="713,-1704.76 707,-1704.76 "/>
<text text-anchor="middle" x="425" y="-1689.06" font-family="Times,serif" font-size="14.00">Broadcast the required dimension of the WALL arrays for neighboring meshes</text>
</g>
<!-- CALL_892a6c0&#45;&gt;COMMENT_892d280+1 -->
<g id="edge25" class="edge">
<title>CALL_892a6c0&#45;&gt;COMMENT_892d280+1</title>
<path fill="none" stroke="black" d="M425,-1746.46C425,-1738.74 425,-1729.47 425,-1720.87"/>
<polygon fill="black" stroke="black" points="428.5,-1720.86 425,-1710.86 421.5,-1720.86 428.5,-1720.86"/>
</g>
<!-- CALL_8933ac0 -->
<g id="node27" class="node">
<title>CALL_8933ac0</title>
<g id="a_node27"><a xlink:href="MPI_BCAST.svg" xlink:title="MPI_BCAST">
<polygon fill="#ffe800" stroke="black" points="476,-1638.76 374,-1638.76 374,-1634.76 370,-1634.76 370,-1630.76 374,-1630.76 374,-1610.76 370,-1610.76 370,-1606.76 374,-1606.76 374,-1602.76 476,-1602.76 476,-1638.76"/>
<polyline fill="none" stroke="black" points="374,-1634.76 378,-1634.76 378,-1630.76 374,-1630.76 "/>
<polyline fill="none" stroke="black" points="374,-1610.76 378,-1610.76 378,-1606.76 374,-1606.76 "/>
<text text-anchor="middle" x="425" y="-1617.06" font-family="Times,serif" font-size="14.00">MPI_BCAST</text>
</a>
</g>
</g>
<!-- COMMENT_892d280+1&#45;&gt;CALL_8933ac0 -->
<g id="edge26" class="edge">
<title>COMMENT_892d280+1&#45;&gt;CALL_8933ac0</title>
<path fill="none" stroke="black" d="M425,-1674.46C425,-1666.74 425,-1657.47 425,-1648.87"/>
<polygon fill="black" stroke="black" points="428.5,-1648.86 425,-1638.86 421.5,-1648.86 428.5,-1648.86"/>
</g>
<!-- COMMENT_8931bc0+1 -->
<g id="node28" class="node">
<title>COMMENT_8931bc0+1</title>
<polygon fill="none" stroke="black" points="742.5,-1566.76 101.5,-1566.76 101.5,-1530.76 748.5,-1530.76 748.5,-1560.76 742.5,-1566.76"/>
<polyline fill="none" stroke="black" points="742.5,-1566.76 742.5,-1560.76 "/>
<polyline fill="none" stroke="black" points="748.5,-1560.76 742.5,-1560.76 "/>
<text text-anchor="middle" x="425" y="-1545.06" font-family="Times,serif" font-size="14.00">Each mesh (NM) sets up WALL cells that it expects to receive from its neighbors (NOM)</text>
</g>
<!-- CALL_8933ac0&#45;&gt;COMMENT_8931bc0+1 -->
<g id="edge27" class="edge">
<title>CALL_8933ac0&#45;&gt;COMMENT_8931bc0+1</title>
<path fill="none" stroke="black" d="M425,-1602.46C425,-1594.74 425,-1585.47 425,-1576.87"/>
<polygon fill="black" stroke="black" points="428.5,-1576.86 425,-1566.86 421.5,-1576.86 428.5,-1576.86"/>
</g>
<!-- beginDO_DO_893d940 -->
<g id="node29" class="node">
<title>beginDO_DO_893d940</title>
<ellipse fill="black" stroke="black" cx="425" cy="-1491.4" rx="0.36" ry="0.36"/>
</g>
<!-- COMMENT_8931bc0+1&#45;&gt;beginDO_DO_893d940 -->
<g id="edge31" class="edge">
<title>COMMENT_8931bc0+1&#45;&gt;beginDO_DO_893d940</title>
<path fill="none" stroke="black" d="M425,-1530.55C425,-1514.8 425,-1493.76 425,-1492.46"/>
</g>
<!-- beginDO_DO_893d6e0 -->
<g id="node31" class="node">
<title>beginDO_DO_893d6e0</title>
<ellipse fill="black" stroke="black" cx="425" cy="-1451.68" rx="0.36" ry="0.36"/>
</g>
<!-- beginDO_DO_893d940&#45;&gt;beginDO_DO_893d6e0 -->
<g id="edge29" class="edge">
<title>beginDO_DO_893d940&#45;&gt;beginDO_DO_893d6e0</title>
<path fill="none" stroke="black" d="M425,-1490.93C425,-1488.75 425,-1454.9 425,-1452.78"/>
</g>
<!-- endDO_DO_893d940 -->
<g id="node30" class="node">
<title>endDO_DO_893d940</title>
<ellipse fill="black" stroke="black" cx="425" cy="-1306.24" rx="0.36" ry="0.36"/>
</g>
<!-- COMMENT_893d840+1 -->
<g id="node34" class="node">
<title>COMMENT_893d840+1</title>
<polygon fill="none" stroke="black" points="707,-1269.88 137,-1269.88 137,-1233.88 713,-1233.88 713,-1263.88 707,-1269.88"/>
<polyline fill="none" stroke="black" points="707,-1269.88 707,-1263.88 "/>
<polyline fill="none" stroke="black" points="713,-1263.88 707,-1263.88 "/>
<text text-anchor="middle" x="425" y="-1248.18" font-family="Times,serif" font-size="14.00">Broadcast the required dimension of the WALL arrays for neighboring meshes</text>
</g>
<!-- endDO_DO_893d940&#45;&gt;COMMENT_893d840+1 -->
<g id="edge33" class="edge">
<title>endDO_DO_893d940&#45;&gt;COMMENT_893d840+1</title>
<path fill="none" stroke="black" d="M425,-1305.09C425,-1303.65 425,-1292.11 425,-1280.24"/>
<polygon fill="black" stroke="black" points="428.5,-1279.98 425,-1269.98 421.5,-1279.98 428.5,-1279.98"/>
</g>
<!-- CALL_892bee0 -->
<g id="node33" class="node">
<title>CALL_892bee0</title>
<g id="a_node33"><a xlink:href="ALLOCATE_STORAGE.svg" xlink:title="ALLOCATE_STORAGE">
<polygon fill="lightgray" stroke="black" points="511.5,-1415.32 338.5,-1415.32 338.5,-1411.32 334.5,-1411.32 334.5,-1407.32 338.5,-1407.32 338.5,-1387.32 334.5,-1387.32 334.5,-1383.32 338.5,-1383.32 338.5,-1379.32 511.5,-1379.32 511.5,-1415.32"/>
<polyline fill="none" stroke="black" points="338.5,-1411.32 342.5,-1411.32 342.5,-1407.32 338.5,-1407.32 "/>
<polyline fill="none" stroke="black" points="338.5,-1387.32 342.5,-1387.32 342.5,-1383.32 338.5,-1383.32 "/>
<text text-anchor="middle" x="425" y="-1393.62" font-family="Times,serif" font-size="14.00">ALLOCATE_STORAGE</text>
</a>
</g>
</g>
<!-- beginDO_DO_893d6e0&#45;&gt;CALL_892bee0 -->
<g id="edge28" class="edge">
<title>beginDO_DO_893d6e0&#45;&gt;CALL_892bee0</title>
<path fill="none" stroke="black" d="M425,-1451.17C425,-1449.69 425,-1437.64 425,-1425.42"/>
<polygon fill="black" stroke="black" points="428.5,-1425.34 425,-1415.34 421.5,-1425.34 428.5,-1425.34"/>
</g>
<!-- endDO_DO_893d6e0 -->
<g id="node32" class="node">
<title>endDO_DO_893d6e0</title>
<ellipse fill="black" stroke="black" cx="425" cy="-1342.96" rx="0.36" ry="0.36"/>
</g>
<!-- endDO_DO_893d6e0&#45;&gt;endDO_DO_893d940 -->
<g id="edge32" class="edge">
<title>endDO_DO_893d6e0&#45;&gt;endDO_DO_893d940</title>
<path fill="none" stroke="black" d="M425,-1341.86C425,-1339.85 425,-1308.64 425,-1306.7"/>
</g>
<!-- CALL_892bee0&#45;&gt;endDO_DO_893d6e0 -->
<g id="edge30" class="edge">
<title>CALL_892bee0&#45;&gt;endDO_DO_893d6e0</title>
<path fill="none" stroke="black" d="M425,-1379.26C425,-1364.25 425,-1344.59 425,-1343.38"/>
</g>
<!-- CALL_89431e0 -->
<g id="node35" class="node">
<title>CALL_89431e0</title>
<g id="a_node35"><a xlink:href="MPI_BCAST.svg" xlink:title="MPI_BCAST">
<polygon fill="#ffe800" stroke="black" points="476,-1197.88 374,-1197.88 374,-1193.88 370,-1193.88 370,-1189.88 374,-1189.88 374,-1169.88 370,-1169.88 370,-1165.88 374,-1165.88 374,-1161.88 476,-1161.88 476,-1197.88"/>
<polyline fill="none" stroke="black" points="374,-1193.88 378,-1193.88 378,-1189.88 374,-1189.88 "/>
<polyline fill="none" stroke="black" points="374,-1169.88 378,-1169.88 378,-1165.88 374,-1165.88 "/>
<text text-anchor="middle" x="425" y="-1176.18" font-family="Times,serif" font-size="14.00">MPI_BCAST</text>
</a>
</g>
</g>
<!-- COMMENT_893d840+1&#45;&gt;CALL_89431e0 -->
<g id="edge34" class="edge">
<title>COMMENT_893d840+1&#45;&gt;CALL_89431e0</title>
<path fill="none" stroke="black" d="M425,-1233.58C425,-1225.86 425,-1216.59 425,-1207.99"/>
<polygon fill="black" stroke="black" points="428.5,-1207.98 425,-1197.98 421.5,-1207.98 428.5,-1207.98"/>
</g>
<!-- COMMENT_892ccc0+1 -->
<g id="node36" class="node">
<title>COMMENT_892ccc0+1</title>
<polygon fill="none" stroke="black" points="765,-1125.88 79,-1125.88 79,-1089.88 771,-1089.88 771,-1119.88 765,-1125.88"/>
<polyline fill="none" stroke="black" points="765,-1125.88 765,-1119.88 "/>
<polyline fill="none" stroke="black" points="771,-1119.88 765,-1119.88 "/>
<text text-anchor="middle" x="425" y="-1104.18" font-family="Times,serif" font-size="14.00">Each mesh (NM) sets up THIN_WALL cells that it expects to receive from its neighbors (NOM)</text>
</g>
<!-- CALL_89431e0&#45;&gt;COMMENT_892ccc0+1 -->
<g id="edge35" class="edge">
<title>CALL_89431e0&#45;&gt;COMMENT_892ccc0+1</title>
<path fill="none" stroke="black" d="M425,-1161.58C425,-1153.86 425,-1144.59 425,-1135.99"/>
<polygon fill="black" stroke="black" points="428.5,-1135.98 425,-1125.98 421.5,-1135.98 428.5,-1135.98"/>
</g>
<!-- beginDO_DO_894cf60 -->
<g id="node37" class="node">
<title>beginDO_DO_894cf60</title>
<ellipse fill="black" stroke="black" cx="425" cy="-1050.52" rx="0.36" ry="0.36"/>
</g>
<!-- COMMENT_892ccc0+1&#45;&gt;beginDO_DO_894cf60 -->
<g id="edge39" class="edge">
<title>COMMENT_892ccc0+1&#45;&gt;beginDO_DO_894cf60</title>
<path fill="none" stroke="black" d="M425,-1089.67C425,-1073.92 425,-1052.88 425,-1051.58"/>
</g>
<!-- beginDO_DO_894cbe0 -->
<g id="node39" class="node">
<title>beginDO_DO_894cbe0</title>
<ellipse fill="black" stroke="black" cx="425" cy="-1010.8" rx="0.36" ry="0.36"/>
</g>
<!-- beginDO_DO_894cf60&#45;&gt;beginDO_DO_894cbe0 -->
<g id="edge37" class="edge">
<title>beginDO_DO_894cf60&#45;&gt;beginDO_DO_894cbe0</title>
<path fill="none" stroke="black" d="M425,-1050.05C425,-1047.87 425,-1014.02 425,-1011.9"/>
</g>
<!-- endDO_DO_894cf60 -->
<g id="node38" class="node">
<title>endDO_DO_894cf60</title>
<ellipse fill="black" stroke="black" cx="425" cy="-865.36" rx="0.36" ry="0.36"/>
</g>
<!-- COMMENT_894d640+1 -->
<g id="node42" class="node">
<title>COMMENT_894d640+1</title>
<polygon fill="none" stroke="black" points="640.5,-829 203.5,-829 203.5,-793 646.5,-793 646.5,-823 640.5,-829"/>
<polyline fill="none" stroke="black" points="640.5,-829 640.5,-823 "/>
<polyline fill="none" stroke="black" points="646.5,-823 640.5,-823 "/>
<text text-anchor="middle" x="425" y="-807.3" font-family="Times,serif" font-size="14.00">Check to see if any process has an error. If so, stop the run.</text>
</g>
<!-- endDO_DO_894cf60&#45;&gt;COMMENT_894d640+1 -->
<g id="edge41" class="edge">
<title>endDO_DO_894cf60&#45;&gt;COMMENT_894d640+1</title>
<path fill="none" stroke="black" d="M425,-864.21C425,-862.77 425,-851.23 425,-839.36"/>
<polygon fill="black" stroke="black" points="428.5,-839.1 425,-829.1 421.5,-839.1 428.5,-839.1"/>
</g>
<!-- CALL_894aea0 -->
<g id="node41" class="node">
<title>CALL_894aea0</title>
<g id="a_node41"><a xlink:href="ALLOCATE_STORAGE.svg" xlink:title="ALLOCATE_STORAGE">
<polygon fill="lightgray" stroke="black" points="511.5,-974.44 338.5,-974.44 338.5,-970.44 334.5,-970.44 334.5,-966.44 338.5,-966.44 338.5,-946.44 334.5,-946.44 334.5,-942.44 338.5,-942.44 338.5,-938.44 511.5,-938.44 511.5,-974.44"/>
<polyline fill="none" stroke="black" points="338.5,-970.44 342.5,-970.44 342.5,-966.44 338.5,-966.44 "/>
<polyline fill="none" stroke="black" points="338.5,-946.44 342.5,-946.44 342.5,-942.44 338.5,-942.44 "/>
<text text-anchor="middle" x="425" y="-952.74" font-family="Times,serif" font-size="14.00">ALLOCATE_STORAGE</text>
</a>
</g>
</g>
<!-- beginDO_DO_894cbe0&#45;&gt;CALL_894aea0 -->
<g id="edge36" class="edge">
<title>beginDO_DO_894cbe0&#45;&gt;CALL_894aea0</title>
<path fill="none" stroke="black" d="M425,-1010.29C425,-1008.81 425,-996.76 425,-984.54"/>
<polygon fill="black" stroke="black" points="428.5,-984.46 425,-974.46 421.5,-984.46 428.5,-984.46"/>
</g>
<!-- endDO_DO_894cbe0 -->
<g id="node40" class="node">
<title>endDO_DO_894cbe0</title>
<ellipse fill="black" stroke="black" cx="425" cy="-902.08" rx="0.36" ry="0.36"/>
</g>
<!-- endDO_DO_894cbe0&#45;&gt;endDO_DO_894cf60 -->
<g id="edge40" class="edge">
<title>endDO_DO_894cbe0&#45;&gt;endDO_DO_894cf60</title>
<path fill="none" stroke="black" d="M425,-900.98C425,-898.97 425,-867.76 425,-865.82"/>
</g>
<!-- CALL_894aea0&#45;&gt;endDO_DO_894cbe0 -->
<g id="edge38" class="edge">
<title>CALL_894aea0&#45;&gt;endDO_DO_894cbe0</title>
<path fill="none" stroke="black" d="M425,-938.38C425,-923.37 425,-903.71 425,-902.5"/>
</g>
<!-- CALL_894d640 -->
<g id="node43" class="node">
<title>CALL_894d640</title>
<g id="a_node43"><a xlink:href="STOP_CHECK.svg" xlink:title="STOP_CHECK">
<polygon fill="lightgray" stroke="black" points="483.5,-757 366.5,-757 366.5,-753 362.5,-753 362.5,-749 366.5,-749 366.5,-729 362.5,-729 362.5,-725 366.5,-725 366.5,-721 483.5,-721 483.5,-757"/>
<polyline fill="none" stroke="black" points="366.5,-753 370.5,-753 370.5,-749 366.5,-749 "/>
<polyline fill="none" stroke="black" points="366.5,-729 370.5,-729 370.5,-725 366.5,-725 "/>
<text text-anchor="middle" x="425" y="-735.3" font-family="Times,serif" font-size="14.00">STOP_CHECK</text>
</a>
</g>
</g>
<!-- COMMENT_894d640+1&#45;&gt;CALL_894d640 -->
<g id="edge42" class="edge">
<title>COMMENT_894d640+1&#45;&gt;CALL_894d640</title>
<path fill="none" stroke="black" d="M425,-792.7C425,-784.98 425,-775.71 425,-767.11"/>
<polygon fill="black" stroke="black" points="428.5,-767.1 425,-757.1 421.5,-767.1 428.5,-767.1"/>
</g>
<!-- COMMENT_894dbe0+1 -->
<g id="node44" class="node">
<title>COMMENT_894dbe0+1</title>
<polygon fill="none" stroke="black" points="797,-685 47,-685 47,-649 803,-649 803,-679 797,-685"/>
<polyline fill="none" stroke="black" points="797,-685 797,-679 "/>
<polyline fill="none" stroke="black" points="803,-679 797,-679 "/>
<text text-anchor="middle" x="425" y="-663.3" font-family="Times,serif" font-size="14.00">Set up persistent SEND and RECV calls for MPI communication of WALL and THIN_WALL buffer arrays</text>
</g>
<!-- CALL_894d640&#45;&gt;COMMENT_894dbe0+1 -->
<g id="edge43" class="edge">
<title>CALL_894d640&#45;&gt;COMMENT_894dbe0+1</title>
<path fill="none" stroke="black" d="M425,-720.7C425,-712.98 425,-703.71 425,-695.11"/>
<polygon fill="black" stroke="black" points="428.5,-695.1 425,-685.1 421.5,-695.1 428.5,-695.1"/>
</g>
<!-- CALL_894dbe0 -->
<g id="node45" class="node">
<title>CALL_894dbe0</title>
<g id="a_node45"><a xlink:href="POST_RECEIVES.svg" xlink:title="POST_RECEIVES">
<polygon fill="lightgray" stroke="black" points="495,-613 355,-613 355,-609 351,-609 351,-605 355,-605 355,-585 351,-585 351,-581 355,-581 355,-577 495,-577 495,-613"/>
<polyline fill="none" stroke="black" points="355,-609 359,-609 359,-605 355,-605 "/>
<polyline fill="none" stroke="black" points="355,-585 359,-585 359,-581 355,-581 "/>
<text text-anchor="middle" x="425" y="-591.3" font-family="Times,serif" font-size="14.00">POST_RECEIVES</text>
</a>
</g>
</g>
<!-- COMMENT_894dbe0+1&#45;&gt;CALL_894dbe0 -->
<g id="edge44" class="edge">
<title>COMMENT_894dbe0+1&#45;&gt;CALL_894dbe0</title>
<path fill="none" stroke="black" d="M425,-648.7C425,-640.98 425,-631.71 425,-623.11"/>
<polygon fill="black" stroke="black" points="428.5,-623.1 425,-613.1 421.5,-623.1 428.5,-623.1"/>
</g>
<!-- CALL_89500e0 -->
<g id="node46" class="node">
<title>CALL_89500e0</title>
<g id="a_node46"><a xlink:href="MESH_EXCHANGE.svg" xlink:title="MESH_EXCHANGE">
<polygon fill="lightgray" stroke="black" points="503,-541 347,-541 347,-537 343,-537 343,-533 347,-533 347,-513 343,-513 343,-509 347,-509 347,-505 503,-505 503,-541"/>
<polyline fill="none" stroke="black" points="347,-537 351,-537 351,-533 347,-533 "/>
<polyline fill="none" stroke="black" points="347,-513 351,-513 351,-509 347,-509 "/>
<text text-anchor="middle" x="425" y="-519.3" font-family="Times,serif" font-size="14.00">MESH_EXCHANGE</text>
</a>
</g>
</g>
<!-- CALL_894dbe0&#45;&gt;CALL_89500e0 -->
<g id="edge45" class="edge">
<title>CALL_894dbe0&#45;&gt;CALL_89500e0</title>
<path fill="none" stroke="black" d="M425,-576.7C425,-568.98 425,-559.71 425,-551.11"/>
<polygon fill="black" stroke="black" points="428.5,-551.1 425,-541.1 421.5,-551.1 428.5,-551.1"/>
</g>
<!-- COMMENT_8950600+1 -->
<g id="node47" class="node">
<title>COMMENT_8950600+1</title>
<polygon fill="none" stroke="black" points="564,-469 280,-469 280,-433 570,-433 570,-463 564,-469"/>
<polyline fill="none" stroke="black" points="564,-469 564,-463 "/>
<polyline fill="none" stroke="black" points="570,-463 564,-463 "/>
<text text-anchor="middle" x="425" y="-447.3" font-family="Times,serif" font-size="14.00">Exchange WALL and THIN_WALL cells</text>
</g>
<!-- CALL_89500e0&#45;&gt;COMMENT_8950600+1 -->
<g id="edge46" class="edge">
<title>CALL_89500e0&#45;&gt;COMMENT_8950600+1</title>
<path fill="none" stroke="black" d="M425,-504.7C425,-496.98 425,-487.71 425,-479.11"/>
<polygon fill="black" stroke="black" points="428.5,-479.1 425,-469.1 421.5,-479.1 428.5,-479.1"/>
</g>
<!-- COMMENT_8950600+2 -->
<g id="node48" class="node">
<title>COMMENT_8950600+2</title>
<polygon fill="none" stroke="black" points="598.5,-397 245.5,-397 245.5,-361 604.5,-361 604.5,-391 598.5,-397"/>
<polyline fill="none" stroke="black" points="598.5,-397 598.5,-391 "/>
<polyline fill="none" stroke="black" points="604.5,-391 598.5,-391 "/>
<text text-anchor="middle" x="425" y="-375.3" font-family="Times,serif" font-size="14.00">CHECK_BOUNDARY_ONE_D_ARRAYS = .TRUE.</text>
</g>
<!-- COMMENT_8950600+1&#45;&gt;COMMENT_8950600+2 -->
<g id="edge47" class="edge">
<title>COMMENT_8950600+1&#45;&gt;COMMENT_8950600+2</title>
<path fill="none" stroke="black" d="M425,-432.7C425,-424.98 425,-415.71 425,-407.11"/>
<polygon fill="black" stroke="black" points="428.5,-407.1 425,-397.1 421.5,-407.1 428.5,-407.1"/>
</g>
<!-- CALL_8950600 -->
<g id="node49" class="node">
<title>CALL_8950600</title>
<g id="a_node49"><a xlink:href="MESH_EXCHANGE.svg" xlink:title="MESH_EXCHANGE">
<polygon fill="lightgray" stroke="black" points="503,-325 347,-325 347,-321 343,-321 343,-317 347,-317 347,-297 343,-297 343,-293 347,-293 347,-289 503,-289 503,-325"/>
<polyline fill="none" stroke="black" points="347,-321 351,-321 351,-317 347,-317 "/>
<polyline fill="none" stroke="black" points="347,-297 351,-297 351,-293 347,-293 "/>
<text text-anchor="middle" x="425" y="-303.3" font-family="Times,serif" font-size="14.00">MESH_EXCHANGE</text>
</a>
</g>
</g>
<!-- COMMENT_8950600+2&#45;&gt;CALL_8950600 -->
<g id="edge48" class="edge">
<title>COMMENT_8950600+2&#45;&gt;CALL_8950600</title>
<path fill="none" stroke="black" d="M425,-360.7C425,-352.98 425,-343.71 425,-335.11"/>
<polygon fill="black" stroke="black" points="428.5,-335.1 425,-325.1 421.5,-335.1 428.5,-335.1"/>
</g>
<!-- COMMENT_8950fe0+1 -->
<g id="node50" class="node">
<title>COMMENT_8950fe0+1</title>
<polygon fill="none" stroke="black" points="601.5,-253 242.5,-253 242.5,-217 607.5,-217 607.5,-247 601.5,-253"/>
<polyline fill="none" stroke="black" points="601.5,-253 601.5,-247 "/>
<polyline fill="none" stroke="black" points="607.5,-247 601.5,-247 "/>
<text text-anchor="middle" x="425" y="-231.3" font-family="Times,serif" font-size="14.00">CHECK_BOUNDARY_ONE_D_ARRAYS = .FALSE.</text>
</g>
<!-- CALL_8950600&#45;&gt;COMMENT_8950fe0+1 -->
<g id="edge49" class="edge">
<title>CALL_8950600&#45;&gt;COMMENT_8950fe0+1</title>
<path fill="none" stroke="black" d="M425,-288.7C425,-280.98 425,-271.71 425,-263.11"/>
<polygon fill="black" stroke="black" points="428.5,-263.1 425,-253.1 421.5,-263.1 428.5,-263.1"/>
</g>
<!-- COMMENT_8950fe0+2 -->
<g id="node51" class="node">
<title>COMMENT_8950fe0+2</title>
<polygon fill="none" stroke="black" points="565.5,-181 278.5,-181 278.5,-145 571.5,-145 571.5,-175 565.5,-181"/>
<polyline fill="none" stroke="black" points="565.5,-181 565.5,-175 "/>
<polyline fill="none" stroke="black" points="571.5,-175 565.5,-175 "/>
<text text-anchor="middle" x="425" y="-159.3" font-family="Times,serif" font-size="14.00">Initialize 3&#45;D solid interpolation arrays</text>
</g>
<!-- COMMENT_8950fe0+1&#45;&gt;COMMENT_8950fe0+2 -->
<g id="edge50" class="edge">
<title>COMMENT_8950fe0+1&#45;&gt;COMMENT_8950fe0+2</title>
<path fill="none" stroke="black" d="M425,-216.7C425,-208.98 425,-199.71 425,-191.11"/>
<polygon fill="black" stroke="black" points="428.5,-191.1 425,-181.1 421.5,-191.1 428.5,-191.1"/>
</g>
<!-- CALL_89515a0 -->
<g id="node52" class="node">
<title>CALL_89515a0</title>
<g id="a_node52"><a xlink:href="INITIALIZE_HT3D_WALL_CELLS.svg" xlink:title="INITIALIZE_HT3D_WALL_CELLS">
<polygon fill="lightgray" stroke="black" points="549.5,-109 300.5,-109 300.5,-105 296.5,-105 296.5,-101 300.5,-101 300.5,-81 296.5,-81 296.5,-77 300.5,-77 300.5,-73 549.5,-73 549.5,-109"/>
<polyline fill="none" stroke="black" points="300.5,-105 304.5,-105 304.5,-101 300.5,-101 "/>
<polyline fill="none" stroke="black" points="300.5,-81 304.5,-81 304.5,-77 300.5,-77 "/>
<text text-anchor="middle" x="425" y="-87.3" font-family="Times,serif" font-size="14.00">INITIALIZE_HT3D_WALL_CELLS</text>
</a>
</g>
</g>
<!-- COMMENT_8950fe0+2&#45;&gt;CALL_89515a0 -->
<g id="edge51" class="edge">
<title>COMMENT_8950fe0+2&#45;&gt;CALL_89515a0</title>
<path fill="none" stroke="black" d="M425,-144.7C425,-136.98 425,-127.71 425,-119.11"/>
<polygon fill="black" stroke="black" points="428.5,-119.1 425,-109.1 421.5,-119.1 428.5,-119.1"/>
</g>
<!-- end_SUBPROGRAM_8950740 -->
<g id="node53" class="node">
<title>end_SUBPROGRAM_8950740</title>
<ellipse fill="black" stroke="black" cx="425" cy="-30" rx="7" ry="7"/>
</g>
<!-- CALL_89515a0&#45;&gt;end_SUBPROGRAM_8950740 -->
<g id="edge52" class="edge">
<title>CALL_89515a0&#45;&gt;end_SUBPROGRAM_8950740</title>
<path fill="none" stroke="black" d="M425,-72.93C425,-64.89 425,-55.33 425,-47.37"/>
<polygon fill="black" stroke="black" points="428.5,-47.22 425,-37.22 421.5,-47.22 428.5,-47.22"/>
</g>
</g>
</svg>
