<?xml version="1.0" encoding="UTF-8" standalone="no"?>
<!DOCTYPE svg PUBLIC "-//W3C//DTD SVG 1.1//EN"
 "http://www.w3.org/Graphics/SVG/1.1/DTD/svg11.dtd">
<!-- Generated by graphviz version 2.43.0 (0)
 -->
<!-- Title: INITIALIZE_MESH_VARIABLES_3 Pages: 1 -->
<svg width="292pt" height="167pt"
 viewBox="0.00 0.00 292.00 167.00" xmlns="http://www.w3.org/2000/svg" xmlns:xlink="http://www.w3.org/1999/xlink">
<g id="graph0" class="graph" transform="scale(1 1) rotate(0) translate(4 163)">
<title>INITIALIZE_MESH_VARIABLES_3</title>
<polygon fill="white" stroke="transparent" points="-4,4 -4,-163 288,-163 288,4 -4,4"/>
<text text-anchor="middle" x="142" y="-7.8" font-family="Times,serif" font-size="14.00">INITIALIZE_MESH_VARIABLES_3</text>
<!-- start_SUBPROGRAM_8358060 -->
<g id="node1" class="node">
<title>start_SUBPROGRAM_8358060</title>
<ellipse fill="none" stroke="black" cx="142" cy="-152" rx="7" ry="7"/>
</g>
<!-- COMMENT_834a780+1 -->
<g id="node2" class="node">
<title>COMMENT_834a780+1</title>
<polygon fill="none" stroke="black" points="278,-109 0,-109 0,-73 284,-73 284,-103 278,-109"/>
<polyline fill="none" stroke="black" points="278,-109 278,-103 "/>
<polyline fill="none" stroke="black" points="284,-103 278,-103 "/>
<text text-anchor="middle" x="142" y="-87.3" font-family="Times,serif" font-size="14.00">!&gt; brief Initialize a few GEOM arrays</text>
</g>
<!-- start_SUBPROGRAM_8358060&#45;&gt;COMMENT_834a780+1 -->
<g id="edge1" class="edge">
<title>start_SUBPROGRAM_8358060&#45;&gt;COMMENT_834a780+1</title>
<path fill="none" stroke="black" d="M142,-144.69C142,-138.49 142,-128.59 142,-119.05"/>
<polygon fill="black" stroke="black" points="145.5,-119.02 142,-109.02 138.5,-119.02 145.5,-119.02"/>
</g>
<!-- end_SUBPROGRAM_8358060 -->
<g id="node3" class="node">
<title>end_SUBPROGRAM_8358060</title>
<ellipse fill="black" stroke="black" cx="142" cy="-30" rx="7" ry="7"/>
</g>
<!-- COMMENT_834a780+1&#45;&gt;end_SUBPROGRAM_8358060 -->
<g id="edge2" class="edge">
<title>COMMENT_834a780+1&#45;&gt;end_SUBPROGRAM_8358060</title>
<path fill="none" stroke="black" d="M142,-72.93C142,-64.89 142,-55.33 142,-47.37"/>
<polygon fill="black" stroke="black" points="145.5,-47.22 142,-37.22 138.5,-47.22 145.5,-47.22"/>
</g>
</g>
</svg>
