<?xml version="1.0" encoding="UTF-8" standalone="no"?>
<!DOCTYPE svg PUBLIC "-//W3C//DTD SVG 1.1//EN"
 "http://www.w3.org/Graphics/SVG/1.1/DTD/svg11.dtd">
<!-- Generated by graphviz version 2.43.0 (0)
 -->
<!-- Title: INITIALIZE_PROFILES Pages: 1 -->
<svg width="894pt" height="463pt"
 viewBox="0.00 0.00 894.00 463.44" xmlns="http://www.w3.org/2000/svg" xmlns:xlink="http://www.w3.org/1999/xlink">
<g id="graph0" class="graph" transform="scale(1 1) rotate(0) translate(4 459.44)">
<title>INITIALIZE_PROFILES</title>
<polygon fill="white" stroke="transparent" points="-4,4 -4,-459.44 890,-459.44 890,4 -4,4"/>
<text text-anchor="middle" x="443" y="-7.8" font-family="Times,serif" font-size="14.00">INITIALIZE_PROFILES</text>
<g id="clust1" class="cluster">
<title>cluster_PROF_LOOP</title>
<polygon fill="none" stroke="orange" points="8,-65 8,-359.44 878,-359.44 878,-65 8,-65"/>
<text text-anchor="middle" x="61" y="-344.24" font-family="Times,serif" font-size="14.00">PROF_LOOP</text>
</g>
<!-- start_SUBPROGRAM_835eae0 -->
<g id="node1" class="node">
<title>start_SUBPROGRAM_835eae0</title>
<ellipse fill="none" stroke="black" cx="443" cy="-448.44" rx="7" ry="7"/>
</g>
<!-- COMMENT_8350d00+1 -->
<g id="node2" class="node">
<title>COMMENT_8350d00+1</title>
<polygon fill="none" stroke="black" points="568,-405.44 312,-405.44 312,-367.44 574,-367.44 574,-399.44 568,-405.44"/>
<polyline fill="none" stroke="black" points="568,-405.44 568,-399.44 "/>
<polyline fill="none" stroke="black" points="574,-399.44 568,-399.44 "/>
<text text-anchor="middle" x="443" y="-390.24" font-family="Times,serif" font-size="14.00">!&gt; brief Initialize output PROFiles</text>
<text text-anchor="middle" x="443" y="-375.24" font-family="Times,serif" font-size="14.00">!&gt; param NM Mesh number</text>
</g>
<!-- start_SUBPROGRAM_835eae0&#45;&gt;COMMENT_8350d00+1 -->
<g id="edge1" class="edge">
<title>start_SUBPROGRAM_835eae0&#45;&gt;COMMENT_8350d00+1</title>
<path fill="none" stroke="black" d="M443,-441.02C443,-434.85 443,-425.08 443,-415.56"/>
<polygon fill="black" stroke="black" points="446.5,-415.52 443,-405.52 439.5,-415.52 446.5,-415.52"/>
</g>
<!-- beginDO_DO_83836e0 -->
<g id="node3" class="node">
<title>beginDO_DO_83836e0</title>
<ellipse fill="black" stroke="black" cx="443" cy="-328.08" rx="0.36" ry="0.36"/>
</g>
<!-- COMMENT_8350d00+1&#45;&gt;beginDO_DO_83836e0 -->
<g id="edge5" class="edge">
<title>COMMENT_8350d00+1&#45;&gt;beginDO_DO_83836e0</title>
<path fill="none" stroke="black" d="M443,-367.3C443,-351.34 443,-330.43 443,-329.14"/>
</g>
<!-- CALL_8361760 -->
<g id="node5" class="node">
<title>CALL_8361760</title>
<g id="a_node5"><a xlink:href="GET_WALL_INDEX.svg" xlink:title="GET_WALL_INDEX">
<polygon fill="lightgray" stroke="black" points="518.5,-291.72 367.5,-291.72 367.5,-287.72 363.5,-287.72 363.5,-283.72 367.5,-283.72 367.5,-263.72 363.5,-263.72 363.5,-259.72 367.5,-259.72 367.5,-255.72 518.5,-255.72 518.5,-291.72"/>
<polyline fill="none" stroke="black" points="367.5,-287.72 371.5,-287.72 371.5,-283.72 367.5,-283.72 "/>
<polyline fill="none" stroke="black" points="367.5,-263.72 371.5,-263.72 371.5,-259.72 367.5,-259.72 "/>
<text text-anchor="middle" x="443" y="-270.02" font-family="Times,serif" font-size="14.00">GET_WALL_INDEX</text>
</a>
</g>
</g>
<!-- beginDO_DO_83836e0&#45;&gt;CALL_8361760 -->
<g id="edge2" class="edge">
<title>beginDO_DO_83836e0&#45;&gt;CALL_8361760</title>
<path fill="none" stroke="black" d="M443,-327.57C443,-326.09 443,-314.04 443,-301.82"/>
<polygon fill="black" stroke="black" points="446.5,-301.74 443,-291.74 439.5,-301.74 446.5,-301.74"/>
</g>
<!-- endDO_DO_83836e0 -->
<g id="node4" class="node">
<title>endDO_DO_83836e0</title>
<ellipse fill="black" stroke="black" cx="443" cy="-73.36" rx="0.36" ry="0.36"/>
</g>
<!-- end_SUBPROGRAM_835eae0 -->
<g id="node8" class="node">
<title>end_SUBPROGRAM_835eae0</title>
<ellipse fill="black" stroke="black" cx="443" cy="-30" rx="7" ry="7"/>
</g>
<!-- endDO_DO_83836e0&#45;&gt;end_SUBPROGRAM_835eae0 -->
<g id="edge7" class="edge">
<title>endDO_DO_83836e0&#45;&gt;end_SUBPROGRAM_835eae0</title>
<path fill="none" stroke="black" d="M443,-72.24C443,-70.89 443,-58.27 443,-47.34"/>
<polygon fill="black" stroke="black" points="446.5,-47.1 443,-37.1 439.5,-47.1 446.5,-47.1"/>
</g>
<!-- COMMENT_8361600+1 -->
<g id="node6" class="node">
<title>COMMENT_8361600+1</title>
<polygon fill="none" stroke="black" points="538,-219.72 342,-219.72 342,-183.72 544,-183.72 544,-213.72 538,-219.72"/>
<polyline fill="none" stroke="black" points="538,-219.72 538,-213.72 "/>
<polyline fill="none" stroke="black" points="544,-213.72 538,-213.72 "/>
<text text-anchor="middle" x="443" y="-198.02" font-family="Times,serif" font-size="14.00">Check for potential errors</text>
</g>
<!-- CALL_8361760&#45;&gt;COMMENT_8361600+1 -->
<g id="edge3" class="edge">
<title>CALL_8361760&#45;&gt;COMMENT_8361600+1</title>
<path fill="none" stroke="black" d="M443,-255.42C443,-247.7 443,-238.43 443,-229.83"/>
<polygon fill="black" stroke="black" points="446.5,-229.82 443,-219.82 439.5,-229.82 446.5,-229.82"/>
</g>
<!-- COMMENT_8368380+1 -->
<g id="node7" class="node">
<title>COMMENT_8368380+1</title>
<polygon fill="none" stroke="black" points="864,-147.72 16,-147.72 16,-109.72 870,-109.72 870,-141.72 864,-147.72"/>
<polyline fill="none" stroke="black" points="864,-147.72 864,-141.72 "/>
<polyline fill="none" stroke="black" points="870,-141.72 864,-141.72 "/>
<text text-anchor="middle" x="443" y="-132.52" font-family="Times,serif" font-size="14.00">If the PROFile is applied to a particle, let the root MPI process open and close the file. Other MPI processes can then</text>
<text text-anchor="middle" x="443" y="-117.52" font-family="Times,serif" font-size="14.00">open and write to the file if the particle moves from mesh to mesh.</text>
</g>
<!-- COMMENT_8361600+1&#45;&gt;COMMENT_8368380+1 -->
<g id="edge4" class="edge">
<title>COMMENT_8361600+1&#45;&gt;COMMENT_8368380+1</title>
<path fill="none" stroke="black" d="M443,-183.53C443,-175.83 443,-166.54 443,-157.87"/>
<polygon fill="black" stroke="black" points="446.5,-157.74 443,-147.74 439.5,-157.74 446.5,-157.74"/>
</g>
<!-- COMMENT_8368380+1&#45;&gt;endDO_DO_83836e0 -->
<g id="edge6" class="edge">
<title>COMMENT_8368380+1&#45;&gt;endDO_DO_83836e0</title>
<path fill="none" stroke="black" d="M443,-109.44C443,-94.26 443,-74.97 443,-73.78"/>
</g>
</g>
</svg>
