<?xml version="1.0" encoding="UTF-8" standalone="no"?>
<!DOCTYPE svg PUBLIC "-//W3C//DTD SVG 1.1//EN"
 "http://www.w3.org/Graphics/SVG/1.1/DTD/svg11.dtd">
<!-- Generated by graphviz version 2.43.0 (0)
 -->
<!-- Title: INITIALIZE_MESH_EXCHANGE_1 Pages: 1 -->
<svg width="1070pt" height="1479pt"
 viewBox="0.00 0.00 1070.00 1479.44" xmlns="http://www.w3.org/2000/svg" xmlns:xlink="http://www.w3.org/1999/xlink">
<g id="graph0" class="graph" transform="scale(1 1) rotate(0) translate(4 1475.44)">
<title>INITIALIZE_MESH_EXCHANGE_1</title>
<polygon fill="white" stroke="transparent" points="-4,4 -4,-1475.44 1066,-1475.44 1066,4 -4,4"/>
<text text-anchor="middle" x="531" y="-7.8" font-family="Times,serif" font-size="14.00">INITIALIZE_MESH_EXCHANGE_1</text>
<g id="clust1" class="cluster">
<title>cluster_OTHER_MESH_LOOP</title>
<polygon fill="none" stroke="orange" points="8,-497 8,-1377.44 1054,-1377.44 1054,-497 8,-497"/>
<text text-anchor="middle" x="93.5" y="-1362.24" font-family="Times,serif" font-size="14.00">OTHER_MESH_LOOP</text>
</g>
<!-- start_SUBPROGRAM_8fb3580 -->
<g id="node1" class="node">
<title>start_SUBPROGRAM_8fb3580</title>
<ellipse fill="none" stroke="black" cx="531" cy="-1464.44" rx="7" ry="7"/>
</g>
<!-- COMMENT_8f34180+1 -->
<g id="node2" class="node">
<title>COMMENT_8f34180+1</title>
<polygon fill="none" stroke="black" points="786,-1421.44 270,-1421.44 270,-1385.44 792,-1385.44 792,-1415.44 786,-1421.44"/>
<polyline fill="none" stroke="black" points="786,-1421.44 786,-1415.44 "/>
<polyline fill="none" stroke="black" points="792,-1415.44 786,-1415.44 "/>
<text text-anchor="middle" x="531" y="-1399.74" font-family="Times,serif" font-size="14.00">!&gt; brief Create arrays by which info is to be exchanged across meshes</text>
</g>
<!-- start_SUBPROGRAM_8fb3580&#45;&gt;COMMENT_8f34180+1 -->
<g id="edge1" class="edge">
<title>start_SUBPROGRAM_8fb3580&#45;&gt;COMMENT_8f34180+1</title>
<path fill="none" stroke="black" d="M531,-1457.13C531,-1450.93 531,-1441.03 531,-1431.49"/>
<polygon fill="black" stroke="black" points="534.5,-1431.46 531,-1421.46 527.5,-1431.46 534.5,-1431.46"/>
</g>
<!-- beginDO_DO_8f93fa0 -->
<g id="node3" class="node">
<title>beginDO_DO_8f93fa0</title>
<ellipse fill="black" stroke="black" cx="531" cy="-1346.08" rx="0.36" ry="0.36"/>
</g>
<!-- COMMENT_8f34180+1&#45;&gt;beginDO_DO_8f93fa0 -->
<g id="edge11" class="edge">
<title>COMMENT_8f34180+1&#45;&gt;beginDO_DO_8f93fa0</title>
<path fill="none" stroke="black" d="M531,-1385.23C531,-1369.48 531,-1348.44 531,-1347.14"/>
</g>
<!-- COMMENT_8f3c920+1 -->
<g id="node5" class="node">
<title>COMMENT_8f3c920+1</title>
<polygon fill="none" stroke="black" points="1014.5,-1309.72 41.5,-1309.72 41.5,-1196.72 1020.5,-1196.72 1020.5,-1303.72 1014.5,-1309.72"/>
<polyline fill="none" stroke="black" points="1014.5,-1309.72 1014.5,-1303.72 "/>
<polyline fill="none" stroke="black" points="1020.5,-1303.72 1014.5,-1303.72 "/>
<text text-anchor="middle" x="531" y="-1294.52" font-family="Times,serif" font-size="14.00">DEFINITION NIC_R: (Number of Interpolated Cells &#45;&#45; Receiving) Number of cells in mesh NOM that abut mesh NM.</text>
<text text-anchor="middle" x="531" y="-1279.52" font-family="Times,serif" font-size="14.00">DEFINITION IIO_R: Array of length NIC_R of I indices of the abutting (outside) cells</text>
<text text-anchor="middle" x="531" y="-1264.52" font-family="Times,serif" font-size="14.00">DEFINITION JJO_R: Array of length NIC_R of J indices of the abutting (outside) cells</text>
<text text-anchor="middle" x="531" y="-1249.52" font-family="Times,serif" font-size="14.00">DEFINITION KKO_R: Array of length NIC_R of K indices of the abutting (outside) cells</text>
<text text-anchor="middle" x="531" y="-1234.52" font-family="Times,serif" font-size="14.00">DEFINITION IOR_R: Array of length NIC_R of orientation of the external boundary cell</text>
<text text-anchor="middle" x="531" y="-1219.52" font-family="Times,serif" font-size="14.00">DEFINITION NIC_MIN: For external wall cell IW of mesh NM, the indices of abutting cells start with NIC_MIN and end with NIC_MAX</text>
<text text-anchor="middle" x="531" y="-1204.52" font-family="Times,serif" font-size="14.00">DEFINITION NIC_MAX: For external wall cell IW of mesh NM, the indices of abutting cells start with NIC_MIN and end with NIC_MAX</text>
</g>
<!-- beginDO_DO_8f93fa0&#45;&gt;COMMENT_8f3c920+1 -->
<g id="edge2" class="edge">
<title>beginDO_DO_8f93fa0&#45;&gt;COMMENT_8f3c920+1</title>
<path fill="none" stroke="black" d="M531,-1345.65C531,-1344.71 531,-1333.87 531,-1319.95"/>
<polygon fill="black" stroke="black" points="534.5,-1319.91 531,-1309.91 527.5,-1319.91 534.5,-1319.91"/>
</g>
<!-- endDO_DO_8f93fa0 -->
<g id="node4" class="node">
<title>endDO_DO_8f93fa0</title>
<ellipse fill="black" stroke="black" cx="531" cy="-505.36" rx="0.36" ry="0.36"/>
</g>
<!-- COMMENT_8fa5b60+1 -->
<g id="node14" class="node">
<title>COMMENT_8fa5b60+1</title>
<polygon fill="none" stroke="black" points="769.5,-469 286.5,-469 286.5,-433 775.5,-433 775.5,-463 769.5,-469"/>
<polyline fill="none" stroke="black" points="769.5,-469 769.5,-463 "/>
<polyline fill="none" stroke="black" points="775.5,-463 769.5,-463 "/>
<text text-anchor="middle" x="531" y="-447.3" font-family="Times,serif" font-size="14.00">Allocate PARTICLE_STORAGE to hold particle data for a RESTART</text>
</g>
<!-- endDO_DO_8f93fa0&#45;&gt;COMMENT_8fa5b60+1 -->
<g id="edge13" class="edge">
<title>endDO_DO_8f93fa0&#45;&gt;COMMENT_8fa5b60+1</title>
<path fill="none" stroke="black" d="M531,-504.21C531,-502.77 531,-491.23 531,-479.36"/>
<polygon fill="black" stroke="black" points="534.5,-479.1 531,-469.1 527.5,-479.1 534.5,-479.1"/>
</g>
<!-- DO_8f5fe00 -->
<g id="node6" class="node">
<title>DO_8f5fe00</title>
<polygon fill="none" stroke="orange" points="595,-1160.72 467,-1160.72 467,-1124.72 595,-1124.72 595,-1160.72"/>
<text text-anchor="middle" x="531" y="-1139.02" font-family="Times,serif" font-size="14.00">SEARCH_LOOP</text>
</g>
<!-- COMMENT_8f3c920+1&#45;&gt;DO_8f5fe00 -->
<g id="edge3" class="edge">
<title>COMMENT_8f3c920+1&#45;&gt;DO_8f5fe00</title>
<path fill="none" stroke="black" d="M531,-1196.7C531,-1187.91 531,-1179.17 531,-1171.39"/>
<polygon fill="black" stroke="black" points="534.5,-1171.14 531,-1161.14 527.5,-1171.14 534.5,-1171.14"/>
</g>
<!-- COMMENT_8f45960+1 -->
<g id="node7" class="node">
<title>COMMENT_8f45960+1</title>
<polygon fill="none" stroke="black" points="744.5,-1088.72 311.5,-1088.72 311.5,-1052.72 750.5,-1052.72 750.5,-1082.72 744.5,-1088.72"/>
<polyline fill="none" stroke="black" points="744.5,-1088.72 744.5,-1082.72 "/>
<polyline fill="none" stroke="black" points="750.5,-1082.72 744.5,-1082.72 "/>
<text text-anchor="middle" x="531" y="-1067.02" font-family="Times,serif" font-size="14.00">Allocate arrays to hold indices of arrays for MPI exchanges</text>
</g>
<!-- DO_8f5fe00&#45;&gt;COMMENT_8f45960+1 -->
<g id="edge4" class="edge">
<title>DO_8f5fe00&#45;&gt;COMMENT_8f45960+1</title>
<path fill="none" stroke="black" d="M531,-1124.42C531,-1116.7 531,-1107.43 531,-1098.83"/>
<polygon fill="black" stroke="black" points="534.5,-1098.82 531,-1088.82 527.5,-1098.82 534.5,-1098.82"/>
</g>
<!-- DO_8f69b20 -->
<g id="node8" class="node">
<title>DO_8f69b20</title>
<polygon fill="none" stroke="orange" points="587.5,-1016.72 474.5,-1016.72 474.5,-980.72 587.5,-980.72 587.5,-1016.72"/>
<text text-anchor="middle" x="531" y="-995.02" font-family="Times,serif" font-size="14.00">INDEX_LOOP</text>
</g>
<!-- COMMENT_8f45960+1&#45;&gt;DO_8f69b20 -->
<g id="edge5" class="edge">
<title>COMMENT_8f45960+1&#45;&gt;DO_8f69b20</title>
<path fill="none" stroke="black" d="M531,-1052.42C531,-1044.7 531,-1035.43 531,-1026.83"/>
<polygon fill="black" stroke="black" points="534.5,-1026.82 531,-1016.82 527.5,-1026.82 534.5,-1026.82"/>
</g>
<!-- COMMENT_8f69bc0+1 -->
<g id="node9" class="node">
<title>COMMENT_8f69bc0+1</title>
<polygon fill="none" stroke="black" points="818.5,-944.72 237.5,-944.72 237.5,-908.72 824.5,-908.72 824.5,-938.72 818.5,-944.72"/>
<polyline fill="none" stroke="black" points="818.5,-944.72 818.5,-938.72 "/>
<polyline fill="none" stroke="black" points="824.5,-938.72 818.5,-938.72 "/>
<text text-anchor="middle" x="531" y="-923.02" font-family="Times,serif" font-size="14.00">For a single mesh with PERIODIC boundaries, allocate the entire OMESH array</text>
</g>
<!-- DO_8f69b20&#45;&gt;COMMENT_8f69bc0+1 -->
<g id="edge6" class="edge">
<title>DO_8f69b20&#45;&gt;COMMENT_8f69bc0+1</title>
<path fill="none" stroke="black" d="M531,-980.42C531,-972.7 531,-963.43 531,-954.83"/>
<polygon fill="black" stroke="black" points="534.5,-954.82 531,-944.82 527.5,-954.82 534.5,-954.82"/>
</g>
<!-- COMMENT_8f61100+1 -->
<g id="node10" class="node">
<title>COMMENT_8f61100+1</title>
<polygon fill="none" stroke="black" points="1039.5,-872.72 16.5,-872.72 16.5,-834.72 1045.5,-834.72 1045.5,-866.72 1039.5,-872.72"/>
<polyline fill="none" stroke="black" points="1039.5,-872.72 1039.5,-866.72 "/>
<polyline fill="none" stroke="black" points="1045.5,-866.72 1039.5,-866.72 "/>
<text text-anchor="middle" x="531" y="-857.52" font-family="Times,serif" font-size="14.00">Embedded meshes. This is the case where mesh NOM is completely inside mesh NM. Mesh NM cannot &quot;see&quot; mesh NOM because mesh NOM</text>
<text text-anchor="middle" x="531" y="-842.52" font-family="Times,serif" font-size="14.00">is not connected at the external boundary of mesh NM. The variable CONNECTED_MESH is needed to save this information.</text>
</g>
<!-- COMMENT_8f69bc0+1&#45;&gt;COMMENT_8f61100+1 -->
<g id="edge7" class="edge">
<title>COMMENT_8f69bc0+1&#45;&gt;COMMENT_8f61100+1</title>
<path fill="none" stroke="black" d="M531,-908.53C531,-900.83 531,-891.54 531,-882.87"/>
<polygon fill="black" stroke="black" points="534.5,-882.74 531,-872.74 527.5,-882.74 534.5,-882.74"/>
</g>
<!-- COMMENT_8f6dfe0+1 -->
<g id="node11" class="node">
<title>COMMENT_8f6dfe0+1</title>
<polygon fill="none" stroke="black" points="737,-798.72 319,-798.72 319,-762.72 743,-762.72 743,-792.72 737,-798.72"/>
<polyline fill="none" stroke="black" points="737,-798.72 737,-792.72 "/>
<polyline fill="none" stroke="black" points="743,-792.72 737,-792.72 "/>
<text text-anchor="middle" x="531" y="-777.02" font-family="Times,serif" font-size="14.00">Exit the other mesh loop if no neighboring meshes found</text>
</g>
<!-- COMMENT_8f61100+1&#45;&gt;COMMENT_8f6dfe0+1 -->
<g id="edge8" class="edge">
<title>COMMENT_8f61100+1&#45;&gt;COMMENT_8f6dfe0+1</title>
<path fill="none" stroke="black" d="M531,-834.44C531,-826.69 531,-817.51 531,-808.99"/>
<polygon fill="black" stroke="black" points="534.5,-808.72 531,-798.72 527.5,-808.72 534.5,-808.72"/>
</g>
<!-- COMMENT_8f5d280+1 -->
<g id="node12" class="node">
<title>COMMENT_8f5d280+1</title>
<polygon fill="none" stroke="black" points="992.5,-726.72 63.5,-726.72 63.5,-613.72 998.5,-613.72 998.5,-720.72 992.5,-726.72"/>
<polyline fill="none" stroke="black" points="992.5,-726.72 992.5,-720.72 "/>
<polyline fill="none" stroke="black" points="998.5,-720.72 992.5,-720.72 "/>
<text text-anchor="middle" x="531" y="-711.52" font-family="Times,serif" font-size="14.00">Save the dimensions of the volume of cells from mesh NOM whose data is received by mesh NM</text>
<text text-anchor="middle" x="531" y="-696.52" font-family="Times,serif" font-size="14.00">DEFINITION I_MIN_R: Starting I index of cell block of mesh NOM whose info is to be received by mesh NM in MPI exchanges.</text>
<text text-anchor="middle" x="531" y="-681.52" font-family="Times,serif" font-size="14.00">DEFINITION I_MAX_R: Ending &#160;&#160;I index of cell block of mesh NOM whose info is to be received by mesh NM in MPI exchanges.</text>
<text text-anchor="middle" x="531" y="-666.52" font-family="Times,serif" font-size="14.00">DEFINITION J_MIN_R: Starting J index of cell block of mesh NOM whose info is to be received by mesh NM in MPI exchanges.</text>
<text text-anchor="middle" x="531" y="-651.52" font-family="Times,serif" font-size="14.00">DEFINITION J_MAX_R: Ending &#160;&#160;J index of cell block of mesh NOM whose info is to be received by mesh NM in MPI exchanges.</text>
<text text-anchor="middle" x="531" y="-636.52" font-family="Times,serif" font-size="14.00">DEFINITION K_MIN_R: Starting K index of cell block of mesh NOM whose info is to be received by mesh NM in MPI exchanges.</text>
<text text-anchor="middle" x="531" y="-621.52" font-family="Times,serif" font-size="14.00">DEFINITION K_MAX_R: Ending &#160;&#160;K index of cell block of mesh NOM whose info is to be received by mesh NM in MPI exchanges.</text>
</g>
<!-- COMMENT_8f6dfe0+1&#45;&gt;COMMENT_8f5d280+1 -->
<g id="edge9" class="edge">
<title>COMMENT_8f6dfe0+1&#45;&gt;COMMENT_8f5d280+1</title>
<path fill="none" stroke="black" d="M531,-762.29C531,-755.16 531,-746.43 531,-737.22"/>
<polygon fill="black" stroke="black" points="534.5,-737.1 531,-727.1 527.5,-737.1 534.5,-737.1"/>
</g>
<!-- COMMENT_8f3f1a0+1 -->
<g id="node13" class="node">
<title>COMMENT_8f3f1a0+1</title>
<polygon fill="none" stroke="black" points="802.5,-577.72 253.5,-577.72 253.5,-541.72 808.5,-541.72 808.5,-571.72 802.5,-577.72"/>
<polyline fill="none" stroke="black" points="802.5,-577.72 802.5,-571.72 "/>
<polyline fill="none" stroke="black" points="808.5,-571.72 802.5,-571.72 "/>
<text text-anchor="middle" x="531" y="-556.02" font-family="Times,serif" font-size="14.00">Allocate the arrays that hold information about the other meshes (OMESH)</text>
</g>
<!-- COMMENT_8f5d280+1&#45;&gt;COMMENT_8f3f1a0+1 -->
<g id="edge10" class="edge">
<title>COMMENT_8f5d280+1&#45;&gt;COMMENT_8f3f1a0+1</title>
<path fill="none" stroke="black" d="M531,-613.7C531,-604.91 531,-596.17 531,-588.39"/>
<polygon fill="black" stroke="black" points="534.5,-588.14 531,-578.14 527.5,-588.14 534.5,-588.14"/>
</g>
<!-- COMMENT_8f3f1a0+1&#45;&gt;endDO_DO_8f93fa0 -->
<g id="edge12" class="edge">
<title>COMMENT_8f3f1a0+1&#45;&gt;endDO_DO_8f93fa0</title>
<path fill="none" stroke="black" d="M531,-541.66C531,-526.65 531,-506.99 531,-505.78"/>
</g>
<!-- CALL_8fa8f00 -->
<g id="node15" class="node">
<title>CALL_8fa8f00</title>
<g id="a_node15"><a xlink:href="ALLOCATE_STORAGE.svg" xlink:title="ALLOCATE_STORAGE">
<polygon fill="lightgray" stroke="black" points="617.5,-397 444.5,-397 444.5,-393 440.5,-393 440.5,-389 444.5,-389 444.5,-369 440.5,-369 440.5,-365 444.5,-365 444.5,-361 617.5,-361 617.5,-397"/>
<polyline fill="none" stroke="black" points="444.5,-393 448.5,-393 448.5,-389 444.5,-389 "/>
<polyline fill="none" stroke="black" points="444.5,-369 448.5,-369 448.5,-365 444.5,-365 "/>
<text text-anchor="middle" x="531" y="-375.3" font-family="Times,serif" font-size="14.00">ALLOCATE_STORAGE</text>
</a>
</g>
</g>
<!-- COMMENT_8fa5b60+1&#45;&gt;CALL_8fa8f00 -->
<g id="edge14" class="edge">
<title>COMMENT_8fa5b60+1&#45;&gt;CALL_8fa8f00</title>
<path fill="none" stroke="black" d="M531,-432.7C531,-424.98 531,-415.71 531,-407.11"/>
<polygon fill="black" stroke="black" points="534.5,-407.1 531,-397.1 527.5,-407.1 534.5,-407.1"/>
</g>
<!-- CALL_8fac8a0 -->
<g id="node16" class="node">
<title>CALL_8fac8a0</title>
<g id="a_node16"><a xlink:href="PACK_PARTICLE.svg" xlink:title="PACK_PARTICLE">
<polygon fill="lightgray" stroke="black" points="598.5,-325 463.5,-325 463.5,-321 459.5,-321 459.5,-317 463.5,-317 463.5,-297 459.5,-297 459.5,-293 463.5,-293 463.5,-289 598.5,-289 598.5,-325"/>
<polyline fill="none" stroke="black" points="463.5,-321 467.5,-321 467.5,-317 463.5,-317 "/>
<polyline fill="none" stroke="black" points="463.5,-297 467.5,-297 467.5,-293 463.5,-293 "/>
<text text-anchor="middle" x="531" y="-303.3" font-family="Times,serif" font-size="14.00">PACK_PARTICLE</text>
</a>
</g>
</g>
<!-- CALL_8fa8f00&#45;&gt;CALL_8fac8a0 -->
<g id="edge15" class="edge">
<title>CALL_8fa8f00&#45;&gt;CALL_8fac8a0</title>
<path fill="none" stroke="black" d="M531,-360.7C531,-352.98 531,-343.71 531,-335.11"/>
<polygon fill="black" stroke="black" points="534.5,-335.1 531,-325.1 527.5,-335.1 534.5,-335.1"/>
</g>
<!-- CALL_8fb01c0 -->
<g id="node17" class="node">
<title>CALL_8fb01c0</title>
<g id="a_node17"><a xlink:href="NULLIFY_PARTICLE.svg" xlink:title="NULLIFY_PARTICLE">
<polygon fill="lightgray" stroke="black" points="612,-253 450,-253 450,-249 446,-249 446,-245 450,-245 450,-225 446,-225 446,-221 450,-221 450,-217 612,-217 612,-253"/>
<polyline fill="none" stroke="black" points="450,-249 454,-249 454,-245 450,-245 "/>
<polyline fill="none" stroke="black" points="450,-225 454,-225 454,-221 450,-221 "/>
<text text-anchor="middle" x="531" y="-231.3" font-family="Times,serif" font-size="14.00">NULLIFY_PARTICLE</text>
</a>
</g>
</g>
<!-- CALL_8fac8a0&#45;&gt;CALL_8fb01c0 -->
<g id="edge16" class="edge">
<title>CALL_8fac8a0&#45;&gt;CALL_8fb01c0</title>
<path fill="none" stroke="black" d="M531,-288.7C531,-280.98 531,-271.71 531,-263.11"/>
<polygon fill="black" stroke="black" points="534.5,-263.1 531,-253.1 527.5,-263.1 534.5,-263.1"/>
</g>
<!-- COMMENT_8fb1220+1 -->
<g id="node18" class="node">
<title>COMMENT_8fb1220+1</title>
<polygon fill="none" stroke="black" points="1004.5,-181 51.5,-181 51.5,-145 1010.5,-145 1010.5,-175 1004.5,-181"/>
<polyline fill="none" stroke="black" points="1004.5,-181 1004.5,-175 "/>
<polyline fill="none" stroke="black" points="1010.5,-175 1004.5,-175 "/>
<text text-anchor="middle" x="531" y="-159.3" font-family="Times,serif" font-size="14.00">Allocate SEND_BUFFER to hold particles that leave mesh NM and a RECV_BUFFER for particles entering a NEIGHBORING_MESH</text>
</g>
<!-- CALL_8fb01c0&#45;&gt;COMMENT_8fb1220+1 -->
<g id="edge17" class="edge">
<title>CALL_8fb01c0&#45;&gt;COMMENT_8fb1220+1</title>
<path fill="none" stroke="black" d="M531,-216.7C531,-208.98 531,-199.71 531,-191.11"/>
<polygon fill="black" stroke="black" points="534.5,-191.1 531,-181.1 527.5,-191.1 534.5,-191.1"/>
</g>
<!-- DO_8f38ea0 -->
<g id="node19" class="node">
<title>DO_8f38ea0</title>
<polygon fill="none" stroke="orange" points="646,-109 416,-109 416,-73 646,-73 646,-109"/>
<text text-anchor="middle" x="531" y="-87.3" font-family="Times,serif" font-size="14.00">NEIGHBORING_MESH_LOOP</text>
</g>
<!-- COMMENT_8fb1220+1&#45;&gt;DO_8f38ea0 -->
<g id="edge18" class="edge">
<title>COMMENT_8fb1220+1&#45;&gt;DO_8f38ea0</title>
<path fill="none" stroke="black" d="M531,-144.7C531,-136.98 531,-127.71 531,-119.11"/>
<polygon fill="black" stroke="black" points="534.5,-119.1 531,-109.1 527.5,-119.1 534.5,-119.1"/>
</g>
<!-- end_SUBPROGRAM_8fb3580 -->
<g id="node20" class="node">
<title>end_SUBPROGRAM_8fb3580</title>
<ellipse fill="black" stroke="black" cx="531" cy="-30" rx="7" ry="7"/>
</g>
<!-- DO_8f38ea0&#45;&gt;end_SUBPROGRAM_8fb3580 -->
<g id="edge19" class="edge">
<title>DO_8f38ea0&#45;&gt;end_SUBPROGRAM_8fb3580</title>
<path fill="none" stroke="black" d="M531,-72.93C531,-64.89 531,-55.33 531,-47.37"/>
<polygon fill="black" stroke="black" points="534.5,-47.22 531,-37.22 527.5,-47.22 534.5,-47.22"/>
</g>
</g>
</svg>
