<?xml version="1.0" encoding="UTF-8" standalone="no"?>
<!DOCTYPE svg PUBLIC "-//W3C//DTD SVG 1.1//EN"
 "http://www.w3.org/Graphics/SVG/1.1/DTD/svg11.dtd">
<!-- Generated by graphviz version 2.43.0 (0)
 -->
<!-- Title: INITIALIZE_GLOBAL_VARIABLES Pages: 1 -->
<svg width="454pt" height="959pt"
 viewBox="0.00 0.00 454.00 959.00" xmlns="http://www.w3.org/2000/svg" xmlns:xlink="http://www.w3.org/1999/xlink">
<g id="graph0" class="graph" transform="scale(1 1) rotate(0) translate(4 955)">
<title>INITIALIZE_GLOBAL_VARIABLES</title>
<polygon fill="white" stroke="transparent" points="-4,4 -4,-955 450,-955 450,4 -4,4"/>
<text text-anchor="middle" x="223" y="-7.8" font-family="Times,serif" font-size="14.00">INITIALIZE_GLOBAL_VARIABLES</text>
<!-- start_SUBPROGRAM_8761100 -->
<g id="node1" class="node">
<title>start_SUBPROGRAM_8761100</title>
<ellipse fill="none" stroke="black" cx="223" cy="-944" rx="7" ry="7"/>
</g>
<!-- COMMENT_874ca80+1 -->
<g id="node2" class="node">
<title>COMMENT_874ca80+1</title>
<polygon fill="none" stroke="black" points="394.5,-901 45.5,-901 45.5,-865 400.5,-865 400.5,-895 394.5,-901"/>
<polyline fill="none" stroke="black" points="394.5,-901 394.5,-895 "/>
<polyline fill="none" stroke="black" points="400.5,-895 394.5,-895 "/>
<text text-anchor="middle" x="223" y="-879.3" font-family="Times,serif" font-size="14.00">!&gt; brief Initialize time, printout and plot clocks</text>
</g>
<!-- start_SUBPROGRAM_8761100&#45;&gt;COMMENT_874ca80+1 -->
<g id="edge1" class="edge">
<title>start_SUBPROGRAM_8761100&#45;&gt;COMMENT_874ca80+1</title>
<path fill="none" stroke="black" d="M223,-936.69C223,-930.49 223,-920.59 223,-911.05"/>
<polygon fill="black" stroke="black" points="226.5,-911.02 223,-901.02 219.5,-911.02 226.5,-911.02"/>
</g>
<!-- COMMENT_874e6a0+1 -->
<g id="node3" class="node">
<title>COMMENT_874e6a0+1</title>
<polygon fill="none" stroke="black" points="440,-829 0,-829 0,-793 446,-793 446,-823 440,-829"/>
<polyline fill="none" stroke="black" points="440,-829 440,-823 "/>
<polyline fill="none" stroke="black" points="446,-823 440,-823 "/>
<text text-anchor="middle" x="223" y="-807.3" font-family="Times,serif" font-size="14.00">N_FACE manages the geometry output time GEOM_CLOCK:</text>
</g>
<!-- COMMENT_874ca80+1&#45;&gt;COMMENT_874e6a0+1 -->
<g id="edge2" class="edge">
<title>COMMENT_874ca80+1&#45;&gt;COMMENT_874e6a0+1</title>
<path fill="none" stroke="black" d="M223,-864.7C223,-856.98 223,-847.71 223,-839.11"/>
<polygon fill="black" stroke="black" points="226.5,-839.1 223,-829.1 219.5,-839.1 226.5,-839.1"/>
</g>
<!-- CALL_8750220 -->
<g id="node4" class="node">
<title>CALL_8750220</title>
<g id="a_node4"><a xlink:href="ChkMemErr.svg" xlink:title="ChkMemErr">
<polygon fill="lightgray" stroke="black" points="275,-757 171,-757 171,-753 167,-753 167,-749 171,-749 171,-729 167,-729 167,-725 171,-725 171,-721 275,-721 275,-757"/>
<polyline fill="none" stroke="black" points="171,-753 175,-753 175,-749 171,-749 "/>
<polyline fill="none" stroke="black" points="171,-729 175,-729 175,-725 171,-725 "/>
<text text-anchor="middle" x="223" y="-735.3" font-family="Times,serif" font-size="14.00">ChkMemErr</text>
</a>
</g>
</g>
<!-- COMMENT_874e6a0+1&#45;&gt;CALL_8750220 -->
<g id="edge3" class="edge">
<title>COMMENT_874e6a0+1&#45;&gt;CALL_8750220</title>
<path fill="none" stroke="black" d="M223,-792.7C223,-784.98 223,-775.71 223,-767.11"/>
<polygon fill="black" stroke="black" points="226.5,-767.1 223,-757.1 219.5,-767.1 226.5,-767.1"/>
</g>
<!-- CALL_8752100 -->
<g id="node5" class="node">
<title>CALL_8752100</title>
<g id="a_node5"><a xlink:href="ChkMemErr.svg" xlink:title="ChkMemErr">
<polygon fill="lightgray" stroke="black" points="275,-685 171,-685 171,-681 167,-681 167,-677 171,-677 171,-657 167,-657 167,-653 171,-653 171,-649 275,-649 275,-685"/>
<polyline fill="none" stroke="black" points="171,-681 175,-681 175,-677 171,-677 "/>
<polyline fill="none" stroke="black" points="171,-657 175,-657 175,-653 171,-653 "/>
<text text-anchor="middle" x="223" y="-663.3" font-family="Times,serif" font-size="14.00">ChkMemErr</text>
</a>
</g>
</g>
<!-- CALL_8750220&#45;&gt;CALL_8752100 -->
<g id="edge4" class="edge">
<title>CALL_8750220&#45;&gt;CALL_8752100</title>
<path fill="none" stroke="black" d="M223,-720.7C223,-712.98 223,-703.71 223,-695.11"/>
<polygon fill="black" stroke="black" points="226.5,-695.1 223,-685.1 219.5,-695.1 226.5,-695.1"/>
</g>
<!-- CALL_8755f20 -->
<g id="node6" class="node">
<title>CALL_8755f20</title>
<g id="a_node6"><a xlink:href="ChkMemErr.svg" xlink:title="ChkMemErr">
<polygon fill="lightgray" stroke="black" points="275,-613 171,-613 171,-609 167,-609 167,-605 171,-605 171,-585 167,-585 167,-581 171,-581 171,-577 275,-577 275,-613"/>
<polyline fill="none" stroke="black" points="171,-609 175,-609 175,-605 171,-605 "/>
<polyline fill="none" stroke="black" points="171,-585 175,-585 175,-581 171,-581 "/>
<text text-anchor="middle" x="223" y="-591.3" font-family="Times,serif" font-size="14.00">ChkMemErr</text>
</a>
</g>
</g>
<!-- CALL_8752100&#45;&gt;CALL_8755f20 -->
<g id="edge5" class="edge">
<title>CALL_8752100&#45;&gt;CALL_8755f20</title>
<path fill="none" stroke="black" d="M223,-648.7C223,-640.98 223,-631.71 223,-623.11"/>
<polygon fill="black" stroke="black" points="226.5,-623.1 223,-613.1 219.5,-623.1 226.5,-623.1"/>
</g>
<!-- CALL_8753a60 -->
<g id="node7" class="node">
<title>CALL_8753a60</title>
<g id="a_node7"><a xlink:href="ChkMemErr.svg" xlink:title="ChkMemErr">
<polygon fill="lightgray" stroke="black" points="275,-541 171,-541 171,-537 167,-537 167,-533 171,-533 171,-513 167,-513 167,-509 171,-509 171,-505 275,-505 275,-541"/>
<polyline fill="none" stroke="black" points="171,-537 175,-537 175,-533 171,-533 "/>
<polyline fill="none" stroke="black" points="171,-513 175,-513 175,-509 171,-509 "/>
<text text-anchor="middle" x="223" y="-519.3" font-family="Times,serif" font-size="14.00">ChkMemErr</text>
</a>
</g>
</g>
<!-- CALL_8755f20&#45;&gt;CALL_8753a60 -->
<g id="edge6" class="edge">
<title>CALL_8755f20&#45;&gt;CALL_8753a60</title>
<path fill="none" stroke="black" d="M223,-576.7C223,-568.98 223,-559.71 223,-551.11"/>
<polygon fill="black" stroke="black" points="226.5,-551.1 223,-541.1 219.5,-551.1 226.5,-551.1"/>
</g>
<!-- CALL_8757680 -->
<g id="node8" class="node">
<title>CALL_8757680</title>
<g id="a_node8"><a xlink:href="ChkMemErr.svg" xlink:title="ChkMemErr">
<polygon fill="lightgray" stroke="black" points="275,-469 171,-469 171,-465 167,-465 167,-461 171,-461 171,-441 167,-441 167,-437 171,-437 171,-433 275,-433 275,-469"/>
<polyline fill="none" stroke="black" points="171,-465 175,-465 175,-461 171,-461 "/>
<polyline fill="none" stroke="black" points="171,-441 175,-441 175,-437 171,-437 "/>
<text text-anchor="middle" x="223" y="-447.3" font-family="Times,serif" font-size="14.00">ChkMemErr</text>
</a>
</g>
</g>
<!-- CALL_8753a60&#45;&gt;CALL_8757680 -->
<g id="edge7" class="edge">
<title>CALL_8753a60&#45;&gt;CALL_8757680</title>
<path fill="none" stroke="black" d="M223,-504.7C223,-496.98 223,-487.71 223,-479.11"/>
<polygon fill="black" stroke="black" points="226.5,-479.1 223,-469.1 219.5,-479.1 226.5,-479.1"/>
</g>
<!-- CALL_875a640 -->
<g id="node9" class="node">
<title>CALL_875a640</title>
<g id="a_node9"><a xlink:href="ChkMemErr.svg" xlink:title="ChkMemErr">
<polygon fill="lightgray" stroke="black" points="275,-397 171,-397 171,-393 167,-393 167,-389 171,-389 171,-369 167,-369 167,-365 171,-365 171,-361 275,-361 275,-397"/>
<polyline fill="none" stroke="black" points="171,-393 175,-393 175,-389 171,-389 "/>
<polyline fill="none" stroke="black" points="171,-369 175,-369 175,-365 171,-365 "/>
<text text-anchor="middle" x="223" y="-375.3" font-family="Times,serif" font-size="14.00">ChkMemErr</text>
</a>
</g>
</g>
<!-- CALL_8757680&#45;&gt;CALL_875a640 -->
<g id="edge8" class="edge">
<title>CALL_8757680&#45;&gt;CALL_875a640</title>
<path fill="none" stroke="black" d="M223,-432.7C223,-424.98 223,-415.71 223,-407.11"/>
<polygon fill="black" stroke="black" points="226.5,-407.1 223,-397.1 219.5,-407.1 226.5,-407.1"/>
</g>
<!-- CALL_875acc0 -->
<g id="node10" class="node">
<title>CALL_875acc0</title>
<g id="a_node10"><a xlink:href="ChkMemErr.svg" xlink:title="ChkMemErr">
<polygon fill="lightgray" stroke="black" points="275,-325 171,-325 171,-321 167,-321 167,-317 171,-317 171,-297 167,-297 167,-293 171,-293 171,-289 275,-289 275,-325"/>
<polyline fill="none" stroke="black" points="171,-321 175,-321 175,-317 171,-317 "/>
<polyline fill="none" stroke="black" points="171,-297 175,-297 175,-293 171,-293 "/>
<text text-anchor="middle" x="223" y="-303.3" font-family="Times,serif" font-size="14.00">ChkMemErr</text>
</a>
</g>
</g>
<!-- CALL_875a640&#45;&gt;CALL_875acc0 -->
<g id="edge9" class="edge">
<title>CALL_875a640&#45;&gt;CALL_875acc0</title>
<path fill="none" stroke="black" d="M223,-360.7C223,-352.98 223,-343.71 223,-335.11"/>
<polygon fill="black" stroke="black" points="226.5,-335.1 223,-325.1 219.5,-335.1 226.5,-335.1"/>
</g>
<!-- CALL_875d460 -->
<g id="node11" class="node">
<title>CALL_875d460</title>
<g id="a_node11"><a xlink:href="ChkMemErr.svg" xlink:title="ChkMemErr">
<polygon fill="lightgray" stroke="black" points="275,-253 171,-253 171,-249 167,-249 167,-245 171,-245 171,-225 167,-225 167,-221 171,-221 171,-217 275,-217 275,-253"/>
<polyline fill="none" stroke="black" points="171,-249 175,-249 175,-245 171,-245 "/>
<polyline fill="none" stroke="black" points="171,-225 175,-225 175,-221 171,-221 "/>
<text text-anchor="middle" x="223" y="-231.3" font-family="Times,serif" font-size="14.00">ChkMemErr</text>
</a>
</g>
</g>
<!-- CALL_875acc0&#45;&gt;CALL_875d460 -->
<g id="edge10" class="edge">
<title>CALL_875acc0&#45;&gt;CALL_875d460</title>
<path fill="none" stroke="black" d="M223,-288.7C223,-280.98 223,-271.71 223,-263.11"/>
<polygon fill="black" stroke="black" points="226.5,-263.1 223,-253.1 219.5,-263.1 226.5,-263.1"/>
</g>
<!-- CALL_875e900 -->
<g id="node12" class="node">
<title>CALL_875e900</title>
<g id="a_node12"><a xlink:href="ChkMemErr.svg" xlink:title="ChkMemErr">
<polygon fill="lightgray" stroke="black" points="275,-181 171,-181 171,-177 167,-177 167,-173 171,-173 171,-153 167,-153 167,-149 171,-149 171,-145 275,-145 275,-181"/>
<polyline fill="none" stroke="black" points="171,-177 175,-177 175,-173 171,-173 "/>
<polyline fill="none" stroke="black" points="171,-153 175,-153 175,-149 171,-149 "/>
<text text-anchor="middle" x="223" y="-159.3" font-family="Times,serif" font-size="14.00">ChkMemErr</text>
</a>
</g>
</g>
<!-- CALL_875d460&#45;&gt;CALL_875e900 -->
<g id="edge11" class="edge">
<title>CALL_875d460&#45;&gt;CALL_875e900</title>
<path fill="none" stroke="black" d="M223,-216.7C223,-208.98 223,-199.71 223,-191.11"/>
<polygon fill="black" stroke="black" points="226.5,-191.1 223,-181.1 219.5,-191.1 226.5,-191.1"/>
</g>
<!-- CALL_875f2a0 -->
<g id="node13" class="node">
<title>CALL_875f2a0</title>
<g id="a_node13"><a xlink:href="ChkMemErr.svg" xlink:title="ChkMemErr">
<polygon fill="lightgray" stroke="black" points="275,-109 171,-109 171,-105 167,-105 167,-101 171,-101 171,-81 167,-81 167,-77 171,-77 171,-73 275,-73 275,-109"/>
<polyline fill="none" stroke="black" points="171,-105 175,-105 175,-101 171,-101 "/>
<polyline fill="none" stroke="black" points="171,-81 175,-81 175,-77 171,-77 "/>
<text text-anchor="middle" x="223" y="-87.3" font-family="Times,serif" font-size="14.00">ChkMemErr</text>
</a>
</g>
</g>
<!-- CALL_875e900&#45;&gt;CALL_875f2a0 -->
<g id="edge12" class="edge">
<title>CALL_875e900&#45;&gt;CALL_875f2a0</title>
<path fill="none" stroke="black" d="M223,-144.7C223,-136.98 223,-127.71 223,-119.11"/>
<polygon fill="black" stroke="black" points="226.5,-119.1 223,-109.1 219.5,-119.1 226.5,-119.1"/>
</g>
<!-- end_SUBPROGRAM_8761100 -->
<g id="node14" class="node">
<title>end_SUBPROGRAM_8761100</title>
<ellipse fill="black" stroke="black" cx="223" cy="-30" rx="7" ry="7"/>
</g>
<!-- CALL_875f2a0&#45;&gt;end_SUBPROGRAM_8761100 -->
<g id="edge13" class="edge">
<title>CALL_875f2a0&#45;&gt;end_SUBPROGRAM_8761100</title>
<path fill="none" stroke="black" d="M223,-72.93C223,-64.89 223,-55.33 223,-47.37"/>
<polygon fill="black" stroke="black" points="226.5,-47.22 223,-37.22 219.5,-47.22 226.5,-47.22"/>
</g>
</g>
</svg>
