<?xml version="1.0" encoding="UTF-8" standalone="no"?>
<!DOCTYPE svg PUBLIC "-//W3C//DTD SVG 1.1//EN"
 "http://www.w3.org/Graphics/SVG/1.1/DTD/svg11.dtd">
<!-- Generated by graphviz version 2.43.0 (0)
 -->
<!-- Title: MASS_FINITE_DIFFERENCES Pages: 1 -->
<svg width="804pt" height="1676pt"
 viewBox="0.00 0.00 804.00 1676.32" xmlns="http://www.w3.org/2000/svg" xmlns:xlink="http://www.w3.org/1999/xlink">
<g id="graph0" class="graph" transform="scale(1 1) rotate(0) translate(4 1672.32)">
<title>MASS_FINITE_DIFFERENCES</title>
<polygon fill="white" stroke="transparent" points="-4,4 -4,-1672.32 800,-1672.32 800,4 -4,4"/>
<text text-anchor="middle" x="398" y="-7.8" font-family="Times,serif" font-size="14.00">MASS_FINITE_DIFFERENCES</text>
<g id="clust1" class="cluster">
<title>cluster_SPECIES_LOOP</title>
<polygon fill="none" stroke="orange" points="8,-65 8,-1354.32 788,-1354.32 788,-65 8,-65"/>
<text text-anchor="middle" x="73.5" y="-1339.12" font-family="Times,serif" font-size="14.00">SPECIES_LOOP</text>
</g>
<g id="clust2" class="cluster">
<title>cluster_WALL_LOOP_2\n!$OMP PARALLEL DO PRIVATE(IW,WC,BC,B1,II,JJ,KK,IIG,JJG,KKG,IOR,IC,U_TEMP,Z_TEMP,F_TEMP)\n</title>
<polygon fill="#ffd0d0" stroke="orange" points="16,-101.72 16,-954.6 780,-954.6 780,-101.72 16,-101.72"/>
<text text-anchor="middle" x="381.5" y="-939.4" font-family="Times,serif" font-size="14.00">WALL_LOOP_2</text>
<text text-anchor="middle" x="381.5" y="-924.4" font-family="Times,serif" font-size="14.00">!$OMP PARALLEL DO PRIVATE(IW,WC,BC,B1,II,JJ,KK,IIG,JJG,KKG,IOR,IC,U_TEMP,Z_TEMP,F_TEMP)</text>
</g>
<g id="clust3" class="cluster">
<title>cluster_OFF_WALL_IF_2</title>
<polygon fill="#ffd0d0" stroke="blue" points="234,-138.44 234,-827.88 562,-827.88 562,-138.44 234,-138.44"/>
<text text-anchor="middle" x="300.5" y="-812.68" font-family="Times,serif" font-size="14.00">OFF_WALL_IF_2</text>
</g>
<g id="clust4" class="cluster">
<title>cluster_cond99b81a0</title>
<polygon fill="#ffd0d0" stroke="black" points="242,-175.16 242,-788.16 554,-788.16 554,-175.16 242,-175.16"/>
<text text-anchor="middle" x="298.5" y="-772.96" font-family="Times,serif" font-size="14.00">cond99b81a0</text>
</g>
<!-- start_SUBPROGRAM_99b9460 -->
<g id="node1" class="node">
<title>start_SUBPROGRAM_99b9460</title>
<ellipse fill="none" stroke="black" cx="398" cy="-1661.32" rx="7" ry="7"/>
</g>
<!-- COMMENT_99085c0+1 -->
<g id="node2" class="node">
<title>COMMENT_99085c0+1</title>
<polygon fill="none" stroke="black" points="637,-1618.32 153,-1618.32 153,-1580.32 643,-1580.32 643,-1612.32 637,-1618.32"/>
<polyline fill="none" stroke="black" points="637,-1618.32 637,-1612.32 "/>
<polyline fill="none" stroke="black" points="643,-1612.32 637,-1612.32 "/>
<text text-anchor="middle" x="398" y="-1603.12" font-family="Times,serif" font-size="14.00">!&gt; brief Compute spatial differences for mass transport equations</text>
<text text-anchor="middle" x="398" y="-1588.12" font-family="Times,serif" font-size="14.00">!&gt; param NM Mesh index</text>
</g>
<!-- start_SUBPROGRAM_99b9460&#45;&gt;COMMENT_99085c0+1 -->
<g id="edge1" class="edge">
<title>start_SUBPROGRAM_99b9460&#45;&gt;COMMENT_99085c0+1</title>
<path fill="none" stroke="black" d="M398,-1653.9C398,-1647.73 398,-1637.96 398,-1628.44"/>
<polygon fill="black" stroke="black" points="401.5,-1628.4 398,-1618.4 394.5,-1628.4 401.5,-1628.4"/>
</g>
<!-- CALL_990e660 -->
<g id="node3" class="node">
<title>CALL_990e660</title>
<g id="a_node3"><a xlink:href="POINT_TO_MESH.svg" xlink:title="POINT_TO_MESH">
<polygon fill="lightgray" stroke="black" points="470,-1544.32 326,-1544.32 326,-1540.32 322,-1540.32 322,-1536.32 326,-1536.32 326,-1516.32 322,-1516.32 322,-1512.32 326,-1512.32 326,-1508.32 470,-1508.32 470,-1544.32"/>
<polyline fill="none" stroke="black" points="326,-1540.32 330,-1540.32 330,-1536.32 326,-1536.32 "/>
<polyline fill="none" stroke="black" points="326,-1516.32 330,-1516.32 330,-1512.32 326,-1512.32 "/>
<text text-anchor="middle" x="398" y="-1522.62" font-family="Times,serif" font-size="14.00">POINT_TO_MESH</text>
</a>
</g>
</g>
<!-- COMMENT_99085c0+1&#45;&gt;CALL_990e660 -->
<g id="edge2" class="edge">
<title>COMMENT_99085c0+1&#45;&gt;CALL_990e660</title>
<path fill="none" stroke="black" d="M398,-1580.04C398,-1572.29 398,-1563.11 398,-1554.59"/>
<polygon fill="black" stroke="black" points="401.5,-1554.32 398,-1544.32 394.5,-1554.32 401.5,-1554.32"/>
</g>
<!-- COMMENT_99162e0+1 -->
<g id="node4" class="node">
<title>COMMENT_99162e0+1</title>
<polygon fill="none" stroke="black" points="706.5,-1472.32 83.5,-1472.32 83.5,-1434.32 712.5,-1434.32 712.5,-1466.32 706.5,-1472.32"/>
<polyline fill="none" stroke="black" points="706.5,-1472.32 706.5,-1466.32 "/>
<polyline fill="none" stroke="black" points="712.5,-1466.32 706.5,-1466.32 "/>
<text text-anchor="middle" x="398" y="-1457.12" font-family="Times,serif" font-size="14.00">Reset counter for CLIP_RHOMIN, CLIP_RHOMAX</text>
<text text-anchor="middle" x="398" y="-1442.12" font-family="Times,serif" font-size="14.00">Done here so DT_RESTRICT_COUNT will persist until WRITE_DIAGNOSTICS is called</text>
</g>
<!-- CALL_990e660&#45;&gt;COMMENT_99162e0+1 -->
<g id="edge3" class="edge">
<title>CALL_990e660&#45;&gt;COMMENT_99162e0+1</title>
<path fill="none" stroke="black" d="M398,-1508.13C398,-1500.43 398,-1491.14 398,-1482.47"/>
<polygon fill="black" stroke="black" points="401.5,-1482.34 398,-1472.34 394.5,-1482.34 401.5,-1482.34"/>
</g>
<!-- COMMENT_9916560+1 -->
<g id="node5" class="node">
<title>COMMENT_9916560+1</title>
<polygon fill="none" stroke="black" points="469.5,-1398.32 320.5,-1398.32 320.5,-1362.32 475.5,-1362.32 475.5,-1392.32 469.5,-1398.32"/>
<polyline fill="none" stroke="black" points="469.5,-1398.32 469.5,-1392.32 "/>
<polyline fill="none" stroke="black" points="475.5,-1392.32 469.5,-1392.32 "/>
<text text-anchor="middle" x="398" y="-1376.62" font-family="Times,serif" font-size="14.00">Species face values</text>
</g>
<!-- COMMENT_99162e0+1&#45;&gt;COMMENT_9916560+1 -->
<g id="edge4" class="edge">
<title>COMMENT_99162e0+1&#45;&gt;COMMENT_9916560+1</title>
<path fill="none" stroke="black" d="M398,-1434.04C398,-1426.29 398,-1417.11 398,-1408.59"/>
<polygon fill="black" stroke="black" points="401.5,-1408.32 398,-1398.32 394.5,-1408.32 401.5,-1408.32"/>
</g>
<!-- beginDO_DO_99b8480 -->
<g id="node6" class="node">
<title>beginDO_DO_99b8480</title>
<ellipse fill="black" stroke="black" cx="398" cy="-1322.96" rx="0.36" ry="0.36"/>
</g>
<!-- COMMENT_9916560+1&#45;&gt;beginDO_DO_99b8480 -->
<g id="edge23" class="edge">
<title>COMMENT_9916560+1&#45;&gt;beginDO_DO_99b8480</title>
<path fill="none" stroke="black" d="M398,-1362.11C398,-1346.36 398,-1325.32 398,-1324.02"/>
</g>
<!-- OMP_DO_991d9a0 -->
<g id="node8" class="node">
<title>OMP_DO_991d9a0</title>
<polygon fill="#ffd0d0" stroke="orange" points="485,-1286.6 311,-1286.6 311,-1250.6 485,-1250.6 485,-1286.6"/>
<text text-anchor="middle" x="398" y="-1264.9" font-family="Times,serif" font-size="14.00">!$OMP PARALLEL DO</text>
</g>
<!-- beginDO_DO_99b8480&#45;&gt;OMP_DO_991d9a0 -->
<g id="edge5" class="edge">
<title>beginDO_DO_99b8480&#45;&gt;OMP_DO_991d9a0</title>
<path fill="none" stroke="black" d="M398,-1322.45C398,-1320.97 398,-1308.92 398,-1296.7"/>
<polygon fill="black" stroke="black" points="401.5,-1296.62 398,-1286.62 394.5,-1296.62 401.5,-1296.62"/>
</g>
<!-- endDO_DO_99b8480 -->
<g id="node7" class="node">
<title>endDO_DO_99b8480</title>
<ellipse fill="black" stroke="black" cx="398" cy="-73.36" rx="0.36" ry="0.36"/>
</g>
<!-- end_SUBPROGRAM_99b9460 -->
<g id="node26" class="node">
<title>end_SUBPROGRAM_99b9460</title>
<ellipse fill="black" stroke="black" cx="398" cy="-30" rx="7" ry="7"/>
</g>
<!-- endDO_DO_99b8480&#45;&gt;end_SUBPROGRAM_99b9460 -->
<g id="edge25" class="edge">
<title>endDO_DO_99b8480&#45;&gt;end_SUBPROGRAM_99b9460</title>
<path fill="none" stroke="black" d="M398,-72.24C398,-70.89 398,-58.27 398,-47.34"/>
<polygon fill="black" stroke="black" points="401.5,-47.1 398,-37.1 394.5,-47.1 401.5,-47.1"/>
</g>
<!-- COMMENT_9920e20+2 -->
<g id="node9" class="node">
<title>COMMENT_9920e20+2</title>
<polygon fill="none" stroke="black" points="498,-1214.6 292,-1214.6 292,-1178.6 504,-1178.6 504,-1208.6 498,-1214.6"/>
<polyline fill="none" stroke="black" points="498,-1214.6 498,-1208.6 "/>
<polyline fill="none" stroke="black" points="504,-1208.6 498,-1208.6 "/>
<text text-anchor="middle" x="398" y="-1192.9" font-family="Times,serif" font-size="14.00">Compute scalar face values</text>
</g>
<!-- OMP_DO_991d9a0&#45;&gt;COMMENT_9920e20+2 -->
<g id="edge6" class="edge">
<title>OMP_DO_991d9a0&#45;&gt;COMMENT_9920e20+2</title>
<path fill="none" stroke="black" d="M398,-1250.3C398,-1242.58 398,-1233.31 398,-1224.71"/>
<polygon fill="black" stroke="black" points="401.5,-1224.7 398,-1214.7 394.5,-1224.7 401.5,-1224.7"/>
</g>
<!-- CALL_9920e20 -->
<g id="node10" class="node">
<title>CALL_9920e20</title>
<g id="a_node10"><a xlink:href="GET_SCALAR_FACE_VALUE.svg" xlink:title="GET_SCALAR_FACE_VALUE">
<polygon fill="lightgray" stroke="black" points="505.5,-1142.6 290.5,-1142.6 290.5,-1138.6 286.5,-1138.6 286.5,-1134.6 290.5,-1134.6 290.5,-1114.6 286.5,-1114.6 286.5,-1110.6 290.5,-1110.6 290.5,-1106.6 505.5,-1106.6 505.5,-1142.6"/>
<polyline fill="none" stroke="black" points="290.5,-1138.6 294.5,-1138.6 294.5,-1134.6 290.5,-1134.6 "/>
<polyline fill="none" stroke="black" points="290.5,-1114.6 294.5,-1114.6 294.5,-1110.6 290.5,-1110.6 "/>
<text text-anchor="middle" x="398" y="-1120.9" font-family="Times,serif" font-size="14.00">GET_SCALAR_FACE_VALUE</text>
</a>
</g>
</g>
<!-- COMMENT_9920e20+2&#45;&gt;CALL_9920e20 -->
<g id="edge7" class="edge">
<title>COMMENT_9920e20+2&#45;&gt;CALL_9920e20</title>
<path fill="none" stroke="black" d="M398,-1178.3C398,-1170.58 398,-1161.31 398,-1152.71"/>
<polygon fill="black" stroke="black" points="401.5,-1152.7 398,-1142.7 394.5,-1152.7 401.5,-1152.7"/>
</g>
<!-- CALL_99241a0 -->
<g id="node11" class="node">
<title>CALL_99241a0</title>
<g id="a_node11"><a xlink:href="GET_SCALAR_FACE_VALUE.svg" xlink:title="GET_SCALAR_FACE_VALUE">
<polygon fill="lightgray" stroke="black" points="505.5,-1070.6 290.5,-1070.6 290.5,-1066.6 286.5,-1066.6 286.5,-1062.6 290.5,-1062.6 290.5,-1042.6 286.5,-1042.6 286.5,-1038.6 290.5,-1038.6 290.5,-1034.6 505.5,-1034.6 505.5,-1070.6"/>
<polyline fill="none" stroke="black" points="290.5,-1066.6 294.5,-1066.6 294.5,-1062.6 290.5,-1062.6 "/>
<polyline fill="none" stroke="black" points="290.5,-1042.6 294.5,-1042.6 294.5,-1038.6 290.5,-1038.6 "/>
<text text-anchor="middle" x="398" y="-1048.9" font-family="Times,serif" font-size="14.00">GET_SCALAR_FACE_VALUE</text>
</a>
</g>
</g>
<!-- CALL_9920e20&#45;&gt;CALL_99241a0 -->
<g id="edge8" class="edge">
<title>CALL_9920e20&#45;&gt;CALL_99241a0</title>
<path fill="none" stroke="black" d="M398,-1106.3C398,-1098.58 398,-1089.31 398,-1080.71"/>
<polygon fill="black" stroke="black" points="401.5,-1080.7 398,-1070.7 394.5,-1080.7 401.5,-1080.7"/>
</g>
<!-- CALL_9927880 -->
<g id="node12" class="node">
<title>CALL_9927880</title>
<g id="a_node12"><a xlink:href="GET_SCALAR_FACE_VALUE.svg" xlink:title="GET_SCALAR_FACE_VALUE">
<polygon fill="lightgray" stroke="black" points="505.5,-998.6 290.5,-998.6 290.5,-994.6 286.5,-994.6 286.5,-990.6 290.5,-990.6 290.5,-970.6 286.5,-970.6 286.5,-966.6 290.5,-966.6 290.5,-962.6 505.5,-962.6 505.5,-998.6"/>
<polyline fill="none" stroke="black" points="290.5,-994.6 294.5,-994.6 294.5,-990.6 290.5,-990.6 "/>
<polyline fill="none" stroke="black" points="290.5,-970.6 294.5,-970.6 294.5,-966.6 290.5,-966.6 "/>
<text text-anchor="middle" x="398" y="-976.9" font-family="Times,serif" font-size="14.00">GET_SCALAR_FACE_VALUE</text>
</a>
</g>
</g>
<!-- CALL_99241a0&#45;&gt;CALL_9927880 -->
<g id="edge9" class="edge">
<title>CALL_99241a0&#45;&gt;CALL_9927880</title>
<path fill="none" stroke="black" d="M398,-1034.3C398,-1026.58 398,-1017.31 398,-1008.71"/>
<polygon fill="black" stroke="black" points="401.5,-1008.7 398,-998.7 394.5,-1008.7 401.5,-1008.7"/>
</g>
<!-- beginDO_DO_9947a00 -->
<g id="node13" class="node">
<title>beginDO_DO_9947a00</title>
<ellipse fill="black" stroke="black" cx="398" cy="-908.24" rx="0.36" ry="0.36"/>
</g>
<!-- CALL_9927880&#45;&gt;beginDO_DO_9947a00 -->
<g id="edge21" class="edge">
<title>CALL_9927880&#45;&gt;beginDO_DO_9947a00</title>
<path fill="none" stroke="black" d="M398,-962.57C398,-942.4 398,-911.26 398,-909.33"/>
</g>
<!-- COMMENT_9941c60+1 -->
<g id="node15" class="node">
<title>COMMENT_9941c60+1</title>
<polygon fill="none" stroke="black" points="765.5,-871.88 24.5,-871.88 24.5,-835.88 771.5,-835.88 771.5,-865.88 765.5,-871.88"/>
<polyline fill="none" stroke="black" points="765.5,-871.88 765.5,-865.88 "/>
<polyline fill="none" stroke="black" points="771.5,-865.88 765.5,-865.88 "/>
<text text-anchor="middle" x="398" y="-850.18" font-family="Times,serif" font-size="14.00">Overwrite first off&#45;wall advective flux if flow is away from the wall and if the face is not also a wall cell</text>
</g>
<!-- beginDO_DO_9947a00&#45;&gt;COMMENT_9941c60+1 -->
<g id="edge10" class="edge">
<title>beginDO_DO_9947a00&#45;&gt;COMMENT_9941c60+1</title>
<path fill="none" stroke="black" d="M398,-907.73C398,-906.25 398,-894.2 398,-881.98"/>
<polygon fill="black" stroke="black" points="401.5,-881.9 398,-871.9 394.5,-881.9 401.5,-881.9"/>
</g>
<!-- endDO_DO_9947a00 -->
<g id="node14" class="node">
<title>endDO_DO_9947a00</title>
<ellipse fill="black" stroke="black" cx="398" cy="-110.08" rx="0.36" ry="0.36"/>
</g>
<!-- endDO_DO_9947a00&#45;&gt;endDO_DO_99b8480 -->
<g id="edge24" class="edge">
<title>endDO_DO_9947a00&#45;&gt;endDO_DO_99b8480</title>
<path fill="none" stroke="black" d="M398,-108.98C398,-106.97 398,-75.76 398,-73.82"/>
</g>
<!-- beginIf_IF_99b8200 -->
<g id="node16" class="node">
<title>beginIf_IF_99b8200</title>
<ellipse fill="black" stroke="black" cx="398" cy="-796.52" rx="0.36" ry="0.36"/>
</g>
<!-- COMMENT_9941c60+1&#45;&gt;beginIf_IF_99b8200 -->
<g id="edge20" class="edge">
<title>COMMENT_9941c60+1&#45;&gt;beginIf_IF_99b8200</title>
<path fill="none" stroke="black" d="M398,-835.67C398,-819.92 398,-798.88 398,-797.58"/>
</g>
<!-- COMMENT_994f4e0+1 -->
<g id="node18" class="node">
<title>COMMENT_994f4e0+1</title>
<polygon fill="none" stroke="black" points="540,-757.16 250,-757.16 250,-704.16 546,-704.16 546,-751.16 540,-757.16"/>
<polyline fill="none" stroke="black" points="540,-757.16 540,-751.16 "/>
<polyline fill="none" stroke="black" points="546,-751.16 540,-751.16 "/>
<text text-anchor="middle" x="398" y="-741.96" font-family="Times,serif" font-size="14.00"> &#160;&#160;&#160;&#160;ghost &#160;&#160;&#160;&#160;&#160;&#160;&#160;&#160;&#160;FX/UU(II+1)</text>
<text text-anchor="middle" x="398" y="-726.96" font-family="Times,serif" font-size="14.00">/// &#160;&#160;II &#160;&#160;/// &#160;II+1 &#160;| &#160;II+2 &#160;| ...</text>
<text text-anchor="middle" x="398" y="-711.96" font-family="Times,serif" font-size="14.00"> &#160;&#160;&#160;&#160;&#160;&#160;&#160;&#160;&#160;&#160;&#160;&#160;&#160;&#160;&#160;&#160;&#160;&#160;&#160;&#160;&#160;^ WALL_INDEX(II+1,+1)</text>
</g>
<!-- beginIf_IF_99b8200&#45;&gt;COMMENT_994f4e0+1 -->
<g id="edge18" class="edge">
<title>beginIf_IF_99b8200&#45;&gt;COMMENT_994f4e0+1</title>
<path fill="none" stroke="black" d="M398,-796.11C398,-795.23 398,-781.94 398,-767.66"/>
<polygon fill="black" stroke="black" points="401.5,-767.24 398,-757.24 394.5,-767.24 401.5,-767.24"/>
</g>
<!-- endIf_IF_99b8200 -->
<g id="node17" class="node">
<title>endIf_IF_99b8200</title>
<ellipse fill="black" stroke="black" cx="398" cy="-146.8" rx="0.36" ry="0.36"/>
</g>
<!-- endIf_IF_99b8200&#45;&gt;endDO_DO_9947a00 -->
<g id="edge22" class="edge">
<title>endIf_IF_99b8200&#45;&gt;endDO_DO_9947a00</title>
<path fill="none" stroke="black" d="M398,-145.7C398,-143.69 398,-112.48 398,-110.54"/>
</g>
<!-- CALL_995bce0 -->
<g id="node19" class="node">
<title>CALL_995bce0</title>
<g id="a_node19"><a xlink:href="GET_SCALAR_FACE_VALUE.svg" xlink:title="GET_SCALAR_FACE_VALUE">
<polygon fill="lightgray" stroke="black" points="505.5,-668.16 290.5,-668.16 290.5,-664.16 286.5,-664.16 286.5,-660.16 290.5,-660.16 290.5,-640.16 286.5,-640.16 286.5,-636.16 290.5,-636.16 290.5,-632.16 505.5,-632.16 505.5,-668.16"/>
<polyline fill="none" stroke="black" points="290.5,-664.16 294.5,-664.16 294.5,-660.16 290.5,-660.16 "/>
<polyline fill="none" stroke="black" points="290.5,-640.16 294.5,-640.16 294.5,-636.16 290.5,-636.16 "/>
<text text-anchor="middle" x="398" y="-646.46" font-family="Times,serif" font-size="14.00">GET_SCALAR_FACE_VALUE</text>
</a>
</g>
</g>
<!-- COMMENT_994f4e0+1&#45;&gt;CALL_995bce0 -->
<g id="edge11" class="edge">
<title>COMMENT_994f4e0+1&#45;&gt;CALL_995bce0</title>
<path fill="none" stroke="black" d="M398,-703.96C398,-695.87 398,-686.92 398,-678.71"/>
<polygon fill="black" stroke="black" points="401.5,-678.49 398,-668.49 394.5,-678.49 401.5,-678.49"/>
</g>
<!-- COMMENT_9961720+1 -->
<g id="node20" class="node">
<title>COMMENT_9961720+1</title>
<polygon fill="none" stroke="black" points="512.5,-596.16 277.5,-596.16 277.5,-543.16 518.5,-543.16 518.5,-590.16 512.5,-596.16"/>
<polyline fill="none" stroke="black" points="512.5,-596.16 512.5,-590.16 "/>
<polyline fill="none" stroke="black" points="518.5,-590.16 512.5,-590.16 "/>
<text text-anchor="middle" x="398" y="-580.96" font-family="Times,serif" font-size="14.00"> &#160;&#160;&#160;&#160;&#160;&#160;&#160;&#160;&#160;&#160;FX/UU(II&#45;2) &#160;&#160;&#160;&#160;ghost</text>
<text text-anchor="middle" x="398" y="-565.96" font-family="Times,serif" font-size="14.00">... | &#160;II&#45;2 &#160;| &#160;II&#45;1 &#160;/// &#160;&#160;II &#160;&#160;///</text>
<text text-anchor="middle" x="398" y="-550.96" font-family="Times,serif" font-size="14.00"> &#160;&#160;&#160;&#160;&#160;&#160;&#160;&#160;&#160;&#160;&#160;&#160;^ WALL_INDEX(II&#45;1,&#45;1)</text>
</g>
<!-- CALL_995bce0&#45;&gt;COMMENT_9961720+1 -->
<g id="edge12" class="edge">
<title>CALL_995bce0&#45;&gt;COMMENT_9961720+1</title>
<path fill="none" stroke="black" d="M398,-632.13C398,-624.61 398,-615.47 398,-606.56"/>
<polygon fill="black" stroke="black" points="401.5,-606.32 398,-596.32 394.5,-606.32 401.5,-606.32"/>
</g>
<!-- CALL_996dac0 -->
<g id="node21" class="node">
<title>CALL_996dac0</title>
<g id="a_node21"><a xlink:href="GET_SCALAR_FACE_VALUE.svg" xlink:title="GET_SCALAR_FACE_VALUE">
<polygon fill="lightgray" stroke="black" points="505.5,-507.16 290.5,-507.16 290.5,-503.16 286.5,-503.16 286.5,-499.16 290.5,-499.16 290.5,-479.16 286.5,-479.16 286.5,-475.16 290.5,-475.16 290.5,-471.16 505.5,-471.16 505.5,-507.16"/>
<polyline fill="none" stroke="black" points="290.5,-503.16 294.5,-503.16 294.5,-499.16 290.5,-499.16 "/>
<polyline fill="none" stroke="black" points="290.5,-479.16 294.5,-479.16 294.5,-475.16 290.5,-475.16 "/>
<text text-anchor="middle" x="398" y="-485.46" font-family="Times,serif" font-size="14.00">GET_SCALAR_FACE_VALUE</text>
</a>
</g>
</g>
<!-- COMMENT_9961720+1&#45;&gt;CALL_996dac0 -->
<g id="edge13" class="edge">
<title>COMMENT_9961720+1&#45;&gt;CALL_996dac0</title>
<path fill="none" stroke="black" d="M398,-542.96C398,-534.87 398,-525.92 398,-517.71"/>
<polygon fill="black" stroke="black" points="401.5,-517.49 398,-507.49 394.5,-517.49 401.5,-517.49"/>
</g>
<!-- CALL_997f760 -->
<g id="node22" class="node">
<title>CALL_997f760</title>
<g id="a_node22"><a xlink:href="GET_SCALAR_FACE_VALUE.svg" xlink:title="GET_SCALAR_FACE_VALUE">
<polygon fill="lightgray" stroke="black" points="505.5,-435.16 290.5,-435.16 290.5,-431.16 286.5,-431.16 286.5,-427.16 290.5,-427.16 290.5,-407.16 286.5,-407.16 286.5,-403.16 290.5,-403.16 290.5,-399.16 505.5,-399.16 505.5,-435.16"/>
<polyline fill="none" stroke="black" points="290.5,-431.16 294.5,-431.16 294.5,-427.16 290.5,-427.16 "/>
<polyline fill="none" stroke="black" points="290.5,-407.16 294.5,-407.16 294.5,-403.16 290.5,-403.16 "/>
<text text-anchor="middle" x="398" y="-413.46" font-family="Times,serif" font-size="14.00">GET_SCALAR_FACE_VALUE</text>
</a>
</g>
</g>
<!-- CALL_996dac0&#45;&gt;CALL_997f760 -->
<g id="edge14" class="edge">
<title>CALL_996dac0&#45;&gt;CALL_997f760</title>
<path fill="none" stroke="black" d="M398,-470.86C398,-463.14 398,-453.87 398,-445.27"/>
<polygon fill="black" stroke="black" points="401.5,-445.26 398,-435.26 394.5,-445.26 401.5,-445.26"/>
</g>
<!-- CALL_9991640 -->
<g id="node23" class="node">
<title>CALL_9991640</title>
<g id="a_node23"><a xlink:href="GET_SCALAR_FACE_VALUE.svg" xlink:title="GET_SCALAR_FACE_VALUE">
<polygon fill="lightgray" stroke="black" points="505.5,-363.16 290.5,-363.16 290.5,-359.16 286.5,-359.16 286.5,-355.16 290.5,-355.16 290.5,-335.16 286.5,-335.16 286.5,-331.16 290.5,-331.16 290.5,-327.16 505.5,-327.16 505.5,-363.16"/>
<polyline fill="none" stroke="black" points="290.5,-359.16 294.5,-359.16 294.5,-355.16 290.5,-355.16 "/>
<polyline fill="none" stroke="black" points="290.5,-335.16 294.5,-335.16 294.5,-331.16 290.5,-331.16 "/>
<text text-anchor="middle" x="398" y="-341.46" font-family="Times,serif" font-size="14.00">GET_SCALAR_FACE_VALUE</text>
</a>
</g>
</g>
<!-- CALL_997f760&#45;&gt;CALL_9991640 -->
<g id="edge15" class="edge">
<title>CALL_997f760&#45;&gt;CALL_9991640</title>
<path fill="none" stroke="black" d="M398,-398.86C398,-391.14 398,-381.87 398,-373.27"/>
<polygon fill="black" stroke="black" points="401.5,-373.26 398,-363.26 394.5,-373.26 401.5,-373.26"/>
</g>
<!-- CALL_99a3360 -->
<g id="node24" class="node">
<title>CALL_99a3360</title>
<g id="a_node24"><a xlink:href="GET_SCALAR_FACE_VALUE.svg" xlink:title="GET_SCALAR_FACE_VALUE">
<polygon fill="lightgray" stroke="black" points="505.5,-291.16 290.5,-291.16 290.5,-287.16 286.5,-287.16 286.5,-283.16 290.5,-283.16 290.5,-263.16 286.5,-263.16 286.5,-259.16 290.5,-259.16 290.5,-255.16 505.5,-255.16 505.5,-291.16"/>
<polyline fill="none" stroke="black" points="290.5,-287.16 294.5,-287.16 294.5,-283.16 290.5,-283.16 "/>
<polyline fill="none" stroke="black" points="290.5,-263.16 294.5,-263.16 294.5,-259.16 290.5,-259.16 "/>
<text text-anchor="middle" x="398" y="-269.46" font-family="Times,serif" font-size="14.00">GET_SCALAR_FACE_VALUE</text>
</a>
</g>
</g>
<!-- CALL_9991640&#45;&gt;CALL_99a3360 -->
<g id="edge16" class="edge">
<title>CALL_9991640&#45;&gt;CALL_99a3360</title>
<path fill="none" stroke="black" d="M398,-326.86C398,-319.14 398,-309.87 398,-301.27"/>
<polygon fill="black" stroke="black" points="401.5,-301.26 398,-291.26 394.5,-301.26 401.5,-301.26"/>
</g>
<!-- CALL_99b5420 -->
<g id="node25" class="node">
<title>CALL_99b5420</title>
<g id="a_node25"><a xlink:href="GET_SCALAR_FACE_VALUE.svg" xlink:title="GET_SCALAR_FACE_VALUE">
<polygon fill="lightgray" stroke="black" points="505.5,-219.16 290.5,-219.16 290.5,-215.16 286.5,-215.16 286.5,-211.16 290.5,-211.16 290.5,-191.16 286.5,-191.16 286.5,-187.16 290.5,-187.16 290.5,-183.16 505.5,-183.16 505.5,-219.16"/>
<polyline fill="none" stroke="black" points="290.5,-215.16 294.5,-215.16 294.5,-211.16 290.5,-211.16 "/>
<polyline fill="none" stroke="black" points="290.5,-191.16 294.5,-191.16 294.5,-187.16 290.5,-187.16 "/>
<text text-anchor="middle" x="398" y="-197.46" font-family="Times,serif" font-size="14.00">GET_SCALAR_FACE_VALUE</text>
</a>
</g>
</g>
<!-- CALL_99a3360&#45;&gt;CALL_99b5420 -->
<g id="edge17" class="edge">
<title>CALL_99a3360&#45;&gt;CALL_99b5420</title>
<path fill="none" stroke="black" d="M398,-254.86C398,-247.14 398,-237.87 398,-229.27"/>
<polygon fill="black" stroke="black" points="401.5,-229.26 398,-219.26 394.5,-229.26 401.5,-229.26"/>
</g>
<!-- CALL_99b5420&#45;&gt;endIf_IF_99b8200 -->
<g id="edge19" class="edge">
<title>CALL_99b5420&#45;&gt;endIf_IF_99b8200</title>
<path fill="none" stroke="black" d="M398,-183.1C398,-168.09 398,-148.43 398,-147.22"/>
</g>
</g>
</svg>
