<?xml version="1.0" encoding="UTF-8" standalone="no"?>
<!DOCTYPE svg PUBLIC "-//W3C//DTD SVG 1.1//EN"
 "http://www.w3.org/Graphics/SVG/1.1/DTD/svg11.dtd">
<!-- Generated by graphviz version 2.43.0 (0)
 -->
<!-- Title: MATCH_VELOCITY_FLUX Pages: 1 -->
<svg width="688pt" height="604pt"
 viewBox="0.00 0.00 688.00 604.00" xmlns="http://www.w3.org/2000/svg" xmlns:xlink="http://www.w3.org/1999/xlink">
<g id="graph0" class="graph" transform="scale(1 1) rotate(0) translate(4 600)">
<title>MATCH_VELOCITY_FLUX</title>
<polygon fill="white" stroke="transparent" points="-4,4 -4,-600 684,-600 684,4 -4,4"/>
<text text-anchor="middle" x="340" y="-7.8" font-family="Times,serif" font-size="14.00">MATCH_VELOCITY_FLUX</text>
<g id="clust1" class="cluster">
<title>cluster_EXTERNAL_WALL_LOOP</title>
<polygon fill="none" stroke="orange" points="8,-65 8,-212 672,-212 672,-65 8,-65"/>
<text text-anchor="middle" x="105" y="-196.8" font-family="Times,serif" font-size="14.00">EXTERNAL_WALL_LOOP</text>
</g>
<!-- start_SUBPROGRAM_9154760 -->
<g id="node1" class="node">
<title>start_SUBPROGRAM_9154760</title>
<ellipse fill="none" stroke="black" cx="340" cy="-589" rx="7" ry="7"/>
</g>
<!-- COMMENT_910d840+1 -->
<g id="node2" class="node">
<title>COMMENT_910d840+1</title>
<polygon fill="none" stroke="black" points="647,-546 27,-546 27,-508 653,-508 653,-540 647,-546"/>
<polyline fill="none" stroke="black" points="647,-546 647,-540 "/>
<polyline fill="none" stroke="black" points="653,-540 647,-540 "/>
<text text-anchor="middle" x="340" y="-530.8" font-family="Times,serif" font-size="14.00">!&gt; brief Force normal component of velocity flux to match at interpolated boundaries</text>
<text text-anchor="middle" x="340" y="-515.8" font-family="Times,serif" font-size="14.00">!&gt; param NM Mesh number</text>
</g>
<!-- start_SUBPROGRAM_9154760&#45;&gt;COMMENT_910d840+1 -->
<g id="edge1" class="edge">
<title>start_SUBPROGRAM_9154760&#45;&gt;COMMENT_910d840+1</title>
<path fill="none" stroke="black" d="M340,-581.58C340,-575.41 340,-565.64 340,-556.12"/>
<polygon fill="black" stroke="black" points="343.5,-556.08 340,-546.08 336.5,-556.08 343.5,-556.08"/>
</g>
<!-- CALL_8fd4620 -->
<g id="node3" class="node">
<title>CALL_8fd4620</title>
<g id="a_node3"><a xlink:href="CC_MATCH_VELOCITY_FLUX.svg" xlink:title="CC_MATCH_VELOCITY_FLUX">
<polygon fill="lightgray" stroke="black" points="453.5,-472 226.5,-472 226.5,-468 222.5,-468 222.5,-464 226.5,-464 226.5,-444 222.5,-444 222.5,-440 226.5,-440 226.5,-436 453.5,-436 453.5,-472"/>
<polyline fill="none" stroke="black" points="226.5,-468 230.5,-468 230.5,-464 226.5,-464 "/>
<polyline fill="none" stroke="black" points="226.5,-444 230.5,-444 230.5,-440 226.5,-440 "/>
<text text-anchor="middle" x="340" y="-450.3" font-family="Times,serif" font-size="14.00">CC_MATCH_VELOCITY_FLUX</text>
</a>
</g>
</g>
<!-- COMMENT_910d840+1&#45;&gt;CALL_8fd4620 -->
<g id="edge2" class="edge">
<title>COMMENT_910d840+1&#45;&gt;CALL_8fd4620</title>
<path fill="none" stroke="black" d="M340,-507.72C340,-499.97 340,-490.79 340,-482.27"/>
<polygon fill="black" stroke="black" points="343.5,-482 340,-472 336.5,-482 343.5,-482"/>
</g>
<!-- COMMENT_8f58480+1 -->
<g id="node4" class="node">
<title>COMMENT_8f58480+1</title>
<polygon fill="none" stroke="black" points="441.5,-400 232.5,-400 232.5,-364 447.5,-364 447.5,-394 441.5,-400"/>
<polyline fill="none" stroke="black" points="441.5,-400 441.5,-394 "/>
<polyline fill="none" stroke="black" points="447.5,-394 441.5,-394 "/>
<text text-anchor="middle" x="340" y="-378.3" font-family="Times,serif" font-size="14.00">Assign local variable names</text>
</g>
<!-- CALL_8fd4620&#45;&gt;COMMENT_8f58480+1 -->
<g id="edge3" class="edge">
<title>CALL_8fd4620&#45;&gt;COMMENT_8f58480+1</title>
<path fill="none" stroke="black" d="M340,-435.7C340,-427.98 340,-418.71 340,-410.11"/>
<polygon fill="black" stroke="black" points="343.5,-410.1 340,-400.1 336.5,-410.1 343.5,-410.1"/>
</g>
<!-- CALL_8f58480 -->
<g id="node5" class="node">
<title>CALL_8f58480</title>
<g id="a_node5"><a xlink:href="POINT_TO_MESH.svg" xlink:title="POINT_TO_MESH">
<polygon fill="lightgray" stroke="black" points="412,-328 268,-328 268,-324 264,-324 264,-320 268,-320 268,-300 264,-300 264,-296 268,-296 268,-292 412,-292 412,-328"/>
<polyline fill="none" stroke="black" points="268,-324 272,-324 272,-320 268,-320 "/>
<polyline fill="none" stroke="black" points="268,-300 272,-300 272,-296 268,-296 "/>
<text text-anchor="middle" x="340" y="-306.3" font-family="Times,serif" font-size="14.00">POINT_TO_MESH</text>
</a>
</g>
</g>
<!-- COMMENT_8f58480+1&#45;&gt;CALL_8f58480 -->
<g id="edge4" class="edge">
<title>COMMENT_8f58480+1&#45;&gt;CALL_8f58480</title>
<path fill="none" stroke="black" d="M340,-363.7C340,-355.98 340,-346.71 340,-338.11"/>
<polygon fill="black" stroke="black" points="343.5,-338.1 340,-328.1 336.5,-338.1 343.5,-338.1"/>
</g>
<!-- COMMENT_910ec20+1 -->
<g id="node6" class="node">
<title>COMMENT_910ec20+1</title>
<polygon fill="none" stroke="black" points="585.5,-256 88.5,-256 88.5,-220 591.5,-220 591.5,-250 585.5,-256"/>
<polyline fill="none" stroke="black" points="585.5,-256 585.5,-250 "/>
<polyline fill="none" stroke="black" points="591.5,-250 585.5,-250 "/>
<text text-anchor="middle" x="340" y="-234.3" font-family="Times,serif" font-size="14.00">Loop over all cell edges and determine the appropriate velocity BCs</text>
</g>
<!-- CALL_8f58480&#45;&gt;COMMENT_910ec20+1 -->
<g id="edge5" class="edge">
<title>CALL_8f58480&#45;&gt;COMMENT_910ec20+1</title>
<path fill="none" stroke="black" d="M340,-291.7C340,-283.98 340,-274.71 340,-266.11"/>
<polygon fill="black" stroke="black" points="343.5,-266.1 340,-256.1 336.5,-266.1 343.5,-266.1"/>
</g>
<!-- COMMENT_9115960+1 -->
<g id="node7" class="node">
<title>COMMENT_9115960+1</title>
<polygon fill="none" stroke="black" points="512.5,-181 161.5,-181 161.5,-145 518.5,-145 518.5,-175 512.5,-181"/>
<polyline fill="none" stroke="black" points="512.5,-181 512.5,-175 "/>
<polyline fill="none" stroke="black" points="518.5,-175 512.5,-175 "/>
<text text-anchor="middle" x="340" y="-159.3" font-family="Times,serif" font-size="14.00">Determine the area of the interpolated cell face</text>
</g>
<!-- COMMENT_910ec20+1&#45;&gt;COMMENT_9115960+1 -->
<g id="edge7" class="edge">
<title>COMMENT_910ec20+1&#45;&gt;COMMENT_9115960+1</title>
<path fill="none" stroke="black" d="M340,-219.7C340,-211.25 340,-200.87 340,-191.37"/>
<polygon fill="black" stroke="black" points="343.5,-191.18 340,-181.18 336.5,-191.18 343.5,-191.18"/>
</g>
<!-- COMMENT_9124820+1 -->
<g id="node8" class="node">
<title>COMMENT_9124820+1</title>
<polygon fill="none" stroke="black" points="658.5,-109 15.5,-109 15.5,-73 664.5,-73 664.5,-103 658.5,-109"/>
<polyline fill="none" stroke="black" points="658.5,-109 658.5,-103 "/>
<polyline fill="none" stroke="black" points="664.5,-103 658.5,-103 "/>
<text text-anchor="middle" x="340" y="-87.3" font-family="Times,serif" font-size="14.00">Determine the normal component of velocity from the other mesh and use it for average</text>
</g>
<!-- COMMENT_9115960+1&#45;&gt;COMMENT_9124820+1 -->
<g id="edge6" class="edge">
<title>COMMENT_9115960+1&#45;&gt;COMMENT_9124820+1</title>
<path fill="none" stroke="black" d="M340,-144.7C340,-136.98 340,-127.71 340,-119.11"/>
<polygon fill="black" stroke="black" points="343.5,-119.1 340,-109.1 336.5,-119.1 343.5,-119.1"/>
</g>
<!-- end_SUBPROGRAM_9154760 -->
<g id="node9" class="node">
<title>end_SUBPROGRAM_9154760</title>
<ellipse fill="black" stroke="black" cx="340" cy="-30" rx="7" ry="7"/>
</g>
<!-- COMMENT_9124820+1&#45;&gt;end_SUBPROGRAM_9154760 -->
<g id="edge8" class="edge">
<title>COMMENT_9124820+1&#45;&gt;end_SUBPROGRAM_9154760</title>
<path fill="none" stroke="black" d="M340,-72.93C340,-64.89 340,-55.33 340,-47.37"/>
<polygon fill="black" stroke="black" points="343.5,-47.22 340,-37.22 336.5,-47.22 343.5,-47.22"/>
</g>
</g>
</svg>
