<?xml version="1.0" encoding="UTF-8" standalone="no"?>
<!DOCTYPE svg PUBLIC "-//W3C//DTD SVG 1.1//EN"
 "http://www.w3.org/Graphics/SVG/1.1/DTD/svg11.dtd">
<!-- Generated by graphviz version 2.43.0 (0)
 -->
<!-- Title: MATCH_VELOCITY Pages: 1 -->
<svg width="874pt" height="821pt"
 viewBox="0.00 0.00 874.00 821.44" xmlns="http://www.w3.org/2000/svg" xmlns:xlink="http://www.w3.org/1999/xlink">
<g id="graph0" class="graph" transform="scale(1 1) rotate(0) translate(4 817.44)">
<title>MATCH_VELOCITY</title>
<polygon fill="white" stroke="transparent" points="-4,4 -4,-817.44 870,-817.44 870,4 -4,4"/>
<text text-anchor="middle" x="433" y="-7.8" font-family="Times,serif" font-size="14.00">MATCH_VELOCITY</text>
<g id="clust1" class="cluster">
<title>cluster_EXTERNAL_WALL_LOOP</title>
<polygon fill="none" stroke="orange" points="101,-65 101,-357.44 765,-357.44 765,-65 101,-65"/>
<text text-anchor="middle" x="198" y="-342.24" font-family="Times,serif" font-size="14.00">EXTERNAL_WALL_LOOP</text>
</g>
<!-- start_SUBPROGRAM_8b181e0 -->
<g id="node1" class="node">
<title>start_SUBPROGRAM_8b181e0</title>
<ellipse fill="none" stroke="black" cx="433" cy="-806.44" rx="7" ry="7"/>
</g>
<!-- COMMENT_895ac40+1 -->
<g id="node2" class="node">
<title>COMMENT_895ac40+1</title>
<polygon fill="none" stroke="black" points="725,-763.44 135,-763.44 135,-725.44 731,-725.44 731,-757.44 725,-763.44"/>
<polyline fill="none" stroke="black" points="725,-763.44 725,-757.44 "/>
<polyline fill="none" stroke="black" points="731,-757.44 725,-757.44 "/>
<text text-anchor="middle" x="433" y="-748.24" font-family="Times,serif" font-size="14.00">!&gt; brief Force normal component of velocity to match at interpolated boundaries</text>
<text text-anchor="middle" x="433" y="-733.24" font-family="Times,serif" font-size="14.00">!&gt; param NM Mesh number</text>
</g>
<!-- start_SUBPROGRAM_8b181e0&#45;&gt;COMMENT_895ac40+1 -->
<g id="edge1" class="edge">
<title>start_SUBPROGRAM_8b181e0&#45;&gt;COMMENT_895ac40+1</title>
<path fill="none" stroke="black" d="M433,-799.02C433,-792.85 433,-783.08 433,-773.56"/>
<polygon fill="black" stroke="black" points="436.5,-773.52 433,-763.52 429.5,-773.52 436.5,-773.52"/>
</g>
<!-- CALL_8960680 -->
<g id="node3" class="node">
<title>CALL_8960680</title>
<g id="a_node3"><a xlink:href="CC_MATCH_VELOCITY.svg" xlink:title="CC_MATCH_VELOCITY">
<polygon fill="lightgray" stroke="black" points="523,-689.44 343,-689.44 343,-685.44 339,-685.44 339,-681.44 343,-681.44 343,-661.44 339,-661.44 339,-657.44 343,-657.44 343,-653.44 523,-653.44 523,-689.44"/>
<polyline fill="none" stroke="black" points="343,-685.44 347,-685.44 347,-681.44 343,-681.44 "/>
<polyline fill="none" stroke="black" points="343,-661.44 347,-661.44 347,-657.44 343,-657.44 "/>
<text text-anchor="middle" x="433" y="-667.74" font-family="Times,serif" font-size="14.00">CC_MATCH_VELOCITY</text>
</a>
</g>
</g>
<!-- COMMENT_895ac40+1&#45;&gt;CALL_8960680 -->
<g id="edge2" class="edge">
<title>COMMENT_895ac40+1&#45;&gt;CALL_8960680</title>
<path fill="none" stroke="black" d="M433,-725.16C433,-717.41 433,-708.23 433,-699.71"/>
<polygon fill="black" stroke="black" points="436.5,-699.44 433,-689.44 429.5,-699.44 436.5,-699.44"/>
</g>
<!-- COMMENT_8961880+1 -->
<g id="node4" class="node">
<title>COMMENT_8961880+1</title>
<polygon fill="none" stroke="black" points="534.5,-617.44 325.5,-617.44 325.5,-581.44 540.5,-581.44 540.5,-611.44 534.5,-617.44"/>
<polyline fill="none" stroke="black" points="534.5,-617.44 534.5,-611.44 "/>
<polyline fill="none" stroke="black" points="540.5,-611.44 534.5,-611.44 "/>
<text text-anchor="middle" x="433" y="-595.74" font-family="Times,serif" font-size="14.00">Assign local variable names</text>
</g>
<!-- CALL_8960680&#45;&gt;COMMENT_8961880+1 -->
<g id="edge3" class="edge">
<title>CALL_8960680&#45;&gt;COMMENT_8961880+1</title>
<path fill="none" stroke="black" d="M433,-653.14C433,-645.42 433,-636.15 433,-627.55"/>
<polygon fill="black" stroke="black" points="436.5,-627.54 433,-617.54 429.5,-627.54 436.5,-627.54"/>
</g>
<!-- CALL_8961880 -->
<g id="node5" class="node">
<title>CALL_8961880</title>
<g id="a_node5"><a xlink:href="POINT_TO_MESH.svg" xlink:title="POINT_TO_MESH">
<polygon fill="lightgray" stroke="black" points="505,-545.44 361,-545.44 361,-541.44 357,-541.44 357,-537.44 361,-537.44 361,-517.44 357,-517.44 357,-513.44 361,-513.44 361,-509.44 505,-509.44 505,-545.44"/>
<polyline fill="none" stroke="black" points="361,-541.44 365,-541.44 365,-537.44 361,-537.44 "/>
<polyline fill="none" stroke="black" points="361,-517.44 365,-517.44 365,-513.44 361,-513.44 "/>
<text text-anchor="middle" x="433" y="-523.74" font-family="Times,serif" font-size="14.00">POINT_TO_MESH</text>
</a>
</g>
</g>
<!-- COMMENT_8961880+1&#45;&gt;CALL_8961880 -->
<g id="edge4" class="edge">
<title>COMMENT_8961880+1&#45;&gt;CALL_8961880</title>
<path fill="none" stroke="black" d="M433,-581.14C433,-573.42 433,-564.15 433,-555.55"/>
<polygon fill="black" stroke="black" points="436.5,-555.54 433,-545.54 429.5,-555.54 436.5,-555.54"/>
</g>
<!-- COMMENT_8960c00+1 -->
<g id="node6" class="node">
<title>COMMENT_8960c00+1</title>
<polygon fill="none" stroke="black" points="569,-473.44 291,-473.44 291,-437.44 575,-437.44 575,-467.44 569,-473.44"/>
<polyline fill="none" stroke="black" points="569,-473.44 569,-467.44 "/>
<polyline fill="none" stroke="black" points="575,-467.44 569,-467.44 "/>
<text text-anchor="middle" x="433" y="-451.74" font-family="Times,serif" font-size="14.00">Point to the appropriate velocity field</text>
</g>
<!-- CALL_8961880&#45;&gt;COMMENT_8960c00+1 -->
<g id="edge5" class="edge">
<title>CALL_8961880&#45;&gt;COMMENT_8960c00+1</title>
<path fill="none" stroke="black" d="M433,-509.14C433,-501.42 433,-492.15 433,-483.55"/>
<polygon fill="black" stroke="black" points="436.5,-483.54 433,-473.54 429.5,-483.54 436.5,-483.54"/>
</g>
<!-- COMMENT_8964180+1 -->
<g id="node7" class="node">
<title>COMMENT_8964180+1</title>
<polygon fill="none" stroke="black" points="860,-401.44 0,-401.44 0,-365.44 866,-365.44 866,-395.44 860,-401.44"/>
<polyline fill="none" stroke="black" points="860,-401.44 860,-395.44 "/>
<polyline fill="none" stroke="black" points="866,-395.44 860,-395.44 "/>
<text text-anchor="middle" x="433" y="-379.74" font-family="Times,serif" font-size="14.00">Loop over all external wall cells and force adjacent normal components of velocty at interpolated boundaries to match.</text>
</g>
<!-- COMMENT_8960c00+1&#45;&gt;COMMENT_8964180+1 -->
<g id="edge6" class="edge">
<title>COMMENT_8960c00+1&#45;&gt;COMMENT_8964180+1</title>
<path fill="none" stroke="black" d="M433,-437.14C433,-429.42 433,-420.15 433,-411.55"/>
<polygon fill="black" stroke="black" points="436.5,-411.54 433,-401.54 429.5,-411.54 436.5,-411.54"/>
</g>
<!-- beginDO_DO_8b17c80 -->
<g id="node8" class="node">
<title>beginDO_DO_8b17c80</title>
<ellipse fill="black" stroke="black" cx="433" cy="-326.08" rx="0.36" ry="0.36"/>
</g>
<!-- COMMENT_8964180+1&#45;&gt;beginDO_DO_8b17c80 -->
<g id="edge10" class="edge">
<title>COMMENT_8964180+1&#45;&gt;beginDO_DO_8b17c80</title>
<path fill="none" stroke="black" d="M433,-365.23C433,-349.48 433,-328.44 433,-327.14"/>
</g>
<!-- COMMENT_896ae80+1 -->
<g id="node10" class="node">
<title>COMMENT_896ae80+1</title>
<polygon fill="none" stroke="black" points="605.5,-289.72 254.5,-289.72 254.5,-253.72 611.5,-253.72 611.5,-283.72 605.5,-289.72"/>
<polyline fill="none" stroke="black" points="605.5,-289.72 605.5,-283.72 "/>
<polyline fill="none" stroke="black" points="611.5,-283.72 605.5,-283.72 "/>
<text text-anchor="middle" x="433" y="-268.02" font-family="Times,serif" font-size="14.00">Determine the area of the interpolated cell face</text>
</g>
<!-- beginDO_DO_8b17c80&#45;&gt;COMMENT_896ae80+1 -->
<g id="edge7" class="edge">
<title>beginDO_DO_8b17c80&#45;&gt;COMMENT_896ae80+1</title>
<path fill="none" stroke="black" d="M433,-325.57C433,-324.09 433,-312.04 433,-299.82"/>
<polygon fill="black" stroke="black" points="436.5,-299.74 433,-289.74 429.5,-299.74 436.5,-299.74"/>
</g>
<!-- endDO_DO_8b17c80 -->
<g id="node9" class="node">
<title>endDO_DO_8b17c80</title>
<ellipse fill="black" stroke="black" cx="433" cy="-73.36" rx="0.36" ry="0.36"/>
</g>
<!-- end_SUBPROGRAM_8b181e0 -->
<g id="node13" class="node">
<title>end_SUBPROGRAM_8b181e0</title>
<ellipse fill="black" stroke="black" cx="433" cy="-30" rx="7" ry="7"/>
</g>
<!-- endDO_DO_8b17c80&#45;&gt;end_SUBPROGRAM_8b181e0 -->
<g id="edge12" class="edge">
<title>endDO_DO_8b17c80&#45;&gt;end_SUBPROGRAM_8b181e0</title>
<path fill="none" stroke="black" d="M433,-72.24C433,-70.89 433,-58.27 433,-47.34"/>
<polygon fill="black" stroke="black" points="436.5,-47.1 433,-37.1 429.5,-47.1 436.5,-47.1"/>
</g>
<!-- COMMENT_897bd00+1 -->
<g id="node11" class="node">
<title>COMMENT_897bd00+1</title>
<polygon fill="none" stroke="black" points="751.5,-217.72 108.5,-217.72 108.5,-181.72 757.5,-181.72 757.5,-211.72 751.5,-217.72"/>
<polyline fill="none" stroke="black" points="751.5,-217.72 751.5,-211.72 "/>
<polyline fill="none" stroke="black" points="757.5,-211.72 751.5,-211.72 "/>
<text text-anchor="middle" x="433" y="-196.02" font-family="Times,serif" font-size="14.00">Determine the normal component of velocity from the other mesh and use it for average</text>
</g>
<!-- COMMENT_896ae80+1&#45;&gt;COMMENT_897bd00+1 -->
<g id="edge8" class="edge">
<title>COMMENT_896ae80+1&#45;&gt;COMMENT_897bd00+1</title>
<path fill="none" stroke="black" d="M433,-253.42C433,-245.7 433,-236.43 433,-227.83"/>
<polygon fill="black" stroke="black" points="436.5,-227.82 433,-217.82 429.5,-227.82 436.5,-227.82"/>
</g>
<!-- COMMENT_89d9680+1 -->
<g id="node12" class="node">
<title>COMMENT_89d9680+1</title>
<polygon fill="none" stroke="black" points="622,-145.72 238,-145.72 238,-109.72 628,-109.72 628,-139.72 622,-145.72"/>
<polyline fill="none" stroke="black" points="622,-145.72 622,-139.72 "/>
<polyline fill="none" stroke="black" points="628,-139.72 622,-139.72 "/>
<text text-anchor="middle" x="433" y="-124.02" font-family="Times,serif" font-size="14.00">Save velocity components at the ghost cell midpoint</text>
</g>
<!-- COMMENT_897bd00+1&#45;&gt;COMMENT_89d9680+1 -->
<g id="edge9" class="edge">
<title>COMMENT_897bd00+1&#45;&gt;COMMENT_89d9680+1</title>
<path fill="none" stroke="black" d="M433,-181.42C433,-173.7 433,-164.43 433,-155.83"/>
<polygon fill="black" stroke="black" points="436.5,-155.82 433,-145.82 429.5,-155.82 436.5,-155.82"/>
</g>
<!-- COMMENT_89d9680+1&#45;&gt;endDO_DO_8b17c80 -->
<g id="edge11" class="edge">
<title>COMMENT_89d9680+1&#45;&gt;endDO_DO_8b17c80</title>
<path fill="none" stroke="black" d="M433,-109.66C433,-94.65 433,-74.99 433,-73.78"/>
</g>
</g>
</svg>
