<?xml version="1.0" encoding="UTF-8" standalone="no"?>
<!DOCTYPE svg PUBLIC "-//W3C//DTD SVG 1.1//EN"
 "http://www.w3.org/Graphics/SVG/1.1/DTD/svg11.dtd">
<!-- Generated by graphviz version 2.43.0 (0)
 -->
<!-- Title: MATCH_VELOCITY_FLUX Pages: 1 -->
<svg width="688pt" height="677pt"
 viewBox="0.00 0.00 688.00 677.44" xmlns="http://www.w3.org/2000/svg" xmlns:xlink="http://www.w3.org/1999/xlink">
<g id="graph0" class="graph" transform="scale(1 1) rotate(0) translate(4 673.44)">
<title>MATCH_VELOCITY_FLUX</title>
<polygon fill="white" stroke="transparent" points="-4,4 -4,-673.44 684,-673.44 684,4 -4,4"/>
<text text-anchor="middle" x="340" y="-7.8" font-family="Times,serif" font-size="14.00">MATCH_VELOCITY_FLUX</text>
<g id="clust1" class="cluster">
<title>cluster_EXTERNAL_WALL_LOOP</title>
<polygon fill="none" stroke="orange" points="8,-65 8,-285.44 672,-285.44 672,-65 8,-65"/>
<text text-anchor="middle" x="105" y="-270.24" font-family="Times,serif" font-size="14.00">EXTERNAL_WALL_LOOP</text>
</g>
<!-- start_SUBPROGRAM_91679c0 -->
<g id="node1" class="node">
<title>start_SUBPROGRAM_91679c0</title>
<ellipse fill="none" stroke="black" cx="340" cy="-662.44" rx="7" ry="7"/>
</g>
<!-- COMMENT_9120040+1 -->
<g id="node2" class="node">
<title>COMMENT_9120040+1</title>
<polygon fill="none" stroke="black" points="647,-619.44 27,-619.44 27,-581.44 653,-581.44 653,-613.44 647,-619.44"/>
<polyline fill="none" stroke="black" points="647,-619.44 647,-613.44 "/>
<polyline fill="none" stroke="black" points="653,-613.44 647,-613.44 "/>
<text text-anchor="middle" x="340" y="-604.24" font-family="Times,serif" font-size="14.00">!&gt; brief Force normal component of velocity flux to match at interpolated boundaries</text>
<text text-anchor="middle" x="340" y="-589.24" font-family="Times,serif" font-size="14.00">!&gt; param NM Mesh number</text>
</g>
<!-- start_SUBPROGRAM_91679c0&#45;&gt;COMMENT_9120040+1 -->
<g id="edge1" class="edge">
<title>start_SUBPROGRAM_91679c0&#45;&gt;COMMENT_9120040+1</title>
<path fill="none" stroke="black" d="M340,-655.02C340,-648.85 340,-639.08 340,-629.56"/>
<polygon fill="black" stroke="black" points="343.5,-629.52 340,-619.52 336.5,-629.52 343.5,-629.52"/>
</g>
<!-- CALL_8f67b60 -->
<g id="node3" class="node">
<title>CALL_8f67b60</title>
<g id="a_node3"><a xlink:href="CC_MATCH_VELOCITY_FLUX.svg" xlink:title="CC_MATCH_VELOCITY_FLUX">
<polygon fill="lightgray" stroke="black" points="453.5,-545.44 226.5,-545.44 226.5,-541.44 222.5,-541.44 222.5,-537.44 226.5,-537.44 226.5,-517.44 222.5,-517.44 222.5,-513.44 226.5,-513.44 226.5,-509.44 453.5,-509.44 453.5,-545.44"/>
<polyline fill="none" stroke="black" points="226.5,-541.44 230.5,-541.44 230.5,-537.44 226.5,-537.44 "/>
<polyline fill="none" stroke="black" points="226.5,-517.44 230.5,-517.44 230.5,-513.44 226.5,-513.44 "/>
<text text-anchor="middle" x="340" y="-523.74" font-family="Times,serif" font-size="14.00">CC_MATCH_VELOCITY_FLUX</text>
</a>
</g>
</g>
<!-- COMMENT_9120040+1&#45;&gt;CALL_8f67b60 -->
<g id="edge2" class="edge">
<title>COMMENT_9120040+1&#45;&gt;CALL_8f67b60</title>
<path fill="none" stroke="black" d="M340,-581.16C340,-573.41 340,-564.23 340,-555.71"/>
<polygon fill="black" stroke="black" points="343.5,-555.44 340,-545.44 336.5,-555.44 343.5,-555.44"/>
</g>
<!-- COMMENT_9110900+1 -->
<g id="node4" class="node">
<title>COMMENT_9110900+1</title>
<polygon fill="none" stroke="black" points="441.5,-473.44 232.5,-473.44 232.5,-437.44 447.5,-437.44 447.5,-467.44 441.5,-473.44"/>
<polyline fill="none" stroke="black" points="441.5,-473.44 441.5,-467.44 "/>
<polyline fill="none" stroke="black" points="447.5,-467.44 441.5,-467.44 "/>
<text text-anchor="middle" x="340" y="-451.74" font-family="Times,serif" font-size="14.00">Assign local variable names</text>
</g>
<!-- CALL_8f67b60&#45;&gt;COMMENT_9110900+1 -->
<g id="edge3" class="edge">
<title>CALL_8f67b60&#45;&gt;COMMENT_9110900+1</title>
<path fill="none" stroke="black" d="M340,-509.14C340,-501.42 340,-492.15 340,-483.55"/>
<polygon fill="black" stroke="black" points="343.5,-483.54 340,-473.54 336.5,-483.54 343.5,-483.54"/>
</g>
<!-- CALL_9110900 -->
<g id="node5" class="node">
<title>CALL_9110900</title>
<g id="a_node5"><a xlink:href="POINT_TO_MESH.svg" xlink:title="POINT_TO_MESH">
<polygon fill="lightgray" stroke="black" points="412,-401.44 268,-401.44 268,-397.44 264,-397.44 264,-393.44 268,-393.44 268,-373.44 264,-373.44 264,-369.44 268,-369.44 268,-365.44 412,-365.44 412,-401.44"/>
<polyline fill="none" stroke="black" points="268,-397.44 272,-397.44 272,-393.44 268,-393.44 "/>
<polyline fill="none" stroke="black" points="268,-373.44 272,-373.44 272,-369.44 268,-369.44 "/>
<text text-anchor="middle" x="340" y="-379.74" font-family="Times,serif" font-size="14.00">POINT_TO_MESH</text>
</a>
</g>
</g>
<!-- COMMENT_9110900+1&#45;&gt;CALL_9110900 -->
<g id="edge4" class="edge">
<title>COMMENT_9110900+1&#45;&gt;CALL_9110900</title>
<path fill="none" stroke="black" d="M340,-437.14C340,-429.42 340,-420.15 340,-411.55"/>
<polygon fill="black" stroke="black" points="343.5,-411.54 340,-401.54 336.5,-411.54 343.5,-411.54"/>
</g>
<!-- COMMENT_8ff61e0+1 -->
<g id="node6" class="node">
<title>COMMENT_8ff61e0+1</title>
<polygon fill="none" stroke="black" points="585.5,-329.44 88.5,-329.44 88.5,-293.44 591.5,-293.44 591.5,-323.44 585.5,-329.44"/>
<polyline fill="none" stroke="black" points="585.5,-329.44 585.5,-323.44 "/>
<polyline fill="none" stroke="black" points="591.5,-323.44 585.5,-323.44 "/>
<text text-anchor="middle" x="340" y="-307.74" font-family="Times,serif" font-size="14.00">Loop over all cell edges and determine the appropriate velocity BCs</text>
</g>
<!-- CALL_9110900&#45;&gt;COMMENT_8ff61e0+1 -->
<g id="edge5" class="edge">
<title>CALL_9110900&#45;&gt;COMMENT_8ff61e0+1</title>
<path fill="none" stroke="black" d="M340,-365.14C340,-357.42 340,-348.15 340,-339.55"/>
<polygon fill="black" stroke="black" points="343.5,-339.54 340,-329.54 336.5,-339.54 343.5,-339.54"/>
</g>
<!-- beginDO_DO_9163bc0 -->
<g id="node7" class="node">
<title>beginDO_DO_9163bc0</title>
<ellipse fill="black" stroke="black" cx="340" cy="-254.08" rx="0.36" ry="0.36"/>
</g>
<!-- COMMENT_8ff61e0+1&#45;&gt;beginDO_DO_9163bc0 -->
<g id="edge8" class="edge">
<title>COMMENT_8ff61e0+1&#45;&gt;beginDO_DO_9163bc0</title>
<path fill="none" stroke="black" d="M340,-293.23C340,-277.48 340,-256.44 340,-255.14"/>
</g>
<!-- COMMENT_9125480+1 -->
<g id="node9" class="node">
<title>COMMENT_9125480+1</title>
<polygon fill="none" stroke="black" points="512.5,-217.72 161.5,-217.72 161.5,-181.72 518.5,-181.72 518.5,-211.72 512.5,-217.72"/>
<polyline fill="none" stroke="black" points="512.5,-217.72 512.5,-211.72 "/>
<polyline fill="none" stroke="black" points="518.5,-211.72 512.5,-211.72 "/>
<text text-anchor="middle" x="340" y="-196.02" font-family="Times,serif" font-size="14.00">Determine the area of the interpolated cell face</text>
</g>
<!-- beginDO_DO_9163bc0&#45;&gt;COMMENT_9125480+1 -->
<g id="edge6" class="edge">
<title>beginDO_DO_9163bc0&#45;&gt;COMMENT_9125480+1</title>
<path fill="none" stroke="black" d="M340,-253.57C340,-252.09 340,-240.04 340,-227.82"/>
<polygon fill="black" stroke="black" points="343.5,-227.74 340,-217.74 336.5,-227.74 343.5,-227.74"/>
</g>
<!-- endDO_DO_9163bc0 -->
<g id="node8" class="node">
<title>endDO_DO_9163bc0</title>
<ellipse fill="black" stroke="black" cx="340" cy="-73.36" rx="0.36" ry="0.36"/>
</g>
<!-- end_SUBPROGRAM_91679c0 -->
<g id="node11" class="node">
<title>end_SUBPROGRAM_91679c0</title>
<ellipse fill="black" stroke="black" cx="340" cy="-30" rx="7" ry="7"/>
</g>
<!-- endDO_DO_9163bc0&#45;&gt;end_SUBPROGRAM_91679c0 -->
<g id="edge10" class="edge">
<title>endDO_DO_9163bc0&#45;&gt;end_SUBPROGRAM_91679c0</title>
<path fill="none" stroke="black" d="M340,-72.24C340,-70.89 340,-58.27 340,-47.34"/>
<polygon fill="black" stroke="black" points="343.5,-47.1 340,-37.1 336.5,-47.1 343.5,-47.1"/>
</g>
<!-- COMMENT_91355e0+1 -->
<g id="node10" class="node">
<title>COMMENT_91355e0+1</title>
<polygon fill="none" stroke="black" points="658.5,-145.72 15.5,-145.72 15.5,-109.72 664.5,-109.72 664.5,-139.72 658.5,-145.72"/>
<polyline fill="none" stroke="black" points="658.5,-145.72 658.5,-139.72 "/>
<polyline fill="none" stroke="black" points="664.5,-139.72 658.5,-139.72 "/>
<text text-anchor="middle" x="340" y="-124.02" font-family="Times,serif" font-size="14.00">Determine the normal component of velocity from the other mesh and use it for average</text>
</g>
<!-- COMMENT_9125480+1&#45;&gt;COMMENT_91355e0+1 -->
<g id="edge7" class="edge">
<title>COMMENT_9125480+1&#45;&gt;COMMENT_91355e0+1</title>
<path fill="none" stroke="black" d="M340,-181.42C340,-173.7 340,-164.43 340,-155.83"/>
<polygon fill="black" stroke="black" points="343.5,-155.82 340,-145.82 336.5,-155.82 343.5,-155.82"/>
</g>
<!-- COMMENT_91355e0+1&#45;&gt;endDO_DO_9163bc0 -->
<g id="edge9" class="edge">
<title>COMMENT_91355e0+1&#45;&gt;endDO_DO_9163bc0</title>
<path fill="none" stroke="black" d="M340,-109.66C340,-94.65 340,-74.99 340,-73.78"/>
</g>
</g>
</svg>
