<?xml version="1.0" encoding="UTF-8" standalone="no"?>
<!DOCTYPE svg PUBLIC "-//W3C//DTD SVG 1.1//EN"
 "http://www.w3.org/Graphics/SVG/1.1/DTD/svg11.dtd">
<!-- Generated by graphviz version 2.43.0 (0)
 -->
<!-- Title: MATCH_VELOCITY Pages: 1 -->
<svg width="874pt" height="748pt"
 viewBox="0.00 0.00 874.00 748.00" xmlns="http://www.w3.org/2000/svg" xmlns:xlink="http://www.w3.org/1999/xlink">
<g id="graph0" class="graph" transform="scale(1 1) rotate(0) translate(4 744)">
<title>MATCH_VELOCITY</title>
<polygon fill="white" stroke="transparent" points="-4,4 -4,-744 870,-744 870,4 -4,4"/>
<text text-anchor="middle" x="433" y="-7.8" font-family="Times,serif" font-size="14.00">MATCH_VELOCITY</text>
<g id="clust1" class="cluster">
<title>cluster_EXTERNAL_WALL_LOOP</title>
<polygon fill="none" stroke="orange" points="101,-65 101,-284 765,-284 765,-65 101,-65"/>
<text text-anchor="middle" x="198" y="-268.8" font-family="Times,serif" font-size="14.00">EXTERNAL_WALL_LOOP</text>
</g>
<!-- start_SUBPROGRAM_91099c0 -->
<g id="node1" class="node">
<title>start_SUBPROGRAM_91099c0</title>
<ellipse fill="none" stroke="black" cx="433" cy="-733" rx="7" ry="7"/>
</g>
<!-- COMMENT_8f50200+1 -->
<g id="node2" class="node">
<title>COMMENT_8f50200+1</title>
<polygon fill="none" stroke="black" points="725,-690 135,-690 135,-652 731,-652 731,-684 725,-690"/>
<polyline fill="none" stroke="black" points="725,-690 725,-684 "/>
<polyline fill="none" stroke="black" points="731,-684 725,-684 "/>
<text text-anchor="middle" x="433" y="-674.8" font-family="Times,serif" font-size="14.00">!&gt; brief Force normal component of velocity to match at interpolated boundaries</text>
<text text-anchor="middle" x="433" y="-659.8" font-family="Times,serif" font-size="14.00">!&gt; param NM Mesh number</text>
</g>
<!-- start_SUBPROGRAM_91099c0&#45;&gt;COMMENT_8f50200+1 -->
<g id="edge1" class="edge">
<title>start_SUBPROGRAM_91099c0&#45;&gt;COMMENT_8f50200+1</title>
<path fill="none" stroke="black" d="M433,-725.58C433,-719.41 433,-709.64 433,-700.12"/>
<polygon fill="black" stroke="black" points="436.5,-700.08 433,-690.08 429.5,-700.08 436.5,-700.08"/>
</g>
<!-- CALL_8f55e60 -->
<g id="node3" class="node">
<title>CALL_8f55e60</title>
<g id="a_node3"><a xlink:href="CC_MATCH_VELOCITY.svg" xlink:title="CC_MATCH_VELOCITY">
<polygon fill="lightgray" stroke="black" points="523,-616 343,-616 343,-612 339,-612 339,-608 343,-608 343,-588 339,-588 339,-584 343,-584 343,-580 523,-580 523,-616"/>
<polyline fill="none" stroke="black" points="343,-612 347,-612 347,-608 343,-608 "/>
<polyline fill="none" stroke="black" points="343,-588 347,-588 347,-584 343,-584 "/>
<text text-anchor="middle" x="433" y="-594.3" font-family="Times,serif" font-size="14.00">CC_MATCH_VELOCITY</text>
</a>
</g>
</g>
<!-- COMMENT_8f50200+1&#45;&gt;CALL_8f55e60 -->
<g id="edge2" class="edge">
<title>COMMENT_8f50200+1&#45;&gt;CALL_8f55e60</title>
<path fill="none" stroke="black" d="M433,-651.72C433,-643.97 433,-634.79 433,-626.27"/>
<polygon fill="black" stroke="black" points="436.5,-626 433,-616 429.5,-626 436.5,-626"/>
</g>
<!-- COMMENT_8f56820+1 -->
<g id="node4" class="node">
<title>COMMENT_8f56820+1</title>
<polygon fill="none" stroke="black" points="534.5,-544 325.5,-544 325.5,-508 540.5,-508 540.5,-538 534.5,-544"/>
<polyline fill="none" stroke="black" points="534.5,-544 534.5,-538 "/>
<polyline fill="none" stroke="black" points="540.5,-538 534.5,-538 "/>
<text text-anchor="middle" x="433" y="-522.3" font-family="Times,serif" font-size="14.00">Assign local variable names</text>
</g>
<!-- CALL_8f55e60&#45;&gt;COMMENT_8f56820+1 -->
<g id="edge3" class="edge">
<title>CALL_8f55e60&#45;&gt;COMMENT_8f56820+1</title>
<path fill="none" stroke="black" d="M433,-579.7C433,-571.98 433,-562.71 433,-554.11"/>
<polygon fill="black" stroke="black" points="436.5,-554.1 433,-544.1 429.5,-554.1 436.5,-554.1"/>
</g>
<!-- CALL_8f56820 -->
<g id="node5" class="node">
<title>CALL_8f56820</title>
<g id="a_node5"><a xlink:href="POINT_TO_MESH.svg" xlink:title="POINT_TO_MESH">
<polygon fill="lightgray" stroke="black" points="505,-472 361,-472 361,-468 357,-468 357,-464 361,-464 361,-444 357,-444 357,-440 361,-440 361,-436 505,-436 505,-472"/>
<polyline fill="none" stroke="black" points="361,-468 365,-468 365,-464 361,-464 "/>
<polyline fill="none" stroke="black" points="361,-444 365,-444 365,-440 361,-440 "/>
<text text-anchor="middle" x="433" y="-450.3" font-family="Times,serif" font-size="14.00">POINT_TO_MESH</text>
</a>
</g>
</g>
<!-- COMMENT_8f56820+1&#45;&gt;CALL_8f56820 -->
<g id="edge4" class="edge">
<title>COMMENT_8f56820+1&#45;&gt;CALL_8f56820</title>
<path fill="none" stroke="black" d="M433,-507.7C433,-499.98 433,-490.71 433,-482.11"/>
<polygon fill="black" stroke="black" points="436.5,-482.1 433,-472.1 429.5,-482.1 436.5,-482.1"/>
</g>
<!-- COMMENT_8f56640+1 -->
<g id="node6" class="node">
<title>COMMENT_8f56640+1</title>
<polygon fill="none" stroke="black" points="569,-400 291,-400 291,-364 575,-364 575,-394 569,-400"/>
<polyline fill="none" stroke="black" points="569,-400 569,-394 "/>
<polyline fill="none" stroke="black" points="575,-394 569,-394 "/>
<text text-anchor="middle" x="433" y="-378.3" font-family="Times,serif" font-size="14.00">Point to the appropriate velocity field</text>
</g>
<!-- CALL_8f56820&#45;&gt;COMMENT_8f56640+1 -->
<g id="edge5" class="edge">
<title>CALL_8f56820&#45;&gt;COMMENT_8f56640+1</title>
<path fill="none" stroke="black" d="M433,-435.7C433,-427.98 433,-418.71 433,-410.11"/>
<polygon fill="black" stroke="black" points="436.5,-410.1 433,-400.1 429.5,-410.1 436.5,-410.1"/>
</g>
<!-- COMMENT_8f59580+1 -->
<g id="node7" class="node">
<title>COMMENT_8f59580+1</title>
<polygon fill="none" stroke="black" points="860,-328 0,-328 0,-292 866,-292 866,-322 860,-328"/>
<polyline fill="none" stroke="black" points="860,-328 860,-322 "/>
<polyline fill="none" stroke="black" points="866,-322 860,-322 "/>
<text text-anchor="middle" x="433" y="-306.3" font-family="Times,serif" font-size="14.00">Loop over all external wall cells and force adjacent normal components of velocty at interpolated boundaries to match.</text>
</g>
<!-- COMMENT_8f56640+1&#45;&gt;COMMENT_8f59580+1 -->
<g id="edge6" class="edge">
<title>COMMENT_8f56640+1&#45;&gt;COMMENT_8f59580+1</title>
<path fill="none" stroke="black" d="M433,-363.7C433,-355.98 433,-346.71 433,-338.11"/>
<polygon fill="black" stroke="black" points="436.5,-338.1 433,-328.1 429.5,-338.1 436.5,-338.1"/>
</g>
<!-- COMMENT_8f5c4e0+1 -->
<g id="node8" class="node">
<title>COMMENT_8f5c4e0+1</title>
<polygon fill="none" stroke="black" points="605.5,-253 254.5,-253 254.5,-217 611.5,-217 611.5,-247 605.5,-253"/>
<polyline fill="none" stroke="black" points="605.5,-253 605.5,-247 "/>
<polyline fill="none" stroke="black" points="611.5,-247 605.5,-247 "/>
<text text-anchor="middle" x="433" y="-231.3" font-family="Times,serif" font-size="14.00">Determine the area of the interpolated cell face</text>
</g>
<!-- COMMENT_8f59580+1&#45;&gt;COMMENT_8f5c4e0+1 -->
<g id="edge9" class="edge">
<title>COMMENT_8f59580+1&#45;&gt;COMMENT_8f5c4e0+1</title>
<path fill="none" stroke="black" d="M433,-291.7C433,-283.25 433,-272.87 433,-263.37"/>
<polygon fill="black" stroke="black" points="436.5,-263.18 433,-253.18 429.5,-263.18 436.5,-263.18"/>
</g>
<!-- COMMENT_8f70760+1 -->
<g id="node9" class="node">
<title>COMMENT_8f70760+1</title>
<polygon fill="none" stroke="black" points="751.5,-181 108.5,-181 108.5,-145 757.5,-145 757.5,-175 751.5,-181"/>
<polyline fill="none" stroke="black" points="751.5,-181 751.5,-175 "/>
<polyline fill="none" stroke="black" points="757.5,-175 751.5,-175 "/>
<text text-anchor="middle" x="433" y="-159.3" font-family="Times,serif" font-size="14.00">Determine the normal component of velocity from the other mesh and use it for average</text>
</g>
<!-- COMMENT_8f5c4e0+1&#45;&gt;COMMENT_8f70760+1 -->
<g id="edge7" class="edge">
<title>COMMENT_8f5c4e0+1&#45;&gt;COMMENT_8f70760+1</title>
<path fill="none" stroke="black" d="M433,-216.7C433,-208.98 433,-199.71 433,-191.11"/>
<polygon fill="black" stroke="black" points="436.5,-191.1 433,-181.1 429.5,-191.1 436.5,-191.1"/>
</g>
<!-- COMMENT_8fc5020+1 -->
<g id="node10" class="node">
<title>COMMENT_8fc5020+1</title>
<polygon fill="none" stroke="black" points="622,-109 238,-109 238,-73 628,-73 628,-103 622,-109"/>
<polyline fill="none" stroke="black" points="622,-109 622,-103 "/>
<polyline fill="none" stroke="black" points="628,-103 622,-103 "/>
<text text-anchor="middle" x="433" y="-87.3" font-family="Times,serif" font-size="14.00">Save velocity components at the ghost cell midpoint</text>
</g>
<!-- COMMENT_8f70760+1&#45;&gt;COMMENT_8fc5020+1 -->
<g id="edge8" class="edge">
<title>COMMENT_8f70760+1&#45;&gt;COMMENT_8fc5020+1</title>
<path fill="none" stroke="black" d="M433,-144.7C433,-136.98 433,-127.71 433,-119.11"/>
<polygon fill="black" stroke="black" points="436.5,-119.1 433,-109.1 429.5,-119.1 436.5,-119.1"/>
</g>
<!-- end_SUBPROGRAM_91099c0 -->
<g id="node11" class="node">
<title>end_SUBPROGRAM_91099c0</title>
<ellipse fill="black" stroke="black" cx="433" cy="-30" rx="7" ry="7"/>
</g>
<!-- COMMENT_8fc5020+1&#45;&gt;end_SUBPROGRAM_91099c0 -->
<g id="edge10" class="edge">
<title>COMMENT_8fc5020+1&#45;&gt;end_SUBPROGRAM_91099c0</title>
<path fill="none" stroke="black" d="M433,-72.93C433,-64.89 433,-55.33 433,-47.37"/>
<polygon fill="black" stroke="black" points="436.5,-47.22 433,-37.22 429.5,-47.22 436.5,-47.22"/>
</g>
</g>
</svg>
