<?xml version="1.0" encoding="UTF-8" standalone="no"?>
<!DOCTYPE svg PUBLIC "-//W3C//DTD SVG 1.1//EN"
 "http://www.w3.org/Graphics/SVG/1.1/DTD/svg11.dtd">
<!-- Generated by graphviz version 2.43.0 (0)
 -->
<!-- Title: MERGE_PRESSURE_ZONES Pages: 1 -->
<svg width="314pt" height="167pt"
 viewBox="0.00 0.00 314.00 167.00" xmlns="http://www.w3.org/2000/svg" xmlns:xlink="http://www.w3.org/1999/xlink">
<g id="graph0" class="graph" transform="scale(1 1) rotate(0) translate(4 163)">
<title>MERGE_PRESSURE_ZONES</title>
<polygon fill="white" stroke="transparent" points="-4,4 -4,-163 310,-163 310,4 -4,4"/>
<text text-anchor="middle" x="153" y="-7.8" font-family="Times,serif" font-size="14.00">MERGE_PRESSURE_ZONES</text>
<!-- start_SUBPROGRAM_9f034a0 -->
<g id="node1" class="node">
<title>start_SUBPROGRAM_9f034a0</title>
<ellipse fill="none" stroke="black" cx="153" cy="-152" rx="7" ry="7"/>
</g>
<!-- COMMENT_9d73400+1 -->
<g id="node2" class="node">
<title>COMMENT_9d73400+1</title>
<polygon fill="none" stroke="black" points="300,-109 0,-109 0,-73 306,-73 306,-103 300,-109"/>
<polyline fill="none" stroke="black" points="300,-109 300,-103 "/>
<polyline fill="none" stroke="black" points="306,-103 300,-103 "/>
<text text-anchor="middle" x="153" y="-87.3" font-family="Times,serif" font-size="14.00">CONNECTED_ZONES(:,:,NM) = .FALSE.</text>
</g>
<!-- start_SUBPROGRAM_9f034a0&#45;&gt;COMMENT_9d73400+1 -->
<g id="edge1" class="edge">
<title>start_SUBPROGRAM_9f034a0&#45;&gt;COMMENT_9d73400+1</title>
<path fill="none" stroke="black" d="M153,-144.69C153,-138.49 153,-128.59 153,-119.05"/>
<polygon fill="black" stroke="black" points="156.5,-119.02 153,-109.02 149.5,-119.02 156.5,-119.02"/>
</g>
<!-- end_SUBPROGRAM_9f034a0 -->
<g id="node3" class="node">
<title>end_SUBPROGRAM_9f034a0</title>
<ellipse fill="black" stroke="black" cx="153" cy="-30" rx="7" ry="7"/>
</g>
<!-- COMMENT_9d73400+1&#45;&gt;end_SUBPROGRAM_9f034a0 -->
<g id="edge2" class="edge">
<title>COMMENT_9d73400+1&#45;&gt;end_SUBPROGRAM_9f034a0</title>
<path fill="none" stroke="black" d="M153,-72.93C153,-64.89 153,-55.33 153,-47.37"/>
<polygon fill="black" stroke="black" points="156.5,-47.22 153,-37.22 149.5,-47.22 156.5,-47.22"/>
</g>
</g>
</svg>
