<?xml version="1.0" encoding="UTF-8" standalone="no"?>
<!DOCTYPE svg PUBLIC "-//W3C//DTD SVG 1.1//EN"
 "http://www.w3.org/Graphics/SVG/1.1/DTD/svg11.dtd">
<!-- Generated by graphviz version 2.43.0 (0)
 -->
<!-- Title: MMS_VELOCITY_FLUX Pages: 1 -->
<svg width="247pt" height="167pt"
 viewBox="0.00 0.00 247.00 167.00" xmlns="http://www.w3.org/2000/svg" xmlns:xlink="http://www.w3.org/1999/xlink">
<g id="graph0" class="graph" transform="scale(1 1) rotate(0) translate(4 163)">
<title>MMS_VELOCITY_FLUX</title>
<polygon fill="white" stroke="transparent" points="-4,4 -4,-163 243,-163 243,4 -4,4"/>
<text text-anchor="middle" x="119.5" y="-7.8" font-family="Times,serif" font-size="14.00">MMS_VELOCITY_FLUX</text>
<!-- start_SUBPROGRAM_874d820 -->
<g id="node1" class="node">
<title>start_SUBPROGRAM_874d820</title>
<ellipse fill="none" stroke="black" cx="119.5" cy="-152" rx="7" ry="7"/>
</g>
<!-- COMMENT_859fae0+1 -->
<g id="node2" class="node">
<title>COMMENT_859fae0+1</title>
<polygon fill="none" stroke="black" points="233,-109 0,-109 0,-73 239,-73 239,-103 233,-109"/>
<polyline fill="none" stroke="black" points="233,-109 233,-103 "/>
<polyline fill="none" stroke="black" points="239,-103 233,-103 "/>
<text text-anchor="middle" x="119.5" y="-87.3" font-family="Times,serif" font-size="14.00">Shunn et al., JCP (2012) prob 3</text>
</g>
<!-- start_SUBPROGRAM_874d820&#45;&gt;COMMENT_859fae0+1 -->
<g id="edge1" class="edge">
<title>start_SUBPROGRAM_874d820&#45;&gt;COMMENT_859fae0+1</title>
<path fill="none" stroke="black" d="M119.5,-144.69C119.5,-138.49 119.5,-128.59 119.5,-119.05"/>
<polygon fill="black" stroke="black" points="123,-119.02 119.5,-109.02 116,-119.02 123,-119.02"/>
</g>
<!-- end_SUBPROGRAM_874d820 -->
<g id="node3" class="node">
<title>end_SUBPROGRAM_874d820</title>
<ellipse fill="black" stroke="black" cx="119.5" cy="-30" rx="7" ry="7"/>
</g>
<!-- COMMENT_859fae0+1&#45;&gt;end_SUBPROGRAM_874d820 -->
<g id="edge2" class="edge">
<title>COMMENT_859fae0+1&#45;&gt;end_SUBPROGRAM_874d820</title>
<path fill="none" stroke="black" d="M119.5,-72.93C119.5,-64.89 119.5,-55.33 119.5,-47.37"/>
<polygon fill="black" stroke="black" points="123,-47.22 119.5,-37.22 116,-47.22 123,-47.22"/>
</g>
</g>
</svg>
