<?xml version="1.0" encoding="UTF-8" standalone="no"?>
<!DOCTYPE svg PUBLIC "-//W3C//DTD SVG 1.1//EN"
 "http://www.w3.org/Graphics/SVG/1.1/DTD/svg11.dtd">
<!-- Generated by graphviz version 2.43.0 (0)
 -->
<!-- Title: MPI_INITIALIZATION_CHORES Pages: 1 -->
<svg width="928pt" height="3421pt"
 viewBox="0.00 0.00 928.00 3421.00" xmlns="http://www.w3.org/2000/svg" xmlns:xlink="http://www.w3.org/1999/xlink">
<g id="graph0" class="graph" transform="scale(1 1) rotate(0) translate(4 3417)">
<title>MPI_INITIALIZATION_CHORES</title>
<polygon fill="white" stroke="transparent" points="-4,4 -4,-3417 924,-3417 924,4 -4,4"/>
<text text-anchor="middle" x="460" y="-7.8" font-family="Times,serif" font-size="14.00">MPI_INITIALIZATION_CHORES</text>
<!-- start_SUBPROGRAM_8d31f00 -->
<g id="node1" class="node">
<title>start_SUBPROGRAM_8d31f00</title>
<ellipse fill="none" stroke="black" cx="460" cy="-3406" rx="7" ry="7"/>
</g>
<!-- COMMENT_8772f00+1 -->
<g id="node2" class="node">
<title>COMMENT_8772f00+1</title>
<polygon fill="none" stroke="black" points="708.5,-3363 205.5,-3363 205.5,-3325 714.5,-3325 714.5,-3357 708.5,-3363"/>
<polyline fill="none" stroke="black" points="708.5,-3363 708.5,-3357 "/>
<polyline fill="none" stroke="black" points="714.5,-3357 708.5,-3357 "/>
<text text-anchor="middle" x="460" y="-3347.8" font-family="Times,serif" font-size="14.00">!&gt; brief A collection of miscellaneous initializations</text>
<text text-anchor="middle" x="460" y="-3332.8" font-family="Times,serif" font-size="14.00">!&gt; param TASK_NUMBER Integer denoting which sets of tasks to do</text>
</g>
<!-- start_SUBPROGRAM_8d31f00&#45;&gt;COMMENT_8772f00+1 -->
<g id="edge1" class="edge">
<title>start_SUBPROGRAM_8d31f00&#45;&gt;COMMENT_8772f00+1</title>
<path fill="none" stroke="black" d="M460,-3398.58C460,-3392.41 460,-3382.64 460,-3373.12"/>
<polygon fill="black" stroke="black" points="463.5,-3373.08 460,-3363.08 456.5,-3373.08 463.5,-3373.08"/>
</g>
<!-- COMMENT_93f2860+1 -->
<g id="node3" class="node">
<title>COMMENT_93f2860+1</title>
<polygon fill="none" stroke="black" points="666.5,-3289 247.5,-3289 247.5,-3253 672.5,-3253 672.5,-3283 666.5,-3289"/>
<polyline fill="none" stroke="black" points="666.5,-3289 666.5,-3283 "/>
<polyline fill="none" stroke="black" points="672.5,-3283 666.5,-3283 "/>
<text text-anchor="middle" x="460" y="-3267.3" font-family="Times,serif" font-size="14.00">Set up send and receive buffer counts and displacements</text>
</g>
<!-- COMMENT_8772f00+1&#45;&gt;COMMENT_93f2860+1 -->
<g id="edge2" class="edge">
<title>COMMENT_8772f00+1&#45;&gt;COMMENT_93f2860+1</title>
<path fill="none" stroke="black" d="M460,-3324.72C460,-3316.97 460,-3307.79 460,-3299.27"/>
<polygon fill="black" stroke="black" points="463.5,-3299 460,-3289 456.5,-3299 463.5,-3299"/>
</g>
<!-- COMMENT_87976c0+1 -->
<g id="node4" class="node">
<title>COMMENT_87976c0+1</title>
<polygon fill="none" stroke="black" points="537.5,-3217 376.5,-3217 376.5,-3181 543.5,-3181 543.5,-3211 537.5,-3217"/>
<polyline fill="none" stroke="black" points="537.5,-3217 537.5,-3211 "/>
<polyline fill="none" stroke="black" points="543.5,-3211 537.5,-3211 "/>
<text text-anchor="middle" x="460" y="-3195.3" font-family="Times,serif" font-size="14.00">Allocate TIME arrays</text>
</g>
<!-- COMMENT_93f2860+1&#45;&gt;COMMENT_87976c0+1 -->
<g id="edge3" class="edge">
<title>COMMENT_93f2860+1&#45;&gt;COMMENT_87976c0+1</title>
<path fill="none" stroke="black" d="M460,-3252.7C460,-3244.98 460,-3235.71 460,-3227.11"/>
<polygon fill="black" stroke="black" points="463.5,-3227.1 460,-3217.1 456.5,-3227.1 463.5,-3227.1"/>
</g>
<!-- CALL_8791d40 -->
<g id="node5" class="node">
<title>CALL_8791d40</title>
<g id="a_node5"><a xlink:href="ChkMemErr.svg" xlink:title="ChkMemErr">
<polygon fill="lightgray" stroke="black" points="512,-3145 408,-3145 408,-3141 404,-3141 404,-3137 408,-3137 408,-3117 404,-3117 404,-3113 408,-3113 408,-3109 512,-3109 512,-3145"/>
<polyline fill="none" stroke="black" points="408,-3141 412,-3141 412,-3137 408,-3137 "/>
<polyline fill="none" stroke="black" points="408,-3117 412,-3117 412,-3113 408,-3113 "/>
<text text-anchor="middle" x="460" y="-3123.3" font-family="Times,serif" font-size="14.00">ChkMemErr</text>
</a>
</g>
</g>
<!-- COMMENT_87976c0+1&#45;&gt;CALL_8791d40 -->
<g id="edge4" class="edge">
<title>COMMENT_87976c0+1&#45;&gt;CALL_8791d40</title>
<path fill="none" stroke="black" d="M460,-3180.7C460,-3172.98 460,-3163.71 460,-3155.11"/>
<polygon fill="black" stroke="black" points="463.5,-3155.1 460,-3145.1 456.5,-3155.1 463.5,-3155.1"/>
</g>
<!-- COMMENT_879af80+1 -->
<g id="node6" class="node">
<title>COMMENT_879af80+1</title>
<polygon fill="none" stroke="black" points="764,-3073 150,-3073 150,-3037 770,-3037 770,-3067 764,-3073"/>
<polyline fill="none" stroke="black" points="764,-3073 764,-3067 "/>
<polyline fill="none" stroke="black" points="770,-3067 764,-3067 "/>
<text text-anchor="middle" x="460" y="-3051.3" font-family="Times,serif" font-size="14.00">Set up dummy arrays to hold various arrays that must be exchanged among meshes</text>
</g>
<!-- CALL_8791d40&#45;&gt;COMMENT_879af80+1 -->
<g id="edge5" class="edge">
<title>CALL_8791d40&#45;&gt;COMMENT_879af80+1</title>
<path fill="none" stroke="black" d="M460,-3108.7C460,-3100.98 460,-3091.71 460,-3083.11"/>
<polygon fill="black" stroke="black" points="463.5,-3083.1 460,-3073.1 456.5,-3083.1 463.5,-3083.1"/>
</g>
<!-- CALL_879c7e0 -->
<g id="node7" class="node">
<title>CALL_879c7e0</title>
<g id="a_node7"><a xlink:href="ChkMemErr.svg" xlink:title="ChkMemErr">
<polygon fill="lightgray" stroke="black" points="512,-3001 408,-3001 408,-2997 404,-2997 404,-2993 408,-2993 408,-2973 404,-2973 404,-2969 408,-2969 408,-2965 512,-2965 512,-3001"/>
<polyline fill="none" stroke="black" points="408,-2997 412,-2997 412,-2993 408,-2993 "/>
<polyline fill="none" stroke="black" points="408,-2973 412,-2973 412,-2969 408,-2969 "/>
<text text-anchor="middle" x="460" y="-2979.3" font-family="Times,serif" font-size="14.00">ChkMemErr</text>
</a>
</g>
</g>
<!-- COMMENT_879af80+1&#45;&gt;CALL_879c7e0 -->
<g id="edge6" class="edge">
<title>COMMENT_879af80+1&#45;&gt;CALL_879c7e0</title>
<path fill="none" stroke="black" d="M460,-3036.7C460,-3028.98 460,-3019.71 460,-3011.11"/>
<polygon fill="black" stroke="black" points="463.5,-3011.1 460,-3001.1 456.5,-3011.1 463.5,-3011.1"/>
</g>
<!-- CALL_879b1a0 -->
<g id="node8" class="node">
<title>CALL_879b1a0</title>
<g id="a_node8"><a xlink:href="ChkMemErr.svg" xlink:title="ChkMemErr">
<polygon fill="lightgray" stroke="black" points="512,-2929 408,-2929 408,-2925 404,-2925 404,-2921 408,-2921 408,-2901 404,-2901 404,-2897 408,-2897 408,-2893 512,-2893 512,-2929"/>
<polyline fill="none" stroke="black" points="408,-2925 412,-2925 412,-2921 408,-2921 "/>
<polyline fill="none" stroke="black" points="408,-2901 412,-2901 412,-2897 408,-2897 "/>
<text text-anchor="middle" x="460" y="-2907.3" font-family="Times,serif" font-size="14.00">ChkMemErr</text>
</a>
</g>
</g>
<!-- CALL_879c7e0&#45;&gt;CALL_879b1a0 -->
<g id="edge7" class="edge">
<title>CALL_879c7e0&#45;&gt;CALL_879b1a0</title>
<path fill="none" stroke="black" d="M460,-2964.7C460,-2956.98 460,-2947.71 460,-2939.11"/>
<polygon fill="black" stroke="black" points="463.5,-2939.1 460,-2929.1 456.5,-2939.1 463.5,-2939.1"/>
</g>
<!-- CALL_879e880 -->
<g id="node9" class="node">
<title>CALL_879e880</title>
<g id="a_node9"><a xlink:href="ChkMemErr.svg" xlink:title="ChkMemErr">
<polygon fill="lightgray" stroke="black" points="512,-2857 408,-2857 408,-2853 404,-2853 404,-2849 408,-2849 408,-2829 404,-2829 404,-2825 408,-2825 408,-2821 512,-2821 512,-2857"/>
<polyline fill="none" stroke="black" points="408,-2853 412,-2853 412,-2849 408,-2849 "/>
<polyline fill="none" stroke="black" points="408,-2829 412,-2829 412,-2825 408,-2825 "/>
<text text-anchor="middle" x="460" y="-2835.3" font-family="Times,serif" font-size="14.00">ChkMemErr</text>
</a>
</g>
</g>
<!-- CALL_879b1a0&#45;&gt;CALL_879e880 -->
<g id="edge8" class="edge">
<title>CALL_879b1a0&#45;&gt;CALL_879e880</title>
<path fill="none" stroke="black" d="M460,-2892.7C460,-2884.98 460,-2875.71 460,-2867.11"/>
<polygon fill="black" stroke="black" points="463.5,-2867.1 460,-2857.1 456.5,-2867.1 463.5,-2867.1"/>
</g>
<!-- CALL_879e420 -->
<g id="node10" class="node">
<title>CALL_879e420</title>
<g id="a_node10"><a xlink:href="ChkMemErr.svg" xlink:title="ChkMemErr">
<polygon fill="lightgray" stroke="black" points="512,-2785 408,-2785 408,-2781 404,-2781 404,-2777 408,-2777 408,-2757 404,-2757 404,-2753 408,-2753 408,-2749 512,-2749 512,-2785"/>
<polyline fill="none" stroke="black" points="408,-2781 412,-2781 412,-2777 408,-2777 "/>
<polyline fill="none" stroke="black" points="408,-2757 412,-2757 412,-2753 408,-2753 "/>
<text text-anchor="middle" x="460" y="-2763.3" font-family="Times,serif" font-size="14.00">ChkMemErr</text>
</a>
</g>
</g>
<!-- CALL_879e880&#45;&gt;CALL_879e420 -->
<g id="edge9" class="edge">
<title>CALL_879e880&#45;&gt;CALL_879e420</title>
<path fill="none" stroke="black" d="M460,-2820.7C460,-2812.98 460,-2803.71 460,-2795.11"/>
<polygon fill="black" stroke="black" points="463.5,-2795.1 460,-2785.1 456.5,-2795.1 463.5,-2795.1"/>
</g>
<!-- CALL_87a02a0 -->
<g id="node11" class="node">
<title>CALL_87a02a0</title>
<g id="a_node11"><a xlink:href="ChkMemErr.svg" xlink:title="ChkMemErr">
<polygon fill="lightgray" stroke="black" points="512,-2713 408,-2713 408,-2709 404,-2709 404,-2705 408,-2705 408,-2685 404,-2685 404,-2681 408,-2681 408,-2677 512,-2677 512,-2713"/>
<polyline fill="none" stroke="black" points="408,-2709 412,-2709 412,-2705 408,-2705 "/>
<polyline fill="none" stroke="black" points="408,-2685 412,-2685 412,-2681 408,-2681 "/>
<text text-anchor="middle" x="460" y="-2691.3" font-family="Times,serif" font-size="14.00">ChkMemErr</text>
</a>
</g>
</g>
<!-- CALL_879e420&#45;&gt;CALL_87a02a0 -->
<g id="edge10" class="edge">
<title>CALL_879e420&#45;&gt;CALL_87a02a0</title>
<path fill="none" stroke="black" d="M460,-2748.7C460,-2740.98 460,-2731.71 460,-2723.11"/>
<polygon fill="black" stroke="black" points="463.5,-2723.1 460,-2713.1 456.5,-2723.1 463.5,-2723.1"/>
</g>
<!-- CALL_87a1700 -->
<g id="node12" class="node">
<title>CALL_87a1700</title>
<g id="a_node12"><a xlink:href="ChkMemErr.svg" xlink:title="ChkMemErr">
<polygon fill="lightgray" stroke="black" points="512,-2641 408,-2641 408,-2637 404,-2637 404,-2633 408,-2633 408,-2613 404,-2613 404,-2609 408,-2609 408,-2605 512,-2605 512,-2641"/>
<polyline fill="none" stroke="black" points="408,-2637 412,-2637 412,-2633 408,-2633 "/>
<polyline fill="none" stroke="black" points="408,-2613 412,-2613 412,-2609 408,-2609 "/>
<text text-anchor="middle" x="460" y="-2619.3" font-family="Times,serif" font-size="14.00">ChkMemErr</text>
</a>
</g>
</g>
<!-- CALL_87a02a0&#45;&gt;CALL_87a1700 -->
<g id="edge11" class="edge">
<title>CALL_87a02a0&#45;&gt;CALL_87a1700</title>
<path fill="none" stroke="black" d="M460,-2676.7C460,-2668.98 460,-2659.71 460,-2651.11"/>
<polygon fill="black" stroke="black" points="463.5,-2651.1 460,-2641.1 456.5,-2651.1 463.5,-2651.1"/>
</g>
<!-- CALL_87a44a0 -->
<g id="node13" class="node">
<title>CALL_87a44a0</title>
<g id="a_node13"><a xlink:href="ChkMemErr.svg" xlink:title="ChkMemErr">
<polygon fill="lightgray" stroke="black" points="512,-2569 408,-2569 408,-2565 404,-2565 404,-2561 408,-2561 408,-2541 404,-2541 404,-2537 408,-2537 408,-2533 512,-2533 512,-2569"/>
<polyline fill="none" stroke="black" points="408,-2565 412,-2565 412,-2561 408,-2561 "/>
<polyline fill="none" stroke="black" points="408,-2541 412,-2541 412,-2537 408,-2537 "/>
<text text-anchor="middle" x="460" y="-2547.3" font-family="Times,serif" font-size="14.00">ChkMemErr</text>
</a>
</g>
</g>
<!-- CALL_87a1700&#45;&gt;CALL_87a44a0 -->
<g id="edge12" class="edge">
<title>CALL_87a1700&#45;&gt;CALL_87a44a0</title>
<path fill="none" stroke="black" d="M460,-2604.7C460,-2596.98 460,-2587.71 460,-2579.11"/>
<polygon fill="black" stroke="black" points="463.5,-2579.1 460,-2569.1 456.5,-2579.1 463.5,-2579.1"/>
</g>
<!-- CALL_87a5960 -->
<g id="node14" class="node">
<title>CALL_87a5960</title>
<g id="a_node14"><a xlink:href="ChkMemErr.svg" xlink:title="ChkMemErr">
<polygon fill="lightgray" stroke="black" points="512,-2497 408,-2497 408,-2493 404,-2493 404,-2489 408,-2489 408,-2469 404,-2469 404,-2465 408,-2465 408,-2461 512,-2461 512,-2497"/>
<polyline fill="none" stroke="black" points="408,-2493 412,-2493 412,-2489 408,-2489 "/>
<polyline fill="none" stroke="black" points="408,-2469 412,-2469 412,-2465 408,-2465 "/>
<text text-anchor="middle" x="460" y="-2475.3" font-family="Times,serif" font-size="14.00">ChkMemErr</text>
</a>
</g>
</g>
<!-- CALL_87a44a0&#45;&gt;CALL_87a5960 -->
<g id="edge13" class="edge">
<title>CALL_87a44a0&#45;&gt;CALL_87a5960</title>
<path fill="none" stroke="black" d="M460,-2532.7C460,-2524.98 460,-2515.71 460,-2507.11"/>
<polygon fill="black" stroke="black" points="463.5,-2507.1 460,-2497.1 456.5,-2507.1 463.5,-2507.1"/>
</g>
<!-- COMMENT_87988e0+1 -->
<g id="node15" class="node">
<title>COMMENT_87988e0+1</title>
<polygon fill="none" stroke="black" points="718.5,-2425 195.5,-2425 195.5,-2389 724.5,-2389 724.5,-2419 718.5,-2425"/>
<polyline fill="none" stroke="black" points="718.5,-2425 718.5,-2419 "/>
<polyline fill="none" stroke="black" points="724.5,-2419 718.5,-2419 "/>
<text text-anchor="middle" x="460" y="-2403.3" font-family="Times,serif" font-size="14.00">Allocate arrays that hold geometric information of neighboring meshes.</text>
</g>
<!-- CALL_87a5960&#45;&gt;COMMENT_87988e0+1 -->
<g id="edge14" class="edge">
<title>CALL_87a5960&#45;&gt;COMMENT_87988e0+1</title>
<path fill="none" stroke="black" d="M460,-2460.7C460,-2452.98 460,-2443.71 460,-2435.11"/>
<polygon fill="black" stroke="black" points="463.5,-2435.1 460,-2425.1 456.5,-2435.1 463.5,-2435.1"/>
</g>
<!-- COMMENT_87afe80+1 -->
<g id="node16" class="node">
<title>COMMENT_87afe80+1</title>
<polygon fill="none" stroke="black" points="914,-2353 0,-2353 0,-2285 920,-2285 920,-2347 914,-2353"/>
<polyline fill="none" stroke="black" points="914,-2353 914,-2347 "/>
<polyline fill="none" stroke="black" points="920,-2347 914,-2347 "/>
<text text-anchor="middle" x="460" y="-2337.8" font-family="Times,serif" font-size="14.00">Create MPI communicators (sub&#45;groups of MPI_COMM_WORLD) for each mesh</text>
<text text-anchor="middle" x="460" y="-2322.8" font-family="Times,serif" font-size="14.00">that consists of the MPI processes that control it and its neighbors</text>
<text text-anchor="middle" x="460" y="-2307.8" font-family="Times,serif" font-size="14.00">MPI_COMM_NEIGHBORS(NM) is the name of the communicator for mesh NM</text>
<text text-anchor="middle" x="460" y="-2292.8" font-family="Times,serif" font-size="14.00">MPI_COMM_NEIGHBORS_ROOT(NM) is the rank within MPI_COMM_NEIGHBORS(NM) of the process that controls mesh NM</text>
</g>
<!-- COMMENT_87988e0+1&#45;&gt;COMMENT_87afe80+1 -->
<g id="edge15" class="edge">
<title>COMMENT_87988e0+1&#45;&gt;COMMENT_87afe80+1</title>
<path fill="none" stroke="black" d="M460,-2388.6C460,-2381.18 460,-2372.16 460,-2363.14"/>
<polygon fill="black" stroke="black" points="463.5,-2363.03 460,-2353.03 456.5,-2363.03 463.5,-2363.03"/>
</g>
<!-- CALL_87aeda0 -->
<g id="node17" class="node">
<title>CALL_87aeda0</title>
<g id="a_node17"><a xlink:href="MPI_COMM_GROUP.svg" xlink:title="MPI_COMM_GROUP">
<polygon fill="#ffe800" stroke="black" points="542,-2249 378,-2249 378,-2245 374,-2245 374,-2241 378,-2241 378,-2221 374,-2221 374,-2217 378,-2217 378,-2213 542,-2213 542,-2249"/>
<polyline fill="none" stroke="black" points="378,-2245 382,-2245 382,-2241 378,-2241 "/>
<polyline fill="none" stroke="black" points="378,-2221 382,-2221 382,-2217 378,-2217 "/>
<text text-anchor="middle" x="460" y="-2227.3" font-family="Times,serif" font-size="14.00">MPI_COMM_GROUP</text>
</a>
</g>
</g>
<!-- COMMENT_87afe80+1&#45;&gt;CALL_87aeda0 -->
<g id="edge16" class="edge">
<title>COMMENT_87afe80+1&#45;&gt;CALL_87aeda0</title>
<path fill="none" stroke="black" d="M460,-2285C460,-2276.56 460,-2267.59 460,-2259.47"/>
<polygon fill="black" stroke="black" points="463.5,-2259.4 460,-2249.4 456.5,-2259.4 463.5,-2259.4"/>
</g>
<!-- CALL_87bb200 -->
<g id="node18" class="node">
<title>CALL_87bb200</title>
<g id="a_node18"><a xlink:href="MPI_GROUP_INCL.svg" xlink:title="MPI_GROUP_INCL">
<polygon fill="#ffe800" stroke="black" points="535.5,-2177 384.5,-2177 384.5,-2173 380.5,-2173 380.5,-2169 384.5,-2169 384.5,-2149 380.5,-2149 380.5,-2145 384.5,-2145 384.5,-2141 535.5,-2141 535.5,-2177"/>
<polyline fill="none" stroke="black" points="384.5,-2173 388.5,-2173 388.5,-2169 384.5,-2169 "/>
<polyline fill="none" stroke="black" points="384.5,-2149 388.5,-2149 388.5,-2145 384.5,-2145 "/>
<text text-anchor="middle" x="460" y="-2155.3" font-family="Times,serif" font-size="14.00">MPI_GROUP_INCL</text>
</a>
</g>
</g>
<!-- CALL_87aeda0&#45;&gt;CALL_87bb200 -->
<g id="edge17" class="edge">
<title>CALL_87aeda0&#45;&gt;CALL_87bb200</title>
<path fill="none" stroke="black" d="M460,-2212.7C460,-2204.98 460,-2195.71 460,-2187.11"/>
<polygon fill="black" stroke="black" points="463.5,-2187.1 460,-2177.1 456.5,-2187.1 463.5,-2187.1"/>
</g>
<!-- CALL_87bcf20 -->
<g id="node19" class="node">
<title>CALL_87bcf20</title>
<g id="a_node19"><a xlink:href="MPI_COMM_CREATE.svg" xlink:title="MPI_COMM_CREATE">
<polygon fill="#ffe800" stroke="black" points="545,-2105 375,-2105 375,-2101 371,-2101 371,-2097 375,-2097 375,-2077 371,-2077 371,-2073 375,-2073 375,-2069 545,-2069 545,-2105"/>
<polyline fill="none" stroke="black" points="375,-2101 379,-2101 379,-2097 375,-2097 "/>
<polyline fill="none" stroke="black" points="375,-2077 379,-2077 379,-2073 375,-2073 "/>
<text text-anchor="middle" x="460" y="-2083.3" font-family="Times,serif" font-size="14.00">MPI_COMM_CREATE</text>
</a>
</g>
</g>
<!-- CALL_87bb200&#45;&gt;CALL_87bcf20 -->
<g id="edge18" class="edge">
<title>CALL_87bb200&#45;&gt;CALL_87bcf20</title>
<path fill="none" stroke="black" d="M460,-2140.7C460,-2132.98 460,-2123.71 460,-2115.11"/>
<polygon fill="black" stroke="black" points="463.5,-2115.1 460,-2105.1 456.5,-2115.1 463.5,-2115.1"/>
</g>
<!-- COMMENT_879d880+1 -->
<g id="node20" class="node">
<title>COMMENT_879d880+1</title>
<polygon fill="none" stroke="black" points="687.5,-2033 226.5,-2033 226.5,-1997 693.5,-1997 693.5,-2027 687.5,-2033"/>
<polyline fill="none" stroke="black" points="687.5,-2033 687.5,-2027 "/>
<polyline fill="none" stroke="black" points="693.5,-2027 687.5,-2027 "/>
<text text-anchor="middle" x="460" y="-2011.3" font-family="Times,serif" font-size="14.00">Allocate &quot;request&quot; arrays to keep track of MPI communications</text>
</g>
<!-- CALL_87bcf20&#45;&gt;COMMENT_879d880+1 -->
<g id="edge19" class="edge">
<title>CALL_87bcf20&#45;&gt;COMMENT_879d880+1</title>
<path fill="none" stroke="black" d="M460,-2068.7C460,-2060.98 460,-2051.71 460,-2043.11"/>
<polygon fill="black" stroke="black" points="463.5,-2043.1 460,-2033.1 456.5,-2043.1 463.5,-2043.1"/>
</g>
<!-- CALL_87cf620 -->
<g id="node21" class="node">
<title>CALL_87cf620</title>
<g id="a_node21"><a xlink:href="MOVE_ALLOC.svg" xlink:title="MOVE_ALLOC">
<polygon fill="lightgray" stroke="black" points="519.5,-1961 400.5,-1961 400.5,-1957 396.5,-1957 396.5,-1953 400.5,-1953 400.5,-1933 396.5,-1933 396.5,-1929 400.5,-1929 400.5,-1925 519.5,-1925 519.5,-1961"/>
<polyline fill="none" stroke="black" points="400.5,-1957 404.5,-1957 404.5,-1953 400.5,-1953 "/>
<polyline fill="none" stroke="black" points="400.5,-1933 404.5,-1933 404.5,-1929 400.5,-1929 "/>
<text text-anchor="middle" x="460" y="-1939.3" font-family="Times,serif" font-size="14.00">MOVE_ALLOC</text>
</a>
</g>
</g>
<!-- COMMENT_879d880+1&#45;&gt;CALL_87cf620 -->
<g id="edge20" class="edge">
<title>COMMENT_879d880+1&#45;&gt;CALL_87cf620</title>
<path fill="none" stroke="black" d="M460,-1996.7C460,-1988.98 460,-1979.71 460,-1971.11"/>
<polygon fill="black" stroke="black" points="463.5,-1971.1 460,-1961.1 456.5,-1971.1 463.5,-1971.1"/>
</g>
<!-- CALL_87d3120 -->
<g id="node22" class="node">
<title>CALL_87d3120</title>
<g id="a_node22"><a xlink:href="MPI_IRECV.svg" xlink:title="MPI_IRECV">
<polygon fill="#ffe800" stroke="black" points="509.5,-1889 410.5,-1889 410.5,-1885 406.5,-1885 406.5,-1881 410.5,-1881 410.5,-1861 406.5,-1861 406.5,-1857 410.5,-1857 410.5,-1853 509.5,-1853 509.5,-1889"/>
<polyline fill="none" stroke="black" points="410.5,-1885 414.5,-1885 414.5,-1881 410.5,-1881 "/>
<polyline fill="none" stroke="black" points="410.5,-1861 414.5,-1861 414.5,-1857 410.5,-1857 "/>
<text text-anchor="middle" x="460" y="-1867.3" font-family="Times,serif" font-size="14.00">MPI_IRECV</text>
</a>
</g>
</g>
<!-- CALL_87cf620&#45;&gt;CALL_87d3120 -->
<g id="edge21" class="edge">
<title>CALL_87cf620&#45;&gt;CALL_87d3120</title>
<path fill="none" stroke="black" d="M460,-1924.7C460,-1916.98 460,-1907.71 460,-1899.11"/>
<polygon fill="black" stroke="black" points="463.5,-1899.1 460,-1889.1 456.5,-1899.1 463.5,-1899.1"/>
</g>
<!-- COMMENT_87d42a0+1 -->
<g id="node23" class="node">
<title>COMMENT_87d42a0+1</title>
<polygon fill="none" stroke="black" points="863,-1817 51,-1817 51,-1704 869,-1704 869,-1811 863,-1817"/>
<polyline fill="none" stroke="black" points="863,-1817 863,-1811 "/>
<polyline fill="none" stroke="black" points="869,-1811 863,-1811 "/>
<text text-anchor="middle" x="460" y="-1801.8" font-family="Times,serif" font-size="14.00">DEFINITION NIC_S: &#160;&#160;MESHES(NOM)%OMESH(NM)%NIC_S &#160;&#160;= MESHES(NM)%OMESH(NOM)%NIC_R</text>
<text text-anchor="middle" x="460" y="-1786.8" font-family="Times,serif" font-size="14.00">DEFINITION I_MIN_S: MESHES(NOM)%OMESH(NM)%I_MIN_S = MESHES(NM)%OMESH(NOM)%I_MIN_R</text>
<text text-anchor="middle" x="460" y="-1771.8" font-family="Times,serif" font-size="14.00">DEFINITION I_MAX_S: MESHES(NOM)%OMESH(NM)%I_MAX_S = MESHES(NM)%OMESH(NOM)%I_MAX_R</text>
<text text-anchor="middle" x="460" y="-1756.8" font-family="Times,serif" font-size="14.00">DEFINITION J_MIN_S: MESHES(NOM)%OMESH(NM)%J_MIN_S = MESHES(NM)%OMESH(NOM)%J_MIN_R</text>
<text text-anchor="middle" x="460" y="-1741.8" font-family="Times,serif" font-size="14.00">DEFINITION J_MAX_S: MESHES(NOM)%OMESH(NM)%J_MAX_S = MESHES(NM)%OMESH(NOM)%J_MAX_R</text>
<text text-anchor="middle" x="460" y="-1726.8" font-family="Times,serif" font-size="14.00">DEFINITION K_MIN_S: MESHES(NOM)%OMESH(NM)%K_MIN_S = MESHES(NM)%OMESH(NOM)%K_MIN_R</text>
<text text-anchor="middle" x="460" y="-1711.8" font-family="Times,serif" font-size="14.00">DEFINITION K_MAX_S: MESHES(NOM)%OMESH(NM)%K_MAX_S = MESHES(NM)%OMESH(NOM)%K_MAX_R</text>
</g>
<!-- CALL_87d3120&#45;&gt;COMMENT_87d42a0+1 -->
<g id="edge22" class="edge">
<title>CALL_87d3120&#45;&gt;COMMENT_87d42a0+1</title>
<path fill="none" stroke="black" d="M460,-1852.57C460,-1845.44 460,-1836.71 460,-1827.5"/>
<polygon fill="black" stroke="black" points="463.5,-1827.38 460,-1817.38 456.5,-1827.38 463.5,-1827.38"/>
</g>
<!-- CALL_87dd3e0 -->
<g id="node24" class="node">
<title>CALL_87dd3e0</title>
<g id="a_node24"><a xlink:href="MOVE_ALLOC.svg" xlink:title="MOVE_ALLOC">
<polygon fill="lightgray" stroke="black" points="519.5,-1668 400.5,-1668 400.5,-1664 396.5,-1664 396.5,-1660 400.5,-1660 400.5,-1640 396.5,-1640 396.5,-1636 400.5,-1636 400.5,-1632 519.5,-1632 519.5,-1668"/>
<polyline fill="none" stroke="black" points="400.5,-1664 404.5,-1664 404.5,-1660 400.5,-1660 "/>
<polyline fill="none" stroke="black" points="400.5,-1640 404.5,-1640 404.5,-1636 400.5,-1636 "/>
<text text-anchor="middle" x="460" y="-1646.3" font-family="Times,serif" font-size="14.00">MOVE_ALLOC</text>
</a>
</g>
</g>
<!-- COMMENT_87d42a0+1&#45;&gt;CALL_87dd3e0 -->
<g id="edge23" class="edge">
<title>COMMENT_87d42a0+1&#45;&gt;CALL_87dd3e0</title>
<path fill="none" stroke="black" d="M460,-1703.98C460,-1695.19 460,-1686.45 460,-1678.67"/>
<polygon fill="black" stroke="black" points="463.5,-1678.42 460,-1668.42 456.5,-1678.42 463.5,-1678.42"/>
</g>
<!-- CALL_87e2a20 -->
<g id="node25" class="node">
<title>CALL_87e2a20</title>
<g id="a_node25"><a xlink:href="MPI_ISEND.svg" xlink:title="MPI_ISEND">
<polygon fill="#ffe800" stroke="black" points="510.5,-1596 409.5,-1596 409.5,-1592 405.5,-1592 405.5,-1588 409.5,-1588 409.5,-1568 405.5,-1568 405.5,-1564 409.5,-1564 409.5,-1560 510.5,-1560 510.5,-1596"/>
<polyline fill="none" stroke="black" points="409.5,-1592 413.5,-1592 413.5,-1588 409.5,-1588 "/>
<polyline fill="none" stroke="black" points="409.5,-1568 413.5,-1568 413.5,-1564 409.5,-1564 "/>
<text text-anchor="middle" x="460" y="-1574.3" font-family="Times,serif" font-size="14.00">MPI_ISEND</text>
</a>
</g>
</g>
<!-- CALL_87dd3e0&#45;&gt;CALL_87e2a20 -->
<g id="edge24" class="edge">
<title>CALL_87dd3e0&#45;&gt;CALL_87e2a20</title>
<path fill="none" stroke="black" d="M460,-1631.7C460,-1623.98 460,-1614.71 460,-1606.11"/>
<polygon fill="black" stroke="black" points="463.5,-1606.1 460,-1596.1 456.5,-1606.1 463.5,-1606.1"/>
</g>
<!-- CALL_87e8080 -->
<g id="node26" class="node">
<title>CALL_87e8080</title>
<g id="a_node26"><a xlink:href="TIMEOUT.svg" xlink:title="TIMEOUT">
<polygon fill="lightgray" stroke="black" points="504,-1524 416,-1524 416,-1520 412,-1520 412,-1516 416,-1516 416,-1496 412,-1496 412,-1492 416,-1492 416,-1488 504,-1488 504,-1524"/>
<polyline fill="none" stroke="black" points="416,-1520 420,-1520 420,-1516 416,-1516 "/>
<polyline fill="none" stroke="black" points="416,-1496 420,-1496 420,-1492 416,-1492 "/>
<text text-anchor="middle" x="460" y="-1502.3" font-family="Times,serif" font-size="14.00">TIMEOUT</text>
</a>
</g>
</g>
<!-- CALL_87e2a20&#45;&gt;CALL_87e8080 -->
<g id="edge25" class="edge">
<title>CALL_87e2a20&#45;&gt;CALL_87e8080</title>
<path fill="none" stroke="black" d="M460,-1559.7C460,-1551.98 460,-1542.71 460,-1534.11"/>
<polygon fill="black" stroke="black" points="463.5,-1534.1 460,-1524.1 456.5,-1534.1 463.5,-1534.1"/>
</g>
<!-- COMMENT_87f05e0+1 -->
<g id="node27" class="node">
<title>COMMENT_87f05e0+1</title>
<polygon fill="none" stroke="black" points="834,-1452 80,-1452 80,-1369 840,-1369 840,-1446 834,-1452"/>
<polyline fill="none" stroke="black" points="834,-1452 834,-1446 "/>
<polyline fill="none" stroke="black" points="840,-1446 834,-1446 "/>
<text text-anchor="middle" x="460" y="-1436.8" font-family="Times,serif" font-size="14.00">Exchange IIO_S, etc., the indices of interpolated cells</text>
<text text-anchor="middle" x="460" y="-1421.8" font-family="Times,serif" font-size="14.00">DEFINITION IIO_S: MESHES(NOM)%OMESH(NM)%IIO_S = MESHES(NM)%OMESH(NOM)%IIO_R</text>
<text text-anchor="middle" x="460" y="-1406.8" font-family="Times,serif" font-size="14.00">DEFINITION JJO_S: MESHES(NOM)%OMESH(NM)%JJO_S = MESHES(NM)%OMESH(NOM)%JJO_R</text>
<text text-anchor="middle" x="460" y="-1391.8" font-family="Times,serif" font-size="14.00">DEFINITION KKO_S: MESHES(NOM)%OMESH(NM)%KKO_S = MESHES(NM)%OMESH(NOM)%KKO_R</text>
<text text-anchor="middle" x="460" y="-1376.8" font-family="Times,serif" font-size="14.00">DEFINITION IOR_S: MESHES(NOM)%OMESH(NM)%IOR_S = MESHES(NM)%OMESH(NOM)%IOR_R</text>
</g>
<!-- CALL_87e8080&#45;&gt;COMMENT_87f05e0+1 -->
<g id="edge26" class="edge">
<title>CALL_87e8080&#45;&gt;COMMENT_87f05e0+1</title>
<path fill="none" stroke="black" d="M460,-1487.85C460,-1480.49 460,-1471.48 460,-1462.25"/>
<polygon fill="black" stroke="black" points="463.5,-1462.23 460,-1452.23 456.5,-1462.23 463.5,-1462.23"/>
</g>
<!-- CALL_87fc8e0 -->
<g id="node28" class="node">
<title>CALL_87fc8e0</title>
<g id="a_node28"><a xlink:href="MPI_IRECV.svg" xlink:title="MPI_IRECV">
<polygon fill="#ffe800" stroke="black" points="509.5,-1333 410.5,-1333 410.5,-1329 406.5,-1329 406.5,-1325 410.5,-1325 410.5,-1305 406.5,-1305 406.5,-1301 410.5,-1301 410.5,-1297 509.5,-1297 509.5,-1333"/>
<polyline fill="none" stroke="black" points="410.5,-1329 414.5,-1329 414.5,-1325 410.5,-1325 "/>
<polyline fill="none" stroke="black" points="410.5,-1305 414.5,-1305 414.5,-1301 410.5,-1301 "/>
<text text-anchor="middle" x="460" y="-1311.3" font-family="Times,serif" font-size="14.00">MPI_IRECV</text>
</a>
</g>
</g>
<!-- COMMENT_87f05e0+1&#45;&gt;CALL_87fc8e0 -->
<g id="edge27" class="edge">
<title>COMMENT_87f05e0+1&#45;&gt;CALL_87fc8e0</title>
<path fill="none" stroke="black" d="M460,-1368.76C460,-1360.24 460,-1351.44 460,-1343.53"/>
<polygon fill="black" stroke="black" points="463.5,-1343.41 460,-1333.41 456.5,-1343.41 463.5,-1343.41"/>
</g>
<!-- CALL_8d004c0 -->
<g id="node29" class="node">
<title>CALL_8d004c0</title>
<g id="a_node29"><a xlink:href="MPI_IRECV.svg" xlink:title="MPI_IRECV">
<polygon fill="#ffe800" stroke="black" points="509.5,-1261 410.5,-1261 410.5,-1257 406.5,-1257 406.5,-1253 410.5,-1253 410.5,-1233 406.5,-1233 406.5,-1229 410.5,-1229 410.5,-1225 509.5,-1225 509.5,-1261"/>
<polyline fill="none" stroke="black" points="410.5,-1257 414.5,-1257 414.5,-1253 410.5,-1253 "/>
<polyline fill="none" stroke="black" points="410.5,-1233 414.5,-1233 414.5,-1229 410.5,-1229 "/>
<text text-anchor="middle" x="460" y="-1239.3" font-family="Times,serif" font-size="14.00">MPI_IRECV</text>
</a>
</g>
</g>
<!-- CALL_87fc8e0&#45;&gt;CALL_8d004c0 -->
<g id="edge28" class="edge">
<title>CALL_87fc8e0&#45;&gt;CALL_8d004c0</title>
<path fill="none" stroke="black" d="M460,-1296.7C460,-1288.98 460,-1279.71 460,-1271.11"/>
<polygon fill="black" stroke="black" points="463.5,-1271.1 460,-1261.1 456.5,-1271.1 463.5,-1271.1"/>
</g>
<!-- CALL_8d03fe0 -->
<g id="node30" class="node">
<title>CALL_8d03fe0</title>
<g id="a_node30"><a xlink:href="MPI_IRECV.svg" xlink:title="MPI_IRECV">
<polygon fill="#ffe800" stroke="black" points="509.5,-1189 410.5,-1189 410.5,-1185 406.5,-1185 406.5,-1181 410.5,-1181 410.5,-1161 406.5,-1161 406.5,-1157 410.5,-1157 410.5,-1153 509.5,-1153 509.5,-1189"/>
<polyline fill="none" stroke="black" points="410.5,-1185 414.5,-1185 414.5,-1181 410.5,-1181 "/>
<polyline fill="none" stroke="black" points="410.5,-1161 414.5,-1161 414.5,-1157 410.5,-1157 "/>
<text text-anchor="middle" x="460" y="-1167.3" font-family="Times,serif" font-size="14.00">MPI_IRECV</text>
</a>
</g>
</g>
<!-- CALL_8d004c0&#45;&gt;CALL_8d03fe0 -->
<g id="edge29" class="edge">
<title>CALL_8d004c0&#45;&gt;CALL_8d03fe0</title>
<path fill="none" stroke="black" d="M460,-1224.7C460,-1216.98 460,-1207.71 460,-1199.11"/>
<polygon fill="black" stroke="black" points="463.5,-1199.1 460,-1189.1 456.5,-1199.1 463.5,-1199.1"/>
</g>
<!-- CALL_8d079e0 -->
<g id="node31" class="node">
<title>CALL_8d079e0</title>
<g id="a_node31"><a xlink:href="MPI_IRECV.svg" xlink:title="MPI_IRECV">
<polygon fill="#ffe800" stroke="black" points="509.5,-1117 410.5,-1117 410.5,-1113 406.5,-1113 406.5,-1109 410.5,-1109 410.5,-1089 406.5,-1089 406.5,-1085 410.5,-1085 410.5,-1081 509.5,-1081 509.5,-1117"/>
<polyline fill="none" stroke="black" points="410.5,-1113 414.5,-1113 414.5,-1109 410.5,-1109 "/>
<polyline fill="none" stroke="black" points="410.5,-1089 414.5,-1089 414.5,-1085 410.5,-1085 "/>
<text text-anchor="middle" x="460" y="-1095.3" font-family="Times,serif" font-size="14.00">MPI_IRECV</text>
</a>
</g>
</g>
<!-- CALL_8d03fe0&#45;&gt;CALL_8d079e0 -->
<g id="edge30" class="edge">
<title>CALL_8d03fe0&#45;&gt;CALL_8d079e0</title>
<path fill="none" stroke="black" d="M460,-1152.7C460,-1144.98 460,-1135.71 460,-1127.11"/>
<polygon fill="black" stroke="black" points="463.5,-1127.1 460,-1117.1 456.5,-1127.1 463.5,-1127.1"/>
</g>
<!-- CALL_8d0f0e0 -->
<g id="node32" class="node">
<title>CALL_8d0f0e0</title>
<g id="a_node32"><a xlink:href="MPI_ISEND.svg" xlink:title="MPI_ISEND">
<polygon fill="#ffe800" stroke="black" points="510.5,-1045 409.5,-1045 409.5,-1041 405.5,-1041 405.5,-1037 409.5,-1037 409.5,-1017 405.5,-1017 405.5,-1013 409.5,-1013 409.5,-1009 510.5,-1009 510.5,-1045"/>
<polyline fill="none" stroke="black" points="409.5,-1041 413.5,-1041 413.5,-1037 409.5,-1037 "/>
<polyline fill="none" stroke="black" points="409.5,-1017 413.5,-1017 413.5,-1013 409.5,-1013 "/>
<text text-anchor="middle" x="460" y="-1023.3" font-family="Times,serif" font-size="14.00">MPI_ISEND</text>
</a>
</g>
</g>
<!-- CALL_8d079e0&#45;&gt;CALL_8d0f0e0 -->
<g id="edge31" class="edge">
<title>CALL_8d079e0&#45;&gt;CALL_8d0f0e0</title>
<path fill="none" stroke="black" d="M460,-1080.7C460,-1072.98 460,-1063.71 460,-1055.11"/>
<polygon fill="black" stroke="black" points="463.5,-1055.1 460,-1045.1 456.5,-1055.1 463.5,-1055.1"/>
</g>
<!-- CALL_8d12c60 -->
<g id="node33" class="node">
<title>CALL_8d12c60</title>
<g id="a_node33"><a xlink:href="MPI_ISEND.svg" xlink:title="MPI_ISEND">
<polygon fill="#ffe800" stroke="black" points="510.5,-973 409.5,-973 409.5,-969 405.5,-969 405.5,-965 409.5,-965 409.5,-945 405.5,-945 405.5,-941 409.5,-941 409.5,-937 510.5,-937 510.5,-973"/>
<polyline fill="none" stroke="black" points="409.5,-969 413.5,-969 413.5,-965 409.5,-965 "/>
<polyline fill="none" stroke="black" points="409.5,-945 413.5,-945 413.5,-941 409.5,-941 "/>
<text text-anchor="middle" x="460" y="-951.3" font-family="Times,serif" font-size="14.00">MPI_ISEND</text>
</a>
</g>
</g>
<!-- CALL_8d0f0e0&#45;&gt;CALL_8d12c60 -->
<g id="edge32" class="edge">
<title>CALL_8d0f0e0&#45;&gt;CALL_8d12c60</title>
<path fill="none" stroke="black" d="M460,-1008.7C460,-1000.98 460,-991.71 460,-983.11"/>
<polygon fill="black" stroke="black" points="463.5,-983.1 460,-973.1 456.5,-983.1 463.5,-983.1"/>
</g>
<!-- CALL_8d16580 -->
<g id="node34" class="node">
<title>CALL_8d16580</title>
<g id="a_node34"><a xlink:href="MPI_ISEND.svg" xlink:title="MPI_ISEND">
<polygon fill="#ffe800" stroke="black" points="510.5,-901 409.5,-901 409.5,-897 405.5,-897 405.5,-893 409.5,-893 409.5,-873 405.5,-873 405.5,-869 409.5,-869 409.5,-865 510.5,-865 510.5,-901"/>
<polyline fill="none" stroke="black" points="409.5,-897 413.5,-897 413.5,-893 409.5,-893 "/>
<polyline fill="none" stroke="black" points="409.5,-873 413.5,-873 413.5,-869 409.5,-869 "/>
<text text-anchor="middle" x="460" y="-879.3" font-family="Times,serif" font-size="14.00">MPI_ISEND</text>
</a>
</g>
</g>
<!-- CALL_8d12c60&#45;&gt;CALL_8d16580 -->
<g id="edge33" class="edge">
<title>CALL_8d12c60&#45;&gt;CALL_8d16580</title>
<path fill="none" stroke="black" d="M460,-936.7C460,-928.98 460,-919.71 460,-911.11"/>
<polygon fill="black" stroke="black" points="463.5,-911.1 460,-901.1 456.5,-911.1 463.5,-911.1"/>
</g>
<!-- CALL_8d1c240 -->
<g id="node35" class="node">
<title>CALL_8d1c240</title>
<g id="a_node35"><a xlink:href="MPI_ISEND.svg" xlink:title="MPI_ISEND">
<polygon fill="#ffe800" stroke="black" points="510.5,-829 409.5,-829 409.5,-825 405.5,-825 405.5,-821 409.5,-821 409.5,-801 405.5,-801 405.5,-797 409.5,-797 409.5,-793 510.5,-793 510.5,-829"/>
<polyline fill="none" stroke="black" points="409.5,-825 413.5,-825 413.5,-821 409.5,-821 "/>
<polyline fill="none" stroke="black" points="409.5,-801 413.5,-801 413.5,-797 409.5,-797 "/>
<text text-anchor="middle" x="460" y="-807.3" font-family="Times,serif" font-size="14.00">MPI_ISEND</text>
</a>
</g>
</g>
<!-- CALL_8d16580&#45;&gt;CALL_8d1c240 -->
<g id="edge34" class="edge">
<title>CALL_8d16580&#45;&gt;CALL_8d1c240</title>
<path fill="none" stroke="black" d="M460,-864.7C460,-856.98 460,-847.71 460,-839.11"/>
<polygon fill="black" stroke="black" points="463.5,-839.1 460,-829.1 456.5,-839.1 463.5,-839.1"/>
</g>
<!-- CALL_8d20f00 -->
<g id="node36" class="node">
<title>CALL_8d20f00</title>
<g id="a_node36"><a xlink:href="MPI_WAITALL.svg" xlink:title="MPI_WAITALL">
<polygon fill="#ffe800" stroke="black" points="518.5,-757 401.5,-757 401.5,-753 397.5,-753 397.5,-749 401.5,-749 401.5,-729 397.5,-729 397.5,-725 401.5,-725 401.5,-721 518.5,-721 518.5,-757"/>
<polyline fill="none" stroke="black" points="401.5,-753 405.5,-753 405.5,-749 401.5,-749 "/>
<polyline fill="none" stroke="black" points="401.5,-729 405.5,-729 405.5,-725 401.5,-725 "/>
<text text-anchor="middle" x="460" y="-735.3" font-family="Times,serif" font-size="14.00">MPI_WAITALL</text>
</a>
</g>
</g>
<!-- CALL_8d1c240&#45;&gt;CALL_8d20f00 -->
<g id="edge35" class="edge">
<title>CALL_8d1c240&#45;&gt;CALL_8d20f00</title>
<path fill="none" stroke="black" d="M460,-792.7C460,-784.98 460,-775.71 460,-767.11"/>
<polygon fill="black" stroke="black" points="463.5,-767.1 460,-757.1 456.5,-767.1 463.5,-767.1"/>
</g>
<!-- COMMENT_87e4580+1 -->
<g id="node37" class="node">
<title>COMMENT_87e4580+1</title>
<polygon fill="none" stroke="black" points="773,-685 141,-685 141,-649 779,-649 779,-679 773,-685"/>
<polyline fill="none" stroke="black" points="773,-685 773,-679 "/>
<polyline fill="none" stroke="black" points="779,-679 773,-679 "/>
<text text-anchor="middle" x="460" y="-663.3" font-family="Times,serif" font-size="14.00">Allocate a few arrays needed to exchange divergence and pressure info among meshes</text>
</g>
<!-- CALL_8d20f00&#45;&gt;COMMENT_87e4580+1 -->
<g id="edge36" class="edge">
<title>CALL_8d20f00&#45;&gt;COMMENT_87e4580+1</title>
<path fill="none" stroke="black" d="M460,-720.7C460,-712.98 460,-703.71 460,-695.11"/>
<polygon fill="black" stroke="black" points="463.5,-695.1 460,-685.1 456.5,-695.1 463.5,-695.1"/>
</g>
<!-- CALL_8d202a0 -->
<g id="node38" class="node">
<title>CALL_8d202a0</title>
<g id="a_node38"><a xlink:href="ChkMemErr.svg" xlink:title="ChkMemErr">
<polygon fill="lightgray" stroke="black" points="512,-613 408,-613 408,-609 404,-609 404,-605 408,-605 408,-585 404,-585 404,-581 408,-581 408,-577 512,-577 512,-613"/>
<polyline fill="none" stroke="black" points="408,-609 412,-609 412,-605 408,-605 "/>
<polyline fill="none" stroke="black" points="408,-585 412,-585 412,-581 408,-581 "/>
<text text-anchor="middle" x="460" y="-591.3" font-family="Times,serif" font-size="14.00">ChkMemErr</text>
</a>
</g>
</g>
<!-- COMMENT_87e4580+1&#45;&gt;CALL_8d202a0 -->
<g id="edge37" class="edge">
<title>COMMENT_87e4580+1&#45;&gt;CALL_8d202a0</title>
<path fill="none" stroke="black" d="M460,-648.7C460,-640.98 460,-631.71 460,-623.11"/>
<polygon fill="black" stroke="black" points="463.5,-623.1 460,-613.1 456.5,-623.1 463.5,-623.1"/>
</g>
<!-- CALL_8d28fe0 -->
<g id="node39" class="node">
<title>CALL_8d28fe0</title>
<g id="a_node39"><a xlink:href="ChkMemErr.svg" xlink:title="ChkMemErr">
<polygon fill="lightgray" stroke="black" points="512,-541 408,-541 408,-537 404,-537 404,-533 408,-533 408,-513 404,-513 404,-509 408,-509 408,-505 512,-505 512,-541"/>
<polyline fill="none" stroke="black" points="408,-537 412,-537 412,-533 408,-533 "/>
<polyline fill="none" stroke="black" points="408,-513 412,-513 412,-509 408,-509 "/>
<text text-anchor="middle" x="460" y="-519.3" font-family="Times,serif" font-size="14.00">ChkMemErr</text>
</a>
</g>
</g>
<!-- CALL_8d202a0&#45;&gt;CALL_8d28fe0 -->
<g id="edge38" class="edge">
<title>CALL_8d202a0&#45;&gt;CALL_8d28fe0</title>
<path fill="none" stroke="black" d="M460,-576.7C460,-568.98 460,-559.71 460,-551.11"/>
<polygon fill="black" stroke="black" points="463.5,-551.1 460,-541.1 456.5,-551.1 463.5,-551.1"/>
</g>
<!-- CALL_8d2ade0 -->
<g id="node40" class="node">
<title>CALL_8d2ade0</title>
<g id="a_node40"><a xlink:href="ChkMemErr.svg" xlink:title="ChkMemErr">
<polygon fill="lightgray" stroke="black" points="512,-469 408,-469 408,-465 404,-465 404,-461 408,-461 408,-441 404,-441 404,-437 408,-437 408,-433 512,-433 512,-469"/>
<polyline fill="none" stroke="black" points="408,-465 412,-465 412,-461 408,-461 "/>
<polyline fill="none" stroke="black" points="408,-441 412,-441 412,-437 408,-437 "/>
<text text-anchor="middle" x="460" y="-447.3" font-family="Times,serif" font-size="14.00">ChkMemErr</text>
</a>
</g>
</g>
<!-- CALL_8d28fe0&#45;&gt;CALL_8d2ade0 -->
<g id="edge39" class="edge">
<title>CALL_8d28fe0&#45;&gt;CALL_8d2ade0</title>
<path fill="none" stroke="black" d="M460,-504.7C460,-496.98 460,-487.71 460,-479.11"/>
<polygon fill="black" stroke="black" points="463.5,-479.1 460,-469.1 456.5,-479.1 463.5,-479.1"/>
</g>
<!-- CALL_8d29520 -->
<g id="node41" class="node">
<title>CALL_8d29520</title>
<g id="a_node41"><a xlink:href="ChkMemErr.svg" xlink:title="ChkMemErr">
<polygon fill="lightgray" stroke="black" points="512,-397 408,-397 408,-393 404,-393 404,-389 408,-389 408,-369 404,-369 404,-365 408,-365 408,-361 512,-361 512,-397"/>
<polyline fill="none" stroke="black" points="408,-393 412,-393 412,-389 408,-389 "/>
<polyline fill="none" stroke="black" points="408,-369 412,-369 412,-365 408,-365 "/>
<text text-anchor="middle" x="460" y="-375.3" font-family="Times,serif" font-size="14.00">ChkMemErr</text>
</a>
</g>
</g>
<!-- CALL_8d2ade0&#45;&gt;CALL_8d29520 -->
<g id="edge40" class="edge">
<title>CALL_8d2ade0&#45;&gt;CALL_8d29520</title>
<path fill="none" stroke="black" d="M460,-432.7C460,-424.98 460,-415.71 460,-407.11"/>
<polygon fill="black" stroke="black" points="463.5,-407.1 460,-397.1 456.5,-407.1 463.5,-407.1"/>
</g>
<!-- CALL_8d2ac40 -->
<g id="node42" class="node">
<title>CALL_8d2ac40</title>
<g id="a_node42"><a xlink:href="ChkMemErr.svg" xlink:title="ChkMemErr">
<polygon fill="lightgray" stroke="black" points="512,-325 408,-325 408,-321 404,-321 404,-317 408,-317 408,-297 404,-297 404,-293 408,-293 408,-289 512,-289 512,-325"/>
<polyline fill="none" stroke="black" points="408,-321 412,-321 412,-317 408,-317 "/>
<polyline fill="none" stroke="black" points="408,-297 412,-297 412,-293 408,-293 "/>
<text text-anchor="middle" x="460" y="-303.3" font-family="Times,serif" font-size="14.00">ChkMemErr</text>
</a>
</g>
</g>
<!-- CALL_8d29520&#45;&gt;CALL_8d2ac40 -->
<g id="edge41" class="edge">
<title>CALL_8d29520&#45;&gt;CALL_8d2ac40</title>
<path fill="none" stroke="black" d="M460,-360.7C460,-352.98 460,-343.71 460,-335.11"/>
<polygon fill="black" stroke="black" points="463.5,-335.1 460,-325.1 456.5,-335.1 463.5,-335.1"/>
</g>
<!-- COMMENT_8d30560+1 -->
<g id="node43" class="node">
<title>COMMENT_8d30560+1</title>
<polygon fill="none" stroke="black" points="677.5,-253 236.5,-253 236.5,-217 683.5,-217 683.5,-247 677.5,-253"/>
<polyline fill="none" stroke="black" points="677.5,-253 677.5,-247 "/>
<polyline fill="none" stroke="black" points="683.5,-247 677.5,-247 "/>
<text text-anchor="middle" x="460" y="-231.3" font-family="Times,serif" font-size="14.00">Determine if consumable OBST masses are to be exchanged</text>
</g>
<!-- CALL_8d2ac40&#45;&gt;COMMENT_8d30560+1 -->
<g id="edge42" class="edge">
<title>CALL_8d2ac40&#45;&gt;COMMENT_8d30560+1</title>
<path fill="none" stroke="black" d="M460,-288.7C460,-280.98 460,-271.71 460,-263.11"/>
<polygon fill="black" stroke="black" points="463.5,-263.1 460,-253.1 456.5,-263.1 463.5,-263.1"/>
</g>
<!-- CALL_8d30560 -->
<g id="node44" class="node">
<title>CALL_8d30560</title>
<g id="a_node44"><a xlink:href="MPI_ALLREDUCE.svg" xlink:title="MPI_ALLREDUCE">
<polygon fill="#ffe800" stroke="black" points="533,-181 387,-181 387,-177 383,-177 383,-173 387,-173 387,-153 383,-153 383,-149 387,-149 387,-145 533,-145 533,-181"/>
<polyline fill="none" stroke="black" points="387,-177 391,-177 391,-173 387,-173 "/>
<polyline fill="none" stroke="black" points="387,-153 391,-153 391,-149 387,-149 "/>
<text text-anchor="middle" x="460" y="-159.3" font-family="Times,serif" font-size="14.00">MPI_ALLREDUCE</text>
</a>
</g>
</g>
<!-- COMMENT_8d30560+1&#45;&gt;CALL_8d30560 -->
<g id="edge43" class="edge">
<title>COMMENT_8d30560+1&#45;&gt;CALL_8d30560</title>
<path fill="none" stroke="black" d="M460,-216.7C460,-208.98 460,-199.71 460,-191.11"/>
<polygon fill="black" stroke="black" points="463.5,-191.1 460,-181.1 456.5,-191.1 463.5,-191.1"/>
</g>
<!-- CALL_8d31a40 -->
<g id="node45" class="node">
<title>CALL_8d31a40</title>
<g id="a_node45"><a xlink:href="VERBOSE_PRINTOUT.svg" xlink:title="VERBOSE_PRINTOUT">
<polygon fill="lightgray" stroke="black" points="547.5,-109 372.5,-109 372.5,-105 368.5,-105 368.5,-101 372.5,-101 372.5,-81 368.5,-81 368.5,-77 372.5,-77 372.5,-73 547.5,-73 547.5,-109"/>
<polyline fill="none" stroke="black" points="372.5,-105 376.5,-105 376.5,-101 372.5,-101 "/>
<polyline fill="none" stroke="black" points="372.5,-81 376.5,-81 376.5,-77 372.5,-77 "/>
<text text-anchor="middle" x="460" y="-87.3" font-family="Times,serif" font-size="14.00">VERBOSE_PRINTOUT</text>
</a>
</g>
</g>
<!-- CALL_8d30560&#45;&gt;CALL_8d31a40 -->
<g id="edge44" class="edge">
<title>CALL_8d30560&#45;&gt;CALL_8d31a40</title>
<path fill="none" stroke="black" d="M460,-144.7C460,-136.98 460,-127.71 460,-119.11"/>
<polygon fill="black" stroke="black" points="463.5,-119.1 460,-109.1 456.5,-119.1 463.5,-119.1"/>
</g>
<!-- end_SUBPROGRAM_8d31f00 -->
<g id="node46" class="node">
<title>end_SUBPROGRAM_8d31f00</title>
<ellipse fill="black" stroke="black" cx="460" cy="-30" rx="7" ry="7"/>
</g>
<!-- CALL_8d31a40&#45;&gt;end_SUBPROGRAM_8d31f00 -->
<g id="edge45" class="edge">
<title>CALL_8d31a40&#45;&gt;end_SUBPROGRAM_8d31f00</title>
<path fill="none" stroke="black" d="M460,-72.93C460,-64.89 460,-55.33 460,-47.37"/>
<polygon fill="black" stroke="black" points="463.5,-47.22 460,-37.22 456.5,-47.22 463.5,-47.22"/>
</g>
</g>
</svg>
