<?xml version="1.0" encoding="UTF-8" standalone="no"?>
<!DOCTYPE svg PUBLIC "-//W3C//DTD SVG 1.1//EN"
 "http://www.w3.org/Graphics/SVG/1.1/DTD/svg11.dtd">
<!-- Generated by graphviz version 2.43.0 (0)
 -->
<!-- Title: NO_FLUX Pages: 1 -->
<svg width="955pt" height="616pt"
 viewBox="0.00 0.00 955.00 616.00" xmlns="http://www.w3.org/2000/svg" xmlns:xlink="http://www.w3.org/1999/xlink">
<g id="graph0" class="graph" transform="scale(1 1) rotate(0) translate(4 612)">
<title>NO_FLUX</title>
<polygon fill="white" stroke="transparent" points="-4,4 -4,-612 951,-612 951,4 -4,4"/>
<text text-anchor="middle" x="473.5" y="-7.8" font-family="Times,serif" font-size="14.00">NO_FLUX</text>
<!-- start_SUBPROGRAM_8ba6440 -->
<g id="node1" class="node">
<title>start_SUBPROGRAM_8ba6440</title>
<ellipse fill="none" stroke="black" cx="473.5" cy="-601" rx="7" ry="7"/>
</g>
<!-- COMMENT_89e4880+1 -->
<g id="node2" class="node">
<title>COMMENT_89e4880+1</title>
<polygon fill="none" stroke="black" points="861.5,-558 79.5,-558 79.5,-505 867.5,-505 867.5,-552 861.5,-558"/>
<polyline fill="none" stroke="black" points="861.5,-558 861.5,-552 "/>
<polyline fill="none" stroke="black" points="867.5,-552 861.5,-552 "/>
<text text-anchor="middle" x="473.5" y="-542.8" font-family="Times,serif" font-size="14.00">!&gt; brief Set momentum fluxes inside and on the surface of solid obstructions to maintain user&#45;specified flux</text>
<text text-anchor="middle" x="473.5" y="-527.8" font-family="Times,serif" font-size="14.00">!&gt; param DT Time step (s)</text>
<text text-anchor="middle" x="473.5" y="-512.8" font-family="Times,serif" font-size="14.00">!&gt; param NM Mesh number</text>
</g>
<!-- start_SUBPROGRAM_8ba6440&#45;&gt;COMMENT_89e4880+1 -->
<g id="edge1" class="edge">
<title>start_SUBPROGRAM_8ba6440&#45;&gt;COMMENT_89e4880+1</title>
<path fill="none" stroke="black" d="M473.5,-593.77C473.5,-587.76 473.5,-578.16 473.5,-568.32"/>
<polygon fill="black" stroke="black" points="477,-568.12 473.5,-558.12 470,-568.12 477,-568.12"/>
</g>
<!-- CALL_89e9920 -->
<g id="node3" class="node">
<title>CALL_89e9920</title>
<g id="a_node3"><a xlink:href="POINT_TO_MESH.svg" xlink:title="POINT_TO_MESH">
<polygon fill="lightgray" stroke="black" points="545.5,-469 401.5,-469 401.5,-465 397.5,-465 397.5,-461 401.5,-461 401.5,-441 397.5,-441 397.5,-437 401.5,-437 401.5,-433 545.5,-433 545.5,-469"/>
<polyline fill="none" stroke="black" points="401.5,-465 405.5,-465 405.5,-461 401.5,-461 "/>
<polyline fill="none" stroke="black" points="401.5,-441 405.5,-441 405.5,-437 401.5,-437 "/>
<text text-anchor="middle" x="473.5" y="-447.3" font-family="Times,serif" font-size="14.00">POINT_TO_MESH</text>
</a>
</g>
</g>
<!-- COMMENT_89e4880+1&#45;&gt;CALL_89e9920 -->
<g id="edge2" class="edge">
<title>COMMENT_89e4880+1&#45;&gt;CALL_89e9920</title>
<path fill="none" stroke="black" d="M473.5,-504.8C473.5,-496.71 473.5,-487.76 473.5,-479.55"/>
<polygon fill="black" stroke="black" points="477,-479.33 473.5,-469.33 470,-479.33 477,-479.33"/>
</g>
<!-- COMMENT_89ee2e0+1 -->
<g id="node4" class="node">
<title>COMMENT_89ee2e0+1</title>
<polygon fill="none" stroke="black" points="718,-397 223,-397 223,-361 724,-361 724,-391 718,-397"/>
<polyline fill="none" stroke="black" points="718,-397 718,-391 "/>
<polyline fill="none" stroke="black" points="724,-391 718,-391 "/>
<text text-anchor="middle" x="473.5" y="-375.3" font-family="Times,serif" font-size="14.00">Fill in exterior cells of mesh NM with values of HP from mesh NOM</text>
</g>
<!-- CALL_89e9920&#45;&gt;COMMENT_89ee2e0+1 -->
<g id="edge3" class="edge">
<title>CALL_89e9920&#45;&gt;COMMENT_89ee2e0+1</title>
<path fill="none" stroke="black" d="M473.5,-432.7C473.5,-424.98 473.5,-415.71 473.5,-407.11"/>
<polygon fill="black" stroke="black" points="477,-407.1 473.5,-397.1 470,-407.1 477,-407.1"/>
</g>
<!-- COMMENT_89fda00+1 -->
<g id="node5" class="node">
<title>COMMENT_89fda00+1</title>
<polygon fill="none" stroke="black" points="852,-325 89,-325 89,-289 858,-289 858,-319 852,-325"/>
<polyline fill="none" stroke="black" points="852,-325 852,-319 "/>
<polyline fill="none" stroke="black" points="858,-319 852,-319 "/>
<text text-anchor="middle" x="473.5" y="-303.3" font-family="Times,serif" font-size="14.00">Set FVX, FVY and FVZ to drive velocity components at solid boundaries within obstructions towards zero</text>
</g>
<!-- COMMENT_89ee2e0+1&#45;&gt;COMMENT_89fda00+1 -->
<g id="edge4" class="edge">
<title>COMMENT_89ee2e0+1&#45;&gt;COMMENT_89fda00+1</title>
<path fill="none" stroke="black" d="M473.5,-360.7C473.5,-352.98 473.5,-343.71 473.5,-335.11"/>
<polygon fill="black" stroke="black" points="477,-335.1 473.5,-325.1 470,-335.1 477,-335.1"/>
</g>
<!-- DO_8b3a740 -->
<g id="node6" class="node">
<title>DO_8b3a740</title>
<polygon fill="none" stroke="orange" points="526,-253 421,-253 421,-217 526,-217 526,-253"/>
<text text-anchor="middle" x="473.5" y="-231.3" font-family="Times,serif" font-size="14.00">OBST_LOOP</text>
</g>
<!-- COMMENT_89fda00+1&#45;&gt;DO_8b3a740 -->
<g id="edge5" class="edge">
<title>COMMENT_89fda00+1&#45;&gt;DO_8b3a740</title>
<path fill="none" stroke="black" d="M473.5,-288.7C473.5,-280.98 473.5,-271.71 473.5,-263.11"/>
<polygon fill="black" stroke="black" points="477,-263.1 473.5,-253.1 470,-263.1 477,-263.1"/>
</g>
<!-- COMMENT_8b3a340+1 -->
<g id="node7" class="node">
<title>COMMENT_8b3a340+1</title>
<polygon fill="none" stroke="black" points="941,-181 0,-181 0,-145 947,-145 947,-175 941,-181"/>
<polyline fill="none" stroke="black" points="941,-181 941,-175 "/>
<polyline fill="none" stroke="black" points="947,-175 941,-175 "/>
<text text-anchor="middle" x="473.5" y="-159.3" font-family="Times,serif" font-size="14.00">Set FVX, FVY and FVZ to drive the normal velocity at solid boundaries towards the specified value (U_NORMAL or U_NORMAL_S)</text>
</g>
<!-- DO_8b3a740&#45;&gt;COMMENT_8b3a340+1 -->
<g id="edge6" class="edge">
<title>DO_8b3a740&#45;&gt;COMMENT_8b3a340+1</title>
<path fill="none" stroke="black" d="M473.5,-216.7C473.5,-208.98 473.5,-199.71 473.5,-191.11"/>
<polygon fill="black" stroke="black" points="477,-191.1 473.5,-181.1 470,-191.1 477,-191.1"/>
</g>
<!-- DO_8bae9e0 -->
<g id="node8" class="node">
<title>DO_8bae9e0</title>
<polygon fill="none" stroke="orange" points="526.5,-109 420.5,-109 420.5,-73 526.5,-73 526.5,-109"/>
<text text-anchor="middle" x="473.5" y="-87.3" font-family="Times,serif" font-size="14.00">WALL_LOOP</text>
</g>
<!-- COMMENT_8b3a340+1&#45;&gt;DO_8bae9e0 -->
<g id="edge7" class="edge">
<title>COMMENT_8b3a340+1&#45;&gt;DO_8bae9e0</title>
<path fill="none" stroke="black" d="M473.5,-144.7C473.5,-136.98 473.5,-127.71 473.5,-119.11"/>
<polygon fill="black" stroke="black" points="477,-119.1 473.5,-109.1 470,-119.1 477,-119.1"/>
</g>
<!-- end_SUBPROGRAM_8ba6440 -->
<g id="node9" class="node">
<title>end_SUBPROGRAM_8ba6440</title>
<ellipse fill="black" stroke="black" cx="473.5" cy="-30" rx="7" ry="7"/>
</g>
<!-- DO_8bae9e0&#45;&gt;end_SUBPROGRAM_8ba6440 -->
<g id="edge8" class="edge">
<title>DO_8bae9e0&#45;&gt;end_SUBPROGRAM_8ba6440</title>
<path fill="none" stroke="black" d="M473.5,-72.93C473.5,-64.89 473.5,-55.33 473.5,-47.37"/>
<polygon fill="black" stroke="black" points="477,-47.22 473.5,-37.22 470,-47.22 477,-47.22"/>
</g>
</g>
</svg>
