<?xml version="1.0" encoding="UTF-8" standalone="no"?>
<!DOCTYPE svg PUBLIC "-//W3C//DTD SVG 1.1//EN"
 "http://www.w3.org/Graphics/SVG/1.1/DTD/svg11.dtd">
<!-- Generated by graphviz version 2.43.0 (0)
 -->
<!-- Title: OPEN_AND_CLOSE Pages: 1 -->
<svg width="2899pt" height="2162pt"
 viewBox="0.00 0.00 2899.00 2162.40" xmlns="http://www.w3.org/2000/svg" xmlns:xlink="http://www.w3.org/1999/xlink">
<g id="graph0" class="graph" transform="scale(1 1) rotate(0) translate(4 2158.4)">
<title>OPEN_AND_CLOSE</title>
<polygon fill="white" stroke="transparent" points="-4,4 -4,-2158.4 2895,-2158.4 2895,4 -4,4"/>
<text text-anchor="middle" x="1445.5" y="-7.8" font-family="Times,serif" font-size="14.00">OPEN_AND_CLOSE</text>
<g id="clust1" class="cluster">
<title>cluster_OBST_LOOP</title>
<polygon fill="none" stroke="orange" points="163,-719.44 163,-1899.4 2883,-1899.4 2883,-719.44 163,-719.44"/>
<text text-anchor="middle" x="215.5" y="-1884.2" font-family="Times,serif" font-size="14.00">OBST_LOOP</text>
</g>
<g id="clust2" class="cluster">
<title>cluster_CREATE_REMOVE_IF</title>
<polygon fill="none" stroke="blue" points="171,-1116.16 171,-1787.68 2875,-1787.68 2875,-1116.16 171,-1116.16"/>
<text text-anchor="middle" x="257" y="-1772.48" font-family="Times,serif" font-size="14.00">CREATE_REMOVE_IF</text>
</g>
<g id="clust3" class="cluster">
<title>cluster_cond8b25e20</title>
<polygon fill="none" stroke="black" points="179,-1659.6 179,-1734.6 367,-1734.6 367,-1659.6 179,-1659.6"/>
<text text-anchor="middle" x="235.5" y="-1719.4" font-family="Times,serif" font-size="14.00">cond8b25e20</text>
</g>
<g id="clust4" class="cluster">
<title>cluster_cond8b55ea0</title>
<polygon fill="none" stroke="black" points="375,-1145.02 375,-1747.96 2867,-1747.96 2867,-1145.02 375,-1145.02"/>
<text text-anchor="middle" x="431" y="-1732.76" font-family="Times,serif" font-size="14.00">cond8b55ea0</text>
</g>
<g id="clust5" class="cluster">
<title>cluster_SET_T_BEGIN_IF</title>
<polygon fill="none" stroke="blue" points="383,-1153.02 383,-1716.96 2859,-1716.96 2859,-1153.02 383,-1153.02"/>
<text text-anchor="middle" x="453" y="-1701.76" font-family="Times,serif" font-size="14.00">SET_T_BEGIN_IF</text>
</g>
<g id="clust6" class="cluster">
<title>cluster_cond8b37280</title>
<polygon fill="none" stroke="black" points="391,-1182.02 391,-1651.6 1535,-1651.6 1535,-1182.02 391,-1182.02"/>
<text text-anchor="middle" x="447.5" y="-1636.4" font-family="Times,serif" font-size="14.00">cond8b37280</text>
</g>
<g id="clust7" class="cluster">
<title>cluster_HOLE_FILL_IF</title>
<polygon fill="none" stroke="blue" points="399,-1190.02 399,-1576.6 1527,-1576.6 1527,-1190.02 399,-1190.02"/>
<text text-anchor="middle" x="459.5" y="-1561.4" font-family="Times,serif" font-size="14.00">HOLE_FILL_IF</text>
</g>
<g id="clust8" class="cluster">
<title>cluster_cond8b29f80</title>
<polygon fill="none" stroke="black" points="407,-1461.74 407,-1536.74 589,-1536.74 589,-1461.74 407,-1461.74"/>
<text text-anchor="middle" x="462" y="-1521.54" font-family="Times,serif" font-size="14.00">cond8b29f80</text>
</g>
<g id="clust9" class="cluster">
<title>cluster_cond8b37020</title>
<polygon fill="none" stroke="black" points="597,-1219.02 597,-1536.74 1519,-1536.74 1519,-1219.02 597,-1219.02"/>
<text text-anchor="middle" x="653.5" y="-1521.54" font-family="Times,serif" font-size="14.00">cond8b37020</text>
</g>
<g id="clust10" class="cluster">
<title>cluster_CHECK_PARENT</title>
<polygon fill="none" stroke="blue" points="605,-1227.02 605,-1453.74 1511,-1453.74 1511,-1227.02 605,-1227.02"/>
<text text-anchor="middle" x="673.5" y="-1438.54" font-family="Times,serif" font-size="14.00">CHECK_PARENT</text>
</g>
<g id="clust11" class="cluster">
<title>cluster_cond8b33420</title>
<polygon fill="none" stroke="black" points="613,-1263.88 613,-1413.88 1251,-1413.88 1251,-1263.88 613,-1263.88"/>
<text text-anchor="middle" x="669.5" y="-1398.68" font-family="Times,serif" font-size="14.00">cond8b33420</text>
</g>
<g id="clust12" class="cluster">
<title>cluster_cond8b359c0</title>
<polygon fill="none" stroke="black" points="1259,-1263.88 1259,-1338.88 1503,-1338.88 1503,-1263.88 1259,-1263.88"/>
<text text-anchor="middle" x="1315" y="-1323.68" font-family="Times,serif" font-size="14.00">cond8b359c0</text>
</g>
<g id="clust13" class="cluster">
<title>cluster_cond8b55c40</title>
<polygon fill="none" stroke="black" points="1543,-1182.02 1543,-1651.6 2851,-1651.6 2851,-1182.02 1543,-1182.02"/>
<text text-anchor="middle" x="1599" y="-1636.4" font-family="Times,serif" font-size="14.00">cond8b55c40</text>
</g>
<g id="clust14" class="cluster">
<title>cluster_HOLE_FILL_IF_2</title>
<polygon fill="none" stroke="blue" points="1551,-1190.02 1551,-1576.6 2843,-1576.6 2843,-1190.02 1551,-1190.02"/>
<text text-anchor="middle" x="1619.5" y="-1561.4" font-family="Times,serif" font-size="14.00">HOLE_FILL_IF_2</text>
</g>
<g id="clust15" class="cluster">
<title>cluster_cond8b3d3c0</title>
<polygon fill="none" stroke="black" points="1559,-1461.74 1559,-1536.74 1741,-1536.74 1741,-1461.74 1559,-1461.74"/>
<text text-anchor="middle" x="1615" y="-1521.54" font-family="Times,serif" font-size="14.00">cond8b3d3c0</text>
</g>
<g id="clust16" class="cluster">
<title>cluster_cond8b55960</title>
<polygon fill="none" stroke="black" points="1749,-1219.02 1749,-1536.74 2835,-1536.74 2835,-1219.02 1749,-1219.02"/>
<text text-anchor="middle" x="1805.5" y="-1521.54" font-family="Times,serif" font-size="14.00">cond8b55960</text>
</g>
<g id="clust17" class="cluster">
<title>cluster_CHECK_PARENT_2</title>
<polygon fill="none" stroke="blue" points="1757,-1227.02 1757,-1453.74 2827,-1453.74 2827,-1227.02 1757,-1227.02"/>
<text text-anchor="middle" x="1833.5" y="-1438.54" font-family="Times,serif" font-size="14.00">CHECK_PARENT_2</text>
</g>
<g id="clust18" class="cluster">
<title>cluster_cond8b4fac0</title>
<polygon fill="none" stroke="black" points="1765,-1263.88 1765,-1413.88 2403,-1413.88 2403,-1263.88 1765,-1263.88"/>
<text text-anchor="middle" x="1818.5" y="-1398.68" font-family="Times,serif" font-size="14.00">cond8b4fac0</text>
</g>
<g id="clust19" class="cluster">
<title>cluster_cond8b556a0</title>
<polygon fill="none" stroke="black" points="2411,-1263.88 2411,-1338.88 2819,-1338.88 2819,-1263.88 2411,-1263.88"/>
<text text-anchor="middle" x="2467.5" y="-1323.68" font-family="Times,serif" font-size="14.00">cond8b556a0</text>
</g>
<g id="clust20" class="cluster">
<title>cluster_VENT_LOOP</title>
<polygon fill="none" stroke="orange" points="100,-65 100,-575.44 1004,-575.44 1004,-65 100,-65"/>
<text text-anchor="middle" x="153" y="-560.24" font-family="Times,serif" font-size="14.00">VENT_LOOP</text>
</g>
<!-- start_SUBPROGRAM_8b64840 -->
<g id="node1" class="node">
<title>start_SUBPROGRAM_8b64840</title>
<ellipse fill="none" stroke="black" cx="400" cy="-2147.4" rx="7" ry="7"/>
</g>
<!-- COMMENT_8b1d2c0+1 -->
<g id="node2" class="node">
<title>COMMENT_8b1d2c0+1</title>
<polygon fill="none" stroke="black" points="794,-2104.4 0,-2104.4 0,-2051.4 800,-2051.4 800,-2098.4 794,-2104.4"/>
<polyline fill="none" stroke="black" points="794,-2104.4 794,-2098.4 "/>
<polyline fill="none" stroke="black" points="800,-2098.4 794,-2098.4 "/>
<text text-anchor="middle" x="400" y="-2089.2" font-family="Times,serif" font-size="14.00">!&gt; brief Check to see if a cell or OBSTruction is to be created or removed, or a VENT activated of deactivated</text>
<text text-anchor="middle" x="400" y="-2074.2" font-family="Times,serif" font-size="14.00">!&gt; param T Current time (s)</text>
<text text-anchor="middle" x="400" y="-2059.2" font-family="Times,serif" font-size="14.00">!&gt; param NM Mesh number</text>
</g>
<!-- start_SUBPROGRAM_8b64840&#45;&gt;COMMENT_8b1d2c0+1 -->
<g id="edge1" class="edge">
<title>start_SUBPROGRAM_8b64840&#45;&gt;COMMENT_8b1d2c0+1</title>
<path fill="none" stroke="black" d="M400,-2140.17C400,-2134.16 400,-2124.56 400,-2114.72"/>
<polygon fill="black" stroke="black" points="403.5,-2114.52 400,-2104.52 396.5,-2114.52 403.5,-2114.52"/>
</g>
<!-- CALL_8b21040 -->
<g id="node3" class="node">
<title>CALL_8b21040</title>
<g id="a_node3"><a xlink:href="POINT_TO_MESH.svg" xlink:title="POINT_TO_MESH">
<polygon fill="lightgray" stroke="black" points="472,-2015.4 328,-2015.4 328,-2011.4 324,-2011.4 324,-2007.4 328,-2007.4 328,-1987.4 324,-1987.4 324,-1983.4 328,-1983.4 328,-1979.4 472,-1979.4 472,-2015.4"/>
<polyline fill="none" stroke="black" points="328,-2011.4 332,-2011.4 332,-2007.4 328,-2007.4 "/>
<polyline fill="none" stroke="black" points="328,-1987.4 332,-1987.4 332,-1983.4 328,-1983.4 "/>
<text text-anchor="middle" x="400" y="-1993.7" font-family="Times,serif" font-size="14.00">POINT_TO_MESH</text>
</a>
</g>
</g>
<!-- COMMENT_8b1d2c0+1&#45;&gt;CALL_8b21040 -->
<g id="edge2" class="edge">
<title>COMMENT_8b1d2c0+1&#45;&gt;CALL_8b21040</title>
<path fill="none" stroke="black" d="M400,-2051.2C400,-2043.11 400,-2034.16 400,-2025.95"/>
<polygon fill="black" stroke="black" points="403.5,-2025.73 400,-2015.73 396.5,-2025.73 403.5,-2025.73"/>
</g>
<!-- COMMENT_8b21e60+1 -->
<g id="node4" class="node">
<title>COMMENT_8b21e60+1</title>
<polygon fill="none" stroke="black" points="598.5,-1943.4 195.5,-1943.4 195.5,-1907.4 604.5,-1907.4 604.5,-1937.4 598.5,-1943.4"/>
<polyline fill="none" stroke="black" points="598.5,-1943.4 598.5,-1937.4 "/>
<polyline fill="none" stroke="black" points="604.5,-1937.4 598.5,-1937.4 "/>
<text text-anchor="middle" x="400" y="-1921.7" font-family="Times,serif" font-size="14.00">Check to see if an obstacle is to be removed or created</text>
</g>
<!-- CALL_8b21040&#45;&gt;COMMENT_8b21e60+1 -->
<g id="edge3" class="edge">
<title>CALL_8b21040&#45;&gt;COMMENT_8b21e60+1</title>
<path fill="none" stroke="black" d="M400,-1979.1C400,-1971.38 400,-1962.11 400,-1953.51"/>
<polygon fill="black" stroke="black" points="403.5,-1953.5 400,-1943.5 396.5,-1953.5 403.5,-1953.5"/>
</g>
<!-- beginDO_DO_8b610a0 -->
<g id="node5" class="node">
<title>beginDO_DO_8b610a0</title>
<ellipse fill="black" stroke="black" cx="400" cy="-1868.04" rx="0.36" ry="0.36"/>
</g>
<!-- COMMENT_8b21e60+1&#45;&gt;beginDO_DO_8b610a0 -->
<g id="edge41" class="edge">
<title>COMMENT_8b21e60+1&#45;&gt;beginDO_DO_8b610a0</title>
<path fill="none" stroke="black" d="M400,-1907.19C400,-1891.44 400,-1870.4 400,-1869.1"/>
</g>
<!-- COMMENT_8b24b00+1 -->
<g id="node7" class="node">
<title>COMMENT_8b24b00+1</title>
<polygon fill="none" stroke="black" points="525.5,-1831.68 268.5,-1831.68 268.5,-1795.68 531.5,-1795.68 531.5,-1825.68 525.5,-1831.68"/>
<polyline fill="none" stroke="black" points="525.5,-1831.68 525.5,-1825.68 "/>
<polyline fill="none" stroke="black" points="531.5,-1825.68 525.5,-1825.68 "/>
<text text-anchor="middle" x="400" y="-1809.98" font-family="Times,serif" font-size="14.00">Over&#45;ride DEVICE/CONTROL logic</text>
</g>
<!-- beginDO_DO_8b610a0&#45;&gt;COMMENT_8b24b00+1 -->
<g id="edge4" class="edge">
<title>beginDO_DO_8b610a0&#45;&gt;COMMENT_8b24b00+1</title>
<path fill="none" stroke="black" d="M400,-1867.53C400,-1866.05 400,-1854 400,-1841.78"/>
<polygon fill="black" stroke="black" points="403.5,-1841.7 400,-1831.7 396.5,-1841.7 403.5,-1841.7"/>
</g>
<!-- endDO_DO_8b610a0 -->
<g id="node6" class="node">
<title>endDO_DO_8b610a0</title>
<ellipse fill="black" stroke="black" cx="552" cy="-727.8" rx="0.36" ry="0.36"/>
</g>
<!-- COMMENT_8b645c0+1 -->
<g id="node38" class="node">
<title>COMMENT_8b645c0+1</title>
<polygon fill="none" stroke="black" points="757,-691.44 341,-691.44 341,-655.44 763,-655.44 763,-685.44 757,-691.44"/>
<polyline fill="none" stroke="black" points="757,-691.44 757,-685.44 "/>
<polyline fill="none" stroke="black" points="763,-685.44 757,-685.44 "/>
<text text-anchor="middle" x="552" y="-669.74" font-family="Times,serif" font-size="14.00">Check to see if a vent should be activated or deactivated</text>
</g>
<!-- endDO_DO_8b610a0&#45;&gt;COMMENT_8b645c0+1 -->
<g id="edge43" class="edge">
<title>endDO_DO_8b610a0&#45;&gt;COMMENT_8b645c0+1</title>
<path fill="none" stroke="black" d="M552,-726.65C552,-725.21 552,-713.67 552,-701.8"/>
<polygon fill="black" stroke="black" points="555.5,-701.54 552,-691.54 548.5,-701.54 555.5,-701.54"/>
</g>
<!-- beginIf_IF_8b55f40 -->
<g id="node8" class="node">
<title>beginIf_IF_8b55f40</title>
<ellipse fill="black" stroke="black" cx="400" cy="-1756.32" rx="0.36" ry="0.36"/>
</g>
<!-- COMMENT_8b24b00+1&#45;&gt;beginIf_IF_8b55f40 -->
<g id="edge35" class="edge">
<title>COMMENT_8b24b00+1&#45;&gt;beginIf_IF_8b55f40</title>
<path fill="none" stroke="black" d="M400,-1795.47C400,-1779.72 400,-1758.68 400,-1757.38"/>
</g>
<!-- Empty_8b25e20 -->
<g id="node10" class="node">
<title>Empty_8b25e20</title>
<ellipse fill="none" stroke="black" cx="273" cy="-1685.6" rx="86.38" ry="18"/>
<text text-anchor="middle" x="273" y="-1681.9" font-family="Times,serif" font-size="14.00">Empty_8b25e20</text>
</g>
<!-- beginIf_IF_8b55f40&#45;&gt;Empty_8b25e20 -->
<g id="edge5" class="edge">
<title>beginIf_IF_8b55f40&#45;&gt;Empty_8b25e20</title>
<path fill="none" stroke="black" d="M399.86,-1755.92C398.51,-1755.49 387.45,-1751.99 379,-1747.96 354.25,-1736.18 327.54,-1720.7 307.13,-1708.24"/>
<polygon fill="black" stroke="black" points="308.86,-1705.19 298.51,-1702.92 305.19,-1711.15 308.86,-1705.19"/>
</g>
<!-- beginIf_IF_8b55d40 -->
<g id="node11" class="node">
<title>beginIf_IF_8b55d40</title>
<ellipse fill="black" stroke="black" cx="696" cy="-1685.6" rx="0.36" ry="0.36"/>
</g>
<!-- beginIf_IF_8b55f40&#45;&gt;beginIf_IF_8b55d40 -->
<g id="edge33" class="edge">
<title>beginIf_IF_8b55f40&#45;&gt;beginIf_IF_8b55d40</title>
<path fill="none" stroke="black" d="M400.05,-1755.95C404.1,-1755 635.09,-1700.87 686.1,-1688.92"/>
<polygon fill="black" stroke="black" points="687.01,-1692.3 695.95,-1686.61 685.41,-1685.49 687.01,-1692.3"/>
</g>
<!-- endIf_IF_8b55f40 -->
<g id="node9" class="node">
<title>endIf_IF_8b55f40</title>
<ellipse fill="black" stroke="black" cx="552" cy="-1124.52" rx="0.36" ry="0.36"/>
</g>
<!-- CALL_8b5a6a0 -->
<g id="node33" class="node">
<title>CALL_8b5a6a0</title>
<g id="a_node33"><a xlink:href="CREATE_OR_REMOVE_OBST.svg" xlink:title="CREATE_OR_REMOVE_OBST">
<polygon fill="lightgray" stroke="black" points="665,-1088.16 439,-1088.16 439,-1084.16 435,-1084.16 435,-1080.16 439,-1080.16 439,-1060.16 435,-1060.16 435,-1056.16 439,-1056.16 439,-1052.16 665,-1052.16 665,-1088.16"/>
<polyline fill="none" stroke="black" points="439,-1084.16 443,-1084.16 443,-1080.16 439,-1080.16 "/>
<polyline fill="none" stroke="black" points="439,-1060.16 443,-1060.16 443,-1056.16 439,-1056.16 "/>
<text text-anchor="middle" x="552" y="-1066.46" font-family="Times,serif" font-size="14.00">CREATE_OR_REMOVE_OBST</text>
</a>
</g>
</g>
<!-- endIf_IF_8b55f40&#45;&gt;CALL_8b5a6a0 -->
<g id="edge36" class="edge">
<title>endIf_IF_8b55f40&#45;&gt;CALL_8b5a6a0</title>
<path fill="none" stroke="black" d="M552,-1123.37C552,-1121.93 552,-1110.39 552,-1098.52"/>
<polygon fill="black" stroke="black" points="555.5,-1098.26 552,-1088.26 548.5,-1098.26 555.5,-1098.26"/>
</g>
<!-- Empty_8b25e20&#45;&gt;endIf_IF_8b55f40 -->
<g id="edge6" class="edge">
<title>Empty_8b25e20&#45;&gt;endIf_IF_8b55f40</title>
<path fill="none" stroke="black" d="M282.97,-1667.33C296.76,-1641.76 320,-1591.9 320,-1546.24 320,-1546.24 320,-1546.24 320,-1197.38 320,-1162.32 347,-1159.34 379,-1145.02 413.77,-1129.45 547.72,-1125.02 551.9,-1124.88"/>
</g>
<!-- COMMENT_8b26420+1 -->
<g id="node13" class="node">
<title>COMMENT_8b26420+1</title>
<polygon fill="none" stroke="black" points="785,-1620.6 601,-1620.6 601,-1584.6 791,-1584.6 791,-1614.6 785,-1620.6"/>
<polyline fill="none" stroke="black" points="785,-1620.6 785,-1614.6 "/>
<polyline fill="none" stroke="black" points="791,-1614.6 785,-1614.6 "/>
<text text-anchor="middle" x="696" y="-1598.9" font-family="Times,serif" font-size="14.00">Set initial state of OBST</text>
</g>
<!-- beginIf_IF_8b55d40&#45;&gt;COMMENT_8b26420+1 -->
<g id="edge18" class="edge">
<title>beginIf_IF_8b55d40&#45;&gt;COMMENT_8b26420+1</title>
<path fill="none" stroke="black" d="M696,-1684.54C696,-1683.06 696,-1653.88 696,-1630.97"/>
<polygon fill="black" stroke="black" points="699.5,-1630.7 696,-1620.7 692.5,-1630.7 699.5,-1630.7"/>
</g>
<!-- COMMENT_8b30f60+1 -->
<g id="node23" class="node">
<title>COMMENT_8b30f60+1</title>
<polygon fill="none" stroke="black" points="1898.5,-1620.6 1551.5,-1620.6 1551.5,-1584.6 1904.5,-1584.6 1904.5,-1614.6 1898.5,-1620.6"/>
<polyline fill="none" stroke="black" points="1898.5,-1620.6 1898.5,-1614.6 "/>
<polyline fill="none" stroke="black" points="1904.5,-1614.6 1898.5,-1614.6 "/>
<text text-anchor="middle" x="1728" y="-1598.9" font-family="Times,serif" font-size="14.00">Decide if a DEVICE/CONTROL action is needed</text>
</g>
<!-- beginIf_IF_8b55d40&#45;&gt;COMMENT_8b30f60+1 -->
<g id="edge31" class="edge">
<title>beginIf_IF_8b55d40&#45;&gt;COMMENT_8b30f60+1</title>
<path fill="none" stroke="black" d="M696.12,-1684.6C706.24,-1684.5 1354.91,-1678.28 1539,-1651.6 1581.11,-1645.5 1627.43,-1633.82 1663.67,-1623.51"/>
<polygon fill="black" stroke="black" points="1664.97,-1626.77 1673.61,-1620.64 1663.04,-1620.05 1664.97,-1626.77"/>
</g>
<!-- endIf_IF_8b55d40 -->
<g id="node12" class="node">
<title>endIf_IF_8b55d40</title>
<ellipse fill="black" stroke="black" cx="583" cy="-1161.38" rx="0.36" ry="0.36"/>
</g>
<!-- endIf_IF_8b55d40&#45;&gt;endIf_IF_8b55f40 -->
<g id="edge34" class="edge">
<title>endIf_IF_8b55d40&#45;&gt;endIf_IF_8b55f40</title>
<path fill="none" stroke="black" d="M583,-1160.27C582.98,-1159.21 582.69,-1150.51 579,-1145.02 570.9,-1132.99 553.16,-1125.37 552.05,-1124.9"/>
</g>
<!-- beginIf_IF_8b37180 -->
<g id="node14" class="node">
<title>beginIf_IF_8b37180</title>
<ellipse fill="black" stroke="black" cx="696" cy="-1545.24" rx="0.36" ry="0.36"/>
</g>
<!-- COMMENT_8b26420+1&#45;&gt;beginIf_IF_8b37180 -->
<g id="edge17" class="edge">
<title>COMMENT_8b26420+1&#45;&gt;beginIf_IF_8b37180</title>
<path fill="none" stroke="black" d="M696,-1584.39C696,-1568.64 696,-1547.6 696,-1546.3"/>
</g>
<!-- COMMENT_8b25840+1 -->
<g id="node16" class="node">
<title>COMMENT_8b25840+1</title>
<polygon fill="none" stroke="black" points="575.5,-1505.74 414.5,-1505.74 414.5,-1469.74 581.5,-1469.74 581.5,-1499.74 575.5,-1505.74"/>
<polyline fill="none" stroke="black" points="575.5,-1505.74 575.5,-1499.74 "/>
<polyline fill="none" stroke="black" points="581.5,-1499.74 575.5,-1499.74 "/>
<text text-anchor="middle" x="498" y="-1484.04" font-family="Times,serif" font-size="14.00">!OBST is not a HOLE</text>
</g>
<!-- beginIf_IF_8b37180&#45;&gt;COMMENT_8b25840+1 -->
<g id="edge7" class="edge">
<title>beginIf_IF_8b37180&#45;&gt;COMMENT_8b25840+1</title>
<path fill="none" stroke="black" d="M695.94,-1544.74C693.49,-1544.68 614.76,-1542.83 593,-1536.74 572.43,-1530.99 551.07,-1520.64 533.82,-1511.03"/>
<polygon fill="black" stroke="black" points="535.11,-1507.73 524.69,-1505.79 531.63,-1513.8 535.11,-1507.73"/>
</g>
<!-- COMMENT_8b1eec0+1 -->
<g id="node17" class="node">
<title>COMMENT_8b1eec0+1</title>
<polygon fill="none" stroke="black" points="1140.5,-1505.74 643.5,-1505.74 643.5,-1469.74 1146.5,-1469.74 1146.5,-1499.74 1140.5,-1505.74"/>
<polyline fill="none" stroke="black" points="1140.5,-1505.74 1140.5,-1499.74 "/>
<polyline fill="none" stroke="black" points="1146.5,-1499.74 1140.5,-1499.74 "/>
<text text-anchor="middle" x="895" y="-1484.04" font-family="Times,serif" font-size="14.00">!OBST is a HOLE. &#160;CREATE/REMOVE also depends on parent OBST.</text>
</g>
<!-- beginIf_IF_8b37180&#45;&gt;COMMENT_8b1eec0+1 -->
<g id="edge15" class="edge">
<title>beginIf_IF_8b37180&#45;&gt;COMMENT_8b1eec0+1</title>
<path fill="none" stroke="black" d="M696.14,-1544.7C699.71,-1543.69 768.83,-1524.24 824.59,-1508.55"/>
<polygon fill="black" stroke="black" points="825.79,-1511.85 834.47,-1505.77 823.9,-1505.11 825.79,-1511.85"/>
</g>
<!-- endIf_IF_8b37180 -->
<g id="node15" class="node">
<title>endIf_IF_8b37180</title>
<ellipse fill="black" stroke="black" cx="583" cy="-1198.38" rx="0.36" ry="0.36"/>
</g>
<!-- endIf_IF_8b37180&#45;&gt;endIf_IF_8b55d40 -->
<g id="edge19" class="edge">
<title>endIf_IF_8b37180&#45;&gt;endIf_IF_8b55d40</title>
<path fill="none" stroke="black" d="M583,-1197.28C583,-1195.26 583,-1163.93 583,-1161.98"/>
</g>
<!-- COMMENT_8b25840+1&#45;&gt;endIf_IF_8b37180 -->
<g id="edge8" class="edge">
<title>COMMENT_8b25840+1&#45;&gt;endIf_IF_8b37180</title>
<path fill="none" stroke="black" d="M535.95,-1469.55C541.9,-1465.22 547.3,-1459.99 551,-1453.74 570.95,-1420.1 556,-1404.99 556,-1365.88 556,-1365.88 556,-1365.88 556,-1288.88 556,-1248.42 581.34,-1201.89 582.92,-1199.02"/>
</g>
<!-- beginIf_IF_8b36ec0 -->
<g id="node18" class="node">
<title>beginIf_IF_8b36ec0</title>
<ellipse fill="black" stroke="black" cx="932" cy="-1422.38" rx="0.36" ry="0.36"/>
</g>
<!-- COMMENT_8b1eec0+1&#45;&gt;beginIf_IF_8b36ec0 -->
<g id="edge14" class="edge">
<title>COMMENT_8b1eec0+1&#45;&gt;beginIf_IF_8b36ec0</title>
<path fill="none" stroke="black" d="M916.28,-1469.64C920.84,-1464.96 925.13,-1459.55 928,-1453.74 933.83,-1441.92 932.12,-1424.51 932.01,-1423.43"/>
</g>
<!-- COMMENT_8b2bd00+1 -->
<g id="node20" class="node">
<title>COMMENT_8b2bd00+1</title>
<polygon fill="none" stroke="black" points="1236.5,-1382.88 621.5,-1382.88 621.5,-1346.88 1242.5,-1346.88 1242.5,-1376.88 1236.5,-1382.88"/>
<polyline fill="none" stroke="black" points="1236.5,-1382.88 1236.5,-1376.88 "/>
<polyline fill="none" stroke="black" points="1242.5,-1376.88 1236.5,-1376.88 "/>
<text text-anchor="middle" x="932" y="-1361.18" font-family="Times,serif" font-size="14.00">!Parent OBST controllable, check state and if parent OBST is hidden, do not fill hole.</text>
</g>
<!-- beginIf_IF_8b36ec0&#45;&gt;COMMENT_8b2bd00+1 -->
<g id="edge10" class="edge">
<title>beginIf_IF_8b36ec0&#45;&gt;COMMENT_8b2bd00+1</title>
<path fill="none" stroke="black" d="M932,-1421.72C932,-1420.09 932,-1406.4 932,-1392.98"/>
<polygon fill="black" stroke="black" points="935.5,-1392.98 932,-1382.98 928.5,-1392.98 935.5,-1392.98"/>
</g>
<!-- COMMENT_8b32fa0+1 -->
<g id="node22" class="node">
<title>COMMENT_8b32fa0+1</title>
<polygon fill="none" stroke="black" points="1488.5,-1307.88 1267.5,-1307.88 1267.5,-1271.88 1494.5,-1271.88 1494.5,-1301.88 1488.5,-1307.88"/>
<polyline fill="none" stroke="black" points="1488.5,-1307.88 1488.5,-1301.88 "/>
<polyline fill="none" stroke="black" points="1494.5,-1301.88 1488.5,-1301.88 "/>
<text text-anchor="middle" x="1381" y="-1286.18" font-family="Times,serif" font-size="14.00">!Parent OBST always present</text>
</g>
<!-- beginIf_IF_8b36ec0&#45;&gt;COMMENT_8b32fa0+1 -->
<g id="edge12" class="edge">
<title>beginIf_IF_8b36ec0&#45;&gt;COMMENT_8b32fa0+1</title>
<path fill="none" stroke="black" d="M932.06,-1421.88C936.77,-1421.86 1238.59,-1420.8 1255,-1413.88 1302.94,-1393.66 1342.83,-1345.96 1364.18,-1316.26"/>
<polygon fill="black" stroke="black" points="1367.08,-1318.23 1369.95,-1308.03 1361.35,-1314.21 1367.08,-1318.23"/>
</g>
<!-- endIf_IF_8b36ec0 -->
<g id="node19" class="node">
<title>endIf_IF_8b36ec0</title>
<ellipse fill="black" stroke="black" cx="932" cy="-1235.38" rx="0.36" ry="0.36"/>
</g>
<!-- endIf_IF_8b36ec0&#45;&gt;endIf_IF_8b37180 -->
<g id="edge16" class="edge">
<title>endIf_IF_8b36ec0&#45;&gt;endIf_IF_8b37180</title>
<path fill="none" stroke="black" d="M932.01,-1234.26C932.15,-1233.04 933.11,-1223.22 928,-1219.02 898.55,-1194.85 587.91,-1198.82 583.06,-1198.88"/>
</g>
<!-- COMMENT_8b2d640+1 -->
<g id="node21" class="node">
<title>COMMENT_8b2d640+1</title>
<polygon fill="none" stroke="black" points="1165,-1307.88 693,-1307.88 693,-1271.88 1171,-1271.88 1171,-1301.88 1165,-1307.88"/>
<polyline fill="none" stroke="black" points="1165,-1307.88 1165,-1301.88 "/>
<polyline fill="none" stroke="black" points="1171,-1301.88 1165,-1301.88 "/>
<text text-anchor="middle" x="932" y="-1286.18" font-family="Times,serif" font-size="14.00">!If parent OBST is visible, check to see if hole needs to be made.</text>
</g>
<!-- COMMENT_8b2bd00+1&#45;&gt;COMMENT_8b2d640+1 -->
<g id="edge9" class="edge">
<title>COMMENT_8b2bd00+1&#45;&gt;COMMENT_8b2d640+1</title>
<path fill="none" stroke="black" d="M932,-1346.58C932,-1338.13 932,-1327.75 932,-1318.25"/>
<polygon fill="black" stroke="black" points="935.5,-1318.06 932,-1308.06 928.5,-1318.06 935.5,-1318.06"/>
</g>
<!-- COMMENT_8b2d640+1&#45;&gt;endIf_IF_8b36ec0 -->
<g id="edge11" class="edge">
<title>COMMENT_8b2d640+1&#45;&gt;endIf_IF_8b36ec0</title>
<path fill="none" stroke="black" d="M932,-1271.82C932,-1256.81 932,-1237.15 932,-1235.94"/>
</g>
<!-- COMMENT_8b32fa0+1&#45;&gt;endIf_IF_8b36ec0 -->
<g id="edge13" class="edge">
<title>COMMENT_8b32fa0+1&#45;&gt;endIf_IF_8b36ec0</title>
<path fill="none" stroke="black" d="M1302.25,-1271.88C1286.65,-1268.9 1270.35,-1266.06 1255,-1263.88 1114.57,-1243.92 937.63,-1236.12 932.13,-1235.89"/>
</g>
<!-- beginIf_IF_8b55a80 -->
<g id="node24" class="node">
<title>beginIf_IF_8b55a80</title>
<ellipse fill="black" stroke="black" cx="1728" cy="-1545.24" rx="0.36" ry="0.36"/>
</g>
<!-- COMMENT_8b30f60+1&#45;&gt;beginIf_IF_8b55a80 -->
<g id="edge30" class="edge">
<title>COMMENT_8b30f60+1&#45;&gt;beginIf_IF_8b55a80</title>
<path fill="none" stroke="black" d="M1728,-1584.39C1728,-1568.64 1728,-1547.6 1728,-1546.3"/>
</g>
<!-- COMMENT_8b37860+1 -->
<g id="node26" class="node">
<title>COMMENT_8b37860+1</title>
<polygon fill="none" stroke="black" points="1727.5,-1505.74 1566.5,-1505.74 1566.5,-1469.74 1733.5,-1469.74 1733.5,-1499.74 1727.5,-1505.74"/>
<polyline fill="none" stroke="black" points="1727.5,-1505.74 1727.5,-1499.74 "/>
<polyline fill="none" stroke="black" points="1733.5,-1499.74 1727.5,-1499.74 "/>
<text text-anchor="middle" x="1650" y="-1484.04" font-family="Times,serif" font-size="14.00">!OBST is not a HOLE</text>
</g>
<!-- beginIf_IF_8b55a80&#45;&gt;COMMENT_8b37860+1 -->
<g id="edge20" class="edge">
<title>beginIf_IF_8b55a80&#45;&gt;COMMENT_8b37860+1</title>
<path fill="none" stroke="black" d="M1727.94,-1544.7C1726.65,-1543.77 1703.25,-1526.97 1682.43,-1512.03"/>
<polygon fill="black" stroke="black" points="1684.2,-1508.99 1674.04,-1506 1680.12,-1514.67 1684.2,-1508.99"/>
</g>
<!-- COMMENT_8b36620+1 -->
<g id="node27" class="node">
<title>COMMENT_8b36620+1</title>
<polygon fill="none" stroke="black" points="2292.5,-1505.74 1795.5,-1505.74 1795.5,-1469.74 2298.5,-1469.74 2298.5,-1499.74 2292.5,-1505.74"/>
<polyline fill="none" stroke="black" points="2292.5,-1505.74 2292.5,-1499.74 "/>
<polyline fill="none" stroke="black" points="2298.5,-1499.74 2292.5,-1499.74 "/>
<text text-anchor="middle" x="2047" y="-1484.04" font-family="Times,serif" font-size="14.00">!OBST is a HOLE. &#160;CREATE/REMOVE also depends on parent OBST.</text>
</g>
<!-- beginIf_IF_8b55a80&#45;&gt;COMMENT_8b36620+1 -->
<g id="edge28" class="edge">
<title>beginIf_IF_8b55a80&#45;&gt;COMMENT_8b36620+1</title>
<path fill="none" stroke="black" d="M1728.06,-1544.73C1731.04,-1544.21 1848.56,-1523.58 1940.08,-1507.51"/>
<polygon fill="black" stroke="black" points="1940.73,-1510.95 1949.97,-1505.77 1939.52,-1504.06 1940.73,-1510.95"/>
</g>
<!-- endIf_IF_8b55a80 -->
<g id="node25" class="node">
<title>endIf_IF_8b55a80</title>
<ellipse fill="black" stroke="black" cx="1650" cy="-1198.38" rx="0.36" ry="0.36"/>
</g>
<!-- endIf_IF_8b55a80&#45;&gt;endIf_IF_8b55d40 -->
<g id="edge32" class="edge">
<title>endIf_IF_8b55a80&#45;&gt;endIf_IF_8b55d40</title>
<path fill="none" stroke="black" d="M1649.95,-1197.37C1647.95,-1197.03 1583.35,-1185.94 1531,-1182.02 1322.52,-1166.4 594.5,-1161.95 583.13,-1161.88"/>
</g>
<!-- COMMENT_8b37860+1&#45;&gt;endIf_IF_8b55a80 -->
<g id="edge21" class="edge">
<title>COMMENT_8b37860+1&#45;&gt;endIf_IF_8b55a80</title>
<path fill="none" stroke="black" d="M1650,-1469.53C1650,-1446.09 1650,-1402.81 1650,-1365.88 1650,-1365.88 1650,-1365.88 1650,-1288.88 1650,-1250.13 1650,-1202 1650,-1199.02"/>
</g>
<!-- beginIf_IF_8b55800 -->
<g id="node28" class="node">
<title>beginIf_IF_8b55800</title>
<ellipse fill="black" stroke="black" cx="2084" cy="-1422.38" rx="0.36" ry="0.36"/>
</g>
<!-- COMMENT_8b36620+1&#45;&gt;beginIf_IF_8b55800 -->
<g id="edge27" class="edge">
<title>COMMENT_8b36620+1&#45;&gt;beginIf_IF_8b55800</title>
<path fill="none" stroke="black" d="M2068.28,-1469.64C2072.84,-1464.96 2077.13,-1459.55 2080,-1453.74 2085.83,-1441.92 2084.12,-1424.51 2084.01,-1423.43"/>
</g>
<!-- COMMENT_8b34840+1 -->
<g id="node30" class="node">
<title>COMMENT_8b34840+1</title>
<polygon fill="none" stroke="black" points="2388.5,-1382.88 1773.5,-1382.88 1773.5,-1346.88 2394.5,-1346.88 2394.5,-1376.88 2388.5,-1382.88"/>
<polyline fill="none" stroke="black" points="2388.5,-1382.88 2388.5,-1376.88 "/>
<polyline fill="none" stroke="black" points="2394.5,-1376.88 2388.5,-1376.88 "/>
<text text-anchor="middle" x="2084" y="-1361.18" font-family="Times,serif" font-size="14.00">!Parent OBST controllable, check state and if parent OBST is hidden, do not fill hole.</text>
</g>
<!-- beginIf_IF_8b55800&#45;&gt;COMMENT_8b34840+1 -->
<g id="edge23" class="edge">
<title>beginIf_IF_8b55800&#45;&gt;COMMENT_8b34840+1</title>
<path fill="none" stroke="black" d="M2084,-1421.72C2084,-1420.09 2084,-1406.4 2084,-1392.98"/>
<polygon fill="black" stroke="black" points="2087.5,-1392.98 2084,-1382.98 2080.5,-1392.98 2087.5,-1392.98"/>
</g>
<!-- COMMENT_8b4f4a0+1 -->
<g id="node32" class="node">
<title>COMMENT_8b4f4a0+1</title>
<polygon fill="none" stroke="black" points="2805,-1307.88 2419,-1307.88 2419,-1271.88 2811,-1271.88 2811,-1301.88 2805,-1307.88"/>
<polyline fill="none" stroke="black" points="2805,-1307.88 2805,-1301.88 "/>
<polyline fill="none" stroke="black" points="2811,-1301.88 2805,-1301.88 "/>
<text text-anchor="middle" x="2615" y="-1286.18" font-family="Times,serif" font-size="14.00">!Parent OBST not controllable and is always present</text>
</g>
<!-- beginIf_IF_8b55800&#45;&gt;COMMENT_8b4f4a0+1 -->
<g id="edge25" class="edge">
<title>beginIf_IF_8b55800&#45;&gt;COMMENT_8b4f4a0+1</title>
<path fill="none" stroke="black" d="M2084.05,-1421.88C2088.49,-1421.91 2372.76,-1423.7 2407,-1413.88 2477.29,-1393.71 2548.3,-1343.98 2586.45,-1314.3"/>
<polygon fill="black" stroke="black" points="2588.85,-1316.87 2594.53,-1307.93 2584.51,-1311.37 2588.85,-1316.87"/>
</g>
<!-- endIf_IF_8b55800 -->
<g id="node29" class="node">
<title>endIf_IF_8b55800</title>
<ellipse fill="black" stroke="black" cx="2084" cy="-1235.38" rx="0.36" ry="0.36"/>
</g>
<!-- endIf_IF_8b55800&#45;&gt;endIf_IF_8b55a80 -->
<g id="edge29" class="edge">
<title>endIf_IF_8b55800&#45;&gt;endIf_IF_8b55a80</title>
<path fill="none" stroke="black" d="M2084.02,-1234.26C2084.16,-1233.04 2085.14,-1223.19 2080,-1219.02 2061.57,-1204.07 1656.4,-1198.96 1650.07,-1198.88"/>
</g>
<!-- COMMENT_8b3c2c0+1 -->
<g id="node31" class="node">
<title>COMMENT_8b3c2c0+1</title>
<polygon fill="none" stroke="black" points="2317,-1307.88 1845,-1307.88 1845,-1271.88 2323,-1271.88 2323,-1301.88 2317,-1307.88"/>
<polyline fill="none" stroke="black" points="2317,-1307.88 2317,-1301.88 "/>
<polyline fill="none" stroke="black" points="2323,-1301.88 2317,-1301.88 "/>
<text text-anchor="middle" x="2084" y="-1286.18" font-family="Times,serif" font-size="14.00">!If parent OBST is visible, check to see if hole needs to be made.</text>
</g>
<!-- COMMENT_8b34840+1&#45;&gt;COMMENT_8b3c2c0+1 -->
<g id="edge22" class="edge">
<title>COMMENT_8b34840+1&#45;&gt;COMMENT_8b3c2c0+1</title>
<path fill="none" stroke="black" d="M2084,-1346.58C2084,-1338.13 2084,-1327.75 2084,-1318.25"/>
<polygon fill="black" stroke="black" points="2087.5,-1318.06 2084,-1308.06 2080.5,-1318.06 2087.5,-1318.06"/>
</g>
<!-- COMMENT_8b3c2c0+1&#45;&gt;endIf_IF_8b55800 -->
<g id="edge24" class="edge">
<title>COMMENT_8b3c2c0+1&#45;&gt;endIf_IF_8b55800</title>
<path fill="none" stroke="black" d="M2084,-1271.82C2084,-1256.81 2084,-1237.15 2084,-1235.94"/>
</g>
<!-- COMMENT_8b4f4a0+1&#45;&gt;endIf_IF_8b55800 -->
<g id="edge26" class="edge">
<title>COMMENT_8b4f4a0+1&#45;&gt;endIf_IF_8b55800</title>
<path fill="none" stroke="black" d="M2478.85,-1271.86C2454.92,-1269.06 2430.24,-1266.28 2407,-1263.88 2265.91,-1249.29 2089.61,-1236.29 2084.13,-1235.89"/>
</g>
<!-- CALL_8b60480 -->
<g id="node34" class="node">
<title>CALL_8b60480</title>
<g id="a_node34"><a xlink:href="CREATE_OR_REMOVE_OBST.svg" xlink:title="CREATE_OR_REMOVE_OBST">
<polygon fill="lightgray" stroke="black" points="665,-1016.16 439,-1016.16 439,-1012.16 435,-1012.16 435,-1008.16 439,-1008.16 439,-988.16 435,-988.16 435,-984.16 439,-984.16 439,-980.16 665,-980.16 665,-1016.16"/>
<polyline fill="none" stroke="black" points="439,-1012.16 443,-1012.16 443,-1008.16 439,-1008.16 "/>
<polyline fill="none" stroke="black" points="439,-988.16 443,-988.16 443,-984.16 439,-984.16 "/>
<text text-anchor="middle" x="552" y="-994.46" font-family="Times,serif" font-size="14.00">CREATE_OR_REMOVE_OBST</text>
</a>
</g>
</g>
<!-- CALL_8b5a6a0&#45;&gt;CALL_8b60480 -->
<g id="edge37" class="edge">
<title>CALL_8b5a6a0&#45;&gt;CALL_8b60480</title>
<path fill="none" stroke="black" d="M552,-1051.86C552,-1044.14 552,-1034.87 552,-1026.27"/>
<polygon fill="black" stroke="black" points="555.5,-1026.26 552,-1016.26 548.5,-1026.26 555.5,-1026.26"/>
</g>
<!-- COMMENT_8b517e0+1 -->
<g id="node35" class="node">
<title>COMMENT_8b517e0+1</title>
<polygon fill="none" stroke="black" points="892,-944.16 206,-944.16 206,-908.16 898,-908.16 898,-938.16 892,-944.16"/>
<polyline fill="none" stroke="black" points="892,-944.16 892,-938.16 "/>
<polyline fill="none" stroke="black" points="898,-938.16 892,-938.16 "/>
<text text-anchor="middle" x="552" y="-922.46" font-family="Times,serif" font-size="14.00">Write a message to the Smokeview .smv file that the obstruction has been created or removed</text>
</g>
<!-- CALL_8b60480&#45;&gt;COMMENT_8b517e0+1 -->
<g id="edge38" class="edge">
<title>CALL_8b60480&#45;&gt;COMMENT_8b517e0+1</title>
<path fill="none" stroke="black" d="M552,-979.86C552,-972.14 552,-962.87 552,-954.27"/>
<polygon fill="black" stroke="black" points="555.5,-954.26 552,-944.26 548.5,-954.26 555.5,-954.26"/>
</g>
<!-- CALL_8b1f720 -->
<g id="node36" class="node">
<title>CALL_8b1f720</title>
<g id="a_node36"><a xlink:href="RE_ALLOCATE_STRINGS.svg" xlink:title="RE_ALLOCATE_STRINGS">
<polygon fill="lightgray" stroke="black" points="650.5,-872.16 453.5,-872.16 453.5,-868.16 449.5,-868.16 449.5,-864.16 453.5,-864.16 453.5,-844.16 449.5,-844.16 449.5,-840.16 453.5,-840.16 453.5,-836.16 650.5,-836.16 650.5,-872.16"/>
<polyline fill="none" stroke="black" points="453.5,-868.16 457.5,-868.16 457.5,-864.16 453.5,-864.16 "/>
<polyline fill="none" stroke="black" points="453.5,-844.16 457.5,-844.16 457.5,-840.16 453.5,-840.16 "/>
<text text-anchor="middle" x="552" y="-850.46" font-family="Times,serif" font-size="14.00">RE_ALLOCATE_STRINGS</text>
</a>
</g>
</g>
<!-- COMMENT_8b517e0+1&#45;&gt;CALL_8b1f720 -->
<g id="edge39" class="edge">
<title>COMMENT_8b517e0+1&#45;&gt;CALL_8b1f720</title>
<path fill="none" stroke="black" d="M552,-907.86C552,-900.14 552,-890.87 552,-882.27"/>
<polygon fill="black" stroke="black" points="555.5,-882.26 552,-872.26 548.5,-882.26 555.5,-882.26"/>
</g>
<!-- COMMENT_8b60f40+1 -->
<g id="node37" class="node">
<title>COMMENT_8b60f40+1</title>
<polygon fill="none" stroke="black" points="654.5,-800.16 443.5,-800.16 443.5,-764.16 660.5,-764.16 660.5,-794.16 654.5,-800.16"/>
<polyline fill="none" stroke="black" points="654.5,-800.16 654.5,-794.16 "/>
<polyline fill="none" stroke="black" points="660.5,-794.16 654.5,-794.16 "/>
<text text-anchor="middle" x="552" y="-778.46" font-family="Times,serif" font-size="14.00">If any REMOVE_OBST store</text>
</g>
<!-- CALL_8b1f720&#45;&gt;COMMENT_8b60f40+1 -->
<g id="edge40" class="edge">
<title>CALL_8b1f720&#45;&gt;COMMENT_8b60f40+1</title>
<path fill="none" stroke="black" d="M552,-835.86C552,-828.14 552,-818.87 552,-810.27"/>
<polygon fill="black" stroke="black" points="555.5,-810.26 552,-800.26 548.5,-810.26 555.5,-810.26"/>
</g>
<!-- COMMENT_8b60f40+1&#45;&gt;endDO_DO_8b610a0 -->
<g id="edge42" class="edge">
<title>COMMENT_8b60f40+1&#45;&gt;endDO_DO_8b610a0</title>
<path fill="none" stroke="black" d="M552,-764.1C552,-749.09 552,-729.43 552,-728.22"/>
</g>
<!-- COMMENT_8b671e0+1 -->
<g id="node39" class="node">
<title>COMMENT_8b671e0+1</title>
<polygon fill="none" stroke="black" points="623,-619.44 475,-619.44 475,-583.44 629,-583.44 629,-613.44 623,-619.44"/>
<polyline fill="none" stroke="black" points="623,-619.44 623,-613.44 "/>
<polyline fill="none" stroke="black" points="629,-613.44 623,-613.44 "/>
<text text-anchor="middle" x="552" y="-597.74" font-family="Times,serif" font-size="14.00">CVENT_INDEX = 0</text>
</g>
<!-- COMMENT_8b645c0+1&#45;&gt;COMMENT_8b671e0+1 -->
<g id="edge44" class="edge">
<title>COMMENT_8b645c0+1&#45;&gt;COMMENT_8b671e0+1</title>
<path fill="none" stroke="black" d="M552,-655.14C552,-647.42 552,-638.15 552,-629.55"/>
<polygon fill="black" stroke="black" points="555.5,-629.54 552,-619.54 548.5,-629.54 555.5,-629.54"/>
</g>
<!-- beginDO_DO_8b97b60 -->
<g id="node40" class="node">
<title>beginDO_DO_8b97b60</title>
<ellipse fill="black" stroke="black" cx="552" cy="-544.08" rx="0.36" ry="0.36"/>
</g>
<!-- COMMENT_8b671e0+1&#45;&gt;beginDO_DO_8b97b60 -->
<g id="edge51" class="edge">
<title>COMMENT_8b671e0+1&#45;&gt;beginDO_DO_8b97b60</title>
<path fill="none" stroke="black" d="M552,-583.23C552,-567.48 552,-546.44 552,-545.14"/>
</g>
<!-- COMMENT_8b6bce0+1 -->
<g id="node42" class="node">
<title>COMMENT_8b6bce0+1</title>
<polygon fill="none" stroke="black" points="677.5,-507.72 420.5,-507.72 420.5,-471.72 683.5,-471.72 683.5,-501.72 677.5,-507.72"/>
<polyline fill="none" stroke="black" points="677.5,-507.72 677.5,-501.72 "/>
<polyline fill="none" stroke="black" points="683.5,-501.72 677.5,-501.72 "/>
<text text-anchor="middle" x="552" y="-486.02" font-family="Times,serif" font-size="14.00">Over&#45;ride DEVICE/CONTROL logic</text>
</g>
<!-- beginDO_DO_8b97b60&#45;&gt;COMMENT_8b6bce0+1 -->
<g id="edge45" class="edge">
<title>beginDO_DO_8b97b60&#45;&gt;COMMENT_8b6bce0+1</title>
<path fill="none" stroke="black" d="M552,-543.57C552,-542.09 552,-530.04 552,-517.82"/>
<polygon fill="black" stroke="black" points="555.5,-517.74 552,-507.74 548.5,-517.74 555.5,-517.74"/>
</g>
<!-- endDO_DO_8b97b60 -->
<g id="node41" class="node">
<title>endDO_DO_8b97b60</title>
<ellipse fill="black" stroke="black" cx="552" cy="-73.36" rx="0.36" ry="0.36"/>
</g>
<!-- end_SUBPROGRAM_8b64840 -->
<g id="node48" class="node">
<title>end_SUBPROGRAM_8b64840</title>
<ellipse fill="black" stroke="black" cx="552" cy="-30" rx="7" ry="7"/>
</g>
<!-- endDO_DO_8b97b60&#45;&gt;end_SUBPROGRAM_8b64840 -->
<g id="edge53" class="edge">
<title>endDO_DO_8b97b60&#45;&gt;end_SUBPROGRAM_8b64840</title>
<path fill="none" stroke="black" d="M552,-72.24C552,-70.89 552,-58.27 552,-47.34"/>
<polygon fill="black" stroke="black" points="555.5,-47.1 552,-37.1 548.5,-47.1 555.5,-47.1"/>
</g>
<!-- COMMENT_8b6ca60+1 -->
<g id="node43" class="node">
<title>COMMENT_8b6ca60+1</title>
<polygon fill="none" stroke="black" points="989.5,-435.72 108.5,-435.72 108.5,-397.72 995.5,-397.72 995.5,-429.72 989.5,-435.72"/>
<polyline fill="none" stroke="black" points="989.5,-435.72 989.5,-429.72 "/>
<polyline fill="none" stroke="black" points="995.5,-429.72 989.5,-429.72 "/>
<text text-anchor="middle" x="552" y="-420.52" font-family="Times,serif" font-size="14.00">If the VENT is tied to a specific OBST, and the OBST is HIDDEN (not HIDDEN), and the VENT is activated (not activated),</text>
<text text-anchor="middle" x="552" y="-405.52" font-family="Times,serif" font-size="14.00">deactivate (activate) the vent.</text>
</g>
<!-- COMMENT_8b6bce0+1&#45;&gt;COMMENT_8b6ca60+1 -->
<g id="edge46" class="edge">
<title>COMMENT_8b6bce0+1&#45;&gt;COMMENT_8b6ca60+1</title>
<path fill="none" stroke="black" d="M552,-471.53C552,-463.83 552,-454.54 552,-445.87"/>
<polygon fill="black" stroke="black" points="555.5,-445.74 552,-435.74 548.5,-445.74 555.5,-445.74"/>
</g>
<!-- COMMENT_8b5a220+1 -->
<g id="node44" class="node">
<title>COMMENT_8b5a220+1</title>
<polygon fill="none" stroke="black" points="850,-361.72 248,-361.72 248,-325.72 856,-325.72 856,-355.72 850,-361.72"/>
<polyline fill="none" stroke="black" points="850,-361.72 850,-355.72 "/>
<polyline fill="none" stroke="black" points="856,-355.72 850,-355.72 "/>
<text text-anchor="middle" x="552" y="-340.02" font-family="Times,serif" font-size="14.00">Decide if a VENT is to activate or de&#45;activate based on a DEVICE or CONTROLLER</text>
</g>
<!-- COMMENT_8b6ca60+1&#45;&gt;COMMENT_8b5a220+1 -->
<g id="edge47" class="edge">
<title>COMMENT_8b6ca60+1&#45;&gt;COMMENT_8b5a220+1</title>
<path fill="none" stroke="black" d="M552,-397.44C552,-389.69 552,-380.51 552,-371.99"/>
<polygon fill="black" stroke="black" points="555.5,-371.72 552,-361.72 548.5,-371.72 555.5,-371.72"/>
</g>
<!-- COMMENT_8b78260+1 -->
<g id="node45" class="node">
<title>COMMENT_8b78260+1</title>
<polygon fill="none" stroke="black" points="880.5,-289.72 217.5,-289.72 217.5,-253.72 886.5,-253.72 886.5,-283.72 880.5,-289.72"/>
<polyline fill="none" stroke="black" points="880.5,-289.72 880.5,-283.72 "/>
<polyline fill="none" stroke="black" points="886.5,-283.72 880.5,-283.72 "/>
<text text-anchor="middle" x="552" y="-268.02" font-family="Times,serif" font-size="14.00">Find the wall indices (IW) for the vent and set the activation time (B1%T_IGN) for each one</text>
</g>
<!-- COMMENT_8b5a220+1&#45;&gt;COMMENT_8b78260+1 -->
<g id="edge48" class="edge">
<title>COMMENT_8b5a220+1&#45;&gt;COMMENT_8b78260+1</title>
<path fill="none" stroke="black" d="M552,-325.42C552,-317.7 552,-308.43 552,-299.83"/>
<polygon fill="black" stroke="black" points="555.5,-299.82 552,-289.82 548.5,-299.82 555.5,-299.82"/>
</g>
<!-- COMMENT_8b8fce0+1 -->
<g id="node46" class="node">
<title>COMMENT_8b8fce0+1</title>
<polygon fill="none" stroke="black" points="649,-217.72 449,-217.72 449,-181.72 655,-181.72 655,-211.72 649,-217.72"/>
<polyline fill="none" stroke="black" points="649,-217.72 649,-211.72 "/>
<polyline fill="none" stroke="black" points="655,-211.72 649,-211.72 "/>
<text text-anchor="middle" x="552" y="-196.02" font-family="Times,serif" font-size="14.00">Write message to .smv file</text>
</g>
<!-- COMMENT_8b78260+1&#45;&gt;COMMENT_8b8fce0+1 -->
<g id="edge49" class="edge">
<title>COMMENT_8b78260+1&#45;&gt;COMMENT_8b8fce0+1</title>
<path fill="none" stroke="black" d="M552,-253.42C552,-245.7 552,-236.43 552,-227.83"/>
<polygon fill="black" stroke="black" points="555.5,-227.82 552,-217.82 548.5,-227.82 555.5,-227.82"/>
</g>
<!-- CALL_8b90200 -->
<g id="node47" class="node">
<title>CALL_8b90200</title>
<g id="a_node47"><a xlink:href="RE_ALLOCATE_STRINGS.svg" xlink:title="RE_ALLOCATE_STRINGS">
<polygon fill="lightgray" stroke="black" points="650.5,-145.72 453.5,-145.72 453.5,-141.72 449.5,-141.72 449.5,-137.72 453.5,-137.72 453.5,-117.72 449.5,-117.72 449.5,-113.72 453.5,-113.72 453.5,-109.72 650.5,-109.72 650.5,-145.72"/>
<polyline fill="none" stroke="black" points="453.5,-141.72 457.5,-141.72 457.5,-137.72 453.5,-137.72 "/>
<polyline fill="none" stroke="black" points="453.5,-117.72 457.5,-117.72 457.5,-113.72 453.5,-113.72 "/>
<text text-anchor="middle" x="552" y="-124.02" font-family="Times,serif" font-size="14.00">RE_ALLOCATE_STRINGS</text>
</a>
</g>
</g>
<!-- COMMENT_8b8fce0+1&#45;&gt;CALL_8b90200 -->
<g id="edge50" class="edge">
<title>COMMENT_8b8fce0+1&#45;&gt;CALL_8b90200</title>
<path fill="none" stroke="black" d="M552,-181.42C552,-173.7 552,-164.43 552,-155.83"/>
<polygon fill="black" stroke="black" points="555.5,-155.82 552,-145.82 548.5,-155.82 555.5,-155.82"/>
</g>
<!-- CALL_8b90200&#45;&gt;endDO_DO_8b97b60 -->
<g id="edge52" class="edge">
<title>CALL_8b90200&#45;&gt;endDO_DO_8b97b60</title>
<path fill="none" stroke="black" d="M552,-109.66C552,-94.65 552,-74.99 552,-73.78"/>
</g>
</g>
</svg>
