<?xml version="1.0" encoding="UTF-8" standalone="no"?>
<!DOCTYPE svg PUBLIC "-//W3C//DTD SVG 1.1//EN"
 "http://www.w3.org/Graphics/SVG/1.1/DTD/svg11.dtd">
<!-- Generated by graphviz version 2.43.0 (0)
 -->
<!-- Title: OPEN_AND_CLOSE Pages: 1 -->
<svg width="2900pt" height="2162pt"
 viewBox="0.00 0.00 2900.00 2162.40" xmlns="http://www.w3.org/2000/svg" xmlns:xlink="http://www.w3.org/1999/xlink">
<g id="graph0" class="graph" transform="scale(1 1) rotate(0) translate(4 2158.4)">
<title>OPEN_AND_CLOSE</title>
<polygon fill="white" stroke="transparent" points="-4,4 -4,-2158.4 2896,-2158.4 2896,4 -4,4"/>
<text text-anchor="middle" x="1446" y="-7.8" font-family="Times,serif" font-size="14.00">OPEN_AND_CLOSE</text>
<g id="clust1" class="cluster">
<title>cluster_OBST_LOOP</title>
<polygon fill="none" stroke="orange" points="162,-719.44 162,-1899.4 2884,-1899.4 2884,-719.44 162,-719.44"/>
<text text-anchor="middle" x="214.5" y="-1884.2" font-family="Times,serif" font-size="14.00">OBST_LOOP</text>
</g>
<g id="clust2" class="cluster">
<title>cluster_CREATE_REMOVE_IF</title>
<polygon fill="none" stroke="blue" points="170,-1116.16 170,-1787.68 2876,-1787.68 2876,-1116.16 170,-1116.16"/>
<text text-anchor="middle" x="256" y="-1772.48" font-family="Times,serif" font-size="14.00">CREATE_REMOVE_IF</text>
</g>
<g id="clust3" class="cluster">
<title>cluster_cond8d20160</title>
<polygon fill="none" stroke="black" points="178,-1659.6 178,-1734.6 368,-1734.6 368,-1659.6 178,-1659.6"/>
<text text-anchor="middle" x="234.5" y="-1719.4" font-family="Times,serif" font-size="14.00">cond8d20160</text>
</g>
<g id="clust4" class="cluster">
<title>cluster_cond8d4dd00</title>
<polygon fill="none" stroke="black" points="376,-1145.02 376,-1747.96 2868,-1747.96 2868,-1145.02 376,-1145.02"/>
<text text-anchor="middle" x="432.5" y="-1732.76" font-family="Times,serif" font-size="14.00">cond8d4dd00</text>
</g>
<g id="clust5" class="cluster">
<title>cluster_SET_T_BEGIN_IF</title>
<polygon fill="none" stroke="blue" points="384,-1153.02 384,-1716.96 2860,-1716.96 2860,-1153.02 384,-1153.02"/>
<text text-anchor="middle" x="454" y="-1701.76" font-family="Times,serif" font-size="14.00">SET_T_BEGIN_IF</text>
</g>
<g id="clust6" class="cluster">
<title>cluster_cond8d2f780</title>
<polygon fill="none" stroke="black" points="392,-1182.02 392,-1651.6 1536,-1651.6 1536,-1182.02 392,-1182.02"/>
<text text-anchor="middle" x="447" y="-1636.4" font-family="Times,serif" font-size="14.00">cond8d2f780</text>
</g>
<g id="clust7" class="cluster">
<title>cluster_HOLE_FILL_IF</title>
<polygon fill="none" stroke="blue" points="400,-1190.02 400,-1576.6 1528,-1576.6 1528,-1190.02 400,-1190.02"/>
<text text-anchor="middle" x="460.5" y="-1561.4" font-family="Times,serif" font-size="14.00">HOLE_FILL_IF</text>
</g>
<g id="clust8" class="cluster">
<title>cluster_cond8d242a0</title>
<polygon fill="none" stroke="black" points="408,-1461.74 408,-1536.74 590,-1536.74 590,-1461.74 408,-1461.74"/>
<text text-anchor="middle" x="464.5" y="-1521.54" font-family="Times,serif" font-size="14.00">cond8d242a0</text>
</g>
<g id="clust9" class="cluster">
<title>cluster_cond8d2f540</title>
<polygon fill="none" stroke="black" points="598,-1219.02 598,-1536.74 1520,-1536.74 1520,-1219.02 598,-1219.02"/>
<text text-anchor="middle" x="653" y="-1521.54" font-family="Times,serif" font-size="14.00">cond8d2f540</text>
</g>
<g id="clust10" class="cluster">
<title>cluster_CHECK_PARENT</title>
<polygon fill="none" stroke="blue" points="606,-1227.02 606,-1453.74 1512,-1453.74 1512,-1227.02 606,-1227.02"/>
<text text-anchor="middle" x="674.5" y="-1438.54" font-family="Times,serif" font-size="14.00">CHECK_PARENT</text>
</g>
<g id="clust11" class="cluster">
<title>cluster_cond8d2b9a0</title>
<polygon fill="none" stroke="black" points="614,-1263.88 614,-1413.88 1252,-1413.88 1252,-1263.88 614,-1263.88"/>
<text text-anchor="middle" x="670.5" y="-1398.68" font-family="Times,serif" font-size="14.00">cond8d2b9a0</text>
</g>
<g id="clust12" class="cluster">
<title>cluster_cond8d2e380</title>
<polygon fill="none" stroke="black" points="1260,-1263.88 1260,-1338.88 1504,-1338.88 1504,-1263.88 1260,-1263.88"/>
<text text-anchor="middle" x="1316.5" y="-1323.68" font-family="Times,serif" font-size="14.00">cond8d2e380</text>
</g>
<g id="clust13" class="cluster">
<title>cluster_cond8d4dac0</title>
<polygon fill="none" stroke="black" points="1544,-1182.02 1544,-1651.6 2852,-1651.6 2852,-1182.02 1544,-1182.02"/>
<text text-anchor="middle" x="1599.5" y="-1636.4" font-family="Times,serif" font-size="14.00">cond8d4dac0</text>
</g>
<g id="clust14" class="cluster">
<title>cluster_HOLE_FILL_IF_2</title>
<polygon fill="none" stroke="blue" points="1552,-1190.02 1552,-1576.6 2844,-1576.6 2844,-1190.02 1552,-1190.02"/>
<text text-anchor="middle" x="1620.5" y="-1561.4" font-family="Times,serif" font-size="14.00">HOLE_FILL_IF_2</text>
</g>
<g id="clust15" class="cluster">
<title>cluster_cond8d35780</title>
<polygon fill="none" stroke="black" points="1560,-1461.74 1560,-1536.74 1742,-1536.74 1742,-1461.74 1560,-1461.74"/>
<text text-anchor="middle" x="1616.5" y="-1521.54" font-family="Times,serif" font-size="14.00">cond8d35780</text>
</g>
<g id="clust16" class="cluster">
<title>cluster_cond8d4d840</title>
<polygon fill="none" stroke="black" points="1750,-1219.02 1750,-1536.74 2836,-1536.74 2836,-1219.02 1750,-1219.02"/>
<text text-anchor="middle" x="1806.5" y="-1521.54" font-family="Times,serif" font-size="14.00">cond8d4d840</text>
</g>
<g id="clust17" class="cluster">
<title>cluster_CHECK_PARENT_2</title>
<polygon fill="none" stroke="blue" points="1758,-1227.02 1758,-1453.74 2828,-1453.74 2828,-1227.02 1758,-1227.02"/>
<text text-anchor="middle" x="1834.5" y="-1438.54" font-family="Times,serif" font-size="14.00">CHECK_PARENT_2</text>
</g>
<g id="clust18" class="cluster">
<title>cluster_cond8d47da0</title>
<polygon fill="none" stroke="black" points="1766,-1263.88 1766,-1413.88 2404,-1413.88 2404,-1263.88 1766,-1263.88"/>
<text text-anchor="middle" x="1822.5" y="-1398.68" font-family="Times,serif" font-size="14.00">cond8d47da0</text>
</g>
<g id="clust19" class="cluster">
<title>cluster_cond8d4d600</title>
<polygon fill="none" stroke="black" points="2412,-1263.88 2412,-1338.88 2820,-1338.88 2820,-1263.88 2412,-1263.88"/>
<text text-anchor="middle" x="2468.5" y="-1323.68" font-family="Times,serif" font-size="14.00">cond8d4d600</text>
</g>
<g id="clust20" class="cluster">
<title>cluster_VENT_LOOP</title>
<polygon fill="none" stroke="orange" points="100,-65 100,-575.44 1004,-575.44 1004,-65 100,-65"/>
<text text-anchor="middle" x="153" y="-560.24" font-family="Times,serif" font-size="14.00">VENT_LOOP</text>
</g>
<!-- start_SUBPROGRAM_8d91340 -->
<g id="node1" class="node">
<title>start_SUBPROGRAM_8d91340</title>
<ellipse fill="none" stroke="black" cx="400" cy="-2147.4" rx="7" ry="7"/>
</g>
<!-- COMMENT_8d175c0+1 -->
<g id="node2" class="node">
<title>COMMENT_8d175c0+1</title>
<polygon fill="none" stroke="black" points="794,-2104.4 0,-2104.4 0,-2051.4 800,-2051.4 800,-2098.4 794,-2104.4"/>
<polyline fill="none" stroke="black" points="794,-2104.4 794,-2098.4 "/>
<polyline fill="none" stroke="black" points="800,-2098.4 794,-2098.4 "/>
<text text-anchor="middle" x="400" y="-2089.2" font-family="Times,serif" font-size="14.00">!&gt; brief Check to see if a cell or OBSTruction is to be created or removed, or a VENT activated of deactivated</text>
<text text-anchor="middle" x="400" y="-2074.2" font-family="Times,serif" font-size="14.00">!&gt; param T Current time (s)</text>
<text text-anchor="middle" x="400" y="-2059.2" font-family="Times,serif" font-size="14.00">!&gt; param NM Mesh number</text>
</g>
<!-- start_SUBPROGRAM_8d91340&#45;&gt;COMMENT_8d175c0+1 -->
<g id="edge1" class="edge">
<title>start_SUBPROGRAM_8d91340&#45;&gt;COMMENT_8d175c0+1</title>
<path fill="none" stroke="black" d="M400,-2140.17C400,-2134.16 400,-2124.56 400,-2114.72"/>
<polygon fill="black" stroke="black" points="403.5,-2114.52 400,-2104.52 396.5,-2114.52 403.5,-2114.52"/>
</g>
<!-- CALL_8d06640 -->
<g id="node3" class="node">
<title>CALL_8d06640</title>
<g id="a_node3"><a xlink:href="POINT_TO_MESH.svg" xlink:title="POINT_TO_MESH">
<polygon fill="lightgray" stroke="black" points="472,-2015.4 328,-2015.4 328,-2011.4 324,-2011.4 324,-2007.4 328,-2007.4 328,-1987.4 324,-1987.4 324,-1983.4 328,-1983.4 328,-1979.4 472,-1979.4 472,-2015.4"/>
<polyline fill="none" stroke="black" points="328,-2011.4 332,-2011.4 332,-2007.4 328,-2007.4 "/>
<polyline fill="none" stroke="black" points="328,-1987.4 332,-1987.4 332,-1983.4 328,-1983.4 "/>
<text text-anchor="middle" x="400" y="-1993.7" font-family="Times,serif" font-size="14.00">POINT_TO_MESH</text>
</a>
</g>
</g>
<!-- COMMENT_8d175c0+1&#45;&gt;CALL_8d06640 -->
<g id="edge2" class="edge">
<title>COMMENT_8d175c0+1&#45;&gt;CALL_8d06640</title>
<path fill="none" stroke="black" d="M400,-2051.2C400,-2043.11 400,-2034.16 400,-2025.95"/>
<polygon fill="black" stroke="black" points="403.5,-2025.73 400,-2015.73 396.5,-2025.73 403.5,-2025.73"/>
</g>
<!-- COMMENT_8d1b4e0+1 -->
<g id="node4" class="node">
<title>COMMENT_8d1b4e0+1</title>
<polygon fill="none" stroke="black" points="598.5,-1943.4 195.5,-1943.4 195.5,-1907.4 604.5,-1907.4 604.5,-1937.4 598.5,-1943.4"/>
<polyline fill="none" stroke="black" points="598.5,-1943.4 598.5,-1937.4 "/>
<polyline fill="none" stroke="black" points="604.5,-1937.4 598.5,-1937.4 "/>
<text text-anchor="middle" x="400" y="-1921.7" font-family="Times,serif" font-size="14.00">Check to see if an obstacle is to be removed or created</text>
</g>
<!-- CALL_8d06640&#45;&gt;COMMENT_8d1b4e0+1 -->
<g id="edge3" class="edge">
<title>CALL_8d06640&#45;&gt;COMMENT_8d1b4e0+1</title>
<path fill="none" stroke="black" d="M400,-1979.1C400,-1971.38 400,-1962.11 400,-1953.51"/>
<polygon fill="black" stroke="black" points="403.5,-1953.5 400,-1943.5 396.5,-1953.5 403.5,-1953.5"/>
</g>
<!-- beginDO_DO_8d595a0 -->
<g id="node5" class="node">
<title>beginDO_DO_8d595a0</title>
<ellipse fill="black" stroke="black" cx="400" cy="-1868.04" rx="0.36" ry="0.36"/>
</g>
<!-- COMMENT_8d1b4e0+1&#45;&gt;beginDO_DO_8d595a0 -->
<g id="edge41" class="edge">
<title>COMMENT_8d1b4e0+1&#45;&gt;beginDO_DO_8d595a0</title>
<path fill="none" stroke="black" d="M400,-1907.19C400,-1891.44 400,-1870.4 400,-1869.1"/>
</g>
<!-- COMMENT_8d1ee60+1 -->
<g id="node7" class="node">
<title>COMMENT_8d1ee60+1</title>
<polygon fill="none" stroke="black" points="525.5,-1831.68 268.5,-1831.68 268.5,-1795.68 531.5,-1795.68 531.5,-1825.68 525.5,-1831.68"/>
<polyline fill="none" stroke="black" points="525.5,-1831.68 525.5,-1825.68 "/>
<polyline fill="none" stroke="black" points="531.5,-1825.68 525.5,-1825.68 "/>
<text text-anchor="middle" x="400" y="-1809.98" font-family="Times,serif" font-size="14.00">Over&#45;ride DEVICE/CONTROL logic</text>
</g>
<!-- beginDO_DO_8d595a0&#45;&gt;COMMENT_8d1ee60+1 -->
<g id="edge4" class="edge">
<title>beginDO_DO_8d595a0&#45;&gt;COMMENT_8d1ee60+1</title>
<path fill="none" stroke="black" d="M400,-1867.53C400,-1866.05 400,-1854 400,-1841.78"/>
<polygon fill="black" stroke="black" points="403.5,-1841.7 400,-1831.7 396.5,-1841.7 403.5,-1841.7"/>
</g>
<!-- endDO_DO_8d595a0 -->
<g id="node6" class="node">
<title>endDO_DO_8d595a0</title>
<ellipse fill="black" stroke="black" cx="552" cy="-727.8" rx="0.36" ry="0.36"/>
</g>
<!-- COMMENT_8d4df80+1 -->
<g id="node38" class="node">
<title>COMMENT_8d4df80+1</title>
<polygon fill="none" stroke="black" points="757,-691.44 341,-691.44 341,-655.44 763,-655.44 763,-685.44 757,-691.44"/>
<polyline fill="none" stroke="black" points="757,-691.44 757,-685.44 "/>
<polyline fill="none" stroke="black" points="763,-685.44 757,-685.44 "/>
<text text-anchor="middle" x="552" y="-669.74" font-family="Times,serif" font-size="14.00">Check to see if a vent should be activated or deactivated</text>
</g>
<!-- endDO_DO_8d595a0&#45;&gt;COMMENT_8d4df80+1 -->
<g id="edge43" class="edge">
<title>endDO_DO_8d595a0&#45;&gt;COMMENT_8d4df80+1</title>
<path fill="none" stroke="black" d="M552,-726.65C552,-725.21 552,-713.67 552,-701.8"/>
<polygon fill="black" stroke="black" points="555.5,-701.54 552,-691.54 548.5,-701.54 555.5,-701.54"/>
</g>
<!-- beginIf_IF_8d4de40 -->
<g id="node8" class="node">
<title>beginIf_IF_8d4de40</title>
<ellipse fill="black" stroke="black" cx="400" cy="-1756.32" rx="0.36" ry="0.36"/>
</g>
<!-- COMMENT_8d1ee60+1&#45;&gt;beginIf_IF_8d4de40 -->
<g id="edge35" class="edge">
<title>COMMENT_8d1ee60+1&#45;&gt;beginIf_IF_8d4de40</title>
<path fill="none" stroke="black" d="M400,-1795.47C400,-1779.72 400,-1758.68 400,-1757.38"/>
</g>
<!-- Empty_8d20160 -->
<g id="node10" class="node">
<title>Empty_8d20160</title>
<ellipse fill="none" stroke="black" cx="273" cy="-1685.6" rx="87.18" ry="18"/>
<text text-anchor="middle" x="273" y="-1681.9" font-family="Times,serif" font-size="14.00">Empty_8d20160</text>
</g>
<!-- beginIf_IF_8d4de40&#45;&gt;Empty_8d20160 -->
<g id="edge5" class="edge">
<title>beginIf_IF_8d4de40&#45;&gt;Empty_8d20160</title>
<path fill="none" stroke="black" d="M399.87,-1755.92C398.59,-1755.48 388.08,-1751.87 380,-1747.96 355.32,-1736.02 328.55,-1720.67 307.97,-1708.31"/>
<polygon fill="black" stroke="black" points="309.63,-1705.23 299.26,-1703.04 306.01,-1711.22 309.63,-1705.23"/>
</g>
<!-- beginIf_IF_8d4dc00 -->
<g id="node11" class="node">
<title>beginIf_IF_8d4dc00</title>
<ellipse fill="black" stroke="black" cx="697" cy="-1685.6" rx="0.36" ry="0.36"/>
</g>
<!-- beginIf_IF_8d4de40&#45;&gt;beginIf_IF_8d4dc00 -->
<g id="edge33" class="edge">
<title>beginIf_IF_8d4de40&#45;&gt;beginIf_IF_8d4dc00</title>
<path fill="none" stroke="black" d="M400.05,-1755.95C404.12,-1755 635.89,-1700.87 687.07,-1688.92"/>
<polygon fill="black" stroke="black" points="688,-1692.29 696.95,-1686.61 686.41,-1685.48 688,-1692.29"/>
</g>
<!-- endIf_IF_8d4de40 -->
<g id="node9" class="node">
<title>endIf_IF_8d4de40</title>
<ellipse fill="black" stroke="black" cx="552" cy="-1124.52" rx="0.36" ry="0.36"/>
</g>
<!-- CALL_8d52720 -->
<g id="node33" class="node">
<title>CALL_8d52720</title>
<g id="a_node33"><a xlink:href="CREATE_OR_REMOVE_OBST.svg" xlink:title="CREATE_OR_REMOVE_OBST">
<polygon fill="lightgray" stroke="black" points="665,-1088.16 439,-1088.16 439,-1084.16 435,-1084.16 435,-1080.16 439,-1080.16 439,-1060.16 435,-1060.16 435,-1056.16 439,-1056.16 439,-1052.16 665,-1052.16 665,-1088.16"/>
<polyline fill="none" stroke="black" points="439,-1084.16 443,-1084.16 443,-1080.16 439,-1080.16 "/>
<polyline fill="none" stroke="black" points="439,-1060.16 443,-1060.16 443,-1056.16 439,-1056.16 "/>
<text text-anchor="middle" x="552" y="-1066.46" font-family="Times,serif" font-size="14.00">CREATE_OR_REMOVE_OBST</text>
</a>
</g>
</g>
<!-- endIf_IF_8d4de40&#45;&gt;CALL_8d52720 -->
<g id="edge36" class="edge">
<title>endIf_IF_8d4de40&#45;&gt;CALL_8d52720</title>
<path fill="none" stroke="black" d="M552,-1123.37C552,-1121.93 552,-1110.39 552,-1098.52"/>
<polygon fill="black" stroke="black" points="555.5,-1098.26 552,-1088.26 548.5,-1098.26 555.5,-1098.26"/>
</g>
<!-- Empty_8d20160&#45;&gt;endIf_IF_8d4de40 -->
<g id="edge6" class="edge">
<title>Empty_8d20160&#45;&gt;endIf_IF_8d4de40</title>
<path fill="none" stroke="black" d="M282.97,-1667.33C296.76,-1641.76 320,-1591.9 320,-1546.24 320,-1546.24 320,-1546.24 320,-1197.38 320,-1161.99 347.64,-1159.36 380,-1145.02 414.64,-1129.68 547.75,-1125.02 551.9,-1124.88"/>
</g>
<!-- COMMENT_8d20760+1 -->
<g id="node13" class="node">
<title>COMMENT_8d20760+1</title>
<polygon fill="none" stroke="black" points="786,-1620.6 602,-1620.6 602,-1584.6 792,-1584.6 792,-1614.6 786,-1620.6"/>
<polyline fill="none" stroke="black" points="786,-1620.6 786,-1614.6 "/>
<polyline fill="none" stroke="black" points="792,-1614.6 786,-1614.6 "/>
<text text-anchor="middle" x="697" y="-1598.9" font-family="Times,serif" font-size="14.00">Set initial state of OBST</text>
</g>
<!-- beginIf_IF_8d4dc00&#45;&gt;COMMENT_8d20760+1 -->
<g id="edge18" class="edge">
<title>beginIf_IF_8d4dc00&#45;&gt;COMMENT_8d20760+1</title>
<path fill="none" stroke="black" d="M697,-1684.54C697,-1683.06 697,-1653.88 697,-1630.97"/>
<polygon fill="black" stroke="black" points="700.5,-1630.7 697,-1620.7 693.5,-1630.7 700.5,-1630.7"/>
</g>
<!-- COMMENT_8d293a0+1 -->
<g id="node23" class="node">
<title>COMMENT_8d293a0+1</title>
<polygon fill="none" stroke="black" points="1899.5,-1620.6 1552.5,-1620.6 1552.5,-1584.6 1905.5,-1584.6 1905.5,-1614.6 1899.5,-1620.6"/>
<polyline fill="none" stroke="black" points="1899.5,-1620.6 1899.5,-1614.6 "/>
<polyline fill="none" stroke="black" points="1905.5,-1614.6 1899.5,-1614.6 "/>
<text text-anchor="middle" x="1729" y="-1598.9" font-family="Times,serif" font-size="14.00">Decide if a DEVICE/CONTROL action is needed</text>
</g>
<!-- beginIf_IF_8d4dc00&#45;&gt;COMMENT_8d293a0+1 -->
<g id="edge31" class="edge">
<title>beginIf_IF_8d4dc00&#45;&gt;COMMENT_8d293a0+1</title>
<path fill="none" stroke="black" d="M697.12,-1684.6C707.24,-1684.5 1355.91,-1678.28 1540,-1651.6 1582.11,-1645.5 1628.43,-1633.82 1664.67,-1623.51"/>
<polygon fill="black" stroke="black" points="1665.97,-1626.77 1674.61,-1620.64 1664.04,-1620.05 1665.97,-1626.77"/>
</g>
<!-- endIf_IF_8d4dc00 -->
<g id="node12" class="node">
<title>endIf_IF_8d4dc00</title>
<ellipse fill="black" stroke="black" cx="583" cy="-1161.38" rx="0.36" ry="0.36"/>
</g>
<!-- endIf_IF_8d4dc00&#45;&gt;endIf_IF_8d4de40 -->
<g id="edge34" class="edge">
<title>endIf_IF_8d4dc00&#45;&gt;endIf_IF_8d4de40</title>
<path fill="none" stroke="black" d="M583,-1160.27C582.98,-1159.21 582.69,-1150.51 579,-1145.02 570.9,-1132.99 553.16,-1125.37 552.05,-1124.9"/>
</g>
<!-- beginIf_IF_8d2f640 -->
<g id="node14" class="node">
<title>beginIf_IF_8d2f640</title>
<ellipse fill="black" stroke="black" cx="697" cy="-1545.24" rx="0.36" ry="0.36"/>
</g>
<!-- COMMENT_8d20760+1&#45;&gt;beginIf_IF_8d2f640 -->
<g id="edge17" class="edge">
<title>COMMENT_8d20760+1&#45;&gt;beginIf_IF_8d2f640</title>
<path fill="none" stroke="black" d="M697,-1584.39C697,-1568.64 697,-1547.6 697,-1546.3"/>
</g>
<!-- COMMENT_8d1c700+1 -->
<g id="node16" class="node">
<title>COMMENT_8d1c700+1</title>
<polygon fill="none" stroke="black" points="576.5,-1505.74 415.5,-1505.74 415.5,-1469.74 582.5,-1469.74 582.5,-1499.74 576.5,-1505.74"/>
<polyline fill="none" stroke="black" points="576.5,-1505.74 576.5,-1499.74 "/>
<polyline fill="none" stroke="black" points="582.5,-1499.74 576.5,-1499.74 "/>
<text text-anchor="middle" x="499" y="-1484.04" font-family="Times,serif" font-size="14.00">!OBST is not a HOLE</text>
</g>
<!-- beginIf_IF_8d2f640&#45;&gt;COMMENT_8d1c700+1 -->
<g id="edge7" class="edge">
<title>beginIf_IF_8d2f640&#45;&gt;COMMENT_8d1c700+1</title>
<path fill="none" stroke="black" d="M696.94,-1544.74C694.49,-1544.68 615.76,-1542.83 594,-1536.74 573.43,-1530.99 552.07,-1520.64 534.82,-1511.03"/>
<polygon fill="black" stroke="black" points="536.11,-1507.73 525.69,-1505.79 532.63,-1513.8 536.11,-1507.73"/>
</g>
<!-- COMMENT_8d19240+1 -->
<g id="node17" class="node">
<title>COMMENT_8d19240+1</title>
<polygon fill="none" stroke="black" points="1141.5,-1505.74 644.5,-1505.74 644.5,-1469.74 1147.5,-1469.74 1147.5,-1499.74 1141.5,-1505.74"/>
<polyline fill="none" stroke="black" points="1141.5,-1505.74 1141.5,-1499.74 "/>
<polyline fill="none" stroke="black" points="1147.5,-1499.74 1141.5,-1499.74 "/>
<text text-anchor="middle" x="896" y="-1484.04" font-family="Times,serif" font-size="14.00">!OBST is a HOLE. &#160;CREATE/REMOVE also depends on parent OBST.</text>
</g>
<!-- beginIf_IF_8d2f640&#45;&gt;COMMENT_8d19240+1 -->
<g id="edge15" class="edge">
<title>beginIf_IF_8d2f640&#45;&gt;COMMENT_8d19240+1</title>
<path fill="none" stroke="black" d="M697.14,-1544.7C700.71,-1543.69 769.83,-1524.24 825.59,-1508.55"/>
<polygon fill="black" stroke="black" points="826.79,-1511.85 835.47,-1505.77 824.9,-1505.11 826.79,-1511.85"/>
</g>
<!-- endIf_IF_8d2f640 -->
<g id="node15" class="node">
<title>endIf_IF_8d2f640</title>
<ellipse fill="black" stroke="black" cx="583" cy="-1198.38" rx="0.36" ry="0.36"/>
</g>
<!-- endIf_IF_8d2f640&#45;&gt;endIf_IF_8d4dc00 -->
<g id="edge19" class="edge">
<title>endIf_IF_8d2f640&#45;&gt;endIf_IF_8d4dc00</title>
<path fill="none" stroke="black" d="M583,-1197.28C583,-1195.26 583,-1163.93 583,-1161.98"/>
</g>
<!-- COMMENT_8d1c700+1&#45;&gt;endIf_IF_8d2f640 -->
<g id="edge8" class="edge">
<title>COMMENT_8d1c700+1&#45;&gt;endIf_IF_8d2f640</title>
<path fill="none" stroke="black" d="M536.95,-1469.55C542.9,-1465.22 548.3,-1459.99 552,-1453.74 571.95,-1420.1 557,-1404.99 557,-1365.88 557,-1365.88 557,-1365.88 557,-1288.88 557,-1248.55 581.4,-1201.9 582.93,-1199.02"/>
</g>
<!-- beginIf_IF_8d2f440 -->
<g id="node18" class="node">
<title>beginIf_IF_8d2f440</title>
<ellipse fill="black" stroke="black" cx="933" cy="-1422.38" rx="0.36" ry="0.36"/>
</g>
<!-- COMMENT_8d19240+1&#45;&gt;beginIf_IF_8d2f440 -->
<g id="edge14" class="edge">
<title>COMMENT_8d19240+1&#45;&gt;beginIf_IF_8d2f440</title>
<path fill="none" stroke="black" d="M917.28,-1469.64C921.84,-1464.96 926.13,-1459.55 929,-1453.74 934.83,-1441.92 933.12,-1424.51 933.01,-1423.43"/>
</g>
<!-- COMMENT_8d23d80+1 -->
<g id="node20" class="node">
<title>COMMENT_8d23d80+1</title>
<polygon fill="none" stroke="black" points="1237.5,-1382.88 622.5,-1382.88 622.5,-1346.88 1243.5,-1346.88 1243.5,-1376.88 1237.5,-1382.88"/>
<polyline fill="none" stroke="black" points="1237.5,-1382.88 1237.5,-1376.88 "/>
<polyline fill="none" stroke="black" points="1243.5,-1376.88 1237.5,-1376.88 "/>
<text text-anchor="middle" x="933" y="-1361.18" font-family="Times,serif" font-size="14.00">!Parent OBST controllable, check state and if parent OBST is hidden, do not fill hole.</text>
</g>
<!-- beginIf_IF_8d2f440&#45;&gt;COMMENT_8d23d80+1 -->
<g id="edge10" class="edge">
<title>beginIf_IF_8d2f440&#45;&gt;COMMENT_8d23d80+1</title>
<path fill="none" stroke="black" d="M933,-1421.72C933,-1420.09 933,-1406.4 933,-1392.98"/>
<polygon fill="black" stroke="black" points="936.5,-1392.98 933,-1382.98 929.5,-1392.98 936.5,-1392.98"/>
</g>
<!-- COMMENT_8d297c0+1 -->
<g id="node22" class="node">
<title>COMMENT_8d297c0+1</title>
<polygon fill="none" stroke="black" points="1489.5,-1307.88 1268.5,-1307.88 1268.5,-1271.88 1495.5,-1271.88 1495.5,-1301.88 1489.5,-1307.88"/>
<polyline fill="none" stroke="black" points="1489.5,-1307.88 1489.5,-1301.88 "/>
<polyline fill="none" stroke="black" points="1495.5,-1301.88 1489.5,-1301.88 "/>
<text text-anchor="middle" x="1382" y="-1286.18" font-family="Times,serif" font-size="14.00">!Parent OBST always present</text>
</g>
<!-- beginIf_IF_8d2f440&#45;&gt;COMMENT_8d297c0+1 -->
<g id="edge12" class="edge">
<title>beginIf_IF_8d2f440&#45;&gt;COMMENT_8d297c0+1</title>
<path fill="none" stroke="black" d="M933.06,-1421.88C937.77,-1421.86 1239.59,-1420.8 1256,-1413.88 1303.94,-1393.66 1343.83,-1345.96 1365.18,-1316.26"/>
<polygon fill="black" stroke="black" points="1368.08,-1318.23 1370.95,-1308.03 1362.35,-1314.21 1368.08,-1318.23"/>
</g>
<!-- endIf_IF_8d2f440 -->
<g id="node19" class="node">
<title>endIf_IF_8d2f440</title>
<ellipse fill="black" stroke="black" cx="933" cy="-1235.38" rx="0.36" ry="0.36"/>
</g>
<!-- endIf_IF_8d2f440&#45;&gt;endIf_IF_8d2f640 -->
<g id="edge16" class="edge">
<title>endIf_IF_8d2f440&#45;&gt;endIf_IF_8d2f640</title>
<path fill="none" stroke="black" d="M933.01,-1234.26C933.15,-1233.04 934.11,-1223.21 929,-1219.02 899.46,-1194.78 587.92,-1198.81 583.06,-1198.88"/>
</g>
<!-- COMMENT_8d27740+1 -->
<g id="node21" class="node">
<title>COMMENT_8d27740+1</title>
<polygon fill="none" stroke="black" points="1166,-1307.88 694,-1307.88 694,-1271.88 1172,-1271.88 1172,-1301.88 1166,-1307.88"/>
<polyline fill="none" stroke="black" points="1166,-1307.88 1166,-1301.88 "/>
<polyline fill="none" stroke="black" points="1172,-1301.88 1166,-1301.88 "/>
<text text-anchor="middle" x="933" y="-1286.18" font-family="Times,serif" font-size="14.00">!If parent OBST is visible, check to see if hole needs to be made.</text>
</g>
<!-- COMMENT_8d23d80+1&#45;&gt;COMMENT_8d27740+1 -->
<g id="edge9" class="edge">
<title>COMMENT_8d23d80+1&#45;&gt;COMMENT_8d27740+1</title>
<path fill="none" stroke="black" d="M933,-1346.58C933,-1338.13 933,-1327.75 933,-1318.25"/>
<polygon fill="black" stroke="black" points="936.5,-1318.06 933,-1308.06 929.5,-1318.06 936.5,-1318.06"/>
</g>
<!-- COMMENT_8d27740+1&#45;&gt;endIf_IF_8d2f440 -->
<g id="edge11" class="edge">
<title>COMMENT_8d27740+1&#45;&gt;endIf_IF_8d2f440</title>
<path fill="none" stroke="black" d="M933,-1271.82C933,-1256.81 933,-1237.15 933,-1235.94"/>
</g>
<!-- COMMENT_8d297c0+1&#45;&gt;endIf_IF_8d2f440 -->
<g id="edge13" class="edge">
<title>COMMENT_8d297c0+1&#45;&gt;endIf_IF_8d2f440</title>
<path fill="none" stroke="black" d="M1303.25,-1271.88C1287.65,-1268.9 1271.35,-1266.06 1256,-1263.88 1115.57,-1243.92 938.63,-1236.12 933.13,-1235.89"/>
</g>
<!-- beginIf_IF_8d4d940 -->
<g id="node24" class="node">
<title>beginIf_IF_8d4d940</title>
<ellipse fill="black" stroke="black" cx="1729" cy="-1545.24" rx="0.36" ry="0.36"/>
</g>
<!-- COMMENT_8d293a0+1&#45;&gt;beginIf_IF_8d4d940 -->
<g id="edge30" class="edge">
<title>COMMENT_8d293a0+1&#45;&gt;beginIf_IF_8d4d940</title>
<path fill="none" stroke="black" d="M1729,-1584.39C1729,-1568.64 1729,-1547.6 1729,-1546.3"/>
</g>
<!-- COMMENT_8d29140+1 -->
<g id="node26" class="node">
<title>COMMENT_8d29140+1</title>
<polygon fill="none" stroke="black" points="1728.5,-1505.74 1567.5,-1505.74 1567.5,-1469.74 1734.5,-1469.74 1734.5,-1499.74 1728.5,-1505.74"/>
<polyline fill="none" stroke="black" points="1728.5,-1505.74 1728.5,-1499.74 "/>
<polyline fill="none" stroke="black" points="1734.5,-1499.74 1728.5,-1499.74 "/>
<text text-anchor="middle" x="1651" y="-1484.04" font-family="Times,serif" font-size="14.00">!OBST is not a HOLE</text>
</g>
<!-- beginIf_IF_8d4d940&#45;&gt;COMMENT_8d29140+1 -->
<g id="edge20" class="edge">
<title>beginIf_IF_8d4d940&#45;&gt;COMMENT_8d29140+1</title>
<path fill="none" stroke="black" d="M1728.94,-1544.7C1727.65,-1543.77 1704.25,-1526.97 1683.43,-1512.03"/>
<polygon fill="black" stroke="black" points="1685.2,-1508.99 1675.04,-1506 1681.12,-1514.67 1685.2,-1508.99"/>
</g>
<!-- COMMENT_8d2ea60+1 -->
<g id="node27" class="node">
<title>COMMENT_8d2ea60+1</title>
<polygon fill="none" stroke="black" points="2293.5,-1505.74 1796.5,-1505.74 1796.5,-1469.74 2299.5,-1469.74 2299.5,-1499.74 2293.5,-1505.74"/>
<polyline fill="none" stroke="black" points="2293.5,-1505.74 2293.5,-1499.74 "/>
<polyline fill="none" stroke="black" points="2299.5,-1499.74 2293.5,-1499.74 "/>
<text text-anchor="middle" x="2048" y="-1484.04" font-family="Times,serif" font-size="14.00">!OBST is a HOLE. &#160;CREATE/REMOVE also depends on parent OBST.</text>
</g>
<!-- beginIf_IF_8d4d940&#45;&gt;COMMENT_8d2ea60+1 -->
<g id="edge28" class="edge">
<title>beginIf_IF_8d4d940&#45;&gt;COMMENT_8d2ea60+1</title>
<path fill="none" stroke="black" d="M1729.06,-1544.73C1732.04,-1544.21 1849.56,-1523.58 1941.08,-1507.51"/>
<polygon fill="black" stroke="black" points="1941.73,-1510.95 1950.97,-1505.77 1940.52,-1504.06 1941.73,-1510.95"/>
</g>
<!-- endIf_IF_8d4d940 -->
<g id="node25" class="node">
<title>endIf_IF_8d4d940</title>
<ellipse fill="black" stroke="black" cx="1651" cy="-1198.38" rx="0.36" ry="0.36"/>
</g>
<!-- endIf_IF_8d4d940&#45;&gt;endIf_IF_8d4dc00 -->
<g id="edge32" class="edge">
<title>endIf_IF_8d4d940&#45;&gt;endIf_IF_8d4dc00</title>
<path fill="none" stroke="black" d="M1650.95,-1197.37C1648.95,-1197.03 1584.35,-1185.94 1532,-1182.02 1323.3,-1166.38 594.51,-1161.95 583.13,-1161.88"/>
</g>
<!-- COMMENT_8d29140+1&#45;&gt;endIf_IF_8d4d940 -->
<g id="edge21" class="edge">
<title>COMMENT_8d29140+1&#45;&gt;endIf_IF_8d4d940</title>
<path fill="none" stroke="black" d="M1651,-1469.53C1651,-1446.09 1651,-1402.81 1651,-1365.88 1651,-1365.88 1651,-1365.88 1651,-1288.88 1651,-1250.13 1651,-1202 1651,-1199.02"/>
</g>
<!-- beginIf_IF_8d4d740 -->
<g id="node28" class="node">
<title>beginIf_IF_8d4d740</title>
<ellipse fill="black" stroke="black" cx="2085" cy="-1422.38" rx="0.36" ry="0.36"/>
</g>
<!-- COMMENT_8d2ea60+1&#45;&gt;beginIf_IF_8d4d740 -->
<g id="edge27" class="edge">
<title>COMMENT_8d2ea60+1&#45;&gt;beginIf_IF_8d4d740</title>
<path fill="none" stroke="black" d="M2069.28,-1469.64C2073.84,-1464.96 2078.13,-1459.55 2081,-1453.74 2086.83,-1441.92 2085.12,-1424.51 2085.01,-1423.43"/>
</g>
<!-- COMMENT_8d2eec0+1 -->
<g id="node30" class="node">
<title>COMMENT_8d2eec0+1</title>
<polygon fill="none" stroke="black" points="2389.5,-1382.88 1774.5,-1382.88 1774.5,-1346.88 2395.5,-1346.88 2395.5,-1376.88 2389.5,-1382.88"/>
<polyline fill="none" stroke="black" points="2389.5,-1382.88 2389.5,-1376.88 "/>
<polyline fill="none" stroke="black" points="2395.5,-1376.88 2389.5,-1376.88 "/>
<text text-anchor="middle" x="2085" y="-1361.18" font-family="Times,serif" font-size="14.00">!Parent OBST controllable, check state and if parent OBST is hidden, do not fill hole.</text>
</g>
<!-- beginIf_IF_8d4d740&#45;&gt;COMMENT_8d2eec0+1 -->
<g id="edge23" class="edge">
<title>beginIf_IF_8d4d740&#45;&gt;COMMENT_8d2eec0+1</title>
<path fill="none" stroke="black" d="M2085,-1421.72C2085,-1420.09 2085,-1406.4 2085,-1392.98"/>
<polygon fill="black" stroke="black" points="2088.5,-1392.98 2085,-1382.98 2081.5,-1392.98 2088.5,-1392.98"/>
</g>
<!-- COMMENT_8d35ea0+1 -->
<g id="node32" class="node">
<title>COMMENT_8d35ea0+1</title>
<polygon fill="none" stroke="black" points="2806,-1307.88 2420,-1307.88 2420,-1271.88 2812,-1271.88 2812,-1301.88 2806,-1307.88"/>
<polyline fill="none" stroke="black" points="2806,-1307.88 2806,-1301.88 "/>
<polyline fill="none" stroke="black" points="2812,-1301.88 2806,-1301.88 "/>
<text text-anchor="middle" x="2616" y="-1286.18" font-family="Times,serif" font-size="14.00">!Parent OBST not controllable and is always present</text>
</g>
<!-- beginIf_IF_8d4d740&#45;&gt;COMMENT_8d35ea0+1 -->
<g id="edge25" class="edge">
<title>beginIf_IF_8d4d740&#45;&gt;COMMENT_8d35ea0+1</title>
<path fill="none" stroke="black" d="M2085.05,-1421.88C2089.49,-1421.91 2373.76,-1423.7 2408,-1413.88 2478.29,-1393.71 2549.3,-1343.98 2587.45,-1314.3"/>
<polygon fill="black" stroke="black" points="2589.85,-1316.87 2595.53,-1307.93 2585.51,-1311.37 2589.85,-1316.87"/>
</g>
<!-- endIf_IF_8d4d740 -->
<g id="node29" class="node">
<title>endIf_IF_8d4d740</title>
<ellipse fill="black" stroke="black" cx="2085" cy="-1235.38" rx="0.36" ry="0.36"/>
</g>
<!-- endIf_IF_8d4d740&#45;&gt;endIf_IF_8d4d940 -->
<g id="edge29" class="edge">
<title>endIf_IF_8d4d740&#45;&gt;endIf_IF_8d4d940</title>
<path fill="none" stroke="black" d="M2085.02,-1234.26C2085.16,-1233.04 2086.14,-1223.19 2081,-1219.02 2062.57,-1204.07 1657.4,-1198.96 1651.07,-1198.88"/>
</g>
<!-- COMMENT_8d38a60+1 -->
<g id="node31" class="node">
<title>COMMENT_8d38a60+1</title>
<polygon fill="none" stroke="black" points="2318,-1307.88 1846,-1307.88 1846,-1271.88 2324,-1271.88 2324,-1301.88 2318,-1307.88"/>
<polyline fill="none" stroke="black" points="2318,-1307.88 2318,-1301.88 "/>
<polyline fill="none" stroke="black" points="2324,-1301.88 2318,-1301.88 "/>
<text text-anchor="middle" x="2085" y="-1286.18" font-family="Times,serif" font-size="14.00">!If parent OBST is visible, check to see if hole needs to be made.</text>
</g>
<!-- COMMENT_8d2eec0+1&#45;&gt;COMMENT_8d38a60+1 -->
<g id="edge22" class="edge">
<title>COMMENT_8d2eec0+1&#45;&gt;COMMENT_8d38a60+1</title>
<path fill="none" stroke="black" d="M2085,-1346.58C2085,-1338.13 2085,-1327.75 2085,-1318.25"/>
<polygon fill="black" stroke="black" points="2088.5,-1318.06 2085,-1308.06 2081.5,-1318.06 2088.5,-1318.06"/>
</g>
<!-- COMMENT_8d38a60+1&#45;&gt;endIf_IF_8d4d740 -->
<g id="edge24" class="edge">
<title>COMMENT_8d38a60+1&#45;&gt;endIf_IF_8d4d740</title>
<path fill="none" stroke="black" d="M2085,-1271.82C2085,-1256.81 2085,-1237.15 2085,-1235.94"/>
</g>
<!-- COMMENT_8d35ea0+1&#45;&gt;endIf_IF_8d4d740 -->
<g id="edge26" class="edge">
<title>COMMENT_8d35ea0+1&#45;&gt;endIf_IF_8d4d740</title>
<path fill="none" stroke="black" d="M2479.85,-1271.86C2455.92,-1269.06 2431.24,-1266.28 2408,-1263.88 2266.91,-1249.29 2090.61,-1236.29 2085.13,-1235.89"/>
</g>
<!-- CALL_8d58820 -->
<g id="node34" class="node">
<title>CALL_8d58820</title>
<g id="a_node34"><a xlink:href="CREATE_OR_REMOVE_OBST.svg" xlink:title="CREATE_OR_REMOVE_OBST">
<polygon fill="lightgray" stroke="black" points="665,-1016.16 439,-1016.16 439,-1012.16 435,-1012.16 435,-1008.16 439,-1008.16 439,-988.16 435,-988.16 435,-984.16 439,-984.16 439,-980.16 665,-980.16 665,-1016.16"/>
<polyline fill="none" stroke="black" points="439,-1012.16 443,-1012.16 443,-1008.16 439,-1008.16 "/>
<polyline fill="none" stroke="black" points="439,-988.16 443,-988.16 443,-984.16 439,-984.16 "/>
<text text-anchor="middle" x="552" y="-994.46" font-family="Times,serif" font-size="14.00">CREATE_OR_REMOVE_OBST</text>
</a>
</g>
</g>
<!-- CALL_8d52720&#45;&gt;CALL_8d58820 -->
<g id="edge37" class="edge">
<title>CALL_8d52720&#45;&gt;CALL_8d58820</title>
<path fill="none" stroke="black" d="M552,-1051.86C552,-1044.14 552,-1034.87 552,-1026.27"/>
<polygon fill="black" stroke="black" points="555.5,-1026.26 552,-1016.26 548.5,-1026.26 555.5,-1026.26"/>
</g>
<!-- COMMENT_8d4ce80+1 -->
<g id="node35" class="node">
<title>COMMENT_8d4ce80+1</title>
<polygon fill="none" stroke="black" points="892,-944.16 206,-944.16 206,-908.16 898,-908.16 898,-938.16 892,-944.16"/>
<polyline fill="none" stroke="black" points="892,-944.16 892,-938.16 "/>
<polyline fill="none" stroke="black" points="898,-938.16 892,-938.16 "/>
<text text-anchor="middle" x="552" y="-922.46" font-family="Times,serif" font-size="14.00">Write a message to the Smokeview .smv file that the obstruction has been created or removed</text>
</g>
<!-- CALL_8d58820&#45;&gt;COMMENT_8d4ce80+1 -->
<g id="edge38" class="edge">
<title>CALL_8d58820&#45;&gt;COMMENT_8d4ce80+1</title>
<path fill="none" stroke="black" d="M552,-979.86C552,-972.14 552,-962.87 552,-954.27"/>
<polygon fill="black" stroke="black" points="555.5,-954.26 552,-944.26 548.5,-954.26 555.5,-954.26"/>
</g>
<!-- CALL_8d59380 -->
<g id="node36" class="node">
<title>CALL_8d59380</title>
<g id="a_node36"><a xlink:href="RE_ALLOCATE_STRINGS.svg" xlink:title="RE_ALLOCATE_STRINGS">
<polygon fill="lightgray" stroke="black" points="650.5,-872.16 453.5,-872.16 453.5,-868.16 449.5,-868.16 449.5,-864.16 453.5,-864.16 453.5,-844.16 449.5,-844.16 449.5,-840.16 453.5,-840.16 453.5,-836.16 650.5,-836.16 650.5,-872.16"/>
<polyline fill="none" stroke="black" points="453.5,-868.16 457.5,-868.16 457.5,-864.16 453.5,-864.16 "/>
<polyline fill="none" stroke="black" points="453.5,-844.16 457.5,-844.16 457.5,-840.16 453.5,-840.16 "/>
<text text-anchor="middle" x="552" y="-850.46" font-family="Times,serif" font-size="14.00">RE_ALLOCATE_STRINGS</text>
</a>
</g>
</g>
<!-- COMMENT_8d4ce80+1&#45;&gt;CALL_8d59380 -->
<g id="edge39" class="edge">
<title>COMMENT_8d4ce80+1&#45;&gt;CALL_8d59380</title>
<path fill="none" stroke="black" d="M552,-907.86C552,-900.14 552,-890.87 552,-882.27"/>
<polygon fill="black" stroke="black" points="555.5,-882.26 552,-872.26 548.5,-882.26 555.5,-882.26"/>
</g>
<!-- COMMENT_8d5ca40+1 -->
<g id="node37" class="node">
<title>COMMENT_8d5ca40+1</title>
<polygon fill="none" stroke="black" points="654.5,-800.16 443.5,-800.16 443.5,-764.16 660.5,-764.16 660.5,-794.16 654.5,-800.16"/>
<polyline fill="none" stroke="black" points="654.5,-800.16 654.5,-794.16 "/>
<polyline fill="none" stroke="black" points="660.5,-794.16 654.5,-794.16 "/>
<text text-anchor="middle" x="552" y="-778.46" font-family="Times,serif" font-size="14.00">If any REMOVE_OBST store</text>
</g>
<!-- CALL_8d59380&#45;&gt;COMMENT_8d5ca40+1 -->
<g id="edge40" class="edge">
<title>CALL_8d59380&#45;&gt;COMMENT_8d5ca40+1</title>
<path fill="none" stroke="black" d="M552,-835.86C552,-828.14 552,-818.87 552,-810.27"/>
<polygon fill="black" stroke="black" points="555.5,-810.26 552,-800.26 548.5,-810.26 555.5,-810.26"/>
</g>
<!-- COMMENT_8d5ca40+1&#45;&gt;endDO_DO_8d595a0 -->
<g id="edge42" class="edge">
<title>COMMENT_8d5ca40+1&#45;&gt;endDO_DO_8d595a0</title>
<path fill="none" stroke="black" d="M552,-764.1C552,-749.09 552,-729.43 552,-728.22"/>
</g>
<!-- COMMENT_8d5f100+1 -->
<g id="node39" class="node">
<title>COMMENT_8d5f100+1</title>
<polygon fill="none" stroke="black" points="623,-619.44 475,-619.44 475,-583.44 629,-583.44 629,-613.44 623,-619.44"/>
<polyline fill="none" stroke="black" points="623,-619.44 623,-613.44 "/>
<polyline fill="none" stroke="black" points="629,-613.44 623,-613.44 "/>
<text text-anchor="middle" x="552" y="-597.74" font-family="Times,serif" font-size="14.00">CVENT_INDEX = 0</text>
</g>
<!-- COMMENT_8d4df80+1&#45;&gt;COMMENT_8d5f100+1 -->
<g id="edge44" class="edge">
<title>COMMENT_8d4df80+1&#45;&gt;COMMENT_8d5f100+1</title>
<path fill="none" stroke="black" d="M552,-655.14C552,-647.42 552,-638.15 552,-629.55"/>
<polygon fill="black" stroke="black" points="555.5,-629.54 552,-619.54 548.5,-629.54 555.5,-629.54"/>
</g>
<!-- beginDO_DO_8d8ff20 -->
<g id="node40" class="node">
<title>beginDO_DO_8d8ff20</title>
<ellipse fill="black" stroke="black" cx="552" cy="-544.08" rx="0.36" ry="0.36"/>
</g>
<!-- COMMENT_8d5f100+1&#45;&gt;beginDO_DO_8d8ff20 -->
<g id="edge51" class="edge">
<title>COMMENT_8d5f100+1&#45;&gt;beginDO_DO_8d8ff20</title>
<path fill="none" stroke="black" d="M552,-583.23C552,-567.48 552,-546.44 552,-545.14"/>
</g>
<!-- COMMENT_8d641e0+1 -->
<g id="node42" class="node">
<title>COMMENT_8d641e0+1</title>
<polygon fill="none" stroke="black" points="677.5,-507.72 420.5,-507.72 420.5,-471.72 683.5,-471.72 683.5,-501.72 677.5,-507.72"/>
<polyline fill="none" stroke="black" points="677.5,-507.72 677.5,-501.72 "/>
<polyline fill="none" stroke="black" points="683.5,-501.72 677.5,-501.72 "/>
<text text-anchor="middle" x="552" y="-486.02" font-family="Times,serif" font-size="14.00">Over&#45;ride DEVICE/CONTROL logic</text>
</g>
<!-- beginDO_DO_8d8ff20&#45;&gt;COMMENT_8d641e0+1 -->
<g id="edge45" class="edge">
<title>beginDO_DO_8d8ff20&#45;&gt;COMMENT_8d641e0+1</title>
<path fill="none" stroke="black" d="M552,-543.57C552,-542.09 552,-530.04 552,-517.82"/>
<polygon fill="black" stroke="black" points="555.5,-517.74 552,-507.74 548.5,-517.74 555.5,-517.74"/>
</g>
<!-- endDO_DO_8d8ff20 -->
<g id="node41" class="node">
<title>endDO_DO_8d8ff20</title>
<ellipse fill="black" stroke="black" cx="552" cy="-73.36" rx="0.36" ry="0.36"/>
</g>
<!-- end_SUBPROGRAM_8d91340 -->
<g id="node48" class="node">
<title>end_SUBPROGRAM_8d91340</title>
<ellipse fill="black" stroke="black" cx="552" cy="-30" rx="7" ry="7"/>
</g>
<!-- endDO_DO_8d8ff20&#45;&gt;end_SUBPROGRAM_8d91340 -->
<g id="edge53" class="edge">
<title>endDO_DO_8d8ff20&#45;&gt;end_SUBPROGRAM_8d91340</title>
<path fill="none" stroke="black" d="M552,-72.24C552,-70.89 552,-58.27 552,-47.34"/>
<polygon fill="black" stroke="black" points="555.5,-47.1 552,-37.1 548.5,-47.1 555.5,-47.1"/>
</g>
<!-- COMMENT_8d65b00+1 -->
<g id="node43" class="node">
<title>COMMENT_8d65b00+1</title>
<polygon fill="none" stroke="black" points="989.5,-435.72 108.5,-435.72 108.5,-397.72 995.5,-397.72 995.5,-429.72 989.5,-435.72"/>
<polyline fill="none" stroke="black" points="989.5,-435.72 989.5,-429.72 "/>
<polyline fill="none" stroke="black" points="995.5,-429.72 989.5,-429.72 "/>
<text text-anchor="middle" x="552" y="-420.52" font-family="Times,serif" font-size="14.00">If the VENT is tied to a specific OBST, and the OBST is HIDDEN (not HIDDEN), and the VENT is activated (not activated),</text>
<text text-anchor="middle" x="552" y="-405.52" font-family="Times,serif" font-size="14.00">deactivate (activate) the vent.</text>
</g>
<!-- COMMENT_8d641e0+1&#45;&gt;COMMENT_8d65b00+1 -->
<g id="edge46" class="edge">
<title>COMMENT_8d641e0+1&#45;&gt;COMMENT_8d65b00+1</title>
<path fill="none" stroke="black" d="M552,-471.53C552,-463.83 552,-454.54 552,-445.87"/>
<polygon fill="black" stroke="black" points="555.5,-445.74 552,-435.74 548.5,-445.74 555.5,-445.74"/>
</g>
<!-- COMMENT_8d666e0+1 -->
<g id="node44" class="node">
<title>COMMENT_8d666e0+1</title>
<polygon fill="none" stroke="black" points="850,-361.72 248,-361.72 248,-325.72 856,-325.72 856,-355.72 850,-361.72"/>
<polyline fill="none" stroke="black" points="850,-361.72 850,-355.72 "/>
<polyline fill="none" stroke="black" points="856,-355.72 850,-355.72 "/>
<text text-anchor="middle" x="552" y="-340.02" font-family="Times,serif" font-size="14.00">Decide if a VENT is to activate or de&#45;activate based on a DEVICE or CONTROLLER</text>
</g>
<!-- COMMENT_8d65b00+1&#45;&gt;COMMENT_8d666e0+1 -->
<g id="edge47" class="edge">
<title>COMMENT_8d65b00+1&#45;&gt;COMMENT_8d666e0+1</title>
<path fill="none" stroke="black" d="M552,-397.44C552,-389.69 552,-380.51 552,-371.99"/>
<polygon fill="black" stroke="black" points="555.5,-371.72 552,-361.72 548.5,-371.72 555.5,-371.72"/>
</g>
<!-- COMMENT_8d703a0+1 -->
<g id="node45" class="node">
<title>COMMENT_8d703a0+1</title>
<polygon fill="none" stroke="black" points="880.5,-289.72 217.5,-289.72 217.5,-253.72 886.5,-253.72 886.5,-283.72 880.5,-289.72"/>
<polyline fill="none" stroke="black" points="880.5,-289.72 880.5,-283.72 "/>
<polyline fill="none" stroke="black" points="886.5,-283.72 880.5,-283.72 "/>
<text text-anchor="middle" x="552" y="-268.02" font-family="Times,serif" font-size="14.00">Find the wall indices (IW) for the vent and set the activation time (B1%T_IGN) for each one</text>
</g>
<!-- COMMENT_8d666e0+1&#45;&gt;COMMENT_8d703a0+1 -->
<g id="edge48" class="edge">
<title>COMMENT_8d666e0+1&#45;&gt;COMMENT_8d703a0+1</title>
<path fill="none" stroke="black" d="M552,-325.42C552,-317.7 552,-308.43 552,-299.83"/>
<polygon fill="black" stroke="black" points="555.5,-299.82 552,-289.82 548.5,-299.82 555.5,-299.82"/>
</g>
<!-- COMMENT_8d75a40+1 -->
<g id="node46" class="node">
<title>COMMENT_8d75a40+1</title>
<polygon fill="none" stroke="black" points="649,-217.72 449,-217.72 449,-181.72 655,-181.72 655,-211.72 649,-217.72"/>
<polyline fill="none" stroke="black" points="649,-217.72 649,-211.72 "/>
<polyline fill="none" stroke="black" points="655,-211.72 649,-211.72 "/>
<text text-anchor="middle" x="552" y="-196.02" font-family="Times,serif" font-size="14.00">Write message to .smv file</text>
</g>
<!-- COMMENT_8d703a0+1&#45;&gt;COMMENT_8d75a40+1 -->
<g id="edge49" class="edge">
<title>COMMENT_8d703a0+1&#45;&gt;COMMENT_8d75a40+1</title>
<path fill="none" stroke="black" d="M552,-253.42C552,-245.7 552,-236.43 552,-227.83"/>
<polygon fill="black" stroke="black" points="555.5,-227.82 552,-217.82 548.5,-227.82 555.5,-227.82"/>
</g>
<!-- CALL_8d830e0 -->
<g id="node47" class="node">
<title>CALL_8d830e0</title>
<g id="a_node47"><a xlink:href="RE_ALLOCATE_STRINGS.svg" xlink:title="RE_ALLOCATE_STRINGS">
<polygon fill="lightgray" stroke="black" points="650.5,-145.72 453.5,-145.72 453.5,-141.72 449.5,-141.72 449.5,-137.72 453.5,-137.72 453.5,-117.72 449.5,-117.72 449.5,-113.72 453.5,-113.72 453.5,-109.72 650.5,-109.72 650.5,-145.72"/>
<polyline fill="none" stroke="black" points="453.5,-141.72 457.5,-141.72 457.5,-137.72 453.5,-137.72 "/>
<polyline fill="none" stroke="black" points="453.5,-117.72 457.5,-117.72 457.5,-113.72 453.5,-113.72 "/>
<text text-anchor="middle" x="552" y="-124.02" font-family="Times,serif" font-size="14.00">RE_ALLOCATE_STRINGS</text>
</a>
</g>
</g>
<!-- COMMENT_8d75a40+1&#45;&gt;CALL_8d830e0 -->
<g id="edge50" class="edge">
<title>COMMENT_8d75a40+1&#45;&gt;CALL_8d830e0</title>
<path fill="none" stroke="black" d="M552,-181.42C552,-173.7 552,-164.43 552,-155.83"/>
<polygon fill="black" stroke="black" points="555.5,-155.82 552,-145.82 548.5,-155.82 555.5,-155.82"/>
</g>
<!-- CALL_8d830e0&#45;&gt;endDO_DO_8d8ff20 -->
<g id="edge52" class="edge">
<title>CALL_8d830e0&#45;&gt;endDO_DO_8d8ff20</title>
<path fill="none" stroke="black" d="M552,-109.66C552,-94.65 552,-74.99 552,-73.78"/>
</g>
</g>
</svg>
