<?xml version="1.0" encoding="UTF-8" standalone="no"?>
<!DOCTYPE svg PUBLIC "-//W3C//DTD SVG 1.1//EN"
 "http://www.w3.org/Graphics/SVG/1.1/DTD/svg11.dtd">
<!-- Generated by graphviz version 2.43.0 (0)
 -->
<!-- Title: OPEN_AND_CLOSE Pages: 1 -->
<svg width="2897pt" height="2162pt"
 viewBox="0.00 0.00 2897.00 2162.40" xmlns="http://www.w3.org/2000/svg" xmlns:xlink="http://www.w3.org/1999/xlink">
<g id="graph0" class="graph" transform="scale(1 1) rotate(0) translate(4 2158.4)">
<title>OPEN_AND_CLOSE</title>
<polygon fill="white" stroke="transparent" points="-4,4 -4,-2158.4 2893,-2158.4 2893,4 -4,4"/>
<text text-anchor="middle" x="1444.5" y="-7.8" font-family="Times,serif" font-size="14.00">OPEN_AND_CLOSE</text>
<g id="clust1" class="cluster">
<title>cluster_OBST_LOOP</title>
<polygon fill="none" stroke="orange" points="165,-719.44 165,-1899.4 2881,-1899.4 2881,-719.44 165,-719.44"/>
<text text-anchor="middle" x="217.5" y="-1884.2" font-family="Times,serif" font-size="14.00">OBST_LOOP</text>
</g>
<g id="clust2" class="cluster">
<title>cluster_CREATE_REMOVE_IF</title>
<polygon fill="none" stroke="blue" points="173,-1116.16 173,-1787.68 2873,-1787.68 2873,-1116.16 173,-1116.16"/>
<text text-anchor="middle" x="259" y="-1772.48" font-family="Times,serif" font-size="14.00">CREATE_REMOVE_IF</text>
</g>
<g id="clust3" class="cluster">
<title>cluster_cond8d1bf40</title>
<polygon fill="none" stroke="black" points="181,-1659.6 181,-1734.6 365,-1734.6 365,-1659.6 181,-1659.6"/>
<text text-anchor="middle" x="236" y="-1719.4" font-family="Times,serif" font-size="14.00">cond8d1bf40</text>
</g>
<g id="clust4" class="cluster">
<title>cluster_cond8d4dca0</title>
<polygon fill="none" stroke="black" points="373,-1145.02 373,-1747.96 2865,-1747.96 2865,-1145.02 373,-1145.02"/>
<text text-anchor="middle" x="428.5" y="-1732.76" font-family="Times,serif" font-size="14.00">cond8d4dca0</text>
</g>
<g id="clust5" class="cluster">
<title>cluster_SET_T_BEGIN_IF</title>
<polygon fill="none" stroke="blue" points="381,-1153.02 381,-1716.96 2857,-1716.96 2857,-1153.02 381,-1153.02"/>
<text text-anchor="middle" x="451" y="-1701.76" font-family="Times,serif" font-size="14.00">SET_T_BEGIN_IF</text>
</g>
<g id="clust6" class="cluster">
<title>cluster_cond8d2d520</title>
<polygon fill="none" stroke="black" points="389,-1182.02 389,-1651.6 1533,-1651.6 1533,-1182.02 389,-1182.02"/>
<text text-anchor="middle" x="445.5" y="-1636.4" font-family="Times,serif" font-size="14.00">cond8d2d520</text>
</g>
<g id="clust7" class="cluster">
<title>cluster_HOLE_FILL_IF</title>
<polygon fill="none" stroke="blue" points="397,-1190.02 397,-1576.6 1525,-1576.6 1525,-1190.02 397,-1190.02"/>
<text text-anchor="middle" x="457.5" y="-1561.4" font-family="Times,serif" font-size="14.00">HOLE_FILL_IF</text>
</g>
<g id="clust8" class="cluster">
<title>cluster_cond8d20040</title>
<polygon fill="none" stroke="black" points="405,-1461.74 405,-1536.74 587,-1536.74 587,-1461.74 405,-1461.74"/>
<text text-anchor="middle" x="461.5" y="-1521.54" font-family="Times,serif" font-size="14.00">cond8d20040</text>
</g>
<g id="clust9" class="cluster">
<title>cluster_cond8d2d2a0</title>
<polygon fill="none" stroke="black" points="595,-1219.02 595,-1536.74 1517,-1536.74 1517,-1219.02 595,-1219.02"/>
<text text-anchor="middle" x="651.5" y="-1521.54" font-family="Times,serif" font-size="14.00">cond8d2d2a0</text>
</g>
<g id="clust10" class="cluster">
<title>cluster_CHECK_PARENT</title>
<polygon fill="none" stroke="blue" points="603,-1227.02 603,-1453.74 1509,-1453.74 1509,-1227.02 603,-1227.02"/>
<text text-anchor="middle" x="671.5" y="-1438.54" font-family="Times,serif" font-size="14.00">CHECK_PARENT</text>
</g>
<g id="clust11" class="cluster">
<title>cluster_cond8d296a0</title>
<polygon fill="none" stroke="black" points="611,-1263.88 611,-1413.88 1249,-1413.88 1249,-1263.88 611,-1263.88"/>
<text text-anchor="middle" x="667.5" y="-1398.68" font-family="Times,serif" font-size="14.00">cond8d296a0</text>
</g>
<g id="clust12" class="cluster">
<title>cluster_cond8d2d040</title>
<polygon fill="none" stroke="black" points="1257,-1263.88 1257,-1338.88 1501,-1338.88 1501,-1263.88 1257,-1263.88"/>
<text text-anchor="middle" x="1313.5" y="-1323.68" font-family="Times,serif" font-size="14.00">cond8d2d040</text>
</g>
<g id="clust13" class="cluster">
<title>cluster_cond8d4da60</title>
<polygon fill="none" stroke="black" points="1541,-1182.02 1541,-1651.6 2849,-1651.6 2849,-1182.02 1541,-1182.02"/>
<text text-anchor="middle" x="1597.5" y="-1636.4" font-family="Times,serif" font-size="14.00">cond8d4da60</text>
</g>
<g id="clust14" class="cluster">
<title>cluster_HOLE_FILL_IF_2</title>
<polygon fill="none" stroke="blue" points="1549,-1190.02 1549,-1576.6 2841,-1576.6 2841,-1190.02 1549,-1190.02"/>
<text text-anchor="middle" x="1617.5" y="-1561.4" font-family="Times,serif" font-size="14.00">HOLE_FILL_IF_2</text>
</g>
<g id="clust15" class="cluster">
<title>cluster_cond8d332c0</title>
<polygon fill="none" stroke="black" points="1557,-1461.74 1557,-1536.74 1739,-1536.74 1739,-1461.74 1557,-1461.74"/>
<text text-anchor="middle" x="1613" y="-1521.54" font-family="Times,serif" font-size="14.00">cond8d332c0</text>
</g>
<g id="clust16" class="cluster">
<title>cluster_cond8d4d800</title>
<polygon fill="none" stroke="black" points="1747,-1219.02 1747,-1536.74 2833,-1536.74 2833,-1219.02 1747,-1219.02"/>
<text text-anchor="middle" x="1803.5" y="-1521.54" font-family="Times,serif" font-size="14.00">cond8d4d800</text>
</g>
<g id="clust17" class="cluster">
<title>cluster_CHECK_PARENT_2</title>
<polygon fill="none" stroke="blue" points="1755,-1227.02 1755,-1453.74 2825,-1453.74 2825,-1227.02 1755,-1227.02"/>
<text text-anchor="middle" x="1831.5" y="-1438.54" font-family="Times,serif" font-size="14.00">CHECK_PARENT_2</text>
</g>
<g id="clust18" class="cluster">
<title>cluster_cond8d458e0</title>
<polygon fill="none" stroke="black" points="1763,-1263.88 1763,-1413.88 2401,-1413.88 2401,-1263.88 1763,-1263.88"/>
<text text-anchor="middle" x="1819.5" y="-1398.68" font-family="Times,serif" font-size="14.00">cond8d458e0</text>
</g>
<g id="clust19" class="cluster">
<title>cluster_cond8d4d580</title>
<polygon fill="none" stroke="black" points="2409,-1263.88 2409,-1338.88 2817,-1338.88 2817,-1263.88 2409,-1263.88"/>
<text text-anchor="middle" x="2465.5" y="-1323.68" font-family="Times,serif" font-size="14.00">cond8d4d580</text>
</g>
<g id="clust20" class="cluster">
<title>cluster_VENT_LOOP</title>
<polygon fill="none" stroke="orange" points="100,-65 100,-575.44 1004,-575.44 1004,-65 100,-65"/>
<text text-anchor="middle" x="153" y="-560.24" font-family="Times,serif" font-size="14.00">VENT_LOOP</text>
</g>
<!-- start_SUBPROGRAM_8d91520 -->
<g id="node1" class="node">
<title>start_SUBPROGRAM_8d91520</title>
<ellipse fill="none" stroke="black" cx="400" cy="-2147.4" rx="7" ry="7"/>
</g>
<!-- COMMENT_8d13300+1 -->
<g id="node2" class="node">
<title>COMMENT_8d13300+1</title>
<polygon fill="none" stroke="black" points="794,-2104.4 0,-2104.4 0,-2051.4 800,-2051.4 800,-2098.4 794,-2104.4"/>
<polyline fill="none" stroke="black" points="794,-2104.4 794,-2098.4 "/>
<polyline fill="none" stroke="black" points="800,-2098.4 794,-2098.4 "/>
<text text-anchor="middle" x="400" y="-2089.2" font-family="Times,serif" font-size="14.00">!&gt; brief Check to see if a cell or OBSTruction is to be created or removed, or a VENT activated of deactivated</text>
<text text-anchor="middle" x="400" y="-2074.2" font-family="Times,serif" font-size="14.00">!&gt; param T Current time (s)</text>
<text text-anchor="middle" x="400" y="-2059.2" font-family="Times,serif" font-size="14.00">!&gt; param NM Mesh number</text>
</g>
<!-- start_SUBPROGRAM_8d91520&#45;&gt;COMMENT_8d13300+1 -->
<g id="edge1" class="edge">
<title>start_SUBPROGRAM_8d91520&#45;&gt;COMMENT_8d13300+1</title>
<path fill="none" stroke="black" d="M400,-2140.17C400,-2134.16 400,-2124.56 400,-2114.72"/>
<polygon fill="black" stroke="black" points="403.5,-2114.52 400,-2104.52 396.5,-2114.52 403.5,-2114.52"/>
</g>
<!-- CALL_8d16c20 -->
<g id="node3" class="node">
<title>CALL_8d16c20</title>
<g id="a_node3"><a xlink:href="POINT_TO_MESH.svg" xlink:title="POINT_TO_MESH">
<polygon fill="lightgray" stroke="black" points="472,-2015.4 328,-2015.4 328,-2011.4 324,-2011.4 324,-2007.4 328,-2007.4 328,-1987.4 324,-1987.4 324,-1983.4 328,-1983.4 328,-1979.4 472,-1979.4 472,-2015.4"/>
<polyline fill="none" stroke="black" points="328,-2011.4 332,-2011.4 332,-2007.4 328,-2007.4 "/>
<polyline fill="none" stroke="black" points="328,-1987.4 332,-1987.4 332,-1983.4 328,-1983.4 "/>
<text text-anchor="middle" x="400" y="-1993.7" font-family="Times,serif" font-size="14.00">POINT_TO_MESH</text>
</a>
</g>
</g>
<!-- COMMENT_8d13300+1&#45;&gt;CALL_8d16c20 -->
<g id="edge2" class="edge">
<title>COMMENT_8d13300+1&#45;&gt;CALL_8d16c20</title>
<path fill="none" stroke="black" d="M400,-2051.2C400,-2043.11 400,-2034.16 400,-2025.95"/>
<polygon fill="black" stroke="black" points="403.5,-2025.73 400,-2015.73 396.5,-2025.73 403.5,-2025.73"/>
</g>
<!-- COMMENT_8d18760+1 -->
<g id="node4" class="node">
<title>COMMENT_8d18760+1</title>
<polygon fill="none" stroke="black" points="598.5,-1943.4 195.5,-1943.4 195.5,-1907.4 604.5,-1907.4 604.5,-1937.4 598.5,-1943.4"/>
<polyline fill="none" stroke="black" points="598.5,-1943.4 598.5,-1937.4 "/>
<polyline fill="none" stroke="black" points="604.5,-1937.4 598.5,-1937.4 "/>
<text text-anchor="middle" x="400" y="-1921.7" font-family="Times,serif" font-size="14.00">Check to see if an obstacle is to be removed or created</text>
</g>
<!-- CALL_8d16c20&#45;&gt;COMMENT_8d18760+1 -->
<g id="edge3" class="edge">
<title>CALL_8d16c20&#45;&gt;COMMENT_8d18760+1</title>
<path fill="none" stroke="black" d="M400,-1979.1C400,-1971.38 400,-1962.11 400,-1953.51"/>
<polygon fill="black" stroke="black" points="403.5,-1953.5 400,-1943.5 396.5,-1953.5 403.5,-1953.5"/>
</g>
<!-- beginDO_DO_8d5bf80 -->
<g id="node5" class="node">
<title>beginDO_DO_8d5bf80</title>
<ellipse fill="black" stroke="black" cx="400" cy="-1868.04" rx="0.36" ry="0.36"/>
</g>
<!-- COMMENT_8d18760+1&#45;&gt;beginDO_DO_8d5bf80 -->
<g id="edge41" class="edge">
<title>COMMENT_8d18760+1&#45;&gt;beginDO_DO_8d5bf80</title>
<path fill="none" stroke="black" d="M400,-1907.19C400,-1891.44 400,-1870.4 400,-1869.1"/>
</g>
<!-- COMMENT_8d1ad60+1 -->
<g id="node7" class="node">
<title>COMMENT_8d1ad60+1</title>
<polygon fill="none" stroke="black" points="525.5,-1831.68 268.5,-1831.68 268.5,-1795.68 531.5,-1795.68 531.5,-1825.68 525.5,-1831.68"/>
<polyline fill="none" stroke="black" points="525.5,-1831.68 525.5,-1825.68 "/>
<polyline fill="none" stroke="black" points="531.5,-1825.68 525.5,-1825.68 "/>
<text text-anchor="middle" x="400" y="-1809.98" font-family="Times,serif" font-size="14.00">Over&#45;ride DEVICE/CONTROL logic</text>
</g>
<!-- beginDO_DO_8d5bf80&#45;&gt;COMMENT_8d1ad60+1 -->
<g id="edge4" class="edge">
<title>beginDO_DO_8d5bf80&#45;&gt;COMMENT_8d1ad60+1</title>
<path fill="none" stroke="black" d="M400,-1867.53C400,-1866.05 400,-1854 400,-1841.78"/>
<polygon fill="black" stroke="black" points="403.5,-1841.7 400,-1831.7 396.5,-1841.7 403.5,-1841.7"/>
</g>
<!-- endDO_DO_8d5bf80 -->
<g id="node6" class="node">
<title>endDO_DO_8d5bf80</title>
<ellipse fill="black" stroke="black" cx="552" cy="-727.8" rx="0.36" ry="0.36"/>
</g>
<!-- COMMENT_8d5e940+1 -->
<g id="node38" class="node">
<title>COMMENT_8d5e940+1</title>
<polygon fill="none" stroke="black" points="757,-691.44 341,-691.44 341,-655.44 763,-655.44 763,-685.44 757,-691.44"/>
<polyline fill="none" stroke="black" points="757,-691.44 757,-685.44 "/>
<polyline fill="none" stroke="black" points="763,-685.44 757,-685.44 "/>
<text text-anchor="middle" x="552" y="-669.74" font-family="Times,serif" font-size="14.00">Check to see if a vent should be activated or deactivated</text>
</g>
<!-- endDO_DO_8d5bf80&#45;&gt;COMMENT_8d5e940+1 -->
<g id="edge43" class="edge">
<title>endDO_DO_8d5bf80&#45;&gt;COMMENT_8d5e940+1</title>
<path fill="none" stroke="black" d="M552,-726.65C552,-725.21 552,-713.67 552,-701.8"/>
<polygon fill="black" stroke="black" points="555.5,-701.54 552,-691.54 548.5,-701.54 555.5,-701.54"/>
</g>
<!-- beginIf_IF_8d4ddc0 -->
<g id="node8" class="node">
<title>beginIf_IF_8d4ddc0</title>
<ellipse fill="black" stroke="black" cx="400" cy="-1756.32" rx="0.36" ry="0.36"/>
</g>
<!-- COMMENT_8d1ad60+1&#45;&gt;beginIf_IF_8d4ddc0 -->
<g id="edge35" class="edge">
<title>COMMENT_8d1ad60+1&#45;&gt;beginIf_IF_8d4ddc0</title>
<path fill="none" stroke="black" d="M400,-1795.47C400,-1779.72 400,-1758.68 400,-1757.38"/>
</g>
<!-- Empty_8d1bf40 -->
<g id="node10" class="node">
<title>Empty_8d1bf40</title>
<ellipse fill="none" stroke="black" cx="273" cy="-1685.6" rx="84.49" ry="18"/>
<text text-anchor="middle" x="273" y="-1681.9" font-family="Times,serif" font-size="14.00">Empty_8d1bf40</text>
</g>
<!-- beginIf_IF_8d4ddc0&#45;&gt;Empty_8d1bf40 -->
<g id="edge5" class="edge">
<title>beginIf_IF_8d4ddc0&#45;&gt;Empty_8d1bf40</title>
<path fill="none" stroke="black" d="M399.85,-1755.92C398.37,-1755.52 386.21,-1752.23 377,-1747.96 352.31,-1736.52 325.92,-1720.91 305.91,-1708.29"/>
<polygon fill="black" stroke="black" points="307.78,-1705.34 297.46,-1702.92 304.02,-1711.24 307.78,-1705.34"/>
</g>
<!-- beginIf_IF_8d4db00 -->
<g id="node11" class="node">
<title>beginIf_IF_8d4db00</title>
<ellipse fill="black" stroke="black" cx="694" cy="-1685.6" rx="0.36" ry="0.36"/>
</g>
<!-- beginIf_IF_8d4ddc0&#45;&gt;beginIf_IF_8d4db00 -->
<g id="edge33" class="edge">
<title>beginIf_IF_8d4ddc0&#45;&gt;beginIf_IF_8d4db00</title>
<path fill="none" stroke="black" d="M400.05,-1755.95C404.08,-1755 633.51,-1700.87 684.17,-1688.92"/>
<polygon fill="black" stroke="black" points="685.02,-1692.32 693.95,-1686.61 683.41,-1685.5 685.02,-1692.32"/>
</g>
<!-- endIf_IF_8d4ddc0 -->
<g id="node9" class="node">
<title>endIf_IF_8d4ddc0</title>
<ellipse fill="black" stroke="black" cx="552" cy="-1124.52" rx="0.36" ry="0.36"/>
</g>
<!-- CALL_8d52580 -->
<g id="node33" class="node">
<title>CALL_8d52580</title>
<g id="a_node33"><a xlink:href="CREATE_OR_REMOVE_OBST.svg" xlink:title="CREATE_OR_REMOVE_OBST">
<polygon fill="lightgray" stroke="black" points="665,-1088.16 439,-1088.16 439,-1084.16 435,-1084.16 435,-1080.16 439,-1080.16 439,-1060.16 435,-1060.16 435,-1056.16 439,-1056.16 439,-1052.16 665,-1052.16 665,-1088.16"/>
<polyline fill="none" stroke="black" points="439,-1084.16 443,-1084.16 443,-1080.16 439,-1080.16 "/>
<polyline fill="none" stroke="black" points="439,-1060.16 443,-1060.16 443,-1056.16 439,-1056.16 "/>
<text text-anchor="middle" x="552" y="-1066.46" font-family="Times,serif" font-size="14.00">CREATE_OR_REMOVE_OBST</text>
</a>
</g>
</g>
<!-- endIf_IF_8d4ddc0&#45;&gt;CALL_8d52580 -->
<g id="edge36" class="edge">
<title>endIf_IF_8d4ddc0&#45;&gt;CALL_8d52580</title>
<path fill="none" stroke="black" d="M552,-1123.37C552,-1121.93 552,-1110.39 552,-1098.52"/>
<polygon fill="black" stroke="black" points="555.5,-1098.26 552,-1088.26 548.5,-1098.26 555.5,-1098.26"/>
</g>
<!-- Empty_8d1bf40&#45;&gt;endIf_IF_8d4ddc0 -->
<g id="edge6" class="edge">
<title>Empty_8d1bf40&#45;&gt;endIf_IF_8d4ddc0</title>
<path fill="none" stroke="black" d="M282.76,-1667.3C296.26,-1641.7 319,-1591.8 319,-1546.24 319,-1546.24 319,-1546.24 319,-1197.38 319,-1162.65 345.35,-1159.32 377,-1145.02 412.11,-1129.15 547.67,-1125.01 551.9,-1124.88"/>
</g>
<!-- COMMENT_8d1c520+1 -->
<g id="node13" class="node">
<title>COMMENT_8d1c520+1</title>
<polygon fill="none" stroke="black" points="783,-1620.6 599,-1620.6 599,-1584.6 789,-1584.6 789,-1614.6 783,-1620.6"/>
<polyline fill="none" stroke="black" points="783,-1620.6 783,-1614.6 "/>
<polyline fill="none" stroke="black" points="789,-1614.6 783,-1614.6 "/>
<text text-anchor="middle" x="694" y="-1598.9" font-family="Times,serif" font-size="14.00">Set initial state of OBST</text>
</g>
<!-- beginIf_IF_8d4db00&#45;&gt;COMMENT_8d1c520+1 -->
<g id="edge18" class="edge">
<title>beginIf_IF_8d4db00&#45;&gt;COMMENT_8d1c520+1</title>
<path fill="none" stroke="black" d="M694,-1684.54C694,-1683.06 694,-1653.88 694,-1630.97"/>
<polygon fill="black" stroke="black" points="697.5,-1630.7 694,-1620.7 690.5,-1630.7 697.5,-1630.7"/>
</g>
<!-- COMMENT_8d27320+1 -->
<g id="node23" class="node">
<title>COMMENT_8d27320+1</title>
<polygon fill="none" stroke="black" points="1896.5,-1620.6 1549.5,-1620.6 1549.5,-1584.6 1902.5,-1584.6 1902.5,-1614.6 1896.5,-1620.6"/>
<polyline fill="none" stroke="black" points="1896.5,-1620.6 1896.5,-1614.6 "/>
<polyline fill="none" stroke="black" points="1902.5,-1614.6 1896.5,-1614.6 "/>
<text text-anchor="middle" x="1726" y="-1598.9" font-family="Times,serif" font-size="14.00">Decide if a DEVICE/CONTROL action is needed</text>
</g>
<!-- beginIf_IF_8d4db00&#45;&gt;COMMENT_8d27320+1 -->
<g id="edge31" class="edge">
<title>beginIf_IF_8d4db00&#45;&gt;COMMENT_8d27320+1</title>
<path fill="none" stroke="black" d="M694.12,-1684.6C704.24,-1684.5 1352.91,-1678.28 1537,-1651.6 1579.11,-1645.5 1625.43,-1633.82 1661.67,-1623.51"/>
<polygon fill="black" stroke="black" points="1662.97,-1626.77 1671.61,-1620.64 1661.04,-1620.05 1662.97,-1626.77"/>
</g>
<!-- endIf_IF_8d4db00 -->
<g id="node12" class="node">
<title>endIf_IF_8d4db00</title>
<ellipse fill="black" stroke="black" cx="583" cy="-1161.38" rx="0.36" ry="0.36"/>
</g>
<!-- endIf_IF_8d4db00&#45;&gt;endIf_IF_8d4ddc0 -->
<g id="edge34" class="edge">
<title>endIf_IF_8d4db00&#45;&gt;endIf_IF_8d4ddc0</title>
<path fill="none" stroke="black" d="M583,-1160.27C582.98,-1159.21 582.69,-1150.51 579,-1145.02 570.9,-1132.99 553.16,-1125.37 552.05,-1124.9"/>
</g>
<!-- beginIf_IF_8d2d400 -->
<g id="node14" class="node">
<title>beginIf_IF_8d2d400</title>
<ellipse fill="black" stroke="black" cx="694" cy="-1545.24" rx="0.36" ry="0.36"/>
</g>
<!-- COMMENT_8d1c520+1&#45;&gt;beginIf_IF_8d2d400 -->
<g id="edge17" class="edge">
<title>COMMENT_8d1c520+1&#45;&gt;beginIf_IF_8d2d400</title>
<path fill="none" stroke="black" d="M694,-1584.39C694,-1568.64 694,-1547.6 694,-1546.3"/>
</g>
<!-- COMMENT_8d152e0+1 -->
<g id="node16" class="node">
<title>COMMENT_8d152e0+1</title>
<polygon fill="none" stroke="black" points="573.5,-1505.74 412.5,-1505.74 412.5,-1469.74 579.5,-1469.74 579.5,-1499.74 573.5,-1505.74"/>
<polyline fill="none" stroke="black" points="573.5,-1505.74 573.5,-1499.74 "/>
<polyline fill="none" stroke="black" points="579.5,-1499.74 573.5,-1499.74 "/>
<text text-anchor="middle" x="496" y="-1484.04" font-family="Times,serif" font-size="14.00">!OBST is not a HOLE</text>
</g>
<!-- beginIf_IF_8d2d400&#45;&gt;COMMENT_8d152e0+1 -->
<g id="edge7" class="edge">
<title>beginIf_IF_8d2d400&#45;&gt;COMMENT_8d152e0+1</title>
<path fill="none" stroke="black" d="M693.94,-1544.74C691.49,-1544.68 612.76,-1542.83 591,-1536.74 570.43,-1530.99 549.07,-1520.64 531.82,-1511.03"/>
<polygon fill="black" stroke="black" points="533.11,-1507.73 522.69,-1505.79 529.63,-1513.8 533.11,-1507.73"/>
</g>
<!-- COMMENT_8d14e80+1 -->
<g id="node17" class="node">
<title>COMMENT_8d14e80+1</title>
<polygon fill="none" stroke="black" points="1138.5,-1505.74 641.5,-1505.74 641.5,-1469.74 1144.5,-1469.74 1144.5,-1499.74 1138.5,-1505.74"/>
<polyline fill="none" stroke="black" points="1138.5,-1505.74 1138.5,-1499.74 "/>
<polyline fill="none" stroke="black" points="1144.5,-1499.74 1138.5,-1499.74 "/>
<text text-anchor="middle" x="893" y="-1484.04" font-family="Times,serif" font-size="14.00">!OBST is a HOLE. &#160;CREATE/REMOVE also depends on parent OBST.</text>
</g>
<!-- beginIf_IF_8d2d400&#45;&gt;COMMENT_8d14e80+1 -->
<g id="edge15" class="edge">
<title>beginIf_IF_8d2d400&#45;&gt;COMMENT_8d14e80+1</title>
<path fill="none" stroke="black" d="M694.14,-1544.7C697.71,-1543.69 766.83,-1524.24 822.59,-1508.55"/>
<polygon fill="black" stroke="black" points="823.79,-1511.85 832.47,-1505.77 821.9,-1505.11 823.79,-1511.85"/>
</g>
<!-- endIf_IF_8d2d400 -->
<g id="node15" class="node">
<title>endIf_IF_8d2d400</title>
<ellipse fill="black" stroke="black" cx="583" cy="-1198.38" rx="0.36" ry="0.36"/>
</g>
<!-- endIf_IF_8d2d400&#45;&gt;endIf_IF_8d4db00 -->
<g id="edge19" class="edge">
<title>endIf_IF_8d2d400&#45;&gt;endIf_IF_8d4db00</title>
<path fill="none" stroke="black" d="M583,-1197.28C583,-1195.26 583,-1163.93 583,-1161.98"/>
</g>
<!-- COMMENT_8d152e0+1&#45;&gt;endIf_IF_8d2d400 -->
<g id="edge8" class="edge">
<title>COMMENT_8d152e0+1&#45;&gt;endIf_IF_8d2d400</title>
<path fill="none" stroke="black" d="M534.66,-1469.67C540.72,-1465.33 546.22,-1460.06 550,-1453.74 570.09,-1420.18 555,-1404.99 555,-1365.88 555,-1365.88 555,-1365.88 555,-1288.88 555,-1248.3 581.28,-1201.88 582.92,-1199.02"/>
</g>
<!-- beginIf_IF_8d2d180 -->
<g id="node18" class="node">
<title>beginIf_IF_8d2d180</title>
<ellipse fill="black" stroke="black" cx="930" cy="-1422.38" rx="0.36" ry="0.36"/>
</g>
<!-- COMMENT_8d14e80+1&#45;&gt;beginIf_IF_8d2d180 -->
<g id="edge14" class="edge">
<title>COMMENT_8d14e80+1&#45;&gt;beginIf_IF_8d2d180</title>
<path fill="none" stroke="black" d="M914.28,-1469.64C918.84,-1464.96 923.13,-1459.55 926,-1453.74 931.83,-1441.92 930.12,-1424.51 930.01,-1423.43"/>
</g>
<!-- COMMENT_8d1eca0+1 -->
<g id="node20" class="node">
<title>COMMENT_8d1eca0+1</title>
<polygon fill="none" stroke="black" points="1234.5,-1382.88 619.5,-1382.88 619.5,-1346.88 1240.5,-1346.88 1240.5,-1376.88 1234.5,-1382.88"/>
<polyline fill="none" stroke="black" points="1234.5,-1382.88 1234.5,-1376.88 "/>
<polyline fill="none" stroke="black" points="1240.5,-1376.88 1234.5,-1376.88 "/>
<text text-anchor="middle" x="930" y="-1361.18" font-family="Times,serif" font-size="14.00">!Parent OBST controllable, check state and if parent OBST is hidden, do not fill hole.</text>
</g>
<!-- beginIf_IF_8d2d180&#45;&gt;COMMENT_8d1eca0+1 -->
<g id="edge10" class="edge">
<title>beginIf_IF_8d2d180&#45;&gt;COMMENT_8d1eca0+1</title>
<path fill="none" stroke="black" d="M930,-1421.72C930,-1420.09 930,-1406.4 930,-1392.98"/>
<polygon fill="black" stroke="black" points="933.5,-1392.98 930,-1382.98 926.5,-1392.98 933.5,-1392.98"/>
</g>
<!-- COMMENT_8d27e60+1 -->
<g id="node22" class="node">
<title>COMMENT_8d27e60+1</title>
<polygon fill="none" stroke="black" points="1486.5,-1307.88 1265.5,-1307.88 1265.5,-1271.88 1492.5,-1271.88 1492.5,-1301.88 1486.5,-1307.88"/>
<polyline fill="none" stroke="black" points="1486.5,-1307.88 1486.5,-1301.88 "/>
<polyline fill="none" stroke="black" points="1492.5,-1301.88 1486.5,-1301.88 "/>
<text text-anchor="middle" x="1379" y="-1286.18" font-family="Times,serif" font-size="14.00">!Parent OBST always present</text>
</g>
<!-- beginIf_IF_8d2d180&#45;&gt;COMMENT_8d27e60+1 -->
<g id="edge12" class="edge">
<title>beginIf_IF_8d2d180&#45;&gt;COMMENT_8d27e60+1</title>
<path fill="none" stroke="black" d="M930.06,-1421.88C934.77,-1421.86 1236.59,-1420.8 1253,-1413.88 1300.94,-1393.66 1340.83,-1345.96 1362.18,-1316.26"/>
<polygon fill="black" stroke="black" points="1365.08,-1318.23 1367.95,-1308.03 1359.35,-1314.21 1365.08,-1318.23"/>
</g>
<!-- endIf_IF_8d2d180 -->
<g id="node19" class="node">
<title>endIf_IF_8d2d180</title>
<ellipse fill="black" stroke="black" cx="930" cy="-1235.38" rx="0.36" ry="0.36"/>
</g>
<!-- endIf_IF_8d2d180&#45;&gt;endIf_IF_8d2d400 -->
<g id="edge16" class="edge">
<title>endIf_IF_8d2d180&#45;&gt;endIf_IF_8d2d400</title>
<path fill="none" stroke="black" d="M930.01,-1234.26C930.15,-1233.04 931.11,-1223.22 926,-1219.02 896.72,-1194.99 587.88,-1198.82 583.06,-1198.88"/>
</g>
<!-- COMMENT_8d21720+1 -->
<g id="node21" class="node">
<title>COMMENT_8d21720+1</title>
<polygon fill="none" stroke="black" points="1163,-1307.88 691,-1307.88 691,-1271.88 1169,-1271.88 1169,-1301.88 1163,-1307.88"/>
<polyline fill="none" stroke="black" points="1163,-1307.88 1163,-1301.88 "/>
<polyline fill="none" stroke="black" points="1169,-1301.88 1163,-1301.88 "/>
<text text-anchor="middle" x="930" y="-1286.18" font-family="Times,serif" font-size="14.00">!If parent OBST is visible, check to see if hole needs to be made.</text>
</g>
<!-- COMMENT_8d1eca0+1&#45;&gt;COMMENT_8d21720+1 -->
<g id="edge9" class="edge">
<title>COMMENT_8d1eca0+1&#45;&gt;COMMENT_8d21720+1</title>
<path fill="none" stroke="black" d="M930,-1346.58C930,-1338.13 930,-1327.75 930,-1318.25"/>
<polygon fill="black" stroke="black" points="933.5,-1318.06 930,-1308.06 926.5,-1318.06 933.5,-1318.06"/>
</g>
<!-- COMMENT_8d21720+1&#45;&gt;endIf_IF_8d2d180 -->
<g id="edge11" class="edge">
<title>COMMENT_8d21720+1&#45;&gt;endIf_IF_8d2d180</title>
<path fill="none" stroke="black" d="M930,-1271.82C930,-1256.81 930,-1237.15 930,-1235.94"/>
</g>
<!-- COMMENT_8d27e60+1&#45;&gt;endIf_IF_8d2d180 -->
<g id="edge13" class="edge">
<title>COMMENT_8d27e60+1&#45;&gt;endIf_IF_8d2d180</title>
<path fill="none" stroke="black" d="M1300.25,-1271.88C1284.65,-1268.9 1268.35,-1266.06 1253,-1263.88 1112.57,-1243.92 935.63,-1236.12 930.13,-1235.89"/>
</g>
<!-- beginIf_IF_8d4d940 -->
<g id="node24" class="node">
<title>beginIf_IF_8d4d940</title>
<ellipse fill="black" stroke="black" cx="1726" cy="-1545.24" rx="0.36" ry="0.36"/>
</g>
<!-- COMMENT_8d27320+1&#45;&gt;beginIf_IF_8d4d940 -->
<g id="edge30" class="edge">
<title>COMMENT_8d27320+1&#45;&gt;beginIf_IF_8d4d940</title>
<path fill="none" stroke="black" d="M1726,-1584.39C1726,-1568.64 1726,-1547.6 1726,-1546.3"/>
</g>
<!-- COMMENT_8d2d5a0+1 -->
<g id="node26" class="node">
<title>COMMENT_8d2d5a0+1</title>
<polygon fill="none" stroke="black" points="1725.5,-1505.74 1564.5,-1505.74 1564.5,-1469.74 1731.5,-1469.74 1731.5,-1499.74 1725.5,-1505.74"/>
<polyline fill="none" stroke="black" points="1725.5,-1505.74 1725.5,-1499.74 "/>
<polyline fill="none" stroke="black" points="1731.5,-1499.74 1725.5,-1499.74 "/>
<text text-anchor="middle" x="1648" y="-1484.04" font-family="Times,serif" font-size="14.00">!OBST is not a HOLE</text>
</g>
<!-- beginIf_IF_8d4d940&#45;&gt;COMMENT_8d2d5a0+1 -->
<g id="edge20" class="edge">
<title>beginIf_IF_8d4d940&#45;&gt;COMMENT_8d2d5a0+1</title>
<path fill="none" stroke="black" d="M1725.94,-1544.7C1724.65,-1543.77 1701.25,-1526.97 1680.43,-1512.03"/>
<polygon fill="black" stroke="black" points="1682.2,-1508.99 1672.04,-1506 1678.12,-1514.67 1682.2,-1508.99"/>
</g>
<!-- COMMENT_8d2c780+1 -->
<g id="node27" class="node">
<title>COMMENT_8d2c780+1</title>
<polygon fill="none" stroke="black" points="2290.5,-1505.74 1793.5,-1505.74 1793.5,-1469.74 2296.5,-1469.74 2296.5,-1499.74 2290.5,-1505.74"/>
<polyline fill="none" stroke="black" points="2290.5,-1505.74 2290.5,-1499.74 "/>
<polyline fill="none" stroke="black" points="2296.5,-1499.74 2290.5,-1499.74 "/>
<text text-anchor="middle" x="2045" y="-1484.04" font-family="Times,serif" font-size="14.00">!OBST is a HOLE. &#160;CREATE/REMOVE also depends on parent OBST.</text>
</g>
<!-- beginIf_IF_8d4d940&#45;&gt;COMMENT_8d2c780+1 -->
<g id="edge28" class="edge">
<title>beginIf_IF_8d4d940&#45;&gt;COMMENT_8d2c780+1</title>
<path fill="none" stroke="black" d="M1726.06,-1544.73C1729.04,-1544.21 1846.56,-1523.58 1938.08,-1507.51"/>
<polygon fill="black" stroke="black" points="1938.73,-1510.95 1947.97,-1505.77 1937.52,-1504.06 1938.73,-1510.95"/>
</g>
<!-- endIf_IF_8d4d940 -->
<g id="node25" class="node">
<title>endIf_IF_8d4d940</title>
<ellipse fill="black" stroke="black" cx="1648" cy="-1198.38" rx="0.36" ry="0.36"/>
</g>
<!-- endIf_IF_8d4d940&#45;&gt;endIf_IF_8d4db00 -->
<g id="edge32" class="edge">
<title>endIf_IF_8d4d940&#45;&gt;endIf_IF_8d4db00</title>
<path fill="none" stroke="black" d="M1647.95,-1197.37C1645.95,-1197.03 1581.35,-1185.94 1529,-1182.02 1320.96,-1166.42 594.47,-1161.95 583.13,-1161.88"/>
</g>
<!-- COMMENT_8d2d5a0+1&#45;&gt;endIf_IF_8d4d940 -->
<g id="edge21" class="edge">
<title>COMMENT_8d2d5a0+1&#45;&gt;endIf_IF_8d4d940</title>
<path fill="none" stroke="black" d="M1648,-1469.53C1648,-1446.09 1648,-1402.81 1648,-1365.88 1648,-1365.88 1648,-1365.88 1648,-1288.88 1648,-1250.13 1648,-1202 1648,-1199.02"/>
</g>
<!-- beginIf_IF_8d4d680 -->
<g id="node28" class="node">
<title>beginIf_IF_8d4d680</title>
<ellipse fill="black" stroke="black" cx="2082" cy="-1422.38" rx="0.36" ry="0.36"/>
</g>
<!-- COMMENT_8d2c780+1&#45;&gt;beginIf_IF_8d4d680 -->
<g id="edge27" class="edge">
<title>COMMENT_8d2c780+1&#45;&gt;beginIf_IF_8d4d680</title>
<path fill="none" stroke="black" d="M2066.28,-1469.64C2070.84,-1464.96 2075.13,-1459.55 2078,-1453.74 2083.83,-1441.92 2082.12,-1424.51 2082.01,-1423.43"/>
</g>
<!-- COMMENT_8d34200+1 -->
<g id="node30" class="node">
<title>COMMENT_8d34200+1</title>
<polygon fill="none" stroke="black" points="2386.5,-1382.88 1771.5,-1382.88 1771.5,-1346.88 2392.5,-1346.88 2392.5,-1376.88 2386.5,-1382.88"/>
<polyline fill="none" stroke="black" points="2386.5,-1382.88 2386.5,-1376.88 "/>
<polyline fill="none" stroke="black" points="2392.5,-1376.88 2386.5,-1376.88 "/>
<text text-anchor="middle" x="2082" y="-1361.18" font-family="Times,serif" font-size="14.00">!Parent OBST controllable, check state and if parent OBST is hidden, do not fill hole.</text>
</g>
<!-- beginIf_IF_8d4d680&#45;&gt;COMMENT_8d34200+1 -->
<g id="edge23" class="edge">
<title>beginIf_IF_8d4d680&#45;&gt;COMMENT_8d34200+1</title>
<path fill="none" stroke="black" d="M2082,-1421.72C2082,-1420.09 2082,-1406.4 2082,-1392.98"/>
<polygon fill="black" stroke="black" points="2085.5,-1392.98 2082,-1382.98 2078.5,-1392.98 2085.5,-1392.98"/>
</g>
<!-- COMMENT_8d44e60+1 -->
<g id="node32" class="node">
<title>COMMENT_8d44e60+1</title>
<polygon fill="none" stroke="black" points="2803,-1307.88 2417,-1307.88 2417,-1271.88 2809,-1271.88 2809,-1301.88 2803,-1307.88"/>
<polyline fill="none" stroke="black" points="2803,-1307.88 2803,-1301.88 "/>
<polyline fill="none" stroke="black" points="2809,-1301.88 2803,-1301.88 "/>
<text text-anchor="middle" x="2613" y="-1286.18" font-family="Times,serif" font-size="14.00">!Parent OBST not controllable and is always present</text>
</g>
<!-- beginIf_IF_8d4d680&#45;&gt;COMMENT_8d44e60+1 -->
<g id="edge25" class="edge">
<title>beginIf_IF_8d4d680&#45;&gt;COMMENT_8d44e60+1</title>
<path fill="none" stroke="black" d="M2082.05,-1421.88C2086.49,-1421.91 2370.76,-1423.7 2405,-1413.88 2475.29,-1393.71 2546.3,-1343.98 2584.45,-1314.3"/>
<polygon fill="black" stroke="black" points="2586.85,-1316.87 2592.53,-1307.93 2582.51,-1311.37 2586.85,-1316.87"/>
</g>
<!-- endIf_IF_8d4d680 -->
<g id="node29" class="node">
<title>endIf_IF_8d4d680</title>
<ellipse fill="black" stroke="black" cx="2082" cy="-1235.38" rx="0.36" ry="0.36"/>
</g>
<!-- endIf_IF_8d4d680&#45;&gt;endIf_IF_8d4d940 -->
<g id="edge29" class="edge">
<title>endIf_IF_8d4d680&#45;&gt;endIf_IF_8d4d940</title>
<path fill="none" stroke="black" d="M2082.02,-1234.26C2082.16,-1233.04 2083.14,-1223.19 2078,-1219.02 2059.57,-1204.07 1654.4,-1198.96 1648.07,-1198.88"/>
</g>
<!-- COMMENT_8d35300+1 -->
<g id="node31" class="node">
<title>COMMENT_8d35300+1</title>
<polygon fill="none" stroke="black" points="2315,-1307.88 1843,-1307.88 1843,-1271.88 2321,-1271.88 2321,-1301.88 2315,-1307.88"/>
<polyline fill="none" stroke="black" points="2315,-1307.88 2315,-1301.88 "/>
<polyline fill="none" stroke="black" points="2321,-1301.88 2315,-1301.88 "/>
<text text-anchor="middle" x="2082" y="-1286.18" font-family="Times,serif" font-size="14.00">!If parent OBST is visible, check to see if hole needs to be made.</text>
</g>
<!-- COMMENT_8d34200+1&#45;&gt;COMMENT_8d35300+1 -->
<g id="edge22" class="edge">
<title>COMMENT_8d34200+1&#45;&gt;COMMENT_8d35300+1</title>
<path fill="none" stroke="black" d="M2082,-1346.58C2082,-1338.13 2082,-1327.75 2082,-1318.25"/>
<polygon fill="black" stroke="black" points="2085.5,-1318.06 2082,-1308.06 2078.5,-1318.06 2085.5,-1318.06"/>
</g>
<!-- COMMENT_8d35300+1&#45;&gt;endIf_IF_8d4d680 -->
<g id="edge24" class="edge">
<title>COMMENT_8d35300+1&#45;&gt;endIf_IF_8d4d680</title>
<path fill="none" stroke="black" d="M2082,-1271.82C2082,-1256.81 2082,-1237.15 2082,-1235.94"/>
</g>
<!-- COMMENT_8d44e60+1&#45;&gt;endIf_IF_8d4d680 -->
<g id="edge26" class="edge">
<title>COMMENT_8d44e60+1&#45;&gt;endIf_IF_8d4d680</title>
<path fill="none" stroke="black" d="M2476.85,-1271.86C2452.92,-1269.06 2428.24,-1266.28 2405,-1263.88 2263.91,-1249.29 2087.61,-1236.29 2082.13,-1235.89"/>
</g>
<!-- CALL_8d58760 -->
<g id="node34" class="node">
<title>CALL_8d58760</title>
<g id="a_node34"><a xlink:href="CREATE_OR_REMOVE_OBST.svg" xlink:title="CREATE_OR_REMOVE_OBST">
<polygon fill="lightgray" stroke="black" points="665,-1016.16 439,-1016.16 439,-1012.16 435,-1012.16 435,-1008.16 439,-1008.16 439,-988.16 435,-988.16 435,-984.16 439,-984.16 439,-980.16 665,-980.16 665,-1016.16"/>
<polyline fill="none" stroke="black" points="439,-1012.16 443,-1012.16 443,-1008.16 439,-1008.16 "/>
<polyline fill="none" stroke="black" points="439,-988.16 443,-988.16 443,-984.16 439,-984.16 "/>
<text text-anchor="middle" x="552" y="-994.46" font-family="Times,serif" font-size="14.00">CREATE_OR_REMOVE_OBST</text>
</a>
</g>
</g>
<!-- CALL_8d52580&#45;&gt;CALL_8d58760 -->
<g id="edge37" class="edge">
<title>CALL_8d52580&#45;&gt;CALL_8d58760</title>
<path fill="none" stroke="black" d="M552,-1051.86C552,-1044.14 552,-1034.87 552,-1026.27"/>
<polygon fill="black" stroke="black" points="555.5,-1026.26 552,-1016.26 548.5,-1026.26 555.5,-1026.26"/>
</g>
<!-- COMMENT_8d34480+1 -->
<g id="node35" class="node">
<title>COMMENT_8d34480+1</title>
<polygon fill="none" stroke="black" points="892,-944.16 206,-944.16 206,-908.16 898,-908.16 898,-938.16 892,-944.16"/>
<polyline fill="none" stroke="black" points="892,-944.16 892,-938.16 "/>
<polyline fill="none" stroke="black" points="898,-938.16 892,-938.16 "/>
<text text-anchor="middle" x="552" y="-922.46" font-family="Times,serif" font-size="14.00">Write a message to the Smokeview .smv file that the obstruction has been created or removed</text>
</g>
<!-- CALL_8d58760&#45;&gt;COMMENT_8d34480+1 -->
<g id="edge38" class="edge">
<title>CALL_8d58760&#45;&gt;COMMENT_8d34480+1</title>
<path fill="none" stroke="black" d="M552,-979.86C552,-972.14 552,-962.87 552,-954.27"/>
<polygon fill="black" stroke="black" points="555.5,-954.26 552,-944.26 548.5,-954.26 555.5,-954.26"/>
</g>
<!-- CALL_8d4e700 -->
<g id="node36" class="node">
<title>CALL_8d4e700</title>
<g id="a_node36"><a xlink:href="RE_ALLOCATE_STRINGS.svg" xlink:title="RE_ALLOCATE_STRINGS">
<polygon fill="lightgray" stroke="black" points="650.5,-872.16 453.5,-872.16 453.5,-868.16 449.5,-868.16 449.5,-864.16 453.5,-864.16 453.5,-844.16 449.5,-844.16 449.5,-840.16 453.5,-840.16 453.5,-836.16 650.5,-836.16 650.5,-872.16"/>
<polyline fill="none" stroke="black" points="453.5,-868.16 457.5,-868.16 457.5,-864.16 453.5,-864.16 "/>
<polyline fill="none" stroke="black" points="453.5,-844.16 457.5,-844.16 457.5,-840.16 453.5,-840.16 "/>
<text text-anchor="middle" x="552" y="-850.46" font-family="Times,serif" font-size="14.00">RE_ALLOCATE_STRINGS</text>
</a>
</g>
</g>
<!-- COMMENT_8d34480+1&#45;&gt;CALL_8d4e700 -->
<g id="edge39" class="edge">
<title>COMMENT_8d34480+1&#45;&gt;CALL_8d4e700</title>
<path fill="none" stroke="black" d="M552,-907.86C552,-900.14 552,-890.87 552,-882.27"/>
<polygon fill="black" stroke="black" points="555.5,-882.26 552,-872.26 548.5,-882.26 555.5,-882.26"/>
</g>
<!-- COMMENT_8d4d2c0+1 -->
<g id="node37" class="node">
<title>COMMENT_8d4d2c0+1</title>
<polygon fill="none" stroke="black" points="654.5,-800.16 443.5,-800.16 443.5,-764.16 660.5,-764.16 660.5,-794.16 654.5,-800.16"/>
<polyline fill="none" stroke="black" points="654.5,-800.16 654.5,-794.16 "/>
<polyline fill="none" stroke="black" points="660.5,-794.16 654.5,-794.16 "/>
<text text-anchor="middle" x="552" y="-778.46" font-family="Times,serif" font-size="14.00">If any REMOVE_OBST store</text>
</g>
<!-- CALL_8d4e700&#45;&gt;COMMENT_8d4d2c0+1 -->
<g id="edge40" class="edge">
<title>CALL_8d4e700&#45;&gt;COMMENT_8d4d2c0+1</title>
<path fill="none" stroke="black" d="M552,-835.86C552,-828.14 552,-818.87 552,-810.27"/>
<polygon fill="black" stroke="black" points="555.5,-810.26 552,-800.26 548.5,-810.26 555.5,-810.26"/>
</g>
<!-- COMMENT_8d4d2c0+1&#45;&gt;endDO_DO_8d5bf80 -->
<g id="edge42" class="edge">
<title>COMMENT_8d4d2c0+1&#45;&gt;endDO_DO_8d5bf80</title>
<path fill="none" stroke="black" d="M552,-764.1C552,-749.09 552,-729.43 552,-728.22"/>
</g>
<!-- COMMENT_8d5f580+1 -->
<g id="node39" class="node">
<title>COMMENT_8d5f580+1</title>
<polygon fill="none" stroke="black" points="623,-619.44 475,-619.44 475,-583.44 629,-583.44 629,-613.44 623,-619.44"/>
<polyline fill="none" stroke="black" points="623,-619.44 623,-613.44 "/>
<polyline fill="none" stroke="black" points="629,-613.44 623,-613.44 "/>
<text text-anchor="middle" x="552" y="-597.74" font-family="Times,serif" font-size="14.00">CVENT_INDEX = 0</text>
</g>
<!-- COMMENT_8d5e940+1&#45;&gt;COMMENT_8d5f580+1 -->
<g id="edge44" class="edge">
<title>COMMENT_8d5e940+1&#45;&gt;COMMENT_8d5f580+1</title>
<path fill="none" stroke="black" d="M552,-655.14C552,-647.42 552,-638.15 552,-629.55"/>
<polygon fill="black" stroke="black" points="555.5,-629.54 552,-619.54 548.5,-629.54 555.5,-629.54"/>
</g>
<!-- beginDO_DO_8d8f080 -->
<g id="node40" class="node">
<title>beginDO_DO_8d8f080</title>
<ellipse fill="black" stroke="black" cx="552" cy="-544.08" rx="0.36" ry="0.36"/>
</g>
<!-- COMMENT_8d5f580+1&#45;&gt;beginDO_DO_8d8f080 -->
<g id="edge51" class="edge">
<title>COMMENT_8d5f580+1&#45;&gt;beginDO_DO_8d8f080</title>
<path fill="none" stroke="black" d="M552,-583.23C552,-567.48 552,-546.44 552,-545.14"/>
</g>
<!-- COMMENT_8d64180+1 -->
<g id="node42" class="node">
<title>COMMENT_8d64180+1</title>
<polygon fill="none" stroke="black" points="677.5,-507.72 420.5,-507.72 420.5,-471.72 683.5,-471.72 683.5,-501.72 677.5,-507.72"/>
<polyline fill="none" stroke="black" points="677.5,-507.72 677.5,-501.72 "/>
<polyline fill="none" stroke="black" points="683.5,-501.72 677.5,-501.72 "/>
<text text-anchor="middle" x="552" y="-486.02" font-family="Times,serif" font-size="14.00">Over&#45;ride DEVICE/CONTROL logic</text>
</g>
<!-- beginDO_DO_8d8f080&#45;&gt;COMMENT_8d64180+1 -->
<g id="edge45" class="edge">
<title>beginDO_DO_8d8f080&#45;&gt;COMMENT_8d64180+1</title>
<path fill="none" stroke="black" d="M552,-543.57C552,-542.09 552,-530.04 552,-517.82"/>
<polygon fill="black" stroke="black" points="555.5,-517.74 552,-507.74 548.5,-517.74 555.5,-517.74"/>
</g>
<!-- endDO_DO_8d8f080 -->
<g id="node41" class="node">
<title>endDO_DO_8d8f080</title>
<ellipse fill="black" stroke="black" cx="552" cy="-73.36" rx="0.36" ry="0.36"/>
</g>
<!-- end_SUBPROGRAM_8d91520 -->
<g id="node48" class="node">
<title>end_SUBPROGRAM_8d91520</title>
<ellipse fill="black" stroke="black" cx="552" cy="-30" rx="7" ry="7"/>
</g>
<!-- endDO_DO_8d8f080&#45;&gt;end_SUBPROGRAM_8d91520 -->
<g id="edge53" class="edge">
<title>endDO_DO_8d8f080&#45;&gt;end_SUBPROGRAM_8d91520</title>
<path fill="none" stroke="black" d="M552,-72.24C552,-70.89 552,-58.27 552,-47.34"/>
<polygon fill="black" stroke="black" points="555.5,-47.1 552,-37.1 548.5,-47.1 555.5,-47.1"/>
</g>
<!-- COMMENT_8d602a0+1 -->
<g id="node43" class="node">
<title>COMMENT_8d602a0+1</title>
<polygon fill="none" stroke="black" points="989.5,-435.72 108.5,-435.72 108.5,-397.72 995.5,-397.72 995.5,-429.72 989.5,-435.72"/>
<polyline fill="none" stroke="black" points="989.5,-435.72 989.5,-429.72 "/>
<polyline fill="none" stroke="black" points="995.5,-429.72 989.5,-429.72 "/>
<text text-anchor="middle" x="552" y="-420.52" font-family="Times,serif" font-size="14.00">If the VENT is tied to a specific OBST, and the OBST is HIDDEN (not HIDDEN), and the VENT is activated (not activated),</text>
<text text-anchor="middle" x="552" y="-405.52" font-family="Times,serif" font-size="14.00">deactivate (activate) the vent.</text>
</g>
<!-- COMMENT_8d64180+1&#45;&gt;COMMENT_8d602a0+1 -->
<g id="edge46" class="edge">
<title>COMMENT_8d64180+1&#45;&gt;COMMENT_8d602a0+1</title>
<path fill="none" stroke="black" d="M552,-471.53C552,-463.83 552,-454.54 552,-445.87"/>
<polygon fill="black" stroke="black" points="555.5,-445.74 552,-435.74 548.5,-445.74 555.5,-445.74"/>
</g>
<!-- COMMENT_8d4b700+1 -->
<g id="node44" class="node">
<title>COMMENT_8d4b700+1</title>
<polygon fill="none" stroke="black" points="850,-361.72 248,-361.72 248,-325.72 856,-325.72 856,-355.72 850,-361.72"/>
<polyline fill="none" stroke="black" points="850,-361.72 850,-355.72 "/>
<polyline fill="none" stroke="black" points="856,-355.72 850,-355.72 "/>
<text text-anchor="middle" x="552" y="-340.02" font-family="Times,serif" font-size="14.00">Decide if a VENT is to activate or de&#45;activate based on a DEVICE or CONTROLLER</text>
</g>
<!-- COMMENT_8d602a0+1&#45;&gt;COMMENT_8d4b700+1 -->
<g id="edge47" class="edge">
<title>COMMENT_8d602a0+1&#45;&gt;COMMENT_8d4b700+1</title>
<path fill="none" stroke="black" d="M552,-397.44C552,-389.69 552,-380.51 552,-371.99"/>
<polygon fill="black" stroke="black" points="555.5,-371.72 552,-361.72 548.5,-371.72 555.5,-371.72"/>
</g>
<!-- COMMENT_8d703e0+1 -->
<g id="node45" class="node">
<title>COMMENT_8d703e0+1</title>
<polygon fill="none" stroke="black" points="880.5,-289.72 217.5,-289.72 217.5,-253.72 886.5,-253.72 886.5,-283.72 880.5,-289.72"/>
<polyline fill="none" stroke="black" points="880.5,-289.72 880.5,-283.72 "/>
<polyline fill="none" stroke="black" points="886.5,-283.72 880.5,-283.72 "/>
<text text-anchor="middle" x="552" y="-268.02" font-family="Times,serif" font-size="14.00">Find the wall indices (IW) for the vent and set the activation time (B1%T_IGN) for each one</text>
</g>
<!-- COMMENT_8d4b700+1&#45;&gt;COMMENT_8d703e0+1 -->
<g id="edge48" class="edge">
<title>COMMENT_8d4b700+1&#45;&gt;COMMENT_8d703e0+1</title>
<path fill="none" stroke="black" d="M552,-325.42C552,-317.7 552,-308.43 552,-299.83"/>
<polygon fill="black" stroke="black" points="555.5,-299.82 552,-289.82 548.5,-299.82 555.5,-299.82"/>
</g>
<!-- COMMENT_8d84ba0+1 -->
<g id="node46" class="node">
<title>COMMENT_8d84ba0+1</title>
<polygon fill="none" stroke="black" points="649,-217.72 449,-217.72 449,-181.72 655,-181.72 655,-211.72 649,-217.72"/>
<polyline fill="none" stroke="black" points="649,-217.72 649,-211.72 "/>
<polyline fill="none" stroke="black" points="655,-211.72 649,-211.72 "/>
<text text-anchor="middle" x="552" y="-196.02" font-family="Times,serif" font-size="14.00">Write message to .smv file</text>
</g>
<!-- COMMENT_8d703e0+1&#45;&gt;COMMENT_8d84ba0+1 -->
<g id="edge49" class="edge">
<title>COMMENT_8d703e0+1&#45;&gt;COMMENT_8d84ba0+1</title>
<path fill="none" stroke="black" d="M552,-253.42C552,-245.7 552,-236.43 552,-227.83"/>
<polygon fill="black" stroke="black" points="555.5,-227.82 552,-217.82 548.5,-227.82 555.5,-227.82"/>
</g>
<!-- CALL_8d87780 -->
<g id="node47" class="node">
<title>CALL_8d87780</title>
<g id="a_node47"><a xlink:href="RE_ALLOCATE_STRINGS.svg" xlink:title="RE_ALLOCATE_STRINGS">
<polygon fill="lightgray" stroke="black" points="650.5,-145.72 453.5,-145.72 453.5,-141.72 449.5,-141.72 449.5,-137.72 453.5,-137.72 453.5,-117.72 449.5,-117.72 449.5,-113.72 453.5,-113.72 453.5,-109.72 650.5,-109.72 650.5,-145.72"/>
<polyline fill="none" stroke="black" points="453.5,-141.72 457.5,-141.72 457.5,-137.72 453.5,-137.72 "/>
<polyline fill="none" stroke="black" points="453.5,-117.72 457.5,-117.72 457.5,-113.72 453.5,-113.72 "/>
<text text-anchor="middle" x="552" y="-124.02" font-family="Times,serif" font-size="14.00">RE_ALLOCATE_STRINGS</text>
</a>
</g>
</g>
<!-- COMMENT_8d84ba0+1&#45;&gt;CALL_8d87780 -->
<g id="edge50" class="edge">
<title>COMMENT_8d84ba0+1&#45;&gt;CALL_8d87780</title>
<path fill="none" stroke="black" d="M552,-181.42C552,-173.7 552,-164.43 552,-155.83"/>
<polygon fill="black" stroke="black" points="555.5,-155.82 552,-145.82 548.5,-155.82 555.5,-155.82"/>
</g>
<!-- CALL_8d87780&#45;&gt;endDO_DO_8d8f080 -->
<g id="edge52" class="edge">
<title>CALL_8d87780&#45;&gt;endDO_DO_8d8f080</title>
<path fill="none" stroke="black" d="M552,-109.66C552,-94.65 552,-74.99 552,-73.78"/>
</g>
</g>
</svg>
