<?xml version="1.0" encoding="UTF-8" standalone="no"?>
<!DOCTYPE svg PUBLIC "-//W3C//DTD SVG 1.1//EN"
 "http://www.w3.org/Graphics/SVG/1.1/DTD/svg11.dtd">
<!-- Generated by graphviz version 2.43.0 (0)
 -->
<!-- Title: OPEN_AND_CLOSE Pages: 1 -->
<svg width="2896pt" height="2016pt"
 viewBox="0.00 0.00 2896.00 2015.52" xmlns="http://www.w3.org/2000/svg" xmlns:xlink="http://www.w3.org/1999/xlink">
<g id="graph0" class="graph" transform="scale(1 1) rotate(0) translate(4 2011.52)">
<title>OPEN_AND_CLOSE</title>
<polygon fill="white" stroke="transparent" points="-4,4 -4,-2011.52 2892,-2011.52 2892,4 -4,4"/>
<text text-anchor="middle" x="1444" y="-7.8" font-family="Times,serif" font-size="14.00">OPEN_AND_CLOSE</text>
<g id="clust1" class="cluster">
<title>cluster_OBST_LOOP</title>
<polygon fill="none" stroke="orange" points="166,-646 166,-1752.52 2880,-1752.52 2880,-646 166,-646"/>
<text text-anchor="middle" x="218.5" y="-1737.32" font-family="Times,serif" font-size="14.00">OBST_LOOP</text>
</g>
<g id="clust2" class="cluster">
<title>cluster_CREATE_REMOVE_IF</title>
<polygon fill="none" stroke="blue" points="174,-1006 174,-1677.52 2872,-1677.52 2872,-1006 174,-1006"/>
<text text-anchor="middle" x="260" y="-1662.32" font-family="Times,serif" font-size="14.00">CREATE_REMOVE_IF</text>
</g>
<g id="clust3" class="cluster">
<title>cluster_cond8fe8a40</title>
<polygon fill="none" stroke="black" points="182,-1549.44 182,-1624.44 364,-1624.44 364,-1549.44 182,-1549.44"/>
<text text-anchor="middle" x="236" y="-1609.24" font-family="Times,serif" font-size="14.00">cond8fe8a40</text>
</g>
<g id="clust4" class="cluster">
<title>cluster_cond9116860</title>
<polygon fill="none" stroke="black" points="372,-1034.86 372,-1637.8 2864,-1637.8 2864,-1034.86 372,-1034.86"/>
<text text-anchor="middle" x="428.5" y="-1622.6" font-family="Times,serif" font-size="14.00">cond9116860</text>
</g>
<g id="clust5" class="cluster">
<title>cluster_SET_T_BEGIN_IF</title>
<polygon fill="none" stroke="blue" points="380,-1042.86 380,-1606.8 2856,-1606.8 2856,-1042.86 380,-1042.86"/>
<text text-anchor="middle" x="450" y="-1591.6" font-family="Times,serif" font-size="14.00">SET_T_BEGIN_IF</text>
</g>
<g id="clust6" class="cluster">
<title>cluster_cond8ff7fa0</title>
<polygon fill="none" stroke="black" points="388,-1071.86 388,-1541.44 1532,-1541.44 1532,-1071.86 388,-1071.86"/>
<text text-anchor="middle" x="438.5" y="-1526.24" font-family="Times,serif" font-size="14.00">cond8ff7fa0</text>
</g>
<g id="clust7" class="cluster">
<title>cluster_HOLE_FILL_IF</title>
<polygon fill="none" stroke="blue" points="396,-1079.86 396,-1466.44 1524,-1466.44 1524,-1079.86 396,-1079.86"/>
<text text-anchor="middle" x="456.5" y="-1451.24" font-family="Times,serif" font-size="14.00">HOLE_FILL_IF</text>
</g>
<g id="clust8" class="cluster">
<title>cluster_cond8fecce0</title>
<polygon fill="none" stroke="black" points="404,-1351.58 404,-1426.58 586,-1426.58 586,-1351.58 404,-1351.58"/>
<text text-anchor="middle" x="456.5" y="-1411.38" font-family="Times,serif" font-size="14.00">cond8fecce0</text>
</g>
<g id="clust9" class="cluster">
<title>cluster_cond8ff7da0</title>
<polygon fill="none" stroke="black" points="594,-1108.86 594,-1426.58 1516,-1426.58 1516,-1108.86 594,-1108.86"/>
<text text-anchor="middle" x="646" y="-1411.38" font-family="Times,serif" font-size="14.00">cond8ff7da0</text>
</g>
<g id="clust10" class="cluster">
<title>cluster_CHECK_PARENT</title>
<polygon fill="none" stroke="blue" points="602,-1116.86 602,-1343.58 1508,-1343.58 1508,-1116.86 602,-1116.86"/>
<text text-anchor="middle" x="670.5" y="-1328.38" font-family="Times,serif" font-size="14.00">CHECK_PARENT</text>
</g>
<g id="clust11" class="cluster">
<title>cluster_cond8ff3fc0</title>
<polygon fill="none" stroke="black" points="610,-1153.72 610,-1303.72 1248,-1303.72 1248,-1153.72 610,-1153.72"/>
<text text-anchor="middle" x="660" y="-1288.52" font-family="Times,serif" font-size="14.00">cond8ff3fc0</text>
</g>
<g id="clust12" class="cluster">
<title>cluster_cond8ff7ae0</title>
<polygon fill="none" stroke="black" points="1256,-1153.72 1256,-1228.72 1500,-1228.72 1500,-1153.72 1256,-1153.72"/>
<text text-anchor="middle" x="1308" y="-1213.52" font-family="Times,serif" font-size="14.00">cond8ff7ae0</text>
</g>
<g id="clust13" class="cluster">
<title>cluster_cond9116620</title>
<polygon fill="none" stroke="black" points="1540,-1071.86 1540,-1541.44 2848,-1541.44 2848,-1071.86 1540,-1071.86"/>
<text text-anchor="middle" x="1596.5" y="-1526.24" font-family="Times,serif" font-size="14.00">cond9116620</text>
</g>
<g id="clust14" class="cluster">
<title>cluster_HOLE_FILL_IF_2</title>
<polygon fill="none" stroke="blue" points="1548,-1079.86 1548,-1466.44 2840,-1466.44 2840,-1079.86 1548,-1079.86"/>
<text text-anchor="middle" x="1616.5" y="-1451.24" font-family="Times,serif" font-size="14.00">HOLE_FILL_IF_2</text>
</g>
<g id="clust15" class="cluster">
<title>cluster_cond8ffdca0</title>
<polygon fill="none" stroke="black" points="1556,-1351.58 1556,-1426.58 1738,-1426.58 1738,-1351.58 1556,-1351.58"/>
<text text-anchor="middle" x="1607.5" y="-1411.38" font-family="Times,serif" font-size="14.00">cond8ffdca0</text>
</g>
<g id="clust16" class="cluster">
<title>cluster_cond9116340</title>
<polygon fill="none" stroke="black" points="1746,-1108.86 1746,-1426.58 2832,-1426.58 2832,-1108.86 1746,-1108.86"/>
<text text-anchor="middle" x="1802.5" y="-1411.38" font-family="Times,serif" font-size="14.00">cond9116340</text>
</g>
<g id="clust17" class="cluster">
<title>cluster_CHECK_PARENT_2</title>
<polygon fill="none" stroke="blue" points="1754,-1116.86 1754,-1343.58 2824,-1343.58 2824,-1116.86 1754,-1116.86"/>
<text text-anchor="middle" x="1830.5" y="-1328.38" font-family="Times,serif" font-size="14.00">CHECK_PARENT_2</text>
</g>
<g id="clust18" class="cluster">
<title>cluster_cond9110360</title>
<polygon fill="none" stroke="black" points="1762,-1153.72 1762,-1303.72 2400,-1303.72 2400,-1153.72 1762,-1153.72"/>
<text text-anchor="middle" x="1818.5" y="-1288.52" font-family="Times,serif" font-size="14.00">cond9110360</text>
</g>
<g id="clust19" class="cluster">
<title>cluster_cond9116060</title>
<polygon fill="none" stroke="black" points="2408,-1153.72 2408,-1228.72 2816,-1228.72 2816,-1153.72 2408,-1153.72"/>
<text text-anchor="middle" x="2464.5" y="-1213.52" font-family="Times,serif" font-size="14.00">cond9116060</text>
</g>
<g id="clust20" class="cluster">
<title>cluster_VENT_LOOP</title>
<polygon fill="none" stroke="orange" points="100,-65 100,-502 1004,-502 1004,-65 100,-65"/>
<text text-anchor="middle" x="153" y="-486.8" font-family="Times,serif" font-size="14.00">VENT_LOOP</text>
</g>
<!-- start_SUBPROGRAM_915bac0 -->
<g id="node1" class="node">
<title>start_SUBPROGRAM_915bac0</title>
<ellipse fill="none" stroke="black" cx="400" cy="-2000.52" rx="7" ry="7"/>
</g>
<!-- COMMENT_8fddb40+1 -->
<g id="node2" class="node">
<title>COMMENT_8fddb40+1</title>
<polygon fill="none" stroke="black" points="794,-1957.52 0,-1957.52 0,-1904.52 800,-1904.52 800,-1951.52 794,-1957.52"/>
<polyline fill="none" stroke="black" points="794,-1957.52 794,-1951.52 "/>
<polyline fill="none" stroke="black" points="800,-1951.52 794,-1951.52 "/>
<text text-anchor="middle" x="400" y="-1942.32" font-family="Times,serif" font-size="14.00">!&gt; brief Check to see if a cell or OBSTruction is to be created or removed, or a VENT activated of deactivated</text>
<text text-anchor="middle" x="400" y="-1927.32" font-family="Times,serif" font-size="14.00">!&gt; param T Current time (s)</text>
<text text-anchor="middle" x="400" y="-1912.32" font-family="Times,serif" font-size="14.00">!&gt; param NM Mesh number</text>
</g>
<!-- start_SUBPROGRAM_915bac0&#45;&gt;COMMENT_8fddb40+1 -->
<g id="edge1" class="edge">
<title>start_SUBPROGRAM_915bac0&#45;&gt;COMMENT_8fddb40+1</title>
<path fill="none" stroke="black" d="M400,-1993.29C400,-1987.28 400,-1977.68 400,-1967.84"/>
<polygon fill="black" stroke="black" points="403.5,-1967.64 400,-1957.64 396.5,-1967.64 403.5,-1967.64"/>
</g>
<!-- CALL_8fe41e0 -->
<g id="node3" class="node">
<title>CALL_8fe41e0</title>
<g id="a_node3"><a xlink:href="POINT_TO_MESH.svg" xlink:title="POINT_TO_MESH">
<polygon fill="lightgray" stroke="black" points="472,-1868.52 328,-1868.52 328,-1864.52 324,-1864.52 324,-1860.52 328,-1860.52 328,-1840.52 324,-1840.52 324,-1836.52 328,-1836.52 328,-1832.52 472,-1832.52 472,-1868.52"/>
<polyline fill="none" stroke="black" points="328,-1864.52 332,-1864.52 332,-1860.52 328,-1860.52 "/>
<polyline fill="none" stroke="black" points="328,-1840.52 332,-1840.52 332,-1836.52 328,-1836.52 "/>
<text text-anchor="middle" x="400" y="-1846.82" font-family="Times,serif" font-size="14.00">POINT_TO_MESH</text>
</a>
</g>
</g>
<!-- COMMENT_8fddb40+1&#45;&gt;CALL_8fe41e0 -->
<g id="edge2" class="edge">
<title>COMMENT_8fddb40+1&#45;&gt;CALL_8fe41e0</title>
<path fill="none" stroke="black" d="M400,-1904.32C400,-1896.23 400,-1887.28 400,-1879.07"/>
<polygon fill="black" stroke="black" points="403.5,-1878.85 400,-1868.85 396.5,-1878.85 403.5,-1878.85"/>
</g>
<!-- COMMENT_8fe51e0+1 -->
<g id="node4" class="node">
<title>COMMENT_8fe51e0+1</title>
<polygon fill="none" stroke="black" points="598.5,-1796.52 195.5,-1796.52 195.5,-1760.52 604.5,-1760.52 604.5,-1790.52 598.5,-1796.52"/>
<polyline fill="none" stroke="black" points="598.5,-1796.52 598.5,-1790.52 "/>
<polyline fill="none" stroke="black" points="604.5,-1790.52 598.5,-1790.52 "/>
<text text-anchor="middle" x="400" y="-1774.82" font-family="Times,serif" font-size="14.00">Check to see if an obstacle is to be removed or created</text>
</g>
<!-- CALL_8fe41e0&#45;&gt;COMMENT_8fe51e0+1 -->
<g id="edge3" class="edge">
<title>CALL_8fe41e0&#45;&gt;COMMENT_8fe51e0+1</title>
<path fill="none" stroke="black" d="M400,-1832.22C400,-1824.5 400,-1815.23 400,-1806.63"/>
<polygon fill="black" stroke="black" points="403.5,-1806.62 400,-1796.62 396.5,-1806.62 403.5,-1806.62"/>
</g>
<!-- COMMENT_8fe77c0+1 -->
<g id="node5" class="node">
<title>COMMENT_8fe77c0+1</title>
<polygon fill="none" stroke="black" points="525.5,-1721.52 268.5,-1721.52 268.5,-1685.52 531.5,-1685.52 531.5,-1715.52 525.5,-1721.52"/>
<polyline fill="none" stroke="black" points="525.5,-1721.52 525.5,-1715.52 "/>
<polyline fill="none" stroke="black" points="531.5,-1715.52 525.5,-1715.52 "/>
<text text-anchor="middle" x="400" y="-1699.82" font-family="Times,serif" font-size="14.00">Over&#45;ride DEVICE/CONTROL logic</text>
</g>
<!-- COMMENT_8fe51e0+1&#45;&gt;COMMENT_8fe77c0+1 -->
<g id="edge40" class="edge">
<title>COMMENT_8fe51e0+1&#45;&gt;COMMENT_8fe77c0+1</title>
<path fill="none" stroke="black" d="M400,-1760.22C400,-1751.77 400,-1741.39 400,-1731.89"/>
<polygon fill="black" stroke="black" points="403.5,-1731.7 400,-1721.7 396.5,-1731.7 403.5,-1731.7"/>
</g>
<!-- beginIf_IF_9116940 -->
<g id="node6" class="node">
<title>beginIf_IF_9116940</title>
<ellipse fill="black" stroke="black" cx="400" cy="-1646.16" rx="0.36" ry="0.36"/>
</g>
<!-- COMMENT_8fe77c0+1&#45;&gt;beginIf_IF_9116940 -->
<g id="edge34" class="edge">
<title>COMMENT_8fe77c0+1&#45;&gt;beginIf_IF_9116940</title>
<path fill="none" stroke="black" d="M400,-1685.31C400,-1669.56 400,-1648.52 400,-1647.22"/>
</g>
<!-- Empty_8fe8a40 -->
<g id="node8" class="node">
<title>Empty_8fe8a40</title>
<ellipse fill="none" stroke="black" cx="273" cy="-1575.44" rx="83.39" ry="18"/>
<text text-anchor="middle" x="273" y="-1571.74" font-family="Times,serif" font-size="14.00">Empty_8fe8a40</text>
</g>
<!-- beginIf_IF_9116940&#45;&gt;Empty_8fe8a40 -->
<g id="edge4" class="edge">
<title>beginIf_IF_9116940&#45;&gt;Empty_8fe8a40</title>
<path fill="none" stroke="black" d="M399.84,-1645.76C398.29,-1645.38 385.58,-1642.19 376,-1637.8 351.55,-1626.6 325.54,-1611.07 305.78,-1598.44"/>
<polygon fill="black" stroke="black" points="307.46,-1595.36 297.16,-1592.87 303.66,-1601.24 307.46,-1595.36"/>
</g>
<!-- beginIf_IF_9116700 -->
<g id="node9" class="node">
<title>beginIf_IF_9116700</title>
<ellipse fill="black" stroke="black" cx="693" cy="-1575.44" rx="0.36" ry="0.36"/>
</g>
<!-- beginIf_IF_9116940&#45;&gt;beginIf_IF_9116700 -->
<g id="edge32" class="edge">
<title>beginIf_IF_9116940&#45;&gt;beginIf_IF_9116700</title>
<path fill="none" stroke="black" d="M400.05,-1645.79C404.06,-1644.84 632.71,-1590.71 683.2,-1578.76"/>
<polygon fill="black" stroke="black" points="684.02,-1582.16 692.95,-1576.45 682.41,-1575.35 684.02,-1582.16"/>
</g>
<!-- endIf_IF_9116940 -->
<g id="node7" class="node">
<title>endIf_IF_9116940</title>
<ellipse fill="black" stroke="black" cx="552" cy="-1014.36" rx="0.36" ry="0.36"/>
</g>
<!-- CALL_911b100 -->
<g id="node31" class="node">
<title>CALL_911b100</title>
<g id="a_node31"><a xlink:href="CREATE_OR_REMOVE_OBST.svg" xlink:title="CREATE_OR_REMOVE_OBST">
<polygon fill="lightgray" stroke="black" points="665,-978 439,-978 439,-974 435,-974 435,-970 439,-970 439,-950 435,-950 435,-946 439,-946 439,-942 665,-942 665,-978"/>
<polyline fill="none" stroke="black" points="439,-974 443,-974 443,-970 439,-970 "/>
<polyline fill="none" stroke="black" points="439,-950 443,-950 443,-946 439,-946 "/>
<text text-anchor="middle" x="552" y="-956.3" font-family="Times,serif" font-size="14.00">CREATE_OR_REMOVE_OBST</text>
</a>
</g>
</g>
<!-- endIf_IF_9116940&#45;&gt;CALL_911b100 -->
<g id="edge35" class="edge">
<title>endIf_IF_9116940&#45;&gt;CALL_911b100</title>
<path fill="none" stroke="black" d="M552,-1013.21C552,-1011.77 552,-1000.23 552,-988.36"/>
<polygon fill="black" stroke="black" points="555.5,-988.1 552,-978.1 548.5,-988.1 555.5,-988.1"/>
</g>
<!-- Empty_8fe8a40&#45;&gt;endIf_IF_9116940 -->
<g id="edge5" class="edge">
<title>Empty_8fe8a40&#45;&gt;endIf_IF_9116940</title>
<path fill="none" stroke="black" d="M282.32,-1557.54C295.5,-1532.03 318,-1481.8 318,-1436.08 318,-1436.08 318,-1436.08 318,-1087.22 318,-1052.49 344.35,-1049.15 376,-1034.86 411.32,-1018.91 547.65,-1014.85 551.9,-1014.72"/>
</g>
<!-- COMMENT_8fe90c0+1 -->
<g id="node11" class="node">
<title>COMMENT_8fe90c0+1</title>
<polygon fill="none" stroke="black" points="782,-1510.44 598,-1510.44 598,-1474.44 788,-1474.44 788,-1504.44 782,-1510.44"/>
<polyline fill="none" stroke="black" points="782,-1510.44 782,-1504.44 "/>
<polyline fill="none" stroke="black" points="788,-1504.44 782,-1504.44 "/>
<text text-anchor="middle" x="693" y="-1488.74" font-family="Times,serif" font-size="14.00">Set initial state of OBST</text>
</g>
<!-- beginIf_IF_9116700&#45;&gt;COMMENT_8fe90c0+1 -->
<g id="edge17" class="edge">
<title>beginIf_IF_9116700&#45;&gt;COMMENT_8fe90c0+1</title>
<path fill="none" stroke="black" d="M693,-1574.38C693,-1572.9 693,-1543.72 693,-1520.81"/>
<polygon fill="black" stroke="black" points="696.5,-1520.54 693,-1510.54 689.5,-1520.54 696.5,-1520.54"/>
</g>
<!-- COMMENT_8ff1ba0+1 -->
<g id="node21" class="node">
<title>COMMENT_8ff1ba0+1</title>
<polygon fill="none" stroke="black" points="1895.5,-1510.44 1548.5,-1510.44 1548.5,-1474.44 1901.5,-1474.44 1901.5,-1504.44 1895.5,-1510.44"/>
<polyline fill="none" stroke="black" points="1895.5,-1510.44 1895.5,-1504.44 "/>
<polyline fill="none" stroke="black" points="1901.5,-1504.44 1895.5,-1504.44 "/>
<text text-anchor="middle" x="1725" y="-1488.74" font-family="Times,serif" font-size="14.00">Decide if a DEVICE/CONTROL action is needed</text>
</g>
<!-- beginIf_IF_9116700&#45;&gt;COMMENT_8ff1ba0+1 -->
<g id="edge30" class="edge">
<title>beginIf_IF_9116700&#45;&gt;COMMENT_8ff1ba0+1</title>
<path fill="none" stroke="black" d="M693.12,-1574.44C703.24,-1574.34 1351.91,-1568.12 1536,-1541.44 1578.11,-1535.34 1624.43,-1523.66 1660.67,-1513.35"/>
<polygon fill="black" stroke="black" points="1661.97,-1516.61 1670.61,-1510.48 1660.04,-1509.89 1661.97,-1516.61"/>
</g>
<!-- endIf_IF_9116700 -->
<g id="node10" class="node">
<title>endIf_IF_9116700</title>
<ellipse fill="black" stroke="black" cx="582" cy="-1051.22" rx="0.36" ry="0.36"/>
</g>
<!-- endIf_IF_9116700&#45;&gt;endIf_IF_9116940 -->
<g id="edge33" class="edge">
<title>endIf_IF_9116700&#45;&gt;endIf_IF_9116940</title>
<path fill="none" stroke="black" d="M582,-1050.11C581.97,-1049.05 581.64,-1040.38 578,-1034.86 570.2,-1023.04 553.11,-1015.22 552.05,-1014.74"/>
</g>
<!-- beginIf_IF_8ff7e40 -->
<g id="node12" class="node">
<title>beginIf_IF_8ff7e40</title>
<ellipse fill="black" stroke="black" cx="693" cy="-1435.08" rx="0.36" ry="0.36"/>
</g>
<!-- COMMENT_8fe90c0+1&#45;&gt;beginIf_IF_8ff7e40 -->
<g id="edge16" class="edge">
<title>COMMENT_8fe90c0+1&#45;&gt;beginIf_IF_8ff7e40</title>
<path fill="none" stroke="black" d="M693,-1474.23C693,-1458.48 693,-1437.44 693,-1436.14"/>
</g>
<!-- COMMENT_8fe7980+1 -->
<g id="node14" class="node">
<title>COMMENT_8fe7980+1</title>
<polygon fill="none" stroke="black" points="572.5,-1395.58 411.5,-1395.58 411.5,-1359.58 578.5,-1359.58 578.5,-1389.58 572.5,-1395.58"/>
<polyline fill="none" stroke="black" points="572.5,-1395.58 572.5,-1389.58 "/>
<polyline fill="none" stroke="black" points="578.5,-1389.58 572.5,-1389.58 "/>
<text text-anchor="middle" x="495" y="-1373.88" font-family="Times,serif" font-size="14.00">!OBST is not a HOLE</text>
</g>
<!-- beginIf_IF_8ff7e40&#45;&gt;COMMENT_8fe7980+1 -->
<g id="edge6" class="edge">
<title>beginIf_IF_8ff7e40&#45;&gt;COMMENT_8fe7980+1</title>
<path fill="none" stroke="black" d="M692.94,-1434.58C690.49,-1434.52 611.76,-1432.67 590,-1426.58 569.43,-1420.83 548.07,-1410.48 530.82,-1400.87"/>
<polygon fill="black" stroke="black" points="532.11,-1397.57 521.69,-1395.63 528.63,-1403.64 532.11,-1397.57"/>
</g>
<!-- COMMENT_8fe1740+1 -->
<g id="node15" class="node">
<title>COMMENT_8fe1740+1</title>
<polygon fill="none" stroke="black" points="1137.5,-1395.58 640.5,-1395.58 640.5,-1359.58 1143.5,-1359.58 1143.5,-1389.58 1137.5,-1395.58"/>
<polyline fill="none" stroke="black" points="1137.5,-1395.58 1137.5,-1389.58 "/>
<polyline fill="none" stroke="black" points="1143.5,-1389.58 1137.5,-1389.58 "/>
<text text-anchor="middle" x="892" y="-1373.88" font-family="Times,serif" font-size="14.00">!OBST is a HOLE. &#160;CREATE/REMOVE also depends on parent OBST.</text>
</g>
<!-- beginIf_IF_8ff7e40&#45;&gt;COMMENT_8fe1740+1 -->
<g id="edge14" class="edge">
<title>beginIf_IF_8ff7e40&#45;&gt;COMMENT_8fe1740+1</title>
<path fill="none" stroke="black" d="M693.14,-1434.54C696.71,-1433.53 765.83,-1414.08 821.59,-1398.39"/>
<polygon fill="black" stroke="black" points="822.79,-1401.69 831.47,-1395.61 820.9,-1394.95 822.79,-1401.69"/>
</g>
<!-- endIf_IF_8ff7e40 -->
<g id="node13" class="node">
<title>endIf_IF_8ff7e40</title>
<ellipse fill="black" stroke="black" cx="582" cy="-1088.22" rx="0.36" ry="0.36"/>
</g>
<!-- endIf_IF_8ff7e40&#45;&gt;endIf_IF_9116700 -->
<g id="edge18" class="edge">
<title>endIf_IF_8ff7e40&#45;&gt;endIf_IF_9116700</title>
<path fill="none" stroke="black" d="M582,-1087.12C582,-1085.1 582,-1053.77 582,-1051.82"/>
</g>
<!-- COMMENT_8fe7980+1&#45;&gt;endIf_IF_8ff7e40 -->
<g id="edge7" class="edge">
<title>COMMENT_8fe7980+1&#45;&gt;endIf_IF_8ff7e40</title>
<path fill="none" stroke="black" d="M533.66,-1359.51C539.72,-1355.17 545.22,-1349.9 549,-1343.58 569.09,-1310.02 554,-1294.83 554,-1255.72 554,-1255.72 554,-1255.72 554,-1178.72 554,-1138.14 580.28,-1091.72 581.92,-1088.86"/>
</g>
<!-- beginIf_IF_8ff7c40 -->
<g id="node16" class="node">
<title>beginIf_IF_8ff7c40</title>
<ellipse fill="black" stroke="black" cx="929" cy="-1312.22" rx="0.36" ry="0.36"/>
</g>
<!-- COMMENT_8fe1740+1&#45;&gt;beginIf_IF_8ff7c40 -->
<g id="edge13" class="edge">
<title>COMMENT_8fe1740+1&#45;&gt;beginIf_IF_8ff7c40</title>
<path fill="none" stroke="black" d="M913.28,-1359.48C917.84,-1354.8 922.13,-1349.39 925,-1343.58 930.83,-1331.76 929.12,-1314.35 929.01,-1313.27"/>
</g>
<!-- COMMENT_8fec740+1 -->
<g id="node18" class="node">
<title>COMMENT_8fec740+1</title>
<polygon fill="none" stroke="black" points="1233.5,-1272.72 618.5,-1272.72 618.5,-1236.72 1239.5,-1236.72 1239.5,-1266.72 1233.5,-1272.72"/>
<polyline fill="none" stroke="black" points="1233.5,-1272.72 1233.5,-1266.72 "/>
<polyline fill="none" stroke="black" points="1239.5,-1266.72 1233.5,-1266.72 "/>
<text text-anchor="middle" x="929" y="-1251.02" font-family="Times,serif" font-size="14.00">!Parent OBST controllable, check state and if parent OBST is hidden, do not fill hole.</text>
</g>
<!-- beginIf_IF_8ff7c40&#45;&gt;COMMENT_8fec740+1 -->
<g id="edge9" class="edge">
<title>beginIf_IF_8ff7c40&#45;&gt;COMMENT_8fec740+1</title>
<path fill="none" stroke="black" d="M929,-1311.56C929,-1309.93 929,-1296.24 929,-1282.82"/>
<polygon fill="black" stroke="black" points="932.5,-1282.82 929,-1272.82 925.5,-1282.82 932.5,-1282.82"/>
</g>
<!-- COMMENT_8ff1a80+1 -->
<g id="node20" class="node">
<title>COMMENT_8ff1a80+1</title>
<polygon fill="none" stroke="black" points="1485.5,-1197.72 1264.5,-1197.72 1264.5,-1161.72 1491.5,-1161.72 1491.5,-1191.72 1485.5,-1197.72"/>
<polyline fill="none" stroke="black" points="1485.5,-1197.72 1485.5,-1191.72 "/>
<polyline fill="none" stroke="black" points="1491.5,-1191.72 1485.5,-1191.72 "/>
<text text-anchor="middle" x="1378" y="-1176.02" font-family="Times,serif" font-size="14.00">!Parent OBST always present</text>
</g>
<!-- beginIf_IF_8ff7c40&#45;&gt;COMMENT_8ff1a80+1 -->
<g id="edge11" class="edge">
<title>beginIf_IF_8ff7c40&#45;&gt;COMMENT_8ff1a80+1</title>
<path fill="none" stroke="black" d="M929.06,-1311.72C933.77,-1311.7 1235.59,-1310.64 1252,-1303.72 1299.94,-1283.5 1339.83,-1235.8 1361.18,-1206.1"/>
<polygon fill="black" stroke="black" points="1364.08,-1208.07 1366.95,-1197.87 1358.35,-1204.05 1364.08,-1208.07"/>
</g>
<!-- endIf_IF_8ff7c40 -->
<g id="node17" class="node">
<title>endIf_IF_8ff7c40</title>
<ellipse fill="black" stroke="black" cx="929" cy="-1125.22" rx="0.36" ry="0.36"/>
</g>
<!-- endIf_IF_8ff7c40&#45;&gt;endIf_IF_8ff7e40 -->
<g id="edge15" class="edge">
<title>endIf_IF_8ff7c40&#45;&gt;endIf_IF_8ff7e40</title>
<path fill="none" stroke="black" d="M929.01,-1124.1C929.15,-1122.88 930.11,-1113.06 925,-1108.86 895.72,-1084.83 586.88,-1088.66 582.06,-1088.72"/>
</g>
<!-- COMMENT_8ff0280+1 -->
<g id="node19" class="node">
<title>COMMENT_8ff0280+1</title>
<polygon fill="none" stroke="black" points="1162,-1197.72 690,-1197.72 690,-1161.72 1168,-1161.72 1168,-1191.72 1162,-1197.72"/>
<polyline fill="none" stroke="black" points="1162,-1197.72 1162,-1191.72 "/>
<polyline fill="none" stroke="black" points="1168,-1191.72 1162,-1191.72 "/>
<text text-anchor="middle" x="929" y="-1176.02" font-family="Times,serif" font-size="14.00">!If parent OBST is visible, check to see if hole needs to be made.</text>
</g>
<!-- COMMENT_8fec740+1&#45;&gt;COMMENT_8ff0280+1 -->
<g id="edge8" class="edge">
<title>COMMENT_8fec740+1&#45;&gt;COMMENT_8ff0280+1</title>
<path fill="none" stroke="black" d="M929,-1236.42C929,-1227.97 929,-1217.59 929,-1208.09"/>
<polygon fill="black" stroke="black" points="932.5,-1207.9 929,-1197.9 925.5,-1207.9 932.5,-1207.9"/>
</g>
<!-- COMMENT_8ff0280+1&#45;&gt;endIf_IF_8ff7c40 -->
<g id="edge10" class="edge">
<title>COMMENT_8ff0280+1&#45;&gt;endIf_IF_8ff7c40</title>
<path fill="none" stroke="black" d="M929,-1161.66C929,-1146.65 929,-1126.99 929,-1125.78"/>
</g>
<!-- COMMENT_8ff1a80+1&#45;&gt;endIf_IF_8ff7c40 -->
<g id="edge12" class="edge">
<title>COMMENT_8ff1a80+1&#45;&gt;endIf_IF_8ff7c40</title>
<path fill="none" stroke="black" d="M1299.25,-1161.72C1283.65,-1158.74 1267.35,-1155.9 1252,-1153.72 1111.57,-1133.76 934.63,-1125.96 929.13,-1125.73"/>
</g>
<!-- beginIf_IF_9116480 -->
<g id="node22" class="node">
<title>beginIf_IF_9116480</title>
<ellipse fill="black" stroke="black" cx="1725" cy="-1435.08" rx="0.36" ry="0.36"/>
</g>
<!-- COMMENT_8ff1ba0+1&#45;&gt;beginIf_IF_9116480 -->
<g id="edge29" class="edge">
<title>COMMENT_8ff1ba0+1&#45;&gt;beginIf_IF_9116480</title>
<path fill="none" stroke="black" d="M1725,-1474.23C1725,-1458.48 1725,-1437.44 1725,-1436.14"/>
</g>
<!-- COMMENT_8ff84c0+1 -->
<g id="node24" class="node">
<title>COMMENT_8ff84c0+1</title>
<polygon fill="none" stroke="black" points="1724.5,-1395.58 1563.5,-1395.58 1563.5,-1359.58 1730.5,-1359.58 1730.5,-1389.58 1724.5,-1395.58"/>
<polyline fill="none" stroke="black" points="1724.5,-1395.58 1724.5,-1389.58 "/>
<polyline fill="none" stroke="black" points="1730.5,-1389.58 1724.5,-1389.58 "/>
<text text-anchor="middle" x="1647" y="-1373.88" font-family="Times,serif" font-size="14.00">!OBST is not a HOLE</text>
</g>
<!-- beginIf_IF_9116480&#45;&gt;COMMENT_8ff84c0+1 -->
<g id="edge19" class="edge">
<title>beginIf_IF_9116480&#45;&gt;COMMENT_8ff84c0+1</title>
<path fill="none" stroke="black" d="M1724.94,-1434.54C1723.65,-1433.61 1700.25,-1416.81 1679.43,-1401.87"/>
<polygon fill="black" stroke="black" points="1681.2,-1398.83 1671.04,-1395.84 1677.12,-1404.51 1681.2,-1398.83"/>
</g>
<!-- COMMENT_8ff7040+1 -->
<g id="node25" class="node">
<title>COMMENT_8ff7040+1</title>
<polygon fill="none" stroke="black" points="2289.5,-1395.58 1792.5,-1395.58 1792.5,-1359.58 2295.5,-1359.58 2295.5,-1389.58 2289.5,-1395.58"/>
<polyline fill="none" stroke="black" points="2289.5,-1395.58 2289.5,-1389.58 "/>
<polyline fill="none" stroke="black" points="2295.5,-1389.58 2289.5,-1389.58 "/>
<text text-anchor="middle" x="2044" y="-1373.88" font-family="Times,serif" font-size="14.00">!OBST is a HOLE. &#160;CREATE/REMOVE also depends on parent OBST.</text>
</g>
<!-- beginIf_IF_9116480&#45;&gt;COMMENT_8ff7040+1 -->
<g id="edge27" class="edge">
<title>beginIf_IF_9116480&#45;&gt;COMMENT_8ff7040+1</title>
<path fill="none" stroke="black" d="M1725.06,-1434.57C1728.04,-1434.05 1845.56,-1413.42 1937.08,-1397.35"/>
<polygon fill="black" stroke="black" points="1937.73,-1400.79 1946.97,-1395.61 1936.52,-1393.9 1937.73,-1400.79"/>
</g>
<!-- endIf_IF_9116480 -->
<g id="node23" class="node">
<title>endIf_IF_9116480</title>
<ellipse fill="black" stroke="black" cx="1647" cy="-1088.22" rx="0.36" ry="0.36"/>
</g>
<!-- endIf_IF_9116480&#45;&gt;endIf_IF_9116700 -->
<g id="edge31" class="edge">
<title>endIf_IF_9116480&#45;&gt;endIf_IF_9116700</title>
<path fill="none" stroke="black" d="M1646.95,-1087.21C1644.95,-1086.87 1580.35,-1075.78 1528,-1071.86 1319.96,-1056.26 593.47,-1051.79 582.13,-1051.72"/>
</g>
<!-- COMMENT_8ff84c0+1&#45;&gt;endIf_IF_9116480 -->
<g id="edge20" class="edge">
<title>COMMENT_8ff84c0+1&#45;&gt;endIf_IF_9116480</title>
<path fill="none" stroke="black" d="M1647,-1359.37C1647,-1335.93 1647,-1292.65 1647,-1255.72 1647,-1255.72 1647,-1255.72 1647,-1178.72 1647,-1139.97 1647,-1091.84 1647,-1088.86"/>
</g>
<!-- beginIf_IF_91161c0 -->
<g id="node26" class="node">
<title>beginIf_IF_91161c0</title>
<ellipse fill="black" stroke="black" cx="2081" cy="-1312.22" rx="0.36" ry="0.36"/>
</g>
<!-- COMMENT_8ff7040+1&#45;&gt;beginIf_IF_91161c0 -->
<g id="edge26" class="edge">
<title>COMMENT_8ff7040+1&#45;&gt;beginIf_IF_91161c0</title>
<path fill="none" stroke="black" d="M2065.28,-1359.48C2069.84,-1354.8 2074.13,-1349.39 2077,-1343.58 2082.83,-1331.76 2081.12,-1314.35 2081.01,-1313.27"/>
</g>
<!-- COMMENT_8ffd660+1 -->
<g id="node28" class="node">
<title>COMMENT_8ffd660+1</title>
<polygon fill="none" stroke="black" points="2385.5,-1272.72 1770.5,-1272.72 1770.5,-1236.72 2391.5,-1236.72 2391.5,-1266.72 2385.5,-1272.72"/>
<polyline fill="none" stroke="black" points="2385.5,-1272.72 2385.5,-1266.72 "/>
<polyline fill="none" stroke="black" points="2391.5,-1266.72 2385.5,-1266.72 "/>
<text text-anchor="middle" x="2081" y="-1251.02" font-family="Times,serif" font-size="14.00">!Parent OBST controllable, check state and if parent OBST is hidden, do not fill hole.</text>
</g>
<!-- beginIf_IF_91161c0&#45;&gt;COMMENT_8ffd660+1 -->
<g id="edge22" class="edge">
<title>beginIf_IF_91161c0&#45;&gt;COMMENT_8ffd660+1</title>
<path fill="none" stroke="black" d="M2081,-1311.56C2081,-1309.93 2081,-1296.24 2081,-1282.82"/>
<polygon fill="black" stroke="black" points="2084.5,-1282.82 2081,-1272.82 2077.5,-1282.82 2084.5,-1282.82"/>
</g>
<!-- COMMENT_910ff20+1 -->
<g id="node30" class="node">
<title>COMMENT_910ff20+1</title>
<polygon fill="none" stroke="black" points="2802,-1197.72 2416,-1197.72 2416,-1161.72 2808,-1161.72 2808,-1191.72 2802,-1197.72"/>
<polyline fill="none" stroke="black" points="2802,-1197.72 2802,-1191.72 "/>
<polyline fill="none" stroke="black" points="2808,-1191.72 2802,-1191.72 "/>
<text text-anchor="middle" x="2612" y="-1176.02" font-family="Times,serif" font-size="14.00">!Parent OBST not controllable and is always present</text>
</g>
<!-- beginIf_IF_91161c0&#45;&gt;COMMENT_910ff20+1 -->
<g id="edge24" class="edge">
<title>beginIf_IF_91161c0&#45;&gt;COMMENT_910ff20+1</title>
<path fill="none" stroke="black" d="M2081.05,-1311.72C2085.49,-1311.75 2369.76,-1313.54 2404,-1303.72 2474.29,-1283.55 2545.3,-1233.82 2583.45,-1204.14"/>
<polygon fill="black" stroke="black" points="2585.85,-1206.71 2591.53,-1197.77 2581.51,-1201.21 2585.85,-1206.71"/>
</g>
<!-- endIf_IF_91161c0 -->
<g id="node27" class="node">
<title>endIf_IF_91161c0</title>
<ellipse fill="black" stroke="black" cx="2081" cy="-1125.22" rx="0.36" ry="0.36"/>
</g>
<!-- endIf_IF_91161c0&#45;&gt;endIf_IF_9116480 -->
<g id="edge28" class="edge">
<title>endIf_IF_91161c0&#45;&gt;endIf_IF_9116480</title>
<path fill="none" stroke="black" d="M2081.02,-1124.1C2081.16,-1122.88 2082.14,-1113.03 2077,-1108.86 2058.57,-1093.91 1653.4,-1088.8 1647.07,-1088.72"/>
</g>
<!-- COMMENT_9101060+1 -->
<g id="node29" class="node">
<title>COMMENT_9101060+1</title>
<polygon fill="none" stroke="black" points="2314,-1197.72 1842,-1197.72 1842,-1161.72 2320,-1161.72 2320,-1191.72 2314,-1197.72"/>
<polyline fill="none" stroke="black" points="2314,-1197.72 2314,-1191.72 "/>
<polyline fill="none" stroke="black" points="2320,-1191.72 2314,-1191.72 "/>
<text text-anchor="middle" x="2081" y="-1176.02" font-family="Times,serif" font-size="14.00">!If parent OBST is visible, check to see if hole needs to be made.</text>
</g>
<!-- COMMENT_8ffd660+1&#45;&gt;COMMENT_9101060+1 -->
<g id="edge21" class="edge">
<title>COMMENT_8ffd660+1&#45;&gt;COMMENT_9101060+1</title>
<path fill="none" stroke="black" d="M2081,-1236.42C2081,-1227.97 2081,-1217.59 2081,-1208.09"/>
<polygon fill="black" stroke="black" points="2084.5,-1207.9 2081,-1197.9 2077.5,-1207.9 2084.5,-1207.9"/>
</g>
<!-- COMMENT_9101060+1&#45;&gt;endIf_IF_91161c0 -->
<g id="edge23" class="edge">
<title>COMMENT_9101060+1&#45;&gt;endIf_IF_91161c0</title>
<path fill="none" stroke="black" d="M2081,-1161.66C2081,-1146.65 2081,-1126.99 2081,-1125.78"/>
</g>
<!-- COMMENT_910ff20+1&#45;&gt;endIf_IF_91161c0 -->
<g id="edge25" class="edge">
<title>COMMENT_910ff20+1&#45;&gt;endIf_IF_91161c0</title>
<path fill="none" stroke="black" d="M2475.85,-1161.7C2451.92,-1158.9 2427.24,-1156.12 2404,-1153.72 2262.91,-1139.13 2086.61,-1126.13 2081.13,-1125.73"/>
</g>
<!-- CALL_9121140 -->
<g id="node32" class="node">
<title>CALL_9121140</title>
<g id="a_node32"><a xlink:href="CREATE_OR_REMOVE_OBST.svg" xlink:title="CREATE_OR_REMOVE_OBST">
<polygon fill="lightgray" stroke="black" points="665,-906 439,-906 439,-902 435,-902 435,-898 439,-898 439,-878 435,-878 435,-874 439,-874 439,-870 665,-870 665,-906"/>
<polyline fill="none" stroke="black" points="439,-902 443,-902 443,-898 439,-898 "/>
<polyline fill="none" stroke="black" points="439,-878 443,-878 443,-874 439,-874 "/>
<text text-anchor="middle" x="552" y="-884.3" font-family="Times,serif" font-size="14.00">CREATE_OR_REMOVE_OBST</text>
</a>
</g>
</g>
<!-- CALL_911b100&#45;&gt;CALL_9121140 -->
<g id="edge36" class="edge">
<title>CALL_911b100&#45;&gt;CALL_9121140</title>
<path fill="none" stroke="black" d="M552,-941.7C552,-933.98 552,-924.71 552,-916.11"/>
<polygon fill="black" stroke="black" points="555.5,-916.1 552,-906.1 548.5,-916.1 555.5,-916.1"/>
</g>
<!-- COMMENT_911d2a0+1 -->
<g id="node33" class="node">
<title>COMMENT_911d2a0+1</title>
<polygon fill="none" stroke="black" points="892,-834 206,-834 206,-798 898,-798 898,-828 892,-834"/>
<polyline fill="none" stroke="black" points="892,-834 892,-828 "/>
<polyline fill="none" stroke="black" points="898,-828 892,-828 "/>
<text text-anchor="middle" x="552" y="-812.3" font-family="Times,serif" font-size="14.00">Write a message to the Smokeview .smv file that the obstruction has been created or removed</text>
</g>
<!-- CALL_9121140&#45;&gt;COMMENT_911d2a0+1 -->
<g id="edge37" class="edge">
<title>CALL_9121140&#45;&gt;COMMENT_911d2a0+1</title>
<path fill="none" stroke="black" d="M552,-869.7C552,-861.98 552,-852.71 552,-844.11"/>
<polygon fill="black" stroke="black" points="555.5,-844.1 552,-834.1 548.5,-844.1 555.5,-844.1"/>
</g>
<!-- CALL_911c340 -->
<g id="node34" class="node">
<title>CALL_911c340</title>
<g id="a_node34"><a xlink:href="RE_ALLOCATE_STRINGS.svg" xlink:title="RE_ALLOCATE_STRINGS">
<polygon fill="lightgray" stroke="black" points="650.5,-762 453.5,-762 453.5,-758 449.5,-758 449.5,-754 453.5,-754 453.5,-734 449.5,-734 449.5,-730 453.5,-730 453.5,-726 650.5,-726 650.5,-762"/>
<polyline fill="none" stroke="black" points="453.5,-758 457.5,-758 457.5,-754 453.5,-754 "/>
<polyline fill="none" stroke="black" points="453.5,-734 457.5,-734 457.5,-730 453.5,-730 "/>
<text text-anchor="middle" x="552" y="-740.3" font-family="Times,serif" font-size="14.00">RE_ALLOCATE_STRINGS</text>
</a>
</g>
</g>
<!-- COMMENT_911d2a0+1&#45;&gt;CALL_911c340 -->
<g id="edge38" class="edge">
<title>COMMENT_911d2a0+1&#45;&gt;CALL_911c340</title>
<path fill="none" stroke="black" d="M552,-797.7C552,-789.98 552,-780.71 552,-772.11"/>
<polygon fill="black" stroke="black" points="555.5,-772.1 552,-762.1 548.5,-772.1 555.5,-772.1"/>
</g>
<!-- COMMENT_9127720+1 -->
<g id="node35" class="node">
<title>COMMENT_9127720+1</title>
<polygon fill="none" stroke="black" points="654.5,-690 443.5,-690 443.5,-654 660.5,-654 660.5,-684 654.5,-690"/>
<polyline fill="none" stroke="black" points="654.5,-690 654.5,-684 "/>
<polyline fill="none" stroke="black" points="660.5,-684 654.5,-684 "/>
<text text-anchor="middle" x="552" y="-668.3" font-family="Times,serif" font-size="14.00">If any REMOVE_OBST store</text>
</g>
<!-- CALL_911c340&#45;&gt;COMMENT_9127720+1 -->
<g id="edge39" class="edge">
<title>CALL_911c340&#45;&gt;COMMENT_9127720+1</title>
<path fill="none" stroke="black" d="M552,-725.7C552,-717.98 552,-708.71 552,-700.11"/>
<polygon fill="black" stroke="black" points="555.5,-700.1 552,-690.1 548.5,-700.1 555.5,-700.1"/>
</g>
<!-- COMMENT_9125900+1 -->
<g id="node36" class="node">
<title>COMMENT_9125900+1</title>
<polygon fill="none" stroke="black" points="757,-618 341,-618 341,-582 763,-582 763,-612 757,-618"/>
<polyline fill="none" stroke="black" points="757,-618 757,-612 "/>
<polyline fill="none" stroke="black" points="763,-612 757,-612 "/>
<text text-anchor="middle" x="552" y="-596.3" font-family="Times,serif" font-size="14.00">Check to see if a vent should be activated or deactivated</text>
</g>
<!-- COMMENT_9127720+1&#45;&gt;COMMENT_9125900+1 -->
<g id="edge41" class="edge">
<title>COMMENT_9127720+1&#45;&gt;COMMENT_9125900+1</title>
<path fill="none" stroke="black" d="M552,-653.7C552,-645.98 552,-636.71 552,-628.11"/>
<polygon fill="black" stroke="black" points="555.5,-628.1 552,-618.1 548.5,-628.1 555.5,-628.1"/>
</g>
<!-- COMMENT_9127ee0+1 -->
<g id="node37" class="node">
<title>COMMENT_9127ee0+1</title>
<polygon fill="none" stroke="black" points="623,-546 475,-546 475,-510 629,-510 629,-540 623,-546"/>
<polyline fill="none" stroke="black" points="623,-546 623,-540 "/>
<polyline fill="none" stroke="black" points="629,-540 623,-540 "/>
<text text-anchor="middle" x="552" y="-524.3" font-family="Times,serif" font-size="14.00">CVENT_INDEX = 0</text>
</g>
<!-- COMMENT_9125900+1&#45;&gt;COMMENT_9127ee0+1 -->
<g id="edge42" class="edge">
<title>COMMENT_9125900+1&#45;&gt;COMMENT_9127ee0+1</title>
<path fill="none" stroke="black" d="M552,-581.7C552,-573.98 552,-564.71 552,-556.11"/>
<polygon fill="black" stroke="black" points="555.5,-556.1 552,-546.1 548.5,-556.1 555.5,-556.1"/>
</g>
<!-- COMMENT_912c4c0+1 -->
<g id="node38" class="node">
<title>COMMENT_912c4c0+1</title>
<polygon fill="none" stroke="black" points="677.5,-471 420.5,-471 420.5,-435 683.5,-435 683.5,-465 677.5,-471"/>
<polyline fill="none" stroke="black" points="677.5,-471 677.5,-465 "/>
<polyline fill="none" stroke="black" points="683.5,-465 677.5,-465 "/>
<text text-anchor="middle" x="552" y="-449.3" font-family="Times,serif" font-size="14.00">Over&#45;ride DEVICE/CONTROL logic</text>
</g>
<!-- COMMENT_9127ee0+1&#45;&gt;COMMENT_912c4c0+1 -->
<g id="edge48" class="edge">
<title>COMMENT_9127ee0+1&#45;&gt;COMMENT_912c4c0+1</title>
<path fill="none" stroke="black" d="M552,-509.7C552,-501.25 552,-490.87 552,-481.37"/>
<polygon fill="black" stroke="black" points="555.5,-481.18 552,-471.18 548.5,-481.18 555.5,-481.18"/>
</g>
<!-- COMMENT_91294c0+1 -->
<g id="node39" class="node">
<title>COMMENT_91294c0+1</title>
<polygon fill="none" stroke="black" points="989.5,-399 108.5,-399 108.5,-361 995.5,-361 995.5,-393 989.5,-399"/>
<polyline fill="none" stroke="black" points="989.5,-399 989.5,-393 "/>
<polyline fill="none" stroke="black" points="995.5,-393 989.5,-393 "/>
<text text-anchor="middle" x="552" y="-383.8" font-family="Times,serif" font-size="14.00">If the VENT is tied to a specific OBST, and the OBST is HIDDEN (not HIDDEN), and the VENT is activated (not activated),</text>
<text text-anchor="middle" x="552" y="-368.8" font-family="Times,serif" font-size="14.00">deactivate (activate) the vent.</text>
</g>
<!-- COMMENT_912c4c0+1&#45;&gt;COMMENT_91294c0+1 -->
<g id="edge43" class="edge">
<title>COMMENT_912c4c0+1&#45;&gt;COMMENT_91294c0+1</title>
<path fill="none" stroke="black" d="M552,-434.81C552,-427.11 552,-417.82 552,-409.15"/>
<polygon fill="black" stroke="black" points="555.5,-409.02 552,-399.02 548.5,-409.02 555.5,-409.02"/>
</g>
<!-- COMMENT_8fe19e0+1 -->
<g id="node40" class="node">
<title>COMMENT_8fe19e0+1</title>
<polygon fill="none" stroke="black" points="850,-325 248,-325 248,-289 856,-289 856,-319 850,-325"/>
<polyline fill="none" stroke="black" points="850,-325 850,-319 "/>
<polyline fill="none" stroke="black" points="856,-319 850,-319 "/>
<text text-anchor="middle" x="552" y="-303.3" font-family="Times,serif" font-size="14.00">Decide if a VENT is to activate or de&#45;activate based on a DEVICE or CONTROLLER</text>
</g>
<!-- COMMENT_91294c0+1&#45;&gt;COMMENT_8fe19e0+1 -->
<g id="edge44" class="edge">
<title>COMMENT_91294c0+1&#45;&gt;COMMENT_8fe19e0+1</title>
<path fill="none" stroke="black" d="M552,-360.72C552,-352.97 552,-343.79 552,-335.27"/>
<polygon fill="black" stroke="black" points="555.5,-335 552,-325 548.5,-335 555.5,-335"/>
</g>
<!-- COMMENT_9138ba0+1 -->
<g id="node41" class="node">
<title>COMMENT_9138ba0+1</title>
<polygon fill="none" stroke="black" points="880.5,-253 217.5,-253 217.5,-217 886.5,-217 886.5,-247 880.5,-253"/>
<polyline fill="none" stroke="black" points="880.5,-253 880.5,-247 "/>
<polyline fill="none" stroke="black" points="886.5,-247 880.5,-247 "/>
<text text-anchor="middle" x="552" y="-231.3" font-family="Times,serif" font-size="14.00">Find the wall indices (IW) for the vent and set the activation time (B1%T_IGN) for each one</text>
</g>
<!-- COMMENT_8fe19e0+1&#45;&gt;COMMENT_9138ba0+1 -->
<g id="edge45" class="edge">
<title>COMMENT_8fe19e0+1&#45;&gt;COMMENT_9138ba0+1</title>
<path fill="none" stroke="black" d="M552,-288.7C552,-280.98 552,-271.71 552,-263.11"/>
<polygon fill="black" stroke="black" points="555.5,-263.1 552,-253.1 548.5,-263.1 555.5,-263.1"/>
</g>
<!-- COMMENT_9150180+1 -->
<g id="node42" class="node">
<title>COMMENT_9150180+1</title>
<polygon fill="none" stroke="black" points="649,-181 449,-181 449,-145 655,-145 655,-175 649,-181"/>
<polyline fill="none" stroke="black" points="649,-181 649,-175 "/>
<polyline fill="none" stroke="black" points="655,-175 649,-175 "/>
<text text-anchor="middle" x="552" y="-159.3" font-family="Times,serif" font-size="14.00">Write message to .smv file</text>
</g>
<!-- COMMENT_9138ba0+1&#45;&gt;COMMENT_9150180+1 -->
<g id="edge46" class="edge">
<title>COMMENT_9138ba0+1&#45;&gt;COMMENT_9150180+1</title>
<path fill="none" stroke="black" d="M552,-216.7C552,-208.98 552,-199.71 552,-191.11"/>
<polygon fill="black" stroke="black" points="555.5,-191.1 552,-181.1 548.5,-191.1 555.5,-191.1"/>
</g>
<!-- CALL_9152aa0 -->
<g id="node43" class="node">
<title>CALL_9152aa0</title>
<g id="a_node43"><a xlink:href="RE_ALLOCATE_STRINGS.svg" xlink:title="RE_ALLOCATE_STRINGS">
<polygon fill="lightgray" stroke="black" points="650.5,-109 453.5,-109 453.5,-105 449.5,-105 449.5,-101 453.5,-101 453.5,-81 449.5,-81 449.5,-77 453.5,-77 453.5,-73 650.5,-73 650.5,-109"/>
<polyline fill="none" stroke="black" points="453.5,-105 457.5,-105 457.5,-101 453.5,-101 "/>
<polyline fill="none" stroke="black" points="453.5,-81 457.5,-81 457.5,-77 453.5,-77 "/>
<text text-anchor="middle" x="552" y="-87.3" font-family="Times,serif" font-size="14.00">RE_ALLOCATE_STRINGS</text>
</a>
</g>
</g>
<!-- COMMENT_9150180+1&#45;&gt;CALL_9152aa0 -->
<g id="edge47" class="edge">
<title>COMMENT_9150180+1&#45;&gt;CALL_9152aa0</title>
<path fill="none" stroke="black" d="M552,-144.7C552,-136.98 552,-127.71 552,-119.11"/>
<polygon fill="black" stroke="black" points="555.5,-119.1 552,-109.1 548.5,-119.1 555.5,-119.1"/>
</g>
<!-- end_SUBPROGRAM_915bac0 -->
<g id="node44" class="node">
<title>end_SUBPROGRAM_915bac0</title>
<ellipse fill="black" stroke="black" cx="552" cy="-30" rx="7" ry="7"/>
</g>
<!-- CALL_9152aa0&#45;&gt;end_SUBPROGRAM_915bac0 -->
<g id="edge49" class="edge">
<title>CALL_9152aa0&#45;&gt;end_SUBPROGRAM_915bac0</title>
<path fill="none" stroke="black" d="M552,-72.93C552,-64.89 552,-55.33 552,-47.37"/>
<polygon fill="black" stroke="black" points="555.5,-47.22 552,-37.22 548.5,-47.22 555.5,-47.22"/>
</g>
</g>
</svg>
