<?xml version="1.0" encoding="UTF-8" standalone="no"?>
<!DOCTYPE svg PUBLIC "-//W3C//DTD SVG 1.1//EN"
 "http://www.w3.org/Graphics/SVG/1.1/DTD/svg11.dtd">
<!-- Generated by graphviz version 2.43.0 (0)
 -->
<!-- Title: PATCH_VELOCITY_FLUX Pages: 1 -->
<svg width="724pt" height="286pt"
 viewBox="0.00 0.00 724.00 286.00" xmlns="http://www.w3.org/2000/svg" xmlns:xlink="http://www.w3.org/1999/xlink">
<g id="graph0" class="graph" transform="scale(1 1) rotate(0) translate(4 282)">
<title>PATCH_VELOCITY_FLUX</title>
<polygon fill="white" stroke="transparent" points="-4,4 -4,-282 720,-282 720,4 -4,4"/>
<text text-anchor="middle" x="358" y="-7.8" font-family="Times,serif" font-size="14.00">PATCH_VELOCITY_FLUX</text>
<!-- start_SUBPROGRAM_8904be0 -->
<g id="node1" class="node">
<title>start_SUBPROGRAM_8904be0</title>
<ellipse fill="none" stroke="black" cx="358" cy="-271" rx="7" ry="7"/>
</g>
<!-- COMMENT_873ccc0+1 -->
<g id="node2" class="node">
<title>COMMENT_873ccc0+1</title>
<polygon fill="none" stroke="black" points="710,-228 0,-228 0,-145 716,-145 716,-222 710,-228"/>
<polyline fill="none" stroke="black" points="710,-228 710,-222 "/>
<polyline fill="none" stroke="black" points="716,-222 710,-222 "/>
<text text-anchor="middle" x="358" y="-212.8" font-family="Times,serif" font-size="14.00">!&gt; brief Compute the velocity flux at a user&#45;specified patch</text>
<text text-anchor="middle" x="358" y="-197.8" font-family="Times,serif" font-size="14.00">!&gt; details The user may specify a polynomial profile using the PROP and DEVC lines. This routine</text>
<text text-anchor="middle" x="358" y="-182.8" font-family="Times,serif" font-size="14.00">!&gt; specifies the source term in the momentum equation to drive the local velocity toward</text>
<text text-anchor="middle" x="358" y="-167.8" font-family="Times,serif" font-size="14.00">!&gt; this user&#45;specified value, in much the same way as the immersed boundary method</text>
<text text-anchor="middle" x="358" y="-152.8" font-family="Times,serif" font-size="14.00">!&gt; (see CC_VELOCITY_FLUX).</text>
</g>
<!-- start_SUBPROGRAM_8904be0&#45;&gt;COMMENT_873ccc0+1 -->
<g id="edge1" class="edge">
<title>start_SUBPROGRAM_8904be0&#45;&gt;COMMENT_873ccc0+1</title>
<path fill="none" stroke="black" d="M358,-263.8C358,-257.89 358,-248.39 358,-238.07"/>
<polygon fill="black" stroke="black" points="361.5,-238.01 358,-228.01 354.5,-238.01 361.5,-238.01"/>
</g>
<!-- DO_87cd6a0 -->
<g id="node3" class="node">
<title>DO_87cd6a0</title>
<polygon fill="none" stroke="orange" points="411.5,-109 304.5,-109 304.5,-73 411.5,-73 411.5,-109"/>
<text text-anchor="middle" x="358" y="-87.3" font-family="Times,serif" font-size="14.00">DEVC_LOOP</text>
</g>
<!-- COMMENT_873ccc0+1&#45;&gt;DO_87cd6a0 -->
<g id="edge2" class="edge">
<title>COMMENT_873ccc0+1&#45;&gt;DO_87cd6a0</title>
<path fill="none" stroke="black" d="M358,-144.76C358,-136.24 358,-127.44 358,-119.53"/>
<polygon fill="black" stroke="black" points="361.5,-119.41 358,-109.41 354.5,-119.41 361.5,-119.41"/>
</g>
<!-- end_SUBPROGRAM_8904be0 -->
<g id="node4" class="node">
<title>end_SUBPROGRAM_8904be0</title>
<ellipse fill="black" stroke="black" cx="358" cy="-30" rx="7" ry="7"/>
</g>
<!-- DO_87cd6a0&#45;&gt;end_SUBPROGRAM_8904be0 -->
<g id="edge3" class="edge">
<title>DO_87cd6a0&#45;&gt;end_SUBPROGRAM_8904be0</title>
<path fill="none" stroke="black" d="M358,-72.93C358,-64.89 358,-55.33 358,-47.37"/>
<polygon fill="black" stroke="black" points="361.5,-47.22 358,-37.22 354.5,-47.22 361.5,-47.22"/>
</g>
</g>
</svg>
