<?xml version="1.0" encoding="UTF-8" standalone="no"?>
<!DOCTYPE svg PUBLIC "-//W3C//DTD SVG 1.1//EN"
 "http://www.w3.org/Graphics/SVG/1.1/DTD/svg11.dtd">
<!-- Generated by graphviz version 2.43.0 (0)
 -->
<!-- Title: POST_RECEIVES Pages: 1 -->
<svg width="850pt" height="3440pt"
 viewBox="0.00 0.00 850.00 3440.32" xmlns="http://www.w3.org/2000/svg" xmlns:xlink="http://www.w3.org/1999/xlink">
<g id="graph0" class="graph" transform="scale(1 1) rotate(0) translate(4 3436.32)">
<title>POST_RECEIVES</title>
<polygon fill="white" stroke="transparent" points="-4,4 -4,-3436.32 846,-3436.32 846,4 -4,4"/>
<text text-anchor="middle" x="421" y="-7.8" font-family="Times,serif" font-size="14.00">POST_RECEIVES</text>
<g id="clust1" class="cluster">
<title>cluster_RECEIVING_MESH_LOOP</title>
<polygon fill="none" stroke="orange" points="97,-65 97,-3321.32 745,-3321.32 745,-65 97,-65"/>
<text text-anchor="middle" x="198.5" y="-3306.12" font-family="Times,serif" font-size="14.00">RECEIVING_MESH_LOOP</text>
</g>
<g id="clust2" class="cluster">
<title>cluster_SENDING_MESH_LOOP</title>
<polygon fill="none" stroke="orange" points="105,-101.72 105,-3281.6 737,-3281.6 737,-101.72 105,-101.72"/>
<text text-anchor="middle" x="200" y="-3266.4" font-family="Times,serif" font-size="14.00">SENDING_MESH_LOOP</text>
</g>
<g id="clust3" class="cluster">
<title>cluster_INITIALIZATION_IF</title>
<polygon fill="none" stroke="blue" points="113,-2154.44 113,-3169.88 729,-3169.88 729,-2154.44 113,-2154.44"/>
<text text-anchor="middle" x="190.5" y="-3154.68" font-family="Times,serif" font-size="14.00">INITIALIZATION_IF</text>
</g>
<g id="clust4" class="cluster">
<title>cluster_cond9648680</title>
<polygon fill="none" stroke="black" points="121,-2191.16 121,-3130.16 721,-3130.16 721,-2191.16 121,-2191.16"/>
<text text-anchor="middle" x="177.5" y="-3114.96" font-family="Times,serif" font-size="14.00">cond9648680</text>
</g>
<!-- start_SUBPROGRAM_96ac4a0 -->
<g id="node1" class="node">
<title>start_SUBPROGRAM_96ac4a0</title>
<ellipse fill="none" stroke="black" cx="421" cy="-3425.32" rx="7" ry="7"/>
</g>
<!-- COMMENT_960b440+1 -->
<g id="node2" class="node">
<title>COMMENT_960b440+1</title>
<polygon fill="none" stroke="black" points="836,-3382.32 0,-3382.32 0,-3329.32 842,-3329.32 842,-3376.32 836,-3382.32"/>
<polyline fill="none" stroke="black" points="836,-3382.32 836,-3376.32 "/>
<polyline fill="none" stroke="black" points="842,-3376.32 836,-3376.32 "/>
<text text-anchor="middle" x="421" y="-3367.12" font-family="Times,serif" font-size="14.00">!&gt; brief Set up receive buffers for MPI calls.</text>
<text text-anchor="middle" x="421" y="-3352.12" font-family="Times,serif" font-size="14.00">!&gt; details This subroutine loops over meshes (NM) that are to receive MPI sends from neighboring meshes (NOM).</text>
<text text-anchor="middle" x="421" y="-3337.12" font-family="Times,serif" font-size="14.00">!&gt; When CODE=0, initializations are done, in particular the set up of persistent receives.</text>
</g>
<!-- start_SUBPROGRAM_96ac4a0&#45;&gt;COMMENT_960b440+1 -->
<g id="edge1" class="edge">
<title>start_SUBPROGRAM_96ac4a0&#45;&gt;COMMENT_960b440+1</title>
<path fill="none" stroke="black" d="M421,-3418.09C421,-3412.08 421,-3402.48 421,-3392.64"/>
<polygon fill="black" stroke="black" points="424.5,-3392.44 421,-3382.44 417.5,-3392.44 424.5,-3392.44"/>
</g>
<!-- beginDO_DO_96a8960 -->
<g id="node3" class="node">
<title>beginDO_DO_96a8960</title>
<ellipse fill="black" stroke="black" cx="421" cy="-3289.96" rx="0.36" ry="0.36"/>
</g>
<!-- COMMENT_960b440+1&#45;&gt;beginDO_DO_96a8960 -->
<g id="edge48" class="edge">
<title>COMMENT_960b440+1&#45;&gt;beginDO_DO_96a8960</title>
<path fill="none" stroke="black" d="M421,-3329.21C421,-3312 421,-3292.24 421,-3291.02"/>
</g>
<!-- beginDO_DO_96ace40 -->
<g id="node5" class="node">
<title>beginDO_DO_96ace40</title>
<ellipse fill="black" stroke="black" cx="421" cy="-3250.24" rx="0.36" ry="0.36"/>
</g>
<!-- beginDO_DO_96a8960&#45;&gt;beginDO_DO_96ace40 -->
<g id="edge46" class="edge">
<title>beginDO_DO_96a8960&#45;&gt;beginDO_DO_96ace40</title>
<path fill="none" stroke="black" d="M421,-3289.49C421,-3287.31 421,-3253.46 421,-3251.34"/>
</g>
<!-- endDO_DO_96a8960 -->
<g id="node4" class="node">
<title>endDO_DO_96a8960</title>
<ellipse fill="black" stroke="black" cx="421" cy="-73.36" rx="0.36" ry="0.36"/>
</g>
<!-- end_SUBPROGRAM_96ac4a0 -->
<g id="node51" class="node">
<title>end_SUBPROGRAM_96ac4a0</title>
<ellipse fill="black" stroke="black" cx="421" cy="-30" rx="7" ry="7"/>
</g>
<!-- endDO_DO_96a8960&#45;&gt;end_SUBPROGRAM_96ac4a0 -->
<g id="edge50" class="edge">
<title>endDO_DO_96a8960&#45;&gt;end_SUBPROGRAM_96ac4a0</title>
<path fill="none" stroke="black" d="M421,-72.24C421,-70.89 421,-58.27 421,-47.34"/>
<polygon fill="black" stroke="black" points="424.5,-47.1 421,-37.1 417.5,-47.1 424.5,-47.1"/>
</g>
<!-- COMMENT_9613080+1 -->
<g id="node7" class="node">
<title>COMMENT_9613080+1</title>
<polygon fill="none" stroke="black" points="665.5,-3213.88 170.5,-3213.88 170.5,-3177.88 671.5,-3177.88 671.5,-3207.88 665.5,-3213.88"/>
<polyline fill="none" stroke="black" points="665.5,-3213.88 665.5,-3207.88 "/>
<polyline fill="none" stroke="black" points="671.5,-3207.88 665.5,-3207.88 "/>
<text text-anchor="middle" x="421" y="-3192.18" font-family="Times,serif" font-size="14.00">Set up receives for one&#45;time exchanges or persistent send/receives.</text>
</g>
<!-- beginDO_DO_96ace40&#45;&gt;COMMENT_9613080+1 -->
<g id="edge2" class="edge">
<title>beginDO_DO_96ace40&#45;&gt;COMMENT_9613080+1</title>
<path fill="none" stroke="black" d="M421,-3249.73C421,-3248.25 421,-3236.2 421,-3223.98"/>
<polygon fill="black" stroke="black" points="424.5,-3223.9 421,-3213.9 417.5,-3223.9 424.5,-3223.9"/>
</g>
<!-- endDO_DO_96ace40 -->
<g id="node6" class="node">
<title>endDO_DO_96ace40</title>
<ellipse fill="black" stroke="black" cx="421" cy="-110.08" rx="0.36" ry="0.36"/>
</g>
<!-- endDO_DO_96ace40&#45;&gt;endDO_DO_96a8960 -->
<g id="edge49" class="edge">
<title>endDO_DO_96ace40&#45;&gt;endDO_DO_96a8960</title>
<path fill="none" stroke="black" d="M421,-108.98C421,-106.97 421,-75.76 421,-73.82"/>
</g>
<!-- beginIf_IF_9648700 -->
<g id="node8" class="node">
<title>beginIf_IF_9648700</title>
<ellipse fill="black" stroke="black" cx="421" cy="-3138.52" rx="0.36" ry="0.36"/>
</g>
<!-- COMMENT_9613080+1&#45;&gt;beginIf_IF_9648700 -->
<g id="edge17" class="edge">
<title>COMMENT_9613080+1&#45;&gt;beginIf_IF_9648700</title>
<path fill="none" stroke="black" d="M421,-3177.67C421,-3161.92 421,-3140.88 421,-3139.58"/>
</g>
<!-- COMMENT_960dd60+1 -->
<g id="node10" class="node">
<title>COMMENT_960dd60+1</title>
<polygon fill="none" stroke="black" points="695,-3099.16 141,-3099.16 141,-3063.16 701,-3063.16 701,-3093.16 695,-3099.16"/>
<polyline fill="none" stroke="black" points="695,-3099.16 695,-3093.16 "/>
<polyline fill="none" stroke="black" points="701,-3093.16 695,-3093.16 "/>
<text text-anchor="middle" x="421" y="-3077.46" font-family="Times,serif" font-size="14.00">Determine the maximum number of radiation angles that are to be received</text>
</g>
<!-- beginIf_IF_9648700&#45;&gt;COMMENT_960dd60+1 -->
<g id="edge15" class="edge">
<title>beginIf_IF_9648700&#45;&gt;COMMENT_960dd60+1</title>
<path fill="none" stroke="black" d="M421,-3138C421,-3136.37 421,-3122.68 421,-3109.26"/>
<polygon fill="black" stroke="black" points="424.5,-3109.26 421,-3099.26 417.5,-3109.26 424.5,-3109.26"/>
</g>
<!-- endIf_IF_9648700 -->
<g id="node9" class="node">
<title>endIf_IF_9648700</title>
<ellipse fill="black" stroke="black" cx="421" cy="-2162.8" rx="0.36" ry="0.36"/>
</g>
<!-- COMMENT_960e860+1 -->
<g id="node23" class="node">
<title>COMMENT_960e860+1</title>
<polygon fill="none" stroke="black" points="549,-2126.44 287,-2126.44 287,-2090.44 555,-2090.44 555,-2120.44 549,-2126.44"/>
<polyline fill="none" stroke="black" points="549,-2126.44 549,-2120.44 "/>
<polyline fill="none" stroke="black" points="555,-2120.44 549,-2120.44 "/>
<text text-anchor="middle" x="421" y="-2104.74" font-family="Times,serif" font-size="14.00">Exchange BACK_WALL information</text>
</g>
<!-- endIf_IF_9648700&#45;&gt;COMMENT_960e860+1 -->
<g id="edge18" class="edge">
<title>endIf_IF_9648700&#45;&gt;COMMENT_960e860+1</title>
<path fill="none" stroke="black" d="M421,-2161.65C421,-2160.21 421,-2148.67 421,-2136.8"/>
<polygon fill="black" stroke="black" points="424.5,-2136.54 421,-2126.54 417.5,-2136.54 424.5,-2136.54"/>
</g>
<!-- COMMENT_960d4c0+1 -->
<g id="node11" class="node">
<title>COMMENT_960d4c0+1</title>
<polygon fill="none" stroke="black" points="707,-3027.16 129,-3027.16 129,-2991.16 713,-2991.16 713,-3021.16 707,-3027.16"/>
<polyline fill="none" stroke="black" points="707,-3027.16 707,-3021.16 "/>
<polyline fill="none" stroke="black" points="713,-3021.16 707,-3021.16 "/>
<text text-anchor="middle" x="421" y="-3005.46" font-family="Times,serif" font-size="14.00">Allocate the 1&#45;D arrays that hold the big mesh variables that are to be received</text>
</g>
<!-- COMMENT_960dd60+1&#45;&gt;COMMENT_960d4c0+1 -->
<g id="edge3" class="edge">
<title>COMMENT_960dd60+1&#45;&gt;COMMENT_960d4c0+1</title>
<path fill="none" stroke="black" d="M421,-3062.86C421,-3055.14 421,-3045.87 421,-3037.27"/>
<polygon fill="black" stroke="black" points="424.5,-3037.26 421,-3027.26 417.5,-3037.26 424.5,-3037.26"/>
</g>
<!-- COMMENT_9621520+1 -->
<g id="node12" class="node">
<title>COMMENT_9621520+1</title>
<polygon fill="none" stroke="black" points="546.5,-2955.16 289.5,-2955.16 289.5,-2919.16 552.5,-2919.16 552.5,-2949.16 546.5,-2955.16"/>
<polyline fill="none" stroke="black" points="546.5,-2955.16 546.5,-2949.16 "/>
<polyline fill="none" stroke="black" points="552.5,-2949.16 546.5,-2949.16 "/>
<text text-anchor="middle" x="421" y="-2933.46" font-family="Times,serif" font-size="14.00">Set up persistent receive requests</text>
</g>
<!-- COMMENT_960d4c0+1&#45;&gt;COMMENT_9621520+1 -->
<g id="edge4" class="edge">
<title>COMMENT_960d4c0+1&#45;&gt;COMMENT_9621520+1</title>
<path fill="none" stroke="black" d="M421,-2990.86C421,-2983.14 421,-2973.87 421,-2965.27"/>
<polygon fill="black" stroke="black" points="424.5,-2965.26 421,-2955.26 417.5,-2965.26 424.5,-2965.26"/>
</g>
<!-- CALL_9624f40 -->
<g id="node13" class="node">
<title>CALL_9624f40</title>
<g id="a_node13"><a xlink:href="MPI_RECV_INIT.svg" xlink:title="MPI_RECV_INIT">
<polygon fill="#ffe800" stroke="black" points="487,-2883.16 355,-2883.16 355,-2879.16 351,-2879.16 351,-2875.16 355,-2875.16 355,-2855.16 351,-2855.16 351,-2851.16 355,-2851.16 355,-2847.16 487,-2847.16 487,-2883.16"/>
<polyline fill="none" stroke="black" points="355,-2879.16 359,-2879.16 359,-2875.16 355,-2875.16 "/>
<polyline fill="none" stroke="black" points="355,-2855.16 359,-2855.16 359,-2851.16 355,-2851.16 "/>
<text text-anchor="middle" x="421" y="-2861.46" font-family="Times,serif" font-size="14.00">MPI_RECV_INIT</text>
</a>
</g>
</g>
<!-- COMMENT_9621520+1&#45;&gt;CALL_9624f40 -->
<g id="edge5" class="edge">
<title>COMMENT_9621520+1&#45;&gt;CALL_9624f40</title>
<path fill="none" stroke="black" d="M421,-2918.86C421,-2911.14 421,-2901.87 421,-2893.27"/>
<polygon fill="black" stroke="black" points="424.5,-2893.26 421,-2883.26 417.5,-2893.26 424.5,-2893.26"/>
</g>
<!-- CALL_9628520 -->
<g id="node14" class="node">
<title>CALL_9628520</title>
<g id="a_node14"><a xlink:href="MPI_RECV_INIT.svg" xlink:title="MPI_RECV_INIT">
<polygon fill="#ffe800" stroke="black" points="487,-2811.16 355,-2811.16 355,-2807.16 351,-2807.16 351,-2803.16 355,-2803.16 355,-2783.16 351,-2783.16 351,-2779.16 355,-2779.16 355,-2775.16 487,-2775.16 487,-2811.16"/>
<polyline fill="none" stroke="black" points="355,-2807.16 359,-2807.16 359,-2803.16 355,-2803.16 "/>
<polyline fill="none" stroke="black" points="355,-2783.16 359,-2783.16 359,-2779.16 355,-2779.16 "/>
<text text-anchor="middle" x="421" y="-2789.46" font-family="Times,serif" font-size="14.00">MPI_RECV_INIT</text>
</a>
</g>
</g>
<!-- CALL_9624f40&#45;&gt;CALL_9628520 -->
<g id="edge6" class="edge">
<title>CALL_9624f40&#45;&gt;CALL_9628520</title>
<path fill="none" stroke="black" d="M421,-2846.86C421,-2839.14 421,-2829.87 421,-2821.27"/>
<polygon fill="black" stroke="black" points="424.5,-2821.26 421,-2811.26 417.5,-2821.26 424.5,-2821.26"/>
</g>
<!-- CALL_962b860 -->
<g id="node15" class="node">
<title>CALL_962b860</title>
<g id="a_node15"><a xlink:href="MPI_RECV_INIT.svg" xlink:title="MPI_RECV_INIT">
<polygon fill="#ffe800" stroke="black" points="487,-2739.16 355,-2739.16 355,-2735.16 351,-2735.16 351,-2731.16 355,-2731.16 355,-2711.16 351,-2711.16 351,-2707.16 355,-2707.16 355,-2703.16 487,-2703.16 487,-2739.16"/>
<polyline fill="none" stroke="black" points="355,-2735.16 359,-2735.16 359,-2731.16 355,-2731.16 "/>
<polyline fill="none" stroke="black" points="355,-2711.16 359,-2711.16 359,-2707.16 355,-2707.16 "/>
<text text-anchor="middle" x="421" y="-2717.46" font-family="Times,serif" font-size="14.00">MPI_RECV_INIT</text>
</a>
</g>
</g>
<!-- CALL_9628520&#45;&gt;CALL_962b860 -->
<g id="edge7" class="edge">
<title>CALL_9628520&#45;&gt;CALL_962b860</title>
<path fill="none" stroke="black" d="M421,-2774.86C421,-2767.14 421,-2757.87 421,-2749.27"/>
<polygon fill="black" stroke="black" points="424.5,-2749.26 421,-2739.26 417.5,-2749.26 424.5,-2749.26"/>
</g>
<!-- CALL_962ee40 -->
<g id="node16" class="node">
<title>CALL_962ee40</title>
<g id="a_node16"><a xlink:href="MPI_RECV_INIT.svg" xlink:title="MPI_RECV_INIT">
<polygon fill="#ffe800" stroke="black" points="487,-2667.16 355,-2667.16 355,-2663.16 351,-2663.16 351,-2659.16 355,-2659.16 355,-2639.16 351,-2639.16 351,-2635.16 355,-2635.16 355,-2631.16 487,-2631.16 487,-2667.16"/>
<polyline fill="none" stroke="black" points="355,-2663.16 359,-2663.16 359,-2659.16 355,-2659.16 "/>
<polyline fill="none" stroke="black" points="355,-2639.16 359,-2639.16 359,-2635.16 355,-2635.16 "/>
<text text-anchor="middle" x="421" y="-2645.46" font-family="Times,serif" font-size="14.00">MPI_RECV_INIT</text>
</a>
</g>
</g>
<!-- CALL_962b860&#45;&gt;CALL_962ee40 -->
<g id="edge8" class="edge">
<title>CALL_962b860&#45;&gt;CALL_962ee40</title>
<path fill="none" stroke="black" d="M421,-2702.86C421,-2695.14 421,-2685.87 421,-2677.27"/>
<polygon fill="black" stroke="black" points="424.5,-2677.26 421,-2667.26 417.5,-2677.26 424.5,-2677.26"/>
</g>
<!-- CALL_9633680 -->
<g id="node17" class="node">
<title>CALL_9633680</title>
<g id="a_node17"><a xlink:href="MPI_RECV_INIT.svg" xlink:title="MPI_RECV_INIT">
<polygon fill="#ffe800" stroke="black" points="487,-2595.16 355,-2595.16 355,-2591.16 351,-2591.16 351,-2587.16 355,-2587.16 355,-2567.16 351,-2567.16 351,-2563.16 355,-2563.16 355,-2559.16 487,-2559.16 487,-2595.16"/>
<polyline fill="none" stroke="black" points="355,-2591.16 359,-2591.16 359,-2587.16 355,-2587.16 "/>
<polyline fill="none" stroke="black" points="355,-2567.16 359,-2567.16 359,-2563.16 355,-2563.16 "/>
<text text-anchor="middle" x="421" y="-2573.46" font-family="Times,serif" font-size="14.00">MPI_RECV_INIT</text>
</a>
</g>
</g>
<!-- CALL_962ee40&#45;&gt;CALL_9633680 -->
<g id="edge9" class="edge">
<title>CALL_962ee40&#45;&gt;CALL_9633680</title>
<path fill="none" stroke="black" d="M421,-2630.86C421,-2623.14 421,-2613.87 421,-2605.27"/>
<polygon fill="black" stroke="black" points="424.5,-2605.26 421,-2595.26 417.5,-2605.26 424.5,-2605.26"/>
</g>
<!-- CALL_9636ec0 -->
<g id="node18" class="node">
<title>CALL_9636ec0</title>
<g id="a_node18"><a xlink:href="MPI_RECV_INIT.svg" xlink:title="MPI_RECV_INIT">
<polygon fill="#ffe800" stroke="black" points="487,-2523.16 355,-2523.16 355,-2519.16 351,-2519.16 351,-2515.16 355,-2515.16 355,-2495.16 351,-2495.16 351,-2491.16 355,-2491.16 355,-2487.16 487,-2487.16 487,-2523.16"/>
<polyline fill="none" stroke="black" points="355,-2519.16 359,-2519.16 359,-2515.16 355,-2515.16 "/>
<polyline fill="none" stroke="black" points="355,-2495.16 359,-2495.16 359,-2491.16 355,-2491.16 "/>
<text text-anchor="middle" x="421" y="-2501.46" font-family="Times,serif" font-size="14.00">MPI_RECV_INIT</text>
</a>
</g>
</g>
<!-- CALL_9633680&#45;&gt;CALL_9636ec0 -->
<g id="edge10" class="edge">
<title>CALL_9633680&#45;&gt;CALL_9636ec0</title>
<path fill="none" stroke="black" d="M421,-2558.86C421,-2551.14 421,-2541.87 421,-2533.27"/>
<polygon fill="black" stroke="black" points="424.5,-2533.26 421,-2523.26 417.5,-2533.26 424.5,-2533.26"/>
</g>
<!-- CALL_963b080 -->
<g id="node19" class="node">
<title>CALL_963b080</title>
<g id="a_node19"><a xlink:href="MPI_RECV_INIT.svg" xlink:title="MPI_RECV_INIT">
<polygon fill="#ffe800" stroke="black" points="487,-2451.16 355,-2451.16 355,-2447.16 351,-2447.16 351,-2443.16 355,-2443.16 355,-2423.16 351,-2423.16 351,-2419.16 355,-2419.16 355,-2415.16 487,-2415.16 487,-2451.16"/>
<polyline fill="none" stroke="black" points="355,-2447.16 359,-2447.16 359,-2443.16 355,-2443.16 "/>
<polyline fill="none" stroke="black" points="355,-2423.16 359,-2423.16 359,-2419.16 355,-2419.16 "/>
<text text-anchor="middle" x="421" y="-2429.46" font-family="Times,serif" font-size="14.00">MPI_RECV_INIT</text>
</a>
</g>
</g>
<!-- CALL_9636ec0&#45;&gt;CALL_963b080 -->
<g id="edge11" class="edge">
<title>CALL_9636ec0&#45;&gt;CALL_963b080</title>
<path fill="none" stroke="black" d="M421,-2486.86C421,-2479.14 421,-2469.87 421,-2461.27"/>
<polygon fill="black" stroke="black" points="424.5,-2461.26 421,-2451.26 417.5,-2461.26 424.5,-2461.26"/>
</g>
<!-- CALL_963f000 -->
<g id="node20" class="node">
<title>CALL_963f000</title>
<g id="a_node20"><a xlink:href="MPI_RECV_INIT.svg" xlink:title="MPI_RECV_INIT">
<polygon fill="#ffe800" stroke="black" points="487,-2379.16 355,-2379.16 355,-2375.16 351,-2375.16 351,-2371.16 355,-2371.16 355,-2351.16 351,-2351.16 351,-2347.16 355,-2347.16 355,-2343.16 487,-2343.16 487,-2379.16"/>
<polyline fill="none" stroke="black" points="355,-2375.16 359,-2375.16 359,-2371.16 355,-2371.16 "/>
<polyline fill="none" stroke="black" points="355,-2351.16 359,-2351.16 359,-2347.16 355,-2347.16 "/>
<text text-anchor="middle" x="421" y="-2357.46" font-family="Times,serif" font-size="14.00">MPI_RECV_INIT</text>
</a>
</g>
</g>
<!-- CALL_963b080&#45;&gt;CALL_963f000 -->
<g id="edge12" class="edge">
<title>CALL_963b080&#45;&gt;CALL_963f000</title>
<path fill="none" stroke="black" d="M421,-2414.86C421,-2407.14 421,-2397.87 421,-2389.27"/>
<polygon fill="black" stroke="black" points="424.5,-2389.26 421,-2379.26 417.5,-2389.26 424.5,-2389.26"/>
</g>
<!-- CALL_9643460 -->
<g id="node21" class="node">
<title>CALL_9643460</title>
<g id="a_node21"><a xlink:href="MPI_RECV_INIT.svg" xlink:title="MPI_RECV_INIT">
<polygon fill="#ffe800" stroke="black" points="487,-2307.16 355,-2307.16 355,-2303.16 351,-2303.16 351,-2299.16 355,-2299.16 355,-2279.16 351,-2279.16 351,-2275.16 355,-2275.16 355,-2271.16 487,-2271.16 487,-2307.16"/>
<polyline fill="none" stroke="black" points="355,-2303.16 359,-2303.16 359,-2299.16 355,-2299.16 "/>
<polyline fill="none" stroke="black" points="355,-2279.16 359,-2279.16 359,-2275.16 355,-2275.16 "/>
<text text-anchor="middle" x="421" y="-2285.46" font-family="Times,serif" font-size="14.00">MPI_RECV_INIT</text>
</a>
</g>
</g>
<!-- CALL_963f000&#45;&gt;CALL_9643460 -->
<g id="edge13" class="edge">
<title>CALL_963f000&#45;&gt;CALL_9643460</title>
<path fill="none" stroke="black" d="M421,-2342.86C421,-2335.14 421,-2325.87 421,-2317.27"/>
<polygon fill="black" stroke="black" points="424.5,-2317.26 421,-2307.26 417.5,-2317.26 424.5,-2317.26"/>
</g>
<!-- CALL_9648140 -->
<g id="node22" class="node">
<title>CALL_9648140</title>
<g id="a_node22"><a xlink:href="MPI_RECV_INIT.svg" xlink:title="MPI_RECV_INIT">
<polygon fill="#ffe800" stroke="black" points="487,-2235.16 355,-2235.16 355,-2231.16 351,-2231.16 351,-2227.16 355,-2227.16 355,-2207.16 351,-2207.16 351,-2203.16 355,-2203.16 355,-2199.16 487,-2199.16 487,-2235.16"/>
<polyline fill="none" stroke="black" points="355,-2231.16 359,-2231.16 359,-2227.16 355,-2227.16 "/>
<polyline fill="none" stroke="black" points="355,-2207.16 359,-2207.16 359,-2203.16 355,-2203.16 "/>
<text text-anchor="middle" x="421" y="-2213.46" font-family="Times,serif" font-size="14.00">MPI_RECV_INIT</text>
</a>
</g>
</g>
<!-- CALL_9643460&#45;&gt;CALL_9648140 -->
<g id="edge14" class="edge">
<title>CALL_9643460&#45;&gt;CALL_9648140</title>
<path fill="none" stroke="black" d="M421,-2270.86C421,-2263.14 421,-2253.87 421,-2245.27"/>
<polygon fill="black" stroke="black" points="424.5,-2245.26 421,-2235.26 417.5,-2245.26 424.5,-2245.26"/>
</g>
<!-- CALL_9648140&#45;&gt;endIf_IF_9648700 -->
<g id="edge16" class="edge">
<title>CALL_9648140&#45;&gt;endIf_IF_9648700</title>
<path fill="none" stroke="black" d="M421,-2199.1C421,-2184.09 421,-2164.43 421,-2163.22"/>
</g>
<!-- CALL_964c880 -->
<g id="node24" class="node">
<title>CALL_964c880</title>
<g id="a_node24"><a xlink:href="MPI_IRECV.svg" xlink:title="MPI_IRECV">
<polygon fill="#ffe800" stroke="black" points="470.5,-2054.44 371.5,-2054.44 371.5,-2050.44 367.5,-2050.44 367.5,-2046.44 371.5,-2046.44 371.5,-2026.44 367.5,-2026.44 367.5,-2022.44 371.5,-2022.44 371.5,-2018.44 470.5,-2018.44 470.5,-2054.44"/>
<polyline fill="none" stroke="black" points="371.5,-2050.44 375.5,-2050.44 375.5,-2046.44 371.5,-2046.44 "/>
<polyline fill="none" stroke="black" points="371.5,-2026.44 375.5,-2026.44 375.5,-2022.44 371.5,-2022.44 "/>
<text text-anchor="middle" x="421" y="-2032.74" font-family="Times,serif" font-size="14.00">MPI_IRECV</text>
</a>
</g>
</g>
<!-- COMMENT_960e860+1&#45;&gt;CALL_964c880 -->
<g id="edge19" class="edge">
<title>COMMENT_960e860+1&#45;&gt;CALL_964c880</title>
<path fill="none" stroke="black" d="M421,-2090.14C421,-2082.42 421,-2073.15 421,-2064.55"/>
<polygon fill="black" stroke="black" points="424.5,-2064.54 421,-2054.54 417.5,-2064.54 424.5,-2064.54"/>
</g>
<!-- CALL_964fb80 -->
<g id="node25" class="node">
<title>CALL_964fb80</title>
<g id="a_node25"><a xlink:href="MPI_IRECV.svg" xlink:title="MPI_IRECV">
<polygon fill="#ffe800" stroke="black" points="470.5,-1982.44 371.5,-1982.44 371.5,-1978.44 367.5,-1978.44 367.5,-1974.44 371.5,-1974.44 371.5,-1954.44 367.5,-1954.44 367.5,-1950.44 371.5,-1950.44 371.5,-1946.44 470.5,-1946.44 470.5,-1982.44"/>
<polyline fill="none" stroke="black" points="371.5,-1978.44 375.5,-1978.44 375.5,-1974.44 371.5,-1974.44 "/>
<polyline fill="none" stroke="black" points="371.5,-1954.44 375.5,-1954.44 375.5,-1950.44 371.5,-1950.44 "/>
<text text-anchor="middle" x="421" y="-1960.74" font-family="Times,serif" font-size="14.00">MPI_IRECV</text>
</a>
</g>
</g>
<!-- CALL_964c880&#45;&gt;CALL_964fb80 -->
<g id="edge20" class="edge">
<title>CALL_964c880&#45;&gt;CALL_964fb80</title>
<path fill="none" stroke="black" d="M421,-2018.14C421,-2010.42 421,-2001.15 421,-1992.55"/>
<polygon fill="black" stroke="black" points="424.5,-1992.54 421,-1982.54 417.5,-1992.54 424.5,-1992.54"/>
</g>
<!-- CALL_9653760 -->
<g id="node26" class="node">
<title>CALL_9653760</title>
<g id="a_node26"><a xlink:href="MPI_IRECV.svg" xlink:title="MPI_IRECV">
<polygon fill="#ffe800" stroke="black" points="470.5,-1910.44 371.5,-1910.44 371.5,-1906.44 367.5,-1906.44 367.5,-1902.44 371.5,-1902.44 371.5,-1882.44 367.5,-1882.44 367.5,-1878.44 371.5,-1878.44 371.5,-1874.44 470.5,-1874.44 470.5,-1910.44"/>
<polyline fill="none" stroke="black" points="371.5,-1906.44 375.5,-1906.44 375.5,-1902.44 371.5,-1902.44 "/>
<polyline fill="none" stroke="black" points="371.5,-1882.44 375.5,-1882.44 375.5,-1878.44 371.5,-1878.44 "/>
<text text-anchor="middle" x="421" y="-1888.74" font-family="Times,serif" font-size="14.00">MPI_IRECV</text>
</a>
</g>
</g>
<!-- CALL_964fb80&#45;&gt;CALL_9653760 -->
<g id="edge21" class="edge">
<title>CALL_964fb80&#45;&gt;CALL_9653760</title>
<path fill="none" stroke="black" d="M421,-1946.14C421,-1938.42 421,-1929.15 421,-1920.55"/>
<polygon fill="black" stroke="black" points="424.5,-1920.54 421,-1910.54 417.5,-1920.54 424.5,-1920.54"/>
</g>
<!-- CALL_9656bc0 -->
<g id="node27" class="node">
<title>CALL_9656bc0</title>
<g id="a_node27"><a xlink:href="MPI_IRECV.svg" xlink:title="MPI_IRECV">
<polygon fill="#ffe800" stroke="black" points="470.5,-1838.44 371.5,-1838.44 371.5,-1834.44 367.5,-1834.44 367.5,-1830.44 371.5,-1830.44 371.5,-1810.44 367.5,-1810.44 367.5,-1806.44 371.5,-1806.44 371.5,-1802.44 470.5,-1802.44 470.5,-1838.44"/>
<polyline fill="none" stroke="black" points="371.5,-1834.44 375.5,-1834.44 375.5,-1830.44 371.5,-1830.44 "/>
<polyline fill="none" stroke="black" points="371.5,-1810.44 375.5,-1810.44 375.5,-1806.44 371.5,-1806.44 "/>
<text text-anchor="middle" x="421" y="-1816.74" font-family="Times,serif" font-size="14.00">MPI_IRECV</text>
</a>
</g>
</g>
<!-- CALL_9653760&#45;&gt;CALL_9656bc0 -->
<g id="edge22" class="edge">
<title>CALL_9653760&#45;&gt;CALL_9656bc0</title>
<path fill="none" stroke="black" d="M421,-1874.14C421,-1866.42 421,-1857.15 421,-1848.55"/>
<polygon fill="black" stroke="black" points="424.5,-1848.54 421,-1838.54 417.5,-1848.54 424.5,-1848.54"/>
</g>
<!-- CALL_965ba00 -->
<g id="node28" class="node">
<title>CALL_965ba00</title>
<g id="a_node28"><a xlink:href="MPI_IRECV.svg" xlink:title="MPI_IRECV">
<polygon fill="#ffe800" stroke="black" points="470.5,-1766.44 371.5,-1766.44 371.5,-1762.44 367.5,-1762.44 367.5,-1758.44 371.5,-1758.44 371.5,-1738.44 367.5,-1738.44 367.5,-1734.44 371.5,-1734.44 371.5,-1730.44 470.5,-1730.44 470.5,-1766.44"/>
<polyline fill="none" stroke="black" points="371.5,-1762.44 375.5,-1762.44 375.5,-1758.44 371.5,-1758.44 "/>
<polyline fill="none" stroke="black" points="371.5,-1738.44 375.5,-1738.44 375.5,-1734.44 371.5,-1734.44 "/>
<text text-anchor="middle" x="421" y="-1744.74" font-family="Times,serif" font-size="14.00">MPI_IRECV</text>
</a>
</g>
</g>
<!-- CALL_9656bc0&#45;&gt;CALL_965ba00 -->
<g id="edge23" class="edge">
<title>CALL_9656bc0&#45;&gt;CALL_965ba00</title>
<path fill="none" stroke="black" d="M421,-1802.14C421,-1794.42 421,-1785.15 421,-1776.55"/>
<polygon fill="black" stroke="black" points="424.5,-1776.54 421,-1766.54 417.5,-1776.54 424.5,-1776.54"/>
</g>
<!-- CALL_965fc00 -->
<g id="node29" class="node">
<title>CALL_965fc00</title>
<g id="a_node29"><a xlink:href="MPI_IRECV.svg" xlink:title="MPI_IRECV">
<polygon fill="#ffe800" stroke="black" points="470.5,-1694.44 371.5,-1694.44 371.5,-1690.44 367.5,-1690.44 367.5,-1686.44 371.5,-1686.44 371.5,-1666.44 367.5,-1666.44 367.5,-1662.44 371.5,-1662.44 371.5,-1658.44 470.5,-1658.44 470.5,-1694.44"/>
<polyline fill="none" stroke="black" points="371.5,-1690.44 375.5,-1690.44 375.5,-1686.44 371.5,-1686.44 "/>
<polyline fill="none" stroke="black" points="371.5,-1666.44 375.5,-1666.44 375.5,-1662.44 371.5,-1662.44 "/>
<text text-anchor="middle" x="421" y="-1672.74" font-family="Times,serif" font-size="14.00">MPI_IRECV</text>
</a>
</g>
</g>
<!-- CALL_965ba00&#45;&gt;CALL_965fc00 -->
<g id="edge24" class="edge">
<title>CALL_965ba00&#45;&gt;CALL_965fc00</title>
<path fill="none" stroke="black" d="M421,-1730.14C421,-1722.42 421,-1713.15 421,-1704.55"/>
<polygon fill="black" stroke="black" points="424.5,-1704.54 421,-1694.54 417.5,-1704.54 424.5,-1704.54"/>
</g>
<!-- CALL_9664b80 -->
<g id="node30" class="node">
<title>CALL_9664b80</title>
<g id="a_node30"><a xlink:href="MPI_IRECV.svg" xlink:title="MPI_IRECV">
<polygon fill="#ffe800" stroke="black" points="470.5,-1622.44 371.5,-1622.44 371.5,-1618.44 367.5,-1618.44 367.5,-1614.44 371.5,-1614.44 371.5,-1594.44 367.5,-1594.44 367.5,-1590.44 371.5,-1590.44 371.5,-1586.44 470.5,-1586.44 470.5,-1622.44"/>
<polyline fill="none" stroke="black" points="371.5,-1618.44 375.5,-1618.44 375.5,-1614.44 371.5,-1614.44 "/>
<polyline fill="none" stroke="black" points="371.5,-1594.44 375.5,-1594.44 375.5,-1590.44 371.5,-1590.44 "/>
<text text-anchor="middle" x="421" y="-1600.74" font-family="Times,serif" font-size="14.00">MPI_IRECV</text>
</a>
</g>
</g>
<!-- CALL_965fc00&#45;&gt;CALL_9664b80 -->
<g id="edge25" class="edge">
<title>CALL_965fc00&#45;&gt;CALL_9664b80</title>
<path fill="none" stroke="black" d="M421,-1658.14C421,-1650.42 421,-1641.15 421,-1632.55"/>
<polygon fill="black" stroke="black" points="424.5,-1632.54 421,-1622.54 417.5,-1632.54 424.5,-1632.54"/>
</g>
<!-- CALL_9668be0 -->
<g id="node31" class="node">
<title>CALL_9668be0</title>
<g id="a_node31"><a xlink:href="MPI_IRECV.svg" xlink:title="MPI_IRECV">
<polygon fill="#ffe800" stroke="black" points="470.5,-1550.44 371.5,-1550.44 371.5,-1546.44 367.5,-1546.44 367.5,-1542.44 371.5,-1542.44 371.5,-1522.44 367.5,-1522.44 367.5,-1518.44 371.5,-1518.44 371.5,-1514.44 470.5,-1514.44 470.5,-1550.44"/>
<polyline fill="none" stroke="black" points="371.5,-1546.44 375.5,-1546.44 375.5,-1542.44 371.5,-1542.44 "/>
<polyline fill="none" stroke="black" points="371.5,-1522.44 375.5,-1522.44 375.5,-1518.44 371.5,-1518.44 "/>
<text text-anchor="middle" x="421" y="-1528.74" font-family="Times,serif" font-size="14.00">MPI_IRECV</text>
</a>
</g>
</g>
<!-- CALL_9664b80&#45;&gt;CALL_9668be0 -->
<g id="edge26" class="edge">
<title>CALL_9664b80&#45;&gt;CALL_9668be0</title>
<path fill="none" stroke="black" d="M421,-1586.14C421,-1578.42 421,-1569.15 421,-1560.55"/>
<polygon fill="black" stroke="black" points="424.5,-1560.54 421,-1550.54 417.5,-1560.54 424.5,-1560.54"/>
</g>
<!-- CALL_966d020 -->
<g id="node32" class="node">
<title>CALL_966d020</title>
<g id="a_node32"><a xlink:href="MPI_IRECV.svg" xlink:title="MPI_IRECV">
<polygon fill="#ffe800" stroke="black" points="470.5,-1478.44 371.5,-1478.44 371.5,-1474.44 367.5,-1474.44 367.5,-1470.44 371.5,-1470.44 371.5,-1450.44 367.5,-1450.44 367.5,-1446.44 371.5,-1446.44 371.5,-1442.44 470.5,-1442.44 470.5,-1478.44"/>
<polyline fill="none" stroke="black" points="371.5,-1474.44 375.5,-1474.44 375.5,-1470.44 371.5,-1470.44 "/>
<polyline fill="none" stroke="black" points="371.5,-1450.44 375.5,-1450.44 375.5,-1446.44 371.5,-1446.44 "/>
<text text-anchor="middle" x="421" y="-1456.74" font-family="Times,serif" font-size="14.00">MPI_IRECV</text>
</a>
</g>
</g>
<!-- CALL_9668be0&#45;&gt;CALL_966d020 -->
<g id="edge27" class="edge">
<title>CALL_9668be0&#45;&gt;CALL_966d020</title>
<path fill="none" stroke="black" d="M421,-1514.14C421,-1506.42 421,-1497.15 421,-1488.55"/>
<polygon fill="black" stroke="black" points="424.5,-1488.54 421,-1478.54 417.5,-1488.54 424.5,-1488.54"/>
</g>
<!-- CALL_96704e0 -->
<g id="node33" class="node">
<title>CALL_96704e0</title>
<g id="a_node33"><a xlink:href="MPI_IRECV.svg" xlink:title="MPI_IRECV">
<polygon fill="#ffe800" stroke="black" points="470.5,-1406.44 371.5,-1406.44 371.5,-1402.44 367.5,-1402.44 367.5,-1398.44 371.5,-1398.44 371.5,-1378.44 367.5,-1378.44 367.5,-1374.44 371.5,-1374.44 371.5,-1370.44 470.5,-1370.44 470.5,-1406.44"/>
<polyline fill="none" stroke="black" points="371.5,-1402.44 375.5,-1402.44 375.5,-1398.44 371.5,-1398.44 "/>
<polyline fill="none" stroke="black" points="371.5,-1378.44 375.5,-1378.44 375.5,-1374.44 371.5,-1374.44 "/>
<text text-anchor="middle" x="421" y="-1384.74" font-family="Times,serif" font-size="14.00">MPI_IRECV</text>
</a>
</g>
</g>
<!-- CALL_966d020&#45;&gt;CALL_96704e0 -->
<g id="edge28" class="edge">
<title>CALL_966d020&#45;&gt;CALL_96704e0</title>
<path fill="none" stroke="black" d="M421,-1442.14C421,-1434.42 421,-1425.15 421,-1416.55"/>
<polygon fill="black" stroke="black" points="424.5,-1416.54 421,-1406.54 417.5,-1416.54 424.5,-1416.54"/>
</g>
<!-- CALL_96739c0 -->
<g id="node34" class="node">
<title>CALL_96739c0</title>
<g id="a_node34"><a xlink:href="MPI_IRECV.svg" xlink:title="MPI_IRECV">
<polygon fill="#ffe800" stroke="black" points="470.5,-1334.44 371.5,-1334.44 371.5,-1330.44 367.5,-1330.44 367.5,-1326.44 371.5,-1326.44 371.5,-1306.44 367.5,-1306.44 367.5,-1302.44 371.5,-1302.44 371.5,-1298.44 470.5,-1298.44 470.5,-1334.44"/>
<polyline fill="none" stroke="black" points="371.5,-1330.44 375.5,-1330.44 375.5,-1326.44 371.5,-1326.44 "/>
<polyline fill="none" stroke="black" points="371.5,-1306.44 375.5,-1306.44 375.5,-1302.44 371.5,-1302.44 "/>
<text text-anchor="middle" x="421" y="-1312.74" font-family="Times,serif" font-size="14.00">MPI_IRECV</text>
</a>
</g>
</g>
<!-- CALL_96704e0&#45;&gt;CALL_96739c0 -->
<g id="edge29" class="edge">
<title>CALL_96704e0&#45;&gt;CALL_96739c0</title>
<path fill="none" stroke="black" d="M421,-1370.14C421,-1362.42 421,-1353.15 421,-1344.55"/>
<polygon fill="black" stroke="black" points="424.5,-1344.54 421,-1334.54 417.5,-1344.54 424.5,-1344.54"/>
</g>
<!-- CALL_9678080 -->
<g id="node35" class="node">
<title>CALL_9678080</title>
<g id="a_node35"><a xlink:href="MPI_IRECV.svg" xlink:title="MPI_IRECV">
<polygon fill="#ffe800" stroke="black" points="470.5,-1262.44 371.5,-1262.44 371.5,-1258.44 367.5,-1258.44 367.5,-1254.44 371.5,-1254.44 371.5,-1234.44 367.5,-1234.44 367.5,-1230.44 371.5,-1230.44 371.5,-1226.44 470.5,-1226.44 470.5,-1262.44"/>
<polyline fill="none" stroke="black" points="371.5,-1258.44 375.5,-1258.44 375.5,-1254.44 371.5,-1254.44 "/>
<polyline fill="none" stroke="black" points="371.5,-1234.44 375.5,-1234.44 375.5,-1230.44 371.5,-1230.44 "/>
<text text-anchor="middle" x="421" y="-1240.74" font-family="Times,serif" font-size="14.00">MPI_IRECV</text>
</a>
</g>
</g>
<!-- CALL_96739c0&#45;&gt;CALL_9678080 -->
<g id="edge30" class="edge">
<title>CALL_96739c0&#45;&gt;CALL_9678080</title>
<path fill="none" stroke="black" d="M421,-1298.14C421,-1290.42 421,-1281.15 421,-1272.55"/>
<polygon fill="black" stroke="black" points="424.5,-1272.54 421,-1262.54 417.5,-1272.54 424.5,-1272.54"/>
</g>
<!-- CALL_967b640 -->
<g id="node36" class="node">
<title>CALL_967b640</title>
<g id="a_node36"><a xlink:href="MPI_IRECV.svg" xlink:title="MPI_IRECV">
<polygon fill="#ffe800" stroke="black" points="470.5,-1190.44 371.5,-1190.44 371.5,-1186.44 367.5,-1186.44 367.5,-1182.44 371.5,-1182.44 371.5,-1162.44 367.5,-1162.44 367.5,-1158.44 371.5,-1158.44 371.5,-1154.44 470.5,-1154.44 470.5,-1190.44"/>
<polyline fill="none" stroke="black" points="371.5,-1186.44 375.5,-1186.44 375.5,-1182.44 371.5,-1182.44 "/>
<polyline fill="none" stroke="black" points="371.5,-1162.44 375.5,-1162.44 375.5,-1158.44 371.5,-1158.44 "/>
<text text-anchor="middle" x="421" y="-1168.74" font-family="Times,serif" font-size="14.00">MPI_IRECV</text>
</a>
</g>
</g>
<!-- CALL_9678080&#45;&gt;CALL_967b640 -->
<g id="edge31" class="edge">
<title>CALL_9678080&#45;&gt;CALL_967b640</title>
<path fill="none" stroke="black" d="M421,-1226.14C421,-1218.42 421,-1209.15 421,-1200.55"/>
<polygon fill="black" stroke="black" points="424.5,-1200.54 421,-1190.54 417.5,-1200.54 424.5,-1200.54"/>
</g>
<!-- CALL_967ea40 -->
<g id="node37" class="node">
<title>CALL_967ea40</title>
<g id="a_node37"><a xlink:href="MPI_IRECV.svg" xlink:title="MPI_IRECV">
<polygon fill="#ffe800" stroke="black" points="470.5,-1118.44 371.5,-1118.44 371.5,-1114.44 367.5,-1114.44 367.5,-1110.44 371.5,-1110.44 371.5,-1090.44 367.5,-1090.44 367.5,-1086.44 371.5,-1086.44 371.5,-1082.44 470.5,-1082.44 470.5,-1118.44"/>
<polyline fill="none" stroke="black" points="371.5,-1114.44 375.5,-1114.44 375.5,-1110.44 371.5,-1110.44 "/>
<polyline fill="none" stroke="black" points="371.5,-1090.44 375.5,-1090.44 375.5,-1086.44 371.5,-1086.44 "/>
<text text-anchor="middle" x="421" y="-1096.74" font-family="Times,serif" font-size="14.00">MPI_IRECV</text>
</a>
</g>
</g>
<!-- CALL_967b640&#45;&gt;CALL_967ea40 -->
<g id="edge32" class="edge">
<title>CALL_967b640&#45;&gt;CALL_967ea40</title>
<path fill="none" stroke="black" d="M421,-1154.14C421,-1146.42 421,-1137.15 421,-1128.55"/>
<polygon fill="black" stroke="black" points="424.5,-1128.54 421,-1118.54 417.5,-1128.54 424.5,-1128.54"/>
</g>
<!-- CALL_9683140 -->
<g id="node38" class="node">
<title>CALL_9683140</title>
<g id="a_node38"><a xlink:href="MPI_RECV_INIT.svg" xlink:title="MPI_RECV_INIT">
<polygon fill="#ffe800" stroke="black" points="487,-1046.44 355,-1046.44 355,-1042.44 351,-1042.44 351,-1038.44 355,-1038.44 355,-1018.44 351,-1018.44 351,-1014.44 355,-1014.44 355,-1010.44 487,-1010.44 487,-1046.44"/>
<polyline fill="none" stroke="black" points="355,-1042.44 359,-1042.44 359,-1038.44 355,-1038.44 "/>
<polyline fill="none" stroke="black" points="355,-1018.44 359,-1018.44 359,-1014.44 355,-1014.44 "/>
<text text-anchor="middle" x="421" y="-1024.74" font-family="Times,serif" font-size="14.00">MPI_RECV_INIT</text>
</a>
</g>
</g>
<!-- CALL_967ea40&#45;&gt;CALL_9683140 -->
<g id="edge33" class="edge">
<title>CALL_967ea40&#45;&gt;CALL_9683140</title>
<path fill="none" stroke="black" d="M421,-1082.14C421,-1074.42 421,-1065.15 421,-1056.55"/>
<polygon fill="black" stroke="black" points="424.5,-1056.54 421,-1046.54 417.5,-1056.54 424.5,-1056.54"/>
</g>
<!-- CALL_9686820 -->
<g id="node39" class="node">
<title>CALL_9686820</title>
<g id="a_node39"><a xlink:href="MPI_RECV_INIT.svg" xlink:title="MPI_RECV_INIT">
<polygon fill="#ffe800" stroke="black" points="487,-974.44 355,-974.44 355,-970.44 351,-970.44 351,-966.44 355,-966.44 355,-946.44 351,-946.44 351,-942.44 355,-942.44 355,-938.44 487,-938.44 487,-974.44"/>
<polyline fill="none" stroke="black" points="355,-970.44 359,-970.44 359,-966.44 355,-966.44 "/>
<polyline fill="none" stroke="black" points="355,-946.44 359,-946.44 359,-942.44 355,-942.44 "/>
<text text-anchor="middle" x="421" y="-952.74" font-family="Times,serif" font-size="14.00">MPI_RECV_INIT</text>
</a>
</g>
</g>
<!-- CALL_9683140&#45;&gt;CALL_9686820 -->
<g id="edge34" class="edge">
<title>CALL_9683140&#45;&gt;CALL_9686820</title>
<path fill="none" stroke="black" d="M421,-1010.14C421,-1002.42 421,-993.15 421,-984.55"/>
<polygon fill="black" stroke="black" points="424.5,-984.54 421,-974.54 417.5,-984.54 424.5,-984.54"/>
</g>
<!-- CALL_9689d00 -->
<g id="node40" class="node">
<title>CALL_9689d00</title>
<g id="a_node40"><a xlink:href="MPI_RECV_INIT.svg" xlink:title="MPI_RECV_INIT">
<polygon fill="#ffe800" stroke="black" points="487,-902.44 355,-902.44 355,-898.44 351,-898.44 351,-894.44 355,-894.44 355,-874.44 351,-874.44 351,-870.44 355,-870.44 355,-866.44 487,-866.44 487,-902.44"/>
<polyline fill="none" stroke="black" points="355,-898.44 359,-898.44 359,-894.44 355,-894.44 "/>
<polyline fill="none" stroke="black" points="355,-874.44 359,-874.44 359,-870.44 355,-870.44 "/>
<text text-anchor="middle" x="421" y="-880.74" font-family="Times,serif" font-size="14.00">MPI_RECV_INIT</text>
</a>
</g>
</g>
<!-- CALL_9686820&#45;&gt;CALL_9689d00 -->
<g id="edge35" class="edge">
<title>CALL_9686820&#45;&gt;CALL_9689d00</title>
<path fill="none" stroke="black" d="M421,-938.14C421,-930.42 421,-921.15 421,-912.55"/>
<polygon fill="black" stroke="black" points="424.5,-912.54 421,-902.54 417.5,-912.54 424.5,-912.54"/>
</g>
<!-- CALL_96904e0 -->
<g id="node41" class="node">
<title>CALL_96904e0</title>
<g id="a_node41"><a xlink:href="MPI_RECV_INIT.svg" xlink:title="MPI_RECV_INIT">
<polygon fill="#ffe800" stroke="black" points="487,-830.44 355,-830.44 355,-826.44 351,-826.44 351,-822.44 355,-822.44 355,-802.44 351,-802.44 351,-798.44 355,-798.44 355,-794.44 487,-794.44 487,-830.44"/>
<polyline fill="none" stroke="black" points="355,-826.44 359,-826.44 359,-822.44 355,-822.44 "/>
<polyline fill="none" stroke="black" points="355,-802.44 359,-802.44 359,-798.44 355,-798.44 "/>
<text text-anchor="middle" x="421" y="-808.74" font-family="Times,serif" font-size="14.00">MPI_RECV_INIT</text>
</a>
</g>
</g>
<!-- CALL_9689d00&#45;&gt;CALL_96904e0 -->
<g id="edge36" class="edge">
<title>CALL_9689d00&#45;&gt;CALL_96904e0</title>
<path fill="none" stroke="black" d="M421,-866.14C421,-858.42 421,-849.15 421,-840.55"/>
<polygon fill="black" stroke="black" points="424.5,-840.54 421,-830.54 417.5,-840.54 424.5,-840.54"/>
</g>
<!-- CALL_9693be0 -->
<g id="node42" class="node">
<title>CALL_9693be0</title>
<g id="a_node42"><a xlink:href="MPI_RECV_INIT.svg" xlink:title="MPI_RECV_INIT">
<polygon fill="#ffe800" stroke="black" points="487,-758.44 355,-758.44 355,-754.44 351,-754.44 351,-750.44 355,-750.44 355,-730.44 351,-730.44 351,-726.44 355,-726.44 355,-722.44 487,-722.44 487,-758.44"/>
<polyline fill="none" stroke="black" points="355,-754.44 359,-754.44 359,-750.44 355,-750.44 "/>
<polyline fill="none" stroke="black" points="355,-730.44 359,-730.44 359,-726.44 355,-726.44 "/>
<text text-anchor="middle" x="421" y="-736.74" font-family="Times,serif" font-size="14.00">MPI_RECV_INIT</text>
</a>
</g>
</g>
<!-- CALL_96904e0&#45;&gt;CALL_9693be0 -->
<g id="edge37" class="edge">
<title>CALL_96904e0&#45;&gt;CALL_9693be0</title>
<path fill="none" stroke="black" d="M421,-794.14C421,-786.42 421,-777.15 421,-768.55"/>
<polygon fill="black" stroke="black" points="424.5,-768.54 421,-758.54 417.5,-768.54 424.5,-768.54"/>
</g>
<!-- CALL_96970c0 -->
<g id="node43" class="node">
<title>CALL_96970c0</title>
<g id="a_node43"><a xlink:href="MPI_RECV_INIT.svg" xlink:title="MPI_RECV_INIT">
<polygon fill="#ffe800" stroke="black" points="487,-686.44 355,-686.44 355,-682.44 351,-682.44 351,-678.44 355,-678.44 355,-658.44 351,-658.44 351,-654.44 355,-654.44 355,-650.44 487,-650.44 487,-686.44"/>
<polyline fill="none" stroke="black" points="355,-682.44 359,-682.44 359,-678.44 355,-678.44 "/>
<polyline fill="none" stroke="black" points="355,-658.44 359,-658.44 359,-654.44 355,-654.44 "/>
<text text-anchor="middle" x="421" y="-664.74" font-family="Times,serif" font-size="14.00">MPI_RECV_INIT</text>
</a>
</g>
</g>
<!-- CALL_9693be0&#45;&gt;CALL_96970c0 -->
<g id="edge38" class="edge">
<title>CALL_9693be0&#45;&gt;CALL_96970c0</title>
<path fill="none" stroke="black" d="M421,-722.14C421,-714.42 421,-705.15 421,-696.55"/>
<polygon fill="black" stroke="black" points="424.5,-696.54 421,-686.54 417.5,-696.54 424.5,-696.54"/>
</g>
<!-- COMMENT_9696cc0+1 -->
<g id="node44" class="node">
<title>COMMENT_9696cc0+1</title>
<polygon fill="none" stroke="black" points="463.5,-614.44 372.5,-614.44 372.5,-578.44 469.5,-578.44 469.5,-608.44 463.5,-614.44"/>
<polyline fill="none" stroke="black" points="463.5,-614.44 463.5,-608.44 "/>
<polyline fill="none" stroke="black" points="469.5,-608.44 463.5,-608.44 "/>
<text text-anchor="middle" x="421" y="-592.74" font-family="Times,serif" font-size="14.00">PARTICLEs</text>
</g>
<!-- CALL_96970c0&#45;&gt;COMMENT_9696cc0+1 -->
<g id="edge39" class="edge">
<title>CALL_96970c0&#45;&gt;COMMENT_9696cc0+1</title>
<path fill="none" stroke="black" d="M421,-650.14C421,-642.42 421,-633.15 421,-624.55"/>
<polygon fill="black" stroke="black" points="424.5,-624.54 421,-614.54 417.5,-624.54 424.5,-624.54"/>
</g>
<!-- CALL_969b8a0 -->
<g id="node45" class="node">
<title>CALL_969b8a0</title>
<g id="a_node45"><a xlink:href="MPI_IRECV.svg" xlink:title="MPI_IRECV">
<polygon fill="#ffe800" stroke="black" points="470.5,-542.44 371.5,-542.44 371.5,-538.44 367.5,-538.44 367.5,-534.44 371.5,-534.44 371.5,-514.44 367.5,-514.44 367.5,-510.44 371.5,-510.44 371.5,-506.44 470.5,-506.44 470.5,-542.44"/>
<polyline fill="none" stroke="black" points="371.5,-538.44 375.5,-538.44 375.5,-534.44 371.5,-534.44 "/>
<polyline fill="none" stroke="black" points="371.5,-514.44 375.5,-514.44 375.5,-510.44 371.5,-510.44 "/>
<text text-anchor="middle" x="421" y="-520.74" font-family="Times,serif" font-size="14.00">MPI_IRECV</text>
</a>
</g>
</g>
<!-- COMMENT_9696cc0+1&#45;&gt;CALL_969b8a0 -->
<g id="edge40" class="edge">
<title>COMMENT_9696cc0+1&#45;&gt;CALL_969b8a0</title>
<path fill="none" stroke="black" d="M421,-578.14C421,-570.42 421,-561.15 421,-552.55"/>
<polygon fill="black" stroke="black" points="424.5,-552.54 421,-542.54 417.5,-552.54 424.5,-552.54"/>
</g>
<!-- CALL_969ef60 -->
<g id="node46" class="node">
<title>CALL_969ef60</title>
<g id="a_node46"><a xlink:href="MPI_IRECV.svg" xlink:title="MPI_IRECV">
<polygon fill="#ffe800" stroke="black" points="470.5,-470.44 371.5,-470.44 371.5,-466.44 367.5,-466.44 367.5,-462.44 371.5,-462.44 371.5,-442.44 367.5,-442.44 367.5,-438.44 371.5,-438.44 371.5,-434.44 470.5,-434.44 470.5,-470.44"/>
<polyline fill="none" stroke="black" points="371.5,-466.44 375.5,-466.44 375.5,-462.44 371.5,-462.44 "/>
<polyline fill="none" stroke="black" points="371.5,-442.44 375.5,-442.44 375.5,-438.44 371.5,-438.44 "/>
<text text-anchor="middle" x="421" y="-448.74" font-family="Times,serif" font-size="14.00">MPI_IRECV</text>
</a>
</g>
</g>
<!-- CALL_969b8a0&#45;&gt;CALL_969ef60 -->
<g id="edge41" class="edge">
<title>CALL_969b8a0&#45;&gt;CALL_969ef60</title>
<path fill="none" stroke="black" d="M421,-506.14C421,-498.42 421,-489.15 421,-480.55"/>
<polygon fill="black" stroke="black" points="424.5,-480.54 421,-470.54 417.5,-480.54 424.5,-480.54"/>
</g>
<!-- CALL_96a2300 -->
<g id="node47" class="node">
<title>CALL_96a2300</title>
<g id="a_node47"><a xlink:href="MPI_IRECV.svg" xlink:title="MPI_IRECV">
<polygon fill="#ffe800" stroke="black" points="470.5,-398.44 371.5,-398.44 371.5,-394.44 367.5,-394.44 367.5,-390.44 371.5,-390.44 371.5,-370.44 367.5,-370.44 367.5,-366.44 371.5,-366.44 371.5,-362.44 470.5,-362.44 470.5,-398.44"/>
<polyline fill="none" stroke="black" points="371.5,-394.44 375.5,-394.44 375.5,-390.44 371.5,-390.44 "/>
<polyline fill="none" stroke="black" points="371.5,-370.44 375.5,-370.44 375.5,-366.44 371.5,-366.44 "/>
<text text-anchor="middle" x="421" y="-376.74" font-family="Times,serif" font-size="14.00">MPI_IRECV</text>
</a>
</g>
</g>
<!-- CALL_969ef60&#45;&gt;CALL_96a2300 -->
<g id="edge42" class="edge">
<title>CALL_969ef60&#45;&gt;CALL_96a2300</title>
<path fill="none" stroke="black" d="M421,-434.14C421,-426.42 421,-417.15 421,-408.55"/>
<polygon fill="black" stroke="black" points="424.5,-408.54 421,-398.54 417.5,-408.54 424.5,-408.54"/>
</g>
<!-- COMMENT_9680640+1 -->
<g id="node48" class="node">
<title>COMMENT_9680640+1</title>
<polygon fill="none" stroke="black" points="613,-326.44 223,-326.44 223,-290.44 619,-290.44 619,-320.44 613,-326.44"/>
<polyline fill="none" stroke="black" points="613,-326.44 613,-320.44 "/>
<polyline fill="none" stroke="black" points="619,-320.44 613,-320.44 "/>
<text text-anchor="middle" x="421" y="-304.74" font-family="Times,serif" font-size="14.00">Set up to receive mass loss data for boundary OBSTs</text>
</g>
<!-- CALL_96a2300&#45;&gt;COMMENT_9680640+1 -->
<g id="edge43" class="edge">
<title>CALL_96a2300&#45;&gt;COMMENT_9680640+1</title>
<path fill="none" stroke="black" d="M421,-362.14C421,-354.42 421,-345.15 421,-336.55"/>
<polygon fill="black" stroke="black" points="424.5,-336.54 421,-326.54 417.5,-336.54 424.5,-336.54"/>
</g>
<!-- CALL_96a8640 -->
<g id="node49" class="node">
<title>CALL_96a8640</title>
<g id="a_node49"><a xlink:href="MPI_IRECV.svg" xlink:title="MPI_IRECV">
<polygon fill="#ffe800" stroke="black" points="470.5,-254.44 371.5,-254.44 371.5,-250.44 367.5,-250.44 367.5,-246.44 371.5,-246.44 371.5,-226.44 367.5,-226.44 367.5,-222.44 371.5,-222.44 371.5,-218.44 470.5,-218.44 470.5,-254.44"/>
<polyline fill="none" stroke="black" points="371.5,-250.44 375.5,-250.44 375.5,-246.44 371.5,-246.44 "/>
<polyline fill="none" stroke="black" points="371.5,-226.44 375.5,-226.44 375.5,-222.44 371.5,-222.44 "/>
<text text-anchor="middle" x="421" y="-232.74" font-family="Times,serif" font-size="14.00">MPI_IRECV</text>
</a>
</g>
</g>
<!-- COMMENT_9680640+1&#45;&gt;CALL_96a8640 -->
<g id="edge44" class="edge">
<title>COMMENT_9680640+1&#45;&gt;CALL_96a8640</title>
<path fill="none" stroke="black" d="M421,-290.14C421,-282.42 421,-273.15 421,-264.55"/>
<polygon fill="black" stroke="black" points="424.5,-264.54 421,-254.54 417.5,-264.54 424.5,-264.54"/>
</g>
<!-- CALL_96acd80 -->
<g id="node50" class="node">
<title>CALL_96acd80</title>
<g id="a_node50"><a xlink:href="MPI_IRECV.svg" xlink:title="MPI_IRECV">
<polygon fill="#ffe800" stroke="black" points="470.5,-182.44 371.5,-182.44 371.5,-178.44 367.5,-178.44 367.5,-174.44 371.5,-174.44 371.5,-154.44 367.5,-154.44 367.5,-150.44 371.5,-150.44 371.5,-146.44 470.5,-146.44 470.5,-182.44"/>
<polyline fill="none" stroke="black" points="371.5,-178.44 375.5,-178.44 375.5,-174.44 371.5,-174.44 "/>
<polyline fill="none" stroke="black" points="371.5,-154.44 375.5,-154.44 375.5,-150.44 371.5,-150.44 "/>
<text text-anchor="middle" x="421" y="-160.74" font-family="Times,serif" font-size="14.00">MPI_IRECV</text>
</a>
</g>
</g>
<!-- CALL_96a8640&#45;&gt;CALL_96acd80 -->
<g id="edge45" class="edge">
<title>CALL_96a8640&#45;&gt;CALL_96acd80</title>
<path fill="none" stroke="black" d="M421,-218.14C421,-210.42 421,-201.15 421,-192.55"/>
<polygon fill="black" stroke="black" points="424.5,-192.54 421,-182.54 417.5,-192.54 424.5,-192.54"/>
</g>
<!-- CALL_96acd80&#45;&gt;endDO_DO_96ace40 -->
<g id="edge47" class="edge">
<title>CALL_96acd80&#45;&gt;endDO_DO_96ace40</title>
<path fill="none" stroke="black" d="M421,-146.38C421,-131.37 421,-111.71 421,-110.5"/>
</g>
</g>
</svg>
