<?xml version="1.0" encoding="UTF-8" standalone="no"?>
<!DOCTYPE svg PUBLIC "-//W3C//DTD SVG 1.1//EN"
 "http://www.w3.org/Graphics/SVG/1.1/DTD/svg11.dtd">
<!-- Generated by graphviz version 2.43.0 (0)
 -->
<!-- Title: POST_RECEIVES Pages: 1 -->
<svg width="1514pt" height="3268pt"
 viewBox="0.00 0.00 1514.00 3267.72" xmlns="http://www.w3.org/2000/svg" xmlns:xlink="http://www.w3.org/1999/xlink">
<g id="graph0" class="graph" transform="scale(1 1) rotate(0) translate(4 3263.72)">
<title>POST_RECEIVES</title>
<polygon fill="white" stroke="transparent" points="-4,4 -4,-3263.72 1510,-3263.72 1510,4 -4,4"/>
<text text-anchor="middle" x="753" y="-7.8" font-family="Times,serif" font-size="14.00">POST_RECEIVES</text>
<g id="clust1" class="cluster">
<title>cluster_RECEIVING_MESH_LOOP</title>
<polygon fill="none" stroke="orange" points="850,-57 850,-3251.72 1498,-3251.72 1498,-57 850,-57"/>
<text text-anchor="middle" x="951.5" y="-3236.52" font-family="Times,serif" font-size="14.00">RECEIVING_MESH_LOOP</text>
</g>
<g id="clust2" class="cluster">
<title>cluster_SENDING_MESH_LOOP</title>
<polygon fill="none" stroke="orange" points="858,-65 858,-3220.72 1490,-3220.72 1490,-65 858,-65"/>
<text text-anchor="middle" x="953" y="-3205.52" font-family="Times,serif" font-size="14.00">SENDING_MESH_LOOP</text>
</g>
<g id="clust3" class="cluster">
<title>cluster_INITIALIZATION_IF</title>
<polygon fill="none" stroke="blue" points="866,-2081 866,-3122.58 1482,-3122.58 1482,-2081 866,-2081"/>
<text text-anchor="middle" x="943.5" y="-3107.38" font-family="Times,serif" font-size="14.00">INITIALIZATION_IF</text>
</g>
<g id="clust4" class="cluster">
<title>cluster_cond9352d00</title>
<polygon fill="none" stroke="black" points="874,-2117.72 874,-3056.72 1474,-3056.72 1474,-2117.72 874,-2117.72"/>
<text text-anchor="middle" x="930.5" y="-3041.52" font-family="Times,serif" font-size="14.00">cond9352d00</text>
</g>
<!-- start_SUBPROGRAM_9236c80 -->
<g id="node1" class="node">
<title>start_SUBPROGRAM_9236c80</title>
<ellipse fill="none" stroke="black" cx="421" cy="-3171.72" rx="7" ry="7"/>
</g>
<!-- COMMENT_9317580+1 -->
<g id="node2" class="node">
<title>COMMENT_9317580+1</title>
<polygon fill="none" stroke="black" points="836,-3117.72 0,-3117.72 0,-3064.72 842,-3064.72 842,-3111.72 836,-3117.72"/>
<polyline fill="none" stroke="black" points="836,-3117.72 836,-3111.72 "/>
<polyline fill="none" stroke="black" points="842,-3111.72 836,-3111.72 "/>
<text text-anchor="middle" x="421" y="-3102.52" font-family="Times,serif" font-size="14.00">!&gt; brief Set up receive buffers for MPI calls.</text>
<text text-anchor="middle" x="421" y="-3087.52" font-family="Times,serif" font-size="14.00">!&gt; details This subroutine loops over meshes (NM) that are to receive MPI sends from neighboring meshes (NOM).</text>
<text text-anchor="middle" x="421" y="-3072.52" font-family="Times,serif" font-size="14.00">!&gt; When CODE=0, initializations are done, in particular the set up of persistent receives.</text>
</g>
<!-- start_SUBPROGRAM_9236c80&#45;&gt;COMMENT_9317580+1 -->
<g id="edge1" class="edge">
<title>start_SUBPROGRAM_9236c80&#45;&gt;COMMENT_9317580+1</title>
<path fill="none" stroke="black" d="M421,-3164.56C421,-3156.53 421,-3141.86 421,-3127.81"/>
<polygon fill="black" stroke="black" points="424.5,-3127.8 421,-3117.8 417.5,-3127.8 424.5,-3127.8"/>
</g>
<!-- DO_92357a0 -->
<g id="node47" class="node">
<title>DO_92357a0</title>
<ellipse fill="none" stroke="black" cx="421" cy="-3007.72" rx="70.39" ry="18"/>
<text text-anchor="middle" x="421" y="-3004.02" font-family="Times,serif" font-size="14.00">DO_92357a0</text>
</g>
<!-- COMMENT_9317580+1&#45;&gt;DO_92357a0 -->
<g id="edge45" class="edge">
<title>COMMENT_9317580+1&#45;&gt;DO_92357a0</title>
<path fill="none" stroke="black" d="M421,-3064.43C421,-3055.38 421,-3045.19 421,-3036.02"/>
<polygon fill="black" stroke="black" points="424.5,-3035.85 421,-3025.85 417.5,-3035.85 424.5,-3035.85"/>
</g>
<!-- COMMENT_931e340+1 -->
<g id="node3" class="node">
<title>COMMENT_931e340+1</title>
<polygon fill="none" stroke="black" points="1418.5,-3189.72 923.5,-3189.72 923.5,-3153.72 1424.5,-3153.72 1424.5,-3183.72 1418.5,-3189.72"/>
<polyline fill="none" stroke="black" points="1418.5,-3189.72 1418.5,-3183.72 "/>
<polyline fill="none" stroke="black" points="1424.5,-3183.72 1418.5,-3183.72 "/>
<text text-anchor="middle" x="1174" y="-3168.02" font-family="Times,serif" font-size="14.00">Set up receives for one&#45;time exchanges or persistent send/receives.</text>
</g>
<!-- beginIf_IF_9352dc0 -->
<g id="node4" class="node">
<title>beginIf_IF_9352dc0</title>
<ellipse fill="black" stroke="black" cx="1174" cy="-3091.22" rx="0.36" ry="0.36"/>
</g>
<!-- COMMENT_931e340+1&#45;&gt;beginIf_IF_9352dc0 -->
<g id="edge16" class="edge">
<title>COMMENT_931e340+1&#45;&gt;beginIf_IF_9352dc0</title>
<path fill="none" stroke="black" d="M1174,-3153.69C1174,-3131.32 1174,-3094.6 1174,-3092.33"/>
</g>
<!-- COMMENT_9319f40+1 -->
<g id="node6" class="node">
<title>COMMENT_9319f40+1</title>
<polygon fill="none" stroke="black" points="1448,-3025.72 894,-3025.72 894,-2989.72 1454,-2989.72 1454,-3019.72 1448,-3025.72"/>
<polyline fill="none" stroke="black" points="1448,-3025.72 1448,-3019.72 "/>
<polyline fill="none" stroke="black" points="1454,-3019.72 1448,-3019.72 "/>
<text text-anchor="middle" x="1174" y="-3004.02" font-family="Times,serif" font-size="14.00">Determine the maximum number of radiation angles that are to be received</text>
</g>
<!-- beginIf_IF_9352dc0&#45;&gt;COMMENT_9319f40+1 -->
<g id="edge14" class="edge">
<title>beginIf_IF_9352dc0&#45;&gt;COMMENT_9319f40+1</title>
<path fill="none" stroke="black" d="M1174,-3090.16C1174,-3088.66 1174,-3059.04 1174,-3035.95"/>
<polygon fill="black" stroke="black" points="1177.5,-3035.92 1174,-3025.92 1170.5,-3035.92 1177.5,-3035.92"/>
</g>
<!-- endIf_IF_9352dc0 -->
<g id="node5" class="node">
<title>endIf_IF_9352dc0</title>
<ellipse fill="black" stroke="black" cx="1174" cy="-2089.36" rx="0.36" ry="0.36"/>
</g>
<!-- COMMENT_931a9c0+1 -->
<g id="node19" class="node">
<title>COMMENT_931a9c0+1</title>
<polygon fill="none" stroke="black" points="1302,-2053 1040,-2053 1040,-2017 1308,-2017 1308,-2047 1302,-2053"/>
<polyline fill="none" stroke="black" points="1302,-2053 1302,-2047 "/>
<polyline fill="none" stroke="black" points="1308,-2047 1302,-2047 "/>
<text text-anchor="middle" x="1174" y="-2031.3" font-family="Times,serif" font-size="14.00">Exchange BACK_WALL information</text>
</g>
<!-- endIf_IF_9352dc0&#45;&gt;COMMENT_931a9c0+1 -->
<g id="edge17" class="edge">
<title>endIf_IF_9352dc0&#45;&gt;COMMENT_931a9c0+1</title>
<path fill="none" stroke="black" d="M1174,-2088.21C1174,-2086.77 1174,-2075.23 1174,-2063.36"/>
<polygon fill="black" stroke="black" points="1177.5,-2063.1 1174,-2053.1 1170.5,-2063.1 1177.5,-2063.1"/>
</g>
<!-- COMMENT_9325ae0+1 -->
<g id="node7" class="node">
<title>COMMENT_9325ae0+1</title>
<polygon fill="none" stroke="black" points="1460,-2953.72 882,-2953.72 882,-2917.72 1466,-2917.72 1466,-2947.72 1460,-2953.72"/>
<polyline fill="none" stroke="black" points="1460,-2953.72 1460,-2947.72 "/>
<polyline fill="none" stroke="black" points="1466,-2947.72 1460,-2947.72 "/>
<text text-anchor="middle" x="1174" y="-2932.02" font-family="Times,serif" font-size="14.00">Allocate the 1&#45;D arrays that hold the big mesh variables that are to be received</text>
</g>
<!-- COMMENT_9319f40+1&#45;&gt;COMMENT_9325ae0+1 -->
<g id="edge2" class="edge">
<title>COMMENT_9319f40+1&#45;&gt;COMMENT_9325ae0+1</title>
<path fill="none" stroke="black" d="M1174,-2989.42C1174,-2981.7 1174,-2972.43 1174,-2963.83"/>
<polygon fill="black" stroke="black" points="1177.5,-2963.82 1174,-2953.82 1170.5,-2963.82 1177.5,-2963.82"/>
</g>
<!-- COMMENT_9319ea0+1 -->
<g id="node8" class="node">
<title>COMMENT_9319ea0+1</title>
<polygon fill="none" stroke="black" points="1299.5,-2881.72 1042.5,-2881.72 1042.5,-2845.72 1305.5,-2845.72 1305.5,-2875.72 1299.5,-2881.72"/>
<polyline fill="none" stroke="black" points="1299.5,-2881.72 1299.5,-2875.72 "/>
<polyline fill="none" stroke="black" points="1305.5,-2875.72 1299.5,-2875.72 "/>
<text text-anchor="middle" x="1174" y="-2860.02" font-family="Times,serif" font-size="14.00">Set up persistent receive requests</text>
</g>
<!-- COMMENT_9325ae0+1&#45;&gt;COMMENT_9319ea0+1 -->
<g id="edge3" class="edge">
<title>COMMENT_9325ae0+1&#45;&gt;COMMENT_9319ea0+1</title>
<path fill="none" stroke="black" d="M1174,-2917.42C1174,-2909.7 1174,-2900.43 1174,-2891.83"/>
<polygon fill="black" stroke="black" points="1177.5,-2891.82 1174,-2881.82 1170.5,-2891.82 1177.5,-2891.82"/>
</g>
<!-- CALL_932f980 -->
<g id="node9" class="node">
<title>CALL_932f980</title>
<g id="a_node9"><a xlink:href="MPI_RECV_INIT.svg" xlink:title="MPI_RECV_INIT">
<polygon fill="#ffe800" stroke="black" points="1240,-2809.72 1108,-2809.72 1108,-2805.72 1104,-2805.72 1104,-2801.72 1108,-2801.72 1108,-2781.72 1104,-2781.72 1104,-2777.72 1108,-2777.72 1108,-2773.72 1240,-2773.72 1240,-2809.72"/>
<polyline fill="none" stroke="black" points="1108,-2805.72 1112,-2805.72 1112,-2801.72 1108,-2801.72 "/>
<polyline fill="none" stroke="black" points="1108,-2781.72 1112,-2781.72 1112,-2777.72 1108,-2777.72 "/>
<text text-anchor="middle" x="1174" y="-2788.02" font-family="Times,serif" font-size="14.00">MPI_RECV_INIT</text>
</a>
</g>
</g>
<!-- COMMENT_9319ea0+1&#45;&gt;CALL_932f980 -->
<g id="edge4" class="edge">
<title>COMMENT_9319ea0+1&#45;&gt;CALL_932f980</title>
<path fill="none" stroke="black" d="M1174,-2845.42C1174,-2837.7 1174,-2828.43 1174,-2819.83"/>
<polygon fill="black" stroke="black" points="1177.5,-2819.82 1174,-2809.82 1170.5,-2819.82 1177.5,-2819.82"/>
</g>
<!-- CALL_9332ec0 -->
<g id="node10" class="node">
<title>CALL_9332ec0</title>
<g id="a_node10"><a xlink:href="MPI_RECV_INIT.svg" xlink:title="MPI_RECV_INIT">
<polygon fill="#ffe800" stroke="black" points="1240,-2737.72 1108,-2737.72 1108,-2733.72 1104,-2733.72 1104,-2729.72 1108,-2729.72 1108,-2709.72 1104,-2709.72 1104,-2705.72 1108,-2705.72 1108,-2701.72 1240,-2701.72 1240,-2737.72"/>
<polyline fill="none" stroke="black" points="1108,-2733.72 1112,-2733.72 1112,-2729.72 1108,-2729.72 "/>
<polyline fill="none" stroke="black" points="1108,-2709.72 1112,-2709.72 1112,-2705.72 1108,-2705.72 "/>
<text text-anchor="middle" x="1174" y="-2716.02" font-family="Times,serif" font-size="14.00">MPI_RECV_INIT</text>
</a>
</g>
</g>
<!-- CALL_932f980&#45;&gt;CALL_9332ec0 -->
<g id="edge5" class="edge">
<title>CALL_932f980&#45;&gt;CALL_9332ec0</title>
<path fill="none" stroke="black" d="M1174,-2773.42C1174,-2765.7 1174,-2756.43 1174,-2747.83"/>
<polygon fill="black" stroke="black" points="1177.5,-2747.82 1174,-2737.82 1170.5,-2747.82 1177.5,-2747.82"/>
</g>
<!-- CALL_93362c0 -->
<g id="node11" class="node">
<title>CALL_93362c0</title>
<g id="a_node11"><a xlink:href="MPI_RECV_INIT.svg" xlink:title="MPI_RECV_INIT">
<polygon fill="#ffe800" stroke="black" points="1240,-2665.72 1108,-2665.72 1108,-2661.72 1104,-2661.72 1104,-2657.72 1108,-2657.72 1108,-2637.72 1104,-2637.72 1104,-2633.72 1108,-2633.72 1108,-2629.72 1240,-2629.72 1240,-2665.72"/>
<polyline fill="none" stroke="black" points="1108,-2661.72 1112,-2661.72 1112,-2657.72 1108,-2657.72 "/>
<polyline fill="none" stroke="black" points="1108,-2637.72 1112,-2637.72 1112,-2633.72 1108,-2633.72 "/>
<text text-anchor="middle" x="1174" y="-2644.02" font-family="Times,serif" font-size="14.00">MPI_RECV_INIT</text>
</a>
</g>
</g>
<!-- CALL_9332ec0&#45;&gt;CALL_93362c0 -->
<g id="edge6" class="edge">
<title>CALL_9332ec0&#45;&gt;CALL_93362c0</title>
<path fill="none" stroke="black" d="M1174,-2701.42C1174,-2693.7 1174,-2684.43 1174,-2675.83"/>
<polygon fill="black" stroke="black" points="1177.5,-2675.82 1174,-2665.82 1170.5,-2675.82 1177.5,-2675.82"/>
</g>
<!-- CALL_9339780 -->
<g id="node12" class="node">
<title>CALL_9339780</title>
<g id="a_node12"><a xlink:href="MPI_RECV_INIT.svg" xlink:title="MPI_RECV_INIT">
<polygon fill="#ffe800" stroke="black" points="1240,-2593.72 1108,-2593.72 1108,-2589.72 1104,-2589.72 1104,-2585.72 1108,-2585.72 1108,-2565.72 1104,-2565.72 1104,-2561.72 1108,-2561.72 1108,-2557.72 1240,-2557.72 1240,-2593.72"/>
<polyline fill="none" stroke="black" points="1108,-2589.72 1112,-2589.72 1112,-2585.72 1108,-2585.72 "/>
<polyline fill="none" stroke="black" points="1108,-2565.72 1112,-2565.72 1112,-2561.72 1108,-2561.72 "/>
<text text-anchor="middle" x="1174" y="-2572.02" font-family="Times,serif" font-size="14.00">MPI_RECV_INIT</text>
</a>
</g>
</g>
<!-- CALL_93362c0&#45;&gt;CALL_9339780 -->
<g id="edge7" class="edge">
<title>CALL_93362c0&#45;&gt;CALL_9339780</title>
<path fill="none" stroke="black" d="M1174,-2629.42C1174,-2621.7 1174,-2612.43 1174,-2603.83"/>
<polygon fill="black" stroke="black" points="1177.5,-2603.82 1174,-2593.82 1170.5,-2603.82 1177.5,-2603.82"/>
</g>
<!-- CALL_933de20 -->
<g id="node13" class="node">
<title>CALL_933de20</title>
<g id="a_node13"><a xlink:href="MPI_RECV_INIT.svg" xlink:title="MPI_RECV_INIT">
<polygon fill="#ffe800" stroke="black" points="1240,-2521.72 1108,-2521.72 1108,-2517.72 1104,-2517.72 1104,-2513.72 1108,-2513.72 1108,-2493.72 1104,-2493.72 1104,-2489.72 1108,-2489.72 1108,-2485.72 1240,-2485.72 1240,-2521.72"/>
<polyline fill="none" stroke="black" points="1108,-2517.72 1112,-2517.72 1112,-2513.72 1108,-2513.72 "/>
<polyline fill="none" stroke="black" points="1108,-2493.72 1112,-2493.72 1112,-2489.72 1108,-2489.72 "/>
<text text-anchor="middle" x="1174" y="-2500.02" font-family="Times,serif" font-size="14.00">MPI_RECV_INIT</text>
</a>
</g>
</g>
<!-- CALL_9339780&#45;&gt;CALL_933de20 -->
<g id="edge8" class="edge">
<title>CALL_9339780&#45;&gt;CALL_933de20</title>
<path fill="none" stroke="black" d="M1174,-2557.42C1174,-2549.7 1174,-2540.43 1174,-2531.83"/>
<polygon fill="black" stroke="black" points="1177.5,-2531.82 1174,-2521.82 1170.5,-2531.82 1177.5,-2531.82"/>
</g>
<!-- CALL_93415e0 -->
<g id="node14" class="node">
<title>CALL_93415e0</title>
<g id="a_node14"><a xlink:href="MPI_RECV_INIT.svg" xlink:title="MPI_RECV_INIT">
<polygon fill="#ffe800" stroke="black" points="1240,-2449.72 1108,-2449.72 1108,-2445.72 1104,-2445.72 1104,-2441.72 1108,-2441.72 1108,-2421.72 1104,-2421.72 1104,-2417.72 1108,-2417.72 1108,-2413.72 1240,-2413.72 1240,-2449.72"/>
<polyline fill="none" stroke="black" points="1108,-2445.72 1112,-2445.72 1112,-2441.72 1108,-2441.72 "/>
<polyline fill="none" stroke="black" points="1108,-2421.72 1112,-2421.72 1112,-2417.72 1108,-2417.72 "/>
<text text-anchor="middle" x="1174" y="-2428.02" font-family="Times,serif" font-size="14.00">MPI_RECV_INIT</text>
</a>
</g>
</g>
<!-- CALL_933de20&#45;&gt;CALL_93415e0 -->
<g id="edge9" class="edge">
<title>CALL_933de20&#45;&gt;CALL_93415e0</title>
<path fill="none" stroke="black" d="M1174,-2485.42C1174,-2477.7 1174,-2468.43 1174,-2459.83"/>
<polygon fill="black" stroke="black" points="1177.5,-2459.82 1174,-2449.82 1170.5,-2459.82 1177.5,-2459.82"/>
</g>
<!-- CALL_9345840 -->
<g id="node15" class="node">
<title>CALL_9345840</title>
<g id="a_node15"><a xlink:href="MPI_RECV_INIT.svg" xlink:title="MPI_RECV_INIT">
<polygon fill="#ffe800" stroke="black" points="1240,-2377.72 1108,-2377.72 1108,-2373.72 1104,-2373.72 1104,-2369.72 1108,-2369.72 1108,-2349.72 1104,-2349.72 1104,-2345.72 1108,-2345.72 1108,-2341.72 1240,-2341.72 1240,-2377.72"/>
<polyline fill="none" stroke="black" points="1108,-2373.72 1112,-2373.72 1112,-2369.72 1108,-2369.72 "/>
<polyline fill="none" stroke="black" points="1108,-2349.72 1112,-2349.72 1112,-2345.72 1108,-2345.72 "/>
<text text-anchor="middle" x="1174" y="-2356.02" font-family="Times,serif" font-size="14.00">MPI_RECV_INIT</text>
</a>
</g>
</g>
<!-- CALL_93415e0&#45;&gt;CALL_9345840 -->
<g id="edge10" class="edge">
<title>CALL_93415e0&#45;&gt;CALL_9345840</title>
<path fill="none" stroke="black" d="M1174,-2413.42C1174,-2405.7 1174,-2396.43 1174,-2387.83"/>
<polygon fill="black" stroke="black" points="1177.5,-2387.82 1174,-2377.82 1170.5,-2387.82 1177.5,-2387.82"/>
</g>
<!-- CALL_9349940 -->
<g id="node16" class="node">
<title>CALL_9349940</title>
<g id="a_node16"><a xlink:href="MPI_RECV_INIT.svg" xlink:title="MPI_RECV_INIT">
<polygon fill="#ffe800" stroke="black" points="1240,-2305.72 1108,-2305.72 1108,-2301.72 1104,-2301.72 1104,-2297.72 1108,-2297.72 1108,-2277.72 1104,-2277.72 1104,-2273.72 1108,-2273.72 1108,-2269.72 1240,-2269.72 1240,-2305.72"/>
<polyline fill="none" stroke="black" points="1108,-2301.72 1112,-2301.72 1112,-2297.72 1108,-2297.72 "/>
<polyline fill="none" stroke="black" points="1108,-2277.72 1112,-2277.72 1112,-2273.72 1108,-2273.72 "/>
<text text-anchor="middle" x="1174" y="-2284.02" font-family="Times,serif" font-size="14.00">MPI_RECV_INIT</text>
</a>
</g>
</g>
<!-- CALL_9345840&#45;&gt;CALL_9349940 -->
<g id="edge11" class="edge">
<title>CALL_9345840&#45;&gt;CALL_9349940</title>
<path fill="none" stroke="black" d="M1174,-2341.42C1174,-2333.7 1174,-2324.43 1174,-2315.83"/>
<polygon fill="black" stroke="black" points="1177.5,-2315.82 1174,-2305.82 1170.5,-2315.82 1177.5,-2315.82"/>
</g>
<!-- CALL_934de00 -->
<g id="node17" class="node">
<title>CALL_934de00</title>
<g id="a_node17"><a xlink:href="MPI_RECV_INIT.svg" xlink:title="MPI_RECV_INIT">
<polygon fill="#ffe800" stroke="black" points="1240,-2233.72 1108,-2233.72 1108,-2229.72 1104,-2229.72 1104,-2225.72 1108,-2225.72 1108,-2205.72 1104,-2205.72 1104,-2201.72 1108,-2201.72 1108,-2197.72 1240,-2197.72 1240,-2233.72"/>
<polyline fill="none" stroke="black" points="1108,-2229.72 1112,-2229.72 1112,-2225.72 1108,-2225.72 "/>
<polyline fill="none" stroke="black" points="1108,-2205.72 1112,-2205.72 1112,-2201.72 1108,-2201.72 "/>
<text text-anchor="middle" x="1174" y="-2212.02" font-family="Times,serif" font-size="14.00">MPI_RECV_INIT</text>
</a>
</g>
</g>
<!-- CALL_9349940&#45;&gt;CALL_934de00 -->
<g id="edge12" class="edge">
<title>CALL_9349940&#45;&gt;CALL_934de00</title>
<path fill="none" stroke="black" d="M1174,-2269.42C1174,-2261.7 1174,-2252.43 1174,-2243.83"/>
<polygon fill="black" stroke="black" points="1177.5,-2243.82 1174,-2233.82 1170.5,-2243.82 1177.5,-2243.82"/>
</g>
<!-- CALL_9352820 -->
<g id="node18" class="node">
<title>CALL_9352820</title>
<g id="a_node18"><a xlink:href="MPI_RECV_INIT.svg" xlink:title="MPI_RECV_INIT">
<polygon fill="#ffe800" stroke="black" points="1240,-2161.72 1108,-2161.72 1108,-2157.72 1104,-2157.72 1104,-2153.72 1108,-2153.72 1108,-2133.72 1104,-2133.72 1104,-2129.72 1108,-2129.72 1108,-2125.72 1240,-2125.72 1240,-2161.72"/>
<polyline fill="none" stroke="black" points="1108,-2157.72 1112,-2157.72 1112,-2153.72 1108,-2153.72 "/>
<polyline fill="none" stroke="black" points="1108,-2133.72 1112,-2133.72 1112,-2129.72 1108,-2129.72 "/>
<text text-anchor="middle" x="1174" y="-2140.02" font-family="Times,serif" font-size="14.00">MPI_RECV_INIT</text>
</a>
</g>
</g>
<!-- CALL_934de00&#45;&gt;CALL_9352820 -->
<g id="edge13" class="edge">
<title>CALL_934de00&#45;&gt;CALL_9352820</title>
<path fill="none" stroke="black" d="M1174,-2197.42C1174,-2189.7 1174,-2180.43 1174,-2171.83"/>
<polygon fill="black" stroke="black" points="1177.5,-2171.82 1174,-2161.82 1170.5,-2171.82 1177.5,-2171.82"/>
</g>
<!-- CALL_9352820&#45;&gt;endIf_IF_9352dc0 -->
<g id="edge15" class="edge">
<title>CALL_9352820&#45;&gt;endIf_IF_9352dc0</title>
<path fill="none" stroke="black" d="M1174,-2125.66C1174,-2110.65 1174,-2090.99 1174,-2089.78"/>
</g>
<!-- CALL_9356ec0 -->
<g id="node20" class="node">
<title>CALL_9356ec0</title>
<g id="a_node20"><a xlink:href="MPI_IRECV.svg" xlink:title="MPI_IRECV">
<polygon fill="#ffe800" stroke="black" points="1223.5,-1981 1124.5,-1981 1124.5,-1977 1120.5,-1977 1120.5,-1973 1124.5,-1973 1124.5,-1953 1120.5,-1953 1120.5,-1949 1124.5,-1949 1124.5,-1945 1223.5,-1945 1223.5,-1981"/>
<polyline fill="none" stroke="black" points="1124.5,-1977 1128.5,-1977 1128.5,-1973 1124.5,-1973 "/>
<polyline fill="none" stroke="black" points="1124.5,-1953 1128.5,-1953 1128.5,-1949 1124.5,-1949 "/>
<text text-anchor="middle" x="1174" y="-1959.3" font-family="Times,serif" font-size="14.00">MPI_IRECV</text>
</a>
</g>
</g>
<!-- COMMENT_931a9c0+1&#45;&gt;CALL_9356ec0 -->
<g id="edge18" class="edge">
<title>COMMENT_931a9c0+1&#45;&gt;CALL_9356ec0</title>
<path fill="none" stroke="black" d="M1174,-2016.7C1174,-2008.98 1174,-1999.71 1174,-1991.11"/>
<polygon fill="black" stroke="black" points="1177.5,-1991.1 1174,-1981.1 1170.5,-1991.1 1177.5,-1991.1"/>
</g>
<!-- CALL_935a1e0 -->
<g id="node21" class="node">
<title>CALL_935a1e0</title>
<g id="a_node21"><a xlink:href="MPI_IRECV.svg" xlink:title="MPI_IRECV">
<polygon fill="#ffe800" stroke="black" points="1223.5,-1909 1124.5,-1909 1124.5,-1905 1120.5,-1905 1120.5,-1901 1124.5,-1901 1124.5,-1881 1120.5,-1881 1120.5,-1877 1124.5,-1877 1124.5,-1873 1223.5,-1873 1223.5,-1909"/>
<polyline fill="none" stroke="black" points="1124.5,-1905 1128.5,-1905 1128.5,-1901 1124.5,-1901 "/>
<polyline fill="none" stroke="black" points="1124.5,-1881 1128.5,-1881 1128.5,-1877 1124.5,-1877 "/>
<text text-anchor="middle" x="1174" y="-1887.3" font-family="Times,serif" font-size="14.00">MPI_IRECV</text>
</a>
</g>
</g>
<!-- CALL_9356ec0&#45;&gt;CALL_935a1e0 -->
<g id="edge19" class="edge">
<title>CALL_9356ec0&#45;&gt;CALL_935a1e0</title>
<path fill="none" stroke="black" d="M1174,-1944.7C1174,-1936.98 1174,-1927.71 1174,-1919.11"/>
<polygon fill="black" stroke="black" points="1177.5,-1919.1 1174,-1909.1 1170.5,-1919.1 1177.5,-1919.1"/>
</g>
<!-- CALL_935dca0 -->
<g id="node22" class="node">
<title>CALL_935dca0</title>
<g id="a_node22"><a xlink:href="MPI_IRECV.svg" xlink:title="MPI_IRECV">
<polygon fill="#ffe800" stroke="black" points="1223.5,-1837 1124.5,-1837 1124.5,-1833 1120.5,-1833 1120.5,-1829 1124.5,-1829 1124.5,-1809 1120.5,-1809 1120.5,-1805 1124.5,-1805 1124.5,-1801 1223.5,-1801 1223.5,-1837"/>
<polyline fill="none" stroke="black" points="1124.5,-1833 1128.5,-1833 1128.5,-1829 1124.5,-1829 "/>
<polyline fill="none" stroke="black" points="1124.5,-1809 1128.5,-1809 1128.5,-1805 1124.5,-1805 "/>
<text text-anchor="middle" x="1174" y="-1815.3" font-family="Times,serif" font-size="14.00">MPI_IRECV</text>
</a>
</g>
</g>
<!-- CALL_935a1e0&#45;&gt;CALL_935dca0 -->
<g id="edge20" class="edge">
<title>CALL_935a1e0&#45;&gt;CALL_935dca0</title>
<path fill="none" stroke="black" d="M1174,-1872.7C1174,-1864.98 1174,-1855.71 1174,-1847.11"/>
<polygon fill="black" stroke="black" points="1177.5,-1847.1 1174,-1837.1 1170.5,-1847.1 1177.5,-1847.1"/>
</g>
<!-- CALL_9361160 -->
<g id="node23" class="node">
<title>CALL_9361160</title>
<g id="a_node23"><a xlink:href="MPI_IRECV.svg" xlink:title="MPI_IRECV">
<polygon fill="#ffe800" stroke="black" points="1223.5,-1765 1124.5,-1765 1124.5,-1761 1120.5,-1761 1120.5,-1757 1124.5,-1757 1124.5,-1737 1120.5,-1737 1120.5,-1733 1124.5,-1733 1124.5,-1729 1223.5,-1729 1223.5,-1765"/>
<polyline fill="none" stroke="black" points="1124.5,-1761 1128.5,-1761 1128.5,-1757 1124.5,-1757 "/>
<polyline fill="none" stroke="black" points="1124.5,-1737 1128.5,-1737 1128.5,-1733 1124.5,-1733 "/>
<text text-anchor="middle" x="1174" y="-1743.3" font-family="Times,serif" font-size="14.00">MPI_IRECV</text>
</a>
</g>
</g>
<!-- CALL_935dca0&#45;&gt;CALL_9361160 -->
<g id="edge21" class="edge">
<title>CALL_935dca0&#45;&gt;CALL_9361160</title>
<path fill="none" stroke="black" d="M1174,-1800.7C1174,-1792.98 1174,-1783.71 1174,-1775.11"/>
<polygon fill="black" stroke="black" points="1177.5,-1775.1 1174,-1765.1 1170.5,-1775.1 1177.5,-1775.1"/>
</g>
<!-- CALL_9366000 -->
<g id="node24" class="node">
<title>CALL_9366000</title>
<g id="a_node24"><a xlink:href="MPI_IRECV.svg" xlink:title="MPI_IRECV">
<polygon fill="#ffe800" stroke="black" points="1223.5,-1693 1124.5,-1693 1124.5,-1689 1120.5,-1689 1120.5,-1685 1124.5,-1685 1124.5,-1665 1120.5,-1665 1120.5,-1661 1124.5,-1661 1124.5,-1657 1223.5,-1657 1223.5,-1693"/>
<polyline fill="none" stroke="black" points="1124.5,-1689 1128.5,-1689 1128.5,-1685 1124.5,-1685 "/>
<polyline fill="none" stroke="black" points="1124.5,-1665 1128.5,-1665 1128.5,-1661 1124.5,-1661 "/>
<text text-anchor="middle" x="1174" y="-1671.3" font-family="Times,serif" font-size="14.00">MPI_IRECV</text>
</a>
</g>
</g>
<!-- CALL_9361160&#45;&gt;CALL_9366000 -->
<g id="edge22" class="edge">
<title>CALL_9361160&#45;&gt;CALL_9366000</title>
<path fill="none" stroke="black" d="M1174,-1728.7C1174,-1720.98 1174,-1711.71 1174,-1703.11"/>
<polygon fill="black" stroke="black" points="1177.5,-1703.1 1174,-1693.1 1170.5,-1703.1 1177.5,-1703.1"/>
</g>
<!-- CALL_9369fc0 -->
<g id="node25" class="node">
<title>CALL_9369fc0</title>
<g id="a_node25"><a xlink:href="MPI_IRECV.svg" xlink:title="MPI_IRECV">
<polygon fill="#ffe800" stroke="black" points="1223.5,-1621 1124.5,-1621 1124.5,-1617 1120.5,-1617 1120.5,-1613 1124.5,-1613 1124.5,-1593 1120.5,-1593 1120.5,-1589 1124.5,-1589 1124.5,-1585 1223.5,-1585 1223.5,-1621"/>
<polyline fill="none" stroke="black" points="1124.5,-1617 1128.5,-1617 1128.5,-1613 1124.5,-1613 "/>
<polyline fill="none" stroke="black" points="1124.5,-1593 1128.5,-1593 1128.5,-1589 1124.5,-1589 "/>
<text text-anchor="middle" x="1174" y="-1599.3" font-family="Times,serif" font-size="14.00">MPI_IRECV</text>
</a>
</g>
</g>
<!-- CALL_9366000&#45;&gt;CALL_9369fc0 -->
<g id="edge23" class="edge">
<title>CALL_9366000&#45;&gt;CALL_9369fc0</title>
<path fill="none" stroke="black" d="M1174,-1656.7C1174,-1648.98 1174,-1639.71 1174,-1631.11"/>
<polygon fill="black" stroke="black" points="1177.5,-1631.1 1174,-1621.1 1170.5,-1631.1 1177.5,-1631.1"/>
</g>
<!-- CALL_936efc0 -->
<g id="node26" class="node">
<title>CALL_936efc0</title>
<g id="a_node26"><a xlink:href="MPI_IRECV.svg" xlink:title="MPI_IRECV">
<polygon fill="#ffe800" stroke="black" points="1223.5,-1549 1124.5,-1549 1124.5,-1545 1120.5,-1545 1120.5,-1541 1124.5,-1541 1124.5,-1521 1120.5,-1521 1120.5,-1517 1124.5,-1517 1124.5,-1513 1223.5,-1513 1223.5,-1549"/>
<polyline fill="none" stroke="black" points="1124.5,-1545 1128.5,-1545 1128.5,-1541 1124.5,-1541 "/>
<polyline fill="none" stroke="black" points="1124.5,-1521 1128.5,-1521 1128.5,-1517 1124.5,-1517 "/>
<text text-anchor="middle" x="1174" y="-1527.3" font-family="Times,serif" font-size="14.00">MPI_IRECV</text>
</a>
</g>
</g>
<!-- CALL_9369fc0&#45;&gt;CALL_936efc0 -->
<g id="edge24" class="edge">
<title>CALL_9369fc0&#45;&gt;CALL_936efc0</title>
<path fill="none" stroke="black" d="M1174,-1584.7C1174,-1576.98 1174,-1567.71 1174,-1559.11"/>
<polygon fill="black" stroke="black" points="1177.5,-1559.1 1174,-1549.1 1170.5,-1559.1 1177.5,-1559.1"/>
</g>
<!-- CALL_9372f20 -->
<g id="node27" class="node">
<title>CALL_9372f20</title>
<g id="a_node27"><a xlink:href="MPI_IRECV.svg" xlink:title="MPI_IRECV">
<polygon fill="#ffe800" stroke="black" points="1223.5,-1477 1124.5,-1477 1124.5,-1473 1120.5,-1473 1120.5,-1469 1124.5,-1469 1124.5,-1449 1120.5,-1449 1120.5,-1445 1124.5,-1445 1124.5,-1441 1223.5,-1441 1223.5,-1477"/>
<polyline fill="none" stroke="black" points="1124.5,-1473 1128.5,-1473 1128.5,-1469 1124.5,-1469 "/>
<polyline fill="none" stroke="black" points="1124.5,-1449 1128.5,-1449 1128.5,-1445 1124.5,-1445 "/>
<text text-anchor="middle" x="1174" y="-1455.3" font-family="Times,serif" font-size="14.00">MPI_IRECV</text>
</a>
</g>
</g>
<!-- CALL_936efc0&#45;&gt;CALL_9372f20 -->
<g id="edge25" class="edge">
<title>CALL_936efc0&#45;&gt;CALL_9372f20</title>
<path fill="none" stroke="black" d="M1174,-1512.7C1174,-1504.98 1174,-1495.71 1174,-1487.11"/>
<polygon fill="black" stroke="black" points="1177.5,-1487.1 1174,-1477.1 1170.5,-1487.1 1177.5,-1487.1"/>
</g>
<!-- CALL_9377460 -->
<g id="node28" class="node">
<title>CALL_9377460</title>
<g id="a_node28"><a xlink:href="MPI_IRECV.svg" xlink:title="MPI_IRECV">
<polygon fill="#ffe800" stroke="black" points="1223.5,-1405 1124.5,-1405 1124.5,-1401 1120.5,-1401 1120.5,-1397 1124.5,-1397 1124.5,-1377 1120.5,-1377 1120.5,-1373 1124.5,-1373 1124.5,-1369 1223.5,-1369 1223.5,-1405"/>
<polyline fill="none" stroke="black" points="1124.5,-1401 1128.5,-1401 1128.5,-1397 1124.5,-1397 "/>
<polyline fill="none" stroke="black" points="1124.5,-1377 1128.5,-1377 1128.5,-1373 1124.5,-1373 "/>
<text text-anchor="middle" x="1174" y="-1383.3" font-family="Times,serif" font-size="14.00">MPI_IRECV</text>
</a>
</g>
</g>
<!-- CALL_9372f20&#45;&gt;CALL_9377460 -->
<g id="edge26" class="edge">
<title>CALL_9372f20&#45;&gt;CALL_9377460</title>
<path fill="none" stroke="black" d="M1174,-1440.7C1174,-1432.98 1174,-1423.71 1174,-1415.11"/>
<polygon fill="black" stroke="black" points="1177.5,-1415.1 1174,-1405.1 1170.5,-1415.1 1177.5,-1415.1"/>
</g>
<!-- CALL_937a8c0 -->
<g id="node29" class="node">
<title>CALL_937a8c0</title>
<g id="a_node29"><a xlink:href="MPI_IRECV.svg" xlink:title="MPI_IRECV">
<polygon fill="#ffe800" stroke="black" points="1223.5,-1333 1124.5,-1333 1124.5,-1329 1120.5,-1329 1120.5,-1325 1124.5,-1325 1124.5,-1305 1120.5,-1305 1120.5,-1301 1124.5,-1301 1124.5,-1297 1223.5,-1297 1223.5,-1333"/>
<polyline fill="none" stroke="black" points="1124.5,-1329 1128.5,-1329 1128.5,-1325 1124.5,-1325 "/>
<polyline fill="none" stroke="black" points="1124.5,-1305 1128.5,-1305 1128.5,-1301 1124.5,-1301 "/>
<text text-anchor="middle" x="1174" y="-1311.3" font-family="Times,serif" font-size="14.00">MPI_IRECV</text>
</a>
</g>
</g>
<!-- CALL_9377460&#45;&gt;CALL_937a8c0 -->
<g id="edge27" class="edge">
<title>CALL_9377460&#45;&gt;CALL_937a8c0</title>
<path fill="none" stroke="black" d="M1174,-1368.7C1174,-1360.98 1174,-1351.71 1174,-1343.11"/>
<polygon fill="black" stroke="black" points="1177.5,-1343.1 1174,-1333.1 1170.5,-1343.1 1177.5,-1343.1"/>
</g>
<!-- CALL_937db20 -->
<g id="node30" class="node">
<title>CALL_937db20</title>
<g id="a_node30"><a xlink:href="MPI_IRECV.svg" xlink:title="MPI_IRECV">
<polygon fill="#ffe800" stroke="black" points="1223.5,-1261 1124.5,-1261 1124.5,-1257 1120.5,-1257 1120.5,-1253 1124.5,-1253 1124.5,-1233 1120.5,-1233 1120.5,-1229 1124.5,-1229 1124.5,-1225 1223.5,-1225 1223.5,-1261"/>
<polyline fill="none" stroke="black" points="1124.5,-1257 1128.5,-1257 1128.5,-1253 1124.5,-1253 "/>
<polyline fill="none" stroke="black" points="1124.5,-1233 1128.5,-1233 1128.5,-1229 1124.5,-1229 "/>
<text text-anchor="middle" x="1174" y="-1239.3" font-family="Times,serif" font-size="14.00">MPI_IRECV</text>
</a>
</g>
</g>
<!-- CALL_937a8c0&#45;&gt;CALL_937db20 -->
<g id="edge28" class="edge">
<title>CALL_937a8c0&#45;&gt;CALL_937db20</title>
<path fill="none" stroke="black" d="M1174,-1296.7C1174,-1288.98 1174,-1279.71 1174,-1271.11"/>
<polygon fill="black" stroke="black" points="1177.5,-1271.1 1174,-1261.1 1170.5,-1271.1 1177.5,-1271.1"/>
</g>
<!-- CALL_93772c0 -->
<g id="node31" class="node">
<title>CALL_93772c0</title>
<g id="a_node31"><a xlink:href="MPI_IRECV.svg" xlink:title="MPI_IRECV">
<polygon fill="#ffe800" stroke="black" points="1223.5,-1189 1124.5,-1189 1124.5,-1185 1120.5,-1185 1120.5,-1181 1124.5,-1181 1124.5,-1161 1120.5,-1161 1120.5,-1157 1124.5,-1157 1124.5,-1153 1223.5,-1153 1223.5,-1189"/>
<polyline fill="none" stroke="black" points="1124.5,-1185 1128.5,-1185 1128.5,-1181 1124.5,-1181 "/>
<polyline fill="none" stroke="black" points="1124.5,-1161 1128.5,-1161 1128.5,-1157 1124.5,-1157 "/>
<text text-anchor="middle" x="1174" y="-1167.3" font-family="Times,serif" font-size="14.00">MPI_IRECV</text>
</a>
</g>
</g>
<!-- CALL_937db20&#45;&gt;CALL_93772c0 -->
<g id="edge29" class="edge">
<title>CALL_937db20&#45;&gt;CALL_93772c0</title>
<path fill="none" stroke="black" d="M1174,-1224.7C1174,-1216.98 1174,-1207.71 1174,-1199.11"/>
<polygon fill="black" stroke="black" points="1177.5,-1199.1 1174,-1189.1 1170.5,-1199.1 1177.5,-1199.1"/>
</g>
<!-- CALL_9204da0 -->
<g id="node32" class="node">
<title>CALL_9204da0</title>
<g id="a_node32"><a xlink:href="MPI_IRECV.svg" xlink:title="MPI_IRECV">
<polygon fill="#ffe800" stroke="black" points="1223.5,-1117 1124.5,-1117 1124.5,-1113 1120.5,-1113 1120.5,-1109 1124.5,-1109 1124.5,-1089 1120.5,-1089 1120.5,-1085 1124.5,-1085 1124.5,-1081 1223.5,-1081 1223.5,-1117"/>
<polyline fill="none" stroke="black" points="1124.5,-1113 1128.5,-1113 1128.5,-1109 1124.5,-1109 "/>
<polyline fill="none" stroke="black" points="1124.5,-1089 1128.5,-1089 1128.5,-1085 1124.5,-1085 "/>
<text text-anchor="middle" x="1174" y="-1095.3" font-family="Times,serif" font-size="14.00">MPI_IRECV</text>
</a>
</g>
</g>
<!-- CALL_93772c0&#45;&gt;CALL_9204da0 -->
<g id="edge30" class="edge">
<title>CALL_93772c0&#45;&gt;CALL_9204da0</title>
<path fill="none" stroke="black" d="M1174,-1152.7C1174,-1144.98 1174,-1135.71 1174,-1127.11"/>
<polygon fill="black" stroke="black" points="1177.5,-1127.1 1174,-1117.1 1170.5,-1127.1 1177.5,-1127.1"/>
</g>
<!-- CALL_920a020 -->
<g id="node33" class="node">
<title>CALL_920a020</title>
<g id="a_node33"><a xlink:href="MPI_IRECV.svg" xlink:title="MPI_IRECV">
<polygon fill="#ffe800" stroke="black" points="1223.5,-1045 1124.5,-1045 1124.5,-1041 1120.5,-1041 1120.5,-1037 1124.5,-1037 1124.5,-1017 1120.5,-1017 1120.5,-1013 1124.5,-1013 1124.5,-1009 1223.5,-1009 1223.5,-1045"/>
<polyline fill="none" stroke="black" points="1124.5,-1041 1128.5,-1041 1128.5,-1037 1124.5,-1037 "/>
<polyline fill="none" stroke="black" points="1124.5,-1017 1128.5,-1017 1128.5,-1013 1124.5,-1013 "/>
<text text-anchor="middle" x="1174" y="-1023.3" font-family="Times,serif" font-size="14.00">MPI_IRECV</text>
</a>
</g>
</g>
<!-- CALL_9204da0&#45;&gt;CALL_920a020 -->
<g id="edge31" class="edge">
<title>CALL_9204da0&#45;&gt;CALL_920a020</title>
<path fill="none" stroke="black" d="M1174,-1080.7C1174,-1072.98 1174,-1063.71 1174,-1055.11"/>
<polygon fill="black" stroke="black" points="1177.5,-1055.1 1174,-1045.1 1170.5,-1055.1 1177.5,-1055.1"/>
</g>
<!-- CALL_920e3c0 -->
<g id="node34" class="node">
<title>CALL_920e3c0</title>
<g id="a_node34"><a xlink:href="MPI_RECV_INIT.svg" xlink:title="MPI_RECV_INIT">
<polygon fill="#ffe800" stroke="black" points="1240,-973 1108,-973 1108,-969 1104,-969 1104,-965 1108,-965 1108,-945 1104,-945 1104,-941 1108,-941 1108,-937 1240,-937 1240,-973"/>
<polyline fill="none" stroke="black" points="1108,-969 1112,-969 1112,-965 1108,-965 "/>
<polyline fill="none" stroke="black" points="1108,-945 1112,-945 1112,-941 1108,-941 "/>
<text text-anchor="middle" x="1174" y="-951.3" font-family="Times,serif" font-size="14.00">MPI_RECV_INIT</text>
</a>
</g>
</g>
<!-- CALL_920a020&#45;&gt;CALL_920e3c0 -->
<g id="edge32" class="edge">
<title>CALL_920a020&#45;&gt;CALL_920e3c0</title>
<path fill="none" stroke="black" d="M1174,-1008.7C1174,-1000.98 1174,-991.71 1174,-983.11"/>
<polygon fill="black" stroke="black" points="1177.5,-983.1 1174,-973.1 1170.5,-983.1 1177.5,-983.1"/>
</g>
<!-- CALL_9211a80 -->
<g id="node35" class="node">
<title>CALL_9211a80</title>
<g id="a_node35"><a xlink:href="MPI_RECV_INIT.svg" xlink:title="MPI_RECV_INIT">
<polygon fill="#ffe800" stroke="black" points="1240,-901 1108,-901 1108,-897 1104,-897 1104,-893 1108,-893 1108,-873 1104,-873 1104,-869 1108,-869 1108,-865 1240,-865 1240,-901"/>
<polyline fill="none" stroke="black" points="1108,-897 1112,-897 1112,-893 1108,-893 "/>
<polyline fill="none" stroke="black" points="1108,-873 1112,-873 1112,-869 1108,-869 "/>
<text text-anchor="middle" x="1174" y="-879.3" font-family="Times,serif" font-size="14.00">MPI_RECV_INIT</text>
</a>
</g>
</g>
<!-- CALL_920e3c0&#45;&gt;CALL_9211a80 -->
<g id="edge33" class="edge">
<title>CALL_920e3c0&#45;&gt;CALL_9211a80</title>
<path fill="none" stroke="black" d="M1174,-936.7C1174,-928.98 1174,-919.71 1174,-911.11"/>
<polygon fill="black" stroke="black" points="1177.5,-911.1 1174,-901.1 1170.5,-911.1 1177.5,-911.1"/>
</g>
<!-- CALL_9214d20 -->
<g id="node36" class="node">
<title>CALL_9214d20</title>
<g id="a_node36"><a xlink:href="MPI_RECV_INIT.svg" xlink:title="MPI_RECV_INIT">
<polygon fill="#ffe800" stroke="black" points="1240,-829 1108,-829 1108,-825 1104,-825 1104,-821 1108,-821 1108,-801 1104,-801 1104,-797 1108,-797 1108,-793 1240,-793 1240,-829"/>
<polyline fill="none" stroke="black" points="1108,-825 1112,-825 1112,-821 1108,-821 "/>
<polyline fill="none" stroke="black" points="1108,-801 1112,-801 1112,-797 1108,-797 "/>
<text text-anchor="middle" x="1174" y="-807.3" font-family="Times,serif" font-size="14.00">MPI_RECV_INIT</text>
</a>
</g>
</g>
<!-- CALL_9211a80&#45;&gt;CALL_9214d20 -->
<g id="edge34" class="edge">
<title>CALL_9211a80&#45;&gt;CALL_9214d20</title>
<path fill="none" stroke="black" d="M1174,-864.7C1174,-856.98 1174,-847.71 1174,-839.11"/>
<polygon fill="black" stroke="black" points="1177.5,-839.1 1174,-829.1 1170.5,-839.1 1177.5,-839.1"/>
</g>
<!-- CALL_9219100 -->
<g id="node37" class="node">
<title>CALL_9219100</title>
<g id="a_node37"><a xlink:href="MPI_RECV_INIT.svg" xlink:title="MPI_RECV_INIT">
<polygon fill="#ffe800" stroke="black" points="1240,-757 1108,-757 1108,-753 1104,-753 1104,-749 1108,-749 1108,-729 1104,-729 1104,-725 1108,-725 1108,-721 1240,-721 1240,-757"/>
<polyline fill="none" stroke="black" points="1108,-753 1112,-753 1112,-749 1108,-749 "/>
<polyline fill="none" stroke="black" points="1108,-729 1112,-729 1112,-725 1108,-725 "/>
<text text-anchor="middle" x="1174" y="-735.3" font-family="Times,serif" font-size="14.00">MPI_RECV_INIT</text>
</a>
</g>
</g>
<!-- CALL_9214d20&#45;&gt;CALL_9219100 -->
<g id="edge35" class="edge">
<title>CALL_9214d20&#45;&gt;CALL_9219100</title>
<path fill="none" stroke="black" d="M1174,-792.7C1174,-784.98 1174,-775.71 1174,-767.11"/>
<polygon fill="black" stroke="black" points="1177.5,-767.1 1174,-757.1 1170.5,-767.1 1177.5,-767.1"/>
</g>
<!-- CALL_921c6e0 -->
<g id="node38" class="node">
<title>CALL_921c6e0</title>
<g id="a_node38"><a xlink:href="MPI_RECV_INIT.svg" xlink:title="MPI_RECV_INIT">
<polygon fill="#ffe800" stroke="black" points="1240,-685 1108,-685 1108,-681 1104,-681 1104,-677 1108,-677 1108,-657 1104,-657 1104,-653 1108,-653 1108,-649 1240,-649 1240,-685"/>
<polyline fill="none" stroke="black" points="1108,-681 1112,-681 1112,-677 1108,-677 "/>
<polyline fill="none" stroke="black" points="1108,-657 1112,-657 1112,-653 1108,-653 "/>
<text text-anchor="middle" x="1174" y="-663.3" font-family="Times,serif" font-size="14.00">MPI_RECV_INIT</text>
</a>
</g>
</g>
<!-- CALL_9219100&#45;&gt;CALL_921c6e0 -->
<g id="edge36" class="edge">
<title>CALL_9219100&#45;&gt;CALL_921c6e0</title>
<path fill="none" stroke="black" d="M1174,-720.7C1174,-712.98 1174,-703.71 1174,-695.11"/>
<polygon fill="black" stroke="black" points="1177.5,-695.1 1174,-685.1 1170.5,-695.1 1177.5,-695.1"/>
</g>
<!-- CALL_921fca0 -->
<g id="node39" class="node">
<title>CALL_921fca0</title>
<g id="a_node39"><a xlink:href="MPI_RECV_INIT.svg" xlink:title="MPI_RECV_INIT">
<polygon fill="#ffe800" stroke="black" points="1240,-613 1108,-613 1108,-609 1104,-609 1104,-605 1108,-605 1108,-585 1104,-585 1104,-581 1108,-581 1108,-577 1240,-577 1240,-613"/>
<polyline fill="none" stroke="black" points="1108,-609 1112,-609 1112,-605 1108,-605 "/>
<polyline fill="none" stroke="black" points="1108,-585 1112,-585 1112,-581 1108,-581 "/>
<text text-anchor="middle" x="1174" y="-591.3" font-family="Times,serif" font-size="14.00">MPI_RECV_INIT</text>
</a>
</g>
</g>
<!-- CALL_921c6e0&#45;&gt;CALL_921fca0 -->
<g id="edge37" class="edge">
<title>CALL_921c6e0&#45;&gt;CALL_921fca0</title>
<path fill="none" stroke="black" d="M1174,-648.7C1174,-640.98 1174,-631.71 1174,-623.11"/>
<polygon fill="black" stroke="black" points="1177.5,-623.1 1174,-613.1 1170.5,-623.1 1177.5,-623.1"/>
</g>
<!-- COMMENT_921fc60+1 -->
<g id="node40" class="node">
<title>COMMENT_921fc60+1</title>
<polygon fill="none" stroke="black" points="1216.5,-541 1125.5,-541 1125.5,-505 1222.5,-505 1222.5,-535 1216.5,-541"/>
<polyline fill="none" stroke="black" points="1216.5,-541 1216.5,-535 "/>
<polyline fill="none" stroke="black" points="1222.5,-535 1216.5,-535 "/>
<text text-anchor="middle" x="1174" y="-519.3" font-family="Times,serif" font-size="14.00">PARTICLEs</text>
</g>
<!-- CALL_921fca0&#45;&gt;COMMENT_921fc60+1 -->
<g id="edge38" class="edge">
<title>CALL_921fca0&#45;&gt;COMMENT_921fc60+1</title>
<path fill="none" stroke="black" d="M1174,-576.7C1174,-568.98 1174,-559.71 1174,-551.11"/>
<polygon fill="black" stroke="black" points="1177.5,-551.1 1174,-541.1 1170.5,-551.1 1177.5,-551.1"/>
</g>
<!-- CALL_9224120 -->
<g id="node41" class="node">
<title>CALL_9224120</title>
<g id="a_node41"><a xlink:href="MPI_IRECV.svg" xlink:title="MPI_IRECV">
<polygon fill="#ffe800" stroke="black" points="1223.5,-469 1124.5,-469 1124.5,-465 1120.5,-465 1120.5,-461 1124.5,-461 1124.5,-441 1120.5,-441 1120.5,-437 1124.5,-437 1124.5,-433 1223.5,-433 1223.5,-469"/>
<polyline fill="none" stroke="black" points="1124.5,-465 1128.5,-465 1128.5,-461 1124.5,-461 "/>
<polyline fill="none" stroke="black" points="1124.5,-441 1128.5,-441 1128.5,-437 1124.5,-437 "/>
<text text-anchor="middle" x="1174" y="-447.3" font-family="Times,serif" font-size="14.00">MPI_IRECV</text>
</a>
</g>
</g>
<!-- COMMENT_921fc60+1&#45;&gt;CALL_9224120 -->
<g id="edge39" class="edge">
<title>COMMENT_921fc60+1&#45;&gt;CALL_9224120</title>
<path fill="none" stroke="black" d="M1174,-504.7C1174,-496.98 1174,-487.71 1174,-479.11"/>
<polygon fill="black" stroke="black" points="1177.5,-479.1 1174,-469.1 1170.5,-479.1 1177.5,-479.1"/>
</g>
<!-- CALL_9227800 -->
<g id="node42" class="node">
<title>CALL_9227800</title>
<g id="a_node42"><a xlink:href="MPI_IRECV.svg" xlink:title="MPI_IRECV">
<polygon fill="#ffe800" stroke="black" points="1223.5,-397 1124.5,-397 1124.5,-393 1120.5,-393 1120.5,-389 1124.5,-389 1124.5,-369 1120.5,-369 1120.5,-365 1124.5,-365 1124.5,-361 1223.5,-361 1223.5,-397"/>
<polyline fill="none" stroke="black" points="1124.5,-393 1128.5,-393 1128.5,-389 1124.5,-389 "/>
<polyline fill="none" stroke="black" points="1124.5,-369 1128.5,-369 1128.5,-365 1124.5,-365 "/>
<text text-anchor="middle" x="1174" y="-375.3" font-family="Times,serif" font-size="14.00">MPI_IRECV</text>
</a>
</g>
</g>
<!-- CALL_9224120&#45;&gt;CALL_9227800 -->
<g id="edge40" class="edge">
<title>CALL_9224120&#45;&gt;CALL_9227800</title>
<path fill="none" stroke="black" d="M1174,-432.7C1174,-424.98 1174,-415.71 1174,-407.11"/>
<polygon fill="black" stroke="black" points="1177.5,-407.1 1174,-397.1 1170.5,-407.1 1177.5,-407.1"/>
</g>
<!-- CALL_922adc0 -->
<g id="node43" class="node">
<title>CALL_922adc0</title>
<g id="a_node43"><a xlink:href="MPI_IRECV.svg" xlink:title="MPI_IRECV">
<polygon fill="#ffe800" stroke="black" points="1223.5,-325 1124.5,-325 1124.5,-321 1120.5,-321 1120.5,-317 1124.5,-317 1124.5,-297 1120.5,-297 1120.5,-293 1124.5,-293 1124.5,-289 1223.5,-289 1223.5,-325"/>
<polyline fill="none" stroke="black" points="1124.5,-321 1128.5,-321 1128.5,-317 1124.5,-317 "/>
<polyline fill="none" stroke="black" points="1124.5,-297 1128.5,-297 1128.5,-293 1124.5,-293 "/>
<text text-anchor="middle" x="1174" y="-303.3" font-family="Times,serif" font-size="14.00">MPI_IRECV</text>
</a>
</g>
</g>
<!-- CALL_9227800&#45;&gt;CALL_922adc0 -->
<g id="edge41" class="edge">
<title>CALL_9227800&#45;&gt;CALL_922adc0</title>
<path fill="none" stroke="black" d="M1174,-360.7C1174,-352.98 1174,-343.71 1174,-335.11"/>
<polygon fill="black" stroke="black" points="1177.5,-335.1 1174,-325.1 1170.5,-335.1 1177.5,-335.1"/>
</g>
<!-- COMMENT_9218b00+1 -->
<g id="node44" class="node">
<title>COMMENT_9218b00+1</title>
<polygon fill="none" stroke="black" points="1366,-253 976,-253 976,-217 1372,-217 1372,-247 1366,-253"/>
<polyline fill="none" stroke="black" points="1366,-253 1366,-247 "/>
<polyline fill="none" stroke="black" points="1372,-247 1366,-247 "/>
<text text-anchor="middle" x="1174" y="-231.3" font-family="Times,serif" font-size="14.00">Set up to receive mass loss data for boundary OBSTs</text>
</g>
<!-- CALL_922adc0&#45;&gt;COMMENT_9218b00+1 -->
<g id="edge42" class="edge">
<title>CALL_922adc0&#45;&gt;COMMENT_9218b00+1</title>
<path fill="none" stroke="black" d="M1174,-288.7C1174,-280.98 1174,-271.71 1174,-263.11"/>
<polygon fill="black" stroke="black" points="1177.5,-263.1 1174,-253.1 1170.5,-263.1 1177.5,-263.1"/>
</g>
<!-- CALL_9231100 -->
<g id="node45" class="node">
<title>CALL_9231100</title>
<g id="a_node45"><a xlink:href="MPI_IRECV.svg" xlink:title="MPI_IRECV">
<polygon fill="#ffe800" stroke="black" points="1223.5,-181 1124.5,-181 1124.5,-177 1120.5,-177 1120.5,-173 1124.5,-173 1124.5,-153 1120.5,-153 1120.5,-149 1124.5,-149 1124.5,-145 1223.5,-145 1223.5,-181"/>
<polyline fill="none" stroke="black" points="1124.5,-177 1128.5,-177 1128.5,-173 1124.5,-173 "/>
<polyline fill="none" stroke="black" points="1124.5,-153 1128.5,-153 1128.5,-149 1124.5,-149 "/>
<text text-anchor="middle" x="1174" y="-159.3" font-family="Times,serif" font-size="14.00">MPI_IRECV</text>
</a>
</g>
</g>
<!-- COMMENT_9218b00+1&#45;&gt;CALL_9231100 -->
<g id="edge43" class="edge">
<title>COMMENT_9218b00+1&#45;&gt;CALL_9231100</title>
<path fill="none" stroke="black" d="M1174,-216.7C1174,-208.98 1174,-199.71 1174,-191.11"/>
<polygon fill="black" stroke="black" points="1177.5,-191.1 1174,-181.1 1170.5,-191.1 1177.5,-191.1"/>
</g>
<!-- CALL_92356c0 -->
<g id="node46" class="node">
<title>CALL_92356c0</title>
<g id="a_node46"><a xlink:href="MPI_IRECV.svg" xlink:title="MPI_IRECV">
<polygon fill="#ffe800" stroke="black" points="1223.5,-109 1124.5,-109 1124.5,-105 1120.5,-105 1120.5,-101 1124.5,-101 1124.5,-81 1120.5,-81 1120.5,-77 1124.5,-77 1124.5,-73 1223.5,-73 1223.5,-109"/>
<polyline fill="none" stroke="black" points="1124.5,-105 1128.5,-105 1128.5,-101 1124.5,-101 "/>
<polyline fill="none" stroke="black" points="1124.5,-81 1128.5,-81 1128.5,-77 1124.5,-77 "/>
<text text-anchor="middle" x="1174" y="-87.3" font-family="Times,serif" font-size="14.00">MPI_IRECV</text>
</a>
</g>
</g>
<!-- CALL_9231100&#45;&gt;CALL_92356c0 -->
<g id="edge44" class="edge">
<title>CALL_9231100&#45;&gt;CALL_92356c0</title>
<path fill="none" stroke="black" d="M1174,-144.7C1174,-136.98 1174,-127.71 1174,-119.11"/>
<polygon fill="black" stroke="black" points="1177.5,-119.1 1174,-109.1 1170.5,-119.1 1177.5,-119.1"/>
</g>
<!-- end_SUBPROGRAM_9236c80 -->
<g id="node48" class="node">
<title>end_SUBPROGRAM_9236c80</title>
<ellipse fill="black" stroke="black" cx="1174" cy="-30" rx="7" ry="7"/>
</g>
<!-- CALL_92356c0&#45;&gt;end_SUBPROGRAM_9236c80 -->
<g id="edge46" class="edge">
<title>CALL_92356c0&#45;&gt;end_SUBPROGRAM_9236c80</title>
<path fill="none" stroke="black" d="M1174,-72.93C1174,-64.89 1174,-55.33 1174,-47.37"/>
<polygon fill="black" stroke="black" points="1177.5,-47.22 1174,-37.22 1170.5,-47.22 1177.5,-47.22"/>
</g>
</g>
</svg>
