<?xml version="1.0" encoding="UTF-8" standalone="no"?>
<!DOCTYPE svg PUBLIC "-//W3C//DTD SVG 1.1//EN"
 "http://www.w3.org/Graphics/SVG/1.1/DTD/svg11.dtd">
<!-- Generated by graphviz version 2.43.0 (0)
 -->
<!-- Title: PREDICT_NORMAL_VELOCITY Pages: 1 -->
<svg width="1688pt" height="464pt"
 viewBox="0.00 0.00 1688.00 464.44" xmlns="http://www.w3.org/2000/svg" xmlns:xlink="http://www.w3.org/1999/xlink">
<g id="graph0" class="graph" transform="scale(1 1) rotate(0) translate(4 460.44)">
<title>PREDICT_NORMAL_VELOCITY</title>
<polygon fill="white" stroke="transparent" points="-4,4 -4,-460.44 1684,-460.44 1684,4 -4,4"/>
<text text-anchor="middle" x="840" y="-7.8" font-family="Times,serif" font-size="14.00">PREDICT_NORMAL_VELOCITY</text>
<g id="clust1" class="cluster">
<title>cluster_PREDICT_NORMALS</title>
<polygon fill="none" stroke="blue" points="8,-65 8,-434.44 1672,-434.44 1672,-65 8,-65"/>
<text text-anchor="middle" x="91.5" y="-419.24" font-family="Times,serif" font-size="14.00">PREDICT_NORMALS</text>
</g>
<g id="clust2" class="cluster">
<title>cluster_conda56fc80</title>
<polygon fill="none" stroke="black" points="16,-101.72 16,-393.72 708,-393.72 708,-101.72 16,-101.72"/>
<text text-anchor="middle" x="69.5" y="-378.52" font-family="Times,serif" font-size="14.00">conda56fc80</text>
</g>
<g id="clust3" class="cluster">
<title>cluster_conda574600</title>
<polygon fill="none" stroke="black" points="716,-245.72 716,-394.72 1664,-394.72 1664,-245.72 716,-245.72"/>
<text text-anchor="middle" x="772.5" y="-379.52" font-family="Times,serif" font-size="14.00">conda574600</text>
</g>
<!-- start_SUBPROGRAM_a574800 -->
<g id="node1" class="node">
<title>start_SUBPROGRAM_a574800</title>
<ellipse fill="none" stroke="black" cx="893" cy="-449.44" rx="7" ry="7"/>
</g>
<!-- beginIf_IF_a572ac0 -->
<g id="node2" class="node">
<title>beginIf_IF_a572ac0</title>
<ellipse fill="black" stroke="black" cx="893" cy="-403.08" rx="0.36" ry="0.36"/>
</g>
<!-- start_SUBPROGRAM_a574800&#45;&gt;beginIf_IF_a572ac0 -->
<g id="edge9" class="edge">
<title>start_SUBPROGRAM_a574800&#45;&gt;beginIf_IF_a572ac0</title>
<path fill="none" stroke="black" d="M893,-442.27C893,-430.46 893,-405.69 893,-404.15"/>
</g>
<!-- COMMENT_a536920+1 -->
<g id="node4" class="node">
<title>COMMENT_a536920+1</title>
<polygon fill="none" stroke="black" points="656.5,-362.72 547.5,-362.72 547.5,-326.72 662.5,-326.72 662.5,-356.72 656.5,-362.72"/>
<polyline fill="none" stroke="black" points="656.5,-362.72 656.5,-356.72 "/>
<polyline fill="none" stroke="black" points="662.5,-356.72 656.5,-356.72 "/>
<text text-anchor="middle" x="605" y="-341.02" font-family="Times,serif" font-size="14.00">Special Cases</text>
</g>
<!-- beginIf_IF_a572ac0&#45;&gt;COMMENT_a536920+1 -->
<g id="edge4" class="edge">
<title>beginIf_IF_a572ac0&#45;&gt;COMMENT_a536920+1</title>
<path fill="none" stroke="black" d="M892.9,-402.72C888.59,-402.76 750.53,-404.02 712,-394.72 688.17,-388.97 663.17,-377.84 643.33,-367.64"/>
<polygon fill="black" stroke="black" points="644.8,-364.46 634.32,-362.89 641.53,-370.65 644.8,-364.46"/>
</g>
<!-- COMMENT_a56fc60+1 -->
<g id="node8" class="node">
<title>COMMENT_a56fc60+1</title>
<polygon fill="none" stroke="black" points="1627,-363.72 731,-363.72 731,-325.72 1633,-325.72 1633,-357.72 1627,-363.72"/>
<polyline fill="none" stroke="black" points="1627,-363.72 1627,-357.72 "/>
<polyline fill="none" stroke="black" points="1633,-357.72 1627,-357.72 "/>
<text text-anchor="middle" x="1182" y="-348.52" font-family="Times,serif" font-size="14.00">In the CORRECTOR step, the normal component of velocity, U_NORMAL, is the same as the predicted value, U_NORMAL_S.</text>
<text text-anchor="middle" x="1182" y="-333.52" font-family="Times,serif" font-size="14.00">However, for species mass fluxes and HVAC, U_NORMAL is computed elsewhere (wall.f90).</text>
</g>
<!-- beginIf_IF_a572ac0&#45;&gt;COMMENT_a56fc60+1 -->
<g id="edge7" class="edge">
<title>beginIf_IF_a572ac0&#45;&gt;COMMENT_a56fc60+1</title>
<path fill="none" stroke="black" d="M893.05,-402.71C895.71,-402.19 998.44,-381.92 1080.65,-365.71"/>
<polygon fill="black" stroke="black" points="1081.43,-369.12 1090.57,-363.75 1080.08,-362.25 1081.43,-369.12"/>
</g>
<!-- endIf_IF_a572ac0 -->
<g id="node3" class="node">
<title>endIf_IF_a572ac0</title>
<ellipse fill="black" stroke="black" cx="658" cy="-73.36" rx="0.36" ry="0.36"/>
</g>
<!-- end_SUBPROGRAM_a574800 -->
<g id="node10" class="node">
<title>end_SUBPROGRAM_a574800</title>
<ellipse fill="black" stroke="black" cx="658" cy="-30" rx="7" ry="7"/>
</g>
<!-- endIf_IF_a572ac0&#45;&gt;end_SUBPROGRAM_a574800 -->
<g id="edge10" class="edge">
<title>endIf_IF_a572ac0&#45;&gt;end_SUBPROGRAM_a574800</title>
<path fill="none" stroke="black" d="M658,-72.24C658,-70.89 658,-58.27 658,-47.34"/>
<polygon fill="black" stroke="black" points="661.5,-47.1 658,-37.1 654.5,-47.1 661.5,-47.1"/>
</g>
<!-- IF_a549900 -->
<g id="node5" class="node">
<title>IF_a549900</title>
<polygon fill="none" stroke="blue" points="629.5,-289.72 508.5,-289.72 508.5,-253.72 629.5,-253.72 629.5,-289.72"/>
<text text-anchor="middle" x="569" y="-268.02" font-family="Times,serif" font-size="14.00">NEUMANN_IF</text>
</g>
<!-- COMMENT_a536920+1&#45;&gt;IF_a549900 -->
<g id="edge1" class="edge">
<title>COMMENT_a536920+1&#45;&gt;IF_a549900</title>
<path fill="none" stroke="black" d="M596.29,-326.53C592.08,-318.25 586.95,-308.13 582.28,-298.91"/>
<polygon fill="black" stroke="black" points="585.28,-297.09 577.63,-289.75 579.04,-300.25 585.28,-297.09"/>
</g>
<!-- IF_a55e4c0 -->
<g id="node6" class="node">
<title>IF_a55e4c0</title>
<polygon fill="none" stroke="blue" points="471,-217.72 391,-217.72 391,-181.72 471,-181.72 471,-217.72"/>
<text text-anchor="middle" x="431" y="-196.02" font-family="Times,serif" font-size="14.00">VENT_IF</text>
</g>
<!-- IF_a549900&#45;&gt;IF_a55e4c0 -->
<g id="edge2" class="edge">
<title>IF_a549900&#45;&gt;IF_a55e4c0</title>
<path fill="none" stroke="black" d="M535.24,-253.6C516.78,-244.23 493.72,-232.53 473.98,-222.52"/>
<polygon fill="black" stroke="black" points="475.39,-219.31 464.89,-217.91 472.22,-225.55 475.39,-219.31"/>
</g>
<!-- COMMENT_a56fa80+1 -->
<g id="node7" class="node">
<title>COMMENT_a56fa80+1</title>
<polygon fill="none" stroke="black" points="694.5,-145.72 23.5,-145.72 23.5,-109.72 700.5,-109.72 700.5,-139.72 694.5,-145.72"/>
<polyline fill="none" stroke="black" points="694.5,-145.72 694.5,-139.72 "/>
<polyline fill="none" stroke="black" points="700.5,-139.72 694.5,-139.72 "/>
<text text-anchor="middle" x="362" y="-124.02" font-family="Times,serif" font-size="14.00">Calculate du/dt, dv/dt, dw/dt at external boundaries. DUNDT is only used for Neumann BCs.</text>
</g>
<!-- IF_a55e4c0&#45;&gt;COMMENT_a56fa80+1 -->
<g id="edge3" class="edge">
<title>IF_a55e4c0&#45;&gt;COMMENT_a56fa80+1</title>
<path fill="none" stroke="black" d="M413.94,-181.42C405.5,-172.86 395.18,-162.38 385.96,-153.02"/>
<polygon fill="black" stroke="black" points="388.37,-150.49 378.86,-145.82 383.39,-155.4 388.37,-150.49"/>
</g>
<!-- COMMENT_a56fa80+1&#45;&gt;endIf_IF_a572ac0 -->
<g id="edge5" class="edge">
<title>COMMENT_a56fa80+1&#45;&gt;endIf_IF_a572ac0</title>
<path fill="none" stroke="black" d="M457.29,-109.66C542.46,-94.41 654.44,-74.36 657.92,-73.73"/>
</g>
<!-- COMMENT_a574440+1 -->
<g id="node9" class="node">
<title>COMMENT_a574440+1</title>
<polygon fill="none" stroke="black" points="1649.5,-289.72 724.5,-289.72 724.5,-253.72 1655.5,-253.72 1655.5,-283.72 1649.5,-289.72"/>
<polyline fill="none" stroke="black" points="1649.5,-289.72 1649.5,-283.72 "/>
<polyline fill="none" stroke="black" points="1655.5,-283.72 1649.5,-283.72 "/>
<text text-anchor="middle" x="1190" y="-268.02" font-family="Times,serif" font-size="14.00">Calculate du/dt, dv/dt, dw/dt at external boundaries. DUNDT is only used for Neumann BCs. Note the second&#45;order RK formula.</text>
</g>
<!-- COMMENT_a56fc60+1&#45;&gt;COMMENT_a574440+1 -->
<g id="edge6" class="edge">
<title>COMMENT_a56fc60+1&#45;&gt;COMMENT_a574440+1</title>
<path fill="none" stroke="black" d="M1184.06,-325.44C1184.94,-317.61 1185.99,-308.31 1186.96,-299.71"/>
<polygon fill="black" stroke="black" points="1190.44,-300.05 1188.08,-289.72 1183.49,-299.27 1190.44,-300.05"/>
</g>
<!-- COMMENT_a574440+1&#45;&gt;endIf_IF_a572ac0 -->
<g id="edge8" class="edge">
<title>COMMENT_a574440+1&#45;&gt;endIf_IF_a572ac0</title>
<path fill="none" stroke="black" d="M1143.72,-253.58C1015.3,-206.03 663.55,-75.78 658.06,-73.74"/>
</g>
</g>
</svg>
