<?xml version="1.0" encoding="UTF-8" standalone="no"?>
<!DOCTYPE svg PUBLIC "-//W3C//DTD SVG 1.1//EN"
 "http://www.w3.org/Graphics/SVG/1.1/DTD/svg11.dtd">
<!-- Generated by graphviz version 2.43.0 (0)
 -->
<!-- Title: PRESSURE_ITERATION_SCHEME Pages: 1 -->
<svg width="860pt" height="2494pt"
 viewBox="0.00 0.00 860.00 2494.44" xmlns="http://www.w3.org/2000/svg" xmlns:xlink="http://www.w3.org/1999/xlink">
<g id="graph0" class="graph" transform="scale(1 1) rotate(0) translate(4 2490.44)">
<title>PRESSURE_ITERATION_SCHEME</title>
<polygon fill="white" stroke="transparent" points="-4,4 -4,-2490.44 856,-2490.44 856,4 -4,4"/>
<text text-anchor="middle" x="426" y="-7.8" font-family="Times,serif" font-size="14.00">PRESSURE_ITERATION_SCHEME</text>
<g id="clust1" class="cluster">
<title>cluster_PRESSURE_ITERATION_LOOP</title>
<polygon fill="none" stroke="orange" points="8,-65 8,-2176.44 844,-2176.44 844,-65 8,-65"/>
<text text-anchor="middle" x="126" y="-2161.24" font-family="Times,serif" font-size="14.00">PRESSURE_ITERATION_LOOP</text>
</g>
<!-- start_SUBPROGRAM_7bb4b60 -->
<g id="node1" class="node">
<title>start_SUBPROGRAM_7bb4b60</title>
<ellipse fill="none" stroke="black" cx="426" cy="-2479.44" rx="7" ry="7"/>
</g>
<!-- COMMENT_7bb42c0+1 -->
<g id="node2" class="node">
<title>COMMENT_7bb42c0+1</title>
<polygon fill="none" stroke="black" points="702.5,-2436.44 143.5,-2436.44 143.5,-2400.44 708.5,-2400.44 708.5,-2430.44 702.5,-2436.44"/>
<polyline fill="none" stroke="black" points="702.5,-2436.44 702.5,-2430.44 "/>
<polyline fill="none" stroke="black" points="708.5,-2430.44 702.5,-2430.44 "/>
<text text-anchor="middle" x="426" y="-2414.74" font-family="Times,serif" font-size="14.00">!&gt; brief Perform multiple pressure solves until velocity tolerance is satisfied</text>
</g>
<!-- start_SUBPROGRAM_7bb4b60&#45;&gt;COMMENT_7bb42c0+1 -->
<g id="edge1" class="edge">
<title>start_SUBPROGRAM_7bb4b60&#45;&gt;COMMENT_7bb42c0+1</title>
<path fill="none" stroke="black" d="M426,-2472.13C426,-2465.93 426,-2456.03 426,-2446.49"/>
<polygon fill="black" stroke="black" points="429.5,-2446.46 426,-2436.46 422.5,-2446.46 429.5,-2446.46"/>
</g>
<!-- COMMENT_7bb67a0+1 -->
<g id="node3" class="node">
<title>COMMENT_7bb67a0+1</title>
<polygon fill="none" stroke="black" points="582,-2364.44 264,-2364.44 264,-2328.44 588,-2328.44 588,-2358.44 582,-2364.44"/>
<polyline fill="none" stroke="black" points="582,-2364.44 582,-2358.44 "/>
<polyline fill="none" stroke="black" points="588,-2358.44 582,-2358.44 "/>
<text text-anchor="middle" x="426" y="-2342.74" font-family="Times,serif" font-size="14.00">Here we need an exchange of F for linking:</text>
</g>
<!-- COMMENT_7bb42c0+1&#45;&gt;COMMENT_7bb67a0+1 -->
<g id="edge2" class="edge">
<title>COMMENT_7bb42c0+1&#45;&gt;COMMENT_7bb67a0+1</title>
<path fill="none" stroke="black" d="M426,-2400.14C426,-2392.42 426,-2383.15 426,-2374.55"/>
<polygon fill="black" stroke="black" points="429.5,-2374.54 426,-2364.54 422.5,-2374.54 429.5,-2374.54"/>
</g>
<!-- CALL_7bb67a0 -->
<g id="node4" class="node">
<title>CALL_7bb67a0</title>
<g id="a_node4"><a xlink:href="MESH_EXCHANGE.svg" xlink:title="MESH_EXCHANGE">
<polygon fill="lightgray" stroke="black" points="504,-2292.44 348,-2292.44 348,-2288.44 344,-2288.44 344,-2284.44 348,-2284.44 348,-2264.44 344,-2264.44 344,-2260.44 348,-2260.44 348,-2256.44 504,-2256.44 504,-2292.44"/>
<polyline fill="none" stroke="black" points="348,-2288.44 352,-2288.44 352,-2284.44 348,-2284.44 "/>
<polyline fill="none" stroke="black" points="348,-2264.44 352,-2264.44 352,-2260.44 348,-2260.44 "/>
<text text-anchor="middle" x="426" y="-2270.74" font-family="Times,serif" font-size="14.00">MESH_EXCHANGE</text>
</a>
</g>
</g>
<!-- COMMENT_7bb67a0+1&#45;&gt;CALL_7bb67a0 -->
<g id="edge3" class="edge">
<title>COMMENT_7bb67a0+1&#45;&gt;CALL_7bb67a0</title>
<path fill="none" stroke="black" d="M426,-2328.14C426,-2320.42 426,-2311.15 426,-2302.55"/>
<polygon fill="black" stroke="black" points="429.5,-2302.54 426,-2292.54 422.5,-2302.54 429.5,-2302.54"/>
</g>
<!-- CALL_7bb7c80 -->
<g id="node5" class="node">
<title>CALL_7bb7c80</title>
<g id="a_node5"><a xlink:href="GET_LINKED_FV.svg" xlink:title="GET_LINKED_FV">
<polygon fill="lightgray" stroke="black" points="495.5,-2220.44 356.5,-2220.44 356.5,-2216.44 352.5,-2216.44 352.5,-2212.44 356.5,-2212.44 356.5,-2192.44 352.5,-2192.44 352.5,-2188.44 356.5,-2188.44 356.5,-2184.44 495.5,-2184.44 495.5,-2220.44"/>
<polyline fill="none" stroke="black" points="356.5,-2216.44 360.5,-2216.44 360.5,-2212.44 356.5,-2212.44 "/>
<polyline fill="none" stroke="black" points="356.5,-2192.44 360.5,-2192.44 360.5,-2188.44 356.5,-2188.44 "/>
<text text-anchor="middle" x="426" y="-2198.74" font-family="Times,serif" font-size="14.00">GET_LINKED_FV</text>
</a>
</g>
</g>
<!-- CALL_7bb67a0&#45;&gt;CALL_7bb7c80 -->
<g id="edge4" class="edge">
<title>CALL_7bb67a0&#45;&gt;CALL_7bb7c80</title>
<path fill="none" stroke="black" d="M426,-2256.14C426,-2248.42 426,-2239.15 426,-2230.55"/>
<polygon fill="black" stroke="black" points="429.5,-2230.54 426,-2220.54 422.5,-2230.54 429.5,-2230.54"/>
</g>
<!-- beginDO_DO_7bf2020 -->
<g id="node6" class="node">
<title>beginDO_DO_7bf2020</title>
<ellipse fill="black" stroke="black" cx="426" cy="-2145.08" rx="0.36" ry="0.36"/>
</g>
<!-- CALL_7bb7c80&#45;&gt;beginDO_DO_7bf2020 -->
<g id="edge33" class="edge">
<title>CALL_7bb7c80&#45;&gt;beginDO_DO_7bf2020</title>
<path fill="none" stroke="black" d="M426,-2184.23C426,-2168.48 426,-2147.44 426,-2146.14"/>
</g>
<!-- COMMENT_7b93280+1 -->
<g id="node8" class="node">
<title>COMMENT_7b93280+1</title>
<polygon fill="none" stroke="black" points="830,-2108.72 16,-2108.72 16,-2070.72 836,-2070.72 836,-2102.72 830,-2108.72"/>
<polyline fill="none" stroke="black" points="830,-2108.72 830,-2102.72 "/>
<polyline fill="none" stroke="black" points="836,-2102.72 830,-2102.72 "/>
<text text-anchor="middle" x="426" y="-2093.52" font-family="Times,serif" font-size="14.00">The following loops and exchange always get executed the first pass through the PRESSURE_ITERATION_LOOP.</text>
<text text-anchor="middle" x="426" y="-2078.52" font-family="Times,serif" font-size="14.00">If we need to iterate the baroclinic torque term, the loop is executed each time.</text>
</g>
<!-- beginDO_DO_7bf2020&#45;&gt;COMMENT_7b93280+1 -->
<g id="edge5" class="edge">
<title>beginDO_DO_7bf2020&#45;&gt;COMMENT_7b93280+1</title>
<path fill="none" stroke="black" d="M426,-2144.57C426,-2143.09 426,-2131.25 426,-2119.05"/>
<polygon fill="black" stroke="black" points="429.5,-2118.94 426,-2108.94 422.5,-2118.94 429.5,-2118.94"/>
</g>
<!-- endDO_DO_7bf2020 -->
<g id="node7" class="node">
<title>endDO_DO_7bf2020</title>
<ellipse fill="black" stroke="black" cx="426" cy="-73.36" rx="0.36" ry="0.36"/>
</g>
<!-- end_SUBPROGRAM_7bb4b60 -->
<g id="node36" class="node">
<title>end_SUBPROGRAM_7bb4b60</title>
<ellipse fill="black" stroke="black" cx="426" cy="-30" rx="7" ry="7"/>
</g>
<!-- endDO_DO_7bf2020&#45;&gt;end_SUBPROGRAM_7bb4b60 -->
<g id="edge35" class="edge">
<title>endDO_DO_7bf2020&#45;&gt;end_SUBPROGRAM_7bb4b60</title>
<path fill="none" stroke="black" d="M426,-72.24C426,-70.89 426,-58.27 426,-47.34"/>
<polygon fill="black" stroke="black" points="429.5,-47.1 426,-37.1 422.5,-47.1 429.5,-47.1"/>
</g>
<!-- CALL_7bb6c20 -->
<g id="node9" class="node">
<title>CALL_7bb6c20</title>
<g id="a_node9"><a xlink:href="BAROCLINIC_CORRECTION.svg" xlink:title="BAROCLINIC_CORRECTION">
<polygon fill="lightgray" stroke="black" points="535.5,-2034.72 316.5,-2034.72 316.5,-2030.72 312.5,-2030.72 312.5,-2026.72 316.5,-2026.72 316.5,-2006.72 312.5,-2006.72 312.5,-2002.72 316.5,-2002.72 316.5,-1998.72 535.5,-1998.72 535.5,-2034.72"/>
<polyline fill="none" stroke="black" points="316.5,-2030.72 320.5,-2030.72 320.5,-2026.72 316.5,-2026.72 "/>
<polyline fill="none" stroke="black" points="316.5,-2006.72 320.5,-2006.72 320.5,-2002.72 316.5,-2002.72 "/>
<text text-anchor="middle" x="426" y="-2013.02" font-family="Times,serif" font-size="14.00">BAROCLINIC_CORRECTION</text>
</a>
</g>
</g>
<!-- COMMENT_7b93280+1&#45;&gt;CALL_7bb6c20 -->
<g id="edge6" class="edge">
<title>COMMENT_7b93280+1&#45;&gt;CALL_7bb6c20</title>
<path fill="none" stroke="black" d="M426,-2070.44C426,-2062.69 426,-2053.51 426,-2044.99"/>
<polygon fill="black" stroke="black" points="429.5,-2044.72 426,-2034.72 422.5,-2044.72 429.5,-2044.72"/>
</g>
<!-- CALL_7bbbfe0 -->
<g id="node10" class="node">
<title>CALL_7bbbfe0</title>
<g id="a_node10"><a xlink:href="CC_NO_FLUX.svg" xlink:title="CC_NO_FLUX">
<polygon fill="lightgray" stroke="black" points="483,-1962.72 369,-1962.72 369,-1958.72 365,-1958.72 365,-1954.72 369,-1954.72 369,-1934.72 365,-1934.72 365,-1930.72 369,-1930.72 369,-1926.72 483,-1926.72 483,-1962.72"/>
<polyline fill="none" stroke="black" points="369,-1958.72 373,-1958.72 373,-1954.72 369,-1954.72 "/>
<polyline fill="none" stroke="black" points="369,-1934.72 373,-1934.72 373,-1930.72 369,-1930.72 "/>
<text text-anchor="middle" x="426" y="-1941.02" font-family="Times,serif" font-size="14.00">CC_NO_FLUX</text>
</a>
</g>
</g>
<!-- CALL_7bb6c20&#45;&gt;CALL_7bbbfe0 -->
<g id="edge7" class="edge">
<title>CALL_7bb6c20&#45;&gt;CALL_7bbbfe0</title>
<path fill="none" stroke="black" d="M426,-1998.42C426,-1990.7 426,-1981.43 426,-1972.83"/>
<polygon fill="black" stroke="black" points="429.5,-1972.82 426,-1962.82 422.5,-1972.82 429.5,-1972.82"/>
</g>
<!-- CALL_7bbc6e0 -->
<g id="node11" class="node">
<title>CALL_7bbc6e0</title>
<g id="a_node11"><a xlink:href="MESH_EXCHANGE.svg" xlink:title="MESH_EXCHANGE">
<polygon fill="lightgray" stroke="black" points="504,-1890.72 348,-1890.72 348,-1886.72 344,-1886.72 344,-1882.72 348,-1882.72 348,-1862.72 344,-1862.72 344,-1858.72 348,-1858.72 348,-1854.72 504,-1854.72 504,-1890.72"/>
<polyline fill="none" stroke="black" points="348,-1886.72 352,-1886.72 352,-1882.72 348,-1882.72 "/>
<polyline fill="none" stroke="black" points="348,-1862.72 352,-1862.72 352,-1858.72 348,-1858.72 "/>
<text text-anchor="middle" x="426" y="-1869.02" font-family="Times,serif" font-size="14.00">MESH_EXCHANGE</text>
</a>
</g>
</g>
<!-- CALL_7bbbfe0&#45;&gt;CALL_7bbc6e0 -->
<g id="edge8" class="edge">
<title>CALL_7bbbfe0&#45;&gt;CALL_7bbc6e0</title>
<path fill="none" stroke="black" d="M426,-1926.42C426,-1918.7 426,-1909.43 426,-1900.83"/>
<polygon fill="black" stroke="black" points="429.5,-1900.82 426,-1890.82 422.5,-1900.82 429.5,-1900.82"/>
</g>
<!-- CALL_7bbd540 -->
<g id="node12" class="node">
<title>CALL_7bbd540</title>
<g id="a_node12"><a xlink:href="MATCH_VELOCITY_FLUX.svg" xlink:title="MATCH_VELOCITY_FLUX">
<polygon fill="lightgray" stroke="black" points="525.5,-1818.72 326.5,-1818.72 326.5,-1814.72 322.5,-1814.72 322.5,-1810.72 326.5,-1810.72 326.5,-1790.72 322.5,-1790.72 322.5,-1786.72 326.5,-1786.72 326.5,-1782.72 525.5,-1782.72 525.5,-1818.72"/>
<polyline fill="none" stroke="black" points="326.5,-1814.72 330.5,-1814.72 330.5,-1810.72 326.5,-1810.72 "/>
<polyline fill="none" stroke="black" points="326.5,-1790.72 330.5,-1790.72 330.5,-1786.72 326.5,-1786.72 "/>
<text text-anchor="middle" x="426" y="-1797.02" font-family="Times,serif" font-size="14.00">MATCH_VELOCITY_FLUX</text>
</a>
</g>
</g>
<!-- CALL_7bbc6e0&#45;&gt;CALL_7bbd540 -->
<g id="edge9" class="edge">
<title>CALL_7bbc6e0&#45;&gt;CALL_7bbd540</title>
<path fill="none" stroke="black" d="M426,-1854.42C426,-1846.7 426,-1837.43 426,-1828.83"/>
<polygon fill="black" stroke="black" points="429.5,-1828.82 426,-1818.82 422.5,-1828.82 429.5,-1828.82"/>
</g>
<!-- COMMENT_7bbe0a0+1 -->
<g id="node13" class="node">
<title>COMMENT_7bbe0a0+1</title>
<polygon fill="none" stroke="black" points="784.5,-1746.72 61.5,-1746.72 61.5,-1693.72 790.5,-1693.72 790.5,-1740.72 784.5,-1746.72"/>
<polyline fill="none" stroke="black" points="784.5,-1746.72 784.5,-1740.72 "/>
<polyline fill="none" stroke="black" points="790.5,-1740.72 784.5,-1740.72 "/>
<text text-anchor="middle" x="426" y="-1731.52" font-family="Times,serif" font-size="14.00">Compute the right hand side (RHS) and boundary conditions for the Poission equation for pressure.</text>
<text text-anchor="middle" x="426" y="-1716.52" font-family="Times,serif" font-size="14.00">The WALL_WORK1 array is computed in COMPUTE_VELOCITY_ERROR, but it should</text>
<text text-anchor="middle" x="426" y="-1701.52" font-family="Times,serif" font-size="14.00">be zero the first time the pressure solver is called.</text>
</g>
<!-- CALL_7bbd540&#45;&gt;COMMENT_7bbe0a0+1 -->
<g id="edge10" class="edge">
<title>CALL_7bbd540&#45;&gt;COMMENT_7bbe0a0+1</title>
<path fill="none" stroke="black" d="M426,-1782.69C426,-1775.17 426,-1766.03 426,-1757.12"/>
<polygon fill="black" stroke="black" points="429.5,-1756.88 426,-1746.88 422.5,-1756.88 429.5,-1756.88"/>
</g>
<!-- CALL_7bbe980 -->
<g id="node14" class="node">
<title>CALL_7bbe980</title>
<g id="a_node14"><a xlink:href="NO_FLUX.svg" xlink:title="NO_FLUX">
<polygon fill="lightgray" stroke="black" points="469,-1657.72 383,-1657.72 383,-1653.72 379,-1653.72 379,-1649.72 383,-1649.72 383,-1629.72 379,-1629.72 379,-1625.72 383,-1625.72 383,-1621.72 469,-1621.72 469,-1657.72"/>
<polyline fill="none" stroke="black" points="383,-1653.72 387,-1653.72 387,-1649.72 383,-1649.72 "/>
<polyline fill="none" stroke="black" points="383,-1629.72 387,-1629.72 387,-1625.72 383,-1625.72 "/>
<text text-anchor="middle" x="426" y="-1636.02" font-family="Times,serif" font-size="14.00">NO_FLUX</text>
</a>
</g>
</g>
<!-- COMMENT_7bbe0a0+1&#45;&gt;CALL_7bbe980 -->
<g id="edge11" class="edge">
<title>COMMENT_7bbe0a0+1&#45;&gt;CALL_7bbe980</title>
<path fill="none" stroke="black" d="M426,-1693.52C426,-1685.43 426,-1676.48 426,-1668.27"/>
<polygon fill="black" stroke="black" points="429.5,-1668.05 426,-1658.05 422.5,-1668.05 429.5,-1668.05"/>
</g>
<!-- CALL_7bbfac0 -->
<g id="node15" class="node">
<title>CALL_7bbfac0</title>
<g id="a_node15"><a xlink:href="CC_NO_FLUX.svg" xlink:title="CC_NO_FLUX">
<polygon fill="lightgray" stroke="black" points="483,-1585.72 369,-1585.72 369,-1581.72 365,-1581.72 365,-1577.72 369,-1577.72 369,-1557.72 365,-1557.72 365,-1553.72 369,-1553.72 369,-1549.72 483,-1549.72 483,-1585.72"/>
<polyline fill="none" stroke="black" points="369,-1581.72 373,-1581.72 373,-1577.72 369,-1577.72 "/>
<polyline fill="none" stroke="black" points="369,-1557.72 373,-1557.72 373,-1553.72 369,-1553.72 "/>
<text text-anchor="middle" x="426" y="-1564.02" font-family="Times,serif" font-size="14.00">CC_NO_FLUX</text>
</a>
</g>
</g>
<!-- CALL_7bbe980&#45;&gt;CALL_7bbfac0 -->
<g id="edge12" class="edge">
<title>CALL_7bbe980&#45;&gt;CALL_7bbfac0</title>
<path fill="none" stroke="black" d="M426,-1621.42C426,-1613.7 426,-1604.43 426,-1595.83"/>
<polygon fill="black" stroke="black" points="429.5,-1595.82 426,-1585.82 422.5,-1595.82 429.5,-1595.82"/>
</g>
<!-- CALL_7bc17e0 -->
<g id="node16" class="node">
<title>CALL_7bc17e0</title>
<g id="a_node16"><a xlink:href="PRESSURE_SOLVER_COMPUTE_RHS.svg" xlink:title="PRESSURE_SOLVER_COMPUTE_RHS">
<polygon fill="lightgray" stroke="black" points="569.5,-1513.72 282.5,-1513.72 282.5,-1509.72 278.5,-1509.72 278.5,-1505.72 282.5,-1505.72 282.5,-1485.72 278.5,-1485.72 278.5,-1481.72 282.5,-1481.72 282.5,-1477.72 569.5,-1477.72 569.5,-1513.72"/>
<polyline fill="none" stroke="black" points="282.5,-1509.72 286.5,-1509.72 286.5,-1505.72 282.5,-1505.72 "/>
<polyline fill="none" stroke="black" points="282.5,-1485.72 286.5,-1485.72 286.5,-1481.72 282.5,-1481.72 "/>
<text text-anchor="middle" x="426" y="-1492.02" font-family="Times,serif" font-size="14.00">PRESSURE_SOLVER_COMPUTE_RHS</text>
</a>
</g>
</g>
<!-- CALL_7bbfac0&#45;&gt;CALL_7bc17e0 -->
<g id="edge13" class="edge">
<title>CALL_7bbfac0&#45;&gt;CALL_7bc17e0</title>
<path fill="none" stroke="black" d="M426,-1549.42C426,-1541.7 426,-1532.43 426,-1523.83"/>
<polygon fill="black" stroke="black" points="429.5,-1523.82 426,-1513.82 422.5,-1523.82 429.5,-1523.82"/>
</g>
<!-- COMMENT_7bc2640+1 -->
<g id="node17" class="node">
<title>COMMENT_7bc2640+1</title>
<polygon fill="none" stroke="black" points="675,-1441.72 171,-1441.72 171,-1405.72 681,-1405.72 681,-1435.72 675,-1441.72"/>
<polyline fill="none" stroke="black" points="675,-1441.72 675,-1435.72 "/>
<polyline fill="none" stroke="black" points="681,-1435.72 675,-1435.72 "/>
<text text-anchor="middle" x="426" y="-1420.02" font-family="Times,serif" font-size="14.00">Special case for tunnels &#45;&#45; filter out the lengthwise pressure gradient</text>
</g>
<!-- CALL_7bc17e0&#45;&gt;COMMENT_7bc2640+1 -->
<g id="edge14" class="edge">
<title>CALL_7bc17e0&#45;&gt;COMMENT_7bc2640+1</title>
<path fill="none" stroke="black" d="M426,-1477.42C426,-1469.7 426,-1460.43 426,-1451.83"/>
<polygon fill="black" stroke="black" points="429.5,-1451.82 426,-1441.82 422.5,-1451.82 429.5,-1451.82"/>
</g>
<!-- CALL_7bbeae0 -->
<g id="node18" class="node">
<title>CALL_7bbeae0</title>
<g id="a_node18"><a xlink:href="TUNNEL_POISSON_SOLVER.svg" xlink:title="TUNNEL_POISSON_SOLVER">
<polygon fill="lightgray" stroke="black" points="537,-1369.72 315,-1369.72 315,-1365.72 311,-1365.72 311,-1361.72 315,-1361.72 315,-1341.72 311,-1341.72 311,-1337.72 315,-1337.72 315,-1333.72 537,-1333.72 537,-1369.72"/>
<polyline fill="none" stroke="black" points="315,-1365.72 319,-1365.72 319,-1361.72 315,-1361.72 "/>
<polyline fill="none" stroke="black" points="315,-1341.72 319,-1341.72 319,-1337.72 315,-1337.72 "/>
<text text-anchor="middle" x="426" y="-1348.02" font-family="Times,serif" font-size="14.00">TUNNEL_POISSON_SOLVER</text>
</a>
</g>
</g>
<!-- COMMENT_7bc2640+1&#45;&gt;CALL_7bbeae0 -->
<g id="edge15" class="edge">
<title>COMMENT_7bc2640+1&#45;&gt;CALL_7bbeae0</title>
<path fill="none" stroke="black" d="M426,-1405.42C426,-1397.7 426,-1388.43 426,-1379.83"/>
<polygon fill="black" stroke="black" points="429.5,-1379.82 426,-1369.82 422.5,-1379.82 429.5,-1379.82"/>
</g>
<!-- COMMENT_7bc1dc0+1 -->
<g id="node19" class="node">
<title>COMMENT_7bc1dc0+1</title>
<polygon fill="none" stroke="black" points="703,-1297.72 143,-1297.72 143,-1261.72 709,-1261.72 709,-1291.72 703,-1297.72"/>
<polyline fill="none" stroke="black" points="703,-1297.72 703,-1291.72 "/>
<polyline fill="none" stroke="black" points="709,-1291.72 703,-1291.72 "/>
<text text-anchor="middle" x="426" y="-1276.02" font-family="Times,serif" font-size="14.00">Solve the Poission equation using either FFT or ULMAT, GLMAT, or UGLMAT</text>
</g>
<!-- CALL_7bbeae0&#45;&gt;COMMENT_7bc1dc0+1 -->
<g id="edge16" class="edge">
<title>CALL_7bbeae0&#45;&gt;COMMENT_7bc1dc0+1</title>
<path fill="none" stroke="black" d="M426,-1333.42C426,-1325.7 426,-1316.43 426,-1307.83"/>
<polygon fill="black" stroke="black" points="429.5,-1307.82 426,-1297.82 422.5,-1307.82 429.5,-1307.82"/>
</g>
<!-- CALL_7bc3440 -->
<g id="node20" class="node">
<title>CALL_7bc3440</title>
<g id="a_node20"><a xlink:href="PRESSURE_SOLVER_FFT.svg" xlink:title="PRESSURE_SOLVER_FFT">
<polygon fill="lightgray" stroke="black" points="526,-1225.72 326,-1225.72 326,-1221.72 322,-1221.72 322,-1217.72 326,-1217.72 326,-1197.72 322,-1197.72 322,-1193.72 326,-1193.72 326,-1189.72 526,-1189.72 526,-1225.72"/>
<polyline fill="none" stroke="black" points="326,-1221.72 330,-1221.72 330,-1217.72 326,-1217.72 "/>
<polyline fill="none" stroke="black" points="326,-1197.72 330,-1197.72 330,-1193.72 326,-1193.72 "/>
<text text-anchor="middle" x="426" y="-1204.02" font-family="Times,serif" font-size="14.00">PRESSURE_SOLVER_FFT</text>
</a>
</g>
</g>
<!-- COMMENT_7bc1dc0+1&#45;&gt;CALL_7bc3440 -->
<g id="edge17" class="edge">
<title>COMMENT_7bc1dc0+1&#45;&gt;CALL_7bc3440</title>
<path fill="none" stroke="black" d="M426,-1261.42C426,-1253.7 426,-1244.43 426,-1235.83"/>
<polygon fill="black" stroke="black" points="429.5,-1235.82 426,-1225.82 422.5,-1235.82 429.5,-1235.82"/>
</g>
<!-- CALL_7bc3a00 -->
<g id="node21" class="node">
<title>CALL_7bc3a00</title>
<g id="a_node21"><a xlink:href="GLMAT_SOLVER.svg" xlink:title="GLMAT_SOLVER">
<polygon fill="lightgray" stroke="black" points="493.5,-1153.72 358.5,-1153.72 358.5,-1149.72 354.5,-1149.72 354.5,-1145.72 358.5,-1145.72 358.5,-1125.72 354.5,-1125.72 354.5,-1121.72 358.5,-1121.72 358.5,-1117.72 493.5,-1117.72 493.5,-1153.72"/>
<polyline fill="none" stroke="black" points="358.5,-1149.72 362.5,-1149.72 362.5,-1145.72 358.5,-1145.72 "/>
<polyline fill="none" stroke="black" points="358.5,-1125.72 362.5,-1125.72 362.5,-1121.72 358.5,-1121.72 "/>
<text text-anchor="middle" x="426" y="-1132.02" font-family="Times,serif" font-size="14.00">GLMAT_SOLVER</text>
</a>
</g>
</g>
<!-- CALL_7bc3440&#45;&gt;CALL_7bc3a00 -->
<g id="edge18" class="edge">
<title>CALL_7bc3440&#45;&gt;CALL_7bc3a00</title>
<path fill="none" stroke="black" d="M426,-1189.42C426,-1181.7 426,-1172.43 426,-1163.83"/>
<polygon fill="black" stroke="black" points="429.5,-1163.82 426,-1153.82 422.5,-1163.82 429.5,-1163.82"/>
</g>
<!-- CALL_7bc4e60 -->
<g id="node22" class="node">
<title>CALL_7bc4e60</title>
<g id="a_node22"><a xlink:href="MESH_EXCHANGE.svg" xlink:title="MESH_EXCHANGE">
<polygon fill="lightgray" stroke="black" points="504,-1081.72 348,-1081.72 348,-1077.72 344,-1077.72 344,-1073.72 348,-1073.72 348,-1053.72 344,-1053.72 344,-1049.72 348,-1049.72 348,-1045.72 504,-1045.72 504,-1081.72"/>
<polyline fill="none" stroke="black" points="348,-1077.72 352,-1077.72 352,-1073.72 348,-1073.72 "/>
<polyline fill="none" stroke="black" points="348,-1053.72 352,-1053.72 352,-1049.72 348,-1049.72 "/>
<text text-anchor="middle" x="426" y="-1060.02" font-family="Times,serif" font-size="14.00">MESH_EXCHANGE</text>
</a>
</g>
</g>
<!-- CALL_7bc3a00&#45;&gt;CALL_7bc4e60 -->
<g id="edge19" class="edge">
<title>CALL_7bc3a00&#45;&gt;CALL_7bc4e60</title>
<path fill="none" stroke="black" d="M426,-1117.42C426,-1109.7 426,-1100.43 426,-1091.83"/>
<polygon fill="black" stroke="black" points="429.5,-1091.82 426,-1081.82 422.5,-1091.82 429.5,-1091.82"/>
</g>
<!-- CALL_7bc4fe0 -->
<g id="node23" class="node">
<title>CALL_7bc4fe0</title>
<g id="a_node23"><a xlink:href="COPY_H_OMESH_TO_MESH.svg" xlink:title="COPY_H_OMESH_TO_MESH">
<polygon fill="lightgray" stroke="black" points="536.5,-1009.72 315.5,-1009.72 315.5,-1005.72 311.5,-1005.72 311.5,-1001.72 315.5,-1001.72 315.5,-981.72 311.5,-981.72 311.5,-977.72 315.5,-977.72 315.5,-973.72 536.5,-973.72 536.5,-1009.72"/>
<polyline fill="none" stroke="black" points="315.5,-1005.72 319.5,-1005.72 319.5,-1001.72 315.5,-1001.72 "/>
<polyline fill="none" stroke="black" points="315.5,-981.72 319.5,-981.72 319.5,-977.72 315.5,-977.72 "/>
<text text-anchor="middle" x="426" y="-988.02" font-family="Times,serif" font-size="14.00">COPY_H_OMESH_TO_MESH</text>
</a>
</g>
</g>
<!-- CALL_7bc4e60&#45;&gt;CALL_7bc4fe0 -->
<g id="edge20" class="edge">
<title>CALL_7bc4e60&#45;&gt;CALL_7bc4fe0</title>
<path fill="none" stroke="black" d="M426,-1045.42C426,-1037.7 426,-1028.43 426,-1019.83"/>
<polygon fill="black" stroke="black" points="429.5,-1019.82 426,-1009.82 422.5,-1019.82 429.5,-1019.82"/>
</g>
<!-- CALL_7bc6be0 -->
<g id="node24" class="node">
<title>CALL_7bc6be0</title>
<g id="a_node24"><a xlink:href="ULMAT_SOLVER.svg" xlink:title="ULMAT_SOLVER">
<polygon fill="lightgray" stroke="black" points="494,-937.72 358,-937.72 358,-933.72 354,-933.72 354,-929.72 358,-929.72 358,-909.72 354,-909.72 354,-905.72 358,-905.72 358,-901.72 494,-901.72 494,-937.72"/>
<polyline fill="none" stroke="black" points="358,-933.72 362,-933.72 362,-929.72 358,-929.72 "/>
<polyline fill="none" stroke="black" points="358,-909.72 362,-909.72 362,-905.72 358,-905.72 "/>
<text text-anchor="middle" x="426" y="-916.02" font-family="Times,serif" font-size="14.00">ULMAT_SOLVER</text>
</a>
</g>
</g>
<!-- CALL_7bc4fe0&#45;&gt;CALL_7bc6be0 -->
<g id="edge21" class="edge">
<title>CALL_7bc4fe0&#45;&gt;CALL_7bc6be0</title>
<path fill="none" stroke="black" d="M426,-973.42C426,-965.7 426,-956.43 426,-947.83"/>
<polygon fill="black" stroke="black" points="429.5,-947.82 426,-937.82 422.5,-947.82 429.5,-947.82"/>
</g>
<!-- COMMENT_7bc78c0+1 -->
<g id="node25" class="node">
<title>COMMENT_7bc78c0+1</title>
<polygon fill="none" stroke="black" points="581.5,-865.72 264.5,-865.72 264.5,-829.72 587.5,-829.72 587.5,-859.72 581.5,-865.72"/>
<polyline fill="none" stroke="black" points="581.5,-865.72 581.5,-859.72 "/>
<polyline fill="none" stroke="black" points="587.5,-859.72 581.5,-859.72 "/>
<text text-anchor="middle" x="426" y="-844.02" font-family="Times,serif" font-size="14.00">Check the residuals of the Poisson solution</text>
</g>
<!-- CALL_7bc6be0&#45;&gt;COMMENT_7bc78c0+1 -->
<g id="edge22" class="edge">
<title>CALL_7bc6be0&#45;&gt;COMMENT_7bc78c0+1</title>
<path fill="none" stroke="black" d="M426,-901.42C426,-893.7 426,-884.43 426,-875.83"/>
<polygon fill="black" stroke="black" points="429.5,-875.82 426,-865.82 422.5,-875.82 429.5,-875.82"/>
</g>
<!-- CALL_7bc81a0 -->
<g id="node26" class="node">
<title>CALL_7bc81a0</title>
<g id="a_node26"><a xlink:href="PRESSURE_SOLVER_CHECK_RESIDUALS.svg" xlink:title="PRESSURE_SOLVER_CHECK_RESIDUALS">
<polygon fill="lightgray" stroke="black" points="586,-793.72 266,-793.72 266,-789.72 262,-789.72 262,-785.72 266,-785.72 266,-765.72 262,-765.72 262,-761.72 266,-761.72 266,-757.72 586,-757.72 586,-793.72"/>
<polyline fill="none" stroke="black" points="266,-789.72 270,-789.72 270,-785.72 266,-785.72 "/>
<polyline fill="none" stroke="black" points="266,-765.72 270,-765.72 270,-761.72 266,-761.72 "/>
<text text-anchor="middle" x="426" y="-772.02" font-family="Times,serif" font-size="14.00">PRESSURE_SOLVER_CHECK_RESIDUALS</text>
</a>
</g>
</g>
<!-- COMMENT_7bc78c0+1&#45;&gt;CALL_7bc81a0 -->
<g id="edge23" class="edge">
<title>COMMENT_7bc78c0+1&#45;&gt;CALL_7bc81a0</title>
<path fill="none" stroke="black" d="M426,-829.42C426,-821.7 426,-812.43 426,-803.83"/>
<polygon fill="black" stroke="black" points="429.5,-803.82 426,-793.82 422.5,-803.82 429.5,-803.82"/>
</g>
<!-- CALL_7bc29e0 -->
<g id="node27" class="node">
<title>CALL_7bc29e0</title>
<g id="a_node27"><a xlink:href="PRESSURE_SOLVER_CHECK_RESIDUALS_U.svg" xlink:title="PRESSURE_SOLVER_CHECK_RESIDUALS_U">
<polygon fill="lightgray" stroke="black" points="595,-721.72 257,-721.72 257,-717.72 253,-717.72 253,-713.72 257,-713.72 257,-693.72 253,-693.72 253,-689.72 257,-689.72 257,-685.72 595,-685.72 595,-721.72"/>
<polyline fill="none" stroke="black" points="257,-717.72 261,-717.72 261,-713.72 257,-713.72 "/>
<polyline fill="none" stroke="black" points="257,-693.72 261,-693.72 261,-689.72 257,-689.72 "/>
<text text-anchor="middle" x="426" y="-700.02" font-family="Times,serif" font-size="14.00">PRESSURE_SOLVER_CHECK_RESIDUALS_U</text>
</a>
</g>
</g>
<!-- CALL_7bc81a0&#45;&gt;CALL_7bc29e0 -->
<g id="edge24" class="edge">
<title>CALL_7bc81a0&#45;&gt;CALL_7bc29e0</title>
<path fill="none" stroke="black" d="M426,-757.42C426,-749.7 426,-740.43 426,-731.83"/>
<polygon fill="black" stroke="black" points="429.5,-731.82 426,-721.82 422.5,-731.82 429.5,-731.82"/>
</g>
<!-- COMMENT_7bc97a0+1 -->
<g id="node28" class="node">
<title>COMMENT_7bc97a0+1</title>
<polygon fill="none" stroke="black" points="824.5,-649.72 21.5,-649.72 21.5,-613.72 830.5,-613.72 830.5,-643.72 824.5,-649.72"/>
<polyline fill="none" stroke="black" points="824.5,-649.72 824.5,-643.72 "/>
<polyline fill="none" stroke="black" points="830.5,-643.72 824.5,-643.72 "/>
<text text-anchor="middle" x="426" y="-628.02" font-family="Times,serif" font-size="14.00">Exchange both H or HS and FVX, FVY, FVZ and then estimate values of U, V, W (US, VS, WS) at next time step.</text>
</g>
<!-- CALL_7bc29e0&#45;&gt;COMMENT_7bc97a0+1 -->
<g id="edge25" class="edge">
<title>CALL_7bc29e0&#45;&gt;COMMENT_7bc97a0+1</title>
<path fill="none" stroke="black" d="M426,-685.42C426,-677.7 426,-668.43 426,-659.83"/>
<polygon fill="black" stroke="black" points="429.5,-659.82 426,-649.82 422.5,-659.82 429.5,-659.82"/>
</g>
<!-- CALL_7bc97a0 -->
<g id="node29" class="node">
<title>CALL_7bc97a0</title>
<g id="a_node29"><a xlink:href="MESH_EXCHANGE.svg" xlink:title="MESH_EXCHANGE">
<polygon fill="lightgray" stroke="black" points="504,-577.72 348,-577.72 348,-573.72 344,-573.72 344,-569.72 348,-569.72 348,-549.72 344,-549.72 344,-545.72 348,-545.72 348,-541.72 504,-541.72 504,-577.72"/>
<polyline fill="none" stroke="black" points="348,-573.72 352,-573.72 352,-569.72 348,-569.72 "/>
<polyline fill="none" stroke="black" points="348,-549.72 352,-549.72 352,-545.72 348,-545.72 "/>
<text text-anchor="middle" x="426" y="-556.02" font-family="Times,serif" font-size="14.00">MESH_EXCHANGE</text>
</a>
</g>
</g>
<!-- COMMENT_7bc97a0+1&#45;&gt;CALL_7bc97a0 -->
<g id="edge26" class="edge">
<title>COMMENT_7bc97a0+1&#45;&gt;CALL_7bc97a0</title>
<path fill="none" stroke="black" d="M426,-613.42C426,-605.7 426,-596.43 426,-587.83"/>
<polygon fill="black" stroke="black" points="429.5,-587.82 426,-577.82 422.5,-587.82 429.5,-587.82"/>
</g>
<!-- CALL_7bcaae0 -->
<g id="node30" class="node">
<title>CALL_7bcaae0</title>
<g id="a_node30"><a xlink:href="COMPUTE_VELOCITY_ERROR.svg" xlink:title="COMPUTE_VELOCITY_ERROR">
<polygon fill="lightgray" stroke="black" points="543,-505.72 309,-505.72 309,-501.72 305,-501.72 305,-497.72 309,-497.72 309,-477.72 305,-477.72 305,-473.72 309,-473.72 309,-469.72 543,-469.72 543,-505.72"/>
<polyline fill="none" stroke="black" points="309,-501.72 313,-501.72 313,-497.72 309,-497.72 "/>
<polyline fill="none" stroke="black" points="309,-477.72 313,-477.72 313,-473.72 309,-473.72 "/>
<text text-anchor="middle" x="426" y="-484.02" font-family="Times,serif" font-size="14.00">COMPUTE_VELOCITY_ERROR</text>
</a>
</g>
</g>
<!-- CALL_7bc97a0&#45;&gt;CALL_7bcaae0 -->
<g id="edge27" class="edge">
<title>CALL_7bc97a0&#45;&gt;CALL_7bcaae0</title>
<path fill="none" stroke="black" d="M426,-541.42C426,-533.7 426,-524.43 426,-515.83"/>
<polygon fill="black" stroke="black" points="429.5,-515.82 426,-505.82 422.5,-515.82 429.5,-515.82"/>
</g>
<!-- CALL_7bcae00 -->
<g id="node31" class="node">
<title>CALL_7bcae00</title>
<g id="a_node31"><a xlink:href="CC_COMPUTE_VELOCITY_ERROR.svg" xlink:title="CC_COMPUTE_VELOCITY_ERROR">
<polygon fill="lightgray" stroke="black" points="557,-433.72 295,-433.72 295,-429.72 291,-429.72 291,-425.72 295,-425.72 295,-405.72 291,-405.72 291,-401.72 295,-401.72 295,-397.72 557,-397.72 557,-433.72"/>
<polyline fill="none" stroke="black" points="295,-429.72 299,-429.72 299,-425.72 295,-425.72 "/>
<polyline fill="none" stroke="black" points="295,-405.72 299,-405.72 299,-401.72 295,-401.72 "/>
<text text-anchor="middle" x="426" y="-412.02" font-family="Times,serif" font-size="14.00">CC_COMPUTE_VELOCITY_ERROR</text>
</a>
</g>
</g>
<!-- CALL_7bcaae0&#45;&gt;CALL_7bcae00 -->
<g id="edge28" class="edge">
<title>CALL_7bcaae0&#45;&gt;CALL_7bcae00</title>
<path fill="none" stroke="black" d="M426,-469.42C426,-461.7 426,-452.43 426,-443.83"/>
<polygon fill="black" stroke="black" points="429.5,-443.82 426,-433.82 422.5,-443.82 429.5,-443.82"/>
</g>
<!-- COMMENT_7bc8500+1 -->
<g id="node32" class="node">
<title>COMMENT_7bc8500+1</title>
<polygon fill="none" stroke="black" points="825.5,-361.72 20.5,-361.72 20.5,-325.72 831.5,-325.72 831.5,-355.72 825.5,-361.72"/>
<polyline fill="none" stroke="black" points="825.5,-361.72 825.5,-355.72 "/>
<polyline fill="none" stroke="black" points="831.5,-355.72 825.5,-355.72 "/>
<text text-anchor="middle" x="426" y="-340.02" font-family="Times,serif" font-size="14.00">Make all MPI processes aware of the maximum velocity error to decide if another pressure iteration is needed.</text>
</g>
<!-- CALL_7bcae00&#45;&gt;COMMENT_7bc8500+1 -->
<g id="edge29" class="edge">
<title>CALL_7bcae00&#45;&gt;COMMENT_7bc8500+1</title>
<path fill="none" stroke="black" d="M426,-397.42C426,-389.7 426,-380.43 426,-371.83"/>
<polygon fill="black" stroke="black" points="429.5,-371.82 426,-361.82 422.5,-371.82 429.5,-371.82"/>
</g>
<!-- CALL_7bd66e0 -->
<g id="node33" class="node">
<title>CALL_7bd66e0</title>
<g id="a_node33"><a xlink:href="MPI_ALLGATHERV.svg" xlink:title="MPI_ALLGATHERV">
<polygon fill="#ffe800" stroke="black" points="502,-289.72 350,-289.72 350,-285.72 346,-285.72 346,-281.72 350,-281.72 350,-261.72 346,-261.72 346,-257.72 350,-257.72 350,-253.72 502,-253.72 502,-289.72"/>
<polyline fill="none" stroke="black" points="350,-285.72 354,-285.72 354,-281.72 350,-281.72 "/>
<polyline fill="none" stroke="black" points="350,-261.72 354,-261.72 354,-257.72 350,-257.72 "/>
<text text-anchor="middle" x="426" y="-268.02" font-family="Times,serif" font-size="14.00">MPI_ALLGATHERV</text>
</a>
</g>
</g>
<!-- COMMENT_7bc8500+1&#45;&gt;CALL_7bd66e0 -->
<g id="edge30" class="edge">
<title>COMMENT_7bc8500+1&#45;&gt;CALL_7bd66e0</title>
<path fill="none" stroke="black" d="M426,-325.42C426,-317.7 426,-308.43 426,-299.83"/>
<polygon fill="black" stroke="black" points="429.5,-299.82 426,-289.82 422.5,-299.82 429.5,-299.82"/>
</g>
<!-- COMMENT_7be5280+1 -->
<g id="node34" class="node">
<title>COMMENT_7be5280+1</title>
<polygon fill="none" stroke="black" points="734,-217.72 112,-217.72 112,-181.72 740,-181.72 740,-211.72 734,-217.72"/>
<polyline fill="none" stroke="black" points="734,-217.72 734,-211.72 "/>
<polyline fill="none" stroke="black" points="740,-211.72 734,-211.72 "/>
<text text-anchor="middle" x="426" y="-196.02" font-family="Times,serif" font-size="14.00">If the VELOCITY_TOLERANCE is satisfied or max/min iterations are hit, exit the loop.</text>
</g>
<!-- CALL_7bd66e0&#45;&gt;COMMENT_7be5280+1 -->
<g id="edge31" class="edge">
<title>CALL_7bd66e0&#45;&gt;COMMENT_7be5280+1</title>
<path fill="none" stroke="black" d="M426,-253.42C426,-245.7 426,-236.43 426,-227.83"/>
<polygon fill="black" stroke="black" points="429.5,-227.82 426,-217.82 422.5,-227.82 429.5,-227.82"/>
</g>
<!-- COMMENT_7befea0+1 -->
<g id="node35" class="node">
<title>COMMENT_7befea0+1</title>
<polygon fill="none" stroke="black" points="648,-145.72 198,-145.72 198,-109.72 654,-109.72 654,-139.72 648,-145.72"/>
<polyline fill="none" stroke="black" points="648,-145.72 648,-139.72 "/>
<polyline fill="none" stroke="black" points="654,-139.72 648,-139.72 "/>
<text text-anchor="middle" x="426" y="-124.02" font-family="Times,serif" font-size="14.00">Exit the iteration loop if satisfactory progress is not achieved</text>
</g>
<!-- COMMENT_7be5280+1&#45;&gt;COMMENT_7befea0+1 -->
<g id="edge32" class="edge">
<title>COMMENT_7be5280+1&#45;&gt;COMMENT_7befea0+1</title>
<path fill="none" stroke="black" d="M426,-181.42C426,-173.7 426,-164.43 426,-155.83"/>
<polygon fill="black" stroke="black" points="429.5,-155.82 426,-145.82 422.5,-155.82 429.5,-155.82"/>
</g>
<!-- COMMENT_7befea0+1&#45;&gt;endDO_DO_7bf2020 -->
<g id="edge34" class="edge">
<title>COMMENT_7befea0+1&#45;&gt;endDO_DO_7bf2020</title>
<path fill="none" stroke="black" d="M426,-109.66C426,-94.65 426,-74.99 426,-73.78"/>
</g>
</g>
</svg>
