<?xml version="1.0" encoding="UTF-8" standalone="no"?>
<!DOCTYPE svg PUBLIC "-//W3C//DTD SVG 1.1//EN"
 "http://www.w3.org/Graphics/SVG/1.1/DTD/svg11.dtd">
<!-- Generated by graphviz version 2.43.0 (0)
 -->
<!-- Title: PRESSURE_ITERATION_SCHEME Pages: 1 -->
<svg width="860pt" height="2421pt"
 viewBox="0.00 0.00 860.00 2421.00" xmlns="http://www.w3.org/2000/svg" xmlns:xlink="http://www.w3.org/1999/xlink">
<g id="graph0" class="graph" transform="scale(1 1) rotate(0) translate(4 2417)">
<title>PRESSURE_ITERATION_SCHEME</title>
<polygon fill="white" stroke="transparent" points="-4,4 -4,-2417 856,-2417 856,4 -4,4"/>
<text text-anchor="middle" x="426" y="-7.8" font-family="Times,serif" font-size="14.00">PRESSURE_ITERATION_SCHEME</text>
<g id="clust1" class="cluster">
<title>cluster_PRESSURE_ITERATION_LOOP</title>
<polygon fill="none" stroke="orange" points="8,-65 8,-2103 844,-2103 844,-65 8,-65"/>
<text text-anchor="middle" x="126" y="-2087.8" font-family="Times,serif" font-size="14.00">PRESSURE_ITERATION_LOOP</text>
</g>
<!-- start_SUBPROGRAM_93befc0 -->
<g id="node1" class="node">
<title>start_SUBPROGRAM_93befc0</title>
<ellipse fill="none" stroke="black" cx="426" cy="-2406" rx="7" ry="7"/>
</g>
<!-- COMMENT_93be1c0+1 -->
<g id="node2" class="node">
<title>COMMENT_93be1c0+1</title>
<polygon fill="none" stroke="black" points="702.5,-2363 143.5,-2363 143.5,-2327 708.5,-2327 708.5,-2357 702.5,-2363"/>
<polyline fill="none" stroke="black" points="702.5,-2363 702.5,-2357 "/>
<polyline fill="none" stroke="black" points="708.5,-2357 702.5,-2357 "/>
<text text-anchor="middle" x="426" y="-2341.3" font-family="Times,serif" font-size="14.00">!&gt; brief Perform multiple pressure solves until velocity tolerance is satisfied</text>
</g>
<!-- start_SUBPROGRAM_93befc0&#45;&gt;COMMENT_93be1c0+1 -->
<g id="edge1" class="edge">
<title>start_SUBPROGRAM_93befc0&#45;&gt;COMMENT_93be1c0+1</title>
<path fill="none" stroke="black" d="M426,-2398.69C426,-2392.49 426,-2382.59 426,-2373.05"/>
<polygon fill="black" stroke="black" points="429.5,-2373.02 426,-2363.02 422.5,-2373.02 429.5,-2373.02"/>
</g>
<!-- COMMENT_93ba200+1 -->
<g id="node3" class="node">
<title>COMMENT_93ba200+1</title>
<polygon fill="none" stroke="black" points="582,-2291 264,-2291 264,-2255 588,-2255 588,-2285 582,-2291"/>
<polyline fill="none" stroke="black" points="582,-2291 582,-2285 "/>
<polyline fill="none" stroke="black" points="588,-2285 582,-2285 "/>
<text text-anchor="middle" x="426" y="-2269.3" font-family="Times,serif" font-size="14.00">Here we need an exchange of F for linking:</text>
</g>
<!-- COMMENT_93be1c0+1&#45;&gt;COMMENT_93ba200+1 -->
<g id="edge2" class="edge">
<title>COMMENT_93be1c0+1&#45;&gt;COMMENT_93ba200+1</title>
<path fill="none" stroke="black" d="M426,-2326.7C426,-2318.98 426,-2309.71 426,-2301.11"/>
<polygon fill="black" stroke="black" points="429.5,-2301.1 426,-2291.1 422.5,-2301.1 429.5,-2301.1"/>
</g>
<!-- CALL_93ba200 -->
<g id="node4" class="node">
<title>CALL_93ba200</title>
<g id="a_node4"><a xlink:href="MESH_EXCHANGE.svg" xlink:title="MESH_EXCHANGE">
<polygon fill="lightgray" stroke="black" points="504,-2219 348,-2219 348,-2215 344,-2215 344,-2211 348,-2211 348,-2191 344,-2191 344,-2187 348,-2187 348,-2183 504,-2183 504,-2219"/>
<polyline fill="none" stroke="black" points="348,-2215 352,-2215 352,-2211 348,-2211 "/>
<polyline fill="none" stroke="black" points="348,-2191 352,-2191 352,-2187 348,-2187 "/>
<text text-anchor="middle" x="426" y="-2197.3" font-family="Times,serif" font-size="14.00">MESH_EXCHANGE</text>
</a>
</g>
</g>
<!-- COMMENT_93ba200+1&#45;&gt;CALL_93ba200 -->
<g id="edge3" class="edge">
<title>COMMENT_93ba200+1&#45;&gt;CALL_93ba200</title>
<path fill="none" stroke="black" d="M426,-2254.7C426,-2246.98 426,-2237.71 426,-2229.11"/>
<polygon fill="black" stroke="black" points="429.5,-2229.1 426,-2219.1 422.5,-2229.1 429.5,-2229.1"/>
</g>
<!-- CALL_7b81cc0 -->
<g id="node5" class="node">
<title>CALL_7b81cc0</title>
<g id="a_node5"><a xlink:href="GET_LINKED_FV.svg" xlink:title="GET_LINKED_FV">
<polygon fill="lightgray" stroke="black" points="495.5,-2147 356.5,-2147 356.5,-2143 352.5,-2143 352.5,-2139 356.5,-2139 356.5,-2119 352.5,-2119 352.5,-2115 356.5,-2115 356.5,-2111 495.5,-2111 495.5,-2147"/>
<polyline fill="none" stroke="black" points="356.5,-2143 360.5,-2143 360.5,-2139 356.5,-2139 "/>
<polyline fill="none" stroke="black" points="356.5,-2119 360.5,-2119 360.5,-2115 356.5,-2115 "/>
<text text-anchor="middle" x="426" y="-2125.3" font-family="Times,serif" font-size="14.00">GET_LINKED_FV</text>
</a>
</g>
</g>
<!-- CALL_93ba200&#45;&gt;CALL_7b81cc0 -->
<g id="edge4" class="edge">
<title>CALL_93ba200&#45;&gt;CALL_7b81cc0</title>
<path fill="none" stroke="black" d="M426,-2182.7C426,-2174.98 426,-2165.71 426,-2157.11"/>
<polygon fill="black" stroke="black" points="429.5,-2157.1 426,-2147.1 422.5,-2157.1 429.5,-2157.1"/>
</g>
<!-- COMMENT_93baa60+1 -->
<g id="node6" class="node">
<title>COMMENT_93baa60+1</title>
<polygon fill="none" stroke="black" points="830,-2072 16,-2072 16,-2034 836,-2034 836,-2066 830,-2072"/>
<polyline fill="none" stroke="black" points="830,-2072 830,-2066 "/>
<polyline fill="none" stroke="black" points="836,-2066 830,-2066 "/>
<text text-anchor="middle" x="426" y="-2056.8" font-family="Times,serif" font-size="14.00">The following loops and exchange always get executed the first pass through the PRESSURE_ITERATION_LOOP.</text>
<text text-anchor="middle" x="426" y="-2041.8" font-family="Times,serif" font-size="14.00">If we need to iterate the baroclinic torque term, the loop is executed each time.</text>
</g>
<!-- CALL_7b81cc0&#45;&gt;COMMENT_93baa60+1 -->
<g id="edge32" class="edge">
<title>CALL_7b81cc0&#45;&gt;COMMENT_93baa60+1</title>
<path fill="none" stroke="black" d="M426,-2110.84C426,-2102.31 426,-2091.78 426,-2082.12"/>
<polygon fill="black" stroke="black" points="429.5,-2082.1 426,-2072.1 422.5,-2082.1 429.5,-2082.1"/>
</g>
<!-- CALL_7b84b80 -->
<g id="node7" class="node">
<title>CALL_7b84b80</title>
<g id="a_node7"><a xlink:href="BAROCLINIC_CORRECTION.svg" xlink:title="BAROCLINIC_CORRECTION">
<polygon fill="lightgray" stroke="black" points="535.5,-1998 316.5,-1998 316.5,-1994 312.5,-1994 312.5,-1990 316.5,-1990 316.5,-1970 312.5,-1970 312.5,-1966 316.5,-1966 316.5,-1962 535.5,-1962 535.5,-1998"/>
<polyline fill="none" stroke="black" points="316.5,-1994 320.5,-1994 320.5,-1990 316.5,-1990 "/>
<polyline fill="none" stroke="black" points="316.5,-1970 320.5,-1970 320.5,-1966 316.5,-1966 "/>
<text text-anchor="middle" x="426" y="-1976.3" font-family="Times,serif" font-size="14.00">BAROCLINIC_CORRECTION</text>
</a>
</g>
</g>
<!-- COMMENT_93baa60+1&#45;&gt;CALL_7b84b80 -->
<g id="edge5" class="edge">
<title>COMMENT_93baa60+1&#45;&gt;CALL_7b84b80</title>
<path fill="none" stroke="black" d="M426,-2033.72C426,-2025.97 426,-2016.79 426,-2008.27"/>
<polygon fill="black" stroke="black" points="429.5,-2008 426,-1998 422.5,-2008 429.5,-2008"/>
</g>
<!-- CALL_7b85dc0 -->
<g id="node8" class="node">
<title>CALL_7b85dc0</title>
<g id="a_node8"><a xlink:href="CC_NO_FLUX.svg" xlink:title="CC_NO_FLUX">
<polygon fill="lightgray" stroke="black" points="483,-1926 369,-1926 369,-1922 365,-1922 365,-1918 369,-1918 369,-1898 365,-1898 365,-1894 369,-1894 369,-1890 483,-1890 483,-1926"/>
<polyline fill="none" stroke="black" points="369,-1922 373,-1922 373,-1918 369,-1918 "/>
<polyline fill="none" stroke="black" points="369,-1898 373,-1898 373,-1894 369,-1894 "/>
<text text-anchor="middle" x="426" y="-1904.3" font-family="Times,serif" font-size="14.00">CC_NO_FLUX</text>
</a>
</g>
</g>
<!-- CALL_7b84b80&#45;&gt;CALL_7b85dc0 -->
<g id="edge6" class="edge">
<title>CALL_7b84b80&#45;&gt;CALL_7b85dc0</title>
<path fill="none" stroke="black" d="M426,-1961.7C426,-1953.98 426,-1944.71 426,-1936.11"/>
<polygon fill="black" stroke="black" points="429.5,-1936.1 426,-1926.1 422.5,-1936.1 429.5,-1936.1"/>
</g>
<!-- CALL_7b86400 -->
<g id="node9" class="node">
<title>CALL_7b86400</title>
<g id="a_node9"><a xlink:href="MESH_EXCHANGE.svg" xlink:title="MESH_EXCHANGE">
<polygon fill="lightgray" stroke="black" points="504,-1854 348,-1854 348,-1850 344,-1850 344,-1846 348,-1846 348,-1826 344,-1826 344,-1822 348,-1822 348,-1818 504,-1818 504,-1854"/>
<polyline fill="none" stroke="black" points="348,-1850 352,-1850 352,-1846 348,-1846 "/>
<polyline fill="none" stroke="black" points="348,-1826 352,-1826 352,-1822 348,-1822 "/>
<text text-anchor="middle" x="426" y="-1832.3" font-family="Times,serif" font-size="14.00">MESH_EXCHANGE</text>
</a>
</g>
</g>
<!-- CALL_7b85dc0&#45;&gt;CALL_7b86400 -->
<g id="edge7" class="edge">
<title>CALL_7b85dc0&#45;&gt;CALL_7b86400</title>
<path fill="none" stroke="black" d="M426,-1889.7C426,-1881.98 426,-1872.71 426,-1864.11"/>
<polygon fill="black" stroke="black" points="429.5,-1864.1 426,-1854.1 422.5,-1864.1 429.5,-1864.1"/>
</g>
<!-- CALL_7b871e0 -->
<g id="node10" class="node">
<title>CALL_7b871e0</title>
<g id="a_node10"><a xlink:href="MATCH_VELOCITY_FLUX.svg" xlink:title="MATCH_VELOCITY_FLUX">
<polygon fill="lightgray" stroke="black" points="525.5,-1782 326.5,-1782 326.5,-1778 322.5,-1778 322.5,-1774 326.5,-1774 326.5,-1754 322.5,-1754 322.5,-1750 326.5,-1750 326.5,-1746 525.5,-1746 525.5,-1782"/>
<polyline fill="none" stroke="black" points="326.5,-1778 330.5,-1778 330.5,-1774 326.5,-1774 "/>
<polyline fill="none" stroke="black" points="326.5,-1754 330.5,-1754 330.5,-1750 326.5,-1750 "/>
<text text-anchor="middle" x="426" y="-1760.3" font-family="Times,serif" font-size="14.00">MATCH_VELOCITY_FLUX</text>
</a>
</g>
</g>
<!-- CALL_7b86400&#45;&gt;CALL_7b871e0 -->
<g id="edge8" class="edge">
<title>CALL_7b86400&#45;&gt;CALL_7b871e0</title>
<path fill="none" stroke="black" d="M426,-1817.7C426,-1809.98 426,-1800.71 426,-1792.11"/>
<polygon fill="black" stroke="black" points="429.5,-1792.1 426,-1782.1 422.5,-1792.1 429.5,-1792.1"/>
</g>
<!-- COMMENT_7b87da0+1 -->
<g id="node11" class="node">
<title>COMMENT_7b87da0+1</title>
<polygon fill="none" stroke="black" points="784.5,-1710 61.5,-1710 61.5,-1657 790.5,-1657 790.5,-1704 784.5,-1710"/>
<polyline fill="none" stroke="black" points="784.5,-1710 784.5,-1704 "/>
<polyline fill="none" stroke="black" points="790.5,-1704 784.5,-1704 "/>
<text text-anchor="middle" x="426" y="-1694.8" font-family="Times,serif" font-size="14.00">Compute the right hand side (RHS) and boundary conditions for the Poission equation for pressure.</text>
<text text-anchor="middle" x="426" y="-1679.8" font-family="Times,serif" font-size="14.00">The WALL_WORK1 array is computed in COMPUTE_VELOCITY_ERROR, but it should</text>
<text text-anchor="middle" x="426" y="-1664.8" font-family="Times,serif" font-size="14.00">be zero the first time the pressure solver is called.</text>
</g>
<!-- CALL_7b871e0&#45;&gt;COMMENT_7b87da0+1 -->
<g id="edge9" class="edge">
<title>CALL_7b871e0&#45;&gt;COMMENT_7b87da0+1</title>
<path fill="none" stroke="black" d="M426,-1745.97C426,-1738.45 426,-1729.31 426,-1720.4"/>
<polygon fill="black" stroke="black" points="429.5,-1720.16 426,-1710.16 422.5,-1720.16 429.5,-1720.16"/>
</g>
<!-- CALL_7b886a0 -->
<g id="node12" class="node">
<title>CALL_7b886a0</title>
<g id="a_node12"><a xlink:href="NO_FLUX.svg" xlink:title="NO_FLUX">
<polygon fill="lightgray" stroke="black" points="469,-1621 383,-1621 383,-1617 379,-1617 379,-1613 383,-1613 383,-1593 379,-1593 379,-1589 383,-1589 383,-1585 469,-1585 469,-1621"/>
<polyline fill="none" stroke="black" points="383,-1617 387,-1617 387,-1613 383,-1613 "/>
<polyline fill="none" stroke="black" points="383,-1593 387,-1593 387,-1589 383,-1589 "/>
<text text-anchor="middle" x="426" y="-1599.3" font-family="Times,serif" font-size="14.00">NO_FLUX</text>
</a>
</g>
</g>
<!-- COMMENT_7b87da0+1&#45;&gt;CALL_7b886a0 -->
<g id="edge10" class="edge">
<title>COMMENT_7b87da0+1&#45;&gt;CALL_7b886a0</title>
<path fill="none" stroke="black" d="M426,-1656.8C426,-1648.71 426,-1639.76 426,-1631.55"/>
<polygon fill="black" stroke="black" points="429.5,-1631.33 426,-1621.33 422.5,-1631.33 429.5,-1631.33"/>
</g>
<!-- CALL_7b89820 -->
<g id="node13" class="node">
<title>CALL_7b89820</title>
<g id="a_node13"><a xlink:href="CC_NO_FLUX.svg" xlink:title="CC_NO_FLUX">
<polygon fill="lightgray" stroke="black" points="483,-1549 369,-1549 369,-1545 365,-1545 365,-1541 369,-1541 369,-1521 365,-1521 365,-1517 369,-1517 369,-1513 483,-1513 483,-1549"/>
<polyline fill="none" stroke="black" points="369,-1545 373,-1545 373,-1541 369,-1541 "/>
<polyline fill="none" stroke="black" points="369,-1521 373,-1521 373,-1517 369,-1517 "/>
<text text-anchor="middle" x="426" y="-1527.3" font-family="Times,serif" font-size="14.00">CC_NO_FLUX</text>
</a>
</g>
</g>
<!-- CALL_7b886a0&#45;&gt;CALL_7b89820 -->
<g id="edge11" class="edge">
<title>CALL_7b886a0&#45;&gt;CALL_7b89820</title>
<path fill="none" stroke="black" d="M426,-1584.7C426,-1576.98 426,-1567.71 426,-1559.11"/>
<polygon fill="black" stroke="black" points="429.5,-1559.1 426,-1549.1 422.5,-1559.1 429.5,-1559.1"/>
</g>
<!-- CALL_7b8b360 -->
<g id="node14" class="node">
<title>CALL_7b8b360</title>
<g id="a_node14"><a xlink:href="PRESSURE_SOLVER_COMPUTE_RHS.svg" xlink:title="PRESSURE_SOLVER_COMPUTE_RHS">
<polygon fill="lightgray" stroke="black" points="569.5,-1477 282.5,-1477 282.5,-1473 278.5,-1473 278.5,-1469 282.5,-1469 282.5,-1449 278.5,-1449 278.5,-1445 282.5,-1445 282.5,-1441 569.5,-1441 569.5,-1477"/>
<polyline fill="none" stroke="black" points="282.5,-1473 286.5,-1473 286.5,-1469 282.5,-1469 "/>
<polyline fill="none" stroke="black" points="282.5,-1449 286.5,-1449 286.5,-1445 282.5,-1445 "/>
<text text-anchor="middle" x="426" y="-1455.3" font-family="Times,serif" font-size="14.00">PRESSURE_SOLVER_COMPUTE_RHS</text>
</a>
</g>
</g>
<!-- CALL_7b89820&#45;&gt;CALL_7b8b360 -->
<g id="edge12" class="edge">
<title>CALL_7b89820&#45;&gt;CALL_7b8b360</title>
<path fill="none" stroke="black" d="M426,-1512.7C426,-1504.98 426,-1495.71 426,-1487.11"/>
<polygon fill="black" stroke="black" points="429.5,-1487.1 426,-1477.1 422.5,-1487.1 429.5,-1487.1"/>
</g>
<!-- COMMENT_7b8e000+1 -->
<g id="node15" class="node">
<title>COMMENT_7b8e000+1</title>
<polygon fill="none" stroke="black" points="675,-1405 171,-1405 171,-1369 681,-1369 681,-1399 675,-1405"/>
<polyline fill="none" stroke="black" points="675,-1405 675,-1399 "/>
<polyline fill="none" stroke="black" points="681,-1399 675,-1399 "/>
<text text-anchor="middle" x="426" y="-1383.3" font-family="Times,serif" font-size="14.00">Special case for tunnels &#45;&#45; filter out the lengthwise pressure gradient</text>
</g>
<!-- CALL_7b8b360&#45;&gt;COMMENT_7b8e000+1 -->
<g id="edge13" class="edge">
<title>CALL_7b8b360&#45;&gt;COMMENT_7b8e000+1</title>
<path fill="none" stroke="black" d="M426,-1440.7C426,-1432.98 426,-1423.71 426,-1415.11"/>
<polygon fill="black" stroke="black" points="429.5,-1415.1 426,-1405.1 422.5,-1415.1 429.5,-1415.1"/>
</g>
<!-- CALL_7b8a9e0 -->
<g id="node16" class="node">
<title>CALL_7b8a9e0</title>
<g id="a_node16"><a xlink:href="TUNNEL_POISSON_SOLVER.svg" xlink:title="TUNNEL_POISSON_SOLVER">
<polygon fill="lightgray" stroke="black" points="537,-1333 315,-1333 315,-1329 311,-1329 311,-1325 315,-1325 315,-1305 311,-1305 311,-1301 315,-1301 315,-1297 537,-1297 537,-1333"/>
<polyline fill="none" stroke="black" points="315,-1329 319,-1329 319,-1325 315,-1325 "/>
<polyline fill="none" stroke="black" points="315,-1305 319,-1305 319,-1301 315,-1301 "/>
<text text-anchor="middle" x="426" y="-1311.3" font-family="Times,serif" font-size="14.00">TUNNEL_POISSON_SOLVER</text>
</a>
</g>
</g>
<!-- COMMENT_7b8e000+1&#45;&gt;CALL_7b8a9e0 -->
<g id="edge14" class="edge">
<title>COMMENT_7b8e000+1&#45;&gt;CALL_7b8a9e0</title>
<path fill="none" stroke="black" d="M426,-1368.7C426,-1360.98 426,-1351.71 426,-1343.11"/>
<polygon fill="black" stroke="black" points="429.5,-1343.1 426,-1333.1 422.5,-1343.1 429.5,-1343.1"/>
</g>
<!-- COMMENT_7b84b20+1 -->
<g id="node17" class="node">
<title>COMMENT_7b84b20+1</title>
<polygon fill="none" stroke="black" points="703,-1261 143,-1261 143,-1225 709,-1225 709,-1255 703,-1261"/>
<polyline fill="none" stroke="black" points="703,-1261 703,-1255 "/>
<polyline fill="none" stroke="black" points="709,-1255 703,-1255 "/>
<text text-anchor="middle" x="426" y="-1239.3" font-family="Times,serif" font-size="14.00">Solve the Poission equation using either FFT or ULMAT, GLMAT, or UGLMAT</text>
</g>
<!-- CALL_7b8a9e0&#45;&gt;COMMENT_7b84b20+1 -->
<g id="edge15" class="edge">
<title>CALL_7b8a9e0&#45;&gt;COMMENT_7b84b20+1</title>
<path fill="none" stroke="black" d="M426,-1296.7C426,-1288.98 426,-1279.71 426,-1271.11"/>
<polygon fill="black" stroke="black" points="429.5,-1271.1 426,-1261.1 422.5,-1271.1 429.5,-1271.1"/>
</g>
<!-- CALL_7b8ef40 -->
<g id="node18" class="node">
<title>CALL_7b8ef40</title>
<g id="a_node18"><a xlink:href="PRESSURE_SOLVER_FFT.svg" xlink:title="PRESSURE_SOLVER_FFT">
<polygon fill="lightgray" stroke="black" points="526,-1189 326,-1189 326,-1185 322,-1185 322,-1181 326,-1181 326,-1161 322,-1161 322,-1157 326,-1157 326,-1153 526,-1153 526,-1189"/>
<polyline fill="none" stroke="black" points="326,-1185 330,-1185 330,-1181 326,-1181 "/>
<polyline fill="none" stroke="black" points="326,-1161 330,-1161 330,-1157 326,-1157 "/>
<text text-anchor="middle" x="426" y="-1167.3" font-family="Times,serif" font-size="14.00">PRESSURE_SOLVER_FFT</text>
</a>
</g>
</g>
<!-- COMMENT_7b84b20+1&#45;&gt;CALL_7b8ef40 -->
<g id="edge16" class="edge">
<title>COMMENT_7b84b20+1&#45;&gt;CALL_7b8ef40</title>
<path fill="none" stroke="black" d="M426,-1224.7C426,-1216.98 426,-1207.71 426,-1199.11"/>
<polygon fill="black" stroke="black" points="429.5,-1199.1 426,-1189.1 422.5,-1199.1 429.5,-1199.1"/>
</g>
<!-- CALL_7b902a0 -->
<g id="node19" class="node">
<title>CALL_7b902a0</title>
<g id="a_node19"><a xlink:href="GLMAT_SOLVER.svg" xlink:title="GLMAT_SOLVER">
<polygon fill="lightgray" stroke="black" points="493.5,-1117 358.5,-1117 358.5,-1113 354.5,-1113 354.5,-1109 358.5,-1109 358.5,-1089 354.5,-1089 354.5,-1085 358.5,-1085 358.5,-1081 493.5,-1081 493.5,-1117"/>
<polyline fill="none" stroke="black" points="358.5,-1113 362.5,-1113 362.5,-1109 358.5,-1109 "/>
<polyline fill="none" stroke="black" points="358.5,-1089 362.5,-1089 362.5,-1085 358.5,-1085 "/>
<text text-anchor="middle" x="426" y="-1095.3" font-family="Times,serif" font-size="14.00">GLMAT_SOLVER</text>
</a>
</g>
</g>
<!-- CALL_7b8ef40&#45;&gt;CALL_7b902a0 -->
<g id="edge17" class="edge">
<title>CALL_7b8ef40&#45;&gt;CALL_7b902a0</title>
<path fill="none" stroke="black" d="M426,-1152.7C426,-1144.98 426,-1135.71 426,-1127.11"/>
<polygon fill="black" stroke="black" points="429.5,-1127.1 426,-1117.1 422.5,-1127.1 429.5,-1127.1"/>
</g>
<!-- CALL_7b90880 -->
<g id="node20" class="node">
<title>CALL_7b90880</title>
<g id="a_node20"><a xlink:href="MESH_EXCHANGE.svg" xlink:title="MESH_EXCHANGE">
<polygon fill="lightgray" stroke="black" points="504,-1045 348,-1045 348,-1041 344,-1041 344,-1037 348,-1037 348,-1017 344,-1017 344,-1013 348,-1013 348,-1009 504,-1009 504,-1045"/>
<polyline fill="none" stroke="black" points="348,-1041 352,-1041 352,-1037 348,-1037 "/>
<polyline fill="none" stroke="black" points="348,-1017 352,-1017 352,-1013 348,-1013 "/>
<text text-anchor="middle" x="426" y="-1023.3" font-family="Times,serif" font-size="14.00">MESH_EXCHANGE</text>
</a>
</g>
</g>
<!-- CALL_7b902a0&#45;&gt;CALL_7b90880 -->
<g id="edge18" class="edge">
<title>CALL_7b902a0&#45;&gt;CALL_7b90880</title>
<path fill="none" stroke="black" d="M426,-1080.7C426,-1072.98 426,-1063.71 426,-1055.11"/>
<polygon fill="black" stroke="black" points="429.5,-1055.1 426,-1045.1 422.5,-1055.1 429.5,-1055.1"/>
</g>
<!-- CALL_7b90ac0 -->
<g id="node21" class="node">
<title>CALL_7b90ac0</title>
<g id="a_node21"><a xlink:href="COPY_H_OMESH_TO_MESH.svg" xlink:title="COPY_H_OMESH_TO_MESH">
<polygon fill="lightgray" stroke="black" points="536.5,-973 315.5,-973 315.5,-969 311.5,-969 311.5,-965 315.5,-965 315.5,-945 311.5,-945 311.5,-941 315.5,-941 315.5,-937 536.5,-937 536.5,-973"/>
<polyline fill="none" stroke="black" points="315.5,-969 319.5,-969 319.5,-965 315.5,-965 "/>
<polyline fill="none" stroke="black" points="315.5,-945 319.5,-945 319.5,-941 315.5,-941 "/>
<text text-anchor="middle" x="426" y="-951.3" font-family="Times,serif" font-size="14.00">COPY_H_OMESH_TO_MESH</text>
</a>
</g>
</g>
<!-- CALL_7b90880&#45;&gt;CALL_7b90ac0 -->
<g id="edge19" class="edge">
<title>CALL_7b90880&#45;&gt;CALL_7b90ac0</title>
<path fill="none" stroke="black" d="M426,-1008.7C426,-1000.98 426,-991.71 426,-983.11"/>
<polygon fill="black" stroke="black" points="429.5,-983.1 426,-973.1 422.5,-983.1 429.5,-983.1"/>
</g>
<!-- CALL_7b92700 -->
<g id="node22" class="node">
<title>CALL_7b92700</title>
<g id="a_node22"><a xlink:href="ULMAT_SOLVER.svg" xlink:title="ULMAT_SOLVER">
<polygon fill="lightgray" stroke="black" points="494,-901 358,-901 358,-897 354,-897 354,-893 358,-893 358,-873 354,-873 354,-869 358,-869 358,-865 494,-865 494,-901"/>
<polyline fill="none" stroke="black" points="358,-897 362,-897 362,-893 358,-893 "/>
<polyline fill="none" stroke="black" points="358,-873 362,-873 362,-869 358,-869 "/>
<text text-anchor="middle" x="426" y="-879.3" font-family="Times,serif" font-size="14.00">ULMAT_SOLVER</text>
</a>
</g>
</g>
<!-- CALL_7b90ac0&#45;&gt;CALL_7b92700 -->
<g id="edge20" class="edge">
<title>CALL_7b90ac0&#45;&gt;CALL_7b92700</title>
<path fill="none" stroke="black" d="M426,-936.7C426,-928.98 426,-919.71 426,-911.11"/>
<polygon fill="black" stroke="black" points="429.5,-911.1 426,-901.1 422.5,-911.1 429.5,-911.1"/>
</g>
<!-- COMMENT_7b93280+1 -->
<g id="node23" class="node">
<title>COMMENT_7b93280+1</title>
<polygon fill="none" stroke="black" points="581.5,-829 264.5,-829 264.5,-793 587.5,-793 587.5,-823 581.5,-829"/>
<polyline fill="none" stroke="black" points="581.5,-829 581.5,-823 "/>
<polyline fill="none" stroke="black" points="587.5,-823 581.5,-823 "/>
<text text-anchor="middle" x="426" y="-807.3" font-family="Times,serif" font-size="14.00">Check the residuals of the Poisson solution</text>
</g>
<!-- CALL_7b92700&#45;&gt;COMMENT_7b93280+1 -->
<g id="edge21" class="edge">
<title>CALL_7b92700&#45;&gt;COMMENT_7b93280+1</title>
<path fill="none" stroke="black" d="M426,-864.7C426,-856.98 426,-847.71 426,-839.11"/>
<polygon fill="black" stroke="black" points="429.5,-839.1 426,-829.1 422.5,-839.1 429.5,-839.1"/>
</g>
<!-- CALL_7b93c40 -->
<g id="node24" class="node">
<title>CALL_7b93c40</title>
<g id="a_node24"><a xlink:href="PRESSURE_SOLVER_CHECK_RESIDUALS.svg" xlink:title="PRESSURE_SOLVER_CHECK_RESIDUALS">
<polygon fill="lightgray" stroke="black" points="586,-757 266,-757 266,-753 262,-753 262,-749 266,-749 266,-729 262,-729 262,-725 266,-725 266,-721 586,-721 586,-757"/>
<polyline fill="none" stroke="black" points="266,-753 270,-753 270,-749 266,-749 "/>
<polyline fill="none" stroke="black" points="266,-729 270,-729 270,-725 266,-725 "/>
<text text-anchor="middle" x="426" y="-735.3" font-family="Times,serif" font-size="14.00">PRESSURE_SOLVER_CHECK_RESIDUALS</text>
</a>
</g>
</g>
<!-- COMMENT_7b93280+1&#45;&gt;CALL_7b93c40 -->
<g id="edge22" class="edge">
<title>COMMENT_7b93280+1&#45;&gt;CALL_7b93c40</title>
<path fill="none" stroke="black" d="M426,-792.7C426,-784.98 426,-775.71 426,-767.11"/>
<polygon fill="black" stroke="black" points="429.5,-767.1 426,-757.1 422.5,-767.1 429.5,-767.1"/>
</g>
<!-- CALL_7b8f4c0 -->
<g id="node25" class="node">
<title>CALL_7b8f4c0</title>
<g id="a_node25"><a xlink:href="PRESSURE_SOLVER_CHECK_RESIDUALS_U.svg" xlink:title="PRESSURE_SOLVER_CHECK_RESIDUALS_U">
<polygon fill="lightgray" stroke="black" points="595,-685 257,-685 257,-681 253,-681 253,-677 257,-677 257,-657 253,-657 253,-653 257,-653 257,-649 595,-649 595,-685"/>
<polyline fill="none" stroke="black" points="257,-681 261,-681 261,-677 257,-677 "/>
<polyline fill="none" stroke="black" points="257,-657 261,-657 261,-653 257,-653 "/>
<text text-anchor="middle" x="426" y="-663.3" font-family="Times,serif" font-size="14.00">PRESSURE_SOLVER_CHECK_RESIDUALS_U</text>
</a>
</g>
</g>
<!-- CALL_7b93c40&#45;&gt;CALL_7b8f4c0 -->
<g id="edge23" class="edge">
<title>CALL_7b93c40&#45;&gt;CALL_7b8f4c0</title>
<path fill="none" stroke="black" d="M426,-720.7C426,-712.98 426,-703.71 426,-695.11"/>
<polygon fill="black" stroke="black" points="429.5,-695.1 426,-685.1 422.5,-695.1 429.5,-695.1"/>
</g>
<!-- COMMENT_7b95400+1 -->
<g id="node26" class="node">
<title>COMMENT_7b95400+1</title>
<polygon fill="none" stroke="black" points="824.5,-613 21.5,-613 21.5,-577 830.5,-577 830.5,-607 824.5,-613"/>
<polyline fill="none" stroke="black" points="824.5,-613 824.5,-607 "/>
<polyline fill="none" stroke="black" points="830.5,-607 824.5,-607 "/>
<text text-anchor="middle" x="426" y="-591.3" font-family="Times,serif" font-size="14.00">Exchange both H or HS and FVX, FVY, FVZ and then estimate values of U, V, W (US, VS, WS) at next time step.</text>
</g>
<!-- CALL_7b8f4c0&#45;&gt;COMMENT_7b95400+1 -->
<g id="edge24" class="edge">
<title>CALL_7b8f4c0&#45;&gt;COMMENT_7b95400+1</title>
<path fill="none" stroke="black" d="M426,-648.7C426,-640.98 426,-631.71 426,-623.11"/>
<polygon fill="black" stroke="black" points="429.5,-623.1 426,-613.1 422.5,-623.1 429.5,-623.1"/>
</g>
<!-- CALL_7b95400 -->
<g id="node27" class="node">
<title>CALL_7b95400</title>
<g id="a_node27"><a xlink:href="MESH_EXCHANGE.svg" xlink:title="MESH_EXCHANGE">
<polygon fill="lightgray" stroke="black" points="504,-541 348,-541 348,-537 344,-537 344,-533 348,-533 348,-513 344,-513 344,-509 348,-509 348,-505 504,-505 504,-541"/>
<polyline fill="none" stroke="black" points="348,-537 352,-537 352,-533 348,-533 "/>
<polyline fill="none" stroke="black" points="348,-513 352,-513 352,-509 348,-509 "/>
<text text-anchor="middle" x="426" y="-519.3" font-family="Times,serif" font-size="14.00">MESH_EXCHANGE</text>
</a>
</g>
</g>
<!-- COMMENT_7b95400+1&#45;&gt;CALL_7b95400 -->
<g id="edge25" class="edge">
<title>COMMENT_7b95400+1&#45;&gt;CALL_7b95400</title>
<path fill="none" stroke="black" d="M426,-576.7C426,-568.98 426,-559.71 426,-551.11"/>
<polygon fill="black" stroke="black" points="429.5,-551.1 426,-541.1 422.5,-551.1 429.5,-551.1"/>
</g>
<!-- CALL_7b966e0 -->
<g id="node28" class="node">
<title>CALL_7b966e0</title>
<g id="a_node28"><a xlink:href="COMPUTE_VELOCITY_ERROR.svg" xlink:title="COMPUTE_VELOCITY_ERROR">
<polygon fill="lightgray" stroke="black" points="543,-469 309,-469 309,-465 305,-465 305,-461 309,-461 309,-441 305,-441 305,-437 309,-437 309,-433 543,-433 543,-469"/>
<polyline fill="none" stroke="black" points="309,-465 313,-465 313,-461 309,-461 "/>
<polyline fill="none" stroke="black" points="309,-441 313,-441 313,-437 309,-437 "/>
<text text-anchor="middle" x="426" y="-447.3" font-family="Times,serif" font-size="14.00">COMPUTE_VELOCITY_ERROR</text>
</a>
</g>
</g>
<!-- CALL_7b95400&#45;&gt;CALL_7b966e0 -->
<g id="edge26" class="edge">
<title>CALL_7b95400&#45;&gt;CALL_7b966e0</title>
<path fill="none" stroke="black" d="M426,-504.7C426,-496.98 426,-487.71 426,-479.11"/>
<polygon fill="black" stroke="black" points="429.5,-479.1 426,-469.1 422.5,-479.1 429.5,-479.1"/>
</g>
<!-- CALL_7b96c20 -->
<g id="node29" class="node">
<title>CALL_7b96c20</title>
<g id="a_node29"><a xlink:href="CC_COMPUTE_VELOCITY_ERROR.svg" xlink:title="CC_COMPUTE_VELOCITY_ERROR">
<polygon fill="lightgray" stroke="black" points="557,-397 295,-397 295,-393 291,-393 291,-389 295,-389 295,-369 291,-369 291,-365 295,-365 295,-361 557,-361 557,-397"/>
<polyline fill="none" stroke="black" points="295,-393 299,-393 299,-389 295,-389 "/>
<polyline fill="none" stroke="black" points="295,-369 299,-369 299,-365 295,-365 "/>
<text text-anchor="middle" x="426" y="-375.3" font-family="Times,serif" font-size="14.00">CC_COMPUTE_VELOCITY_ERROR</text>
</a>
</g>
</g>
<!-- CALL_7b966e0&#45;&gt;CALL_7b96c20 -->
<g id="edge27" class="edge">
<title>CALL_7b966e0&#45;&gt;CALL_7b96c20</title>
<path fill="none" stroke="black" d="M426,-432.7C426,-424.98 426,-415.71 426,-407.11"/>
<polygon fill="black" stroke="black" points="429.5,-407.1 426,-397.1 422.5,-407.1 429.5,-407.1"/>
</g>
<!-- COMMENT_7b96a80+1 -->
<g id="node30" class="node">
<title>COMMENT_7b96a80+1</title>
<polygon fill="none" stroke="black" points="825.5,-325 20.5,-325 20.5,-289 831.5,-289 831.5,-319 825.5,-325"/>
<polyline fill="none" stroke="black" points="825.5,-325 825.5,-319 "/>
<polyline fill="none" stroke="black" points="831.5,-319 825.5,-319 "/>
<text text-anchor="middle" x="426" y="-303.3" font-family="Times,serif" font-size="14.00">Make all MPI processes aware of the maximum velocity error to decide if another pressure iteration is needed.</text>
</g>
<!-- CALL_7b96c20&#45;&gt;COMMENT_7b96a80+1 -->
<g id="edge28" class="edge">
<title>CALL_7b96c20&#45;&gt;COMMENT_7b96a80+1</title>
<path fill="none" stroke="black" d="M426,-360.7C426,-352.98 426,-343.71 426,-335.11"/>
<polygon fill="black" stroke="black" points="429.5,-335.1 426,-325.1 422.5,-335.1 429.5,-335.1"/>
</g>
<!-- CALL_7ba2660 -->
<g id="node31" class="node">
<title>CALL_7ba2660</title>
<g id="a_node31"><a xlink:href="MPI_ALLGATHERV.svg" xlink:title="MPI_ALLGATHERV">
<polygon fill="#ffe800" stroke="black" points="502,-253 350,-253 350,-249 346,-249 346,-245 350,-245 350,-225 346,-225 346,-221 350,-221 350,-217 502,-217 502,-253"/>
<polyline fill="none" stroke="black" points="350,-249 354,-249 354,-245 350,-245 "/>
<polyline fill="none" stroke="black" points="350,-225 354,-225 354,-221 350,-221 "/>
<text text-anchor="middle" x="426" y="-231.3" font-family="Times,serif" font-size="14.00">MPI_ALLGATHERV</text>
</a>
</g>
</g>
<!-- COMMENT_7b96a80+1&#45;&gt;CALL_7ba2660 -->
<g id="edge29" class="edge">
<title>COMMENT_7b96a80+1&#45;&gt;CALL_7ba2660</title>
<path fill="none" stroke="black" d="M426,-288.7C426,-280.98 426,-271.71 426,-263.11"/>
<polygon fill="black" stroke="black" points="429.5,-263.1 426,-253.1 422.5,-263.1 429.5,-263.1"/>
</g>
<!-- COMMENT_7bb8320+1 -->
<g id="node32" class="node">
<title>COMMENT_7bb8320+1</title>
<polygon fill="none" stroke="black" points="734,-181 112,-181 112,-145 740,-145 740,-175 734,-181"/>
<polyline fill="none" stroke="black" points="734,-181 734,-175 "/>
<polyline fill="none" stroke="black" points="740,-175 734,-175 "/>
<text text-anchor="middle" x="426" y="-159.3" font-family="Times,serif" font-size="14.00">If the VELOCITY_TOLERANCE is satisfied or max/min iterations are hit, exit the loop.</text>
</g>
<!-- CALL_7ba2660&#45;&gt;COMMENT_7bb8320+1 -->
<g id="edge30" class="edge">
<title>CALL_7ba2660&#45;&gt;COMMENT_7bb8320+1</title>
<path fill="none" stroke="black" d="M426,-216.7C426,-208.98 426,-199.71 426,-191.11"/>
<polygon fill="black" stroke="black" points="429.5,-191.1 426,-181.1 422.5,-191.1 429.5,-191.1"/>
</g>
<!-- COMMENT_7ba3320+1 -->
<g id="node33" class="node">
<title>COMMENT_7ba3320+1</title>
<polygon fill="none" stroke="black" points="648,-109 198,-109 198,-73 654,-73 654,-103 648,-109"/>
<polyline fill="none" stroke="black" points="648,-109 648,-103 "/>
<polyline fill="none" stroke="black" points="654,-103 648,-103 "/>
<text text-anchor="middle" x="426" y="-87.3" font-family="Times,serif" font-size="14.00">Exit the iteration loop if satisfactory progress is not achieved</text>
</g>
<!-- COMMENT_7bb8320+1&#45;&gt;COMMENT_7ba3320+1 -->
<g id="edge31" class="edge">
<title>COMMENT_7bb8320+1&#45;&gt;COMMENT_7ba3320+1</title>
<path fill="none" stroke="black" d="M426,-144.7C426,-136.98 426,-127.71 426,-119.11"/>
<polygon fill="black" stroke="black" points="429.5,-119.1 426,-109.1 422.5,-119.1 429.5,-119.1"/>
</g>
<!-- end_SUBPROGRAM_93befc0 -->
<g id="node34" class="node">
<title>end_SUBPROGRAM_93befc0</title>
<ellipse fill="black" stroke="black" cx="426" cy="-30" rx="7" ry="7"/>
</g>
<!-- COMMENT_7ba3320+1&#45;&gt;end_SUBPROGRAM_93befc0 -->
<g id="edge33" class="edge">
<title>COMMENT_7ba3320+1&#45;&gt;end_SUBPROGRAM_93befc0</title>
<path fill="none" stroke="black" d="M426,-72.93C426,-64.89 426,-55.33 426,-47.37"/>
<polygon fill="black" stroke="black" points="429.5,-47.22 426,-37.22 422.5,-47.22 429.5,-47.22"/>
</g>
</g>
</svg>
