<?xml version="1.0" encoding="UTF-8" standalone="no"?>
<!DOCTYPE svg PUBLIC "-//W3C//DTD SVG 1.1//EN"
 "http://www.w3.org/Graphics/SVG/1.1/DTD/svg11.dtd">
<!-- Generated by graphviz version 2.43.0 (0)
 -->
<!-- Title: program Pages: 1 -->
<svg width="1598pt" height="3409pt"
 viewBox="0.00 0.00 1598.00 3409.44" xmlns="http://www.w3.org/2000/svg" xmlns:xlink="http://www.w3.org/1999/xlink">
<g id="graph0" class="graph" transform="scale(1 1) rotate(0) translate(4 3405.44)">
<title>program</title>
<polygon fill="white" stroke="transparent" points="-4,4 -4,-3405.44 1594,-3405.44 1594,4 -4,4"/>
<text text-anchor="middle" x="795" y="-7.8" font-family="Times,serif" font-size="14.00">program</text>
<g id="clust1" class="cluster">
<title>cluster_MAIN_LOOP</title>
<polygon fill="none" stroke="orange" points="8,-730 8,-3000.44 1582,-3000.44 1582,-730 8,-730"/>
<text text-anchor="middle" x="61" y="-2985.24" font-family="Times,serif" font-size="14.00">MAIN_LOOP</text>
</g>
<!-- start_0 -->
<g id="node1" class="node">
<title>start_0</title>
<ellipse fill="none" stroke="black" cx="795" cy="-3394.44" rx="7" ry="7"/>
</g>
<!-- COMMENT_7b45a20+1 -->
<g id="node2" class="node">
<title>COMMENT_7b45a20+1</title>
<polygon fill="none" stroke="black" points="1171.5,-3351.44 412.5,-3351.44 412.5,-3313.44 1177.5,-3313.44 1177.5,-3345.44 1171.5,-3351.44"/>
<polyline fill="none" stroke="black" points="1171.5,-3351.44 1171.5,-3345.44 "/>
<polyline fill="none" stroke="black" points="1177.5,-3345.44 1171.5,-3345.44 "/>
<text text-anchor="middle" x="795" y="-3336.24" font-family="Times,serif" font-size="14.00">!&gt; brief Fire Dynamics Simulator (FDS) is a computational fluid dynamics (CFD) code designed to model</text>
<text text-anchor="middle" x="795" y="-3321.24" font-family="Times,serif" font-size="14.00">!&gt; fire and other thermal phenomena.</text>
</g>
<!-- start_0&#45;&gt;COMMENT_7b45a20+1 -->
<g id="edge1" class="edge">
<title>start_0&#45;&gt;COMMENT_7b45a20+1</title>
<path fill="none" stroke="black" d="M795,-3387.02C795,-3380.85 795,-3371.08 795,-3361.56"/>
<polygon fill="black" stroke="black" points="798.5,-3361.52 795,-3351.52 791.5,-3361.52 798.5,-3361.52"/>
</g>
<!-- COMMENT_7b4fee0+1 -->
<g id="node3" class="node">
<title>COMMENT_7b4fee0+1</title>
<polygon fill="none" stroke="black" points="894,-3277.44 690,-3277.44 690,-3241.44 900,-3241.44 900,-3271.44 894,-3277.44"/>
<polyline fill="none" stroke="black" points="894,-3277.44 894,-3271.44 "/>
<polyline fill="none" stroke="black" points="900,-3271.44 894,-3271.44 "/>
<text text-anchor="middle" x="795" y="-3255.74" font-family="Times,serif" font-size="14.00">Miscellaneous declarations</text>
</g>
<!-- COMMENT_7b45a20+1&#45;&gt;COMMENT_7b4fee0+1 -->
<g id="edge2" class="edge">
<title>COMMENT_7b45a20+1&#45;&gt;COMMENT_7b4fee0+1</title>
<path fill="none" stroke="black" d="M795,-3313.16C795,-3305.41 795,-3296.23 795,-3287.71"/>
<polygon fill="black" stroke="black" points="798.5,-3287.44 795,-3277.44 791.5,-3287.44 798.5,-3287.44"/>
</g>
<!-- COMMENT_7b563c0+1 -->
<g id="node4" class="node">
<title>COMMENT_7b563c0+1</title>
<polygon fill="none" stroke="black" points="830.5,-3205.44 753.5,-3205.44 753.5,-3169.44 836.5,-3169.44 836.5,-3199.44 830.5,-3205.44"/>
<polyline fill="none" stroke="black" points="830.5,-3205.44 830.5,-3199.44 "/>
<polyline fill="none" stroke="black" points="836.5,-3199.44 830.5,-3199.44 "/>
<text text-anchor="middle" x="795" y="-3183.74" font-family="Times,serif" font-size="14.00">MPI stuff</text>
</g>
<!-- COMMENT_7b4fee0+1&#45;&gt;COMMENT_7b563c0+1 -->
<g id="edge3" class="edge">
<title>COMMENT_7b4fee0+1&#45;&gt;COMMENT_7b563c0+1</title>
<path fill="none" stroke="black" d="M795,-3241.14C795,-3233.42 795,-3224.15 795,-3215.55"/>
<polygon fill="black" stroke="black" points="798.5,-3215.54 795,-3205.54 791.5,-3215.54 798.5,-3215.54"/>
</g>
<!-- BEGIN_SECTION_7b5e7a0+1 -->
<g id="node5" class="node">
<title>BEGIN_SECTION_7b5e7a0+1</title>
<g id="a_node5"><a xlink:href="init.svg" xlink:title="init">
<polygon fill="lightgray" stroke="black" points="822,-3133.44 780,-3133.44 780,-3137.44 768,-3137.44 768,-3097.44 822,-3097.44 822,-3133.44"/>
<polyline fill="none" stroke="black" points="768,-3133.44 780,-3133.44 "/>
<text text-anchor="middle" x="795" y="-3111.74" font-family="Times,serif" font-size="14.00">init</text>
</a>
</g>
</g>
<!-- COMMENT_7b563c0+1&#45;&gt;BEGIN_SECTION_7b5e7a0+1 -->
<g id="edge4" class="edge">
<title>COMMENT_7b563c0+1&#45;&gt;BEGIN_SECTION_7b5e7a0+1</title>
<path fill="none" stroke="black" d="M795,-3169.14C795,-3161.42 795,-3152.15 795,-3143.55"/>
<polygon fill="black" stroke="black" points="798.5,-3143.54 795,-3133.54 791.5,-3143.54 798.5,-3143.54"/>
</g>
<!-- COMMENT_9d339e0+2 -->
<g id="node6" class="node">
<title>COMMENT_9d339e0+2</title>
<polygon fill="none" stroke="black" points="1242.5,-3061.44 341.5,-3061.44 341.5,-3008.44 1248.5,-3008.44 1248.5,-3055.44 1242.5,-3061.44"/>
<polyline fill="none" stroke="black" points="1242.5,-3061.44 1242.5,-3055.44 "/>
<polyline fill="none" stroke="black" points="1248.5,-3055.44 1242.5,-3055.44 "/>
<text text-anchor="middle" x="795" y="-3046.24" font-family="Times,serif" font-size="14.00">!***********************************************************************************************************************************</text>
<text text-anchor="middle" x="795" y="-3031.24" font-family="Times,serif" font-size="14.00"> &#160;&#160;&#160;&#160;&#160;&#160;&#160;&#160;&#160;&#160;&#160;&#160;&#160;&#160;&#160;&#160;&#160;&#160;&#160;&#160;&#160;&#160;&#160;&#160;&#160;&#160;&#160;&#160;&#160;&#160;&#160;&#160;&#160;&#160;&#160;&#160;&#160;&#160;&#160;&#160;&#160;&#160;&#160;&#160;&#160;&#160;&#160;&#160;&#160;MAIN TIMESTEPPING LOOP</text>
<text text-anchor="middle" x="795" y="-3016.24" font-family="Times,serif" font-size="14.00">!***********************************************************************************************************************************</text>
</g>
<!-- BEGIN_SECTION_7b5e7a0+1&#45;&gt;COMMENT_9d339e0+2 -->
<g id="edge5" class="edge">
<title>BEGIN_SECTION_7b5e7a0+1&#45;&gt;COMMENT_9d339e0+2</title>
<path fill="none" stroke="black" d="M795,-3097.41C795,-3089.89 795,-3080.75 795,-3071.84"/>
<polygon fill="black" stroke="black" points="798.5,-3071.6 795,-3061.6 791.5,-3071.6 798.5,-3071.6"/>
</g>
<!-- beginDO_DO_9fa72e0 -->
<g id="node7" class="node">
<title>beginDO_DO_9fa72e0</title>
<ellipse fill="black" stroke="black" cx="795" cy="-2969.08" rx="0.36" ry="0.36"/>
</g>
<!-- COMMENT_9d339e0+2&#45;&gt;beginDO_DO_9fa72e0 -->
<g id="edge36" class="edge">
<title>COMMENT_9d339e0+2&#45;&gt;beginDO_DO_9fa72e0</title>
<path fill="none" stroke="black" d="M795,-3008.33C795,-2991.12 795,-2971.36 795,-2970.14"/>
</g>
<!-- COMMENT_9d34840+1 -->
<g id="node9" class="node">
<title>COMMENT_9d34840+1</title>
<polygon fill="none" stroke="black" points="1030,-2932.72 554,-2932.72 554,-2896.72 1036,-2896.72 1036,-2926.72 1030,-2932.72"/>
<polyline fill="none" stroke="black" points="1030,-2932.72 1030,-2926.72 "/>
<polyline fill="none" stroke="black" points="1036,-2926.72 1030,-2926.72 "/>
<text text-anchor="middle" x="795" y="-2911.02" font-family="Times,serif" font-size="14.00">Do not print out general diagnostics into .out file every time step</text>
</g>
<!-- beginDO_DO_9fa72e0&#45;&gt;COMMENT_9d34840+1 -->
<g id="edge6" class="edge">
<title>beginDO_DO_9fa72e0&#45;&gt;COMMENT_9d34840+1</title>
<path fill="none" stroke="black" d="M795,-2968.57C795,-2967.09 795,-2955.04 795,-2942.82"/>
<polygon fill="black" stroke="black" points="798.5,-2942.74 795,-2932.74 791.5,-2942.74 798.5,-2942.74"/>
</g>
<!-- endDO_DO_9fa72e0 -->
<g id="node8" class="node">
<title>endDO_DO_9fa72e0</title>
<ellipse fill="black" stroke="black" cx="795" cy="-738.36" rx="0.36" ry="0.36"/>
</g>
<!-- COMMENT_9feee40+1 -->
<g id="node39" class="node">
<title>COMMENT_9feee40+1</title>
<polygon fill="none" stroke="black" points="1242.5,-702 341.5,-702 341.5,-649 1248.5,-649 1248.5,-696 1242.5,-702"/>
<polyline fill="none" stroke="black" points="1242.5,-702 1242.5,-696 "/>
<polyline fill="none" stroke="black" points="1248.5,-696 1242.5,-696 "/>
<text text-anchor="middle" x="795" y="-686.8" font-family="Times,serif" font-size="14.00">!***********************************************************************************************************************************</text>
<text text-anchor="middle" x="795" y="-671.8" font-family="Times,serif" font-size="14.00"> &#160;&#160;&#160;&#160;&#160;&#160;&#160;&#160;&#160;&#160;&#160;&#160;&#160;&#160;&#160;&#160;&#160;&#160;&#160;&#160;&#160;&#160;&#160;&#160;&#160;&#160;&#160;&#160;&#160;&#160;&#160;&#160;&#160;&#160;&#160;&#160;&#160;&#160;&#160;&#160;&#160;&#160;&#160;&#160;&#160;&#160;&#160;&#160;&#160;&#160;&#160;END OF TIME STEPPING LOOP</text>
<text text-anchor="middle" x="795" y="-656.8" font-family="Times,serif" font-size="14.00">!***********************************************************************************************************************************</text>
</g>
<!-- endDO_DO_9fa72e0&#45;&gt;COMMENT_9feee40+1 -->
<g id="edge38" class="edge">
<title>endDO_DO_9fa72e0&#45;&gt;COMMENT_9feee40+1</title>
<path fill="none" stroke="black" d="M795,-737.32C795,-736.52 795,-725.09 795,-712.35"/>
<polygon fill="black" stroke="black" points="798.5,-712.02 795,-702.02 791.5,-712.02 798.5,-712.02"/>
</g>
<!-- COMMENT_9d35c20+1 -->
<g id="node10" class="node">
<title>COMMENT_9d35c20+1</title>
<polygon fill="none" stroke="black" points="886,-2860.72 698,-2860.72 698,-2824.72 892,-2824.72 892,-2854.72 886,-2860.72"/>
<polyline fill="none" stroke="black" points="886,-2860.72 886,-2854.72 "/>
<polyline fill="none" stroke="black" points="892,-2854.72 886,-2854.72 "/>
<text text-anchor="middle" x="795" y="-2839.02" font-family="Times,serif" font-size="14.00">Check for program stops</text>
</g>
<!-- COMMENT_9d34840+1&#45;&gt;COMMENT_9d35c20+1 -->
<g id="edge7" class="edge">
<title>COMMENT_9d34840+1&#45;&gt;COMMENT_9d35c20+1</title>
<path fill="none" stroke="black" d="M795,-2896.42C795,-2888.7 795,-2879.43 795,-2870.83"/>
<polygon fill="black" stroke="black" points="798.5,-2870.82 795,-2860.82 791.5,-2870.82 798.5,-2870.82"/>
</g>
<!-- CALL_9d394c0 -->
<g id="node11" class="node">
<title>CALL_9d394c0</title>
<g id="a_node11"><a xlink:href="MPI_BCAST.svg" xlink:title="MPI_BCAST">
<polygon fill="#ffe800" stroke="black" points="846,-2788.72 744,-2788.72 744,-2784.72 740,-2784.72 740,-2780.72 744,-2780.72 744,-2760.72 740,-2760.72 740,-2756.72 744,-2756.72 744,-2752.72 846,-2752.72 846,-2788.72"/>
<polyline fill="none" stroke="black" points="744,-2784.72 748,-2784.72 748,-2780.72 744,-2780.72 "/>
<polyline fill="none" stroke="black" points="744,-2760.72 748,-2760.72 748,-2756.72 744,-2756.72 "/>
<text text-anchor="middle" x="795" y="-2767.02" font-family="Times,serif" font-size="14.00">MPI_BCAST</text>
</a>
</g>
</g>
<!-- COMMENT_9d35c20+1&#45;&gt;CALL_9d394c0 -->
<g id="edge8" class="edge">
<title>COMMENT_9d35c20+1&#45;&gt;CALL_9d394c0</title>
<path fill="none" stroke="black" d="M795,-2824.42C795,-2816.7 795,-2807.43 795,-2798.83"/>
<polygon fill="black" stroke="black" points="798.5,-2798.82 795,-2788.82 791.5,-2798.82 798.5,-2798.82"/>
</g>
<!-- COMMENT_9d3db80+1 -->
<g id="node12" class="node">
<title>COMMENT_9d3db80+1</title>
<polygon fill="none" stroke="black" points="962,-2716.72 622,-2716.72 622,-2680.72 968,-2680.72 968,-2710.72 962,-2716.72"/>
<polyline fill="none" stroke="black" points="962,-2716.72 962,-2710.72 "/>
<polyline fill="none" stroke="black" points="968,-2710.72 962,-2710.72 "/>
<text text-anchor="middle" x="795" y="-2695.02" font-family="Times,serif" font-size="14.00">Check to see if the time step can be increased</text>
</g>
<!-- CALL_9d394c0&#45;&gt;COMMENT_9d3db80+1 -->
<g id="edge9" class="edge">
<title>CALL_9d394c0&#45;&gt;COMMENT_9d3db80+1</title>
<path fill="none" stroke="black" d="M795,-2752.42C795,-2744.7 795,-2735.43 795,-2726.83"/>
<polygon fill="black" stroke="black" points="798.5,-2726.82 795,-2716.82 791.5,-2726.82 798.5,-2726.82"/>
</g>
<!-- COMMENT_9dc0960+1 -->
<g id="node13" class="node">
<title>COMMENT_9dc0960+1</title>
<polygon fill="none" stroke="black" points="865,-2644.72 719,-2644.72 719,-2608.72 871,-2608.72 871,-2638.72 865,-2644.72"/>
<polyline fill="none" stroke="black" points="865,-2644.72 865,-2638.72 "/>
<polyline fill="none" stroke="black" points="871,-2638.72 865,-2638.72 "/>
<text text-anchor="middle" x="795" y="-2623.02" font-family="Times,serif" font-size="14.00">Clip final time step</text>
</g>
<!-- COMMENT_9d3db80+1&#45;&gt;COMMENT_9dc0960+1 -->
<g id="edge10" class="edge">
<title>COMMENT_9d3db80+1&#45;&gt;COMMENT_9dc0960+1</title>
<path fill="none" stroke="black" d="M795,-2680.42C795,-2672.7 795,-2663.43 795,-2654.83"/>
<polygon fill="black" stroke="black" points="798.5,-2654.82 795,-2644.82 791.5,-2654.82 798.5,-2654.82"/>
</g>
<!-- COMMENT_9dc08c0+1 -->
<g id="node14" class="node">
<title>COMMENT_9dc08c0+1</title>
<polygon fill="none" stroke="black" points="997.5,-2572.72 586.5,-2572.72 586.5,-2536.72 1003.5,-2536.72 1003.5,-2566.72 997.5,-2572.72"/>
<polyline fill="none" stroke="black" points="997.5,-2572.72 997.5,-2566.72 "/>
<polyline fill="none" stroke="black" points="1003.5,-2566.72 997.5,-2566.72 "/>
<text text-anchor="middle" x="795" y="-2551.02" font-family="Times,serif" font-size="14.00">Determine when to dump out diagnostics to the .out file</text>
</g>
<!-- COMMENT_9dc0960+1&#45;&gt;COMMENT_9dc08c0+1 -->
<g id="edge11" class="edge">
<title>COMMENT_9dc0960+1&#45;&gt;COMMENT_9dc08c0+1</title>
<path fill="none" stroke="black" d="M795,-2608.42C795,-2600.7 795,-2591.43 795,-2582.83"/>
<polygon fill="black" stroke="black" points="798.5,-2582.82 795,-2572.82 791.5,-2582.82 798.5,-2582.82"/>
</g>
<!-- COMMENT_9dc8d80+1 -->
<g id="node15" class="node">
<title>COMMENT_9dc8d80+1</title>
<polygon fill="none" stroke="black" points="1568.5,-2500.72 15.5,-2500.72 15.5,-2447.72 1574.5,-2447.72 1574.5,-2494.72 1568.5,-2500.72"/>
<polyline fill="none" stroke="black" points="1568.5,-2500.72 1568.5,-2494.72 "/>
<polyline fill="none" stroke="black" points="1574.5,-2494.72 1568.5,-2494.72 "/>
<text text-anchor="middle" x="795" y="-2485.52" font-family="Times,serif" font-size="14.00">!================================================================================================================================</text>
<text text-anchor="middle" x="795" y="-2470.52" font-family="Times,serif" font-size="14.00"> &#160;&#160;&#160;&#160;&#160;&#160;&#160;&#160;&#160;&#160;&#160;&#160;&#160;&#160;&#160;&#160;&#160;&#160;&#160;&#160;&#160;&#160;&#160;&#160;&#160;&#160;&#160;&#160;&#160;&#160;&#160;&#160;&#160;&#160;&#160;&#160;&#160;&#160;&#160;&#160;&#160;Start of Predictor part of time step</text>
<text text-anchor="middle" x="795" y="-2455.52" font-family="Times,serif" font-size="14.00">!================================================================================================================================</text>
</g>
<!-- COMMENT_9dc08c0+1&#45;&gt;COMMENT_9dc8d80+1 -->
<g id="edge12" class="edge">
<title>COMMENT_9dc08c0+1&#45;&gt;COMMENT_9dc8d80+1</title>
<path fill="none" stroke="black" d="M795,-2536.69C795,-2529.17 795,-2520.03 795,-2511.12"/>
<polygon fill="black" stroke="black" points="798.5,-2510.88 795,-2500.88 791.5,-2510.88 798.5,-2510.88"/>
</g>
<!-- BEGIN_SECTION_9dc8d80+2 -->
<g id="node16" class="node">
<title>BEGIN_SECTION_9dc8d80+2</title>
<g id="a_node16"><a xlink:href="Predictor.svg" xlink:title="Predictor">
<polygon fill="lightgray" stroke="black" points="836.5,-2411.72 765.5,-2411.72 765.5,-2415.72 753.5,-2415.72 753.5,-2375.72 836.5,-2375.72 836.5,-2411.72"/>
<polyline fill="none" stroke="black" points="753.5,-2411.72 765.5,-2411.72 "/>
<text text-anchor="middle" x="795" y="-2390.02" font-family="Times,serif" font-size="14.00">Predictor</text>
</a>
</g>
</g>
<!-- COMMENT_9dc8d80+1&#45;&gt;BEGIN_SECTION_9dc8d80+2 -->
<g id="edge13" class="edge">
<title>COMMENT_9dc8d80+1&#45;&gt;BEGIN_SECTION_9dc8d80+2</title>
<path fill="none" stroke="black" d="M795,-2447.52C795,-2439.43 795,-2430.48 795,-2422.27"/>
<polygon fill="black" stroke="black" points="798.5,-2422.05 795,-2412.05 791.5,-2422.05 798.5,-2422.05"/>
</g>
<!-- COMMENT_9f807e0+2 -->
<g id="node17" class="node">
<title>COMMENT_9f807e0+2</title>
<polygon fill="none" stroke="black" points="1568.5,-2339.72 15.5,-2339.72 15.5,-2286.72 1574.5,-2286.72 1574.5,-2333.72 1568.5,-2339.72"/>
<polyline fill="none" stroke="black" points="1568.5,-2339.72 1568.5,-2333.72 "/>
<polyline fill="none" stroke="black" points="1574.5,-2333.72 1568.5,-2333.72 "/>
<text text-anchor="middle" x="795" y="-2324.52" font-family="Times,serif" font-size="14.00">!================================================================================================================================</text>
<text text-anchor="middle" x="795" y="-2309.52" font-family="Times,serif" font-size="14.00"> &#160;&#160;&#160;&#160;&#160;&#160;&#160;&#160;&#160;&#160;&#160;&#160;&#160;&#160;&#160;&#160;&#160;&#160;&#160;&#160;&#160;&#160;&#160;&#160;&#160;&#160;&#160;&#160;&#160;&#160;&#160;&#160;&#160;&#160;&#160;&#160;&#160;&#160;&#160;&#160;&#160;Start of Corrector part of time step</text>
<text text-anchor="middle" x="795" y="-2294.52" font-family="Times,serif" font-size="14.00">!================================================================================================================================</text>
</g>
<!-- BEGIN_SECTION_9dc8d80+2&#45;&gt;COMMENT_9f807e0+2 -->
<g id="edge14" class="edge">
<title>BEGIN_SECTION_9dc8d80+2&#45;&gt;COMMENT_9f807e0+2</title>
<path fill="none" stroke="black" d="M795,-2375.69C795,-2368.17 795,-2359.03 795,-2350.12"/>
<polygon fill="black" stroke="black" points="798.5,-2349.88 795,-2339.88 791.5,-2349.88 798.5,-2349.88"/>
</g>
<!-- BEGIN_SECTION_9f807e0+3 -->
<g id="node18" class="node">
<title>BEGIN_SECTION_9f807e0+3</title>
<g id="a_node18"><a xlink:href="Corrector.svg" xlink:title="Corrector">
<polygon fill="lightgray" stroke="black" points="838,-2250.72 764,-2250.72 764,-2254.72 752,-2254.72 752,-2214.72 838,-2214.72 838,-2250.72"/>
<polyline fill="none" stroke="black" points="752,-2250.72 764,-2250.72 "/>
<text text-anchor="middle" x="795" y="-2229.02" font-family="Times,serif" font-size="14.00">Corrector</text>
</a>
</g>
</g>
<!-- COMMENT_9f807e0+2&#45;&gt;BEGIN_SECTION_9f807e0+3 -->
<g id="edge15" class="edge">
<title>COMMENT_9f807e0+2&#45;&gt;BEGIN_SECTION_9f807e0+3</title>
<path fill="none" stroke="black" d="M795,-2286.52C795,-2278.43 795,-2269.48 795,-2261.27"/>
<polygon fill="black" stroke="black" points="798.5,-2261.05 795,-2251.05 791.5,-2261.05 798.5,-2261.05"/>
</g>
<!-- COMMENT_9fbc0c0+2 -->
<g id="node19" class="node">
<title>COMMENT_9fbc0c0+2</title>
<polygon fill="none" stroke="black" points="953,-2178.72 631,-2178.72 631,-2142.72 959,-2142.72 959,-2172.72 953,-2178.72"/>
<polyline fill="none" stroke="black" points="953,-2178.72 953,-2172.72 "/>
<polyline fill="none" stroke="black" points="959,-2172.72 953,-2172.72 "/>
<text text-anchor="middle" x="795" y="-2157.02" font-family="Times,serif" font-size="14.00">Check for dumping end of timestep outputs</text>
</g>
<!-- BEGIN_SECTION_9f807e0+3&#45;&gt;COMMENT_9fbc0c0+2 -->
<g id="edge16" class="edge">
<title>BEGIN_SECTION_9f807e0+3&#45;&gt;COMMENT_9fbc0c0+2</title>
<path fill="none" stroke="black" d="M795,-2214.42C795,-2206.7 795,-2197.43 795,-2188.83"/>
<polygon fill="black" stroke="black" points="798.5,-2188.82 795,-2178.82 791.5,-2188.82 798.5,-2188.82"/>
</g>
<!-- CALL_9fbc0c0 -->
<g id="node20" class="node">
<title>CALL_9fbc0c0</title>
<g id="a_node20"><a xlink:href="UPDATE_CONTROLS.svg" xlink:title="UPDATE_CONTROLS">
<polygon fill="lightgray" stroke="black" points="879,-2106.72 711,-2106.72 711,-2102.72 707,-2102.72 707,-2098.72 711,-2098.72 711,-2078.72 707,-2078.72 707,-2074.72 711,-2074.72 711,-2070.72 879,-2070.72 879,-2106.72"/>
<polyline fill="none" stroke="black" points="711,-2102.72 715,-2102.72 715,-2098.72 711,-2098.72 "/>
<polyline fill="none" stroke="black" points="711,-2078.72 715,-2078.72 715,-2074.72 711,-2074.72 "/>
<text text-anchor="middle" x="795" y="-2085.02" font-family="Times,serif" font-size="14.00">UPDATE_CONTROLS</text>
</a>
</g>
</g>
<!-- COMMENT_9fbc0c0+2&#45;&gt;CALL_9fbc0c0 -->
<g id="edge17" class="edge">
<title>COMMENT_9fbc0c0+2&#45;&gt;CALL_9fbc0c0</title>
<path fill="none" stroke="black" d="M795,-2142.42C795,-2134.7 795,-2125.43 795,-2116.83"/>
<polygon fill="black" stroke="black" points="798.5,-2116.82 795,-2106.82 791.5,-2116.82 798.5,-2116.82"/>
</g>
<!-- CALL_9fbe3e0 -->
<g id="node21" class="node">
<title>CALL_9fbe3e0</title>
<g id="a_node21"><a xlink:href="DUMP_MESH_OUTPUTS.svg" xlink:title="DUMP_MESH_OUTPUTS">
<polygon fill="lightgray" stroke="black" points="893,-2034.72 697,-2034.72 697,-2030.72 693,-2030.72 693,-2026.72 697,-2026.72 697,-2006.72 693,-2006.72 693,-2002.72 697,-2002.72 697,-1998.72 893,-1998.72 893,-2034.72"/>
<polyline fill="none" stroke="black" points="697,-2030.72 701,-2030.72 701,-2026.72 697,-2026.72 "/>
<polyline fill="none" stroke="black" points="697,-2006.72 701,-2006.72 701,-2002.72 697,-2002.72 "/>
<text text-anchor="middle" x="795" y="-2013.02" font-family="Times,serif" font-size="14.00">DUMP_MESH_OUTPUTS</text>
</a>
</g>
</g>
<!-- CALL_9fbc0c0&#45;&gt;CALL_9fbe3e0 -->
<g id="edge18" class="edge">
<title>CALL_9fbc0c0&#45;&gt;CALL_9fbe3e0</title>
<path fill="none" stroke="black" d="M795,-2070.42C795,-2062.7 795,-2053.43 795,-2044.83"/>
<polygon fill="black" stroke="black" points="798.5,-2044.82 795,-2034.82 791.5,-2044.82 798.5,-2044.82"/>
</g>
<!-- COMMENT_9fbc9e0+1 -->
<g id="node22" class="node">
<title>COMMENT_9fbc9e0+1</title>
<polygon fill="none" stroke="black" points="939,-1962.72 645,-1962.72 645,-1926.72 945,-1926.72 945,-1956.72 939,-1962.72"/>
<polyline fill="none" stroke="black" points="939,-1962.72 939,-1956.72 "/>
<polyline fill="none" stroke="black" points="945,-1956.72 939,-1956.72 "/>
<text text-anchor="middle" x="795" y="-1941.02" font-family="Times,serif" font-size="14.00">Dump outputs such as HRR, DEVC, etc.</text>
</g>
<!-- CALL_9fbe3e0&#45;&gt;COMMENT_9fbc9e0+1 -->
<g id="edge19" class="edge">
<title>CALL_9fbe3e0&#45;&gt;COMMENT_9fbc9e0+1</title>
<path fill="none" stroke="black" d="M795,-1998.42C795,-1990.7 795,-1981.43 795,-1972.83"/>
<polygon fill="black" stroke="black" points="798.5,-1972.82 795,-1962.82 791.5,-1972.82 798.5,-1972.82"/>
</g>
<!-- CALL_9fbc9e0 -->
<g id="node23" class="node">
<title>CALL_9fbc9e0</title>
<g id="a_node23"><a xlink:href="DUMP_GLOBAL_OUTPUTS.svg" xlink:title="DUMP_GLOBAL_OUTPUTS">
<polygon fill="lightgray" stroke="black" points="900,-1890.72 690,-1890.72 690,-1886.72 686,-1886.72 686,-1882.72 690,-1882.72 690,-1862.72 686,-1862.72 686,-1858.72 690,-1858.72 690,-1854.72 900,-1854.72 900,-1890.72"/>
<polyline fill="none" stroke="black" points="690,-1886.72 694,-1886.72 694,-1882.72 690,-1882.72 "/>
<polyline fill="none" stroke="black" points="690,-1862.72 694,-1862.72 694,-1858.72 690,-1858.72 "/>
<text text-anchor="middle" x="795" y="-1869.02" font-family="Times,serif" font-size="14.00">DUMP_GLOBAL_OUTPUTS</text>
</a>
</g>
</g>
<!-- COMMENT_9fbc9e0+1&#45;&gt;CALL_9fbc9e0 -->
<g id="edge20" class="edge">
<title>COMMENT_9fbc9e0+1&#45;&gt;CALL_9fbc9e0</title>
<path fill="none" stroke="black" d="M795,-1926.42C795,-1918.7 795,-1909.43 795,-1900.83"/>
<polygon fill="black" stroke="black" points="798.5,-1900.82 795,-1890.82 791.5,-1900.82 798.5,-1900.82"/>
</g>
<!-- COMMENT_9fbe8e0+1 -->
<g id="node24" class="node">
<title>COMMENT_9fbe8e0+1</title>
<polygon fill="none" stroke="black" points="875.5,-1818.72 708.5,-1818.72 708.5,-1782.72 881.5,-1782.72 881.5,-1812.72 875.5,-1818.72"/>
<polyline fill="none" stroke="black" points="875.5,-1818.72 875.5,-1812.72 "/>
<polyline fill="none" stroke="black" points="881.5,-1812.72 875.5,-1812.72 "/>
<text text-anchor="middle" x="795" y="-1797.02" font-family="Times,serif" font-size="14.00">Dump out diagnostics</text>
</g>
<!-- CALL_9fbc9e0&#45;&gt;COMMENT_9fbe8e0+1 -->
<g id="edge21" class="edge">
<title>CALL_9fbc9e0&#45;&gt;COMMENT_9fbe8e0+1</title>
<path fill="none" stroke="black" d="M795,-1854.42C795,-1846.7 795,-1837.43 795,-1828.83"/>
<polygon fill="black" stroke="black" points="798.5,-1828.82 795,-1818.82 791.5,-1828.82 798.5,-1828.82"/>
</g>
<!-- CALL_9fbe8e0 -->
<g id="node25" class="node">
<title>CALL_9fbe8e0</title>
<g id="a_node25"><a xlink:href="WRITE_STRINGS.svg" xlink:title="WRITE_STRINGS">
<polygon fill="lightgray" stroke="black" points="865,-1746.72 725,-1746.72 725,-1742.72 721,-1742.72 721,-1738.72 725,-1738.72 725,-1718.72 721,-1718.72 721,-1714.72 725,-1714.72 725,-1710.72 865,-1710.72 865,-1746.72"/>
<polyline fill="none" stroke="black" points="725,-1742.72 729,-1742.72 729,-1738.72 725,-1738.72 "/>
<polyline fill="none" stroke="black" points="725,-1718.72 729,-1718.72 729,-1714.72 725,-1714.72 "/>
<text text-anchor="middle" x="795" y="-1725.02" font-family="Times,serif" font-size="14.00">WRITE_STRINGS</text>
</a>
</g>
</g>
<!-- COMMENT_9fbe8e0+1&#45;&gt;CALL_9fbe8e0 -->
<g id="edge22" class="edge">
<title>COMMENT_9fbe8e0+1&#45;&gt;CALL_9fbe8e0</title>
<path fill="none" stroke="black" d="M795,-1782.42C795,-1774.7 795,-1765.43 795,-1756.83"/>
<polygon fill="black" stroke="black" points="798.5,-1756.82 795,-1746.82 791.5,-1756.82 798.5,-1756.82"/>
</g>
<!-- CALL_9fbf420 -->
<g id="node26" class="node">
<title>CALL_9fbf420</title>
<g id="a_node26"><a xlink:href="EXCHANGE_DIAGNOSTICS.svg" xlink:title="EXCHANGE_DIAGNOSTICS">
<polygon fill="lightgray" stroke="black" points="902.5,-1674.72 687.5,-1674.72 687.5,-1670.72 683.5,-1670.72 683.5,-1666.72 687.5,-1666.72 687.5,-1646.72 683.5,-1646.72 683.5,-1642.72 687.5,-1642.72 687.5,-1638.72 902.5,-1638.72 902.5,-1674.72"/>
<polyline fill="none" stroke="black" points="687.5,-1670.72 691.5,-1670.72 691.5,-1666.72 687.5,-1666.72 "/>
<polyline fill="none" stroke="black" points="687.5,-1646.72 691.5,-1646.72 691.5,-1642.72 687.5,-1642.72 "/>
<text text-anchor="middle" x="795" y="-1653.02" font-family="Times,serif" font-size="14.00">EXCHANGE_DIAGNOSTICS</text>
</a>
</g>
</g>
<!-- CALL_9fbe8e0&#45;&gt;CALL_9fbf420 -->
<g id="edge23" class="edge">
<title>CALL_9fbe8e0&#45;&gt;CALL_9fbf420</title>
<path fill="none" stroke="black" d="M795,-1710.42C795,-1702.7 795,-1693.43 795,-1684.83"/>
<polygon fill="black" stroke="black" points="798.5,-1684.82 795,-1674.82 791.5,-1684.82 798.5,-1684.82"/>
</g>
<!-- CALL_9fbf7c0 -->
<g id="node27" class="node">
<title>CALL_9fbf7c0</title>
<g id="a_node27"><a xlink:href="WRITE_DIAGNOSTICS.svg" xlink:title="WRITE_DIAGNOSTICS">
<polygon fill="lightgray" stroke="black" points="884,-1602.72 706,-1602.72 706,-1598.72 702,-1598.72 702,-1594.72 706,-1594.72 706,-1574.72 702,-1574.72 702,-1570.72 706,-1570.72 706,-1566.72 884,-1566.72 884,-1602.72"/>
<polyline fill="none" stroke="black" points="706,-1598.72 710,-1598.72 710,-1594.72 706,-1594.72 "/>
<polyline fill="none" stroke="black" points="706,-1574.72 710,-1574.72 710,-1570.72 706,-1570.72 "/>
<text text-anchor="middle" x="795" y="-1581.02" font-family="Times,serif" font-size="14.00">WRITE_DIAGNOSTICS</text>
</a>
</g>
</g>
<!-- CALL_9fbf420&#45;&gt;CALL_9fbf7c0 -->
<g id="edge24" class="edge">
<title>CALL_9fbf420&#45;&gt;CALL_9fbf7c0</title>
<path fill="none" stroke="black" d="M795,-1638.42C795,-1630.7 795,-1621.43 795,-1612.83"/>
<polygon fill="black" stroke="black" points="798.5,-1612.82 795,-1602.82 791.5,-1612.82 798.5,-1612.82"/>
</g>
<!-- COMMENT_9fe1260+1 -->
<g id="node28" class="node">
<title>COMMENT_9fe1260+1</title>
<polygon fill="none" stroke="black" points="883.5,-1530.72 700.5,-1530.72 700.5,-1494.72 889.5,-1494.72 889.5,-1524.72 883.5,-1530.72"/>
<polyline fill="none" stroke="black" points="883.5,-1530.72 883.5,-1524.72 "/>
<polyline fill="none" stroke="black" points="889.5,-1524.72 883.5,-1524.72 "/>
<text text-anchor="middle" x="795" y="-1509.02" font-family="Times,serif" font-size="14.00">Flush output file buffers</text>
</g>
<!-- CALL_9fbf7c0&#45;&gt;COMMENT_9fe1260+1 -->
<g id="edge25" class="edge">
<title>CALL_9fbf7c0&#45;&gt;COMMENT_9fe1260+1</title>
<path fill="none" stroke="black" d="M795,-1566.42C795,-1558.7 795,-1549.43 795,-1540.83"/>
<polygon fill="black" stroke="black" points="798.5,-1540.82 795,-1530.82 791.5,-1540.82 798.5,-1540.82"/>
</g>
<!-- CALL_9fe1120 -->
<g id="node29" class="node">
<title>CALL_9fe1120</title>
<g id="a_node29"><a xlink:href="FLUSH_GLOBAL_BUFFERS.svg" xlink:title="FLUSH_GLOBAL_BUFFERS">
<polygon fill="lightgray" stroke="black" points="902.5,-1458.72 687.5,-1458.72 687.5,-1454.72 683.5,-1454.72 683.5,-1450.72 687.5,-1450.72 687.5,-1430.72 683.5,-1430.72 683.5,-1426.72 687.5,-1426.72 687.5,-1422.72 902.5,-1422.72 902.5,-1458.72"/>
<polyline fill="none" stroke="black" points="687.5,-1454.72 691.5,-1454.72 691.5,-1450.72 687.5,-1450.72 "/>
<polyline fill="none" stroke="black" points="687.5,-1430.72 691.5,-1430.72 691.5,-1426.72 687.5,-1426.72 "/>
<text text-anchor="middle" x="795" y="-1437.02" font-family="Times,serif" font-size="14.00">FLUSH_GLOBAL_BUFFERS</text>
</a>
</g>
</g>
<!-- COMMENT_9fe1260+1&#45;&gt;CALL_9fe1120 -->
<g id="edge26" class="edge">
<title>COMMENT_9fe1260+1&#45;&gt;CALL_9fe1120</title>
<path fill="none" stroke="black" d="M795,-1494.42C795,-1486.7 795,-1477.43 795,-1468.83"/>
<polygon fill="black" stroke="black" points="798.5,-1468.82 795,-1458.82 791.5,-1468.82 798.5,-1468.82"/>
</g>
<!-- CALL_9fe03c0 -->
<g id="node30" class="node">
<title>CALL_9fe03c0</title>
<g id="a_node30"><a xlink:href="MPI_BARRIER.svg" xlink:title="MPI_BARRIER">
<polygon fill="#ffe800" stroke="black" points="855,-1386.72 735,-1386.72 735,-1382.72 731,-1382.72 731,-1378.72 735,-1378.72 735,-1358.72 731,-1358.72 731,-1354.72 735,-1354.72 735,-1350.72 855,-1350.72 855,-1386.72"/>
<polyline fill="none" stroke="black" points="735,-1382.72 739,-1382.72 739,-1378.72 735,-1378.72 "/>
<polyline fill="none" stroke="black" points="735,-1358.72 739,-1358.72 739,-1354.72 735,-1354.72 "/>
<text text-anchor="middle" x="795" y="-1365.02" font-family="Times,serif" font-size="14.00">MPI_BARRIER</text>
</a>
</g>
</g>
<!-- CALL_9fe1120&#45;&gt;CALL_9fe03c0 -->
<g id="edge27" class="edge">
<title>CALL_9fe1120&#45;&gt;CALL_9fe03c0</title>
<path fill="none" stroke="black" d="M795,-1422.42C795,-1414.7 795,-1405.43 795,-1396.83"/>
<polygon fill="black" stroke="black" points="798.5,-1396.82 795,-1386.82 791.5,-1396.82 798.5,-1396.82"/>
</g>
<!-- CALL_9fe3d80 -->
<g id="node31" class="node">
<title>CALL_9fe3d80</title>
<g id="a_node31"><a xlink:href="FLUSH_LOCAL_BUFFERS.svg" xlink:title="FLUSH_LOCAL_BUFFERS">
<polygon fill="lightgray" stroke="black" points="897,-1314.72 693,-1314.72 693,-1310.72 689,-1310.72 689,-1306.72 693,-1306.72 693,-1286.72 689,-1286.72 689,-1282.72 693,-1282.72 693,-1278.72 897,-1278.72 897,-1314.72"/>
<polyline fill="none" stroke="black" points="693,-1310.72 697,-1310.72 697,-1306.72 693,-1306.72 "/>
<polyline fill="none" stroke="black" points="693,-1286.72 697,-1286.72 697,-1282.72 693,-1282.72 "/>
<text text-anchor="middle" x="795" y="-1293.02" font-family="Times,serif" font-size="14.00">FLUSH_LOCAL_BUFFERS</text>
</a>
</g>
</g>
<!-- CALL_9fe03c0&#45;&gt;CALL_9fe3d80 -->
<g id="edge28" class="edge">
<title>CALL_9fe03c0&#45;&gt;CALL_9fe3d80</title>
<path fill="none" stroke="black" d="M795,-1350.42C795,-1342.7 795,-1333.43 795,-1324.83"/>
<polygon fill="black" stroke="black" points="798.5,-1324.82 795,-1314.82 791.5,-1324.82 798.5,-1324.82"/>
</g>
<!-- COMMENT_9fe4c20+1 -->
<g id="node32" class="node">
<title>COMMENT_9fe4c20+1</title>
<polygon fill="none" stroke="black" points="910,-1242.72 674,-1242.72 674,-1206.72 916,-1206.72 916,-1236.72 910,-1242.72"/>
<polyline fill="none" stroke="black" points="910,-1242.72 910,-1236.72 "/>
<polyline fill="none" stroke="black" points="916,-1236.72 910,-1236.72 "/>
<text text-anchor="middle" x="795" y="-1221.02" font-family="Times,serif" font-size="14.00">Dump a restart file if necessary</text>
</g>
<!-- CALL_9fe3d80&#45;&gt;COMMENT_9fe4c20+1 -->
<g id="edge29" class="edge">
<title>CALL_9fe3d80&#45;&gt;COMMENT_9fe4c20+1</title>
<path fill="none" stroke="black" d="M795,-1278.42C795,-1270.7 795,-1261.43 795,-1252.83"/>
<polygon fill="black" stroke="black" points="798.5,-1252.82 795,-1242.82 791.5,-1252.82 798.5,-1252.82"/>
</g>
<!-- CALL_9fe9fa0 -->
<g id="node33" class="node">
<title>CALL_9fe9fa0</title>
<g id="a_node33"><a xlink:href="MPI_ALLGATHERV.svg" xlink:title="MPI_ALLGATHERV">
<polygon fill="#ffe800" stroke="black" points="871,-1170.72 719,-1170.72 719,-1166.72 715,-1166.72 715,-1162.72 719,-1162.72 719,-1142.72 715,-1142.72 715,-1138.72 719,-1138.72 719,-1134.72 871,-1134.72 871,-1170.72"/>
<polyline fill="none" stroke="black" points="719,-1166.72 723,-1166.72 723,-1162.72 719,-1162.72 "/>
<polyline fill="none" stroke="black" points="719,-1142.72 723,-1142.72 723,-1138.72 719,-1138.72 "/>
<text text-anchor="middle" x="795" y="-1149.02" font-family="Times,serif" font-size="14.00">MPI_ALLGATHERV</text>
</a>
</g>
</g>
<!-- COMMENT_9fe4c20+1&#45;&gt;CALL_9fe9fa0 -->
<g id="edge30" class="edge">
<title>COMMENT_9fe4c20+1&#45;&gt;CALL_9fe9fa0</title>
<path fill="none" stroke="black" d="M795,-1206.42C795,-1198.7 795,-1189.43 795,-1180.83"/>
<polygon fill="black" stroke="black" points="798.5,-1180.82 795,-1170.82 791.5,-1180.82 798.5,-1180.82"/>
</g>
<!-- CALL_9fecba0 -->
<g id="node34" class="node">
<title>CALL_9fecba0</title>
<g id="a_node34"><a xlink:href="DUMP_RESTART.svg" xlink:title="DUMP_RESTART">
<polygon fill="lightgray" stroke="black" points="864.5,-1098.72 725.5,-1098.72 725.5,-1094.72 721.5,-1094.72 721.5,-1090.72 725.5,-1090.72 725.5,-1070.72 721.5,-1070.72 721.5,-1066.72 725.5,-1066.72 725.5,-1062.72 864.5,-1062.72 864.5,-1098.72"/>
<polyline fill="none" stroke="black" points="725.5,-1094.72 729.5,-1094.72 729.5,-1090.72 725.5,-1090.72 "/>
<polyline fill="none" stroke="black" points="725.5,-1070.72 729.5,-1070.72 729.5,-1066.72 725.5,-1066.72 "/>
<text text-anchor="middle" x="795" y="-1077.02" font-family="Times,serif" font-size="14.00">DUMP_RESTART</text>
</a>
</g>
</g>
<!-- CALL_9fe9fa0&#45;&gt;CALL_9fecba0 -->
<g id="edge31" class="edge">
<title>CALL_9fe9fa0&#45;&gt;CALL_9fecba0</title>
<path fill="none" stroke="black" d="M795,-1134.42C795,-1126.7 795,-1117.43 795,-1108.83"/>
<polygon fill="black" stroke="black" points="798.5,-1108.82 795,-1098.82 791.5,-1108.82 798.5,-1108.82"/>
</g>
<!-- COMMENT_9fee920+1 -->
<g id="node35" class="node">
<title>COMMENT_9fee920+1</title>
<polygon fill="none" stroke="black" points="899.5,-1026.72 684.5,-1026.72 684.5,-990.72 905.5,-990.72 905.5,-1020.72 899.5,-1026.72"/>
<polyline fill="none" stroke="black" points="899.5,-1026.72 899.5,-1020.72 "/>
<polyline fill="none" stroke="black" points="905.5,-1020.72 899.5,-1020.72 "/>
<text text-anchor="middle" x="795" y="-1005.02" font-family="Times,serif" font-size="14.00">Check for abnormal run stop</text>
</g>
<!-- CALL_9fecba0&#45;&gt;COMMENT_9fee920+1 -->
<g id="edge32" class="edge">
<title>CALL_9fecba0&#45;&gt;COMMENT_9fee920+1</title>
<path fill="none" stroke="black" d="M795,-1062.42C795,-1054.7 795,-1045.43 795,-1036.83"/>
<polygon fill="black" stroke="black" points="798.5,-1036.82 795,-1026.82 791.5,-1036.82 798.5,-1036.82"/>
</g>
<!-- CALL_9fee920 -->
<g id="node36" class="node">
<title>CALL_9fee920</title>
<g id="a_node36"><a xlink:href="STOP_CHECK.svg" xlink:title="STOP_CHECK">
<polygon fill="lightgray" stroke="black" points="853.5,-954.72 736.5,-954.72 736.5,-950.72 732.5,-950.72 732.5,-946.72 736.5,-946.72 736.5,-926.72 732.5,-926.72 732.5,-922.72 736.5,-922.72 736.5,-918.72 853.5,-918.72 853.5,-954.72"/>
<polyline fill="none" stroke="black" points="736.5,-950.72 740.5,-950.72 740.5,-946.72 736.5,-946.72 "/>
<polyline fill="none" stroke="black" points="736.5,-926.72 740.5,-926.72 740.5,-922.72 736.5,-922.72 "/>
<text text-anchor="middle" x="795" y="-933.02" font-family="Times,serif" font-size="14.00">STOP_CHECK</text>
</a>
</g>
</g>
<!-- COMMENT_9fee920+1&#45;&gt;CALL_9fee920 -->
<g id="edge33" class="edge">
<title>COMMENT_9fee920+1&#45;&gt;CALL_9fee920</title>
<path fill="none" stroke="black" d="M795,-990.42C795,-982.7 795,-973.43 795,-964.83"/>
<polygon fill="black" stroke="black" points="798.5,-964.82 795,-954.82 791.5,-964.82 798.5,-964.82"/>
</g>
<!-- COMMENT_9fed1c0+1 -->
<g id="node37" class="node">
<title>COMMENT_9fed1c0+1</title>
<polygon fill="none" stroke="black" points="876,-882.72 708,-882.72 708,-846.72 882,-846.72 882,-876.72 876,-882.72"/>
<polyline fill="none" stroke="black" points="876,-882.72 876,-876.72 "/>
<polyline fill="none" stroke="black" points="882,-876.72 876,-876.72 "/>
<text text-anchor="middle" x="795" y="-861.02" font-family="Times,serif" font-size="14.00">Stop the run normally</text>
</g>
<!-- CALL_9fee920&#45;&gt;COMMENT_9fed1c0+1 -->
<g id="edge34" class="edge">
<title>CALL_9fee920&#45;&gt;COMMENT_9fed1c0+1</title>
<path fill="none" stroke="black" d="M795,-918.42C795,-910.7 795,-901.43 795,-892.83"/>
<polygon fill="black" stroke="black" points="798.5,-892.82 795,-882.82 791.5,-892.82 798.5,-892.82"/>
</g>
<!-- CALL_9fef340 -->
<g id="node38" class="node">
<title>CALL_9fef340</title>
<g id="a_node38"><a xlink:href="VERBOSE_PRINTOUT.svg" xlink:title="VERBOSE_PRINTOUT">
<polygon fill="lightgray" stroke="black" points="882.5,-810.72 707.5,-810.72 707.5,-806.72 703.5,-806.72 703.5,-802.72 707.5,-802.72 707.5,-782.72 703.5,-782.72 703.5,-778.72 707.5,-778.72 707.5,-774.72 882.5,-774.72 882.5,-810.72"/>
<polyline fill="none" stroke="black" points="707.5,-806.72 711.5,-806.72 711.5,-802.72 707.5,-802.72 "/>
<polyline fill="none" stroke="black" points="707.5,-782.72 711.5,-782.72 711.5,-778.72 707.5,-778.72 "/>
<text text-anchor="middle" x="795" y="-789.02" font-family="Times,serif" font-size="14.00">VERBOSE_PRINTOUT</text>
</a>
</g>
</g>
<!-- COMMENT_9fed1c0+1&#45;&gt;CALL_9fef340 -->
<g id="edge35" class="edge">
<title>COMMENT_9fed1c0+1&#45;&gt;CALL_9fef340</title>
<path fill="none" stroke="black" d="M795,-846.42C795,-838.7 795,-829.43 795,-820.83"/>
<polygon fill="black" stroke="black" points="798.5,-820.82 795,-810.82 791.5,-820.82 798.5,-820.82"/>
</g>
<!-- CALL_9fef340&#45;&gt;endDO_DO_9fa72e0 -->
<g id="edge37" class="edge">
<title>CALL_9fef340&#45;&gt;endDO_DO_9fa72e0</title>
<path fill="none" stroke="black" d="M795,-774.66C795,-759.65 795,-739.99 795,-738.78"/>
</g>
<!-- COMMENT_9feee40+2 -->
<g id="node40" class="node">
<title>COMMENT_9feee40+2</title>
<polygon fill="none" stroke="black" points="978,-613 606,-613 606,-577 984,-577 984,-607 978,-613"/>
<polyline fill="none" stroke="black" points="978,-613 978,-607 "/>
<polyline fill="none" stroke="black" points="984,-607 978,-607 "/>
<text text-anchor="middle" x="795" y="-591.3" font-family="Times,serif" font-size="14.00">Deallocate GLMAT_SOLVER_H variables if needed:</text>
</g>
<!-- COMMENT_9feee40+1&#45;&gt;COMMENT_9feee40+2 -->
<g id="edge39" class="edge">
<title>COMMENT_9feee40+1&#45;&gt;COMMENT_9feee40+2</title>
<path fill="none" stroke="black" d="M795,-648.8C795,-640.71 795,-631.76 795,-623.55"/>
<polygon fill="black" stroke="black" points="798.5,-623.33 795,-613.33 791.5,-623.33 798.5,-623.33"/>
</g>
<!-- CALL_9ff1480 -->
<g id="node41" class="node">
<title>CALL_9ff1480</title>
<g id="a_node41"><a xlink:href="FINISH_ULMAT_SOLVER.svg" xlink:title="FINISH_ULMAT_SOLVER">
<polygon fill="lightgray" stroke="black" points="893.5,-541 696.5,-541 696.5,-537 692.5,-537 692.5,-533 696.5,-533 696.5,-513 692.5,-513 692.5,-509 696.5,-509 696.5,-505 893.5,-505 893.5,-541"/>
<polyline fill="none" stroke="black" points="696.5,-537 700.5,-537 700.5,-533 696.5,-533 "/>
<polyline fill="none" stroke="black" points="696.5,-513 700.5,-513 700.5,-509 696.5,-509 "/>
<text text-anchor="middle" x="795" y="-519.3" font-family="Times,serif" font-size="14.00">FINISH_ULMAT_SOLVER</text>
</a>
</g>
</g>
<!-- COMMENT_9feee40+2&#45;&gt;CALL_9ff1480 -->
<g id="edge40" class="edge">
<title>COMMENT_9feee40+2&#45;&gt;CALL_9ff1480</title>
<path fill="none" stroke="black" d="M795,-576.7C795,-568.98 795,-559.71 795,-551.11"/>
<polygon fill="black" stroke="black" points="798.5,-551.1 795,-541.1 791.5,-551.1 798.5,-551.1"/>
</g>
<!-- CALL_9ff4840 -->
<g id="node42" class="node">
<title>CALL_9ff4840</title>
<g id="a_node42"><a xlink:href="FINISH_GLMAT_SOLVER.svg" xlink:title="FINISH_GLMAT_SOLVER">
<polygon fill="lightgray" stroke="black" points="893,-469 697,-469 697,-465 693,-465 693,-461 697,-461 697,-441 693,-441 693,-437 697,-437 697,-433 893,-433 893,-469"/>
<polyline fill="none" stroke="black" points="697,-465 701,-465 701,-461 697,-461 "/>
<polyline fill="none" stroke="black" points="697,-441 701,-441 701,-437 697,-437 "/>
<text text-anchor="middle" x="795" y="-447.3" font-family="Times,serif" font-size="14.00">FINISH_GLMAT_SOLVER</text>
</a>
</g>
</g>
<!-- CALL_9ff1480&#45;&gt;CALL_9ff4840 -->
<g id="edge41" class="edge">
<title>CALL_9ff1480&#45;&gt;CALL_9ff4840</title>
<path fill="none" stroke="black" d="M795,-504.7C795,-496.98 795,-487.71 795,-479.11"/>
<polygon fill="black" stroke="black" points="798.5,-479.1 795,-469.1 791.5,-479.1 798.5,-479.1"/>
</g>
<!-- COMMENT_9ff5040+1 -->
<g id="node43" class="node">
<title>COMMENT_9ff5040+1</title>
<polygon fill="none" stroke="black" points="905,-397 679,-397 679,-361 911,-361 911,-391 905,-397"/>
<polyline fill="none" stroke="black" points="905,-397 905,-391 "/>
<polyline fill="none" stroke="black" points="911,-391 905,-391 "/>
<text text-anchor="middle" x="795" y="-375.3" font-family="Times,serif" font-size="14.00">Finish unstructured geometry</text>
</g>
<!-- CALL_9ff4840&#45;&gt;COMMENT_9ff5040+1 -->
<g id="edge42" class="edge">
<title>CALL_9ff4840&#45;&gt;COMMENT_9ff5040+1</title>
<path fill="none" stroke="black" d="M795,-432.7C795,-424.98 795,-415.71 795,-407.11"/>
<polygon fill="black" stroke="black" points="798.5,-407.1 795,-397.1 791.5,-407.1 798.5,-407.1"/>
</g>
<!-- CALL_9fe2120 -->
<g id="node44" class="node">
<title>CALL_9fe2120</title>
<g id="a_node44"><a xlink:href="FINISH_CC.svg" xlink:title="FINISH_CC">
<polygon fill="lightgray" stroke="black" points="844,-325 746,-325 746,-321 742,-321 742,-317 746,-317 746,-297 742,-297 742,-293 746,-293 746,-289 844,-289 844,-325"/>
<polyline fill="none" stroke="black" points="746,-321 750,-321 750,-317 746,-317 "/>
<polyline fill="none" stroke="black" points="746,-297 750,-297 750,-293 746,-293 "/>
<text text-anchor="middle" x="795" y="-303.3" font-family="Times,serif" font-size="14.00">FINISH_CC</text>
</a>
</g>
</g>
<!-- COMMENT_9ff5040+1&#45;&gt;CALL_9fe2120 -->
<g id="edge43" class="edge">
<title>COMMENT_9ff5040+1&#45;&gt;CALL_9fe2120</title>
<path fill="none" stroke="black" d="M795,-360.7C795,-352.98 795,-343.71 795,-335.11"/>
<polygon fill="black" stroke="black" points="798.5,-335.1 795,-325.1 791.5,-335.1 798.5,-335.1"/>
</g>
<!-- COMMENT_9ff4460+1 -->
<g id="node45" class="node">
<title>COMMENT_9ff4460+1</title>
<polygon fill="none" stroke="black" points="868.5,-253 715.5,-253 715.5,-217 874.5,-217 874.5,-247 868.5,-253"/>
<polyline fill="none" stroke="black" points="868.5,-253 868.5,-247 "/>
<polyline fill="none" stroke="black" points="874.5,-247 868.5,-247 "/>
<text text-anchor="middle" x="795" y="-231.3" font-family="Times,serif" font-size="14.00">Stop the calculation</text>
</g>
<!-- CALL_9fe2120&#45;&gt;COMMENT_9ff4460+1 -->
<g id="edge44" class="edge">
<title>CALL_9fe2120&#45;&gt;COMMENT_9ff4460+1</title>
<path fill="none" stroke="black" d="M795,-288.7C795,-280.98 795,-271.71 795,-263.11"/>
<polygon fill="black" stroke="black" points="798.5,-263.1 795,-253.1 791.5,-263.1 798.5,-263.1"/>
</g>
<!-- CALL_9ff4460 -->
<g id="node46" class="node">
<title>CALL_9ff4460</title>
<g id="a_node46"><a xlink:href="END_FDS.svg" xlink:title="END_FDS">
<polygon fill="lightgray" stroke="black" points="839,-181 751,-181 751,-177 747,-177 747,-173 751,-173 751,-153 747,-153 747,-149 751,-149 751,-145 839,-145 839,-181"/>
<polyline fill="none" stroke="black" points="751,-177 755,-177 755,-173 751,-173 "/>
<polyline fill="none" stroke="black" points="751,-153 755,-153 755,-149 751,-149 "/>
<text text-anchor="middle" x="795" y="-159.3" font-family="Times,serif" font-size="14.00">END_FDS</text>
</a>
</g>
</g>
<!-- COMMENT_9ff4460+1&#45;&gt;CALL_9ff4460 -->
<g id="edge45" class="edge">
<title>COMMENT_9ff4460+1&#45;&gt;CALL_9ff4460</title>
<path fill="none" stroke="black" d="M795,-216.7C795,-208.98 795,-199.71 795,-191.11"/>
<polygon fill="black" stroke="black" points="798.5,-191.1 795,-181.1 791.5,-191.1 798.5,-191.1"/>
</g>
<!-- COMMENT_9ff47e0+1 -->
<g id="node47" class="node">
<title>COMMENT_9ff47e0+1</title>
<polygon fill="none" stroke="black" points="1029,-109 555,-109 555,-73 1035,-73 1035,-103 1029,-109"/>
<polyline fill="none" stroke="black" points="1029,-109 1029,-103 "/>
<polyline fill="none" stroke="black" points="1035,-103 1029,-103 "/>
<text text-anchor="middle" x="795" y="-87.3" font-family="Times,serif" font-size="14.00">This is the end of program. Supporting routines are listed below.</text>
</g>
<!-- CALL_9ff4460&#45;&gt;COMMENT_9ff47e0+1 -->
<g id="edge46" class="edge">
<title>CALL_9ff4460&#45;&gt;COMMENT_9ff47e0+1</title>
<path fill="none" stroke="black" d="M795,-144.7C795,-136.98 795,-127.71 795,-119.11"/>
<polygon fill="black" stroke="black" points="798.5,-119.1 795,-109.1 791.5,-119.1 798.5,-119.1"/>
</g>
<!-- end_0 -->
<g id="node48" class="node">
<title>end_0</title>
<ellipse fill="black" stroke="black" cx="795" cy="-30" rx="7" ry="7"/>
</g>
<!-- COMMENT_9ff47e0+1&#45;&gt;end_0 -->
<g id="edge47" class="edge">
<title>COMMENT_9ff47e0+1&#45;&gt;end_0</title>
<path fill="none" stroke="black" d="M795,-72.93C795,-64.89 795,-55.33 795,-47.37"/>
<polygon fill="black" stroke="black" points="798.5,-47.22 795,-37.22 791.5,-47.22 798.5,-47.22"/>
</g>
</g>
</svg>
