<?xml version="1.0" encoding="UTF-8" standalone="no"?>
<!DOCTYPE svg PUBLIC "-//W3C//DTD SVG 1.1//EN"
 "http://www.w3.org/Graphics/SVG/1.1/DTD/svg11.dtd">
<!-- Generated by graphviz version 2.43.0 (0)
 -->
<!-- Title: program Pages: 1 -->
<svg width="1598pt" height="3336pt"
 viewBox="0.00 0.00 1598.00 3336.00" xmlns="http://www.w3.org/2000/svg" xmlns:xlink="http://www.w3.org/1999/xlink">
<g id="graph0" class="graph" transform="scale(1 1) rotate(0) translate(4 3332)">
<title>program</title>
<polygon fill="white" stroke="transparent" points="-4,4 -4,-3332 1594,-3332 1594,4 -4,4"/>
<text text-anchor="middle" x="795" y="-7.8" font-family="Times,serif" font-size="14.00">program</text>
<g id="clust1" class="cluster">
<title>cluster_MAIN_LOOP</title>
<polygon fill="none" stroke="orange" points="8,-730 8,-2927 1582,-2927 1582,-730 8,-730"/>
<text text-anchor="middle" x="61" y="-2911.8" font-family="Times,serif" font-size="14.00">MAIN_LOOP</text>
</g>
<!-- start_0 -->
<g id="node1" class="node">
<title>start_0</title>
<ellipse fill="none" stroke="black" cx="795" cy="-3321" rx="7" ry="7"/>
</g>
<!-- COMMENT_9405a20+1 -->
<g id="node2" class="node">
<title>COMMENT_9405a20+1</title>
<polygon fill="none" stroke="black" points="1171.5,-3278 412.5,-3278 412.5,-3240 1177.5,-3240 1177.5,-3272 1171.5,-3278"/>
<polyline fill="none" stroke="black" points="1171.5,-3278 1171.5,-3272 "/>
<polyline fill="none" stroke="black" points="1177.5,-3272 1171.5,-3272 "/>
<text text-anchor="middle" x="795" y="-3262.8" font-family="Times,serif" font-size="14.00">!&gt; brief Fire Dynamics Simulator (FDS) is a computational fluid dynamics (CFD) code designed to model</text>
<text text-anchor="middle" x="795" y="-3247.8" font-family="Times,serif" font-size="14.00">!&gt; fire and other thermal phenomena.</text>
</g>
<!-- start_0&#45;&gt;COMMENT_9405a20+1 -->
<g id="edge1" class="edge">
<title>start_0&#45;&gt;COMMENT_9405a20+1</title>
<path fill="none" stroke="black" d="M795,-3313.58C795,-3307.41 795,-3297.64 795,-3288.12"/>
<polygon fill="black" stroke="black" points="798.5,-3288.08 795,-3278.08 791.5,-3288.08 798.5,-3288.08"/>
</g>
<!-- COMMENT_940fee0+1 -->
<g id="node3" class="node">
<title>COMMENT_940fee0+1</title>
<polygon fill="none" stroke="black" points="894,-3204 690,-3204 690,-3168 900,-3168 900,-3198 894,-3204"/>
<polyline fill="none" stroke="black" points="894,-3204 894,-3198 "/>
<polyline fill="none" stroke="black" points="900,-3198 894,-3198 "/>
<text text-anchor="middle" x="795" y="-3182.3" font-family="Times,serif" font-size="14.00">Miscellaneous declarations</text>
</g>
<!-- COMMENT_9405a20+1&#45;&gt;COMMENT_940fee0+1 -->
<g id="edge2" class="edge">
<title>COMMENT_9405a20+1&#45;&gt;COMMENT_940fee0+1</title>
<path fill="none" stroke="black" d="M795,-3239.72C795,-3231.97 795,-3222.79 795,-3214.27"/>
<polygon fill="black" stroke="black" points="798.5,-3214 795,-3204 791.5,-3214 798.5,-3214"/>
</g>
<!-- COMMENT_7d063e0+1 -->
<g id="node4" class="node">
<title>COMMENT_7d063e0+1</title>
<polygon fill="none" stroke="black" points="830.5,-3132 753.5,-3132 753.5,-3096 836.5,-3096 836.5,-3126 830.5,-3132"/>
<polyline fill="none" stroke="black" points="830.5,-3132 830.5,-3126 "/>
<polyline fill="none" stroke="black" points="836.5,-3126 830.5,-3126 "/>
<text text-anchor="middle" x="795" y="-3110.3" font-family="Times,serif" font-size="14.00">MPI stuff</text>
</g>
<!-- COMMENT_940fee0+1&#45;&gt;COMMENT_7d063e0+1 -->
<g id="edge3" class="edge">
<title>COMMENT_940fee0+1&#45;&gt;COMMENT_7d063e0+1</title>
<path fill="none" stroke="black" d="M795,-3167.7C795,-3159.98 795,-3150.71 795,-3142.11"/>
<polygon fill="black" stroke="black" points="798.5,-3142.1 795,-3132.1 791.5,-3142.1 798.5,-3142.1"/>
</g>
<!-- BEGIN_SECTION_7d0dec0+1 -->
<g id="node5" class="node">
<title>BEGIN_SECTION_7d0dec0+1</title>
<g id="a_node5"><a xlink:href="init.svg" xlink:title="init">
<polygon fill="lightgray" stroke="black" points="822,-3060 780,-3060 780,-3064 768,-3064 768,-3024 822,-3024 822,-3060"/>
<polyline fill="none" stroke="black" points="768,-3060 780,-3060 "/>
<text text-anchor="middle" x="795" y="-3038.3" font-family="Times,serif" font-size="14.00">init</text>
</a>
</g>
</g>
<!-- COMMENT_7d063e0+1&#45;&gt;BEGIN_SECTION_7d0dec0+1 -->
<g id="edge4" class="edge">
<title>COMMENT_7d063e0+1&#45;&gt;BEGIN_SECTION_7d0dec0+1</title>
<path fill="none" stroke="black" d="M795,-3095.7C795,-3087.98 795,-3078.71 795,-3070.11"/>
<polygon fill="black" stroke="black" points="798.5,-3070.1 795,-3060.1 791.5,-3070.1 798.5,-3070.1"/>
</g>
<!-- COMMENT_7d41580+2 -->
<g id="node6" class="node">
<title>COMMENT_7d41580+2</title>
<polygon fill="none" stroke="black" points="1242.5,-2988 341.5,-2988 341.5,-2935 1248.5,-2935 1248.5,-2982 1242.5,-2988"/>
<polyline fill="none" stroke="black" points="1242.5,-2988 1242.5,-2982 "/>
<polyline fill="none" stroke="black" points="1248.5,-2982 1242.5,-2982 "/>
<text text-anchor="middle" x="795" y="-2972.8" font-family="Times,serif" font-size="14.00">!***********************************************************************************************************************************</text>
<text text-anchor="middle" x="795" y="-2957.8" font-family="Times,serif" font-size="14.00"> &#160;&#160;&#160;&#160;&#160;&#160;&#160;&#160;&#160;&#160;&#160;&#160;&#160;&#160;&#160;&#160;&#160;&#160;&#160;&#160;&#160;&#160;&#160;&#160;&#160;&#160;&#160;&#160;&#160;&#160;&#160;&#160;&#160;&#160;&#160;&#160;&#160;&#160;&#160;&#160;&#160;&#160;&#160;&#160;&#160;&#160;&#160;&#160;&#160;MAIN TIMESTEPPING LOOP</text>
<text text-anchor="middle" x="795" y="-2942.8" font-family="Times,serif" font-size="14.00">!***********************************************************************************************************************************</text>
</g>
<!-- BEGIN_SECTION_7d0dec0+1&#45;&gt;COMMENT_7d41580+2 -->
<g id="edge5" class="edge">
<title>BEGIN_SECTION_7d0dec0+1&#45;&gt;COMMENT_7d41580+2</title>
<path fill="none" stroke="black" d="M795,-3023.97C795,-3016.45 795,-3007.31 795,-2998.4"/>
<polygon fill="black" stroke="black" points="798.5,-2998.16 795,-2988.16 791.5,-2998.16 798.5,-2998.16"/>
</g>
<!-- COMMENT_7d418e0+1 -->
<g id="node7" class="node">
<title>COMMENT_7d418e0+1</title>
<polygon fill="none" stroke="black" points="1030,-2896 554,-2896 554,-2860 1036,-2860 1036,-2890 1030,-2896"/>
<polyline fill="none" stroke="black" points="1030,-2896 1030,-2890 "/>
<polyline fill="none" stroke="black" points="1036,-2890 1030,-2890 "/>
<text text-anchor="middle" x="795" y="-2874.3" font-family="Times,serif" font-size="14.00">Do not print out general diagnostics into .out file every time step</text>
</g>
<!-- COMMENT_7d41580+2&#45;&gt;COMMENT_7d418e0+1 -->
<g id="edge35" class="edge">
<title>COMMENT_7d41580+2&#45;&gt;COMMENT_7d418e0+1</title>
<path fill="none" stroke="black" d="M795,-2934.71C795,-2925.66 795,-2915.47 795,-2906.3"/>
<polygon fill="black" stroke="black" points="798.5,-2906.13 795,-2896.13 791.5,-2906.13 798.5,-2906.13"/>
</g>
<!-- COMMENT_7d409e0+1 -->
<g id="node8" class="node">
<title>COMMENT_7d409e0+1</title>
<polygon fill="none" stroke="black" points="886,-2824 698,-2824 698,-2788 892,-2788 892,-2818 886,-2824"/>
<polyline fill="none" stroke="black" points="886,-2824 886,-2818 "/>
<polyline fill="none" stroke="black" points="892,-2818 886,-2818 "/>
<text text-anchor="middle" x="795" y="-2802.3" font-family="Times,serif" font-size="14.00">Check for program stops</text>
</g>
<!-- COMMENT_7d418e0+1&#45;&gt;COMMENT_7d409e0+1 -->
<g id="edge6" class="edge">
<title>COMMENT_7d418e0+1&#45;&gt;COMMENT_7d409e0+1</title>
<path fill="none" stroke="black" d="M795,-2859.7C795,-2851.98 795,-2842.71 795,-2834.11"/>
<polygon fill="black" stroke="black" points="798.5,-2834.1 795,-2824.1 791.5,-2834.1 798.5,-2834.1"/>
</g>
<!-- CALL_7d46740 -->
<g id="node9" class="node">
<title>CALL_7d46740</title>
<g id="a_node9"><a xlink:href="MPI_BCAST.svg" xlink:title="MPI_BCAST">
<polygon fill="#ffe800" stroke="black" points="846,-2752 744,-2752 744,-2748 740,-2748 740,-2744 744,-2744 744,-2724 740,-2724 740,-2720 744,-2720 744,-2716 846,-2716 846,-2752"/>
<polyline fill="none" stroke="black" points="744,-2748 748,-2748 748,-2744 744,-2744 "/>
<polyline fill="none" stroke="black" points="744,-2724 748,-2724 748,-2720 744,-2720 "/>
<text text-anchor="middle" x="795" y="-2730.3" font-family="Times,serif" font-size="14.00">MPI_BCAST</text>
</a>
</g>
</g>
<!-- COMMENT_7d409e0+1&#45;&gt;CALL_7d46740 -->
<g id="edge7" class="edge">
<title>COMMENT_7d409e0+1&#45;&gt;CALL_7d46740</title>
<path fill="none" stroke="black" d="M795,-2787.7C795,-2779.98 795,-2770.71 795,-2762.11"/>
<polygon fill="black" stroke="black" points="798.5,-2762.1 795,-2752.1 791.5,-2762.1 798.5,-2762.1"/>
</g>
<!-- COMMENT_7d4ac80+1 -->
<g id="node10" class="node">
<title>COMMENT_7d4ac80+1</title>
<polygon fill="none" stroke="black" points="962,-2680 622,-2680 622,-2644 968,-2644 968,-2674 962,-2680"/>
<polyline fill="none" stroke="black" points="962,-2680 962,-2674 "/>
<polyline fill="none" stroke="black" points="968,-2674 962,-2674 "/>
<text text-anchor="middle" x="795" y="-2658.3" font-family="Times,serif" font-size="14.00">Check to see if the time step can be increased</text>
</g>
<!-- CALL_7d46740&#45;&gt;COMMENT_7d4ac80+1 -->
<g id="edge8" class="edge">
<title>CALL_7d46740&#45;&gt;COMMENT_7d4ac80+1</title>
<path fill="none" stroke="black" d="M795,-2715.7C795,-2707.98 795,-2698.71 795,-2690.11"/>
<polygon fill="black" stroke="black" points="798.5,-2690.1 795,-2680.1 791.5,-2690.1 798.5,-2690.1"/>
</g>
<!-- COMMENT_7d4d540+1 -->
<g id="node11" class="node">
<title>COMMENT_7d4d540+1</title>
<polygon fill="none" stroke="black" points="865,-2608 719,-2608 719,-2572 871,-2572 871,-2602 865,-2608"/>
<polyline fill="none" stroke="black" points="865,-2608 865,-2602 "/>
<polyline fill="none" stroke="black" points="871,-2602 865,-2602 "/>
<text text-anchor="middle" x="795" y="-2586.3" font-family="Times,serif" font-size="14.00">Clip final time step</text>
</g>
<!-- COMMENT_7d4ac80+1&#45;&gt;COMMENT_7d4d540+1 -->
<g id="edge9" class="edge">
<title>COMMENT_7d4ac80+1&#45;&gt;COMMENT_7d4d540+1</title>
<path fill="none" stroke="black" d="M795,-2643.7C795,-2635.98 795,-2626.71 795,-2618.11"/>
<polygon fill="black" stroke="black" points="798.5,-2618.1 795,-2608.1 791.5,-2618.1 798.5,-2618.1"/>
</g>
<!-- COMMENT_7d4d460+1 -->
<g id="node12" class="node">
<title>COMMENT_7d4d460+1</title>
<polygon fill="none" stroke="black" points="997.5,-2536 586.5,-2536 586.5,-2500 1003.5,-2500 1003.5,-2530 997.5,-2536"/>
<polyline fill="none" stroke="black" points="997.5,-2536 997.5,-2530 "/>
<polyline fill="none" stroke="black" points="1003.5,-2530 997.5,-2530 "/>
<text text-anchor="middle" x="795" y="-2514.3" font-family="Times,serif" font-size="14.00">Determine when to dump out diagnostics to the .out file</text>
</g>
<!-- COMMENT_7d4d540+1&#45;&gt;COMMENT_7d4d460+1 -->
<g id="edge10" class="edge">
<title>COMMENT_7d4d540+1&#45;&gt;COMMENT_7d4d460+1</title>
<path fill="none" stroke="black" d="M795,-2571.7C795,-2563.98 795,-2554.71 795,-2546.11"/>
<polygon fill="black" stroke="black" points="798.5,-2546.1 795,-2536.1 791.5,-2546.1 798.5,-2546.1"/>
</g>
<!-- COMMENT_7d54be0+1 -->
<g id="node13" class="node">
<title>COMMENT_7d54be0+1</title>
<polygon fill="none" stroke="black" points="1568.5,-2464 15.5,-2464 15.5,-2411 1574.5,-2411 1574.5,-2458 1568.5,-2464"/>
<polyline fill="none" stroke="black" points="1568.5,-2464 1568.5,-2458 "/>
<polyline fill="none" stroke="black" points="1574.5,-2458 1568.5,-2458 "/>
<text text-anchor="middle" x="795" y="-2448.8" font-family="Times,serif" font-size="14.00">!================================================================================================================================</text>
<text text-anchor="middle" x="795" y="-2433.8" font-family="Times,serif" font-size="14.00"> &#160;&#160;&#160;&#160;&#160;&#160;&#160;&#160;&#160;&#160;&#160;&#160;&#160;&#160;&#160;&#160;&#160;&#160;&#160;&#160;&#160;&#160;&#160;&#160;&#160;&#160;&#160;&#160;&#160;&#160;&#160;&#160;&#160;&#160;&#160;&#160;&#160;&#160;&#160;&#160;&#160;Start of Predictor part of time step</text>
<text text-anchor="middle" x="795" y="-2418.8" font-family="Times,serif" font-size="14.00">!================================================================================================================================</text>
</g>
<!-- COMMENT_7d4d460+1&#45;&gt;COMMENT_7d54be0+1 -->
<g id="edge11" class="edge">
<title>COMMENT_7d4d460+1&#45;&gt;COMMENT_7d54be0+1</title>
<path fill="none" stroke="black" d="M795,-2499.97C795,-2492.45 795,-2483.31 795,-2474.4"/>
<polygon fill="black" stroke="black" points="798.5,-2474.16 795,-2464.16 791.5,-2474.16 798.5,-2474.16"/>
</g>
<!-- BEGIN_SECTION_7d54be0+2 -->
<g id="node14" class="node">
<title>BEGIN_SECTION_7d54be0+2</title>
<g id="a_node14"><a xlink:href="Predictor.svg" xlink:title="Predictor">
<polygon fill="lightgray" stroke="black" points="836.5,-2375 765.5,-2375 765.5,-2379 753.5,-2379 753.5,-2339 836.5,-2339 836.5,-2375"/>
<polyline fill="none" stroke="black" points="753.5,-2375 765.5,-2375 "/>
<text text-anchor="middle" x="795" y="-2353.3" font-family="Times,serif" font-size="14.00">Predictor</text>
</a>
</g>
</g>
<!-- COMMENT_7d54be0+1&#45;&gt;BEGIN_SECTION_7d54be0+2 -->
<g id="edge12" class="edge">
<title>COMMENT_7d54be0+1&#45;&gt;BEGIN_SECTION_7d54be0+2</title>
<path fill="none" stroke="black" d="M795,-2410.8C795,-2402.71 795,-2393.76 795,-2385.55"/>
<polygon fill="black" stroke="black" points="798.5,-2385.33 795,-2375.33 791.5,-2385.33 798.5,-2385.33"/>
</g>
<!-- COMMENT_8b0c780+2 -->
<g id="node15" class="node">
<title>COMMENT_8b0c780+2</title>
<polygon fill="none" stroke="black" points="1568.5,-2303 15.5,-2303 15.5,-2250 1574.5,-2250 1574.5,-2297 1568.5,-2303"/>
<polyline fill="none" stroke="black" points="1568.5,-2303 1568.5,-2297 "/>
<polyline fill="none" stroke="black" points="1574.5,-2297 1568.5,-2297 "/>
<text text-anchor="middle" x="795" y="-2287.8" font-family="Times,serif" font-size="14.00">!================================================================================================================================</text>
<text text-anchor="middle" x="795" y="-2272.8" font-family="Times,serif" font-size="14.00"> &#160;&#160;&#160;&#160;&#160;&#160;&#160;&#160;&#160;&#160;&#160;&#160;&#160;&#160;&#160;&#160;&#160;&#160;&#160;&#160;&#160;&#160;&#160;&#160;&#160;&#160;&#160;&#160;&#160;&#160;&#160;&#160;&#160;&#160;&#160;&#160;&#160;&#160;&#160;&#160;&#160;Start of Corrector part of time step</text>
<text text-anchor="middle" x="795" y="-2257.8" font-family="Times,serif" font-size="14.00">!================================================================================================================================</text>
</g>
<!-- BEGIN_SECTION_7d54be0+2&#45;&gt;COMMENT_8b0c780+2 -->
<g id="edge13" class="edge">
<title>BEGIN_SECTION_7d54be0+2&#45;&gt;COMMENT_8b0c780+2</title>
<path fill="none" stroke="black" d="M795,-2338.97C795,-2331.45 795,-2322.31 795,-2313.4"/>
<polygon fill="black" stroke="black" points="798.5,-2313.16 795,-2303.16 791.5,-2313.16 798.5,-2313.16"/>
</g>
<!-- BEGIN_SECTION_8b0c780+3 -->
<g id="node16" class="node">
<title>BEGIN_SECTION_8b0c780+3</title>
<g id="a_node16"><a xlink:href="Corrector.svg" xlink:title="Corrector">
<polygon fill="lightgray" stroke="black" points="838,-2214 764,-2214 764,-2218 752,-2218 752,-2178 838,-2178 838,-2214"/>
<polyline fill="none" stroke="black" points="752,-2214 764,-2214 "/>
<text text-anchor="middle" x="795" y="-2192.3" font-family="Times,serif" font-size="14.00">Corrector</text>
</a>
</g>
</g>
<!-- COMMENT_8b0c780+2&#45;&gt;BEGIN_SECTION_8b0c780+3 -->
<g id="edge14" class="edge">
<title>COMMENT_8b0c780+2&#45;&gt;BEGIN_SECTION_8b0c780+3</title>
<path fill="none" stroke="black" d="M795,-2249.8C795,-2241.71 795,-2232.76 795,-2224.55"/>
<polygon fill="black" stroke="black" points="798.5,-2224.33 795,-2214.33 791.5,-2224.33 798.5,-2224.33"/>
</g>
<!-- COMMENT_8bc6ba0+2 -->
<g id="node17" class="node">
<title>COMMENT_8bc6ba0+2</title>
<polygon fill="none" stroke="black" points="953,-2142 631,-2142 631,-2106 959,-2106 959,-2136 953,-2142"/>
<polyline fill="none" stroke="black" points="953,-2142 953,-2136 "/>
<polyline fill="none" stroke="black" points="959,-2136 953,-2136 "/>
<text text-anchor="middle" x="795" y="-2120.3" font-family="Times,serif" font-size="14.00">Check for dumping end of timestep outputs</text>
</g>
<!-- BEGIN_SECTION_8b0c780+3&#45;&gt;COMMENT_8bc6ba0+2 -->
<g id="edge15" class="edge">
<title>BEGIN_SECTION_8b0c780+3&#45;&gt;COMMENT_8bc6ba0+2</title>
<path fill="none" stroke="black" d="M795,-2177.7C795,-2169.98 795,-2160.71 795,-2152.11"/>
<polygon fill="black" stroke="black" points="798.5,-2152.1 795,-2142.1 791.5,-2152.1 798.5,-2152.1"/>
</g>
<!-- CALL_8bc6ba0 -->
<g id="node18" class="node">
<title>CALL_8bc6ba0</title>
<g id="a_node18"><a xlink:href="UPDATE_CONTROLS.svg" xlink:title="UPDATE_CONTROLS">
<polygon fill="lightgray" stroke="black" points="879,-2070 711,-2070 711,-2066 707,-2066 707,-2062 711,-2062 711,-2042 707,-2042 707,-2038 711,-2038 711,-2034 879,-2034 879,-2070"/>
<polyline fill="none" stroke="black" points="711,-2066 715,-2066 715,-2062 711,-2062 "/>
<polyline fill="none" stroke="black" points="711,-2042 715,-2042 715,-2038 711,-2038 "/>
<text text-anchor="middle" x="795" y="-2048.3" font-family="Times,serif" font-size="14.00">UPDATE_CONTROLS</text>
</a>
</g>
</g>
<!-- COMMENT_8bc6ba0+2&#45;&gt;CALL_8bc6ba0 -->
<g id="edge16" class="edge">
<title>COMMENT_8bc6ba0+2&#45;&gt;CALL_8bc6ba0</title>
<path fill="none" stroke="black" d="M795,-2105.7C795,-2097.98 795,-2088.71 795,-2080.11"/>
<polygon fill="black" stroke="black" points="798.5,-2080.1 795,-2070.1 791.5,-2080.1 798.5,-2080.1"/>
</g>
<!-- CALL_8bc8e60 -->
<g id="node19" class="node">
<title>CALL_8bc8e60</title>
<g id="a_node19"><a xlink:href="DUMP_MESH_OUTPUTS.svg" xlink:title="DUMP_MESH_OUTPUTS">
<polygon fill="lightgray" stroke="black" points="893,-1998 697,-1998 697,-1994 693,-1994 693,-1990 697,-1990 697,-1970 693,-1970 693,-1966 697,-1966 697,-1962 893,-1962 893,-1998"/>
<polyline fill="none" stroke="black" points="697,-1994 701,-1994 701,-1990 697,-1990 "/>
<polyline fill="none" stroke="black" points="697,-1970 701,-1970 701,-1966 697,-1966 "/>
<text text-anchor="middle" x="795" y="-1976.3" font-family="Times,serif" font-size="14.00">DUMP_MESH_OUTPUTS</text>
</a>
</g>
</g>
<!-- CALL_8bc6ba0&#45;&gt;CALL_8bc8e60 -->
<g id="edge17" class="edge">
<title>CALL_8bc6ba0&#45;&gt;CALL_8bc8e60</title>
<path fill="none" stroke="black" d="M795,-2033.7C795,-2025.98 795,-2016.71 795,-2008.11"/>
<polygon fill="black" stroke="black" points="798.5,-2008.1 795,-1998.1 791.5,-2008.1 798.5,-2008.1"/>
</g>
<!-- COMMENT_8bc88e0+1 -->
<g id="node20" class="node">
<title>COMMENT_8bc88e0+1</title>
<polygon fill="none" stroke="black" points="939,-1926 645,-1926 645,-1890 945,-1890 945,-1920 939,-1926"/>
<polyline fill="none" stroke="black" points="939,-1926 939,-1920 "/>
<polyline fill="none" stroke="black" points="945,-1920 939,-1920 "/>
<text text-anchor="middle" x="795" y="-1904.3" font-family="Times,serif" font-size="14.00">Dump outputs such as HRR, DEVC, etc.</text>
</g>
<!-- CALL_8bc8e60&#45;&gt;COMMENT_8bc88e0+1 -->
<g id="edge18" class="edge">
<title>CALL_8bc8e60&#45;&gt;COMMENT_8bc88e0+1</title>
<path fill="none" stroke="black" d="M795,-1961.7C795,-1953.98 795,-1944.71 795,-1936.11"/>
<polygon fill="black" stroke="black" points="798.5,-1936.1 795,-1926.1 791.5,-1936.1 798.5,-1936.1"/>
</g>
<!-- CALL_8bc88e0 -->
<g id="node21" class="node">
<title>CALL_8bc88e0</title>
<g id="a_node21"><a xlink:href="DUMP_GLOBAL_OUTPUTS.svg" xlink:title="DUMP_GLOBAL_OUTPUTS">
<polygon fill="lightgray" stroke="black" points="900,-1854 690,-1854 690,-1850 686,-1850 686,-1846 690,-1846 690,-1826 686,-1826 686,-1822 690,-1822 690,-1818 900,-1818 900,-1854"/>
<polyline fill="none" stroke="black" points="690,-1850 694,-1850 694,-1846 690,-1846 "/>
<polyline fill="none" stroke="black" points="690,-1826 694,-1826 694,-1822 690,-1822 "/>
<text text-anchor="middle" x="795" y="-1832.3" font-family="Times,serif" font-size="14.00">DUMP_GLOBAL_OUTPUTS</text>
</a>
</g>
</g>
<!-- COMMENT_8bc88e0+1&#45;&gt;CALL_8bc88e0 -->
<g id="edge19" class="edge">
<title>COMMENT_8bc88e0+1&#45;&gt;CALL_8bc88e0</title>
<path fill="none" stroke="black" d="M795,-1889.7C795,-1881.98 795,-1872.71 795,-1864.11"/>
<polygon fill="black" stroke="black" points="798.5,-1864.1 795,-1854.1 791.5,-1864.1 798.5,-1864.1"/>
</g>
<!-- COMMENT_8bc7560+1 -->
<g id="node22" class="node">
<title>COMMENT_8bc7560+1</title>
<polygon fill="none" stroke="black" points="875.5,-1782 708.5,-1782 708.5,-1746 881.5,-1746 881.5,-1776 875.5,-1782"/>
<polyline fill="none" stroke="black" points="875.5,-1782 875.5,-1776 "/>
<polyline fill="none" stroke="black" points="881.5,-1776 875.5,-1776 "/>
<text text-anchor="middle" x="795" y="-1760.3" font-family="Times,serif" font-size="14.00">Dump out diagnostics</text>
</g>
<!-- CALL_8bc88e0&#45;&gt;COMMENT_8bc7560+1 -->
<g id="edge20" class="edge">
<title>CALL_8bc88e0&#45;&gt;COMMENT_8bc7560+1</title>
<path fill="none" stroke="black" d="M795,-1817.7C795,-1809.98 795,-1800.71 795,-1792.11"/>
<polygon fill="black" stroke="black" points="798.5,-1792.1 795,-1782.1 791.5,-1792.1 798.5,-1792.1"/>
</g>
<!-- CALL_8bc7560 -->
<g id="node23" class="node">
<title>CALL_8bc7560</title>
<g id="a_node23"><a xlink:href="WRITE_STRINGS.svg" xlink:title="WRITE_STRINGS">
<polygon fill="lightgray" stroke="black" points="865,-1710 725,-1710 725,-1706 721,-1706 721,-1702 725,-1702 725,-1682 721,-1682 721,-1678 725,-1678 725,-1674 865,-1674 865,-1710"/>
<polyline fill="none" stroke="black" points="725,-1706 729,-1706 729,-1702 725,-1702 "/>
<polyline fill="none" stroke="black" points="725,-1682 729,-1682 729,-1678 725,-1678 "/>
<text text-anchor="middle" x="795" y="-1688.3" font-family="Times,serif" font-size="14.00">WRITE_STRINGS</text>
</a>
</g>
</g>
<!-- COMMENT_8bc7560+1&#45;&gt;CALL_8bc7560 -->
<g id="edge21" class="edge">
<title>COMMENT_8bc7560+1&#45;&gt;CALL_8bc7560</title>
<path fill="none" stroke="black" d="M795,-1745.7C795,-1737.98 795,-1728.71 795,-1720.11"/>
<polygon fill="black" stroke="black" points="798.5,-1720.1 795,-1710.1 791.5,-1720.1 798.5,-1720.1"/>
</g>
<!-- CALL_8bc6080 -->
<g id="node24" class="node">
<title>CALL_8bc6080</title>
<g id="a_node24"><a xlink:href="EXCHANGE_DIAGNOSTICS.svg" xlink:title="EXCHANGE_DIAGNOSTICS">
<polygon fill="lightgray" stroke="black" points="902.5,-1638 687.5,-1638 687.5,-1634 683.5,-1634 683.5,-1630 687.5,-1630 687.5,-1610 683.5,-1610 683.5,-1606 687.5,-1606 687.5,-1602 902.5,-1602 902.5,-1638"/>
<polyline fill="none" stroke="black" points="687.5,-1634 691.5,-1634 691.5,-1630 687.5,-1630 "/>
<polyline fill="none" stroke="black" points="687.5,-1610 691.5,-1610 691.5,-1606 687.5,-1606 "/>
<text text-anchor="middle" x="795" y="-1616.3" font-family="Times,serif" font-size="14.00">EXCHANGE_DIAGNOSTICS</text>
</a>
</g>
</g>
<!-- CALL_8bc7560&#45;&gt;CALL_8bc6080 -->
<g id="edge22" class="edge">
<title>CALL_8bc7560&#45;&gt;CALL_8bc6080</title>
<path fill="none" stroke="black" d="M795,-1673.7C795,-1665.98 795,-1656.71 795,-1648.11"/>
<polygon fill="black" stroke="black" points="798.5,-1648.1 795,-1638.1 791.5,-1648.1 798.5,-1648.1"/>
</g>
<!-- CALL_8bc9360 -->
<g id="node25" class="node">
<title>CALL_8bc9360</title>
<g id="a_node25"><a xlink:href="WRITE_DIAGNOSTICS.svg" xlink:title="WRITE_DIAGNOSTICS">
<polygon fill="lightgray" stroke="black" points="884,-1566 706,-1566 706,-1562 702,-1562 702,-1558 706,-1558 706,-1538 702,-1538 702,-1534 706,-1534 706,-1530 884,-1530 884,-1566"/>
<polyline fill="none" stroke="black" points="706,-1562 710,-1562 710,-1558 706,-1558 "/>
<polyline fill="none" stroke="black" points="706,-1538 710,-1538 710,-1534 706,-1534 "/>
<text text-anchor="middle" x="795" y="-1544.3" font-family="Times,serif" font-size="14.00">WRITE_DIAGNOSTICS</text>
</a>
</g>
</g>
<!-- CALL_8bc6080&#45;&gt;CALL_8bc9360 -->
<g id="edge23" class="edge">
<title>CALL_8bc6080&#45;&gt;CALL_8bc9360</title>
<path fill="none" stroke="black" d="M795,-1601.7C795,-1593.98 795,-1584.71 795,-1576.11"/>
<polygon fill="black" stroke="black" points="798.5,-1576.1 795,-1566.1 791.5,-1576.1 798.5,-1576.1"/>
</g>
<!-- COMMENT_8bca760+1 -->
<g id="node26" class="node">
<title>COMMENT_8bca760+1</title>
<polygon fill="none" stroke="black" points="883.5,-1494 700.5,-1494 700.5,-1458 889.5,-1458 889.5,-1488 883.5,-1494"/>
<polyline fill="none" stroke="black" points="883.5,-1494 883.5,-1488 "/>
<polyline fill="none" stroke="black" points="889.5,-1488 883.5,-1488 "/>
<text text-anchor="middle" x="795" y="-1472.3" font-family="Times,serif" font-size="14.00">Flush output file buffers</text>
</g>
<!-- CALL_8bc9360&#45;&gt;COMMENT_8bca760+1 -->
<g id="edge24" class="edge">
<title>CALL_8bc9360&#45;&gt;COMMENT_8bca760+1</title>
<path fill="none" stroke="black" d="M795,-1529.7C795,-1521.98 795,-1512.71 795,-1504.11"/>
<polygon fill="black" stroke="black" points="798.5,-1504.1 795,-1494.1 791.5,-1504.1 798.5,-1504.1"/>
</g>
<!-- CALL_8bcba00 -->
<g id="node27" class="node">
<title>CALL_8bcba00</title>
<g id="a_node27"><a xlink:href="FLUSH_GLOBAL_BUFFERS.svg" xlink:title="FLUSH_GLOBAL_BUFFERS">
<polygon fill="lightgray" stroke="black" points="902.5,-1422 687.5,-1422 687.5,-1418 683.5,-1418 683.5,-1414 687.5,-1414 687.5,-1394 683.5,-1394 683.5,-1390 687.5,-1390 687.5,-1386 902.5,-1386 902.5,-1422"/>
<polyline fill="none" stroke="black" points="687.5,-1418 691.5,-1418 691.5,-1414 687.5,-1414 "/>
<polyline fill="none" stroke="black" points="687.5,-1394 691.5,-1394 691.5,-1390 687.5,-1390 "/>
<text text-anchor="middle" x="795" y="-1400.3" font-family="Times,serif" font-size="14.00">FLUSH_GLOBAL_BUFFERS</text>
</a>
</g>
</g>
<!-- COMMENT_8bca760+1&#45;&gt;CALL_8bcba00 -->
<g id="edge25" class="edge">
<title>COMMENT_8bca760+1&#45;&gt;CALL_8bcba00</title>
<path fill="none" stroke="black" d="M795,-1457.7C795,-1449.98 795,-1440.71 795,-1432.11"/>
<polygon fill="black" stroke="black" points="798.5,-1432.1 795,-1422.1 791.5,-1432.1 798.5,-1432.1"/>
</g>
<!-- CALL_8bcd620 -->
<g id="node28" class="node">
<title>CALL_8bcd620</title>
<g id="a_node28"><a xlink:href="MPI_BARRIER.svg" xlink:title="MPI_BARRIER">
<polygon fill="#ffe800" stroke="black" points="855,-1350 735,-1350 735,-1346 731,-1346 731,-1342 735,-1342 735,-1322 731,-1322 731,-1318 735,-1318 735,-1314 855,-1314 855,-1350"/>
<polyline fill="none" stroke="black" points="735,-1346 739,-1346 739,-1342 735,-1342 "/>
<polyline fill="none" stroke="black" points="735,-1322 739,-1322 739,-1318 735,-1318 "/>
<text text-anchor="middle" x="795" y="-1328.3" font-family="Times,serif" font-size="14.00">MPI_BARRIER</text>
</a>
</g>
</g>
<!-- CALL_8bcba00&#45;&gt;CALL_8bcd620 -->
<g id="edge26" class="edge">
<title>CALL_8bcba00&#45;&gt;CALL_8bcd620</title>
<path fill="none" stroke="black" d="M795,-1385.7C795,-1377.98 795,-1368.71 795,-1360.11"/>
<polygon fill="black" stroke="black" points="798.5,-1360.1 795,-1350.1 791.5,-1360.1 798.5,-1360.1"/>
</g>
<!-- CALL_8bce5a0 -->
<g id="node29" class="node">
<title>CALL_8bce5a0</title>
<g id="a_node29"><a xlink:href="FLUSH_LOCAL_BUFFERS.svg" xlink:title="FLUSH_LOCAL_BUFFERS">
<polygon fill="lightgray" stroke="black" points="897,-1278 693,-1278 693,-1274 689,-1274 689,-1270 693,-1270 693,-1250 689,-1250 689,-1246 693,-1246 693,-1242 897,-1242 897,-1278"/>
<polyline fill="none" stroke="black" points="693,-1274 697,-1274 697,-1270 693,-1270 "/>
<polyline fill="none" stroke="black" points="693,-1250 697,-1250 697,-1246 693,-1246 "/>
<text text-anchor="middle" x="795" y="-1256.3" font-family="Times,serif" font-size="14.00">FLUSH_LOCAL_BUFFERS</text>
</a>
</g>
</g>
<!-- CALL_8bcd620&#45;&gt;CALL_8bce5a0 -->
<g id="edge27" class="edge">
<title>CALL_8bcd620&#45;&gt;CALL_8bce5a0</title>
<path fill="none" stroke="black" d="M795,-1313.7C795,-1305.98 795,-1296.71 795,-1288.11"/>
<polygon fill="black" stroke="black" points="798.5,-1288.1 795,-1278.1 791.5,-1288.1 798.5,-1288.1"/>
</g>
<!-- COMMENT_8bcfca0+1 -->
<g id="node30" class="node">
<title>COMMENT_8bcfca0+1</title>
<polygon fill="none" stroke="black" points="910,-1206 674,-1206 674,-1170 916,-1170 916,-1200 910,-1206"/>
<polyline fill="none" stroke="black" points="910,-1206 910,-1200 "/>
<polyline fill="none" stroke="black" points="916,-1200 910,-1200 "/>
<text text-anchor="middle" x="795" y="-1184.3" font-family="Times,serif" font-size="14.00">Dump a restart file if necessary</text>
</g>
<!-- CALL_8bce5a0&#45;&gt;COMMENT_8bcfca0+1 -->
<g id="edge28" class="edge">
<title>CALL_8bce5a0&#45;&gt;COMMENT_8bcfca0+1</title>
<path fill="none" stroke="black" d="M795,-1241.7C795,-1233.98 795,-1224.71 795,-1216.11"/>
<polygon fill="black" stroke="black" points="798.5,-1216.1 795,-1206.1 791.5,-1216.1 798.5,-1216.1"/>
</g>
<!-- CALL_8bd4620 -->
<g id="node31" class="node">
<title>CALL_8bd4620</title>
<g id="a_node31"><a xlink:href="MPI_ALLGATHERV.svg" xlink:title="MPI_ALLGATHERV">
<polygon fill="#ffe800" stroke="black" points="871,-1134 719,-1134 719,-1130 715,-1130 715,-1126 719,-1126 719,-1106 715,-1106 715,-1102 719,-1102 719,-1098 871,-1098 871,-1134"/>
<polyline fill="none" stroke="black" points="719,-1130 723,-1130 723,-1126 719,-1126 "/>
<polyline fill="none" stroke="black" points="719,-1106 723,-1106 723,-1102 719,-1102 "/>
<text text-anchor="middle" x="795" y="-1112.3" font-family="Times,serif" font-size="14.00">MPI_ALLGATHERV</text>
</a>
</g>
</g>
<!-- COMMENT_8bcfca0+1&#45;&gt;CALL_8bd4620 -->
<g id="edge29" class="edge">
<title>COMMENT_8bcfca0+1&#45;&gt;CALL_8bd4620</title>
<path fill="none" stroke="black" d="M795,-1169.7C795,-1161.98 795,-1152.71 795,-1144.11"/>
<polygon fill="black" stroke="black" points="798.5,-1144.1 795,-1134.1 791.5,-1144.1 798.5,-1144.1"/>
</g>
<!-- CALL_8bd7380 -->
<g id="node32" class="node">
<title>CALL_8bd7380</title>
<g id="a_node32"><a xlink:href="DUMP_RESTART.svg" xlink:title="DUMP_RESTART">
<polygon fill="lightgray" stroke="black" points="864.5,-1062 725.5,-1062 725.5,-1058 721.5,-1058 721.5,-1054 725.5,-1054 725.5,-1034 721.5,-1034 721.5,-1030 725.5,-1030 725.5,-1026 864.5,-1026 864.5,-1062"/>
<polyline fill="none" stroke="black" points="725.5,-1058 729.5,-1058 729.5,-1054 725.5,-1054 "/>
<polyline fill="none" stroke="black" points="725.5,-1034 729.5,-1034 729.5,-1030 725.5,-1030 "/>
<text text-anchor="middle" x="795" y="-1040.3" font-family="Times,serif" font-size="14.00">DUMP_RESTART</text>
</a>
</g>
</g>
<!-- CALL_8bd4620&#45;&gt;CALL_8bd7380 -->
<g id="edge30" class="edge">
<title>CALL_8bd4620&#45;&gt;CALL_8bd7380</title>
<path fill="none" stroke="black" d="M795,-1097.7C795,-1089.98 795,-1080.71 795,-1072.11"/>
<polygon fill="black" stroke="black" points="798.5,-1072.1 795,-1062.1 791.5,-1072.1 798.5,-1072.1"/>
</g>
<!-- COMMENT_8bd8f20+1 -->
<g id="node33" class="node">
<title>COMMENT_8bd8f20+1</title>
<polygon fill="none" stroke="black" points="899.5,-990 684.5,-990 684.5,-954 905.5,-954 905.5,-984 899.5,-990"/>
<polyline fill="none" stroke="black" points="899.5,-990 899.5,-984 "/>
<polyline fill="none" stroke="black" points="905.5,-984 899.5,-984 "/>
<text text-anchor="middle" x="795" y="-968.3" font-family="Times,serif" font-size="14.00">Check for abnormal run stop</text>
</g>
<!-- CALL_8bd7380&#45;&gt;COMMENT_8bd8f20+1 -->
<g id="edge31" class="edge">
<title>CALL_8bd7380&#45;&gt;COMMENT_8bd8f20+1</title>
<path fill="none" stroke="black" d="M795,-1025.7C795,-1017.98 795,-1008.71 795,-1000.11"/>
<polygon fill="black" stroke="black" points="798.5,-1000.1 795,-990.1 791.5,-1000.1 798.5,-1000.1"/>
</g>
<!-- CALL_8bd8f20 -->
<g id="node34" class="node">
<title>CALL_8bd8f20</title>
<g id="a_node34"><a xlink:href="STOP_CHECK.svg" xlink:title="STOP_CHECK">
<polygon fill="lightgray" stroke="black" points="853.5,-918 736.5,-918 736.5,-914 732.5,-914 732.5,-910 736.5,-910 736.5,-890 732.5,-890 732.5,-886 736.5,-886 736.5,-882 853.5,-882 853.5,-918"/>
<polyline fill="none" stroke="black" points="736.5,-914 740.5,-914 740.5,-910 736.5,-910 "/>
<polyline fill="none" stroke="black" points="736.5,-890 740.5,-890 740.5,-886 736.5,-886 "/>
<text text-anchor="middle" x="795" y="-896.3" font-family="Times,serif" font-size="14.00">STOP_CHECK</text>
</a>
</g>
</g>
<!-- COMMENT_8bd8f20+1&#45;&gt;CALL_8bd8f20 -->
<g id="edge32" class="edge">
<title>COMMENT_8bd8f20+1&#45;&gt;CALL_8bd8f20</title>
<path fill="none" stroke="black" d="M795,-953.7C795,-945.98 795,-936.71 795,-928.11"/>
<polygon fill="black" stroke="black" points="798.5,-928.1 795,-918.1 791.5,-928.1 798.5,-928.1"/>
</g>
<!-- COMMENT_8bd95e0+1 -->
<g id="node35" class="node">
<title>COMMENT_8bd95e0+1</title>
<polygon fill="none" stroke="black" points="876,-846 708,-846 708,-810 882,-810 882,-840 876,-846"/>
<polyline fill="none" stroke="black" points="876,-846 876,-840 "/>
<polyline fill="none" stroke="black" points="882,-840 876,-840 "/>
<text text-anchor="middle" x="795" y="-824.3" font-family="Times,serif" font-size="14.00">Stop the run normally</text>
</g>
<!-- CALL_8bd8f20&#45;&gt;COMMENT_8bd95e0+1 -->
<g id="edge33" class="edge">
<title>CALL_8bd8f20&#45;&gt;COMMENT_8bd95e0+1</title>
<path fill="none" stroke="black" d="M795,-881.7C795,-873.98 795,-864.71 795,-856.11"/>
<polygon fill="black" stroke="black" points="798.5,-856.1 795,-846.1 791.5,-856.1 798.5,-856.1"/>
</g>
<!-- CALL_8bc6e80 -->
<g id="node36" class="node">
<title>CALL_8bc6e80</title>
<g id="a_node36"><a xlink:href="VERBOSE_PRINTOUT.svg" xlink:title="VERBOSE_PRINTOUT">
<polygon fill="lightgray" stroke="black" points="882.5,-774 707.5,-774 707.5,-770 703.5,-770 703.5,-766 707.5,-766 707.5,-746 703.5,-746 703.5,-742 707.5,-742 707.5,-738 882.5,-738 882.5,-774"/>
<polyline fill="none" stroke="black" points="707.5,-770 711.5,-770 711.5,-766 707.5,-766 "/>
<polyline fill="none" stroke="black" points="707.5,-746 711.5,-746 711.5,-742 707.5,-742 "/>
<text text-anchor="middle" x="795" y="-752.3" font-family="Times,serif" font-size="14.00">VERBOSE_PRINTOUT</text>
</a>
</g>
</g>
<!-- COMMENT_8bd95e0+1&#45;&gt;CALL_8bc6e80 -->
<g id="edge34" class="edge">
<title>COMMENT_8bd95e0+1&#45;&gt;CALL_8bc6e80</title>
<path fill="none" stroke="black" d="M795,-809.7C795,-801.98 795,-792.71 795,-784.11"/>
<polygon fill="black" stroke="black" points="798.5,-784.1 795,-774.1 791.5,-784.1 798.5,-784.1"/>
</g>
<!-- COMMENT_8bdae80+1 -->
<g id="node37" class="node">
<title>COMMENT_8bdae80+1</title>
<polygon fill="none" stroke="black" points="1242.5,-702 341.5,-702 341.5,-649 1248.5,-649 1248.5,-696 1242.5,-702"/>
<polyline fill="none" stroke="black" points="1242.5,-702 1242.5,-696 "/>
<polyline fill="none" stroke="black" points="1248.5,-696 1242.5,-696 "/>
<text text-anchor="middle" x="795" y="-686.8" font-family="Times,serif" font-size="14.00">!***********************************************************************************************************************************</text>
<text text-anchor="middle" x="795" y="-671.8" font-family="Times,serif" font-size="14.00"> &#160;&#160;&#160;&#160;&#160;&#160;&#160;&#160;&#160;&#160;&#160;&#160;&#160;&#160;&#160;&#160;&#160;&#160;&#160;&#160;&#160;&#160;&#160;&#160;&#160;&#160;&#160;&#160;&#160;&#160;&#160;&#160;&#160;&#160;&#160;&#160;&#160;&#160;&#160;&#160;&#160;&#160;&#160;&#160;&#160;&#160;&#160;&#160;&#160;&#160;&#160;END OF TIME STEPPING LOOP</text>
<text text-anchor="middle" x="795" y="-656.8" font-family="Times,serif" font-size="14.00">!***********************************************************************************************************************************</text>
</g>
<!-- CALL_8bc6e80&#45;&gt;COMMENT_8bdae80+1 -->
<g id="edge36" class="edge">
<title>CALL_8bc6e80&#45;&gt;COMMENT_8bdae80+1</title>
<path fill="none" stroke="black" d="M795,-737.97C795,-730.45 795,-721.31 795,-712.4"/>
<polygon fill="black" stroke="black" points="798.5,-712.16 795,-702.16 791.5,-712.16 798.5,-712.16"/>
</g>
<!-- COMMENT_8bdae80+2 -->
<g id="node38" class="node">
<title>COMMENT_8bdae80+2</title>
<polygon fill="none" stroke="black" points="978,-613 606,-613 606,-577 984,-577 984,-607 978,-613"/>
<polyline fill="none" stroke="black" points="978,-613 978,-607 "/>
<polyline fill="none" stroke="black" points="984,-607 978,-607 "/>
<text text-anchor="middle" x="795" y="-591.3" font-family="Times,serif" font-size="14.00">Deallocate GLMAT_SOLVER_H variables if needed:</text>
</g>
<!-- COMMENT_8bdae80+1&#45;&gt;COMMENT_8bdae80+2 -->
<g id="edge37" class="edge">
<title>COMMENT_8bdae80+1&#45;&gt;COMMENT_8bdae80+2</title>
<path fill="none" stroke="black" d="M795,-648.8C795,-640.71 795,-631.76 795,-623.55"/>
<polygon fill="black" stroke="black" points="798.5,-623.33 795,-613.33 791.5,-623.33 798.5,-623.33"/>
</g>
<!-- CALL_8bdbb60 -->
<g id="node39" class="node">
<title>CALL_8bdbb60</title>
<g id="a_node39"><a xlink:href="FINISH_ULMAT_SOLVER.svg" xlink:title="FINISH_ULMAT_SOLVER">
<polygon fill="lightgray" stroke="black" points="893.5,-541 696.5,-541 696.5,-537 692.5,-537 692.5,-533 696.5,-533 696.5,-513 692.5,-513 692.5,-509 696.5,-509 696.5,-505 893.5,-505 893.5,-541"/>
<polyline fill="none" stroke="black" points="696.5,-537 700.5,-537 700.5,-533 696.5,-533 "/>
<polyline fill="none" stroke="black" points="696.5,-513 700.5,-513 700.5,-509 696.5,-509 "/>
<text text-anchor="middle" x="795" y="-519.3" font-family="Times,serif" font-size="14.00">FINISH_ULMAT_SOLVER</text>
</a>
</g>
</g>
<!-- COMMENT_8bdae80+2&#45;&gt;CALL_8bdbb60 -->
<g id="edge38" class="edge">
<title>COMMENT_8bdae80+2&#45;&gt;CALL_8bdbb60</title>
<path fill="none" stroke="black" d="M795,-576.7C795,-568.98 795,-559.71 795,-551.11"/>
<polygon fill="black" stroke="black" points="798.5,-551.1 795,-541.1 791.5,-551.1 798.5,-551.1"/>
</g>
<!-- CALL_8bdcda0 -->
<g id="node40" class="node">
<title>CALL_8bdcda0</title>
<g id="a_node40"><a xlink:href="FINISH_GLMAT_SOLVER.svg" xlink:title="FINISH_GLMAT_SOLVER">
<polygon fill="lightgray" stroke="black" points="893,-469 697,-469 697,-465 693,-465 693,-461 697,-461 697,-441 693,-441 693,-437 697,-437 697,-433 893,-433 893,-469"/>
<polyline fill="none" stroke="black" points="697,-465 701,-465 701,-461 697,-461 "/>
<polyline fill="none" stroke="black" points="697,-441 701,-441 701,-437 697,-437 "/>
<text text-anchor="middle" x="795" y="-447.3" font-family="Times,serif" font-size="14.00">FINISH_GLMAT_SOLVER</text>
</a>
</g>
</g>
<!-- CALL_8bdbb60&#45;&gt;CALL_8bdcda0 -->
<g id="edge39" class="edge">
<title>CALL_8bdbb60&#45;&gt;CALL_8bdcda0</title>
<path fill="none" stroke="black" d="M795,-504.7C795,-496.98 795,-487.71 795,-479.11"/>
<polygon fill="black" stroke="black" points="798.5,-479.1 795,-469.1 791.5,-479.1 798.5,-479.1"/>
</g>
<!-- COMMENT_8bd4c40+1 -->
<g id="node41" class="node">
<title>COMMENT_8bd4c40+1</title>
<polygon fill="none" stroke="black" points="905,-397 679,-397 679,-361 911,-361 911,-391 905,-397"/>
<polyline fill="none" stroke="black" points="905,-397 905,-391 "/>
<polyline fill="none" stroke="black" points="911,-391 905,-391 "/>
<text text-anchor="middle" x="795" y="-375.3" font-family="Times,serif" font-size="14.00">Finish unstructured geometry</text>
</g>
<!-- CALL_8bdcda0&#45;&gt;COMMENT_8bd4c40+1 -->
<g id="edge40" class="edge">
<title>CALL_8bdcda0&#45;&gt;COMMENT_8bd4c40+1</title>
<path fill="none" stroke="black" d="M795,-432.7C795,-424.98 795,-415.71 795,-407.11"/>
<polygon fill="black" stroke="black" points="798.5,-407.1 795,-397.1 791.5,-407.1 798.5,-407.1"/>
</g>
<!-- CALL_8bdd5a0 -->
<g id="node42" class="node">
<title>CALL_8bdd5a0</title>
<g id="a_node42"><a xlink:href="FINISH_CC.svg" xlink:title="FINISH_CC">
<polygon fill="lightgray" stroke="black" points="844,-325 746,-325 746,-321 742,-321 742,-317 746,-317 746,-297 742,-297 742,-293 746,-293 746,-289 844,-289 844,-325"/>
<polyline fill="none" stroke="black" points="746,-321 750,-321 750,-317 746,-317 "/>
<polyline fill="none" stroke="black" points="746,-297 750,-297 750,-293 746,-293 "/>
<text text-anchor="middle" x="795" y="-303.3" font-family="Times,serif" font-size="14.00">FINISH_CC</text>
</a>
</g>
</g>
<!-- COMMENT_8bd4c40+1&#45;&gt;CALL_8bdd5a0 -->
<g id="edge41" class="edge">
<title>COMMENT_8bd4c40+1&#45;&gt;CALL_8bdd5a0</title>
<path fill="none" stroke="black" d="M795,-360.7C795,-352.98 795,-343.71 795,-335.11"/>
<polygon fill="black" stroke="black" points="798.5,-335.1 795,-325.1 791.5,-335.1 798.5,-335.1"/>
</g>
<!-- COMMENT_8bd37c0+1 -->
<g id="node43" class="node">
<title>COMMENT_8bd37c0+1</title>
<polygon fill="none" stroke="black" points="868.5,-253 715.5,-253 715.5,-217 874.5,-217 874.5,-247 868.5,-253"/>
<polyline fill="none" stroke="black" points="868.5,-253 868.5,-247 "/>
<polyline fill="none" stroke="black" points="874.5,-247 868.5,-247 "/>
<text text-anchor="middle" x="795" y="-231.3" font-family="Times,serif" font-size="14.00">Stop the calculation</text>
</g>
<!-- CALL_8bdd5a0&#45;&gt;COMMENT_8bd37c0+1 -->
<g id="edge42" class="edge">
<title>CALL_8bdd5a0&#45;&gt;COMMENT_8bd37c0+1</title>
<path fill="none" stroke="black" d="M795,-288.7C795,-280.98 795,-271.71 795,-263.11"/>
<polygon fill="black" stroke="black" points="798.5,-263.1 795,-253.1 791.5,-263.1 798.5,-263.1"/>
</g>
<!-- CALL_8bd37c0 -->
<g id="node44" class="node">
<title>CALL_8bd37c0</title>
<g id="a_node44"><a xlink:href="END_FDS.svg" xlink:title="END_FDS">
<polygon fill="lightgray" stroke="black" points="839,-181 751,-181 751,-177 747,-177 747,-173 751,-173 751,-153 747,-153 747,-149 751,-149 751,-145 839,-145 839,-181"/>
<polyline fill="none" stroke="black" points="751,-177 755,-177 755,-173 751,-173 "/>
<polyline fill="none" stroke="black" points="751,-153 755,-153 755,-149 751,-149 "/>
<text text-anchor="middle" x="795" y="-159.3" font-family="Times,serif" font-size="14.00">END_FDS</text>
</a>
</g>
</g>
<!-- COMMENT_8bd37c0+1&#45;&gt;CALL_8bd37c0 -->
<g id="edge43" class="edge">
<title>COMMENT_8bd37c0+1&#45;&gt;CALL_8bd37c0</title>
<path fill="none" stroke="black" d="M795,-216.7C795,-208.98 795,-199.71 795,-191.11"/>
<polygon fill="black" stroke="black" points="798.5,-191.1 795,-181.1 791.5,-191.1 798.5,-191.1"/>
</g>
<!-- COMMENT_8bdd140+1 -->
<g id="node45" class="node">
<title>COMMENT_8bdd140+1</title>
<polygon fill="none" stroke="black" points="1029,-109 555,-109 555,-73 1035,-73 1035,-103 1029,-109"/>
<polyline fill="none" stroke="black" points="1029,-109 1029,-103 "/>
<polyline fill="none" stroke="black" points="1035,-103 1029,-103 "/>
<text text-anchor="middle" x="795" y="-87.3" font-family="Times,serif" font-size="14.00">This is the end of program. Supporting routines are listed below.</text>
</g>
<!-- CALL_8bd37c0&#45;&gt;COMMENT_8bdd140+1 -->
<g id="edge44" class="edge">
<title>CALL_8bd37c0&#45;&gt;COMMENT_8bdd140+1</title>
<path fill="none" stroke="black" d="M795,-144.7C795,-136.98 795,-127.71 795,-119.11"/>
<polygon fill="black" stroke="black" points="798.5,-119.1 795,-109.1 791.5,-119.1 798.5,-119.1"/>
</g>
<!-- end_0 -->
<g id="node46" class="node">
<title>end_0</title>
<ellipse fill="black" stroke="black" cx="795" cy="-30" rx="7" ry="7"/>
</g>
<!-- COMMENT_8bdd140+1&#45;&gt;end_0 -->
<g id="edge45" class="edge">
<title>COMMENT_8bdd140+1&#45;&gt;end_0</title>
<path fill="none" stroke="black" d="M795,-72.93C795,-64.89 795,-55.33 795,-47.37"/>
<polygon fill="black" stroke="black" points="798.5,-47.22 795,-37.22 791.5,-47.22 798.5,-47.22"/>
</g>
</g>
</svg>
