<?xml version="1.0" encoding="UTF-8" standalone="no"?>
<!DOCTYPE svg PUBLIC "-//W3C//DTD SVG 1.1//EN"
 "http://www.w3.org/Graphics/SVG/1.1/DTD/svg11.dtd">
<!-- Generated by graphviz version 2.43.0 (0)
 -->
<!-- Title: REALLOCATE_ALTERNATE Pages: 1 -->
<svg width="219pt" height="527pt"
 viewBox="0.00 0.00 219.00 527.00" xmlns="http://www.w3.org/2000/svg" xmlns:xlink="http://www.w3.org/1999/xlink">
<g id="graph0" class="graph" transform="scale(1 1) rotate(0) translate(4 523)">
<title>REALLOCATE_ALTERNATE</title>
<polygon fill="white" stroke="transparent" points="-4,4 -4,-523 215,-523 215,4 -4,4"/>
<text text-anchor="middle" x="105.5" y="-7.8" font-family="Times,serif" font-size="14.00">REALLOCATE_ALTERNATE</text>
<!-- start_SUBPROGRAM_81562c0 -->
<g id="node1" class="node">
<title>start_SUBPROGRAM_81562c0</title>
<ellipse fill="none" stroke="black" cx="105.5" cy="-512" rx="7" ry="7"/>
</g>
<!-- CALL_8140880 -->
<g id="node2" class="node">
<title>CALL_8140880</title>
<g id="a_node2"><a xlink:href="MOVE_ALLOC.svg" xlink:title="MOVE_ALLOC">
<polygon fill="lightgray" stroke="black" points="165,-469 46,-469 46,-465 42,-465 42,-461 46,-461 46,-441 42,-441 42,-437 46,-437 46,-433 165,-433 165,-469"/>
<polyline fill="none" stroke="black" points="46,-465 50,-465 50,-461 46,-461 "/>
<polyline fill="none" stroke="black" points="46,-441 50,-441 50,-437 46,-437 "/>
<text text-anchor="middle" x="105.5" y="-447.3" font-family="Times,serif" font-size="14.00">MOVE_ALLOC</text>
</a>
</g>
</g>
<!-- start_SUBPROGRAM_81562c0&#45;&gt;CALL_8140880 -->
<g id="edge1" class="edge">
<title>start_SUBPROGRAM_81562c0&#45;&gt;CALL_8140880</title>
<path fill="none" stroke="black" d="M105.5,-504.69C105.5,-498.49 105.5,-488.59 105.5,-479.05"/>
<polygon fill="black" stroke="black" points="109,-479.02 105.5,-469.02 102,-479.02 109,-479.02"/>
</g>
<!-- CALL_8134ec0 -->
<g id="node3" class="node">
<title>CALL_8134ec0</title>
<g id="a_node3"><a xlink:href="MOVE_ALLOC.svg" xlink:title="MOVE_ALLOC">
<polygon fill="lightgray" stroke="black" points="165,-397 46,-397 46,-393 42,-393 42,-389 46,-389 46,-369 42,-369 42,-365 46,-365 46,-361 165,-361 165,-397"/>
<polyline fill="none" stroke="black" points="46,-393 50,-393 50,-389 46,-389 "/>
<polyline fill="none" stroke="black" points="46,-369 50,-369 50,-365 46,-365 "/>
<text text-anchor="middle" x="105.5" y="-375.3" font-family="Times,serif" font-size="14.00">MOVE_ALLOC</text>
</a>
</g>
</g>
<!-- CALL_8140880&#45;&gt;CALL_8134ec0 -->
<g id="edge2" class="edge">
<title>CALL_8140880&#45;&gt;CALL_8134ec0</title>
<path fill="none" stroke="black" d="M105.5,-432.7C105.5,-424.98 105.5,-415.71 105.5,-407.11"/>
<polygon fill="black" stroke="black" points="109,-407.1 105.5,-397.1 102,-407.1 109,-407.1"/>
</g>
<!-- CALL_8148d40 -->
<g id="node4" class="node">
<title>CALL_8148d40</title>
<g id="a_node4"><a xlink:href="MOVE_ALLOC.svg" xlink:title="MOVE_ALLOC">
<polygon fill="lightgray" stroke="black" points="165,-325 46,-325 46,-321 42,-321 42,-317 46,-317 46,-297 42,-297 42,-293 46,-293 46,-289 165,-289 165,-325"/>
<polyline fill="none" stroke="black" points="46,-321 50,-321 50,-317 46,-317 "/>
<polyline fill="none" stroke="black" points="46,-297 50,-297 50,-293 46,-293 "/>
<text text-anchor="middle" x="105.5" y="-303.3" font-family="Times,serif" font-size="14.00">MOVE_ALLOC</text>
</a>
</g>
</g>
<!-- CALL_8134ec0&#45;&gt;CALL_8148d40 -->
<g id="edge3" class="edge">
<title>CALL_8134ec0&#45;&gt;CALL_8148d40</title>
<path fill="none" stroke="black" d="M105.5,-360.7C105.5,-352.98 105.5,-343.71 105.5,-335.11"/>
<polygon fill="black" stroke="black" points="109,-335.1 105.5,-325.1 102,-335.1 109,-335.1"/>
</g>
<!-- CALL_814cd20 -->
<g id="node5" class="node">
<title>CALL_814cd20</title>
<g id="a_node5"><a xlink:href="MOVE_ALLOC.svg" xlink:title="MOVE_ALLOC">
<polygon fill="lightgray" stroke="black" points="165,-253 46,-253 46,-249 42,-249 42,-245 46,-245 46,-225 42,-225 42,-221 46,-221 46,-217 165,-217 165,-253"/>
<polyline fill="none" stroke="black" points="46,-249 50,-249 50,-245 46,-245 "/>
<polyline fill="none" stroke="black" points="46,-225 50,-225 50,-221 46,-221 "/>
<text text-anchor="middle" x="105.5" y="-231.3" font-family="Times,serif" font-size="14.00">MOVE_ALLOC</text>
</a>
</g>
</g>
<!-- CALL_8148d40&#45;&gt;CALL_814cd20 -->
<g id="edge4" class="edge">
<title>CALL_8148d40&#45;&gt;CALL_814cd20</title>
<path fill="none" stroke="black" d="M105.5,-288.7C105.5,-280.98 105.5,-271.71 105.5,-263.11"/>
<polygon fill="black" stroke="black" points="109,-263.1 105.5,-253.1 102,-263.1 109,-263.1"/>
</g>
<!-- CALL_8151d20 -->
<g id="node6" class="node">
<title>CALL_8151d20</title>
<g id="a_node6"><a xlink:href="MOVE_ALLOC.svg" xlink:title="MOVE_ALLOC">
<polygon fill="lightgray" stroke="black" points="165,-181 46,-181 46,-177 42,-177 42,-173 46,-173 46,-153 42,-153 42,-149 46,-149 46,-145 165,-145 165,-181"/>
<polyline fill="none" stroke="black" points="46,-177 50,-177 50,-173 46,-173 "/>
<polyline fill="none" stroke="black" points="46,-153 50,-153 50,-149 46,-149 "/>
<text text-anchor="middle" x="105.5" y="-159.3" font-family="Times,serif" font-size="14.00">MOVE_ALLOC</text>
</a>
</g>
</g>
<!-- CALL_814cd20&#45;&gt;CALL_8151d20 -->
<g id="edge5" class="edge">
<title>CALL_814cd20&#45;&gt;CALL_8151d20</title>
<path fill="none" stroke="black" d="M105.5,-216.7C105.5,-208.98 105.5,-199.71 105.5,-191.11"/>
<polygon fill="black" stroke="black" points="109,-191.1 105.5,-181.1 102,-191.1 109,-191.1"/>
</g>
<!-- CALL_81527c0 -->
<g id="node7" class="node">
<title>CALL_81527c0</title>
<g id="a_node7"><a xlink:href="MOVE_ALLOC.svg" xlink:title="MOVE_ALLOC">
<polygon fill="lightgray" stroke="black" points="165,-109 46,-109 46,-105 42,-105 42,-101 46,-101 46,-81 42,-81 42,-77 46,-77 46,-73 165,-73 165,-109"/>
<polyline fill="none" stroke="black" points="46,-105 50,-105 50,-101 46,-101 "/>
<polyline fill="none" stroke="black" points="46,-81 50,-81 50,-77 46,-77 "/>
<text text-anchor="middle" x="105.5" y="-87.3" font-family="Times,serif" font-size="14.00">MOVE_ALLOC</text>
</a>
</g>
</g>
<!-- CALL_8151d20&#45;&gt;CALL_81527c0 -->
<g id="edge6" class="edge">
<title>CALL_8151d20&#45;&gt;CALL_81527c0</title>
<path fill="none" stroke="black" d="M105.5,-144.7C105.5,-136.98 105.5,-127.71 105.5,-119.11"/>
<polygon fill="black" stroke="black" points="109,-119.1 105.5,-109.1 102,-119.1 109,-119.1"/>
</g>
<!-- end_SUBPROGRAM_81562c0 -->
<g id="node8" class="node">
<title>end_SUBPROGRAM_81562c0</title>
<ellipse fill="black" stroke="black" cx="105.5" cy="-30" rx="7" ry="7"/>
</g>
<!-- CALL_81527c0&#45;&gt;end_SUBPROGRAM_81562c0 -->
<g id="edge7" class="edge">
<title>CALL_81527c0&#45;&gt;end_SUBPROGRAM_81562c0</title>
<path fill="none" stroke="black" d="M105.5,-72.93C105.5,-64.89 105.5,-55.33 105.5,-47.37"/>
<polygon fill="black" stroke="black" points="109,-47.22 105.5,-37.22 102,-47.22 109,-47.22"/>
</g>
</g>
</svg>
