<?xml version="1.0" encoding="UTF-8" standalone="no"?>
<!DOCTYPE svg PUBLIC "-//W3C//DTD SVG 1.1//EN"
 "http://www.w3.org/Graphics/SVG/1.1/DTD/svg11.dtd">
<!-- Generated by graphviz version 2.43.0 (0)
 -->
<!-- Title: REALLOCATE_ONE_D_ARRAYS Pages: 1 -->
<svg width="823pt" height="1717pt"
 viewBox="0.00 0.00 823.00 1717.00" xmlns="http://www.w3.org/2000/svg" xmlns:xlink="http://www.w3.org/1999/xlink">
<g id="graph0" class="graph" transform="scale(1 1) rotate(0) translate(4 1713)">
<title>REALLOCATE_ONE_D_ARRAYS</title>
<polygon fill="white" stroke="transparent" points="-4,4 -4,-1713 819,-1713 819,4 -4,4"/>
<text text-anchor="middle" x="407.5" y="-7.8" font-family="Times,serif" font-size="14.00">REALLOCATE_ONE_D_ARRAYS</text>
<g id="clust1" class="cluster">
<title>cluster_LAYER_LOOP</title>
<polygon fill="none" stroke="orange" points="211.5,-572 211.5,-1007 603.5,-1007 603.5,-572 211.5,-572"/>
<text text-anchor="middle" x="268" y="-991.8" font-family="Times,serif" font-size="14.00">LAYER_LOOP</text>
</g>
<g id="clust2" class="cluster">
<title>cluster_POINT_LOOP3</title>
<polygon fill="none" stroke="orange" points="323.5,-281 323.5,-356 491.5,-356 491.5,-281 323.5,-281"/>
<text text-anchor="middle" x="384" y="-340.8" font-family="Times,serif" font-size="14.00">POINT_LOOP3</text>
</g>
<!-- start_SUBPROGRAM_8503da0 -->
<g id="node1" class="node">
<title>start_SUBPROGRAM_8503da0</title>
<ellipse fill="none" stroke="black" cx="407.5" cy="-1702" rx="7" ry="7"/>
</g>
<!-- COMMENT_83922c0+1 -->
<g id="node2" class="node">
<title>COMMENT_83922c0+1</title>
<polygon fill="none" stroke="black" points="807.5,-1659 1.5,-1659 1.5,-1591 813.5,-1591 813.5,-1653 807.5,-1659"/>
<polyline fill="none" stroke="black" points="807.5,-1659 807.5,-1653 "/>
<polyline fill="none" stroke="black" points="813.5,-1653 807.5,-1653 "/>
<text text-anchor="middle" x="407.5" y="-1643.8" font-family="Times,serif" font-size="14.00">!&gt; brief For a given WALL or THIN_WALL with VARIABLE_THICKNESS or HT3D, adjust the 1&#45;D internal noding</text>
<text text-anchor="middle" x="407.5" y="-1628.8" font-family="Times,serif" font-size="14.00">!&gt; param NM Mesh index</text>
<text text-anchor="middle" x="407.5" y="-1613.8" font-family="Times,serif" font-size="14.00">!&gt; param WALL_CELL Optional WALL cell index</text>
<text text-anchor="middle" x="407.5" y="-1598.8" font-family="Times,serif" font-size="14.00">!&gt; param THIN_WALL_CELL Optional THIN_WALL cell index</text>
</g>
<!-- start_SUBPROGRAM_8503da0&#45;&gt;COMMENT_83922c0+1 -->
<g id="edge1" class="edge">
<title>start_SUBPROGRAM_8503da0&#45;&gt;COMMENT_83922c0+1</title>
<path fill="none" stroke="black" d="M407.5,-1694.86C407.5,-1688.93 407.5,-1679.38 407.5,-1669.26"/>
<polygon fill="black" stroke="black" points="411,-1669.05 407.5,-1659.05 404,-1669.05 411,-1669.05"/>
</g>
<!-- COMMENT_83957c0+1 -->
<g id="node3" class="node">
<title>COMMENT_83957c0+1</title>
<polygon fill="none" stroke="black" points="779.5,-1555 29.5,-1555 29.5,-1519 785.5,-1519 785.5,-1549 779.5,-1555"/>
<polyline fill="none" stroke="black" points="779.5,-1555 779.5,-1549 "/>
<polyline fill="none" stroke="black" points="785.5,-1549 779.5,-1549 "/>
<text text-anchor="middle" x="407.5" y="-1533.3" font-family="Times,serif" font-size="14.00">This code is probably unnecessary. It is only in case the thickness of the solid has not been determined.</text>
</g>
<!-- COMMENT_83922c0+1&#45;&gt;COMMENT_83957c0+1 -->
<g id="edge2" class="edge">
<title>COMMENT_83922c0+1&#45;&gt;COMMENT_83957c0+1</title>
<path fill="none" stroke="black" d="M407.5,-1591C407.5,-1582.56 407.5,-1573.59 407.5,-1565.47"/>
<polygon fill="black" stroke="black" points="411,-1565.4 407.5,-1555.4 404,-1565.4 411,-1565.4"/>
</g>
<!-- COMMENT_83a3c60+1 -->
<g id="node4" class="node">
<title>COMMENT_83a3c60+1</title>
<polygon fill="none" stroke="black" points="719.5,-1483 89.5,-1483 89.5,-1447 725.5,-1447 725.5,-1477 719.5,-1483"/>
<polyline fill="none" stroke="black" points="719.5,-1483 719.5,-1477 "/>
<polyline fill="none" stroke="black" points="725.5,-1477 719.5,-1477 "/>
<text text-anchor="middle" x="407.5" y="-1461.3" font-family="Times,serif" font-size="14.00">Initially these arrays were allocated under the assumption that there is only one layer.</text>
</g>
<!-- COMMENT_83957c0+1&#45;&gt;COMMENT_83a3c60+1 -->
<g id="edge3" class="edge">
<title>COMMENT_83957c0+1&#45;&gt;COMMENT_83a3c60+1</title>
<path fill="none" stroke="black" d="M407.5,-1518.7C407.5,-1510.98 407.5,-1501.71 407.5,-1493.11"/>
<polygon fill="black" stroke="black" points="411,-1493.1 407.5,-1483.1 404,-1493.1 411,-1493.1"/>
</g>
<!-- CALL_83a5de0 -->
<g id="node5" class="node">
<title>CALL_83a5de0</title>
<g id="a_node5"><a xlink:href="REALLOCATE_REAL_ARRAY.svg" xlink:title="REALLOCATE_REAL_ARRAY">
<polygon fill="lightgray" stroke="black" points="516.5,-1411 298.5,-1411 298.5,-1407 294.5,-1407 294.5,-1403 298.5,-1403 298.5,-1383 294.5,-1383 294.5,-1379 298.5,-1379 298.5,-1375 516.5,-1375 516.5,-1411"/>
<polyline fill="none" stroke="black" points="298.5,-1407 302.5,-1407 302.5,-1403 298.5,-1403 "/>
<polyline fill="none" stroke="black" points="298.5,-1383 302.5,-1383 302.5,-1379 298.5,-1379 "/>
<text text-anchor="middle" x="407.5" y="-1389.3" font-family="Times,serif" font-size="14.00">REALLOCATE_REAL_ARRAY</text>
</a>
</g>
</g>
<!-- COMMENT_83a3c60+1&#45;&gt;CALL_83a5de0 -->
<g id="edge4" class="edge">
<title>COMMENT_83a3c60+1&#45;&gt;CALL_83a5de0</title>
<path fill="none" stroke="black" d="M407.5,-1446.7C407.5,-1438.98 407.5,-1429.71 407.5,-1421.11"/>
<polygon fill="black" stroke="black" points="411,-1421.1 407.5,-1411.1 404,-1421.1 411,-1421.1"/>
</g>
<!-- CALL_83a9240 -->
<g id="node6" class="node">
<title>CALL_83a9240</title>
<g id="a_node6"><a xlink:href="REALLOCATE_REAL_ARRAY.svg" xlink:title="REALLOCATE_REAL_ARRAY">
<polygon fill="lightgray" stroke="black" points="516.5,-1339 298.5,-1339 298.5,-1335 294.5,-1335 294.5,-1331 298.5,-1331 298.5,-1311 294.5,-1311 294.5,-1307 298.5,-1307 298.5,-1303 516.5,-1303 516.5,-1339"/>
<polyline fill="none" stroke="black" points="298.5,-1335 302.5,-1335 302.5,-1331 298.5,-1331 "/>
<polyline fill="none" stroke="black" points="298.5,-1311 302.5,-1311 302.5,-1307 298.5,-1307 "/>
<text text-anchor="middle" x="407.5" y="-1317.3" font-family="Times,serif" font-size="14.00">REALLOCATE_REAL_ARRAY</text>
</a>
</g>
</g>
<!-- CALL_83a5de0&#45;&gt;CALL_83a9240 -->
<g id="edge5" class="edge">
<title>CALL_83a5de0&#45;&gt;CALL_83a9240</title>
<path fill="none" stroke="black" d="M407.5,-1374.7C407.5,-1366.98 407.5,-1357.71 407.5,-1349.11"/>
<polygon fill="black" stroke="black" points="411,-1349.1 407.5,-1339.1 404,-1349.1 411,-1349.1"/>
</g>
<!-- CALL_83aa5e0 -->
<g id="node7" class="node">
<title>CALL_83aa5e0</title>
<g id="a_node7"><a xlink:href="REALLOCATE_INTEGER_ARRAY.svg" xlink:title="REALLOCATE_INTEGER_ARRAY">
<polygon fill="lightgray" stroke="black" points="531.5,-1267 283.5,-1267 283.5,-1263 279.5,-1263 279.5,-1259 283.5,-1259 283.5,-1239 279.5,-1239 279.5,-1235 283.5,-1235 283.5,-1231 531.5,-1231 531.5,-1267"/>
<polyline fill="none" stroke="black" points="283.5,-1263 287.5,-1263 287.5,-1259 283.5,-1259 "/>
<polyline fill="none" stroke="black" points="283.5,-1239 287.5,-1239 287.5,-1235 283.5,-1235 "/>
<text text-anchor="middle" x="407.5" y="-1245.3" font-family="Times,serif" font-size="14.00">REALLOCATE_INTEGER_ARRAY</text>
</a>
</g>
</g>
<!-- CALL_83a9240&#45;&gt;CALL_83aa5e0 -->
<g id="edge6" class="edge">
<title>CALL_83a9240&#45;&gt;CALL_83aa5e0</title>
<path fill="none" stroke="black" d="M407.5,-1302.7C407.5,-1294.98 407.5,-1285.71 407.5,-1277.11"/>
<polygon fill="black" stroke="black" points="411,-1277.1 407.5,-1267.1 404,-1277.1 411,-1277.1"/>
</g>
<!-- CALL_83ac3c0 -->
<g id="node8" class="node">
<title>CALL_83ac3c0</title>
<g id="a_node8"><a xlink:href="REALLOCATE_INTEGER_ARRAY.svg" xlink:title="REALLOCATE_INTEGER_ARRAY">
<polygon fill="lightgray" stroke="black" points="531.5,-1195 283.5,-1195 283.5,-1191 279.5,-1191 279.5,-1187 283.5,-1187 283.5,-1167 279.5,-1167 279.5,-1163 283.5,-1163 283.5,-1159 531.5,-1159 531.5,-1195"/>
<polyline fill="none" stroke="black" points="283.5,-1191 287.5,-1191 287.5,-1187 283.5,-1187 "/>
<polyline fill="none" stroke="black" points="283.5,-1167 287.5,-1167 287.5,-1163 283.5,-1163 "/>
<text text-anchor="middle" x="407.5" y="-1173.3" font-family="Times,serif" font-size="14.00">REALLOCATE_INTEGER_ARRAY</text>
</a>
</g>
</g>
<!-- CALL_83aa5e0&#45;&gt;CALL_83ac3c0 -->
<g id="edge7" class="edge">
<title>CALL_83aa5e0&#45;&gt;CALL_83ac3c0</title>
<path fill="none" stroke="black" d="M407.5,-1230.7C407.5,-1222.98 407.5,-1213.71 407.5,-1205.11"/>
<polygon fill="black" stroke="black" points="411,-1205.1 407.5,-1195.1 404,-1205.1 411,-1205.1"/>
</g>
<!-- CALL_83ae360 -->
<g id="node9" class="node">
<title>CALL_83ae360</title>
<g id="a_node9"><a xlink:href="REALLOCATE_REAL_ARRAY.svg" xlink:title="REALLOCATE_REAL_ARRAY">
<polygon fill="lightgray" stroke="black" points="516.5,-1123 298.5,-1123 298.5,-1119 294.5,-1119 294.5,-1115 298.5,-1115 298.5,-1095 294.5,-1095 294.5,-1091 298.5,-1091 298.5,-1087 516.5,-1087 516.5,-1123"/>
<polyline fill="none" stroke="black" points="298.5,-1119 302.5,-1119 302.5,-1115 298.5,-1115 "/>
<polyline fill="none" stroke="black" points="298.5,-1095 302.5,-1095 302.5,-1091 298.5,-1091 "/>
<text text-anchor="middle" x="407.5" y="-1101.3" font-family="Times,serif" font-size="14.00">REALLOCATE_REAL_ARRAY</text>
</a>
</g>
</g>
<!-- CALL_83ac3c0&#45;&gt;CALL_83ae360 -->
<g id="edge8" class="edge">
<title>CALL_83ac3c0&#45;&gt;CALL_83ae360</title>
<path fill="none" stroke="black" d="M407.5,-1158.7C407.5,-1150.98 407.5,-1141.71 407.5,-1133.11"/>
<polygon fill="black" stroke="black" points="411,-1133.1 407.5,-1123.1 404,-1133.1 411,-1133.1"/>
</g>
<!-- COMMENT_83afd00+1 -->
<g id="node10" class="node">
<title>COMMENT_83afd00+1</title>
<polygon fill="none" stroke="black" points="625.5,-1051 183.5,-1051 183.5,-1015 631.5,-1015 631.5,-1045 625.5,-1051"/>
<polyline fill="none" stroke="black" points="625.5,-1051 625.5,-1045 "/>
<polyline fill="none" stroke="black" points="631.5,-1045 625.5,-1045 "/>
<text text-anchor="middle" x="407.5" y="-1029.3" font-family="Times,serif" font-size="14.00">Go through all layers and reallocate arrays where necessary</text>
</g>
<!-- CALL_83ae360&#45;&gt;COMMENT_83afd00+1 -->
<g id="edge9" class="edge">
<title>CALL_83ae360&#45;&gt;COMMENT_83afd00+1</title>
<path fill="none" stroke="black" d="M407.5,-1086.7C407.5,-1078.98 407.5,-1069.71 407.5,-1061.11"/>
<polygon fill="black" stroke="black" points="411,-1061.1 407.5,-1051.1 404,-1061.1 411,-1061.1"/>
</g>
<!-- COMMENT_83b1d60+1 -->
<g id="node11" class="node">
<title>COMMENT_83b1d60+1</title>
<polygon fill="none" stroke="black" points="589,-976 220,-976 220,-940 595,-940 595,-970 589,-976"/>
<polyline fill="none" stroke="black" points="589,-976 589,-970 "/>
<polyline fill="none" stroke="black" points="595,-970 589,-970 "/>
<text text-anchor="middle" x="407.5" y="-954.3" font-family="Times,serif" font-size="14.00">Get the minimum thermal diffusivity for this layer</text>
</g>
<!-- COMMENT_83afd00+1&#45;&gt;COMMENT_83b1d60+1 -->
<g id="edge15" class="edge">
<title>COMMENT_83afd00+1&#45;&gt;COMMENT_83b1d60+1</title>
<path fill="none" stroke="black" d="M407.5,-1014.7C407.5,-1006.25 407.5,-995.87 407.5,-986.37"/>
<polygon fill="black" stroke="black" points="411,-986.18 407.5,-976.18 404,-986.18 411,-986.18"/>
</g>
<!-- COMMENT_83b7860+1 -->
<g id="node12" class="node">
<title>COMMENT_83b7860+1</title>
<polygon fill="none" stroke="black" points="569,-904 240,-904 240,-868 575,-868 575,-898 569,-904"/>
<polyline fill="none" stroke="black" points="569,-904 569,-898 "/>
<polyline fill="none" stroke="black" points="575,-898 569,-898 "/>
<text text-anchor="middle" x="407.5" y="-882.3" font-family="Times,serif" font-size="14.00">Get the new N_CELLS_MAX for this wall cell</text>
</g>
<!-- COMMENT_83b1d60+1&#45;&gt;COMMENT_83b7860+1 -->
<g id="edge10" class="edge">
<title>COMMENT_83b1d60+1&#45;&gt;COMMENT_83b7860+1</title>
<path fill="none" stroke="black" d="M407.5,-939.7C407.5,-931.98 407.5,-922.71 407.5,-914.11"/>
<polygon fill="black" stroke="black" points="411,-914.1 407.5,-904.1 404,-914.1 411,-914.1"/>
</g>
<!-- DO_83c01e0 -->
<g id="node13" class="node">
<title>DO_83c01e0</title>
<polygon fill="none" stroke="orange" points="484.5,-832 330.5,-832 330.5,-796 484.5,-796 484.5,-832"/>
<text text-anchor="middle" x="407.5" y="-810.3" font-family="Times,serif" font-size="14.00">MATL_REAC_LOOP</text>
</g>
<!-- COMMENT_83b7860+1&#45;&gt;DO_83c01e0 -->
<g id="edge11" class="edge">
<title>COMMENT_83b7860+1&#45;&gt;DO_83c01e0</title>
<path fill="none" stroke="black" d="M407.5,-867.7C407.5,-859.98 407.5,-850.71 407.5,-842.11"/>
<polygon fill="black" stroke="black" points="411,-842.1 407.5,-832.1 404,-842.1 411,-842.1"/>
</g>
<!-- CALL_83c4340 -->
<g id="node14" class="node">
<title>CALL_83c4340</title>
<g id="a_node14"><a xlink:href="GET_N_LAYER_CELLS.svg" xlink:title="GET_N_LAYER_CELLS">
<polygon fill="lightgray" stroke="black" points="496,-760 319,-760 319,-756 315,-756 315,-752 319,-752 319,-732 315,-732 315,-728 319,-728 319,-724 496,-724 496,-760"/>
<polyline fill="none" stroke="black" points="319,-756 323,-756 323,-752 319,-752 "/>
<polyline fill="none" stroke="black" points="319,-732 323,-732 323,-728 319,-728 "/>
<text text-anchor="middle" x="407.5" y="-738.3" font-family="Times,serif" font-size="14.00">GET_N_LAYER_CELLS</text>
</a>
</g>
</g>
<!-- DO_83c01e0&#45;&gt;CALL_83c4340 -->
<g id="edge12" class="edge">
<title>DO_83c01e0&#45;&gt;CALL_83c4340</title>
<path fill="none" stroke="black" d="M407.5,-795.7C407.5,-787.98 407.5,-778.71 407.5,-770.11"/>
<polygon fill="black" stroke="black" points="411,-770.1 407.5,-760.1 404,-770.1 411,-770.1"/>
</g>
<!-- COMMENT_83ca380+1 -->
<g id="node15" class="node">
<title>COMMENT_83ca380+1</title>
<polygon fill="none" stroke="black" points="563.5,-688 245.5,-688 245.5,-652 569.5,-652 569.5,-682 563.5,-688"/>
<polyline fill="none" stroke="black" points="563.5,-688 563.5,-682 "/>
<polyline fill="none" stroke="black" points="569.5,-682 563.5,-682 "/>
<text text-anchor="middle" x="407.5" y="-666.3" font-family="Times,serif" font-size="14.00">Get the new N_CELLS_INI for this wall cell</text>
</g>
<!-- CALL_83c4340&#45;&gt;COMMENT_83ca380+1 -->
<g id="edge13" class="edge">
<title>CALL_83c4340&#45;&gt;COMMENT_83ca380+1</title>
<path fill="none" stroke="black" d="M407.5,-723.7C407.5,-715.98 407.5,-706.71 407.5,-698.11"/>
<polygon fill="black" stroke="black" points="411,-698.1 407.5,-688.1 404,-698.1 411,-698.1"/>
</g>
<!-- CALL_83ca380 -->
<g id="node16" class="node">
<title>CALL_83ca380</title>
<g id="a_node16"><a xlink:href="GET_N_LAYER_CELLS.svg" xlink:title="GET_N_LAYER_CELLS">
<polygon fill="lightgray" stroke="black" points="496,-616 319,-616 319,-612 315,-612 315,-608 319,-608 319,-588 315,-588 315,-584 319,-584 319,-580 496,-580 496,-616"/>
<polyline fill="none" stroke="black" points="319,-612 323,-612 323,-608 319,-608 "/>
<polyline fill="none" stroke="black" points="319,-588 323,-588 323,-584 319,-584 "/>
<text text-anchor="middle" x="407.5" y="-594.3" font-family="Times,serif" font-size="14.00">GET_N_LAYER_CELLS</text>
</a>
</g>
</g>
<!-- COMMENT_83ca380+1&#45;&gt;CALL_83ca380 -->
<g id="edge14" class="edge">
<title>COMMENT_83ca380+1&#45;&gt;CALL_83ca380</title>
<path fill="none" stroke="black" d="M407.5,-651.7C407.5,-643.98 407.5,-634.71 407.5,-626.11"/>
<polygon fill="black" stroke="black" points="411,-626.1 407.5,-616.1 404,-626.1 411,-626.1"/>
</g>
<!-- COMMENT_83d9260+1 -->
<g id="node17" class="node">
<title>COMMENT_83d9260+1</title>
<polygon fill="none" stroke="black" points="512,-544 297,-544 297,-508 518,-508 518,-538 512,-544"/>
<polyline fill="none" stroke="black" points="512,-544 512,-538 "/>
<polyline fill="none" stroke="black" points="518,-538 512,-538 "/>
<text text-anchor="middle" x="407.5" y="-522.3" font-family="Times,serif" font-size="14.00">Get the new cell coordinates</text>
</g>
<!-- CALL_83ca380&#45;&gt;COMMENT_83d9260+1 -->
<g id="edge16" class="edge">
<title>CALL_83ca380&#45;&gt;COMMENT_83d9260+1</title>
<path fill="none" stroke="black" d="M407.5,-579.7C407.5,-571.98 407.5,-562.71 407.5,-554.11"/>
<polygon fill="black" stroke="black" points="411,-554.1 407.5,-544.1 404,-554.1 411,-554.1"/>
</g>
<!-- CALL_83e5480 -->
<g id="node18" class="node">
<title>CALL_83e5480</title>
<g id="a_node18"><a xlink:href="GET_WALL_NODE_COORDINATES.svg" xlink:title="GET_WALL_NODE_COORDINATES">
<polygon fill="lightgray" stroke="black" points="539.5,-472 275.5,-472 275.5,-468 271.5,-468 271.5,-464 275.5,-464 275.5,-444 271.5,-444 271.5,-440 275.5,-440 275.5,-436 539.5,-436 539.5,-472"/>
<polyline fill="none" stroke="black" points="275.5,-468 279.5,-468 279.5,-464 275.5,-464 "/>
<polyline fill="none" stroke="black" points="275.5,-444 279.5,-444 279.5,-440 275.5,-440 "/>
<text text-anchor="middle" x="407.5" y="-450.3" font-family="Times,serif" font-size="14.00">GET_WALL_NODE_COORDINATES</text>
</a>
</g>
</g>
<!-- COMMENT_83d9260+1&#45;&gt;CALL_83e5480 -->
<g id="edge17" class="edge">
<title>COMMENT_83d9260+1&#45;&gt;CALL_83e5480</title>
<path fill="none" stroke="black" d="M407.5,-507.7C407.5,-499.98 407.5,-490.71 407.5,-482.11"/>
<polygon fill="black" stroke="black" points="411,-482.1 407.5,-472.1 404,-482.1 411,-482.1"/>
</g>
<!-- COMMENT_83df9c0+1 -->
<g id="node19" class="node">
<title>COMMENT_83df9c0+1</title>
<polygon fill="none" stroke="black" points="578.5,-400 230.5,-400 230.5,-364 584.5,-364 584.5,-394 578.5,-400"/>
<polyline fill="none" stroke="black" points="578.5,-400 578.5,-394 "/>
<polyline fill="none" stroke="black" points="584.5,-394 578.5,-394 "/>
<text text-anchor="middle" x="407.5" y="-378.3" font-family="Times,serif" font-size="14.00">Reset initial values for some reallocated arrays</text>
</g>
<!-- CALL_83e5480&#45;&gt;COMMENT_83df9c0+1 -->
<g id="edge18" class="edge">
<title>CALL_83e5480&#45;&gt;COMMENT_83df9c0+1</title>
<path fill="none" stroke="black" d="M407.5,-435.7C407.5,-427.98 407.5,-418.71 407.5,-410.11"/>
<polygon fill="black" stroke="black" points="411,-410.1 407.5,-400.1 404,-410.1 411,-410.1"/>
</g>
<!-- DO_83e7e80 -->
<g id="node20" class="node">
<title>DO_83e7e80</title>
<polygon fill="none" stroke="orange" points="483,-325 332,-325 332,-289 483,-289 483,-325"/>
<text text-anchor="middle" x="407.5" y="-303.3" font-family="Times,serif" font-size="14.00">MATERIAL_LOOP3</text>
</g>
<!-- COMMENT_83df9c0+1&#45;&gt;DO_83e7e80 -->
<g id="edge19" class="edge">
<title>COMMENT_83df9c0+1&#45;&gt;DO_83e7e80</title>
<path fill="none" stroke="black" d="M407.5,-363.7C407.5,-355.25 407.5,-344.87 407.5,-335.37"/>
<polygon fill="black" stroke="black" points="411,-335.18 407.5,-325.18 404,-335.18 411,-335.18"/>
</g>
<!-- COMMENT_83fc120+1 -->
<g id="node21" class="node">
<title>COMMENT_83fc120+1</title>
<polygon fill="none" stroke="black" points="809,-253 0,-253 0,-217 815,-217 815,-247 809,-253"/>
<polyline fill="none" stroke="black" points="809,-253 809,-247 "/>
<polyline fill="none" stroke="black" points="815,-247 809,-247 "/>
<text text-anchor="middle" x="407.5" y="-231.3" font-family="Times,serif" font-size="14.00">Count the numbers of REALs, INTEGERs, and LOGICALs in the new WALL or THIN_WALL derived type variable</text>
</g>
<!-- DO_83e7e80&#45;&gt;COMMENT_83fc120+1 -->
<g id="edge20" class="edge">
<title>DO_83e7e80&#45;&gt;COMMENT_83fc120+1</title>
<path fill="none" stroke="black" d="M407.5,-288.7C407.5,-280.98 407.5,-271.71 407.5,-263.11"/>
<polygon fill="black" stroke="black" points="411,-263.1 407.5,-253.1 404,-263.1 411,-263.1"/>
</g>
<!-- CALL_83ff400 -->
<g id="node22" class="node">
<title>CALL_83ff400</title>
<g id="a_node22"><a xlink:href="PACK_WALL.svg" xlink:title="PACK_WALL">
<polygon fill="lightgray" stroke="black" points="459.5,-181 355.5,-181 355.5,-177 351.5,-177 351.5,-173 355.5,-173 355.5,-153 351.5,-153 351.5,-149 355.5,-149 355.5,-145 459.5,-145 459.5,-181"/>
<polyline fill="none" stroke="black" points="355.5,-177 359.5,-177 359.5,-173 355.5,-173 "/>
<polyline fill="none" stroke="black" points="355.5,-153 359.5,-153 359.5,-149 355.5,-149 "/>
<text text-anchor="middle" x="407.5" y="-159.3" font-family="Times,serif" font-size="14.00">PACK_WALL</text>
</a>
</g>
</g>
<!-- COMMENT_83fc120+1&#45;&gt;CALL_83ff400 -->
<g id="edge21" class="edge">
<title>COMMENT_83fc120+1&#45;&gt;CALL_83ff400</title>
<path fill="none" stroke="black" d="M407.5,-216.7C407.5,-208.98 407.5,-199.71 407.5,-191.11"/>
<polygon fill="black" stroke="black" points="411,-191.1 407.5,-181.1 404,-191.1 411,-191.1"/>
</g>
<!-- CALL_8503920 -->
<g id="node23" class="node">
<title>CALL_8503920</title>
<g id="a_node23"><a xlink:href="PACK_THIN_WALL.svg" xlink:title="PACK_THIN_WALL">
<polygon fill="lightgray" stroke="black" points="482,-109 333,-109 333,-105 329,-105 329,-101 333,-101 333,-81 329,-81 329,-77 333,-77 333,-73 482,-73 482,-109"/>
<polyline fill="none" stroke="black" points="333,-105 337,-105 337,-101 333,-101 "/>
<polyline fill="none" stroke="black" points="333,-81 337,-81 337,-77 333,-77 "/>
<text text-anchor="middle" x="407.5" y="-87.3" font-family="Times,serif" font-size="14.00">PACK_THIN_WALL</text>
</a>
</g>
</g>
<!-- CALL_83ff400&#45;&gt;CALL_8503920 -->
<g id="edge22" class="edge">
<title>CALL_83ff400&#45;&gt;CALL_8503920</title>
<path fill="none" stroke="black" d="M407.5,-144.7C407.5,-136.98 407.5,-127.71 407.5,-119.11"/>
<polygon fill="black" stroke="black" points="411,-119.1 407.5,-109.1 404,-119.1 411,-119.1"/>
</g>
<!-- end_SUBPROGRAM_8503da0 -->
<g id="node24" class="node">
<title>end_SUBPROGRAM_8503da0</title>
<ellipse fill="black" stroke="black" cx="407.5" cy="-30" rx="7" ry="7"/>
</g>
<!-- CALL_8503920&#45;&gt;end_SUBPROGRAM_8503da0 -->
<g id="edge23" class="edge">
<title>CALL_8503920&#45;&gt;end_SUBPROGRAM_8503da0</title>
<path fill="none" stroke="black" d="M407.5,-72.93C407.5,-64.89 407.5,-55.33 407.5,-47.37"/>
<polygon fill="black" stroke="black" points="411,-47.22 407.5,-37.22 404,-47.22 411,-47.22"/>
</g>
</g>
</svg>
