<?xml version="1.0" encoding="UTF-8" standalone="no"?>
<!DOCTYPE svg PUBLIC "-//W3C//DTD SVG 1.1//EN"
 "http://www.w3.org/Graphics/SVG/1.1/DTD/svg11.dtd">
<!-- Generated by graphviz version 2.43.0 (0)
 -->
<!-- Title: REASSIGN_WALL_CELLS Pages: 1 -->
<svg width="748pt" height="2420pt"
 viewBox="0.00 0.00 748.00 2420.44" xmlns="http://www.w3.org/2000/svg" xmlns:xlink="http://www.w3.org/1999/xlink">
<g id="graph0" class="graph" transform="scale(1 1) rotate(0) translate(4 2416.44)">
<title>REASSIGN_WALL_CELLS</title>
<polygon fill="white" stroke="transparent" points="-4,4 -4,-2416.44 744,-2416.44 744,4 -4,4"/>
<text text-anchor="middle" x="370" y="-7.8" font-family="Times,serif" font-size="14.00">REASSIGN_WALL_CELLS</text>
<g id="clust1" class="cluster">
<title>cluster_OBSTRUCTION_LOOP</title>
<polygon fill="none" stroke="orange" points="162,-65 162,-2085.44 578,-2085.44 578,-65 162,-65"/>
<text text-anchor="middle" x="250" y="-2070.24" font-family="Times,serif" font-size="14.00">OBSTRUCTION_LOOP</text>
</g>
<!-- start_SUBPROGRAM_8d714e0 -->
<g id="node1" class="node">
<title>start_SUBPROGRAM_8d714e0</title>
<ellipse fill="none" stroke="black" cx="370" cy="-2405.44" rx="7" ry="7"/>
</g>
<!-- COMMENT_8bb0940+1 -->
<g id="node2" class="node">
<title>COMMENT_8bb0940+1</title>
<polygon fill="none" stroke="black" points="637,-2362.44 97,-2362.44 97,-2309.44 643,-2309.44 643,-2356.44 637,-2362.44"/>
<polyline fill="none" stroke="black" points="637,-2362.44 637,-2356.44 "/>
<polyline fill="none" stroke="black" points="643,-2356.44 637,-2356.44 "/>
<text text-anchor="middle" x="370" y="-2347.24" font-family="Times,serif" font-size="14.00">!&gt; brief Re&#45;assign wall boundaries after create or removal of obstructions</text>
<text text-anchor="middle" x="370" y="-2332.24" font-family="Times,serif" font-size="14.00">!&gt; param T Current time (s)</text>
<text text-anchor="middle" x="370" y="-2317.24" font-family="Times,serif" font-size="14.00">!&gt; param NM Mesh number</text>
</g>
<!-- start_SUBPROGRAM_8d714e0&#45;&gt;COMMENT_8bb0940+1 -->
<g id="edge1" class="edge">
<title>start_SUBPROGRAM_8d714e0&#45;&gt;COMMENT_8bb0940+1</title>
<path fill="none" stroke="black" d="M370,-2398.21C370,-2392.2 370,-2382.6 370,-2372.76"/>
<polygon fill="black" stroke="black" points="373.5,-2372.56 370,-2362.56 366.5,-2372.56 373.5,-2372.56"/>
</g>
<!-- CALL_8bb51a0 -->
<g id="node3" class="node">
<title>CALL_8bb51a0</title>
<g id="a_node3"><a xlink:href="POINT_TO_MESH.svg" xlink:title="POINT_TO_MESH">
<polygon fill="lightgray" stroke="black" points="442,-2273.44 298,-2273.44 298,-2269.44 294,-2269.44 294,-2265.44 298,-2265.44 298,-2245.44 294,-2245.44 294,-2241.44 298,-2241.44 298,-2237.44 442,-2237.44 442,-2273.44"/>
<polyline fill="none" stroke="black" points="298,-2269.44 302,-2269.44 302,-2265.44 298,-2265.44 "/>
<polyline fill="none" stroke="black" points="298,-2245.44 302,-2245.44 302,-2241.44 298,-2241.44 "/>
<text text-anchor="middle" x="370" y="-2251.74" font-family="Times,serif" font-size="14.00">POINT_TO_MESH</text>
</a>
</g>
</g>
<!-- COMMENT_8bb0940+1&#45;&gt;CALL_8bb51a0 -->
<g id="edge2" class="edge">
<title>COMMENT_8bb0940+1&#45;&gt;CALL_8bb51a0</title>
<path fill="none" stroke="black" d="M370,-2309.24C370,-2301.15 370,-2292.2 370,-2283.99"/>
<polygon fill="black" stroke="black" points="373.5,-2283.77 370,-2273.77 366.5,-2283.77 373.5,-2283.77"/>
</g>
<!-- CALL_8bbdfc0 -->
<g id="node4" class="node">
<title>CALL_8bbdfc0</title>
<g id="a_node4"><a xlink:href="GET_BOUNDARY_TYPE.svg" xlink:title="GET_BOUNDARY_TYPE">
<polygon fill="lightgray" stroke="black" points="462.5,-2201.44 277.5,-2201.44 277.5,-2197.44 273.5,-2197.44 273.5,-2193.44 277.5,-2193.44 277.5,-2173.44 273.5,-2173.44 273.5,-2169.44 277.5,-2169.44 277.5,-2165.44 462.5,-2165.44 462.5,-2201.44"/>
<polyline fill="none" stroke="black" points="277.5,-2197.44 281.5,-2197.44 281.5,-2193.44 277.5,-2193.44 "/>
<polyline fill="none" stroke="black" points="277.5,-2173.44 281.5,-2173.44 281.5,-2169.44 277.5,-2169.44 "/>
<text text-anchor="middle" x="370" y="-2179.74" font-family="Times,serif" font-size="14.00">GET_BOUNDARY_TYPE</text>
</a>
</g>
</g>
<!-- CALL_8bb51a0&#45;&gt;CALL_8bbdfc0 -->
<g id="edge3" class="edge">
<title>CALL_8bb51a0&#45;&gt;CALL_8bbdfc0</title>
<path fill="none" stroke="black" d="M370,-2237.14C370,-2229.42 370,-2220.15 370,-2211.55"/>
<polygon fill="black" stroke="black" points="373.5,-2211.54 370,-2201.54 366.5,-2211.54 373.5,-2211.54"/>
</g>
<!-- COMMENT_8bbd6c0+1 -->
<g id="node5" class="node">
<title>COMMENT_8bbd6c0+1</title>
<polygon fill="none" stroke="black" points="734,-2129.44 0,-2129.44 0,-2093.44 740,-2093.44 740,-2123.44 734,-2129.44"/>
<polyline fill="none" stroke="black" points="734,-2129.44 734,-2123.44 "/>
<polyline fill="none" stroke="black" points="740,-2123.44 734,-2123.44 "/>
<text text-anchor="middle" x="370" y="-2107.74" font-family="Times,serif" font-size="14.00">Loop over all obstructions in the current mesh and initialize newly exposed or covered wall cell faces</text>
</g>
<!-- CALL_8bbdfc0&#45;&gt;COMMENT_8bbd6c0+1 -->
<g id="edge4" class="edge">
<title>CALL_8bbdfc0&#45;&gt;COMMENT_8bbd6c0+1</title>
<path fill="none" stroke="black" d="M370,-2165.14C370,-2157.42 370,-2148.15 370,-2139.55"/>
<polygon fill="black" stroke="black" points="373.5,-2139.54 370,-2129.54 366.5,-2139.54 373.5,-2139.54"/>
</g>
<!-- beginDO_DO_8d24f00 -->
<g id="node6" class="node">
<title>beginDO_DO_8d24f00</title>
<ellipse fill="black" stroke="black" cx="370" cy="-2054.08" rx="0.36" ry="0.36"/>
</g>
<!-- COMMENT_8bbd6c0+1&#45;&gt;beginDO_DO_8d24f00 -->
<g id="edge32" class="edge">
<title>COMMENT_8bbd6c0+1&#45;&gt;beginDO_DO_8d24f00</title>
<path fill="none" stroke="black" d="M370,-2093.23C370,-2077.48 370,-2056.44 370,-2055.14"/>
</g>
<!-- CALL_8bd33a0 -->
<g id="node8" class="node">
<title>CALL_8bd33a0</title>
<g id="a_node8"><a xlink:href="GET_BOUNDARY_TYPE.svg" xlink:title="GET_BOUNDARY_TYPE">
<polygon fill="lightgray" stroke="black" points="462.5,-2017.72 277.5,-2017.72 277.5,-2013.72 273.5,-2013.72 273.5,-2009.72 277.5,-2009.72 277.5,-1989.72 273.5,-1989.72 273.5,-1985.72 277.5,-1985.72 277.5,-1981.72 462.5,-1981.72 462.5,-2017.72"/>
<polyline fill="none" stroke="black" points="277.5,-2013.72 281.5,-2013.72 281.5,-2009.72 277.5,-2009.72 "/>
<polyline fill="none" stroke="black" points="277.5,-1989.72 281.5,-1989.72 281.5,-1985.72 277.5,-1985.72 "/>
<text text-anchor="middle" x="370" y="-1996.02" font-family="Times,serif" font-size="14.00">GET_BOUNDARY_TYPE</text>
</a>
</g>
</g>
<!-- beginDO_DO_8d24f00&#45;&gt;CALL_8bd33a0 -->
<g id="edge5" class="edge">
<title>beginDO_DO_8d24f00&#45;&gt;CALL_8bd33a0</title>
<path fill="none" stroke="black" d="M370,-2053.57C370,-2052.09 370,-2040.04 370,-2027.82"/>
<polygon fill="black" stroke="black" points="373.5,-2027.74 370,-2017.74 366.5,-2027.74 373.5,-2027.74"/>
</g>
<!-- endDO_DO_8d24f00 -->
<g id="node7" class="node">
<title>endDO_DO_8d24f00</title>
<ellipse fill="black" stroke="black" cx="370" cy="-73.36" rx="0.36" ry="0.36"/>
</g>
<!-- end_SUBPROGRAM_8d714e0 -->
<g id="node35" class="node">
<title>end_SUBPROGRAM_8d714e0</title>
<ellipse fill="black" stroke="black" cx="370" cy="-30" rx="7" ry="7"/>
</g>
<!-- endDO_DO_8d24f00&#45;&gt;end_SUBPROGRAM_8d714e0 -->
<g id="edge34" class="edge">
<title>endDO_DO_8d24f00&#45;&gt;end_SUBPROGRAM_8d714e0</title>
<path fill="none" stroke="black" d="M370,-72.24C370,-70.89 370,-58.27 370,-47.34"/>
<polygon fill="black" stroke="black" points="373.5,-47.1 370,-37.1 366.5,-47.1 373.5,-47.1"/>
</g>
<!-- CALL_8bd4500 -->
<g id="node9" class="node">
<title>CALL_8bd4500</title>
<g id="a_node9"><a xlink:href="GET_BOUNDARY_TYPE.svg" xlink:title="GET_BOUNDARY_TYPE">
<polygon fill="lightgray" stroke="black" points="462.5,-1945.72 277.5,-1945.72 277.5,-1941.72 273.5,-1941.72 273.5,-1937.72 277.5,-1937.72 277.5,-1917.72 273.5,-1917.72 273.5,-1913.72 277.5,-1913.72 277.5,-1909.72 462.5,-1909.72 462.5,-1945.72"/>
<polyline fill="none" stroke="black" points="277.5,-1941.72 281.5,-1941.72 281.5,-1937.72 277.5,-1937.72 "/>
<polyline fill="none" stroke="black" points="277.5,-1917.72 281.5,-1917.72 281.5,-1913.72 277.5,-1913.72 "/>
<text text-anchor="middle" x="370" y="-1924.02" font-family="Times,serif" font-size="14.00">GET_BOUNDARY_TYPE</text>
</a>
</g>
</g>
<!-- CALL_8bd33a0&#45;&gt;CALL_8bd4500 -->
<g id="edge6" class="edge">
<title>CALL_8bd33a0&#45;&gt;CALL_8bd4500</title>
<path fill="none" stroke="black" d="M370,-1981.42C370,-1973.7 370,-1964.43 370,-1955.83"/>
<polygon fill="black" stroke="black" points="373.5,-1955.82 370,-1945.82 366.5,-1955.82 373.5,-1955.82"/>
</g>
<!-- CALL_8bd9d60 -->
<g id="node10" class="node">
<title>CALL_8bd9d60</title>
<g id="a_node10"><a xlink:href="GET_BOUNDARY_TYPE.svg" xlink:title="GET_BOUNDARY_TYPE">
<polygon fill="lightgray" stroke="black" points="462.5,-1873.72 277.5,-1873.72 277.5,-1869.72 273.5,-1869.72 273.5,-1865.72 277.5,-1865.72 277.5,-1845.72 273.5,-1845.72 273.5,-1841.72 277.5,-1841.72 277.5,-1837.72 462.5,-1837.72 462.5,-1873.72"/>
<polyline fill="none" stroke="black" points="277.5,-1869.72 281.5,-1869.72 281.5,-1865.72 277.5,-1865.72 "/>
<polyline fill="none" stroke="black" points="277.5,-1845.72 281.5,-1845.72 281.5,-1841.72 277.5,-1841.72 "/>
<text text-anchor="middle" x="370" y="-1852.02" font-family="Times,serif" font-size="14.00">GET_BOUNDARY_TYPE</text>
</a>
</g>
</g>
<!-- CALL_8bd4500&#45;&gt;CALL_8bd9d60 -->
<g id="edge7" class="edge">
<title>CALL_8bd4500&#45;&gt;CALL_8bd9d60</title>
<path fill="none" stroke="black" d="M370,-1909.42C370,-1901.7 370,-1892.43 370,-1883.83"/>
<polygon fill="black" stroke="black" points="373.5,-1883.82 370,-1873.82 366.5,-1883.82 373.5,-1883.82"/>
</g>
<!-- CALL_8bdce60 -->
<g id="node11" class="node">
<title>CALL_8bdce60</title>
<g id="a_node11"><a xlink:href="GET_BOUNDARY_TYPE.svg" xlink:title="GET_BOUNDARY_TYPE">
<polygon fill="lightgray" stroke="black" points="462.5,-1801.72 277.5,-1801.72 277.5,-1797.72 273.5,-1797.72 273.5,-1793.72 277.5,-1793.72 277.5,-1773.72 273.5,-1773.72 273.5,-1769.72 277.5,-1769.72 277.5,-1765.72 462.5,-1765.72 462.5,-1801.72"/>
<polyline fill="none" stroke="black" points="277.5,-1797.72 281.5,-1797.72 281.5,-1793.72 277.5,-1793.72 "/>
<polyline fill="none" stroke="black" points="277.5,-1773.72 281.5,-1773.72 281.5,-1769.72 277.5,-1769.72 "/>
<text text-anchor="middle" x="370" y="-1780.02" font-family="Times,serif" font-size="14.00">GET_BOUNDARY_TYPE</text>
</a>
</g>
</g>
<!-- CALL_8bd9d60&#45;&gt;CALL_8bdce60 -->
<g id="edge8" class="edge">
<title>CALL_8bd9d60&#45;&gt;CALL_8bdce60</title>
<path fill="none" stroke="black" d="M370,-1837.42C370,-1829.7 370,-1820.43 370,-1811.83"/>
<polygon fill="black" stroke="black" points="373.5,-1811.82 370,-1801.82 366.5,-1811.82 373.5,-1811.82"/>
</g>
<!-- COMMENT_8be3200+1 -->
<g id="node12" class="node">
<title>COMMENT_8be3200+1</title>
<polygon fill="none" stroke="black" points="533,-1729.72 201,-1729.72 201,-1693.72 539,-1693.72 539,-1723.72 533,-1729.72"/>
<polyline fill="none" stroke="black" points="533,-1729.72 533,-1723.72 "/>
<polyline fill="none" stroke="black" points="539,-1723.72 533,-1723.72 "/>
<text text-anchor="middle" x="370" y="-1708.02" font-family="Times,serif" font-size="14.00">Process the y boundaries of the OBSTruction</text>
</g>
<!-- CALL_8bdce60&#45;&gt;COMMENT_8be3200+1 -->
<g id="edge9" class="edge">
<title>CALL_8bdce60&#45;&gt;COMMENT_8be3200+1</title>
<path fill="none" stroke="black" d="M370,-1765.42C370,-1757.7 370,-1748.43 370,-1739.83"/>
<polygon fill="black" stroke="black" points="373.5,-1739.82 370,-1729.82 366.5,-1739.82 373.5,-1739.82"/>
</g>
<!-- CALL_8be4b80 -->
<g id="node13" class="node">
<title>CALL_8be4b80</title>
<g id="a_node13"><a xlink:href="GET_BOUNDARY_TYPE.svg" xlink:title="GET_BOUNDARY_TYPE">
<polygon fill="lightgray" stroke="black" points="462.5,-1657.72 277.5,-1657.72 277.5,-1653.72 273.5,-1653.72 273.5,-1649.72 277.5,-1649.72 277.5,-1629.72 273.5,-1629.72 273.5,-1625.72 277.5,-1625.72 277.5,-1621.72 462.5,-1621.72 462.5,-1657.72"/>
<polyline fill="none" stroke="black" points="277.5,-1653.72 281.5,-1653.72 281.5,-1649.72 277.5,-1649.72 "/>
<polyline fill="none" stroke="black" points="277.5,-1629.72 281.5,-1629.72 281.5,-1625.72 277.5,-1625.72 "/>
<text text-anchor="middle" x="370" y="-1636.02" font-family="Times,serif" font-size="14.00">GET_BOUNDARY_TYPE</text>
</a>
</g>
</g>
<!-- COMMENT_8be3200+1&#45;&gt;CALL_8be4b80 -->
<g id="edge10" class="edge">
<title>COMMENT_8be3200+1&#45;&gt;CALL_8be4b80</title>
<path fill="none" stroke="black" d="M370,-1693.42C370,-1685.7 370,-1676.43 370,-1667.83"/>
<polygon fill="black" stroke="black" points="373.5,-1667.82 370,-1657.82 366.5,-1667.82 373.5,-1667.82"/>
</g>
<!-- CALL_8be6760 -->
<g id="node14" class="node">
<title>CALL_8be6760</title>
<g id="a_node14"><a xlink:href="GET_BOUNDARY_TYPE.svg" xlink:title="GET_BOUNDARY_TYPE">
<polygon fill="lightgray" stroke="black" points="462.5,-1585.72 277.5,-1585.72 277.5,-1581.72 273.5,-1581.72 273.5,-1577.72 277.5,-1577.72 277.5,-1557.72 273.5,-1557.72 273.5,-1553.72 277.5,-1553.72 277.5,-1549.72 462.5,-1549.72 462.5,-1585.72"/>
<polyline fill="none" stroke="black" points="277.5,-1581.72 281.5,-1581.72 281.5,-1577.72 277.5,-1577.72 "/>
<polyline fill="none" stroke="black" points="277.5,-1557.72 281.5,-1557.72 281.5,-1553.72 277.5,-1553.72 "/>
<text text-anchor="middle" x="370" y="-1564.02" font-family="Times,serif" font-size="14.00">GET_BOUNDARY_TYPE</text>
</a>
</g>
</g>
<!-- CALL_8be4b80&#45;&gt;CALL_8be6760 -->
<g id="edge11" class="edge">
<title>CALL_8be4b80&#45;&gt;CALL_8be6760</title>
<path fill="none" stroke="black" d="M370,-1621.42C370,-1613.7 370,-1604.43 370,-1595.83"/>
<polygon fill="black" stroke="black" points="373.5,-1595.82 370,-1585.82 366.5,-1595.82 373.5,-1595.82"/>
</g>
<!-- CALL_8bece60 -->
<g id="node15" class="node">
<title>CALL_8bece60</title>
<g id="a_node15"><a xlink:href="GET_BOUNDARY_TYPE.svg" xlink:title="GET_BOUNDARY_TYPE">
<polygon fill="lightgray" stroke="black" points="462.5,-1513.72 277.5,-1513.72 277.5,-1509.72 273.5,-1509.72 273.5,-1505.72 277.5,-1505.72 277.5,-1485.72 273.5,-1485.72 273.5,-1481.72 277.5,-1481.72 277.5,-1477.72 462.5,-1477.72 462.5,-1513.72"/>
<polyline fill="none" stroke="black" points="277.5,-1509.72 281.5,-1509.72 281.5,-1505.72 277.5,-1505.72 "/>
<polyline fill="none" stroke="black" points="277.5,-1485.72 281.5,-1485.72 281.5,-1481.72 277.5,-1481.72 "/>
<text text-anchor="middle" x="370" y="-1492.02" font-family="Times,serif" font-size="14.00">GET_BOUNDARY_TYPE</text>
</a>
</g>
</g>
<!-- CALL_8be6760&#45;&gt;CALL_8bece60 -->
<g id="edge12" class="edge">
<title>CALL_8be6760&#45;&gt;CALL_8bece60</title>
<path fill="none" stroke="black" d="M370,-1549.42C370,-1541.7 370,-1532.43 370,-1523.83"/>
<polygon fill="black" stroke="black" points="373.5,-1523.82 370,-1513.82 366.5,-1523.82 373.5,-1523.82"/>
</g>
<!-- CALL_8bf4600 -->
<g id="node16" class="node">
<title>CALL_8bf4600</title>
<g id="a_node16"><a xlink:href="GET_BOUNDARY_TYPE.svg" xlink:title="GET_BOUNDARY_TYPE">
<polygon fill="lightgray" stroke="black" points="462.5,-1441.72 277.5,-1441.72 277.5,-1437.72 273.5,-1437.72 273.5,-1433.72 277.5,-1433.72 277.5,-1413.72 273.5,-1413.72 273.5,-1409.72 277.5,-1409.72 277.5,-1405.72 462.5,-1405.72 462.5,-1441.72"/>
<polyline fill="none" stroke="black" points="277.5,-1437.72 281.5,-1437.72 281.5,-1433.72 277.5,-1433.72 "/>
<polyline fill="none" stroke="black" points="277.5,-1413.72 281.5,-1413.72 281.5,-1409.72 277.5,-1409.72 "/>
<text text-anchor="middle" x="370" y="-1420.02" font-family="Times,serif" font-size="14.00">GET_BOUNDARY_TYPE</text>
</a>
</g>
</g>
<!-- CALL_8bece60&#45;&gt;CALL_8bf4600 -->
<g id="edge13" class="edge">
<title>CALL_8bece60&#45;&gt;CALL_8bf4600</title>
<path fill="none" stroke="black" d="M370,-1477.42C370,-1469.7 370,-1460.43 370,-1451.83"/>
<polygon fill="black" stroke="black" points="373.5,-1451.82 370,-1441.82 366.5,-1451.82 373.5,-1451.82"/>
</g>
<!-- COMMENT_8bf9d80+1 -->
<g id="node17" class="node">
<title>COMMENT_8bf9d80+1</title>
<polygon fill="none" stroke="black" points="533,-1369.72 201,-1369.72 201,-1333.72 539,-1333.72 539,-1363.72 533,-1369.72"/>
<polyline fill="none" stroke="black" points="533,-1369.72 533,-1363.72 "/>
<polyline fill="none" stroke="black" points="539,-1363.72 533,-1363.72 "/>
<text text-anchor="middle" x="370" y="-1348.02" font-family="Times,serif" font-size="14.00">Process the z boundaries of the OBSTruction</text>
</g>
<!-- CALL_8bf4600&#45;&gt;COMMENT_8bf9d80+1 -->
<g id="edge14" class="edge">
<title>CALL_8bf4600&#45;&gt;COMMENT_8bf9d80+1</title>
<path fill="none" stroke="black" d="M370,-1405.42C370,-1397.7 370,-1388.43 370,-1379.83"/>
<polygon fill="black" stroke="black" points="373.5,-1379.82 370,-1369.82 366.5,-1379.82 373.5,-1379.82"/>
</g>
<!-- CALL_8bfd020 -->
<g id="node18" class="node">
<title>CALL_8bfd020</title>
<g id="a_node18"><a xlink:href="GET_BOUNDARY_TYPE.svg" xlink:title="GET_BOUNDARY_TYPE">
<polygon fill="lightgray" stroke="black" points="462.5,-1297.72 277.5,-1297.72 277.5,-1293.72 273.5,-1293.72 273.5,-1289.72 277.5,-1289.72 277.5,-1269.72 273.5,-1269.72 273.5,-1265.72 277.5,-1265.72 277.5,-1261.72 462.5,-1261.72 462.5,-1297.72"/>
<polyline fill="none" stroke="black" points="277.5,-1293.72 281.5,-1293.72 281.5,-1289.72 277.5,-1289.72 "/>
<polyline fill="none" stroke="black" points="277.5,-1269.72 281.5,-1269.72 281.5,-1265.72 277.5,-1265.72 "/>
<text text-anchor="middle" x="370" y="-1276.02" font-family="Times,serif" font-size="14.00">GET_BOUNDARY_TYPE</text>
</a>
</g>
</g>
<!-- COMMENT_8bf9d80+1&#45;&gt;CALL_8bfd020 -->
<g id="edge15" class="edge">
<title>COMMENT_8bf9d80+1&#45;&gt;CALL_8bfd020</title>
<path fill="none" stroke="black" d="M370,-1333.42C370,-1325.7 370,-1316.43 370,-1307.83"/>
<polygon fill="black" stroke="black" points="373.5,-1307.82 370,-1297.82 366.5,-1307.82 373.5,-1307.82"/>
</g>
<!-- CALL_8d00000 -->
<g id="node19" class="node">
<title>CALL_8d00000</title>
<g id="a_node19"><a xlink:href="GET_BOUNDARY_TYPE.svg" xlink:title="GET_BOUNDARY_TYPE">
<polygon fill="lightgray" stroke="black" points="462.5,-1225.72 277.5,-1225.72 277.5,-1221.72 273.5,-1221.72 273.5,-1217.72 277.5,-1217.72 277.5,-1197.72 273.5,-1197.72 273.5,-1193.72 277.5,-1193.72 277.5,-1189.72 462.5,-1189.72 462.5,-1225.72"/>
<polyline fill="none" stroke="black" points="277.5,-1221.72 281.5,-1221.72 281.5,-1217.72 277.5,-1217.72 "/>
<polyline fill="none" stroke="black" points="277.5,-1197.72 281.5,-1197.72 281.5,-1193.72 277.5,-1193.72 "/>
<text text-anchor="middle" x="370" y="-1204.02" font-family="Times,serif" font-size="14.00">GET_BOUNDARY_TYPE</text>
</a>
</g>
</g>
<!-- CALL_8bfd020&#45;&gt;CALL_8d00000 -->
<g id="edge16" class="edge">
<title>CALL_8bfd020&#45;&gt;CALL_8d00000</title>
<path fill="none" stroke="black" d="M370,-1261.42C370,-1253.7 370,-1244.43 370,-1235.83"/>
<polygon fill="black" stroke="black" points="373.5,-1235.82 370,-1225.82 366.5,-1235.82 373.5,-1235.82"/>
</g>
<!-- CALL_8bff760 -->
<g id="node20" class="node">
<title>CALL_8bff760</title>
<g id="a_node20"><a xlink:href="GET_BOUNDARY_TYPE.svg" xlink:title="GET_BOUNDARY_TYPE">
<polygon fill="lightgray" stroke="black" points="462.5,-1153.72 277.5,-1153.72 277.5,-1149.72 273.5,-1149.72 273.5,-1145.72 277.5,-1145.72 277.5,-1125.72 273.5,-1125.72 273.5,-1121.72 277.5,-1121.72 277.5,-1117.72 462.5,-1117.72 462.5,-1153.72"/>
<polyline fill="none" stroke="black" points="277.5,-1149.72 281.5,-1149.72 281.5,-1145.72 277.5,-1145.72 "/>
<polyline fill="none" stroke="black" points="277.5,-1125.72 281.5,-1125.72 281.5,-1121.72 277.5,-1121.72 "/>
<text text-anchor="middle" x="370" y="-1132.02" font-family="Times,serif" font-size="14.00">GET_BOUNDARY_TYPE</text>
</a>
</g>
</g>
<!-- CALL_8d00000&#45;&gt;CALL_8bff760 -->
<g id="edge17" class="edge">
<title>CALL_8d00000&#45;&gt;CALL_8bff760</title>
<path fill="none" stroke="black" d="M370,-1189.42C370,-1181.7 370,-1172.43 370,-1163.83"/>
<polygon fill="black" stroke="black" points="373.5,-1163.82 370,-1153.82 366.5,-1163.82 373.5,-1163.82"/>
</g>
<!-- CALL_8bef960 -->
<g id="node21" class="node">
<title>CALL_8bef960</title>
<g id="a_node21"><a xlink:href="GET_BOUNDARY_TYPE.svg" xlink:title="GET_BOUNDARY_TYPE">
<polygon fill="lightgray" stroke="black" points="462.5,-1081.72 277.5,-1081.72 277.5,-1077.72 273.5,-1077.72 273.5,-1073.72 277.5,-1073.72 277.5,-1053.72 273.5,-1053.72 273.5,-1049.72 277.5,-1049.72 277.5,-1045.72 462.5,-1045.72 462.5,-1081.72"/>
<polyline fill="none" stroke="black" points="277.5,-1077.72 281.5,-1077.72 281.5,-1073.72 277.5,-1073.72 "/>
<polyline fill="none" stroke="black" points="277.5,-1053.72 281.5,-1053.72 281.5,-1049.72 277.5,-1049.72 "/>
<text text-anchor="middle" x="370" y="-1060.02" font-family="Times,serif" font-size="14.00">GET_BOUNDARY_TYPE</text>
</a>
</g>
</g>
<!-- CALL_8bff760&#45;&gt;CALL_8bef960 -->
<g id="edge18" class="edge">
<title>CALL_8bff760&#45;&gt;CALL_8bef960</title>
<path fill="none" stroke="black" d="M370,-1117.42C370,-1109.7 370,-1100.43 370,-1091.83"/>
<polygon fill="black" stroke="black" points="373.5,-1091.82 370,-1081.82 366.5,-1091.82 373.5,-1091.82"/>
</g>
<!-- COMMENT_8d0f6e0+1 -->
<g id="node22" class="node">
<title>COMMENT_8d0f6e0+1</title>
<polygon fill="none" stroke="black" points="564,-1009.72 170,-1009.72 170,-973.72 570,-973.72 570,-1003.72 564,-1009.72"/>
<polyline fill="none" stroke="black" points="564,-1009.72 564,-1003.72 "/>
<polyline fill="none" stroke="black" points="570,-1003.72 564,-1003.72 "/>
<text text-anchor="middle" x="370" y="-988.02" font-family="Times,serif" font-size="14.00">Nullify block edges on blockage that is to be removed</text>
</g>
<!-- CALL_8bef960&#45;&gt;COMMENT_8d0f6e0+1 -->
<g id="edge19" class="edge">
<title>CALL_8bef960&#45;&gt;COMMENT_8d0f6e0+1</title>
<path fill="none" stroke="black" d="M370,-1045.42C370,-1037.7 370,-1028.43 370,-1019.83"/>
<polygon fill="black" stroke="black" points="373.5,-1019.82 370,-1009.82 366.5,-1019.82 373.5,-1019.82"/>
</g>
<!-- CALL_8d121e0 -->
<g id="node23" class="node">
<title>CALL_8d121e0</title>
<g id="a_node23"><a xlink:href="REDEFINE_EDGE.svg" xlink:title="REDEFINE_EDGE">
<polygon fill="lightgray" stroke="black" points="443.5,-937.72 296.5,-937.72 296.5,-933.72 292.5,-933.72 292.5,-929.72 296.5,-929.72 296.5,-909.72 292.5,-909.72 292.5,-905.72 296.5,-905.72 296.5,-901.72 443.5,-901.72 443.5,-937.72"/>
<polyline fill="none" stroke="black" points="296.5,-933.72 300.5,-933.72 300.5,-929.72 296.5,-929.72 "/>
<polyline fill="none" stroke="black" points="296.5,-909.72 300.5,-909.72 300.5,-905.72 296.5,-905.72 "/>
<text text-anchor="middle" x="370" y="-916.02" font-family="Times,serif" font-size="14.00">REDEFINE_EDGE</text>
</a>
</g>
</g>
<!-- COMMENT_8d0f6e0+1&#45;&gt;CALL_8d121e0 -->
<g id="edge20" class="edge">
<title>COMMENT_8d0f6e0+1&#45;&gt;CALL_8d121e0</title>
<path fill="none" stroke="black" d="M370,-973.42C370,-965.7 370,-956.43 370,-947.83"/>
<polygon fill="black" stroke="black" points="373.5,-947.82 370,-937.82 366.5,-947.82 373.5,-947.82"/>
</g>
<!-- CALL_8d138a0 -->
<g id="node24" class="node">
<title>CALL_8d138a0</title>
<g id="a_node24"><a xlink:href="REDEFINE_EDGE.svg" xlink:title="REDEFINE_EDGE">
<polygon fill="lightgray" stroke="black" points="443.5,-865.72 296.5,-865.72 296.5,-861.72 292.5,-861.72 292.5,-857.72 296.5,-857.72 296.5,-837.72 292.5,-837.72 292.5,-833.72 296.5,-833.72 296.5,-829.72 443.5,-829.72 443.5,-865.72"/>
<polyline fill="none" stroke="black" points="296.5,-861.72 300.5,-861.72 300.5,-857.72 296.5,-857.72 "/>
<polyline fill="none" stroke="black" points="296.5,-837.72 300.5,-837.72 300.5,-833.72 296.5,-833.72 "/>
<text text-anchor="middle" x="370" y="-844.02" font-family="Times,serif" font-size="14.00">REDEFINE_EDGE</text>
</a>
</g>
</g>
<!-- CALL_8d121e0&#45;&gt;CALL_8d138a0 -->
<g id="edge21" class="edge">
<title>CALL_8d121e0&#45;&gt;CALL_8d138a0</title>
<path fill="none" stroke="black" d="M370,-901.42C370,-893.7 370,-884.43 370,-875.83"/>
<polygon fill="black" stroke="black" points="373.5,-875.82 370,-865.82 366.5,-875.82 373.5,-875.82"/>
</g>
<!-- CALL_8d15100 -->
<g id="node25" class="node">
<title>CALL_8d15100</title>
<g id="a_node25"><a xlink:href="REDEFINE_EDGE.svg" xlink:title="REDEFINE_EDGE">
<polygon fill="lightgray" stroke="black" points="443.5,-793.72 296.5,-793.72 296.5,-789.72 292.5,-789.72 292.5,-785.72 296.5,-785.72 296.5,-765.72 292.5,-765.72 292.5,-761.72 296.5,-761.72 296.5,-757.72 443.5,-757.72 443.5,-793.72"/>
<polyline fill="none" stroke="black" points="296.5,-789.72 300.5,-789.72 300.5,-785.72 296.5,-785.72 "/>
<polyline fill="none" stroke="black" points="296.5,-765.72 300.5,-765.72 300.5,-761.72 296.5,-761.72 "/>
<text text-anchor="middle" x="370" y="-772.02" font-family="Times,serif" font-size="14.00">REDEFINE_EDGE</text>
</a>
</g>
</g>
<!-- CALL_8d138a0&#45;&gt;CALL_8d15100 -->
<g id="edge22" class="edge">
<title>CALL_8d138a0&#45;&gt;CALL_8d15100</title>
<path fill="none" stroke="black" d="M370,-829.42C370,-821.7 370,-812.43 370,-803.83"/>
<polygon fill="black" stroke="black" points="373.5,-803.82 370,-793.82 366.5,-803.82 373.5,-803.82"/>
</g>
<!-- CALL_8d166c0 -->
<g id="node26" class="node">
<title>CALL_8d166c0</title>
<g id="a_node26"><a xlink:href="REDEFINE_EDGE.svg" xlink:title="REDEFINE_EDGE">
<polygon fill="lightgray" stroke="black" points="443.5,-721.72 296.5,-721.72 296.5,-717.72 292.5,-717.72 292.5,-713.72 296.5,-713.72 296.5,-693.72 292.5,-693.72 292.5,-689.72 296.5,-689.72 296.5,-685.72 443.5,-685.72 443.5,-721.72"/>
<polyline fill="none" stroke="black" points="296.5,-717.72 300.5,-717.72 300.5,-713.72 296.5,-713.72 "/>
<polyline fill="none" stroke="black" points="296.5,-693.72 300.5,-693.72 300.5,-689.72 296.5,-689.72 "/>
<text text-anchor="middle" x="370" y="-700.02" font-family="Times,serif" font-size="14.00">REDEFINE_EDGE</text>
</a>
</g>
</g>
<!-- CALL_8d15100&#45;&gt;CALL_8d166c0 -->
<g id="edge23" class="edge">
<title>CALL_8d15100&#45;&gt;CALL_8d166c0</title>
<path fill="none" stroke="black" d="M370,-757.42C370,-749.7 370,-740.43 370,-731.83"/>
<polygon fill="black" stroke="black" points="373.5,-731.82 370,-721.82 366.5,-731.82 373.5,-731.82"/>
</g>
<!-- CALL_8d191c0 -->
<g id="node27" class="node">
<title>CALL_8d191c0</title>
<g id="a_node27"><a xlink:href="REDEFINE_EDGE.svg" xlink:title="REDEFINE_EDGE">
<polygon fill="lightgray" stroke="black" points="443.5,-649.72 296.5,-649.72 296.5,-645.72 292.5,-645.72 292.5,-641.72 296.5,-641.72 296.5,-621.72 292.5,-621.72 292.5,-617.72 296.5,-617.72 296.5,-613.72 443.5,-613.72 443.5,-649.72"/>
<polyline fill="none" stroke="black" points="296.5,-645.72 300.5,-645.72 300.5,-641.72 296.5,-641.72 "/>
<polyline fill="none" stroke="black" points="296.5,-621.72 300.5,-621.72 300.5,-617.72 296.5,-617.72 "/>
<text text-anchor="middle" x="370" y="-628.02" font-family="Times,serif" font-size="14.00">REDEFINE_EDGE</text>
</a>
</g>
</g>
<!-- CALL_8d166c0&#45;&gt;CALL_8d191c0 -->
<g id="edge24" class="edge">
<title>CALL_8d166c0&#45;&gt;CALL_8d191c0</title>
<path fill="none" stroke="black" d="M370,-685.42C370,-677.7 370,-668.43 370,-659.83"/>
<polygon fill="black" stroke="black" points="373.5,-659.82 370,-649.82 366.5,-659.82 373.5,-659.82"/>
</g>
<!-- CALL_8d1a8c0 -->
<g id="node28" class="node">
<title>CALL_8d1a8c0</title>
<g id="a_node28"><a xlink:href="REDEFINE_EDGE.svg" xlink:title="REDEFINE_EDGE">
<polygon fill="lightgray" stroke="black" points="443.5,-577.72 296.5,-577.72 296.5,-573.72 292.5,-573.72 292.5,-569.72 296.5,-569.72 296.5,-549.72 292.5,-549.72 292.5,-545.72 296.5,-545.72 296.5,-541.72 443.5,-541.72 443.5,-577.72"/>
<polyline fill="none" stroke="black" points="296.5,-573.72 300.5,-573.72 300.5,-569.72 296.5,-569.72 "/>
<polyline fill="none" stroke="black" points="296.5,-549.72 300.5,-549.72 300.5,-545.72 296.5,-545.72 "/>
<text text-anchor="middle" x="370" y="-556.02" font-family="Times,serif" font-size="14.00">REDEFINE_EDGE</text>
</a>
</g>
</g>
<!-- CALL_8d191c0&#45;&gt;CALL_8d1a8c0 -->
<g id="edge25" class="edge">
<title>CALL_8d191c0&#45;&gt;CALL_8d1a8c0</title>
<path fill="none" stroke="black" d="M370,-613.42C370,-605.7 370,-596.43 370,-587.83"/>
<polygon fill="black" stroke="black" points="373.5,-587.82 370,-577.82 366.5,-587.82 373.5,-587.82"/>
</g>
<!-- CALL_8d1c2e0 -->
<g id="node29" class="node">
<title>CALL_8d1c2e0</title>
<g id="a_node29"><a xlink:href="REDEFINE_EDGE.svg" xlink:title="REDEFINE_EDGE">
<polygon fill="lightgray" stroke="black" points="443.5,-505.72 296.5,-505.72 296.5,-501.72 292.5,-501.72 292.5,-497.72 296.5,-497.72 296.5,-477.72 292.5,-477.72 292.5,-473.72 296.5,-473.72 296.5,-469.72 443.5,-469.72 443.5,-505.72"/>
<polyline fill="none" stroke="black" points="296.5,-501.72 300.5,-501.72 300.5,-497.72 296.5,-497.72 "/>
<polyline fill="none" stroke="black" points="296.5,-477.72 300.5,-477.72 300.5,-473.72 296.5,-473.72 "/>
<text text-anchor="middle" x="370" y="-484.02" font-family="Times,serif" font-size="14.00">REDEFINE_EDGE</text>
</a>
</g>
</g>
<!-- CALL_8d1a8c0&#45;&gt;CALL_8d1c2e0 -->
<g id="edge26" class="edge">
<title>CALL_8d1a8c0&#45;&gt;CALL_8d1c2e0</title>
<path fill="none" stroke="black" d="M370,-541.42C370,-533.7 370,-524.43 370,-515.83"/>
<polygon fill="black" stroke="black" points="373.5,-515.82 370,-505.82 366.5,-515.82 373.5,-515.82"/>
</g>
<!-- CALL_8d1d8e0 -->
<g id="node30" class="node">
<title>CALL_8d1d8e0</title>
<g id="a_node30"><a xlink:href="REDEFINE_EDGE.svg" xlink:title="REDEFINE_EDGE">
<polygon fill="lightgray" stroke="black" points="443.5,-433.72 296.5,-433.72 296.5,-429.72 292.5,-429.72 292.5,-425.72 296.5,-425.72 296.5,-405.72 292.5,-405.72 292.5,-401.72 296.5,-401.72 296.5,-397.72 443.5,-397.72 443.5,-433.72"/>
<polyline fill="none" stroke="black" points="296.5,-429.72 300.5,-429.72 300.5,-425.72 296.5,-425.72 "/>
<polyline fill="none" stroke="black" points="296.5,-405.72 300.5,-405.72 300.5,-401.72 296.5,-401.72 "/>
<text text-anchor="middle" x="370" y="-412.02" font-family="Times,serif" font-size="14.00">REDEFINE_EDGE</text>
</a>
</g>
</g>
<!-- CALL_8d1c2e0&#45;&gt;CALL_8d1d8e0 -->
<g id="edge27" class="edge">
<title>CALL_8d1c2e0&#45;&gt;CALL_8d1d8e0</title>
<path fill="none" stroke="black" d="M370,-469.42C370,-461.7 370,-452.43 370,-443.83"/>
<polygon fill="black" stroke="black" points="373.5,-443.82 370,-433.82 366.5,-443.82 373.5,-443.82"/>
</g>
<!-- CALL_8d204c0 -->
<g id="node31" class="node">
<title>CALL_8d204c0</title>
<g id="a_node31"><a xlink:href="REDEFINE_EDGE.svg" xlink:title="REDEFINE_EDGE">
<polygon fill="lightgray" stroke="black" points="443.5,-361.72 296.5,-361.72 296.5,-357.72 292.5,-357.72 292.5,-353.72 296.5,-353.72 296.5,-333.72 292.5,-333.72 292.5,-329.72 296.5,-329.72 296.5,-325.72 443.5,-325.72 443.5,-361.72"/>
<polyline fill="none" stroke="black" points="296.5,-357.72 300.5,-357.72 300.5,-353.72 296.5,-353.72 "/>
<polyline fill="none" stroke="black" points="296.5,-333.72 300.5,-333.72 300.5,-329.72 296.5,-329.72 "/>
<text text-anchor="middle" x="370" y="-340.02" font-family="Times,serif" font-size="14.00">REDEFINE_EDGE</text>
</a>
</g>
</g>
<!-- CALL_8d1d8e0&#45;&gt;CALL_8d204c0 -->
<g id="edge28" class="edge">
<title>CALL_8d1d8e0&#45;&gt;CALL_8d204c0</title>
<path fill="none" stroke="black" d="M370,-397.42C370,-389.7 370,-380.43 370,-371.83"/>
<polygon fill="black" stroke="black" points="373.5,-371.82 370,-361.82 366.5,-371.82 373.5,-371.82"/>
</g>
<!-- CALL_8d21c00 -->
<g id="node32" class="node">
<title>CALL_8d21c00</title>
<g id="a_node32"><a xlink:href="REDEFINE_EDGE.svg" xlink:title="REDEFINE_EDGE">
<polygon fill="lightgray" stroke="black" points="443.5,-289.72 296.5,-289.72 296.5,-285.72 292.5,-285.72 292.5,-281.72 296.5,-281.72 296.5,-261.72 292.5,-261.72 292.5,-257.72 296.5,-257.72 296.5,-253.72 443.5,-253.72 443.5,-289.72"/>
<polyline fill="none" stroke="black" points="296.5,-285.72 300.5,-285.72 300.5,-281.72 296.5,-281.72 "/>
<polyline fill="none" stroke="black" points="296.5,-261.72 300.5,-261.72 300.5,-257.72 296.5,-257.72 "/>
<text text-anchor="middle" x="370" y="-268.02" font-family="Times,serif" font-size="14.00">REDEFINE_EDGE</text>
</a>
</g>
</g>
<!-- CALL_8d204c0&#45;&gt;CALL_8d21c00 -->
<g id="edge29" class="edge">
<title>CALL_8d204c0&#45;&gt;CALL_8d21c00</title>
<path fill="none" stroke="black" d="M370,-325.42C370,-317.7 370,-308.43 370,-299.83"/>
<polygon fill="black" stroke="black" points="373.5,-299.82 370,-289.82 366.5,-299.82 373.5,-299.82"/>
</g>
<!-- CALL_8d233c0 -->
<g id="node33" class="node">
<title>CALL_8d233c0</title>
<g id="a_node33"><a xlink:href="REDEFINE_EDGE.svg" xlink:title="REDEFINE_EDGE">
<polygon fill="lightgray" stroke="black" points="443.5,-217.72 296.5,-217.72 296.5,-213.72 292.5,-213.72 292.5,-209.72 296.5,-209.72 296.5,-189.72 292.5,-189.72 292.5,-185.72 296.5,-185.72 296.5,-181.72 443.5,-181.72 443.5,-217.72"/>
<polyline fill="none" stroke="black" points="296.5,-213.72 300.5,-213.72 300.5,-209.72 296.5,-209.72 "/>
<polyline fill="none" stroke="black" points="296.5,-189.72 300.5,-189.72 300.5,-185.72 296.5,-185.72 "/>
<text text-anchor="middle" x="370" y="-196.02" font-family="Times,serif" font-size="14.00">REDEFINE_EDGE</text>
</a>
</g>
</g>
<!-- CALL_8d21c00&#45;&gt;CALL_8d233c0 -->
<g id="edge30" class="edge">
<title>CALL_8d21c00&#45;&gt;CALL_8d233c0</title>
<path fill="none" stroke="black" d="M370,-253.42C370,-245.7 370,-236.43 370,-227.83"/>
<polygon fill="black" stroke="black" points="373.5,-227.82 370,-217.82 366.5,-227.82 373.5,-227.82"/>
</g>
<!-- CALL_8d24a60 -->
<g id="node34" class="node">
<title>CALL_8d24a60</title>
<g id="a_node34"><a xlink:href="REDEFINE_EDGE.svg" xlink:title="REDEFINE_EDGE">
<polygon fill="lightgray" stroke="black" points="443.5,-145.72 296.5,-145.72 296.5,-141.72 292.5,-141.72 292.5,-137.72 296.5,-137.72 296.5,-117.72 292.5,-117.72 292.5,-113.72 296.5,-113.72 296.5,-109.72 443.5,-109.72 443.5,-145.72"/>
<polyline fill="none" stroke="black" points="296.5,-141.72 300.5,-141.72 300.5,-137.72 296.5,-137.72 "/>
<polyline fill="none" stroke="black" points="296.5,-117.72 300.5,-117.72 300.5,-113.72 296.5,-113.72 "/>
<text text-anchor="middle" x="370" y="-124.02" font-family="Times,serif" font-size="14.00">REDEFINE_EDGE</text>
</a>
</g>
</g>
<!-- CALL_8d233c0&#45;&gt;CALL_8d24a60 -->
<g id="edge31" class="edge">
<title>CALL_8d233c0&#45;&gt;CALL_8d24a60</title>
<path fill="none" stroke="black" d="M370,-181.42C370,-173.7 370,-164.43 370,-155.83"/>
<polygon fill="black" stroke="black" points="373.5,-155.82 370,-145.82 366.5,-155.82 373.5,-155.82"/>
</g>
<!-- CALL_8d24a60&#45;&gt;endDO_DO_8d24f00 -->
<g id="edge33" class="edge">
<title>CALL_8d24a60&#45;&gt;endDO_DO_8d24f00</title>
<path fill="none" stroke="black" d="M370,-109.66C370,-94.65 370,-74.99 370,-73.78"/>
</g>
</g>
</svg>
