<?xml version="1.0" encoding="UTF-8" standalone="no"?>
<!DOCTYPE svg PUBLIC "-//W3C//DTD SVG 1.1//EN"
 "http://www.w3.org/Graphics/SVG/1.1/DTD/svg11.dtd">
<!-- Generated by graphviz version 2.43.0 (0)
 -->
<!-- Title: REASSIGN_WALL_CELLS Pages: 1 -->
<svg width="748pt" height="2347pt"
 viewBox="0.00 0.00 748.00 2347.00" xmlns="http://www.w3.org/2000/svg" xmlns:xlink="http://www.w3.org/1999/xlink">
<g id="graph0" class="graph" transform="scale(1 1) rotate(0) translate(4 2343)">
<title>REASSIGN_WALL_CELLS</title>
<polygon fill="white" stroke="transparent" points="-4,4 -4,-2343 744,-2343 744,4 -4,4"/>
<text text-anchor="middle" x="370" y="-7.8" font-family="Times,serif" font-size="14.00">REASSIGN_WALL_CELLS</text>
<g id="clust1" class="cluster">
<title>cluster_OBSTRUCTION_LOOP</title>
<polygon fill="none" stroke="orange" points="162,-65 162,-2012 578,-2012 578,-65 162,-65"/>
<text text-anchor="middle" x="250" y="-1996.8" font-family="Times,serif" font-size="14.00">OBSTRUCTION_LOOP</text>
</g>
<!-- start_SUBPROGRAM_9330520 -->
<g id="node1" class="node">
<title>start_SUBPROGRAM_9330520</title>
<ellipse fill="none" stroke="black" cx="370" cy="-2332" rx="7" ry="7"/>
</g>
<!-- COMMENT_9171200+1 -->
<g id="node2" class="node">
<title>COMMENT_9171200+1</title>
<polygon fill="none" stroke="black" points="637,-2289 97,-2289 97,-2236 643,-2236 643,-2283 637,-2289"/>
<polyline fill="none" stroke="black" points="637,-2289 637,-2283 "/>
<polyline fill="none" stroke="black" points="643,-2283 637,-2283 "/>
<text text-anchor="middle" x="370" y="-2273.8" font-family="Times,serif" font-size="14.00">!&gt; brief Re&#45;assign wall boundaries after create or removal of obstructions</text>
<text text-anchor="middle" x="370" y="-2258.8" font-family="Times,serif" font-size="14.00">!&gt; param T Current time (s)</text>
<text text-anchor="middle" x="370" y="-2243.8" font-family="Times,serif" font-size="14.00">!&gt; param NM Mesh number</text>
</g>
<!-- start_SUBPROGRAM_9330520&#45;&gt;COMMENT_9171200+1 -->
<g id="edge1" class="edge">
<title>start_SUBPROGRAM_9330520&#45;&gt;COMMENT_9171200+1</title>
<path fill="none" stroke="black" d="M370,-2324.77C370,-2318.76 370,-2309.16 370,-2299.32"/>
<polygon fill="black" stroke="black" points="373.5,-2299.12 370,-2289.12 366.5,-2299.12 373.5,-2299.12"/>
</g>
<!-- CALL_9176ec0 -->
<g id="node3" class="node">
<title>CALL_9176ec0</title>
<g id="a_node3"><a xlink:href="POINT_TO_MESH.svg" xlink:title="POINT_TO_MESH">
<polygon fill="lightgray" stroke="black" points="442,-2200 298,-2200 298,-2196 294,-2196 294,-2192 298,-2192 298,-2172 294,-2172 294,-2168 298,-2168 298,-2164 442,-2164 442,-2200"/>
<polyline fill="none" stroke="black" points="298,-2196 302,-2196 302,-2192 298,-2192 "/>
<polyline fill="none" stroke="black" points="298,-2172 302,-2172 302,-2168 298,-2168 "/>
<text text-anchor="middle" x="370" y="-2178.3" font-family="Times,serif" font-size="14.00">POINT_TO_MESH</text>
</a>
</g>
</g>
<!-- COMMENT_9171200+1&#45;&gt;CALL_9176ec0 -->
<g id="edge2" class="edge">
<title>COMMENT_9171200+1&#45;&gt;CALL_9176ec0</title>
<path fill="none" stroke="black" d="M370,-2235.8C370,-2227.71 370,-2218.76 370,-2210.55"/>
<polygon fill="black" stroke="black" points="373.5,-2210.33 370,-2200.33 366.5,-2210.33 373.5,-2210.33"/>
</g>
<!-- CALL_9180f60 -->
<g id="node4" class="node">
<title>CALL_9180f60</title>
<g id="a_node4"><a xlink:href="GET_BOUNDARY_TYPE.svg" xlink:title="GET_BOUNDARY_TYPE">
<polygon fill="lightgray" stroke="black" points="462.5,-2128 277.5,-2128 277.5,-2124 273.5,-2124 273.5,-2120 277.5,-2120 277.5,-2100 273.5,-2100 273.5,-2096 277.5,-2096 277.5,-2092 462.5,-2092 462.5,-2128"/>
<polyline fill="none" stroke="black" points="277.5,-2124 281.5,-2124 281.5,-2120 277.5,-2120 "/>
<polyline fill="none" stroke="black" points="277.5,-2100 281.5,-2100 281.5,-2096 277.5,-2096 "/>
<text text-anchor="middle" x="370" y="-2106.3" font-family="Times,serif" font-size="14.00">GET_BOUNDARY_TYPE</text>
</a>
</g>
</g>
<!-- CALL_9176ec0&#45;&gt;CALL_9180f60 -->
<g id="edge3" class="edge">
<title>CALL_9176ec0&#45;&gt;CALL_9180f60</title>
<path fill="none" stroke="black" d="M370,-2163.7C370,-2155.98 370,-2146.71 370,-2138.11"/>
<polygon fill="black" stroke="black" points="373.5,-2138.1 370,-2128.1 366.5,-2138.1 373.5,-2138.1"/>
</g>
<!-- COMMENT_9180f20+1 -->
<g id="node5" class="node">
<title>COMMENT_9180f20+1</title>
<polygon fill="none" stroke="black" points="734,-2056 0,-2056 0,-2020 740,-2020 740,-2050 734,-2056"/>
<polyline fill="none" stroke="black" points="734,-2056 734,-2050 "/>
<polyline fill="none" stroke="black" points="740,-2050 734,-2050 "/>
<text text-anchor="middle" x="370" y="-2034.3" font-family="Times,serif" font-size="14.00">Loop over all obstructions in the current mesh and initialize newly exposed or covered wall cell faces</text>
</g>
<!-- CALL_9180f60&#45;&gt;COMMENT_9180f20+1 -->
<g id="edge4" class="edge">
<title>CALL_9180f60&#45;&gt;COMMENT_9180f20+1</title>
<path fill="none" stroke="black" d="M370,-2091.7C370,-2083.98 370,-2074.71 370,-2066.11"/>
<polygon fill="black" stroke="black" points="373.5,-2066.1 370,-2056.1 366.5,-2066.1 373.5,-2066.1"/>
</g>
<!-- CALL_917cf60 -->
<g id="node6" class="node">
<title>CALL_917cf60</title>
<g id="a_node6"><a xlink:href="GET_BOUNDARY_TYPE.svg" xlink:title="GET_BOUNDARY_TYPE">
<polygon fill="lightgray" stroke="black" points="462.5,-1981 277.5,-1981 277.5,-1977 273.5,-1977 273.5,-1973 277.5,-1973 277.5,-1953 273.5,-1953 273.5,-1949 277.5,-1949 277.5,-1945 462.5,-1945 462.5,-1981"/>
<polyline fill="none" stroke="black" points="277.5,-1977 281.5,-1977 281.5,-1973 277.5,-1973 "/>
<polyline fill="none" stroke="black" points="277.5,-1953 281.5,-1953 281.5,-1949 277.5,-1949 "/>
<text text-anchor="middle" x="370" y="-1959.3" font-family="Times,serif" font-size="14.00">GET_BOUNDARY_TYPE</text>
</a>
</g>
</g>
<!-- COMMENT_9180f20+1&#45;&gt;CALL_917cf60 -->
<g id="edge31" class="edge">
<title>COMMENT_9180f20+1&#45;&gt;CALL_917cf60</title>
<path fill="none" stroke="black" d="M370,-2019.7C370,-2011.25 370,-2000.87 370,-1991.37"/>
<polygon fill="black" stroke="black" points="373.5,-1991.18 370,-1981.18 366.5,-1991.18 373.5,-1991.18"/>
</g>
<!-- CALL_91968c0 -->
<g id="node7" class="node">
<title>CALL_91968c0</title>
<g id="a_node7"><a xlink:href="GET_BOUNDARY_TYPE.svg" xlink:title="GET_BOUNDARY_TYPE">
<polygon fill="lightgray" stroke="black" points="462.5,-1909 277.5,-1909 277.5,-1905 273.5,-1905 273.5,-1901 277.5,-1901 277.5,-1881 273.5,-1881 273.5,-1877 277.5,-1877 277.5,-1873 462.5,-1873 462.5,-1909"/>
<polyline fill="none" stroke="black" points="277.5,-1905 281.5,-1905 281.5,-1901 277.5,-1901 "/>
<polyline fill="none" stroke="black" points="277.5,-1881 281.5,-1881 281.5,-1877 277.5,-1877 "/>
<text text-anchor="middle" x="370" y="-1887.3" font-family="Times,serif" font-size="14.00">GET_BOUNDARY_TYPE</text>
</a>
</g>
</g>
<!-- CALL_917cf60&#45;&gt;CALL_91968c0 -->
<g id="edge5" class="edge">
<title>CALL_917cf60&#45;&gt;CALL_91968c0</title>
<path fill="none" stroke="black" d="M370,-1944.7C370,-1936.98 370,-1927.71 370,-1919.11"/>
<polygon fill="black" stroke="black" points="373.5,-1919.1 370,-1909.1 366.5,-1919.1 373.5,-1919.1"/>
</g>
<!-- CALL_919a980 -->
<g id="node8" class="node">
<title>CALL_919a980</title>
<g id="a_node8"><a xlink:href="GET_BOUNDARY_TYPE.svg" xlink:title="GET_BOUNDARY_TYPE">
<polygon fill="lightgray" stroke="black" points="462.5,-1837 277.5,-1837 277.5,-1833 273.5,-1833 273.5,-1829 277.5,-1829 277.5,-1809 273.5,-1809 273.5,-1805 277.5,-1805 277.5,-1801 462.5,-1801 462.5,-1837"/>
<polyline fill="none" stroke="black" points="277.5,-1833 281.5,-1833 281.5,-1829 277.5,-1829 "/>
<polyline fill="none" stroke="black" points="277.5,-1809 281.5,-1809 281.5,-1805 277.5,-1805 "/>
<text text-anchor="middle" x="370" y="-1815.3" font-family="Times,serif" font-size="14.00">GET_BOUNDARY_TYPE</text>
</a>
</g>
</g>
<!-- CALL_91968c0&#45;&gt;CALL_919a980 -->
<g id="edge6" class="edge">
<title>CALL_91968c0&#45;&gt;CALL_919a980</title>
<path fill="none" stroke="black" d="M370,-1872.7C370,-1864.98 370,-1855.71 370,-1847.11"/>
<polygon fill="black" stroke="black" points="373.5,-1847.1 370,-1837.1 366.5,-1847.1 373.5,-1847.1"/>
</g>
<!-- CALL_919b200 -->
<g id="node9" class="node">
<title>CALL_919b200</title>
<g id="a_node9"><a xlink:href="GET_BOUNDARY_TYPE.svg" xlink:title="GET_BOUNDARY_TYPE">
<polygon fill="lightgray" stroke="black" points="462.5,-1765 277.5,-1765 277.5,-1761 273.5,-1761 273.5,-1757 277.5,-1757 277.5,-1737 273.5,-1737 273.5,-1733 277.5,-1733 277.5,-1729 462.5,-1729 462.5,-1765"/>
<polyline fill="none" stroke="black" points="277.5,-1761 281.5,-1761 281.5,-1757 277.5,-1757 "/>
<polyline fill="none" stroke="black" points="277.5,-1737 281.5,-1737 281.5,-1733 277.5,-1733 "/>
<text text-anchor="middle" x="370" y="-1743.3" font-family="Times,serif" font-size="14.00">GET_BOUNDARY_TYPE</text>
</a>
</g>
</g>
<!-- CALL_919a980&#45;&gt;CALL_919b200 -->
<g id="edge7" class="edge">
<title>CALL_919a980&#45;&gt;CALL_919b200</title>
<path fill="none" stroke="black" d="M370,-1800.7C370,-1792.98 370,-1783.71 370,-1775.11"/>
<polygon fill="black" stroke="black" points="373.5,-1775.1 370,-1765.1 366.5,-1775.1 373.5,-1775.1"/>
</g>
<!-- COMMENT_91a3b40+1 -->
<g id="node10" class="node">
<title>COMMENT_91a3b40+1</title>
<polygon fill="none" stroke="black" points="533,-1693 201,-1693 201,-1657 539,-1657 539,-1687 533,-1693"/>
<polyline fill="none" stroke="black" points="533,-1693 533,-1687 "/>
<polyline fill="none" stroke="black" points="539,-1687 533,-1687 "/>
<text text-anchor="middle" x="370" y="-1671.3" font-family="Times,serif" font-size="14.00">Process the y boundaries of the OBSTruction</text>
</g>
<!-- CALL_919b200&#45;&gt;COMMENT_91a3b40+1 -->
<g id="edge8" class="edge">
<title>CALL_919b200&#45;&gt;COMMENT_91a3b40+1</title>
<path fill="none" stroke="black" d="M370,-1728.7C370,-1720.98 370,-1711.71 370,-1703.11"/>
<polygon fill="black" stroke="black" points="373.5,-1703.1 370,-1693.1 366.5,-1703.1 373.5,-1703.1"/>
</g>
<!-- CALL_91a0020 -->
<g id="node11" class="node">
<title>CALL_91a0020</title>
<g id="a_node11"><a xlink:href="GET_BOUNDARY_TYPE.svg" xlink:title="GET_BOUNDARY_TYPE">
<polygon fill="lightgray" stroke="black" points="462.5,-1621 277.5,-1621 277.5,-1617 273.5,-1617 273.5,-1613 277.5,-1613 277.5,-1593 273.5,-1593 273.5,-1589 277.5,-1589 277.5,-1585 462.5,-1585 462.5,-1621"/>
<polyline fill="none" stroke="black" points="277.5,-1617 281.5,-1617 281.5,-1613 277.5,-1613 "/>
<polyline fill="none" stroke="black" points="277.5,-1593 281.5,-1593 281.5,-1589 277.5,-1589 "/>
<text text-anchor="middle" x="370" y="-1599.3" font-family="Times,serif" font-size="14.00">GET_BOUNDARY_TYPE</text>
</a>
</g>
</g>
<!-- COMMENT_91a3b40+1&#45;&gt;CALL_91a0020 -->
<g id="edge9" class="edge">
<title>COMMENT_91a3b40+1&#45;&gt;CALL_91a0020</title>
<path fill="none" stroke="black" d="M370,-1656.7C370,-1648.98 370,-1639.71 370,-1631.11"/>
<polygon fill="black" stroke="black" points="373.5,-1631.1 370,-1621.1 366.5,-1631.1 373.5,-1631.1"/>
</g>
<!-- CALL_91add60 -->
<g id="node12" class="node">
<title>CALL_91add60</title>
<g id="a_node12"><a xlink:href="GET_BOUNDARY_TYPE.svg" xlink:title="GET_BOUNDARY_TYPE">
<polygon fill="lightgray" stroke="black" points="462.5,-1549 277.5,-1549 277.5,-1545 273.5,-1545 273.5,-1541 277.5,-1541 277.5,-1521 273.5,-1521 273.5,-1517 277.5,-1517 277.5,-1513 462.5,-1513 462.5,-1549"/>
<polyline fill="none" stroke="black" points="277.5,-1545 281.5,-1545 281.5,-1541 277.5,-1541 "/>
<polyline fill="none" stroke="black" points="277.5,-1521 281.5,-1521 281.5,-1517 277.5,-1517 "/>
<text text-anchor="middle" x="370" y="-1527.3" font-family="Times,serif" font-size="14.00">GET_BOUNDARY_TYPE</text>
</a>
</g>
</g>
<!-- CALL_91a0020&#45;&gt;CALL_91add60 -->
<g id="edge10" class="edge">
<title>CALL_91a0020&#45;&gt;CALL_91add60</title>
<path fill="none" stroke="black" d="M370,-1584.7C370,-1576.98 370,-1567.71 370,-1559.11"/>
<polygon fill="black" stroke="black" points="373.5,-1559.1 370,-1549.1 366.5,-1559.1 373.5,-1559.1"/>
</g>
<!-- CALL_91aa920 -->
<g id="node13" class="node">
<title>CALL_91aa920</title>
<g id="a_node13"><a xlink:href="GET_BOUNDARY_TYPE.svg" xlink:title="GET_BOUNDARY_TYPE">
<polygon fill="lightgray" stroke="black" points="462.5,-1477 277.5,-1477 277.5,-1473 273.5,-1473 273.5,-1469 277.5,-1469 277.5,-1449 273.5,-1449 273.5,-1445 277.5,-1445 277.5,-1441 462.5,-1441 462.5,-1477"/>
<polyline fill="none" stroke="black" points="277.5,-1473 281.5,-1473 281.5,-1469 277.5,-1469 "/>
<polyline fill="none" stroke="black" points="277.5,-1449 281.5,-1449 281.5,-1445 277.5,-1445 "/>
<text text-anchor="middle" x="370" y="-1455.3" font-family="Times,serif" font-size="14.00">GET_BOUNDARY_TYPE</text>
</a>
</g>
</g>
<!-- CALL_91add60&#45;&gt;CALL_91aa920 -->
<g id="edge11" class="edge">
<title>CALL_91add60&#45;&gt;CALL_91aa920</title>
<path fill="none" stroke="black" d="M370,-1512.7C370,-1504.98 370,-1495.71 370,-1487.11"/>
<polygon fill="black" stroke="black" points="373.5,-1487.1 370,-1477.1 366.5,-1487.1 373.5,-1487.1"/>
</g>
<!-- CALL_91aae00 -->
<g id="node14" class="node">
<title>CALL_91aae00</title>
<g id="a_node14"><a xlink:href="GET_BOUNDARY_TYPE.svg" xlink:title="GET_BOUNDARY_TYPE">
<polygon fill="lightgray" stroke="black" points="462.5,-1405 277.5,-1405 277.5,-1401 273.5,-1401 273.5,-1397 277.5,-1397 277.5,-1377 273.5,-1377 273.5,-1373 277.5,-1373 277.5,-1369 462.5,-1369 462.5,-1405"/>
<polyline fill="none" stroke="black" points="277.5,-1401 281.5,-1401 281.5,-1397 277.5,-1397 "/>
<polyline fill="none" stroke="black" points="277.5,-1377 281.5,-1377 281.5,-1373 277.5,-1373 "/>
<text text-anchor="middle" x="370" y="-1383.3" font-family="Times,serif" font-size="14.00">GET_BOUNDARY_TYPE</text>
</a>
</g>
</g>
<!-- CALL_91aa920&#45;&gt;CALL_91aae00 -->
<g id="edge12" class="edge">
<title>CALL_91aa920&#45;&gt;CALL_91aae00</title>
<path fill="none" stroke="black" d="M370,-1440.7C370,-1432.98 370,-1423.71 370,-1415.11"/>
<polygon fill="black" stroke="black" points="373.5,-1415.1 370,-1405.1 366.5,-1415.1 373.5,-1415.1"/>
</g>
<!-- COMMENT_91ba0c0+1 -->
<g id="node15" class="node">
<title>COMMENT_91ba0c0+1</title>
<polygon fill="none" stroke="black" points="533,-1333 201,-1333 201,-1297 539,-1297 539,-1327 533,-1333"/>
<polyline fill="none" stroke="black" points="533,-1333 533,-1327 "/>
<polyline fill="none" stroke="black" points="539,-1327 533,-1327 "/>
<text text-anchor="middle" x="370" y="-1311.3" font-family="Times,serif" font-size="14.00">Process the z boundaries of the OBSTruction</text>
</g>
<!-- CALL_91aae00&#45;&gt;COMMENT_91ba0c0+1 -->
<g id="edge13" class="edge">
<title>CALL_91aae00&#45;&gt;COMMENT_91ba0c0+1</title>
<path fill="none" stroke="black" d="M370,-1368.7C370,-1360.98 370,-1351.71 370,-1343.11"/>
<polygon fill="black" stroke="black" points="373.5,-1343.1 370,-1333.1 366.5,-1343.1 373.5,-1343.1"/>
</g>
<!-- CALL_91ba140 -->
<g id="node16" class="node">
<title>CALL_91ba140</title>
<g id="a_node16"><a xlink:href="GET_BOUNDARY_TYPE.svg" xlink:title="GET_BOUNDARY_TYPE">
<polygon fill="lightgray" stroke="black" points="462.5,-1261 277.5,-1261 277.5,-1257 273.5,-1257 273.5,-1253 277.5,-1253 277.5,-1233 273.5,-1233 273.5,-1229 277.5,-1229 277.5,-1225 462.5,-1225 462.5,-1261"/>
<polyline fill="none" stroke="black" points="277.5,-1257 281.5,-1257 281.5,-1253 277.5,-1253 "/>
<polyline fill="none" stroke="black" points="277.5,-1233 281.5,-1233 281.5,-1229 277.5,-1229 "/>
<text text-anchor="middle" x="370" y="-1239.3" font-family="Times,serif" font-size="14.00">GET_BOUNDARY_TYPE</text>
</a>
</g>
</g>
<!-- COMMENT_91ba0c0+1&#45;&gt;CALL_91ba140 -->
<g id="edge14" class="edge">
<title>COMMENT_91ba0c0+1&#45;&gt;CALL_91ba140</title>
<path fill="none" stroke="black" d="M370,-1296.7C370,-1288.98 370,-1279.71 370,-1271.11"/>
<polygon fill="black" stroke="black" points="373.5,-1271.1 370,-1261.1 366.5,-1271.1 373.5,-1271.1"/>
</g>
<!-- CALL_91b8fe0 -->
<g id="node17" class="node">
<title>CALL_91b8fe0</title>
<g id="a_node17"><a xlink:href="GET_BOUNDARY_TYPE.svg" xlink:title="GET_BOUNDARY_TYPE">
<polygon fill="lightgray" stroke="black" points="462.5,-1189 277.5,-1189 277.5,-1185 273.5,-1185 273.5,-1181 277.5,-1181 277.5,-1161 273.5,-1161 273.5,-1157 277.5,-1157 277.5,-1153 462.5,-1153 462.5,-1189"/>
<polyline fill="none" stroke="black" points="277.5,-1185 281.5,-1185 281.5,-1181 277.5,-1181 "/>
<polyline fill="none" stroke="black" points="277.5,-1161 281.5,-1161 281.5,-1157 277.5,-1157 "/>
<text text-anchor="middle" x="370" y="-1167.3" font-family="Times,serif" font-size="14.00">GET_BOUNDARY_TYPE</text>
</a>
</g>
</g>
<!-- CALL_91ba140&#45;&gt;CALL_91b8fe0 -->
<g id="edge15" class="edge">
<title>CALL_91ba140&#45;&gt;CALL_91b8fe0</title>
<path fill="none" stroke="black" d="M370,-1224.7C370,-1216.98 370,-1207.71 370,-1199.11"/>
<polygon fill="black" stroke="black" points="373.5,-1199.1 370,-1189.1 366.5,-1199.1 373.5,-1199.1"/>
</g>
<!-- CALL_91c3100 -->
<g id="node18" class="node">
<title>CALL_91c3100</title>
<g id="a_node18"><a xlink:href="GET_BOUNDARY_TYPE.svg" xlink:title="GET_BOUNDARY_TYPE">
<polygon fill="lightgray" stroke="black" points="462.5,-1117 277.5,-1117 277.5,-1113 273.5,-1113 273.5,-1109 277.5,-1109 277.5,-1089 273.5,-1089 273.5,-1085 277.5,-1085 277.5,-1081 462.5,-1081 462.5,-1117"/>
<polyline fill="none" stroke="black" points="277.5,-1113 281.5,-1113 281.5,-1109 277.5,-1109 "/>
<polyline fill="none" stroke="black" points="277.5,-1089 281.5,-1089 281.5,-1085 277.5,-1085 "/>
<text text-anchor="middle" x="370" y="-1095.3" font-family="Times,serif" font-size="14.00">GET_BOUNDARY_TYPE</text>
</a>
</g>
</g>
<!-- CALL_91b8fe0&#45;&gt;CALL_91c3100 -->
<g id="edge16" class="edge">
<title>CALL_91b8fe0&#45;&gt;CALL_91c3100</title>
<path fill="none" stroke="black" d="M370,-1152.7C370,-1144.98 370,-1135.71 370,-1127.11"/>
<polygon fill="black" stroke="black" points="373.5,-1127.1 370,-1117.1 366.5,-1127.1 373.5,-1127.1"/>
</g>
<!-- CALL_91bf400 -->
<g id="node19" class="node">
<title>CALL_91bf400</title>
<g id="a_node19"><a xlink:href="GET_BOUNDARY_TYPE.svg" xlink:title="GET_BOUNDARY_TYPE">
<polygon fill="lightgray" stroke="black" points="462.5,-1045 277.5,-1045 277.5,-1041 273.5,-1041 273.5,-1037 277.5,-1037 277.5,-1017 273.5,-1017 273.5,-1013 277.5,-1013 277.5,-1009 462.5,-1009 462.5,-1045"/>
<polyline fill="none" stroke="black" points="277.5,-1041 281.5,-1041 281.5,-1037 277.5,-1037 "/>
<polyline fill="none" stroke="black" points="277.5,-1017 281.5,-1017 281.5,-1013 277.5,-1013 "/>
<text text-anchor="middle" x="370" y="-1023.3" font-family="Times,serif" font-size="14.00">GET_BOUNDARY_TYPE</text>
</a>
</g>
</g>
<!-- CALL_91c3100&#45;&gt;CALL_91bf400 -->
<g id="edge17" class="edge">
<title>CALL_91c3100&#45;&gt;CALL_91bf400</title>
<path fill="none" stroke="black" d="M370,-1080.7C370,-1072.98 370,-1063.71 370,-1055.11"/>
<polygon fill="black" stroke="black" points="373.5,-1055.1 370,-1045.1 366.5,-1055.1 373.5,-1055.1"/>
</g>
<!-- COMMENT_91d0580+1 -->
<g id="node20" class="node">
<title>COMMENT_91d0580+1</title>
<polygon fill="none" stroke="black" points="564,-973 170,-973 170,-937 570,-937 570,-967 564,-973"/>
<polyline fill="none" stroke="black" points="564,-973 564,-967 "/>
<polyline fill="none" stroke="black" points="570,-967 564,-967 "/>
<text text-anchor="middle" x="370" y="-951.3" font-family="Times,serif" font-size="14.00">Nullify block edges on blockage that is to be removed</text>
</g>
<!-- CALL_91bf400&#45;&gt;COMMENT_91d0580+1 -->
<g id="edge18" class="edge">
<title>CALL_91bf400&#45;&gt;COMMENT_91d0580+1</title>
<path fill="none" stroke="black" d="M370,-1008.7C370,-1000.98 370,-991.71 370,-983.11"/>
<polygon fill="black" stroke="black" points="373.5,-983.1 370,-973.1 366.5,-983.1 373.5,-983.1"/>
</g>
<!-- CALL_91d29a0 -->
<g id="node21" class="node">
<title>CALL_91d29a0</title>
<g id="a_node21"><a xlink:href="REDEFINE_EDGE.svg" xlink:title="REDEFINE_EDGE">
<polygon fill="lightgray" stroke="black" points="443.5,-901 296.5,-901 296.5,-897 292.5,-897 292.5,-893 296.5,-893 296.5,-873 292.5,-873 292.5,-869 296.5,-869 296.5,-865 443.5,-865 443.5,-901"/>
<polyline fill="none" stroke="black" points="296.5,-897 300.5,-897 300.5,-893 296.5,-893 "/>
<polyline fill="none" stroke="black" points="296.5,-873 300.5,-873 300.5,-869 296.5,-869 "/>
<text text-anchor="middle" x="370" y="-879.3" font-family="Times,serif" font-size="14.00">REDEFINE_EDGE</text>
</a>
</g>
</g>
<!-- COMMENT_91d0580+1&#45;&gt;CALL_91d29a0 -->
<g id="edge19" class="edge">
<title>COMMENT_91d0580+1&#45;&gt;CALL_91d29a0</title>
<path fill="none" stroke="black" d="M370,-936.7C370,-928.98 370,-919.71 370,-911.11"/>
<polygon fill="black" stroke="black" points="373.5,-911.1 370,-901.1 366.5,-911.1 373.5,-911.1"/>
</g>
<!-- CALL_91d3ee0 -->
<g id="node22" class="node">
<title>CALL_91d3ee0</title>
<g id="a_node22"><a xlink:href="REDEFINE_EDGE.svg" xlink:title="REDEFINE_EDGE">
<polygon fill="lightgray" stroke="black" points="443.5,-829 296.5,-829 296.5,-825 292.5,-825 292.5,-821 296.5,-821 296.5,-801 292.5,-801 292.5,-797 296.5,-797 296.5,-793 443.5,-793 443.5,-829"/>
<polyline fill="none" stroke="black" points="296.5,-825 300.5,-825 300.5,-821 296.5,-821 "/>
<polyline fill="none" stroke="black" points="296.5,-801 300.5,-801 300.5,-797 296.5,-797 "/>
<text text-anchor="middle" x="370" y="-807.3" font-family="Times,serif" font-size="14.00">REDEFINE_EDGE</text>
</a>
</g>
</g>
<!-- CALL_91d29a0&#45;&gt;CALL_91d3ee0 -->
<g id="edge20" class="edge">
<title>CALL_91d29a0&#45;&gt;CALL_91d3ee0</title>
<path fill="none" stroke="black" d="M370,-864.7C370,-856.98 370,-847.71 370,-839.11"/>
<polygon fill="black" stroke="black" points="373.5,-839.1 370,-829.1 366.5,-839.1 373.5,-839.1"/>
</g>
<!-- CALL_91d57c0 -->
<g id="node23" class="node">
<title>CALL_91d57c0</title>
<g id="a_node23"><a xlink:href="REDEFINE_EDGE.svg" xlink:title="REDEFINE_EDGE">
<polygon fill="lightgray" stroke="black" points="443.5,-757 296.5,-757 296.5,-753 292.5,-753 292.5,-749 296.5,-749 296.5,-729 292.5,-729 292.5,-725 296.5,-725 296.5,-721 443.5,-721 443.5,-757"/>
<polyline fill="none" stroke="black" points="296.5,-753 300.5,-753 300.5,-749 296.5,-749 "/>
<polyline fill="none" stroke="black" points="296.5,-729 300.5,-729 300.5,-725 296.5,-725 "/>
<text text-anchor="middle" x="370" y="-735.3" font-family="Times,serif" font-size="14.00">REDEFINE_EDGE</text>
</a>
</g>
</g>
<!-- CALL_91d3ee0&#45;&gt;CALL_91d57c0 -->
<g id="edge21" class="edge">
<title>CALL_91d3ee0&#45;&gt;CALL_91d57c0</title>
<path fill="none" stroke="black" d="M370,-792.7C370,-784.98 370,-775.71 370,-767.11"/>
<polygon fill="black" stroke="black" points="373.5,-767.1 370,-757.1 366.5,-767.1 373.5,-767.1"/>
</g>
<!-- CALL_91d6e80 -->
<g id="node24" class="node">
<title>CALL_91d6e80</title>
<g id="a_node24"><a xlink:href="REDEFINE_EDGE.svg" xlink:title="REDEFINE_EDGE">
<polygon fill="lightgray" stroke="black" points="443.5,-685 296.5,-685 296.5,-681 292.5,-681 292.5,-677 296.5,-677 296.5,-657 292.5,-657 292.5,-653 296.5,-653 296.5,-649 443.5,-649 443.5,-685"/>
<polyline fill="none" stroke="black" points="296.5,-681 300.5,-681 300.5,-677 296.5,-677 "/>
<polyline fill="none" stroke="black" points="296.5,-657 300.5,-657 300.5,-653 296.5,-653 "/>
<text text-anchor="middle" x="370" y="-663.3" font-family="Times,serif" font-size="14.00">REDEFINE_EDGE</text>
</a>
</g>
</g>
<!-- CALL_91d57c0&#45;&gt;CALL_91d6e80 -->
<g id="edge22" class="edge">
<title>CALL_91d57c0&#45;&gt;CALL_91d6e80</title>
<path fill="none" stroke="black" d="M370,-720.7C370,-712.98 370,-703.71 370,-695.11"/>
<polygon fill="black" stroke="black" points="373.5,-695.1 370,-685.1 366.5,-695.1 373.5,-695.1"/>
</g>
<!-- CALL_91d9860 -->
<g id="node25" class="node">
<title>CALL_91d9860</title>
<g id="a_node25"><a xlink:href="REDEFINE_EDGE.svg" xlink:title="REDEFINE_EDGE">
<polygon fill="lightgray" stroke="black" points="443.5,-613 296.5,-613 296.5,-609 292.5,-609 292.5,-605 296.5,-605 296.5,-585 292.5,-585 292.5,-581 296.5,-581 296.5,-577 443.5,-577 443.5,-613"/>
<polyline fill="none" stroke="black" points="296.5,-609 300.5,-609 300.5,-605 296.5,-605 "/>
<polyline fill="none" stroke="black" points="296.5,-585 300.5,-585 300.5,-581 296.5,-581 "/>
<text text-anchor="middle" x="370" y="-591.3" font-family="Times,serif" font-size="14.00">REDEFINE_EDGE</text>
</a>
</g>
</g>
<!-- CALL_91d6e80&#45;&gt;CALL_91d9860 -->
<g id="edge23" class="edge">
<title>CALL_91d6e80&#45;&gt;CALL_91d9860</title>
<path fill="none" stroke="black" d="M370,-648.7C370,-640.98 370,-631.71 370,-623.11"/>
<polygon fill="black" stroke="black" points="373.5,-623.1 370,-613.1 366.5,-623.1 373.5,-623.1"/>
</g>
<!-- CALL_91dafa0 -->
<g id="node26" class="node">
<title>CALL_91dafa0</title>
<g id="a_node26"><a xlink:href="REDEFINE_EDGE.svg" xlink:title="REDEFINE_EDGE">
<polygon fill="lightgray" stroke="black" points="443.5,-541 296.5,-541 296.5,-537 292.5,-537 292.5,-533 296.5,-533 296.5,-513 292.5,-513 292.5,-509 296.5,-509 296.5,-505 443.5,-505 443.5,-541"/>
<polyline fill="none" stroke="black" points="296.5,-537 300.5,-537 300.5,-533 296.5,-533 "/>
<polyline fill="none" stroke="black" points="296.5,-513 300.5,-513 300.5,-509 296.5,-509 "/>
<text text-anchor="middle" x="370" y="-519.3" font-family="Times,serif" font-size="14.00">REDEFINE_EDGE</text>
</a>
</g>
</g>
<!-- CALL_91d9860&#45;&gt;CALL_91dafa0 -->
<g id="edge24" class="edge">
<title>CALL_91d9860&#45;&gt;CALL_91dafa0</title>
<path fill="none" stroke="black" d="M370,-576.7C370,-568.98 370,-559.71 370,-551.11"/>
<polygon fill="black" stroke="black" points="373.5,-551.1 370,-541.1 366.5,-551.1 373.5,-551.1"/>
</g>
<!-- CALL_91dc680 -->
<g id="node27" class="node">
<title>CALL_91dc680</title>
<g id="a_node27"><a xlink:href="REDEFINE_EDGE.svg" xlink:title="REDEFINE_EDGE">
<polygon fill="lightgray" stroke="black" points="443.5,-469 296.5,-469 296.5,-465 292.5,-465 292.5,-461 296.5,-461 296.5,-441 292.5,-441 292.5,-437 296.5,-437 296.5,-433 443.5,-433 443.5,-469"/>
<polyline fill="none" stroke="black" points="296.5,-465 300.5,-465 300.5,-461 296.5,-461 "/>
<polyline fill="none" stroke="black" points="296.5,-441 300.5,-441 300.5,-437 296.5,-437 "/>
<text text-anchor="middle" x="370" y="-447.3" font-family="Times,serif" font-size="14.00">REDEFINE_EDGE</text>
</a>
</g>
</g>
<!-- CALL_91dafa0&#45;&gt;CALL_91dc680 -->
<g id="edge25" class="edge">
<title>CALL_91dafa0&#45;&gt;CALL_91dc680</title>
<path fill="none" stroke="black" d="M370,-504.7C370,-496.98 370,-487.71 370,-479.11"/>
<polygon fill="black" stroke="black" points="373.5,-479.1 370,-469.1 366.5,-479.1 373.5,-479.1"/>
</g>
<!-- CALL_91dddc0 -->
<g id="node28" class="node">
<title>CALL_91dddc0</title>
<g id="a_node28"><a xlink:href="REDEFINE_EDGE.svg" xlink:title="REDEFINE_EDGE">
<polygon fill="lightgray" stroke="black" points="443.5,-397 296.5,-397 296.5,-393 292.5,-393 292.5,-389 296.5,-389 296.5,-369 292.5,-369 292.5,-365 296.5,-365 296.5,-361 443.5,-361 443.5,-397"/>
<polyline fill="none" stroke="black" points="296.5,-393 300.5,-393 300.5,-389 296.5,-389 "/>
<polyline fill="none" stroke="black" points="296.5,-369 300.5,-369 300.5,-365 296.5,-365 "/>
<text text-anchor="middle" x="370" y="-375.3" font-family="Times,serif" font-size="14.00">REDEFINE_EDGE</text>
</a>
</g>
</g>
<!-- CALL_91dc680&#45;&gt;CALL_91dddc0 -->
<g id="edge26" class="edge">
<title>CALL_91dc680&#45;&gt;CALL_91dddc0</title>
<path fill="none" stroke="black" d="M370,-432.7C370,-424.98 370,-415.71 370,-407.11"/>
<polygon fill="black" stroke="black" points="373.5,-407.1 370,-397.1 366.5,-407.1 373.5,-407.1"/>
</g>
<!-- CALL_91e0960 -->
<g id="node29" class="node">
<title>CALL_91e0960</title>
<g id="a_node29"><a xlink:href="REDEFINE_EDGE.svg" xlink:title="REDEFINE_EDGE">
<polygon fill="lightgray" stroke="black" points="443.5,-325 296.5,-325 296.5,-321 292.5,-321 292.5,-317 296.5,-317 296.5,-297 292.5,-297 292.5,-293 296.5,-293 296.5,-289 443.5,-289 443.5,-325"/>
<polyline fill="none" stroke="black" points="296.5,-321 300.5,-321 300.5,-317 296.5,-317 "/>
<polyline fill="none" stroke="black" points="296.5,-297 300.5,-297 300.5,-293 296.5,-293 "/>
<text text-anchor="middle" x="370" y="-303.3" font-family="Times,serif" font-size="14.00">REDEFINE_EDGE</text>
</a>
</g>
</g>
<!-- CALL_91dddc0&#45;&gt;CALL_91e0960 -->
<g id="edge27" class="edge">
<title>CALL_91dddc0&#45;&gt;CALL_91e0960</title>
<path fill="none" stroke="black" d="M370,-360.7C370,-352.98 370,-343.71 370,-335.11"/>
<polygon fill="black" stroke="black" points="373.5,-335.1 370,-325.1 366.5,-335.1 373.5,-335.1"/>
</g>
<!-- CALL_91e1e60 -->
<g id="node30" class="node">
<title>CALL_91e1e60</title>
<g id="a_node30"><a xlink:href="REDEFINE_EDGE.svg" xlink:title="REDEFINE_EDGE">
<polygon fill="lightgray" stroke="black" points="443.5,-253 296.5,-253 296.5,-249 292.5,-249 292.5,-245 296.5,-245 296.5,-225 292.5,-225 292.5,-221 296.5,-221 296.5,-217 443.5,-217 443.5,-253"/>
<polyline fill="none" stroke="black" points="296.5,-249 300.5,-249 300.5,-245 296.5,-245 "/>
<polyline fill="none" stroke="black" points="296.5,-225 300.5,-225 300.5,-221 296.5,-221 "/>
<text text-anchor="middle" x="370" y="-231.3" font-family="Times,serif" font-size="14.00">REDEFINE_EDGE</text>
</a>
</g>
</g>
<!-- CALL_91e0960&#45;&gt;CALL_91e1e60 -->
<g id="edge28" class="edge">
<title>CALL_91e0960&#45;&gt;CALL_91e1e60</title>
<path fill="none" stroke="black" d="M370,-288.7C370,-280.98 370,-271.71 370,-263.11"/>
<polygon fill="black" stroke="black" points="373.5,-263.1 370,-253.1 366.5,-263.1 373.5,-263.1"/>
</g>
<!-- CALL_91e36a0 -->
<g id="node31" class="node">
<title>CALL_91e36a0</title>
<g id="a_node31"><a xlink:href="REDEFINE_EDGE.svg" xlink:title="REDEFINE_EDGE">
<polygon fill="lightgray" stroke="black" points="443.5,-181 296.5,-181 296.5,-177 292.5,-177 292.5,-173 296.5,-173 296.5,-153 292.5,-153 292.5,-149 296.5,-149 296.5,-145 443.5,-145 443.5,-181"/>
<polyline fill="none" stroke="black" points="296.5,-177 300.5,-177 300.5,-173 296.5,-173 "/>
<polyline fill="none" stroke="black" points="296.5,-153 300.5,-153 300.5,-149 296.5,-149 "/>
<text text-anchor="middle" x="370" y="-159.3" font-family="Times,serif" font-size="14.00">REDEFINE_EDGE</text>
</a>
</g>
</g>
<!-- CALL_91e1e60&#45;&gt;CALL_91e36a0 -->
<g id="edge29" class="edge">
<title>CALL_91e1e60&#45;&gt;CALL_91e36a0</title>
<path fill="none" stroke="black" d="M370,-216.7C370,-208.98 370,-199.71 370,-191.11"/>
<polygon fill="black" stroke="black" points="373.5,-191.1 370,-181.1 366.5,-191.1 373.5,-191.1"/>
</g>
<!-- CALL_91e4ce0 -->
<g id="node32" class="node">
<title>CALL_91e4ce0</title>
<g id="a_node32"><a xlink:href="REDEFINE_EDGE.svg" xlink:title="REDEFINE_EDGE">
<polygon fill="lightgray" stroke="black" points="443.5,-109 296.5,-109 296.5,-105 292.5,-105 292.5,-101 296.5,-101 296.5,-81 292.5,-81 292.5,-77 296.5,-77 296.5,-73 443.5,-73 443.5,-109"/>
<polyline fill="none" stroke="black" points="296.5,-105 300.5,-105 300.5,-101 296.5,-101 "/>
<polyline fill="none" stroke="black" points="296.5,-81 300.5,-81 300.5,-77 296.5,-77 "/>
<text text-anchor="middle" x="370" y="-87.3" font-family="Times,serif" font-size="14.00">REDEFINE_EDGE</text>
</a>
</g>
</g>
<!-- CALL_91e36a0&#45;&gt;CALL_91e4ce0 -->
<g id="edge30" class="edge">
<title>CALL_91e36a0&#45;&gt;CALL_91e4ce0</title>
<path fill="none" stroke="black" d="M370,-144.7C370,-136.98 370,-127.71 370,-119.11"/>
<polygon fill="black" stroke="black" points="373.5,-119.1 370,-109.1 366.5,-119.1 373.5,-119.1"/>
</g>
<!-- end_SUBPROGRAM_9330520 -->
<g id="node33" class="node">
<title>end_SUBPROGRAM_9330520</title>
<ellipse fill="black" stroke="black" cx="370" cy="-30" rx="7" ry="7"/>
</g>
<!-- CALL_91e4ce0&#45;&gt;end_SUBPROGRAM_9330520 -->
<g id="edge32" class="edge">
<title>CALL_91e4ce0&#45;&gt;end_SUBPROGRAM_9330520</title>
<path fill="none" stroke="black" d="M370,-72.93C370,-64.89 370,-55.33 370,-47.37"/>
<polygon fill="black" stroke="black" points="373.5,-47.22 370,-37.22 366.5,-47.22 373.5,-47.22"/>
</g>
</g>
</svg>
