<?xml version="1.0" encoding="UTF-8" standalone="no"?>
<!DOCTYPE svg PUBLIC "-//W3C//DTD SVG 1.1//EN"
 "http://www.w3.org/Graphics/SVG/1.1/DTD/svg11.dtd">
<!-- Generated by graphviz version 2.43.0 (0)
 -->
<!-- Title: REDEFINE_EDGE Pages: 1 -->
<svg width="741pt" height="214pt"
 viewBox="0.00 0.00 741.00 214.00" xmlns="http://www.w3.org/2000/svg" xmlns:xlink="http://www.w3.org/1999/xlink">
<g id="graph0" class="graph" transform="scale(1 1) rotate(0) translate(4 210)">
<title>REDEFINE_EDGE</title>
<polygon fill="white" stroke="transparent" points="-4,4 -4,-210 737,-210 737,4 -4,4"/>
<text text-anchor="middle" x="366.5" y="-7.8" font-family="Times,serif" font-size="14.00">REDEFINE_EDGE</text>
<!-- start_SUBPROGRAM_9a26900 -->
<g id="node1" class="node">
<title>start_SUBPROGRAM_9a26900</title>
<ellipse fill="none" stroke="black" cx="366.5" cy="-199" rx="7" ry="7"/>
</g>
<!-- COMMENT_9a1d380+1 -->
<g id="node2" class="node">
<title>COMMENT_9a1d380+1</title>
<polygon fill="none" stroke="black" points="727,-156 0,-156 0,-73 733,-73 733,-150 727,-156"/>
<polyline fill="none" stroke="black" points="727,-156 727,-150 "/>
<polyline fill="none" stroke="black" points="733,-150 727,-150 "/>
<text text-anchor="middle" x="366.5" y="-140.8" font-family="Times,serif" font-size="14.00">!&gt; brief Change a few properties of the EDGEs that have been exposed or covered up by a blockage</text>
<text text-anchor="middle" x="366.5" y="-125.8" font-family="Times,serif" font-size="14.00">!&gt; param II x&#45;index of edge</text>
<text text-anchor="middle" x="366.5" y="-110.8" font-family="Times,serif" font-size="14.00">!&gt; param JJ y&#45;index of edge</text>
<text text-anchor="middle" x="366.5" y="-95.8" font-family="Times,serif" font-size="14.00">!&gt; param KK z&#45;index of edge</text>
<text text-anchor="middle" x="366.5" y="-80.8" font-family="Times,serif" font-size="14.00">!&gt; param IEC Edge index: 1=x, 2=y, 3=z</text>
</g>
<!-- start_SUBPROGRAM_9a26900&#45;&gt;COMMENT_9a1d380+1 -->
<g id="edge1" class="edge">
<title>start_SUBPROGRAM_9a26900&#45;&gt;COMMENT_9a1d380+1</title>
<path fill="none" stroke="black" d="M366.5,-191.8C366.5,-185.89 366.5,-176.39 366.5,-166.07"/>
<polygon fill="black" stroke="black" points="370,-166.01 366.5,-156.01 363,-166.01 370,-166.01"/>
</g>
<!-- end_SUBPROGRAM_9a26900 -->
<g id="node3" class="node">
<title>end_SUBPROGRAM_9a26900</title>
<ellipse fill="black" stroke="black" cx="366.5" cy="-30" rx="7" ry="7"/>
</g>
<!-- COMMENT_9a1d380+1&#45;&gt;end_SUBPROGRAM_9a26900 -->
<g id="edge2" class="edge">
<title>COMMENT_9a1d380+1&#45;&gt;end_SUBPROGRAM_9a26900</title>
<path fill="none" stroke="black" d="M366.5,-72.73C366.5,-63.68 366.5,-54.59 366.5,-47.22"/>
<polygon fill="black" stroke="black" points="370,-47.02 366.5,-37.02 363,-47.02 370,-47.02"/>
</g>
</g>
</svg>
