<?xml version="1.0" encoding="UTF-8" standalone="no"?>
<!DOCTYPE svg PUBLIC "-//W3C//DTD SVG 1.1//EN"
 "http://www.w3.org/Graphics/SVG/1.1/DTD/svg11.dtd">
<!-- Generated by graphviz version 2.43.0 (0)
 -->
<!-- Title: SEARCH_FOR_ALTERNATE_WALL_CELLS Pages: 1 -->
<svg width="861pt" height="274pt"
 viewBox="0.00 0.00 861.00 274.00" xmlns="http://www.w3.org/2000/svg" xmlns:xlink="http://www.w3.org/1999/xlink">
<g id="graph0" class="graph" transform="scale(1 1) rotate(0) translate(4 270)">
<title>SEARCH_FOR_ALTERNATE_WALL_CELLS</title>
<polygon fill="white" stroke="transparent" points="-4,4 -4,-270 857,-270 857,4 -4,4"/>
<text text-anchor="middle" x="426.5" y="-7.8" font-family="Times,serif" font-size="14.00">SEARCH_FOR_ALTERNATE_WALL_CELLS</text>
<g id="clust1" class="cluster">
<title>cluster_ALTERNATE_NODE_LOOP</title>
<polygon fill="none" stroke="orange" points="312.5,-65 312.5,-140 540.5,-140 540.5,-65 312.5,-65"/>
<text text-anchor="middle" x="415" y="-124.8" font-family="Times,serif" font-size="14.00">ALTERNATE_NODE_LOOP</text>
</g>
<!-- start_SUBPROGRAM_85d1160 -->
<g id="node1" class="node">
<title>start_SUBPROGRAM_85d1160</title>
<ellipse fill="none" stroke="black" cx="426.5" cy="-259" rx="7" ry="7"/>
</g>
<!-- COMMENT_85b3040+1 -->
<g id="node2" class="node">
<title>COMMENT_85b3040+1</title>
<polygon fill="none" stroke="black" points="847,-216 0,-216 0,-148 853,-148 853,-210 847,-216"/>
<polyline fill="none" stroke="black" points="847,-216 847,-210 "/>
<polyline fill="none" stroke="black" points="853,-210 847,-210 "/>
<text text-anchor="middle" x="426.5" y="-200.8" font-family="Times,serif" font-size="14.00">!&gt; brief Find WALL or THIN_WALL cells whose internal nodes overlap those of the primary WALL or THIN_WALL cell</text>
<text text-anchor="middle" x="426.5" y="-185.8" font-family="Times,serif" font-size="14.00">!&gt; param NOM Mesh number of the primary cell or its neighbor</text>
<text text-anchor="middle" x="426.5" y="-170.8" font-family="Times,serif" font-size="14.00">!&gt; param WALL_INDEX Optional wall cell index</text>
<text text-anchor="middle" x="426.5" y="-155.8" font-family="Times,serif" font-size="14.00">!&gt; param THIN_WALL_INDEX Optional thin wall cell index</text>
</g>
<!-- start_SUBPROGRAM_85d1160&#45;&gt;COMMENT_85b3040+1 -->
<g id="edge1" class="edge">
<title>start_SUBPROGRAM_85d1160&#45;&gt;COMMENT_85b3040+1</title>
<path fill="none" stroke="black" d="M426.5,-251.86C426.5,-245.93 426.5,-236.38 426.5,-226.26"/>
<polygon fill="black" stroke="black" points="430,-226.05 426.5,-216.05 423,-226.05 430,-226.05"/>
</g>
<!-- CALL_85f4120 -->
<g id="node3" class="node">
<title>CALL_85f4120</title>
<g id="a_node3"><a xlink:href="REALLOCATE_ALTERNATE.svg" xlink:title="REALLOCATE_ALTERNATE">
<polygon fill="lightgray" stroke="black" points="532,-109 321,-109 321,-105 317,-105 317,-101 321,-101 321,-81 317,-81 317,-77 321,-77 321,-73 532,-73 532,-109"/>
<polyline fill="none" stroke="black" points="321,-105 325,-105 325,-101 321,-101 "/>
<polyline fill="none" stroke="black" points="321,-81 325,-81 325,-77 321,-77 "/>
<text text-anchor="middle" x="426.5" y="-87.3" font-family="Times,serif" font-size="14.00">REALLOCATE_ALTERNATE</text>
</a>
</g>
</g>
<!-- COMMENT_85b3040+1&#45;&gt;CALL_85f4120 -->
<g id="edge2" class="edge">
<title>COMMENT_85b3040+1&#45;&gt;CALL_85f4120</title>
<path fill="none" stroke="black" d="M426.5,-147.86C426.5,-138.58 426.5,-128.6 426.5,-119.68"/>
<polygon fill="black" stroke="black" points="430,-119.44 426.5,-109.44 423,-119.44 430,-119.44"/>
</g>
<!-- end_SUBPROGRAM_85d1160 -->
<g id="node4" class="node">
<title>end_SUBPROGRAM_85d1160</title>
<ellipse fill="black" stroke="black" cx="426.5" cy="-30" rx="7" ry="7"/>
</g>
<!-- CALL_85f4120&#45;&gt;end_SUBPROGRAM_85d1160 -->
<g id="edge3" class="edge">
<title>CALL_85f4120&#45;&gt;end_SUBPROGRAM_85d1160</title>
<path fill="none" stroke="black" d="M426.5,-72.93C426.5,-64.89 426.5,-55.33 426.5,-47.37"/>
<polygon fill="black" stroke="black" points="430,-47.22 426.5,-37.22 423,-47.22 430,-47.22"/>
</g>
</g>
</svg>
