<?xml version="1.0" encoding="UTF-8" standalone="no"?>
<!DOCTYPE svg PUBLIC "-//W3C//DTD SVG 1.1//EN"
 "http://www.w3.org/Graphics/SVG/1.1/DTD/svg11.dtd">
<!-- Generated by graphviz version 2.43.0 (0)
 -->
<!-- Title: SEARCH_FOR_ALTERNATE_WALL_CELLS Pages: 1 -->
<svg width="861pt" height="347pt"
 viewBox="0.00 0.00 861.00 347.44" xmlns="http://www.w3.org/2000/svg" xmlns:xlink="http://www.w3.org/1999/xlink">
<g id="graph0" class="graph" transform="scale(1 1) rotate(0) translate(4 343.44)">
<title>SEARCH_FOR_ALTERNATE_WALL_CELLS</title>
<polygon fill="white" stroke="transparent" points="-4,4 -4,-343.44 857,-343.44 857,4 -4,4"/>
<text text-anchor="middle" x="426.5" y="-7.8" font-family="Times,serif" font-size="14.00">SEARCH_FOR_ALTERNATE_WALL_CELLS</text>
<g id="clust1" class="cluster">
<title>cluster_ALTERNATE_NODE_LOOP</title>
<polygon fill="none" stroke="orange" points="312.5,-65 312.5,-213.44 540.5,-213.44 540.5,-65 312.5,-65"/>
<text text-anchor="middle" x="415" y="-198.24" font-family="Times,serif" font-size="14.00">ALTERNATE_NODE_LOOP</text>
</g>
<!-- start_SUBPROGRAM_812d820 -->
<g id="node1" class="node">
<title>start_SUBPROGRAM_812d820</title>
<ellipse fill="none" stroke="black" cx="426.5" cy="-332.44" rx="7" ry="7"/>
</g>
<!-- COMMENT_7fe6cc0+1 -->
<g id="node2" class="node">
<title>COMMENT_7fe6cc0+1</title>
<polygon fill="none" stroke="black" points="847,-289.44 0,-289.44 0,-221.44 853,-221.44 853,-283.44 847,-289.44"/>
<polyline fill="none" stroke="black" points="847,-289.44 847,-283.44 "/>
<polyline fill="none" stroke="black" points="853,-283.44 847,-283.44 "/>
<text text-anchor="middle" x="426.5" y="-274.24" font-family="Times,serif" font-size="14.00">!&gt; brief Find WALL or THIN_WALL cells whose internal nodes overlap those of the primary WALL or THIN_WALL cell</text>
<text text-anchor="middle" x="426.5" y="-259.24" font-family="Times,serif" font-size="14.00">!&gt; param NOM Mesh number of the primary cell or its neighbor</text>
<text text-anchor="middle" x="426.5" y="-244.24" font-family="Times,serif" font-size="14.00">!&gt; param WALL_INDEX Optional wall cell index</text>
<text text-anchor="middle" x="426.5" y="-229.24" font-family="Times,serif" font-size="14.00">!&gt; param THIN_WALL_INDEX Optional thin wall cell index</text>
</g>
<!-- start_SUBPROGRAM_812d820&#45;&gt;COMMENT_7fe6cc0+1 -->
<g id="edge1" class="edge">
<title>start_SUBPROGRAM_812d820&#45;&gt;COMMENT_7fe6cc0+1</title>
<path fill="none" stroke="black" d="M426.5,-325.3C426.5,-319.37 426.5,-309.82 426.5,-299.7"/>
<polygon fill="black" stroke="black" points="430,-299.49 426.5,-289.49 423,-299.49 430,-299.49"/>
</g>
<!-- beginDO_DO_812eca0 -->
<g id="node3" class="node">
<title>beginDO_DO_812eca0</title>
<ellipse fill="black" stroke="black" cx="426.5" cy="-182.08" rx="0.36" ry="0.36"/>
</g>
<!-- COMMENT_7fe6cc0+1&#45;&gt;beginDO_DO_812eca0 -->
<g id="edge3" class="edge">
<title>COMMENT_7fe6cc0+1&#45;&gt;beginDO_DO_812eca0</title>
<path fill="none" stroke="black" d="M426.5,-221.27C426.5,-203.21 426.5,-184.3 426.5,-183.14"/>
</g>
<!-- CALL_8128be0 -->
<g id="node5" class="node">
<title>CALL_8128be0</title>
<g id="a_node5"><a xlink:href="REALLOCATE_ALTERNATE.svg" xlink:title="REALLOCATE_ALTERNATE">
<polygon fill="lightgray" stroke="black" points="532,-145.72 321,-145.72 321,-141.72 317,-141.72 317,-137.72 321,-137.72 321,-117.72 317,-117.72 317,-113.72 321,-113.72 321,-109.72 532,-109.72 532,-145.72"/>
<polyline fill="none" stroke="black" points="321,-141.72 325,-141.72 325,-137.72 321,-137.72 "/>
<polyline fill="none" stroke="black" points="321,-117.72 325,-117.72 325,-113.72 321,-113.72 "/>
<text text-anchor="middle" x="426.5" y="-124.02" font-family="Times,serif" font-size="14.00">REALLOCATE_ALTERNATE</text>
</a>
</g>
</g>
<!-- beginDO_DO_812eca0&#45;&gt;CALL_8128be0 -->
<g id="edge2" class="edge">
<title>beginDO_DO_812eca0&#45;&gt;CALL_8128be0</title>
<path fill="none" stroke="black" d="M426.5,-181.57C426.5,-180.09 426.5,-168.04 426.5,-155.82"/>
<polygon fill="black" stroke="black" points="430,-155.74 426.5,-145.74 423,-155.74 430,-155.74"/>
</g>
<!-- endDO_DO_812eca0 -->
<g id="node4" class="node">
<title>endDO_DO_812eca0</title>
<ellipse fill="black" stroke="black" cx="426.5" cy="-73.36" rx="0.36" ry="0.36"/>
</g>
<!-- end_SUBPROGRAM_812d820 -->
<g id="node6" class="node">
<title>end_SUBPROGRAM_812d820</title>
<ellipse fill="black" stroke="black" cx="426.5" cy="-30" rx="7" ry="7"/>
</g>
<!-- endDO_DO_812eca0&#45;&gt;end_SUBPROGRAM_812d820 -->
<g id="edge5" class="edge">
<title>endDO_DO_812eca0&#45;&gt;end_SUBPROGRAM_812d820</title>
<path fill="none" stroke="black" d="M426.5,-72.24C426.5,-70.89 426.5,-58.27 426.5,-47.34"/>
<polygon fill="black" stroke="black" points="430,-47.1 426.5,-37.1 423,-47.1 430,-47.1"/>
</g>
<!-- CALL_8128be0&#45;&gt;endDO_DO_812eca0 -->
<g id="edge4" class="edge">
<title>CALL_8128be0&#45;&gt;endDO_DO_812eca0</title>
<path fill="none" stroke="black" d="M426.5,-109.66C426.5,-94.65 426.5,-74.99 426.5,-73.78"/>
</g>
</g>
</svg>
