<?xml version="1.0" encoding="UTF-8" standalone="no"?>
<!DOCTYPE svg PUBLIC "-//W3C//DTD SVG 1.1//EN"
 "http://www.w3.org/Graphics/SVG/1.1/DTD/svg11.dtd">
<!-- Generated by graphviz version 2.43.0 (0)
 -->
<!-- Title: SPEC_INIT Pages: 1 -->
<svg width="442pt" height="760pt"
 viewBox="0.00 0.00 442.00 760.00" xmlns="http://www.w3.org/2000/svg" xmlns:xlink="http://www.w3.org/1999/xlink">
<g id="graph0" class="graph" transform="scale(1 1) rotate(0) translate(4 756)">
<title>SPEC_INIT</title>
<polygon fill="white" stroke="transparent" points="-4,4 -4,-756 438,-756 438,4 -4,4"/>
<text text-anchor="middle" x="217" y="-7.8" font-family="Times,serif" font-size="14.00">SPEC_INIT</text>
<!-- start_SUBPROGRAM_93fc060 -->
<g id="node1" class="node">
<title>start_SUBPROGRAM_93fc060</title>
<ellipse fill="none" stroke="black" cx="217" cy="-745" rx="7" ry="7"/>
</g>
<!-- COMMENT_93ce940+1 -->
<g id="node2" class="node">
<title>COMMENT_93ce940+1</title>
<polygon fill="none" stroke="black" points="327.5,-702 100.5,-702 100.5,-649 333.5,-649 333.5,-696 327.5,-702"/>
<polyline fill="none" stroke="black" points="327.5,-702 327.5,-696 "/>
<polyline fill="none" stroke="black" points="333.5,-696 327.5,-696 "/>
<text text-anchor="middle" x="217" y="-686.8" font-family="Times,serif" font-size="14.00">!&gt; brief Read SPEC file</text>
<text text-anchor="middle" x="217" y="-671.8" font-family="Times,serif" font-size="14.00">!&gt; param NM Mesh number</text>
<text text-anchor="middle" x="217" y="-656.8" font-family="Times,serif" font-size="14.00">!&gt; param FN_SPEC File name</text>
</g>
<!-- start_SUBPROGRAM_93fc060&#45;&gt;COMMENT_93ce940+1 -->
<g id="edge1" class="edge">
<title>start_SUBPROGRAM_93fc060&#45;&gt;COMMENT_93ce940+1</title>
<path fill="none" stroke="black" d="M217,-737.77C217,-731.76 217,-722.16 217,-712.32"/>
<polygon fill="black" stroke="black" points="220.5,-712.12 217,-702.12 213.5,-712.12 220.5,-712.12"/>
</g>
<!-- CALL_93cbec0 -->
<g id="node3" class="node">
<title>CALL_93cbec0</title>
<g id="a_node3"><a xlink:href="POINT_TO_MESH.svg" xlink:title="POINT_TO_MESH">
<polygon fill="lightgray" stroke="black" points="289,-613 145,-613 145,-609 141,-609 141,-605 145,-605 145,-585 141,-585 141,-581 145,-581 145,-577 289,-577 289,-613"/>
<polyline fill="none" stroke="black" points="145,-609 149,-609 149,-605 145,-605 "/>
<polyline fill="none" stroke="black" points="145,-585 149,-585 149,-581 145,-581 "/>
<text text-anchor="middle" x="217" y="-591.3" font-family="Times,serif" font-size="14.00">POINT_TO_MESH</text>
</a>
</g>
</g>
<!-- COMMENT_93ce940+1&#45;&gt;CALL_93cbec0 -->
<g id="edge2" class="edge">
<title>COMMENT_93ce940+1&#45;&gt;CALL_93cbec0</title>
<path fill="none" stroke="black" d="M217,-648.8C217,-640.71 217,-631.76 217,-623.55"/>
<polygon fill="black" stroke="black" points="220.5,-623.33 217,-613.33 213.5,-623.33 220.5,-623.33"/>
</g>
<!-- CALL_93d6e00 -->
<g id="node4" class="node">
<title>CALL_93d6e00</title>
<g id="a_node4"><a xlink:href="SHUTDOWN.svg" xlink:title="SHUTDOWN">
<polygon fill="lightgray" stroke="black" points="271,-541 163,-541 163,-537 159,-537 159,-533 163,-533 163,-513 159,-513 159,-509 163,-509 163,-505 271,-505 271,-541"/>
<polyline fill="none" stroke="black" points="163,-537 167,-537 167,-533 163,-533 "/>
<polyline fill="none" stroke="black" points="163,-513 167,-513 167,-509 163,-509 "/>
<text text-anchor="middle" x="217" y="-519.3" font-family="Times,serif" font-size="14.00">SHUTDOWN</text>
</a>
</g>
</g>
<!-- CALL_93cbec0&#45;&gt;CALL_93d6e00 -->
<g id="edge3" class="edge">
<title>CALL_93cbec0&#45;&gt;CALL_93d6e00</title>
<path fill="none" stroke="black" d="M217,-576.7C217,-568.98 217,-559.71 217,-551.11"/>
<polygon fill="black" stroke="black" points="220.5,-551.1 217,-541.1 213.5,-551.1 220.5,-551.1"/>
</g>
<!-- COMMENT_93e5f60+1 -->
<g id="node5" class="node">
<title>COMMENT_93e5f60+1</title>
<polygon fill="none" stroke="black" points="284,-469 144,-469 144,-433 290,-433 290,-463 284,-469"/>
<polyline fill="none" stroke="black" points="284,-469 284,-463 "/>
<polyline fill="none" stroke="black" points="290,-463 284,-463 "/>
<text text-anchor="middle" x="217" y="-447.3" font-family="Times,serif" font-size="14.00">CLOSE(LU_SPEC)</text>
</g>
<!-- CALL_93d6e00&#45;&gt;COMMENT_93e5f60+1 -->
<g id="edge4" class="edge">
<title>CALL_93d6e00&#45;&gt;COMMENT_93e5f60+1</title>
<path fill="none" stroke="black" d="M217,-504.7C217,-496.98 217,-487.71 217,-479.11"/>
<polygon fill="black" stroke="black" points="220.5,-479.1 217,-469.1 213.5,-479.1 220.5,-479.1"/>
</g>
<!-- COMMENT_93e5f60+2 -->
<g id="node6" class="node">
<title>COMMENT_93e5f60+2</title>
<polygon fill="none" stroke="black" points="290,-397 138,-397 138,-361 296,-361 296,-391 290,-397"/>
<polyline fill="none" stroke="black" points="290,-397 290,-391 "/>
<polyline fill="none" stroke="black" points="296,-391 290,-391 "/>
<text text-anchor="middle" x="217" y="-375.3" font-family="Times,serif" font-size="14.00">update density field</text>
</g>
<!-- COMMENT_93e5f60+1&#45;&gt;COMMENT_93e5f60+2 -->
<g id="edge5" class="edge">
<title>COMMENT_93e5f60+1&#45;&gt;COMMENT_93e5f60+2</title>
<path fill="none" stroke="black" d="M217,-432.7C217,-424.98 217,-415.71 217,-407.11"/>
<polygon fill="black" stroke="black" points="220.5,-407.1 217,-397.1 213.5,-407.1 220.5,-407.1"/>
</g>
<!-- COMMENT_93e6ea0+1 -->
<g id="node7" class="node">
<title>COMMENT_93e6ea0+1</title>
<polygon fill="none" stroke="black" points="370,-325 58,-325 58,-289 376,-289 376,-319 370,-325"/>
<polyline fill="none" stroke="black" points="370,-325 370,-319 "/>
<polyline fill="none" stroke="black" points="376,-319 370,-319 "/>
<text text-anchor="middle" x="217" y="-303.3" font-family="Times,serif" font-size="14.00">Check realizability of input mass fractions</text>
</g>
<!-- COMMENT_93e5f60+2&#45;&gt;COMMENT_93e6ea0+1 -->
<g id="edge6" class="edge">
<title>COMMENT_93e5f60+2&#45;&gt;COMMENT_93e6ea0+1</title>
<path fill="none" stroke="black" d="M217,-360.7C217,-352.98 217,-343.71 217,-335.11"/>
<polygon fill="black" stroke="black" points="220.5,-335.1 217,-325.1 213.5,-335.1 220.5,-335.1"/>
</g>
<!-- CALL_93e77c0 -->
<g id="node8" class="node">
<title>CALL_93e77c0</title>
<g id="a_node8"><a xlink:href="GET_REALIZABLE_MF.svg" xlink:title="GET_REALIZABLE_MF">
<polygon fill="lightgray" stroke="black" points="306.5,-253 127.5,-253 127.5,-249 123.5,-249 123.5,-245 127.5,-245 127.5,-225 123.5,-225 123.5,-221 127.5,-221 127.5,-217 306.5,-217 306.5,-253"/>
<polyline fill="none" stroke="black" points="127.5,-249 131.5,-249 131.5,-245 127.5,-245 "/>
<polyline fill="none" stroke="black" points="127.5,-225 131.5,-225 131.5,-221 127.5,-221 "/>
<text text-anchor="middle" x="217" y="-231.3" font-family="Times,serif" font-size="14.00">GET_REALIZABLE_MF</text>
</a>
</g>
</g>
<!-- COMMENT_93e6ea0+1&#45;&gt;CALL_93e77c0 -->
<g id="edge7" class="edge">
<title>COMMENT_93e6ea0+1&#45;&gt;CALL_93e77c0</title>
<path fill="none" stroke="black" d="M217,-288.7C217,-280.98 217,-271.71 217,-263.11"/>
<polygon fill="black" stroke="black" points="220.5,-263.1 217,-253.1 213.5,-263.1 220.5,-263.1"/>
</g>
<!-- COMMENT_93e78c0+1 -->
<g id="node9" class="node">
<title>COMMENT_93e78c0+1</title>
<polygon fill="none" stroke="black" points="428,-181 0,-181 0,-145 434,-145 434,-175 428,-181"/>
<polyline fill="none" stroke="black" points="428,-181 428,-175 "/>
<polyline fill="none" stroke="black" points="434,-175 428,-175 "/>
<text text-anchor="middle" x="217" y="-159.3" font-family="Times,serif" font-size="14.00">Compute molecular weight term RSUM=R0*SUM(Y_i/M_i)</text>
</g>
<!-- CALL_93e77c0&#45;&gt;COMMENT_93e78c0+1 -->
<g id="edge8" class="edge">
<title>CALL_93e77c0&#45;&gt;COMMENT_93e78c0+1</title>
<path fill="none" stroke="black" d="M217,-216.7C217,-208.98 217,-199.71 217,-191.11"/>
<polygon fill="black" stroke="black" points="220.5,-191.1 217,-181.1 213.5,-191.1 220.5,-191.1"/>
</g>
<!-- CALL_93ecfc0 -->
<g id="node10" class="node">
<title>CALL_93ecfc0</title>
<g id="a_node10"><a xlink:href="GET_SPECIFIC_GAS_CONSTANT.svg" xlink:title="GET_SPECIFIC_GAS_CONSTANT">
<polygon fill="lightgray" stroke="black" points="343,-109 91,-109 91,-105 87,-105 87,-101 91,-101 91,-81 87,-81 87,-77 91,-77 91,-73 343,-73 343,-109"/>
<polyline fill="none" stroke="black" points="91,-105 95,-105 95,-101 91,-101 "/>
<polyline fill="none" stroke="black" points="91,-81 95,-81 95,-77 91,-77 "/>
<text text-anchor="middle" x="217" y="-87.3" font-family="Times,serif" font-size="14.00">GET_SPECIFIC_GAS_CONSTANT</text>
</a>
</g>
</g>
<!-- COMMENT_93e78c0+1&#45;&gt;CALL_93ecfc0 -->
<g id="edge9" class="edge">
<title>COMMENT_93e78c0+1&#45;&gt;CALL_93ecfc0</title>
<path fill="none" stroke="black" d="M217,-144.7C217,-136.98 217,-127.71 217,-119.11"/>
<polygon fill="black" stroke="black" points="220.5,-119.1 217,-109.1 213.5,-119.1 220.5,-119.1"/>
</g>
<!-- end_SUBPROGRAM_93fc060 -->
<g id="node11" class="node">
<title>end_SUBPROGRAM_93fc060</title>
<ellipse fill="black" stroke="black" cx="217" cy="-30" rx="7" ry="7"/>
</g>
<!-- CALL_93ecfc0&#45;&gt;end_SUBPROGRAM_93fc060 -->
<g id="edge10" class="edge">
<title>CALL_93ecfc0&#45;&gt;end_SUBPROGRAM_93fc060</title>
<path fill="none" stroke="black" d="M217,-72.93C217,-64.89 217,-55.33 217,-47.37"/>
<polygon fill="black" stroke="black" points="220.5,-47.22 217,-37.22 213.5,-47.22 220.5,-47.22"/>
</g>
</g>
</svg>
