<?xml version="1.0" encoding="UTF-8" standalone="no"?>
<!DOCTYPE svg PUBLIC "-//W3C//DTD SVG 1.1//EN"
 "http://www.w3.org/Graphics/SVG/1.1/DTD/svg11.dtd">
<!-- Generated by graphviz version 2.43.0 (0)
 -->
<!-- Title: SPECIES_ADVECTION Pages: 1 -->
<svg width="788pt" height="1507pt"
 viewBox="0.00 0.00 788.00 1507.44" xmlns="http://www.w3.org/2000/svg" xmlns:xlink="http://www.w3.org/1999/xlink">
<g id="graph0" class="graph" transform="scale(1 1) rotate(0) translate(4 1503.44)">
<title>SPECIES_ADVECTION</title>
<polygon fill="white" stroke="transparent" points="-4,4 -4,-1503.44 784,-1503.44 784,4 -4,4"/>
<text text-anchor="middle" x="390" y="-7.8" font-family="Times,serif" font-size="14.00">SPECIES_ADVECTION</text>
<g id="clust1" class="cluster">
<title>cluster_WALL_LOOP</title>
<polygon fill="none" stroke="orange" points="8,-209 8,-1045.44 772,-1045.44 772,-209 8,-209"/>
<text text-anchor="middle" x="61" y="-1030.24" font-family="Times,serif" font-size="14.00">WALL_LOOP</text>
</g>
<g id="clust2" class="cluster">
<title>cluster_OFF_WALL_IF_2</title>
<polygon fill="none" stroke="blue" points="226,-281 226,-970.44 554,-970.44 554,-281 226,-281"/>
<text text-anchor="middle" x="292.5" y="-955.24" font-family="Times,serif" font-size="14.00">OFF_WALL_IF_2</text>
</g>
<g id="clust3" class="cluster">
<title>cluster_cond9b22660</title>
<polygon fill="none" stroke="black" points="234,-317.72 234,-930.72 546,-930.72 546,-317.72 234,-317.72"/>
<text text-anchor="middle" x="290.5" y="-915.52" font-family="Times,serif" font-size="14.00">cond9b22660</text>
</g>
<!-- start_SUBPROGRAM_9b71420 -->
<g id="node1" class="node">
<title>start_SUBPROGRAM_9b71420</title>
<ellipse fill="none" stroke="black" cx="390" cy="-1492.44" rx="7" ry="7"/>
</g>
<!-- COMMENT_7da0420+1 -->
<g id="node2" class="node">
<title>COMMENT_7da0420+1</title>
<polygon fill="none" stroke="black" points="523,-1449.44 251,-1449.44 251,-1413.44 529,-1413.44 529,-1443.44 523,-1449.44"/>
<polyline fill="none" stroke="black" points="523,-1449.44 523,-1443.44 "/>
<polyline fill="none" stroke="black" points="529,-1443.44 523,-1443.44 "/>
<text text-anchor="middle" x="390" y="-1427.74" font-family="Times,serif" font-size="14.00">!$OMP PARALLEL DO COLLAPSE(3)</text>
</g>
<!-- start_SUBPROGRAM_9b71420&#45;&gt;COMMENT_7da0420+1 -->
<g id="edge1" class="edge">
<title>start_SUBPROGRAM_9b71420&#45;&gt;COMMENT_7da0420+1</title>
<path fill="none" stroke="black" d="M390,-1485.13C390,-1478.93 390,-1469.03 390,-1459.49"/>
<polygon fill="black" stroke="black" points="393.5,-1459.46 390,-1449.46 386.5,-1459.46 393.5,-1459.46"/>
</g>
<!-- COMMENT_7da9480+1 -->
<g id="node3" class="node">
<title>COMMENT_7da9480+1</title>
<polygon fill="none" stroke="black" points="490,-1377.44 284,-1377.44 284,-1341.44 496,-1341.44 496,-1371.44 490,-1377.44"/>
<polyline fill="none" stroke="black" points="490,-1377.44 490,-1371.44 "/>
<polyline fill="none" stroke="black" points="496,-1371.44 490,-1371.44 "/>
<text text-anchor="middle" x="390" y="-1355.74" font-family="Times,serif" font-size="14.00">!$OMP END PARALLEL DO</text>
</g>
<!-- COMMENT_7da0420+1&#45;&gt;COMMENT_7da9480+1 -->
<g id="edge2" class="edge">
<title>COMMENT_7da0420+1&#45;&gt;COMMENT_7da9480+1</title>
<path fill="none" stroke="black" d="M390,-1413.14C390,-1405.42 390,-1396.15 390,-1387.55"/>
<polygon fill="black" stroke="black" points="393.5,-1387.54 390,-1377.54 386.5,-1387.54 393.5,-1387.54"/>
</g>
<!-- COMMENT_7da9480+2 -->
<g id="node4" class="node">
<title>COMMENT_7da9480+2</title>
<polygon fill="none" stroke="black" points="490,-1305.44 284,-1305.44 284,-1269.44 496,-1269.44 496,-1299.44 490,-1305.44"/>
<polyline fill="none" stroke="black" points="490,-1305.44 490,-1299.44 "/>
<polyline fill="none" stroke="black" points="496,-1299.44 490,-1299.44 "/>
<text text-anchor="middle" x="390" y="-1283.74" font-family="Times,serif" font-size="14.00">Compute scalar face values</text>
</g>
<!-- COMMENT_7da9480+1&#45;&gt;COMMENT_7da9480+2 -->
<g id="edge3" class="edge">
<title>COMMENT_7da9480+1&#45;&gt;COMMENT_7da9480+2</title>
<path fill="none" stroke="black" d="M390,-1341.14C390,-1333.42 390,-1324.15 390,-1315.55"/>
<polygon fill="black" stroke="black" points="393.5,-1315.54 390,-1305.54 386.5,-1315.54 393.5,-1315.54"/>
</g>
<!-- CALL_7da9480 -->
<g id="node5" class="node">
<title>CALL_7da9480</title>
<g id="a_node5"><a xlink:href="GET_SCALAR_FACE_VALUE.svg" xlink:title="GET_SCALAR_FACE_VALUE">
<polygon fill="lightgray" stroke="black" points="497.5,-1233.44 282.5,-1233.44 282.5,-1229.44 278.5,-1229.44 278.5,-1225.44 282.5,-1225.44 282.5,-1205.44 278.5,-1205.44 278.5,-1201.44 282.5,-1201.44 282.5,-1197.44 497.5,-1197.44 497.5,-1233.44"/>
<polyline fill="none" stroke="black" points="282.5,-1229.44 286.5,-1229.44 286.5,-1225.44 282.5,-1225.44 "/>
<polyline fill="none" stroke="black" points="282.5,-1205.44 286.5,-1205.44 286.5,-1201.44 282.5,-1201.44 "/>
<text text-anchor="middle" x="390" y="-1211.74" font-family="Times,serif" font-size="14.00">GET_SCALAR_FACE_VALUE</text>
</a>
</g>
</g>
<!-- COMMENT_7da9480+2&#45;&gt;CALL_7da9480 -->
<g id="edge4" class="edge">
<title>COMMENT_7da9480+2&#45;&gt;CALL_7da9480</title>
<path fill="none" stroke="black" d="M390,-1269.14C390,-1261.42 390,-1252.15 390,-1243.55"/>
<polygon fill="black" stroke="black" points="393.5,-1243.54 390,-1233.54 386.5,-1243.54 393.5,-1243.54"/>
</g>
<!-- CALL_7dac2c0 -->
<g id="node6" class="node">
<title>CALL_7dac2c0</title>
<g id="a_node6"><a xlink:href="GET_SCALAR_FACE_VALUE.svg" xlink:title="GET_SCALAR_FACE_VALUE">
<polygon fill="lightgray" stroke="black" points="497.5,-1161.44 282.5,-1161.44 282.5,-1157.44 278.5,-1157.44 278.5,-1153.44 282.5,-1153.44 282.5,-1133.44 278.5,-1133.44 278.5,-1129.44 282.5,-1129.44 282.5,-1125.44 497.5,-1125.44 497.5,-1161.44"/>
<polyline fill="none" stroke="black" points="282.5,-1157.44 286.5,-1157.44 286.5,-1153.44 282.5,-1153.44 "/>
<polyline fill="none" stroke="black" points="282.5,-1133.44 286.5,-1133.44 286.5,-1129.44 282.5,-1129.44 "/>
<text text-anchor="middle" x="390" y="-1139.74" font-family="Times,serif" font-size="14.00">GET_SCALAR_FACE_VALUE</text>
</a>
</g>
</g>
<!-- CALL_7da9480&#45;&gt;CALL_7dac2c0 -->
<g id="edge5" class="edge">
<title>CALL_7da9480&#45;&gt;CALL_7dac2c0</title>
<path fill="none" stroke="black" d="M390,-1197.14C390,-1189.42 390,-1180.15 390,-1171.55"/>
<polygon fill="black" stroke="black" points="393.5,-1171.54 390,-1161.54 386.5,-1171.54 393.5,-1171.54"/>
</g>
<!-- CALL_7daf560 -->
<g id="node7" class="node">
<title>CALL_7daf560</title>
<g id="a_node7"><a xlink:href="GET_SCALAR_FACE_VALUE.svg" xlink:title="GET_SCALAR_FACE_VALUE">
<polygon fill="lightgray" stroke="black" points="497.5,-1089.44 282.5,-1089.44 282.5,-1085.44 278.5,-1085.44 278.5,-1081.44 282.5,-1081.44 282.5,-1061.44 278.5,-1061.44 278.5,-1057.44 282.5,-1057.44 282.5,-1053.44 497.5,-1053.44 497.5,-1089.44"/>
<polyline fill="none" stroke="black" points="282.5,-1085.44 286.5,-1085.44 286.5,-1081.44 282.5,-1081.44 "/>
<polyline fill="none" stroke="black" points="282.5,-1061.44 286.5,-1061.44 286.5,-1057.44 282.5,-1057.44 "/>
<text text-anchor="middle" x="390" y="-1067.74" font-family="Times,serif" font-size="14.00">GET_SCALAR_FACE_VALUE</text>
</a>
</g>
</g>
<!-- CALL_7dac2c0&#45;&gt;CALL_7daf560 -->
<g id="edge6" class="edge">
<title>CALL_7dac2c0&#45;&gt;CALL_7daf560</title>
<path fill="none" stroke="black" d="M390,-1125.14C390,-1117.42 390,-1108.15 390,-1099.55"/>
<polygon fill="black" stroke="black" points="393.5,-1099.54 390,-1089.54 386.5,-1099.54 393.5,-1099.54"/>
</g>
<!-- COMMENT_7d9cfe0+1 -->
<g id="node8" class="node">
<title>COMMENT_7d9cfe0+1</title>
<polygon fill="none" stroke="black" points="757.5,-1014.44 16.5,-1014.44 16.5,-978.44 763.5,-978.44 763.5,-1008.44 757.5,-1014.44"/>
<polyline fill="none" stroke="black" points="757.5,-1014.44 757.5,-1008.44 "/>
<polyline fill="none" stroke="black" points="763.5,-1008.44 757.5,-1008.44 "/>
<text text-anchor="middle" x="390" y="-992.74" font-family="Times,serif" font-size="14.00">Overwrite first off&#45;wall advective flux if flow is away from the wall and if the face is not also a wall cell</text>
</g>
<!-- CALL_7daf560&#45;&gt;COMMENT_7d9cfe0+1 -->
<g id="edge18" class="edge">
<title>CALL_7daf560&#45;&gt;COMMENT_7d9cfe0+1</title>
<path fill="none" stroke="black" d="M390,-1053.14C390,-1044.69 390,-1034.31 390,-1024.81"/>
<polygon fill="black" stroke="black" points="393.5,-1024.62 390,-1014.62 386.5,-1024.62 393.5,-1024.62"/>
</g>
<!-- beginIf_IF_9b22780 -->
<g id="node9" class="node">
<title>beginIf_IF_9b22780</title>
<ellipse fill="black" stroke="black" cx="390" cy="-939.08" rx="0.36" ry="0.36"/>
</g>
<!-- COMMENT_7d9cfe0+1&#45;&gt;beginIf_IF_9b22780 -->
<g id="edge16" class="edge">
<title>COMMENT_7d9cfe0+1&#45;&gt;beginIf_IF_9b22780</title>
<path fill="none" stroke="black" d="M390,-978.23C390,-962.48 390,-941.44 390,-940.14"/>
</g>
<!-- COMMENT_7dba200+1 -->
<g id="node11" class="node">
<title>COMMENT_7dba200+1</title>
<polygon fill="none" stroke="black" points="532,-899.72 242,-899.72 242,-846.72 538,-846.72 538,-893.72 532,-899.72"/>
<polyline fill="none" stroke="black" points="532,-899.72 532,-893.72 "/>
<polyline fill="none" stroke="black" points="538,-893.72 532,-893.72 "/>
<text text-anchor="middle" x="390" y="-884.52" font-family="Times,serif" font-size="14.00"> &#160;&#160;&#160;&#160;ghost &#160;&#160;&#160;&#160;&#160;&#160;&#160;&#160;&#160;FX/UU(II+1)</text>
<text text-anchor="middle" x="390" y="-869.52" font-family="Times,serif" font-size="14.00">/// &#160;&#160;II &#160;&#160;/// &#160;II+1 &#160;| &#160;II+2 &#160;| ...</text>
<text text-anchor="middle" x="390" y="-854.52" font-family="Times,serif" font-size="14.00"> &#160;&#160;&#160;&#160;&#160;&#160;&#160;&#160;&#160;&#160;&#160;&#160;&#160;&#160;&#160;&#160;&#160;&#160;&#160;&#160;&#160;^ WALL_INDEX(II+1,+1)</text>
</g>
<!-- beginIf_IF_9b22780&#45;&gt;COMMENT_7dba200+1 -->
<g id="edge14" class="edge">
<title>beginIf_IF_9b22780&#45;&gt;COMMENT_7dba200+1</title>
<path fill="none" stroke="black" d="M390,-938.67C390,-937.79 390,-924.5 390,-910.22"/>
<polygon fill="black" stroke="black" points="393.5,-909.8 390,-899.8 386.5,-909.8 393.5,-909.8"/>
</g>
<!-- endIf_IF_9b22780 -->
<g id="node10" class="node">
<title>endIf_IF_9b22780</title>
<ellipse fill="black" stroke="black" cx="390" cy="-289.36" rx="0.36" ry="0.36"/>
</g>
<!-- COMMENT_9b22ce0+1 -->
<g id="node19" class="node">
<title>COMMENT_9b22ce0+1</title>
<polygon fill="none" stroke="black" points="517,-253 257,-253 257,-217 523,-217 523,-247 517,-253"/>
<polyline fill="none" stroke="black" points="517,-253 517,-247 "/>
<polyline fill="none" stroke="black" points="523,-247 517,-247 "/>
<text text-anchor="middle" x="390" y="-231.3" font-family="Times,serif" font-size="14.00">Correct flux terms at the boundary</text>
</g>
<!-- endIf_IF_9b22780&#45;&gt;COMMENT_9b22ce0+1 -->
<g id="edge17" class="edge">
<title>endIf_IF_9b22780&#45;&gt;COMMENT_9b22ce0+1</title>
<path fill="none" stroke="black" d="M390,-288.21C390,-286.77 390,-275.23 390,-263.36"/>
<polygon fill="black" stroke="black" points="393.5,-263.1 390,-253.1 386.5,-263.1 393.5,-263.1"/>
</g>
<!-- CALL_7dc5c00 -->
<g id="node12" class="node">
<title>CALL_7dc5c00</title>
<g id="a_node12"><a xlink:href="GET_SCALAR_FACE_VALUE.svg" xlink:title="GET_SCALAR_FACE_VALUE">
<polygon fill="lightgray" stroke="black" points="497.5,-810.72 282.5,-810.72 282.5,-806.72 278.5,-806.72 278.5,-802.72 282.5,-802.72 282.5,-782.72 278.5,-782.72 278.5,-778.72 282.5,-778.72 282.5,-774.72 497.5,-774.72 497.5,-810.72"/>
<polyline fill="none" stroke="black" points="282.5,-806.72 286.5,-806.72 286.5,-802.72 282.5,-802.72 "/>
<polyline fill="none" stroke="black" points="282.5,-782.72 286.5,-782.72 286.5,-778.72 282.5,-778.72 "/>
<text text-anchor="middle" x="390" y="-789.02" font-family="Times,serif" font-size="14.00">GET_SCALAR_FACE_VALUE</text>
</a>
</g>
</g>
<!-- COMMENT_7dba200+1&#45;&gt;CALL_7dc5c00 -->
<g id="edge7" class="edge">
<title>COMMENT_7dba200+1&#45;&gt;CALL_7dc5c00</title>
<path fill="none" stroke="black" d="M390,-846.52C390,-838.43 390,-829.48 390,-821.27"/>
<polygon fill="black" stroke="black" points="393.5,-821.05 390,-811.05 386.5,-821.05 393.5,-821.05"/>
</g>
<!-- COMMENT_7dcdd00+1 -->
<g id="node13" class="node">
<title>COMMENT_7dcdd00+1</title>
<polygon fill="none" stroke="black" points="504.5,-738.72 269.5,-738.72 269.5,-685.72 510.5,-685.72 510.5,-732.72 504.5,-738.72"/>
<polyline fill="none" stroke="black" points="504.5,-738.72 504.5,-732.72 "/>
<polyline fill="none" stroke="black" points="510.5,-732.72 504.5,-732.72 "/>
<text text-anchor="middle" x="390" y="-723.52" font-family="Times,serif" font-size="14.00"> &#160;&#160;&#160;&#160;&#160;&#160;&#160;&#160;&#160;&#160;FX/UU(II&#45;2) &#160;&#160;&#160;&#160;ghost</text>
<text text-anchor="middle" x="390" y="-708.52" font-family="Times,serif" font-size="14.00">... | &#160;II&#45;2 &#160;| &#160;II&#45;1 &#160;/// &#160;&#160;II &#160;&#160;///</text>
<text text-anchor="middle" x="390" y="-693.52" font-family="Times,serif" font-size="14.00"> &#160;&#160;&#160;&#160;&#160;&#160;&#160;&#160;&#160;&#160;&#160;&#160;^ WALL_INDEX(II&#45;1,&#45;1)</text>
</g>
<!-- CALL_7dc5c00&#45;&gt;COMMENT_7dcdd00+1 -->
<g id="edge8" class="edge">
<title>CALL_7dc5c00&#45;&gt;COMMENT_7dcdd00+1</title>
<path fill="none" stroke="black" d="M390,-774.69C390,-767.17 390,-758.03 390,-749.12"/>
<polygon fill="black" stroke="black" points="393.5,-748.88 390,-738.88 386.5,-748.88 393.5,-748.88"/>
</g>
<!-- CALL_7dd8000 -->
<g id="node14" class="node">
<title>CALL_7dd8000</title>
<g id="a_node14"><a xlink:href="GET_SCALAR_FACE_VALUE.svg" xlink:title="GET_SCALAR_FACE_VALUE">
<polygon fill="lightgray" stroke="black" points="497.5,-649.72 282.5,-649.72 282.5,-645.72 278.5,-645.72 278.5,-641.72 282.5,-641.72 282.5,-621.72 278.5,-621.72 278.5,-617.72 282.5,-617.72 282.5,-613.72 497.5,-613.72 497.5,-649.72"/>
<polyline fill="none" stroke="black" points="282.5,-645.72 286.5,-645.72 286.5,-641.72 282.5,-641.72 "/>
<polyline fill="none" stroke="black" points="282.5,-621.72 286.5,-621.72 286.5,-617.72 282.5,-617.72 "/>
<text text-anchor="middle" x="390" y="-628.02" font-family="Times,serif" font-size="14.00">GET_SCALAR_FACE_VALUE</text>
</a>
</g>
</g>
<!-- COMMENT_7dcdd00+1&#45;&gt;CALL_7dd8000 -->
<g id="edge9" class="edge">
<title>COMMENT_7dcdd00+1&#45;&gt;CALL_7dd8000</title>
<path fill="none" stroke="black" d="M390,-685.52C390,-677.43 390,-668.48 390,-660.27"/>
<polygon fill="black" stroke="black" points="393.5,-660.05 390,-650.05 386.5,-660.05 393.5,-660.05"/>
</g>
<!-- CALL_7dea5a0 -->
<g id="node15" class="node">
<title>CALL_7dea5a0</title>
<g id="a_node15"><a xlink:href="GET_SCALAR_FACE_VALUE.svg" xlink:title="GET_SCALAR_FACE_VALUE">
<polygon fill="lightgray" stroke="black" points="497.5,-577.72 282.5,-577.72 282.5,-573.72 278.5,-573.72 278.5,-569.72 282.5,-569.72 282.5,-549.72 278.5,-549.72 278.5,-545.72 282.5,-545.72 282.5,-541.72 497.5,-541.72 497.5,-577.72"/>
<polyline fill="none" stroke="black" points="282.5,-573.72 286.5,-573.72 286.5,-569.72 282.5,-569.72 "/>
<polyline fill="none" stroke="black" points="282.5,-549.72 286.5,-549.72 286.5,-545.72 282.5,-545.72 "/>
<text text-anchor="middle" x="390" y="-556.02" font-family="Times,serif" font-size="14.00">GET_SCALAR_FACE_VALUE</text>
</a>
</g>
</g>
<!-- CALL_7dd8000&#45;&gt;CALL_7dea5a0 -->
<g id="edge10" class="edge">
<title>CALL_7dd8000&#45;&gt;CALL_7dea5a0</title>
<path fill="none" stroke="black" d="M390,-613.42C390,-605.7 390,-596.43 390,-587.83"/>
<polygon fill="black" stroke="black" points="393.5,-587.82 390,-577.82 386.5,-587.82 393.5,-587.82"/>
</g>
<!-- CALL_7dfc980 -->
<g id="node16" class="node">
<title>CALL_7dfc980</title>
<g id="a_node16"><a xlink:href="GET_SCALAR_FACE_VALUE.svg" xlink:title="GET_SCALAR_FACE_VALUE">
<polygon fill="lightgray" stroke="black" points="497.5,-505.72 282.5,-505.72 282.5,-501.72 278.5,-501.72 278.5,-497.72 282.5,-497.72 282.5,-477.72 278.5,-477.72 278.5,-473.72 282.5,-473.72 282.5,-469.72 497.5,-469.72 497.5,-505.72"/>
<polyline fill="none" stroke="black" points="282.5,-501.72 286.5,-501.72 286.5,-497.72 282.5,-497.72 "/>
<polyline fill="none" stroke="black" points="282.5,-477.72 286.5,-477.72 286.5,-473.72 282.5,-473.72 "/>
<text text-anchor="middle" x="390" y="-484.02" font-family="Times,serif" font-size="14.00">GET_SCALAR_FACE_VALUE</text>
</a>
</g>
</g>
<!-- CALL_7dea5a0&#45;&gt;CALL_7dfc980 -->
<g id="edge11" class="edge">
<title>CALL_7dea5a0&#45;&gt;CALL_7dfc980</title>
<path fill="none" stroke="black" d="M390,-541.42C390,-533.7 390,-524.43 390,-515.83"/>
<polygon fill="black" stroke="black" points="393.5,-515.82 390,-505.82 386.5,-515.82 393.5,-515.82"/>
</g>
<!-- CALL_9b0e0c0 -->
<g id="node17" class="node">
<title>CALL_9b0e0c0</title>
<g id="a_node17"><a xlink:href="GET_SCALAR_FACE_VALUE.svg" xlink:title="GET_SCALAR_FACE_VALUE">
<polygon fill="lightgray" stroke="black" points="497.5,-433.72 282.5,-433.72 282.5,-429.72 278.5,-429.72 278.5,-425.72 282.5,-425.72 282.5,-405.72 278.5,-405.72 278.5,-401.72 282.5,-401.72 282.5,-397.72 497.5,-397.72 497.5,-433.72"/>
<polyline fill="none" stroke="black" points="282.5,-429.72 286.5,-429.72 286.5,-425.72 282.5,-425.72 "/>
<polyline fill="none" stroke="black" points="282.5,-405.72 286.5,-405.72 286.5,-401.72 282.5,-401.72 "/>
<text text-anchor="middle" x="390" y="-412.02" font-family="Times,serif" font-size="14.00">GET_SCALAR_FACE_VALUE</text>
</a>
</g>
</g>
<!-- CALL_7dfc980&#45;&gt;CALL_9b0e0c0 -->
<g id="edge12" class="edge">
<title>CALL_7dfc980&#45;&gt;CALL_9b0e0c0</title>
<path fill="none" stroke="black" d="M390,-469.42C390,-461.7 390,-452.43 390,-443.83"/>
<polygon fill="black" stroke="black" points="393.5,-443.82 390,-433.82 386.5,-443.82 393.5,-443.82"/>
</g>
<!-- CALL_9b1fb40 -->
<g id="node18" class="node">
<title>CALL_9b1fb40</title>
<g id="a_node18"><a xlink:href="GET_SCALAR_FACE_VALUE.svg" xlink:title="GET_SCALAR_FACE_VALUE">
<polygon fill="lightgray" stroke="black" points="497.5,-361.72 282.5,-361.72 282.5,-357.72 278.5,-357.72 278.5,-353.72 282.5,-353.72 282.5,-333.72 278.5,-333.72 278.5,-329.72 282.5,-329.72 282.5,-325.72 497.5,-325.72 497.5,-361.72"/>
<polyline fill="none" stroke="black" points="282.5,-357.72 286.5,-357.72 286.5,-353.72 282.5,-353.72 "/>
<polyline fill="none" stroke="black" points="282.5,-333.72 286.5,-333.72 286.5,-329.72 282.5,-329.72 "/>
<text text-anchor="middle" x="390" y="-340.02" font-family="Times,serif" font-size="14.00">GET_SCALAR_FACE_VALUE</text>
</a>
</g>
</g>
<!-- CALL_9b0e0c0&#45;&gt;CALL_9b1fb40 -->
<g id="edge13" class="edge">
<title>CALL_9b0e0c0&#45;&gt;CALL_9b1fb40</title>
<path fill="none" stroke="black" d="M390,-397.42C390,-389.7 390,-380.43 390,-371.83"/>
<polygon fill="black" stroke="black" points="393.5,-371.82 390,-361.82 386.5,-371.82 393.5,-371.82"/>
</g>
<!-- CALL_9b1fb40&#45;&gt;endIf_IF_9b22780 -->
<g id="edge15" class="edge">
<title>CALL_9b1fb40&#45;&gt;endIf_IF_9b22780</title>
<path fill="none" stroke="black" d="M390,-325.66C390,-310.65 390,-290.99 390,-289.78"/>
</g>
<!-- COMMENT_9b41e40+1 -->
<g id="node20" class="node">
<title>COMMENT_9b41e40+1</title>
<polygon fill="none" stroke="black" points="653,-181 121,-181 121,-145 659,-145 659,-175 653,-181"/>
<polyline fill="none" stroke="black" points="653,-181 653,-175 "/>
<polyline fill="none" stroke="black" points="659,-175 653,-175 "/>
<text text-anchor="middle" x="390" y="-159.3" font-family="Times,serif" font-size="14.00">!$OMP PARALLEL DO PRIVATE(IC,DU_P,DU_M,DV_P,DV_M,DW_P,DW_M)</text>
</g>
<!-- COMMENT_9b22ce0+1&#45;&gt;COMMENT_9b41e40+1 -->
<g id="edge19" class="edge">
<title>COMMENT_9b22ce0+1&#45;&gt;COMMENT_9b41e40+1</title>
<path fill="none" stroke="black" d="M390,-216.7C390,-208.98 390,-199.71 390,-191.11"/>
<polygon fill="black" stroke="black" points="393.5,-191.1 390,-181.1 386.5,-191.1 393.5,-191.1"/>
</g>
<!-- COMMENT_9b416c0+1 -->
<g id="node21" class="node">
<title>COMMENT_9b416c0+1</title>
<polygon fill="none" stroke="black" points="490,-109 284,-109 284,-73 496,-73 496,-103 490,-109"/>
<polyline fill="none" stroke="black" points="490,-109 490,-103 "/>
<polyline fill="none" stroke="black" points="496,-103 490,-103 "/>
<text text-anchor="middle" x="390" y="-87.3" font-family="Times,serif" font-size="14.00">!$OMP END PARALLEL DO</text>
</g>
<!-- COMMENT_9b41e40+1&#45;&gt;COMMENT_9b416c0+1 -->
<g id="edge20" class="edge">
<title>COMMENT_9b41e40+1&#45;&gt;COMMENT_9b416c0+1</title>
<path fill="none" stroke="black" d="M390,-144.7C390,-136.98 390,-127.71 390,-119.11"/>
<polygon fill="black" stroke="black" points="393.5,-119.1 390,-109.1 386.5,-119.1 393.5,-119.1"/>
</g>
<!-- end_SUBPROGRAM_9b71420 -->
<g id="node22" class="node">
<title>end_SUBPROGRAM_9b71420</title>
<ellipse fill="black" stroke="black" cx="390" cy="-30" rx="7" ry="7"/>
</g>
<!-- COMMENT_9b416c0+1&#45;&gt;end_SUBPROGRAM_9b71420 -->
<g id="edge21" class="edge">
<title>COMMENT_9b416c0+1&#45;&gt;end_SUBPROGRAM_9b71420</title>
<path fill="none" stroke="black" d="M390,-72.93C390,-64.89 390,-55.33 390,-47.37"/>
<polygon fill="black" stroke="black" points="393.5,-47.22 390,-37.22 386.5,-47.22 393.5,-47.22"/>
</g>
</g>
</svg>
