<?xml version="1.0" encoding="UTF-8" standalone="no"?>
<!DOCTYPE svg PUBLIC "-//W3C//DTD SVG 1.1//EN"
 "http://www.w3.org/Graphics/SVG/1.1/DTD/svg11.dtd">
<!-- Generated by graphviz version 2.43.0 (0)
 -->
<!-- Title: SPECIES_ADVECTION Pages: 1 -->
<svg width="788pt" height="1437pt"
 viewBox="0.00 0.00 788.00 1436.88" xmlns="http://www.w3.org/2000/svg" xmlns:xlink="http://www.w3.org/1999/xlink">
<g id="graph0" class="graph" transform="scale(1 1) rotate(0) translate(4 1432.88)">
<title>SPECIES_ADVECTION</title>
<polygon fill="white" stroke="transparent" points="-4,4 -4,-1432.88 784,-1432.88 784,4 -4,4"/>
<text text-anchor="middle" x="390" y="-7.8" font-family="Times,serif" font-size="14.00">SPECIES_ADVECTION</text>
<g id="clust1" class="cluster">
<title>cluster_WALL_LOOP</title>
<polygon fill="none" stroke="orange" points="8,-137 8,-1046.88 772,-1046.88 772,-137 8,-137"/>
<text text-anchor="middle" x="61" y="-1031.68" font-family="Times,serif" font-size="14.00">WALL_LOOP</text>
</g>
<g id="clust2" class="cluster">
<title>cluster_OFF_WALL_IF_2</title>
<polygon fill="none" stroke="blue" points="226,-245.72 226,-935.16 554,-935.16 554,-245.72 226,-245.72"/>
<text text-anchor="middle" x="292.5" y="-919.96" font-family="Times,serif" font-size="14.00">OFF_WALL_IF_2</text>
</g>
<g id="clust3" class="cluster">
<title>cluster_cond92cce80</title>
<polygon fill="none" stroke="black" points="234,-282.44 234,-895.44 546,-895.44 546,-282.44 234,-282.44"/>
<text text-anchor="middle" x="289" y="-880.24" font-family="Times,serif" font-size="14.00">cond92cce80</text>
</g>
<!-- start_SUBPROGRAM_9079080 -->
<g id="node1" class="node">
<title>start_SUBPROGRAM_9079080</title>
<ellipse fill="none" stroke="black" cx="390" cy="-1421.88" rx="7" ry="7"/>
</g>
<!-- OMP_DO_904ff20 -->
<g id="node2" class="node">
<title>OMP_DO_904ff20</title>
<polygon fill="#ffd0d0" stroke="orange" points="529,-1378.88 251,-1378.88 251,-1342.88 529,-1342.88 529,-1378.88"/>
<text text-anchor="middle" x="390" y="-1357.18" font-family="Times,serif" font-size="14.00">!$OMP PARALLEL DO COLLAPSE(3)</text>
</g>
<!-- start_SUBPROGRAM_9079080&#45;&gt;OMP_DO_904ff20 -->
<g id="edge1" class="edge">
<title>start_SUBPROGRAM_9079080&#45;&gt;OMP_DO_904ff20</title>
<path fill="none" stroke="black" d="M390,-1414.57C390,-1408.37 390,-1398.47 390,-1388.93"/>
<polygon fill="black" stroke="black" points="393.5,-1388.9 390,-1378.9 386.5,-1388.9 393.5,-1388.9"/>
</g>
<!-- COMMENT_9053020+2 -->
<g id="node3" class="node">
<title>COMMENT_9053020+2</title>
<polygon fill="none" stroke="black" points="490,-1306.88 284,-1306.88 284,-1270.88 496,-1270.88 496,-1300.88 490,-1306.88"/>
<polyline fill="none" stroke="black" points="490,-1306.88 490,-1300.88 "/>
<polyline fill="none" stroke="black" points="496,-1300.88 490,-1300.88 "/>
<text text-anchor="middle" x="390" y="-1285.18" font-family="Times,serif" font-size="14.00">Compute scalar face values</text>
</g>
<!-- OMP_DO_904ff20&#45;&gt;COMMENT_9053020+2 -->
<g id="edge2" class="edge">
<title>OMP_DO_904ff20&#45;&gt;COMMENT_9053020+2</title>
<path fill="none" stroke="black" d="M390,-1342.58C390,-1334.86 390,-1325.59 390,-1316.99"/>
<polygon fill="black" stroke="black" points="393.5,-1316.98 390,-1306.98 386.5,-1316.98 393.5,-1316.98"/>
</g>
<!-- CALL_9053020 -->
<g id="node4" class="node">
<title>CALL_9053020</title>
<g id="a_node4"><a xlink:href="GET_SCALAR_FACE_VALUE.svg" xlink:title="GET_SCALAR_FACE_VALUE">
<polygon fill="lightgray" stroke="black" points="497.5,-1234.88 282.5,-1234.88 282.5,-1230.88 278.5,-1230.88 278.5,-1226.88 282.5,-1226.88 282.5,-1206.88 278.5,-1206.88 278.5,-1202.88 282.5,-1202.88 282.5,-1198.88 497.5,-1198.88 497.5,-1234.88"/>
<polyline fill="none" stroke="black" points="282.5,-1230.88 286.5,-1230.88 286.5,-1226.88 282.5,-1226.88 "/>
<polyline fill="none" stroke="black" points="282.5,-1206.88 286.5,-1206.88 286.5,-1202.88 282.5,-1202.88 "/>
<text text-anchor="middle" x="390" y="-1213.18" font-family="Times,serif" font-size="14.00">GET_SCALAR_FACE_VALUE</text>
</a>
</g>
</g>
<!-- COMMENT_9053020+2&#45;&gt;CALL_9053020 -->
<g id="edge3" class="edge">
<title>COMMENT_9053020+2&#45;&gt;CALL_9053020</title>
<path fill="none" stroke="black" d="M390,-1270.58C390,-1262.86 390,-1253.59 390,-1244.99"/>
<polygon fill="black" stroke="black" points="393.5,-1244.98 390,-1234.98 386.5,-1244.98 393.5,-1244.98"/>
</g>
<!-- CALL_9055ec0 -->
<g id="node5" class="node">
<title>CALL_9055ec0</title>
<g id="a_node5"><a xlink:href="GET_SCALAR_FACE_VALUE.svg" xlink:title="GET_SCALAR_FACE_VALUE">
<polygon fill="lightgray" stroke="black" points="497.5,-1162.88 282.5,-1162.88 282.5,-1158.88 278.5,-1158.88 278.5,-1154.88 282.5,-1154.88 282.5,-1134.88 278.5,-1134.88 278.5,-1130.88 282.5,-1130.88 282.5,-1126.88 497.5,-1126.88 497.5,-1162.88"/>
<polyline fill="none" stroke="black" points="282.5,-1158.88 286.5,-1158.88 286.5,-1154.88 282.5,-1154.88 "/>
<polyline fill="none" stroke="black" points="282.5,-1134.88 286.5,-1134.88 286.5,-1130.88 282.5,-1130.88 "/>
<text text-anchor="middle" x="390" y="-1141.18" font-family="Times,serif" font-size="14.00">GET_SCALAR_FACE_VALUE</text>
</a>
</g>
</g>
<!-- CALL_9053020&#45;&gt;CALL_9055ec0 -->
<g id="edge4" class="edge">
<title>CALL_9053020&#45;&gt;CALL_9055ec0</title>
<path fill="none" stroke="black" d="M390,-1198.58C390,-1190.86 390,-1181.59 390,-1172.99"/>
<polygon fill="black" stroke="black" points="393.5,-1172.98 390,-1162.98 386.5,-1172.98 393.5,-1172.98"/>
</g>
<!-- CALL_9058e80 -->
<g id="node6" class="node">
<title>CALL_9058e80</title>
<g id="a_node6"><a xlink:href="GET_SCALAR_FACE_VALUE.svg" xlink:title="GET_SCALAR_FACE_VALUE">
<polygon fill="lightgray" stroke="black" points="497.5,-1090.88 282.5,-1090.88 282.5,-1086.88 278.5,-1086.88 278.5,-1082.88 282.5,-1082.88 282.5,-1062.88 278.5,-1062.88 278.5,-1058.88 282.5,-1058.88 282.5,-1054.88 497.5,-1054.88 497.5,-1090.88"/>
<polyline fill="none" stroke="black" points="282.5,-1086.88 286.5,-1086.88 286.5,-1082.88 282.5,-1082.88 "/>
<polyline fill="none" stroke="black" points="282.5,-1062.88 286.5,-1062.88 286.5,-1058.88 282.5,-1058.88 "/>
<text text-anchor="middle" x="390" y="-1069.18" font-family="Times,serif" font-size="14.00">GET_SCALAR_FACE_VALUE</text>
</a>
</g>
</g>
<!-- CALL_9055ec0&#45;&gt;CALL_9058e80 -->
<g id="edge5" class="edge">
<title>CALL_9055ec0&#45;&gt;CALL_9058e80</title>
<path fill="none" stroke="black" d="M390,-1126.58C390,-1118.86 390,-1109.59 390,-1100.99"/>
<polygon fill="black" stroke="black" points="393.5,-1100.98 390,-1090.98 386.5,-1100.98 393.5,-1100.98"/>
</g>
<!-- beginDO_DO_92ec1e0 -->
<g id="node7" class="node">
<title>beginDO_DO_92ec1e0</title>
<ellipse fill="black" stroke="black" cx="390" cy="-1015.52" rx="0.36" ry="0.36"/>
</g>
<!-- CALL_9058e80&#45;&gt;beginDO_DO_92ec1e0 -->
<g id="edge18" class="edge">
<title>CALL_9058e80&#45;&gt;beginDO_DO_92ec1e0</title>
<path fill="none" stroke="black" d="M390,-1054.67C390,-1038.92 390,-1017.88 390,-1016.58"/>
</g>
<!-- COMMENT_905bf40+1 -->
<g id="node9" class="node">
<title>COMMENT_905bf40+1</title>
<polygon fill="none" stroke="black" points="757.5,-979.16 16.5,-979.16 16.5,-943.16 763.5,-943.16 763.5,-973.16 757.5,-979.16"/>
<polyline fill="none" stroke="black" points="757.5,-979.16 757.5,-973.16 "/>
<polyline fill="none" stroke="black" points="763.5,-973.16 757.5,-973.16 "/>
<text text-anchor="middle" x="390" y="-957.46" font-family="Times,serif" font-size="14.00">Overwrite first off&#45;wall advective flux if flow is away from the wall and if the face is not also a wall cell</text>
</g>
<!-- beginDO_DO_92ec1e0&#45;&gt;COMMENT_905bf40+1 -->
<g id="edge6" class="edge">
<title>beginDO_DO_92ec1e0&#45;&gt;COMMENT_905bf40+1</title>
<path fill="none" stroke="black" d="M390,-1015.01C390,-1013.53 390,-1001.48 390,-989.26"/>
<polygon fill="black" stroke="black" points="393.5,-989.18 390,-979.18 386.5,-989.18 393.5,-989.18"/>
</g>
<!-- endDO_DO_92ec1e0 -->
<g id="node8" class="node">
<title>endDO_DO_92ec1e0</title>
<ellipse fill="black" stroke="black" cx="390" cy="-145.36" rx="0.36" ry="0.36"/>
</g>
<!-- OMP_DO_909cd80 -->
<g id="node21" class="node">
<title>OMP_DO_909cd80</title>
<polygon fill="#ffd0d0" stroke="orange" points="659,-109 121,-109 121,-73 659,-73 659,-109"/>
<text text-anchor="middle" x="390" y="-87.3" font-family="Times,serif" font-size="14.00">!$OMP PARALLEL DO PRIVATE(IC,DU_P,DU_M,DV_P,DV_M,DW_P,DW_M)</text>
</g>
<!-- endDO_DO_92ec1e0&#45;&gt;OMP_DO_909cd80 -->
<g id="edge20" class="edge">
<title>endDO_DO_92ec1e0&#45;&gt;OMP_DO_909cd80</title>
<path fill="none" stroke="black" d="M390,-144.21C390,-142.77 390,-131.23 390,-119.36"/>
<polygon fill="black" stroke="black" points="393.5,-119.1 390,-109.1 386.5,-119.1 393.5,-119.1"/>
</g>
<!-- beginIf_IF_92ccf00 -->
<g id="node10" class="node">
<title>beginIf_IF_92ccf00</title>
<ellipse fill="black" stroke="black" cx="390" cy="-903.8" rx="0.36" ry="0.36"/>
</g>
<!-- COMMENT_905bf40+1&#45;&gt;beginIf_IF_92ccf00 -->
<g id="edge16" class="edge">
<title>COMMENT_905bf40+1&#45;&gt;beginIf_IF_92ccf00</title>
<path fill="none" stroke="black" d="M390,-942.95C390,-927.2 390,-906.16 390,-904.86"/>
</g>
<!-- COMMENT_90638a0+1 -->
<g id="node12" class="node">
<title>COMMENT_90638a0+1</title>
<polygon fill="none" stroke="black" points="532,-864.44 242,-864.44 242,-811.44 538,-811.44 538,-858.44 532,-864.44"/>
<polyline fill="none" stroke="black" points="532,-864.44 532,-858.44 "/>
<polyline fill="none" stroke="black" points="538,-858.44 532,-858.44 "/>
<text text-anchor="middle" x="390" y="-849.24" font-family="Times,serif" font-size="14.00"> &#160;&#160;&#160;&#160;ghost &#160;&#160;&#160;&#160;&#160;&#160;&#160;&#160;&#160;FX/UU(II+1)</text>
<text text-anchor="middle" x="390" y="-834.24" font-family="Times,serif" font-size="14.00">/// &#160;&#160;II &#160;&#160;/// &#160;II+1 &#160;| &#160;II+2 &#160;| ...</text>
<text text-anchor="middle" x="390" y="-819.24" font-family="Times,serif" font-size="14.00"> &#160;&#160;&#160;&#160;&#160;&#160;&#160;&#160;&#160;&#160;&#160;&#160;&#160;&#160;&#160;&#160;&#160;&#160;&#160;&#160;&#160;^ WALL_INDEX(II+1,+1)</text>
</g>
<!-- beginIf_IF_92ccf00&#45;&gt;COMMENT_90638a0+1 -->
<g id="edge14" class="edge">
<title>beginIf_IF_92ccf00&#45;&gt;COMMENT_90638a0+1</title>
<path fill="none" stroke="black" d="M390,-903.39C390,-902.51 390,-889.22 390,-874.94"/>
<polygon fill="black" stroke="black" points="393.5,-874.52 390,-864.52 386.5,-874.52 393.5,-874.52"/>
</g>
<!-- endIf_IF_92ccf00 -->
<g id="node11" class="node">
<title>endIf_IF_92ccf00</title>
<ellipse fill="black" stroke="black" cx="390" cy="-254.08" rx="0.36" ry="0.36"/>
</g>
<!-- COMMENT_92cd3c0+1 -->
<g id="node20" class="node">
<title>COMMENT_92cd3c0+1</title>
<polygon fill="none" stroke="black" points="517,-217.72 257,-217.72 257,-181.72 523,-181.72 523,-211.72 517,-217.72"/>
<polyline fill="none" stroke="black" points="517,-217.72 517,-211.72 "/>
<polyline fill="none" stroke="black" points="523,-211.72 517,-211.72 "/>
<text text-anchor="middle" x="390" y="-196.02" font-family="Times,serif" font-size="14.00">Correct flux terms at the boundary</text>
</g>
<!-- endIf_IF_92ccf00&#45;&gt;COMMENT_92cd3c0+1 -->
<g id="edge17" class="edge">
<title>endIf_IF_92ccf00&#45;&gt;COMMENT_92cd3c0+1</title>
<path fill="none" stroke="black" d="M390,-252.93C390,-251.49 390,-239.95 390,-228.08"/>
<polygon fill="black" stroke="black" points="393.5,-227.82 390,-217.82 386.5,-227.82 393.5,-227.82"/>
</g>
<!-- CALL_906f5a0 -->
<g id="node13" class="node">
<title>CALL_906f5a0</title>
<g id="a_node13"><a xlink:href="GET_SCALAR_FACE_VALUE.svg" xlink:title="GET_SCALAR_FACE_VALUE">
<polygon fill="lightgray" stroke="black" points="497.5,-775.44 282.5,-775.44 282.5,-771.44 278.5,-771.44 278.5,-767.44 282.5,-767.44 282.5,-747.44 278.5,-747.44 278.5,-743.44 282.5,-743.44 282.5,-739.44 497.5,-739.44 497.5,-775.44"/>
<polyline fill="none" stroke="black" points="282.5,-771.44 286.5,-771.44 286.5,-767.44 282.5,-767.44 "/>
<polyline fill="none" stroke="black" points="282.5,-747.44 286.5,-747.44 286.5,-743.44 282.5,-743.44 "/>
<text text-anchor="middle" x="390" y="-753.74" font-family="Times,serif" font-size="14.00">GET_SCALAR_FACE_VALUE</text>
</a>
</g>
</g>
<!-- COMMENT_90638a0+1&#45;&gt;CALL_906f5a0 -->
<g id="edge7" class="edge">
<title>COMMENT_90638a0+1&#45;&gt;CALL_906f5a0</title>
<path fill="none" stroke="black" d="M390,-811.24C390,-803.15 390,-794.2 390,-785.99"/>
<polygon fill="black" stroke="black" points="393.5,-785.77 390,-775.77 386.5,-785.77 393.5,-785.77"/>
</g>
<!-- COMMENT_9075ea0+1 -->
<g id="node14" class="node">
<title>COMMENT_9075ea0+1</title>
<polygon fill="none" stroke="black" points="504.5,-703.44 269.5,-703.44 269.5,-650.44 510.5,-650.44 510.5,-697.44 504.5,-703.44"/>
<polyline fill="none" stroke="black" points="504.5,-703.44 504.5,-697.44 "/>
<polyline fill="none" stroke="black" points="510.5,-697.44 504.5,-697.44 "/>
<text text-anchor="middle" x="390" y="-688.24" font-family="Times,serif" font-size="14.00"> &#160;&#160;&#160;&#160;&#160;&#160;&#160;&#160;&#160;&#160;FX/UU(II&#45;2) &#160;&#160;&#160;&#160;ghost</text>
<text text-anchor="middle" x="390" y="-673.24" font-family="Times,serif" font-size="14.00">... | &#160;II&#45;2 &#160;| &#160;II&#45;1 &#160;/// &#160;&#160;II &#160;&#160;///</text>
<text text-anchor="middle" x="390" y="-658.24" font-family="Times,serif" font-size="14.00"> &#160;&#160;&#160;&#160;&#160;&#160;&#160;&#160;&#160;&#160;&#160;&#160;^ WALL_INDEX(II&#45;1,&#45;1)</text>
</g>
<!-- CALL_906f5a0&#45;&gt;COMMENT_9075ea0+1 -->
<g id="edge8" class="edge">
<title>CALL_906f5a0&#45;&gt;COMMENT_9075ea0+1</title>
<path fill="none" stroke="black" d="M390,-739.41C390,-731.89 390,-722.75 390,-713.84"/>
<polygon fill="black" stroke="black" points="393.5,-713.6 390,-703.6 386.5,-713.6 393.5,-713.6"/>
</g>
<!-- CALL_9281b40 -->
<g id="node15" class="node">
<title>CALL_9281b40</title>
<g id="a_node15"><a xlink:href="GET_SCALAR_FACE_VALUE.svg" xlink:title="GET_SCALAR_FACE_VALUE">
<polygon fill="lightgray" stroke="black" points="497.5,-614.44 282.5,-614.44 282.5,-610.44 278.5,-610.44 278.5,-606.44 282.5,-606.44 282.5,-586.44 278.5,-586.44 278.5,-582.44 282.5,-582.44 282.5,-578.44 497.5,-578.44 497.5,-614.44"/>
<polyline fill="none" stroke="black" points="282.5,-610.44 286.5,-610.44 286.5,-606.44 282.5,-606.44 "/>
<polyline fill="none" stroke="black" points="282.5,-586.44 286.5,-586.44 286.5,-582.44 282.5,-582.44 "/>
<text text-anchor="middle" x="390" y="-592.74" font-family="Times,serif" font-size="14.00">GET_SCALAR_FACE_VALUE</text>
</a>
</g>
</g>
<!-- COMMENT_9075ea0+1&#45;&gt;CALL_9281b40 -->
<g id="edge9" class="edge">
<title>COMMENT_9075ea0+1&#45;&gt;CALL_9281b40</title>
<path fill="none" stroke="black" d="M390,-650.24C390,-642.15 390,-633.2 390,-624.99"/>
<polygon fill="black" stroke="black" points="393.5,-624.77 390,-614.77 386.5,-624.77 393.5,-624.77"/>
</g>
<!-- CALL_9294280 -->
<g id="node16" class="node">
<title>CALL_9294280</title>
<g id="a_node16"><a xlink:href="GET_SCALAR_FACE_VALUE.svg" xlink:title="GET_SCALAR_FACE_VALUE">
<polygon fill="lightgray" stroke="black" points="497.5,-542.44 282.5,-542.44 282.5,-538.44 278.5,-538.44 278.5,-534.44 282.5,-534.44 282.5,-514.44 278.5,-514.44 278.5,-510.44 282.5,-510.44 282.5,-506.44 497.5,-506.44 497.5,-542.44"/>
<polyline fill="none" stroke="black" points="282.5,-538.44 286.5,-538.44 286.5,-534.44 282.5,-534.44 "/>
<polyline fill="none" stroke="black" points="282.5,-514.44 286.5,-514.44 286.5,-510.44 282.5,-510.44 "/>
<text text-anchor="middle" x="390" y="-520.74" font-family="Times,serif" font-size="14.00">GET_SCALAR_FACE_VALUE</text>
</a>
</g>
</g>
<!-- CALL_9281b40&#45;&gt;CALL_9294280 -->
<g id="edge10" class="edge">
<title>CALL_9281b40&#45;&gt;CALL_9294280</title>
<path fill="none" stroke="black" d="M390,-578.14C390,-570.42 390,-561.15 390,-552.55"/>
<polygon fill="black" stroke="black" points="393.5,-552.54 390,-542.54 386.5,-552.54 393.5,-552.54"/>
</g>
<!-- CALL_92a6500 -->
<g id="node17" class="node">
<title>CALL_92a6500</title>
<g id="a_node17"><a xlink:href="GET_SCALAR_FACE_VALUE.svg" xlink:title="GET_SCALAR_FACE_VALUE">
<polygon fill="lightgray" stroke="black" points="497.5,-470.44 282.5,-470.44 282.5,-466.44 278.5,-466.44 278.5,-462.44 282.5,-462.44 282.5,-442.44 278.5,-442.44 278.5,-438.44 282.5,-438.44 282.5,-434.44 497.5,-434.44 497.5,-470.44"/>
<polyline fill="none" stroke="black" points="282.5,-466.44 286.5,-466.44 286.5,-462.44 282.5,-462.44 "/>
<polyline fill="none" stroke="black" points="282.5,-442.44 286.5,-442.44 286.5,-438.44 282.5,-438.44 "/>
<text text-anchor="middle" x="390" y="-448.74" font-family="Times,serif" font-size="14.00">GET_SCALAR_FACE_VALUE</text>
</a>
</g>
</g>
<!-- CALL_9294280&#45;&gt;CALL_92a6500 -->
<g id="edge11" class="edge">
<title>CALL_9294280&#45;&gt;CALL_92a6500</title>
<path fill="none" stroke="black" d="M390,-506.14C390,-498.42 390,-489.15 390,-480.55"/>
<polygon fill="black" stroke="black" points="393.5,-480.54 390,-470.54 386.5,-480.54 393.5,-480.54"/>
</g>
<!-- CALL_92b8260 -->
<g id="node18" class="node">
<title>CALL_92b8260</title>
<g id="a_node18"><a xlink:href="GET_SCALAR_FACE_VALUE.svg" xlink:title="GET_SCALAR_FACE_VALUE">
<polygon fill="lightgray" stroke="black" points="497.5,-398.44 282.5,-398.44 282.5,-394.44 278.5,-394.44 278.5,-390.44 282.5,-390.44 282.5,-370.44 278.5,-370.44 278.5,-366.44 282.5,-366.44 282.5,-362.44 497.5,-362.44 497.5,-398.44"/>
<polyline fill="none" stroke="black" points="282.5,-394.44 286.5,-394.44 286.5,-390.44 282.5,-390.44 "/>
<polyline fill="none" stroke="black" points="282.5,-370.44 286.5,-370.44 286.5,-366.44 282.5,-366.44 "/>
<text text-anchor="middle" x="390" y="-376.74" font-family="Times,serif" font-size="14.00">GET_SCALAR_FACE_VALUE</text>
</a>
</g>
</g>
<!-- CALL_92a6500&#45;&gt;CALL_92b8260 -->
<g id="edge12" class="edge">
<title>CALL_92a6500&#45;&gt;CALL_92b8260</title>
<path fill="none" stroke="black" d="M390,-434.14C390,-426.42 390,-417.15 390,-408.55"/>
<polygon fill="black" stroke="black" points="393.5,-408.54 390,-398.54 386.5,-408.54 393.5,-408.54"/>
</g>
<!-- CALL_92ca4c0 -->
<g id="node19" class="node">
<title>CALL_92ca4c0</title>
<g id="a_node19"><a xlink:href="GET_SCALAR_FACE_VALUE.svg" xlink:title="GET_SCALAR_FACE_VALUE">
<polygon fill="lightgray" stroke="black" points="497.5,-326.44 282.5,-326.44 282.5,-322.44 278.5,-322.44 278.5,-318.44 282.5,-318.44 282.5,-298.44 278.5,-298.44 278.5,-294.44 282.5,-294.44 282.5,-290.44 497.5,-290.44 497.5,-326.44"/>
<polyline fill="none" stroke="black" points="282.5,-322.44 286.5,-322.44 286.5,-318.44 282.5,-318.44 "/>
<polyline fill="none" stroke="black" points="282.5,-298.44 286.5,-298.44 286.5,-294.44 282.5,-294.44 "/>
<text text-anchor="middle" x="390" y="-304.74" font-family="Times,serif" font-size="14.00">GET_SCALAR_FACE_VALUE</text>
</a>
</g>
</g>
<!-- CALL_92b8260&#45;&gt;CALL_92ca4c0 -->
<g id="edge13" class="edge">
<title>CALL_92b8260&#45;&gt;CALL_92ca4c0</title>
<path fill="none" stroke="black" d="M390,-362.14C390,-354.42 390,-345.15 390,-336.55"/>
<polygon fill="black" stroke="black" points="393.5,-336.54 390,-326.54 386.5,-336.54 393.5,-336.54"/>
</g>
<!-- CALL_92ca4c0&#45;&gt;endIf_IF_92ccf00 -->
<g id="edge15" class="edge">
<title>CALL_92ca4c0&#45;&gt;endIf_IF_92ccf00</title>
<path fill="none" stroke="black" d="M390,-290.38C390,-275.37 390,-255.71 390,-254.5"/>
</g>
<!-- COMMENT_92cd3c0+1&#45;&gt;endDO_DO_92ec1e0 -->
<g id="edge19" class="edge">
<title>COMMENT_92cd3c0+1&#45;&gt;endDO_DO_92ec1e0</title>
<path fill="none" stroke="black" d="M390,-181.66C390,-166.65 390,-146.99 390,-145.78"/>
</g>
<!-- end_SUBPROGRAM_9079080 -->
<g id="node22" class="node">
<title>end_SUBPROGRAM_9079080</title>
<ellipse fill="black" stroke="black" cx="390" cy="-30" rx="7" ry="7"/>
</g>
<!-- OMP_DO_909cd80&#45;&gt;end_SUBPROGRAM_9079080 -->
<g id="edge21" class="edge">
<title>OMP_DO_909cd80&#45;&gt;end_SUBPROGRAM_9079080</title>
<path fill="none" stroke="black" d="M390,-72.93C390,-64.89 390,-55.33 390,-47.37"/>
<polygon fill="black" stroke="black" points="393.5,-47.22 390,-37.22 386.5,-47.22 393.5,-47.22"/>
</g>
</g>
</svg>
