<?xml version="1.0" encoding="UTF-8" standalone="no"?>
<!DOCTYPE svg PUBLIC "-//W3C//DTD SVG 1.1//EN"
 "http://www.w3.org/Graphics/SVG/1.1/DTD/svg11.dtd">
<!-- Generated by graphviz version 2.43.0 (0)
 -->
<!-- Title: STOP_CHECK Pages: 1 -->
<svg width="541pt" height="311pt"
 viewBox="0.00 0.00 541.00 311.00" xmlns="http://www.w3.org/2000/svg" xmlns:xlink="http://www.w3.org/1999/xlink">
<g id="graph0" class="graph" transform="scale(1 1) rotate(0) translate(4 307)">
<title>STOP_CHECK</title>
<polygon fill="white" stroke="transparent" points="-4,4 -4,-307 537,-307 537,4 -4,4"/>
<text text-anchor="middle" x="266.5" y="-7.8" font-family="Times,serif" font-size="14.00">STOP_CHECK</text>
<!-- start_SUBPROGRAM_8dde300 -->
<g id="node1" class="node">
<title>start_SUBPROGRAM_8dde300</title>
<ellipse fill="none" stroke="black" cx="266.5" cy="-296" rx="7" ry="7"/>
</g>
<!-- COMMENT_8dd8900+1 -->
<g id="node2" class="node">
<title>COMMENT_8dd8900+1</title>
<polygon fill="none" stroke="black" points="527,-253 0,-253 0,-217 533,-217 533,-247 527,-253"/>
<polyline fill="none" stroke="black" points="527,-253 527,-247 "/>
<polyline fill="none" stroke="black" points="533,-247 527,-247 "/>
<text text-anchor="middle" x="266.5" y="-231.3" font-family="Times,serif" font-size="14.00">!&gt; brief Make sure that all MPI processes have the same STOP_STATUS</text>
</g>
<!-- start_SUBPROGRAM_8dde300&#45;&gt;COMMENT_8dd8900+1 -->
<g id="edge1" class="edge">
<title>start_SUBPROGRAM_8dde300&#45;&gt;COMMENT_8dd8900+1</title>
<path fill="none" stroke="black" d="M266.5,-288.69C266.5,-282.49 266.5,-272.59 266.5,-263.05"/>
<polygon fill="black" stroke="black" points="270,-263.02 266.5,-253.02 263,-263.02 270,-263.02"/>
</g>
<!-- CALL_8ddc020 -->
<g id="node3" class="node">
<title>CALL_8ddc020</title>
<g id="a_node3"><a xlink:href="MPI_ALLREDUCE.svg" xlink:title="MPI_ALLREDUCE">
<polygon fill="#ffe800" stroke="black" points="339.5,-181 193.5,-181 193.5,-177 189.5,-177 189.5,-173 193.5,-173 193.5,-153 189.5,-153 189.5,-149 193.5,-149 193.5,-145 339.5,-145 339.5,-181"/>
<polyline fill="none" stroke="black" points="193.5,-177 197.5,-177 197.5,-173 193.5,-173 "/>
<polyline fill="none" stroke="black" points="193.5,-153 197.5,-153 197.5,-149 193.5,-149 "/>
<text text-anchor="middle" x="266.5" y="-159.3" font-family="Times,serif" font-size="14.00">MPI_ALLREDUCE</text>
</a>
</g>
</g>
<!-- COMMENT_8dd8900+1&#45;&gt;CALL_8ddc020 -->
<g id="edge2" class="edge">
<title>COMMENT_8dd8900+1&#45;&gt;CALL_8ddc020</title>
<path fill="none" stroke="black" d="M266.5,-216.7C266.5,-208.98 266.5,-199.71 266.5,-191.11"/>
<polygon fill="black" stroke="black" points="270,-191.1 266.5,-181.1 263,-191.1 270,-191.1"/>
</g>
<!-- CALL_8dc76e0 -->
<g id="node4" class="node">
<title>CALL_8dc76e0</title>
<g id="a_node4"><a xlink:href="END_FDS.svg" xlink:title="END_FDS">
<polygon fill="lightgray" stroke="black" points="310.5,-109 222.5,-109 222.5,-105 218.5,-105 218.5,-101 222.5,-101 222.5,-81 218.5,-81 218.5,-77 222.5,-77 222.5,-73 310.5,-73 310.5,-109"/>
<polyline fill="none" stroke="black" points="222.5,-105 226.5,-105 226.5,-101 222.5,-101 "/>
<polyline fill="none" stroke="black" points="222.5,-81 226.5,-81 226.5,-77 222.5,-77 "/>
<text text-anchor="middle" x="266.5" y="-87.3" font-family="Times,serif" font-size="14.00">END_FDS</text>
</a>
</g>
</g>
<!-- CALL_8ddc020&#45;&gt;CALL_8dc76e0 -->
<g id="edge3" class="edge">
<title>CALL_8ddc020&#45;&gt;CALL_8dc76e0</title>
<path fill="none" stroke="black" d="M266.5,-144.7C266.5,-136.98 266.5,-127.71 266.5,-119.11"/>
<polygon fill="black" stroke="black" points="270,-119.1 266.5,-109.1 263,-119.1 270,-119.1"/>
</g>
<!-- end_SUBPROGRAM_8dde300 -->
<g id="node5" class="node">
<title>end_SUBPROGRAM_8dde300</title>
<ellipse fill="black" stroke="black" cx="266.5" cy="-30" rx="7" ry="7"/>
</g>
<!-- CALL_8dc76e0&#45;&gt;end_SUBPROGRAM_8dde300 -->
<g id="edge4" class="edge">
<title>CALL_8dc76e0&#45;&gt;end_SUBPROGRAM_8dde300</title>
<path fill="none" stroke="black" d="M266.5,-72.93C266.5,-64.89 266.5,-55.33 266.5,-47.37"/>
<polygon fill="black" stroke="black" points="270,-47.22 266.5,-37.22 263,-47.22 270,-47.22"/>
</g>
</g>
</svg>
