<?xml version="1.0" encoding="UTF-8" standalone="no"?>
<!DOCTYPE svg PUBLIC "-//W3C//DTD SVG 1.1//EN"
 "http://www.w3.org/Graphics/SVG/1.1/DTD/svg11.dtd">
<!-- Generated by graphviz version 2.43.0 (0)
 -->
<!-- Title: TIMEOUT Pages: 1 -->
<svg width="949pt" height="559pt"
 viewBox="0.00 0.00 949.00 559.00" xmlns="http://www.w3.org/2000/svg" xmlns:xlink="http://www.w3.org/1999/xlink">
<g id="graph0" class="graph" transform="scale(1 1) rotate(0) translate(4 555)">
<title>TIMEOUT</title>
<polygon fill="white" stroke="transparent" points="-4,4 -4,-555 945,-555 945,4 -4,4"/>
<text text-anchor="middle" x="470.5" y="-7.8" font-family="Times,serif" font-size="14.00">TIMEOUT</text>
<!-- start_SUBPROGRAM_92256c0 -->
<g id="node1" class="node">
<title>start_SUBPROGRAM_92256c0</title>
<ellipse fill="none" stroke="black" cx="470.5" cy="-544" rx="7" ry="7"/>
</g>
<!-- COMMENT_921a700+1 -->
<g id="node2" class="node">
<title>COMMENT_921a700+1</title>
<polygon fill="none" stroke="black" points="847,-501 88,-501 88,-433 853,-433 853,-495 847,-501"/>
<polyline fill="none" stroke="black" points="847,-501 847,-495 "/>
<polyline fill="none" stroke="black" points="853,-495 847,-495 "/>
<text text-anchor="middle" x="470.5" y="-485.8" font-family="Times,serif" font-size="14.00">!&gt; brief Probe MPI communications until complete. Write error if the communication does not complete.</text>
<text text-anchor="middle" x="470.5" y="-470.8" font-family="Times,serif" font-size="14.00">!&gt; param RNAME Name given to the array of MPI_REQUESTs</text>
<text text-anchor="middle" x="470.5" y="-455.8" font-family="Times,serif" font-size="14.00">!&gt; param NR Number of MPI_REQUESTs</text>
<text text-anchor="middle" x="470.5" y="-440.8" font-family="Times,serif" font-size="14.00">!&gt; param RR Array of MPI_REQUESTs</text>
</g>
<!-- start_SUBPROGRAM_92256c0&#45;&gt;COMMENT_921a700+1 -->
<g id="edge1" class="edge">
<title>start_SUBPROGRAM_92256c0&#45;&gt;COMMENT_921a700+1</title>
<path fill="none" stroke="black" d="M470.5,-536.86C470.5,-530.93 470.5,-521.38 470.5,-511.26"/>
<polygon fill="black" stroke="black" points="474,-511.05 470.5,-501.05 467,-511.05 474,-511.05"/>
</g>
<!-- COMMENT_9211a00+1 -->
<g id="node3" class="node">
<title>COMMENT_9211a00+1</title>
<polygon fill="none" stroke="black" points="935,-397 0,-397 0,-361 941,-361 941,-391 935,-397"/>
<polyline fill="none" stroke="black" points="935,-397 935,-391 "/>
<polyline fill="none" stroke="black" points="941,-391 935,-391 "/>
<text text-anchor="middle" x="470.5" y="-375.3" font-family="Times,serif" font-size="14.00">Normally, PROFILING=F and this branch continually tests the communication and cancels the requests if too much time elapses.</text>
</g>
<!-- COMMENT_921a700+1&#45;&gt;COMMENT_9211a00+1 -->
<g id="edge2" class="edge">
<title>COMMENT_921a700+1&#45;&gt;COMMENT_9211a00+1</title>
<path fill="none" stroke="black" d="M470.5,-433C470.5,-424.56 470.5,-415.59 470.5,-407.47"/>
<polygon fill="black" stroke="black" points="474,-407.4 470.5,-397.4 467,-407.4 474,-407.4"/>
</g>
<!-- CALL_921e480 -->
<g id="node4" class="node">
<title>CALL_921e480</title>
<g id="a_node4"><a xlink:href="MPI_TESTALL.svg" xlink:title="MPI_TESTALL">
<polygon fill="#ffe800" stroke="black" points="529.5,-325 411.5,-325 411.5,-321 407.5,-321 407.5,-317 411.5,-317 411.5,-297 407.5,-297 407.5,-293 411.5,-293 411.5,-289 529.5,-289 529.5,-325"/>
<polyline fill="none" stroke="black" points="411.5,-321 415.5,-321 415.5,-317 411.5,-317 "/>
<polyline fill="none" stroke="black" points="411.5,-297 415.5,-297 415.5,-293 411.5,-293 "/>
<text text-anchor="middle" x="470.5" y="-303.3" font-family="Times,serif" font-size="14.00">MPI_TESTALL</text>
</a>
</g>
</g>
<!-- COMMENT_9211a00+1&#45;&gt;CALL_921e480 -->
<g id="edge3" class="edge">
<title>COMMENT_9211a00+1&#45;&gt;CALL_921e480</title>
<path fill="none" stroke="black" d="M470.5,-360.7C470.5,-352.98 470.5,-343.71 470.5,-335.11"/>
<polygon fill="black" stroke="black" points="474,-335.1 470.5,-325.1 467,-335.1 474,-335.1"/>
</g>
<!-- CALL_9223b20 -->
<g id="node5" class="node">
<title>CALL_9223b20</title>
<g id="a_node5"><a xlink:href="MPI_ABORT.svg" xlink:title="MPI_ABORT">
<polygon fill="#ffe800" stroke="black" points="522.5,-253 418.5,-253 418.5,-249 414.5,-249 414.5,-245 418.5,-245 418.5,-225 414.5,-225 414.5,-221 418.5,-221 418.5,-217 522.5,-217 522.5,-253"/>
<polyline fill="none" stroke="black" points="418.5,-249 422.5,-249 422.5,-245 418.5,-245 "/>
<polyline fill="none" stroke="black" points="418.5,-225 422.5,-225 422.5,-221 418.5,-221 "/>
<text text-anchor="middle" x="470.5" y="-231.3" font-family="Times,serif" font-size="14.00">MPI_ABORT</text>
</a>
</g>
</g>
<!-- CALL_921e480&#45;&gt;CALL_9223b20 -->
<g id="edge4" class="edge">
<title>CALL_921e480&#45;&gt;CALL_9223b20</title>
<path fill="none" stroke="black" d="M470.5,-288.7C470.5,-280.98 470.5,-271.71 470.5,-263.11"/>
<polygon fill="black" stroke="black" points="474,-263.1 470.5,-253.1 467,-263.1 474,-263.1"/>
</g>
<!-- COMMENT_9225180+1 -->
<g id="node6" class="node">
<title>COMMENT_9225180+1</title>
<polygon fill="none" stroke="black" points="883.5,-181 51.5,-181 51.5,-145 889.5,-145 889.5,-175 883.5,-181"/>
<polyline fill="none" stroke="black" points="883.5,-181 883.5,-175 "/>
<polyline fill="none" stroke="black" points="889.5,-175 883.5,-175 "/>
<text text-anchor="middle" x="470.5" y="-159.3" font-family="Times,serif" font-size="14.00">If PROFILING=T, do not do MPI_TESTALL because too many calls to this routine swamps the tracing and profiling.</text>
</g>
<!-- CALL_9223b20&#45;&gt;COMMENT_9225180+1 -->
<g id="edge5" class="edge">
<title>CALL_9223b20&#45;&gt;COMMENT_9225180+1</title>
<path fill="none" stroke="black" d="M470.5,-216.7C470.5,-208.98 470.5,-199.71 470.5,-191.11"/>
<polygon fill="black" stroke="black" points="474,-191.1 470.5,-181.1 467,-191.1 474,-191.1"/>
</g>
<!-- CALL_9225180 -->
<g id="node7" class="node">
<title>CALL_9225180</title>
<g id="a_node7"><a xlink:href="MPI_WAITALL.svg" xlink:title="MPI_WAITALL">
<polygon fill="#ffe800" stroke="black" points="529,-109 412,-109 412,-105 408,-105 408,-101 412,-101 412,-81 408,-81 408,-77 412,-77 412,-73 529,-73 529,-109"/>
<polyline fill="none" stroke="black" points="412,-105 416,-105 416,-101 412,-101 "/>
<polyline fill="none" stroke="black" points="412,-81 416,-81 416,-77 412,-77 "/>
<text text-anchor="middle" x="470.5" y="-87.3" font-family="Times,serif" font-size="14.00">MPI_WAITALL</text>
</a>
</g>
</g>
<!-- COMMENT_9225180+1&#45;&gt;CALL_9225180 -->
<g id="edge6" class="edge">
<title>COMMENT_9225180+1&#45;&gt;CALL_9225180</title>
<path fill="none" stroke="black" d="M470.5,-144.7C470.5,-136.98 470.5,-127.71 470.5,-119.11"/>
<polygon fill="black" stroke="black" points="474,-119.1 470.5,-109.1 467,-119.1 474,-119.1"/>
</g>
<!-- end_SUBPROGRAM_92256c0 -->
<g id="node8" class="node">
<title>end_SUBPROGRAM_92256c0</title>
<ellipse fill="black" stroke="black" cx="470.5" cy="-30" rx="7" ry="7"/>
</g>
<!-- CALL_9225180&#45;&gt;end_SUBPROGRAM_92256c0 -->
<g id="edge7" class="edge">
<title>CALL_9225180&#45;&gt;end_SUBPROGRAM_92256c0</title>
<path fill="none" stroke="black" d="M470.5,-72.93C470.5,-64.89 470.5,-55.33 470.5,-47.37"/>
<polygon fill="black" stroke="black" points="474,-47.22 470.5,-37.22 467,-47.22 474,-47.22"/>
</g>
</g>
</svg>
