<?xml version="1.0" encoding="UTF-8" standalone="no"?>
<!DOCTYPE svg PUBLIC "-//W3C//DTD SVG 1.1//EN"
 "http://www.w3.org/Graphics/SVG/1.1/DTD/svg11.dtd">
<!-- Generated by graphviz version 2.43.0 (0)
 -->
<!-- Title: TMP_INIT Pages: 1 -->
<svg width="234pt" height="472pt"
 viewBox="0.00 0.00 234.00 472.00" xmlns="http://www.w3.org/2000/svg" xmlns:xlink="http://www.w3.org/1999/xlink">
<g id="graph0" class="graph" transform="scale(1 1) rotate(0) translate(4 468)">
<title>TMP_INIT</title>
<polygon fill="white" stroke="transparent" points="-4,4 -4,-468 230,-468 230,4 -4,4"/>
<text text-anchor="middle" x="113" y="-7.8" font-family="Times,serif" font-size="14.00">TMP_INIT</text>
<!-- start_SUBPROGRAM_9ac3e00 -->
<g id="node1" class="node">
<title>start_SUBPROGRAM_9ac3e00</title>
<ellipse fill="none" stroke="black" cx="113" cy="-457" rx="7" ry="7"/>
</g>
<!-- COMMENT_9a9da00+1 -->
<g id="node2" class="node">
<title>COMMENT_9a9da00+1</title>
<polygon fill="none" stroke="black" points="220,-414 0,-414 0,-361 226,-361 226,-408 220,-414"/>
<polyline fill="none" stroke="black" points="220,-414 220,-408 "/>
<polyline fill="none" stroke="black" points="226,-408 220,-408 "/>
<text text-anchor="middle" x="113" y="-398.8" font-family="Times,serif" font-size="14.00">!&gt; brief Read TMP file</text>
<text text-anchor="middle" x="113" y="-383.8" font-family="Times,serif" font-size="14.00">!&gt; param NM Mesh number</text>
<text text-anchor="middle" x="113" y="-368.8" font-family="Times,serif" font-size="14.00">!&gt; param FN_TMP File name</text>
</g>
<!-- start_SUBPROGRAM_9ac3e00&#45;&gt;COMMENT_9a9da00+1 -->
<g id="edge1" class="edge">
<title>start_SUBPROGRAM_9ac3e00&#45;&gt;COMMENT_9a9da00+1</title>
<path fill="none" stroke="black" d="M113,-449.77C113,-443.76 113,-434.16 113,-424.32"/>
<polygon fill="black" stroke="black" points="116.5,-424.12 113,-414.12 109.5,-424.12 116.5,-424.12"/>
</g>
<!-- CALL_9a93fe0 -->
<g id="node3" class="node">
<title>CALL_9a93fe0</title>
<g id="a_node3"><a xlink:href="POINT_TO_MESH.svg" xlink:title="POINT_TO_MESH">
<polygon fill="lightgray" stroke="black" points="185,-325 41,-325 41,-321 37,-321 37,-317 41,-317 41,-297 37,-297 37,-293 41,-293 41,-289 185,-289 185,-325"/>
<polyline fill="none" stroke="black" points="41,-321 45,-321 45,-317 41,-317 "/>
<polyline fill="none" stroke="black" points="41,-297 45,-297 45,-293 41,-293 "/>
<text text-anchor="middle" x="113" y="-303.3" font-family="Times,serif" font-size="14.00">POINT_TO_MESH</text>
</a>
</g>
</g>
<!-- COMMENT_9a9da00+1&#45;&gt;CALL_9a93fe0 -->
<g id="edge2" class="edge">
<title>COMMENT_9a9da00+1&#45;&gt;CALL_9a93fe0</title>
<path fill="none" stroke="black" d="M113,-360.8C113,-352.71 113,-343.76 113,-335.55"/>
<polygon fill="black" stroke="black" points="116.5,-335.33 113,-325.33 109.5,-335.33 116.5,-335.33"/>
</g>
<!-- CALL_9aa4b80 -->
<g id="node4" class="node">
<title>CALL_9aa4b80</title>
<g id="a_node4"><a xlink:href="SHUTDOWN.svg" xlink:title="SHUTDOWN">
<polygon fill="lightgray" stroke="black" points="167,-253 59,-253 59,-249 55,-249 55,-245 59,-245 59,-225 55,-225 55,-221 59,-221 59,-217 167,-217 167,-253"/>
<polyline fill="none" stroke="black" points="59,-249 63,-249 63,-245 59,-245 "/>
<polyline fill="none" stroke="black" points="59,-225 63,-225 63,-221 59,-221 "/>
<text text-anchor="middle" x="113" y="-231.3" font-family="Times,serif" font-size="14.00">SHUTDOWN</text>
</a>
</g>
</g>
<!-- CALL_9a93fe0&#45;&gt;CALL_9aa4b80 -->
<g id="edge3" class="edge">
<title>CALL_9a93fe0&#45;&gt;CALL_9aa4b80</title>
<path fill="none" stroke="black" d="M113,-288.7C113,-280.98 113,-271.71 113,-263.11"/>
<polygon fill="black" stroke="black" points="116.5,-263.1 113,-253.1 109.5,-263.1 116.5,-263.1"/>
</g>
<!-- COMMENT_9ab31c0+1 -->
<g id="node5" class="node">
<title>COMMENT_9ab31c0+1</title>
<polygon fill="none" stroke="black" points="176,-181 44,-181 44,-145 182,-145 182,-175 176,-181"/>
<polyline fill="none" stroke="black" points="176,-181 176,-175 "/>
<polyline fill="none" stroke="black" points="182,-175 176,-175 "/>
<text text-anchor="middle" x="113" y="-159.3" font-family="Times,serif" font-size="14.00">CLOSE(LU_TMP)</text>
</g>
<!-- CALL_9aa4b80&#45;&gt;COMMENT_9ab31c0+1 -->
<g id="edge4" class="edge">
<title>CALL_9aa4b80&#45;&gt;COMMENT_9ab31c0+1</title>
<path fill="none" stroke="black" d="M113,-216.7C113,-208.98 113,-199.71 113,-191.11"/>
<polygon fill="black" stroke="black" points="116.5,-191.1 113,-181.1 109.5,-191.1 116.5,-191.1"/>
</g>
<!-- COMMENT_9ab31c0+2 -->
<g id="node6" class="node">
<title>COMMENT_9ab31c0+2</title>
<polygon fill="none" stroke="black" points="186,-109 34,-109 34,-73 192,-73 192,-103 186,-109"/>
<polyline fill="none" stroke="black" points="186,-109 186,-103 "/>
<polyline fill="none" stroke="black" points="192,-103 186,-103 "/>
<text text-anchor="middle" x="113" y="-87.3" font-family="Times,serif" font-size="14.00">update density field</text>
</g>
<!-- COMMENT_9ab31c0+1&#45;&gt;COMMENT_9ab31c0+2 -->
<g id="edge5" class="edge">
<title>COMMENT_9ab31c0+1&#45;&gt;COMMENT_9ab31c0+2</title>
<path fill="none" stroke="black" d="M113,-144.7C113,-136.98 113,-127.71 113,-119.11"/>
<polygon fill="black" stroke="black" points="116.5,-119.1 113,-109.1 109.5,-119.1 116.5,-119.1"/>
</g>
<!-- end_SUBPROGRAM_9ac3e00 -->
<g id="node7" class="node">
<title>end_SUBPROGRAM_9ac3e00</title>
<ellipse fill="black" stroke="black" cx="113" cy="-30" rx="7" ry="7"/>
</g>
<!-- COMMENT_9ab31c0+2&#45;&gt;end_SUBPROGRAM_9ac3e00 -->
<g id="edge6" class="edge">
<title>COMMENT_9ab31c0+2&#45;&gt;end_SUBPROGRAM_9ac3e00</title>
<path fill="none" stroke="black" d="M113,-72.93C113,-64.89 113,-55.33 113,-47.37"/>
<polygon fill="black" stroke="black" points="116.5,-47.22 113,-37.22 109.5,-47.22 116.5,-47.22"/>
</g>
</g>
</svg>
