<?xml version="1.0" encoding="UTF-8" standalone="no"?>
<!DOCTYPE svg PUBLIC "-//W3C//DTD SVG 1.1//EN"
 "http://www.w3.org/Graphics/SVG/1.1/DTD/svg11.dtd">
<!-- Generated by graphviz version 2.43.0 (0)
 -->
<!-- Title: UVW_INIT Pages: 1 -->
<svg width="525pt" height="472pt"
 viewBox="0.00 0.00 525.00 472.00" xmlns="http://www.w3.org/2000/svg" xmlns:xlink="http://www.w3.org/1999/xlink">
<g id="graph0" class="graph" transform="scale(1 1) rotate(0) translate(4 468)">
<title>UVW_INIT</title>
<polygon fill="white" stroke="transparent" points="-4,4 -4,-468 521,-468 521,4 -4,4"/>
<text text-anchor="middle" x="258.5" y="-7.8" font-family="Times,serif" font-size="14.00">UVW_INIT</text>
<!-- start_SUBPROGRAM_9a875a0 -->
<g id="node1" class="node">
<title>start_SUBPROGRAM_9a875a0</title>
<ellipse fill="none" stroke="black" cx="258.5" cy="-457" rx="7" ry="7"/>
</g>
<!-- COMMENT_9a68400+1 -->
<g id="node2" class="node">
<title>COMMENT_9a68400+1</title>
<polygon fill="none" stroke="black" points="367,-414 144,-414 144,-361 373,-361 373,-408 367,-414"/>
<polyline fill="none" stroke="black" points="367,-414 367,-408 "/>
<polyline fill="none" stroke="black" points="373,-408 367,-408 "/>
<text text-anchor="middle" x="258.5" y="-398.8" font-family="Times,serif" font-size="14.00">!&gt; brief Read UVW file</text>
<text text-anchor="middle" x="258.5" y="-383.8" font-family="Times,serif" font-size="14.00">!&gt; param NM Mesh number</text>
<text text-anchor="middle" x="258.5" y="-368.8" font-family="Times,serif" font-size="14.00">!&gt; param FN_UVW File name</text>
</g>
<!-- start_SUBPROGRAM_9a875a0&#45;&gt;COMMENT_9a68400+1 -->
<g id="edge1" class="edge">
<title>start_SUBPROGRAM_9a875a0&#45;&gt;COMMENT_9a68400+1</title>
<path fill="none" stroke="black" d="M258.5,-449.77C258.5,-443.76 258.5,-434.16 258.5,-424.32"/>
<polygon fill="black" stroke="black" points="262,-424.12 258.5,-414.12 255,-424.12 262,-424.12"/>
</g>
<!-- CALL_9a575a0 -->
<g id="node3" class="node">
<title>CALL_9a575a0</title>
<g id="a_node3"><a xlink:href="POINT_TO_MESH.svg" xlink:title="POINT_TO_MESH">
<polygon fill="lightgray" stroke="black" points="330.5,-325 186.5,-325 186.5,-321 182.5,-321 182.5,-317 186.5,-317 186.5,-297 182.5,-297 182.5,-293 186.5,-293 186.5,-289 330.5,-289 330.5,-325"/>
<polyline fill="none" stroke="black" points="186.5,-321 190.5,-321 190.5,-317 186.5,-317 "/>
<polyline fill="none" stroke="black" points="186.5,-297 190.5,-297 190.5,-293 186.5,-293 "/>
<text text-anchor="middle" x="258.5" y="-303.3" font-family="Times,serif" font-size="14.00">POINT_TO_MESH</text>
</a>
</g>
</g>
<!-- COMMENT_9a68400+1&#45;&gt;CALL_9a575a0 -->
<g id="edge2" class="edge">
<title>COMMENT_9a68400+1&#45;&gt;CALL_9a575a0</title>
<path fill="none" stroke="black" d="M258.5,-360.8C258.5,-352.71 258.5,-343.76 258.5,-335.55"/>
<polygon fill="black" stroke="black" points="262,-335.33 258.5,-325.33 255,-335.33 262,-335.33"/>
</g>
<!-- CALL_9a6eca0 -->
<g id="node4" class="node">
<title>CALL_9a6eca0</title>
<g id="a_node4"><a xlink:href="SHUTDOWN.svg" xlink:title="SHUTDOWN">
<polygon fill="lightgray" stroke="black" points="312.5,-253 204.5,-253 204.5,-249 200.5,-249 200.5,-245 204.5,-245 204.5,-225 200.5,-225 200.5,-221 204.5,-221 204.5,-217 312.5,-217 312.5,-253"/>
<polyline fill="none" stroke="black" points="204.5,-249 208.5,-249 208.5,-245 204.5,-245 "/>
<polyline fill="none" stroke="black" points="204.5,-225 208.5,-225 208.5,-221 204.5,-221 "/>
<text text-anchor="middle" x="258.5" y="-231.3" font-family="Times,serif" font-size="14.00">SHUTDOWN</text>
</a>
</g>
</g>
<!-- CALL_9a575a0&#45;&gt;CALL_9a6eca0 -->
<g id="edge3" class="edge">
<title>CALL_9a575a0&#45;&gt;CALL_9a6eca0</title>
<path fill="none" stroke="black" d="M258.5,-288.7C258.5,-280.98 258.5,-271.71 258.5,-263.11"/>
<polygon fill="black" stroke="black" points="262,-263.1 258.5,-253.1 255,-263.1 262,-263.1"/>
</g>
<!-- COMMENT_9a73200+1 -->
<g id="node5" class="node">
<title>COMMENT_9a73200+1</title>
<polygon fill="none" stroke="black" points="323,-181 188,-181 188,-145 329,-145 329,-175 323,-181"/>
<polyline fill="none" stroke="black" points="323,-181 323,-175 "/>
<polyline fill="none" stroke="black" points="329,-175 323,-175 "/>
<text text-anchor="middle" x="258.5" y="-159.3" font-family="Times,serif" font-size="14.00">CLOSE(LU_UVW)</text>
</g>
<!-- CALL_9a6eca0&#45;&gt;COMMENT_9a73200+1 -->
<g id="edge4" class="edge">
<title>CALL_9a6eca0&#45;&gt;COMMENT_9a73200+1</title>
<path fill="none" stroke="black" d="M258.5,-216.7C258.5,-208.98 258.5,-199.71 258.5,-191.11"/>
<polygon fill="black" stroke="black" points="262,-191.1 258.5,-181.1 255,-191.1 262,-191.1"/>
</g>
<!-- COMMENT_9a87fc0+1 -->
<g id="node6" class="node">
<title>COMMENT_9a87fc0+1</title>
<polygon fill="none" stroke="black" points="511,-109 0,-109 0,-73 517,-73 517,-103 511,-109"/>
<polyline fill="none" stroke="black" points="511,-109 511,-103 "/>
<polyline fill="none" stroke="black" points="517,-103 511,-103 "/>
<text text-anchor="middle" x="258.5" y="-87.3" font-family="Times,serif" font-size="14.00">Set normal velocity on external and internal boundaries (follows divg)</text>
</g>
<!-- COMMENT_9a73200+1&#45;&gt;COMMENT_9a87fc0+1 -->
<g id="edge5" class="edge">
<title>COMMENT_9a73200+1&#45;&gt;COMMENT_9a87fc0+1</title>
<path fill="none" stroke="black" d="M258.5,-144.7C258.5,-136.98 258.5,-127.71 258.5,-119.11"/>
<polygon fill="black" stroke="black" points="262,-119.1 258.5,-109.1 255,-119.1 262,-119.1"/>
</g>
<!-- end_SUBPROGRAM_9a875a0 -->
<g id="node7" class="node">
<title>end_SUBPROGRAM_9a875a0</title>
<ellipse fill="black" stroke="black" cx="258.5" cy="-30" rx="7" ry="7"/>
</g>
<!-- COMMENT_9a87fc0+1&#45;&gt;end_SUBPROGRAM_9a875a0 -->
<g id="edge6" class="edge">
<title>COMMENT_9a87fc0+1&#45;&gt;end_SUBPROGRAM_9a875a0</title>
<path fill="none" stroke="black" d="M258.5,-72.93C258.5,-64.89 258.5,-55.33 258.5,-47.37"/>
<polygon fill="black" stroke="black" points="262,-47.22 258.5,-37.22 255,-47.22 262,-47.22"/>
</g>
</g>
</svg>
