<?xml version="1.0" encoding="UTF-8" standalone="no"?>
<!DOCTYPE svg PUBLIC "-//W3C//DTD SVG 1.1//EN"
 "http://www.w3.org/Graphics/SVG/1.1/DTD/svg11.dtd">
<!-- Generated by graphviz version 2.43.0 (0)
 -->
<!-- Title: VELOCITY_FLUX_CYLINDRICAL Pages: 1 -->
<svg width="794pt" height="559pt"
 viewBox="0.00 0.00 794.00 559.00" xmlns="http://www.w3.org/2000/svg" xmlns:xlink="http://www.w3.org/1999/xlink">
<g id="graph0" class="graph" transform="scale(1 1) rotate(0) translate(4 555)">
<title>VELOCITY_FLUX_CYLINDRICAL</title>
<polygon fill="white" stroke="transparent" points="-4,4 -4,-555 790,-555 790,4 -4,4"/>
<text text-anchor="middle" x="393" y="-7.8" font-family="Times,serif" font-size="14.00">VELOCITY_FLUX_CYLINDRICAL</text>
<!-- start_SUBPROGRAM_89c9900 -->
<g id="node1" class="node">
<title>start_SUBPROGRAM_89c9900</title>
<ellipse fill="none" stroke="black" cx="393" cy="-544" rx="7" ry="7"/>
</g>
<!-- COMMENT_89473c0+1 -->
<g id="node2" class="node">
<title>COMMENT_89473c0+1</title>
<polygon fill="none" stroke="black" points="780,-501 0,-501 0,-433 786,-433 786,-495 780,-501"/>
<polyline fill="none" stroke="black" points="780,-501 780,-495 "/>
<polyline fill="none" stroke="black" points="786,-495 780,-495 "/>
<text text-anchor="middle" x="393" y="-485.8" font-family="Times,serif" font-size="14.00">!&gt; brief Compute convective and diffusive terms of the momentum equations in 2&#45;D cylindrical coordinates</text>
<text text-anchor="middle" x="393" y="-470.8" font-family="Times,serif" font-size="14.00">!&gt; param T Current time (s)</text>
<text text-anchor="middle" x="393" y="-455.8" font-family="Times,serif" font-size="14.00">!&gt; param NM Mesh number</text>
<text text-anchor="middle" x="393" y="-440.8" font-family="Times,serif" font-size="14.00">!&gt; param APPLY_TO_ESTIMATED_VARIABLES Flag indicating whether to use estimated values of variables</text>
</g>
<!-- start_SUBPROGRAM_89c9900&#45;&gt;COMMENT_89473c0+1 -->
<g id="edge1" class="edge">
<title>start_SUBPROGRAM_89c9900&#45;&gt;COMMENT_89473c0+1</title>
<path fill="none" stroke="black" d="M393,-536.86C393,-530.93 393,-521.38 393,-511.26"/>
<polygon fill="black" stroke="black" points="396.5,-511.05 393,-501.05 389.5,-511.05 396.5,-511.05"/>
</g>
<!-- CALL_894e540 -->
<g id="node3" class="node">
<title>CALL_894e540</title>
<g id="a_node3"><a xlink:href="POINT_TO_MESH.svg" xlink:title="POINT_TO_MESH">
<polygon fill="lightgray" stroke="black" points="465,-397 321,-397 321,-393 317,-393 317,-389 321,-389 321,-369 317,-369 317,-365 321,-365 321,-361 465,-361 465,-397"/>
<polyline fill="none" stroke="black" points="321,-393 325,-393 325,-389 321,-389 "/>
<polyline fill="none" stroke="black" points="321,-369 325,-369 325,-365 321,-365 "/>
<text text-anchor="middle" x="393" y="-375.3" font-family="Times,serif" font-size="14.00">POINT_TO_MESH</text>
</a>
</g>
</g>
<!-- COMMENT_89473c0+1&#45;&gt;CALL_894e540 -->
<g id="edge2" class="edge">
<title>COMMENT_89473c0+1&#45;&gt;CALL_894e540</title>
<path fill="none" stroke="black" d="M393,-433C393,-424.56 393,-415.59 393,-407.47"/>
<polygon fill="black" stroke="black" points="396.5,-407.4 393,-397.4 389.5,-407.4 396.5,-407.4"/>
</g>
<!-- COMMENT_89543a0+1 -->
<g id="node4" class="node">
<title>COMMENT_89543a0+1</title>
<polygon fill="none" stroke="black" points="569.5,-325 210.5,-325 210.5,-289 575.5,-289 575.5,-319 569.5,-325"/>
<polyline fill="none" stroke="black" points="569.5,-325 569.5,-319 "/>
<polyline fill="none" stroke="black" points="575.5,-319 569.5,-319 "/>
<text text-anchor="middle" x="393" y="-303.3" font-family="Times,serif" font-size="14.00">Compute vorticity and stress tensor components</text>
</g>
<!-- CALL_894e540&#45;&gt;COMMENT_89543a0+1 -->
<g id="edge3" class="edge">
<title>CALL_894e540&#45;&gt;COMMENT_89543a0+1</title>
<path fill="none" stroke="black" d="M393,-360.7C393,-352.98 393,-343.71 393,-335.11"/>
<polygon fill="black" stroke="black" points="396.5,-335.1 393,-325.1 389.5,-335.1 396.5,-335.1"/>
</g>
<!-- COMMENT_8962120+1 -->
<g id="node5" class="node">
<title>COMMENT_8962120+1</title>
<polygon fill="none" stroke="black" points="500.5,-253 279.5,-253 279.5,-217 506.5,-217 506.5,-247 500.5,-253"/>
<polyline fill="none" stroke="black" points="500.5,-253 500.5,-247 "/>
<polyline fill="none" stroke="black" points="506.5,-247 500.5,-247 "/>
<text text-anchor="middle" x="393" y="-231.3" font-family="Times,serif" font-size="14.00">Compute gravity components</text>
</g>
<!-- COMMENT_89543a0+1&#45;&gt;COMMENT_8962120+1 -->
<g id="edge4" class="edge">
<title>COMMENT_89543a0+1&#45;&gt;COMMENT_8962120+1</title>
<path fill="none" stroke="black" d="M393,-288.7C393,-280.98 393,-271.71 393,-263.11"/>
<polygon fill="black" stroke="black" points="396.5,-263.1 393,-253.1 389.5,-263.1 396.5,-263.1"/>
</g>
<!-- COMMENT_8949700+1 -->
<g id="node6" class="node">
<title>COMMENT_8949700+1</title>
<polygon fill="none" stroke="black" points="519,-181 261,-181 261,-145 525,-145 525,-175 519,-181"/>
<polyline fill="none" stroke="black" points="519,-181 519,-175 "/>
<polyline fill="none" stroke="black" points="525,-175 519,-175 "/>
<text text-anchor="middle" x="393" y="-159.3" font-family="Times,serif" font-size="14.00">Compute r&#45;direction flux term FVX</text>
</g>
<!-- COMMENT_8962120+1&#45;&gt;COMMENT_8949700+1 -->
<g id="edge5" class="edge">
<title>COMMENT_8962120+1&#45;&gt;COMMENT_8949700+1</title>
<path fill="none" stroke="black" d="M393,-216.7C393,-208.98 393,-199.71 393,-191.11"/>
<polygon fill="black" stroke="black" points="396.5,-191.1 393,-181.1 389.5,-191.1 396.5,-191.1"/>
</g>
<!-- COMMENT_89a8980+1 -->
<g id="node7" class="node">
<title>COMMENT_89a8980+1</title>
<polygon fill="none" stroke="black" points="519.5,-109 260.5,-109 260.5,-73 525.5,-73 525.5,-103 519.5,-109"/>
<polyline fill="none" stroke="black" points="519.5,-109 519.5,-103 "/>
<polyline fill="none" stroke="black" points="525.5,-103 519.5,-103 "/>
<text text-anchor="middle" x="393" y="-87.3" font-family="Times,serif" font-size="14.00">Compute z&#45;direction flux term FVZ</text>
</g>
<!-- COMMENT_8949700+1&#45;&gt;COMMENT_89a8980+1 -->
<g id="edge6" class="edge">
<title>COMMENT_8949700+1&#45;&gt;COMMENT_89a8980+1</title>
<path fill="none" stroke="black" d="M393,-144.7C393,-136.98 393,-127.71 393,-119.11"/>
<polygon fill="black" stroke="black" points="396.5,-119.1 393,-109.1 389.5,-119.1 396.5,-119.1"/>
</g>
<!-- end_SUBPROGRAM_89c9900 -->
<g id="node8" class="node">
<title>end_SUBPROGRAM_89c9900</title>
<ellipse fill="black" stroke="black" cx="393" cy="-30" rx="7" ry="7"/>
</g>
<!-- COMMENT_89a8980+1&#45;&gt;end_SUBPROGRAM_89c9900 -->
<g id="edge7" class="edge">
<title>COMMENT_89a8980+1&#45;&gt;end_SUBPROGRAM_89c9900</title>
<path fill="none" stroke="black" d="M393,-72.93C393,-64.89 393,-55.33 393,-47.37"/>
<polygon fill="black" stroke="black" points="396.5,-47.22 393,-37.22 389.5,-47.22 396.5,-47.22"/>
</g>
</g>
</svg>
