<?xml version="1.0" encoding="UTF-8" standalone="no"?>
<!DOCTYPE svg PUBLIC "-//W3C//DTD SVG 1.1//EN"
 "http://www.w3.org/Graphics/SVG/1.1/DTD/svg11.dtd">
<!-- Generated by graphviz version 2.43.0 (0)
 -->
<!-- Title: VELOCITY_FLUX Pages: 1 -->
<svg width="815pt" height="1910pt"
 viewBox="0.00 0.00 815.00 1909.72" xmlns="http://www.w3.org/2000/svg" xmlns:xlink="http://www.w3.org/1999/xlink">
<g id="graph0" class="graph" transform="scale(1 1) rotate(0) translate(4 1905.72)">
<title>VELOCITY_FLUX</title>
<polygon fill="white" stroke="transparent" points="-4,4 -4,-1905.72 811,-1905.72 811,4 -4,4"/>
<text text-anchor="middle" x="403.5" y="-7.8" font-family="Times,serif" font-size="14.00">VELOCITY_FLUX</text>
<g id="clust1" class="cluster">
<title>cluster_omp_OMP_BEGIN_REGION_9f3f120+2</title>
<polygon fill="none" stroke="red" points="31.5,-785 31.5,-1184.72 775.5,-1184.72 775.5,-785 31.5,-785"/>
<text text-anchor="middle" x="179.5" y="-1169.52" font-family="Times,serif" font-size="14.00">omp_OMP_BEGIN_REGION_9f3f120+2</text>
</g>
<!-- start_SUBPROGRAM_7f893e0 -->
<g id="node1" class="node">
<title>start_SUBPROGRAM_7f893e0</title>
<ellipse fill="none" stroke="black" cx="403.5" cy="-1894.72" rx="7" ry="7"/>
</g>
<!-- COMMENT_7dd2580+1 -->
<g id="node2" class="node">
<title>COMMENT_7dd2580+1</title>
<polygon fill="none" stroke="black" points="790.5,-1851.72 10.5,-1851.72 10.5,-1768.72 796.5,-1768.72 796.5,-1845.72 790.5,-1851.72"/>
<polyline fill="none" stroke="black" points="790.5,-1851.72 790.5,-1845.72 "/>
<polyline fill="none" stroke="black" points="796.5,-1845.72 790.5,-1845.72 "/>
<text text-anchor="middle" x="403.5" y="-1836.52" font-family="Times,serif" font-size="14.00">!&gt; brief Compute convective and diffusive terms of the momentum equations</text>
<text text-anchor="middle" x="403.5" y="-1821.52" font-family="Times,serif" font-size="14.00">!&gt; param T Current time (s)</text>
<text text-anchor="middle" x="403.5" y="-1806.52" font-family="Times,serif" font-size="14.00">!&gt; param DT Current time step (s)</text>
<text text-anchor="middle" x="403.5" y="-1791.52" font-family="Times,serif" font-size="14.00">!&gt; param NM Mesh number</text>
<text text-anchor="middle" x="403.5" y="-1776.52" font-family="Times,serif" font-size="14.00">!&gt; param APPLY_TO_ESTIMATED_VARIABLES Flag indicating whether to use estimated values of variables</text>
</g>
<!-- start_SUBPROGRAM_7f893e0&#45;&gt;COMMENT_7dd2580+1 -->
<g id="edge1" class="edge">
<title>start_SUBPROGRAM_7f893e0&#45;&gt;COMMENT_7dd2580+1</title>
<path fill="none" stroke="black" d="M403.5,-1887.52C403.5,-1881.61 403.5,-1872.11 403.5,-1861.79"/>
<polygon fill="black" stroke="black" points="407,-1861.73 403.5,-1851.73 400,-1861.73 407,-1861.73"/>
</g>
<!-- CALL_7de3a40 -->
<g id="node3" class="node">
<title>CALL_7de3a40</title>
<g id="a_node3"><a xlink:href="POINT_TO_MESH.svg" xlink:title="POINT_TO_MESH">
<polygon fill="lightgray" stroke="black" points="475.5,-1732.72 331.5,-1732.72 331.5,-1728.72 327.5,-1728.72 327.5,-1724.72 331.5,-1724.72 331.5,-1704.72 327.5,-1704.72 327.5,-1700.72 331.5,-1700.72 331.5,-1696.72 475.5,-1696.72 475.5,-1732.72"/>
<polyline fill="none" stroke="black" points="331.5,-1728.72 335.5,-1728.72 335.5,-1724.72 331.5,-1724.72 "/>
<polyline fill="none" stroke="black" points="331.5,-1704.72 335.5,-1704.72 335.5,-1700.72 331.5,-1700.72 "/>
<text text-anchor="middle" x="403.5" y="-1711.02" font-family="Times,serif" font-size="14.00">POINT_TO_MESH</text>
</a>
</g>
</g>
<!-- COMMENT_7dd2580+1&#45;&gt;CALL_7de3a40 -->
<g id="edge2" class="edge">
<title>COMMENT_7dd2580+1&#45;&gt;CALL_7de3a40</title>
<path fill="none" stroke="black" d="M403.5,-1768.48C403.5,-1759.96 403.5,-1751.16 403.5,-1743.25"/>
<polygon fill="black" stroke="black" points="407,-1743.13 403.5,-1733.13 400,-1743.13 407,-1743.13"/>
</g>
<!-- COMMENT_7de3ee0+1 -->
<g id="node4" class="node">
<title>COMMENT_7de3ee0+1</title>
<polygon fill="none" stroke="black" points="629,-1660.72 172,-1660.72 172,-1624.72 635,-1624.72 635,-1654.72 629,-1660.72"/>
<polyline fill="none" stroke="black" points="629,-1660.72 629,-1654.72 "/>
<polyline fill="none" stroke="black" points="635,-1654.72 629,-1654.72 "/>
<text text-anchor="middle" x="403.5" y="-1639.02" font-family="Times,serif" font-size="14.00">Define velocities on gas cut&#45;faces underlaying Cartesian faces.</text>
</g>
<!-- CALL_7de3a40&#45;&gt;COMMENT_7de3ee0+1 -->
<g id="edge3" class="edge">
<title>CALL_7de3a40&#45;&gt;COMMENT_7de3ee0+1</title>
<path fill="none" stroke="black" d="M403.5,-1696.42C403.5,-1688.7 403.5,-1679.43 403.5,-1670.83"/>
<polygon fill="black" stroke="black" points="407,-1670.82 403.5,-1660.82 400,-1670.82 407,-1670.82"/>
</g>
<!-- CALL_7dee920 -->
<g id="node5" class="node">
<title>CALL_7dee920</title>
<g id="a_node5"><a xlink:href="CC_VELOCITY_BC.svg" xlink:title="CC_VELOCITY_BC">
<polygon fill="lightgray" stroke="black" points="476.5,-1588.72 330.5,-1588.72 330.5,-1584.72 326.5,-1584.72 326.5,-1580.72 330.5,-1580.72 330.5,-1560.72 326.5,-1560.72 326.5,-1556.72 330.5,-1556.72 330.5,-1552.72 476.5,-1552.72 476.5,-1588.72"/>
<polyline fill="none" stroke="black" points="330.5,-1584.72 334.5,-1584.72 334.5,-1580.72 330.5,-1580.72 "/>
<polyline fill="none" stroke="black" points="330.5,-1560.72 334.5,-1560.72 334.5,-1556.72 330.5,-1556.72 "/>
<text text-anchor="middle" x="403.5" y="-1567.02" font-family="Times,serif" font-size="14.00">CC_VELOCITY_BC</text>
</a>
</g>
</g>
<!-- COMMENT_7de3ee0+1&#45;&gt;CALL_7dee920 -->
<g id="edge4" class="edge">
<title>COMMENT_7de3ee0+1&#45;&gt;CALL_7dee920</title>
<path fill="none" stroke="black" d="M403.5,-1624.42C403.5,-1616.7 403.5,-1607.43 403.5,-1598.83"/>
<polygon fill="black" stroke="black" points="407,-1598.82 403.5,-1588.82 400,-1598.82 407,-1598.82"/>
</g>
<!-- CALL_7df0380 -->
<g id="node6" class="node">
<title>CALL_7df0380</title>
<g id="a_node6"><a xlink:href="CUTFACE_VELOCITIES.svg" xlink:title="CUTFACE_VELOCITIES">
<polygon fill="lightgray" stroke="black" points="496,-1516.72 311,-1516.72 311,-1512.72 307,-1512.72 307,-1508.72 311,-1508.72 311,-1488.72 307,-1488.72 307,-1484.72 311,-1484.72 311,-1480.72 496,-1480.72 496,-1516.72"/>
<polyline fill="none" stroke="black" points="311,-1512.72 315,-1512.72 315,-1508.72 311,-1508.72 "/>
<polyline fill="none" stroke="black" points="311,-1488.72 315,-1488.72 315,-1484.72 311,-1484.72 "/>
<text text-anchor="middle" x="403.5" y="-1495.02" font-family="Times,serif" font-size="14.00">CUTFACE_VELOCITIES</text>
</a>
</g>
</g>
<!-- CALL_7dee920&#45;&gt;CALL_7df0380 -->
<g id="edge5" class="edge">
<title>CALL_7dee920&#45;&gt;CALL_7df0380</title>
<path fill="none" stroke="black" d="M403.5,-1552.42C403.5,-1544.7 403.5,-1535.43 403.5,-1526.83"/>
<polygon fill="black" stroke="black" points="407,-1526.82 403.5,-1516.82 400,-1526.82 407,-1526.82"/>
</g>
<!-- COMMENT_7df2660+1 -->
<g id="node7" class="node">
<title>COMMENT_7df2660+1</title>
<polygon fill="none" stroke="black" points="580,-1444.72 221,-1444.72 221,-1408.72 586,-1408.72 586,-1438.72 580,-1444.72"/>
<polyline fill="none" stroke="black" points="580,-1444.72 580,-1438.72 "/>
<polyline fill="none" stroke="black" points="586,-1438.72 580,-1438.72 "/>
<text text-anchor="middle" x="403.5" y="-1423.02" font-family="Times,serif" font-size="14.00">Compute vorticity and stress tensor components</text>
</g>
<!-- CALL_7df0380&#45;&gt;COMMENT_7df2660+1 -->
<g id="edge6" class="edge">
<title>CALL_7df0380&#45;&gt;COMMENT_7df2660+1</title>
<path fill="none" stroke="black" d="M403.5,-1480.42C403.5,-1472.7 403.5,-1463.43 403.5,-1454.83"/>
<polygon fill="black" stroke="black" points="407,-1454.82 403.5,-1444.82 400,-1454.82 407,-1454.82"/>
</g>
<!-- OMP_DO_7df2660+2 -->
<g id="node8" class="node">
<title>OMP_DO_7df2660+2</title>
<polygon fill="red" stroke="black" points="807,-1372.72 0,-1372.72 0,-1336.72 807,-1336.72 807,-1372.72"/>
<text text-anchor="middle" x="403.5" y="-1351.02" font-family="Times,serif" font-size="14.00">!$OMP PARALLEL DO PRIVATE(DUDY,DVDX,DUDZ,DWDX,DVDZ,DWDY,MUX,MUY,MUZ) SCHEDULE(STATIC)</text>
</g>
<!-- COMMENT_7df2660+1&#45;&gt;OMP_DO_7df2660+2 -->
<g id="edge7" class="edge">
<title>COMMENT_7df2660+1&#45;&gt;OMP_DO_7df2660+2</title>
<path fill="none" stroke="black" d="M403.5,-1408.42C403.5,-1400.7 403.5,-1391.43 403.5,-1382.83"/>
<polygon fill="black" stroke="black" points="407,-1382.82 403.5,-1372.82 400,-1382.82 407,-1382.82"/>
</g>
<!-- COMMENT_9f125c0+2 -->
<g id="node9" class="node">
<title>COMMENT_9f125c0+2</title>
<polygon fill="none" stroke="black" points="511,-1300.72 290,-1300.72 290,-1264.72 517,-1264.72 517,-1294.72 511,-1300.72"/>
<polyline fill="none" stroke="black" points="511,-1300.72 511,-1294.72 "/>
<polyline fill="none" stroke="black" points="517,-1294.72 511,-1294.72 "/>
<text text-anchor="middle" x="403.5" y="-1279.02" font-family="Times,serif" font-size="14.00">Compute gravity components</text>
</g>
<!-- OMP_DO_7df2660+2&#45;&gt;COMMENT_9f125c0+2 -->
<g id="edge8" class="edge">
<title>OMP_DO_7df2660+2&#45;&gt;COMMENT_9f125c0+2</title>
<path fill="none" stroke="black" d="M403.5,-1336.42C403.5,-1328.7 403.5,-1319.43 403.5,-1310.83"/>
<polygon fill="black" stroke="black" points="407,-1310.82 403.5,-1300.82 400,-1310.82 407,-1310.82"/>
</g>
<!-- COMMENT_9f3f120+1 -->
<g id="node10" class="node">
<title>COMMENT_9f3f120+1</title>
<polygon fill="none" stroke="black" points="530,-1228.72 271,-1228.72 271,-1192.72 536,-1192.72 536,-1222.72 530,-1228.72"/>
<polyline fill="none" stroke="black" points="530,-1228.72 530,-1222.72 "/>
<polyline fill="none" stroke="black" points="536,-1222.72 530,-1222.72 "/>
<text text-anchor="middle" x="403.5" y="-1207.02" font-family="Times,serif" font-size="14.00">Compute x&#45;direction flux term FVX</text>
</g>
<!-- COMMENT_9f125c0+2&#45;&gt;COMMENT_9f3f120+1 -->
<g id="edge9" class="edge">
<title>COMMENT_9f125c0+2&#45;&gt;COMMENT_9f3f120+1</title>
<path fill="none" stroke="black" d="M403.5,-1264.42C403.5,-1256.7 403.5,-1247.43 403.5,-1238.83"/>
<polygon fill="black" stroke="black" points="407,-1238.82 403.5,-1228.82 400,-1238.82 407,-1238.82"/>
</g>
<!-- start_omp_OMP_BEGIN_REGION_9f3f120+2 -->
<g id="node11" class="node">
<title>start_omp_OMP_BEGIN_REGION_9f3f120+2</title>
<ellipse fill="black" stroke="black" cx="403.5" cy="-1153.36" rx="0.36" ry="0.36"/>
</g>
<!-- COMMENT_9f3f120+1&#45;&gt;start_omp_OMP_BEGIN_REGION_9f3f120+2 -->
<g id="edge10" class="edge">
<title>COMMENT_9f3f120+1&#45;&gt;start_omp_OMP_BEGIN_REGION_9f3f120+2</title>
<path fill="none" stroke="black" d="M403.5,-1192.51C403.5,-1176.76 403.5,-1155.72 403.5,-1154.42"/>
</g>
<!-- OMP_DO_9f3f120+3 -->
<g id="node12" class="node">
<title>OMP_DO_9f3f120+3</title>
<polygon fill="red" stroke="black" points="767.5,-1117 39.5,-1117 39.5,-1081 767.5,-1081 767.5,-1117"/>
<text text-anchor="middle" x="403.5" y="-1095.3" font-family="Times,serif" font-size="14.00">!$OMP DO SCHEDULE(STATIC) PRIVATE(WOMY, VOMZ, TXXP, TXXM, DTXXDX, DTXYDY, DTXZDZ)</text>
</g>
<!-- start_omp_OMP_BEGIN_REGION_9f3f120+2&#45;&gt;OMP_DO_9f3f120+3 -->
<g id="edge11" class="edge">
<title>start_omp_OMP_BEGIN_REGION_9f3f120+2&#45;&gt;OMP_DO_9f3f120+3</title>
<path fill="none" stroke="black" d="M403.5,-1152.85C403.5,-1151.37 403.5,-1139.32 403.5,-1127.1"/>
<polygon fill="black" stroke="black" points="407,-1127.02 403.5,-1117.02 400,-1127.02 407,-1127.02"/>
</g>
<!-- COMMENT_a1172c0+2 -->
<g id="node13" class="node">
<title>COMMENT_a1172c0+2</title>
<polygon fill="none" stroke="black" points="530,-1045 271,-1045 271,-1009 536,-1009 536,-1039 530,-1045"/>
<polyline fill="none" stroke="black" points="530,-1045 530,-1039 "/>
<polyline fill="none" stroke="black" points="536,-1039 530,-1039 "/>
<text text-anchor="middle" x="403.5" y="-1023.3" font-family="Times,serif" font-size="14.00">Compute y&#45;direction flux term FVY</text>
</g>
<!-- OMP_DO_9f3f120+3&#45;&gt;COMMENT_a1172c0+2 -->
<g id="edge12" class="edge">
<title>OMP_DO_9f3f120+3&#45;&gt;COMMENT_a1172c0+2</title>
<path fill="none" stroke="black" d="M403.5,-1080.7C403.5,-1072.98 403.5,-1063.71 403.5,-1055.11"/>
<polygon fill="black" stroke="black" points="407,-1055.1 403.5,-1045.1 400,-1055.1 407,-1055.1"/>
</g>
<!-- OMP_DO_a1172c0+3 -->
<g id="node14" class="node">
<title>OMP_DO_a1172c0+3</title>
<polygon fill="red" stroke="black" points="767,-973 40,-973 40,-937 767,-937 767,-973"/>
<text text-anchor="middle" x="403.5" y="-951.3" font-family="Times,serif" font-size="14.00">!$OMP DO SCHEDULE(STATIC) PRIVATE(WOMX, UOMZ, TYYP, TYYM, DTXYDX, DTYYDY, DTYZDZ)</text>
</g>
<!-- COMMENT_a1172c0+2&#45;&gt;OMP_DO_a1172c0+3 -->
<g id="edge13" class="edge">
<title>COMMENT_a1172c0+2&#45;&gt;OMP_DO_a1172c0+3</title>
<path fill="none" stroke="black" d="M403.5,-1008.7C403.5,-1000.98 403.5,-991.71 403.5,-983.11"/>
<polygon fill="black" stroke="black" points="407,-983.1 403.5,-973.1 400,-983.1 407,-983.1"/>
</g>
<!-- COMMENT_a170140+2 -->
<g id="node15" class="node">
<title>COMMENT_a170140+2</title>
<polygon fill="none" stroke="black" points="530,-901 271,-901 271,-865 536,-865 536,-895 530,-901"/>
<polyline fill="none" stroke="black" points="530,-901 530,-895 "/>
<polyline fill="none" stroke="black" points="536,-895 530,-895 "/>
<text text-anchor="middle" x="403.5" y="-879.3" font-family="Times,serif" font-size="14.00">Compute z&#45;direction flux term FVZ</text>
</g>
<!-- OMP_DO_a1172c0+3&#45;&gt;COMMENT_a170140+2 -->
<g id="edge14" class="edge">
<title>OMP_DO_a1172c0+3&#45;&gt;COMMENT_a170140+2</title>
<path fill="none" stroke="black" d="M403.5,-936.7C403.5,-928.98 403.5,-919.71 403.5,-911.11"/>
<polygon fill="black" stroke="black" points="407,-911.1 403.5,-901.1 400,-911.1 407,-911.1"/>
</g>
<!-- OMP_DO_a170140+3 -->
<g id="node16" class="node">
<title>OMP_DO_a170140+3</title>
<polygon fill="red" stroke="black" points="766,-829 41,-829 41,-793 766,-793 766,-829"/>
<text text-anchor="middle" x="403.5" y="-807.3" font-family="Times,serif" font-size="14.00">!$OMP DO SCHEDULE(STATIC) PRIVATE(UOMY, VOMX, TZZP, TZZM, DTXZDX, DTYZDY, DTZZDZ)</text>
</g>
<!-- COMMENT_a170140+2&#45;&gt;OMP_DO_a170140+3 -->
<g id="edge15" class="edge">
<title>COMMENT_a170140+2&#45;&gt;OMP_DO_a170140+3</title>
<path fill="none" stroke="black" d="M403.5,-864.7C403.5,-856.98 403.5,-847.71 403.5,-839.11"/>
<polygon fill="black" stroke="black" points="407,-839.1 403.5,-829.1 400,-839.1 407,-839.1"/>
</g>
<!-- COMMENT_a54a860+3 -->
<g id="node17" class="node">
<title>COMMENT_a54a860+3</title>
<polygon fill="none" stroke="black" points="485.5,-757 315.5,-757 315.5,-721 491.5,-721 491.5,-751 485.5,-757"/>
<polyline fill="none" stroke="black" points="485.5,-757 485.5,-751 "/>
<polyline fill="none" stroke="black" points="491.5,-751 485.5,-751 "/>
<text text-anchor="middle" x="403.5" y="-735.3" font-family="Times,serif" font-size="14.00">Additional force terms</text>
</g>
<!-- OMP_DO_a170140+3&#45;&gt;COMMENT_a54a860+3 -->
<g id="edge16" class="edge">
<title>OMP_DO_a170140+3&#45;&gt;COMMENT_a54a860+3</title>
<path fill="none" stroke="black" d="M403.5,-792.7C403.5,-784.98 403.5,-775.71 403.5,-767.11"/>
<polygon fill="black" stroke="black" points="407,-767.1 403.5,-757.1 400,-767.1 407,-767.1"/>
</g>
<!-- CALL_a54a8e0 -->
<g id="node18" class="node">
<title>CALL_a54a8e0</title>
<g id="a_node18"><a xlink:href="COMPUTE_WIND_COMPONENTS.svg" xlink:title="COMPUTE_WIND_COMPONENTS">
<polygon fill="lightgray" stroke="black" points="533.5,-685 273.5,-685 273.5,-681 269.5,-681 269.5,-677 273.5,-677 273.5,-657 269.5,-657 269.5,-653 273.5,-653 273.5,-649 533.5,-649 533.5,-685"/>
<polyline fill="none" stroke="black" points="273.5,-681 277.5,-681 277.5,-677 273.5,-677 "/>
<polyline fill="none" stroke="black" points="273.5,-657 277.5,-657 277.5,-653 273.5,-653 "/>
<text text-anchor="middle" x="403.5" y="-663.3" font-family="Times,serif" font-size="14.00">COMPUTE_WIND_COMPONENTS</text>
</a>
</g>
</g>
<!-- COMMENT_a54a860+3&#45;&gt;CALL_a54a8e0 -->
<g id="edge17" class="edge">
<title>COMMENT_a54a860+3&#45;&gt;CALL_a54a8e0</title>
<path fill="none" stroke="black" d="M403.5,-720.7C403.5,-712.98 403.5,-703.71 403.5,-695.11"/>
<polygon fill="black" stroke="black" points="407,-695.1 403.5,-685.1 400,-695.1 407,-695.1"/>
</g>
<!-- CALL_a521b80 -->
<g id="node19" class="node">
<title>CALL_a521b80</title>
<g id="a_node19"><a xlink:href="DIRECT_FORCE.svg" xlink:title="DIRECT_FORCE">
<polygon fill="lightgray" stroke="black" points="470,-613 337,-613 337,-609 333,-609 333,-605 337,-605 337,-585 333,-585 333,-581 337,-581 337,-577 470,-577 470,-613"/>
<polyline fill="none" stroke="black" points="337,-609 341,-609 341,-605 337,-605 "/>
<polyline fill="none" stroke="black" points="337,-585 341,-585 341,-581 337,-581 "/>
<text text-anchor="middle" x="403.5" y="-591.3" font-family="Times,serif" font-size="14.00">DIRECT_FORCE</text>
</a>
</g>
</g>
<!-- CALL_a54a8e0&#45;&gt;CALL_a521b80 -->
<g id="edge18" class="edge">
<title>CALL_a54a8e0&#45;&gt;CALL_a521b80</title>
<path fill="none" stroke="black" d="M403.5,-648.7C403.5,-640.98 403.5,-631.71 403.5,-623.11"/>
<polygon fill="black" stroke="black" points="407,-623.1 403.5,-613.1 400,-623.1 407,-623.1"/>
</g>
<!-- CALL_a54a960 -->
<g id="node20" class="node">
<title>CALL_a54a960</title>
<g id="a_node20"><a xlink:href="CORIOLIS_FORCE.svg" xlink:title="CORIOLIS_FORCE">
<polygon fill="lightgray" stroke="black" points="478,-541 329,-541 329,-537 325,-537 325,-533 329,-533 329,-513 325,-513 325,-509 329,-509 329,-505 478,-505 478,-541"/>
<polyline fill="none" stroke="black" points="329,-537 333,-537 333,-533 329,-533 "/>
<polyline fill="none" stroke="black" points="329,-513 333,-513 333,-509 329,-509 "/>
<text text-anchor="middle" x="403.5" y="-519.3" font-family="Times,serif" font-size="14.00">CORIOLIS_FORCE</text>
</a>
</g>
</g>
<!-- CALL_a521b80&#45;&gt;CALL_a54a960 -->
<g id="edge19" class="edge">
<title>CALL_a521b80&#45;&gt;CALL_a54a960</title>
<path fill="none" stroke="black" d="M403.5,-576.7C403.5,-568.98 403.5,-559.71 403.5,-551.11"/>
<polygon fill="black" stroke="black" points="407,-551.1 403.5,-541.1 400,-551.1 407,-551.1"/>
</g>
<!-- CALL_a54bc40 -->
<g id="node21" class="node">
<title>CALL_a54bc40</title>
<g id="a_node21"><a xlink:href="PATCH_VELOCITY_FLUX.svg" xlink:title="PATCH_VELOCITY_FLUX">
<polygon fill="lightgray" stroke="black" points="500,-469 307,-469 307,-465 303,-465 303,-461 307,-461 307,-441 303,-441 303,-437 307,-437 307,-433 500,-433 500,-469"/>
<polyline fill="none" stroke="black" points="307,-465 311,-465 311,-461 307,-461 "/>
<polyline fill="none" stroke="black" points="307,-441 311,-441 311,-437 307,-437 "/>
<text text-anchor="middle" x="403.5" y="-447.3" font-family="Times,serif" font-size="14.00">PATCH_VELOCITY_FLUX</text>
</a>
</g>
</g>
<!-- CALL_a54a960&#45;&gt;CALL_a54bc40 -->
<g id="edge20" class="edge">
<title>CALL_a54a960&#45;&gt;CALL_a54bc40</title>
<path fill="none" stroke="black" d="M403.5,-504.7C403.5,-496.98 403.5,-487.71 403.5,-479.11"/>
<polygon fill="black" stroke="black" points="407,-479.1 403.5,-469.1 400,-479.1 407,-479.1"/>
</g>
<!-- CALL_a52c700 -->
<g id="node22" class="node">
<title>CALL_a52c700</title>
<g id="a_node22"><a xlink:href="MMS_VELOCITY_FLUX.svg" xlink:title="MMS_VELOCITY_FLUX">
<polygon fill="lightgray" stroke="black" points="494.5,-397 312.5,-397 312.5,-393 308.5,-393 308.5,-389 312.5,-389 312.5,-369 308.5,-369 308.5,-365 312.5,-365 312.5,-361 494.5,-361 494.5,-397"/>
<polyline fill="none" stroke="black" points="312.5,-393 316.5,-393 316.5,-389 312.5,-389 "/>
<polyline fill="none" stroke="black" points="312.5,-369 316.5,-369 316.5,-365 312.5,-365 "/>
<text text-anchor="middle" x="403.5" y="-375.3" font-family="Times,serif" font-size="14.00">MMS_VELOCITY_FLUX</text>
</a>
</g>
</g>
<!-- CALL_a54bc40&#45;&gt;CALL_a52c700 -->
<g id="edge21" class="edge">
<title>CALL_a54bc40&#45;&gt;CALL_a52c700</title>
<path fill="none" stroke="black" d="M403.5,-432.7C403.5,-424.98 403.5,-415.71 403.5,-407.11"/>
<polygon fill="black" stroke="black" points="407,-407.1 403.5,-397.1 400,-407.1 407,-407.1"/>
</g>
<!-- CALL_a5504e0 -->
<g id="node23" class="node">
<title>CALL_a5504e0</title>
<g id="a_node23"><a xlink:href="ROTATED_CUBE_VELOCITY_FLUX.svg" xlink:title="ROTATED_CUBE_VELOCITY_FLUX">
<polygon fill="lightgray" stroke="black" points="535.5,-325 271.5,-325 271.5,-321 267.5,-321 267.5,-317 271.5,-317 271.5,-297 267.5,-297 267.5,-293 271.5,-293 271.5,-289 535.5,-289 535.5,-325"/>
<polyline fill="none" stroke="black" points="271.5,-321 275.5,-321 275.5,-317 271.5,-317 "/>
<polyline fill="none" stroke="black" points="271.5,-297 275.5,-297 275.5,-293 271.5,-293 "/>
<text text-anchor="middle" x="403.5" y="-303.3" font-family="Times,serif" font-size="14.00">ROTATED_CUBE_VELOCITY_FLUX</text>
</a>
</g>
</g>
<!-- CALL_a52c700&#45;&gt;CALL_a5504e0 -->
<g id="edge22" class="edge">
<title>CALL_a52c700&#45;&gt;CALL_a5504e0</title>
<path fill="none" stroke="black" d="M403.5,-360.7C403.5,-352.98 403.5,-343.71 403.5,-335.11"/>
<polygon fill="black" stroke="black" points="407,-335.1 403.5,-325.1 400,-335.1 407,-335.1"/>
</g>
<!-- COMMENT_a14b860+1 -->
<g id="node24" class="node">
<title>COMMENT_a14b860+1</title>
<polygon fill="none" stroke="black" points="695.5,-253 105.5,-253 105.5,-217 701.5,-217 701.5,-247 695.5,-253"/>
<polyline fill="none" stroke="black" points="695.5,-253 695.5,-247 "/>
<polyline fill="none" stroke="black" points="701.5,-247 695.5,-247 "/>
<text text-anchor="middle" x="403.5" y="-231.3" font-family="Times,serif" font-size="14.00">Restore previous substep velocities to gas cut&#45;faces underlaying Cartesian faces.</text>
</g>
<!-- CALL_a5504e0&#45;&gt;COMMENT_a14b860+1 -->
<g id="edge23" class="edge">
<title>CALL_a5504e0&#45;&gt;COMMENT_a14b860+1</title>
<path fill="none" stroke="black" d="M403.5,-288.7C403.5,-280.98 403.5,-271.71 403.5,-263.11"/>
<polygon fill="black" stroke="black" points="407,-263.1 403.5,-253.1 400,-263.1 407,-263.1"/>
</g>
<!-- CALL_a553c40 -->
<g id="node25" class="node">
<title>CALL_a553c40</title>
<g id="a_node25"><a xlink:href="CUTFACE_VELOCITIES.svg" xlink:title="CUTFACE_VELOCITIES">
<polygon fill="lightgray" stroke="black" points="496,-181 311,-181 311,-177 307,-177 307,-173 311,-173 311,-153 307,-153 307,-149 311,-149 311,-145 496,-145 496,-181"/>
<polyline fill="none" stroke="black" points="311,-177 315,-177 315,-173 311,-173 "/>
<polyline fill="none" stroke="black" points="311,-153 315,-153 315,-149 311,-149 "/>
<text text-anchor="middle" x="403.5" y="-159.3" font-family="Times,serif" font-size="14.00">CUTFACE_VELOCITIES</text>
</a>
</g>
</g>
<!-- COMMENT_a14b860+1&#45;&gt;CALL_a553c40 -->
<g id="edge24" class="edge">
<title>COMMENT_a14b860+1&#45;&gt;CALL_a553c40</title>
<path fill="none" stroke="black" d="M403.5,-216.7C403.5,-208.98 403.5,-199.71 403.5,-191.11"/>
<polygon fill="black" stroke="black" points="407,-191.1 403.5,-181.1 400,-191.1 407,-191.1"/>
</g>
<!-- CALL_a5575c0 -->
<g id="node26" class="node">
<title>CALL_a5575c0</title>
<g id="a_node26"><a xlink:href="CC_VELOCITY_FLUX.svg" xlink:title="CC_VELOCITY_FLUX">
<polygon fill="lightgray" stroke="black" points="486,-109 321,-109 321,-105 317,-105 317,-101 321,-101 321,-81 317,-81 317,-77 321,-77 321,-73 486,-73 486,-109"/>
<polyline fill="none" stroke="black" points="321,-105 325,-105 325,-101 321,-101 "/>
<polyline fill="none" stroke="black" points="321,-81 325,-81 325,-77 321,-77 "/>
<text text-anchor="middle" x="403.5" y="-87.3" font-family="Times,serif" font-size="14.00">CC_VELOCITY_FLUX</text>
</a>
</g>
</g>
<!-- CALL_a553c40&#45;&gt;CALL_a5575c0 -->
<g id="edge25" class="edge">
<title>CALL_a553c40&#45;&gt;CALL_a5575c0</title>
<path fill="none" stroke="black" d="M403.5,-144.7C403.5,-136.98 403.5,-127.71 403.5,-119.11"/>
<polygon fill="black" stroke="black" points="407,-119.1 403.5,-109.1 400,-119.1 407,-119.1"/>
</g>
<!-- end_SUBPROGRAM_7f893e0 -->
<g id="node27" class="node">
<title>end_SUBPROGRAM_7f893e0</title>
<ellipse fill="black" stroke="black" cx="403.5" cy="-30" rx="7" ry="7"/>
</g>
<!-- CALL_a5575c0&#45;&gt;end_SUBPROGRAM_7f893e0 -->
<g id="edge26" class="edge">
<title>CALL_a5575c0&#45;&gt;end_SUBPROGRAM_7f893e0</title>
<path fill="none" stroke="black" d="M403.5,-72.93C403.5,-64.89 403.5,-55.33 403.5,-47.37"/>
<polygon fill="black" stroke="black" points="407,-47.22 403.5,-37.22 400,-47.22 407,-47.22"/>
</g>
</g>
</svg>
