<?xml version="1.0" encoding="UTF-8" standalone="no"?>
<!DOCTYPE svg PUBLIC "-//W3C//DTD SVG 1.1//EN"
 "http://www.w3.org/Graphics/SVG/1.1/DTD/svg11.dtd">
<!-- Generated by graphviz version 2.43.0 (0)
 -->
<!-- Title: VELOCITY_CORRECTOR Pages: 1 -->
<svg width="677pt" height="1110pt"
 viewBox="0.00 0.00 677.00 1110.30" xmlns="http://www.w3.org/2000/svg" xmlns:xlink="http://www.w3.org/1999/xlink">
<g id="graph0" class="graph" transform="scale(1 1) rotate(0) translate(4 1106.3)">
<title>VELOCITY_CORRECTOR</title>
<polygon fill="white" stroke="transparent" points="-4,4 -4,-1106.3 673,-1106.3 673,4 -4,4"/>
<text text-anchor="middle" x="334.5" y="-7.8" font-family="Times,serif" font-size="14.00">VELOCITY_CORRECTOR</text>
<g id="clust1" class="cluster">
<title>cluster_FREEZE_VELOCITY_IF</title>
<polygon fill="none" stroke="blue" points="23,-137 23,-832.3 661,-832.3 661,-137 23,-137"/>
<text text-anchor="middle" x="113.5" y="-817.1" font-family="Times,serif" font-size="14.00">FREEZE_VELOCITY_IF</text>
</g>
<g id="clust2" class="cluster">
<title>cluster_cond8bbd6c0</title>
<polygon fill="none" stroke="black" points="31,-717.58 31,-792.58 219,-792.58 219,-717.58 31,-717.58"/>
<text text-anchor="middle" x="87" y="-777.38" font-family="Times,serif" font-size="14.00">cond8bbd6c0</text>
</g>
<g id="clust3" class="cluster">
<title>cluster_cond8bf0f60</title>
<polygon fill="none" stroke="black" points="227,-173.72 227,-792.58 653,-792.58 653,-173.72 227,-173.72"/>
<text text-anchor="middle" x="280" y="-777.38" font-family="Times,serif" font-size="14.00">cond8bf0f60</text>
</g>
<g id="clust4" class="cluster">
<title>cluster_omp_OMP_BEGIN_REGION_8bc2920+1</title>
<polygon fill="none" stroke="red" points="276,-389.72 276,-645.58 578,-645.58 578,-389.72 276,-389.72"/>
<text text-anchor="middle" x="427" y="-630.38" font-family="Times,serif" font-size="14.00">omp_OMP_BEGIN_REGION_8bc2920+1</text>
</g>
<!-- start_SUBPROGRAM_8bff820 -->
<g id="node1" class="node">
<title>start_SUBPROGRAM_8bff820</title>
<ellipse fill="none" stroke="black" cx="232" cy="-1095.3" rx="7" ry="7"/>
</g>
<!-- COMMENT_8bb4580+1 -->
<g id="node2" class="node">
<title>COMMENT_8bb4580+1</title>
<polygon fill="none" stroke="black" points="458,-1052.3 0,-1052.3 0,-984.3 464,-984.3 464,-1046.3 458,-1052.3"/>
<polyline fill="none" stroke="black" points="458,-1052.3 458,-1046.3 "/>
<polyline fill="none" stroke="black" points="464,-1046.3 458,-1046.3 "/>
<text text-anchor="middle" x="232" y="-1037.1" font-family="Times,serif" font-size="14.00">!&gt; brief Correct the velocity components at the next time step</text>
<text text-anchor="middle" x="232" y="-1022.1" font-family="Times,serif" font-size="14.00">!&gt; param T Current time (s)</text>
<text text-anchor="middle" x="232" y="-1007.1" font-family="Times,serif" font-size="14.00">!&gt; param DT Time step (s)</text>
<text text-anchor="middle" x="232" y="-992.1" font-family="Times,serif" font-size="14.00">!&gt; param NM Mesh number</text>
</g>
<!-- start_SUBPROGRAM_8bff820&#45;&gt;COMMENT_8bb4580+1 -->
<g id="edge1" class="edge">
<title>start_SUBPROGRAM_8bff820&#45;&gt;COMMENT_8bb4580+1</title>
<path fill="none" stroke="black" d="M232,-1088.16C232,-1082.23 232,-1072.68 232,-1062.56"/>
<polygon fill="black" stroke="black" points="235.5,-1062.35 232,-1052.35 228.5,-1062.35 235.5,-1062.35"/>
</g>
<!-- CALL_8bbae80 -->
<g id="node3" class="node">
<title>CALL_8bbae80</title>
<g id="a_node3"><a xlink:href="COMPRESSION_WAVE.svg" xlink:title="COMPRESSION_WAVE">
<polygon fill="lightgray" stroke="black" points="322.5,-948.3 141.5,-948.3 141.5,-944.3 137.5,-944.3 137.5,-940.3 141.5,-940.3 141.5,-920.3 137.5,-920.3 137.5,-916.3 141.5,-916.3 141.5,-912.3 322.5,-912.3 322.5,-948.3"/>
<polyline fill="none" stroke="black" points="141.5,-944.3 145.5,-944.3 145.5,-940.3 141.5,-940.3 "/>
<polyline fill="none" stroke="black" points="141.5,-920.3 145.5,-920.3 145.5,-916.3 141.5,-916.3 "/>
<text text-anchor="middle" x="232" y="-926.6" font-family="Times,serif" font-size="14.00">COMPRESSION_WAVE</text>
</a>
</g>
</g>
<!-- COMMENT_8bb4580+1&#45;&gt;CALL_8bbae80 -->
<g id="edge2" class="edge">
<title>COMMENT_8bb4580+1&#45;&gt;CALL_8bbae80</title>
<path fill="none" stroke="black" d="M232,-984.3C232,-975.86 232,-966.89 232,-958.77"/>
<polygon fill="black" stroke="black" points="235.5,-958.7 232,-948.7 228.5,-958.7 235.5,-958.7"/>
</g>
<!-- CALL_8bbbd00 -->
<g id="node4" class="node">
<title>CALL_8bbbd00</title>
<g id="a_node4"><a xlink:href="POINT_TO_MESH.svg" xlink:title="POINT_TO_MESH">
<polygon fill="lightgray" stroke="black" points="304,-876.3 160,-876.3 160,-872.3 156,-872.3 156,-868.3 160,-868.3 160,-848.3 156,-848.3 156,-844.3 160,-844.3 160,-840.3 304,-840.3 304,-876.3"/>
<polyline fill="none" stroke="black" points="160,-872.3 164,-872.3 164,-868.3 160,-868.3 "/>
<polyline fill="none" stroke="black" points="160,-848.3 164,-848.3 164,-844.3 160,-844.3 "/>
<text text-anchor="middle" x="232" y="-854.6" font-family="Times,serif" font-size="14.00">POINT_TO_MESH</text>
</a>
</g>
</g>
<!-- CALL_8bbae80&#45;&gt;CALL_8bbbd00 -->
<g id="edge3" class="edge">
<title>CALL_8bbae80&#45;&gt;CALL_8bbbd00</title>
<path fill="none" stroke="black" d="M232,-912C232,-904.28 232,-895.01 232,-886.41"/>
<polygon fill="black" stroke="black" points="235.5,-886.4 232,-876.4 228.5,-886.4 235.5,-886.4"/>
</g>
<!-- beginIf_IF_8bf1040 -->
<g id="node5" class="node">
<title>beginIf_IF_8bf1040</title>
<ellipse fill="black" stroke="black" cx="232" cy="-800.94" rx="0.36" ry="0.36"/>
</g>
<!-- CALL_8bbbd00&#45;&gt;beginIf_IF_8bf1040 -->
<g id="edge16" class="edge">
<title>CALL_8bbbd00&#45;&gt;beginIf_IF_8bf1040</title>
<path fill="none" stroke="black" d="M232,-840.09C232,-824.34 232,-803.3 232,-802"/>
</g>
<!-- Empty_8bbd6c0 -->
<g id="node7" class="node">
<title>Empty_8bbd6c0</title>
<ellipse fill="none" stroke="black" cx="125" cy="-743.58" rx="85.59" ry="18"/>
<text text-anchor="middle" x="125" y="-739.88" font-family="Times,serif" font-size="14.00">Empty_8bbd6c0</text>
</g>
<!-- beginIf_IF_8bf1040&#45;&gt;Empty_8bbd6c0 -->
<g id="edge4" class="edge">
<title>beginIf_IF_8bf1040&#45;&gt;Empty_8bbd6c0</title>
<path fill="none" stroke="black" d="M231.92,-800.54C230.04,-799.55 194.09,-780.74 164.39,-765.19"/>
<polygon fill="black" stroke="black" points="165.9,-762.03 155.42,-760.5 162.65,-768.24 165.9,-762.03"/>
</g>
<!-- CALL_8bbf660 -->
<g id="node8" class="node">
<title>CALL_8bbf660</title>
<g id="a_node8"><a xlink:href="CC_PROJECT_VELOCITY.svg" xlink:title="CC_PROJECT_VELOCITY">
<polygon fill="lightgray" stroke="black" points="436,-761.58 244,-761.58 244,-757.58 240,-757.58 240,-753.58 244,-753.58 244,-733.58 240,-733.58 240,-729.58 244,-729.58 244,-725.58 436,-725.58 436,-761.58"/>
<polyline fill="none" stroke="black" points="244,-757.58 248,-757.58 248,-753.58 244,-753.58 "/>
<polyline fill="none" stroke="black" points="244,-733.58 248,-733.58 248,-729.58 244,-729.58 "/>
<text text-anchor="middle" x="340" y="-739.88" font-family="Times,serif" font-size="14.00">CC_PROJECT_VELOCITY</text>
</a>
</g>
</g>
<!-- beginIf_IF_8bf1040&#45;&gt;CALL_8bbf660 -->
<g id="edge14" class="edge">
<title>beginIf_IF_8bf1040&#45;&gt;CALL_8bbf660</title>
<path fill="none" stroke="black" d="M232.08,-800.54C233.94,-799.58 268.52,-781.64 298.05,-766.33"/>
<polygon fill="black" stroke="black" points="299.74,-769.4 307.01,-761.69 296.52,-763.18 299.74,-769.4"/>
</g>
<!-- endIf_IF_8bf1040 -->
<g id="node6" class="node">
<title>endIf_IF_8bf1040</title>
<ellipse fill="black" stroke="black" cx="282" cy="-145.36" rx="0.36" ry="0.36"/>
</g>
<!-- COMMENT_8bdc0a0+1 -->
<g id="node17" class="node">
<title>COMMENT_8bdc0a0+1</title>
<polygon fill="none" stroke="black" points="395,-109 163,-109 163,-73 401,-73 401,-103 395,-109"/>
<polyline fill="none" stroke="black" points="395,-109 395,-103 "/>
<polyline fill="none" stroke="black" points="401,-103 395,-103 "/>
<text text-anchor="middle" x="282" y="-87.3" font-family="Times,serif" font-size="14.00">Manufactured solution (debug)</text>
</g>
<!-- endIf_IF_8bf1040&#45;&gt;COMMENT_8bdc0a0+1 -->
<g id="edge17" class="edge">
<title>endIf_IF_8bf1040&#45;&gt;COMMENT_8bdc0a0+1</title>
<path fill="none" stroke="black" d="M282,-144.21C282,-142.77 282,-131.23 282,-119.36"/>
<polygon fill="black" stroke="black" points="285.5,-119.1 282,-109.1 278.5,-119.1 285.5,-119.1"/>
</g>
<!-- Empty_8bbd6c0&#45;&gt;endIf_IF_8bf1040 -->
<g id="edge5" class="edge">
<title>Empty_8bbd6c0&#45;&gt;endIf_IF_8bf1040</title>
<path fill="none" stroke="black" d="M135.21,-725.54C148.49,-701.72 170,-656.73 170,-615.22 170,-615.22 170,-615.22 170,-270.72 170,-221.59 187.29,-207.45 223,-173.72 243.44,-154.41 279.65,-146.24 281.89,-145.74"/>
</g>
<!-- CALL_8bc1d60 -->
<g id="node9" class="node">
<title>CALL_8bc1d60</title>
<g id="a_node9"><a xlink:href="WALL_VELOCITY_NO_GRADH.svg" xlink:title="WALL_VELOCITY_NO_GRADH">
<polygon fill="lightgray" stroke="black" points="510,-689.58 280,-689.58 280,-685.58 276,-685.58 276,-681.58 280,-681.58 280,-661.58 276,-661.58 276,-657.58 280,-657.58 280,-653.58 510,-653.58 510,-689.58"/>
<polyline fill="none" stroke="black" points="280,-685.58 284,-685.58 284,-681.58 280,-681.58 "/>
<polyline fill="none" stroke="black" points="280,-661.58 284,-661.58 284,-657.58 280,-657.58 "/>
<text text-anchor="middle" x="395" y="-667.88" font-family="Times,serif" font-size="14.00">WALL_VELOCITY_NO_GRADH</text>
</a>
</g>
</g>
<!-- CALL_8bbf660&#45;&gt;CALL_8bc1d60 -->
<g id="edge6" class="edge">
<title>CALL_8bbf660&#45;&gt;CALL_8bc1d60</title>
<path fill="none" stroke="black" d="M353.6,-725.28C360.12,-716.97 368.07,-706.86 375.25,-697.72"/>
<polygon fill="black" stroke="black" points="378.13,-699.71 381.56,-689.68 372.63,-695.39 378.13,-699.71"/>
</g>
<!-- start_omp_OMP_BEGIN_REGION_8bc2920+1 -->
<g id="node10" class="node">
<title>start_omp_OMP_BEGIN_REGION_8bc2920+1</title>
<ellipse fill="black" stroke="black" cx="401" cy="-614.22" rx="0.36" ry="0.36"/>
</g>
<!-- CALL_8bc1d60&#45;&gt;start_omp_OMP_BEGIN_REGION_8bc2920+1 -->
<g id="edge7" class="edge">
<title>CALL_8bc1d60&#45;&gt;start_omp_OMP_BEGIN_REGION_8bc2920+1</title>
<path fill="none" stroke="black" d="M396.87,-653.37C398.57,-637.62 400.85,-616.58 400.99,-615.28"/>
</g>
<!-- OMP_DO_8bcf000 -->
<g id="node11" class="node">
<title>OMP_DO_8bcf000</title>
<polygon fill="#ffd0d0" stroke="orange" points="530,-577.72 284,-577.72 284,-541.72 530,-541.72 530,-577.72"/>
<text text-anchor="middle" x="407" y="-556.02" font-family="Times,serif" font-size="14.00">!$OMP DO SCHEDULE(STATIC)</text>
</g>
<!-- start_omp_OMP_BEGIN_REGION_8bc2920+1&#45;&gt;OMP_DO_8bcf000 -->
<g id="edge8" class="edge">
<title>start_omp_OMP_BEGIN_REGION_8bc2920+1&#45;&gt;OMP_DO_8bcf000</title>
<path fill="none" stroke="black" d="M401.02,-613.57C401.18,-612.09 402.55,-600.04 403.93,-587.82"/>
<polygon fill="black" stroke="black" points="407.43,-588.08 405.07,-577.74 400.47,-587.29 407.43,-588.08"/>
</g>
<!-- OMP_DO_8bdb600 -->
<g id="node12" class="node">
<title>OMP_DO_8bdb600</title>
<polygon fill="#ffd0d0" stroke="orange" points="530,-505.72 284,-505.72 284,-469.72 530,-469.72 530,-505.72"/>
<text text-anchor="middle" x="407" y="-484.02" font-family="Times,serif" font-size="14.00">!$OMP DO SCHEDULE(STATIC)</text>
</g>
<!-- OMP_DO_8bcf000&#45;&gt;OMP_DO_8bdb600 -->
<g id="edge9" class="edge">
<title>OMP_DO_8bcf000&#45;&gt;OMP_DO_8bdb600</title>
<path fill="none" stroke="black" d="M407,-541.42C407,-533.7 407,-524.43 407,-515.83"/>
<polygon fill="black" stroke="black" points="410.5,-515.82 407,-505.82 403.5,-515.82 410.5,-515.82"/>
</g>
<!-- OMP_DO_8be7ce0 -->
<g id="node13" class="node">
<title>OMP_DO_8be7ce0</title>
<polygon fill="#ffd0d0" stroke="orange" points="541,-433.72 295,-433.72 295,-397.72 541,-397.72 541,-433.72"/>
<text text-anchor="middle" x="418" y="-412.02" font-family="Times,serif" font-size="14.00">!$OMP DO SCHEDULE(STATIC)</text>
</g>
<!-- OMP_DO_8bdb600&#45;&gt;OMP_DO_8be7ce0 -->
<g id="edge10" class="edge">
<title>OMP_DO_8bdb600&#45;&gt;OMP_DO_8be7ce0</title>
<path fill="none" stroke="black" d="M409.72,-469.42C410.93,-461.7 412.39,-452.43 413.74,-443.83"/>
<polygon fill="black" stroke="black" points="417.22,-444.25 415.31,-433.82 410.3,-443.16 417.22,-444.25"/>
</g>
<!-- OMP_DO_8beb3c0 -->
<g id="node14" class="node">
<title>OMP_DO_8beb3c0</title>
<polygon fill="#ffd0d0" stroke="orange" points="645,-361.72 235,-361.72 235,-325.72 645,-325.72 645,-361.72"/>
<text text-anchor="middle" x="440" y="-340.02" font-family="Times,serif" font-size="14.00">!$OMP PARALLEL DO PRIVATE(I) SCHEDULE(STATIC)</text>
</g>
<!-- OMP_DO_8be7ce0&#45;&gt;OMP_DO_8beb3c0 -->
<g id="edge11" class="edge">
<title>OMP_DO_8be7ce0&#45;&gt;OMP_DO_8beb3c0</title>
<path fill="none" stroke="black" d="M423.44,-397.42C425.89,-389.62 428.84,-380.23 431.57,-371.55"/>
<polygon fill="black" stroke="black" points="434.96,-372.41 434.62,-361.82 428.29,-370.31 434.96,-372.41"/>
</g>
<!-- CALL_8bee6e0 -->
<g id="node15" class="node">
<title>CALL_8bee6e0</title>
<g id="a_node15"><a xlink:href="CC_PROJECT_VELOCITY.svg" xlink:title="CC_PROJECT_VELOCITY">
<polygon fill="lightgray" stroke="black" points="513,-289.72 321,-289.72 321,-285.72 317,-285.72 317,-281.72 321,-281.72 321,-261.72 317,-261.72 317,-257.72 321,-257.72 321,-253.72 513,-253.72 513,-289.72"/>
<polyline fill="none" stroke="black" points="321,-285.72 325,-285.72 325,-281.72 321,-281.72 "/>
<polyline fill="none" stroke="black" points="321,-261.72 325,-261.72 325,-257.72 321,-257.72 "/>
<text text-anchor="middle" x="417" y="-268.02" font-family="Times,serif" font-size="14.00">CC_PROJECT_VELOCITY</text>
</a>
</g>
</g>
<!-- OMP_DO_8beb3c0&#45;&gt;CALL_8bee6e0 -->
<g id="edge12" class="edge">
<title>OMP_DO_8beb3c0&#45;&gt;CALL_8bee6e0</title>
<path fill="none" stroke="black" d="M434.31,-325.42C431.75,-317.62 428.67,-308.23 425.82,-299.55"/>
<polygon fill="black" stroke="black" points="429.07,-298.23 422.62,-289.82 422.42,-300.42 429.07,-298.23"/>
</g>
<!-- CALL_8bf0be0 -->
<g id="node16" class="node">
<title>CALL_8bf0be0</title>
<g id="a_node16"><a xlink:href="WALL_VELOCITY_NO_GRADH.svg" xlink:title="WALL_VELOCITY_NO_GRADH">
<polygon fill="lightgray" stroke="black" points="510,-217.72 280,-217.72 280,-213.72 276,-213.72 276,-209.72 280,-209.72 280,-189.72 276,-189.72 276,-185.72 280,-185.72 280,-181.72 510,-181.72 510,-217.72"/>
<polyline fill="none" stroke="black" points="280,-213.72 284,-213.72 284,-209.72 280,-209.72 "/>
<polyline fill="none" stroke="black" points="280,-189.72 284,-189.72 284,-185.72 280,-185.72 "/>
<text text-anchor="middle" x="395" y="-196.02" font-family="Times,serif" font-size="14.00">WALL_VELOCITY_NO_GRADH</text>
</a>
</g>
</g>
<!-- CALL_8bee6e0&#45;&gt;CALL_8bf0be0 -->
<g id="edge13" class="edge">
<title>CALL_8bee6e0&#45;&gt;CALL_8bf0be0</title>
<path fill="none" stroke="black" d="M411.56,-253.42C409.11,-245.62 406.16,-236.23 403.43,-227.55"/>
<polygon fill="black" stroke="black" points="406.71,-226.31 400.38,-217.82 400.04,-228.41 406.71,-226.31"/>
</g>
<!-- CALL_8bf0be0&#45;&gt;endIf_IF_8bf1040 -->
<g id="edge15" class="edge">
<title>CALL_8bf0be0&#45;&gt;endIf_IF_8bf1040</title>
<path fill="none" stroke="black" d="M358.62,-181.66C326.62,-166.65 284.71,-146.99 282.13,-145.78"/>
</g>
<!-- end_SUBPROGRAM_8bff820 -->
<g id="node18" class="node">
<title>end_SUBPROGRAM_8bff820</title>
<ellipse fill="black" stroke="black" cx="282" cy="-30" rx="7" ry="7"/>
</g>
<!-- COMMENT_8bdc0a0+1&#45;&gt;end_SUBPROGRAM_8bff820 -->
<g id="edge18" class="edge">
<title>COMMENT_8bdc0a0+1&#45;&gt;end_SUBPROGRAM_8bff820</title>
<path fill="none" stroke="black" d="M282,-72.93C282,-64.89 282,-55.33 282,-47.37"/>
<polygon fill="black" stroke="black" points="285.5,-47.22 282,-37.22 278.5,-47.22 285.5,-47.22"/>
</g>
</g>
</svg>
