<?xml version="1.0" encoding="UTF-8" standalone="no"?>
<!DOCTYPE svg PUBLIC "-//W3C//DTD SVG 1.1//EN"
 "http://www.w3.org/Graphics/SVG/1.1/DTD/svg11.dtd">
<!-- Generated by graphviz version 2.43.0 (0)
 -->
<!-- Title: VELOCITY_FLUX Pages: 1 -->
<svg width="815pt" height="2198pt"
 viewBox="0.00 0.00 815.00 2197.72" xmlns="http://www.w3.org/2000/svg" xmlns:xlink="http://www.w3.org/1999/xlink">
<g id="graph0" class="graph" transform="scale(1 1) rotate(0) translate(4 2193.72)">
<title>VELOCITY_FLUX</title>
<polygon fill="white" stroke="transparent" points="-4,4 -4,-2193.72 811,-2193.72 811,4 -4,4"/>
<text text-anchor="middle" x="403.5" y="-7.8" font-family="Times,serif" font-size="14.00">VELOCITY_FLUX</text>
<g id="clust1" class="cluster">
<title>cluster_omp_OMP_BEGIN_REGION_81b6d80+2</title>
<polygon fill="none" stroke="red" points="31.5,-785 31.5,-1400.72 775.5,-1400.72 775.5,-785 31.5,-785"/>
<text text-anchor="middle" x="183.5" y="-1385.52" font-family="Times,serif" font-size="14.00">omp_OMP_BEGIN_REGION_81b6d80+2</text>
</g>
<!-- start_SUBPROGRAM_87373a0 -->
<g id="node1" class="node">
<title>start_SUBPROGRAM_87373a0</title>
<ellipse fill="none" stroke="black" cx="403.5" cy="-2182.72" rx="7" ry="7"/>
</g>
<!-- COMMENT_81495c0+1 -->
<g id="node2" class="node">
<title>COMMENT_81495c0+1</title>
<polygon fill="none" stroke="black" points="790.5,-2139.72 10.5,-2139.72 10.5,-2056.72 796.5,-2056.72 796.5,-2133.72 790.5,-2139.72"/>
<polyline fill="none" stroke="black" points="790.5,-2139.72 790.5,-2133.72 "/>
<polyline fill="none" stroke="black" points="796.5,-2133.72 790.5,-2133.72 "/>
<text text-anchor="middle" x="403.5" y="-2124.52" font-family="Times,serif" font-size="14.00">!&gt; brief Compute convective and diffusive terms of the momentum equations</text>
<text text-anchor="middle" x="403.5" y="-2109.52" font-family="Times,serif" font-size="14.00">!&gt; param T Current time (s)</text>
<text text-anchor="middle" x="403.5" y="-2094.52" font-family="Times,serif" font-size="14.00">!&gt; param DT Current time step (s)</text>
<text text-anchor="middle" x="403.5" y="-2079.52" font-family="Times,serif" font-size="14.00">!&gt; param NM Mesh number</text>
<text text-anchor="middle" x="403.5" y="-2064.52" font-family="Times,serif" font-size="14.00">!&gt; param APPLY_TO_ESTIMATED_VARIABLES Flag indicating whether to use estimated values of variables</text>
</g>
<!-- start_SUBPROGRAM_87373a0&#45;&gt;COMMENT_81495c0+1 -->
<g id="edge1" class="edge">
<title>start_SUBPROGRAM_87373a0&#45;&gt;COMMENT_81495c0+1</title>
<path fill="none" stroke="black" d="M403.5,-2175.52C403.5,-2169.61 403.5,-2160.11 403.5,-2149.79"/>
<polygon fill="black" stroke="black" points="407,-2149.73 403.5,-2139.73 400,-2149.73 407,-2149.73"/>
</g>
<!-- CALL_815aa40 -->
<g id="node3" class="node">
<title>CALL_815aa40</title>
<g id="a_node3"><a xlink:href="POINT_TO_MESH.svg" xlink:title="POINT_TO_MESH">
<polygon fill="lightgray" stroke="black" points="475.5,-2020.72 331.5,-2020.72 331.5,-2016.72 327.5,-2016.72 327.5,-2012.72 331.5,-2012.72 331.5,-1992.72 327.5,-1992.72 327.5,-1988.72 331.5,-1988.72 331.5,-1984.72 475.5,-1984.72 475.5,-2020.72"/>
<polyline fill="none" stroke="black" points="331.5,-2016.72 335.5,-2016.72 335.5,-2012.72 331.5,-2012.72 "/>
<polyline fill="none" stroke="black" points="331.5,-1992.72 335.5,-1992.72 335.5,-1988.72 331.5,-1988.72 "/>
<text text-anchor="middle" x="403.5" y="-1999.02" font-family="Times,serif" font-size="14.00">POINT_TO_MESH</text>
</a>
</g>
</g>
<!-- COMMENT_81495c0+1&#45;&gt;CALL_815aa40 -->
<g id="edge2" class="edge">
<title>COMMENT_81495c0+1&#45;&gt;CALL_815aa40</title>
<path fill="none" stroke="black" d="M403.5,-2056.48C403.5,-2047.96 403.5,-2039.16 403.5,-2031.25"/>
<polygon fill="black" stroke="black" points="407,-2031.13 403.5,-2021.13 400,-2031.13 407,-2031.13"/>
</g>
<!-- COMMENT_8161500+1 -->
<g id="node4" class="node">
<title>COMMENT_8161500+1</title>
<polygon fill="none" stroke="black" points="629,-1948.72 172,-1948.72 172,-1912.72 635,-1912.72 635,-1942.72 629,-1948.72"/>
<polyline fill="none" stroke="black" points="629,-1948.72 629,-1942.72 "/>
<polyline fill="none" stroke="black" points="635,-1942.72 629,-1942.72 "/>
<text text-anchor="middle" x="403.5" y="-1927.02" font-family="Times,serif" font-size="14.00">Define velocities on gas cut&#45;faces underlaying Cartesian faces.</text>
</g>
<!-- CALL_815aa40&#45;&gt;COMMENT_8161500+1 -->
<g id="edge3" class="edge">
<title>CALL_815aa40&#45;&gt;COMMENT_8161500+1</title>
<path fill="none" stroke="black" d="M403.5,-1984.42C403.5,-1976.7 403.5,-1967.43 403.5,-1958.83"/>
<polygon fill="black" stroke="black" points="407,-1958.82 403.5,-1948.82 400,-1958.82 407,-1958.82"/>
</g>
<!-- CALL_8165760 -->
<g id="node5" class="node">
<title>CALL_8165760</title>
<g id="a_node5"><a xlink:href="CC_VELOCITY_BC.svg" xlink:title="CC_VELOCITY_BC">
<polygon fill="lightgray" stroke="black" points="476.5,-1876.72 330.5,-1876.72 330.5,-1872.72 326.5,-1872.72 326.5,-1868.72 330.5,-1868.72 330.5,-1848.72 326.5,-1848.72 326.5,-1844.72 330.5,-1844.72 330.5,-1840.72 476.5,-1840.72 476.5,-1876.72"/>
<polyline fill="none" stroke="black" points="330.5,-1872.72 334.5,-1872.72 334.5,-1868.72 330.5,-1868.72 "/>
<polyline fill="none" stroke="black" points="330.5,-1848.72 334.5,-1848.72 334.5,-1844.72 330.5,-1844.72 "/>
<text text-anchor="middle" x="403.5" y="-1855.02" font-family="Times,serif" font-size="14.00">CC_VELOCITY_BC</text>
</a>
</g>
</g>
<!-- COMMENT_8161500+1&#45;&gt;CALL_8165760 -->
<g id="edge4" class="edge">
<title>COMMENT_8161500+1&#45;&gt;CALL_8165760</title>
<path fill="none" stroke="black" d="M403.5,-1912.42C403.5,-1904.7 403.5,-1895.43 403.5,-1886.83"/>
<polygon fill="black" stroke="black" points="407,-1886.82 403.5,-1876.82 400,-1886.82 407,-1886.82"/>
</g>
<!-- CALL_81672a0 -->
<g id="node6" class="node">
<title>CALL_81672a0</title>
<g id="a_node6"><a xlink:href="CUTFACE_VELOCITIES.svg" xlink:title="CUTFACE_VELOCITIES">
<polygon fill="lightgray" stroke="black" points="496,-1804.72 311,-1804.72 311,-1800.72 307,-1800.72 307,-1796.72 311,-1796.72 311,-1776.72 307,-1776.72 307,-1772.72 311,-1772.72 311,-1768.72 496,-1768.72 496,-1804.72"/>
<polyline fill="none" stroke="black" points="311,-1800.72 315,-1800.72 315,-1796.72 311,-1796.72 "/>
<polyline fill="none" stroke="black" points="311,-1776.72 315,-1776.72 315,-1772.72 311,-1772.72 "/>
<text text-anchor="middle" x="403.5" y="-1783.02" font-family="Times,serif" font-size="14.00">CUTFACE_VELOCITIES</text>
</a>
</g>
</g>
<!-- CALL_8165760&#45;&gt;CALL_81672a0 -->
<g id="edge5" class="edge">
<title>CALL_8165760&#45;&gt;CALL_81672a0</title>
<path fill="none" stroke="black" d="M403.5,-1840.42C403.5,-1832.7 403.5,-1823.43 403.5,-1814.83"/>
<polygon fill="black" stroke="black" points="407,-1814.82 403.5,-1804.82 400,-1814.82 407,-1814.82"/>
</g>
<!-- COMMENT_81694c0+1 -->
<g id="node7" class="node">
<title>COMMENT_81694c0+1</title>
<polygon fill="none" stroke="black" points="580,-1732.72 221,-1732.72 221,-1696.72 586,-1696.72 586,-1726.72 580,-1732.72"/>
<polyline fill="none" stroke="black" points="580,-1732.72 580,-1726.72 "/>
<polyline fill="none" stroke="black" points="586,-1726.72 580,-1726.72 "/>
<text text-anchor="middle" x="403.5" y="-1711.02" font-family="Times,serif" font-size="14.00">Compute vorticity and stress tensor components</text>
</g>
<!-- CALL_81672a0&#45;&gt;COMMENT_81694c0+1 -->
<g id="edge6" class="edge">
<title>CALL_81672a0&#45;&gt;COMMENT_81694c0+1</title>
<path fill="none" stroke="black" d="M403.5,-1768.42C403.5,-1760.7 403.5,-1751.43 403.5,-1742.83"/>
<polygon fill="black" stroke="black" points="407,-1742.82 403.5,-1732.82 400,-1742.82 407,-1742.82"/>
</g>
<!-- COMMENT_81694c0+2 -->
<g id="node8" class="node">
<title>COMMENT_81694c0+2</title>
<polygon fill="none" stroke="black" points="801,-1660.72 0,-1660.72 0,-1624.72 807,-1624.72 807,-1654.72 801,-1660.72"/>
<polyline fill="none" stroke="black" points="801,-1660.72 801,-1654.72 "/>
<polyline fill="none" stroke="black" points="807,-1654.72 801,-1654.72 "/>
<text text-anchor="middle" x="403.5" y="-1639.02" font-family="Times,serif" font-size="14.00">!$OMP PARALLEL DO PRIVATE(DUDY,DVDX,DUDZ,DWDX,DVDZ,DWDY,MUX,MUY,MUZ) SCHEDULE(STATIC)</text>
</g>
<!-- COMMENT_81694c0+1&#45;&gt;COMMENT_81694c0+2 -->
<g id="edge7" class="edge">
<title>COMMENT_81694c0+1&#45;&gt;COMMENT_81694c0+2</title>
<path fill="none" stroke="black" d="M403.5,-1696.42C403.5,-1688.7 403.5,-1679.43 403.5,-1670.83"/>
<polygon fill="black" stroke="black" points="407,-1670.82 403.5,-1660.82 400,-1670.82 407,-1670.82"/>
</g>
<!-- COMMENT_817d6c0+1 -->
<g id="node9" class="node">
<title>COMMENT_817d6c0+1</title>
<polygon fill="none" stroke="black" points="503.5,-1588.72 297.5,-1588.72 297.5,-1552.72 509.5,-1552.72 509.5,-1582.72 503.5,-1588.72"/>
<polyline fill="none" stroke="black" points="503.5,-1588.72 503.5,-1582.72 "/>
<polyline fill="none" stroke="black" points="509.5,-1582.72 503.5,-1582.72 "/>
<text text-anchor="middle" x="403.5" y="-1567.02" font-family="Times,serif" font-size="14.00">!$OMP END PARALLEL DO</text>
</g>
<!-- COMMENT_81694c0+2&#45;&gt;COMMENT_817d6c0+1 -->
<g id="edge8" class="edge">
<title>COMMENT_81694c0+2&#45;&gt;COMMENT_817d6c0+1</title>
<path fill="none" stroke="black" d="M403.5,-1624.42C403.5,-1616.7 403.5,-1607.43 403.5,-1598.83"/>
<polygon fill="black" stroke="black" points="407,-1598.82 403.5,-1588.82 400,-1598.82 407,-1598.82"/>
</g>
<!-- COMMENT_817d6c0+2 -->
<g id="node10" class="node">
<title>COMMENT_817d6c0+2</title>
<polygon fill="none" stroke="black" points="511,-1516.72 290,-1516.72 290,-1480.72 517,-1480.72 517,-1510.72 511,-1516.72"/>
<polyline fill="none" stroke="black" points="511,-1516.72 511,-1510.72 "/>
<polyline fill="none" stroke="black" points="517,-1510.72 511,-1510.72 "/>
<text text-anchor="middle" x="403.5" y="-1495.02" font-family="Times,serif" font-size="14.00">Compute gravity components</text>
</g>
<!-- COMMENT_817d6c0+1&#45;&gt;COMMENT_817d6c0+2 -->
<g id="edge9" class="edge">
<title>COMMENT_817d6c0+1&#45;&gt;COMMENT_817d6c0+2</title>
<path fill="none" stroke="black" d="M403.5,-1552.42C403.5,-1544.7 403.5,-1535.43 403.5,-1526.83"/>
<polygon fill="black" stroke="black" points="407,-1526.82 403.5,-1516.82 400,-1526.82 407,-1526.82"/>
</g>
<!-- COMMENT_81b6d80+1 -->
<g id="node11" class="node">
<title>COMMENT_81b6d80+1</title>
<polygon fill="none" stroke="black" points="530,-1444.72 271,-1444.72 271,-1408.72 536,-1408.72 536,-1438.72 530,-1444.72"/>
<polyline fill="none" stroke="black" points="530,-1444.72 530,-1438.72 "/>
<polyline fill="none" stroke="black" points="536,-1438.72 530,-1438.72 "/>
<text text-anchor="middle" x="403.5" y="-1423.02" font-family="Times,serif" font-size="14.00">Compute x&#45;direction flux term FVX</text>
</g>
<!-- COMMENT_817d6c0+2&#45;&gt;COMMENT_81b6d80+1 -->
<g id="edge10" class="edge">
<title>COMMENT_817d6c0+2&#45;&gt;COMMENT_81b6d80+1</title>
<path fill="none" stroke="black" d="M403.5,-1480.42C403.5,-1472.7 403.5,-1463.43 403.5,-1454.83"/>
<polygon fill="black" stroke="black" points="407,-1454.82 403.5,-1444.82 400,-1454.82 407,-1454.82"/>
</g>
<!-- start_omp_OMP_BEGIN_REGION_81b6d80+2 -->
<g id="node12" class="node">
<title>start_omp_OMP_BEGIN_REGION_81b6d80+2</title>
<ellipse fill="black" stroke="black" cx="403.5" cy="-1369.36" rx="0.36" ry="0.36"/>
</g>
<!-- COMMENT_81b6d80+1&#45;&gt;start_omp_OMP_BEGIN_REGION_81b6d80+2 -->
<g id="edge11" class="edge">
<title>COMMENT_81b6d80+1&#45;&gt;start_omp_OMP_BEGIN_REGION_81b6d80+2</title>
<path fill="none" stroke="black" d="M403.5,-1408.51C403.5,-1392.76 403.5,-1371.72 403.5,-1370.42"/>
</g>
<!-- COMMENT_81b6d80+3 -->
<g id="node13" class="node">
<title>COMMENT_81b6d80+3</title>
<polygon fill="none" stroke="black" points="761.5,-1333 39.5,-1333 39.5,-1297 767.5,-1297 767.5,-1327 761.5,-1333"/>
<polyline fill="none" stroke="black" points="761.5,-1333 761.5,-1327 "/>
<polyline fill="none" stroke="black" points="767.5,-1327 761.5,-1327 "/>
<text text-anchor="middle" x="403.5" y="-1311.3" font-family="Times,serif" font-size="14.00">!$OMP DO SCHEDULE(STATIC) PRIVATE(WOMY, VOMZ, TXXP, TXXM, DTXXDX, DTXYDY, DTXZDZ)</text>
</g>
<!-- start_omp_OMP_BEGIN_REGION_81b6d80+2&#45;&gt;COMMENT_81b6d80+3 -->
<g id="edge12" class="edge">
<title>start_omp_OMP_BEGIN_REGION_81b6d80+2&#45;&gt;COMMENT_81b6d80+3</title>
<path fill="none" stroke="black" d="M403.5,-1368.85C403.5,-1367.37 403.5,-1355.32 403.5,-1343.1"/>
<polygon fill="black" stroke="black" points="407,-1343.02 403.5,-1333.02 400,-1343.02 407,-1343.02"/>
</g>
<!-- COMMENT_830ec80+1 -->
<g id="node14" class="node">
<title>COMMENT_830ec80+1</title>
<polygon fill="none" stroke="black" points="496,-1261 305,-1261 305,-1225 502,-1225 502,-1255 496,-1261"/>
<polyline fill="none" stroke="black" points="496,-1261 496,-1255 "/>
<polyline fill="none" stroke="black" points="502,-1255 496,-1255 "/>
<text text-anchor="middle" x="403.5" y="-1239.3" font-family="Times,serif" font-size="14.00">!$OMP END DO NOWAIT</text>
</g>
<!-- COMMENT_81b6d80+3&#45;&gt;COMMENT_830ec80+1 -->
<g id="edge13" class="edge">
<title>COMMENT_81b6d80+3&#45;&gt;COMMENT_830ec80+1</title>
<path fill="none" stroke="black" d="M403.5,-1296.7C403.5,-1288.98 403.5,-1279.71 403.5,-1271.11"/>
<polygon fill="black" stroke="black" points="407,-1271.1 403.5,-1261.1 400,-1271.1 407,-1271.1"/>
</g>
<!-- COMMENT_830ec80+2 -->
<g id="node15" class="node">
<title>COMMENT_830ec80+2</title>
<polygon fill="none" stroke="black" points="530,-1189 271,-1189 271,-1153 536,-1153 536,-1183 530,-1189"/>
<polyline fill="none" stroke="black" points="530,-1189 530,-1183 "/>
<polyline fill="none" stroke="black" points="536,-1183 530,-1183 "/>
<text text-anchor="middle" x="403.5" y="-1167.3" font-family="Times,serif" font-size="14.00">Compute y&#45;direction flux term FVY</text>
</g>
<!-- COMMENT_830ec80+1&#45;&gt;COMMENT_830ec80+2 -->
<g id="edge14" class="edge">
<title>COMMENT_830ec80+1&#45;&gt;COMMENT_830ec80+2</title>
<path fill="none" stroke="black" d="M403.5,-1224.7C403.5,-1216.98 403.5,-1207.71 403.5,-1199.11"/>
<polygon fill="black" stroke="black" points="407,-1199.1 403.5,-1189.1 400,-1199.1 407,-1199.1"/>
</g>
<!-- COMMENT_830ec80+3 -->
<g id="node16" class="node">
<title>COMMENT_830ec80+3</title>
<polygon fill="none" stroke="black" points="761,-1117 40,-1117 40,-1081 767,-1081 767,-1111 761,-1117"/>
<polyline fill="none" stroke="black" points="761,-1117 761,-1111 "/>
<polyline fill="none" stroke="black" points="767,-1111 761,-1111 "/>
<text text-anchor="middle" x="403.5" y="-1095.3" font-family="Times,serif" font-size="14.00">!$OMP DO SCHEDULE(STATIC) PRIVATE(WOMX, UOMZ, TYYP, TYYM, DTXYDX, DTYYDY, DTYZDZ)</text>
</g>
<!-- COMMENT_830ec80+2&#45;&gt;COMMENT_830ec80+3 -->
<g id="edge15" class="edge">
<title>COMMENT_830ec80+2&#45;&gt;COMMENT_830ec80+3</title>
<path fill="none" stroke="black" d="M403.5,-1152.7C403.5,-1144.98 403.5,-1135.71 403.5,-1127.11"/>
<polygon fill="black" stroke="black" points="407,-1127.1 403.5,-1117.1 400,-1127.1 407,-1127.1"/>
</g>
<!-- COMMENT_8365bc0+1 -->
<g id="node17" class="node">
<title>COMMENT_8365bc0+1</title>
<polygon fill="none" stroke="black" points="496,-1045 305,-1045 305,-1009 502,-1009 502,-1039 496,-1045"/>
<polyline fill="none" stroke="black" points="496,-1045 496,-1039 "/>
<polyline fill="none" stroke="black" points="502,-1039 496,-1039 "/>
<text text-anchor="middle" x="403.5" y="-1023.3" font-family="Times,serif" font-size="14.00">!$OMP END DO NOWAIT</text>
</g>
<!-- COMMENT_830ec80+3&#45;&gt;COMMENT_8365bc0+1 -->
<g id="edge16" class="edge">
<title>COMMENT_830ec80+3&#45;&gt;COMMENT_8365bc0+1</title>
<path fill="none" stroke="black" d="M403.5,-1080.7C403.5,-1072.98 403.5,-1063.71 403.5,-1055.11"/>
<polygon fill="black" stroke="black" points="407,-1055.1 403.5,-1045.1 400,-1055.1 407,-1055.1"/>
</g>
<!-- COMMENT_8365bc0+2 -->
<g id="node18" class="node">
<title>COMMENT_8365bc0+2</title>
<polygon fill="none" stroke="black" points="530,-973 271,-973 271,-937 536,-937 536,-967 530,-973"/>
<polyline fill="none" stroke="black" points="530,-973 530,-967 "/>
<polyline fill="none" stroke="black" points="536,-967 530,-967 "/>
<text text-anchor="middle" x="403.5" y="-951.3" font-family="Times,serif" font-size="14.00">Compute z&#45;direction flux term FVZ</text>
</g>
<!-- COMMENT_8365bc0+1&#45;&gt;COMMENT_8365bc0+2 -->
<g id="edge17" class="edge">
<title>COMMENT_8365bc0+1&#45;&gt;COMMENT_8365bc0+2</title>
<path fill="none" stroke="black" d="M403.5,-1008.7C403.5,-1000.98 403.5,-991.71 403.5,-983.11"/>
<polygon fill="black" stroke="black" points="407,-983.1 403.5,-973.1 400,-983.1 407,-983.1"/>
</g>
<!-- COMMENT_8365bc0+3 -->
<g id="node19" class="node">
<title>COMMENT_8365bc0+3</title>
<polygon fill="none" stroke="black" points="760,-901 41,-901 41,-865 766,-865 766,-895 760,-901"/>
<polyline fill="none" stroke="black" points="760,-901 760,-895 "/>
<polyline fill="none" stroke="black" points="766,-895 760,-895 "/>
<text text-anchor="middle" x="403.5" y="-879.3" font-family="Times,serif" font-size="14.00">!$OMP DO SCHEDULE(STATIC) PRIVATE(UOMY, VOMX, TZZP, TZZM, DTXZDX, DTYZDY, DTZZDZ)</text>
</g>
<!-- COMMENT_8365bc0+2&#45;&gt;COMMENT_8365bc0+3 -->
<g id="edge18" class="edge">
<title>COMMENT_8365bc0+2&#45;&gt;COMMENT_8365bc0+3</title>
<path fill="none" stroke="black" d="M403.5,-936.7C403.5,-928.98 403.5,-919.71 403.5,-911.11"/>
<polygon fill="black" stroke="black" points="407,-911.1 403.5,-901.1 400,-911.1 407,-911.1"/>
</g>
<!-- COMMENT_83ba420+1 -->
<g id="node20" class="node">
<title>COMMENT_83ba420+1</title>
<polygon fill="none" stroke="black" points="496,-829 305,-829 305,-793 502,-793 502,-823 496,-829"/>
<polyline fill="none" stroke="black" points="496,-829 496,-823 "/>
<polyline fill="none" stroke="black" points="502,-823 496,-823 "/>
<text text-anchor="middle" x="403.5" y="-807.3" font-family="Times,serif" font-size="14.00">!$OMP END DO NOWAIT</text>
</g>
<!-- COMMENT_8365bc0+3&#45;&gt;COMMENT_83ba420+1 -->
<g id="edge19" class="edge">
<title>COMMENT_8365bc0+3&#45;&gt;COMMENT_83ba420+1</title>
<path fill="none" stroke="black" d="M403.5,-864.7C403.5,-856.98 403.5,-847.71 403.5,-839.11"/>
<polygon fill="black" stroke="black" points="407,-839.1 403.5,-829.1 400,-839.1 407,-839.1"/>
</g>
<!-- COMMENT_83ba420+3 -->
<g id="node21" class="node">
<title>COMMENT_83ba420+3</title>
<polygon fill="none" stroke="black" points="485.5,-757 315.5,-757 315.5,-721 491.5,-721 491.5,-751 485.5,-757"/>
<polyline fill="none" stroke="black" points="485.5,-757 485.5,-751 "/>
<polyline fill="none" stroke="black" points="491.5,-751 485.5,-751 "/>
<text text-anchor="middle" x="403.5" y="-735.3" font-family="Times,serif" font-size="14.00">Additional force terms</text>
</g>
<!-- COMMENT_83ba420+1&#45;&gt;COMMENT_83ba420+3 -->
<g id="edge20" class="edge">
<title>COMMENT_83ba420+1&#45;&gt;COMMENT_83ba420+3</title>
<path fill="none" stroke="black" d="M403.5,-792.7C403.5,-784.98 403.5,-775.71 403.5,-767.11"/>
<polygon fill="black" stroke="black" points="407,-767.1 403.5,-757.1 400,-767.1 407,-767.1"/>
</g>
<!-- CALL_83bee80 -->
<g id="node22" class="node">
<title>CALL_83bee80</title>
<g id="a_node22"><a xlink:href="COMPUTE_WIND_COMPONENTS.svg" xlink:title="COMPUTE_WIND_COMPONENTS">
<polygon fill="lightgray" stroke="black" points="533.5,-685 273.5,-685 273.5,-681 269.5,-681 269.5,-677 273.5,-677 273.5,-657 269.5,-657 269.5,-653 273.5,-653 273.5,-649 533.5,-649 533.5,-685"/>
<polyline fill="none" stroke="black" points="273.5,-681 277.5,-681 277.5,-677 273.5,-677 "/>
<polyline fill="none" stroke="black" points="273.5,-657 277.5,-657 277.5,-653 273.5,-653 "/>
<text text-anchor="middle" x="403.5" y="-663.3" font-family="Times,serif" font-size="14.00">COMPUTE_WIND_COMPONENTS</text>
</a>
</g>
</g>
<!-- COMMENT_83ba420+3&#45;&gt;CALL_83bee80 -->
<g id="edge21" class="edge">
<title>COMMENT_83ba420+3&#45;&gt;CALL_83bee80</title>
<path fill="none" stroke="black" d="M403.5,-720.7C403.5,-712.98 403.5,-703.71 403.5,-695.11"/>
<polygon fill="black" stroke="black" points="407,-695.1 403.5,-685.1 400,-695.1 407,-695.1"/>
</g>
<!-- CALL_83c26a0 -->
<g id="node23" class="node">
<title>CALL_83c26a0</title>
<g id="a_node23"><a xlink:href="DIRECT_FORCE.svg" xlink:title="DIRECT_FORCE">
<polygon fill="lightgray" stroke="black" points="470,-613 337,-613 337,-609 333,-609 333,-605 337,-605 337,-585 333,-585 333,-581 337,-581 337,-577 470,-577 470,-613"/>
<polyline fill="none" stroke="black" points="337,-609 341,-609 341,-605 337,-605 "/>
<polyline fill="none" stroke="black" points="337,-585 341,-585 341,-581 337,-581 "/>
<text text-anchor="middle" x="403.5" y="-591.3" font-family="Times,serif" font-size="14.00">DIRECT_FORCE</text>
</a>
</g>
</g>
<!-- CALL_83bee80&#45;&gt;CALL_83c26a0 -->
<g id="edge22" class="edge">
<title>CALL_83bee80&#45;&gt;CALL_83c26a0</title>
<path fill="none" stroke="black" d="M403.5,-648.7C403.5,-640.98 403.5,-631.71 403.5,-623.11"/>
<polygon fill="black" stroke="black" points="407,-623.1 403.5,-613.1 400,-623.1 407,-623.1"/>
</g>
<!-- CALL_83bbd60 -->
<g id="node24" class="node">
<title>CALL_83bbd60</title>
<g id="a_node24"><a xlink:href="CORIOLIS_FORCE.svg" xlink:title="CORIOLIS_FORCE">
<polygon fill="lightgray" stroke="black" points="478,-541 329,-541 329,-537 325,-537 325,-533 329,-533 329,-513 325,-513 325,-509 329,-509 329,-505 478,-505 478,-541"/>
<polyline fill="none" stroke="black" points="329,-537 333,-537 333,-533 329,-533 "/>
<polyline fill="none" stroke="black" points="329,-513 333,-513 333,-509 329,-509 "/>
<text text-anchor="middle" x="403.5" y="-519.3" font-family="Times,serif" font-size="14.00">CORIOLIS_FORCE</text>
</a>
</g>
</g>
<!-- CALL_83c26a0&#45;&gt;CALL_83bbd60 -->
<g id="edge23" class="edge">
<title>CALL_83c26a0&#45;&gt;CALL_83bbd60</title>
<path fill="none" stroke="black" d="M403.5,-576.7C403.5,-568.98 403.5,-559.71 403.5,-551.11"/>
<polygon fill="black" stroke="black" points="407,-551.1 403.5,-541.1 400,-551.1 407,-551.1"/>
</g>
<!-- CALL_83bf6a0 -->
<g id="node25" class="node">
<title>CALL_83bf6a0</title>
<g id="a_node25"><a xlink:href="PATCH_VELOCITY_FLUX.svg" xlink:title="PATCH_VELOCITY_FLUX">
<polygon fill="lightgray" stroke="black" points="500,-469 307,-469 307,-465 303,-465 303,-461 307,-461 307,-441 303,-441 303,-437 307,-437 307,-433 500,-433 500,-469"/>
<polyline fill="none" stroke="black" points="307,-465 311,-465 311,-461 307,-461 "/>
<polyline fill="none" stroke="black" points="307,-441 311,-441 311,-437 307,-437 "/>
<text text-anchor="middle" x="403.5" y="-447.3" font-family="Times,serif" font-size="14.00">PATCH_VELOCITY_FLUX</text>
</a>
</g>
</g>
<!-- CALL_83bbd60&#45;&gt;CALL_83bf6a0 -->
<g id="edge24" class="edge">
<title>CALL_83bbd60&#45;&gt;CALL_83bf6a0</title>
<path fill="none" stroke="black" d="M403.5,-504.7C403.5,-496.98 403.5,-487.71 403.5,-479.11"/>
<polygon fill="black" stroke="black" points="407,-479.1 403.5,-469.1 400,-479.1 407,-479.1"/>
</g>
<!-- CALL_83c2c60 -->
<g id="node26" class="node">
<title>CALL_83c2c60</title>
<g id="a_node26"><a xlink:href="MMS_VELOCITY_FLUX.svg" xlink:title="MMS_VELOCITY_FLUX">
<polygon fill="lightgray" stroke="black" points="494.5,-397 312.5,-397 312.5,-393 308.5,-393 308.5,-389 312.5,-389 312.5,-369 308.5,-369 308.5,-365 312.5,-365 312.5,-361 494.5,-361 494.5,-397"/>
<polyline fill="none" stroke="black" points="312.5,-393 316.5,-393 316.5,-389 312.5,-389 "/>
<polyline fill="none" stroke="black" points="312.5,-369 316.5,-369 316.5,-365 312.5,-365 "/>
<text text-anchor="middle" x="403.5" y="-375.3" font-family="Times,serif" font-size="14.00">MMS_VELOCITY_FLUX</text>
</a>
</g>
</g>
<!-- CALL_83bf6a0&#45;&gt;CALL_83c2c60 -->
<g id="edge25" class="edge">
<title>CALL_83bf6a0&#45;&gt;CALL_83c2c60</title>
<path fill="none" stroke="black" d="M403.5,-432.7C403.5,-424.98 403.5,-415.71 403.5,-407.11"/>
<polygon fill="black" stroke="black" points="407,-407.1 403.5,-397.1 400,-407.1 407,-407.1"/>
</g>
<!-- CALL_83c5a40 -->
<g id="node27" class="node">
<title>CALL_83c5a40</title>
<g id="a_node27"><a xlink:href="ROTATED_CUBE_VELOCITY_FLUX.svg" xlink:title="ROTATED_CUBE_VELOCITY_FLUX">
<polygon fill="lightgray" stroke="black" points="535.5,-325 271.5,-325 271.5,-321 267.5,-321 267.5,-317 271.5,-317 271.5,-297 267.5,-297 267.5,-293 271.5,-293 271.5,-289 535.5,-289 535.5,-325"/>
<polyline fill="none" stroke="black" points="271.5,-321 275.5,-321 275.5,-317 271.5,-317 "/>
<polyline fill="none" stroke="black" points="271.5,-297 275.5,-297 275.5,-293 271.5,-293 "/>
<text text-anchor="middle" x="403.5" y="-303.3" font-family="Times,serif" font-size="14.00">ROTATED_CUBE_VELOCITY_FLUX</text>
</a>
</g>
</g>
<!-- CALL_83c2c60&#45;&gt;CALL_83c5a40 -->
<g id="edge26" class="edge">
<title>CALL_83c2c60&#45;&gt;CALL_83c5a40</title>
<path fill="none" stroke="black" d="M403.5,-360.7C403.5,-352.98 403.5,-343.71 403.5,-335.11"/>
<polygon fill="black" stroke="black" points="407,-335.1 403.5,-325.1 400,-335.1 407,-335.1"/>
</g>
<!-- COMMENT_83c5a80+1 -->
<g id="node28" class="node">
<title>COMMENT_83c5a80+1</title>
<polygon fill="none" stroke="black" points="695.5,-253 105.5,-253 105.5,-217 701.5,-217 701.5,-247 695.5,-253"/>
<polyline fill="none" stroke="black" points="695.5,-253 695.5,-247 "/>
<polyline fill="none" stroke="black" points="701.5,-247 695.5,-247 "/>
<text text-anchor="middle" x="403.5" y="-231.3" font-family="Times,serif" font-size="14.00">Restore previous substep velocities to gas cut&#45;faces underlaying Cartesian faces.</text>
</g>
<!-- CALL_83c5a40&#45;&gt;COMMENT_83c5a80+1 -->
<g id="edge27" class="edge">
<title>CALL_83c5a40&#45;&gt;COMMENT_83c5a80+1</title>
<path fill="none" stroke="black" d="M403.5,-288.7C403.5,-280.98 403.5,-271.71 403.5,-263.11"/>
<polygon fill="black" stroke="black" points="407,-263.1 403.5,-253.1 400,-263.1 407,-263.1"/>
</g>
<!-- CALL_83c8d00 -->
<g id="node29" class="node">
<title>CALL_83c8d00</title>
<g id="a_node29"><a xlink:href="CUTFACE_VELOCITIES.svg" xlink:title="CUTFACE_VELOCITIES">
<polygon fill="lightgray" stroke="black" points="496,-181 311,-181 311,-177 307,-177 307,-173 311,-173 311,-153 307,-153 307,-149 311,-149 311,-145 496,-145 496,-181"/>
<polyline fill="none" stroke="black" points="311,-177 315,-177 315,-173 311,-173 "/>
<polyline fill="none" stroke="black" points="311,-153 315,-153 315,-149 311,-149 "/>
<text text-anchor="middle" x="403.5" y="-159.3" font-family="Times,serif" font-size="14.00">CUTFACE_VELOCITIES</text>
</a>
</g>
</g>
<!-- COMMENT_83c5a80+1&#45;&gt;CALL_83c8d00 -->
<g id="edge28" class="edge">
<title>COMMENT_83c5a80+1&#45;&gt;CALL_83c8d00</title>
<path fill="none" stroke="black" d="M403.5,-216.7C403.5,-208.98 403.5,-199.71 403.5,-191.11"/>
<polygon fill="black" stroke="black" points="407,-191.1 403.5,-181.1 400,-191.1 407,-191.1"/>
</g>
<!-- CALL_83cc560 -->
<g id="node30" class="node">
<title>CALL_83cc560</title>
<g id="a_node30"><a xlink:href="CC_VELOCITY_FLUX.svg" xlink:title="CC_VELOCITY_FLUX">
<polygon fill="lightgray" stroke="black" points="486,-109 321,-109 321,-105 317,-105 317,-101 321,-101 321,-81 317,-81 317,-77 321,-77 321,-73 486,-73 486,-109"/>
<polyline fill="none" stroke="black" points="321,-105 325,-105 325,-101 321,-101 "/>
<polyline fill="none" stroke="black" points="321,-81 325,-81 325,-77 321,-77 "/>
<text text-anchor="middle" x="403.5" y="-87.3" font-family="Times,serif" font-size="14.00">CC_VELOCITY_FLUX</text>
</a>
</g>
</g>
<!-- CALL_83c8d00&#45;&gt;CALL_83cc560 -->
<g id="edge29" class="edge">
<title>CALL_83c8d00&#45;&gt;CALL_83cc560</title>
<path fill="none" stroke="black" d="M403.5,-144.7C403.5,-136.98 403.5,-127.71 403.5,-119.11"/>
<polygon fill="black" stroke="black" points="407,-119.1 403.5,-109.1 400,-119.1 407,-119.1"/>
</g>
<!-- end_SUBPROGRAM_87373a0 -->
<g id="node31" class="node">
<title>end_SUBPROGRAM_87373a0</title>
<ellipse fill="black" stroke="black" cx="403.5" cy="-30" rx="7" ry="7"/>
</g>
<!-- CALL_83cc560&#45;&gt;end_SUBPROGRAM_87373a0 -->
<g id="edge30" class="edge">
<title>CALL_83cc560&#45;&gt;end_SUBPROGRAM_87373a0</title>
<path fill="none" stroke="black" d="M403.5,-72.93C403.5,-64.89 403.5,-55.33 403.5,-47.37"/>
<polygon fill="black" stroke="black" points="407,-47.22 403.5,-37.22 400,-47.22 407,-47.22"/>
</g>
</g>
</svg>
