<?xml version="1.0" encoding="UTF-8" standalone="no"?>
<!DOCTYPE svg PUBLIC "-//W3C//DTD SVG 1.1//EN"
 "http://www.w3.org/Graphics/SVG/1.1/DTD/svg11.dtd">
<!-- Generated by graphviz version 2.43.0 (0)
 -->
<!-- Title: VELOCITY_CORRECTOR Pages: 1 -->
<svg width="677pt" height="1398pt"
 viewBox="0.00 0.00 677.00 1398.30" xmlns="http://www.w3.org/2000/svg" xmlns:xlink="http://www.w3.org/1999/xlink">
<g id="graph0" class="graph" transform="scale(1 1) rotate(0) translate(4 1394.3)">
<title>VELOCITY_CORRECTOR</title>
<polygon fill="white" stroke="transparent" points="-4,4 -4,-1394.3 673,-1394.3 673,4 -4,4"/>
<text text-anchor="middle" x="334.5" y="-7.8" font-family="Times,serif" font-size="14.00">VELOCITY_CORRECTOR</text>
<g id="clust1" class="cluster">
<title>cluster_FREEZE_VELOCITY_IF</title>
<polygon fill="none" stroke="blue" points="23,-137 23,-1120.3 661,-1120.3 661,-137 23,-137"/>
<text text-anchor="middle" x="113.5" y="-1105.1" font-family="Times,serif" font-size="14.00">FREEZE_VELOCITY_IF</text>
</g>
<g id="clust2" class="cluster">
<title>cluster_cond89ed300</title>
<polygon fill="none" stroke="black" points="31,-1005.58 31,-1080.58 219,-1080.58 219,-1005.58 31,-1005.58"/>
<text text-anchor="middle" x="87.5" y="-1065.38" font-family="Times,serif" font-size="14.00">cond89ed300</text>
</g>
<g id="clust3" class="cluster">
<title>cluster_cond8b20f80</title>
<polygon fill="none" stroke="black" points="227,-173.72 227,-1080.58 653,-1080.58 653,-173.72 227,-173.72"/>
<text text-anchor="middle" x="282" y="-1065.38" font-family="Times,serif" font-size="14.00">cond8b20f80</text>
</g>
<g id="clust4" class="cluster">
<title>cluster_omp_OMP_BEGIN_REGION_89f2800+1</title>
<polygon fill="none" stroke="red" points="247,-461.72 247,-933.58 547,-933.58 547,-461.72 247,-461.72"/>
<text text-anchor="middle" x="397" y="-918.38" font-family="Times,serif" font-size="14.00">omp_OMP_BEGIN_REGION_89f2800+1</text>
</g>
<!-- start_SUBPROGRAM_8b2f5e0 -->
<g id="node1" class="node">
<title>start_SUBPROGRAM_8b2f5e0</title>
<ellipse fill="none" stroke="black" cx="232" cy="-1383.3" rx="7" ry="7"/>
</g>
<!-- COMMENT_89e4240+1 -->
<g id="node2" class="node">
<title>COMMENT_89e4240+1</title>
<polygon fill="none" stroke="black" points="458,-1340.3 0,-1340.3 0,-1272.3 464,-1272.3 464,-1334.3 458,-1340.3"/>
<polyline fill="none" stroke="black" points="458,-1340.3 458,-1334.3 "/>
<polyline fill="none" stroke="black" points="464,-1334.3 458,-1334.3 "/>
<text text-anchor="middle" x="232" y="-1325.1" font-family="Times,serif" font-size="14.00">!&gt; brief Correct the velocity components at the next time step</text>
<text text-anchor="middle" x="232" y="-1310.1" font-family="Times,serif" font-size="14.00">!&gt; param T Current time (s)</text>
<text text-anchor="middle" x="232" y="-1295.1" font-family="Times,serif" font-size="14.00">!&gt; param DT Time step (s)</text>
<text text-anchor="middle" x="232" y="-1280.1" font-family="Times,serif" font-size="14.00">!&gt; param NM Mesh number</text>
</g>
<!-- start_SUBPROGRAM_8b2f5e0&#45;&gt;COMMENT_89e4240+1 -->
<g id="edge1" class="edge">
<title>start_SUBPROGRAM_8b2f5e0&#45;&gt;COMMENT_89e4240+1</title>
<path fill="none" stroke="black" d="M232,-1376.16C232,-1370.23 232,-1360.68 232,-1350.56"/>
<polygon fill="black" stroke="black" points="235.5,-1350.35 232,-1340.35 228.5,-1350.35 235.5,-1350.35"/>
</g>
<!-- CALL_89ea720 -->
<g id="node3" class="node">
<title>CALL_89ea720</title>
<g id="a_node3"><a xlink:href="COMPRESSION_WAVE.svg" xlink:title="COMPRESSION_WAVE">
<polygon fill="lightgray" stroke="black" points="322.5,-1236.3 141.5,-1236.3 141.5,-1232.3 137.5,-1232.3 137.5,-1228.3 141.5,-1228.3 141.5,-1208.3 137.5,-1208.3 137.5,-1204.3 141.5,-1204.3 141.5,-1200.3 322.5,-1200.3 322.5,-1236.3"/>
<polyline fill="none" stroke="black" points="141.5,-1232.3 145.5,-1232.3 145.5,-1228.3 141.5,-1228.3 "/>
<polyline fill="none" stroke="black" points="141.5,-1208.3 145.5,-1208.3 145.5,-1204.3 141.5,-1204.3 "/>
<text text-anchor="middle" x="232" y="-1214.6" font-family="Times,serif" font-size="14.00">COMPRESSION_WAVE</text>
</a>
</g>
</g>
<!-- COMMENT_89e4240+1&#45;&gt;CALL_89ea720 -->
<g id="edge2" class="edge">
<title>COMMENT_89e4240+1&#45;&gt;CALL_89ea720</title>
<path fill="none" stroke="black" d="M232,-1272.3C232,-1263.86 232,-1254.89 232,-1246.77"/>
<polygon fill="black" stroke="black" points="235.5,-1246.7 232,-1236.7 228.5,-1246.7 235.5,-1246.7"/>
</g>
<!-- CALL_89eba00 -->
<g id="node4" class="node">
<title>CALL_89eba00</title>
<g id="a_node4"><a xlink:href="POINT_TO_MESH.svg" xlink:title="POINT_TO_MESH">
<polygon fill="lightgray" stroke="black" points="304,-1164.3 160,-1164.3 160,-1160.3 156,-1160.3 156,-1156.3 160,-1156.3 160,-1136.3 156,-1136.3 156,-1132.3 160,-1132.3 160,-1128.3 304,-1128.3 304,-1164.3"/>
<polyline fill="none" stroke="black" points="160,-1160.3 164,-1160.3 164,-1156.3 160,-1156.3 "/>
<polyline fill="none" stroke="black" points="160,-1136.3 164,-1136.3 164,-1132.3 160,-1132.3 "/>
<text text-anchor="middle" x="232" y="-1142.6" font-family="Times,serif" font-size="14.00">POINT_TO_MESH</text>
</a>
</g>
</g>
<!-- CALL_89ea720&#45;&gt;CALL_89eba00 -->
<g id="edge3" class="edge">
<title>CALL_89ea720&#45;&gt;CALL_89eba00</title>
<path fill="none" stroke="black" d="M232,-1200C232,-1192.28 232,-1183.01 232,-1174.41"/>
<polygon fill="black" stroke="black" points="235.5,-1174.4 232,-1164.4 228.5,-1174.4 235.5,-1174.4"/>
</g>
<!-- beginIf_IF_8b21080 -->
<g id="node5" class="node">
<title>beginIf_IF_8b21080</title>
<ellipse fill="black" stroke="black" cx="232" cy="-1088.94" rx="0.36" ry="0.36"/>
</g>
<!-- CALL_89eba00&#45;&gt;beginIf_IF_8b21080 -->
<g id="edge20" class="edge">
<title>CALL_89eba00&#45;&gt;beginIf_IF_8b21080</title>
<path fill="none" stroke="black" d="M232,-1128.09C232,-1112.34 232,-1091.3 232,-1090"/>
</g>
<!-- Empty_89ed300 -->
<g id="node7" class="node">
<title>Empty_89ed300</title>
<ellipse fill="none" stroke="black" cx="125" cy="-1031.58" rx="86.38" ry="18"/>
<text text-anchor="middle" x="125" y="-1027.88" font-family="Times,serif" font-size="14.00">Empty_89ed300</text>
</g>
<!-- beginIf_IF_8b21080&#45;&gt;Empty_89ed300 -->
<g id="edge4" class="edge">
<title>beginIf_IF_8b21080&#45;&gt;Empty_89ed300</title>
<path fill="none" stroke="black" d="M231.92,-1088.54C230.04,-1087.55 194.09,-1068.74 164.39,-1053.19"/>
<polygon fill="black" stroke="black" points="165.9,-1050.03 155.42,-1048.5 162.65,-1056.24 165.9,-1050.03"/>
</g>
<!-- CALL_89ef360 -->
<g id="node8" class="node">
<title>CALL_89ef360</title>
<g id="a_node8"><a xlink:href="CC_PROJECT_VELOCITY.svg" xlink:title="CC_PROJECT_VELOCITY">
<polygon fill="lightgray" stroke="black" points="436,-1049.58 244,-1049.58 244,-1045.58 240,-1045.58 240,-1041.58 244,-1041.58 244,-1021.58 240,-1021.58 240,-1017.58 244,-1017.58 244,-1013.58 436,-1013.58 436,-1049.58"/>
<polyline fill="none" stroke="black" points="244,-1045.58 248,-1045.58 248,-1041.58 244,-1041.58 "/>
<polyline fill="none" stroke="black" points="244,-1021.58 248,-1021.58 248,-1017.58 244,-1017.58 "/>
<text text-anchor="middle" x="340" y="-1027.88" font-family="Times,serif" font-size="14.00">CC_PROJECT_VELOCITY</text>
</a>
</g>
</g>
<!-- beginIf_IF_8b21080&#45;&gt;CALL_89ef360 -->
<g id="edge18" class="edge">
<title>beginIf_IF_8b21080&#45;&gt;CALL_89ef360</title>
<path fill="none" stroke="black" d="M232.08,-1088.54C233.94,-1087.58 268.52,-1069.64 298.05,-1054.33"/>
<polygon fill="black" stroke="black" points="299.74,-1057.4 307.01,-1049.69 296.52,-1051.18 299.74,-1057.4"/>
</g>
<!-- endIf_IF_8b21080 -->
<g id="node6" class="node">
<title>endIf_IF_8b21080</title>
<ellipse fill="black" stroke="black" cx="271" cy="-145.36" rx="0.36" ry="0.36"/>
</g>
<!-- COMMENT_8b1eca0+1 -->
<g id="node21" class="node">
<title>COMMENT_8b1eca0+1</title>
<polygon fill="none" stroke="black" points="384,-109 152,-109 152,-73 390,-73 390,-103 384,-109"/>
<polyline fill="none" stroke="black" points="384,-109 384,-103 "/>
<polyline fill="none" stroke="black" points="390,-103 384,-103 "/>
<text text-anchor="middle" x="271" y="-87.3" font-family="Times,serif" font-size="14.00">Manufactured solution (debug)</text>
</g>
<!-- endIf_IF_8b21080&#45;&gt;COMMENT_8b1eca0+1 -->
<g id="edge21" class="edge">
<title>endIf_IF_8b21080&#45;&gt;COMMENT_8b1eca0+1</title>
<path fill="none" stroke="black" d="M271,-144.21C271,-142.77 271,-131.23 271,-119.36"/>
<polygon fill="black" stroke="black" points="274.5,-119.1 271,-109.1 267.5,-119.1 274.5,-119.1"/>
</g>
<!-- Empty_89ed300&#45;&gt;endIf_IF_8b21080 -->
<g id="edge5" class="edge">
<title>Empty_89ed300&#45;&gt;endIf_IF_8b21080</title>
<path fill="none" stroke="black" d="M135.21,-1013.54C148.49,-989.72 170,-944.73 170,-903.22 170,-903.22 170,-903.22 170,-270.72 170,-221.59 188.75,-208.94 223,-173.72 239.68,-156.57 269.09,-146.37 270.91,-145.75"/>
</g>
<!-- CALL_89f1c60 -->
<g id="node9" class="node">
<title>CALL_89f1c60</title>
<g id="a_node9"><a xlink:href="WALL_VELOCITY_NO_GRADH.svg" xlink:title="WALL_VELOCITY_NO_GRADH">
<polygon fill="lightgray" stroke="black" points="510,-977.58 280,-977.58 280,-973.58 276,-973.58 276,-969.58 280,-969.58 280,-949.58 276,-949.58 276,-945.58 280,-945.58 280,-941.58 510,-941.58 510,-977.58"/>
<polyline fill="none" stroke="black" points="280,-973.58 284,-973.58 284,-969.58 280,-969.58 "/>
<polyline fill="none" stroke="black" points="280,-949.58 284,-949.58 284,-945.58 280,-945.58 "/>
<text text-anchor="middle" x="395" y="-955.88" font-family="Times,serif" font-size="14.00">WALL_VELOCITY_NO_GRADH</text>
</a>
</g>
</g>
<!-- CALL_89ef360&#45;&gt;CALL_89f1c60 -->
<g id="edge6" class="edge">
<title>CALL_89ef360&#45;&gt;CALL_89f1c60</title>
<path fill="none" stroke="black" d="M353.6,-1013.28C360.12,-1004.97 368.07,-994.86 375.25,-985.72"/>
<polygon fill="black" stroke="black" points="378.13,-987.71 381.56,-977.68 372.63,-983.39 378.13,-987.71"/>
</g>
<!-- start_omp_OMP_BEGIN_REGION_89f2800+1 -->
<g id="node10" class="node">
<title>start_omp_OMP_BEGIN_REGION_89f2800+1</title>
<ellipse fill="black" stroke="black" cx="396" cy="-902.22" rx="0.36" ry="0.36"/>
</g>
<!-- CALL_89f1c60&#45;&gt;start_omp_OMP_BEGIN_REGION_89f2800+1 -->
<g id="edge7" class="edge">
<title>CALL_89f1c60&#45;&gt;start_omp_OMP_BEGIN_REGION_89f2800+1</title>
<path fill="none" stroke="black" d="M395.31,-941.37C395.6,-925.62 395.98,-904.58 396,-903.28"/>
</g>
<!-- COMMENT_89f2800+2 -->
<g id="node11" class="node">
<title>COMMENT_89f2800+2</title>
<polygon fill="none" stroke="black" points="514,-865.72 274,-865.72 274,-829.72 520,-829.72 520,-859.72 514,-865.72"/>
<polyline fill="none" stroke="black" points="514,-865.72 514,-859.72 "/>
<polyline fill="none" stroke="black" points="520,-859.72 514,-859.72 "/>
<text text-anchor="middle" x="397" y="-844.02" font-family="Times,serif" font-size="14.00">!$OMP DO SCHEDULE(STATIC)</text>
</g>
<!-- start_omp_OMP_BEGIN_REGION_89f2800+1&#45;&gt;COMMENT_89f2800+2 -->
<g id="edge8" class="edge">
<title>start_omp_OMP_BEGIN_REGION_89f2800+1&#45;&gt;COMMENT_89f2800+2</title>
<path fill="none" stroke="black" d="M396,-901.57C396.03,-900.09 396.26,-888.04 396.49,-875.82"/>
<polygon fill="black" stroke="black" points="399.99,-875.81 396.68,-865.74 392.99,-875.68 399.99,-875.81"/>
</g>
<!-- COMMENT_89ff480+1 -->
<g id="node12" class="node">
<title>COMMENT_89ff480+1</title>
<polygon fill="none" stroke="black" points="490.5,-793.72 299.5,-793.72 299.5,-757.72 496.5,-757.72 496.5,-787.72 490.5,-793.72"/>
<polyline fill="none" stroke="black" points="490.5,-793.72 490.5,-787.72 "/>
<polyline fill="none" stroke="black" points="496.5,-787.72 490.5,-787.72 "/>
<text text-anchor="middle" x="398" y="-772.02" font-family="Times,serif" font-size="14.00">!$OMP END DO NOWAIT</text>
</g>
<!-- COMMENT_89f2800+2&#45;&gt;COMMENT_89ff480+1 -->
<g id="edge9" class="edge">
<title>COMMENT_89f2800+2&#45;&gt;COMMENT_89ff480+1</title>
<path fill="none" stroke="black" d="M397.25,-829.42C397.36,-821.7 397.49,-812.43 397.61,-803.83"/>
<polygon fill="black" stroke="black" points="401.11,-803.87 397.76,-793.82 394.11,-803.77 401.11,-803.87"/>
</g>
<!-- COMMENT_89ff480+2 -->
<g id="node13" class="node">
<title>COMMENT_89ff480+2</title>
<polygon fill="none" stroke="black" points="524,-721.72 284,-721.72 284,-685.72 530,-685.72 530,-715.72 524,-721.72"/>
<polyline fill="none" stroke="black" points="524,-721.72 524,-715.72 "/>
<polyline fill="none" stroke="black" points="530,-715.72 524,-715.72 "/>
<text text-anchor="middle" x="407" y="-700.02" font-family="Times,serif" font-size="14.00">!$OMP DO SCHEDULE(STATIC)</text>
</g>
<!-- COMMENT_89ff480+1&#45;&gt;COMMENT_89ff480+2 -->
<g id="edge10" class="edge">
<title>COMMENT_89ff480+1&#45;&gt;COMMENT_89ff480+2</title>
<path fill="none" stroke="black" d="M400.22,-757.42C401.22,-749.7 402.41,-740.43 403.51,-731.83"/>
<polygon fill="black" stroke="black" points="407,-732.19 404.8,-721.82 400.05,-731.3 407,-732.19"/>
</g>
<!-- COMMENT_8b0bd60+1 -->
<g id="node14" class="node">
<title>COMMENT_8b0bd60+1</title>
<polygon fill="none" stroke="black" points="501.5,-649.72 310.5,-649.72 310.5,-613.72 507.5,-613.72 507.5,-643.72 501.5,-649.72"/>
<polyline fill="none" stroke="black" points="501.5,-649.72 501.5,-643.72 "/>
<polyline fill="none" stroke="black" points="507.5,-643.72 501.5,-643.72 "/>
<text text-anchor="middle" x="409" y="-628.02" font-family="Times,serif" font-size="14.00">!$OMP END DO NOWAIT</text>
</g>
<!-- COMMENT_89ff480+2&#45;&gt;COMMENT_8b0bd60+1 -->
<g id="edge11" class="edge">
<title>COMMENT_89ff480+2&#45;&gt;COMMENT_8b0bd60+1</title>
<path fill="none" stroke="black" d="M407.49,-685.42C407.71,-677.7 407.98,-668.43 408.23,-659.83"/>
<polygon fill="black" stroke="black" points="411.72,-659.92 408.51,-649.82 404.73,-659.72 411.72,-659.92"/>
</g>
<!-- COMMENT_8b0bd60+2 -->
<g id="node15" class="node">
<title>COMMENT_8b0bd60+2</title>
<polygon fill="none" stroke="black" points="531,-577.72 291,-577.72 291,-541.72 537,-541.72 537,-571.72 531,-577.72"/>
<polyline fill="none" stroke="black" points="531,-577.72 531,-571.72 "/>
<polyline fill="none" stroke="black" points="537,-571.72 531,-571.72 "/>
<text text-anchor="middle" x="414" y="-556.02" font-family="Times,serif" font-size="14.00">!$OMP DO SCHEDULE(STATIC)</text>
</g>
<!-- COMMENT_8b0bd60+1&#45;&gt;COMMENT_8b0bd60+2 -->
<g id="edge12" class="edge">
<title>COMMENT_8b0bd60+1&#45;&gt;COMMENT_8b0bd60+2</title>
<path fill="none" stroke="black" d="M410.24,-613.42C410.79,-605.7 411.45,-596.43 412.06,-587.83"/>
<polygon fill="black" stroke="black" points="415.56,-588.05 412.78,-577.82 408.57,-587.55 415.56,-588.05"/>
</g>
<!-- COMMENT_8b10060+1 -->
<g id="node16" class="node">
<title>COMMENT_8b10060+1</title>
<polygon fill="none" stroke="black" points="510.5,-505.72 319.5,-505.72 319.5,-469.72 516.5,-469.72 516.5,-499.72 510.5,-505.72"/>
<polyline fill="none" stroke="black" points="510.5,-505.72 510.5,-499.72 "/>
<polyline fill="none" stroke="black" points="516.5,-499.72 510.5,-499.72 "/>
<text text-anchor="middle" x="418" y="-484.02" font-family="Times,serif" font-size="14.00">!$OMP END DO NOWAIT</text>
</g>
<!-- COMMENT_8b0bd60+2&#45;&gt;COMMENT_8b10060+1 -->
<g id="edge13" class="edge">
<title>COMMENT_8b0bd60+2&#45;&gt;COMMENT_8b10060+1</title>
<path fill="none" stroke="black" d="M414.99,-541.42C415.43,-533.7 415.96,-524.43 416.45,-515.83"/>
<polygon fill="black" stroke="black" points="419.95,-516.01 417.02,-505.82 412.96,-515.61 419.95,-516.01"/>
</g>
<!-- COMMENT_8b16220+1 -->
<g id="node17" class="node">
<title>COMMENT_8b16220+1</title>
<polygon fill="none" stroke="black" points="639,-433.72 235,-433.72 235,-397.72 645,-397.72 645,-427.72 639,-433.72"/>
<polyline fill="none" stroke="black" points="639,-433.72 639,-427.72 "/>
<polyline fill="none" stroke="black" points="645,-427.72 639,-427.72 "/>
<text text-anchor="middle" x="440" y="-412.02" font-family="Times,serif" font-size="14.00">!$OMP PARALLEL DO PRIVATE(I) SCHEDULE(STATIC)</text>
</g>
<!-- COMMENT_8b10060+1&#45;&gt;COMMENT_8b16220+1 -->
<g id="edge14" class="edge">
<title>COMMENT_8b10060+1&#45;&gt;COMMENT_8b16220+1</title>
<path fill="none" stroke="black" d="M423.44,-469.42C425.89,-461.62 428.84,-452.23 431.57,-443.55"/>
<polygon fill="black" stroke="black" points="434.96,-444.41 434.62,-433.82 428.29,-442.31 434.96,-444.41"/>
</g>
<!-- COMMENT_8b162a0+1 -->
<g id="node18" class="node">
<title>COMMENT_8b162a0+1</title>
<polygon fill="none" stroke="black" points="528,-361.72 322,-361.72 322,-325.72 534,-325.72 534,-355.72 528,-361.72"/>
<polyline fill="none" stroke="black" points="528,-361.72 528,-355.72 "/>
<polyline fill="none" stroke="black" points="534,-355.72 528,-355.72 "/>
<text text-anchor="middle" x="428" y="-340.02" font-family="Times,serif" font-size="14.00">!$OMP END PARALLEL DO</text>
</g>
<!-- COMMENT_8b16220+1&#45;&gt;COMMENT_8b162a0+1 -->
<g id="edge15" class="edge">
<title>COMMENT_8b16220+1&#45;&gt;COMMENT_8b162a0+1</title>
<path fill="none" stroke="black" d="M437.03,-397.42C435.71,-389.7 434.12,-380.43 432.65,-371.83"/>
<polygon fill="black" stroke="black" points="436.07,-371.09 430.93,-361.82 429.17,-372.27 436.07,-371.09"/>
</g>
<!-- CALL_8b1e7c0 -->
<g id="node19" class="node">
<title>CALL_8b1e7c0</title>
<g id="a_node19"><a xlink:href="CC_PROJECT_VELOCITY.svg" xlink:title="CC_PROJECT_VELOCITY">
<polygon fill="lightgray" stroke="black" points="479,-289.72 287,-289.72 287,-285.72 283,-285.72 283,-281.72 287,-281.72 287,-261.72 283,-261.72 283,-257.72 287,-257.72 287,-253.72 479,-253.72 479,-289.72"/>
<polyline fill="none" stroke="black" points="287,-285.72 291,-285.72 291,-281.72 287,-281.72 "/>
<polyline fill="none" stroke="black" points="287,-261.72 291,-261.72 291,-257.72 287,-257.72 "/>
<text text-anchor="middle" x="383" y="-268.02" font-family="Times,serif" font-size="14.00">CC_PROJECT_VELOCITY</text>
</a>
</g>
</g>
<!-- COMMENT_8b162a0+1&#45;&gt;CALL_8b1e7c0 -->
<g id="edge16" class="edge">
<title>COMMENT_8b162a0+1&#45;&gt;CALL_8b1e7c0</title>
<path fill="none" stroke="black" d="M416.88,-325.42C411.64,-317.28 405.3,-307.41 399.52,-298.42"/>
<polygon fill="black" stroke="black" points="402.35,-296.34 394,-289.82 396.46,-300.13 402.35,-296.34"/>
</g>
<!-- CALL_8b20bc0 -->
<g id="node20" class="node">
<title>CALL_8b20bc0</title>
<g id="a_node20"><a xlink:href="WALL_VELOCITY_NO_GRADH.svg" xlink:title="WALL_VELOCITY_NO_GRADH">
<polygon fill="lightgray" stroke="black" points="487,-217.72 257,-217.72 257,-213.72 253,-213.72 253,-209.72 257,-209.72 257,-189.72 253,-189.72 253,-185.72 257,-185.72 257,-181.72 487,-181.72 487,-217.72"/>
<polyline fill="none" stroke="black" points="257,-213.72 261,-213.72 261,-209.72 257,-209.72 "/>
<polyline fill="none" stroke="black" points="257,-189.72 261,-189.72 261,-185.72 257,-185.72 "/>
<text text-anchor="middle" x="372" y="-196.02" font-family="Times,serif" font-size="14.00">WALL_VELOCITY_NO_GRADH</text>
</a>
</g>
</g>
<!-- CALL_8b1e7c0&#45;&gt;CALL_8b20bc0 -->
<g id="edge17" class="edge">
<title>CALL_8b1e7c0&#45;&gt;CALL_8b20bc0</title>
<path fill="none" stroke="black" d="M380.28,-253.42C379.07,-245.7 377.61,-236.43 376.26,-227.83"/>
<polygon fill="black" stroke="black" points="379.7,-227.16 374.69,-217.82 372.78,-228.25 379.7,-227.16"/>
</g>
<!-- CALL_8b20bc0&#45;&gt;endIf_IF_8b21080 -->
<g id="edge19" class="edge">
<title>CALL_8b20bc0&#45;&gt;endIf_IF_8b21080</title>
<path fill="none" stroke="black" d="M339.49,-181.66C310.88,-166.65 273.43,-146.99 271.11,-145.78"/>
</g>
<!-- end_SUBPROGRAM_8b2f5e0 -->
<g id="node22" class="node">
<title>end_SUBPROGRAM_8b2f5e0</title>
<ellipse fill="black" stroke="black" cx="271" cy="-30" rx="7" ry="7"/>
</g>
<!-- COMMENT_8b1eca0+1&#45;&gt;end_SUBPROGRAM_8b2f5e0 -->
<g id="edge22" class="edge">
<title>COMMENT_8b1eca0+1&#45;&gt;end_SUBPROGRAM_8b2f5e0</title>
<path fill="none" stroke="black" d="M271,-72.93C271,-64.89 271,-55.33 271,-47.37"/>
<polygon fill="black" stroke="black" points="274.5,-47.22 271,-37.22 267.5,-47.22 274.5,-47.22"/>
</g>
</g>
</svg>
