<?xml version="1.0" encoding="UTF-8" standalone="no"?>
<!DOCTYPE svg PUBLIC "-//W3C//DTD SVG 1.1//EN"
 "http://www.w3.org/Graphics/SVG/1.1/DTD/svg11.dtd">
<!-- Generated by graphviz version 2.43.0 (0)
 -->
<!-- Title: VELOCITY_PREDICTOR Pages: 1 -->
<svg width="1492pt" height="1205pt"
 viewBox="0.00 0.00 1491.50 1205.44" xmlns="http://www.w3.org/2000/svg" xmlns:xlink="http://www.w3.org/1999/xlink">
<g id="graph0" class="graph" transform="scale(1 1) rotate(0) translate(4 1201.44)">
<title>VELOCITY_PREDICTOR</title>
<polygon fill="white" stroke="transparent" points="-4,4 -4,-1201.44 1487.5,-1201.44 1487.5,4 -4,4"/>
<text text-anchor="middle" x="741.75" y="-7.8" font-family="Times,serif" font-size="14.00">VELOCITY_PREDICTOR</text>
<g id="clust1" class="cluster">
<title>cluster_FREEZE_VELOCITY_IF</title>
<polygon fill="none" stroke="blue" points="482.5,-281 482.5,-1189.44 1475.5,-1189.44 1475.5,-281 482.5,-281"/>
<text text-anchor="middle" x="573" y="-1174.24" font-family="Times,serif" font-size="14.00">FREEZE_VELOCITY_IF</text>
</g>
<g id="clust2" class="cluster">
<title>cluster_cond89b9e00</title>
<polygon fill="none" stroke="black" points="490.5,-317.72 490.5,-392.72 678.5,-392.72 678.5,-317.72 490.5,-317.72"/>
<text text-anchor="middle" x="547" y="-377.52" font-family="Times,serif" font-size="14.00">cond89b9e00</text>
</g>
<g id="clust3" class="cluster">
<title>cluster_cond89e4d60</title>
<polygon fill="none" stroke="black" points="1041.5,-317.72 1041.5,-1158.44 1467.5,-1158.44 1467.5,-317.72 1041.5,-317.72"/>
<text text-anchor="middle" x="1098" y="-1143.24" font-family="Times,serif" font-size="14.00">cond89e4d60</text>
</g>
<g id="clust4" class="cluster">
<title>cluster_omp_OMP_BEGIN_REGION_89bc540+1</title>
<polygon fill="none" stroke="red" points="1103.5,-608.72 1103.5,-1127.44 1405.5,-1127.44 1405.5,-608.72 1103.5,-608.72"/>
<text text-anchor="middle" x="1254.5" y="-1112.24" font-family="Times,serif" font-size="14.00">omp_OMP_BEGIN_REGION_89bc540+1</text>
</g>
<!-- start_SUBPROGRAM_89f58c0 -->
<g id="node1" class="node">
<title>start_SUBPROGRAM_89f58c0</title>
<ellipse fill="none" stroke="black" cx="237.5" cy="-825.72" rx="7" ry="7"/>
</g>
<!-- COMMENT_89b1b80+1 -->
<g id="node2" class="node">
<title>COMMENT_89b1b80+1</title>
<polygon fill="none" stroke="black" points="469,-771.72 0,-771.72 0,-688.72 475,-688.72 475,-765.72 469,-771.72"/>
<polyline fill="none" stroke="black" points="469,-771.72 469,-765.72 "/>
<polyline fill="none" stroke="black" points="475,-765.72 469,-765.72 "/>
<text text-anchor="middle" x="237.5" y="-756.52" font-family="Times,serif" font-size="14.00">!&gt; brief Estimate the velocity components at the next time step</text>
<text text-anchor="middle" x="237.5" y="-741.52" font-family="Times,serif" font-size="14.00">!&gt; param T Current time (s)</text>
<text text-anchor="middle" x="237.5" y="-726.52" font-family="Times,serif" font-size="14.00">!&gt; param DT Time step (s)</text>
<text text-anchor="middle" x="237.5" y="-711.52" font-family="Times,serif" font-size="14.00">!&gt; param DT_NEW New time step (if necessary)</text>
<text text-anchor="middle" x="237.5" y="-696.52" font-family="Times,serif" font-size="14.00">!&gt; param NM Mesh number</text>
</g>
<!-- start_SUBPROGRAM_89f58c0&#45;&gt;COMMENT_89b1b80+1 -->
<g id="edge1" class="edge">
<title>start_SUBPROGRAM_89f58c0&#45;&gt;COMMENT_89b1b80+1</title>
<path fill="none" stroke="black" d="M237.5,-818.59C237.5,-810.86 237.5,-796.83 237.5,-782.23"/>
<polygon fill="black" stroke="black" points="241,-782.11 237.5,-772.11 234,-782.11 241,-782.11"/>
</g>
<!-- CALL_89b6400 -->
<g id="node3" class="node">
<title>CALL_89b6400</title>
<g id="a_node3"><a xlink:href="COMPRESSION_WAVE.svg" xlink:title="COMPRESSION_WAVE">
<polygon fill="lightgray" stroke="black" points="401,-652.72 220,-652.72 220,-648.72 216,-648.72 216,-644.72 220,-644.72 220,-624.72 216,-624.72 216,-620.72 220,-620.72 220,-616.72 401,-616.72 401,-652.72"/>
<polyline fill="none" stroke="black" points="220,-648.72 224,-648.72 224,-644.72 220,-644.72 "/>
<polyline fill="none" stroke="black" points="220,-624.72 224,-624.72 224,-620.72 220,-620.72 "/>
<text text-anchor="middle" x="310.5" y="-631.02" font-family="Times,serif" font-size="14.00">COMPRESSION_WAVE</text>
</a>
</g>
</g>
<!-- COMMENT_89b1b80+1&#45;&gt;CALL_89b6400 -->
<g id="edge2" class="edge">
<title>COMMENT_89b1b80+1&#45;&gt;CALL_89b6400</title>
<path fill="none" stroke="black" d="M269.31,-688.48C276.57,-679.18 284.08,-669.56 290.67,-661.12"/>
<polygon fill="black" stroke="black" points="293.52,-663.16 296.91,-653.13 288,-658.85 293.52,-663.16"/>
</g>
<!-- CALL_89b78e0 -->
<g id="node4" class="node">
<title>CALL_89b78e0</title>
<g id="a_node4"><a xlink:href="CHECK_STABILITY.svg" xlink:title="CHECK_STABILITY">
<polygon fill="lightgray" stroke="black" points="430,-580.72 277,-580.72 277,-576.72 273,-576.72 273,-572.72 277,-572.72 277,-552.72 273,-552.72 273,-548.72 277,-548.72 277,-544.72 430,-544.72 430,-580.72"/>
<polyline fill="none" stroke="black" points="277,-576.72 281,-576.72 281,-572.72 277,-572.72 "/>
<polyline fill="none" stroke="black" points="277,-552.72 281,-552.72 281,-548.72 277,-548.72 "/>
<text text-anchor="middle" x="353.5" y="-559.02" font-family="Times,serif" font-size="14.00">CHECK_STABILITY</text>
</a>
</g>
</g>
<!-- CALL_89b6400&#45;&gt;CALL_89b78e0 -->
<g id="edge3" class="edge">
<title>CALL_89b6400&#45;&gt;CALL_89b78e0</title>
<path fill="none" stroke="black" d="M321.13,-616.42C326.13,-608.28 332.19,-598.41 337.71,-589.42"/>
<polygon fill="black" stroke="black" points="340.74,-591.18 342.99,-580.82 334.78,-587.51 340.74,-591.18"/>
</g>
<!-- CALL_89b8520 -->
<g id="node5" class="node">
<title>CALL_89b8520</title>
<g id="a_node5"><a xlink:href="POINT_TO_MESH.svg" xlink:title="POINT_TO_MESH">
<polygon fill="lightgray" stroke="black" points="449.5,-508.72 305.5,-508.72 305.5,-504.72 301.5,-504.72 301.5,-500.72 305.5,-500.72 305.5,-480.72 301.5,-480.72 301.5,-476.72 305.5,-476.72 305.5,-472.72 449.5,-472.72 449.5,-508.72"/>
<polyline fill="none" stroke="black" points="305.5,-504.72 309.5,-504.72 309.5,-500.72 305.5,-500.72 "/>
<polyline fill="none" stroke="black" points="305.5,-480.72 309.5,-480.72 309.5,-476.72 305.5,-476.72 "/>
<text text-anchor="middle" x="377.5" y="-487.02" font-family="Times,serif" font-size="14.00">POINT_TO_MESH</text>
</a>
</g>
</g>
<!-- CALL_89b78e0&#45;&gt;CALL_89b8520 -->
<g id="edge4" class="edge">
<title>CALL_89b78e0&#45;&gt;CALL_89b8520</title>
<path fill="none" stroke="black" d="M359.43,-544.42C362.11,-536.62 365.33,-527.23 368.3,-518.55"/>
<polygon fill="black" stroke="black" points="371.7,-519.42 371.64,-508.82 365.08,-517.15 371.7,-519.42"/>
</g>
<!-- beginIf_IF_89e4dc0 -->
<g id="node6" class="node">
<title>beginIf_IF_89e4dc0</title>
<ellipse fill="black" stroke="black" cx="584.5" cy="-418.72" rx="0.36" ry="0.36"/>
</g>
<!-- CALL_89b8520&#45;&gt;beginIf_IF_89e4dc0 -->
<g id="edge19" class="edge">
<title>CALL_89b8520&#45;&gt;beginIf_IF_89e4dc0</title>
<path fill="none" stroke="black" d="M427.87,-472.69C488.19,-452.29 581.53,-420.72 584.43,-419.74"/>
</g>
<!-- Empty_89b9e00 -->
<g id="node8" class="node">
<title>Empty_89b9e00</title>
<ellipse fill="none" stroke="black" cx="584.5" cy="-343.72" rx="86.38" ry="18"/>
<text text-anchor="middle" x="584.5" y="-340.02" font-family="Times,serif" font-size="14.00">Empty_89b9e00</text>
</g>
<!-- beginIf_IF_89e4dc0&#45;&gt;Empty_89b9e00 -->
<g id="edge5" class="edge">
<title>beginIf_IF_89e4dc0&#45;&gt;Empty_89b9e00</title>
<path fill="none" stroke="black" d="M584.5,-417.67C584.5,-416.39 584.5,-392.15 584.5,-371.96"/>
<polygon fill="black" stroke="black" points="588,-371.92 584.5,-361.92 581,-371.92 588,-371.92"/>
</g>
<!-- OMP_BEGIN_REGION_89bc540+1 -->
<g id="node20" class="node">
<title>OMP_BEGIN_REGION_89bc540+1</title>
<ellipse fill="none" stroke="black" cx="861.5" cy="-343.72" rx="172.47" ry="18"/>
<text text-anchor="middle" x="861.5" y="-340.02" font-family="Times,serif" font-size="14.00">OMP_BEGIN_REGION_89bc540+1</text>
</g>
<!-- beginIf_IF_89e4dc0&#45;&gt;OMP_BEGIN_REGION_89bc540+1 -->
<g id="edge17" class="edge">
<title>beginIf_IF_89e4dc0&#45;&gt;OMP_BEGIN_REGION_89bc540+1</title>
<path fill="none" stroke="black" d="M584.66,-417.68C587.9,-416.87 640.37,-403.74 682.5,-392.72 718.89,-383.2 759.37,-372.36 792.62,-363.4"/>
<polygon fill="black" stroke="black" points="793.95,-366.67 802.7,-360.68 792.13,-359.91 793.95,-366.67"/>
</g>
<!-- endIf_IF_89e4dc0 -->
<g id="node7" class="node">
<title>endIf_IF_89e4dc0</title>
<ellipse fill="black" stroke="black" cx="897.5" cy="-289.36" rx="0.36" ry="0.36"/>
</g>
<!-- COMMENT_89e3100+1 -->
<g id="node21" class="node">
<title>COMMENT_89e3100+1</title>
<polygon fill="none" stroke="black" points="1010.5,-253 778.5,-253 778.5,-217 1016.5,-217 1016.5,-247 1010.5,-253"/>
<polyline fill="none" stroke="black" points="1010.5,-253 1010.5,-247 "/>
<polyline fill="none" stroke="black" points="1016.5,-247 1010.5,-247 "/>
<text text-anchor="middle" x="897.5" y="-231.3" font-family="Times,serif" font-size="14.00">Manufactured solution (debug)</text>
</g>
<!-- endIf_IF_89e4dc0&#45;&gt;COMMENT_89e3100+1 -->
<g id="edge20" class="edge">
<title>endIf_IF_89e4dc0&#45;&gt;COMMENT_89e3100+1</title>
<path fill="none" stroke="black" d="M897.5,-288.21C897.5,-286.77 897.5,-275.23 897.5,-263.36"/>
<polygon fill="black" stroke="black" points="901,-263.1 897.5,-253.1 894,-263.1 901,-263.1"/>
</g>
<!-- Empty_89b9e00&#45;&gt;endIf_IF_89e4dc0 -->
<g id="edge6" class="edge">
<title>Empty_89b9e00&#45;&gt;endIf_IF_89e4dc0</title>
<path fill="none" stroke="black" d="M630.9,-328.44C644.82,-324.53 660.19,-320.59 674.5,-317.72 770.91,-298.38 893.6,-289.98 897.41,-289.73"/>
</g>
<!-- start_omp_OMP_BEGIN_REGION_89bc540+1 -->
<g id="node9" class="node">
<title>start_omp_OMP_BEGIN_REGION_89bc540+1</title>
<ellipse fill="black" stroke="black" cx="1254.5" cy="-1096.08" rx="0.36" ry="0.36"/>
</g>
<!-- COMMENT_89bc540+2 -->
<g id="node10" class="node">
<title>COMMENT_89bc540+2</title>
<polygon fill="none" stroke="black" points="1371.5,-1059.72 1131.5,-1059.72 1131.5,-1023.72 1377.5,-1023.72 1377.5,-1053.72 1371.5,-1059.72"/>
<polyline fill="none" stroke="black" points="1371.5,-1059.72 1371.5,-1053.72 "/>
<polyline fill="none" stroke="black" points="1377.5,-1053.72 1371.5,-1053.72 "/>
<text text-anchor="middle" x="1254.5" y="-1038.02" font-family="Times,serif" font-size="14.00">!$OMP DO SCHEDULE(STATIC)</text>
</g>
<!-- start_omp_OMP_BEGIN_REGION_89bc540+1&#45;&gt;COMMENT_89bc540+2 -->
<g id="edge7" class="edge">
<title>start_omp_OMP_BEGIN_REGION_89bc540+1&#45;&gt;COMMENT_89bc540+2</title>
<path fill="none" stroke="black" d="M1254.5,-1095.57C1254.5,-1094.09 1254.5,-1082.04 1254.5,-1069.82"/>
<polygon fill="black" stroke="black" points="1258,-1069.74 1254.5,-1059.74 1251,-1069.74 1258,-1069.74"/>
</g>
<!-- COMMENT_89c71e0+1 -->
<g id="node11" class="node">
<title>COMMENT_89c71e0+1</title>
<polygon fill="none" stroke="black" points="1347,-987.72 1156,-987.72 1156,-951.72 1353,-951.72 1353,-981.72 1347,-987.72"/>
<polyline fill="none" stroke="black" points="1347,-987.72 1347,-981.72 "/>
<polyline fill="none" stroke="black" points="1353,-981.72 1347,-981.72 "/>
<text text-anchor="middle" x="1254.5" y="-966.02" font-family="Times,serif" font-size="14.00">!$OMP END DO NOWAIT</text>
</g>
<!-- COMMENT_89bc540+2&#45;&gt;COMMENT_89c71e0+1 -->
<g id="edge8" class="edge">
<title>COMMENT_89bc540+2&#45;&gt;COMMENT_89c71e0+1</title>
<path fill="none" stroke="black" d="M1254.5,-1023.42C1254.5,-1015.7 1254.5,-1006.43 1254.5,-997.83"/>
<polygon fill="black" stroke="black" points="1258,-997.82 1254.5,-987.82 1251,-997.82 1258,-997.82"/>
</g>
<!-- COMMENT_89c71e0+2 -->
<g id="node12" class="node">
<title>COMMENT_89c71e0+2</title>
<polygon fill="none" stroke="black" points="1371.5,-915.72 1131.5,-915.72 1131.5,-879.72 1377.5,-879.72 1377.5,-909.72 1371.5,-915.72"/>
<polyline fill="none" stroke="black" points="1371.5,-915.72 1371.5,-909.72 "/>
<polyline fill="none" stroke="black" points="1377.5,-909.72 1371.5,-909.72 "/>
<text text-anchor="middle" x="1254.5" y="-894.02" font-family="Times,serif" font-size="14.00">!$OMP DO SCHEDULE(STATIC)</text>
</g>
<!-- COMMENT_89c71e0+1&#45;&gt;COMMENT_89c71e0+2 -->
<g id="edge9" class="edge">
<title>COMMENT_89c71e0+1&#45;&gt;COMMENT_89c71e0+2</title>
<path fill="none" stroke="black" d="M1254.5,-951.42C1254.5,-943.7 1254.5,-934.43 1254.5,-925.83"/>
<polygon fill="black" stroke="black" points="1258,-925.82 1254.5,-915.82 1251,-925.82 1258,-925.82"/>
</g>
<!-- COMMENT_89d1cc0+1 -->
<g id="node13" class="node">
<title>COMMENT_89d1cc0+1</title>
<polygon fill="none" stroke="black" points="1347,-843.72 1156,-843.72 1156,-807.72 1353,-807.72 1353,-837.72 1347,-843.72"/>
<polyline fill="none" stroke="black" points="1347,-843.72 1347,-837.72 "/>
<polyline fill="none" stroke="black" points="1353,-837.72 1347,-837.72 "/>
<text text-anchor="middle" x="1254.5" y="-822.02" font-family="Times,serif" font-size="14.00">!$OMP END DO NOWAIT</text>
</g>
<!-- COMMENT_89c71e0+2&#45;&gt;COMMENT_89d1cc0+1 -->
<g id="edge10" class="edge">
<title>COMMENT_89c71e0+2&#45;&gt;COMMENT_89d1cc0+1</title>
<path fill="none" stroke="black" d="M1254.5,-879.42C1254.5,-871.7 1254.5,-862.43 1254.5,-853.83"/>
<polygon fill="black" stroke="black" points="1258,-853.82 1254.5,-843.82 1251,-853.82 1258,-853.82"/>
</g>
<!-- COMMENT_89d1cc0+2 -->
<g id="node14" class="node">
<title>COMMENT_89d1cc0+2</title>
<polygon fill="none" stroke="black" points="1371.5,-748.22 1131.5,-748.22 1131.5,-712.22 1377.5,-712.22 1377.5,-742.22 1371.5,-748.22"/>
<polyline fill="none" stroke="black" points="1371.5,-748.22 1371.5,-742.22 "/>
<polyline fill="none" stroke="black" points="1377.5,-742.22 1371.5,-742.22 "/>
<text text-anchor="middle" x="1254.5" y="-726.52" font-family="Times,serif" font-size="14.00">!$OMP DO SCHEDULE(STATIC)</text>
</g>
<!-- COMMENT_89d1cc0+1&#45;&gt;COMMENT_89d1cc0+2 -->
<g id="edge11" class="edge">
<title>COMMENT_89d1cc0+1&#45;&gt;COMMENT_89d1cc0+2</title>
<path fill="none" stroke="black" d="M1254.5,-807.57C1254.5,-793.86 1254.5,-774.39 1254.5,-758.54"/>
<polygon fill="black" stroke="black" points="1258,-758.26 1254.5,-748.26 1251,-758.26 1258,-758.26"/>
</g>
<!-- COMMENT_89db760+1 -->
<g id="node15" class="node">
<title>COMMENT_89db760+1</title>
<polygon fill="none" stroke="black" points="1347,-652.72 1156,-652.72 1156,-616.72 1353,-616.72 1353,-646.72 1347,-652.72"/>
<polyline fill="none" stroke="black" points="1347,-652.72 1347,-646.72 "/>
<polyline fill="none" stroke="black" points="1353,-646.72 1347,-646.72 "/>
<text text-anchor="middle" x="1254.5" y="-631.02" font-family="Times,serif" font-size="14.00">!$OMP END DO NOWAIT</text>
</g>
<!-- COMMENT_89d1cc0+2&#45;&gt;COMMENT_89db760+1 -->
<g id="edge12" class="edge">
<title>COMMENT_89d1cc0+2&#45;&gt;COMMENT_89db760+1</title>
<path fill="none" stroke="black" d="M1254.5,-712.07C1254.5,-698.36 1254.5,-678.89 1254.5,-663.04"/>
<polygon fill="black" stroke="black" points="1258,-662.76 1254.5,-652.76 1251,-662.76 1258,-662.76"/>
</g>
<!-- COMMENT_89dbe60+1 -->
<g id="node16" class="node">
<title>COMMENT_89dbe60+1</title>
<polygon fill="none" stroke="black" points="1453.5,-580.72 1049.5,-580.72 1049.5,-544.72 1459.5,-544.72 1459.5,-574.72 1453.5,-580.72"/>
<polyline fill="none" stroke="black" points="1453.5,-580.72 1453.5,-574.72 "/>
<polyline fill="none" stroke="black" points="1459.5,-574.72 1453.5,-574.72 "/>
<text text-anchor="middle" x="1254.5" y="-559.02" font-family="Times,serif" font-size="14.00">!$OMP PARALLEL DO PRIVATE(I) SCHEDULE(STATIC)</text>
</g>
<!-- COMMENT_89db760+1&#45;&gt;COMMENT_89dbe60+1 -->
<g id="edge13" class="edge">
<title>COMMENT_89db760+1&#45;&gt;COMMENT_89dbe60+1</title>
<path fill="none" stroke="black" d="M1254.5,-616.42C1254.5,-608.7 1254.5,-599.43 1254.5,-590.83"/>
<polygon fill="black" stroke="black" points="1258,-590.82 1254.5,-580.82 1251,-590.82 1258,-590.82"/>
</g>
<!-- COMMENT_89d8c60+1 -->
<g id="node17" class="node">
<title>COMMENT_89d8c60+1</title>
<polygon fill="none" stroke="black" points="1343.5,-508.72 1137.5,-508.72 1137.5,-472.72 1349.5,-472.72 1349.5,-502.72 1343.5,-508.72"/>
<polyline fill="none" stroke="black" points="1343.5,-508.72 1343.5,-502.72 "/>
<polyline fill="none" stroke="black" points="1349.5,-502.72 1343.5,-502.72 "/>
<text text-anchor="middle" x="1243.5" y="-487.02" font-family="Times,serif" font-size="14.00">!$OMP END PARALLEL DO</text>
</g>
<!-- COMMENT_89dbe60+1&#45;&gt;COMMENT_89d8c60+1 -->
<g id="edge14" class="edge">
<title>COMMENT_89dbe60+1&#45;&gt;COMMENT_89d8c60+1</title>
<path fill="none" stroke="black" d="M1251.78,-544.42C1250.57,-536.7 1249.11,-527.43 1247.76,-518.83"/>
<polygon fill="black" stroke="black" points="1251.2,-518.16 1246.19,-508.82 1244.28,-519.25 1251.2,-518.16"/>
</g>
<!-- CALL_89e22a0 -->
<g id="node18" class="node">
<title>CALL_89e22a0</title>
<g id="a_node18"><a xlink:href="CC_PROJECT_VELOCITY.svg" xlink:title="CC_PROJECT_VELOCITY">
<polygon fill="lightgray" stroke="black" points="1317.5,-436.72 1125.5,-436.72 1125.5,-432.72 1121.5,-432.72 1121.5,-428.72 1125.5,-428.72 1125.5,-408.72 1121.5,-408.72 1121.5,-404.72 1125.5,-404.72 1125.5,-400.72 1317.5,-400.72 1317.5,-436.72"/>
<polyline fill="none" stroke="black" points="1125.5,-432.72 1129.5,-432.72 1129.5,-428.72 1125.5,-428.72 "/>
<polyline fill="none" stroke="black" points="1125.5,-408.72 1129.5,-408.72 1129.5,-404.72 1125.5,-404.72 "/>
<text text-anchor="middle" x="1221.5" y="-415.02" font-family="Times,serif" font-size="14.00">CC_PROJECT_VELOCITY</text>
</a>
</g>
</g>
<!-- COMMENT_89d8c60+1&#45;&gt;CALL_89e22a0 -->
<g id="edge15" class="edge">
<title>COMMENT_89d8c60+1&#45;&gt;CALL_89e22a0</title>
<path fill="none" stroke="black" d="M1238.06,-472.42C1235.61,-464.62 1232.66,-455.23 1229.93,-446.55"/>
<polygon fill="black" stroke="black" points="1233.21,-445.31 1226.88,-436.82 1226.54,-447.41 1233.21,-445.31"/>
</g>
<!-- CALL_89e4900 -->
<g id="node19" class="node">
<title>CALL_89e4900</title>
<g id="a_node19"><a xlink:href="WALL_VELOCITY_NO_GRADH.svg" xlink:title="WALL_VELOCITY_NO_GRADH">
<polygon fill="lightgray" stroke="black" points="1325.5,-361.72 1095.5,-361.72 1095.5,-357.72 1091.5,-357.72 1091.5,-353.72 1095.5,-353.72 1095.5,-333.72 1091.5,-333.72 1091.5,-329.72 1095.5,-329.72 1095.5,-325.72 1325.5,-325.72 1325.5,-361.72"/>
<polyline fill="none" stroke="black" points="1095.5,-357.72 1099.5,-357.72 1099.5,-353.72 1095.5,-353.72 "/>
<polyline fill="none" stroke="black" points="1095.5,-333.72 1099.5,-333.72 1099.5,-329.72 1095.5,-329.72 "/>
<text text-anchor="middle" x="1210.5" y="-340.02" font-family="Times,serif" font-size="14.00">WALL_VELOCITY_NO_GRADH</text>
</a>
</g>
</g>
<!-- CALL_89e22a0&#45;&gt;CALL_89e4900 -->
<g id="edge16" class="edge">
<title>CALL_89e22a0&#45;&gt;CALL_89e4900</title>
<path fill="none" stroke="black" d="M1218.89,-400.42C1217.61,-391.87 1216.02,-381.37 1214.58,-371.79"/>
<polygon fill="black" stroke="black" points="1218.04,-371.26 1213.09,-361.9 1211.12,-372.31 1218.04,-371.26"/>
</g>
<!-- CALL_89e4900&#45;&gt;endIf_IF_89e4dc0 -->
<g id="edge18" class="edge">
<title>CALL_89e4900&#45;&gt;endIf_IF_89e4dc0</title>
<path fill="none" stroke="black" d="M1132.86,-325.67C1119.11,-322.86 1104.91,-320.09 1091.5,-317.72 1007.06,-302.77 900.88,-290.12 897.58,-289.73"/>
</g>
<!-- COMMENT_89f57e0+1 -->
<g id="node22" class="node">
<title>COMMENT_89f57e0+1</title>
<polygon fill="none" stroke="black" points="1233,-181 556,-181 556,-145 1239,-145 1239,-175 1233,-181"/>
<polyline fill="none" stroke="black" points="1233,-181 1233,-175 "/>
<polyline fill="none" stroke="black" points="1239,-175 1233,-175 "/>
<text text-anchor="middle" x="897.5" y="-159.3" font-family="Times,serif" font-size="14.00">Check the stability criteria, and if the time step is too small, send back a signal to kill the job</text>
</g>
<!-- COMMENT_89e3100+1&#45;&gt;COMMENT_89f57e0+1 -->
<g id="edge21" class="edge">
<title>COMMENT_89e3100+1&#45;&gt;COMMENT_89f57e0+1</title>
<path fill="none" stroke="black" d="M897.5,-216.7C897.5,-208.98 897.5,-199.71 897.5,-191.11"/>
<polygon fill="black" stroke="black" points="901,-191.1 897.5,-181.1 894,-191.1 901,-191.1"/>
</g>
<!-- CALL_89f57e0 -->
<g id="node23" class="node">
<title>CALL_89f57e0</title>
<g id="a_node23"><a xlink:href="CHECK_STABILITY.svg" xlink:title="CHECK_STABILITY">
<polygon fill="lightgray" stroke="black" points="974,-109 821,-109 821,-105 817,-105 817,-101 821,-101 821,-81 817,-81 817,-77 821,-77 821,-73 974,-73 974,-109"/>
<polyline fill="none" stroke="black" points="821,-105 825,-105 825,-101 821,-101 "/>
<polyline fill="none" stroke="black" points="821,-81 825,-81 825,-77 821,-77 "/>
<text text-anchor="middle" x="897.5" y="-87.3" font-family="Times,serif" font-size="14.00">CHECK_STABILITY</text>
</a>
</g>
</g>
<!-- COMMENT_89f57e0+1&#45;&gt;CALL_89f57e0 -->
<g id="edge22" class="edge">
<title>COMMENT_89f57e0+1&#45;&gt;CALL_89f57e0</title>
<path fill="none" stroke="black" d="M897.5,-144.7C897.5,-136.98 897.5,-127.71 897.5,-119.11"/>
<polygon fill="black" stroke="black" points="901,-119.1 897.5,-109.1 894,-119.1 901,-119.1"/>
</g>
<!-- end_SUBPROGRAM_89f58c0 -->
<g id="node24" class="node">
<title>end_SUBPROGRAM_89f58c0</title>
<ellipse fill="black" stroke="black" cx="897.5" cy="-30" rx="7" ry="7"/>
</g>
<!-- CALL_89f57e0&#45;&gt;end_SUBPROGRAM_89f58c0 -->
<g id="edge23" class="edge">
<title>CALL_89f57e0&#45;&gt;end_SUBPROGRAM_89f58c0</title>
<path fill="none" stroke="black" d="M897.5,-72.93C897.5,-64.89 897.5,-55.33 897.5,-47.37"/>
<polygon fill="black" stroke="black" points="901,-47.22 897.5,-37.22 894,-47.22 901,-47.22"/>
</g>
</g>
</svg>
