<?xml version="1.0" encoding="UTF-8" standalone="no"?>
<!DOCTYPE svg PUBLIC "-//W3C//DTD SVG 1.1//EN"
 "http://www.w3.org/Graphics/SVG/1.1/DTD/svg11.dtd">
<!-- Generated by graphviz version 2.43.0 (0)
 -->
<!-- Title: VELOCITY_BC Pages: 1 -->
<svg width="1060pt" height="3394pt"
 viewBox="0.00 0.00 1060.00 3393.64" xmlns="http://www.w3.org/2000/svg" xmlns:xlink="http://www.w3.org/1999/xlink">
<g id="graph0" class="graph" transform="scale(1 1) rotate(0) translate(4 3389.64)">
<title>VELOCITY_BC</title>
<polygon fill="white" stroke="transparent" points="-4,4 -4,-3389.64 1056,-3389.64 1056,4 -4,4"/>
<text text-anchor="middle" x="526" y="-7.8" font-family="Times,serif" font-size="14.00">VELOCITY_BC</text>
<g id="clust1" class="cluster">
<title>cluster_EDGE_LOOP</title>
<polygon fill="none" stroke="orange" points="8,-137 8,-2971.64 1044,-2971.64 1044,-137 8,-137"/>
<text text-anchor="middle" x="62" y="-2956.44" font-family="Times,serif" font-size="14.00">EDGE_LOOP</text>
</g>
<g id="clust2" class="cluster">
<title>cluster_SIGN_LOOP</title>
<polygon fill="none" stroke="orange" points="16,-538.16 16,-2571.92 1036,-2571.92 1036,-538.16 16,-538.16"/>
<text text-anchor="middle" x="67.5" y="-2556.72" font-family="Times,serif" font-size="14.00">SIGN_LOOP</text>
</g>
<g id="clust3" class="cluster">
<title>cluster_ORIENTATION_LOOP</title>
<polygon fill="none" stroke="orange" points="24,-574.88 24,-2532.2 1028,-2532.2 1028,-574.88 24,-574.88"/>
<text text-anchor="middle" x="108.5" y="-2517" font-family="Times,serif" font-size="14.00">ORIENTATION_LOOP</text>
</g>
<g id="clust4" class="cluster">
<title>cluster_OPEN_AND_WIND_BC</title>
<polygon fill="none" stroke="blue" points="374,-1445.04 374,-1668.48 742,-1668.48 742,-1445.04 374,-1445.04"/>
<text text-anchor="middle" x="462.5" y="-1653.28" font-family="Times,serif" font-size="14.00">OPEN_AND_WIND_BC</text>
</g>
<g id="clust5" class="cluster">
<title>cluster_cond8f700e0</title>
<polygon fill="none" stroke="black" points="382,-1481.76 382,-1628.76 734,-1628.76 734,-1481.76 382,-1481.76"/>
<text text-anchor="middle" x="436.5" y="-1613.56" font-family="Times,serif" font-size="14.00">cond8f700e0</text>
</g>
<g id="clust6" class="cluster">
<title>cluster_INTERPOLATION_IF</title>
<polygon fill="none" stroke="blue" points="32,-683.6 32,-1301.04 1020,-1301.04 1020,-683.6 32,-683.6"/>
<text text-anchor="middle" x="113" y="-1285.84" font-family="Times,serif" font-size="14.00">INTERPOLATION_IF</text>
</g>
<g id="clust7" class="cluster">
<title>cluster_cond8fea520</title>
<polygon fill="none" stroke="black" points="40,-720.32 40,-1261.32 818,-1261.32 818,-720.32 40,-720.32"/>
<text text-anchor="middle" x="94" y="-1246.12" font-family="Times,serif" font-size="14.00">cond8fea520</text>
</g>
<g id="clust8" class="cluster">
<title>cluster_cond912aee0</title>
<polygon fill="none" stroke="black" points="826,-1177.82 826,-1252.82 1012,-1252.82 1012,-1177.82 826,-1177.82"/>
<text text-anchor="middle" x="881.5" y="-1237.62" font-family="Times,serif" font-size="14.00">cond912aee0</text>
</g>
<g id="clust9" class="cluster">
<title>cluster_SIGN_LOOP_2</title>
<polygon fill="none" stroke="orange" points="551,-173.72 551,-322.16 751,-322.16 751,-173.72 551,-173.72"/>
<text text-anchor="middle" x="610.5" y="-306.96" font-family="Times,serif" font-size="14.00">SIGN_LOOP_2</text>
</g>
<!-- start_SUBPROGRAM_915fea0 -->
<g id="node1" class="node">
<title>start_SUBPROGRAM_915fea0</title>
<ellipse fill="none" stroke="black" cx="558" cy="-3378.64" rx="7" ry="7"/>
</g>
<!-- COMMENT_8d3fe00+1 -->
<g id="node2" class="node">
<title>COMMENT_8d3fe00+1</title>
<polygon fill="none" stroke="black" points="959,-3335.64 151,-3335.64 151,-3267.64 965,-3267.64 965,-3329.64 959,-3335.64"/>
<polyline fill="none" stroke="black" points="959,-3335.64 959,-3329.64 "/>
<polyline fill="none" stroke="black" points="965,-3329.64 959,-3329.64 "/>
<text text-anchor="middle" x="558" y="-3320.44" font-family="Times,serif" font-size="14.00">!&gt; brief Assert tangential velocity boundary conditions</text>
<text text-anchor="middle" x="558" y="-3305.44" font-family="Times,serif" font-size="14.00">!&gt; param T Current time (s)</text>
<text text-anchor="middle" x="558" y="-3290.44" font-family="Times,serif" font-size="14.00">!&gt; param NM Mesh number</text>
<text text-anchor="middle" x="558" y="-3275.44" font-family="Times,serif" font-size="14.00">!&gt; param APPLY_TO_ESTIMATED_VARIABLES Flag indicating that estimated (starred) variables are to be used</text>
</g>
<!-- start_SUBPROGRAM_915fea0&#45;&gt;COMMENT_8d3fe00+1 -->
<g id="edge1" class="edge">
<title>start_SUBPROGRAM_915fea0&#45;&gt;COMMENT_8d3fe00+1</title>
<path fill="none" stroke="black" d="M558,-3371.5C558,-3365.57 558,-3356.02 558,-3345.9"/>
<polygon fill="black" stroke="black" points="561.5,-3345.69 558,-3335.69 554.5,-3345.69 561.5,-3345.69"/>
</g>
<!-- COMMENT_8d55700+1 -->
<g id="node3" class="node">
<title>COMMENT_8d55700+1</title>
<polygon fill="none" stroke="black" points="672.5,-3231.64 437.5,-3231.64 437.5,-3195.64 678.5,-3195.64 678.5,-3225.64 672.5,-3231.64"/>
<polyline fill="none" stroke="black" points="672.5,-3231.64 672.5,-3225.64 "/>
<polyline fill="none" stroke="black" points="678.5,-3225.64 672.5,-3225.64 "/>
<text text-anchor="middle" x="558" y="-3209.94" font-family="Times,serif" font-size="14.00">Assign local names to variables</text>
</g>
<!-- COMMENT_8d3fe00+1&#45;&gt;COMMENT_8d55700+1 -->
<g id="edge2" class="edge">
<title>COMMENT_8d3fe00+1&#45;&gt;COMMENT_8d55700+1</title>
<path fill="none" stroke="black" d="M558,-3267.64C558,-3259.2 558,-3250.23 558,-3242.11"/>
<polygon fill="black" stroke="black" points="561.5,-3242.04 558,-3232.04 554.5,-3242.04 561.5,-3242.04"/>
</g>
<!-- CALL_8d55700 -->
<g id="node4" class="node">
<title>CALL_8d55700</title>
<g id="a_node4"><a xlink:href="POINT_TO_MESH.svg" xlink:title="POINT_TO_MESH">
<polygon fill="lightgray" stroke="black" points="630,-3159.64 486,-3159.64 486,-3155.64 482,-3155.64 482,-3151.64 486,-3151.64 486,-3131.64 482,-3131.64 482,-3127.64 486,-3127.64 486,-3123.64 630,-3123.64 630,-3159.64"/>
<polyline fill="none" stroke="black" points="486,-3155.64 490,-3155.64 490,-3151.64 486,-3151.64 "/>
<polyline fill="none" stroke="black" points="486,-3131.64 490,-3131.64 490,-3127.64 486,-3127.64 "/>
<text text-anchor="middle" x="558" y="-3137.94" font-family="Times,serif" font-size="14.00">POINT_TO_MESH</text>
</a>
</g>
</g>
<!-- COMMENT_8d55700+1&#45;&gt;CALL_8d55700 -->
<g id="edge3" class="edge">
<title>COMMENT_8d55700+1&#45;&gt;CALL_8d55700</title>
<path fill="none" stroke="black" d="M558,-3195.34C558,-3187.62 558,-3178.35 558,-3169.75"/>
<polygon fill="black" stroke="black" points="561.5,-3169.74 558,-3159.74 554.5,-3169.74 561.5,-3169.74"/>
</g>
<!-- COMMENT_8d54a00+1 -->
<g id="node5" class="node">
<title>COMMENT_8d54a00+1</title>
<polygon fill="none" stroke="black" points="694,-3087.64 416,-3087.64 416,-3051.64 700,-3051.64 700,-3081.64 694,-3087.64"/>
<polyline fill="none" stroke="black" points="694,-3087.64 694,-3081.64 "/>
<polyline fill="none" stroke="black" points="700,-3081.64 694,-3081.64 "/>
<text text-anchor="middle" x="558" y="-3065.94" font-family="Times,serif" font-size="14.00">Point to the appropriate velocity field</text>
</g>
<!-- CALL_8d55700&#45;&gt;COMMENT_8d54a00+1 -->
<g id="edge4" class="edge">
<title>CALL_8d55700&#45;&gt;COMMENT_8d54a00+1</title>
<path fill="none" stroke="black" d="M558,-3123.34C558,-3115.62 558,-3106.35 558,-3097.75"/>
<polygon fill="black" stroke="black" points="561.5,-3097.74 558,-3087.74 554.5,-3097.74 561.5,-3097.74"/>
</g>
<!-- COMMENT_8d59760+1 -->
<g id="node6" class="node">
<title>COMMENT_8d59760+1</title>
<polygon fill="none" stroke="black" points="803.5,-3015.64 306.5,-3015.64 306.5,-2979.64 809.5,-2979.64 809.5,-3009.64 803.5,-3015.64"/>
<polyline fill="none" stroke="black" points="803.5,-3015.64 803.5,-3009.64 "/>
<polyline fill="none" stroke="black" points="809.5,-3009.64 803.5,-3009.64 "/>
<text text-anchor="middle" x="558" y="-2993.94" font-family="Times,serif" font-size="14.00">Loop over all cell edges and determine the appropriate velocity BCs</text>
</g>
<!-- COMMENT_8d54a00+1&#45;&gt;COMMENT_8d59760+1 -->
<g id="edge5" class="edge">
<title>COMMENT_8d54a00+1&#45;&gt;COMMENT_8d59760+1</title>
<path fill="none" stroke="black" d="M558,-3051.34C558,-3043.62 558,-3034.35 558,-3025.75"/>
<polygon fill="black" stroke="black" points="561.5,-3025.74 558,-3015.74 554.5,-3025.74 561.5,-3025.74"/>
</g>
<!-- beginDO_DO_915d400 -->
<g id="node7" class="node">
<title>beginDO_DO_915d400</title>
<ellipse fill="black" stroke="black" cx="558" cy="-2940.28" rx="0.36" ry="0.36"/>
</g>
<!-- COMMENT_8d59760+1&#45;&gt;beginDO_DO_915d400 -->
<g id="edge50" class="edge">
<title>COMMENT_8d59760+1&#45;&gt;beginDO_DO_915d400</title>
<path fill="none" stroke="black" d="M558,-2979.43C558,-2963.68 558,-2942.64 558,-2941.34"/>
</g>
<!-- COMMENT_8d5cf60+1 -->
<g id="node9" class="node">
<title>COMMENT_8d5cf60+1</title>
<polygon fill="none" stroke="black" points="889.5,-2903.92 220.5,-2903.92 220.5,-2867.92 895.5,-2867.92 895.5,-2897.92 889.5,-2903.92"/>
<polyline fill="none" stroke="black" points="889.5,-2903.92 889.5,-2897.92 "/>
<polyline fill="none" stroke="black" points="895.5,-2897.92 889.5,-2897.92 "/>
<text text-anchor="middle" x="558" y="-2882.22" font-family="Times,serif" font-size="14.00">Throw out edges that are completely surrounded by blockages or the exterior of the domain</text>
</g>
<!-- beginDO_DO_915d400&#45;&gt;COMMENT_8d5cf60+1 -->
<g id="edge6" class="edge">
<title>beginDO_DO_915d400&#45;&gt;COMMENT_8d5cf60+1</title>
<path fill="none" stroke="black" d="M558,-2939.77C558,-2938.29 558,-2926.24 558,-2914.02"/>
<polygon fill="black" stroke="black" points="561.5,-2913.94 558,-2903.94 554.5,-2913.94 561.5,-2913.94"/>
</g>
<!-- endDO_DO_915d400 -->
<g id="node8" class="node">
<title>endDO_DO_915d400</title>
<ellipse fill="black" stroke="black" cx="651" cy="-145.36" rx="0.36" ry="0.36"/>
</g>
<!-- CALL_915fc60 -->
<g id="node52" class="node">
<title>CALL_915fc60</title>
<g id="a_node52"><a xlink:href="CC_VELOCITY_BC.svg" xlink:title="CC_VELOCITY_BC">
<polygon fill="lightgray" stroke="black" points="724,-109 578,-109 578,-105 574,-105 574,-101 578,-101 578,-81 574,-81 574,-77 578,-77 578,-73 724,-73 724,-109"/>
<polyline fill="none" stroke="black" points="578,-105 582,-105 582,-101 578,-101 "/>
<polyline fill="none" stroke="black" points="578,-81 582,-81 582,-77 578,-77 "/>
<text text-anchor="middle" x="651" y="-87.3" font-family="Times,serif" font-size="14.00">CC_VELOCITY_BC</text>
</a>
</g>
</g>
<!-- endDO_DO_915d400&#45;&gt;CALL_915fc60 -->
<g id="edge52" class="edge">
<title>endDO_DO_915d400&#45;&gt;CALL_915fc60</title>
<path fill="none" stroke="black" d="M651,-144.21C651,-142.77 651,-131.23 651,-119.36"/>
<polygon fill="black" stroke="black" points="654.5,-119.1 651,-109.1 647.5,-119.1 654.5,-119.1"/>
</g>
<!-- COMMENT_8d60e80+1 -->
<g id="node10" class="node">
<title>COMMENT_8d60e80+1</title>
<polygon fill="none" stroke="black" points="660.5,-2831.92 449.5,-2831.92 449.5,-2795.92 666.5,-2795.92 666.5,-2825.92 660.5,-2831.92"/>
<polyline fill="none" stroke="black" points="660.5,-2831.92 660.5,-2825.92 "/>
<polyline fill="none" stroke="black" points="666.5,-2825.92 660.5,-2825.92 "/>
<text text-anchor="middle" x="558" y="-2810.22" font-family="Times,serif" font-size="14.00">Unpack indices for the edge</text>
</g>
<!-- COMMENT_8d5cf60+1&#45;&gt;COMMENT_8d60e80+1 -->
<g id="edge7" class="edge">
<title>COMMENT_8d5cf60+1&#45;&gt;COMMENT_8d60e80+1</title>
<path fill="none" stroke="black" d="M558,-2867.62C558,-2859.9 558,-2850.63 558,-2842.03"/>
<polygon fill="black" stroke="black" points="561.5,-2842.02 558,-2832.02 554.5,-2842.02 561.5,-2842.02"/>
</g>
<!-- COMMENT_8d68720+1 -->
<g id="node11" class="node">
<title>COMMENT_8d68720+1</title>
<polygon fill="none" stroke="black" points="765,-2759.92 345,-2759.92 345,-2723.92 771,-2723.92 771,-2753.92 765,-2759.92"/>
<polyline fill="none" stroke="black" points="765,-2759.92 765,-2753.92 "/>
<polyline fill="none" stroke="black" points="771,-2753.92 765,-2753.92 "/>
<text text-anchor="middle" x="558" y="-2738.22" font-family="Times,serif" font-size="14.00">Get the velocity components at the appropriate cell faces</text>
</g>
<!-- COMMENT_8d60e80+1&#45;&gt;COMMENT_8d68720+1 -->
<g id="edge8" class="edge">
<title>COMMENT_8d60e80+1&#45;&gt;COMMENT_8d68720+1</title>
<path fill="none" stroke="black" d="M558,-2795.62C558,-2787.9 558,-2778.63 558,-2770.03"/>
<polygon fill="black" stroke="black" points="561.5,-2770.02 558,-2760.02 554.5,-2770.02 561.5,-2770.02"/>
</g>
<!-- COMMENT_8d88c60+1 -->
<g id="node12" class="node">
<title>COMMENT_8d88c60+1</title>
<polygon fill="none" stroke="black" points="901.5,-2687.92 208.5,-2687.92 208.5,-2651.92 907.5,-2651.92 907.5,-2681.92 901.5,-2687.92"/>
<polyline fill="none" stroke="black" points="901.5,-2687.92 901.5,-2681.92 "/>
<polyline fill="none" stroke="black" points="907.5,-2681.92 901.5,-2681.92 "/>
<text text-anchor="middle" x="558" y="-2666.22" font-family="Times,serif" font-size="14.00">Indicate that the velocity gradients in the two orthogonal directions have not been changed yet</text>
</g>
<!-- COMMENT_8d68720+1&#45;&gt;COMMENT_8d88c60+1 -->
<g id="edge9" class="edge">
<title>COMMENT_8d68720+1&#45;&gt;COMMENT_8d88c60+1</title>
<path fill="none" stroke="black" d="M558,-2723.62C558,-2715.9 558,-2706.63 558,-2698.03"/>
<polygon fill="black" stroke="black" points="561.5,-2698.02 558,-2688.02 554.5,-2698.02 561.5,-2698.02"/>
</g>
<!-- COMMENT_8d89fe0+1 -->
<g id="node13" class="node">
<title>COMMENT_8d89fe0+1</title>
<polygon fill="none" stroke="black" points="877.5,-2615.92 232.5,-2615.92 232.5,-2579.92 883.5,-2579.92 883.5,-2609.92 877.5,-2615.92"/>
<polyline fill="none" stroke="black" points="877.5,-2615.92 877.5,-2609.92 "/>
<polyline fill="none" stroke="black" points="883.5,-2609.92 877.5,-2609.92 "/>
<text text-anchor="middle" x="558" y="-2594.22" font-family="Times,serif" font-size="14.00">Loop over all possible orientations of edge and reassign velocity gradients if appropriate</text>
</g>
<!-- COMMENT_8d88c60+1&#45;&gt;COMMENT_8d89fe0+1 -->
<g id="edge10" class="edge">
<title>COMMENT_8d88c60+1&#45;&gt;COMMENT_8d89fe0+1</title>
<path fill="none" stroke="black" d="M558,-2651.62C558,-2643.9 558,-2634.63 558,-2626.03"/>
<polygon fill="black" stroke="black" points="561.5,-2626.02 558,-2616.02 554.5,-2626.02 561.5,-2626.02"/>
</g>
<!-- beginDO_DO_9146540 -->
<g id="node14" class="node">
<title>beginDO_DO_9146540</title>
<ellipse fill="black" stroke="black" cx="558" cy="-2540.56" rx="0.36" ry="0.36"/>
</g>
<!-- COMMENT_8d89fe0+1&#45;&gt;beginDO_DO_9146540 -->
<g id="edge42" class="edge">
<title>COMMENT_8d89fe0+1&#45;&gt;beginDO_DO_9146540</title>
<path fill="none" stroke="black" d="M558,-2579.71C558,-2563.96 558,-2542.92 558,-2541.62"/>
</g>
<!-- beginDO_DO_91462c0 -->
<g id="node16" class="node">
<title>beginDO_DO_91462c0</title>
<ellipse fill="black" stroke="black" cx="558" cy="-2500.84" rx="0.36" ry="0.36"/>
</g>
<!-- beginDO_DO_9146540&#45;&gt;beginDO_DO_91462c0 -->
<g id="edge40" class="edge">
<title>beginDO_DO_9146540&#45;&gt;beginDO_DO_91462c0</title>
<path fill="none" stroke="black" d="M558,-2540.09C558,-2537.91 558,-2504.06 558,-2501.94"/>
</g>
<!-- endDO_DO_9146540 -->
<g id="node15" class="node">
<title>endDO_DO_9146540</title>
<ellipse fill="black" stroke="black" cx="651" cy="-546.52" rx="0.36" ry="0.36"/>
</g>
<!-- COMMENT_9146400+1 -->
<g id="node46" class="node">
<title>COMMENT_9146400+1</title>
<polygon fill="none" stroke="black" points="919,-510.16 377,-510.16 377,-474.16 925,-474.16 925,-504.16 919,-510.16"/>
<polyline fill="none" stroke="black" points="919,-510.16 919,-504.16 "/>
<polyline fill="none" stroke="black" points="925,-504.16 919,-504.16 "/>
<text text-anchor="middle" x="651" y="-488.46" font-family="Times,serif" font-size="14.00">Cycle out of the EDGE_LOOP if no tangential gradients have been altered.</text>
</g>
<!-- endDO_DO_9146540&#45;&gt;COMMENT_9146400+1 -->
<g id="edge44" class="edge">
<title>endDO_DO_9146540&#45;&gt;COMMENT_9146400+1</title>
<path fill="none" stroke="black" d="M651,-545.37C651,-543.93 651,-532.39 651,-520.52"/>
<polygon fill="black" stroke="black" points="654.5,-520.26 651,-510.26 647.5,-520.26 654.5,-520.26"/>
</g>
<!-- COMMENT_8d8bce0+1 -->
<g id="node18" class="node">
<title>COMMENT_8d8bce0+1</title>
<polygon fill="none" stroke="black" points="771,-2464.48 339,-2464.48 339,-2428.48 777,-2428.48 777,-2458.48 771,-2464.48"/>
<polyline fill="none" stroke="black" points="771,-2464.48 771,-2458.48 "/>
<polyline fill="none" stroke="black" points="777,-2458.48 771,-2458.48 "/>
<text text-anchor="middle" x="558" y="-2442.78" font-family="Times,serif" font-size="14.00">IOR is the orientation of the wall cells adjacent to the edge</text>
</g>
<!-- beginDO_DO_91462c0&#45;&gt;COMMENT_8d8bce0+1 -->
<g id="edge11" class="edge">
<title>beginDO_DO_91462c0&#45;&gt;COMMENT_8d8bce0+1</title>
<path fill="none" stroke="black" d="M558,-2500.33C558,-2498.85 558,-2486.8 558,-2474.58"/>
<polygon fill="black" stroke="black" points="561.5,-2474.5 558,-2464.5 554.5,-2474.5 561.5,-2474.5"/>
</g>
<!-- endDO_DO_91462c0 -->
<g id="node17" class="node">
<title>endDO_DO_91462c0</title>
<ellipse fill="black" stroke="black" cx="651" cy="-583.24" rx="0.36" ry="0.36"/>
</g>
<!-- endDO_DO_91462c0&#45;&gt;endDO_DO_9146540 -->
<g id="edge43" class="edge">
<title>endDO_DO_91462c0&#45;&gt;endDO_DO_9146540</title>
<path fill="none" stroke="black" d="M651,-582.14C651,-580.13 651,-548.92 651,-546.98"/>
</g>
<!-- COMMENT_8d8c520+1 -->
<g id="node19" class="node">
<title>COMMENT_8d8c520+1</title>
<polygon fill="none" stroke="black" points="737.5,-2392.48 372.5,-2392.48 372.5,-2356.48 743.5,-2356.48 743.5,-2386.48 737.5,-2392.48"/>
<polyline fill="none" stroke="black" points="737.5,-2392.48 737.5,-2386.48 "/>
<polyline fill="none" stroke="black" points="743.5,-2386.48 737.5,-2386.48 "/>
<text text-anchor="middle" x="558" y="-2370.78" font-family="Times,serif" font-size="14.00">IS2 is the other coordinate direction besides IOR.</text>
</g>
<!-- COMMENT_8d8bce0+1&#45;&gt;COMMENT_8d8c520+1 -->
<g id="edge12" class="edge">
<title>COMMENT_8d8bce0+1&#45;&gt;COMMENT_8d8c520+1</title>
<path fill="none" stroke="black" d="M558,-2428.18C558,-2420.46 558,-2411.19 558,-2402.59"/>
<polygon fill="black" stroke="black" points="561.5,-2402.58 558,-2392.58 554.5,-2402.58 561.5,-2402.58"/>
</g>
<!-- COMMENT_8d92ca0+1 -->
<g id="node20" class="node">
<title>COMMENT_8d92ca0+1</title>
<polygon fill="none" stroke="black" points="757,-2320.48 353,-2320.48 353,-2252.48 763,-2252.48 763,-2314.48 757,-2320.48"/>
<polyline fill="none" stroke="black" points="757,-2320.48 757,-2314.48 "/>
<polyline fill="none" stroke="black" points="763,-2314.48 757,-2314.48 "/>
<text text-anchor="middle" x="558" y="-2305.28" font-family="Times,serif" font-size="14.00">Determine Index_Coordinate_Direction</text>
<text text-anchor="middle" x="558" y="-2290.28" font-family="Times,serif" font-size="14.00">IEC=1, ICD=1 refers to DWDY; ICD=2 refers to DVDZ</text>
<text text-anchor="middle" x="558" y="-2275.28" font-family="Times,serif" font-size="14.00">IEC=2, ICD=1 refers to DUDZ; ICD=2 refers to DWDX</text>
<text text-anchor="middle" x="558" y="-2260.28" font-family="Times,serif" font-size="14.00">IEC=3, ICD=1 refers to DVDX; ICD=2 refers to DUDY</text>
</g>
<!-- COMMENT_8d8c520+1&#45;&gt;COMMENT_8d92ca0+1 -->
<g id="edge13" class="edge">
<title>COMMENT_8d8c520+1&#45;&gt;COMMENT_8d92ca0+1</title>
<path fill="none" stroke="black" d="M558,-2356.08C558,-2348.66 558,-2339.64 558,-2330.62"/>
<polygon fill="black" stroke="black" points="561.5,-2330.51 558,-2320.51 554.5,-2330.51 561.5,-2330.51"/>
</g>
<!-- COMMENT_8d93d00+1 -->
<g id="node21" class="node">
<title>COMMENT_8d93d00+1</title>
<polygon fill="none" stroke="black" points="851,-2216.48 259,-2216.48 259,-2180.48 857,-2180.48 857,-2210.48 851,-2216.48"/>
<polyline fill="none" stroke="black" points="851,-2216.48 851,-2210.48 "/>
<polyline fill="none" stroke="black" points="857,-2210.48 851,-2210.48 "/>
<text text-anchor="middle" x="558" y="-2194.78" font-family="Times,serif" font-size="14.00">IWM and IWP are the wall cell indices of the boundary on either side of the edge.</text>
</g>
<!-- COMMENT_8d92ca0+1&#45;&gt;COMMENT_8d93d00+1 -->
<g id="edge14" class="edge">
<title>COMMENT_8d92ca0+1&#45;&gt;COMMENT_8d93d00+1</title>
<path fill="none" stroke="black" d="M558,-2252.48C558,-2244.04 558,-2235.07 558,-2226.95"/>
<polygon fill="black" stroke="black" points="561.5,-2226.88 558,-2216.88 554.5,-2226.88 561.5,-2226.88"/>
</g>
<!-- COMMENT_8d9bf80+1 -->
<g id="node22" class="node">
<title>COMMENT_8d9bf80+1</title>
<polygon fill="none" stroke="black" points="782,-2144.48 328,-2144.48 328,-2108.48 788,-2108.48 788,-2138.48 782,-2144.48"/>
<polyline fill="none" stroke="black" points="782,-2144.48 782,-2138.48 "/>
<polyline fill="none" stroke="black" points="788,-2138.48 782,-2138.48 "/>
<text text-anchor="middle" x="558" y="-2122.78" font-family="Times,serif" font-size="14.00">If both adjacent wall cells are undefined, cycle out of the loop.</text>
</g>
<!-- COMMENT_8d93d00+1&#45;&gt;COMMENT_8d9bf80+1 -->
<g id="edge15" class="edge">
<title>COMMENT_8d93d00+1&#45;&gt;COMMENT_8d9bf80+1</title>
<path fill="none" stroke="black" d="M558,-2180.18C558,-2172.46 558,-2163.19 558,-2154.59"/>
<polygon fill="black" stroke="black" points="561.5,-2154.58 558,-2144.58 554.5,-2154.58 561.5,-2154.58"/>
</g>
<!-- COMMENT_8d9be60+1 -->
<g id="node23" class="node">
<title>COMMENT_8d9be60+1</title>
<polygon fill="none" stroke="black" points="854,-2072.48 256,-2072.48 256,-2036.48 860,-2036.48 860,-2066.48 854,-2072.48"/>
<polyline fill="none" stroke="black" points="854,-2072.48 854,-2066.48 "/>
<polyline fill="none" stroke="black" points="860,-2066.48 854,-2066.48 "/>
<text text-anchor="middle" x="558" y="-2050.78" font-family="Times,serif" font-size="14.00">If there is a solid wall separating the two adjacent wall cells, cycle out of the loop.</text>
</g>
<!-- COMMENT_8d9bf80+1&#45;&gt;COMMENT_8d9be60+1 -->
<g id="edge16" class="edge">
<title>COMMENT_8d9bf80+1&#45;&gt;COMMENT_8d9be60+1</title>
<path fill="none" stroke="black" d="M558,-2108.18C558,-2100.46 558,-2091.19 558,-2082.59"/>
<polygon fill="black" stroke="black" points="561.5,-2082.58 558,-2072.58 554.5,-2082.58 561.5,-2082.58"/>
</g>
<!-- COMMENT_8da3680+1 -->
<g id="node24" class="node">
<title>COMMENT_8da3680+1</title>
<polygon fill="none" stroke="black" points="768.5,-2000.48 341.5,-2000.48 341.5,-1964.48 774.5,-1964.48 774.5,-1994.48 768.5,-2000.48"/>
<polyline fill="none" stroke="black" points="768.5,-2000.48 768.5,-1994.48 "/>
<polyline fill="none" stroke="black" points="774.5,-1994.48 768.5,-1994.48 "/>
<text text-anchor="middle" x="558" y="-1978.78" font-family="Times,serif" font-size="14.00">If only one adjacent wall cell is defined, use its properties.</text>
</g>
<!-- COMMENT_8d9be60+1&#45;&gt;COMMENT_8da3680+1 -->
<g id="edge17" class="edge">
<title>COMMENT_8d9be60+1&#45;&gt;COMMENT_8da3680+1</title>
<path fill="none" stroke="black" d="M558,-2036.18C558,-2028.46 558,-2019.19 558,-2010.59"/>
<polygon fill="black" stroke="black" points="561.5,-2010.58 558,-2000.58 554.5,-2010.58 561.5,-2010.58"/>
</g>
<!-- COMMENT_8da9a20+1 -->
<g id="node25" class="node">
<title>COMMENT_8da9a20+1</title>
<polygon fill="none" stroke="black" points="727.5,-1928.48 382.5,-1928.48 382.5,-1892.48 733.5,-1892.48 733.5,-1922.48 727.5,-1928.48"/>
<polyline fill="none" stroke="black" points="727.5,-1928.48 727.5,-1922.48 "/>
<polyline fill="none" stroke="black" points="733.5,-1922.48 727.5,-1922.48 "/>
<text text-anchor="middle" x="558" y="-1906.78" font-family="Times,serif" font-size="14.00">If both adjacent wall cells are NULL, cycle out.</text>
</g>
<!-- COMMENT_8da3680+1&#45;&gt;COMMENT_8da9a20+1 -->
<g id="edge18" class="edge">
<title>COMMENT_8da3680+1&#45;&gt;COMMENT_8da9a20+1</title>
<path fill="none" stroke="black" d="M558,-1964.18C558,-1956.46 558,-1947.19 558,-1938.59"/>
<polygon fill="black" stroke="black" points="561.5,-1938.58 558,-1928.58 554.5,-1938.58 561.5,-1938.58"/>
</g>
<!-- COMMENT_8da7520+1 -->
<g id="node26" class="node">
<title>COMMENT_8da7520+1</title>
<polygon fill="none" stroke="black" points="667.5,-1856.48 442.5,-1856.48 442.5,-1820.48 673.5,-1820.48 673.5,-1850.48 667.5,-1856.48"/>
<polyline fill="none" stroke="black" points="667.5,-1856.48 667.5,-1850.48 "/>
<polyline fill="none" stroke="black" points="673.5,-1850.48 667.5,-1850.48 "/>
<text text-anchor="middle" x="558" y="-1834.78" font-family="Times,serif" font-size="14.00">Set up synthetic eddy method</text>
</g>
<!-- COMMENT_8da9a20+1&#45;&gt;COMMENT_8da7520+1 -->
<g id="edge19" class="edge">
<title>COMMENT_8da9a20+1&#45;&gt;COMMENT_8da7520+1</title>
<path fill="none" stroke="black" d="M558,-1892.18C558,-1884.46 558,-1875.19 558,-1866.59"/>
<polygon fill="black" stroke="black" points="561.5,-1866.58 558,-1856.58 554.5,-1866.58 561.5,-1866.58"/>
</g>
<!-- IF_8de18c0 -->
<g id="node27" class="node">
<title>IF_8de18c0</title>
<polygon fill="none" stroke="blue" points="653,-1784.48 463,-1784.48 463,-1748.48 653,-1748.48 653,-1784.48"/>
<text text-anchor="middle" x="558" y="-1762.78" font-family="Times,serif" font-size="14.00">SYNTHETIC_EDDY_IF_1</text>
</g>
<!-- COMMENT_8da7520+1&#45;&gt;IF_8de18c0 -->
<g id="edge20" class="edge">
<title>COMMENT_8da7520+1&#45;&gt;IF_8de18c0</title>
<path fill="none" stroke="black" d="M558,-1820.18C558,-1812.46 558,-1803.19 558,-1794.59"/>
<polygon fill="black" stroke="black" points="561.5,-1794.58 558,-1784.58 554.5,-1794.58 561.5,-1794.58"/>
</g>
<!-- COMMENT_8de1780+1 -->
<g id="node28" class="node">
<title>COMMENT_8de1780+1</title>
<polygon fill="none" stroke="black" points="802,-1712.48 308,-1712.48 308,-1676.48 808,-1676.48 808,-1706.48 802,-1712.48"/>
<polyline fill="none" stroke="black" points="802,-1712.48 802,-1706.48 "/>
<polyline fill="none" stroke="black" points="808,-1706.48 802,-1706.48 "/>
<text text-anchor="middle" x="558" y="-1690.78" font-family="Times,serif" font-size="14.00">OPEN boundary conditions, both varieties, with and without a wind</text>
</g>
<!-- IF_8de18c0&#45;&gt;COMMENT_8de1780+1 -->
<g id="edge21" class="edge">
<title>IF_8de18c0&#45;&gt;COMMENT_8de1780+1</title>
<path fill="none" stroke="black" d="M558,-1748.18C558,-1740.46 558,-1731.19 558,-1722.59"/>
<polygon fill="black" stroke="black" points="561.5,-1722.58 558,-1712.58 554.5,-1722.58 561.5,-1722.58"/>
</g>
<!-- beginIf_IF_8f71600 -->
<g id="node29" class="node">
<title>beginIf_IF_8f71600</title>
<ellipse fill="black" stroke="black" cx="558" cy="-1637.12" rx="0.36" ry="0.36"/>
</g>
<!-- COMMENT_8de1780+1&#45;&gt;beginIf_IF_8f71600 -->
<g id="edge25" class="edge">
<title>COMMENT_8de1780+1&#45;&gt;beginIf_IF_8f71600</title>
<path fill="none" stroke="black" d="M558,-1676.27C558,-1660.52 558,-1639.48 558,-1638.18"/>
</g>
<!-- IF_8f6bf00 -->
<g id="node31" class="node">
<title>IF_8f6bf00</title>
<polygon fill="none" stroke="blue" points="638.5,-1597.76 477.5,-1597.76 477.5,-1561.76 638.5,-1561.76 638.5,-1597.76"/>
<text text-anchor="middle" x="558" y="-1576.06" font-family="Times,serif" font-size="14.00">WIND_NO_WIND_IF</text>
</g>
<!-- beginIf_IF_8f71600&#45;&gt;IF_8f6bf00 -->
<g id="edge23" class="edge">
<title>beginIf_IF_8f71600&#45;&gt;IF_8f6bf00</title>
<path fill="none" stroke="black" d="M558,-1636.6C558,-1634.97 558,-1621.28 558,-1607.86"/>
<polygon fill="black" stroke="black" points="561.5,-1607.86 558,-1597.86 554.5,-1607.86 561.5,-1607.86"/>
</g>
<!-- endIf_IF_8f71600 -->
<g id="node30" class="node">
<title>endIf_IF_8f71600</title>
<ellipse fill="black" stroke="black" cx="558" cy="-1453.4" rx="0.36" ry="0.36"/>
</g>
<!-- COMMENT_8f68d40+1 -->
<g id="node33" class="node">
<title>COMMENT_8f68d40+1</title>
<polygon fill="none" stroke="black" points="723.5,-1417.04 386.5,-1417.04 386.5,-1381.04 729.5,-1381.04 729.5,-1411.04 723.5,-1417.04"/>
<polyline fill="none" stroke="black" points="723.5,-1417.04 723.5,-1411.04 "/>
<polyline fill="none" stroke="black" points="729.5,-1411.04 723.5,-1411.04 "/>
<text text-anchor="middle" x="558" y="-1395.34" font-family="Times,serif" font-size="14.00">Define the appropriate gas and ghost velocity</text>
</g>
<!-- endIf_IF_8f71600&#45;&gt;COMMENT_8f68d40+1 -->
<g id="edge26" class="edge">
<title>endIf_IF_8f71600&#45;&gt;COMMENT_8f68d40+1</title>
<path fill="none" stroke="black" d="M558,-1452.25C558,-1450.81 558,-1439.27 558,-1427.4"/>
<polygon fill="black" stroke="black" points="561.5,-1427.14 558,-1417.14 554.5,-1427.14 561.5,-1427.14"/>
</g>
<!-- CALL_8f702a0 -->
<g id="node32" class="node">
<title>CALL_8f702a0</title>
<g id="a_node32"><a xlink:href="GET_OPENBC_TANGENTIAL_CUTFACE_VEL.svg" xlink:title="GET_OPENBC_TANGENTIAL_CUTFACE_VEL">
<polygon fill="lightgray" stroke="black" points="725.5,-1525.76 390.5,-1525.76 390.5,-1521.76 386.5,-1521.76 386.5,-1517.76 390.5,-1517.76 390.5,-1497.76 386.5,-1497.76 386.5,-1493.76 390.5,-1493.76 390.5,-1489.76 725.5,-1489.76 725.5,-1525.76"/>
<polyline fill="none" stroke="black" points="390.5,-1521.76 394.5,-1521.76 394.5,-1517.76 390.5,-1517.76 "/>
<polyline fill="none" stroke="black" points="390.5,-1497.76 394.5,-1497.76 394.5,-1493.76 390.5,-1493.76 "/>
<text text-anchor="middle" x="558" y="-1504.06" font-family="Times,serif" font-size="14.00">GET_OPENBC_TANGENTIAL_CUTFACE_VEL</text>
</a>
</g>
</g>
<!-- IF_8f6bf00&#45;&gt;CALL_8f702a0 -->
<g id="edge22" class="edge">
<title>IF_8f6bf00&#45;&gt;CALL_8f702a0</title>
<path fill="none" stroke="black" d="M558,-1561.46C558,-1553.74 558,-1544.47 558,-1535.87"/>
<polygon fill="black" stroke="black" points="561.5,-1535.86 558,-1525.86 554.5,-1535.86 561.5,-1535.86"/>
</g>
<!-- CALL_8f702a0&#45;&gt;endIf_IF_8f71600 -->
<g id="edge24" class="edge">
<title>CALL_8f702a0&#45;&gt;endIf_IF_8f71600</title>
<path fill="none" stroke="black" d="M558,-1489.7C558,-1474.69 558,-1455.03 558,-1453.82"/>
</g>
<!-- COMMENT_8f823a0+1 -->
<g id="node34" class="node">
<title>COMMENT_8f823a0+1</title>
<polygon fill="none" stroke="black" points="855,-1345.04 255,-1345.04 255,-1309.04 861,-1309.04 861,-1339.04 855,-1345.04"/>
<polyline fill="none" stroke="black" points="855,-1345.04 855,-1339.04 "/>
<polyline fill="none" stroke="black" points="861,-1339.04 855,-1339.04 "/>
<text text-anchor="middle" x="558" y="-1323.34" font-family="Times,serif" font-size="14.00">Decide whether or not to process edge using data interpolated from another mesh</text>
</g>
<!-- COMMENT_8f68d40+1&#45;&gt;COMMENT_8f823a0+1 -->
<g id="edge27" class="edge">
<title>COMMENT_8f68d40+1&#45;&gt;COMMENT_8f823a0+1</title>
<path fill="none" stroke="black" d="M558,-1380.74C558,-1373.02 558,-1363.75 558,-1355.15"/>
<polygon fill="black" stroke="black" points="561.5,-1355.14 558,-1345.14 554.5,-1355.14 561.5,-1355.14"/>
</g>
<!-- beginIf_IF_912af80 -->
<g id="node35" class="node">
<title>beginIf_IF_912af80</title>
<ellipse fill="black" stroke="black" cx="558" cy="-1269.68" rx="0.36" ry="0.36"/>
</g>
<!-- COMMENT_8f823a0+1&#45;&gt;beginIf_IF_912af80 -->
<g id="edge38" class="edge">
<title>COMMENT_8f823a0+1&#45;&gt;beginIf_IF_912af80</title>
<path fill="none" stroke="black" d="M558,-1308.83C558,-1293.08 558,-1272.04 558,-1270.74"/>
</g>
<!-- COMMENT_8f85a60+1 -->
<g id="node37" class="node">
<title>COMMENT_8f85a60+1</title>
<polygon fill="none" stroke="black" points="803.5,-1230.32 48.5,-1230.32 48.5,-1177.32 809.5,-1177.32 809.5,-1224.32 803.5,-1230.32"/>
<polyline fill="none" stroke="black" points="803.5,-1230.32 803.5,-1224.32 "/>
<polyline fill="none" stroke="black" points="809.5,-1224.32 803.5,-1224.32 "/>
<text text-anchor="middle" x="429" y="-1215.12" font-family="Times,serif" font-size="14.00">Determine appropriate velocity BC by assessing each adjacent wall cell. If the BCs are different on each</text>
<text text-anchor="middle" x="429" y="-1200.12" font-family="Times,serif" font-size="14.00">side of the edge, choose the one with the specified velocity or velocity gradient, if there is one.</text>
<text text-anchor="middle" x="429" y="-1185.12" font-family="Times,serif" font-size="14.00">If not, choose the max value of boundary condition index, simply for consistency.</text>
</g>
<!-- beginIf_IF_912af80&#45;&gt;COMMENT_8f85a60+1 -->
<g id="edge34" class="edge">
<title>beginIf_IF_912af80&#45;&gt;COMMENT_8f85a60+1</title>
<path fill="none" stroke="black" d="M557.91,-1269.27C555.9,-1268.27 521.88,-1251.26 489.29,-1234.97"/>
<polygon fill="black" stroke="black" points="490.68,-1231.75 480.17,-1230.4 487.55,-1238.01 490.68,-1231.75"/>
</g>
<!-- Empty_912aee0 -->
<g id="node44" class="node">
<title>Empty_912aee0</title>
<ellipse fill="none" stroke="black" cx="919" cy="-1203.82" rx="85.29" ry="18"/>
<text text-anchor="middle" x="919" y="-1200.12" font-family="Times,serif" font-size="14.00">Empty_912aee0</text>
</g>
<!-- beginIf_IF_912af80&#45;&gt;Empty_912aee0 -->
<g id="edge36" class="edge">
<title>beginIf_IF_912af80&#45;&gt;Empty_912aee0</title>
<path fill="none" stroke="black" d="M558.04,-1269.32C561.67,-1269.32 794.01,-1269.33 822,-1261.32 846.31,-1254.36 870.9,-1239.94 889.24,-1227.41"/>
<polygon fill="black" stroke="black" points="891.54,-1230.07 897.71,-1221.45 887.52,-1224.34 891.54,-1230.07"/>
</g>
<!-- endIf_IF_912af80 -->
<g id="node36" class="node">
<title>endIf_IF_912af80</title>
<ellipse fill="black" stroke="black" cx="651" cy="-691.96" rx="0.36" ry="0.36"/>
</g>
<!-- COMMENT_912b340+1 -->
<g id="node45" class="node">
<title>COMMENT_912b340+1</title>
<polygon fill="none" stroke="black" points="847,-655.6 449,-655.6 449,-619.6 853,-619.6 853,-649.6 847,-655.6"/>
<polyline fill="none" stroke="black" points="847,-655.6 847,-649.6 "/>
<polyline fill="none" stroke="black" points="853,-649.6 847,-649.6 "/>
<text text-anchor="middle" x="651" y="-633.9" font-family="Times,serif" font-size="14.00">Set ghost cell values at edge of computational domain</text>
</g>
<!-- endIf_IF_912af80&#45;&gt;COMMENT_912b340+1 -->
<g id="edge39" class="edge">
<title>endIf_IF_912af80&#45;&gt;COMMENT_912b340+1</title>
<path fill="none" stroke="black" d="M651,-690.81C651,-689.37 651,-677.83 651,-665.96"/>
<polygon fill="black" stroke="black" points="654.5,-665.7 651,-655.7 647.5,-665.7 654.5,-665.7"/>
</g>
<!-- COMMENT_8f8cd80+1 -->
<g id="node38" class="node">
<title>COMMENT_8f8cd80+1</title>
<polygon fill="none" stroke="black" points="656.5,-1141.32 199.5,-1141.32 199.5,-1105.32 662.5,-1105.32 662.5,-1135.32 656.5,-1141.32"/>
<polyline fill="none" stroke="black" points="656.5,-1141.32 656.5,-1135.32 "/>
<polyline fill="none" stroke="black" points="662.5,-1135.32 656.5,-1135.32 "/>
<text text-anchor="middle" x="431" y="-1119.62" font-family="Times,serif" font-size="14.00">Compute the viscosity by averaging the two adjacent gas cells</text>
</g>
<!-- COMMENT_8f85a60+1&#45;&gt;COMMENT_8f8cd80+1 -->
<g id="edge28" class="edge">
<title>COMMENT_8f85a60+1&#45;&gt;COMMENT_8f8cd80+1</title>
<path fill="none" stroke="black" d="M429.65,-1177.12C429.86,-1169.03 430.09,-1160.08 430.3,-1151.87"/>
<polygon fill="black" stroke="black" points="433.8,-1151.74 430.56,-1141.65 426.8,-1151.56 433.8,-1151.74"/>
</g>
<!-- COMMENT_8f93c00+1 -->
<g id="node39" class="node">
<title>COMMENT_8f93c00+1</title>
<polygon fill="none" stroke="black" points="564,-1069.32 302,-1069.32 302,-1033.32 570,-1033.32 570,-1063.32 564,-1069.32"/>
<polyline fill="none" stroke="black" points="564,-1069.32 564,-1063.32 "/>
<polyline fill="none" stroke="black" points="570,-1063.32 564,-1063.32 "/>
<text text-anchor="middle" x="436" y="-1047.62" font-family="Times,serif" font-size="14.00">Check for HVAC tangential velocity</text>
</g>
<!-- COMMENT_8f8cd80+1&#45;&gt;COMMENT_8f93c00+1 -->
<g id="edge29" class="edge">
<title>COMMENT_8f8cd80+1&#45;&gt;COMMENT_8f93c00+1</title>
<path fill="none" stroke="black" d="M432.24,-1105.02C432.79,-1097.3 433.45,-1088.03 434.06,-1079.43"/>
<polygon fill="black" stroke="black" points="437.56,-1079.65 434.78,-1069.42 430.57,-1079.15 437.56,-1079.65"/>
</g>
<!-- COMMENT_8f963a0+1 -->
<g id="node40" class="node">
<title>COMMENT_8f963a0+1</title>
<polygon fill="none" stroke="black" points="703.5,-997.32 310.5,-997.32 310.5,-961.32 709.5,-961.32 709.5,-991.32 703.5,-997.32"/>
<polyline fill="none" stroke="black" points="703.5,-997.32 703.5,-991.32 "/>
<polyline fill="none" stroke="black" points="709.5,-991.32 703.5,-991.32 "/>
<text text-anchor="middle" x="510" y="-975.62" font-family="Times,serif" font-size="14.00">Determine if there is a tangential velocity component</text>
</g>
<!-- COMMENT_8f93c00+1&#45;&gt;COMMENT_8f963a0+1 -->
<g id="edge30" class="edge">
<title>COMMENT_8f93c00+1&#45;&gt;COMMENT_8f963a0+1</title>
<path fill="none" stroke="black" d="M454.29,-1033.02C463.43,-1024.37 474.64,-1013.77 484.6,-1004.35"/>
<polygon fill="black" stroke="black" points="487.06,-1006.84 491.92,-997.42 482.25,-1001.75 487.06,-1006.84"/>
</g>
<!-- COMMENT_8fbf260+1 -->
<g id="node41" class="node">
<title>COMMENT_8fbf260+1</title>
<polygon fill="none" stroke="black" points="708.5,-925.32 325.5,-925.32 325.5,-889.32 714.5,-889.32 714.5,-919.32 708.5,-925.32"/>
<polyline fill="none" stroke="black" points="708.5,-925.32 708.5,-919.32 "/>
<polyline fill="none" stroke="black" points="714.5,-919.32 708.5,-919.32 "/>
<text text-anchor="middle" x="520" y="-903.62" font-family="Times,serif" font-size="14.00">Choose the appropriate boundary condition to apply</text>
</g>
<!-- COMMENT_8f963a0+1&#45;&gt;COMMENT_8fbf260+1 -->
<g id="edge31" class="edge">
<title>COMMENT_8f963a0+1&#45;&gt;COMMENT_8fbf260+1</title>
<path fill="none" stroke="black" d="M512.47,-961.02C513.57,-953.3 514.9,-944.03 516.13,-935.43"/>
<polygon fill="black" stroke="black" points="519.61,-935.82 517.56,-925.42 512.68,-934.83 519.61,-935.82"/>
</g>
<!-- CALL_8fd64e0 -->
<g id="node42" class="node">
<title>CALL_8fd64e0</title>
<g id="a_node42"><a xlink:href="WALL_MODEL.svg" xlink:title="WALL_MODEL">
<polygon fill="lightgray" stroke="black" points="600.5,-853.32 479.5,-853.32 479.5,-849.32 475.5,-849.32 475.5,-845.32 479.5,-845.32 479.5,-825.32 475.5,-825.32 475.5,-821.32 479.5,-821.32 479.5,-817.32 600.5,-817.32 600.5,-853.32"/>
<polyline fill="none" stroke="black" points="479.5,-849.32 483.5,-849.32 483.5,-845.32 479.5,-845.32 "/>
<polyline fill="none" stroke="black" points="479.5,-825.32 483.5,-825.32 483.5,-821.32 479.5,-821.32 "/>
<text text-anchor="middle" x="540" y="-831.62" font-family="Times,serif" font-size="14.00">WALL_MODEL</text>
</a>
</g>
</g>
<!-- COMMENT_8fbf260+1&#45;&gt;CALL_8fd64e0 -->
<g id="edge32" class="edge">
<title>COMMENT_8fbf260+1&#45;&gt;CALL_8fd64e0</title>
<path fill="none" stroke="black" d="M524.94,-889.02C527.17,-881.22 529.85,-871.83 532.33,-863.15"/>
<polygon fill="black" stroke="black" points="535.73,-864 535.11,-853.42 529,-862.08 535.73,-864"/>
</g>
<!-- COMMENT_8fd7840+1 -->
<g id="node43" class="node">
<title>COMMENT_8fd7840+1</title>
<polygon fill="none" stroke="black" points="800.5,-781.32 347.5,-781.32 347.5,-728.32 806.5,-728.32 806.5,-775.32 800.5,-781.32"/>
<polyline fill="none" stroke="black" points="800.5,-781.32 800.5,-775.32 "/>
<polyline fill="none" stroke="black" points="806.5,-775.32 800.5,-775.32 "/>
<text text-anchor="middle" x="577" y="-766.12" font-family="Times,serif" font-size="14.00">SLIP_COEF = &#45;1, no slip, &#160;&#160;VEL_GHOST = 2*VEL_T &#45; VEL_GAS</text>
<text text-anchor="middle" x="577" y="-751.12" font-family="Times,serif" font-size="14.00">SLIP_COEF = &#160;0, half slip, VEL_GHOST = VEL_T</text>
<text text-anchor="middle" x="577" y="-736.12" font-family="Times,serif" font-size="14.00">SLIP_COEF = &#160;1, free slip, VEL_GHOST = VEL_GAS</text>
</g>
<!-- CALL_8fd64e0&#45;&gt;COMMENT_8fd7840+1 -->
<g id="edge33" class="edge">
<title>CALL_8fd64e0&#45;&gt;COMMENT_8fd7840+1</title>
<path fill="none" stroke="black" d="M548.03,-817.29C551.73,-809.44 556.26,-799.83 560.63,-790.56"/>
<polygon fill="black" stroke="black" points="563.81,-792.01 564.91,-781.48 557.48,-789.03 563.81,-792.01"/>
</g>
<!-- COMMENT_8fd7840+1&#45;&gt;endIf_IF_912af80 -->
<g id="edge35" class="edge">
<title>COMMENT_8fd7840+1&#45;&gt;endIf_IF_912af80</title>
<path fill="none" stroke="black" d="M607.95,-728.09C627.6,-711.77 649.58,-693.5 650.93,-692.37"/>
</g>
<!-- Empty_912aee0&#45;&gt;endIf_IF_912af80 -->
<g id="edge37" class="edge">
<title>Empty_912aee0&#45;&gt;endIf_IF_912af80</title>
<path fill="none" stroke="black" d="M910.13,-1185.73C896.76,-1158.35 873,-1102.59 873,-1052.32 873,-1052.32 873,-1052.32 873,-834.32 873,-778.81 865.98,-754.19 822,-720.32 791.97,-697.19 655.36,-692.47 651.1,-692.32"/>
</g>
<!-- COMMENT_912b340+1&#45;&gt;endDO_DO_91462c0 -->
<g id="edge41" class="edge">
<title>COMMENT_912b340+1&#45;&gt;endDO_DO_91462c0</title>
<path fill="none" stroke="black" d="M651,-619.54C651,-604.53 651,-584.87 651,-583.66"/>
</g>
<!-- COMMENT_9116e20+1 -->
<g id="node47" class="node">
<title>COMMENT_9116e20+1</title>
<polygon fill="none" stroke="black" points="954,-438.16 342,-438.16 342,-402.16 960,-402.16 960,-432.16 954,-438.16"/>
<polyline fill="none" stroke="black" points="954,-438.16 954,-432.16 "/>
<polyline fill="none" stroke="black" points="960,-432.16 954,-432.16 "/>
<text text-anchor="middle" x="651" y="-416.46" font-family="Times,serif" font-size="14.00">If the edge is on an interpolated boundary, and all cells around it are not solid, cycle</text>
</g>
<!-- COMMENT_9146400+1&#45;&gt;COMMENT_9116e20+1 -->
<g id="edge45" class="edge">
<title>COMMENT_9146400+1&#45;&gt;COMMENT_9116e20+1</title>
<path fill="none" stroke="black" d="M651,-473.86C651,-466.14 651,-456.87 651,-448.27"/>
<polygon fill="black" stroke="black" points="654.5,-448.26 651,-438.26 647.5,-448.26 654.5,-448.26"/>
</g>
<!-- COMMENT_8d90000+1 -->
<g id="node48" class="node">
<title>COMMENT_8d90000+1</title>
<polygon fill="none" stroke="black" points="993,-366.16 303,-366.16 303,-330.16 999,-330.16 999,-360.16 993,-366.16"/>
<polyline fill="none" stroke="black" points="993,-366.16 993,-360.16 "/>
<polyline fill="none" stroke="black" points="999,-360.16 993,-360.16 "/>
<text text-anchor="middle" x="651" y="-344.46" font-family="Times,serif" font-size="14.00">Loop over all 4 normal directions and compute vorticity and stress tensor components for each</text>
</g>
<!-- COMMENT_9116e20+1&#45;&gt;COMMENT_8d90000+1 -->
<g id="edge46" class="edge">
<title>COMMENT_9116e20+1&#45;&gt;COMMENT_8d90000+1</title>
<path fill="none" stroke="black" d="M651,-401.86C651,-394.14 651,-384.87 651,-376.27"/>
<polygon fill="black" stroke="black" points="654.5,-376.26 651,-366.26 647.5,-376.26 654.5,-376.26"/>
</g>
<!-- beginDO_DO_915cb40 -->
<g id="node49" class="node">
<title>beginDO_DO_915cb40</title>
<ellipse fill="black" stroke="black" cx="651" cy="-290.8" rx="0.36" ry="0.36"/>
</g>
<!-- COMMENT_8d90000+1&#45;&gt;beginDO_DO_915cb40 -->
<g id="edge48" class="edge">
<title>COMMENT_8d90000+1&#45;&gt;beginDO_DO_915cb40</title>
<path fill="none" stroke="black" d="M651,-329.95C651,-314.2 651,-293.16 651,-291.86"/>
</g>
<!-- DO_915c5a0 -->
<g id="node51" class="node">
<title>DO_915c5a0</title>
<polygon fill="none" stroke="orange" points="743.5,-254.44 558.5,-254.44 558.5,-218.44 743.5,-218.44 743.5,-254.44"/>
<text text-anchor="middle" x="651" y="-232.74" font-family="Times,serif" font-size="14.00">ORIENTATION_LOOP_2</text>
</g>
<!-- beginDO_DO_915cb40&#45;&gt;DO_915c5a0 -->
<g id="edge47" class="edge">
<title>beginDO_DO_915cb40&#45;&gt;DO_915c5a0</title>
<path fill="none" stroke="black" d="M651,-290.29C651,-288.81 651,-276.76 651,-264.54"/>
<polygon fill="black" stroke="black" points="654.5,-264.46 651,-254.46 647.5,-264.46 654.5,-264.46"/>
</g>
<!-- endDO_DO_915cb40 -->
<g id="node50" class="node">
<title>endDO_DO_915cb40</title>
<ellipse fill="black" stroke="black" cx="651" cy="-182.08" rx="0.36" ry="0.36"/>
</g>
<!-- endDO_DO_915cb40&#45;&gt;endDO_DO_915d400 -->
<g id="edge51" class="edge">
<title>endDO_DO_915cb40&#45;&gt;endDO_DO_915d400</title>
<path fill="none" stroke="black" d="M651,-180.98C651,-178.97 651,-147.76 651,-145.82"/>
</g>
<!-- DO_915c5a0&#45;&gt;endDO_DO_915cb40 -->
<g id="edge49" class="edge">
<title>DO_915c5a0&#45;&gt;endDO_DO_915cb40</title>
<path fill="none" stroke="black" d="M651,-218.38C651,-203.37 651,-183.71 651,-182.5"/>
</g>
<!-- end_SUBPROGRAM_915fea0 -->
<g id="node53" class="node">
<title>end_SUBPROGRAM_915fea0</title>
<ellipse fill="black" stroke="black" cx="651" cy="-30" rx="7" ry="7"/>
</g>
<!-- CALL_915fc60&#45;&gt;end_SUBPROGRAM_915fea0 -->
<g id="edge53" class="edge">
<title>CALL_915fc60&#45;&gt;end_SUBPROGRAM_915fea0</title>
<path fill="none" stroke="black" d="M651,-72.93C651,-64.89 651,-55.33 651,-47.37"/>
<polygon fill="black" stroke="black" points="654.5,-47.22 651,-37.22 647.5,-47.22 654.5,-47.22"/>
</g>
</g>
</svg>
