<?xml version="1.0" encoding="UTF-8" standalone="no"?>
<!DOCTYPE svg PUBLIC "-//W3C//DTD SVG 1.1//EN"
 "http://www.w3.org/Graphics/SVG/1.1/DTD/svg11.dtd">
<!-- Generated by graphviz version 2.43.0 (0)
 -->
<!-- Title: VELOCITY_CORRECTOR Pages: 1 -->
<svg width="675pt" height="1398pt"
 viewBox="0.00 0.00 675.00 1398.30" xmlns="http://www.w3.org/2000/svg" xmlns:xlink="http://www.w3.org/1999/xlink">
<g id="graph0" class="graph" transform="scale(1 1) rotate(0) translate(4 1394.3)">
<title>VELOCITY_CORRECTOR</title>
<polygon fill="white" stroke="transparent" points="-4,4 -4,-1394.3 671,-1394.3 671,4 -4,4"/>
<text text-anchor="middle" x="333.5" y="-7.8" font-family="Times,serif" font-size="14.00">VELOCITY_CORRECTOR</text>
<g id="clust1" class="cluster">
<title>cluster_FREEZE_VELOCITY_IF</title>
<polygon fill="none" stroke="blue" points="27,-137 27,-1120.3 659,-1120.3 659,-137 27,-137"/>
<text text-anchor="middle" x="117.5" y="-1105.1" font-family="Times,serif" font-size="14.00">FREEZE_VELOCITY_IF</text>
</g>
<g id="clust2" class="cluster">
<title>cluster_cond89fe9a0</title>
<polygon fill="none" stroke="black" points="35,-1005.58 35,-1080.58 217,-1080.58 217,-1005.58 35,-1005.58"/>
<text text-anchor="middle" x="89" y="-1065.38" font-family="Times,serif" font-size="14.00">cond89fe9a0</text>
</g>
<g id="clust3" class="cluster">
<title>cluster_cond8b32780</title>
<polygon fill="none" stroke="black" points="225,-173.72 225,-1080.58 651,-1080.58 651,-173.72 225,-173.72"/>
<text text-anchor="middle" x="281.5" y="-1065.38" font-family="Times,serif" font-size="14.00">cond8b32780</text>
</g>
<g id="clust4" class="cluster">
<title>cluster_omp_OMP_BEGIN_REGION_8b03e80+1</title>
<polygon fill="none" stroke="red" points="243,-461.72 243,-933.58 546,-933.58 546,-461.72 243,-461.72"/>
<text text-anchor="middle" x="394.5" y="-918.38" font-family="Times,serif" font-size="14.00">omp_OMP_BEGIN_REGION_8b03e80+1</text>
</g>
<!-- start_SUBPROGRAM_8b40ae0 -->
<g id="node1" class="node">
<title>start_SUBPROGRAM_8b40ae0</title>
<ellipse fill="none" stroke="black" cx="232" cy="-1383.3" rx="7" ry="7"/>
</g>
<!-- COMMENT_89f5900+1 -->
<g id="node2" class="node">
<title>COMMENT_89f5900+1</title>
<polygon fill="none" stroke="black" points="458,-1340.3 0,-1340.3 0,-1272.3 464,-1272.3 464,-1334.3 458,-1340.3"/>
<polyline fill="none" stroke="black" points="458,-1340.3 458,-1334.3 "/>
<polyline fill="none" stroke="black" points="464,-1334.3 458,-1334.3 "/>
<text text-anchor="middle" x="232" y="-1325.1" font-family="Times,serif" font-size="14.00">!&gt; brief Correct the velocity components at the next time step</text>
<text text-anchor="middle" x="232" y="-1310.1" font-family="Times,serif" font-size="14.00">!&gt; param T Current time (s)</text>
<text text-anchor="middle" x="232" y="-1295.1" font-family="Times,serif" font-size="14.00">!&gt; param DT Time step (s)</text>
<text text-anchor="middle" x="232" y="-1280.1" font-family="Times,serif" font-size="14.00">!&gt; param NM Mesh number</text>
</g>
<!-- start_SUBPROGRAM_8b40ae0&#45;&gt;COMMENT_89f5900+1 -->
<g id="edge1" class="edge">
<title>start_SUBPROGRAM_8b40ae0&#45;&gt;COMMENT_89f5900+1</title>
<path fill="none" stroke="black" d="M232,-1376.16C232,-1370.23 232,-1360.68 232,-1350.56"/>
<polygon fill="black" stroke="black" points="235.5,-1350.35 232,-1340.35 228.5,-1350.35 235.5,-1350.35"/>
</g>
<!-- CALL_89f9f80 -->
<g id="node3" class="node">
<title>CALL_89f9f80</title>
<g id="a_node3"><a xlink:href="COMPRESSION_WAVE.svg" xlink:title="COMPRESSION_WAVE">
<polygon fill="lightgray" stroke="black" points="322.5,-1236.3 141.5,-1236.3 141.5,-1232.3 137.5,-1232.3 137.5,-1228.3 141.5,-1228.3 141.5,-1208.3 137.5,-1208.3 137.5,-1204.3 141.5,-1204.3 141.5,-1200.3 322.5,-1200.3 322.5,-1236.3"/>
<polyline fill="none" stroke="black" points="141.5,-1232.3 145.5,-1232.3 145.5,-1228.3 141.5,-1228.3 "/>
<polyline fill="none" stroke="black" points="141.5,-1208.3 145.5,-1208.3 145.5,-1204.3 141.5,-1204.3 "/>
<text text-anchor="middle" x="232" y="-1214.6" font-family="Times,serif" font-size="14.00">COMPRESSION_WAVE</text>
</a>
</g>
</g>
<!-- COMMENT_89f5900+1&#45;&gt;CALL_89f9f80 -->
<g id="edge2" class="edge">
<title>COMMENT_89f5900+1&#45;&gt;CALL_89f9f80</title>
<path fill="none" stroke="black" d="M232,-1272.3C232,-1263.86 232,-1254.89 232,-1246.77"/>
<polygon fill="black" stroke="black" points="235.5,-1246.7 232,-1236.7 228.5,-1246.7 235.5,-1246.7"/>
</g>
<!-- CALL_89fcf80 -->
<g id="node4" class="node">
<title>CALL_89fcf80</title>
<g id="a_node4"><a xlink:href="POINT_TO_MESH.svg" xlink:title="POINT_TO_MESH">
<polygon fill="lightgray" stroke="black" points="304,-1164.3 160,-1164.3 160,-1160.3 156,-1160.3 156,-1156.3 160,-1156.3 160,-1136.3 156,-1136.3 156,-1132.3 160,-1132.3 160,-1128.3 304,-1128.3 304,-1164.3"/>
<polyline fill="none" stroke="black" points="160,-1160.3 164,-1160.3 164,-1156.3 160,-1156.3 "/>
<polyline fill="none" stroke="black" points="160,-1136.3 164,-1136.3 164,-1132.3 160,-1132.3 "/>
<text text-anchor="middle" x="232" y="-1142.6" font-family="Times,serif" font-size="14.00">POINT_TO_MESH</text>
</a>
</g>
</g>
<!-- CALL_89f9f80&#45;&gt;CALL_89fcf80 -->
<g id="edge3" class="edge">
<title>CALL_89f9f80&#45;&gt;CALL_89fcf80</title>
<path fill="none" stroke="black" d="M232,-1200C232,-1192.28 232,-1183.01 232,-1174.41"/>
<polygon fill="black" stroke="black" points="235.5,-1174.4 232,-1164.4 228.5,-1174.4 235.5,-1174.4"/>
</g>
<!-- beginIf_IF_8b32800 -->
<g id="node5" class="node">
<title>beginIf_IF_8b32800</title>
<ellipse fill="black" stroke="black" cx="232" cy="-1088.94" rx="0.36" ry="0.36"/>
</g>
<!-- CALL_89fcf80&#45;&gt;beginIf_IF_8b32800 -->
<g id="edge20" class="edge">
<title>CALL_89fcf80&#45;&gt;beginIf_IF_8b32800</title>
<path fill="none" stroke="black" d="M232,-1128.09C232,-1112.34 232,-1091.3 232,-1090"/>
</g>
<!-- Empty_89fe9a0 -->
<g id="node7" class="node">
<title>Empty_89fe9a0</title>
<ellipse fill="none" stroke="black" cx="126" cy="-1031.58" rx="83.39" ry="18"/>
<text text-anchor="middle" x="126" y="-1027.88" font-family="Times,serif" font-size="14.00">Empty_89fe9a0</text>
</g>
<!-- beginIf_IF_8b32800&#45;&gt;Empty_89fe9a0 -->
<g id="edge4" class="edge">
<title>beginIf_IF_8b32800&#45;&gt;Empty_89fe9a0</title>
<path fill="none" stroke="black" d="M231.92,-1088.54C230.05,-1087.55 194.44,-1068.74 165.02,-1053.19"/>
<polygon fill="black" stroke="black" points="166.61,-1050.08 156.13,-1048.5 163.34,-1056.26 166.61,-1050.08"/>
</g>
<!-- CALL_8b00ba0 -->
<g id="node8" class="node">
<title>CALL_8b00ba0</title>
<g id="a_node8"><a xlink:href="CC_PROJECT_VELOCITY.svg" xlink:title="CC_PROJECT_VELOCITY">
<polygon fill="lightgray" stroke="black" points="434,-1049.58 242,-1049.58 242,-1045.58 238,-1045.58 238,-1041.58 242,-1041.58 242,-1021.58 238,-1021.58 238,-1017.58 242,-1017.58 242,-1013.58 434,-1013.58 434,-1049.58"/>
<polyline fill="none" stroke="black" points="242,-1045.58 246,-1045.58 246,-1041.58 242,-1041.58 "/>
<polyline fill="none" stroke="black" points="242,-1021.58 246,-1021.58 246,-1017.58 242,-1017.58 "/>
<text text-anchor="middle" x="338" y="-1027.88" font-family="Times,serif" font-size="14.00">CC_PROJECT_VELOCITY</text>
</a>
</g>
</g>
<!-- beginIf_IF_8b32800&#45;&gt;CALL_8b00ba0 -->
<g id="edge18" class="edge">
<title>beginIf_IF_8b32800&#45;&gt;CALL_8b00ba0</title>
<path fill="none" stroke="black" d="M232.08,-1088.54C233.89,-1087.58 267.55,-1069.8 296.45,-1054.53"/>
<polygon fill="black" stroke="black" points="298.41,-1057.45 305.62,-1049.69 295.14,-1051.27 298.41,-1057.45"/>
</g>
<!-- endIf_IF_8b32800 -->
<g id="node6" class="node">
<title>endIf_IF_8b32800</title>
<ellipse fill="black" stroke="black" cx="270" cy="-145.36" rx="0.36" ry="0.36"/>
</g>
<!-- COMMENT_8b2d1e0+1 -->
<g id="node21" class="node">
<title>COMMENT_8b2d1e0+1</title>
<polygon fill="none" stroke="black" points="383,-109 151,-109 151,-73 389,-73 389,-103 383,-109"/>
<polyline fill="none" stroke="black" points="383,-109 383,-103 "/>
<polyline fill="none" stroke="black" points="389,-103 383,-103 "/>
<text text-anchor="middle" x="270" y="-87.3" font-family="Times,serif" font-size="14.00">Manufactured solution (debug)</text>
</g>
<!-- endIf_IF_8b32800&#45;&gt;COMMENT_8b2d1e0+1 -->
<g id="edge21" class="edge">
<title>endIf_IF_8b32800&#45;&gt;COMMENT_8b2d1e0+1</title>
<path fill="none" stroke="black" d="M270,-144.21C270,-142.77 270,-131.23 270,-119.36"/>
<polygon fill="black" stroke="black" points="273.5,-119.1 270,-109.1 266.5,-119.1 273.5,-119.1"/>
</g>
<!-- Empty_89fe9a0&#45;&gt;endIf_IF_8b32800 -->
<g id="edge5" class="edge">
<title>Empty_89fe9a0&#45;&gt;endIf_IF_8b32800</title>
<path fill="none" stroke="black" d="M135.98,-1013.51C148.97,-989.66 170,-944.63 170,-903.22 170,-903.22 170,-903.22 170,-270.72 170,-222.01 187.17,-208.76 221,-173.72 237.88,-156.24 268.04,-146.35 269.91,-145.75"/>
</g>
<!-- CALL_8b033e0 -->
<g id="node9" class="node">
<title>CALL_8b033e0</title>
<g id="a_node9"><a xlink:href="WALL_VELOCITY_NO_GRADH.svg" xlink:title="WALL_VELOCITY_NO_GRADH">
<polygon fill="lightgray" stroke="black" points="508,-977.58 278,-977.58 278,-973.58 274,-973.58 274,-969.58 278,-969.58 278,-949.58 274,-949.58 274,-945.58 278,-945.58 278,-941.58 508,-941.58 508,-977.58"/>
<polyline fill="none" stroke="black" points="278,-973.58 282,-973.58 282,-969.58 278,-969.58 "/>
<polyline fill="none" stroke="black" points="278,-949.58 282,-949.58 282,-945.58 278,-945.58 "/>
<text text-anchor="middle" x="393" y="-955.88" font-family="Times,serif" font-size="14.00">WALL_VELOCITY_NO_GRADH</text>
</a>
</g>
</g>
<!-- CALL_8b00ba0&#45;&gt;CALL_8b033e0 -->
<g id="edge6" class="edge">
<title>CALL_8b00ba0&#45;&gt;CALL_8b033e0</title>
<path fill="none" stroke="black" d="M351.6,-1013.28C358.12,-1004.97 366.07,-994.86 373.25,-985.72"/>
<polygon fill="black" stroke="black" points="376.13,-987.71 379.56,-977.68 370.63,-983.39 376.13,-987.71"/>
</g>
<!-- start_omp_OMP_BEGIN_REGION_8b03e80+1 -->
<g id="node10" class="node">
<title>start_omp_OMP_BEGIN_REGION_8b03e80+1</title>
<ellipse fill="black" stroke="black" cx="393" cy="-902.22" rx="0.36" ry="0.36"/>
</g>
<!-- CALL_8b033e0&#45;&gt;start_omp_OMP_BEGIN_REGION_8b03e80+1 -->
<g id="edge7" class="edge">
<title>CALL_8b033e0&#45;&gt;start_omp_OMP_BEGIN_REGION_8b03e80+1</title>
<path fill="none" stroke="black" d="M393,-941.37C393,-925.62 393,-904.58 393,-903.28"/>
</g>
<!-- COMMENT_8b03e80+2 -->
<g id="node11" class="node">
<title>COMMENT_8b03e80+2</title>
<polygon fill="none" stroke="black" points="511,-865.72 271,-865.72 271,-829.72 517,-829.72 517,-859.72 511,-865.72"/>
<polyline fill="none" stroke="black" points="511,-865.72 511,-859.72 "/>
<polyline fill="none" stroke="black" points="517,-859.72 511,-859.72 "/>
<text text-anchor="middle" x="394" y="-844.02" font-family="Times,serif" font-size="14.00">!$OMP DO SCHEDULE(STATIC)</text>
</g>
<!-- start_omp_OMP_BEGIN_REGION_8b03e80+1&#45;&gt;COMMENT_8b03e80+2 -->
<g id="edge8" class="edge">
<title>start_omp_OMP_BEGIN_REGION_8b03e80+1&#45;&gt;COMMENT_8b03e80+2</title>
<path fill="none" stroke="black" d="M393,-901.57C393.03,-900.09 393.26,-888.04 393.49,-875.82"/>
<polygon fill="black" stroke="black" points="396.99,-875.81 393.68,-865.74 389.99,-875.68 396.99,-875.81"/>
</g>
<!-- COMMENT_8b10d00+1 -->
<g id="node12" class="node">
<title>COMMENT_8b10d00+1</title>
<polygon fill="none" stroke="black" points="487.5,-793.72 296.5,-793.72 296.5,-757.72 493.5,-757.72 493.5,-787.72 487.5,-793.72"/>
<polyline fill="none" stroke="black" points="487.5,-793.72 487.5,-787.72 "/>
<polyline fill="none" stroke="black" points="493.5,-787.72 487.5,-787.72 "/>
<text text-anchor="middle" x="395" y="-772.02" font-family="Times,serif" font-size="14.00">!$OMP END DO NOWAIT</text>
</g>
<!-- COMMENT_8b03e80+2&#45;&gt;COMMENT_8b10d00+1 -->
<g id="edge9" class="edge">
<title>COMMENT_8b03e80+2&#45;&gt;COMMENT_8b10d00+1</title>
<path fill="none" stroke="black" d="M394.25,-829.42C394.36,-821.7 394.49,-812.43 394.61,-803.83"/>
<polygon fill="black" stroke="black" points="398.11,-803.87 394.76,-793.82 391.11,-803.77 398.11,-803.87"/>
</g>
<!-- COMMENT_8b10d00+2 -->
<g id="node13" class="node">
<title>COMMENT_8b10d00+2</title>
<polygon fill="none" stroke="black" points="522,-721.72 282,-721.72 282,-685.72 528,-685.72 528,-715.72 522,-721.72"/>
<polyline fill="none" stroke="black" points="522,-721.72 522,-715.72 "/>
<polyline fill="none" stroke="black" points="528,-715.72 522,-715.72 "/>
<text text-anchor="middle" x="405" y="-700.02" font-family="Times,serif" font-size="14.00">!$OMP DO SCHEDULE(STATIC)</text>
</g>
<!-- COMMENT_8b10d00+1&#45;&gt;COMMENT_8b10d00+2 -->
<g id="edge10" class="edge">
<title>COMMENT_8b10d00+1&#45;&gt;COMMENT_8b10d00+2</title>
<path fill="none" stroke="black" d="M397.47,-757.42C398.57,-749.7 399.9,-740.43 401.13,-731.83"/>
<polygon fill="black" stroke="black" points="404.61,-732.22 402.56,-721.82 397.68,-731.23 404.61,-732.22"/>
</g>
<!-- COMMENT_8b1d440+1 -->
<g id="node14" class="node">
<title>COMMENT_8b1d440+1</title>
<polygon fill="none" stroke="black" points="499.5,-649.72 308.5,-649.72 308.5,-613.72 505.5,-613.72 505.5,-643.72 499.5,-649.72"/>
<polyline fill="none" stroke="black" points="499.5,-649.72 499.5,-643.72 "/>
<polyline fill="none" stroke="black" points="505.5,-643.72 499.5,-643.72 "/>
<text text-anchor="middle" x="407" y="-628.02" font-family="Times,serif" font-size="14.00">!$OMP END DO NOWAIT</text>
</g>
<!-- COMMENT_8b10d00+2&#45;&gt;COMMENT_8b1d440+1 -->
<g id="edge11" class="edge">
<title>COMMENT_8b10d00+2&#45;&gt;COMMENT_8b1d440+1</title>
<path fill="none" stroke="black" d="M405.49,-685.42C405.71,-677.7 405.98,-668.43 406.23,-659.83"/>
<polygon fill="black" stroke="black" points="409.72,-659.92 406.51,-649.82 402.73,-659.72 409.72,-659.92"/>
</g>
<!-- COMMENT_8b1d440+2 -->
<g id="node15" class="node">
<title>COMMENT_8b1d440+2</title>
<polygon fill="none" stroke="black" points="529,-577.72 289,-577.72 289,-541.72 535,-541.72 535,-571.72 529,-577.72"/>
<polyline fill="none" stroke="black" points="529,-577.72 529,-571.72 "/>
<polyline fill="none" stroke="black" points="535,-571.72 529,-571.72 "/>
<text text-anchor="middle" x="412" y="-556.02" font-family="Times,serif" font-size="14.00">!$OMP DO SCHEDULE(STATIC)</text>
</g>
<!-- COMMENT_8b1d440+1&#45;&gt;COMMENT_8b1d440+2 -->
<g id="edge12" class="edge">
<title>COMMENT_8b1d440+1&#45;&gt;COMMENT_8b1d440+2</title>
<path fill="none" stroke="black" d="M408.24,-613.42C408.79,-605.7 409.45,-596.43 410.06,-587.83"/>
<polygon fill="black" stroke="black" points="413.56,-588.05 410.78,-577.82 406.57,-587.55 413.56,-588.05"/>
</g>
<!-- COMMENT_89fd4e0+1 -->
<g id="node16" class="node">
<title>COMMENT_89fd4e0+1</title>
<polygon fill="none" stroke="black" points="508.5,-505.72 317.5,-505.72 317.5,-469.72 514.5,-469.72 514.5,-499.72 508.5,-505.72"/>
<polyline fill="none" stroke="black" points="508.5,-505.72 508.5,-499.72 "/>
<polyline fill="none" stroke="black" points="514.5,-499.72 508.5,-499.72 "/>
<text text-anchor="middle" x="416" y="-484.02" font-family="Times,serif" font-size="14.00">!$OMP END DO NOWAIT</text>
</g>
<!-- COMMENT_8b1d440+2&#45;&gt;COMMENT_89fd4e0+1 -->
<g id="edge13" class="edge">
<title>COMMENT_8b1d440+2&#45;&gt;COMMENT_89fd4e0+1</title>
<path fill="none" stroke="black" d="M412.99,-541.42C413.43,-533.7 413.96,-524.43 414.45,-515.83"/>
<polygon fill="black" stroke="black" points="417.95,-516.01 415.02,-505.82 410.96,-515.61 417.95,-516.01"/>
</g>
<!-- COMMENT_8b29280+1 -->
<g id="node17" class="node">
<title>COMMENT_8b29280+1</title>
<polygon fill="none" stroke="black" points="637,-433.72 233,-433.72 233,-397.72 643,-397.72 643,-427.72 637,-433.72"/>
<polyline fill="none" stroke="black" points="637,-433.72 637,-427.72 "/>
<polyline fill="none" stroke="black" points="643,-427.72 637,-427.72 "/>
<text text-anchor="middle" x="438" y="-412.02" font-family="Times,serif" font-size="14.00">!$OMP PARALLEL DO PRIVATE(I) SCHEDULE(STATIC)</text>
</g>
<!-- COMMENT_89fd4e0+1&#45;&gt;COMMENT_8b29280+1 -->
<g id="edge14" class="edge">
<title>COMMENT_89fd4e0+1&#45;&gt;COMMENT_8b29280+1</title>
<path fill="none" stroke="black" d="M421.44,-469.42C423.89,-461.62 426.84,-452.23 429.57,-443.55"/>
<polygon fill="black" stroke="black" points="432.96,-444.41 432.62,-433.82 426.29,-442.31 432.96,-444.41"/>
</g>
<!-- COMMENT_8b2d740+1 -->
<g id="node18" class="node">
<title>COMMENT_8b2d740+1</title>
<polygon fill="none" stroke="black" points="526,-361.72 320,-361.72 320,-325.72 532,-325.72 532,-355.72 526,-361.72"/>
<polyline fill="none" stroke="black" points="526,-361.72 526,-355.72 "/>
<polyline fill="none" stroke="black" points="532,-355.72 526,-355.72 "/>
<text text-anchor="middle" x="426" y="-340.02" font-family="Times,serif" font-size="14.00">!$OMP END PARALLEL DO</text>
</g>
<!-- COMMENT_8b29280+1&#45;&gt;COMMENT_8b2d740+1 -->
<g id="edge15" class="edge">
<title>COMMENT_8b29280+1&#45;&gt;COMMENT_8b2d740+1</title>
<path fill="none" stroke="black" d="M435.03,-397.42C433.71,-389.7 432.12,-380.43 430.65,-371.83"/>
<polygon fill="black" stroke="black" points="434.07,-371.09 428.93,-361.82 427.17,-372.27 434.07,-371.09"/>
</g>
<!-- CALL_8b2fce0 -->
<g id="node19" class="node">
<title>CALL_8b2fce0</title>
<g id="a_node19"><a xlink:href="CC_PROJECT_VELOCITY.svg" xlink:title="CC_PROJECT_VELOCITY">
<polygon fill="lightgray" stroke="black" points="477,-289.72 285,-289.72 285,-285.72 281,-285.72 281,-281.72 285,-281.72 285,-261.72 281,-261.72 281,-257.72 285,-257.72 285,-253.72 477,-253.72 477,-289.72"/>
<polyline fill="none" stroke="black" points="285,-285.72 289,-285.72 289,-281.72 285,-281.72 "/>
<polyline fill="none" stroke="black" points="285,-261.72 289,-261.72 289,-257.72 285,-257.72 "/>
<text text-anchor="middle" x="381" y="-268.02" font-family="Times,serif" font-size="14.00">CC_PROJECT_VELOCITY</text>
</a>
</g>
</g>
<!-- COMMENT_8b2d740+1&#45;&gt;CALL_8b2fce0 -->
<g id="edge16" class="edge">
<title>COMMENT_8b2d740+1&#45;&gt;CALL_8b2fce0</title>
<path fill="none" stroke="black" d="M414.88,-325.42C409.64,-317.28 403.3,-307.41 397.52,-298.42"/>
<polygon fill="black" stroke="black" points="400.35,-296.34 392,-289.82 394.46,-300.13 400.35,-296.34"/>
</g>
<!-- CALL_8b32360 -->
<g id="node20" class="node">
<title>CALL_8b32360</title>
<g id="a_node20"><a xlink:href="WALL_VELOCITY_NO_GRADH.svg" xlink:title="WALL_VELOCITY_NO_GRADH">
<polygon fill="lightgray" stroke="black" points="485,-217.72 255,-217.72 255,-213.72 251,-213.72 251,-209.72 255,-209.72 255,-189.72 251,-189.72 251,-185.72 255,-185.72 255,-181.72 485,-181.72 485,-217.72"/>
<polyline fill="none" stroke="black" points="255,-213.72 259,-213.72 259,-209.72 255,-209.72 "/>
<polyline fill="none" stroke="black" points="255,-189.72 259,-189.72 259,-185.72 255,-185.72 "/>
<text text-anchor="middle" x="370" y="-196.02" font-family="Times,serif" font-size="14.00">WALL_VELOCITY_NO_GRADH</text>
</a>
</g>
</g>
<!-- CALL_8b2fce0&#45;&gt;CALL_8b32360 -->
<g id="edge17" class="edge">
<title>CALL_8b2fce0&#45;&gt;CALL_8b32360</title>
<path fill="none" stroke="black" d="M378.28,-253.42C377.07,-245.7 375.61,-236.43 374.26,-227.83"/>
<polygon fill="black" stroke="black" points="377.7,-227.16 372.69,-217.82 370.78,-228.25 377.7,-227.16"/>
</g>
<!-- CALL_8b32360&#45;&gt;endIf_IF_8b32800 -->
<g id="edge19" class="edge">
<title>CALL_8b32360&#45;&gt;endIf_IF_8b32800</title>
<path fill="none" stroke="black" d="M337.81,-181.66C309.49,-166.65 272.4,-146.99 270.11,-145.78"/>
</g>
<!-- end_SUBPROGRAM_8b40ae0 -->
<g id="node22" class="node">
<title>end_SUBPROGRAM_8b40ae0</title>
<ellipse fill="black" stroke="black" cx="270" cy="-30" rx="7" ry="7"/>
</g>
<!-- COMMENT_8b2d1e0+1&#45;&gt;end_SUBPROGRAM_8b40ae0 -->
<g id="edge22" class="edge">
<title>COMMENT_8b2d1e0+1&#45;&gt;end_SUBPROGRAM_8b40ae0</title>
<path fill="none" stroke="black" d="M270,-72.93C270,-64.89 270,-55.33 270,-47.37"/>
<polygon fill="black" stroke="black" points="273.5,-47.22 270,-37.22 266.5,-47.22 273.5,-47.22"/>
</g>
</g>
</svg>
