<?xml version="1.0" encoding="UTF-8" standalone="no"?>
<!DOCTYPE svg PUBLIC "-//W3C//DTD SVG 1.1//EN"
 "http://www.w3.org/Graphics/SVG/1.1/DTD/svg11.dtd">
<!-- Generated by graphviz version 2.43.0 (0)
 -->
<!-- Title: VELOCITY_BC Pages: 1 -->
<svg width="1064pt" height="3394pt"
 viewBox="0.00 0.00 1064.00 3393.64" xmlns="http://www.w3.org/2000/svg" xmlns:xlink="http://www.w3.org/1999/xlink">
<g id="graph0" class="graph" transform="scale(1 1) rotate(0) translate(4 3389.64)">
<title>VELOCITY_BC</title>
<polygon fill="white" stroke="transparent" points="-4,4 -4,-3389.64 1060,-3389.64 1060,4 -4,4"/>
<text text-anchor="middle" x="528" y="-7.8" font-family="Times,serif" font-size="14.00">VELOCITY_BC</text>
<g id="clust1" class="cluster">
<title>cluster_EDGE_LOOP</title>
<polygon fill="none" stroke="orange" points="8,-137 8,-2971.64 1048,-2971.64 1048,-137 8,-137"/>
<text text-anchor="middle" x="62" y="-2956.44" font-family="Times,serif" font-size="14.00">EDGE_LOOP</text>
</g>
<g id="clust2" class="cluster">
<title>cluster_SIGN_LOOP</title>
<polygon fill="none" stroke="orange" points="16,-538.16 16,-2571.92 1040,-2571.92 1040,-538.16 16,-538.16"/>
<text text-anchor="middle" x="67.5" y="-2556.72" font-family="Times,serif" font-size="14.00">SIGN_LOOP</text>
</g>
<g id="clust3" class="cluster">
<title>cluster_ORIENTATION_LOOP</title>
<polygon fill="none" stroke="orange" points="24,-574.88 24,-2532.2 1032,-2532.2 1032,-574.88 24,-574.88"/>
<text text-anchor="middle" x="108.5" y="-2517" font-family="Times,serif" font-size="14.00">ORIENTATION_LOOP</text>
</g>
<g id="clust4" class="cluster">
<title>cluster_OPEN_AND_WIND_BC</title>
<polygon fill="none" stroke="blue" points="376,-1445.04 376,-1668.48 744,-1668.48 744,-1445.04 376,-1445.04"/>
<text text-anchor="middle" x="464.5" y="-1653.28" font-family="Times,serif" font-size="14.00">OPEN_AND_WIND_BC</text>
</g>
<g id="clust5" class="cluster">
<title>cluster_cond8768ca0</title>
<polygon fill="none" stroke="black" points="384,-1481.76 384,-1628.76 736,-1628.76 736,-1481.76 384,-1481.76"/>
<text text-anchor="middle" x="439.5" y="-1613.56" font-family="Times,serif" font-size="14.00">cond8768ca0</text>
</g>
<g id="clust6" class="cluster">
<title>cluster_INTERPOLATION_IF</title>
<polygon fill="none" stroke="blue" points="32,-683.6 32,-1301.04 1024,-1301.04 1024,-683.6 32,-683.6"/>
<text text-anchor="middle" x="113" y="-1285.84" font-family="Times,serif" font-size="14.00">INTERPOLATION_IF</text>
</g>
<g id="clust7" class="cluster">
<title>cluster_cond87e4de0</title>
<polygon fill="none" stroke="black" points="40,-720.32 40,-1261.32 818,-1261.32 818,-720.32 40,-720.32"/>
<text text-anchor="middle" x="96" y="-1246.12" font-family="Times,serif" font-size="14.00">cond87e4de0</text>
</g>
<g id="clust8" class="cluster">
<title>cluster_cond8925b20</title>
<polygon fill="none" stroke="black" points="826,-1177.82 826,-1252.82 1016,-1252.82 1016,-1177.82 826,-1177.82"/>
<text text-anchor="middle" x="882.5" y="-1237.62" font-family="Times,serif" font-size="14.00">cond8925b20</text>
</g>
<g id="clust9" class="cluster">
<title>cluster_SIGN_LOOP_2</title>
<polygon fill="none" stroke="orange" points="553,-173.72 553,-322.16 753,-322.16 753,-173.72 553,-173.72"/>
<text text-anchor="middle" x="612.5" y="-306.96" font-family="Times,serif" font-size="14.00">SIGN_LOOP_2</text>
</g>
<!-- start_SUBPROGRAM_895aa20 -->
<g id="node1" class="node">
<title>start_SUBPROGRAM_895aa20</title>
<ellipse fill="none" stroke="black" cx="560" cy="-3378.64" rx="7" ry="7"/>
</g>
<!-- COMMENT_853adc0+1 -->
<g id="node2" class="node">
<title>COMMENT_853adc0+1</title>
<polygon fill="none" stroke="black" points="961,-3335.64 153,-3335.64 153,-3267.64 967,-3267.64 967,-3329.64 961,-3335.64"/>
<polyline fill="none" stroke="black" points="961,-3335.64 961,-3329.64 "/>
<polyline fill="none" stroke="black" points="967,-3329.64 961,-3329.64 "/>
<text text-anchor="middle" x="560" y="-3320.44" font-family="Times,serif" font-size="14.00">!&gt; brief Assert tangential velocity boundary conditions</text>
<text text-anchor="middle" x="560" y="-3305.44" font-family="Times,serif" font-size="14.00">!&gt; param T Current time (s)</text>
<text text-anchor="middle" x="560" y="-3290.44" font-family="Times,serif" font-size="14.00">!&gt; param NM Mesh number</text>
<text text-anchor="middle" x="560" y="-3275.44" font-family="Times,serif" font-size="14.00">!&gt; param APPLY_TO_ESTIMATED_VARIABLES Flag indicating that estimated (starred) variables are to be used</text>
</g>
<!-- start_SUBPROGRAM_895aa20&#45;&gt;COMMENT_853adc0+1 -->
<g id="edge1" class="edge">
<title>start_SUBPROGRAM_895aa20&#45;&gt;COMMENT_853adc0+1</title>
<path fill="none" stroke="black" d="M560,-3371.5C560,-3365.57 560,-3356.02 560,-3345.9"/>
<polygon fill="black" stroke="black" points="563.5,-3345.69 560,-3335.69 556.5,-3345.69 563.5,-3345.69"/>
</g>
<!-- COMMENT_8550760+1 -->
<g id="node3" class="node">
<title>COMMENT_8550760+1</title>
<polygon fill="none" stroke="black" points="674.5,-3231.64 439.5,-3231.64 439.5,-3195.64 680.5,-3195.64 680.5,-3225.64 674.5,-3231.64"/>
<polyline fill="none" stroke="black" points="674.5,-3231.64 674.5,-3225.64 "/>
<polyline fill="none" stroke="black" points="680.5,-3225.64 674.5,-3225.64 "/>
<text text-anchor="middle" x="560" y="-3209.94" font-family="Times,serif" font-size="14.00">Assign local names to variables</text>
</g>
<!-- COMMENT_853adc0+1&#45;&gt;COMMENT_8550760+1 -->
<g id="edge2" class="edge">
<title>COMMENT_853adc0+1&#45;&gt;COMMENT_8550760+1</title>
<path fill="none" stroke="black" d="M560,-3267.64C560,-3259.2 560,-3250.23 560,-3242.11"/>
<polygon fill="black" stroke="black" points="563.5,-3242.04 560,-3232.04 556.5,-3242.04 563.5,-3242.04"/>
</g>
<!-- CALL_8550760 -->
<g id="node4" class="node">
<title>CALL_8550760</title>
<g id="a_node4"><a xlink:href="POINT_TO_MESH.svg" xlink:title="POINT_TO_MESH">
<polygon fill="lightgray" stroke="black" points="632,-3159.64 488,-3159.64 488,-3155.64 484,-3155.64 484,-3151.64 488,-3151.64 488,-3131.64 484,-3131.64 484,-3127.64 488,-3127.64 488,-3123.64 632,-3123.64 632,-3159.64"/>
<polyline fill="none" stroke="black" points="488,-3155.64 492,-3155.64 492,-3151.64 488,-3151.64 "/>
<polyline fill="none" stroke="black" points="488,-3131.64 492,-3131.64 492,-3127.64 488,-3127.64 "/>
<text text-anchor="middle" x="560" y="-3137.94" font-family="Times,serif" font-size="14.00">POINT_TO_MESH</text>
</a>
</g>
</g>
<!-- COMMENT_8550760+1&#45;&gt;CALL_8550760 -->
<g id="edge3" class="edge">
<title>COMMENT_8550760+1&#45;&gt;CALL_8550760</title>
<path fill="none" stroke="black" d="M560,-3195.34C560,-3187.62 560,-3178.35 560,-3169.75"/>
<polygon fill="black" stroke="black" points="563.5,-3169.74 560,-3159.74 556.5,-3169.74 563.5,-3169.74"/>
</g>
<!-- COMMENT_854ad40+1 -->
<g id="node5" class="node">
<title>COMMENT_854ad40+1</title>
<polygon fill="none" stroke="black" points="696,-3087.64 418,-3087.64 418,-3051.64 702,-3051.64 702,-3081.64 696,-3087.64"/>
<polyline fill="none" stroke="black" points="696,-3087.64 696,-3081.64 "/>
<polyline fill="none" stroke="black" points="702,-3081.64 696,-3081.64 "/>
<text text-anchor="middle" x="560" y="-3065.94" font-family="Times,serif" font-size="14.00">Point to the appropriate velocity field</text>
</g>
<!-- CALL_8550760&#45;&gt;COMMENT_854ad40+1 -->
<g id="edge4" class="edge">
<title>CALL_8550760&#45;&gt;COMMENT_854ad40+1</title>
<path fill="none" stroke="black" d="M560,-3123.34C560,-3115.62 560,-3106.35 560,-3097.75"/>
<polygon fill="black" stroke="black" points="563.5,-3097.74 560,-3087.74 556.5,-3097.74 563.5,-3097.74"/>
</g>
<!-- COMMENT_853c6a0+1 -->
<g id="node6" class="node">
<title>COMMENT_853c6a0+1</title>
<polygon fill="none" stroke="black" points="805.5,-3015.64 308.5,-3015.64 308.5,-2979.64 811.5,-2979.64 811.5,-3009.64 805.5,-3015.64"/>
<polyline fill="none" stroke="black" points="805.5,-3015.64 805.5,-3009.64 "/>
<polyline fill="none" stroke="black" points="811.5,-3009.64 805.5,-3009.64 "/>
<text text-anchor="middle" x="560" y="-2993.94" font-family="Times,serif" font-size="14.00">Loop over all cell edges and determine the appropriate velocity BCs</text>
</g>
<!-- COMMENT_854ad40+1&#45;&gt;COMMENT_853c6a0+1 -->
<g id="edge5" class="edge">
<title>COMMENT_854ad40+1&#45;&gt;COMMENT_853c6a0+1</title>
<path fill="none" stroke="black" d="M560,-3051.34C560,-3043.62 560,-3034.35 560,-3025.75"/>
<polygon fill="black" stroke="black" points="563.5,-3025.74 560,-3015.74 556.5,-3025.74 563.5,-3025.74"/>
</g>
<!-- beginDO_DO_8957ba0 -->
<g id="node7" class="node">
<title>beginDO_DO_8957ba0</title>
<ellipse fill="black" stroke="black" cx="560" cy="-2940.28" rx="0.36" ry="0.36"/>
</g>
<!-- COMMENT_853c6a0+1&#45;&gt;beginDO_DO_8957ba0 -->
<g id="edge50" class="edge">
<title>COMMENT_853c6a0+1&#45;&gt;beginDO_DO_8957ba0</title>
<path fill="none" stroke="black" d="M560,-2979.43C560,-2963.68 560,-2942.64 560,-2941.34"/>
</g>
<!-- COMMENT_8557d00+1 -->
<g id="node9" class="node">
<title>COMMENT_8557d00+1</title>
<polygon fill="none" stroke="black" points="891.5,-2903.92 222.5,-2903.92 222.5,-2867.92 897.5,-2867.92 897.5,-2897.92 891.5,-2903.92"/>
<polyline fill="none" stroke="black" points="891.5,-2903.92 891.5,-2897.92 "/>
<polyline fill="none" stroke="black" points="897.5,-2897.92 891.5,-2897.92 "/>
<text text-anchor="middle" x="560" y="-2882.22" font-family="Times,serif" font-size="14.00">Throw out edges that are completely surrounded by blockages or the exterior of the domain</text>
</g>
<!-- beginDO_DO_8957ba0&#45;&gt;COMMENT_8557d00+1 -->
<g id="edge6" class="edge">
<title>beginDO_DO_8957ba0&#45;&gt;COMMENT_8557d00+1</title>
<path fill="none" stroke="black" d="M560,-2939.77C560,-2938.29 560,-2926.24 560,-2914.02"/>
<polygon fill="black" stroke="black" points="563.5,-2913.94 560,-2903.94 556.5,-2913.94 563.5,-2913.94"/>
</g>
<!-- endDO_DO_8957ba0 -->
<g id="node8" class="node">
<title>endDO_DO_8957ba0</title>
<ellipse fill="black" stroke="black" cx="653" cy="-145.36" rx="0.36" ry="0.36"/>
</g>
<!-- CALL_895a7e0 -->
<g id="node52" class="node">
<title>CALL_895a7e0</title>
<g id="a_node52"><a xlink:href="CC_VELOCITY_BC.svg" xlink:title="CC_VELOCITY_BC">
<polygon fill="lightgray" stroke="black" points="726,-109 580,-109 580,-105 576,-105 576,-101 580,-101 580,-81 576,-81 576,-77 580,-77 580,-73 726,-73 726,-109"/>
<polyline fill="none" stroke="black" points="580,-105 584,-105 584,-101 580,-101 "/>
<polyline fill="none" stroke="black" points="580,-81 584,-81 584,-77 580,-77 "/>
<text text-anchor="middle" x="653" y="-87.3" font-family="Times,serif" font-size="14.00">CC_VELOCITY_BC</text>
</a>
</g>
</g>
<!-- endDO_DO_8957ba0&#45;&gt;CALL_895a7e0 -->
<g id="edge52" class="edge">
<title>endDO_DO_8957ba0&#45;&gt;CALL_895a7e0</title>
<path fill="none" stroke="black" d="M653,-144.21C653,-142.77 653,-131.23 653,-119.36"/>
<polygon fill="black" stroke="black" points="656.5,-119.1 653,-109.1 649.5,-119.1 656.5,-119.1"/>
</g>
<!-- COMMENT_855cc00+1 -->
<g id="node10" class="node">
<title>COMMENT_855cc00+1</title>
<polygon fill="none" stroke="black" points="662.5,-2831.92 451.5,-2831.92 451.5,-2795.92 668.5,-2795.92 668.5,-2825.92 662.5,-2831.92"/>
<polyline fill="none" stroke="black" points="662.5,-2831.92 662.5,-2825.92 "/>
<polyline fill="none" stroke="black" points="668.5,-2825.92 662.5,-2825.92 "/>
<text text-anchor="middle" x="560" y="-2810.22" font-family="Times,serif" font-size="14.00">Unpack indices for the edge</text>
</g>
<!-- COMMENT_8557d00+1&#45;&gt;COMMENT_855cc00+1 -->
<g id="edge7" class="edge">
<title>COMMENT_8557d00+1&#45;&gt;COMMENT_855cc00+1</title>
<path fill="none" stroke="black" d="M560,-2867.62C560,-2859.9 560,-2850.63 560,-2842.03"/>
<polygon fill="black" stroke="black" points="563.5,-2842.02 560,-2832.02 556.5,-2842.02 563.5,-2842.02"/>
</g>
<!-- COMMENT_8562f60+1 -->
<g id="node11" class="node">
<title>COMMENT_8562f60+1</title>
<polygon fill="none" stroke="black" points="767,-2759.92 347,-2759.92 347,-2723.92 773,-2723.92 773,-2753.92 767,-2759.92"/>
<polyline fill="none" stroke="black" points="767,-2759.92 767,-2753.92 "/>
<polyline fill="none" stroke="black" points="773,-2753.92 767,-2753.92 "/>
<text text-anchor="middle" x="560" y="-2738.22" font-family="Times,serif" font-size="14.00">Get the velocity components at the appropriate cell faces</text>
</g>
<!-- COMMENT_855cc00+1&#45;&gt;COMMENT_8562f60+1 -->
<g id="edge8" class="edge">
<title>COMMENT_855cc00+1&#45;&gt;COMMENT_8562f60+1</title>
<path fill="none" stroke="black" d="M560,-2795.62C560,-2787.9 560,-2778.63 560,-2770.03"/>
<polygon fill="black" stroke="black" points="563.5,-2770.02 560,-2760.02 556.5,-2770.02 563.5,-2770.02"/>
</g>
<!-- COMMENT_855bda0+1 -->
<g id="node12" class="node">
<title>COMMENT_855bda0+1</title>
<polygon fill="none" stroke="black" points="903.5,-2687.92 210.5,-2687.92 210.5,-2651.92 909.5,-2651.92 909.5,-2681.92 903.5,-2687.92"/>
<polyline fill="none" stroke="black" points="903.5,-2687.92 903.5,-2681.92 "/>
<polyline fill="none" stroke="black" points="909.5,-2681.92 903.5,-2681.92 "/>
<text text-anchor="middle" x="560" y="-2666.22" font-family="Times,serif" font-size="14.00">Indicate that the velocity gradients in the two orthogonal directions have not been changed yet</text>
</g>
<!-- COMMENT_8562f60+1&#45;&gt;COMMENT_855bda0+1 -->
<g id="edge9" class="edge">
<title>COMMENT_8562f60+1&#45;&gt;COMMENT_855bda0+1</title>
<path fill="none" stroke="black" d="M560,-2723.62C560,-2715.9 560,-2706.63 560,-2698.03"/>
<polygon fill="black" stroke="black" points="563.5,-2698.02 560,-2688.02 556.5,-2698.02 563.5,-2698.02"/>
</g>
<!-- COMMENT_8584da0+1 -->
<g id="node13" class="node">
<title>COMMENT_8584da0+1</title>
<polygon fill="none" stroke="black" points="879.5,-2615.92 234.5,-2615.92 234.5,-2579.92 885.5,-2579.92 885.5,-2609.92 879.5,-2615.92"/>
<polyline fill="none" stroke="black" points="879.5,-2615.92 879.5,-2609.92 "/>
<polyline fill="none" stroke="black" points="885.5,-2609.92 879.5,-2609.92 "/>
<text text-anchor="middle" x="560" y="-2594.22" font-family="Times,serif" font-size="14.00">Loop over all possible orientations of edge and reassign velocity gradients if appropriate</text>
</g>
<!-- COMMENT_855bda0+1&#45;&gt;COMMENT_8584da0+1 -->
<g id="edge10" class="edge">
<title>COMMENT_855bda0+1&#45;&gt;COMMENT_8584da0+1</title>
<path fill="none" stroke="black" d="M560,-2651.62C560,-2643.9 560,-2634.63 560,-2626.03"/>
<polygon fill="black" stroke="black" points="563.5,-2626.02 560,-2616.02 556.5,-2626.02 563.5,-2626.02"/>
</g>
<!-- beginDO_DO_8941380 -->
<g id="node14" class="node">
<title>beginDO_DO_8941380</title>
<ellipse fill="black" stroke="black" cx="560" cy="-2540.56" rx="0.36" ry="0.36"/>
</g>
<!-- COMMENT_8584da0+1&#45;&gt;beginDO_DO_8941380 -->
<g id="edge42" class="edge">
<title>COMMENT_8584da0+1&#45;&gt;beginDO_DO_8941380</title>
<path fill="none" stroke="black" d="M560,-2579.71C560,-2563.96 560,-2542.92 560,-2541.62"/>
</g>
<!-- beginDO_DO_8941080 -->
<g id="node16" class="node">
<title>beginDO_DO_8941080</title>
<ellipse fill="black" stroke="black" cx="560" cy="-2500.84" rx="0.36" ry="0.36"/>
</g>
<!-- beginDO_DO_8941380&#45;&gt;beginDO_DO_8941080 -->
<g id="edge40" class="edge">
<title>beginDO_DO_8941380&#45;&gt;beginDO_DO_8941080</title>
<path fill="none" stroke="black" d="M560,-2540.09C560,-2537.91 560,-2504.06 560,-2501.94"/>
</g>
<!-- endDO_DO_8941380 -->
<g id="node15" class="node">
<title>endDO_DO_8941380</title>
<ellipse fill="black" stroke="black" cx="653" cy="-546.52" rx="0.36" ry="0.36"/>
</g>
<!-- COMMENT_893f6c0+1 -->
<g id="node46" class="node">
<title>COMMENT_893f6c0+1</title>
<polygon fill="none" stroke="black" points="921,-510.16 379,-510.16 379,-474.16 927,-474.16 927,-504.16 921,-510.16"/>
<polyline fill="none" stroke="black" points="921,-510.16 921,-504.16 "/>
<polyline fill="none" stroke="black" points="927,-504.16 921,-504.16 "/>
<text text-anchor="middle" x="653" y="-488.46" font-family="Times,serif" font-size="14.00">Cycle out of the EDGE_LOOP if no tangential gradients have been altered.</text>
</g>
<!-- endDO_DO_8941380&#45;&gt;COMMENT_893f6c0+1 -->
<g id="edge44" class="edge">
<title>endDO_DO_8941380&#45;&gt;COMMENT_893f6c0+1</title>
<path fill="none" stroke="black" d="M653,-545.37C653,-543.93 653,-532.39 653,-520.52"/>
<polygon fill="black" stroke="black" points="656.5,-520.26 653,-510.26 649.5,-520.26 656.5,-520.26"/>
</g>
<!-- COMMENT_85868e0+1 -->
<g id="node18" class="node">
<title>COMMENT_85868e0+1</title>
<polygon fill="none" stroke="black" points="773,-2464.48 341,-2464.48 341,-2428.48 779,-2428.48 779,-2458.48 773,-2464.48"/>
<polyline fill="none" stroke="black" points="773,-2464.48 773,-2458.48 "/>
<polyline fill="none" stroke="black" points="779,-2458.48 773,-2458.48 "/>
<text text-anchor="middle" x="560" y="-2442.78" font-family="Times,serif" font-size="14.00">IOR is the orientation of the wall cells adjacent to the edge</text>
</g>
<!-- beginDO_DO_8941080&#45;&gt;COMMENT_85868e0+1 -->
<g id="edge11" class="edge">
<title>beginDO_DO_8941080&#45;&gt;COMMENT_85868e0+1</title>
<path fill="none" stroke="black" d="M560,-2500.33C560,-2498.85 560,-2486.8 560,-2474.58"/>
<polygon fill="black" stroke="black" points="563.5,-2474.5 560,-2464.5 556.5,-2474.5 563.5,-2474.5"/>
</g>
<!-- endDO_DO_8941080 -->
<g id="node17" class="node">
<title>endDO_DO_8941080</title>
<ellipse fill="black" stroke="black" cx="653" cy="-583.24" rx="0.36" ry="0.36"/>
</g>
<!-- endDO_DO_8941080&#45;&gt;endDO_DO_8941380 -->
<g id="edge43" class="edge">
<title>endDO_DO_8941080&#45;&gt;endDO_DO_8941380</title>
<path fill="none" stroke="black" d="M653,-582.14C653,-580.13 653,-548.92 653,-546.98"/>
</g>
<!-- COMMENT_85870a0+1 -->
<g id="node19" class="node">
<title>COMMENT_85870a0+1</title>
<polygon fill="none" stroke="black" points="739.5,-2392.48 374.5,-2392.48 374.5,-2356.48 745.5,-2356.48 745.5,-2386.48 739.5,-2392.48"/>
<polyline fill="none" stroke="black" points="739.5,-2392.48 739.5,-2386.48 "/>
<polyline fill="none" stroke="black" points="745.5,-2386.48 739.5,-2386.48 "/>
<text text-anchor="middle" x="560" y="-2370.78" font-family="Times,serif" font-size="14.00">IS2 is the other coordinate direction besides IOR.</text>
</g>
<!-- COMMENT_85868e0+1&#45;&gt;COMMENT_85870a0+1 -->
<g id="edge12" class="edge">
<title>COMMENT_85868e0+1&#45;&gt;COMMENT_85870a0+1</title>
<path fill="none" stroke="black" d="M560,-2428.18C560,-2420.46 560,-2411.19 560,-2402.59"/>
<polygon fill="black" stroke="black" points="563.5,-2402.58 560,-2392.58 556.5,-2402.58 563.5,-2402.58"/>
</g>
<!-- COMMENT_858b940+1 -->
<g id="node20" class="node">
<title>COMMENT_858b940+1</title>
<polygon fill="none" stroke="black" points="759,-2320.48 355,-2320.48 355,-2252.48 765,-2252.48 765,-2314.48 759,-2320.48"/>
<polyline fill="none" stroke="black" points="759,-2320.48 759,-2314.48 "/>
<polyline fill="none" stroke="black" points="765,-2314.48 759,-2314.48 "/>
<text text-anchor="middle" x="560" y="-2305.28" font-family="Times,serif" font-size="14.00">Determine Index_Coordinate_Direction</text>
<text text-anchor="middle" x="560" y="-2290.28" font-family="Times,serif" font-size="14.00">IEC=1, ICD=1 refers to DWDY; ICD=2 refers to DVDZ</text>
<text text-anchor="middle" x="560" y="-2275.28" font-family="Times,serif" font-size="14.00">IEC=2, ICD=1 refers to DUDZ; ICD=2 refers to DWDX</text>
<text text-anchor="middle" x="560" y="-2260.28" font-family="Times,serif" font-size="14.00">IEC=3, ICD=1 refers to DVDX; ICD=2 refers to DUDY</text>
</g>
<!-- COMMENT_85870a0+1&#45;&gt;COMMENT_858b940+1 -->
<g id="edge13" class="edge">
<title>COMMENT_85870a0+1&#45;&gt;COMMENT_858b940+1</title>
<path fill="none" stroke="black" d="M560,-2356.08C560,-2348.66 560,-2339.64 560,-2330.62"/>
<polygon fill="black" stroke="black" points="563.5,-2330.51 560,-2320.51 556.5,-2330.51 563.5,-2330.51"/>
</g>
<!-- COMMENT_8588fc0+1 -->
<g id="node21" class="node">
<title>COMMENT_8588fc0+1</title>
<polygon fill="none" stroke="black" points="853,-2216.48 261,-2216.48 261,-2180.48 859,-2180.48 859,-2210.48 853,-2216.48"/>
<polyline fill="none" stroke="black" points="853,-2216.48 853,-2210.48 "/>
<polyline fill="none" stroke="black" points="859,-2210.48 853,-2210.48 "/>
<text text-anchor="middle" x="560" y="-2194.78" font-family="Times,serif" font-size="14.00">IWM and IWP are the wall cell indices of the boundary on either side of the edge.</text>
</g>
<!-- COMMENT_858b940+1&#45;&gt;COMMENT_8588fc0+1 -->
<g id="edge14" class="edge">
<title>COMMENT_858b940+1&#45;&gt;COMMENT_8588fc0+1</title>
<path fill="none" stroke="black" d="M560,-2252.48C560,-2244.04 560,-2235.07 560,-2226.95"/>
<polygon fill="black" stroke="black" points="563.5,-2226.88 560,-2216.88 556.5,-2226.88 563.5,-2226.88"/>
</g>
<!-- COMMENT_8597360+1 -->
<g id="node22" class="node">
<title>COMMENT_8597360+1</title>
<polygon fill="none" stroke="black" points="784,-2144.48 330,-2144.48 330,-2108.48 790,-2108.48 790,-2138.48 784,-2144.48"/>
<polyline fill="none" stroke="black" points="784,-2144.48 784,-2138.48 "/>
<polyline fill="none" stroke="black" points="790,-2138.48 784,-2138.48 "/>
<text text-anchor="middle" x="560" y="-2122.78" font-family="Times,serif" font-size="14.00">If both adjacent wall cells are undefined, cycle out of the loop.</text>
</g>
<!-- COMMENT_8588fc0+1&#45;&gt;COMMENT_8597360+1 -->
<g id="edge15" class="edge">
<title>COMMENT_8588fc0+1&#45;&gt;COMMENT_8597360+1</title>
<path fill="none" stroke="black" d="M560,-2180.18C560,-2172.46 560,-2163.19 560,-2154.59"/>
<polygon fill="black" stroke="black" points="563.5,-2154.58 560,-2144.58 556.5,-2154.58 563.5,-2154.58"/>
</g>
<!-- COMMENT_8595340+1 -->
<g id="node23" class="node">
<title>COMMENT_8595340+1</title>
<polygon fill="none" stroke="black" points="856,-2072.48 258,-2072.48 258,-2036.48 862,-2036.48 862,-2066.48 856,-2072.48"/>
<polyline fill="none" stroke="black" points="856,-2072.48 856,-2066.48 "/>
<polyline fill="none" stroke="black" points="862,-2066.48 856,-2066.48 "/>
<text text-anchor="middle" x="560" y="-2050.78" font-family="Times,serif" font-size="14.00">If there is a solid wall separating the two adjacent wall cells, cycle out of the loop.</text>
</g>
<!-- COMMENT_8597360+1&#45;&gt;COMMENT_8595340+1 -->
<g id="edge16" class="edge">
<title>COMMENT_8597360+1&#45;&gt;COMMENT_8595340+1</title>
<path fill="none" stroke="black" d="M560,-2108.18C560,-2100.46 560,-2091.19 560,-2082.59"/>
<polygon fill="black" stroke="black" points="563.5,-2082.58 560,-2072.58 556.5,-2082.58 563.5,-2082.58"/>
</g>
<!-- COMMENT_859f2e0+1 -->
<g id="node24" class="node">
<title>COMMENT_859f2e0+1</title>
<polygon fill="none" stroke="black" points="770.5,-2000.48 343.5,-2000.48 343.5,-1964.48 776.5,-1964.48 776.5,-1994.48 770.5,-2000.48"/>
<polyline fill="none" stroke="black" points="770.5,-2000.48 770.5,-1994.48 "/>
<polyline fill="none" stroke="black" points="776.5,-1994.48 770.5,-1994.48 "/>
<text text-anchor="middle" x="560" y="-1978.78" font-family="Times,serif" font-size="14.00">If only one adjacent wall cell is defined, use its properties.</text>
</g>
<!-- COMMENT_8595340+1&#45;&gt;COMMENT_859f2e0+1 -->
<g id="edge17" class="edge">
<title>COMMENT_8595340+1&#45;&gt;COMMENT_859f2e0+1</title>
<path fill="none" stroke="black" d="M560,-2036.18C560,-2028.46 560,-2019.19 560,-2010.59"/>
<polygon fill="black" stroke="black" points="563.5,-2010.58 560,-2000.58 556.5,-2010.58 563.5,-2010.58"/>
</g>
<!-- COMMENT_85a3ee0+1 -->
<g id="node25" class="node">
<title>COMMENT_85a3ee0+1</title>
<polygon fill="none" stroke="black" points="729.5,-1928.48 384.5,-1928.48 384.5,-1892.48 735.5,-1892.48 735.5,-1922.48 729.5,-1928.48"/>
<polyline fill="none" stroke="black" points="729.5,-1928.48 729.5,-1922.48 "/>
<polyline fill="none" stroke="black" points="735.5,-1922.48 729.5,-1922.48 "/>
<text text-anchor="middle" x="560" y="-1906.78" font-family="Times,serif" font-size="14.00">If both adjacent wall cells are NULL, cycle out.</text>
</g>
<!-- COMMENT_859f2e0+1&#45;&gt;COMMENT_85a3ee0+1 -->
<g id="edge18" class="edge">
<title>COMMENT_859f2e0+1&#45;&gt;COMMENT_85a3ee0+1</title>
<path fill="none" stroke="black" d="M560,-1964.18C560,-1956.46 560,-1947.19 560,-1938.59"/>
<polygon fill="black" stroke="black" points="563.5,-1938.58 560,-1928.58 556.5,-1938.58 563.5,-1938.58"/>
</g>
<!-- COMMENT_85a6120+1 -->
<g id="node26" class="node">
<title>COMMENT_85a6120+1</title>
<polygon fill="none" stroke="black" points="669.5,-1856.48 444.5,-1856.48 444.5,-1820.48 675.5,-1820.48 675.5,-1850.48 669.5,-1856.48"/>
<polyline fill="none" stroke="black" points="669.5,-1856.48 669.5,-1850.48 "/>
<polyline fill="none" stroke="black" points="675.5,-1850.48 669.5,-1850.48 "/>
<text text-anchor="middle" x="560" y="-1834.78" font-family="Times,serif" font-size="14.00">Set up synthetic eddy method</text>
</g>
<!-- COMMENT_85a3ee0+1&#45;&gt;COMMENT_85a6120+1 -->
<g id="edge19" class="edge">
<title>COMMENT_85a3ee0+1&#45;&gt;COMMENT_85a6120+1</title>
<path fill="none" stroke="black" d="M560,-1892.18C560,-1884.46 560,-1875.19 560,-1866.59"/>
<polygon fill="black" stroke="black" points="563.5,-1866.58 560,-1856.58 556.5,-1866.58 563.5,-1866.58"/>
</g>
<!-- IF_85dc480 -->
<g id="node27" class="node">
<title>IF_85dc480</title>
<polygon fill="none" stroke="blue" points="655,-1784.48 465,-1784.48 465,-1748.48 655,-1748.48 655,-1784.48"/>
<text text-anchor="middle" x="560" y="-1762.78" font-family="Times,serif" font-size="14.00">SYNTHETIC_EDDY_IF_1</text>
</g>
<!-- COMMENT_85a6120+1&#45;&gt;IF_85dc480 -->
<g id="edge20" class="edge">
<title>COMMENT_85a6120+1&#45;&gt;IF_85dc480</title>
<path fill="none" stroke="black" d="M560,-1820.18C560,-1812.46 560,-1803.19 560,-1794.59"/>
<polygon fill="black" stroke="black" points="563.5,-1794.58 560,-1784.58 556.5,-1794.58 563.5,-1794.58"/>
</g>
<!-- COMMENT_85da8e0+1 -->
<g id="node28" class="node">
<title>COMMENT_85da8e0+1</title>
<polygon fill="none" stroke="black" points="804,-1712.48 310,-1712.48 310,-1676.48 810,-1676.48 810,-1706.48 804,-1712.48"/>
<polyline fill="none" stroke="black" points="804,-1712.48 804,-1706.48 "/>
<polyline fill="none" stroke="black" points="810,-1706.48 804,-1706.48 "/>
<text text-anchor="middle" x="560" y="-1690.78" font-family="Times,serif" font-size="14.00">OPEN boundary conditions, both varieties, with and without a wind</text>
</g>
<!-- IF_85dc480&#45;&gt;COMMENT_85da8e0+1 -->
<g id="edge21" class="edge">
<title>IF_85dc480&#45;&gt;COMMENT_85da8e0+1</title>
<path fill="none" stroke="black" d="M560,-1748.18C560,-1740.46 560,-1731.19 560,-1722.59"/>
<polygon fill="black" stroke="black" points="563.5,-1722.58 560,-1712.58 556.5,-1722.58 563.5,-1722.58"/>
</g>
<!-- beginIf_IF_876c540 -->
<g id="node29" class="node">
<title>beginIf_IF_876c540</title>
<ellipse fill="black" stroke="black" cx="560" cy="-1637.12" rx="0.36" ry="0.36"/>
</g>
<!-- COMMENT_85da8e0+1&#45;&gt;beginIf_IF_876c540 -->
<g id="edge25" class="edge">
<title>COMMENT_85da8e0+1&#45;&gt;beginIf_IF_876c540</title>
<path fill="none" stroke="black" d="M560,-1676.27C560,-1660.52 560,-1639.48 560,-1638.18"/>
</g>
<!-- IF_8767480 -->
<g id="node31" class="node">
<title>IF_8767480</title>
<polygon fill="none" stroke="blue" points="640.5,-1597.76 479.5,-1597.76 479.5,-1561.76 640.5,-1561.76 640.5,-1597.76"/>
<text text-anchor="middle" x="560" y="-1576.06" font-family="Times,serif" font-size="14.00">WIND_NO_WIND_IF</text>
</g>
<!-- beginIf_IF_876c540&#45;&gt;IF_8767480 -->
<g id="edge23" class="edge">
<title>beginIf_IF_876c540&#45;&gt;IF_8767480</title>
<path fill="none" stroke="black" d="M560,-1636.6C560,-1634.97 560,-1621.28 560,-1607.86"/>
<polygon fill="black" stroke="black" points="563.5,-1607.86 560,-1597.86 556.5,-1607.86 563.5,-1607.86"/>
</g>
<!-- endIf_IF_876c540 -->
<g id="node30" class="node">
<title>endIf_IF_876c540</title>
<ellipse fill="black" stroke="black" cx="560" cy="-1453.4" rx="0.36" ry="0.36"/>
</g>
<!-- COMMENT_8763a20+1 -->
<g id="node33" class="node">
<title>COMMENT_8763a20+1</title>
<polygon fill="none" stroke="black" points="725.5,-1417.04 388.5,-1417.04 388.5,-1381.04 731.5,-1381.04 731.5,-1411.04 725.5,-1417.04"/>
<polyline fill="none" stroke="black" points="725.5,-1417.04 725.5,-1411.04 "/>
<polyline fill="none" stroke="black" points="731.5,-1411.04 725.5,-1411.04 "/>
<text text-anchor="middle" x="560" y="-1395.34" font-family="Times,serif" font-size="14.00">Define the appropriate gas and ghost velocity</text>
</g>
<!-- endIf_IF_876c540&#45;&gt;COMMENT_8763a20+1 -->
<g id="edge26" class="edge">
<title>endIf_IF_876c540&#45;&gt;COMMENT_8763a20+1</title>
<path fill="none" stroke="black" d="M560,-1452.25C560,-1450.81 560,-1439.27 560,-1427.4"/>
<polygon fill="black" stroke="black" points="563.5,-1427.14 560,-1417.14 556.5,-1427.14 563.5,-1427.14"/>
</g>
<!-- CALL_876b100 -->
<g id="node32" class="node">
<title>CALL_876b100</title>
<g id="a_node32"><a xlink:href="GET_OPENBC_TANGENTIAL_CUTFACE_VEL.svg" xlink:title="GET_OPENBC_TANGENTIAL_CUTFACE_VEL">
<polygon fill="lightgray" stroke="black" points="727.5,-1525.76 392.5,-1525.76 392.5,-1521.76 388.5,-1521.76 388.5,-1517.76 392.5,-1517.76 392.5,-1497.76 388.5,-1497.76 388.5,-1493.76 392.5,-1493.76 392.5,-1489.76 727.5,-1489.76 727.5,-1525.76"/>
<polyline fill="none" stroke="black" points="392.5,-1521.76 396.5,-1521.76 396.5,-1517.76 392.5,-1517.76 "/>
<polyline fill="none" stroke="black" points="392.5,-1497.76 396.5,-1497.76 396.5,-1493.76 392.5,-1493.76 "/>
<text text-anchor="middle" x="560" y="-1504.06" font-family="Times,serif" font-size="14.00">GET_OPENBC_TANGENTIAL_CUTFACE_VEL</text>
</a>
</g>
</g>
<!-- IF_8767480&#45;&gt;CALL_876b100 -->
<g id="edge22" class="edge">
<title>IF_8767480&#45;&gt;CALL_876b100</title>
<path fill="none" stroke="black" d="M560,-1561.46C560,-1553.74 560,-1544.47 560,-1535.87"/>
<polygon fill="black" stroke="black" points="563.5,-1535.86 560,-1525.86 556.5,-1535.86 563.5,-1535.86"/>
</g>
<!-- CALL_876b100&#45;&gt;endIf_IF_876c540 -->
<g id="edge24" class="edge">
<title>CALL_876b100&#45;&gt;endIf_IF_876c540</title>
<path fill="none" stroke="black" d="M560,-1489.7C560,-1474.69 560,-1455.03 560,-1453.82"/>
</g>
<!-- COMMENT_877a020+1 -->
<g id="node34" class="node">
<title>COMMENT_877a020+1</title>
<polygon fill="none" stroke="black" points="857,-1345.04 257,-1345.04 257,-1309.04 863,-1309.04 863,-1339.04 857,-1345.04"/>
<polyline fill="none" stroke="black" points="857,-1345.04 857,-1339.04 "/>
<polyline fill="none" stroke="black" points="863,-1339.04 857,-1339.04 "/>
<text text-anchor="middle" x="560" y="-1323.34" font-family="Times,serif" font-size="14.00">Decide whether or not to process edge using data interpolated from another mesh</text>
</g>
<!-- COMMENT_8763a20+1&#45;&gt;COMMENT_877a020+1 -->
<g id="edge27" class="edge">
<title>COMMENT_8763a20+1&#45;&gt;COMMENT_877a020+1</title>
<path fill="none" stroke="black" d="M560,-1380.74C560,-1373.02 560,-1363.75 560,-1355.15"/>
<polygon fill="black" stroke="black" points="563.5,-1355.14 560,-1345.14 556.5,-1355.14 563.5,-1355.14"/>
</g>
<!-- beginIf_IF_8925b80 -->
<g id="node35" class="node">
<title>beginIf_IF_8925b80</title>
<ellipse fill="black" stroke="black" cx="560" cy="-1269.68" rx="0.36" ry="0.36"/>
</g>
<!-- COMMENT_877a020+1&#45;&gt;beginIf_IF_8925b80 -->
<g id="edge38" class="edge">
<title>COMMENT_877a020+1&#45;&gt;beginIf_IF_8925b80</title>
<path fill="none" stroke="black" d="M560,-1308.83C560,-1293.08 560,-1272.04 560,-1270.74"/>
</g>
<!-- COMMENT_8781080+1 -->
<g id="node37" class="node">
<title>COMMENT_8781080+1</title>
<polygon fill="none" stroke="black" points="803.5,-1230.32 48.5,-1230.32 48.5,-1177.32 809.5,-1177.32 809.5,-1224.32 803.5,-1230.32"/>
<polyline fill="none" stroke="black" points="803.5,-1230.32 803.5,-1224.32 "/>
<polyline fill="none" stroke="black" points="809.5,-1224.32 803.5,-1224.32 "/>
<text text-anchor="middle" x="429" y="-1215.12" font-family="Times,serif" font-size="14.00">Determine appropriate velocity BC by assessing each adjacent wall cell. If the BCs are different on each</text>
<text text-anchor="middle" x="429" y="-1200.12" font-family="Times,serif" font-size="14.00">side of the edge, choose the one with the specified velocity or velocity gradient, if there is one.</text>
<text text-anchor="middle" x="429" y="-1185.12" font-family="Times,serif" font-size="14.00">If not, choose the max value of boundary condition index, simply for consistency.</text>
</g>
<!-- beginIf_IF_8925b80&#45;&gt;COMMENT_8781080+1 -->
<g id="edge34" class="edge">
<title>beginIf_IF_8925b80&#45;&gt;COMMENT_8781080+1</title>
<path fill="none" stroke="black" d="M559.91,-1269.27C557.87,-1268.27 523.32,-1251.26 490.23,-1234.97"/>
<polygon fill="black" stroke="black" points="491.48,-1231.68 480.96,-1230.4 488.39,-1237.96 491.48,-1231.68"/>
</g>
<!-- Empty_8925b20 -->
<g id="node44" class="node">
<title>Empty_8925b20</title>
<ellipse fill="none" stroke="black" cx="921" cy="-1203.82" rx="87.18" ry="18"/>
<text text-anchor="middle" x="921" y="-1200.12" font-family="Times,serif" font-size="14.00">Empty_8925b20</text>
</g>
<!-- beginIf_IF_8925b80&#45;&gt;Empty_8925b20 -->
<g id="edge36" class="edge">
<title>beginIf_IF_8925b80&#45;&gt;Empty_8925b20</title>
<path fill="none" stroke="black" d="M560.04,-1269.32C563.64,-1269.32 794.19,-1269.15 822,-1261.32 846.83,-1254.33 872.04,-1239.8 890.81,-1227.24"/>
<polygon fill="black" stroke="black" points="892.96,-1230 899.21,-1221.45 888.99,-1224.24 892.96,-1230"/>
</g>
<!-- endIf_IF_8925b80 -->
<g id="node36" class="node">
<title>endIf_IF_8925b80</title>
<ellipse fill="black" stroke="black" cx="653" cy="-691.96" rx="0.36" ry="0.36"/>
</g>
<!-- COMMENT_8925f00+1 -->
<g id="node45" class="node">
<title>COMMENT_8925f00+1</title>
<polygon fill="none" stroke="black" points="849,-655.6 451,-655.6 451,-619.6 855,-619.6 855,-649.6 849,-655.6"/>
<polyline fill="none" stroke="black" points="849,-655.6 849,-649.6 "/>
<polyline fill="none" stroke="black" points="855,-649.6 849,-649.6 "/>
<text text-anchor="middle" x="653" y="-633.9" font-family="Times,serif" font-size="14.00">Set ghost cell values at edge of computational domain</text>
</g>
<!-- endIf_IF_8925b80&#45;&gt;COMMENT_8925f00+1 -->
<g id="edge39" class="edge">
<title>endIf_IF_8925b80&#45;&gt;COMMENT_8925f00+1</title>
<path fill="none" stroke="black" d="M653,-690.81C653,-689.37 653,-677.83 653,-665.96"/>
<polygon fill="black" stroke="black" points="656.5,-665.7 653,-655.7 649.5,-665.7 656.5,-665.7"/>
</g>
<!-- COMMENT_8774ce0+1 -->
<g id="node38" class="node">
<title>COMMENT_8774ce0+1</title>
<polygon fill="none" stroke="black" points="656.5,-1141.32 199.5,-1141.32 199.5,-1105.32 662.5,-1105.32 662.5,-1135.32 656.5,-1141.32"/>
<polyline fill="none" stroke="black" points="656.5,-1141.32 656.5,-1135.32 "/>
<polyline fill="none" stroke="black" points="662.5,-1135.32 656.5,-1135.32 "/>
<text text-anchor="middle" x="431" y="-1119.62" font-family="Times,serif" font-size="14.00">Compute the viscosity by averaging the two adjacent gas cells</text>
</g>
<!-- COMMENT_8781080+1&#45;&gt;COMMENT_8774ce0+1 -->
<g id="edge28" class="edge">
<title>COMMENT_8781080+1&#45;&gt;COMMENT_8774ce0+1</title>
<path fill="none" stroke="black" d="M429.65,-1177.12C429.86,-1169.03 430.09,-1160.08 430.3,-1151.87"/>
<polygon fill="black" stroke="black" points="433.8,-1151.74 430.56,-1141.65 426.8,-1151.56 433.8,-1151.74"/>
</g>
<!-- COMMENT_878e960+1 -->
<g id="node39" class="node">
<title>COMMENT_878e960+1</title>
<polygon fill="none" stroke="black" points="564,-1069.32 302,-1069.32 302,-1033.32 570,-1033.32 570,-1063.32 564,-1069.32"/>
<polyline fill="none" stroke="black" points="564,-1069.32 564,-1063.32 "/>
<polyline fill="none" stroke="black" points="570,-1063.32 564,-1063.32 "/>
<text text-anchor="middle" x="436" y="-1047.62" font-family="Times,serif" font-size="14.00">Check for HVAC tangential velocity</text>
</g>
<!-- COMMENT_8774ce0+1&#45;&gt;COMMENT_878e960+1 -->
<g id="edge29" class="edge">
<title>COMMENT_8774ce0+1&#45;&gt;COMMENT_878e960+1</title>
<path fill="none" stroke="black" d="M432.24,-1105.02C432.79,-1097.3 433.45,-1088.03 434.06,-1079.43"/>
<polygon fill="black" stroke="black" points="437.56,-1079.65 434.78,-1069.42 430.57,-1079.15 437.56,-1079.65"/>
</g>
<!-- COMMENT_8795240+1 -->
<g id="node40" class="node">
<title>COMMENT_8795240+1</title>
<polygon fill="none" stroke="black" points="703.5,-997.32 310.5,-997.32 310.5,-961.32 709.5,-961.32 709.5,-991.32 703.5,-997.32"/>
<polyline fill="none" stroke="black" points="703.5,-997.32 703.5,-991.32 "/>
<polyline fill="none" stroke="black" points="709.5,-991.32 703.5,-991.32 "/>
<text text-anchor="middle" x="510" y="-975.62" font-family="Times,serif" font-size="14.00">Determine if there is a tangential velocity component</text>
</g>
<!-- COMMENT_878e960+1&#45;&gt;COMMENT_8795240+1 -->
<g id="edge30" class="edge">
<title>COMMENT_878e960+1&#45;&gt;COMMENT_8795240+1</title>
<path fill="none" stroke="black" d="M454.29,-1033.02C463.43,-1024.37 474.64,-1013.77 484.6,-1004.35"/>
<polygon fill="black" stroke="black" points="487.06,-1006.84 491.92,-997.42 482.25,-1001.75 487.06,-1006.84"/>
</g>
<!-- COMMENT_87b79e0+1 -->
<g id="node41" class="node">
<title>COMMENT_87b79e0+1</title>
<polygon fill="none" stroke="black" points="708.5,-925.32 325.5,-925.32 325.5,-889.32 714.5,-889.32 714.5,-919.32 708.5,-925.32"/>
<polyline fill="none" stroke="black" points="708.5,-925.32 708.5,-919.32 "/>
<polyline fill="none" stroke="black" points="714.5,-919.32 708.5,-919.32 "/>
<text text-anchor="middle" x="520" y="-903.62" font-family="Times,serif" font-size="14.00">Choose the appropriate boundary condition to apply</text>
</g>
<!-- COMMENT_8795240+1&#45;&gt;COMMENT_87b79e0+1 -->
<g id="edge31" class="edge">
<title>COMMENT_8795240+1&#45;&gt;COMMENT_87b79e0+1</title>
<path fill="none" stroke="black" d="M512.47,-961.02C513.57,-953.3 514.9,-944.03 516.13,-935.43"/>
<polygon fill="black" stroke="black" points="519.61,-935.82 517.56,-925.42 512.68,-934.83 519.61,-935.82"/>
</g>
<!-- CALL_87d0ea0 -->
<g id="node42" class="node">
<title>CALL_87d0ea0</title>
<g id="a_node42"><a xlink:href="WALL_MODEL.svg" xlink:title="WALL_MODEL">
<polygon fill="lightgray" stroke="black" points="600.5,-853.32 479.5,-853.32 479.5,-849.32 475.5,-849.32 475.5,-845.32 479.5,-845.32 479.5,-825.32 475.5,-825.32 475.5,-821.32 479.5,-821.32 479.5,-817.32 600.5,-817.32 600.5,-853.32"/>
<polyline fill="none" stroke="black" points="479.5,-849.32 483.5,-849.32 483.5,-845.32 479.5,-845.32 "/>
<polyline fill="none" stroke="black" points="479.5,-825.32 483.5,-825.32 483.5,-821.32 479.5,-821.32 "/>
<text text-anchor="middle" x="540" y="-831.62" font-family="Times,serif" font-size="14.00">WALL_MODEL</text>
</a>
</g>
</g>
<!-- COMMENT_87b79e0+1&#45;&gt;CALL_87d0ea0 -->
<g id="edge32" class="edge">
<title>COMMENT_87b79e0+1&#45;&gt;CALL_87d0ea0</title>
<path fill="none" stroke="black" d="M524.94,-889.02C527.17,-881.22 529.85,-871.83 532.33,-863.15"/>
<polygon fill="black" stroke="black" points="535.73,-864 535.11,-853.42 529,-862.08 535.73,-864"/>
</g>
<!-- COMMENT_87d21c0+1 -->
<g id="node43" class="node">
<title>COMMENT_87d21c0+1</title>
<polygon fill="none" stroke="black" points="800.5,-781.32 347.5,-781.32 347.5,-728.32 806.5,-728.32 806.5,-775.32 800.5,-781.32"/>
<polyline fill="none" stroke="black" points="800.5,-781.32 800.5,-775.32 "/>
<polyline fill="none" stroke="black" points="806.5,-775.32 800.5,-775.32 "/>
<text text-anchor="middle" x="577" y="-766.12" font-family="Times,serif" font-size="14.00">SLIP_COEF = &#45;1, no slip, &#160;&#160;VEL_GHOST = 2*VEL_T &#45; VEL_GAS</text>
<text text-anchor="middle" x="577" y="-751.12" font-family="Times,serif" font-size="14.00">SLIP_COEF = &#160;0, half slip, VEL_GHOST = VEL_T</text>
<text text-anchor="middle" x="577" y="-736.12" font-family="Times,serif" font-size="14.00">SLIP_COEF = &#160;1, free slip, VEL_GHOST = VEL_GAS</text>
</g>
<!-- CALL_87d0ea0&#45;&gt;COMMENT_87d21c0+1 -->
<g id="edge33" class="edge">
<title>CALL_87d0ea0&#45;&gt;COMMENT_87d21c0+1</title>
<path fill="none" stroke="black" d="M548.03,-817.29C551.73,-809.44 556.26,-799.83 560.63,-790.56"/>
<polygon fill="black" stroke="black" points="563.81,-792.01 564.91,-781.48 557.48,-789.03 563.81,-792.01"/>
</g>
<!-- COMMENT_87d21c0+1&#45;&gt;endIf_IF_8925b80 -->
<g id="edge35" class="edge">
<title>COMMENT_87d21c0+1&#45;&gt;endIf_IF_8925b80</title>
<path fill="none" stroke="black" d="M608.79,-728.09C628.97,-711.77 651.54,-693.5 652.93,-692.37"/>
</g>
<!-- Empty_8925b20&#45;&gt;endIf_IF_8925b80 -->
<g id="edge37" class="edge">
<title>Empty_8925b20&#45;&gt;endIf_IF_8925b80</title>
<path fill="none" stroke="black" d="M911.94,-1185.75C898.28,-1158.4 874,-1102.69 874,-1052.32 874,-1052.32 874,-1052.32 874,-834.32 874,-778.63 866.21,-754.18 822,-720.32 792.25,-697.54 657.31,-692.48 653.1,-692.32"/>
</g>
<!-- COMMENT_8925f00+1&#45;&gt;endDO_DO_8941080 -->
<g id="edge41" class="edge">
<title>COMMENT_8925f00+1&#45;&gt;endDO_DO_8941080</title>
<path fill="none" stroke="black" d="M653,-619.54C653,-604.53 653,-584.87 653,-583.66"/>
</g>
<!-- COMMENT_8942940+1 -->
<g id="node47" class="node">
<title>COMMENT_8942940+1</title>
<polygon fill="none" stroke="black" points="956,-438.16 344,-438.16 344,-402.16 962,-402.16 962,-432.16 956,-438.16"/>
<polyline fill="none" stroke="black" points="956,-438.16 956,-432.16 "/>
<polyline fill="none" stroke="black" points="962,-432.16 956,-432.16 "/>
<text text-anchor="middle" x="653" y="-416.46" font-family="Times,serif" font-size="14.00">If the edge is on an interpolated boundary, and all cells around it are not solid, cycle</text>
</g>
<!-- COMMENT_893f6c0+1&#45;&gt;COMMENT_8942940+1 -->
<g id="edge45" class="edge">
<title>COMMENT_893f6c0+1&#45;&gt;COMMENT_8942940+1</title>
<path fill="none" stroke="black" d="M653,-473.86C653,-466.14 653,-456.87 653,-448.27"/>
<polygon fill="black" stroke="black" points="656.5,-448.26 653,-438.26 649.5,-448.26 656.5,-448.26"/>
</g>
<!-- COMMENT_893f0c0+1 -->
<g id="node48" class="node">
<title>COMMENT_893f0c0+1</title>
<polygon fill="none" stroke="black" points="995,-366.16 305,-366.16 305,-330.16 1001,-330.16 1001,-360.16 995,-366.16"/>
<polyline fill="none" stroke="black" points="995,-366.16 995,-360.16 "/>
<polyline fill="none" stroke="black" points="1001,-360.16 995,-360.16 "/>
<text text-anchor="middle" x="653" y="-344.46" font-family="Times,serif" font-size="14.00">Loop over all 4 normal directions and compute vorticity and stress tensor components for each</text>
</g>
<!-- COMMENT_8942940+1&#45;&gt;COMMENT_893f0c0+1 -->
<g id="edge46" class="edge">
<title>COMMENT_8942940+1&#45;&gt;COMMENT_893f0c0+1</title>
<path fill="none" stroke="black" d="M653,-401.86C653,-394.14 653,-384.87 653,-376.27"/>
<polygon fill="black" stroke="black" points="656.5,-376.26 653,-366.26 649.5,-376.26 656.5,-376.26"/>
</g>
<!-- beginDO_DO_8956f80 -->
<g id="node49" class="node">
<title>beginDO_DO_8956f80</title>
<ellipse fill="black" stroke="black" cx="653" cy="-290.8" rx="0.36" ry="0.36"/>
</g>
<!-- COMMENT_893f0c0+1&#45;&gt;beginDO_DO_8956f80 -->
<g id="edge48" class="edge">
<title>COMMENT_893f0c0+1&#45;&gt;beginDO_DO_8956f80</title>
<path fill="none" stroke="black" d="M653,-329.95C653,-314.2 653,-293.16 653,-291.86"/>
</g>
<!-- DO_8957700 -->
<g id="node51" class="node">
<title>DO_8957700</title>
<polygon fill="none" stroke="orange" points="745.5,-254.44 560.5,-254.44 560.5,-218.44 745.5,-218.44 745.5,-254.44"/>
<text text-anchor="middle" x="653" y="-232.74" font-family="Times,serif" font-size="14.00">ORIENTATION_LOOP_2</text>
</g>
<!-- beginDO_DO_8956f80&#45;&gt;DO_8957700 -->
<g id="edge47" class="edge">
<title>beginDO_DO_8956f80&#45;&gt;DO_8957700</title>
<path fill="none" stroke="black" d="M653,-290.29C653,-288.81 653,-276.76 653,-264.54"/>
<polygon fill="black" stroke="black" points="656.5,-264.46 653,-254.46 649.5,-264.46 656.5,-264.46"/>
</g>
<!-- endDO_DO_8956f80 -->
<g id="node50" class="node">
<title>endDO_DO_8956f80</title>
<ellipse fill="black" stroke="black" cx="653" cy="-182.08" rx="0.36" ry="0.36"/>
</g>
<!-- endDO_DO_8956f80&#45;&gt;endDO_DO_8957ba0 -->
<g id="edge51" class="edge">
<title>endDO_DO_8956f80&#45;&gt;endDO_DO_8957ba0</title>
<path fill="none" stroke="black" d="M653,-180.98C653,-178.97 653,-147.76 653,-145.82"/>
</g>
<!-- DO_8957700&#45;&gt;endDO_DO_8956f80 -->
<g id="edge49" class="edge">
<title>DO_8957700&#45;&gt;endDO_DO_8956f80</title>
<path fill="none" stroke="black" d="M653,-218.38C653,-203.37 653,-183.71 653,-182.5"/>
</g>
<!-- end_SUBPROGRAM_895aa20 -->
<g id="node53" class="node">
<title>end_SUBPROGRAM_895aa20</title>
<ellipse fill="black" stroke="black" cx="653" cy="-30" rx="7" ry="7"/>
</g>
<!-- CALL_895a7e0&#45;&gt;end_SUBPROGRAM_895aa20 -->
<g id="edge53" class="edge">
<title>CALL_895a7e0&#45;&gt;end_SUBPROGRAM_895aa20</title>
<path fill="none" stroke="black" d="M653,-72.93C653,-64.89 653,-55.33 653,-47.37"/>
<polygon fill="black" stroke="black" points="656.5,-47.22 653,-37.22 649.5,-47.22 656.5,-47.22"/>
</g>
</g>
</svg>
