<?xml version="1.0" encoding="UTF-8" standalone="no"?>
<!DOCTYPE svg PUBLIC "-//W3C//DTD SVG 1.1//EN"
 "http://www.w3.org/Graphics/SVG/1.1/DTD/svg11.dtd">
<!-- Generated by graphviz version 2.43.0 (0)
 -->
<!-- Title: VELOCITY_CORRECTOR Pages: 1 -->
<svg width="676pt" height="1110pt"
 viewBox="0.00 0.00 676.00 1110.30" xmlns="http://www.w3.org/2000/svg" xmlns:xlink="http://www.w3.org/1999/xlink">
<g id="graph0" class="graph" transform="scale(1 1) rotate(0) translate(4 1106.3)">
<title>VELOCITY_CORRECTOR</title>
<polygon fill="white" stroke="transparent" points="-4,4 -4,-1106.3 672,-1106.3 672,4 -4,4"/>
<text text-anchor="middle" x="334" y="-7.8" font-family="Times,serif" font-size="14.00">VELOCITY_CORRECTOR</text>
<g id="clust1" class="cluster">
<title>cluster_FREEZE_VELOCITY_IF</title>
<polygon fill="none" stroke="blue" points="26,-137 26,-832.3 660,-832.3 660,-137 26,-137"/>
<text text-anchor="middle" x="116.5" y="-817.1" font-family="Times,serif" font-size="14.00">FREEZE_VELOCITY_IF</text>
</g>
<g id="clust2" class="cluster">
<title>cluster_cond83f7940</title>
<polygon fill="none" stroke="black" points="34,-717.58 34,-792.58 218,-792.58 218,-717.58 34,-717.58"/>
<text text-anchor="middle" x="89" y="-777.38" font-family="Times,serif" font-size="14.00">cond83f7940</text>
</g>
<g id="clust3" class="cluster">
<title>cluster_cond852b7c0</title>
<polygon fill="none" stroke="black" points="226,-173.72 226,-792.58 652,-792.58 652,-173.72 226,-173.72"/>
<text text-anchor="middle" x="282" y="-777.38" font-family="Times,serif" font-size="14.00">cond852b7c0</text>
</g>
<g id="clust4" class="cluster">
<title>cluster_omp_OMP_BEGIN_REGION_83fcc20+1</title>
<polygon fill="none" stroke="red" points="275,-389.72 275,-645.58 572,-645.58 572,-389.72 275,-389.72"/>
<text text-anchor="middle" x="423.5" y="-630.38" font-family="Times,serif" font-size="14.00">omp_OMP_BEGIN_REGION_83fcc20+1</text>
</g>
<!-- start_SUBPROGRAM_853a9e0 -->
<g id="node1" class="node">
<title>start_SUBPROGRAM_853a9e0</title>
<ellipse fill="none" stroke="black" cx="232" cy="-1095.3" rx="7" ry="7"/>
</g>
<!-- COMMENT_83eee40+1 -->
<g id="node2" class="node">
<title>COMMENT_83eee40+1</title>
<polygon fill="none" stroke="black" points="458,-1052.3 0,-1052.3 0,-984.3 464,-984.3 464,-1046.3 458,-1052.3"/>
<polyline fill="none" stroke="black" points="458,-1052.3 458,-1046.3 "/>
<polyline fill="none" stroke="black" points="464,-1046.3 458,-1046.3 "/>
<text text-anchor="middle" x="232" y="-1037.1" font-family="Times,serif" font-size="14.00">!&gt; brief Correct the velocity components at the next time step</text>
<text text-anchor="middle" x="232" y="-1022.1" font-family="Times,serif" font-size="14.00">!&gt; param T Current time (s)</text>
<text text-anchor="middle" x="232" y="-1007.1" font-family="Times,serif" font-size="14.00">!&gt; param DT Time step (s)</text>
<text text-anchor="middle" x="232" y="-992.1" font-family="Times,serif" font-size="14.00">!&gt; param NM Mesh number</text>
</g>
<!-- start_SUBPROGRAM_853a9e0&#45;&gt;COMMENT_83eee40+1 -->
<g id="edge1" class="edge">
<title>start_SUBPROGRAM_853a9e0&#45;&gt;COMMENT_83eee40+1</title>
<path fill="none" stroke="black" d="M232,-1088.16C232,-1082.23 232,-1072.68 232,-1062.56"/>
<polygon fill="black" stroke="black" points="235.5,-1062.35 232,-1052.35 228.5,-1062.35 235.5,-1062.35"/>
</g>
<!-- CALL_83f5140 -->
<g id="node3" class="node">
<title>CALL_83f5140</title>
<g id="a_node3"><a xlink:href="COMPRESSION_WAVE.svg" xlink:title="COMPRESSION_WAVE">
<polygon fill="lightgray" stroke="black" points="322.5,-948.3 141.5,-948.3 141.5,-944.3 137.5,-944.3 137.5,-940.3 141.5,-940.3 141.5,-920.3 137.5,-920.3 137.5,-916.3 141.5,-916.3 141.5,-912.3 322.5,-912.3 322.5,-948.3"/>
<polyline fill="none" stroke="black" points="141.5,-944.3 145.5,-944.3 145.5,-940.3 141.5,-940.3 "/>
<polyline fill="none" stroke="black" points="141.5,-920.3 145.5,-920.3 145.5,-916.3 141.5,-916.3 "/>
<text text-anchor="middle" x="232" y="-926.6" font-family="Times,serif" font-size="14.00">COMPRESSION_WAVE</text>
</a>
</g>
</g>
<!-- COMMENT_83eee40+1&#45;&gt;CALL_83f5140 -->
<g id="edge2" class="edge">
<title>COMMENT_83eee40+1&#45;&gt;CALL_83f5140</title>
<path fill="none" stroke="black" d="M232,-984.3C232,-975.86 232,-966.89 232,-958.77"/>
<polygon fill="black" stroke="black" points="235.5,-958.7 232,-948.7 228.5,-958.7 235.5,-958.7"/>
</g>
<!-- CALL_83f6180 -->
<g id="node4" class="node">
<title>CALL_83f6180</title>
<g id="a_node4"><a xlink:href="POINT_TO_MESH.svg" xlink:title="POINT_TO_MESH">
<polygon fill="lightgray" stroke="black" points="304,-876.3 160,-876.3 160,-872.3 156,-872.3 156,-868.3 160,-868.3 160,-848.3 156,-848.3 156,-844.3 160,-844.3 160,-840.3 304,-840.3 304,-876.3"/>
<polyline fill="none" stroke="black" points="160,-872.3 164,-872.3 164,-868.3 160,-868.3 "/>
<polyline fill="none" stroke="black" points="160,-848.3 164,-848.3 164,-844.3 160,-844.3 "/>
<text text-anchor="middle" x="232" y="-854.6" font-family="Times,serif" font-size="14.00">POINT_TO_MESH</text>
</a>
</g>
</g>
<!-- CALL_83f5140&#45;&gt;CALL_83f6180 -->
<g id="edge3" class="edge">
<title>CALL_83f5140&#45;&gt;CALL_83f6180</title>
<path fill="none" stroke="black" d="M232,-912C232,-904.28 232,-895.01 232,-886.41"/>
<polygon fill="black" stroke="black" points="235.5,-886.4 232,-876.4 228.5,-886.4 235.5,-886.4"/>
</g>
<!-- beginIf_IF_852b840 -->
<g id="node5" class="node">
<title>beginIf_IF_852b840</title>
<ellipse fill="black" stroke="black" cx="232" cy="-800.94" rx="0.36" ry="0.36"/>
</g>
<!-- CALL_83f6180&#45;&gt;beginIf_IF_852b840 -->
<g id="edge16" class="edge">
<title>CALL_83f6180&#45;&gt;beginIf_IF_852b840</title>
<path fill="none" stroke="black" d="M232,-840.09C232,-824.34 232,-803.3 232,-802"/>
</g>
<!-- Empty_83f7940 -->
<g id="node7" class="node">
<title>Empty_83f7940</title>
<ellipse fill="none" stroke="black" cx="126" cy="-743.58" rx="84.49" ry="18"/>
<text text-anchor="middle" x="126" y="-739.88" font-family="Times,serif" font-size="14.00">Empty_83f7940</text>
</g>
<!-- beginIf_IF_852b840&#45;&gt;Empty_83f7940 -->
<g id="edge4" class="edge">
<title>beginIf_IF_852b840&#45;&gt;Empty_83f7940</title>
<path fill="none" stroke="black" d="M231.92,-800.54C230.05,-799.55 194.44,-780.74 165.02,-765.19"/>
<polygon fill="black" stroke="black" points="166.61,-762.08 156.13,-760.5 163.34,-768.26 166.61,-762.08"/>
</g>
<!-- CALL_83f98e0 -->
<g id="node8" class="node">
<title>CALL_83f98e0</title>
<g id="a_node8"><a xlink:href="CC_PROJECT_VELOCITY.svg" xlink:title="CC_PROJECT_VELOCITY">
<polygon fill="lightgray" stroke="black" points="435,-761.58 243,-761.58 243,-757.58 239,-757.58 239,-753.58 243,-753.58 243,-733.58 239,-733.58 239,-729.58 243,-729.58 243,-725.58 435,-725.58 435,-761.58"/>
<polyline fill="none" stroke="black" points="243,-757.58 247,-757.58 247,-753.58 243,-753.58 "/>
<polyline fill="none" stroke="black" points="243,-733.58 247,-733.58 247,-729.58 243,-729.58 "/>
<text text-anchor="middle" x="339" y="-739.88" font-family="Times,serif" font-size="14.00">CC_PROJECT_VELOCITY</text>
</a>
</g>
</g>
<!-- beginIf_IF_852b840&#45;&gt;CALL_83f98e0 -->
<g id="edge14" class="edge">
<title>beginIf_IF_852b840&#45;&gt;CALL_83f98e0</title>
<path fill="none" stroke="black" d="M232.08,-800.54C233.92,-799.58 268.18,-781.64 297.44,-766.33"/>
<polygon fill="black" stroke="black" points="299.07,-769.43 306.31,-761.69 295.83,-763.22 299.07,-769.43"/>
</g>
<!-- endIf_IF_852b840 -->
<g id="node6" class="node">
<title>endIf_IF_852b840</title>
<ellipse fill="black" stroke="black" cx="282" cy="-145.36" rx="0.36" ry="0.36"/>
</g>
<!-- COMMENT_83fdbc0+1 -->
<g id="node17" class="node">
<title>COMMENT_83fdbc0+1</title>
<polygon fill="none" stroke="black" points="395,-109 163,-109 163,-73 401,-73 401,-103 395,-109"/>
<polyline fill="none" stroke="black" points="395,-109 395,-103 "/>
<polyline fill="none" stroke="black" points="401,-103 395,-103 "/>
<text text-anchor="middle" x="282" y="-87.3" font-family="Times,serif" font-size="14.00">Manufactured solution (debug)</text>
</g>
<!-- endIf_IF_852b840&#45;&gt;COMMENT_83fdbc0+1 -->
<g id="edge17" class="edge">
<title>endIf_IF_852b840&#45;&gt;COMMENT_83fdbc0+1</title>
<path fill="none" stroke="black" d="M282,-144.21C282,-142.77 282,-131.23 282,-119.36"/>
<polygon fill="black" stroke="black" points="285.5,-119.1 282,-109.1 278.5,-119.1 285.5,-119.1"/>
</g>
<!-- Empty_83f7940&#45;&gt;endIf_IF_852b840 -->
<g id="edge5" class="edge">
<title>Empty_83f7940&#45;&gt;endIf_IF_852b840</title>
<path fill="none" stroke="black" d="M135.98,-725.51C148.97,-701.66 170,-656.63 170,-615.22 170,-615.22 170,-615.22 170,-270.72 170,-221.8 186.47,-207.34 222,-173.72 242.71,-154.13 279.6,-146.22 281.89,-145.74"/>
</g>
<!-- CALL_83fc160 -->
<g id="node9" class="node">
<title>CALL_83fc160</title>
<g id="a_node9"><a xlink:href="WALL_VELOCITY_NO_GRADH.svg" xlink:title="WALL_VELOCITY_NO_GRADH">
<polygon fill="lightgray" stroke="black" points="509,-689.58 279,-689.58 279,-685.58 275,-685.58 275,-681.58 279,-681.58 279,-661.58 275,-661.58 275,-657.58 279,-657.58 279,-653.58 509,-653.58 509,-689.58"/>
<polyline fill="none" stroke="black" points="279,-685.58 283,-685.58 283,-681.58 279,-681.58 "/>
<polyline fill="none" stroke="black" points="279,-661.58 283,-661.58 283,-657.58 279,-657.58 "/>
<text text-anchor="middle" x="394" y="-667.88" font-family="Times,serif" font-size="14.00">WALL_VELOCITY_NO_GRADH</text>
</a>
</g>
</g>
<!-- CALL_83f98e0&#45;&gt;CALL_83fc160 -->
<g id="edge6" class="edge">
<title>CALL_83f98e0&#45;&gt;CALL_83fc160</title>
<path fill="none" stroke="black" d="M352.6,-725.28C359.12,-716.97 367.07,-706.86 374.25,-697.72"/>
<polygon fill="black" stroke="black" points="377.13,-699.71 380.56,-689.68 371.63,-695.39 377.13,-699.71"/>
</g>
<!-- start_omp_OMP_BEGIN_REGION_83fcc20+1 -->
<g id="node10" class="node">
<title>start_omp_OMP_BEGIN_REGION_83fcc20+1</title>
<ellipse fill="black" stroke="black" cx="400" cy="-614.22" rx="0.36" ry="0.36"/>
</g>
<!-- CALL_83fc160&#45;&gt;start_omp_OMP_BEGIN_REGION_83fcc20+1 -->
<g id="edge7" class="edge">
<title>CALL_83fc160&#45;&gt;start_omp_OMP_BEGIN_REGION_83fcc20+1</title>
<path fill="none" stroke="black" d="M395.87,-653.37C397.57,-637.62 399.85,-616.58 399.99,-615.28"/>
</g>
<!-- OMP_DO_83fcc20+2 -->
<g id="node11" class="node">
<title>OMP_DO_83fcc20+2</title>
<polygon fill="red" stroke="black" points="529,-577.72 283,-577.72 283,-541.72 529,-541.72 529,-577.72"/>
<text text-anchor="middle" x="406" y="-556.02" font-family="Times,serif" font-size="14.00">!$OMP DO SCHEDULE(STATIC)</text>
</g>
<!-- start_omp_OMP_BEGIN_REGION_83fcc20+1&#45;&gt;OMP_DO_83fcc20+2 -->
<g id="edge8" class="edge">
<title>start_omp_OMP_BEGIN_REGION_83fcc20+1&#45;&gt;OMP_DO_83fcc20+2</title>
<path fill="none" stroke="black" d="M400.02,-613.57C400.18,-612.09 401.55,-600.04 402.93,-587.82"/>
<polygon fill="black" stroke="black" points="406.43,-588.08 404.07,-577.74 399.47,-587.29 406.43,-588.08"/>
</g>
<!-- OMP_DO_8509d40+2 -->
<g id="node12" class="node">
<title>OMP_DO_8509d40+2</title>
<polygon fill="red" stroke="black" points="529,-505.72 283,-505.72 283,-469.72 529,-469.72 529,-505.72"/>
<text text-anchor="middle" x="406" y="-484.02" font-family="Times,serif" font-size="14.00">!$OMP DO SCHEDULE(STATIC)</text>
</g>
<!-- OMP_DO_83fcc20+2&#45;&gt;OMP_DO_8509d40+2 -->
<g id="edge9" class="edge">
<title>OMP_DO_83fcc20+2&#45;&gt;OMP_DO_8509d40+2</title>
<path fill="none" stroke="black" d="M406,-541.42C406,-533.7 406,-524.43 406,-515.83"/>
<polygon fill="black" stroke="black" points="409.5,-515.82 406,-505.82 402.5,-515.82 409.5,-515.82"/>
</g>
<!-- OMP_DO_8516520+2 -->
<g id="node13" class="node">
<title>OMP_DO_8516520+2</title>
<polygon fill="red" stroke="black" points="540,-433.72 294,-433.72 294,-397.72 540,-397.72 540,-433.72"/>
<text text-anchor="middle" x="417" y="-412.02" font-family="Times,serif" font-size="14.00">!$OMP DO SCHEDULE(STATIC)</text>
</g>
<!-- OMP_DO_8509d40+2&#45;&gt;OMP_DO_8516520+2 -->
<g id="edge10" class="edge">
<title>OMP_DO_8509d40+2&#45;&gt;OMP_DO_8516520+2</title>
<path fill="none" stroke="black" d="M408.72,-469.42C409.93,-461.7 411.39,-452.43 412.74,-443.83"/>
<polygon fill="black" stroke="black" points="416.22,-444.25 414.31,-433.82 409.3,-443.16 416.22,-444.25"/>
</g>
<!-- OMP_DO_8520b40+1 -->
<g id="node14" class="node">
<title>OMP_DO_8520b40+1</title>
<polygon fill="red" stroke="black" points="644,-361.72 234,-361.72 234,-325.72 644,-325.72 644,-361.72"/>
<text text-anchor="middle" x="439" y="-340.02" font-family="Times,serif" font-size="14.00">!$OMP PARALLEL DO PRIVATE(I) SCHEDULE(STATIC)</text>
</g>
<!-- OMP_DO_8516520+2&#45;&gt;OMP_DO_8520b40+1 -->
<g id="edge11" class="edge">
<title>OMP_DO_8516520+2&#45;&gt;OMP_DO_8520b40+1</title>
<path fill="none" stroke="black" d="M422.44,-397.42C424.89,-389.62 427.84,-380.23 430.57,-371.55"/>
<polygon fill="black" stroke="black" points="433.96,-372.41 433.62,-361.82 427.29,-370.31 433.96,-372.41"/>
</g>
<!-- CALL_8528e60 -->
<g id="node15" class="node">
<title>CALL_8528e60</title>
<g id="a_node15"><a xlink:href="CC_PROJECT_VELOCITY.svg" xlink:title="CC_PROJECT_VELOCITY">
<polygon fill="lightgray" stroke="black" points="512,-289.72 320,-289.72 320,-285.72 316,-285.72 316,-281.72 320,-281.72 320,-261.72 316,-261.72 316,-257.72 320,-257.72 320,-253.72 512,-253.72 512,-289.72"/>
<polyline fill="none" stroke="black" points="320,-285.72 324,-285.72 324,-281.72 320,-281.72 "/>
<polyline fill="none" stroke="black" points="320,-261.72 324,-261.72 324,-257.72 320,-257.72 "/>
<text text-anchor="middle" x="416" y="-268.02" font-family="Times,serif" font-size="14.00">CC_PROJECT_VELOCITY</text>
</a>
</g>
</g>
<!-- OMP_DO_8520b40+1&#45;&gt;CALL_8528e60 -->
<g id="edge12" class="edge">
<title>OMP_DO_8520b40+1&#45;&gt;CALL_8528e60</title>
<path fill="none" stroke="black" d="M433.31,-325.42C430.75,-317.62 427.67,-308.23 424.82,-299.55"/>
<polygon fill="black" stroke="black" points="428.07,-298.23 421.62,-289.82 421.42,-300.42 428.07,-298.23"/>
</g>
<!-- CALL_852b380 -->
<g id="node16" class="node">
<title>CALL_852b380</title>
<g id="a_node16"><a xlink:href="WALL_VELOCITY_NO_GRADH.svg" xlink:title="WALL_VELOCITY_NO_GRADH">
<polygon fill="lightgray" stroke="black" points="509,-217.72 279,-217.72 279,-213.72 275,-213.72 275,-209.72 279,-209.72 279,-189.72 275,-189.72 275,-185.72 279,-185.72 279,-181.72 509,-181.72 509,-217.72"/>
<polyline fill="none" stroke="black" points="279,-213.72 283,-213.72 283,-209.72 279,-209.72 "/>
<polyline fill="none" stroke="black" points="279,-189.72 283,-189.72 283,-185.72 279,-185.72 "/>
<text text-anchor="middle" x="394" y="-196.02" font-family="Times,serif" font-size="14.00">WALL_VELOCITY_NO_GRADH</text>
</a>
</g>
</g>
<!-- CALL_8528e60&#45;&gt;CALL_852b380 -->
<g id="edge13" class="edge">
<title>CALL_8528e60&#45;&gt;CALL_852b380</title>
<path fill="none" stroke="black" d="M410.56,-253.42C408.11,-245.62 405.16,-236.23 402.43,-227.55"/>
<polygon fill="black" stroke="black" points="405.71,-226.31 399.38,-217.82 399.04,-228.41 405.71,-226.31"/>
</g>
<!-- CALL_852b380&#45;&gt;endIf_IF_852b840 -->
<g id="edge15" class="edge">
<title>CALL_852b380&#45;&gt;endIf_IF_852b840</title>
<path fill="none" stroke="black" d="M357.95,-181.66C326.23,-166.65 284.69,-146.99 282.12,-145.78"/>
</g>
<!-- end_SUBPROGRAM_853a9e0 -->
<g id="node18" class="node">
<title>end_SUBPROGRAM_853a9e0</title>
<ellipse fill="black" stroke="black" cx="282" cy="-30" rx="7" ry="7"/>
</g>
<!-- COMMENT_83fdbc0+1&#45;&gt;end_SUBPROGRAM_853a9e0 -->
<g id="edge18" class="edge">
<title>COMMENT_83fdbc0+1&#45;&gt;end_SUBPROGRAM_853a9e0</title>
<path fill="none" stroke="black" d="M282,-72.93C282,-64.89 282,-55.33 282,-47.37"/>
<polygon fill="black" stroke="black" points="285.5,-47.22 282,-37.22 278.5,-47.22 285.5,-47.22"/>
</g>
</g>
</svg>
