<?xml version="1.0" encoding="UTF-8" standalone="no"?>
<!DOCTYPE svg PUBLIC "-//W3C//DTD SVG 1.1//EN"
 "http://www.w3.org/Graphics/SVG/1.1/DTD/svg11.dtd">
<!-- Generated by graphviz version 2.43.0 (0)
 -->
<!-- Title: VELOCITY_BC Pages: 1 -->
<svg width="1806pt" height="2796pt"
 viewBox="0.00 0.00 1806.00 2795.88" xmlns="http://www.w3.org/2000/svg" xmlns:xlink="http://www.w3.org/1999/xlink">
<g id="graph0" class="graph" transform="scale(1 1) rotate(0) translate(4 2791.88)">
<title>VELOCITY_BC</title>
<polygon fill="white" stroke="transparent" points="-4,4 -4,-2791.88 1802,-2791.88 1802,4 -4,4"/>
<text text-anchor="middle" x="899" y="-7.8" font-family="Times,serif" font-size="14.00">VELOCITY_BC</text>
<g id="clust1" class="cluster">
<title>cluster_EDGE_LOOP</title>
<polygon fill="none" stroke="orange" points="50,-129 50,-2373.88 1790,-2373.88 1790,-129 50,-129"/>
<text text-anchor="middle" x="104" y="-2358.68" font-family="Times,serif" font-size="14.00">EDGE_LOOP</text>
</g>
<g id="clust2" class="cluster">
<title>cluster_SIGN_LOOP</title>
<polygon fill="none" stroke="orange" points="764,-420 764,-2342.88 1782,-2342.88 1782,-420 764,-420"/>
<text text-anchor="middle" x="815.5" y="-2327.68" font-family="Times,serif" font-size="14.00">SIGN_LOOP</text>
</g>
<g id="clust3" class="cluster">
<title>cluster_ORIENTATION_LOOP</title>
<polygon fill="none" stroke="orange" points="772,-428 772,-2311.88 1774,-2311.88 1774,-428 772,-428"/>
<text text-anchor="middle" x="856.5" y="-2296.68" font-family="Times,serif" font-size="14.00">ORIENTATION_LOOP</text>
</g>
<g id="clust4" class="cluster">
<title>cluster_OPEN_AND_WIND_BC</title>
<polygon fill="none" stroke="blue" points="1136,-1261.44 1136,-1484.88 1504,-1484.88 1504,-1261.44 1136,-1261.44"/>
<text text-anchor="middle" x="1224.5" y="-1469.68" font-family="Times,serif" font-size="14.00">OPEN_AND_WIND_BC</text>
</g>
<g id="clust5" class="cluster">
<title>cluster_cond8d5c140</title>
<polygon fill="none" stroke="black" points="1144,-1298.16 1144,-1445.16 1496,-1445.16 1496,-1298.16 1144,-1298.16"/>
<text text-anchor="middle" x="1200" y="-1429.96" font-family="Times,serif" font-size="14.00">cond8d5c140</text>
</g>
<g id="clust6" class="cluster">
<title>cluster_INTERPOLATION_IF</title>
<polygon fill="none" stroke="blue" points="780,-500 780,-1117.44 1766,-1117.44 1766,-500 780,-500"/>
<text text-anchor="middle" x="861" y="-1102.24" font-family="Times,serif" font-size="14.00">INTERPOLATION_IF</text>
</g>
<g id="clust7" class="cluster">
<title>cluster_cond8ddb500</title>
<polygon fill="none" stroke="black" points="788,-536.72 788,-1077.72 1566,-1077.72 1566,-536.72 788,-536.72"/>
<text text-anchor="middle" x="844.5" y="-1062.52" font-family="Times,serif" font-size="14.00">cond8ddb500</text>
</g>
<g id="clust8" class="cluster">
<title>cluster_cond8f1b540</title>
<polygon fill="none" stroke="black" points="1574,-994.22 1574,-1069.22 1758,-1069.22 1758,-994.22 1574,-994.22"/>
<text text-anchor="middle" x="1629" y="-1054.02" font-family="Times,serif" font-size="14.00">cond8f1b540</text>
</g>
<g id="clust9" class="cluster">
<title>cluster_SIGN_LOOP_2</title>
<polygon fill="none" stroke="orange" points="1298,-137 1298,-212 1498,-212 1498,-137 1298,-137"/>
<text text-anchor="middle" x="1357.5" y="-196.8" font-family="Times,serif" font-size="14.00">SIGN_LOOP_2</text>
</g>
<!-- start_SUBPROGRAM_8f4ff00 -->
<g id="node1" class="node">
<title>start_SUBPROGRAM_8f4ff00</title>
<ellipse fill="none" stroke="black" cx="407" cy="-2780.88" rx="7" ry="7"/>
</g>
<!-- COMMENT_8b30740+1 -->
<g id="node2" class="node">
<title>COMMENT_8b30740+1</title>
<polygon fill="none" stroke="black" points="808,-2737.88 0,-2737.88 0,-2669.88 814,-2669.88 814,-2731.88 808,-2737.88"/>
<polyline fill="none" stroke="black" points="808,-2737.88 808,-2731.88 "/>
<polyline fill="none" stroke="black" points="814,-2731.88 808,-2731.88 "/>
<text text-anchor="middle" x="407" y="-2722.68" font-family="Times,serif" font-size="14.00">!&gt; brief Assert tangential velocity boundary conditions</text>
<text text-anchor="middle" x="407" y="-2707.68" font-family="Times,serif" font-size="14.00">!&gt; param T Current time (s)</text>
<text text-anchor="middle" x="407" y="-2692.68" font-family="Times,serif" font-size="14.00">!&gt; param NM Mesh number</text>
<text text-anchor="middle" x="407" y="-2677.68" font-family="Times,serif" font-size="14.00">!&gt; param APPLY_TO_ESTIMATED_VARIABLES Flag indicating that estimated (starred) variables are to be used</text>
</g>
<!-- start_SUBPROGRAM_8f4ff00&#45;&gt;COMMENT_8b30740+1 -->
<g id="edge1" class="edge">
<title>start_SUBPROGRAM_8f4ff00&#45;&gt;COMMENT_8b30740+1</title>
<path fill="none" stroke="black" d="M407,-2773.74C407,-2767.81 407,-2758.26 407,-2748.14"/>
<polygon fill="black" stroke="black" points="410.5,-2747.93 407,-2737.93 403.5,-2747.93 410.5,-2747.93"/>
</g>
<!-- COMMENT_8b43f20+1 -->
<g id="node3" class="node">
<title>COMMENT_8b43f20+1</title>
<polygon fill="none" stroke="black" points="521.5,-2633.88 286.5,-2633.88 286.5,-2597.88 527.5,-2597.88 527.5,-2627.88 521.5,-2633.88"/>
<polyline fill="none" stroke="black" points="521.5,-2633.88 521.5,-2627.88 "/>
<polyline fill="none" stroke="black" points="527.5,-2627.88 521.5,-2627.88 "/>
<text text-anchor="middle" x="407" y="-2612.18" font-family="Times,serif" font-size="14.00">Assign local names to variables</text>
</g>
<!-- COMMENT_8b30740+1&#45;&gt;COMMENT_8b43f20+1 -->
<g id="edge2" class="edge">
<title>COMMENT_8b30740+1&#45;&gt;COMMENT_8b43f20+1</title>
<path fill="none" stroke="black" d="M407,-2669.88C407,-2661.44 407,-2652.47 407,-2644.35"/>
<polygon fill="black" stroke="black" points="410.5,-2644.28 407,-2634.28 403.5,-2644.28 410.5,-2644.28"/>
</g>
<!-- CALL_8b43f20 -->
<g id="node4" class="node">
<title>CALL_8b43f20</title>
<g id="a_node4"><a xlink:href="POINT_TO_MESH.svg" xlink:title="POINT_TO_MESH">
<polygon fill="lightgray" stroke="black" points="479,-2561.88 335,-2561.88 335,-2557.88 331,-2557.88 331,-2553.88 335,-2553.88 335,-2533.88 331,-2533.88 331,-2529.88 335,-2529.88 335,-2525.88 479,-2525.88 479,-2561.88"/>
<polyline fill="none" stroke="black" points="335,-2557.88 339,-2557.88 339,-2553.88 335,-2553.88 "/>
<polyline fill="none" stroke="black" points="335,-2533.88 339,-2533.88 339,-2529.88 335,-2529.88 "/>
<text text-anchor="middle" x="407" y="-2540.18" font-family="Times,serif" font-size="14.00">POINT_TO_MESH</text>
</a>
</g>
</g>
<!-- COMMENT_8b43f20+1&#45;&gt;CALL_8b43f20 -->
<g id="edge3" class="edge">
<title>COMMENT_8b43f20+1&#45;&gt;CALL_8b43f20</title>
<path fill="none" stroke="black" d="M407,-2597.58C407,-2589.86 407,-2580.59 407,-2571.99"/>
<polygon fill="black" stroke="black" points="410.5,-2571.98 407,-2561.98 403.5,-2571.98 410.5,-2571.98"/>
</g>
<!-- COMMENT_8b42520+1 -->
<g id="node5" class="node">
<title>COMMENT_8b42520+1</title>
<polygon fill="none" stroke="black" points="543,-2489.88 265,-2489.88 265,-2453.88 549,-2453.88 549,-2483.88 543,-2489.88"/>
<polyline fill="none" stroke="black" points="543,-2489.88 543,-2483.88 "/>
<polyline fill="none" stroke="black" points="549,-2483.88 543,-2483.88 "/>
<text text-anchor="middle" x="407" y="-2468.18" font-family="Times,serif" font-size="14.00">Point to the appropriate velocity field</text>
</g>
<!-- CALL_8b43f20&#45;&gt;COMMENT_8b42520+1 -->
<g id="edge4" class="edge">
<title>CALL_8b43f20&#45;&gt;COMMENT_8b42520+1</title>
<path fill="none" stroke="black" d="M407,-2525.58C407,-2517.86 407,-2508.59 407,-2499.99"/>
<polygon fill="black" stroke="black" points="410.5,-2499.98 407,-2489.98 403.5,-2499.98 410.5,-2499.98"/>
</g>
<!-- COMMENT_8b4a0a0+1 -->
<g id="node6" class="node">
<title>COMMENT_8b4a0a0+1</title>
<polygon fill="none" stroke="black" points="652.5,-2417.88 155.5,-2417.88 155.5,-2381.88 658.5,-2381.88 658.5,-2411.88 652.5,-2417.88"/>
<polyline fill="none" stroke="black" points="652.5,-2417.88 652.5,-2411.88 "/>
<polyline fill="none" stroke="black" points="658.5,-2411.88 652.5,-2411.88 "/>
<text text-anchor="middle" x="407" y="-2396.18" font-family="Times,serif" font-size="14.00">Loop over all cell edges and determine the appropriate velocity BCs</text>
</g>
<!-- COMMENT_8b42520+1&#45;&gt;COMMENT_8b4a0a0+1 -->
<g id="edge5" class="edge">
<title>COMMENT_8b42520+1&#45;&gt;COMMENT_8b4a0a0+1</title>
<path fill="none" stroke="black" d="M407,-2453.58C407,-2445.86 407,-2436.59 407,-2427.99"/>
<polygon fill="black" stroke="black" points="410.5,-2427.98 407,-2417.98 403.5,-2427.98 410.5,-2427.98"/>
</g>
<!-- COMMENT_8b4d720+1 -->
<g id="node7" class="node">
<title>COMMENT_8b4d720+1</title>
<polygon fill="none" stroke="black" points="738.5,-2280.88 69.5,-2280.88 69.5,-2244.88 744.5,-2244.88 744.5,-2274.88 738.5,-2280.88"/>
<polyline fill="none" stroke="black" points="738.5,-2280.88 738.5,-2274.88 "/>
<polyline fill="none" stroke="black" points="744.5,-2274.88 738.5,-2274.88 "/>
<text text-anchor="middle" x="407" y="-2259.18" font-family="Times,serif" font-size="14.00">Throw out edges that are completely surrounded by blockages or the exterior of the domain</text>
</g>
<!-- COMMENT_8b4a0a0+1&#45;&gt;COMMENT_8b4d720+1 -->
<g id="edge43" class="edge">
<title>COMMENT_8b4a0a0+1&#45;&gt;COMMENT_8b4d720+1</title>
<path fill="none" stroke="black" d="M407,-2381.78C407,-2358.98 407,-2318.36 407,-2291.27"/>
<polygon fill="black" stroke="black" points="410.5,-2291.27 407,-2281.27 403.5,-2291.27 410.5,-2291.27"/>
</g>
<!-- COMMENT_8b53360+1 -->
<g id="node8" class="node">
<title>COMMENT_8b53360+1</title>
<polygon fill="none" stroke="black" points="509.5,-2208.88 298.5,-2208.88 298.5,-2172.88 515.5,-2172.88 515.5,-2202.88 509.5,-2208.88"/>
<polyline fill="none" stroke="black" points="509.5,-2208.88 509.5,-2202.88 "/>
<polyline fill="none" stroke="black" points="515.5,-2202.88 509.5,-2202.88 "/>
<text text-anchor="middle" x="407" y="-2187.18" font-family="Times,serif" font-size="14.00">Unpack indices for the edge</text>
</g>
<!-- COMMENT_8b4d720+1&#45;&gt;COMMENT_8b53360+1 -->
<g id="edge6" class="edge">
<title>COMMENT_8b4d720+1&#45;&gt;COMMENT_8b53360+1</title>
<path fill="none" stroke="black" d="M407,-2244.58C407,-2236.86 407,-2227.59 407,-2218.99"/>
<polygon fill="black" stroke="black" points="410.5,-2218.98 407,-2208.98 403.5,-2218.98 410.5,-2218.98"/>
</g>
<!-- COMMENT_8b58900+1 -->
<g id="node9" class="node">
<title>COMMENT_8b58900+1</title>
<polygon fill="none" stroke="black" points="614,-2120.88 194,-2120.88 194,-2084.88 620,-2084.88 620,-2114.88 614,-2120.88"/>
<polyline fill="none" stroke="black" points="614,-2120.88 614,-2114.88 "/>
<polyline fill="none" stroke="black" points="620,-2114.88 614,-2114.88 "/>
<text text-anchor="middle" x="407" y="-2099.18" font-family="Times,serif" font-size="14.00">Get the velocity components at the appropriate cell faces</text>
</g>
<!-- COMMENT_8b53360+1&#45;&gt;COMMENT_8b58900+1 -->
<g id="edge7" class="edge">
<title>COMMENT_8b53360+1&#45;&gt;COMMENT_8b58900+1</title>
<path fill="none" stroke="black" d="M407,-2172.48C407,-2160.63 407,-2144.7 407,-2131.17"/>
<polygon fill="black" stroke="black" points="410.5,-2130.96 407,-2120.96 403.5,-2130.96 410.5,-2130.96"/>
</g>
<!-- COMMENT_8b6be80+1 -->
<g id="node10" class="node">
<title>COMMENT_8b6be80+1</title>
<polygon fill="none" stroke="black" points="750.5,-2032.88 57.5,-2032.88 57.5,-1996.88 756.5,-1996.88 756.5,-2026.88 750.5,-2032.88"/>
<polyline fill="none" stroke="black" points="750.5,-2032.88 750.5,-2026.88 "/>
<polyline fill="none" stroke="black" points="756.5,-2026.88 750.5,-2026.88 "/>
<text text-anchor="middle" x="407" y="-2011.18" font-family="Times,serif" font-size="14.00">Indicate that the velocity gradients in the two orthogonal directions have not been changed yet</text>
</g>
<!-- COMMENT_8b58900+1&#45;&gt;COMMENT_8b6be80+1 -->
<g id="edge8" class="edge">
<title>COMMENT_8b58900+1&#45;&gt;COMMENT_8b6be80+1</title>
<path fill="none" stroke="black" d="M407,-2084.48C407,-2072.63 407,-2056.7 407,-2043.17"/>
<polygon fill="black" stroke="black" points="410.5,-2042.96 407,-2032.96 403.5,-2042.96 410.5,-2042.96"/>
</g>
<!-- COMMENT_8b7a5c0+1 -->
<g id="node11" class="node">
<title>COMMENT_8b7a5c0+1</title>
<polygon fill="none" stroke="black" points="726.5,-1960.88 81.5,-1960.88 81.5,-1924.88 732.5,-1924.88 732.5,-1954.88 726.5,-1960.88"/>
<polyline fill="none" stroke="black" points="726.5,-1960.88 726.5,-1954.88 "/>
<polyline fill="none" stroke="black" points="732.5,-1954.88 726.5,-1954.88 "/>
<text text-anchor="middle" x="407" y="-1939.18" font-family="Times,serif" font-size="14.00">Loop over all possible orientations of edge and reassign velocity gradients if appropriate</text>
</g>
<!-- COMMENT_8b6be80+1&#45;&gt;COMMENT_8b7a5c0+1 -->
<g id="edge9" class="edge">
<title>COMMENT_8b6be80+1&#45;&gt;COMMENT_8b7a5c0+1</title>
<path fill="none" stroke="black" d="M407,-1996.58C407,-1988.86 407,-1979.59 407,-1970.99"/>
<polygon fill="black" stroke="black" points="410.5,-1970.98 407,-1960.98 403.5,-1970.98 410.5,-1970.98"/>
</g>
<!-- DO_8f36cc0 -->
<g id="node40" class="node">
<title>DO_8f36cc0</title>
<ellipse fill="none" stroke="black" cx="407" cy="-1870.88" rx="66.09" ry="18"/>
<text text-anchor="middle" x="407" y="-1867.18" font-family="Times,serif" font-size="14.00">DO_8f36cc0</text>
</g>
<!-- COMMENT_8b7a5c0+1&#45;&gt;DO_8f36cc0 -->
<g id="edge38" class="edge">
<title>COMMENT_8b7a5c0+1&#45;&gt;DO_8f36cc0</title>
<path fill="none" stroke="black" d="M407,-1924.58C407,-1916.86 407,-1907.59 407,-1898.99"/>
<polygon fill="black" stroke="black" points="410.5,-1898.98 407,-1888.98 403.5,-1898.98 410.5,-1898.98"/>
</g>
<!-- COMMENT_8b78e40+1 -->
<g id="node12" class="node">
<title>COMMENT_8b78e40+1</title>
<polygon fill="none" stroke="black" points="1533,-2280.88 1101,-2280.88 1101,-2244.88 1539,-2244.88 1539,-2274.88 1533,-2280.88"/>
<polyline fill="none" stroke="black" points="1533,-2280.88 1533,-2274.88 "/>
<polyline fill="none" stroke="black" points="1539,-2274.88 1533,-2274.88 "/>
<text text-anchor="middle" x="1320" y="-2259.18" font-family="Times,serif" font-size="14.00">IOR is the orientation of the wall cells adjacent to the edge</text>
</g>
<!-- COMMENT_8b7caa0+1 -->
<g id="node13" class="node">
<title>COMMENT_8b7caa0+1</title>
<polygon fill="none" stroke="black" points="1499.5,-2208.88 1134.5,-2208.88 1134.5,-2172.88 1505.5,-2172.88 1505.5,-2202.88 1499.5,-2208.88"/>
<polyline fill="none" stroke="black" points="1499.5,-2208.88 1499.5,-2202.88 "/>
<polyline fill="none" stroke="black" points="1505.5,-2202.88 1499.5,-2202.88 "/>
<text text-anchor="middle" x="1320" y="-2187.18" font-family="Times,serif" font-size="14.00">IS2 is the other coordinate direction besides IOR.</text>
</g>
<!-- COMMENT_8b78e40+1&#45;&gt;COMMENT_8b7caa0+1 -->
<g id="edge10" class="edge">
<title>COMMENT_8b78e40+1&#45;&gt;COMMENT_8b7caa0+1</title>
<path fill="none" stroke="black" d="M1320,-2244.58C1320,-2236.86 1320,-2227.59 1320,-2218.99"/>
<polygon fill="black" stroke="black" points="1323.5,-2218.98 1320,-2208.98 1316.5,-2218.98 1323.5,-2218.98"/>
</g>
<!-- COMMENT_8b81740+1 -->
<g id="node14" class="node">
<title>COMMENT_8b81740+1</title>
<polygon fill="none" stroke="black" points="1519,-2136.88 1115,-2136.88 1115,-2068.88 1525,-2068.88 1525,-2130.88 1519,-2136.88"/>
<polyline fill="none" stroke="black" points="1519,-2136.88 1519,-2130.88 "/>
<polyline fill="none" stroke="black" points="1525,-2130.88 1519,-2130.88 "/>
<text text-anchor="middle" x="1320" y="-2121.68" font-family="Times,serif" font-size="14.00">Determine Index_Coordinate_Direction</text>
<text text-anchor="middle" x="1320" y="-2106.68" font-family="Times,serif" font-size="14.00">IEC=1, ICD=1 refers to DWDY; ICD=2 refers to DVDZ</text>
<text text-anchor="middle" x="1320" y="-2091.68" font-family="Times,serif" font-size="14.00">IEC=2, ICD=1 refers to DUDZ; ICD=2 refers to DWDX</text>
<text text-anchor="middle" x="1320" y="-2076.68" font-family="Times,serif" font-size="14.00">IEC=3, ICD=1 refers to DVDX; ICD=2 refers to DUDY</text>
</g>
<!-- COMMENT_8b7caa0+1&#45;&gt;COMMENT_8b81740+1 -->
<g id="edge11" class="edge">
<title>COMMENT_8b7caa0+1&#45;&gt;COMMENT_8b81740+1</title>
<path fill="none" stroke="black" d="M1320,-2172.48C1320,-2165.06 1320,-2156.04 1320,-2147.02"/>
<polygon fill="black" stroke="black" points="1323.5,-2146.91 1320,-2136.91 1316.5,-2146.91 1323.5,-2146.91"/>
</g>
<!-- COMMENT_8b80d00+1 -->
<g id="node15" class="node">
<title>COMMENT_8b80d00+1</title>
<polygon fill="none" stroke="black" points="1613,-2032.88 1021,-2032.88 1021,-1996.88 1619,-1996.88 1619,-2026.88 1613,-2032.88"/>
<polyline fill="none" stroke="black" points="1613,-2032.88 1613,-2026.88 "/>
<polyline fill="none" stroke="black" points="1619,-2026.88 1613,-2026.88 "/>
<text text-anchor="middle" x="1320" y="-2011.18" font-family="Times,serif" font-size="14.00">IWM and IWP are the wall cell indices of the boundary on either side of the edge.</text>
</g>
<!-- COMMENT_8b81740+1&#45;&gt;COMMENT_8b80d00+1 -->
<g id="edge12" class="edge">
<title>COMMENT_8b81740+1&#45;&gt;COMMENT_8b80d00+1</title>
<path fill="none" stroke="black" d="M1320,-2068.88C1320,-2060.44 1320,-2051.47 1320,-2043.35"/>
<polygon fill="black" stroke="black" points="1323.5,-2043.28 1320,-2033.28 1316.5,-2043.28 1323.5,-2043.28"/>
</g>
<!-- COMMENT_8b8ca60+1 -->
<g id="node16" class="node">
<title>COMMENT_8b8ca60+1</title>
<polygon fill="none" stroke="black" points="1544,-1960.88 1090,-1960.88 1090,-1924.88 1550,-1924.88 1550,-1954.88 1544,-1960.88"/>
<polyline fill="none" stroke="black" points="1544,-1960.88 1544,-1954.88 "/>
<polyline fill="none" stroke="black" points="1550,-1954.88 1544,-1954.88 "/>
<text text-anchor="middle" x="1320" y="-1939.18" font-family="Times,serif" font-size="14.00">If both adjacent wall cells are undefined, cycle out of the loop.</text>
</g>
<!-- COMMENT_8b80d00+1&#45;&gt;COMMENT_8b8ca60+1 -->
<g id="edge13" class="edge">
<title>COMMENT_8b80d00+1&#45;&gt;COMMENT_8b8ca60+1</title>
<path fill="none" stroke="black" d="M1320,-1996.58C1320,-1988.86 1320,-1979.59 1320,-1970.99"/>
<polygon fill="black" stroke="black" points="1323.5,-1970.98 1320,-1960.98 1316.5,-1970.98 1323.5,-1970.98"/>
</g>
<!-- COMMENT_8b89800+1 -->
<g id="node17" class="node">
<title>COMMENT_8b89800+1</title>
<polygon fill="none" stroke="black" points="1616,-1888.88 1018,-1888.88 1018,-1852.88 1622,-1852.88 1622,-1882.88 1616,-1888.88"/>
<polyline fill="none" stroke="black" points="1616,-1888.88 1616,-1882.88 "/>
<polyline fill="none" stroke="black" points="1622,-1882.88 1616,-1882.88 "/>
<text text-anchor="middle" x="1320" y="-1867.18" font-family="Times,serif" font-size="14.00">If there is a solid wall separating the two adjacent wall cells, cycle out of the loop.</text>
</g>
<!-- COMMENT_8b8ca60+1&#45;&gt;COMMENT_8b89800+1 -->
<g id="edge14" class="edge">
<title>COMMENT_8b8ca60+1&#45;&gt;COMMENT_8b89800+1</title>
<path fill="none" stroke="black" d="M1320,-1924.58C1320,-1916.86 1320,-1907.59 1320,-1898.99"/>
<polygon fill="black" stroke="black" points="1323.5,-1898.98 1320,-1888.98 1316.5,-1898.98 1323.5,-1898.98"/>
</g>
<!-- COMMENT_8b90f00+1 -->
<g id="node18" class="node">
<title>COMMENT_8b90f00+1</title>
<polygon fill="none" stroke="black" points="1530.5,-1816.88 1103.5,-1816.88 1103.5,-1780.88 1536.5,-1780.88 1536.5,-1810.88 1530.5,-1816.88"/>
<polyline fill="none" stroke="black" points="1530.5,-1816.88 1530.5,-1810.88 "/>
<polyline fill="none" stroke="black" points="1536.5,-1810.88 1530.5,-1810.88 "/>
<text text-anchor="middle" x="1320" y="-1795.18" font-family="Times,serif" font-size="14.00">If only one adjacent wall cell is defined, use its properties.</text>
</g>
<!-- COMMENT_8b89800+1&#45;&gt;COMMENT_8b90f00+1 -->
<g id="edge15" class="edge">
<title>COMMENT_8b89800+1&#45;&gt;COMMENT_8b90f00+1</title>
<path fill="none" stroke="black" d="M1320,-1852.58C1320,-1844.86 1320,-1835.59 1320,-1826.99"/>
<polygon fill="black" stroke="black" points="1323.5,-1826.98 1320,-1816.98 1316.5,-1826.98 1323.5,-1826.98"/>
</g>
<!-- COMMENT_8b99440+1 -->
<g id="node19" class="node">
<title>COMMENT_8b99440+1</title>
<polygon fill="none" stroke="black" points="1489.5,-1744.88 1144.5,-1744.88 1144.5,-1708.88 1495.5,-1708.88 1495.5,-1738.88 1489.5,-1744.88"/>
<polyline fill="none" stroke="black" points="1489.5,-1744.88 1489.5,-1738.88 "/>
<polyline fill="none" stroke="black" points="1495.5,-1738.88 1489.5,-1738.88 "/>
<text text-anchor="middle" x="1320" y="-1723.18" font-family="Times,serif" font-size="14.00">If both adjacent wall cells are NULL, cycle out.</text>
</g>
<!-- COMMENT_8b90f00+1&#45;&gt;COMMENT_8b99440+1 -->
<g id="edge16" class="edge">
<title>COMMENT_8b90f00+1&#45;&gt;COMMENT_8b99440+1</title>
<path fill="none" stroke="black" d="M1320,-1780.58C1320,-1772.86 1320,-1763.59 1320,-1754.99"/>
<polygon fill="black" stroke="black" points="1323.5,-1754.98 1320,-1744.98 1316.5,-1754.98 1323.5,-1754.98"/>
</g>
<!-- COMMENT_8b9ac20+1 -->
<g id="node20" class="node">
<title>COMMENT_8b9ac20+1</title>
<polygon fill="none" stroke="black" points="1429.5,-1672.88 1204.5,-1672.88 1204.5,-1636.88 1435.5,-1636.88 1435.5,-1666.88 1429.5,-1672.88"/>
<polyline fill="none" stroke="black" points="1429.5,-1672.88 1429.5,-1666.88 "/>
<polyline fill="none" stroke="black" points="1435.5,-1666.88 1429.5,-1666.88 "/>
<text text-anchor="middle" x="1320" y="-1651.18" font-family="Times,serif" font-size="14.00">Set up synthetic eddy method</text>
</g>
<!-- COMMENT_8b99440+1&#45;&gt;COMMENT_8b9ac20+1 -->
<g id="edge17" class="edge">
<title>COMMENT_8b99440+1&#45;&gt;COMMENT_8b9ac20+1</title>
<path fill="none" stroke="black" d="M1320,-1708.58C1320,-1700.86 1320,-1691.59 1320,-1682.99"/>
<polygon fill="black" stroke="black" points="1323.5,-1682.98 1320,-1672.98 1316.5,-1682.98 1323.5,-1682.98"/>
</g>
<!-- IF_8bcfc00 -->
<g id="node21" class="node">
<title>IF_8bcfc00</title>
<polygon fill="none" stroke="blue" points="1415,-1600.88 1225,-1600.88 1225,-1564.88 1415,-1564.88 1415,-1600.88"/>
<text text-anchor="middle" x="1320" y="-1579.18" font-family="Times,serif" font-size="14.00">SYNTHETIC_EDDY_IF_1</text>
</g>
<!-- COMMENT_8b9ac20+1&#45;&gt;IF_8bcfc00 -->
<g id="edge18" class="edge">
<title>COMMENT_8b9ac20+1&#45;&gt;IF_8bcfc00</title>
<path fill="none" stroke="black" d="M1320,-1636.58C1320,-1628.86 1320,-1619.59 1320,-1610.99"/>
<polygon fill="black" stroke="black" points="1323.5,-1610.98 1320,-1600.98 1316.5,-1610.98 1323.5,-1610.98"/>
</g>
<!-- COMMENT_8bc9900+1 -->
<g id="node22" class="node">
<title>COMMENT_8bc9900+1</title>
<polygon fill="none" stroke="black" points="1564,-1528.88 1070,-1528.88 1070,-1492.88 1570,-1492.88 1570,-1522.88 1564,-1528.88"/>
<polyline fill="none" stroke="black" points="1564,-1528.88 1564,-1522.88 "/>
<polyline fill="none" stroke="black" points="1570,-1522.88 1564,-1522.88 "/>
<text text-anchor="middle" x="1320" y="-1507.18" font-family="Times,serif" font-size="14.00">OPEN boundary conditions, both varieties, with and without a wind</text>
</g>
<!-- IF_8bcfc00&#45;&gt;COMMENT_8bc9900+1 -->
<g id="edge19" class="edge">
<title>IF_8bcfc00&#45;&gt;COMMENT_8bc9900+1</title>
<path fill="none" stroke="black" d="M1320,-1564.58C1320,-1556.86 1320,-1547.59 1320,-1538.99"/>
<polygon fill="black" stroke="black" points="1323.5,-1538.98 1320,-1528.98 1316.5,-1538.98 1323.5,-1538.98"/>
</g>
<!-- beginIf_IF_8d5fa00 -->
<g id="node23" class="node">
<title>beginIf_IF_8d5fa00</title>
<ellipse fill="black" stroke="black" cx="1320" cy="-1453.52" rx="0.36" ry="0.36"/>
</g>
<!-- COMMENT_8bc9900+1&#45;&gt;beginIf_IF_8d5fa00 -->
<g id="edge23" class="edge">
<title>COMMENT_8bc9900+1&#45;&gt;beginIf_IF_8d5fa00</title>
<path fill="none" stroke="black" d="M1320,-1492.67C1320,-1476.92 1320,-1455.88 1320,-1454.58"/>
</g>
<!-- IF_8d5ae00 -->
<g id="node25" class="node">
<title>IF_8d5ae00</title>
<polygon fill="none" stroke="blue" points="1400.5,-1414.16 1239.5,-1414.16 1239.5,-1378.16 1400.5,-1378.16 1400.5,-1414.16"/>
<text text-anchor="middle" x="1320" y="-1392.46" font-family="Times,serif" font-size="14.00">WIND_NO_WIND_IF</text>
</g>
<!-- beginIf_IF_8d5fa00&#45;&gt;IF_8d5ae00 -->
<g id="edge21" class="edge">
<title>beginIf_IF_8d5fa00&#45;&gt;IF_8d5ae00</title>
<path fill="none" stroke="black" d="M1320,-1453C1320,-1451.37 1320,-1437.68 1320,-1424.26"/>
<polygon fill="black" stroke="black" points="1323.5,-1424.26 1320,-1414.26 1316.5,-1424.26 1323.5,-1424.26"/>
</g>
<!-- endIf_IF_8d5fa00 -->
<g id="node24" class="node">
<title>endIf_IF_8d5fa00</title>
<ellipse fill="black" stroke="black" cx="1320" cy="-1269.8" rx="0.36" ry="0.36"/>
</g>
<!-- COMMENT_8d283e0+1 -->
<g id="node27" class="node">
<title>COMMENT_8d283e0+1</title>
<polygon fill="none" stroke="black" points="1485.5,-1233.44 1148.5,-1233.44 1148.5,-1197.44 1491.5,-1197.44 1491.5,-1227.44 1485.5,-1233.44"/>
<polyline fill="none" stroke="black" points="1485.5,-1233.44 1485.5,-1227.44 "/>
<polyline fill="none" stroke="black" points="1491.5,-1227.44 1485.5,-1227.44 "/>
<text text-anchor="middle" x="1320" y="-1211.74" font-family="Times,serif" font-size="14.00">Define the appropriate gas and ghost velocity</text>
</g>
<!-- endIf_IF_8d5fa00&#45;&gt;COMMENT_8d283e0+1 -->
<g id="edge24" class="edge">
<title>endIf_IF_8d5fa00&#45;&gt;COMMENT_8d283e0+1</title>
<path fill="none" stroke="black" d="M1320,-1268.65C1320,-1267.21 1320,-1255.67 1320,-1243.8"/>
<polygon fill="black" stroke="black" points="1323.5,-1243.54 1320,-1233.54 1316.5,-1243.54 1323.5,-1243.54"/>
</g>
<!-- CALL_8d5e780 -->
<g id="node26" class="node">
<title>CALL_8d5e780</title>
<g id="a_node26"><a xlink:href="GET_OPENBC_TANGENTIAL_CUTFACE_VEL.svg" xlink:title="GET_OPENBC_TANGENTIAL_CUTFACE_VEL">
<polygon fill="lightgray" stroke="black" points="1487.5,-1342.16 1152.5,-1342.16 1152.5,-1338.16 1148.5,-1338.16 1148.5,-1334.16 1152.5,-1334.16 1152.5,-1314.16 1148.5,-1314.16 1148.5,-1310.16 1152.5,-1310.16 1152.5,-1306.16 1487.5,-1306.16 1487.5,-1342.16"/>
<polyline fill="none" stroke="black" points="1152.5,-1338.16 1156.5,-1338.16 1156.5,-1334.16 1152.5,-1334.16 "/>
<polyline fill="none" stroke="black" points="1152.5,-1314.16 1156.5,-1314.16 1156.5,-1310.16 1152.5,-1310.16 "/>
<text text-anchor="middle" x="1320" y="-1320.46" font-family="Times,serif" font-size="14.00">GET_OPENBC_TANGENTIAL_CUTFACE_VEL</text>
</a>
</g>
</g>
<!-- IF_8d5ae00&#45;&gt;CALL_8d5e780 -->
<g id="edge20" class="edge">
<title>IF_8d5ae00&#45;&gt;CALL_8d5e780</title>
<path fill="none" stroke="black" d="M1320,-1377.86C1320,-1370.14 1320,-1360.87 1320,-1352.27"/>
<polygon fill="black" stroke="black" points="1323.5,-1352.26 1320,-1342.26 1316.5,-1352.26 1323.5,-1352.26"/>
</g>
<!-- CALL_8d5e780&#45;&gt;endIf_IF_8d5fa00 -->
<g id="edge22" class="edge">
<title>CALL_8d5e780&#45;&gt;endIf_IF_8d5fa00</title>
<path fill="none" stroke="black" d="M1320,-1306.1C1320,-1291.09 1320,-1271.43 1320,-1270.22"/>
</g>
<!-- COMMENT_8d701e0+1 -->
<g id="node28" class="node">
<title>COMMENT_8d701e0+1</title>
<polygon fill="none" stroke="black" points="1617,-1161.44 1017,-1161.44 1017,-1125.44 1623,-1125.44 1623,-1155.44 1617,-1161.44"/>
<polyline fill="none" stroke="black" points="1617,-1161.44 1617,-1155.44 "/>
<polyline fill="none" stroke="black" points="1623,-1155.44 1617,-1155.44 "/>
<text text-anchor="middle" x="1320" y="-1139.74" font-family="Times,serif" font-size="14.00">Decide whether or not to process edge using data interpolated from another mesh</text>
</g>
<!-- COMMENT_8d283e0+1&#45;&gt;COMMENT_8d701e0+1 -->
<g id="edge25" class="edge">
<title>COMMENT_8d283e0+1&#45;&gt;COMMENT_8d701e0+1</title>
<path fill="none" stroke="black" d="M1320,-1197.14C1320,-1189.42 1320,-1180.15 1320,-1171.55"/>
<polygon fill="black" stroke="black" points="1323.5,-1171.54 1320,-1161.54 1316.5,-1171.54 1323.5,-1171.54"/>
</g>
<!-- beginIf_IF_8f1b5c0 -->
<g id="node29" class="node">
<title>beginIf_IF_8f1b5c0</title>
<ellipse fill="black" stroke="black" cx="1320" cy="-1086.08" rx="0.36" ry="0.36"/>
</g>
<!-- COMMENT_8d701e0+1&#45;&gt;beginIf_IF_8f1b5c0 -->
<g id="edge36" class="edge">
<title>COMMENT_8d701e0+1&#45;&gt;beginIf_IF_8f1b5c0</title>
<path fill="none" stroke="black" d="M1320,-1125.23C1320,-1109.48 1320,-1088.44 1320,-1087.14"/>
</g>
<!-- COMMENT_8d75e00+1 -->
<g id="node31" class="node">
<title>COMMENT_8d75e00+1</title>
<polygon fill="none" stroke="black" points="1551.5,-1046.72 796.5,-1046.72 796.5,-993.72 1557.5,-993.72 1557.5,-1040.72 1551.5,-1046.72"/>
<polyline fill="none" stroke="black" points="1551.5,-1046.72 1551.5,-1040.72 "/>
<polyline fill="none" stroke="black" points="1557.5,-1040.72 1551.5,-1040.72 "/>
<text text-anchor="middle" x="1177" y="-1031.52" font-family="Times,serif" font-size="14.00">Determine appropriate velocity BC by assessing each adjacent wall cell. If the BCs are different on each</text>
<text text-anchor="middle" x="1177" y="-1016.52" font-family="Times,serif" font-size="14.00">side of the edge, choose the one with the specified velocity or velocity gradient, if there is one.</text>
<text text-anchor="middle" x="1177" y="-1001.52" font-family="Times,serif" font-size="14.00">If not, choose the max value of boundary condition index, simply for consistency.</text>
</g>
<!-- beginIf_IF_8f1b5c0&#45;&gt;COMMENT_8d75e00+1 -->
<g id="edge32" class="edge">
<title>beginIf_IF_8f1b5c0&#45;&gt;COMMENT_8d75e00+1</title>
<path fill="none" stroke="black" d="M1319.9,-1085.67C1317.65,-1084.66 1279.31,-1067.37 1242.91,-1050.95"/>
<polygon fill="black" stroke="black" points="1244.28,-1047.73 1233.72,-1046.8 1241.4,-1054.11 1244.28,-1047.73"/>
</g>
<!-- Empty_8f1b540 -->
<g id="node38" class="node">
<title>Empty_8f1b540</title>
<ellipse fill="none" stroke="black" cx="1666" cy="-1020.22" rx="84.49" ry="18"/>
<text text-anchor="middle" x="1666" y="-1016.52" font-family="Times,serif" font-size="14.00">Empty_8f1b540</text>
</g>
<!-- beginIf_IF_8f1b5c0&#45;&gt;Empty_8f1b540 -->
<g id="edge34" class="edge">
<title>beginIf_IF_8f1b5c0&#45;&gt;Empty_8f1b540</title>
<path fill="none" stroke="black" d="M1320.16,-1085.72C1326.93,-1085.71 1543.72,-1085.33 1570,-1077.72 1594.1,-1070.74 1618.44,-1056.32 1636.58,-1043.79"/>
<polygon fill="black" stroke="black" points="1638.83,-1046.48 1644.95,-1037.84 1634.78,-1040.78 1638.83,-1046.48"/>
</g>
<!-- endIf_IF_8f1b5c0 -->
<g id="node30" class="node">
<title>endIf_IF_8f1b5c0</title>
<ellipse fill="black" stroke="black" cx="1398" cy="-508.36" rx="0.36" ry="0.36"/>
</g>
<!-- COMMENT_8f1b960+1 -->
<g id="node39" class="node">
<title>COMMENT_8f1b960+1</title>
<polygon fill="none" stroke="black" points="1594,-472 1196,-472 1196,-436 1600,-436 1600,-466 1594,-472"/>
<polyline fill="none" stroke="black" points="1594,-472 1594,-466 "/>
<polyline fill="none" stroke="black" points="1600,-466 1594,-466 "/>
<text text-anchor="middle" x="1398" y="-450.3" font-family="Times,serif" font-size="14.00">Set ghost cell values at edge of computational domain</text>
</g>
<!-- endIf_IF_8f1b5c0&#45;&gt;COMMENT_8f1b960+1 -->
<g id="edge37" class="edge">
<title>endIf_IF_8f1b5c0&#45;&gt;COMMENT_8f1b960+1</title>
<path fill="none" stroke="black" d="M1398,-507.21C1398,-505.77 1398,-494.23 1398,-482.36"/>
<polygon fill="black" stroke="black" points="1401.5,-482.1 1398,-472.1 1394.5,-482.1 1401.5,-482.1"/>
</g>
<!-- COMMENT_8d7ecc0+1 -->
<g id="node32" class="node">
<title>COMMENT_8d7ecc0+1</title>
<polygon fill="none" stroke="black" points="1404.5,-957.72 947.5,-957.72 947.5,-921.72 1410.5,-921.72 1410.5,-951.72 1404.5,-957.72"/>
<polyline fill="none" stroke="black" points="1404.5,-957.72 1404.5,-951.72 "/>
<polyline fill="none" stroke="black" points="1410.5,-951.72 1404.5,-951.72 "/>
<text text-anchor="middle" x="1179" y="-936.02" font-family="Times,serif" font-size="14.00">Compute the viscosity by averaging the two adjacent gas cells</text>
</g>
<!-- COMMENT_8d75e00+1&#45;&gt;COMMENT_8d7ecc0+1 -->
<g id="edge26" class="edge">
<title>COMMENT_8d75e00+1&#45;&gt;COMMENT_8d7ecc0+1</title>
<path fill="none" stroke="black" d="M1177.65,-993.52C1177.86,-985.43 1178.09,-976.48 1178.3,-968.27"/>
<polygon fill="black" stroke="black" points="1181.8,-968.14 1178.56,-958.05 1174.8,-967.96 1181.8,-968.14"/>
</g>
<!-- COMMENT_8d84040+1 -->
<g id="node33" class="node">
<title>COMMENT_8d84040+1</title>
<polygon fill="none" stroke="black" points="1312,-885.72 1050,-885.72 1050,-849.72 1318,-849.72 1318,-879.72 1312,-885.72"/>
<polyline fill="none" stroke="black" points="1312,-885.72 1312,-879.72 "/>
<polyline fill="none" stroke="black" points="1318,-879.72 1312,-879.72 "/>
<text text-anchor="middle" x="1184" y="-864.02" font-family="Times,serif" font-size="14.00">Check for HVAC tangential velocity</text>
</g>
<!-- COMMENT_8d7ecc0+1&#45;&gt;COMMENT_8d84040+1 -->
<g id="edge27" class="edge">
<title>COMMENT_8d7ecc0+1&#45;&gt;COMMENT_8d84040+1</title>
<path fill="none" stroke="black" d="M1180.24,-921.42C1180.79,-913.7 1181.45,-904.43 1182.06,-895.83"/>
<polygon fill="black" stroke="black" points="1185.56,-896.05 1182.78,-885.82 1178.57,-895.55 1185.56,-896.05"/>
</g>
<!-- COMMENT_8d8c9e0+1 -->
<g id="node34" class="node">
<title>COMMENT_8d8c9e0+1</title>
<polygon fill="none" stroke="black" points="1451.5,-813.72 1058.5,-813.72 1058.5,-777.72 1457.5,-777.72 1457.5,-807.72 1451.5,-813.72"/>
<polyline fill="none" stroke="black" points="1451.5,-813.72 1451.5,-807.72 "/>
<polyline fill="none" stroke="black" points="1457.5,-807.72 1451.5,-807.72 "/>
<text text-anchor="middle" x="1258" y="-792.02" font-family="Times,serif" font-size="14.00">Determine if there is a tangential velocity component</text>
</g>
<!-- COMMENT_8d84040+1&#45;&gt;COMMENT_8d8c9e0+1 -->
<g id="edge28" class="edge">
<title>COMMENT_8d84040+1&#45;&gt;COMMENT_8d8c9e0+1</title>
<path fill="none" stroke="black" d="M1202.29,-849.42C1211.43,-840.77 1222.64,-830.17 1232.6,-820.75"/>
<polygon fill="black" stroke="black" points="1235.06,-823.24 1239.92,-813.82 1230.25,-818.15 1235.06,-823.24"/>
</g>
<!-- COMMENT_8daf620+1 -->
<g id="node35" class="node">
<title>COMMENT_8daf620+1</title>
<polygon fill="none" stroke="black" points="1456.5,-741.72 1073.5,-741.72 1073.5,-705.72 1462.5,-705.72 1462.5,-735.72 1456.5,-741.72"/>
<polyline fill="none" stroke="black" points="1456.5,-741.72 1456.5,-735.72 "/>
<polyline fill="none" stroke="black" points="1462.5,-735.72 1456.5,-735.72 "/>
<text text-anchor="middle" x="1268" y="-720.02" font-family="Times,serif" font-size="14.00">Choose the appropriate boundary condition to apply</text>
</g>
<!-- COMMENT_8d8c9e0+1&#45;&gt;COMMENT_8daf620+1 -->
<g id="edge29" class="edge">
<title>COMMENT_8d8c9e0+1&#45;&gt;COMMENT_8daf620+1</title>
<path fill="none" stroke="black" d="M1260.47,-777.42C1261.57,-769.7 1262.9,-760.43 1264.13,-751.83"/>
<polygon fill="black" stroke="black" points="1267.61,-752.22 1265.56,-741.82 1260.68,-751.23 1267.61,-752.22"/>
</g>
<!-- CALL_8dc6ce0 -->
<g id="node36" class="node">
<title>CALL_8dc6ce0</title>
<g id="a_node36"><a xlink:href="WALL_MODEL.svg" xlink:title="WALL_MODEL">
<polygon fill="lightgray" stroke="black" points="1348.5,-669.72 1227.5,-669.72 1227.5,-665.72 1223.5,-665.72 1223.5,-661.72 1227.5,-661.72 1227.5,-641.72 1223.5,-641.72 1223.5,-637.72 1227.5,-637.72 1227.5,-633.72 1348.5,-633.72 1348.5,-669.72"/>
<polyline fill="none" stroke="black" points="1227.5,-665.72 1231.5,-665.72 1231.5,-661.72 1227.5,-661.72 "/>
<polyline fill="none" stroke="black" points="1227.5,-641.72 1231.5,-641.72 1231.5,-637.72 1227.5,-637.72 "/>
<text text-anchor="middle" x="1288" y="-648.02" font-family="Times,serif" font-size="14.00">WALL_MODEL</text>
</a>
</g>
</g>
<!-- COMMENT_8daf620+1&#45;&gt;CALL_8dc6ce0 -->
<g id="edge30" class="edge">
<title>COMMENT_8daf620+1&#45;&gt;CALL_8dc6ce0</title>
<path fill="none" stroke="black" d="M1272.94,-705.42C1275.17,-697.62 1277.85,-688.23 1280.33,-679.55"/>
<polygon fill="black" stroke="black" points="1283.73,-680.4 1283.11,-669.82 1277,-678.48 1283.73,-680.4"/>
</g>
<!-- COMMENT_8dc8120+1 -->
<g id="node37" class="node">
<title>COMMENT_8dc8120+1</title>
<polygon fill="none" stroke="black" points="1548.5,-597.72 1095.5,-597.72 1095.5,-544.72 1554.5,-544.72 1554.5,-591.72 1548.5,-597.72"/>
<polyline fill="none" stroke="black" points="1548.5,-597.72 1548.5,-591.72 "/>
<polyline fill="none" stroke="black" points="1554.5,-591.72 1548.5,-591.72 "/>
<text text-anchor="middle" x="1325" y="-582.52" font-family="Times,serif" font-size="14.00">SLIP_COEF = &#45;1, no slip, &#160;&#160;VEL_GHOST = 2*VEL_T &#45; VEL_GAS</text>
<text text-anchor="middle" x="1325" y="-567.52" font-family="Times,serif" font-size="14.00">SLIP_COEF = &#160;0, half slip, VEL_GHOST = VEL_T</text>
<text text-anchor="middle" x="1325" y="-552.52" font-family="Times,serif" font-size="14.00">SLIP_COEF = &#160;1, free slip, VEL_GHOST = VEL_GAS</text>
</g>
<!-- CALL_8dc6ce0&#45;&gt;COMMENT_8dc8120+1 -->
<g id="edge31" class="edge">
<title>CALL_8dc6ce0&#45;&gt;COMMENT_8dc8120+1</title>
<path fill="none" stroke="black" d="M1296.03,-633.69C1299.73,-625.84 1304.26,-616.23 1308.63,-606.96"/>
<polygon fill="black" stroke="black" points="1311.81,-608.41 1312.91,-597.88 1305.48,-605.43 1311.81,-608.41"/>
</g>
<!-- COMMENT_8dc8120+1&#45;&gt;endIf_IF_8f1b5c0 -->
<g id="edge33" class="edge">
<title>COMMENT_8dc8120+1&#45;&gt;endIf_IF_8f1b5c0</title>
<path fill="none" stroke="black" d="M1355.54,-544.49C1374.91,-528.17 1396.6,-509.9 1397.93,-508.77"/>
</g>
<!-- Empty_8f1b540&#45;&gt;endIf_IF_8f1b5c0 -->
<g id="edge35" class="edge">
<title>Empty_8f1b540&#45;&gt;endIf_IF_8f1b5c0</title>
<path fill="none" stroke="black" d="M1657.13,-1002.13C1643.76,-974.75 1620,-918.99 1620,-868.72 1620,-868.72 1620,-868.72 1620,-650.72 1620,-595.39 1613.73,-570.62 1570,-536.72 1539.87,-513.37 1402.39,-508.86 1398.1,-508.72"/>
</g>
<!-- COMMENT_8f376c0+1 -->
<g id="node41" class="node">
<title>COMMENT_8f376c0+1</title>
<polygon fill="none" stroke="black" points="1666,-400 1124,-400 1124,-364 1672,-364 1672,-394 1666,-400"/>
<polyline fill="none" stroke="black" points="1666,-400 1666,-394 "/>
<polyline fill="none" stroke="black" points="1672,-394 1666,-394 "/>
<text text-anchor="middle" x="1398" y="-378.3" font-family="Times,serif" font-size="14.00">Cycle out of the EDGE_LOOP if no tangential gradients have been altered.</text>
</g>
<!-- COMMENT_8f1b960+1&#45;&gt;COMMENT_8f376c0+1 -->
<g id="edge39" class="edge">
<title>COMMENT_8f1b960+1&#45;&gt;COMMENT_8f376c0+1</title>
<path fill="none" stroke="black" d="M1398,-435.7C1398,-427.98 1398,-418.71 1398,-410.11"/>
<polygon fill="black" stroke="black" points="1401.5,-410.1 1398,-400.1 1394.5,-410.1 1401.5,-410.1"/>
</g>
<!-- COMMENT_8f2eda0+1 -->
<g id="node42" class="node">
<title>COMMENT_8f2eda0+1</title>
<polygon fill="none" stroke="black" points="1701,-328 1089,-328 1089,-292 1707,-292 1707,-322 1701,-328"/>
<polyline fill="none" stroke="black" points="1701,-328 1701,-322 "/>
<polyline fill="none" stroke="black" points="1707,-322 1701,-322 "/>
<text text-anchor="middle" x="1398" y="-306.3" font-family="Times,serif" font-size="14.00">If the edge is on an interpolated boundary, and all cells around it are not solid, cycle</text>
</g>
<!-- COMMENT_8f376c0+1&#45;&gt;COMMENT_8f2eda0+1 -->
<g id="edge40" class="edge">
<title>COMMENT_8f376c0+1&#45;&gt;COMMENT_8f2eda0+1</title>
<path fill="none" stroke="black" d="M1398,-363.7C1398,-355.98 1398,-346.71 1398,-338.11"/>
<polygon fill="black" stroke="black" points="1401.5,-338.1 1398,-328.1 1394.5,-338.1 1401.5,-338.1"/>
</g>
<!-- COMMENT_8dab7e0+1 -->
<g id="node43" class="node">
<title>COMMENT_8dab7e0+1</title>
<polygon fill="none" stroke="black" points="1740,-256 1050,-256 1050,-220 1746,-220 1746,-250 1740,-256"/>
<polyline fill="none" stroke="black" points="1740,-256 1740,-250 "/>
<polyline fill="none" stroke="black" points="1746,-250 1740,-250 "/>
<text text-anchor="middle" x="1398" y="-234.3" font-family="Times,serif" font-size="14.00">Loop over all 4 normal directions and compute vorticity and stress tensor components for each</text>
</g>
<!-- COMMENT_8f2eda0+1&#45;&gt;COMMENT_8dab7e0+1 -->
<g id="edge41" class="edge">
<title>COMMENT_8f2eda0+1&#45;&gt;COMMENT_8dab7e0+1</title>
<path fill="none" stroke="black" d="M1398,-291.7C1398,-283.98 1398,-274.71 1398,-266.11"/>
<polygon fill="black" stroke="black" points="1401.5,-266.1 1398,-256.1 1394.5,-266.1 1401.5,-266.1"/>
</g>
<!-- DO_8f4c340 -->
<g id="node44" class="node">
<title>DO_8f4c340</title>
<polygon fill="none" stroke="orange" points="1490.5,-181 1305.5,-181 1305.5,-145 1490.5,-145 1490.5,-181"/>
<text text-anchor="middle" x="1398" y="-159.3" font-family="Times,serif" font-size="14.00">ORIENTATION_LOOP_2</text>
</g>
<!-- COMMENT_8dab7e0+1&#45;&gt;DO_8f4c340 -->
<g id="edge42" class="edge">
<title>COMMENT_8dab7e0+1&#45;&gt;DO_8f4c340</title>
<path fill="none" stroke="black" d="M1398,-219.7C1398,-211.25 1398,-200.87 1398,-191.37"/>
<polygon fill="black" stroke="black" points="1401.5,-191.18 1398,-181.18 1394.5,-191.18 1401.5,-191.18"/>
</g>
<!-- CALL_8f4fe00 -->
<g id="node45" class="node">
<title>CALL_8f4fe00</title>
<g id="a_node45"><a xlink:href="CC_VELOCITY_BC.svg" xlink:title="CC_VELOCITY_BC">
<polygon fill="lightgray" stroke="black" points="1471,-109 1325,-109 1325,-105 1321,-105 1321,-101 1325,-101 1325,-81 1321,-81 1321,-77 1325,-77 1325,-73 1471,-73 1471,-109"/>
<polyline fill="none" stroke="black" points="1325,-105 1329,-105 1329,-101 1325,-101 "/>
<polyline fill="none" stroke="black" points="1325,-81 1329,-81 1329,-77 1325,-77 "/>
<text text-anchor="middle" x="1398" y="-87.3" font-family="Times,serif" font-size="14.00">CC_VELOCITY_BC</text>
</a>
</g>
</g>
<!-- DO_8f4c340&#45;&gt;CALL_8f4fe00 -->
<g id="edge44" class="edge">
<title>DO_8f4c340&#45;&gt;CALL_8f4fe00</title>
<path fill="none" stroke="black" d="M1398,-144.7C1398,-136.98 1398,-127.71 1398,-119.11"/>
<polygon fill="black" stroke="black" points="1401.5,-119.1 1398,-109.1 1394.5,-119.1 1401.5,-119.1"/>
</g>
<!-- end_SUBPROGRAM_8f4ff00 -->
<g id="node46" class="node">
<title>end_SUBPROGRAM_8f4ff00</title>
<ellipse fill="black" stroke="black" cx="1398" cy="-30" rx="7" ry="7"/>
</g>
<!-- CALL_8f4fe00&#45;&gt;end_SUBPROGRAM_8f4ff00 -->
<g id="edge45" class="edge">
<title>CALL_8f4fe00&#45;&gt;end_SUBPROGRAM_8f4ff00</title>
<path fill="none" stroke="black" d="M1398,-72.93C1398,-64.89 1398,-55.33 1398,-47.37"/>
<polygon fill="black" stroke="black" points="1401.5,-47.22 1398,-37.22 1394.5,-47.22 1401.5,-47.22"/>
</g>
</g>
</svg>
