<?xml version="1.0" encoding="UTF-8" standalone="no"?>
<!DOCTYPE svg PUBLIC "-//W3C//DTD SVG 1.1//EN"
 "http://www.w3.org/Graphics/SVG/1.1/DTD/svg11.dtd">
<!-- Generated by graphviz version 2.43.0 (0)
 -->
<!-- Title: VELOCITY_PREDICTOR Pages: 1 -->
<svg width="1493pt" height="1205pt"
 viewBox="0.00 0.00 1492.50 1205.44" xmlns="http://www.w3.org/2000/svg" xmlns:xlink="http://www.w3.org/1999/xlink">
<g id="graph0" class="graph" transform="scale(1 1) rotate(0) translate(4 1201.44)">
<title>VELOCITY_PREDICTOR</title>
<polygon fill="white" stroke="transparent" points="-4,4 -4,-1201.44 1488.5,-1201.44 1488.5,4 -4,4"/>
<text text-anchor="middle" x="742.25" y="-7.8" font-family="Times,serif" font-size="14.00">VELOCITY_PREDICTOR</text>
<g id="clust1" class="cluster">
<title>cluster_FREEZE_VELOCITY_IF</title>
<polygon fill="none" stroke="blue" points="482.5,-281 482.5,-1189.44 1476.5,-1189.44 1476.5,-281 482.5,-281"/>
<text text-anchor="middle" x="573" y="-1174.24" font-family="Times,serif" font-size="14.00">FREEZE_VELOCITY_IF</text>
</g>
<g id="clust2" class="cluster">
<title>cluster_cond89a8220</title>
<polygon fill="none" stroke="black" points="490.5,-317.72 490.5,-392.72 678.5,-392.72 678.5,-317.72 490.5,-317.72"/>
<text text-anchor="middle" x="547" y="-377.52" font-family="Times,serif" font-size="14.00">cond89a8220</text>
</g>
<g id="clust3" class="cluster">
<title>cluster_cond89d3500</title>
<polygon fill="none" stroke="black" points="1042.5,-317.72 1042.5,-1158.44 1468.5,-1158.44 1468.5,-317.72 1042.5,-317.72"/>
<text text-anchor="middle" x="1099" y="-1143.24" font-family="Times,serif" font-size="14.00">cond89d3500</text>
</g>
<g id="clust4" class="cluster">
<title>cluster_omp_OMP_BEGIN_REGION_89a8880+1</title>
<polygon fill="none" stroke="red" points="1104.5,-608.72 1104.5,-1127.44 1407.5,-1127.44 1407.5,-608.72 1104.5,-608.72"/>
<text text-anchor="middle" x="1256" y="-1112.24" font-family="Times,serif" font-size="14.00">omp_OMP_BEGIN_REGION_89a8880+1</text>
</g>
<!-- start_SUBPROGRAM_89e6c60 -->
<g id="node1" class="node">
<title>start_SUBPROGRAM_89e6c60</title>
<ellipse fill="none" stroke="black" cx="237.5" cy="-825.72" rx="7" ry="7"/>
</g>
<!-- COMMENT_89a0000+1 -->
<g id="node2" class="node">
<title>COMMENT_89a0000+1</title>
<polygon fill="none" stroke="black" points="469,-771.72 0,-771.72 0,-688.72 475,-688.72 475,-765.72 469,-771.72"/>
<polyline fill="none" stroke="black" points="469,-771.72 469,-765.72 "/>
<polyline fill="none" stroke="black" points="475,-765.72 469,-765.72 "/>
<text text-anchor="middle" x="237.5" y="-756.52" font-family="Times,serif" font-size="14.00">!&gt; brief Estimate the velocity components at the next time step</text>
<text text-anchor="middle" x="237.5" y="-741.52" font-family="Times,serif" font-size="14.00">!&gt; param T Current time (s)</text>
<text text-anchor="middle" x="237.5" y="-726.52" font-family="Times,serif" font-size="14.00">!&gt; param DT Time step (s)</text>
<text text-anchor="middle" x="237.5" y="-711.52" font-family="Times,serif" font-size="14.00">!&gt; param DT_NEW New time step (if necessary)</text>
<text text-anchor="middle" x="237.5" y="-696.52" font-family="Times,serif" font-size="14.00">!&gt; param NM Mesh number</text>
</g>
<!-- start_SUBPROGRAM_89e6c60&#45;&gt;COMMENT_89a0000+1 -->
<g id="edge1" class="edge">
<title>start_SUBPROGRAM_89e6c60&#45;&gt;COMMENT_89a0000+1</title>
<path fill="none" stroke="black" d="M237.5,-818.59C237.5,-810.86 237.5,-796.83 237.5,-782.23"/>
<polygon fill="black" stroke="black" points="241,-782.11 237.5,-772.11 234,-782.11 241,-782.11"/>
</g>
<!-- CALL_89a0a80 -->
<g id="node3" class="node">
<title>CALL_89a0a80</title>
<g id="a_node3"><a xlink:href="COMPRESSION_WAVE.svg" xlink:title="COMPRESSION_WAVE">
<polygon fill="lightgray" stroke="black" points="401,-652.72 220,-652.72 220,-648.72 216,-648.72 216,-644.72 220,-644.72 220,-624.72 216,-624.72 216,-620.72 220,-620.72 220,-616.72 401,-616.72 401,-652.72"/>
<polyline fill="none" stroke="black" points="220,-648.72 224,-648.72 224,-644.72 220,-644.72 "/>
<polyline fill="none" stroke="black" points="220,-624.72 224,-624.72 224,-620.72 220,-620.72 "/>
<text text-anchor="middle" x="310.5" y="-631.02" font-family="Times,serif" font-size="14.00">COMPRESSION_WAVE</text>
</a>
</g>
</g>
<!-- COMMENT_89a0000+1&#45;&gt;CALL_89a0a80 -->
<g id="edge2" class="edge">
<title>COMMENT_89a0000+1&#45;&gt;CALL_89a0a80</title>
<path fill="none" stroke="black" d="M269.31,-688.48C276.57,-679.18 284.08,-669.56 290.67,-661.12"/>
<polygon fill="black" stroke="black" points="293.52,-663.16 296.91,-653.13 288,-658.85 293.52,-663.16"/>
</g>
<!-- CALL_89a5d20 -->
<g id="node4" class="node">
<title>CALL_89a5d20</title>
<g id="a_node4"><a xlink:href="CHECK_STABILITY.svg" xlink:title="CHECK_STABILITY">
<polygon fill="lightgray" stroke="black" points="430,-580.72 277,-580.72 277,-576.72 273,-576.72 273,-572.72 277,-572.72 277,-552.72 273,-552.72 273,-548.72 277,-548.72 277,-544.72 430,-544.72 430,-580.72"/>
<polyline fill="none" stroke="black" points="277,-576.72 281,-576.72 281,-572.72 277,-572.72 "/>
<polyline fill="none" stroke="black" points="277,-552.72 281,-552.72 281,-548.72 277,-548.72 "/>
<text text-anchor="middle" x="353.5" y="-559.02" font-family="Times,serif" font-size="14.00">CHECK_STABILITY</text>
</a>
</g>
</g>
<!-- CALL_89a0a80&#45;&gt;CALL_89a5d20 -->
<g id="edge3" class="edge">
<title>CALL_89a0a80&#45;&gt;CALL_89a5d20</title>
<path fill="none" stroke="black" d="M321.13,-616.42C326.13,-608.28 332.19,-598.41 337.71,-589.42"/>
<polygon fill="black" stroke="black" points="340.74,-591.18 342.99,-580.82 334.78,-587.51 340.74,-591.18"/>
</g>
<!-- CALL_89a6920 -->
<g id="node5" class="node">
<title>CALL_89a6920</title>
<g id="a_node5"><a xlink:href="POINT_TO_MESH.svg" xlink:title="POINT_TO_MESH">
<polygon fill="lightgray" stroke="black" points="449.5,-508.72 305.5,-508.72 305.5,-504.72 301.5,-504.72 301.5,-500.72 305.5,-500.72 305.5,-480.72 301.5,-480.72 301.5,-476.72 305.5,-476.72 305.5,-472.72 449.5,-472.72 449.5,-508.72"/>
<polyline fill="none" stroke="black" points="305.5,-504.72 309.5,-504.72 309.5,-500.72 305.5,-500.72 "/>
<polyline fill="none" stroke="black" points="305.5,-480.72 309.5,-480.72 309.5,-476.72 305.5,-476.72 "/>
<text text-anchor="middle" x="377.5" y="-487.02" font-family="Times,serif" font-size="14.00">POINT_TO_MESH</text>
</a>
</g>
</g>
<!-- CALL_89a5d20&#45;&gt;CALL_89a6920 -->
<g id="edge4" class="edge">
<title>CALL_89a5d20&#45;&gt;CALL_89a6920</title>
<path fill="none" stroke="black" d="M359.43,-544.42C362.11,-536.62 365.33,-527.23 368.3,-518.55"/>
<polygon fill="black" stroke="black" points="371.7,-519.42 371.64,-508.82 365.08,-517.15 371.7,-519.42"/>
</g>
<!-- beginIf_IF_89d3580 -->
<g id="node6" class="node">
<title>beginIf_IF_89d3580</title>
<ellipse fill="black" stroke="black" cx="584.5" cy="-418.72" rx="0.36" ry="0.36"/>
</g>
<!-- CALL_89a6920&#45;&gt;beginIf_IF_89d3580 -->
<g id="edge19" class="edge">
<title>CALL_89a6920&#45;&gt;beginIf_IF_89d3580</title>
<path fill="none" stroke="black" d="M427.87,-472.69C488.19,-452.29 581.53,-420.72 584.43,-419.74"/>
</g>
<!-- Empty_89a8220 -->
<g id="node8" class="node">
<title>Empty_89a8220</title>
<ellipse fill="none" stroke="black" cx="584.5" cy="-343.72" rx="86.38" ry="18"/>
<text text-anchor="middle" x="584.5" y="-340.02" font-family="Times,serif" font-size="14.00">Empty_89a8220</text>
</g>
<!-- beginIf_IF_89d3580&#45;&gt;Empty_89a8220 -->
<g id="edge5" class="edge">
<title>beginIf_IF_89d3580&#45;&gt;Empty_89a8220</title>
<path fill="none" stroke="black" d="M584.5,-417.67C584.5,-416.39 584.5,-392.15 584.5,-371.96"/>
<polygon fill="black" stroke="black" points="588,-371.92 584.5,-361.92 581,-371.92 588,-371.92"/>
</g>
<!-- OMP_BEGIN_REGION_89a8880+1 -->
<g id="node20" class="node">
<title>OMP_BEGIN_REGION_89a8880+1</title>
<ellipse fill="none" stroke="black" cx="861.5" cy="-343.72" rx="172.77" ry="18"/>
<text text-anchor="middle" x="861.5" y="-340.02" font-family="Times,serif" font-size="14.00">OMP_BEGIN_REGION_89a8880+1</text>
</g>
<!-- beginIf_IF_89d3580&#45;&gt;OMP_BEGIN_REGION_89a8880+1 -->
<g id="edge17" class="edge">
<title>beginIf_IF_89d3580&#45;&gt;OMP_BEGIN_REGION_89a8880+1</title>
<path fill="none" stroke="black" d="M584.66,-417.68C587.9,-416.87 640.37,-403.74 682.5,-392.72 718.89,-383.2 759.37,-372.36 792.62,-363.4"/>
<polygon fill="black" stroke="black" points="793.95,-366.67 802.7,-360.68 792.13,-359.91 793.95,-366.67"/>
</g>
<!-- endIf_IF_89d3580 -->
<g id="node7" class="node">
<title>endIf_IF_89d3580</title>
<ellipse fill="black" stroke="black" cx="897.5" cy="-289.36" rx="0.36" ry="0.36"/>
</g>
<!-- COMMENT_89d27e0+1 -->
<g id="node21" class="node">
<title>COMMENT_89d27e0+1</title>
<polygon fill="none" stroke="black" points="1010.5,-253 778.5,-253 778.5,-217 1016.5,-217 1016.5,-247 1010.5,-253"/>
<polyline fill="none" stroke="black" points="1010.5,-253 1010.5,-247 "/>
<polyline fill="none" stroke="black" points="1016.5,-247 1010.5,-247 "/>
<text text-anchor="middle" x="897.5" y="-231.3" font-family="Times,serif" font-size="14.00">Manufactured solution (debug)</text>
</g>
<!-- endIf_IF_89d3580&#45;&gt;COMMENT_89d27e0+1 -->
<g id="edge20" class="edge">
<title>endIf_IF_89d3580&#45;&gt;COMMENT_89d27e0+1</title>
<path fill="none" stroke="black" d="M897.5,-288.21C897.5,-286.77 897.5,-275.23 897.5,-263.36"/>
<polygon fill="black" stroke="black" points="901,-263.1 897.5,-253.1 894,-263.1 901,-263.1"/>
</g>
<!-- Empty_89a8220&#45;&gt;endIf_IF_89d3580 -->
<g id="edge6" class="edge">
<title>Empty_89a8220&#45;&gt;endIf_IF_89d3580</title>
<path fill="none" stroke="black" d="M630.9,-328.44C644.82,-324.53 660.19,-320.59 674.5,-317.72 770.91,-298.38 893.6,-289.98 897.41,-289.73"/>
</g>
<!-- start_omp_OMP_BEGIN_REGION_89a8880+1 -->
<g id="node9" class="node">
<title>start_omp_OMP_BEGIN_REGION_89a8880+1</title>
<ellipse fill="black" stroke="black" cx="1255.5" cy="-1096.08" rx="0.36" ry="0.36"/>
</g>
<!-- COMMENT_89a8880+2 -->
<g id="node10" class="node">
<title>COMMENT_89a8880+2</title>
<polygon fill="none" stroke="black" points="1372.5,-1059.72 1132.5,-1059.72 1132.5,-1023.72 1378.5,-1023.72 1378.5,-1053.72 1372.5,-1059.72"/>
<polyline fill="none" stroke="black" points="1372.5,-1059.72 1372.5,-1053.72 "/>
<polyline fill="none" stroke="black" points="1378.5,-1053.72 1372.5,-1053.72 "/>
<text text-anchor="middle" x="1255.5" y="-1038.02" font-family="Times,serif" font-size="14.00">!$OMP DO SCHEDULE(STATIC)</text>
</g>
<!-- start_omp_OMP_BEGIN_REGION_89a8880+1&#45;&gt;COMMENT_89a8880+2 -->
<g id="edge7" class="edge">
<title>start_omp_OMP_BEGIN_REGION_89a8880+1&#45;&gt;COMMENT_89a8880+2</title>
<path fill="none" stroke="black" d="M1255.5,-1095.57C1255.5,-1094.09 1255.5,-1082.04 1255.5,-1069.82"/>
<polygon fill="black" stroke="black" points="1259,-1069.74 1255.5,-1059.74 1252,-1069.74 1259,-1069.74"/>
</g>
<!-- COMMENT_89b55e0+1 -->
<g id="node11" class="node">
<title>COMMENT_89b55e0+1</title>
<polygon fill="none" stroke="black" points="1348,-987.72 1157,-987.72 1157,-951.72 1354,-951.72 1354,-981.72 1348,-987.72"/>
<polyline fill="none" stroke="black" points="1348,-987.72 1348,-981.72 "/>
<polyline fill="none" stroke="black" points="1354,-981.72 1348,-981.72 "/>
<text text-anchor="middle" x="1255.5" y="-966.02" font-family="Times,serif" font-size="14.00">!$OMP END DO NOWAIT</text>
</g>
<!-- COMMENT_89a8880+2&#45;&gt;COMMENT_89b55e0+1 -->
<g id="edge8" class="edge">
<title>COMMENT_89a8880+2&#45;&gt;COMMENT_89b55e0+1</title>
<path fill="none" stroke="black" d="M1255.5,-1023.42C1255.5,-1015.7 1255.5,-1006.43 1255.5,-997.83"/>
<polygon fill="black" stroke="black" points="1259,-997.82 1255.5,-987.82 1252,-997.82 1259,-997.82"/>
</g>
<!-- COMMENT_89b55e0+2 -->
<g id="node12" class="node">
<title>COMMENT_89b55e0+2</title>
<polygon fill="none" stroke="black" points="1372.5,-915.72 1132.5,-915.72 1132.5,-879.72 1378.5,-879.72 1378.5,-909.72 1372.5,-915.72"/>
<polyline fill="none" stroke="black" points="1372.5,-915.72 1372.5,-909.72 "/>
<polyline fill="none" stroke="black" points="1378.5,-909.72 1372.5,-909.72 "/>
<text text-anchor="middle" x="1255.5" y="-894.02" font-family="Times,serif" font-size="14.00">!$OMP DO SCHEDULE(STATIC)</text>
</g>
<!-- COMMENT_89b55e0+1&#45;&gt;COMMENT_89b55e0+2 -->
<g id="edge9" class="edge">
<title>COMMENT_89b55e0+1&#45;&gt;COMMENT_89b55e0+2</title>
<path fill="none" stroke="black" d="M1255.5,-951.42C1255.5,-943.7 1255.5,-934.43 1255.5,-925.83"/>
<polygon fill="black" stroke="black" points="1259,-925.82 1255.5,-915.82 1252,-925.82 1259,-925.82"/>
</g>
<!-- COMMENT_89c0140+1 -->
<g id="node13" class="node">
<title>COMMENT_89c0140+1</title>
<polygon fill="none" stroke="black" points="1348,-843.72 1157,-843.72 1157,-807.72 1354,-807.72 1354,-837.72 1348,-843.72"/>
<polyline fill="none" stroke="black" points="1348,-843.72 1348,-837.72 "/>
<polyline fill="none" stroke="black" points="1354,-837.72 1348,-837.72 "/>
<text text-anchor="middle" x="1255.5" y="-822.02" font-family="Times,serif" font-size="14.00">!$OMP END DO NOWAIT</text>
</g>
<!-- COMMENT_89b55e0+2&#45;&gt;COMMENT_89c0140+1 -->
<g id="edge10" class="edge">
<title>COMMENT_89b55e0+2&#45;&gt;COMMENT_89c0140+1</title>
<path fill="none" stroke="black" d="M1255.5,-879.42C1255.5,-871.7 1255.5,-862.43 1255.5,-853.83"/>
<polygon fill="black" stroke="black" points="1259,-853.82 1255.5,-843.82 1252,-853.82 1259,-853.82"/>
</g>
<!-- COMMENT_89c0140+2 -->
<g id="node14" class="node">
<title>COMMENT_89c0140+2</title>
<polygon fill="none" stroke="black" points="1372.5,-748.22 1132.5,-748.22 1132.5,-712.22 1378.5,-712.22 1378.5,-742.22 1372.5,-748.22"/>
<polyline fill="none" stroke="black" points="1372.5,-748.22 1372.5,-742.22 "/>
<polyline fill="none" stroke="black" points="1378.5,-742.22 1372.5,-742.22 "/>
<text text-anchor="middle" x="1255.5" y="-726.52" font-family="Times,serif" font-size="14.00">!$OMP DO SCHEDULE(STATIC)</text>
</g>
<!-- COMMENT_89c0140+1&#45;&gt;COMMENT_89c0140+2 -->
<g id="edge11" class="edge">
<title>COMMENT_89c0140+1&#45;&gt;COMMENT_89c0140+2</title>
<path fill="none" stroke="black" d="M1255.5,-807.57C1255.5,-793.86 1255.5,-774.39 1255.5,-758.54"/>
<polygon fill="black" stroke="black" points="1259,-758.26 1255.5,-748.26 1252,-758.26 1259,-758.26"/>
</g>
<!-- COMMENT_89ca120+1 -->
<g id="node15" class="node">
<title>COMMENT_89ca120+1</title>
<polygon fill="none" stroke="black" points="1348,-652.72 1157,-652.72 1157,-616.72 1354,-616.72 1354,-646.72 1348,-652.72"/>
<polyline fill="none" stroke="black" points="1348,-652.72 1348,-646.72 "/>
<polyline fill="none" stroke="black" points="1354,-646.72 1348,-646.72 "/>
<text text-anchor="middle" x="1255.5" y="-631.02" font-family="Times,serif" font-size="14.00">!$OMP END DO NOWAIT</text>
</g>
<!-- COMMENT_89c0140+2&#45;&gt;COMMENT_89ca120+1 -->
<g id="edge12" class="edge">
<title>COMMENT_89c0140+2&#45;&gt;COMMENT_89ca120+1</title>
<path fill="none" stroke="black" d="M1255.5,-712.07C1255.5,-698.36 1255.5,-678.89 1255.5,-663.04"/>
<polygon fill="black" stroke="black" points="1259,-662.76 1255.5,-652.76 1252,-662.76 1259,-662.76"/>
</g>
<!-- COMMENT_89c89e0+1 -->
<g id="node16" class="node">
<title>COMMENT_89c89e0+1</title>
<polygon fill="none" stroke="black" points="1454.5,-580.72 1050.5,-580.72 1050.5,-544.72 1460.5,-544.72 1460.5,-574.72 1454.5,-580.72"/>
<polyline fill="none" stroke="black" points="1454.5,-580.72 1454.5,-574.72 "/>
<polyline fill="none" stroke="black" points="1460.5,-574.72 1454.5,-574.72 "/>
<text text-anchor="middle" x="1255.5" y="-559.02" font-family="Times,serif" font-size="14.00">!$OMP PARALLEL DO PRIVATE(I) SCHEDULE(STATIC)</text>
</g>
<!-- COMMENT_89ca120+1&#45;&gt;COMMENT_89c89e0+1 -->
<g id="edge13" class="edge">
<title>COMMENT_89ca120+1&#45;&gt;COMMENT_89c89e0+1</title>
<path fill="none" stroke="black" d="M1255.5,-616.42C1255.5,-608.7 1255.5,-599.43 1255.5,-590.83"/>
<polygon fill="black" stroke="black" points="1259,-590.82 1255.5,-580.82 1252,-590.82 1259,-590.82"/>
</g>
<!-- COMMENT_89ce1a0+1 -->
<g id="node17" class="node">
<title>COMMENT_89ce1a0+1</title>
<polygon fill="none" stroke="black" points="1344.5,-508.72 1138.5,-508.72 1138.5,-472.72 1350.5,-472.72 1350.5,-502.72 1344.5,-508.72"/>
<polyline fill="none" stroke="black" points="1344.5,-508.72 1344.5,-502.72 "/>
<polyline fill="none" stroke="black" points="1350.5,-502.72 1344.5,-502.72 "/>
<text text-anchor="middle" x="1244.5" y="-487.02" font-family="Times,serif" font-size="14.00">!$OMP END PARALLEL DO</text>
</g>
<!-- COMMENT_89c89e0+1&#45;&gt;COMMENT_89ce1a0+1 -->
<g id="edge14" class="edge">
<title>COMMENT_89c89e0+1&#45;&gt;COMMENT_89ce1a0+1</title>
<path fill="none" stroke="black" d="M1252.78,-544.42C1251.57,-536.7 1250.11,-527.43 1248.76,-518.83"/>
<polygon fill="black" stroke="black" points="1252.2,-518.16 1247.19,-508.82 1245.28,-519.25 1252.2,-518.16"/>
</g>
<!-- CALL_89d0a20 -->
<g id="node18" class="node">
<title>CALL_89d0a20</title>
<g id="a_node18"><a xlink:href="CC_PROJECT_VELOCITY.svg" xlink:title="CC_PROJECT_VELOCITY">
<polygon fill="lightgray" stroke="black" points="1318.5,-436.72 1126.5,-436.72 1126.5,-432.72 1122.5,-432.72 1122.5,-428.72 1126.5,-428.72 1126.5,-408.72 1122.5,-408.72 1122.5,-404.72 1126.5,-404.72 1126.5,-400.72 1318.5,-400.72 1318.5,-436.72"/>
<polyline fill="none" stroke="black" points="1126.5,-432.72 1130.5,-432.72 1130.5,-428.72 1126.5,-428.72 "/>
<polyline fill="none" stroke="black" points="1126.5,-408.72 1130.5,-408.72 1130.5,-404.72 1126.5,-404.72 "/>
<text text-anchor="middle" x="1222.5" y="-415.02" font-family="Times,serif" font-size="14.00">CC_PROJECT_VELOCITY</text>
</a>
</g>
</g>
<!-- COMMENT_89ce1a0+1&#45;&gt;CALL_89d0a20 -->
<g id="edge15" class="edge">
<title>COMMENT_89ce1a0+1&#45;&gt;CALL_89d0a20</title>
<path fill="none" stroke="black" d="M1239.06,-472.42C1236.61,-464.62 1233.66,-455.23 1230.93,-446.55"/>
<polygon fill="black" stroke="black" points="1234.21,-445.31 1227.88,-436.82 1227.54,-447.41 1234.21,-445.31"/>
</g>
<!-- CALL_89d3100 -->
<g id="node19" class="node">
<title>CALL_89d3100</title>
<g id="a_node19"><a xlink:href="WALL_VELOCITY_NO_GRADH.svg" xlink:title="WALL_VELOCITY_NO_GRADH">
<polygon fill="lightgray" stroke="black" points="1326.5,-361.72 1096.5,-361.72 1096.5,-357.72 1092.5,-357.72 1092.5,-353.72 1096.5,-353.72 1096.5,-333.72 1092.5,-333.72 1092.5,-329.72 1096.5,-329.72 1096.5,-325.72 1326.5,-325.72 1326.5,-361.72"/>
<polyline fill="none" stroke="black" points="1096.5,-357.72 1100.5,-357.72 1100.5,-353.72 1096.5,-353.72 "/>
<polyline fill="none" stroke="black" points="1096.5,-333.72 1100.5,-333.72 1100.5,-329.72 1096.5,-329.72 "/>
<text text-anchor="middle" x="1211.5" y="-340.02" font-family="Times,serif" font-size="14.00">WALL_VELOCITY_NO_GRADH</text>
</a>
</g>
</g>
<!-- CALL_89d0a20&#45;&gt;CALL_89d3100 -->
<g id="edge16" class="edge">
<title>CALL_89d0a20&#45;&gt;CALL_89d3100</title>
<path fill="none" stroke="black" d="M1219.89,-400.42C1218.61,-391.87 1217.02,-381.37 1215.58,-371.79"/>
<polygon fill="black" stroke="black" points="1219.04,-371.26 1214.09,-361.9 1212.12,-372.31 1219.04,-371.26"/>
</g>
<!-- CALL_89d3100&#45;&gt;endIf_IF_89d3580 -->
<g id="edge18" class="edge">
<title>CALL_89d3100&#45;&gt;endIf_IF_89d3580</title>
<path fill="none" stroke="black" d="M1133.87,-325.66C1120.12,-322.85 1105.91,-320.09 1092.5,-317.72 1007.63,-302.73 900.89,-290.12 897.58,-289.73"/>
</g>
<!-- COMMENT_89e4100+1 -->
<g id="node22" class="node">
<title>COMMENT_89e4100+1</title>
<polygon fill="none" stroke="black" points="1233,-181 556,-181 556,-145 1239,-145 1239,-175 1233,-181"/>
<polyline fill="none" stroke="black" points="1233,-181 1233,-175 "/>
<polyline fill="none" stroke="black" points="1239,-175 1233,-175 "/>
<text text-anchor="middle" x="897.5" y="-159.3" font-family="Times,serif" font-size="14.00">Check the stability criteria, and if the time step is too small, send back a signal to kill the job</text>
</g>
<!-- COMMENT_89d27e0+1&#45;&gt;COMMENT_89e4100+1 -->
<g id="edge21" class="edge">
<title>COMMENT_89d27e0+1&#45;&gt;COMMENT_89e4100+1</title>
<path fill="none" stroke="black" d="M897.5,-216.7C897.5,-208.98 897.5,-199.71 897.5,-191.11"/>
<polygon fill="black" stroke="black" points="901,-191.1 897.5,-181.1 894,-191.1 901,-191.1"/>
</g>
<!-- CALL_89e4100 -->
<g id="node23" class="node">
<title>CALL_89e4100</title>
<g id="a_node23"><a xlink:href="CHECK_STABILITY.svg" xlink:title="CHECK_STABILITY">
<polygon fill="lightgray" stroke="black" points="974,-109 821,-109 821,-105 817,-105 817,-101 821,-101 821,-81 817,-81 817,-77 821,-77 821,-73 974,-73 974,-109"/>
<polyline fill="none" stroke="black" points="821,-105 825,-105 825,-101 821,-101 "/>
<polyline fill="none" stroke="black" points="821,-81 825,-81 825,-77 821,-77 "/>
<text text-anchor="middle" x="897.5" y="-87.3" font-family="Times,serif" font-size="14.00">CHECK_STABILITY</text>
</a>
</g>
</g>
<!-- COMMENT_89e4100+1&#45;&gt;CALL_89e4100 -->
<g id="edge22" class="edge">
<title>COMMENT_89e4100+1&#45;&gt;CALL_89e4100</title>
<path fill="none" stroke="black" d="M897.5,-144.7C897.5,-136.98 897.5,-127.71 897.5,-119.11"/>
<polygon fill="black" stroke="black" points="901,-119.1 897.5,-109.1 894,-119.1 901,-119.1"/>
</g>
<!-- end_SUBPROGRAM_89e6c60 -->
<g id="node24" class="node">
<title>end_SUBPROGRAM_89e6c60</title>
<ellipse fill="black" stroke="black" cx="897.5" cy="-30" rx="7" ry="7"/>
</g>
<!-- CALL_89e4100&#45;&gt;end_SUBPROGRAM_89e6c60 -->
<g id="edge23" class="edge">
<title>CALL_89e4100&#45;&gt;end_SUBPROGRAM_89e6c60</title>
<path fill="none" stroke="black" d="M897.5,-72.93C897.5,-64.89 897.5,-55.33 897.5,-47.37"/>
<polygon fill="black" stroke="black" points="901,-47.22 897.5,-37.22 894,-47.22 901,-47.22"/>
</g>
</g>
</svg>
