<?xml version="1.0" encoding="UTF-8" standalone="no"?>
<!DOCTYPE svg PUBLIC "-//W3C//DTD SVG 1.1//EN"
 "http://www.w3.org/Graphics/SVG/1.1/DTD/svg11.dtd">
<!-- Generated by graphviz version 2.43.0 (0)
 -->
<!-- Title: VELOCITY_PREDICTOR Pages: 1 -->
<svg width="737pt" height="1243pt"
 viewBox="0.00 0.00 736.50 1242.80" xmlns="http://www.w3.org/2000/svg" xmlns:xlink="http://www.w3.org/1999/xlink">
<g id="graph0" class="graph" transform="scale(1 1) rotate(0) translate(4 1238.8)">
<title>VELOCITY_PREDICTOR</title>
<polygon fill="white" stroke="transparent" points="-4,4 -4,-1238.8 732.5,-1238.8 732.5,4 -4,4"/>
<text text-anchor="middle" x="364.25" y="-7.8" font-family="Times,serif" font-size="14.00">VELOCITY_PREDICTOR</text>
<g id="clust1" class="cluster">
<title>cluster_FREEZE_VELOCITY_IF</title>
<polygon fill="none" stroke="blue" points="80.5,-281 80.5,-877.8 720.5,-877.8 720.5,-281 80.5,-281"/>
<text text-anchor="middle" x="171" y="-862.6" font-family="Times,serif" font-size="14.00">FREEZE_VELOCITY_IF</text>
</g>
<g id="clust2" class="cluster">
<title>cluster_cond8bb8100</title>
<polygon fill="none" stroke="black" points="88.5,-749.72 88.5,-824.72 278.5,-824.72 278.5,-749.72 88.5,-749.72"/>
<text text-anchor="middle" x="145" y="-809.52" font-family="Times,serif" font-size="14.00">cond8bb8100</text>
</g>
<g id="clust3" class="cluster">
<title>cluster_cond8be3220</title>
<polygon fill="none" stroke="black" points="286.5,-317.72 286.5,-838.08 712.5,-838.08 712.5,-317.72 286.5,-317.72"/>
<text text-anchor="middle" x="343" y="-822.88" font-family="Times,serif" font-size="14.00">cond8be3220</text>
</g>
<g id="clust4" class="cluster">
<title>cluster_omp_OMP_BEGIN_REGION_8bb8860+1</title>
<polygon fill="none" stroke="red" points="331.5,-533.72 331.5,-807.08 635.5,-807.08 635.5,-533.72 331.5,-533.72"/>
<text text-anchor="middle" x="483.5" y="-791.88" font-family="Times,serif" font-size="14.00">omp_OMP_BEGIN_REGION_8bb8860+1</text>
</g>
<!-- start_SUBPROGRAM_8b29040 -->
<g id="node1" class="node">
<title>start_SUBPROGRAM_8b29040</title>
<ellipse fill="none" stroke="black" cx="291.5" cy="-1227.8" rx="7" ry="7"/>
</g>
<!-- COMMENT_8bb0180+1 -->
<g id="node2" class="node">
<title>COMMENT_8bb0180+1</title>
<polygon fill="none" stroke="black" points="523,-1184.8 54,-1184.8 54,-1101.8 529,-1101.8 529,-1178.8 523,-1184.8"/>
<polyline fill="none" stroke="black" points="523,-1184.8 523,-1178.8 "/>
<polyline fill="none" stroke="black" points="529,-1178.8 523,-1178.8 "/>
<text text-anchor="middle" x="291.5" y="-1169.6" font-family="Times,serif" font-size="14.00">!&gt; brief Estimate the velocity components at the next time step</text>
<text text-anchor="middle" x="291.5" y="-1154.6" font-family="Times,serif" font-size="14.00">!&gt; param T Current time (s)</text>
<text text-anchor="middle" x="291.5" y="-1139.6" font-family="Times,serif" font-size="14.00">!&gt; param DT Time step (s)</text>
<text text-anchor="middle" x="291.5" y="-1124.6" font-family="Times,serif" font-size="14.00">!&gt; param DT_NEW New time step (if necessary)</text>
<text text-anchor="middle" x="291.5" y="-1109.6" font-family="Times,serif" font-size="14.00">!&gt; param NM Mesh number</text>
</g>
<!-- start_SUBPROGRAM_8b29040&#45;&gt;COMMENT_8bb0180+1 -->
<g id="edge1" class="edge">
<title>start_SUBPROGRAM_8b29040&#45;&gt;COMMENT_8bb0180+1</title>
<path fill="none" stroke="black" d="M291.5,-1220.6C291.5,-1214.69 291.5,-1205.19 291.5,-1194.87"/>
<polygon fill="black" stroke="black" points="295,-1194.81 291.5,-1184.81 288,-1194.81 295,-1194.81"/>
</g>
<!-- CALL_8bb0c60 -->
<g id="node3" class="node">
<title>CALL_8bb0c60</title>
<g id="a_node3"><a xlink:href="COMPRESSION_WAVE.svg" xlink:title="COMPRESSION_WAVE">
<polygon fill="lightgray" stroke="black" points="382,-1065.8 201,-1065.8 201,-1061.8 197,-1061.8 197,-1057.8 201,-1057.8 201,-1037.8 197,-1037.8 197,-1033.8 201,-1033.8 201,-1029.8 382,-1029.8 382,-1065.8"/>
<polyline fill="none" stroke="black" points="201,-1061.8 205,-1061.8 205,-1057.8 201,-1057.8 "/>
<polyline fill="none" stroke="black" points="201,-1037.8 205,-1037.8 205,-1033.8 201,-1033.8 "/>
<text text-anchor="middle" x="291.5" y="-1044.1" font-family="Times,serif" font-size="14.00">COMPRESSION_WAVE</text>
</a>
</g>
</g>
<!-- COMMENT_8bb0180+1&#45;&gt;CALL_8bb0c60 -->
<g id="edge2" class="edge">
<title>COMMENT_8bb0180+1&#45;&gt;CALL_8bb0c60</title>
<path fill="none" stroke="black" d="M291.5,-1101.56C291.5,-1093.04 291.5,-1084.24 291.5,-1076.33"/>
<polygon fill="black" stroke="black" points="295,-1076.21 291.5,-1066.21 288,-1076.21 295,-1076.21"/>
</g>
<!-- CALL_8bb5b60 -->
<g id="node4" class="node">
<title>CALL_8bb5b60</title>
<g id="a_node4"><a xlink:href="CHECK_STABILITY.svg" xlink:title="CHECK_STABILITY">
<polygon fill="lightgray" stroke="black" points="368,-993.8 215,-993.8 215,-989.8 211,-989.8 211,-985.8 215,-985.8 215,-965.8 211,-965.8 211,-961.8 215,-961.8 215,-957.8 368,-957.8 368,-993.8"/>
<polyline fill="none" stroke="black" points="215,-989.8 219,-989.8 219,-985.8 215,-985.8 "/>
<polyline fill="none" stroke="black" points="215,-965.8 219,-965.8 219,-961.8 215,-961.8 "/>
<text text-anchor="middle" x="291.5" y="-972.1" font-family="Times,serif" font-size="14.00">CHECK_STABILITY</text>
</a>
</g>
</g>
<!-- CALL_8bb0c60&#45;&gt;CALL_8bb5b60 -->
<g id="edge3" class="edge">
<title>CALL_8bb0c60&#45;&gt;CALL_8bb5b60</title>
<path fill="none" stroke="black" d="M291.5,-1029.5C291.5,-1021.78 291.5,-1012.51 291.5,-1003.91"/>
<polygon fill="black" stroke="black" points="295,-1003.9 291.5,-993.9 288,-1003.9 295,-1003.9"/>
</g>
<!-- CALL_8bb6840 -->
<g id="node5" class="node">
<title>CALL_8bb6840</title>
<g id="a_node5"><a xlink:href="POINT_TO_MESH.svg" xlink:title="POINT_TO_MESH">
<polygon fill="lightgray" stroke="black" points="363.5,-921.8 219.5,-921.8 219.5,-917.8 215.5,-917.8 215.5,-913.8 219.5,-913.8 219.5,-893.8 215.5,-893.8 215.5,-889.8 219.5,-889.8 219.5,-885.8 363.5,-885.8 363.5,-921.8"/>
<polyline fill="none" stroke="black" points="219.5,-917.8 223.5,-917.8 223.5,-913.8 219.5,-913.8 "/>
<polyline fill="none" stroke="black" points="219.5,-893.8 223.5,-893.8 223.5,-889.8 219.5,-889.8 "/>
<text text-anchor="middle" x="291.5" y="-900.1" font-family="Times,serif" font-size="14.00">POINT_TO_MESH</text>
</a>
</g>
</g>
<!-- CALL_8bb5b60&#45;&gt;CALL_8bb6840 -->
<g id="edge4" class="edge">
<title>CALL_8bb5b60&#45;&gt;CALL_8bb6840</title>
<path fill="none" stroke="black" d="M291.5,-957.5C291.5,-949.78 291.5,-940.51 291.5,-931.91"/>
<polygon fill="black" stroke="black" points="295,-931.9 291.5,-921.9 288,-931.9 295,-931.9"/>
</g>
<!-- beginIf_IF_8be3280 -->
<g id="node6" class="node">
<title>beginIf_IF_8be3280</title>
<ellipse fill="black" stroke="black" cx="291.5" cy="-846.44" rx="0.36" ry="0.36"/>
</g>
<!-- CALL_8bb6840&#45;&gt;beginIf_IF_8be3280 -->
<g id="edge15" class="edge">
<title>CALL_8bb6840&#45;&gt;beginIf_IF_8be3280</title>
<path fill="none" stroke="black" d="M291.5,-885.59C291.5,-869.84 291.5,-848.8 291.5,-847.5"/>
</g>
<!-- Empty_8bb8100 -->
<g id="node8" class="node">
<title>Empty_8bb8100</title>
<ellipse fill="none" stroke="black" cx="183.5" cy="-775.72" rx="87.18" ry="18"/>
<text text-anchor="middle" x="183.5" y="-772.02" font-family="Times,serif" font-size="14.00">Empty_8bb8100</text>
</g>
<!-- beginIf_IF_8be3280&#45;&gt;Empty_8bb8100 -->
<g id="edge5" class="edge">
<title>beginIf_IF_8be3280&#45;&gt;Empty_8bb8100</title>
<path fill="none" stroke="black" d="M291.42,-846.03C289.4,-844.73 248.58,-818.51 217.74,-798.71"/>
<polygon fill="black" stroke="black" points="219.25,-795.52 208.94,-793.06 215.46,-801.41 219.25,-795.52"/>
</g>
<!-- start_omp_OMP_BEGIN_REGION_8bb8860+1 -->
<g id="node9" class="node">
<title>start_omp_OMP_BEGIN_REGION_8bb8860+1</title>
<ellipse fill="black" stroke="black" cx="400.5" cy="-775.72" rx="0.36" ry="0.36"/>
</g>
<!-- beginIf_IF_8be3280&#45;&gt;start_omp_OMP_BEGIN_REGION_8bb8860+1 -->
<g id="edge13" class="edge">
<title>beginIf_IF_8be3280&#45;&gt;start_omp_OMP_BEGIN_REGION_8bb8860+1</title>
<path fill="none" stroke="black" d="M291.58,-846.03C294.3,-844.3 366.29,-798.49 391.71,-782.31"/>
<polygon fill="black" stroke="black" points="393.87,-785.09 400.42,-776.77 390.11,-779.18 393.87,-785.09"/>
</g>
<!-- endIf_IF_8be3280 -->
<g id="node7" class="node">
<title>endIf_IF_8be3280</title>
<ellipse fill="black" stroke="black" cx="341.5" cy="-289.36" rx="0.36" ry="0.36"/>
</g>
<!-- COMMENT_8be3020+1 -->
<g id="node16" class="node">
<title>COMMENT_8be3020+1</title>
<polygon fill="none" stroke="black" points="454.5,-253 222.5,-253 222.5,-217 460.5,-217 460.5,-247 454.5,-253"/>
<polyline fill="none" stroke="black" points="454.5,-253 454.5,-247 "/>
<polyline fill="none" stroke="black" points="460.5,-247 454.5,-247 "/>
<text text-anchor="middle" x="341.5" y="-231.3" font-family="Times,serif" font-size="14.00">Manufactured solution (debug)</text>
</g>
<!-- endIf_IF_8be3280&#45;&gt;COMMENT_8be3020+1 -->
<g id="edge16" class="edge">
<title>endIf_IF_8be3280&#45;&gt;COMMENT_8be3020+1</title>
<path fill="none" stroke="black" d="M341.5,-288.21C341.5,-286.77 341.5,-275.23 341.5,-263.36"/>
<polygon fill="black" stroke="black" points="345,-263.1 341.5,-253.1 338,-263.1 345,-263.1"/>
</g>
<!-- Empty_8bb8100&#45;&gt;endIf_IF_8be3280 -->
<g id="edge6" class="edge">
<title>Empty_8bb8100&#45;&gt;endIf_IF_8be3280</title>
<path fill="none" stroke="black" d="M192.81,-757.81C206.25,-731.76 229.5,-679.88 229.5,-632.72 229.5,-632.72 229.5,-632.72 229.5,-414.72 229.5,-365.59 246.79,-351.45 282.5,-317.72 302.94,-298.41 339.15,-290.24 341.39,-289.74"/>
</g>
<!-- OMP_DO_8bb8860+2 -->
<g id="node10" class="node">
<title>OMP_DO_8bb8860+2</title>
<polygon fill="red" stroke="black" points="585.5,-721.72 339.5,-721.72 339.5,-685.72 585.5,-685.72 585.5,-721.72"/>
<text text-anchor="middle" x="462.5" y="-700.02" font-family="Times,serif" font-size="14.00">!$OMP DO SCHEDULE(STATIC)</text>
</g>
<!-- start_omp_OMP_BEGIN_REGION_8bb8860+1&#45;&gt;OMP_DO_8bb8860+2 -->
<g id="edge7" class="edge">
<title>start_omp_OMP_BEGIN_REGION_8bb8860+1&#45;&gt;OMP_DO_8bb8860+2</title>
<path fill="none" stroke="black" d="M400.54,-774.67C401.66,-773.41 423.25,-749.04 440.63,-729.41"/>
<polygon fill="black" stroke="black" points="443.26,-731.72 447.27,-721.91 438.02,-727.08 443.26,-731.72"/>
</g>
<!-- OMP_DO_8bc56a0+2 -->
<g id="node11" class="node">
<title>OMP_DO_8bc56a0+2</title>
<polygon fill="red" stroke="black" points="585.5,-649.72 339.5,-649.72 339.5,-613.72 585.5,-613.72 585.5,-649.72"/>
<text text-anchor="middle" x="462.5" y="-628.02" font-family="Times,serif" font-size="14.00">!$OMP DO SCHEDULE(STATIC)</text>
</g>
<!-- OMP_DO_8bb8860+2&#45;&gt;OMP_DO_8bc56a0+2 -->
<g id="edge8" class="edge">
<title>OMP_DO_8bb8860+2&#45;&gt;OMP_DO_8bc56a0+2</title>
<path fill="none" stroke="black" d="M462.5,-685.42C462.5,-677.7 462.5,-668.43 462.5,-659.83"/>
<polygon fill="black" stroke="black" points="466,-659.82 462.5,-649.82 459,-659.82 466,-659.82"/>
</g>
<!-- OMP_DO_8bcffe0+2 -->
<g id="node12" class="node">
<title>OMP_DO_8bcffe0+2</title>
<polygon fill="red" stroke="black" points="603.5,-577.72 357.5,-577.72 357.5,-541.72 603.5,-541.72 603.5,-577.72"/>
<text text-anchor="middle" x="480.5" y="-556.02" font-family="Times,serif" font-size="14.00">!$OMP DO SCHEDULE(STATIC)</text>
</g>
<!-- OMP_DO_8bc56a0+2&#45;&gt;OMP_DO_8bcffe0+2 -->
<g id="edge9" class="edge">
<title>OMP_DO_8bc56a0+2&#45;&gt;OMP_DO_8bcffe0+2</title>
<path fill="none" stroke="black" d="M466.95,-613.42C468.95,-605.62 471.37,-596.23 473.6,-587.55"/>
<polygon fill="black" stroke="black" points="477,-588.38 476.1,-577.82 470.22,-586.64 477,-588.38"/>
</g>
<!-- OMP_DO_8bd87c0+1 -->
<g id="node13" class="node">
<title>OMP_DO_8bd87c0+1</title>
<polygon fill="red" stroke="black" points="704.5,-505.72 294.5,-505.72 294.5,-469.72 704.5,-469.72 704.5,-505.72"/>
<text text-anchor="middle" x="499.5" y="-484.02" font-family="Times,serif" font-size="14.00">!$OMP PARALLEL DO PRIVATE(I) SCHEDULE(STATIC)</text>
</g>
<!-- OMP_DO_8bcffe0+2&#45;&gt;OMP_DO_8bd87c0+1 -->
<g id="edge10" class="edge">
<title>OMP_DO_8bcffe0+2&#45;&gt;OMP_DO_8bd87c0+1</title>
<path fill="none" stroke="black" d="M485.2,-541.42C487.31,-533.62 489.86,-524.23 492.22,-515.55"/>
<polygon fill="black" stroke="black" points="495.62,-516.39 494.86,-505.82 488.86,-514.56 495.62,-516.39"/>
</g>
<!-- CALL_8be0700 -->
<g id="node14" class="node">
<title>CALL_8be0700</title>
<g id="a_node14"><a xlink:href="CC_PROJECT_VELOCITY.svg" xlink:title="CC_PROJECT_VELOCITY">
<polygon fill="lightgray" stroke="black" points="572.5,-433.72 380.5,-433.72 380.5,-429.72 376.5,-429.72 376.5,-425.72 380.5,-425.72 380.5,-405.72 376.5,-405.72 376.5,-401.72 380.5,-401.72 380.5,-397.72 572.5,-397.72 572.5,-433.72"/>
<polyline fill="none" stroke="black" points="380.5,-429.72 384.5,-429.72 384.5,-425.72 380.5,-425.72 "/>
<polyline fill="none" stroke="black" points="380.5,-405.72 384.5,-405.72 384.5,-401.72 380.5,-401.72 "/>
<text text-anchor="middle" x="476.5" y="-412.02" font-family="Times,serif" font-size="14.00">CC_PROJECT_VELOCITY</text>
</a>
</g>
</g>
<!-- OMP_DO_8bd87c0+1&#45;&gt;CALL_8be0700 -->
<g id="edge11" class="edge">
<title>OMP_DO_8bd87c0+1&#45;&gt;CALL_8be0700</title>
<path fill="none" stroke="black" d="M493.81,-469.42C491.25,-461.62 488.17,-452.23 485.32,-443.55"/>
<polygon fill="black" stroke="black" points="488.57,-442.23 482.12,-433.82 481.92,-444.42 488.57,-442.23"/>
</g>
<!-- CALL_8be2e00 -->
<g id="node15" class="node">
<title>CALL_8be2e00</title>
<g id="a_node15"><a xlink:href="WALL_VELOCITY_NO_GRADH.svg" xlink:title="WALL_VELOCITY_NO_GRADH">
<polygon fill="lightgray" stroke="black" points="569.5,-361.72 339.5,-361.72 339.5,-357.72 335.5,-357.72 335.5,-353.72 339.5,-353.72 339.5,-333.72 335.5,-333.72 335.5,-329.72 339.5,-329.72 339.5,-325.72 569.5,-325.72 569.5,-361.72"/>
<polyline fill="none" stroke="black" points="339.5,-357.72 343.5,-357.72 343.5,-353.72 339.5,-353.72 "/>
<polyline fill="none" stroke="black" points="339.5,-333.72 343.5,-333.72 343.5,-329.72 339.5,-329.72 "/>
<text text-anchor="middle" x="454.5" y="-340.02" font-family="Times,serif" font-size="14.00">WALL_VELOCITY_NO_GRADH</text>
</a>
</g>
</g>
<!-- CALL_8be0700&#45;&gt;CALL_8be2e00 -->
<g id="edge12" class="edge">
<title>CALL_8be0700&#45;&gt;CALL_8be2e00</title>
<path fill="none" stroke="black" d="M471.06,-397.42C468.61,-389.62 465.66,-380.23 462.93,-371.55"/>
<polygon fill="black" stroke="black" points="466.21,-370.31 459.88,-361.82 459.54,-372.41 466.21,-370.31"/>
</g>
<!-- CALL_8be2e00&#45;&gt;endIf_IF_8be3280 -->
<g id="edge14" class="edge">
<title>CALL_8be2e00&#45;&gt;endIf_IF_8be3280</title>
<path fill="none" stroke="black" d="M418.12,-325.66C386.12,-310.65 344.21,-290.99 341.63,-289.78"/>
</g>
<!-- COMMENT_8bf3c00+1 -->
<g id="node17" class="node">
<title>COMMENT_8bf3c00+1</title>
<polygon fill="none" stroke="black" points="677,-181 0,-181 0,-145 683,-145 683,-175 677,-181"/>
<polyline fill="none" stroke="black" points="677,-181 677,-175 "/>
<polyline fill="none" stroke="black" points="683,-175 677,-175 "/>
<text text-anchor="middle" x="341.5" y="-159.3" font-family="Times,serif" font-size="14.00">Check the stability criteria, and if the time step is too small, send back a signal to kill the job</text>
</g>
<!-- COMMENT_8be3020+1&#45;&gt;COMMENT_8bf3c00+1 -->
<g id="edge17" class="edge">
<title>COMMENT_8be3020+1&#45;&gt;COMMENT_8bf3c00+1</title>
<path fill="none" stroke="black" d="M341.5,-216.7C341.5,-208.98 341.5,-199.71 341.5,-191.11"/>
<polygon fill="black" stroke="black" points="345,-191.1 341.5,-181.1 338,-191.1 345,-191.1"/>
</g>
<!-- CALL_8bf3c00 -->
<g id="node18" class="node">
<title>CALL_8bf3c00</title>
<g id="a_node18"><a xlink:href="CHECK_STABILITY.svg" xlink:title="CHECK_STABILITY">
<polygon fill="lightgray" stroke="black" points="418,-109 265,-109 265,-105 261,-105 261,-101 265,-101 265,-81 261,-81 261,-77 265,-77 265,-73 418,-73 418,-109"/>
<polyline fill="none" stroke="black" points="265,-105 269,-105 269,-101 265,-101 "/>
<polyline fill="none" stroke="black" points="265,-81 269,-81 269,-77 265,-77 "/>
<text text-anchor="middle" x="341.5" y="-87.3" font-family="Times,serif" font-size="14.00">CHECK_STABILITY</text>
</a>
</g>
</g>
<!-- COMMENT_8bf3c00+1&#45;&gt;CALL_8bf3c00 -->
<g id="edge18" class="edge">
<title>COMMENT_8bf3c00+1&#45;&gt;CALL_8bf3c00</title>
<path fill="none" stroke="black" d="M341.5,-144.7C341.5,-136.98 341.5,-127.71 341.5,-119.11"/>
<polygon fill="black" stroke="black" points="345,-119.1 341.5,-109.1 338,-119.1 345,-119.1"/>
</g>
<!-- end_SUBPROGRAM_8b29040 -->
<g id="node19" class="node">
<title>end_SUBPROGRAM_8b29040</title>
<ellipse fill="black" stroke="black" cx="341.5" cy="-30" rx="7" ry="7"/>
</g>
<!-- CALL_8bf3c00&#45;&gt;end_SUBPROGRAM_8b29040 -->
<g id="edge19" class="edge">
<title>CALL_8bf3c00&#45;&gt;end_SUBPROGRAM_8b29040</title>
<path fill="none" stroke="black" d="M341.5,-72.93C341.5,-64.89 341.5,-55.33 341.5,-47.37"/>
<polygon fill="black" stroke="black" points="345,-47.22 341.5,-37.22 338,-47.22 345,-47.22"/>
</g>
</g>
</svg>
