<?xml version="1.0" encoding="UTF-8" standalone="no"?>
<!DOCTYPE svg PUBLIC "-//W3C//DTD SVG 1.1//EN"
 "http://www.w3.org/Graphics/SVG/1.1/DTD/svg11.dtd">
<!-- Generated by graphviz version 2.43.0 (0)
 -->
<!-- Title: VELOCITY_BC Pages: 1 -->
<svg width="1056pt" height="3394pt"
 viewBox="0.00 0.00 1056.00 3393.64" xmlns="http://www.w3.org/2000/svg" xmlns:xlink="http://www.w3.org/1999/xlink">
<g id="graph0" class="graph" transform="scale(1 1) rotate(0) translate(4 3389.64)">
<title>VELOCITY_BC</title>
<polygon fill="white" stroke="transparent" points="-4,4 -4,-3389.64 1052,-3389.64 1052,4 -4,4"/>
<text text-anchor="middle" x="524" y="-7.8" font-family="Times,serif" font-size="14.00">VELOCITY_BC</text>
<g id="clust1" class="cluster">
<title>cluster_EDGE_LOOP</title>
<polygon fill="none" stroke="orange" points="8,-137 8,-2971.64 1040,-2971.64 1040,-137 8,-137"/>
<text text-anchor="middle" x="62" y="-2956.44" font-family="Times,serif" font-size="14.00">EDGE_LOOP</text>
</g>
<g id="clust2" class="cluster">
<title>cluster_SIGN_LOOP</title>
<polygon fill="none" stroke="orange" points="16,-538.16 16,-2571.92 1032,-2571.92 1032,-538.16 16,-538.16"/>
<text text-anchor="middle" x="67.5" y="-2556.72" font-family="Times,serif" font-size="14.00">SIGN_LOOP</text>
</g>
<g id="clust3" class="cluster">
<title>cluster_ORIENTATION_LOOP</title>
<polygon fill="none" stroke="orange" points="24,-574.88 24,-2532.2 1024,-2532.2 1024,-574.88 24,-574.88"/>
<text text-anchor="middle" x="108.5" y="-2517" font-family="Times,serif" font-size="14.00">ORIENTATION_LOOP</text>
</g>
<g id="clust4" class="cluster">
<title>cluster_OPEN_AND_WIND_BC</title>
<polygon fill="none" stroke="blue" points="372,-1445.04 372,-1668.48 740,-1668.48 740,-1445.04 372,-1445.04"/>
<text text-anchor="middle" x="460.5" y="-1653.28" font-family="Times,serif" font-size="14.00">OPEN_AND_WIND_BC</text>
</g>
<g id="clust5" class="cluster">
<title>cluster_cond8d709c0</title>
<polygon fill="none" stroke="black" points="380,-1481.76 380,-1628.76 732,-1628.76 732,-1481.76 380,-1481.76"/>
<text text-anchor="middle" x="436" y="-1613.56" font-family="Times,serif" font-size="14.00">cond8d709c0</text>
</g>
<g id="clust6" class="cluster">
<title>cluster_INTERPOLATION_IF</title>
<polygon fill="none" stroke="blue" points="32,-683.6 32,-1301.04 1016,-1301.04 1016,-683.6 32,-683.6"/>
<text text-anchor="middle" x="113" y="-1285.84" font-family="Times,serif" font-size="14.00">INTERPOLATION_IF</text>
</g>
<g id="clust7" class="cluster">
<title>cluster_cond8decda0</title>
<polygon fill="none" stroke="black" points="40,-720.32 40,-1261.32 818,-1261.32 818,-720.32 40,-720.32"/>
<text text-anchor="middle" x="95" y="-1246.12" font-family="Times,serif" font-size="14.00">cond8decda0</text>
</g>
<g id="clust8" class="cluster">
<title>cluster_cond8f2c240</title>
<polygon fill="none" stroke="black" points="826,-1177.82 826,-1252.82 1008,-1252.82 1008,-1177.82 826,-1177.82"/>
<text text-anchor="middle" x="880" y="-1237.62" font-family="Times,serif" font-size="14.00">cond8f2c240</text>
</g>
<g id="clust9" class="cluster">
<title>cluster_SIGN_LOOP_2</title>
<polygon fill="none" stroke="orange" points="549,-173.72 549,-322.16 749,-322.16 749,-173.72 549,-173.72"/>
<text text-anchor="middle" x="608.5" y="-306.96" font-family="Times,serif" font-size="14.00">SIGN_LOOP_2</text>
</g>
<!-- start_SUBPROGRAM_8f61b40 -->
<g id="node1" class="node">
<title>start_SUBPROGRAM_8f61b40</title>
<ellipse fill="none" stroke="black" cx="556" cy="-3378.64" rx="7" ry="7"/>
</g>
<!-- COMMENT_8b41b40+1 -->
<g id="node2" class="node">
<title>COMMENT_8b41b40+1</title>
<polygon fill="none" stroke="black" points="957,-3335.64 149,-3335.64 149,-3267.64 963,-3267.64 963,-3329.64 957,-3335.64"/>
<polyline fill="none" stroke="black" points="957,-3335.64 957,-3329.64 "/>
<polyline fill="none" stroke="black" points="963,-3329.64 957,-3329.64 "/>
<text text-anchor="middle" x="556" y="-3320.44" font-family="Times,serif" font-size="14.00">!&gt; brief Assert tangential velocity boundary conditions</text>
<text text-anchor="middle" x="556" y="-3305.44" font-family="Times,serif" font-size="14.00">!&gt; param T Current time (s)</text>
<text text-anchor="middle" x="556" y="-3290.44" font-family="Times,serif" font-size="14.00">!&gt; param NM Mesh number</text>
<text text-anchor="middle" x="556" y="-3275.44" font-family="Times,serif" font-size="14.00">!&gt; param APPLY_TO_ESTIMATED_VARIABLES Flag indicating that estimated (starred) variables are to be used</text>
</g>
<!-- start_SUBPROGRAM_8f61b40&#45;&gt;COMMENT_8b41b40+1 -->
<g id="edge1" class="edge">
<title>start_SUBPROGRAM_8f61b40&#45;&gt;COMMENT_8b41b40+1</title>
<path fill="none" stroke="black" d="M556,-3371.5C556,-3365.57 556,-3356.02 556,-3345.9"/>
<polygon fill="black" stroke="black" points="559.5,-3345.69 556,-3335.69 552.5,-3345.69 559.5,-3345.69"/>
</g>
<!-- COMMENT_8b57420+1 -->
<g id="node3" class="node">
<title>COMMENT_8b57420+1</title>
<polygon fill="none" stroke="black" points="670.5,-3231.64 435.5,-3231.64 435.5,-3195.64 676.5,-3195.64 676.5,-3225.64 670.5,-3231.64"/>
<polyline fill="none" stroke="black" points="670.5,-3231.64 670.5,-3225.64 "/>
<polyline fill="none" stroke="black" points="676.5,-3225.64 670.5,-3225.64 "/>
<text text-anchor="middle" x="556" y="-3209.94" font-family="Times,serif" font-size="14.00">Assign local names to variables</text>
</g>
<!-- COMMENT_8b41b40+1&#45;&gt;COMMENT_8b57420+1 -->
<g id="edge2" class="edge">
<title>COMMENT_8b41b40+1&#45;&gt;COMMENT_8b57420+1</title>
<path fill="none" stroke="black" d="M556,-3267.64C556,-3259.2 556,-3250.23 556,-3242.11"/>
<polygon fill="black" stroke="black" points="559.5,-3242.04 556,-3232.04 552.5,-3242.04 559.5,-3242.04"/>
</g>
<!-- CALL_8b57420 -->
<g id="node4" class="node">
<title>CALL_8b57420</title>
<g id="a_node4"><a xlink:href="POINT_TO_MESH.svg" xlink:title="POINT_TO_MESH">
<polygon fill="lightgray" stroke="black" points="628,-3159.64 484,-3159.64 484,-3155.64 480,-3155.64 480,-3151.64 484,-3151.64 484,-3131.64 480,-3131.64 480,-3127.64 484,-3127.64 484,-3123.64 628,-3123.64 628,-3159.64"/>
<polyline fill="none" stroke="black" points="484,-3155.64 488,-3155.64 488,-3151.64 484,-3151.64 "/>
<polyline fill="none" stroke="black" points="484,-3131.64 488,-3131.64 488,-3127.64 484,-3127.64 "/>
<text text-anchor="middle" x="556" y="-3137.94" font-family="Times,serif" font-size="14.00">POINT_TO_MESH</text>
</a>
</g>
</g>
<!-- COMMENT_8b57420+1&#45;&gt;CALL_8b57420 -->
<g id="edge3" class="edge">
<title>COMMENT_8b57420+1&#45;&gt;CALL_8b57420</title>
<path fill="none" stroke="black" d="M556,-3195.34C556,-3187.62 556,-3178.35 556,-3169.75"/>
<polygon fill="black" stroke="black" points="559.5,-3169.74 556,-3159.74 552.5,-3169.74 559.5,-3169.74"/>
</g>
<!-- COMMENT_8b513c0+1 -->
<g id="node5" class="node">
<title>COMMENT_8b513c0+1</title>
<polygon fill="none" stroke="black" points="692,-3087.64 414,-3087.64 414,-3051.64 698,-3051.64 698,-3081.64 692,-3087.64"/>
<polyline fill="none" stroke="black" points="692,-3087.64 692,-3081.64 "/>
<polyline fill="none" stroke="black" points="698,-3081.64 692,-3081.64 "/>
<text text-anchor="middle" x="556" y="-3065.94" font-family="Times,serif" font-size="14.00">Point to the appropriate velocity field</text>
</g>
<!-- CALL_8b57420&#45;&gt;COMMENT_8b513c0+1 -->
<g id="edge4" class="edge">
<title>CALL_8b57420&#45;&gt;COMMENT_8b513c0+1</title>
<path fill="none" stroke="black" d="M556,-3123.34C556,-3115.62 556,-3106.35 556,-3097.75"/>
<polygon fill="black" stroke="black" points="559.5,-3097.74 556,-3087.74 552.5,-3097.74 559.5,-3097.74"/>
</g>
<!-- COMMENT_8b5b3c0+1 -->
<g id="node6" class="node">
<title>COMMENT_8b5b3c0+1</title>
<polygon fill="none" stroke="black" points="801.5,-3015.64 304.5,-3015.64 304.5,-2979.64 807.5,-2979.64 807.5,-3009.64 801.5,-3015.64"/>
<polyline fill="none" stroke="black" points="801.5,-3015.64 801.5,-3009.64 "/>
<polyline fill="none" stroke="black" points="807.5,-3009.64 801.5,-3009.64 "/>
<text text-anchor="middle" x="556" y="-2993.94" font-family="Times,serif" font-size="14.00">Loop over all cell edges and determine the appropriate velocity BCs</text>
</g>
<!-- COMMENT_8b513c0+1&#45;&gt;COMMENT_8b5b3c0+1 -->
<g id="edge5" class="edge">
<title>COMMENT_8b513c0+1&#45;&gt;COMMENT_8b5b3c0+1</title>
<path fill="none" stroke="black" d="M556,-3051.34C556,-3043.62 556,-3034.35 556,-3025.75"/>
<polygon fill="black" stroke="black" points="559.5,-3025.74 556,-3015.74 552.5,-3025.74 559.5,-3025.74"/>
</g>
<!-- beginDO_DO_8f5f040 -->
<g id="node7" class="node">
<title>beginDO_DO_8f5f040</title>
<ellipse fill="black" stroke="black" cx="556" cy="-2940.28" rx="0.36" ry="0.36"/>
</g>
<!-- COMMENT_8b5b3c0+1&#45;&gt;beginDO_DO_8f5f040 -->
<g id="edge50" class="edge">
<title>COMMENT_8b5b3c0+1&#45;&gt;beginDO_DO_8f5f040</title>
<path fill="none" stroke="black" d="M556,-2979.43C556,-2963.68 556,-2942.64 556,-2941.34"/>
</g>
<!-- COMMENT_8b5ea00+1 -->
<g id="node9" class="node">
<title>COMMENT_8b5ea00+1</title>
<polygon fill="none" stroke="black" points="887.5,-2903.92 218.5,-2903.92 218.5,-2867.92 893.5,-2867.92 893.5,-2897.92 887.5,-2903.92"/>
<polyline fill="none" stroke="black" points="887.5,-2903.92 887.5,-2897.92 "/>
<polyline fill="none" stroke="black" points="893.5,-2897.92 887.5,-2897.92 "/>
<text text-anchor="middle" x="556" y="-2882.22" font-family="Times,serif" font-size="14.00">Throw out edges that are completely surrounded by blockages or the exterior of the domain</text>
</g>
<!-- beginDO_DO_8f5f040&#45;&gt;COMMENT_8b5ea00+1 -->
<g id="edge6" class="edge">
<title>beginDO_DO_8f5f040&#45;&gt;COMMENT_8b5ea00+1</title>
<path fill="none" stroke="black" d="M556,-2939.77C556,-2938.29 556,-2926.24 556,-2914.02"/>
<polygon fill="black" stroke="black" points="559.5,-2913.94 556,-2903.94 552.5,-2913.94 559.5,-2913.94"/>
</g>
<!-- endDO_DO_8f5f040 -->
<g id="node8" class="node">
<title>endDO_DO_8f5f040</title>
<ellipse fill="black" stroke="black" cx="649" cy="-145.36" rx="0.36" ry="0.36"/>
</g>
<!-- CALL_8f61a60 -->
<g id="node52" class="node">
<title>CALL_8f61a60</title>
<g id="a_node52"><a xlink:href="CC_VELOCITY_BC.svg" xlink:title="CC_VELOCITY_BC">
<polygon fill="lightgray" stroke="black" points="722,-109 576,-109 576,-105 572,-105 572,-101 576,-101 576,-81 572,-81 572,-77 576,-77 576,-73 722,-73 722,-109"/>
<polyline fill="none" stroke="black" points="576,-105 580,-105 580,-101 576,-101 "/>
<polyline fill="none" stroke="black" points="576,-81 580,-81 580,-77 576,-77 "/>
<text text-anchor="middle" x="649" y="-87.3" font-family="Times,serif" font-size="14.00">CC_VELOCITY_BC</text>
</a>
</g>
</g>
<!-- endDO_DO_8f5f040&#45;&gt;CALL_8f61a60 -->
<g id="edge52" class="edge">
<title>endDO_DO_8f5f040&#45;&gt;CALL_8f61a60</title>
<path fill="none" stroke="black" d="M649,-144.21C649,-142.77 649,-131.23 649,-119.36"/>
<polygon fill="black" stroke="black" points="652.5,-119.1 649,-109.1 645.5,-119.1 652.5,-119.1"/>
</g>
<!-- COMMENT_8b64720+1 -->
<g id="node10" class="node">
<title>COMMENT_8b64720+1</title>
<polygon fill="none" stroke="black" points="658.5,-2831.92 447.5,-2831.92 447.5,-2795.92 664.5,-2795.92 664.5,-2825.92 658.5,-2831.92"/>
<polyline fill="none" stroke="black" points="658.5,-2831.92 658.5,-2825.92 "/>
<polyline fill="none" stroke="black" points="664.5,-2825.92 658.5,-2825.92 "/>
<text text-anchor="middle" x="556" y="-2810.22" font-family="Times,serif" font-size="14.00">Unpack indices for the edge</text>
</g>
<!-- COMMENT_8b5ea00+1&#45;&gt;COMMENT_8b64720+1 -->
<g id="edge7" class="edge">
<title>COMMENT_8b5ea00+1&#45;&gt;COMMENT_8b64720+1</title>
<path fill="none" stroke="black" d="M556,-2867.62C556,-2859.9 556,-2850.63 556,-2842.03"/>
<polygon fill="black" stroke="black" points="559.5,-2842.02 556,-2832.02 552.5,-2842.02 559.5,-2842.02"/>
</g>
<!-- COMMENT_8b6a360+1 -->
<g id="node11" class="node">
<title>COMMENT_8b6a360+1</title>
<polygon fill="none" stroke="black" points="763,-2759.92 343,-2759.92 343,-2723.92 769,-2723.92 769,-2753.92 763,-2759.92"/>
<polyline fill="none" stroke="black" points="763,-2759.92 763,-2753.92 "/>
<polyline fill="none" stroke="black" points="769,-2753.92 763,-2753.92 "/>
<text text-anchor="middle" x="556" y="-2738.22" font-family="Times,serif" font-size="14.00">Get the velocity components at the appropriate cell faces</text>
</g>
<!-- COMMENT_8b64720+1&#45;&gt;COMMENT_8b6a360+1 -->
<g id="edge8" class="edge">
<title>COMMENT_8b64720+1&#45;&gt;COMMENT_8b6a360+1</title>
<path fill="none" stroke="black" d="M556,-2795.62C556,-2787.9 556,-2778.63 556,-2770.03"/>
<polygon fill="black" stroke="black" points="559.5,-2770.02 556,-2760.02 552.5,-2770.02 559.5,-2770.02"/>
</g>
<!-- COMMENT_8b86ca0+1 -->
<g id="node12" class="node">
<title>COMMENT_8b86ca0+1</title>
<polygon fill="none" stroke="black" points="899.5,-2687.92 206.5,-2687.92 206.5,-2651.92 905.5,-2651.92 905.5,-2681.92 899.5,-2687.92"/>
<polyline fill="none" stroke="black" points="899.5,-2687.92 899.5,-2681.92 "/>
<polyline fill="none" stroke="black" points="905.5,-2681.92 899.5,-2681.92 "/>
<text text-anchor="middle" x="556" y="-2666.22" font-family="Times,serif" font-size="14.00">Indicate that the velocity gradients in the two orthogonal directions have not been changed yet</text>
</g>
<!-- COMMENT_8b6a360+1&#45;&gt;COMMENT_8b86ca0+1 -->
<g id="edge9" class="edge">
<title>COMMENT_8b6a360+1&#45;&gt;COMMENT_8b86ca0+1</title>
<path fill="none" stroke="black" d="M556,-2723.62C556,-2715.9 556,-2706.63 556,-2698.03"/>
<polygon fill="black" stroke="black" points="559.5,-2698.02 556,-2688.02 552.5,-2698.02 559.5,-2698.02"/>
</g>
<!-- COMMENT_8b8bc00+1 -->
<g id="node13" class="node">
<title>COMMENT_8b8bc00+1</title>
<polygon fill="none" stroke="black" points="875.5,-2615.92 230.5,-2615.92 230.5,-2579.92 881.5,-2579.92 881.5,-2609.92 875.5,-2615.92"/>
<polyline fill="none" stroke="black" points="875.5,-2615.92 875.5,-2609.92 "/>
<polyline fill="none" stroke="black" points="881.5,-2609.92 875.5,-2609.92 "/>
<text text-anchor="middle" x="556" y="-2594.22" font-family="Times,serif" font-size="14.00">Loop over all possible orientations of edge and reassign velocity gradients if appropriate</text>
</g>
<!-- COMMENT_8b86ca0+1&#45;&gt;COMMENT_8b8bc00+1 -->
<g id="edge10" class="edge">
<title>COMMENT_8b86ca0+1&#45;&gt;COMMENT_8b8bc00+1</title>
<path fill="none" stroke="black" d="M556,-2651.62C556,-2643.9 556,-2634.63 556,-2626.03"/>
<polygon fill="black" stroke="black" points="559.5,-2626.02 556,-2616.02 552.5,-2626.02 559.5,-2626.02"/>
</g>
<!-- beginDO_DO_8f47ba0 -->
<g id="node14" class="node">
<title>beginDO_DO_8f47ba0</title>
<ellipse fill="black" stroke="black" cx="556" cy="-2540.56" rx="0.36" ry="0.36"/>
</g>
<!-- COMMENT_8b8bc00+1&#45;&gt;beginDO_DO_8f47ba0 -->
<g id="edge42" class="edge">
<title>COMMENT_8b8bc00+1&#45;&gt;beginDO_DO_8f47ba0</title>
<path fill="none" stroke="black" d="M556,-2579.71C556,-2563.96 556,-2542.92 556,-2541.62"/>
</g>
<!-- beginDO_DO_8f47960 -->
<g id="node16" class="node">
<title>beginDO_DO_8f47960</title>
<ellipse fill="black" stroke="black" cx="556" cy="-2500.84" rx="0.36" ry="0.36"/>
</g>
<!-- beginDO_DO_8f47ba0&#45;&gt;beginDO_DO_8f47960 -->
<g id="edge40" class="edge">
<title>beginDO_DO_8f47ba0&#45;&gt;beginDO_DO_8f47960</title>
<path fill="none" stroke="black" d="M556,-2540.09C556,-2537.91 556,-2504.06 556,-2501.94"/>
</g>
<!-- endDO_DO_8f47ba0 -->
<g id="node15" class="node">
<title>endDO_DO_8f47ba0</title>
<ellipse fill="black" stroke="black" cx="649" cy="-546.52" rx="0.36" ry="0.36"/>
</g>
<!-- COMMENT_8f47a60+1 -->
<g id="node46" class="node">
<title>COMMENT_8f47a60+1</title>
<polygon fill="none" stroke="black" points="917,-510.16 375,-510.16 375,-474.16 923,-474.16 923,-504.16 917,-510.16"/>
<polyline fill="none" stroke="black" points="917,-510.16 917,-504.16 "/>
<polyline fill="none" stroke="black" points="923,-504.16 917,-504.16 "/>
<text text-anchor="middle" x="649" y="-488.46" font-family="Times,serif" font-size="14.00">Cycle out of the EDGE_LOOP if no tangential gradients have been altered.</text>
</g>
<!-- endDO_DO_8f47ba0&#45;&gt;COMMENT_8f47a60+1 -->
<g id="edge44" class="edge">
<title>endDO_DO_8f47ba0&#45;&gt;COMMENT_8f47a60+1</title>
<path fill="none" stroke="black" d="M649,-545.37C649,-543.93 649,-532.39 649,-520.52"/>
<polygon fill="black" stroke="black" points="652.5,-520.26 649,-510.26 645.5,-520.26 652.5,-520.26"/>
</g>
<!-- COMMENT_8b88a20+1 -->
<g id="node18" class="node">
<title>COMMENT_8b88a20+1</title>
<polygon fill="none" stroke="black" points="769,-2464.48 337,-2464.48 337,-2428.48 775,-2428.48 775,-2458.48 769,-2464.48"/>
<polyline fill="none" stroke="black" points="769,-2464.48 769,-2458.48 "/>
<polyline fill="none" stroke="black" points="775,-2458.48 769,-2458.48 "/>
<text text-anchor="middle" x="556" y="-2442.78" font-family="Times,serif" font-size="14.00">IOR is the orientation of the wall cells adjacent to the edge</text>
</g>
<!-- beginDO_DO_8f47960&#45;&gt;COMMENT_8b88a20+1 -->
<g id="edge11" class="edge">
<title>beginDO_DO_8f47960&#45;&gt;COMMENT_8b88a20+1</title>
<path fill="none" stroke="black" d="M556,-2500.33C556,-2498.85 556,-2486.8 556,-2474.58"/>
<polygon fill="black" stroke="black" points="559.5,-2474.5 556,-2464.5 552.5,-2474.5 559.5,-2474.5"/>
</g>
<!-- endDO_DO_8f47960 -->
<g id="node17" class="node">
<title>endDO_DO_8f47960</title>
<ellipse fill="black" stroke="black" cx="649" cy="-583.24" rx="0.36" ry="0.36"/>
</g>
<!-- endDO_DO_8f47960&#45;&gt;endDO_DO_8f47ba0 -->
<g id="edge43" class="edge">
<title>endDO_DO_8f47960&#45;&gt;endDO_DO_8f47ba0</title>
<path fill="none" stroke="black" d="M649,-582.14C649,-580.13 649,-548.92 649,-546.98"/>
</g>
<!-- COMMENT_8b8e0c0+1 -->
<g id="node19" class="node">
<title>COMMENT_8b8e0c0+1</title>
<polygon fill="none" stroke="black" points="735.5,-2392.48 370.5,-2392.48 370.5,-2356.48 741.5,-2356.48 741.5,-2386.48 735.5,-2392.48"/>
<polyline fill="none" stroke="black" points="735.5,-2392.48 735.5,-2386.48 "/>
<polyline fill="none" stroke="black" points="741.5,-2386.48 735.5,-2386.48 "/>
<text text-anchor="middle" x="556" y="-2370.78" font-family="Times,serif" font-size="14.00">IS2 is the other coordinate direction besides IOR.</text>
</g>
<!-- COMMENT_8b88a20+1&#45;&gt;COMMENT_8b8e0c0+1 -->
<g id="edge12" class="edge">
<title>COMMENT_8b88a20+1&#45;&gt;COMMENT_8b8e0c0+1</title>
<path fill="none" stroke="black" d="M556,-2428.18C556,-2420.46 556,-2411.19 556,-2402.59"/>
<polygon fill="black" stroke="black" points="559.5,-2402.58 556,-2392.58 552.5,-2402.58 559.5,-2402.58"/>
</g>
<!-- COMMENT_8b93000+1 -->
<g id="node20" class="node">
<title>COMMENT_8b93000+1</title>
<polygon fill="none" stroke="black" points="755,-2320.48 351,-2320.48 351,-2252.48 761,-2252.48 761,-2314.48 755,-2320.48"/>
<polyline fill="none" stroke="black" points="755,-2320.48 755,-2314.48 "/>
<polyline fill="none" stroke="black" points="761,-2314.48 755,-2314.48 "/>
<text text-anchor="middle" x="556" y="-2305.28" font-family="Times,serif" font-size="14.00">Determine Index_Coordinate_Direction</text>
<text text-anchor="middle" x="556" y="-2290.28" font-family="Times,serif" font-size="14.00">IEC=1, ICD=1 refers to DWDY; ICD=2 refers to DVDZ</text>
<text text-anchor="middle" x="556" y="-2275.28" font-family="Times,serif" font-size="14.00">IEC=2, ICD=1 refers to DUDZ; ICD=2 refers to DWDX</text>
<text text-anchor="middle" x="556" y="-2260.28" font-family="Times,serif" font-size="14.00">IEC=3, ICD=1 refers to DVDX; ICD=2 refers to DUDY</text>
</g>
<!-- COMMENT_8b8e0c0+1&#45;&gt;COMMENT_8b93000+1 -->
<g id="edge13" class="edge">
<title>COMMENT_8b8e0c0+1&#45;&gt;COMMENT_8b93000+1</title>
<path fill="none" stroke="black" d="M556,-2356.08C556,-2348.66 556,-2339.64 556,-2330.62"/>
<polygon fill="black" stroke="black" points="559.5,-2330.51 556,-2320.51 552.5,-2330.51 559.5,-2330.51"/>
</g>
<!-- COMMENT_8b94b60+1 -->
<g id="node21" class="node">
<title>COMMENT_8b94b60+1</title>
<polygon fill="none" stroke="black" points="849,-2216.48 257,-2216.48 257,-2180.48 855,-2180.48 855,-2210.48 849,-2216.48"/>
<polyline fill="none" stroke="black" points="849,-2216.48 849,-2210.48 "/>
<polyline fill="none" stroke="black" points="855,-2210.48 849,-2210.48 "/>
<text text-anchor="middle" x="556" y="-2194.78" font-family="Times,serif" font-size="14.00">IWM and IWP are the wall cell indices of the boundary on either side of the edge.</text>
</g>
<!-- COMMENT_8b93000+1&#45;&gt;COMMENT_8b94b60+1 -->
<g id="edge14" class="edge">
<title>COMMENT_8b93000+1&#45;&gt;COMMENT_8b94b60+1</title>
<path fill="none" stroke="black" d="M556,-2252.48C556,-2244.04 556,-2235.07 556,-2226.95"/>
<polygon fill="black" stroke="black" points="559.5,-2226.88 556,-2216.88 552.5,-2226.88 559.5,-2226.88"/>
</g>
<!-- COMMENT_8b97e60+1 -->
<g id="node22" class="node">
<title>COMMENT_8b97e60+1</title>
<polygon fill="none" stroke="black" points="780,-2144.48 326,-2144.48 326,-2108.48 786,-2108.48 786,-2138.48 780,-2144.48"/>
<polyline fill="none" stroke="black" points="780,-2144.48 780,-2138.48 "/>
<polyline fill="none" stroke="black" points="786,-2138.48 780,-2138.48 "/>
<text text-anchor="middle" x="556" y="-2122.78" font-family="Times,serif" font-size="14.00">If both adjacent wall cells are undefined, cycle out of the loop.</text>
</g>
<!-- COMMENT_8b94b60+1&#45;&gt;COMMENT_8b97e60+1 -->
<g id="edge15" class="edge">
<title>COMMENT_8b94b60+1&#45;&gt;COMMENT_8b97e60+1</title>
<path fill="none" stroke="black" d="M556,-2180.18C556,-2172.46 556,-2163.19 556,-2154.59"/>
<polygon fill="black" stroke="black" points="559.5,-2154.58 556,-2144.58 552.5,-2154.58 559.5,-2154.58"/>
</g>
<!-- COMMENT_8ba1c20+1 -->
<g id="node23" class="node">
<title>COMMENT_8ba1c20+1</title>
<polygon fill="none" stroke="black" points="852,-2072.48 254,-2072.48 254,-2036.48 858,-2036.48 858,-2066.48 852,-2072.48"/>
<polyline fill="none" stroke="black" points="852,-2072.48 852,-2066.48 "/>
<polyline fill="none" stroke="black" points="858,-2066.48 852,-2066.48 "/>
<text text-anchor="middle" x="556" y="-2050.78" font-family="Times,serif" font-size="14.00">If there is a solid wall separating the two adjacent wall cells, cycle out of the loop.</text>
</g>
<!-- COMMENT_8b97e60+1&#45;&gt;COMMENT_8ba1c20+1 -->
<g id="edge16" class="edge">
<title>COMMENT_8b97e60+1&#45;&gt;COMMENT_8ba1c20+1</title>
<path fill="none" stroke="black" d="M556,-2108.18C556,-2100.46 556,-2091.19 556,-2082.59"/>
<polygon fill="black" stroke="black" points="559.5,-2082.58 556,-2072.58 552.5,-2082.58 559.5,-2082.58"/>
</g>
<!-- COMMENT_8b75c00+1 -->
<g id="node24" class="node">
<title>COMMENT_8b75c00+1</title>
<polygon fill="none" stroke="black" points="766.5,-2000.48 339.5,-2000.48 339.5,-1964.48 772.5,-1964.48 772.5,-1994.48 766.5,-2000.48"/>
<polyline fill="none" stroke="black" points="766.5,-2000.48 766.5,-1994.48 "/>
<polyline fill="none" stroke="black" points="772.5,-1994.48 766.5,-1994.48 "/>
<text text-anchor="middle" x="556" y="-1978.78" font-family="Times,serif" font-size="14.00">If only one adjacent wall cell is defined, use its properties.</text>
</g>
<!-- COMMENT_8ba1c20+1&#45;&gt;COMMENT_8b75c00+1 -->
<g id="edge17" class="edge">
<title>COMMENT_8ba1c20+1&#45;&gt;COMMENT_8b75c00+1</title>
<path fill="none" stroke="black" d="M556,-2036.18C556,-2028.46 556,-2019.19 556,-2010.59"/>
<polygon fill="black" stroke="black" points="559.5,-2010.58 556,-2000.58 552.5,-2010.58 559.5,-2010.58"/>
</g>
<!-- COMMENT_8b99060+1 -->
<g id="node25" class="node">
<title>COMMENT_8b99060+1</title>
<polygon fill="none" stroke="black" points="725.5,-1928.48 380.5,-1928.48 380.5,-1892.48 731.5,-1892.48 731.5,-1922.48 725.5,-1928.48"/>
<polyline fill="none" stroke="black" points="725.5,-1928.48 725.5,-1922.48 "/>
<polyline fill="none" stroke="black" points="731.5,-1922.48 725.5,-1922.48 "/>
<text text-anchor="middle" x="556" y="-1906.78" font-family="Times,serif" font-size="14.00">If both adjacent wall cells are NULL, cycle out.</text>
</g>
<!-- COMMENT_8b75c00+1&#45;&gt;COMMENT_8b99060+1 -->
<g id="edge18" class="edge">
<title>COMMENT_8b75c00+1&#45;&gt;COMMENT_8b99060+1</title>
<path fill="none" stroke="black" d="M556,-1964.18C556,-1956.46 556,-1947.19 556,-1938.59"/>
<polygon fill="black" stroke="black" points="559.5,-1938.58 556,-1928.58 552.5,-1938.58 559.5,-1938.58"/>
</g>
<!-- COMMENT_8bab140+1 -->
<g id="node26" class="node">
<title>COMMENT_8bab140+1</title>
<polygon fill="none" stroke="black" points="665.5,-1856.48 440.5,-1856.48 440.5,-1820.48 671.5,-1820.48 671.5,-1850.48 665.5,-1856.48"/>
<polyline fill="none" stroke="black" points="665.5,-1856.48 665.5,-1850.48 "/>
<polyline fill="none" stroke="black" points="671.5,-1850.48 665.5,-1850.48 "/>
<text text-anchor="middle" x="556" y="-1834.78" font-family="Times,serif" font-size="14.00">Set up synthetic eddy method</text>
</g>
<!-- COMMENT_8b99060+1&#45;&gt;COMMENT_8bab140+1 -->
<g id="edge19" class="edge">
<title>COMMENT_8b99060+1&#45;&gt;COMMENT_8bab140+1</title>
<path fill="none" stroke="black" d="M556,-1892.18C556,-1884.46 556,-1875.19 556,-1866.59"/>
<polygon fill="black" stroke="black" points="559.5,-1866.58 556,-1856.58 552.5,-1866.58 559.5,-1866.58"/>
</g>
<!-- IF_8be1240 -->
<g id="node27" class="node">
<title>IF_8be1240</title>
<polygon fill="none" stroke="blue" points="651,-1784.48 461,-1784.48 461,-1748.48 651,-1748.48 651,-1784.48"/>
<text text-anchor="middle" x="556" y="-1762.78" font-family="Times,serif" font-size="14.00">SYNTHETIC_EDDY_IF_1</text>
</g>
<!-- COMMENT_8bab140+1&#45;&gt;IF_8be1240 -->
<g id="edge20" class="edge">
<title>COMMENT_8bab140+1&#45;&gt;IF_8be1240</title>
<path fill="none" stroke="black" d="M556,-1820.18C556,-1812.46 556,-1803.19 556,-1794.59"/>
<polygon fill="black" stroke="black" points="559.5,-1794.58 556,-1784.58 552.5,-1794.58 559.5,-1794.58"/>
</g>
<!-- COMMENT_8be0ea0+1 -->
<g id="node28" class="node">
<title>COMMENT_8be0ea0+1</title>
<polygon fill="none" stroke="black" points="800,-1712.48 306,-1712.48 306,-1676.48 806,-1676.48 806,-1706.48 800,-1712.48"/>
<polyline fill="none" stroke="black" points="800,-1712.48 800,-1706.48 "/>
<polyline fill="none" stroke="black" points="806,-1706.48 800,-1706.48 "/>
<text text-anchor="middle" x="556" y="-1690.78" font-family="Times,serif" font-size="14.00">OPEN boundary conditions, both varieties, with and without a wind</text>
</g>
<!-- IF_8be1240&#45;&gt;COMMENT_8be0ea0+1 -->
<g id="edge21" class="edge">
<title>IF_8be1240&#45;&gt;COMMENT_8be0ea0+1</title>
<path fill="none" stroke="black" d="M556,-1748.18C556,-1740.46 556,-1731.19 556,-1722.59"/>
<polygon fill="black" stroke="black" points="559.5,-1722.58 556,-1712.58 552.5,-1722.58 559.5,-1722.58"/>
</g>
<!-- beginIf_IF_8d70bc0 -->
<g id="node29" class="node">
<title>beginIf_IF_8d70bc0</title>
<ellipse fill="black" stroke="black" cx="556" cy="-1637.12" rx="0.36" ry="0.36"/>
</g>
<!-- COMMENT_8be0ea0+1&#45;&gt;beginIf_IF_8d70bc0 -->
<g id="edge25" class="edge">
<title>COMMENT_8be0ea0+1&#45;&gt;beginIf_IF_8d70bc0</title>
<path fill="none" stroke="black" d="M556,-1676.27C556,-1660.52 556,-1639.48 556,-1638.18"/>
</g>
<!-- IF_8d6b880 -->
<g id="node31" class="node">
<title>IF_8d6b880</title>
<polygon fill="none" stroke="blue" points="636.5,-1597.76 475.5,-1597.76 475.5,-1561.76 636.5,-1561.76 636.5,-1597.76"/>
<text text-anchor="middle" x="556" y="-1576.06" font-family="Times,serif" font-size="14.00">WIND_NO_WIND_IF</text>
</g>
<!-- beginIf_IF_8d70bc0&#45;&gt;IF_8d6b880 -->
<g id="edge23" class="edge">
<title>beginIf_IF_8d70bc0&#45;&gt;IF_8d6b880</title>
<path fill="none" stroke="black" d="M556,-1636.6C556,-1634.97 556,-1621.28 556,-1607.86"/>
<polygon fill="black" stroke="black" points="559.5,-1607.86 556,-1597.86 552.5,-1607.86 559.5,-1607.86"/>
</g>
<!-- endIf_IF_8d70bc0 -->
<g id="node30" class="node">
<title>endIf_IF_8d70bc0</title>
<ellipse fill="black" stroke="black" cx="556" cy="-1453.4" rx="0.36" ry="0.36"/>
</g>
<!-- COMMENT_8d65f00+1 -->
<g id="node33" class="node">
<title>COMMENT_8d65f00+1</title>
<polygon fill="none" stroke="black" points="721.5,-1417.04 384.5,-1417.04 384.5,-1381.04 727.5,-1381.04 727.5,-1411.04 721.5,-1417.04"/>
<polyline fill="none" stroke="black" points="721.5,-1417.04 721.5,-1411.04 "/>
<polyline fill="none" stroke="black" points="727.5,-1411.04 721.5,-1411.04 "/>
<text text-anchor="middle" x="556" y="-1395.34" font-family="Times,serif" font-size="14.00">Define the appropriate gas and ghost velocity</text>
</g>
<!-- endIf_IF_8d70bc0&#45;&gt;COMMENT_8d65f00+1 -->
<g id="edge26" class="edge">
<title>endIf_IF_8d70bc0&#45;&gt;COMMENT_8d65f00+1</title>
<path fill="none" stroke="black" d="M556,-1452.25C556,-1450.81 556,-1439.27 556,-1427.4"/>
<polygon fill="black" stroke="black" points="559.5,-1427.14 556,-1417.14 552.5,-1427.14 559.5,-1427.14"/>
</g>
<!-- CALL_8d6f7e0 -->
<g id="node32" class="node">
<title>CALL_8d6f7e0</title>
<g id="a_node32"><a xlink:href="GET_OPENBC_TANGENTIAL_CUTFACE_VEL.svg" xlink:title="GET_OPENBC_TANGENTIAL_CUTFACE_VEL">
<polygon fill="lightgray" stroke="black" points="723.5,-1525.76 388.5,-1525.76 388.5,-1521.76 384.5,-1521.76 384.5,-1517.76 388.5,-1517.76 388.5,-1497.76 384.5,-1497.76 384.5,-1493.76 388.5,-1493.76 388.5,-1489.76 723.5,-1489.76 723.5,-1525.76"/>
<polyline fill="none" stroke="black" points="388.5,-1521.76 392.5,-1521.76 392.5,-1517.76 388.5,-1517.76 "/>
<polyline fill="none" stroke="black" points="388.5,-1497.76 392.5,-1497.76 392.5,-1493.76 388.5,-1493.76 "/>
<text text-anchor="middle" x="556" y="-1504.06" font-family="Times,serif" font-size="14.00">GET_OPENBC_TANGENTIAL_CUTFACE_VEL</text>
</a>
</g>
</g>
<!-- IF_8d6b880&#45;&gt;CALL_8d6f7e0 -->
<g id="edge22" class="edge">
<title>IF_8d6b880&#45;&gt;CALL_8d6f7e0</title>
<path fill="none" stroke="black" d="M556,-1561.46C556,-1553.74 556,-1544.47 556,-1535.87"/>
<polygon fill="black" stroke="black" points="559.5,-1535.86 556,-1525.86 552.5,-1535.86 559.5,-1535.86"/>
</g>
<!-- CALL_8d6f7e0&#45;&gt;endIf_IF_8d70bc0 -->
<g id="edge24" class="edge">
<title>CALL_8d6f7e0&#45;&gt;endIf_IF_8d70bc0</title>
<path fill="none" stroke="black" d="M556,-1489.7C556,-1474.69 556,-1455.03 556,-1453.82"/>
</g>
<!-- COMMENT_8d838a0+1 -->
<g id="node34" class="node">
<title>COMMENT_8d838a0+1</title>
<polygon fill="none" stroke="black" points="853,-1345.04 253,-1345.04 253,-1309.04 859,-1309.04 859,-1339.04 853,-1345.04"/>
<polyline fill="none" stroke="black" points="853,-1345.04 853,-1339.04 "/>
<polyline fill="none" stroke="black" points="859,-1339.04 853,-1339.04 "/>
<text text-anchor="middle" x="556" y="-1323.34" font-family="Times,serif" font-size="14.00">Decide whether or not to process edge using data interpolated from another mesh</text>
</g>
<!-- COMMENT_8d65f00+1&#45;&gt;COMMENT_8d838a0+1 -->
<g id="edge27" class="edge">
<title>COMMENT_8d65f00+1&#45;&gt;COMMENT_8d838a0+1</title>
<path fill="none" stroke="black" d="M556,-1380.74C556,-1373.02 556,-1363.75 556,-1355.15"/>
<polygon fill="black" stroke="black" points="559.5,-1355.14 556,-1345.14 552.5,-1355.14 559.5,-1355.14"/>
</g>
<!-- beginIf_IF_8f2c2c0 -->
<g id="node35" class="node">
<title>beginIf_IF_8f2c2c0</title>
<ellipse fill="black" stroke="black" cx="556" cy="-1269.68" rx="0.36" ry="0.36"/>
</g>
<!-- COMMENT_8d838a0+1&#45;&gt;beginIf_IF_8f2c2c0 -->
<g id="edge38" class="edge">
<title>COMMENT_8d838a0+1&#45;&gt;beginIf_IF_8f2c2c0</title>
<path fill="none" stroke="black" d="M556,-1308.83C556,-1293.08 556,-1272.04 556,-1270.74"/>
</g>
<!-- COMMENT_8d87120+1 -->
<g id="node37" class="node">
<title>COMMENT_8d87120+1</title>
<polygon fill="none" stroke="black" points="803.5,-1230.32 48.5,-1230.32 48.5,-1177.32 809.5,-1177.32 809.5,-1224.32 803.5,-1230.32"/>
<polyline fill="none" stroke="black" points="803.5,-1230.32 803.5,-1224.32 "/>
<polyline fill="none" stroke="black" points="809.5,-1224.32 803.5,-1224.32 "/>
<text text-anchor="middle" x="429" y="-1215.12" font-family="Times,serif" font-size="14.00">Determine appropriate velocity BC by assessing each adjacent wall cell. If the BCs are different on each</text>
<text text-anchor="middle" x="429" y="-1200.12" font-family="Times,serif" font-size="14.00">side of the edge, choose the one with the specified velocity or velocity gradient, if there is one.</text>
<text text-anchor="middle" x="429" y="-1185.12" font-family="Times,serif" font-size="14.00">If not, choose the max value of boundary condition index, simply for consistency.</text>
</g>
<!-- beginIf_IF_8f2c2c0&#45;&gt;COMMENT_8d87120+1 -->
<g id="edge34" class="edge">
<title>beginIf_IF_8f2c2c0&#45;&gt;COMMENT_8d87120+1</title>
<path fill="none" stroke="black" d="M555.91,-1269.27C553.93,-1268.27 520.44,-1251.26 488.36,-1234.97"/>
<polygon fill="black" stroke="black" points="489.88,-1231.81 479.38,-1230.4 486.71,-1238.05 489.88,-1231.81"/>
</g>
<!-- Empty_8f2c240 -->
<g id="node44" class="node">
<title>Empty_8f2c240</title>
<ellipse fill="none" stroke="black" cx="917" cy="-1203.82" rx="83.39" ry="18"/>
<text text-anchor="middle" x="917" y="-1200.12" font-family="Times,serif" font-size="14.00">Empty_8f2c240</text>
</g>
<!-- beginIf_IF_8f2c2c0&#45;&gt;Empty_8f2c240 -->
<g id="edge36" class="edge">
<title>beginIf_IF_8f2c2c0&#45;&gt;Empty_8f2c240</title>
<path fill="none" stroke="black" d="M556.04,-1269.32C559.7,-1269.32 793.83,-1269.52 822,-1261.32 845.91,-1254.36 869.99,-1239.94 887.92,-1227.41"/>
<polygon fill="black" stroke="black" points="890.13,-1230.13 896.21,-1221.45 886.04,-1224.45 890.13,-1230.13"/>
</g>
<!-- endIf_IF_8f2c2c0 -->
<g id="node36" class="node">
<title>endIf_IF_8f2c2c0</title>
<ellipse fill="black" stroke="black" cx="649" cy="-691.96" rx="0.36" ry="0.36"/>
</g>
<!-- COMMENT_8f2c620+1 -->
<g id="node45" class="node">
<title>COMMENT_8f2c620+1</title>
<polygon fill="none" stroke="black" points="845,-655.6 447,-655.6 447,-619.6 851,-619.6 851,-649.6 845,-655.6"/>
<polyline fill="none" stroke="black" points="845,-655.6 845,-649.6 "/>
<polyline fill="none" stroke="black" points="851,-649.6 845,-649.6 "/>
<text text-anchor="middle" x="649" y="-633.9" font-family="Times,serif" font-size="14.00">Set ghost cell values at edge of computational domain</text>
</g>
<!-- endIf_IF_8f2c2c0&#45;&gt;COMMENT_8f2c620+1 -->
<g id="edge39" class="edge">
<title>endIf_IF_8f2c2c0&#45;&gt;COMMENT_8f2c620+1</title>
<path fill="none" stroke="black" d="M649,-690.81C649,-689.37 649,-677.83 649,-665.96"/>
<polygon fill="black" stroke="black" points="652.5,-665.7 649,-655.7 645.5,-665.7 652.5,-665.7"/>
</g>
<!-- COMMENT_8d8c4c0+1 -->
<g id="node38" class="node">
<title>COMMENT_8d8c4c0+1</title>
<polygon fill="none" stroke="black" points="656.5,-1141.32 199.5,-1141.32 199.5,-1105.32 662.5,-1105.32 662.5,-1135.32 656.5,-1141.32"/>
<polyline fill="none" stroke="black" points="656.5,-1141.32 656.5,-1135.32 "/>
<polyline fill="none" stroke="black" points="662.5,-1135.32 656.5,-1135.32 "/>
<text text-anchor="middle" x="431" y="-1119.62" font-family="Times,serif" font-size="14.00">Compute the viscosity by averaging the two adjacent gas cells</text>
</g>
<!-- COMMENT_8d87120+1&#45;&gt;COMMENT_8d8c4c0+1 -->
<g id="edge28" class="edge">
<title>COMMENT_8d87120+1&#45;&gt;COMMENT_8d8c4c0+1</title>
<path fill="none" stroke="black" d="M429.65,-1177.12C429.86,-1169.03 430.09,-1160.08 430.3,-1151.87"/>
<polygon fill="black" stroke="black" points="433.8,-1151.74 430.56,-1141.65 426.8,-1151.56 433.8,-1151.74"/>
</g>
<!-- COMMENT_8d95140+1 -->
<g id="node39" class="node">
<title>COMMENT_8d95140+1</title>
<polygon fill="none" stroke="black" points="564,-1069.32 302,-1069.32 302,-1033.32 570,-1033.32 570,-1063.32 564,-1069.32"/>
<polyline fill="none" stroke="black" points="564,-1069.32 564,-1063.32 "/>
<polyline fill="none" stroke="black" points="570,-1063.32 564,-1063.32 "/>
<text text-anchor="middle" x="436" y="-1047.62" font-family="Times,serif" font-size="14.00">Check for HVAC tangential velocity</text>
</g>
<!-- COMMENT_8d8c4c0+1&#45;&gt;COMMENT_8d95140+1 -->
<g id="edge29" class="edge">
<title>COMMENT_8d8c4c0+1&#45;&gt;COMMENT_8d95140+1</title>
<path fill="none" stroke="black" d="M432.24,-1105.02C432.79,-1097.3 433.45,-1088.03 434.06,-1079.43"/>
<polygon fill="black" stroke="black" points="437.56,-1079.65 434.78,-1069.42 430.57,-1079.15 437.56,-1079.65"/>
</g>
<!-- COMMENT_8d99540+1 -->
<g id="node40" class="node">
<title>COMMENT_8d99540+1</title>
<polygon fill="none" stroke="black" points="703.5,-997.32 310.5,-997.32 310.5,-961.32 709.5,-961.32 709.5,-991.32 703.5,-997.32"/>
<polyline fill="none" stroke="black" points="703.5,-997.32 703.5,-991.32 "/>
<polyline fill="none" stroke="black" points="709.5,-991.32 703.5,-991.32 "/>
<text text-anchor="middle" x="510" y="-975.62" font-family="Times,serif" font-size="14.00">Determine if there is a tangential velocity component</text>
</g>
<!-- COMMENT_8d95140+1&#45;&gt;COMMENT_8d99540+1 -->
<g id="edge30" class="edge">
<title>COMMENT_8d95140+1&#45;&gt;COMMENT_8d99540+1</title>
<path fill="none" stroke="black" d="M454.29,-1033.02C463.43,-1024.37 474.64,-1013.77 484.6,-1004.35"/>
<polygon fill="black" stroke="black" points="487.06,-1006.84 491.92,-997.42 482.25,-1001.75 487.06,-1006.84"/>
</g>
<!-- COMMENT_8dbfca0+1 -->
<g id="node41" class="node">
<title>COMMENT_8dbfca0+1</title>
<polygon fill="none" stroke="black" points="708.5,-925.32 325.5,-925.32 325.5,-889.32 714.5,-889.32 714.5,-919.32 708.5,-925.32"/>
<polyline fill="none" stroke="black" points="708.5,-925.32 708.5,-919.32 "/>
<polyline fill="none" stroke="black" points="714.5,-919.32 708.5,-919.32 "/>
<text text-anchor="middle" x="520" y="-903.62" font-family="Times,serif" font-size="14.00">Choose the appropriate boundary condition to apply</text>
</g>
<!-- COMMENT_8d99540+1&#45;&gt;COMMENT_8dbfca0+1 -->
<g id="edge31" class="edge">
<title>COMMENT_8d99540+1&#45;&gt;COMMENT_8dbfca0+1</title>
<path fill="none" stroke="black" d="M512.47,-961.02C513.57,-953.3 514.9,-944.03 516.13,-935.43"/>
<polygon fill="black" stroke="black" points="519.61,-935.82 517.56,-925.42 512.68,-934.83 519.61,-935.82"/>
</g>
<!-- CALL_8dd7d80 -->
<g id="node42" class="node">
<title>CALL_8dd7d80</title>
<g id="a_node42"><a xlink:href="WALL_MODEL.svg" xlink:title="WALL_MODEL">
<polygon fill="lightgray" stroke="black" points="600.5,-853.32 479.5,-853.32 479.5,-849.32 475.5,-849.32 475.5,-845.32 479.5,-845.32 479.5,-825.32 475.5,-825.32 475.5,-821.32 479.5,-821.32 479.5,-817.32 600.5,-817.32 600.5,-853.32"/>
<polyline fill="none" stroke="black" points="479.5,-849.32 483.5,-849.32 483.5,-845.32 479.5,-845.32 "/>
<polyline fill="none" stroke="black" points="479.5,-825.32 483.5,-825.32 483.5,-821.32 479.5,-821.32 "/>
<text text-anchor="middle" x="540" y="-831.62" font-family="Times,serif" font-size="14.00">WALL_MODEL</text>
</a>
</g>
</g>
<!-- COMMENT_8dbfca0+1&#45;&gt;CALL_8dd7d80 -->
<g id="edge32" class="edge">
<title>COMMENT_8dbfca0+1&#45;&gt;CALL_8dd7d80</title>
<path fill="none" stroke="black" d="M524.94,-889.02C527.17,-881.22 529.85,-871.83 532.33,-863.15"/>
<polygon fill="black" stroke="black" points="535.73,-864 535.11,-853.42 529,-862.08 535.73,-864"/>
</g>
<!-- COMMENT_8dd9140+1 -->
<g id="node43" class="node">
<title>COMMENT_8dd9140+1</title>
<polygon fill="none" stroke="black" points="800.5,-781.32 347.5,-781.32 347.5,-728.32 806.5,-728.32 806.5,-775.32 800.5,-781.32"/>
<polyline fill="none" stroke="black" points="800.5,-781.32 800.5,-775.32 "/>
<polyline fill="none" stroke="black" points="806.5,-775.32 800.5,-775.32 "/>
<text text-anchor="middle" x="577" y="-766.12" font-family="Times,serif" font-size="14.00">SLIP_COEF = &#45;1, no slip, &#160;&#160;VEL_GHOST = 2*VEL_T &#45; VEL_GAS</text>
<text text-anchor="middle" x="577" y="-751.12" font-family="Times,serif" font-size="14.00">SLIP_COEF = &#160;0, half slip, VEL_GHOST = VEL_T</text>
<text text-anchor="middle" x="577" y="-736.12" font-family="Times,serif" font-size="14.00">SLIP_COEF = &#160;1, free slip, VEL_GHOST = VEL_GAS</text>
</g>
<!-- CALL_8dd7d80&#45;&gt;COMMENT_8dd9140+1 -->
<g id="edge33" class="edge">
<title>CALL_8dd7d80&#45;&gt;COMMENT_8dd9140+1</title>
<path fill="none" stroke="black" d="M548.03,-817.29C551.73,-809.44 556.26,-799.83 560.63,-790.56"/>
<polygon fill="black" stroke="black" points="563.81,-792.01 564.91,-781.48 557.48,-789.03 563.81,-792.01"/>
</g>
<!-- COMMENT_8dd9140+1&#45;&gt;endIf_IF_8f2c2c0 -->
<g id="edge35" class="edge">
<title>COMMENT_8dd9140+1&#45;&gt;endIf_IF_8f2c2c0</title>
<path fill="none" stroke="black" d="M607.12,-728.09C626.23,-711.77 647.62,-693.5 648.94,-692.37"/>
</g>
<!-- Empty_8f2c240&#45;&gt;endIf_IF_8f2c2c0 -->
<g id="edge37" class="edge">
<title>Empty_8f2c240&#45;&gt;endIf_IF_8f2c2c0</title>
<path fill="none" stroke="black" d="M908.32,-1185.71C895.25,-1158.29 872,-1102.5 872,-1052.32 872,-1052.32 872,-1052.32 872,-834.32 872,-778.99 865.74,-754.2 822,-720.32 791.69,-696.85 653.42,-692.45 649.1,-692.32"/>
</g>
<!-- COMMENT_8f2c620+1&#45;&gt;endDO_DO_8f47960 -->
<g id="edge41" class="edge">
<title>COMMENT_8f2c620+1&#45;&gt;endDO_DO_8f47960</title>
<path fill="none" stroke="black" d="M649,-619.54C649,-604.53 649,-584.87 649,-583.66"/>
</g>
<!-- COMMENT_8f3bdc0+1 -->
<g id="node47" class="node">
<title>COMMENT_8f3bdc0+1</title>
<polygon fill="none" stroke="black" points="952,-438.16 340,-438.16 340,-402.16 958,-402.16 958,-432.16 952,-438.16"/>
<polyline fill="none" stroke="black" points="952,-438.16 952,-432.16 "/>
<polyline fill="none" stroke="black" points="958,-432.16 952,-432.16 "/>
<text text-anchor="middle" x="649" y="-416.46" font-family="Times,serif" font-size="14.00">If the edge is on an interpolated boundary, and all cells around it are not solid, cycle</text>
</g>
<!-- COMMENT_8f47a60+1&#45;&gt;COMMENT_8f3bdc0+1 -->
<g id="edge45" class="edge">
<title>COMMENT_8f47a60+1&#45;&gt;COMMENT_8f3bdc0+1</title>
<path fill="none" stroke="black" d="M649,-473.86C649,-466.14 649,-456.87 649,-448.27"/>
<polygon fill="black" stroke="black" points="652.5,-448.26 649,-438.26 645.5,-448.26 652.5,-448.26"/>
</g>
<!-- COMMENT_8f404a0+1 -->
<g id="node48" class="node">
<title>COMMENT_8f404a0+1</title>
<polygon fill="none" stroke="black" points="991,-366.16 301,-366.16 301,-330.16 997,-330.16 997,-360.16 991,-366.16"/>
<polyline fill="none" stroke="black" points="991,-366.16 991,-360.16 "/>
<polyline fill="none" stroke="black" points="997,-360.16 991,-360.16 "/>
<text text-anchor="middle" x="649" y="-344.46" font-family="Times,serif" font-size="14.00">Loop over all 4 normal directions and compute vorticity and stress tensor components for each</text>
</g>
<!-- COMMENT_8f3bdc0+1&#45;&gt;COMMENT_8f404a0+1 -->
<g id="edge46" class="edge">
<title>COMMENT_8f3bdc0+1&#45;&gt;COMMENT_8f404a0+1</title>
<path fill="none" stroke="black" d="M649,-401.86C649,-394.14 649,-384.87 649,-376.27"/>
<polygon fill="black" stroke="black" points="652.5,-376.26 649,-366.26 645.5,-376.26 652.5,-376.26"/>
</g>
<!-- beginDO_DO_8f5e720 -->
<g id="node49" class="node">
<title>beginDO_DO_8f5e720</title>
<ellipse fill="black" stroke="black" cx="649" cy="-290.8" rx="0.36" ry="0.36"/>
</g>
<!-- COMMENT_8f404a0+1&#45;&gt;beginDO_DO_8f5e720 -->
<g id="edge48" class="edge">
<title>COMMENT_8f404a0+1&#45;&gt;beginDO_DO_8f5e720</title>
<path fill="none" stroke="black" d="M649,-329.95C649,-314.2 649,-293.16 649,-291.86"/>
</g>
<!-- DO_8f5bc40 -->
<g id="node51" class="node">
<title>DO_8f5bc40</title>
<polygon fill="none" stroke="orange" points="741.5,-254.44 556.5,-254.44 556.5,-218.44 741.5,-218.44 741.5,-254.44"/>
<text text-anchor="middle" x="649" y="-232.74" font-family="Times,serif" font-size="14.00">ORIENTATION_LOOP_2</text>
</g>
<!-- beginDO_DO_8f5e720&#45;&gt;DO_8f5bc40 -->
<g id="edge47" class="edge">
<title>beginDO_DO_8f5e720&#45;&gt;DO_8f5bc40</title>
<path fill="none" stroke="black" d="M649,-290.29C649,-288.81 649,-276.76 649,-264.54"/>
<polygon fill="black" stroke="black" points="652.5,-264.46 649,-254.46 645.5,-264.46 652.5,-264.46"/>
</g>
<!-- endDO_DO_8f5e720 -->
<g id="node50" class="node">
<title>endDO_DO_8f5e720</title>
<ellipse fill="black" stroke="black" cx="649" cy="-182.08" rx="0.36" ry="0.36"/>
</g>
<!-- endDO_DO_8f5e720&#45;&gt;endDO_DO_8f5f040 -->
<g id="edge51" class="edge">
<title>endDO_DO_8f5e720&#45;&gt;endDO_DO_8f5f040</title>
<path fill="none" stroke="black" d="M649,-180.98C649,-178.97 649,-147.76 649,-145.82"/>
</g>
<!-- DO_8f5bc40&#45;&gt;endDO_DO_8f5e720 -->
<g id="edge49" class="edge">
<title>DO_8f5bc40&#45;&gt;endDO_DO_8f5e720</title>
<path fill="none" stroke="black" d="M649,-218.38C649,-203.37 649,-183.71 649,-182.5"/>
</g>
<!-- end_SUBPROGRAM_8f61b40 -->
<g id="node53" class="node">
<title>end_SUBPROGRAM_8f61b40</title>
<ellipse fill="black" stroke="black" cx="649" cy="-30" rx="7" ry="7"/>
</g>
<!-- CALL_8f61a60&#45;&gt;end_SUBPROGRAM_8f61b40 -->
<g id="edge53" class="edge">
<title>CALL_8f61a60&#45;&gt;end_SUBPROGRAM_8f61b40</title>
<path fill="none" stroke="black" d="M649,-72.93C649,-64.89 649,-55.33 649,-47.37"/>
<polygon fill="black" stroke="black" points="652.5,-47.22 649,-37.22 645.5,-47.22 652.5,-47.22"/>
</g>
</g>
</svg>
