<?xml version="1.0" encoding="UTF-8" standalone="no"?>
<!DOCTYPE svg PUBLIC "-//W3C//DTD SVG 1.1//EN"
 "http://www.w3.org/Graphics/SVG/1.1/DTD/svg11.dtd">
<!-- Generated by graphviz version 2.43.0 (0)
 -->
<!-- Title: VISCOSITY_BC Pages: 1 -->
<svg width="839pt" height="502pt"
 viewBox="0.00 0.00 839.00 502.00" xmlns="http://www.w3.org/2000/svg" xmlns:xlink="http://www.w3.org/1999/xlink">
<g id="graph0" class="graph" transform="scale(1 1) rotate(0) translate(4 498)">
<title>VISCOSITY_BC</title>
<polygon fill="white" stroke="transparent" points="-4,4 -4,-498 835,-498 835,4 -4,4"/>
<text text-anchor="middle" x="415.5" y="-7.8" font-family="Times,serif" font-size="14.00">VISCOSITY_BC</text>
<!-- start_SUBPROGRAM_a172660 -->
<g id="node1" class="node">
<title>start_SUBPROGRAM_a172660</title>
<ellipse fill="none" stroke="black" cx="415.5" cy="-487" rx="7" ry="7"/>
</g>
<!-- COMMENT_813c1c0+1 -->
<g id="node2" class="node">
<title>COMMENT_813c1c0+1</title>
<polygon fill="none" stroke="black" points="825,-444 0,-444 0,-361 831,-361 831,-438 825,-444"/>
<polyline fill="none" stroke="black" points="825,-444 825,-438 "/>
<polyline fill="none" stroke="black" points="831,-438 825,-438 "/>
<text text-anchor="middle" x="415.5" y="-428.8" font-family="Times,serif" font-size="14.00">!&gt; brief Compute boundary values of the viscosity, MU.</text>
<text text-anchor="middle" x="415.5" y="-413.8" font-family="Times,serif" font-size="14.00">!&gt; param NM Mesh number.</text>
<text text-anchor="middle" x="415.5" y="-398.8" font-family="Times,serif" font-size="14.00">!&gt; param APPLY_TO_ESTIMATED_VARIABLES Flag indicating f$mu(T,mathbf{u})f$ or f$mu(T^*,mathbf{u}^*)f$</text>
<text text-anchor="middle" x="415.5" y="-383.8" font-family="Times,serif" font-size="14.00">!&gt; callergraph</text>
<text text-anchor="middle" x="415.5" y="-368.8" font-family="Times,serif" font-size="14.00">!&gt; callgraph</text>
</g>
<!-- start_SUBPROGRAM_a172660&#45;&gt;COMMENT_813c1c0+1 -->
<g id="edge1" class="edge">
<title>start_SUBPROGRAM_a172660&#45;&gt;COMMENT_813c1c0+1</title>
<path fill="none" stroke="black" d="M415.5,-479.8C415.5,-473.89 415.5,-464.39 415.5,-454.07"/>
<polygon fill="black" stroke="black" points="419,-454.01 415.5,-444.01 412,-454.01 419,-454.01"/>
</g>
<!-- COMMENT_8138f60+1 -->
<g id="node3" class="node">
<title>COMMENT_8138f60+1</title>
<polygon fill="none" stroke="black" points="599,-325 226,-325 226,-289 605,-289 605,-319 599,-325"/>
<polyline fill="none" stroke="black" points="599,-325 599,-319 "/>
<polyline fill="none" stroke="black" points="605,-319 599,-319 "/>
<text text-anchor="middle" x="415.5" y="-303.3" font-family="Times,serif" font-size="14.00">Specify ghost cell values of the viscosity array MU</text>
</g>
<!-- COMMENT_813c1c0+1&#45;&gt;COMMENT_8138f60+1 -->
<g id="edge2" class="edge">
<title>COMMENT_813c1c0+1&#45;&gt;COMMENT_8138f60+1</title>
<path fill="none" stroke="black" d="M415.5,-360.76C415.5,-352.24 415.5,-343.44 415.5,-335.53"/>
<polygon fill="black" stroke="black" points="419,-335.41 415.5,-325.41 412,-335.41 419,-335.41"/>
</g>
<!-- CALL_8139260 -->
<g id="node4" class="node">
<title>CALL_8139260</title>
<g id="a_node4"><a xlink:href="POINT_TO_MESH.svg" xlink:title="POINT_TO_MESH">
<polygon fill="lightgray" stroke="black" points="487.5,-253 343.5,-253 343.5,-249 339.5,-249 339.5,-245 343.5,-245 343.5,-225 339.5,-225 339.5,-221 343.5,-221 343.5,-217 487.5,-217 487.5,-253"/>
<polyline fill="none" stroke="black" points="343.5,-249 347.5,-249 347.5,-245 343.5,-245 "/>
<polyline fill="none" stroke="black" points="343.5,-225 347.5,-225 347.5,-221 343.5,-221 "/>
<text text-anchor="middle" x="415.5" y="-231.3" font-family="Times,serif" font-size="14.00">POINT_TO_MESH</text>
</a>
</g>
</g>
<!-- COMMENT_8138f60+1&#45;&gt;CALL_8139260 -->
<g id="edge3" class="edge">
<title>COMMENT_8138f60+1&#45;&gt;CALL_8139260</title>
<path fill="none" stroke="black" d="M415.5,-288.7C415.5,-280.98 415.5,-271.71 415.5,-263.11"/>
<polygon fill="black" stroke="black" points="419,-263.1 415.5,-253.1 412,-263.1 419,-263.1"/>
</g>
<!-- COMMENT_8128ba0+1 -->
<g id="node5" class="node">
<title>COMMENT_8128ba0+1</title>
<polygon fill="none" stroke="black" points="614.5,-181 210.5,-181 210.5,-145 620.5,-145 620.5,-175 614.5,-181"/>
<polyline fill="none" stroke="black" points="614.5,-181 614.5,-175 "/>
<polyline fill="none" stroke="black" points="620.5,-175 614.5,-175 "/>
<text text-anchor="middle" x="415.5" y="-159.3" font-family="Times,serif" font-size="14.00">Mirror viscosity into solids and exterior boundary cells</text>
</g>
<!-- CALL_8139260&#45;&gt;COMMENT_8128ba0+1 -->
<g id="edge4" class="edge">
<title>CALL_8139260&#45;&gt;COMMENT_8128ba0+1</title>
<path fill="none" stroke="black" d="M415.5,-216.7C415.5,-208.98 415.5,-199.71 415.5,-191.11"/>
<polygon fill="black" stroke="black" points="419,-191.1 415.5,-181.1 412,-191.1 419,-191.1"/>
</g>
<!-- DO_8157be0 -->
<g id="node6" class="node">
<title>DO_8157be0</title>
<polygon fill="none" stroke="orange" points="468.5,-109 362.5,-109 362.5,-73 468.5,-73 468.5,-109"/>
<text text-anchor="middle" x="415.5" y="-87.3" font-family="Times,serif" font-size="14.00">WALL_LOOP</text>
</g>
<!-- COMMENT_8128ba0+1&#45;&gt;DO_8157be0 -->
<g id="edge5" class="edge">
<title>COMMENT_8128ba0+1&#45;&gt;DO_8157be0</title>
<path fill="none" stroke="black" d="M415.5,-144.7C415.5,-136.98 415.5,-127.71 415.5,-119.11"/>
<polygon fill="black" stroke="black" points="419,-119.1 415.5,-109.1 412,-119.1 419,-119.1"/>
</g>
<!-- end_SUBPROGRAM_a172660 -->
<g id="node7" class="node">
<title>end_SUBPROGRAM_a172660</title>
<ellipse fill="black" stroke="black" cx="415.5" cy="-30" rx="7" ry="7"/>
</g>
<!-- DO_8157be0&#45;&gt;end_SUBPROGRAM_a172660 -->
<g id="edge6" class="edge">
<title>DO_8157be0&#45;&gt;end_SUBPROGRAM_a172660</title>
<path fill="none" stroke="black" d="M415.5,-72.93C415.5,-64.89 415.5,-55.33 415.5,-47.37"/>
<polygon fill="black" stroke="black" points="419,-47.22 415.5,-37.22 412,-47.22 419,-47.22"/>
</g>
</g>
</svg>
