<?xml version="1.0" encoding="UTF-8" standalone="no"?>
<!DOCTYPE svg PUBLIC "-//W3C//DTD SVG 1.1//EN"
 "http://www.w3.org/Graphics/SVG/1.1/DTD/svg11.dtd">
<!-- Generated by graphviz version 2.43.0 (0)
 -->
<!-- Title: WALL_VELOCITY_NO_GRADH Pages: 1 -->
<svg width="968pt" height="761pt"
 viewBox="0.00 0.00 967.50 760.88" xmlns="http://www.w3.org/2000/svg" xmlns:xlink="http://www.w3.org/1999/xlink">
<g id="graph0" class="graph" transform="scale(1 1) rotate(0) translate(4 756.88)">
<title>WALL_VELOCITY_NO_GRADH</title>
<polygon fill="white" stroke="transparent" points="-4,4 -4,-756.88 963.5,-756.88 963.5,4 -4,4"/>
<text text-anchor="middle" x="479.75" y="-7.8" font-family="Times,serif" font-size="14.00">WALL_VELOCITY_NO_GRADH</text>
<g id="clust1" class="cluster">
<title>cluster_STORE_UN_COND</title>
<polygon fill="none" stroke="blue" points="28.5,-371.44 28.5,-611.88 882.5,-611.88 882.5,-371.44 28.5,-371.44"/>
<text text-anchor="middle" x="103.5" y="-596.68" font-family="Times,serif" font-size="14.00">STORE_UN_COND</text>
</g>
<g id="clust2" class="cluster">
<title>cluster_cond9333440</title>
<polygon fill="none" stroke="black" points="36.5,-408.16 36.5,-572.16 874.5,-572.16 874.5,-408.16 36.5,-408.16"/>
<text text-anchor="middle" x="93" y="-556.96" font-family="Times,serif" font-size="14.00">cond9333440</text>
</g>
<g id="clust3" class="cluster">
<title>cluster_PREDICTOR_COND</title>
<polygon fill="none" stroke="blue" points="287.5,-65 287.5,-299.44 951.5,-299.44 951.5,-65 287.5,-65"/>
<text text-anchor="middle" x="366" y="-284.24" font-family="Times,serif" font-size="14.00">PREDICTOR_COND</text>
</g>
<g id="clust4" class="cluster">
<title>cluster_cond9368260</title>
<polygon fill="none" stroke="black" points="295.5,-184.72 295.5,-259.72 477.5,-259.72 477.5,-184.72 295.5,-184.72"/>
<text text-anchor="middle" x="352" y="-244.52" font-family="Times,serif" font-size="14.00">cond9368260</text>
</g>
<g id="clust5" class="cluster">
<title>cluster_cond9394300</title>
<polygon fill="none" stroke="black" points="485.5,-93.72 485.5,-259.72 943.5,-259.72 943.5,-93.72 485.5,-93.72"/>
<text text-anchor="middle" x="542" y="-244.52" font-family="Times,serif" font-size="14.00">cond9394300</text>
</g>
<g id="clust6" class="cluster">
<title>cluster_WALL_CELL_LOOP_2</title>
<polygon fill="none" stroke="orange" points="493.5,-101.72 493.5,-176.72 935.5,-176.72 935.5,-101.72 493.5,-101.72"/>
<text text-anchor="middle" x="577" y="-161.52" font-family="Times,serif" font-size="14.00">WALL_CELL_LOOP_2</text>
</g>
<!-- start_SUBPROGRAM_931efa0 -->
<g id="node1" class="node">
<title>start_SUBPROGRAM_931efa0</title>
<ellipse fill="none" stroke="black" cx="455.5" cy="-745.88" rx="7" ry="7"/>
</g>
<!-- COMMENT_931a940+1 -->
<g id="node2" class="node">
<title>COMMENT_931a940+1</title>
<polygon fill="none" stroke="black" points="905,-702.88 0,-702.88 0,-619.88 911,-619.88 911,-696.88 905,-702.88"/>
<polyline fill="none" stroke="black" points="905,-702.88 905,-696.88 "/>
<polyline fill="none" stroke="black" points="911,-696.88 905,-696.88 "/>
<text text-anchor="middle" x="455.5" y="-687.68" font-family="Times,serif" font-size="14.00">!&gt; brief Recompute velocities on wall cells</text>
<text text-anchor="middle" x="455.5" y="-672.68" font-family="Times,serif" font-size="14.00">!&gt; param DT Time step (s)</text>
<text text-anchor="middle" x="455.5" y="-657.68" font-family="Times,serif" font-size="14.00">!&gt; param STORE_UN Flag indicating whether normal velocity component is to be saved</text>
<text text-anchor="middle" x="455.5" y="-642.68" font-family="Times,serif" font-size="14.00">!&gt; details Ensure that the correct normal derivative of H is used on the projection. It is only used when the Poisson equation</text>
<text text-anchor="middle" x="455.5" y="-627.68" font-family="Times,serif" font-size="14.00">!&gt; for the pressure is solved .NOT. PRES_ON_WHOLE_DOMAIN (i.e. using the GLMAT solver).</text>
</g>
<!-- start_SUBPROGRAM_931efa0&#45;&gt;COMMENT_931a940+1 -->
<g id="edge1" class="edge">
<title>start_SUBPROGRAM_931efa0&#45;&gt;COMMENT_931a940+1</title>
<path fill="none" stroke="black" d="M455.5,-738.68C455.5,-732.77 455.5,-723.27 455.5,-712.95"/>
<polygon fill="black" stroke="black" points="459,-712.89 455.5,-702.89 452,-712.89 459,-712.89"/>
</g>
<!-- beginIf_IF_93334c0 -->
<g id="node3" class="node">
<title>beginIf_IF_93334c0</title>
<ellipse fill="black" stroke="black" cx="455.5" cy="-580.52" rx="0.36" ry="0.36"/>
</g>
<!-- COMMENT_931a940+1&#45;&gt;beginIf_IF_93334c0 -->
<g id="edge5" class="edge">
<title>COMMENT_931a940+1&#45;&gt;beginIf_IF_93334c0</title>
<path fill="none" stroke="black" d="M455.5,-619.56C455.5,-600.92 455.5,-582.7 455.5,-581.57"/>
</g>
<!-- COMMENT_931f6e0+1 -->
<g id="node5" class="node">
<title>COMMENT_931f6e0+1</title>
<polygon fill="none" stroke="black" points="860.5,-541.16 44.5,-541.16 44.5,-488.16 866.5,-488.16 866.5,-535.16 860.5,-541.16"/>
<polyline fill="none" stroke="black" points="860.5,-541.16 860.5,-535.16 "/>
<polyline fill="none" stroke="black" points="866.5,-535.16 860.5,-535.16 "/>
<text text-anchor="middle" x="455.5" y="-525.96" font-family="Times,serif" font-size="14.00">These velocities from the beginning of step are needed for the velocity fix on wall cells at the corrector</text>
<text text-anchor="middle" x="455.5" y="-510.96" font-family="Times,serif" font-size="14.00">phase (i.e. the loops in VELOCITY_CORRECTOR will change U,V,W to wrong reults using (HP1&#45;HP)/DX gradients,</text>
<text text-anchor="middle" x="455.5" y="-495.96" font-family="Times,serif" font-size="14.00">when the pressure solver in the GLMAT solver.</text>
</g>
<!-- beginIf_IF_93334c0&#45;&gt;COMMENT_931f6e0+1 -->
<g id="edge3" class="edge">
<title>beginIf_IF_93334c0&#45;&gt;COMMENT_931f6e0+1</title>
<path fill="none" stroke="black" d="M455.5,-580.11C455.5,-579.23 455.5,-565.94 455.5,-551.66"/>
<polygon fill="black" stroke="black" points="459,-551.24 455.5,-541.24 452,-551.24 459,-551.24"/>
</g>
<!-- endIf_IF_93334c0 -->
<g id="node4" class="node">
<title>endIf_IF_93334c0</title>
<ellipse fill="black" stroke="black" cx="455.5" cy="-379.8" rx="0.36" ry="0.36"/>
</g>
<!-- COMMENT_93308c0+1 -->
<g id="node7" class="node">
<title>COMMENT_93308c0+1</title>
<polygon fill="none" stroke="black" points="824,-343.44 81,-343.44 81,-307.44 830,-307.44 830,-337.44 824,-343.44"/>
<polyline fill="none" stroke="black" points="824,-343.44 824,-337.44 "/>
<polyline fill="none" stroke="black" points="830,-337.44 824,-337.44 "/>
<text text-anchor="middle" x="455.5" y="-321.74" font-family="Times,serif" font-size="14.00">Case of not storing, recompute INTERNAL_WALL_CELL velocities, taking into acct that DHDN=0._EB:</text>
</g>
<!-- endIf_IF_93334c0&#45;&gt;COMMENT_93308c0+1 -->
<g id="edge6" class="edge">
<title>endIf_IF_93334c0&#45;&gt;COMMENT_93308c0+1</title>
<path fill="none" stroke="black" d="M455.5,-378.65C455.5,-377.21 455.5,-365.67 455.5,-353.8"/>
<polygon fill="black" stroke="black" points="459,-353.54 455.5,-343.54 452,-353.54 459,-353.54"/>
</g>
<!-- DO_9330b00 -->
<g id="node6" class="node">
<title>DO_9330b00</title>
<polygon fill="none" stroke="orange" points="513.5,-452.16 397.5,-452.16 397.5,-416.16 513.5,-416.16 513.5,-452.16"/>
<text text-anchor="middle" x="455.5" y="-430.46" font-family="Times,serif" font-size="14.00">STORE_LOOP</text>
</g>
<!-- COMMENT_931f6e0+1&#45;&gt;DO_9330b00 -->
<g id="edge2" class="edge">
<title>COMMENT_931f6e0+1&#45;&gt;DO_9330b00</title>
<path fill="none" stroke="black" d="M455.5,-487.96C455.5,-479.87 455.5,-470.92 455.5,-462.71"/>
<polygon fill="black" stroke="black" points="459,-462.49 455.5,-452.49 452,-462.49 459,-462.49"/>
</g>
<!-- DO_9330b00&#45;&gt;endIf_IF_93334c0 -->
<g id="edge4" class="edge">
<title>DO_9330b00&#45;&gt;endIf_IF_93334c0</title>
<path fill="none" stroke="black" d="M455.5,-416.1C455.5,-401.09 455.5,-381.43 455.5,-380.22"/>
</g>
<!-- beginIf_IF_9392340 -->
<g id="node8" class="node">
<title>beginIf_IF_9392340</title>
<ellipse fill="black" stroke="black" cx="455.5" cy="-268.08" rx="0.36" ry="0.36"/>
</g>
<!-- COMMENT_93308c0+1&#45;&gt;beginIf_IF_9392340 -->
<g id="edge12" class="edge">
<title>COMMENT_93308c0+1&#45;&gt;beginIf_IF_9392340</title>
<path fill="none" stroke="black" d="M455.5,-307.23C455.5,-291.48 455.5,-270.44 455.5,-269.14"/>
</g>
<!-- DO_933e6a0 -->
<g id="node10" class="node">
<title>DO_933e6a0</title>
<polygon fill="none" stroke="orange" points="470,-228.72 303,-228.72 303,-192.72 470,-192.72 470,-228.72"/>
<text text-anchor="middle" x="386.5" y="-207.02" font-family="Times,serif" font-size="14.00">WALL_CELL_LOOP_1</text>
</g>
<!-- beginIf_IF_9392340&#45;&gt;DO_933e6a0 -->
<g id="edge7" class="edge">
<title>beginIf_IF_9392340&#45;&gt;DO_933e6a0</title>
<path fill="none" stroke="black" d="M455.45,-267.68C454.32,-266.76 434.16,-250.4 415.93,-235.6"/>
<polygon fill="black" stroke="black" points="417.74,-232.56 407.77,-228.98 413.32,-238 417.74,-232.56"/>
</g>
<!-- COMMENT_9354bc0+1 -->
<g id="node11" class="node">
<title>COMMENT_9354bc0+1</title>
<polygon fill="none" stroke="black" points="852,-228.72 519,-228.72 519,-192.72 858,-192.72 858,-222.72 852,-228.72"/>
<polyline fill="none" stroke="black" points="852,-228.72 852,-222.72 "/>
<polyline fill="none" stroke="black" points="858,-222.72 852,-222.72 "/>
<text text-anchor="middle" x="688.5" y="-207.02" font-family="Times,serif" font-size="14.00">Loop internal wall cells &#45;&gt; on OBST surfaces:</text>
</g>
<!-- beginIf_IF_9392340&#45;&gt;COMMENT_9354bc0+1 -->
<g id="edge10" class="edge">
<title>beginIf_IF_9392340&#45;&gt;COMMENT_9354bc0+1</title>
<path fill="none" stroke="black" d="M455.67,-267.68C459.88,-266.67 542.12,-246.9 607.68,-231.15"/>
<polygon fill="black" stroke="black" points="608.72,-234.49 617.63,-228.75 607.09,-227.69 608.72,-234.49"/>
</g>
<!-- endIf_IF_9392340 -->
<g id="node9" class="node">
<title>endIf_IF_9392340</title>
<ellipse fill="black" stroke="black" cx="572.5" cy="-73.36" rx="0.36" ry="0.36"/>
</g>
<!-- end_SUBPROGRAM_931efa0 -->
<g id="node13" class="node">
<title>end_SUBPROGRAM_931efa0</title>
<ellipse fill="black" stroke="black" cx="572.5" cy="-30" rx="7" ry="7"/>
</g>
<!-- endIf_IF_9392340&#45;&gt;end_SUBPROGRAM_931efa0 -->
<g id="edge13" class="edge">
<title>endIf_IF_9392340&#45;&gt;end_SUBPROGRAM_931efa0</title>
<path fill="none" stroke="black" d="M572.5,-72.24C572.5,-70.89 572.5,-58.27 572.5,-47.34"/>
<polygon fill="black" stroke="black" points="576,-47.1 572.5,-37.1 569,-47.1 576,-47.1"/>
</g>
<!-- DO_933e6a0&#45;&gt;endIf_IF_9392340 -->
<g id="edge8" class="edge">
<title>DO_933e6a0&#45;&gt;endIf_IF_9392340</title>
<path fill="none" stroke="black" d="M396.81,-192.57C413.14,-166.93 447.47,-118.95 489.5,-93.72 521.02,-74.8 569.36,-73.77 572.35,-73.72"/>
</g>
<!-- COMMENT_9375260+1 -->
<g id="node12" class="node">
<title>COMMENT_9375260+1</title>
<polygon fill="none" stroke="black" points="921.5,-145.72 501.5,-145.72 501.5,-109.72 927.5,-109.72 927.5,-139.72 921.5,-145.72"/>
<polyline fill="none" stroke="black" points="921.5,-145.72 921.5,-139.72 "/>
<polyline fill="none" stroke="black" points="927.5,-139.72 921.5,-139.72 "/>
<text text-anchor="middle" x="714.5" y="-124.02" font-family="Times,serif" font-size="14.00">V &#160;&#160;=&gt; Store the untouched U normal on internal WALLs.</text>
</g>
<!-- COMMENT_9354bc0+1&#45;&gt;COMMENT_9375260+1 -->
<g id="edge9" class="edge">
<title>COMMENT_9354bc0+1&#45;&gt;COMMENT_9375260+1</title>
<path fill="none" stroke="black" d="M694.01,-192.54C697.46,-181.8 701.97,-167.75 705.89,-155.56"/>
<polygon fill="black" stroke="black" points="709.27,-156.46 708.99,-145.87 702.61,-154.33 709.27,-156.46"/>
</g>
<!-- COMMENT_9375260+1&#45;&gt;endIf_IF_9392340 -->
<g id="edge11" class="edge">
<title>COMMENT_9375260+1&#45;&gt;endIf_IF_9392340</title>
<path fill="none" stroke="black" d="M668.79,-109.66C628.57,-94.65 575.91,-74.99 572.66,-73.78"/>
</g>
</g>
</svg>
