<?xml version="1.0" encoding="UTF-8" standalone="no"?>
<!DOCTYPE svg PUBLIC "-//W3C//DTD SVG 1.1//EN"
 "http://www.w3.org/Graphics/SVG/1.1/DTD/svg11.dtd">
<!-- Generated by graphviz version 2.43.0 (0)
 -->
<!-- Title: WALL_VELOCITY_NO_GRADH Pages: 1 -->
<svg width="968pt" height="835pt"
 viewBox="0.00 0.00 967.50 834.74" xmlns="http://www.w3.org/2000/svg" xmlns:xlink="http://www.w3.org/1999/xlink">
<g id="graph0" class="graph" transform="scale(1 1) rotate(0) translate(4 830.74)">
<title>WALL_VELOCITY_NO_GRADH</title>
<polygon fill="white" stroke="transparent" points="-4,4 -4,-830.74 963.5,-830.74 963.5,4 -4,4"/>
<text text-anchor="middle" x="479.75" y="-7.8" font-family="Times,serif" font-size="14.00">WALL_VELOCITY_NO_GRADH</text>
<g id="clust1" class="cluster">
<title>cluster_STORE_UN_COND</title>
<polygon fill="none" stroke="blue" points="28.5,-445.3 28.5,-685.74 882.5,-685.74 882.5,-445.3 28.5,-445.3"/>
<text text-anchor="middle" x="103.5" y="-670.54" font-family="Times,serif" font-size="14.00">STORE_UN_COND</text>
</g>
<g id="clust2" class="cluster">
<title>cluster_cond8d40760</title>
<polygon fill="none" stroke="black" points="36.5,-482.02 36.5,-646.02 874.5,-646.02 874.5,-482.02 36.5,-482.02"/>
<text text-anchor="middle" x="93" y="-630.82" font-family="Times,serif" font-size="14.00">cond8d40760</text>
</g>
<g id="clust3" class="cluster">
<title>cluster_PREDICTOR_COND</title>
<polygon fill="none" stroke="blue" points="287.5,-65 287.5,-373.3 951.5,-373.3 951.5,-65 287.5,-65"/>
<text text-anchor="middle" x="366" y="-358.1" font-family="Times,serif" font-size="14.00">PREDICTOR_COND</text>
</g>
<g id="clust4" class="cluster">
<title>cluster_cond8d75040</title>
<polygon fill="none" stroke="black" points="295.5,-258.58 295.5,-333.58 477.5,-333.58 477.5,-258.58 295.5,-258.58"/>
<text text-anchor="middle" x="352" y="-318.38" font-family="Times,serif" font-size="14.00">cond8d75040</text>
</g>
<g id="clust5" class="cluster">
<title>cluster_cond8d9c660</title>
<polygon fill="none" stroke="black" points="485.5,-93.86 485.5,-333.58 943.5,-333.58 943.5,-93.86 485.5,-93.86"/>
<text text-anchor="middle" x="541.5" y="-318.38" font-family="Times,serif" font-size="14.00">cond8d9c660</text>
</g>
<g id="clust6" class="cluster">
<title>cluster_WALL_CELL_LOOP_2</title>
<polygon fill="none" stroke="orange" points="493.5,-101.86 493.5,-250.58 935.5,-250.58 935.5,-101.86 493.5,-101.86"/>
<text text-anchor="middle" x="577" y="-235.38" font-family="Times,serif" font-size="14.00">WALL_CELL_LOOP_2</text>
</g>
<!-- start_SUBPROGRAM_8d40900 -->
<g id="node1" class="node">
<title>start_SUBPROGRAM_8d40900</title>
<ellipse fill="none" stroke="black" cx="455.5" cy="-819.74" rx="7" ry="7"/>
</g>
<!-- COMMENT_8d271c0+1 -->
<g id="node2" class="node">
<title>COMMENT_8d271c0+1</title>
<polygon fill="none" stroke="black" points="905,-776.74 0,-776.74 0,-693.74 911,-693.74 911,-770.74 905,-776.74"/>
<polyline fill="none" stroke="black" points="905,-776.74 905,-770.74 "/>
<polyline fill="none" stroke="black" points="911,-770.74 905,-770.74 "/>
<text text-anchor="middle" x="455.5" y="-761.54" font-family="Times,serif" font-size="14.00">!&gt; brief Recompute velocities on wall cells</text>
<text text-anchor="middle" x="455.5" y="-746.54" font-family="Times,serif" font-size="14.00">!&gt; param DT Time step (s)</text>
<text text-anchor="middle" x="455.5" y="-731.54" font-family="Times,serif" font-size="14.00">!&gt; param STORE_UN Flag indicating whether normal velocity component is to be saved</text>
<text text-anchor="middle" x="455.5" y="-716.54" font-family="Times,serif" font-size="14.00">!&gt; details Ensure that the correct normal derivative of H is used on the projection. It is only used when the Poisson equation</text>
<text text-anchor="middle" x="455.5" y="-701.54" font-family="Times,serif" font-size="14.00">!&gt; for the pressure is solved .NOT. PRES_ON_WHOLE_DOMAIN (i.e. using the GLMAT solver).</text>
</g>
<!-- start_SUBPROGRAM_8d40900&#45;&gt;COMMENT_8d271c0+1 -->
<g id="edge1" class="edge">
<title>start_SUBPROGRAM_8d40900&#45;&gt;COMMENT_8d271c0+1</title>
<path fill="none" stroke="black" d="M455.5,-812.54C455.5,-806.63 455.5,-797.13 455.5,-786.81"/>
<polygon fill="black" stroke="black" points="459,-786.75 455.5,-776.75 452,-786.75 459,-786.75"/>
</g>
<!-- beginIf_IF_8d40800 -->
<g id="node3" class="node">
<title>beginIf_IF_8d40800</title>
<ellipse fill="black" stroke="black" cx="455.5" cy="-654.38" rx="0.36" ry="0.36"/>
</g>
<!-- COMMENT_8d271c0+1&#45;&gt;beginIf_IF_8d40800 -->
<g id="edge5" class="edge">
<title>COMMENT_8d271c0+1&#45;&gt;beginIf_IF_8d40800</title>
<path fill="none" stroke="black" d="M455.5,-693.42C455.5,-674.78 455.5,-656.56 455.5,-655.43"/>
</g>
<!-- COMMENT_8d01700+1 -->
<g id="node5" class="node">
<title>COMMENT_8d01700+1</title>
<polygon fill="none" stroke="black" points="860.5,-615.02 44.5,-615.02 44.5,-562.02 866.5,-562.02 866.5,-609.02 860.5,-615.02"/>
<polyline fill="none" stroke="black" points="860.5,-615.02 860.5,-609.02 "/>
<polyline fill="none" stroke="black" points="866.5,-609.02 860.5,-609.02 "/>
<text text-anchor="middle" x="455.5" y="-599.82" font-family="Times,serif" font-size="14.00">These velocities from the beginning of step are needed for the velocity fix on wall cells at the corrector</text>
<text text-anchor="middle" x="455.5" y="-584.82" font-family="Times,serif" font-size="14.00">phase (i.e. the loops in VELOCITY_CORRECTOR will change U,V,W to wrong reults using (HP1&#45;HP)/DX gradients,</text>
<text text-anchor="middle" x="455.5" y="-569.82" font-family="Times,serif" font-size="14.00">when the pressure solver in the GLMAT solver.</text>
</g>
<!-- beginIf_IF_8d40800&#45;&gt;COMMENT_8d01700+1 -->
<g id="edge3" class="edge">
<title>beginIf_IF_8d40800&#45;&gt;COMMENT_8d01700+1</title>
<path fill="none" stroke="black" d="M455.5,-653.97C455.5,-653.09 455.5,-639.8 455.5,-625.52"/>
<polygon fill="black" stroke="black" points="459,-625.1 455.5,-615.1 452,-625.1 459,-625.1"/>
</g>
<!-- endIf_IF_8d40800 -->
<g id="node4" class="node">
<title>endIf_IF_8d40800</title>
<ellipse fill="black" stroke="black" cx="455.5" cy="-453.66" rx="0.36" ry="0.36"/>
</g>
<!-- COMMENT_8d2cea0+1 -->
<g id="node7" class="node">
<title>COMMENT_8d2cea0+1</title>
<polygon fill="none" stroke="black" points="824,-417.3 81,-417.3 81,-381.3 830,-381.3 830,-411.3 824,-417.3"/>
<polyline fill="none" stroke="black" points="824,-417.3 824,-411.3 "/>
<polyline fill="none" stroke="black" points="830,-411.3 824,-411.3 "/>
<text text-anchor="middle" x="455.5" y="-395.6" font-family="Times,serif" font-size="14.00">Case of not storing, recompute INTERNAL_WALL_CELL velocities, taking into acct that DHDN=0._EB:</text>
</g>
<!-- endIf_IF_8d40800&#45;&gt;COMMENT_8d2cea0+1 -->
<g id="edge6" class="edge">
<title>endIf_IF_8d40800&#45;&gt;COMMENT_8d2cea0+1</title>
<path fill="none" stroke="black" d="M455.5,-452.51C455.5,-451.07 455.5,-439.53 455.5,-427.66"/>
<polygon fill="black" stroke="black" points="459,-427.4 455.5,-417.4 452,-427.4 459,-427.4"/>
</g>
<!-- DO_8d36980 -->
<g id="node6" class="node">
<title>DO_8d36980</title>
<polygon fill="none" stroke="orange" points="513.5,-526.02 397.5,-526.02 397.5,-490.02 513.5,-490.02 513.5,-526.02"/>
<text text-anchor="middle" x="455.5" y="-504.32" font-family="Times,serif" font-size="14.00">STORE_LOOP</text>
</g>
<!-- COMMENT_8d01700+1&#45;&gt;DO_8d36980 -->
<g id="edge2" class="edge">
<title>COMMENT_8d01700+1&#45;&gt;DO_8d36980</title>
<path fill="none" stroke="black" d="M455.5,-561.82C455.5,-553.73 455.5,-544.78 455.5,-536.57"/>
<polygon fill="black" stroke="black" points="459,-536.35 455.5,-526.35 452,-536.35 459,-536.35"/>
</g>
<!-- DO_8d36980&#45;&gt;endIf_IF_8d40800 -->
<g id="edge4" class="edge">
<title>DO_8d36980&#45;&gt;endIf_IF_8d40800</title>
<path fill="none" stroke="black" d="M455.5,-489.96C455.5,-474.95 455.5,-455.29 455.5,-454.08"/>
</g>
<!-- beginIf_IF_8d74fc0 -->
<g id="node8" class="node">
<title>beginIf_IF_8d74fc0</title>
<ellipse fill="black" stroke="black" cx="455.5" cy="-341.94" rx="0.36" ry="0.36"/>
</g>
<!-- COMMENT_8d2cea0+1&#45;&gt;beginIf_IF_8d74fc0 -->
<g id="edge14" class="edge">
<title>COMMENT_8d2cea0+1&#45;&gt;beginIf_IF_8d74fc0</title>
<path fill="none" stroke="black" d="M455.5,-381.09C455.5,-365.34 455.5,-344.3 455.5,-343"/>
</g>
<!-- DO_8d44540 -->
<g id="node10" class="node">
<title>DO_8d44540</title>
<polygon fill="none" stroke="orange" points="470,-302.58 303,-302.58 303,-266.58 470,-266.58 470,-302.58"/>
<text text-anchor="middle" x="386.5" y="-280.88" font-family="Times,serif" font-size="14.00">WALL_CELL_LOOP_1</text>
</g>
<!-- beginIf_IF_8d74fc0&#45;&gt;DO_8d44540 -->
<g id="edge7" class="edge">
<title>beginIf_IF_8d74fc0&#45;&gt;DO_8d44540</title>
<path fill="none" stroke="black" d="M455.45,-341.54C454.32,-340.62 434.16,-324.26 415.93,-309.46"/>
<polygon fill="black" stroke="black" points="417.74,-306.42 407.77,-302.84 413.32,-311.86 417.74,-306.42"/>
</g>
<!-- COMMENT_8d61c00+1 -->
<g id="node11" class="node">
<title>COMMENT_8d61c00+1</title>
<polygon fill="none" stroke="black" points="852,-302.58 519,-302.58 519,-266.58 858,-266.58 858,-296.58 852,-302.58"/>
<polyline fill="none" stroke="black" points="852,-302.58 852,-296.58 "/>
<polyline fill="none" stroke="black" points="858,-296.58 852,-296.58 "/>
<text text-anchor="middle" x="688.5" y="-280.88" font-family="Times,serif" font-size="14.00">Loop internal wall cells &#45;&gt; on OBST surfaces:</text>
</g>
<!-- beginIf_IF_8d74fc0&#45;&gt;COMMENT_8d61c00+1 -->
<g id="edge12" class="edge">
<title>beginIf_IF_8d74fc0&#45;&gt;COMMENT_8d61c00+1</title>
<path fill="none" stroke="black" d="M455.67,-341.54C459.88,-340.53 542.12,-320.76 607.68,-305.01"/>
<polygon fill="black" stroke="black" points="608.72,-308.35 617.63,-302.61 607.09,-301.55 608.72,-308.35"/>
</g>
<!-- endIf_IF_8d74fc0 -->
<g id="node9" class="node">
<title>endIf_IF_8d74fc0</title>
<ellipse fill="black" stroke="black" cx="519.5" cy="-73.36" rx="0.36" ry="0.36"/>
</g>
<!-- end_SUBPROGRAM_8d40900 -->
<g id="node15" class="node">
<title>end_SUBPROGRAM_8d40900</title>
<ellipse fill="black" stroke="black" cx="519.5" cy="-30" rx="7" ry="7"/>
</g>
<!-- endIf_IF_8d74fc0&#45;&gt;end_SUBPROGRAM_8d40900 -->
<g id="edge15" class="edge">
<title>endIf_IF_8d74fc0&#45;&gt;end_SUBPROGRAM_8d40900</title>
<path fill="none" stroke="black" d="M519.5,-72.24C519.5,-70.89 519.5,-58.27 519.5,-47.34"/>
<polygon fill="black" stroke="black" points="523,-47.1 519.5,-37.1 516,-47.1 523,-47.1"/>
</g>
<!-- DO_8d44540&#45;&gt;endIf_IF_8d74fc0 -->
<g id="edge8" class="edge">
<title>DO_8d44540&#45;&gt;endIf_IF_8d74fc0</title>
<path fill="none" stroke="black" d="M392.57,-266.42C405.77,-230.95 439.92,-148.32 489.5,-93.86 499.97,-82.36 518.31,-74.24 519.44,-73.74"/>
</g>
<!-- beginDO_DO_8dab7a0 -->
<g id="node12" class="node">
<title>beginDO_DO_8dab7a0</title>
<ellipse fill="black" stroke="black" cx="701.5" cy="-219.22" rx="0.36" ry="0.36"/>
</g>
<!-- COMMENT_8d61c00+1&#45;&gt;beginDO_DO_8dab7a0 -->
<g id="edge10" class="edge">
<title>COMMENT_8d61c00+1&#45;&gt;beginDO_DO_8dab7a0</title>
<path fill="none" stroke="black" d="M693.61,-266.56C695.02,-261.45 696.45,-255.82 697.5,-250.58 700.1,-237.65 701.42,-221.28 701.5,-220.27"/>
</g>
<!-- COMMENT_8d81fe0+1 -->
<g id="node14" class="node">
<title>COMMENT_8d81fe0+1</title>
<polygon fill="none" stroke="black" points="921.5,-182.72 501.5,-182.72 501.5,-146.72 927.5,-146.72 927.5,-176.72 921.5,-182.72"/>
<polyline fill="none" stroke="black" points="921.5,-182.72 921.5,-176.72 "/>
<polyline fill="none" stroke="black" points="927.5,-176.72 921.5,-176.72 "/>
<text text-anchor="middle" x="714.5" y="-161.02" font-family="Times,serif" font-size="14.00">V &#160;&#160;=&gt; Store the untouched U normal on internal WALLs.</text>
</g>
<!-- beginDO_DO_8dab7a0&#45;&gt;COMMENT_8d81fe0+1 -->
<g id="edge9" class="edge">
<title>beginDO_DO_8dab7a0&#45;&gt;COMMENT_8d81fe0+1</title>
<path fill="none" stroke="black" d="M701.54,-218.57C701.9,-217.09 704.86,-205.04 707.85,-192.82"/>
<polygon fill="black" stroke="black" points="711.34,-193.29 710.32,-182.74 704.54,-191.62 711.34,-193.29"/>
</g>
<!-- endDO_DO_8dab7a0 -->
<g id="node13" class="node">
<title>endDO_DO_8dab7a0</title>
<ellipse fill="black" stroke="black" cx="607.5" cy="-110.22" rx="0.36" ry="0.36"/>
</g>
<!-- endDO_DO_8dab7a0&#45;&gt;endIf_IF_8d74fc0 -->
<g id="edge13" class="edge">
<title>endDO_DO_8dab7a0&#45;&gt;endIf_IF_8d74fc0</title>
<path fill="none" stroke="black" d="M607.51,-109.1C607.61,-107.94 608.22,-98.49 603.5,-93.86 590.01,-80.63 521.68,-73.93 519.55,-73.72"/>
</g>
<!-- COMMENT_8d81fe0+1&#45;&gt;endDO_DO_8dab7a0 -->
<g id="edge11" class="edge">
<title>COMMENT_8d81fe0+1&#45;&gt;endDO_DO_8dab7a0</title>
<path fill="none" stroke="black" d="M680.06,-146.66C649.75,-131.65 610.07,-111.99 607.62,-110.78"/>
</g>
</g>
</svg>
