<?xml version="1.0" encoding="UTF-8" standalone="no"?>
<!DOCTYPE svg PUBLIC "-//W3C//DTD SVG 1.1//EN"
 "http://www.w3.org/Graphics/SVG/1.1/DTD/svg11.dtd">
<!-- Generated by graphviz version 2.43.0 (0)
 -->
<!-- Title: WRITE_CFL_FILE Pages: 1 -->
<svg width="616pt" height="313pt"
 viewBox="0.00 0.00 616.00 313.00" xmlns="http://www.w3.org/2000/svg" xmlns:xlink="http://www.w3.org/1999/xlink">
<g id="graph0" class="graph" transform="scale(1 1) rotate(0) translate(4 309)">
<title>WRITE_CFL_FILE</title>
<polygon fill="white" stroke="transparent" points="-4,4 -4,-309 612,-309 612,4 -4,4"/>
<text text-anchor="middle" x="304" y="-7.8" font-family="Times,serif" font-size="14.00">WRITE_CFL_FILE</text>
<!-- start_SUBPROGRAM_8dd81a0 -->
<g id="node1" class="node">
<title>start_SUBPROGRAM_8dd81a0</title>
<ellipse fill="none" stroke="black" cx="304" cy="-298" rx="7" ry="7"/>
</g>
<!-- COMMENT_8d8a680+1 -->
<g id="node2" class="node">
<title>COMMENT_8d8a680+1</title>
<polygon fill="none" stroke="black" points="602,-255 0,-255 0,-217 608,-217 608,-249 602,-255"/>
<polyline fill="none" stroke="black" points="602,-255 602,-249 "/>
<polyline fill="none" stroke="black" points="608,-249 602,-249 "/>
<text text-anchor="middle" x="304" y="-239.8" font-family="Times,serif" font-size="14.00">!&gt; brief Gather all the CFL values and mesh indices to node 0 and then</text>
<text text-anchor="middle" x="304" y="-224.8" font-family="Times,serif" font-size="14.00">!&gt; write out to a special file the max value and mesh and indices of the max value.</text>
</g>
<!-- start_SUBPROGRAM_8dd81a0&#45;&gt;COMMENT_8d8a680+1 -->
<g id="edge1" class="edge">
<title>start_SUBPROGRAM_8dd81a0&#45;&gt;COMMENT_8d8a680+1</title>
<path fill="none" stroke="black" d="M304,-290.58C304,-284.41 304,-274.64 304,-265.12"/>
<polygon fill="black" stroke="black" points="307.5,-265.08 304,-255.08 300.5,-265.08 307.5,-265.08"/>
</g>
<!-- CALL_8db25a0 -->
<g id="node3" class="node">
<title>CALL_8db25a0</title>
<g id="a_node3"><a xlink:href="MPI_GATHERV.svg" xlink:title="MPI_GATHERV">
<polygon fill="#ffe800" stroke="black" points="366,-181 242,-181 242,-177 238,-177 238,-173 242,-173 242,-153 238,-153 238,-149 242,-149 242,-145 366,-145 366,-181"/>
<polyline fill="none" stroke="black" points="242,-177 246,-177 246,-173 242,-173 "/>
<polyline fill="none" stroke="black" points="242,-153 246,-153 246,-149 242,-149 "/>
<text text-anchor="middle" x="304" y="-159.3" font-family="Times,serif" font-size="14.00">MPI_GATHERV</text>
</a>
</g>
</g>
<!-- COMMENT_8d8a680+1&#45;&gt;CALL_8db25a0 -->
<g id="edge2" class="edge">
<title>COMMENT_8d8a680+1&#45;&gt;CALL_8db25a0</title>
<path fill="none" stroke="black" d="M304,-216.72C304,-208.97 304,-199.79 304,-191.27"/>
<polygon fill="black" stroke="black" points="307.5,-191 304,-181 300.5,-191 307.5,-191"/>
</g>
<!-- CALL_8db6120 -->
<g id="node4" class="node">
<title>CALL_8db6120</title>
<g id="a_node4"><a xlink:href="MPI_GATHERV.svg" xlink:title="MPI_GATHERV">
<polygon fill="#ffe800" stroke="black" points="366,-109 242,-109 242,-105 238,-105 238,-101 242,-101 242,-81 238,-81 238,-77 242,-77 242,-73 366,-73 366,-109"/>
<polyline fill="none" stroke="black" points="242,-105 246,-105 246,-101 242,-101 "/>
<polyline fill="none" stroke="black" points="242,-81 246,-81 246,-77 242,-77 "/>
<text text-anchor="middle" x="304" y="-87.3" font-family="Times,serif" font-size="14.00">MPI_GATHERV</text>
</a>
</g>
</g>
<!-- CALL_8db25a0&#45;&gt;CALL_8db6120 -->
<g id="edge3" class="edge">
<title>CALL_8db25a0&#45;&gt;CALL_8db6120</title>
<path fill="none" stroke="black" d="M304,-144.7C304,-136.98 304,-127.71 304,-119.11"/>
<polygon fill="black" stroke="black" points="307.5,-119.1 304,-109.1 300.5,-119.1 307.5,-119.1"/>
</g>
<!-- end_SUBPROGRAM_8dd81a0 -->
<g id="node5" class="node">
<title>end_SUBPROGRAM_8dd81a0</title>
<ellipse fill="black" stroke="black" cx="304" cy="-30" rx="7" ry="7"/>
</g>
<!-- CALL_8db6120&#45;&gt;end_SUBPROGRAM_8dd81a0 -->
<g id="edge4" class="edge">
<title>CALL_8db6120&#45;&gt;end_SUBPROGRAM_8dd81a0</title>
<path fill="none" stroke="black" d="M304,-72.93C304,-64.89 304,-55.33 304,-47.37"/>
<polygon fill="black" stroke="black" points="307.5,-47.22 304,-37.22 300.5,-47.22 307.5,-47.22"/>
</g>
</g>
</svg>
