<?xml version="1.0" encoding="UTF-8" standalone="no"?>
<!DOCTYPE svg PUBLIC "-//W3C//DTD SVG 1.1//EN"
 "http://www.w3.org/Graphics/SVG/1.1/DTD/svg11.dtd">
<!-- Generated by graphviz version 2.43.0 (0)
 -->
<!-- Title: WRITE_STRINGS Pages: 1 -->
<svg width="487pt" height="1035pt"
 viewBox="0.00 0.00 487.00 1035.44" xmlns="http://www.w3.org/2000/svg" xmlns:xlink="http://www.w3.org/1999/xlink">
<g id="graph0" class="graph" transform="scale(1 1) rotate(0) translate(4 1031.44)">
<title>WRITE_STRINGS</title>
<polygon fill="white" stroke="transparent" points="-4,4 -4,-1031.44 483,-1031.44 483,4 -4,4"/>
<text text-anchor="middle" x="239.5" y="-7.8" font-family="Times,serif" font-size="14.00">WRITE_STRINGS</text>
<g id="clust1" class="cluster">
<title>cluster_OTHER_MESH_LOOP</title>
<polygon fill="none" stroke="orange" points="152.5,-209 152.5,-501.44 326.5,-501.44 326.5,-209 152.5,-209"/>
<text text-anchor="middle" x="238" y="-486.24" font-family="Times,serif" font-size="14.00">OTHER_MESH_LOOP</text>
</g>
<!-- start_SUBPROGRAM_85b8f60 -->
<g id="node1" class="node">
<title>start_SUBPROGRAM_85b8f60</title>
<ellipse fill="none" stroke="black" cx="239.5" cy="-1020.44" rx="7" ry="7"/>
</g>
<!-- COMMENT_8580400+1 -->
<g id="node2" class="node">
<title>COMMENT_8580400+1</title>
<polygon fill="none" stroke="black" points="473,-977.44 0,-977.44 0,-941.44 479,-941.44 479,-971.44 473,-977.44"/>
<polyline fill="none" stroke="black" points="473,-977.44 473,-971.44 "/>
<polyline fill="none" stroke="black" points="479,-971.44 473,-971.44 "/>
<text text-anchor="middle" x="239.5" y="-955.74" font-family="Times,serif" font-size="14.00">!&gt; brief Write character strings out to the Smokeview (.smv) file</text>
</g>
<!-- start_SUBPROGRAM_85b8f60&#45;&gt;COMMENT_8580400+1 -->
<g id="edge1" class="edge">
<title>start_SUBPROGRAM_85b8f60&#45;&gt;COMMENT_8580400+1</title>
<path fill="none" stroke="black" d="M239.5,-1013.13C239.5,-1006.93 239.5,-997.03 239.5,-987.49"/>
<polygon fill="black" stroke="black" points="243,-987.46 239.5,-977.46 236,-987.46 243,-987.46"/>
</g>
<!-- COMMENT_857dc80+1 -->
<g id="node3" class="node">
<title>COMMENT_857dc80+1</title>
<polygon fill="none" stroke="black" points="459,-905.44 14,-905.44 14,-869.44 465,-869.44 465,-899.44 459,-905.44"/>
<polyline fill="none" stroke="black" points="459,-905.44 459,-899.44 "/>
<polyline fill="none" stroke="black" points="465,-899.44 459,-899.44 "/>
<text text-anchor="middle" x="239.5" y="-883.74" font-family="Times,serif" font-size="14.00">CHARACTER,DIMENSION(:), ALLOCATABLE :: STRING_BUF</text>
</g>
<!-- COMMENT_8580400+1&#45;&gt;COMMENT_857dc80+1 -->
<g id="edge2" class="edge">
<title>COMMENT_8580400+1&#45;&gt;COMMENT_857dc80+1</title>
<path fill="none" stroke="black" d="M239.5,-941.14C239.5,-933.42 239.5,-924.15 239.5,-915.55"/>
<polygon fill="black" stroke="black" points="243,-915.54 239.5,-905.54 236,-915.54 243,-915.54"/>
</g>
<!-- COMMENT_8580e00+1 -->
<g id="node4" class="node">
<title>COMMENT_8580e00+1</title>
<polygon fill="none" stroke="black" points="389.5,-833.44 83.5,-833.44 83.5,-797.44 395.5,-797.44 395.5,-827.44 389.5,-833.44"/>
<polyline fill="none" stroke="black" points="389.5,-833.44 389.5,-827.44 "/>
<polyline fill="none" stroke="black" points="395.5,-827.44 389.5,-827.44 "/>
<text text-anchor="middle" x="239.5" y="-811.74" font-family="Times,serif" font-size="14.00">All meshes send their STRINGs to node 0</text>
</g>
<!-- COMMENT_857dc80+1&#45;&gt;COMMENT_8580e00+1 -->
<g id="edge3" class="edge">
<title>COMMENT_857dc80+1&#45;&gt;COMMENT_8580e00+1</title>
<path fill="none" stroke="black" d="M239.5,-869.14C239.5,-861.42 239.5,-852.15 239.5,-843.55"/>
<polygon fill="black" stroke="black" points="243,-843.54 239.5,-833.54 236,-843.54 243,-843.54"/>
</g>
<!-- CALL_8584dc0 -->
<g id="node5" class="node">
<title>CALL_8584dc0</title>
<g id="a_node5"><a xlink:href="MPI_SEND.svg" xlink:title="MPI_SEND">
<polygon fill="#ffe800" stroke="black" points="287.5,-761.44 191.5,-761.44 191.5,-757.44 187.5,-757.44 187.5,-753.44 191.5,-753.44 191.5,-733.44 187.5,-733.44 187.5,-729.44 191.5,-729.44 191.5,-725.44 287.5,-725.44 287.5,-761.44"/>
<polyline fill="none" stroke="black" points="191.5,-757.44 195.5,-757.44 195.5,-753.44 191.5,-753.44 "/>
<polyline fill="none" stroke="black" points="191.5,-733.44 195.5,-733.44 195.5,-729.44 191.5,-729.44 "/>
<text text-anchor="middle" x="239.5" y="-739.74" font-family="Times,serif" font-size="14.00">MPI_SEND</text>
</a>
</g>
</g>
<!-- COMMENT_8580e00+1&#45;&gt;CALL_8584dc0 -->
<g id="edge4" class="edge">
<title>COMMENT_8580e00+1&#45;&gt;CALL_8584dc0</title>
<path fill="none" stroke="black" d="M239.5,-797.14C239.5,-789.42 239.5,-780.15 239.5,-771.55"/>
<polygon fill="black" stroke="black" points="243,-771.54 239.5,-761.54 236,-771.54 243,-771.54"/>
</g>
<!-- COMMENT_8583ce0+1 -->
<g id="node6" class="node">
<title>COMMENT_8583ce0+1</title>
<polygon fill="none" stroke="black" points="302,-689.44 171,-689.44 171,-653.44 308,-653.44 308,-683.44 302,-689.44"/>
<polyline fill="none" stroke="black" points="302,-689.44 302,-683.44 "/>
<polyline fill="none" stroke="black" points="308,-683.44 302,-683.44 "/>
<text text-anchor="middle" x="239.5" y="-667.74" font-family="Times,serif" font-size="14.00">Pack the strings:</text>
</g>
<!-- CALL_8584dc0&#45;&gt;COMMENT_8583ce0+1 -->
<g id="edge5" class="edge">
<title>CALL_8584dc0&#45;&gt;COMMENT_8583ce0+1</title>
<path fill="none" stroke="black" d="M239.5,-725.14C239.5,-717.42 239.5,-708.15 239.5,-699.55"/>
<polygon fill="black" stroke="black" points="243,-699.54 239.5,-689.54 236,-699.54 243,-699.54"/>
</g>
<!-- CALL_85891c0 -->
<g id="node7" class="node">
<title>CALL_85891c0</title>
<g id="a_node7"><a xlink:href="MPI_SEND.svg" xlink:title="MPI_SEND">
<polygon fill="#ffe800" stroke="black" points="287.5,-617.44 191.5,-617.44 191.5,-613.44 187.5,-613.44 187.5,-609.44 191.5,-609.44 191.5,-589.44 187.5,-589.44 187.5,-585.44 191.5,-585.44 191.5,-581.44 287.5,-581.44 287.5,-617.44"/>
<polyline fill="none" stroke="black" points="191.5,-613.44 195.5,-613.44 195.5,-609.44 191.5,-609.44 "/>
<polyline fill="none" stroke="black" points="191.5,-589.44 195.5,-589.44 195.5,-585.44 191.5,-585.44 "/>
<text text-anchor="middle" x="239.5" y="-595.74" font-family="Times,serif" font-size="14.00">MPI_SEND</text>
</a>
</g>
</g>
<!-- COMMENT_8583ce0+1&#45;&gt;CALL_85891c0 -->
<g id="edge6" class="edge">
<title>COMMENT_8583ce0+1&#45;&gt;CALL_85891c0</title>
<path fill="none" stroke="black" d="M239.5,-653.14C239.5,-645.42 239.5,-636.15 239.5,-627.55"/>
<polygon fill="black" stroke="black" points="243,-627.54 239.5,-617.54 236,-627.54 243,-627.54"/>
</g>
<!-- COMMENT_8588780+1 -->
<g id="node8" class="node">
<title>COMMENT_8588780+1</title>
<polygon fill="none" stroke="black" points="464,-545.44 9,-545.44 9,-509.44 470,-509.44 470,-539.44 464,-545.44"/>
<polyline fill="none" stroke="black" points="464,-545.44 464,-539.44 "/>
<polyline fill="none" stroke="black" points="470,-539.44 464,-539.44 "/>
<text text-anchor="middle" x="239.5" y="-523.74" font-family="Times,serif" font-size="14.00">Node 0 receives the STRINGs and writes them to the .smv file</text>
</g>
<!-- CALL_85891c0&#45;&gt;COMMENT_8588780+1 -->
<g id="edge7" class="edge">
<title>CALL_85891c0&#45;&gt;COMMENT_8588780+1</title>
<path fill="none" stroke="black" d="M239.5,-581.14C239.5,-573.42 239.5,-564.15 239.5,-555.55"/>
<polygon fill="black" stroke="black" points="243,-555.54 239.5,-545.54 236,-555.54 243,-555.54"/>
</g>
<!-- beginDO_DO_859bc20 -->
<g id="node9" class="node">
<title>beginDO_DO_859bc20</title>
<ellipse fill="black" stroke="black" cx="239.5" cy="-470.08" rx="0.36" ry="0.36"/>
</g>
<!-- COMMENT_8588780+1&#45;&gt;beginDO_DO_859bc20 -->
<g id="edge11" class="edge">
<title>COMMENT_8588780+1&#45;&gt;beginDO_DO_859bc20</title>
<path fill="none" stroke="black" d="M239.5,-509.23C239.5,-493.48 239.5,-472.44 239.5,-471.14"/>
</g>
<!-- CALL_8590680 -->
<g id="node11" class="node">
<title>CALL_8590680</title>
<g id="a_node11"><a xlink:href="MPI_RECV.svg" xlink:title="MPI_RECV">
<polygon fill="#ffe800" stroke="black" points="286.5,-433.72 192.5,-433.72 192.5,-429.72 188.5,-429.72 188.5,-425.72 192.5,-425.72 192.5,-405.72 188.5,-405.72 188.5,-401.72 192.5,-401.72 192.5,-397.72 286.5,-397.72 286.5,-433.72"/>
<polyline fill="none" stroke="black" points="192.5,-429.72 196.5,-429.72 196.5,-425.72 192.5,-425.72 "/>
<polyline fill="none" stroke="black" points="192.5,-405.72 196.5,-405.72 196.5,-401.72 192.5,-401.72 "/>
<text text-anchor="middle" x="239.5" y="-412.02" font-family="Times,serif" font-size="14.00">MPI_RECV</text>
</a>
</g>
</g>
<!-- beginDO_DO_859bc20&#45;&gt;CALL_8590680 -->
<g id="edge8" class="edge">
<title>beginDO_DO_859bc20&#45;&gt;CALL_8590680</title>
<path fill="none" stroke="black" d="M239.5,-469.57C239.5,-468.09 239.5,-456.04 239.5,-443.82"/>
<polygon fill="black" stroke="black" points="243,-443.74 239.5,-433.74 236,-443.74 243,-443.74"/>
</g>
<!-- endDO_DO_859bc20 -->
<g id="node10" class="node">
<title>endDO_DO_859bc20</title>
<ellipse fill="black" stroke="black" cx="239.5" cy="-217.36" rx="0.36" ry="0.36"/>
</g>
<!-- IF_85ba7c0 -->
<g id="node14" class="node">
<title>IF_85ba7c0</title>
<polygon fill="none" stroke="blue" points="279.5,-181 199.5,-181 199.5,-145 279.5,-145 279.5,-181"/>
<text text-anchor="middle" x="239.5" y="-159.3" font-family="Times,serif" font-size="14.00">HVAC_IF</text>
</g>
<!-- endDO_DO_859bc20&#45;&gt;IF_85ba7c0 -->
<g id="edge13" class="edge">
<title>endDO_DO_859bc20&#45;&gt;IF_85ba7c0</title>
<path fill="none" stroke="black" d="M239.5,-216.21C239.5,-214.77 239.5,-203.23 239.5,-191.36"/>
<polygon fill="black" stroke="black" points="243,-191.1 239.5,-181.1 236,-191.1 243,-191.1"/>
</g>
<!-- CALL_8594360 -->
<g id="node12" class="node">
<title>CALL_8594360</title>
<g id="a_node12"><a xlink:href="MPI_RECV.svg" xlink:title="MPI_RECV">
<polygon fill="#ffe800" stroke="black" points="286.5,-361.72 192.5,-361.72 192.5,-357.72 188.5,-357.72 188.5,-353.72 192.5,-353.72 192.5,-333.72 188.5,-333.72 188.5,-329.72 192.5,-329.72 192.5,-325.72 286.5,-325.72 286.5,-361.72"/>
<polyline fill="none" stroke="black" points="192.5,-357.72 196.5,-357.72 196.5,-353.72 192.5,-353.72 "/>
<polyline fill="none" stroke="black" points="192.5,-333.72 196.5,-333.72 196.5,-329.72 192.5,-329.72 "/>
<text text-anchor="middle" x="239.5" y="-340.02" font-family="Times,serif" font-size="14.00">MPI_RECV</text>
</a>
</g>
</g>
<!-- CALL_8590680&#45;&gt;CALL_8594360 -->
<g id="edge9" class="edge">
<title>CALL_8590680&#45;&gt;CALL_8594360</title>
<path fill="none" stroke="black" d="M239.5,-397.42C239.5,-389.7 239.5,-380.43 239.5,-371.83"/>
<polygon fill="black" stroke="black" points="243,-371.82 239.5,-361.82 236,-371.82 243,-371.82"/>
</g>
<!-- COMMENT_8590fe0+1 -->
<g id="node13" class="node">
<title>COMMENT_8590fe0+1</title>
<polygon fill="none" stroke="black" points="312.5,-289.72 160.5,-289.72 160.5,-253.72 318.5,-253.72 318.5,-283.72 312.5,-289.72"/>
<polyline fill="none" stroke="black" points="312.5,-289.72 312.5,-283.72 "/>
<polyline fill="none" stroke="black" points="318.5,-283.72 312.5,-283.72 "/>
<text text-anchor="middle" x="239.5" y="-268.02" font-family="Times,serif" font-size="14.00">Unpack the strings:</text>
</g>
<!-- CALL_8594360&#45;&gt;COMMENT_8590fe0+1 -->
<g id="edge10" class="edge">
<title>CALL_8594360&#45;&gt;COMMENT_8590fe0+1</title>
<path fill="none" stroke="black" d="M239.5,-325.42C239.5,-317.7 239.5,-308.43 239.5,-299.83"/>
<polygon fill="black" stroke="black" points="243,-299.82 239.5,-289.82 236,-299.82 243,-299.82"/>
</g>
<!-- COMMENT_8590fe0+1&#45;&gt;endDO_DO_859bc20 -->
<g id="edge12" class="edge">
<title>COMMENT_8590fe0+1&#45;&gt;endDO_DO_859bc20</title>
<path fill="none" stroke="black" d="M239.5,-253.66C239.5,-238.65 239.5,-218.99 239.5,-217.78"/>
</g>
<!-- COMMENT_85bb200+1 -->
<g id="node15" class="node">
<title>COMMENT_85bb200+1</title>
<polygon fill="none" stroke="black" points="361.5,-109 111.5,-109 111.5,-73 367.5,-73 367.5,-103 361.5,-109"/>
<polyline fill="none" stroke="black" points="361.5,-109 361.5,-103 "/>
<polyline fill="none" stroke="black" points="367.5,-103 361.5,-103 "/>
<text text-anchor="middle" x="239.5" y="-87.3" font-family="Times,serif" font-size="14.00">All STRING arrays are zeroed out</text>
</g>
<!-- IF_85ba7c0&#45;&gt;COMMENT_85bb200+1 -->
<g id="edge14" class="edge">
<title>IF_85ba7c0&#45;&gt;COMMENT_85bb200+1</title>
<path fill="none" stroke="black" d="M239.5,-144.7C239.5,-136.98 239.5,-127.71 239.5,-119.11"/>
<polygon fill="black" stroke="black" points="243,-119.1 239.5,-109.1 236,-119.1 243,-119.1"/>
</g>
<!-- end_SUBPROGRAM_85b8f60 -->
<g id="node16" class="node">
<title>end_SUBPROGRAM_85b8f60</title>
<ellipse fill="black" stroke="black" cx="239.5" cy="-30" rx="7" ry="7"/>
</g>
<!-- COMMENT_85bb200+1&#45;&gt;end_SUBPROGRAM_85b8f60 -->
<g id="edge15" class="edge">
<title>COMMENT_85bb200+1&#45;&gt;end_SUBPROGRAM_85b8f60</title>
<path fill="none" stroke="black" d="M239.5,-72.93C239.5,-64.89 239.5,-55.33 239.5,-47.37"/>
<polygon fill="black" stroke="black" points="243,-47.22 239.5,-37.22 236,-47.22 243,-47.22"/>
</g>
</g>
</svg>
