<?xml version="1.0" encoding="UTF-8" standalone="no"?>
<!DOCTYPE svg PUBLIC "-//W3C//DTD SVG 1.1//EN"
 "http://www.w3.org/Graphics/SVG/1.1/DTD/svg11.dtd">
<!-- Generated by graphviz version 2.43.0 (0)
 -->
<!-- Title: WRITE_STRINGS Pages: 1 -->
<svg width="487pt" height="962pt"
 viewBox="0.00 0.00 487.00 962.00" xmlns="http://www.w3.org/2000/svg" xmlns:xlink="http://www.w3.org/1999/xlink">
<g id="graph0" class="graph" transform="scale(1 1) rotate(0) translate(4 958)">
<title>WRITE_STRINGS</title>
<polygon fill="white" stroke="transparent" points="-4,4 -4,-958 483,-958 483,4 -4,4"/>
<text text-anchor="middle" x="239.5" y="-7.8" font-family="Times,serif" font-size="14.00">WRITE_STRINGS</text>
<g id="clust1" class="cluster">
<title>cluster_OTHER_MESH_LOOP</title>
<polygon fill="none" stroke="orange" points="152.5,-209 152.5,-428 326.5,-428 326.5,-209 152.5,-209"/>
<text text-anchor="middle" x="238" y="-412.8" font-family="Times,serif" font-size="14.00">OTHER_MESH_LOOP</text>
</g>
<!-- start_SUBPROGRAM_966c100 -->
<g id="node1" class="node">
<title>start_SUBPROGRAM_966c100</title>
<ellipse fill="none" stroke="black" cx="239.5" cy="-947" rx="7" ry="7"/>
</g>
<!-- COMMENT_962fcc0+1 -->
<g id="node2" class="node">
<title>COMMENT_962fcc0+1</title>
<polygon fill="none" stroke="black" points="473,-904 0,-904 0,-868 479,-868 479,-898 473,-904"/>
<polyline fill="none" stroke="black" points="473,-904 473,-898 "/>
<polyline fill="none" stroke="black" points="479,-898 473,-898 "/>
<text text-anchor="middle" x="239.5" y="-882.3" font-family="Times,serif" font-size="14.00">!&gt; brief Write character strings out to the Smokeview (.smv) file</text>
</g>
<!-- start_SUBPROGRAM_966c100&#45;&gt;COMMENT_962fcc0+1 -->
<g id="edge1" class="edge">
<title>start_SUBPROGRAM_966c100&#45;&gt;COMMENT_962fcc0+1</title>
<path fill="none" stroke="black" d="M239.5,-939.69C239.5,-933.49 239.5,-923.59 239.5,-914.05"/>
<polygon fill="black" stroke="black" points="243,-914.02 239.5,-904.02 236,-914.02 243,-914.02"/>
</g>
<!-- COMMENT_962df00+1 -->
<g id="node3" class="node">
<title>COMMENT_962df00+1</title>
<polygon fill="none" stroke="black" points="459,-832 14,-832 14,-796 465,-796 465,-826 459,-832"/>
<polyline fill="none" stroke="black" points="459,-832 459,-826 "/>
<polyline fill="none" stroke="black" points="465,-826 459,-826 "/>
<text text-anchor="middle" x="239.5" y="-810.3" font-family="Times,serif" font-size="14.00">CHARACTER,DIMENSION(:), ALLOCATABLE :: STRING_BUF</text>
</g>
<!-- COMMENT_962fcc0+1&#45;&gt;COMMENT_962df00+1 -->
<g id="edge2" class="edge">
<title>COMMENT_962fcc0+1&#45;&gt;COMMENT_962df00+1</title>
<path fill="none" stroke="black" d="M239.5,-867.7C239.5,-859.98 239.5,-850.71 239.5,-842.11"/>
<polygon fill="black" stroke="black" points="243,-842.1 239.5,-832.1 236,-842.1 243,-842.1"/>
</g>
<!-- COMMENT_96296a0+1 -->
<g id="node4" class="node">
<title>COMMENT_96296a0+1</title>
<polygon fill="none" stroke="black" points="389.5,-760 83.5,-760 83.5,-724 395.5,-724 395.5,-754 389.5,-760"/>
<polyline fill="none" stroke="black" points="389.5,-760 389.5,-754 "/>
<polyline fill="none" stroke="black" points="395.5,-754 389.5,-754 "/>
<text text-anchor="middle" x="239.5" y="-738.3" font-family="Times,serif" font-size="14.00">All meshes send their STRINGs to node 0</text>
</g>
<!-- COMMENT_962df00+1&#45;&gt;COMMENT_96296a0+1 -->
<g id="edge3" class="edge">
<title>COMMENT_962df00+1&#45;&gt;COMMENT_96296a0+1</title>
<path fill="none" stroke="black" d="M239.5,-795.7C239.5,-787.98 239.5,-778.71 239.5,-770.11"/>
<polygon fill="black" stroke="black" points="243,-770.1 239.5,-760.1 236,-770.1 243,-770.1"/>
</g>
<!-- CALL_9635ce0 -->
<g id="node5" class="node">
<title>CALL_9635ce0</title>
<g id="a_node5"><a xlink:href="MPI_SEND.svg" xlink:title="MPI_SEND">
<polygon fill="#ffe800" stroke="black" points="287.5,-688 191.5,-688 191.5,-684 187.5,-684 187.5,-680 191.5,-680 191.5,-660 187.5,-660 187.5,-656 191.5,-656 191.5,-652 287.5,-652 287.5,-688"/>
<polyline fill="none" stroke="black" points="191.5,-684 195.5,-684 195.5,-680 191.5,-680 "/>
<polyline fill="none" stroke="black" points="191.5,-660 195.5,-660 195.5,-656 191.5,-656 "/>
<text text-anchor="middle" x="239.5" y="-666.3" font-family="Times,serif" font-size="14.00">MPI_SEND</text>
</a>
</g>
</g>
<!-- COMMENT_96296a0+1&#45;&gt;CALL_9635ce0 -->
<g id="edge4" class="edge">
<title>COMMENT_96296a0+1&#45;&gt;CALL_9635ce0</title>
<path fill="none" stroke="black" d="M239.5,-723.7C239.5,-715.98 239.5,-706.71 239.5,-698.11"/>
<polygon fill="black" stroke="black" points="243,-698.1 239.5,-688.1 236,-698.1 243,-698.1"/>
</g>
<!-- COMMENT_9629480+1 -->
<g id="node6" class="node">
<title>COMMENT_9629480+1</title>
<polygon fill="none" stroke="black" points="302,-616 171,-616 171,-580 308,-580 308,-610 302,-616"/>
<polyline fill="none" stroke="black" points="302,-616 302,-610 "/>
<polyline fill="none" stroke="black" points="308,-610 302,-610 "/>
<text text-anchor="middle" x="239.5" y="-594.3" font-family="Times,serif" font-size="14.00">Pack the strings:</text>
</g>
<!-- CALL_9635ce0&#45;&gt;COMMENT_9629480+1 -->
<g id="edge5" class="edge">
<title>CALL_9635ce0&#45;&gt;COMMENT_9629480+1</title>
<path fill="none" stroke="black" d="M239.5,-651.7C239.5,-643.98 239.5,-634.71 239.5,-626.11"/>
<polygon fill="black" stroke="black" points="243,-626.1 239.5,-616.1 236,-626.1 243,-626.1"/>
</g>
<!-- CALL_963a2a0 -->
<g id="node7" class="node">
<title>CALL_963a2a0</title>
<g id="a_node7"><a xlink:href="MPI_SEND.svg" xlink:title="MPI_SEND">
<polygon fill="#ffe800" stroke="black" points="287.5,-544 191.5,-544 191.5,-540 187.5,-540 187.5,-536 191.5,-536 191.5,-516 187.5,-516 187.5,-512 191.5,-512 191.5,-508 287.5,-508 287.5,-544"/>
<polyline fill="none" stroke="black" points="191.5,-540 195.5,-540 195.5,-536 191.5,-536 "/>
<polyline fill="none" stroke="black" points="191.5,-516 195.5,-516 195.5,-512 191.5,-512 "/>
<text text-anchor="middle" x="239.5" y="-522.3" font-family="Times,serif" font-size="14.00">MPI_SEND</text>
</a>
</g>
</g>
<!-- COMMENT_9629480+1&#45;&gt;CALL_963a2a0 -->
<g id="edge6" class="edge">
<title>COMMENT_9629480+1&#45;&gt;CALL_963a2a0</title>
<path fill="none" stroke="black" d="M239.5,-579.7C239.5,-571.98 239.5,-562.71 239.5,-554.11"/>
<polygon fill="black" stroke="black" points="243,-554.1 239.5,-544.1 236,-554.1 243,-554.1"/>
</g>
<!-- COMMENT_963b060+1 -->
<g id="node8" class="node">
<title>COMMENT_963b060+1</title>
<polygon fill="none" stroke="black" points="464,-472 9,-472 9,-436 470,-436 470,-466 464,-472"/>
<polyline fill="none" stroke="black" points="464,-472 464,-466 "/>
<polyline fill="none" stroke="black" points="470,-466 464,-466 "/>
<text text-anchor="middle" x="239.5" y="-450.3" font-family="Times,serif" font-size="14.00">Node 0 receives the STRINGs and writes them to the .smv file</text>
</g>
<!-- CALL_963a2a0&#45;&gt;COMMENT_963b060+1 -->
<g id="edge7" class="edge">
<title>CALL_963a2a0&#45;&gt;COMMENT_963b060+1</title>
<path fill="none" stroke="black" d="M239.5,-507.7C239.5,-499.98 239.5,-490.71 239.5,-482.11"/>
<polygon fill="black" stroke="black" points="243,-482.1 239.5,-472.1 236,-482.1 243,-482.1"/>
</g>
<!-- CALL_96416e0 -->
<g id="node9" class="node">
<title>CALL_96416e0</title>
<g id="a_node9"><a xlink:href="MPI_RECV.svg" xlink:title="MPI_RECV">
<polygon fill="#ffe800" stroke="black" points="286.5,-397 192.5,-397 192.5,-393 188.5,-393 188.5,-389 192.5,-389 192.5,-369 188.5,-369 188.5,-365 192.5,-365 192.5,-361 286.5,-361 286.5,-397"/>
<polyline fill="none" stroke="black" points="192.5,-393 196.5,-393 196.5,-389 192.5,-389 "/>
<polyline fill="none" stroke="black" points="192.5,-369 196.5,-369 196.5,-365 192.5,-365 "/>
<text text-anchor="middle" x="239.5" y="-375.3" font-family="Times,serif" font-size="14.00">MPI_RECV</text>
</a>
</g>
</g>
<!-- COMMENT_963b060+1&#45;&gt;CALL_96416e0 -->
<g id="edge10" class="edge">
<title>COMMENT_963b060+1&#45;&gt;CALL_96416e0</title>
<path fill="none" stroke="black" d="M239.5,-435.7C239.5,-427.25 239.5,-416.87 239.5,-407.37"/>
<polygon fill="black" stroke="black" points="243,-407.18 239.5,-397.18 236,-407.18 243,-407.18"/>
</g>
<!-- CALL_96452c0 -->
<g id="node10" class="node">
<title>CALL_96452c0</title>
<g id="a_node10"><a xlink:href="MPI_RECV.svg" xlink:title="MPI_RECV">
<polygon fill="#ffe800" stroke="black" points="286.5,-325 192.5,-325 192.5,-321 188.5,-321 188.5,-317 192.5,-317 192.5,-297 188.5,-297 188.5,-293 192.5,-293 192.5,-289 286.5,-289 286.5,-325"/>
<polyline fill="none" stroke="black" points="192.5,-321 196.5,-321 196.5,-317 192.5,-317 "/>
<polyline fill="none" stroke="black" points="192.5,-297 196.5,-297 196.5,-293 192.5,-293 "/>
<text text-anchor="middle" x="239.5" y="-303.3" font-family="Times,serif" font-size="14.00">MPI_RECV</text>
</a>
</g>
</g>
<!-- CALL_96416e0&#45;&gt;CALL_96452c0 -->
<g id="edge8" class="edge">
<title>CALL_96416e0&#45;&gt;CALL_96452c0</title>
<path fill="none" stroke="black" d="M239.5,-360.7C239.5,-352.98 239.5,-343.71 239.5,-335.11"/>
<polygon fill="black" stroke="black" points="243,-335.1 239.5,-325.1 236,-335.1 243,-335.1"/>
</g>
<!-- COMMENT_96408c0+1 -->
<g id="node11" class="node">
<title>COMMENT_96408c0+1</title>
<polygon fill="none" stroke="black" points="312.5,-253 160.5,-253 160.5,-217 318.5,-217 318.5,-247 312.5,-253"/>
<polyline fill="none" stroke="black" points="312.5,-253 312.5,-247 "/>
<polyline fill="none" stroke="black" points="318.5,-247 312.5,-247 "/>
<text text-anchor="middle" x="239.5" y="-231.3" font-family="Times,serif" font-size="14.00">Unpack the strings:</text>
</g>
<!-- CALL_96452c0&#45;&gt;COMMENT_96408c0+1 -->
<g id="edge9" class="edge">
<title>CALL_96452c0&#45;&gt;COMMENT_96408c0+1</title>
<path fill="none" stroke="black" d="M239.5,-288.7C239.5,-280.98 239.5,-271.71 239.5,-263.11"/>
<polygon fill="black" stroke="black" points="243,-263.1 239.5,-253.1 236,-263.1 243,-263.1"/>
</g>
<!-- IF_9669940 -->
<g id="node12" class="node">
<title>IF_9669940</title>
<polygon fill="none" stroke="blue" points="279.5,-181 199.5,-181 199.5,-145 279.5,-145 279.5,-181"/>
<text text-anchor="middle" x="239.5" y="-159.3" font-family="Times,serif" font-size="14.00">HVAC_IF</text>
</g>
<!-- COMMENT_96408c0+1&#45;&gt;IF_9669940 -->
<g id="edge11" class="edge">
<title>COMMENT_96408c0+1&#45;&gt;IF_9669940</title>
<path fill="none" stroke="black" d="M239.5,-216.7C239.5,-208.98 239.5,-199.71 239.5,-191.11"/>
<polygon fill="black" stroke="black" points="243,-191.1 239.5,-181.1 236,-191.1 243,-191.1"/>
</g>
<!-- COMMENT_966a540+1 -->
<g id="node13" class="node">
<title>COMMENT_966a540+1</title>
<polygon fill="none" stroke="black" points="361.5,-109 111.5,-109 111.5,-73 367.5,-73 367.5,-103 361.5,-109"/>
<polyline fill="none" stroke="black" points="361.5,-109 361.5,-103 "/>
<polyline fill="none" stroke="black" points="367.5,-103 361.5,-103 "/>
<text text-anchor="middle" x="239.5" y="-87.3" font-family="Times,serif" font-size="14.00">All STRING arrays are zeroed out</text>
</g>
<!-- IF_9669940&#45;&gt;COMMENT_966a540+1 -->
<g id="edge12" class="edge">
<title>IF_9669940&#45;&gt;COMMENT_966a540+1</title>
<path fill="none" stroke="black" d="M239.5,-144.7C239.5,-136.98 239.5,-127.71 239.5,-119.11"/>
<polygon fill="black" stroke="black" points="243,-119.1 239.5,-109.1 236,-119.1 243,-119.1"/>
</g>
<!-- end_SUBPROGRAM_966c100 -->
<g id="node14" class="node">
<title>end_SUBPROGRAM_966c100</title>
<ellipse fill="black" stroke="black" cx="239.5" cy="-30" rx="7" ry="7"/>
</g>
<!-- COMMENT_966a540+1&#45;&gt;end_SUBPROGRAM_966c100 -->
<g id="edge13" class="edge">
<title>COMMENT_966a540+1&#45;&gt;end_SUBPROGRAM_966c100</title>
<path fill="none" stroke="black" d="M239.5,-72.93C239.5,-64.89 239.5,-55.33 239.5,-47.37"/>
<polygon fill="black" stroke="black" points="243,-47.22 239.5,-37.22 236,-47.22 243,-47.22"/>
</g>
</g>
</svg>
