<?xml version="1.0" encoding="UTF-8" standalone="no"?>
<!DOCTYPE svg PUBLIC "-//W3C//DTD SVG 1.1//EN"
 "http://www.w3.org/Graphics/SVG/1.1/DTD/svg11.dtd">
<!-- Generated by graphviz version 2.43.0 (0)
 -->
<!-- Title: ZONE_BOUNDARY_EXCHANGE Pages: 1 -->
<svg width="1194pt" height="537pt"
 viewBox="0.00 0.00 1194.00 537.00" xmlns="http://www.w3.org/2000/svg" xmlns:xlink="http://www.w3.org/1999/xlink">
<g id="graph0" class="graph" transform="scale(1 1) rotate(0) translate(4 533)">
<title>ZONE_BOUNDARY_EXCHANGE</title>
<polygon fill="white" stroke="transparent" points="-4,4 -4,-533 1190,-533 1190,4 -4,4"/>
<text text-anchor="middle" x="593" y="-7.8" font-family="Times,serif" font-size="14.00">ZONE_BOUNDARY_EXCHANGE</text>
<g id="clust1" class="cluster">
<title>cluster_ANY</title>
<polygon fill="none" stroke="orange" points="8,-65 8,-435 1178,-435 1178,-65 8,-65"/>
<text text-anchor="middle" x="31.5" y="-419.8" font-family="Times,serif" font-size="14.00">ANY</text>
</g>
<g id="clust2" class="cluster">
<title>cluster_MESH_LOOP</title>
<polygon fill="none" stroke="orange" points="926,-218 926,-404 1170,-404 1170,-218 926,-218"/>
<text text-anchor="middle" x="981.5" y="-388.8" font-family="Times,serif" font-size="14.00">MESH_LOOP</text>
</g>
<g id="clust3" class="cluster">
<title>cluster_WALL_LOOP</title>
<polygon fill="none" stroke="orange" points="934,-226 934,-373 1162,-373 1162,-226 934,-226"/>
<text text-anchor="middle" x="987" y="-357.8" font-family="Times,serif" font-size="14.00">WALL_LOOP</text>
</g>
<!-- start_SUBPROGRAM_9317380 -->
<g id="node1" class="node">
<title>start_SUBPROGRAM_9317380</title>
<ellipse fill="none" stroke="black" cx="511" cy="-522" rx="7" ry="7"/>
</g>
<!-- COMMENT_8f2e980+1 -->
<g id="node2" class="node">
<title>COMMENT_8f2e980+1</title>
<polygon fill="none" stroke="black" points="845,-479 171,-479 171,-443 851,-443 851,-473 845,-479"/>
<polyline fill="none" stroke="black" points="845,-479 845,-473 "/>
<polyline fill="none" stroke="black" points="851,-473 845,-473 "/>
<text text-anchor="middle" x="511" y="-457.3" font-family="Times,serif" font-size="14.00">!&gt; brief Propagate PRESSURE_ZONE values from the mesh of origin to neighboring meshes</text>
</g>
<!-- start_SUBPROGRAM_9317380&#45;&gt;COMMENT_8f2e980+1 -->
<g id="edge1" class="edge">
<title>start_SUBPROGRAM_9317380&#45;&gt;COMMENT_8f2e980+1</title>
<path fill="none" stroke="black" d="M511,-514.69C511,-508.49 511,-498.59 511,-489.05"/>
<polygon fill="black" stroke="black" points="514.5,-489.02 511,-479.02 507.5,-489.02 514.5,-489.02"/>
</g>
<!-- COMMENT_8f52ea0+1 -->
<g id="node3" class="node">
<title>COMMENT_8f52ea0+1</title>
<polygon fill="none" stroke="black" points="895.5,-342 120.5,-342 120.5,-306 901.5,-306 901.5,-336 895.5,-342"/>
<polyline fill="none" stroke="black" points="895.5,-342 895.5,-336 "/>
<polyline fill="none" stroke="black" points="901.5,-336 895.5,-336 "/>
<text text-anchor="middle" x="511" y="-320.3" font-family="Times,serif" font-size="14.00">Broadcast the PRESSURE_ZONE array of each mesh to the MPI processes controlling neighboring meshes</text>
</g>
<!-- COMMENT_8f2e980+1&#45;&gt;COMMENT_8f52ea0+1 -->
<g id="edge8" class="edge">
<title>COMMENT_8f2e980+1&#45;&gt;COMMENT_8f52ea0+1</title>
<path fill="none" stroke="black" d="M511,-442.9C511,-420.1 511,-379.48 511,-352.39"/>
<polygon fill="black" stroke="black" points="514.5,-352.39 511,-342.39 507.5,-352.39 514.5,-352.39"/>
</g>
<!-- CALL_8f5ae20 -->
<g id="node4" class="node">
<title>CALL_8f5ae20</title>
<g id="a_node4"><a xlink:href="MPI_BCAST.svg" xlink:title="MPI_BCAST">
<polygon fill="#ffe800" stroke="black" points="562,-270 460,-270 460,-266 456,-266 456,-262 460,-262 460,-242 456,-242 456,-238 460,-238 460,-234 562,-234 562,-270"/>
<polyline fill="none" stroke="black" points="460,-266 464,-266 464,-262 460,-262 "/>
<polyline fill="none" stroke="black" points="460,-242 464,-242 464,-238 460,-238 "/>
<text text-anchor="middle" x="511" y="-248.3" font-family="Times,serif" font-size="14.00">MPI_BCAST</text>
</a>
</g>
</g>
<!-- COMMENT_8f52ea0+1&#45;&gt;CALL_8f5ae20 -->
<g id="edge2" class="edge">
<title>COMMENT_8f52ea0+1&#45;&gt;CALL_8f5ae20</title>
<path fill="none" stroke="black" d="M511,-305.7C511,-297.98 511,-288.71 511,-280.11"/>
<polygon fill="black" stroke="black" points="514.5,-280.1 511,-270.1 507.5,-280.1 514.5,-280.1"/>
</g>
<!-- COMMENT_8f5ae00+1 -->
<g id="node5" class="node">
<title>COMMENT_8f5ae00+1</title>
<polygon fill="none" stroke="black" points="1000,-198 16,-198 16,-145 1006,-145 1006,-192 1000,-198"/>
<polyline fill="none" stroke="black" points="1000,-198 1000,-192 "/>
<polyline fill="none" stroke="black" points="1006,-192 1000,-192 "/>
<text text-anchor="middle" x="511" y="-182.8" font-family="Times,serif" font-size="14.00">For each mesh, go around the exterior boundary looking for OPEN or INTERPOLATED boundaries.</text>
<text text-anchor="middle" x="511" y="-167.8" font-family="Times,serif" font-size="14.00">For the OPEN boundaries, propagate a PRESSURE_ZONE value of 0 into the interior of the mesh.</text>
<text text-anchor="middle" x="511" y="-152.8" font-family="Times,serif" font-size="14.00">For the INTERPOLATED boundaries (NOM/=0), get the PRESSURE_ZONE value from the neighboring mesh and propagate it internally.</text>
</g>
<!-- CALL_8f5ae20&#45;&gt;COMMENT_8f5ae00+1 -->
<g id="edge3" class="edge">
<title>CALL_8f5ae20&#45;&gt;COMMENT_8f5ae00+1</title>
<path fill="none" stroke="black" d="M511,-233.97C511,-226.45 511,-217.31 511,-208.4"/>
<polygon fill="black" stroke="black" points="514.5,-208.16 511,-198.16 507.5,-208.16 514.5,-208.16"/>
</g>
<!-- DO_9302b20 -->
<g id="node8" class="node">
<title>DO_9302b20</title>
<ellipse fill="none" stroke="black" cx="511" cy="-91" rx="70.69" ry="18"/>
<text text-anchor="middle" x="511" y="-87.3" font-family="Times,serif" font-size="14.00">DO_9302b20</text>
</g>
<!-- COMMENT_8f5ae00+1&#45;&gt;DO_9302b20 -->
<g id="edge5" class="edge">
<title>COMMENT_8f5ae00+1&#45;&gt;DO_9302b20</title>
<path fill="none" stroke="black" d="M511,-144.8C511,-136.71 511,-127.76 511,-119.55"/>
<polygon fill="black" stroke="black" points="514.5,-119.33 511,-109.33 507.5,-119.33 514.5,-119.33"/>
</g>
<!-- CALL_8f666c0 -->
<g id="node6" class="node">
<title>CALL_8f666c0</title>
<g id="a_node6"><a xlink:href="ASSIGN_PRESSURE_ZONE.svg" xlink:title="ASSIGN_PRESSURE_ZONE">
<polygon fill="lightgray" stroke="black" points="1154.5,-342 941.5,-342 941.5,-338 937.5,-338 937.5,-334 941.5,-334 941.5,-314 937.5,-314 937.5,-310 941.5,-310 941.5,-306 1154.5,-306 1154.5,-342"/>
<polyline fill="none" stroke="black" points="941.5,-338 945.5,-338 945.5,-334 941.5,-334 "/>
<polyline fill="none" stroke="black" points="941.5,-314 945.5,-314 945.5,-310 941.5,-310 "/>
<text text-anchor="middle" x="1048" y="-320.3" font-family="Times,serif" font-size="14.00">ASSIGN_PRESSURE_ZONE</text>
</a>
</g>
</g>
<!-- CALL_8f7cce0 -->
<g id="node7" class="node">
<title>CALL_8f7cce0</title>
<g id="a_node7"><a xlink:href="ASSIGN_PRESSURE_ZONE.svg" xlink:title="ASSIGN_PRESSURE_ZONE">
<polygon fill="lightgray" stroke="black" points="1154.5,-270 941.5,-270 941.5,-266 937.5,-266 937.5,-262 941.5,-262 941.5,-242 937.5,-242 937.5,-238 941.5,-238 941.5,-234 1154.5,-234 1154.5,-270"/>
<polyline fill="none" stroke="black" points="941.5,-266 945.5,-266 945.5,-262 941.5,-262 "/>
<polyline fill="none" stroke="black" points="941.5,-242 945.5,-242 945.5,-238 941.5,-238 "/>
<text text-anchor="middle" x="1048" y="-248.3" font-family="Times,serif" font-size="14.00">ASSIGN_PRESSURE_ZONE</text>
</a>
</g>
</g>
<!-- CALL_8f666c0&#45;&gt;CALL_8f7cce0 -->
<g id="edge4" class="edge">
<title>CALL_8f666c0&#45;&gt;CALL_8f7cce0</title>
<path fill="none" stroke="black" d="M1048,-305.7C1048,-297.98 1048,-288.71 1048,-280.11"/>
<polygon fill="black" stroke="black" points="1051.5,-280.1 1048,-270.1 1044.5,-280.1 1051.5,-280.1"/>
</g>
<!-- CALL_9313f20 -->
<g id="node9" class="node">
<title>CALL_9313f20</title>
<g id="a_node9"><a xlink:href="MPI_ALLREDUCE.svg" xlink:title="MPI_ALLREDUCE">
<polygon fill="#ffe800" stroke="black" points="1170,-189.5 1024,-189.5 1024,-185.5 1020,-185.5 1020,-181.5 1024,-181.5 1024,-161.5 1020,-161.5 1020,-157.5 1024,-157.5 1024,-153.5 1170,-153.5 1170,-189.5"/>
<polyline fill="none" stroke="black" points="1024,-185.5 1028,-185.5 1028,-181.5 1024,-181.5 "/>
<polyline fill="none" stroke="black" points="1024,-161.5 1028,-161.5 1028,-157.5 1024,-157.5 "/>
<text text-anchor="middle" x="1097" y="-167.8" font-family="Times,serif" font-size="14.00">MPI_ALLREDUCE</text>
</a>
</g>
</g>
<!-- CALL_8f7cce0&#45;&gt;CALL_9313f20 -->
<g id="edge6" class="edge">
<title>CALL_8f7cce0&#45;&gt;CALL_9313f20</title>
<path fill="none" stroke="black" d="M1058.63,-233.97C1065.18,-223.47 1073.7,-209.82 1081.05,-198.05"/>
<polygon fill="black" stroke="black" points="1084.06,-199.84 1086.39,-189.5 1078.12,-196.13 1084.06,-199.84"/>
</g>
<!-- CALL_9317060 -->
<g id="node10" class="node">
<title>CALL_9317060</title>
<g id="a_node10"><a xlink:href="MPI_ALLGATHERV.svg" xlink:title="MPI_ALLGATHERV">
<polygon fill="#ffe800" stroke="black" points="1170,-109 1018,-109 1018,-105 1014,-105 1014,-101 1018,-101 1018,-81 1014,-81 1014,-77 1018,-77 1018,-73 1170,-73 1170,-109"/>
<polyline fill="none" stroke="black" points="1018,-105 1022,-105 1022,-101 1018,-101 "/>
<polyline fill="none" stroke="black" points="1018,-81 1022,-81 1022,-77 1018,-77 "/>
<text text-anchor="middle" x="1094" y="-87.3" font-family="Times,serif" font-size="14.00">MPI_ALLGATHERV</text>
</a>
</g>
</g>
<!-- CALL_9313f20&#45;&gt;CALL_9317060 -->
<g id="edge7" class="edge">
<title>CALL_9313f20&#45;&gt;CALL_9317060</title>
<path fill="none" stroke="black" d="M1096.35,-153.47C1095.97,-143.49 1095.48,-130.65 1095.04,-119.3"/>
<polygon fill="black" stroke="black" points="1098.53,-118.86 1094.65,-109 1091.53,-119.13 1098.53,-118.86"/>
</g>
<!-- end_SUBPROGRAM_9317380 -->
<g id="node11" class="node">
<title>end_SUBPROGRAM_9317380</title>
<ellipse fill="black" stroke="black" cx="1094" cy="-30" rx="7" ry="7"/>
</g>
<!-- CALL_9317060&#45;&gt;end_SUBPROGRAM_9317380 -->
<g id="edge9" class="edge">
<title>CALL_9317060&#45;&gt;end_SUBPROGRAM_9317380</title>
<path fill="none" stroke="black" d="M1094,-72.93C1094,-64.89 1094,-55.33 1094,-47.37"/>
<polygon fill="black" stroke="black" points="1097.5,-47.22 1094,-37.22 1090.5,-47.22 1097.5,-47.22"/>
</g>
</g>
</svg>
