<?xml version="1.0" encoding="UTF-8" standalone="no"?>
<!DOCTYPE svg PUBLIC "-//W3C//DTD SVG 1.1//EN"
 "http://www.w3.org/Graphics/SVG/1.1/DTD/svg11.dtd">
<!-- Generated by graphviz version 2.43.0 (0)
 -->
<!-- Title: ZONE_BOUNDARY_EXCHANGE Pages: 1 -->
<svg width="998pt" height="841pt"
 viewBox="0.00 0.00 998.00 840.88" xmlns="http://www.w3.org/2000/svg" xmlns:xlink="http://www.w3.org/1999/xlink">
<g id="graph0" class="graph" transform="scale(1 1) rotate(0) translate(4 836.88)">
<title>ZONE_BOUNDARY_EXCHANGE</title>
<polygon fill="white" stroke="transparent" points="-4,4 -4,-836.88 994,-836.88 994,4 -4,4"/>
<text text-anchor="middle" x="495" y="-7.8" font-family="Times,serif" font-size="14.00">ZONE_BOUNDARY_EXCHANGE</text>
<g id="clust1" class="cluster">
<title>cluster_MESH_LOOP</title>
<polygon fill="none" stroke="orange" points="373,-209 373,-505.88 617,-505.88 617,-209 373,-209"/>
<text text-anchor="middle" x="428.5" y="-490.68" font-family="Times,serif" font-size="14.00">MESH_LOOP</text>
</g>
<g id="clust2" class="cluster">
<title>cluster_WALL_LOOP</title>
<polygon fill="none" stroke="orange" points="381,-245.72 381,-466.16 609,-466.16 609,-245.72 381,-245.72"/>
<text text-anchor="middle" x="434" y="-450.96" font-family="Times,serif" font-size="14.00">WALL_LOOP</text>
</g>
<!-- start_SUBPROGRAM_9f57880 -->
<g id="node1" class="node">
<title>start_SUBPROGRAM_9f57880</title>
<ellipse fill="none" stroke="black" cx="495" cy="-825.88" rx="7" ry="7"/>
</g>
<!-- COMMENT_9d6fa80+1 -->
<g id="node2" class="node">
<title>COMMENT_9d6fa80+1</title>
<polygon fill="none" stroke="black" points="829,-782.88 155,-782.88 155,-746.88 835,-746.88 835,-776.88 829,-782.88"/>
<polyline fill="none" stroke="black" points="829,-782.88 829,-776.88 "/>
<polyline fill="none" stroke="black" points="835,-776.88 829,-776.88 "/>
<text text-anchor="middle" x="495" y="-761.18" font-family="Times,serif" font-size="14.00">!&gt; brief Propagate PRESSURE_ZONE values from the mesh of origin to neighboring meshes</text>
</g>
<!-- start_SUBPROGRAM_9f57880&#45;&gt;COMMENT_9d6fa80+1 -->
<g id="edge1" class="edge">
<title>start_SUBPROGRAM_9f57880&#45;&gt;COMMENT_9d6fa80+1</title>
<path fill="none" stroke="black" d="M495,-818.57C495,-812.37 495,-802.47 495,-792.93"/>
<polygon fill="black" stroke="black" points="498.5,-792.9 495,-782.9 491.5,-792.9 498.5,-792.9"/>
</g>
<!-- COMMENT_9f0f5e0+1 -->
<g id="node3" class="node">
<title>COMMENT_9f0f5e0+1</title>
<polygon fill="none" stroke="black" points="879.5,-710.88 104.5,-710.88 104.5,-674.88 885.5,-674.88 885.5,-704.88 879.5,-710.88"/>
<polyline fill="none" stroke="black" points="879.5,-710.88 879.5,-704.88 "/>
<polyline fill="none" stroke="black" points="885.5,-704.88 879.5,-704.88 "/>
<text text-anchor="middle" x="495" y="-689.18" font-family="Times,serif" font-size="14.00">Broadcast the PRESSURE_ZONE array of each mesh to the MPI processes controlling neighboring meshes</text>
</g>
<!-- COMMENT_9d6fa80+1&#45;&gt;COMMENT_9f0f5e0+1 -->
<g id="edge2" class="edge">
<title>COMMENT_9d6fa80+1&#45;&gt;COMMENT_9f0f5e0+1</title>
<path fill="none" stroke="black" d="M495,-746.58C495,-738.86 495,-729.59 495,-720.99"/>
<polygon fill="black" stroke="black" points="498.5,-720.98 495,-710.98 491.5,-720.98 498.5,-720.98"/>
</g>
<!-- CALL_9f1b660 -->
<g id="node4" class="node">
<title>CALL_9f1b660</title>
<g id="a_node4"><a xlink:href="MPI_BCAST.svg" xlink:title="MPI_BCAST">
<polygon fill="#ffe800" stroke="black" points="546,-638.88 444,-638.88 444,-634.88 440,-634.88 440,-630.88 444,-630.88 444,-610.88 440,-610.88 440,-606.88 444,-606.88 444,-602.88 546,-602.88 546,-638.88"/>
<polyline fill="none" stroke="black" points="444,-634.88 448,-634.88 448,-630.88 444,-630.88 "/>
<polyline fill="none" stroke="black" points="444,-610.88 448,-610.88 448,-606.88 444,-606.88 "/>
<text text-anchor="middle" x="495" y="-617.18" font-family="Times,serif" font-size="14.00">MPI_BCAST</text>
</a>
</g>
</g>
<!-- COMMENT_9f0f5e0+1&#45;&gt;CALL_9f1b660 -->
<g id="edge3" class="edge">
<title>COMMENT_9f0f5e0+1&#45;&gt;CALL_9f1b660</title>
<path fill="none" stroke="black" d="M495,-674.58C495,-666.86 495,-657.59 495,-648.99"/>
<polygon fill="black" stroke="black" points="498.5,-648.98 495,-638.98 491.5,-648.98 498.5,-648.98"/>
</g>
<!-- COMMENT_9f1b700+1 -->
<g id="node5" class="node">
<title>COMMENT_9f1b700+1</title>
<polygon fill="none" stroke="black" points="984,-566.88 0,-566.88 0,-513.88 990,-513.88 990,-560.88 984,-566.88"/>
<polyline fill="none" stroke="black" points="984,-566.88 984,-560.88 "/>
<polyline fill="none" stroke="black" points="990,-560.88 984,-560.88 "/>
<text text-anchor="middle" x="495" y="-551.68" font-family="Times,serif" font-size="14.00">For each mesh, go around the exterior boundary looking for OPEN or INTERPOLATED boundaries.</text>
<text text-anchor="middle" x="495" y="-536.68" font-family="Times,serif" font-size="14.00">For the OPEN boundaries, propagate a PRESSURE_ZONE value of 0 into the interior of the mesh.</text>
<text text-anchor="middle" x="495" y="-521.68" font-family="Times,serif" font-size="14.00">For the INTERPOLATED boundaries (NOM/=0), get the PRESSURE_ZONE value from the neighboring mesh and propagate it internally.</text>
</g>
<!-- CALL_9f1b660&#45;&gt;COMMENT_9f1b700+1 -->
<g id="edge4" class="edge">
<title>CALL_9f1b660&#45;&gt;COMMENT_9f1b700+1</title>
<path fill="none" stroke="black" d="M495,-602.85C495,-595.33 495,-586.19 495,-577.28"/>
<polygon fill="black" stroke="black" points="498.5,-577.04 495,-567.04 491.5,-577.04 498.5,-577.04"/>
</g>
<!-- beginDO_DO_9f520e0 -->
<g id="node6" class="node">
<title>beginDO_DO_9f520e0</title>
<ellipse fill="black" stroke="black" cx="495" cy="-474.52" rx="0.36" ry="0.36"/>
</g>
<!-- COMMENT_9f1b700+1&#45;&gt;beginDO_DO_9f520e0 -->
<g id="edge9" class="edge">
<title>COMMENT_9f1b700+1&#45;&gt;beginDO_DO_9f520e0</title>
<path fill="none" stroke="black" d="M495,-513.77C495,-496.56 495,-476.8 495,-475.58"/>
</g>
<!-- beginDO_DO_9f42c00 -->
<g id="node8" class="node">
<title>beginDO_DO_9f42c00</title>
<ellipse fill="black" stroke="black" cx="495" cy="-434.8" rx="0.36" ry="0.36"/>
</g>
<!-- beginDO_DO_9f520e0&#45;&gt;beginDO_DO_9f42c00 -->
<g id="edge7" class="edge">
<title>beginDO_DO_9f520e0&#45;&gt;beginDO_DO_9f42c00</title>
<path fill="none" stroke="black" d="M495,-474.05C495,-471.87 495,-438.02 495,-435.9"/>
</g>
<!-- endDO_DO_9f520e0 -->
<g id="node7" class="node">
<title>endDO_DO_9f520e0</title>
<ellipse fill="black" stroke="black" cx="495" cy="-217.36" rx="0.36" ry="0.36"/>
</g>
<!-- CALL_9f542a0 -->
<g id="node12" class="node">
<title>CALL_9f542a0</title>
<g id="a_node12"><a xlink:href="MPI_ALLREDUCE.svg" xlink:title="MPI_ALLREDUCE">
<polygon fill="#ffe800" stroke="black" points="568,-181 422,-181 422,-177 418,-177 418,-173 422,-173 422,-153 418,-153 418,-149 422,-149 422,-145 568,-145 568,-181"/>
<polyline fill="none" stroke="black" points="422,-177 426,-177 426,-173 422,-173 "/>
<polyline fill="none" stroke="black" points="422,-153 426,-153 426,-149 422,-149 "/>
<text text-anchor="middle" x="495" y="-159.3" font-family="Times,serif" font-size="14.00">MPI_ALLREDUCE</text>
</a>
</g>
</g>
<!-- endDO_DO_9f520e0&#45;&gt;CALL_9f542a0 -->
<g id="edge11" class="edge">
<title>endDO_DO_9f520e0&#45;&gt;CALL_9f542a0</title>
<path fill="none" stroke="black" d="M495,-216.21C495,-214.77 495,-203.23 495,-191.36"/>
<polygon fill="black" stroke="black" points="498.5,-191.1 495,-181.1 491.5,-191.1 498.5,-191.1"/>
</g>
<!-- CALL_9f26e20 -->
<g id="node10" class="node">
<title>CALL_9f26e20</title>
<g id="a_node10"><a xlink:href="ASSIGN_PRESSURE_ZONE.svg" xlink:title="ASSIGN_PRESSURE_ZONE">
<polygon fill="lightgray" stroke="black" points="601.5,-398.44 388.5,-398.44 388.5,-394.44 384.5,-394.44 384.5,-390.44 388.5,-390.44 388.5,-370.44 384.5,-370.44 384.5,-366.44 388.5,-366.44 388.5,-362.44 601.5,-362.44 601.5,-398.44"/>
<polyline fill="none" stroke="black" points="388.5,-394.44 392.5,-394.44 392.5,-390.44 388.5,-390.44 "/>
<polyline fill="none" stroke="black" points="388.5,-370.44 392.5,-370.44 392.5,-366.44 388.5,-366.44 "/>
<text text-anchor="middle" x="495" y="-376.74" font-family="Times,serif" font-size="14.00">ASSIGN_PRESSURE_ZONE</text>
</a>
</g>
</g>
<!-- beginDO_DO_9f42c00&#45;&gt;CALL_9f26e20 -->
<g id="edge5" class="edge">
<title>beginDO_DO_9f42c00&#45;&gt;CALL_9f26e20</title>
<path fill="none" stroke="black" d="M495,-434.29C495,-432.81 495,-420.76 495,-408.54"/>
<polygon fill="black" stroke="black" points="498.5,-408.46 495,-398.46 491.5,-408.46 498.5,-408.46"/>
</g>
<!-- endDO_DO_9f42c00 -->
<g id="node9" class="node">
<title>endDO_DO_9f42c00</title>
<ellipse fill="black" stroke="black" cx="495" cy="-254.08" rx="0.36" ry="0.36"/>
</g>
<!-- endDO_DO_9f42c00&#45;&gt;endDO_DO_9f520e0 -->
<g id="edge10" class="edge">
<title>endDO_DO_9f42c00&#45;&gt;endDO_DO_9f520e0</title>
<path fill="none" stroke="black" d="M495,-252.98C495,-250.97 495,-219.76 495,-217.82"/>
</g>
<!-- CALL_9f3cac0 -->
<g id="node11" class="node">
<title>CALL_9f3cac0</title>
<g id="a_node11"><a xlink:href="ASSIGN_PRESSURE_ZONE.svg" xlink:title="ASSIGN_PRESSURE_ZONE">
<polygon fill="lightgray" stroke="black" points="601.5,-326.44 388.5,-326.44 388.5,-322.44 384.5,-322.44 384.5,-318.44 388.5,-318.44 388.5,-298.44 384.5,-298.44 384.5,-294.44 388.5,-294.44 388.5,-290.44 601.5,-290.44 601.5,-326.44"/>
<polyline fill="none" stroke="black" points="388.5,-322.44 392.5,-322.44 392.5,-318.44 388.5,-318.44 "/>
<polyline fill="none" stroke="black" points="388.5,-298.44 392.5,-298.44 392.5,-294.44 388.5,-294.44 "/>
<text text-anchor="middle" x="495" y="-304.74" font-family="Times,serif" font-size="14.00">ASSIGN_PRESSURE_ZONE</text>
</a>
</g>
</g>
<!-- CALL_9f26e20&#45;&gt;CALL_9f3cac0 -->
<g id="edge6" class="edge">
<title>CALL_9f26e20&#45;&gt;CALL_9f3cac0</title>
<path fill="none" stroke="black" d="M495,-362.14C495,-354.42 495,-345.15 495,-336.55"/>
<polygon fill="black" stroke="black" points="498.5,-336.54 495,-326.54 491.5,-336.54 498.5,-336.54"/>
</g>
<!-- CALL_9f3cac0&#45;&gt;endDO_DO_9f42c00 -->
<g id="edge8" class="edge">
<title>CALL_9f3cac0&#45;&gt;endDO_DO_9f42c00</title>
<path fill="none" stroke="black" d="M495,-290.38C495,-275.37 495,-255.71 495,-254.5"/>
</g>
<!-- CALL_9f57520 -->
<g id="node13" class="node">
<title>CALL_9f57520</title>
<g id="a_node13"><a xlink:href="MPI_ALLGATHERV.svg" xlink:title="MPI_ALLGATHERV">
<polygon fill="#ffe800" stroke="black" points="571,-109 419,-109 419,-105 415,-105 415,-101 419,-101 419,-81 415,-81 415,-77 419,-77 419,-73 571,-73 571,-109"/>
<polyline fill="none" stroke="black" points="419,-105 423,-105 423,-101 419,-101 "/>
<polyline fill="none" stroke="black" points="419,-81 423,-81 423,-77 419,-77 "/>
<text text-anchor="middle" x="495" y="-87.3" font-family="Times,serif" font-size="14.00">MPI_ALLGATHERV</text>
</a>
</g>
</g>
<!-- CALL_9f542a0&#45;&gt;CALL_9f57520 -->
<g id="edge12" class="edge">
<title>CALL_9f542a0&#45;&gt;CALL_9f57520</title>
<path fill="none" stroke="black" d="M495,-144.7C495,-136.98 495,-127.71 495,-119.11"/>
<polygon fill="black" stroke="black" points="498.5,-119.1 495,-109.1 491.5,-119.1 498.5,-119.1"/>
</g>
<!-- end_SUBPROGRAM_9f57880 -->
<g id="node14" class="node">
<title>end_SUBPROGRAM_9f57880</title>
<ellipse fill="black" stroke="black" cx="495" cy="-30" rx="7" ry="7"/>
</g>
<!-- CALL_9f57520&#45;&gt;end_SUBPROGRAM_9f57880 -->
<g id="edge13" class="edge">
<title>CALL_9f57520&#45;&gt;end_SUBPROGRAM_9f57880</title>
<path fill="none" stroke="black" d="M495,-72.93C495,-64.89 495,-55.33 495,-47.37"/>
<polygon fill="black" stroke="black" points="498.5,-47.22 495,-37.22 491.5,-47.22 498.5,-47.22"/>
</g>
</g>
</svg>
