<?xml version="1.0" encoding="UTF-8" standalone="no"?>
<!DOCTYPE svg PUBLIC "-//W3C//DTD SVG 1.1//EN"
 "http://www.w3.org/Graphics/SVG/1.1/DTD/svg11.dtd">
<!-- Generated by graphviz version 2.43.0 (0)
 -->
<!-- Title: ZONE_BOUNDARY_EXCHANGE Pages: 1 -->
<svg width="1030pt" height="917pt"
 viewBox="0.00 0.00 1030.00 917.32" xmlns="http://www.w3.org/2000/svg" xmlns:xlink="http://www.w3.org/1999/xlink">
<g id="graph0" class="graph" transform="scale(1 1) rotate(0) translate(4 913.32)">
<title>ZONE_BOUNDARY_EXCHANGE</title>
<polygon fill="white" stroke="transparent" points="-4,4 -4,-913.32 1026,-913.32 1026,4 -4,4"/>
<text text-anchor="middle" x="511" y="-7.8" font-family="Times,serif" font-size="14.00">ZONE_BOUNDARY_EXCHANGE</text>
<g id="clust1" class="cluster">
<title>cluster_ANY</title>
<polygon fill="none" stroke="orange" points="8,-65 8,-815.32 1014,-815.32 1014,-65 8,-65"/>
<text text-anchor="middle" x="31.5" y="-800.12" font-family="Times,serif" font-size="14.00">ANY</text>
</g>
<g id="clust2" class="cluster">
<title>cluster_MESH_LOOP</title>
<polygon fill="none" stroke="orange" points="389,-245.72 389,-542.6 633,-542.6 633,-245.72 389,-245.72"/>
<text text-anchor="middle" x="444.5" y="-527.4" font-family="Times,serif" font-size="14.00">MESH_LOOP</text>
</g>
<g id="clust3" class="cluster">
<title>cluster_WALL_LOOP</title>
<polygon fill="none" stroke="orange" points="397,-282.44 397,-502.88 625,-502.88 625,-282.44 397,-282.44"/>
<text text-anchor="middle" x="450" y="-487.68" font-family="Times,serif" font-size="14.00">WALL_LOOP</text>
</g>
<!-- start_SUBPROGRAM_960b280 -->
<g id="node1" class="node">
<title>start_SUBPROGRAM_960b280</title>
<ellipse fill="none" stroke="black" cx="511" cy="-902.32" rx="7" ry="7"/>
</g>
<!-- COMMENT_95a0f80+1 -->
<g id="node2" class="node">
<title>COMMENT_95a0f80+1</title>
<polygon fill="none" stroke="black" points="845,-859.32 171,-859.32 171,-823.32 851,-823.32 851,-853.32 845,-859.32"/>
<polyline fill="none" stroke="black" points="845,-859.32 845,-853.32 "/>
<polyline fill="none" stroke="black" points="851,-853.32 845,-853.32 "/>
<text text-anchor="middle" x="511" y="-837.62" font-family="Times,serif" font-size="14.00">!&gt; brief Propagate PRESSURE_ZONE values from the mesh of origin to neighboring meshes</text>
</g>
<!-- start_SUBPROGRAM_960b280&#45;&gt;COMMENT_95a0f80+1 -->
<g id="edge1" class="edge">
<title>start_SUBPROGRAM_960b280&#45;&gt;COMMENT_95a0f80+1</title>
<path fill="none" stroke="black" d="M511,-895.01C511,-888.81 511,-878.91 511,-869.37"/>
<polygon fill="black" stroke="black" points="514.5,-869.34 511,-859.34 507.5,-869.34 514.5,-869.34"/>
</g>
<!-- beginDO_DO_960afc0 -->
<g id="node3" class="node">
<title>beginDO_DO_960afc0</title>
<ellipse fill="black" stroke="black" cx="511" cy="-783.96" rx="0.36" ry="0.36"/>
</g>
<!-- COMMENT_95a0f80+1&#45;&gt;beginDO_DO_960afc0 -->
<g id="edge13" class="edge">
<title>COMMENT_95a0f80+1&#45;&gt;beginDO_DO_960afc0</title>
<path fill="none" stroke="black" d="M511,-823.11C511,-807.36 511,-786.32 511,-785.02"/>
</g>
<!-- COMMENT_95c1560+1 -->
<g id="node5" class="node">
<title>COMMENT_95c1560+1</title>
<polygon fill="none" stroke="black" points="895.5,-747.6 120.5,-747.6 120.5,-711.6 901.5,-711.6 901.5,-741.6 895.5,-747.6"/>
<polyline fill="none" stroke="black" points="895.5,-747.6 895.5,-741.6 "/>
<polyline fill="none" stroke="black" points="901.5,-741.6 895.5,-741.6 "/>
<text text-anchor="middle" x="511" y="-725.9" font-family="Times,serif" font-size="14.00">Broadcast the PRESSURE_ZONE array of each mesh to the MPI processes controlling neighboring meshes</text>
</g>
<!-- beginDO_DO_960afc0&#45;&gt;COMMENT_95c1560+1 -->
<g id="edge2" class="edge">
<title>beginDO_DO_960afc0&#45;&gt;COMMENT_95c1560+1</title>
<path fill="none" stroke="black" d="M511,-783.45C511,-781.97 511,-769.92 511,-757.7"/>
<polygon fill="black" stroke="black" points="514.5,-757.62 511,-747.62 507.5,-757.62 514.5,-757.62"/>
</g>
<!-- endDO_DO_960afc0 -->
<g id="node4" class="node">
<title>endDO_DO_960afc0</title>
<ellipse fill="black" stroke="black" cx="511" cy="-73.36" rx="0.36" ry="0.36"/>
</g>
<!-- end_SUBPROGRAM_960b280 -->
<g id="node16" class="node">
<title>end_SUBPROGRAM_960b280</title>
<ellipse fill="black" stroke="black" cx="511" cy="-30" rx="7" ry="7"/>
</g>
<!-- endDO_DO_960afc0&#45;&gt;end_SUBPROGRAM_960b280 -->
<g id="edge15" class="edge">
<title>endDO_DO_960afc0&#45;&gt;end_SUBPROGRAM_960b280</title>
<path fill="none" stroke="black" d="M511,-72.24C511,-70.89 511,-58.27 511,-47.34"/>
<polygon fill="black" stroke="black" points="514.5,-47.1 511,-37.1 507.5,-47.1 514.5,-47.1"/>
</g>
<!-- CALL_95ce3c0 -->
<g id="node6" class="node">
<title>CALL_95ce3c0</title>
<g id="a_node6"><a xlink:href="MPI_BCAST.svg" xlink:title="MPI_BCAST">
<polygon fill="#ffe800" stroke="black" points="562,-675.6 460,-675.6 460,-671.6 456,-671.6 456,-667.6 460,-667.6 460,-647.6 456,-647.6 456,-643.6 460,-643.6 460,-639.6 562,-639.6 562,-675.6"/>
<polyline fill="none" stroke="black" points="460,-671.6 464,-671.6 464,-667.6 460,-667.6 "/>
<polyline fill="none" stroke="black" points="460,-647.6 464,-647.6 464,-643.6 460,-643.6 "/>
<text text-anchor="middle" x="511" y="-653.9" font-family="Times,serif" font-size="14.00">MPI_BCAST</text>
</a>
</g>
</g>
<!-- COMMENT_95c1560+1&#45;&gt;CALL_95ce3c0 -->
<g id="edge3" class="edge">
<title>COMMENT_95c1560+1&#45;&gt;CALL_95ce3c0</title>
<path fill="none" stroke="black" d="M511,-711.3C511,-703.58 511,-694.31 511,-685.71"/>
<polygon fill="black" stroke="black" points="514.5,-685.7 511,-675.7 507.5,-685.7 514.5,-685.7"/>
</g>
<!-- COMMENT_95cc640+1 -->
<g id="node7" class="node">
<title>COMMENT_95cc640+1</title>
<polygon fill="none" stroke="black" points="1000,-603.6 16,-603.6 16,-550.6 1006,-550.6 1006,-597.6 1000,-603.6"/>
<polyline fill="none" stroke="black" points="1000,-603.6 1000,-597.6 "/>
<polyline fill="none" stroke="black" points="1006,-597.6 1000,-597.6 "/>
<text text-anchor="middle" x="511" y="-588.4" font-family="Times,serif" font-size="14.00">For each mesh, go around the exterior boundary looking for OPEN or INTERPOLATED boundaries.</text>
<text text-anchor="middle" x="511" y="-573.4" font-family="Times,serif" font-size="14.00">For the OPEN boundaries, propagate a PRESSURE_ZONE value of 0 into the interior of the mesh.</text>
<text text-anchor="middle" x="511" y="-558.4" font-family="Times,serif" font-size="14.00">For the INTERPOLATED boundaries (NOM/=0), get the PRESSURE_ZONE value from the neighboring mesh and propagate it internally.</text>
</g>
<!-- CALL_95ce3c0&#45;&gt;COMMENT_95cc640+1 -->
<g id="edge4" class="edge">
<title>CALL_95ce3c0&#45;&gt;COMMENT_95cc640+1</title>
<path fill="none" stroke="black" d="M511,-639.57C511,-632.05 511,-622.91 511,-614"/>
<polygon fill="black" stroke="black" points="514.5,-613.76 511,-603.76 507.5,-613.76 514.5,-613.76"/>
</g>
<!-- beginDO_DO_9605e20 -->
<g id="node8" class="node">
<title>beginDO_DO_9605e20</title>
<ellipse fill="black" stroke="black" cx="511" cy="-511.24" rx="0.36" ry="0.36"/>
</g>
<!-- COMMENT_95cc640+1&#45;&gt;beginDO_DO_9605e20 -->
<g id="edge9" class="edge">
<title>COMMENT_95cc640+1&#45;&gt;beginDO_DO_9605e20</title>
<path fill="none" stroke="black" d="M511,-550.49C511,-533.28 511,-513.52 511,-512.3"/>
</g>
<!-- beginDO_DO_95f6540 -->
<g id="node10" class="node">
<title>beginDO_DO_95f6540</title>
<ellipse fill="black" stroke="black" cx="511" cy="-471.52" rx="0.36" ry="0.36"/>
</g>
<!-- beginDO_DO_9605e20&#45;&gt;beginDO_DO_95f6540 -->
<g id="edge7" class="edge">
<title>beginDO_DO_9605e20&#45;&gt;beginDO_DO_95f6540</title>
<path fill="none" stroke="black" d="M511,-510.77C511,-508.59 511,-474.74 511,-472.62"/>
</g>
<!-- endDO_DO_9605e20 -->
<g id="node9" class="node">
<title>endDO_DO_9605e20</title>
<ellipse fill="black" stroke="black" cx="511" cy="-254.08" rx="0.36" ry="0.36"/>
</g>
<!-- CALL_9607de0 -->
<g id="node14" class="node">
<title>CALL_9607de0</title>
<g id="a_node14"><a xlink:href="MPI_ALLREDUCE.svg" xlink:title="MPI_ALLREDUCE">
<polygon fill="#ffe800" stroke="black" points="584,-217.72 438,-217.72 438,-213.72 434,-213.72 434,-209.72 438,-209.72 438,-189.72 434,-189.72 434,-185.72 438,-185.72 438,-181.72 584,-181.72 584,-217.72"/>
<polyline fill="none" stroke="black" points="438,-213.72 442,-213.72 442,-209.72 438,-209.72 "/>
<polyline fill="none" stroke="black" points="438,-189.72 442,-189.72 442,-185.72 438,-185.72 "/>
<text text-anchor="middle" x="511" y="-196.02" font-family="Times,serif" font-size="14.00">MPI_ALLREDUCE</text>
</a>
</g>
</g>
<!-- endDO_DO_9605e20&#45;&gt;CALL_9607de0 -->
<g id="edge11" class="edge">
<title>endDO_DO_9605e20&#45;&gt;CALL_9607de0</title>
<path fill="none" stroke="black" d="M511,-252.93C511,-251.49 511,-239.95 511,-228.08"/>
<polygon fill="black" stroke="black" points="514.5,-227.82 511,-217.82 507.5,-227.82 514.5,-227.82"/>
</g>
<!-- CALL_95d9d40 -->
<g id="node12" class="node">
<title>CALL_95d9d40</title>
<g id="a_node12"><a xlink:href="ASSIGN_PRESSURE_ZONE.svg" xlink:title="ASSIGN_PRESSURE_ZONE">
<polygon fill="lightgray" stroke="black" points="617.5,-435.16 404.5,-435.16 404.5,-431.16 400.5,-431.16 400.5,-427.16 404.5,-427.16 404.5,-407.16 400.5,-407.16 400.5,-403.16 404.5,-403.16 404.5,-399.16 617.5,-399.16 617.5,-435.16"/>
<polyline fill="none" stroke="black" points="404.5,-431.16 408.5,-431.16 408.5,-427.16 404.5,-427.16 "/>
<polyline fill="none" stroke="black" points="404.5,-407.16 408.5,-407.16 408.5,-403.16 404.5,-403.16 "/>
<text text-anchor="middle" x="511" y="-413.46" font-family="Times,serif" font-size="14.00">ASSIGN_PRESSURE_ZONE</text>
</a>
</g>
</g>
<!-- beginDO_DO_95f6540&#45;&gt;CALL_95d9d40 -->
<g id="edge5" class="edge">
<title>beginDO_DO_95f6540&#45;&gt;CALL_95d9d40</title>
<path fill="none" stroke="black" d="M511,-471.01C511,-469.53 511,-457.48 511,-445.26"/>
<polygon fill="black" stroke="black" points="514.5,-445.18 511,-435.18 507.5,-445.18 514.5,-445.18"/>
</g>
<!-- endDO_DO_95f6540 -->
<g id="node11" class="node">
<title>endDO_DO_95f6540</title>
<ellipse fill="black" stroke="black" cx="511" cy="-290.8" rx="0.36" ry="0.36"/>
</g>
<!-- endDO_DO_95f6540&#45;&gt;endDO_DO_9605e20 -->
<g id="edge10" class="edge">
<title>endDO_DO_95f6540&#45;&gt;endDO_DO_9605e20</title>
<path fill="none" stroke="black" d="M511,-289.7C511,-287.69 511,-256.48 511,-254.54"/>
</g>
<!-- CALL_95f02c0 -->
<g id="node13" class="node">
<title>CALL_95f02c0</title>
<g id="a_node13"><a xlink:href="ASSIGN_PRESSURE_ZONE.svg" xlink:title="ASSIGN_PRESSURE_ZONE">
<polygon fill="lightgray" stroke="black" points="617.5,-363.16 404.5,-363.16 404.5,-359.16 400.5,-359.16 400.5,-355.16 404.5,-355.16 404.5,-335.16 400.5,-335.16 400.5,-331.16 404.5,-331.16 404.5,-327.16 617.5,-327.16 617.5,-363.16"/>
<polyline fill="none" stroke="black" points="404.5,-359.16 408.5,-359.16 408.5,-355.16 404.5,-355.16 "/>
<polyline fill="none" stroke="black" points="404.5,-335.16 408.5,-335.16 408.5,-331.16 404.5,-331.16 "/>
<text text-anchor="middle" x="511" y="-341.46" font-family="Times,serif" font-size="14.00">ASSIGN_PRESSURE_ZONE</text>
</a>
</g>
</g>
<!-- CALL_95d9d40&#45;&gt;CALL_95f02c0 -->
<g id="edge6" class="edge">
<title>CALL_95d9d40&#45;&gt;CALL_95f02c0</title>
<path fill="none" stroke="black" d="M511,-398.86C511,-391.14 511,-381.87 511,-373.27"/>
<polygon fill="black" stroke="black" points="514.5,-373.26 511,-363.26 507.5,-373.26 514.5,-373.26"/>
</g>
<!-- CALL_95f02c0&#45;&gt;endDO_DO_95f6540 -->
<g id="edge8" class="edge">
<title>CALL_95f02c0&#45;&gt;endDO_DO_95f6540</title>
<path fill="none" stroke="black" d="M511,-327.1C511,-312.09 511,-292.43 511,-291.22"/>
</g>
<!-- CALL_960aee0 -->
<g id="node15" class="node">
<title>CALL_960aee0</title>
<g id="a_node15"><a xlink:href="MPI_ALLGATHERV.svg" xlink:title="MPI_ALLGATHERV">
<polygon fill="#ffe800" stroke="black" points="587,-145.72 435,-145.72 435,-141.72 431,-141.72 431,-137.72 435,-137.72 435,-117.72 431,-117.72 431,-113.72 435,-113.72 435,-109.72 587,-109.72 587,-145.72"/>
<polyline fill="none" stroke="black" points="435,-141.72 439,-141.72 439,-137.72 435,-137.72 "/>
<polyline fill="none" stroke="black" points="435,-117.72 439,-117.72 439,-113.72 435,-113.72 "/>
<text text-anchor="middle" x="511" y="-124.02" font-family="Times,serif" font-size="14.00">MPI_ALLGATHERV</text>
</a>
</g>
</g>
<!-- CALL_9607de0&#45;&gt;CALL_960aee0 -->
<g id="edge12" class="edge">
<title>CALL_9607de0&#45;&gt;CALL_960aee0</title>
<path fill="none" stroke="black" d="M511,-181.42C511,-173.7 511,-164.43 511,-155.83"/>
<polygon fill="black" stroke="black" points="514.5,-155.82 511,-145.82 507.5,-155.82 514.5,-155.82"/>
</g>
<!-- CALL_960aee0&#45;&gt;endDO_DO_960afc0 -->
<g id="edge14" class="edge">
<title>CALL_960aee0&#45;&gt;endDO_DO_960afc0</title>
<path fill="none" stroke="black" d="M511,-109.66C511,-94.65 511,-74.99 511,-73.78"/>
</g>
</g>
</svg>
